0, 0, Header, 1, 12, 120
1, 0, Start_track
1, 0, Sequencer_specific, 10, 0, 0, 91, 35, 1, 0, 5, 3, 24, 0
1, 0, Instrument_name_t, "Conductor Track"
1, 0, SMPTE_offset, 96, 0, 3, 0, 0
1, 0, MIDI_port, 0
1, 0, Tempo, 1200000
1, 0, Time_signature, 3, 2, 24, 8
1, 29160, Tempo, 1333333
1, 29220, Tempo, 1395348
1, 29280, Tempo, 1463414
1, 29340, Tempo, 1538461
1, 29400, Tempo, 1621621
1, 29460, Tempo, 1714285
1, 29520, Tempo, 1500000
1, 29520, End_track
2, 0, Start_track
2, 0, Title_t, "Accomp"
2, 0, MIDI_port, 0
2, 0, Control_c, 0, 7, 101
2, 0, Control_c, 0, 10, 68
2, 0, Control_c, 0, 91, 127
2, 0, Program_c, 0, 74
2, 1, Note_on_c, 0, 71, 65
2, 2, Note_on_c, 0, 74, 65
2, 119, Note_on_c, 0, 69, 65
2, 119, Note_on_c, 0, 76, 65
2, 120, Note_on_c, 0, 71, 0
2, 123, Note_on_c, 0, 74, 0
2, 204, Note_on_c, 0, 71, 65
2, 205, Note_on_c, 0, 69, 0
2, 218, Note_on_c, 0, 67, 65
2, 219, Note_on_c, 0, 71, 0
2, 232, Note_on_c, 0, 67, 0
2, 233, Note_on_c, 0, 74, 65
2, 235, Note_on_c, 0, 76, 0
2, 235, Note_on_c, 0, 66, 65
2, 311, Note_on_c, 0, 76, 65
2, 312, Note_on_c, 0, 74, 0
2, 329, Note_on_c, 0, 76, 0
2, 329, Note_on_c, 0, 72, 65
2, 344, Note_on_c, 0, 71, 65
2, 345, Note_on_c, 0, 66, 0
2, 345, Note_on_c, 0, 67, 65
2, 346, Note_on_c, 0, 72, 0
2, 411, Note_on_c, 0, 67, 0
2, 411, Note_on_c, 0, 69, 65
2, 440, Note_on_c, 0, 67, 65
2, 441, Note_on_c, 0, 69, 0
2, 470, Note_on_c, 0, 67, 0
2, 471, Note_on_c, 0, 66, 65
2, 500, Note_on_c, 0, 66, 0
2, 500, Note_on_c, 0, 67, 65
2, 528, Note_on_c, 0, 72, 65
2, 532, Note_on_c, 0, 71, 0
2, 532, Note_on_c, 0, 67, 0
2, 532, Note_on_c, 0, 64, 65
2, 593, Note_on_c, 0, 72, 0
2, 595, Note_on_c, 0, 74, 65
2, 596, Note_on_c, 0, 62, 65
2, 597, Note_on_c, 0, 64, 0
2, 682, Note_on_c, 0, 62, 0
2, 711, Note_on_c, 0, 64, 65
2, 793, Note_on_c, 0, 66, 65
2, 798, Note_on_c, 0, 64, 0
2, 810, Note_on_c, 0, 66, 0
2, 825, Note_on_c, 0, 67, 65
2, 826, Note_on_c, 0, 72, 65
2, 830, Note_on_c, 0, 74, 0
2, 839, Note_on_c, 0, 67, 0
2, 840, Note_on_c, 0, 66, 65
2, 850, Note_on_c, 0, 66, 0
2, 852, Note_on_c, 0, 67, 65
2, 862, Note_on_c, 0, 67, 0
2, 863, Note_on_c, 0, 66, 65
2, 872, Note_on_c, 0, 66, 0
2, 876, Note_on_c, 0, 67, 65
2, 884, Note_on_c, 0, 72, 0
2, 884, Note_on_c, 0, 71, 65
2, 885, Note_on_c, 0, 67, 0
2, 886, Note_on_c, 0, 66, 65
2, 895, Note_on_c, 0, 66, 0
2, 897, Note_on_c, 0, 67, 65
2, 907, Note_on_c, 0, 67, 0
2, 908, Note_on_c, 0, 66, 65
2, 917, Note_on_c, 0, 66, 0
2, 920, Note_on_c, 0, 67, 65
2, 927, Note_on_c, 0, 67, 0
2, 929, Note_on_c, 0, 66, 65
2, 935, Note_on_c, 0, 66, 0
2, 938, Note_on_c, 0, 67, 65
2, 946, Note_on_c, 0, 71, 0
2, 946, Note_on_c, 0, 72, 65
2, 947, Note_on_c, 0, 66, 65
2, 948, Note_on_c, 0, 67, 0
2, 1004, Note_on_c, 0, 64, 65
2, 1005, Note_on_c, 0, 74, 65
2, 1006, Note_on_c, 0, 72, 0
2, 1006, Note_on_c, 0, 66, 0
2, 1034, Note_on_c, 0, 66, 65
2, 1036, Note_on_c, 0, 64, 0
2, 1069, Note_on_c, 0, 66, 0
2, 1072, Note_on_c, 0, 71, 65
2, 1073, Note_on_c, 0, 67, 65
2, 1074, Note_on_c, 0, 74, 0
2, 1205, Note_on_c, 0, 71, 0
2, 1258, Note_on_c, 0, 69, 65
2, 1260, Note_on_c, 0, 67, 0
2, 1288, Note_on_c, 0, 67, 65
2, 1291, Note_on_c, 0, 69, 0
2, 1319, Note_on_c, 0, 67, 0
2, 1320, Note_on_c, 0, 66, 65
2, 1351, Note_on_c, 0, 67, 65
2, 1353, Note_on_c, 0, 66, 0
2, 1380, Note_on_c, 0, 64, 65
2, 1381, Note_on_c, 0, 67, 0
2, 1438, Note_on_c, 0, 69, 65
2, 1439, Note_on_c, 0, 62, 65
2, 1442, Note_on_c, 0, 64, 0
2, 1465, Note_on_c, 0, 62, 0
2, 1467, Note_on_c, 0, 64, 65
2, 1500, Note_on_c, 0, 66, 65
2, 1501, Note_on_c, 0, 64, 0
2, 1534, Note_on_c, 0, 66, 0
2, 1555, Note_on_c, 0, 66, 65
2, 1556, Note_on_c, 0, 69, 0
2, 1556, Note_on_c, 0, 71, 65
2, 1565, Note_on_c, 0, 64, 65
2, 1566, Note_on_c, 0, 66, 0
2, 1572, Note_on_c, 0, 64, 0
2, 1572, Note_on_c, 0, 66, 65
2, 1579, Note_on_c, 0, 64, 65
2, 1581, Note_on_c, 0, 66, 0
2, 1649, Note_on_c, 0, 73, 65
2, 1653, Note_on_c, 0, 71, 0
2, 1662, Note_on_c, 0, 73, 0
2, 1680, Note_on_c, 0, 74, 65
2, 1694, Note_on_c, 0, 74, 0
2, 1695, Note_on_c, 0, 73, 65
2, 1700, Note_on_c, 0, 64, 0
2, 1704, Note_on_c, 0, 73, 0
2, 1707, Note_on_c, 0, 74, 65
2, 1716, Note_on_c, 0, 74, 0
2, 1717, Note_on_c, 0, 73, 65
2, 1724, Note_on_c, 0, 73, 0
2, 1727, Note_on_c, 0, 74, 65
2, 1733, Note_on_c, 0, 74, 0
2, 1733, Note_on_c, 0, 67, 65
2, 1739, Note_on_c, 0, 74, 65
2, 1747, Note_on_c, 0, 74, 0
2, 1747, Note_on_c, 0, 73, 65
2, 1767, Note_on_c, 0, 73, 0
2, 1768, Note_on_c, 0, 71, 65
2, 1781, Note_on_c, 0, 73, 65
2, 1782, Note_on_c, 0, 71, 0
2, 1797, Note_on_c, 0, 73, 0
2, 1799, Note_on_c, 0, 74, 65
2, 1799, Note_on_c, 0, 66, 65
2, 1800, Note_on_c, 0, 67, 0
2, 1857, Note_on_c, 0, 66, 0
2, 1858, Note_on_c, 0, 67, 65
2, 1913, Note_on_c, 0, 67, 0
2, 1913, Note_on_c, 0, 69, 65
2, 1969, Note_on_c, 0, 74, 0
2, 1969, Note_on_c, 0, 72, 65
2, 2031, Note_on_c, 0, 72, 0
2, 2031, Note_on_c, 0, 71, 65
2, 2032, Note_on_c, 0, 69, 0
2, 2032, Note_on_c, 0, 62, 65
2, 2094, Note_on_c, 0, 71, 0
2, 2094, Note_on_c, 0, 69, 65
2, 2157, Note_on_c, 0, 72, 65
2, 2159, Note_on_c, 0, 69, 0
2, 2218, Note_on_c, 0, 62, 0
2, 2218, Note_on_c, 0, 71, 65
2, 2219, Note_on_c, 0, 72, 0
2, 2219, Note_on_c, 0, 67, 65
2, 2260, Note_on_c, 0, 71, 0
2, 2282, Note_on_c, 0, 71, 65
2, 2295, Note_on_c, 0, 67, 0
2, 2297, Note_on_c, 0, 69, 65
2, 2298, Note_on_c, 0, 71, 0
2, 2310, Note_on_c, 0, 69, 0
2, 2310, Note_on_c, 0, 71, 65
2, 2322, Note_on_c, 0, 71, 0
2, 2323, Note_on_c, 0, 69, 65
2, 2332, Note_on_c, 0, 69, 0
2, 2334, Note_on_c, 0, 67, 65
2, 2334, Note_on_c, 0, 71, 65
2, 2344, Note_on_c, 0, 71, 0
2, 2345, Note_on_c, 0, 69, 65
2, 2352, Note_on_c, 0, 69, 0
2, 2353, Note_on_c, 0, 71, 65
2, 2362, Note_on_c, 0, 69, 65
2, 2363, Note_on_c, 0, 71, 0
2, 2369, Note_on_c, 0, 69, 0
2, 2370, Note_on_c, 0, 71, 65
2, 2375, Note_on_c, 0, 71, 0
2, 2376, Note_on_c, 0, 69, 65
2, 2383, Note_on_c, 0, 71, 65
2, 2384, Note_on_c, 0, 69, 0
2, 2391, Note_on_c, 0, 69, 65
2, 2392, Note_on_c, 0, 67, 0
2, 2394, Note_on_c, 0, 66, 65
2, 2398, Note_on_c, 0, 71, 0
2, 2452, Note_on_c, 0, 69, 0
2, 2453, Note_on_c, 0, 67, 65
2, 2478, Note_on_c, 0, 67, 0
2, 2478, Note_on_c, 0, 69, 65
2, 2503, Note_on_c, 0, 69, 0
2, 2511, Note_on_c, 0, 66, 0
2, 2512, Note_on_c, 0, 67, 65
2, 2574, Note_on_c, 0, 74, 65
2, 2579, Note_on_c, 0, 67, 0
2, 2695, Note_on_c, 0, 74, 0
2, 2695, Note_on_c, 0, 72, 65
2, 2813, Note_on_c, 0, 72, 0
2, 2814, Note_on_c, 0, 74, 65
2, 2814, Note_on_c, 0, 71, 65
2, 2874, Note_on_c, 0, 74, 0
2, 2874, Note_on_c, 0, 76, 65
2, 2876, Note_on_c, 0, 71, 0
2, 2933, Note_on_c, 0, 69, 65
2, 2961, Note_on_c, 0, 78, 65
2, 2966, Note_on_c, 0, 76, 0
2, 2975, Note_on_c, 0, 78, 0
2, 2979, Note_on_c, 0, 69, 0
2, 2992, Note_on_c, 0, 69, 65
2, 2993, Note_on_c, 0, 79, 65
2, 3007, Note_on_c, 0, 79, 0
2, 3007, Note_on_c, 0, 78, 65
2, 3017, Note_on_c, 0, 78, 0
2, 3019, Note_on_c, 0, 79, 65
2, 3029, Note_on_c, 0, 79, 0
2, 3031, Note_on_c, 0, 78, 65
2, 3038, Note_on_c, 0, 78, 0
2, 3040, Note_on_c, 0, 79, 65
2, 3050, Note_on_c, 0, 79, 0
2, 3051, Note_on_c, 0, 78, 65
2, 3059, Note_on_c, 0, 78, 0
2, 3060, Note_on_c, 0, 79, 65
2, 3070, Note_on_c, 0, 79, 0
2, 3071, Note_on_c, 0, 78, 65
2, 3077, Note_on_c, 0, 78, 0
2, 3078, Note_on_c, 0, 79, 65
2, 3087, Note_on_c, 0, 79, 0
2, 3088, Note_on_c, 0, 78, 65
2, 3094, Note_on_c, 0, 78, 0
2, 3095, Note_on_c, 0, 79, 65
2, 3101, Note_on_c, 0, 79, 0
2, 3103, Note_on_c, 0, 78, 65
2, 3107, Note_on_c, 0, 78, 0
2, 3107, Note_on_c, 0, 79, 65
2, 3115, Note_on_c, 0, 78, 65
2, 3126, Note_on_c, 0, 79, 0
2, 3172, Note_on_c, 0, 78, 0
2, 3173, Note_on_c, 0, 76, 65
2, 3199, Note_on_c, 0, 78, 65
2, 3200, Note_on_c, 0, 76, 0
2, 3234, Note_on_c, 0, 67, 65
2, 3234, Note_on_c, 0, 79, 65
2, 3235, Note_on_c, 0, 78, 0
2, 3236, Note_on_c, 0, 69, 0
2, 3291, Note_on_c, 0, 69, 65
2, 3294, Note_on_c, 0, 67, 0
2, 3349, Note_on_c, 0, 69, 0
2, 3349, Note_on_c, 0, 71, 65
2, 3408, Note_on_c, 0, 78, 65
2, 3411, Note_on_c, 0, 79, 0
2, 3470, Note_on_c, 0, 78, 0
2, 3472, Note_on_c, 0, 76, 65
2, 3472, Note_on_c, 0, 73, 65
2, 3474, Note_on_c, 0, 71, 0
2, 3555, Note_on_c, 0, 76, 0
2, 3597, Note_on_c, 0, 73, 0
2, 3597, Note_on_c, 0, 78, 65
2, 3597, Note_on_c, 0, 74, 65
2, 3682, Note_on_c, 0, 79, 65
2, 3683, Note_on_c, 0, 78, 0
2, 3705, Note_on_c, 0, 79, 0
2, 3719, Note_on_c, 0, 78, 65
2, 3735, Note_on_c, 0, 78, 0
2, 3736, Note_on_c, 0, 76, 65
2, 3746, Note_on_c, 0, 76, 0
2, 3748, Note_on_c, 0, 78, 65
2, 3757, Note_on_c, 0, 78, 0
2, 3760, Note_on_c, 0, 76, 65
2, 3765, Note_on_c, 0, 76, 0
2, 3768, Note_on_c, 0, 78, 65
2, 3775, Note_on_c, 0, 74, 0
2, 3775, Note_on_c, 0, 71, 65
2, 3779, Note_on_c, 0, 76, 65
2, 3780, Note_on_c, 0, 78, 0
2, 3789, Note_on_c, 0, 76, 0
2, 3789, Note_on_c, 0, 78, 65
2, 3798, Note_on_c, 0, 78, 0
2, 3800, Note_on_c, 0, 76, 65
2, 3806, Note_on_c, 0, 76, 0
2, 3807, Note_on_c, 0, 78, 65
2, 3814, Note_on_c, 0, 78, 0
2, 3814, Note_on_c, 0, 76, 65
2, 3821, Note_on_c, 0, 76, 0
2, 3821, Note_on_c, 0, 78, 65
2, 3828, Note_on_c, 0, 78, 0
2, 3828, Note_on_c, 0, 76, 65
2, 3833, Note_on_c, 0, 69, 65
2, 3834, Note_on_c, 0, 78, 65
2, 3835, Note_on_c, 0, 71, 0
2, 3836, Note_on_c, 0, 76, 0
2, 3841, Note_on_c, 0, 78, 0
2, 3842, Note_on_c, 0, 76, 65
2, 3891, Note_on_c, 0, 69, 0
2, 3891, Note_on_c, 0, 67, 65
2, 3893, Note_on_c, 0, 76, 0
2, 3894, Note_on_c, 0, 78, 65
2, 3952, Note_on_c, 0, 78, 0
2, 3952, Note_on_c, 0, 74, 65
2, 3954, Note_on_c, 0, 66, 65
2, 3958, Note_on_c, 0, 67, 0
2, 4015, Note_on_c, 0, 66, 0
2, 4017, Note_on_c, 0, 71, 65
2, 4138, Note_on_c, 0, 69, 65
2, 4139, Note_on_c, 0, 74, 0
2, 4143, Note_on_c, 0, 71, 0
2, 4203, Note_on_c, 0, 74, 65
2, 4261, Note_on_c, 0, 67, 65
2, 4263, Note_on_c, 0, 69, 0
2, 4321, Note_on_c, 0, 74, 0
2, 4321, Note_on_c, 0, 76, 65
2, 4349, Note_on_c, 0, 67, 0
2, 4381, Note_on_c, 0, 67, 65
2, 4416, Note_on_c, 0, 76, 0
2, 4440, Note_on_c, 0, 76, 65
2, 4454, Note_on_c, 0, 76, 0
2, 4454, Note_on_c, 0, 74, 65
2, 4465, Note_on_c, 0, 74, 0
2, 4466, Note_on_c, 0, 76, 65
2, 4470, Note_on_c, 0, 67, 0
2, 4478, Note_on_c, 0, 76, 0
2, 4479, Note_on_c, 0, 74, 65
2, 4488, Note_on_c, 0, 74, 0
2, 4489, Note_on_c, 0, 76, 65
2, 4497, Note_on_c, 0, 76, 0
2, 4497, Note_on_c, 0, 74, 65
2, 4498, Note_on_c, 0, 67, 65
2, 4505, Note_on_c, 0, 76, 65
2, 4506, Note_on_c, 0, 74, 0
2, 4511, Note_on_c, 0, 76, 0
2, 4512, Note_on_c, 0, 74, 65
2, 4518, Note_on_c, 0, 76, 65
2, 4519, Note_on_c, 0, 74, 0
2, 4524, Note_on_c, 0, 76, 0
2, 4526, Note_on_c, 0, 74, 65
2, 4553, Note_on_c, 0, 67, 0
2, 4555, Note_on_c, 0, 66, 65
2, 4615, Note_on_c, 0, 72, 65
2, 4616, Note_on_c, 0, 74, 0
2, 4676, Note_on_c, 0, 71, 65
2, 4678, Note_on_c, 0, 72, 0
2, 4678, Note_on_c, 0, 67, 65
2, 4680, Note_on_c, 0, 66, 0
2, 4794, Note_on_c, 0, 66, 65
2, 4797, Note_on_c, 0, 67, 0
2, 4849, Note_on_c, 0, 71, 0
2, 4850, Note_on_c, 0, 72, 65
2, 4875, Note_on_c, 0, 67, 65
2, 4876, Note_on_c, 0, 66, 0
2, 4893, Note_on_c, 0, 64, 65
2, 4899, Note_on_c, 0, 67, 0
2, 4911, Note_on_c, 0, 74, 65
2, 4912, Note_on_c, 0, 72, 0
2, 4913, Note_on_c, 0, 62, 65
2, 4915, Note_on_c, 0, 64, 0
2, 5006, Note_on_c, 0, 62, 0
2, 5030, Note_on_c, 0, 64, 65
2, 5119, Note_on_c, 0, 66, 65
2, 5123, Note_on_c, 0, 64, 0
2, 5144, Note_on_c, 0, 66, 0
2, 5149, Note_on_c, 0, 67, 65
2, 5150, Note_on_c, 0, 72, 65
2, 5152, Note_on_c, 0, 74, 0
2, 5164, Note_on_c, 0, 67, 0
2, 5164, Note_on_c, 0, 66, 65
2, 5175, Note_on_c, 0, 66, 0
2, 5178, Note_on_c, 0, 67, 65
2, 5188, Note_on_c, 0, 67, 0
2, 5189, Note_on_c, 0, 66, 65
2, 5198, Note_on_c, 0, 66, 0
2, 5202, Note_on_c, 0, 67, 65
2, 5208, Note_on_c, 0, 72, 0
2, 5208, Note_on_c, 0, 71, 65
2, 5212, Note_on_c, 0, 67, 0
2, 5213, Note_on_c, 0, 66, 65
2, 5222, Note_on_c, 0, 66, 0
2, 5225, Note_on_c, 0, 67, 65
2, 5234, Note_on_c, 0, 66, 65
2, 5235, Note_on_c, 0, 67, 0
2, 5245, Note_on_c, 0, 66, 0
2, 5248, Note_on_c, 0, 67, 65
2, 5257, Note_on_c, 0, 67, 0
2, 5258, Note_on_c, 0, 66, 65
2, 5265, Note_on_c, 0, 66, 0
2, 5267, Note_on_c, 0, 67, 65
2, 5272, Note_on_c, 0, 71, 0
2, 5272, Note_on_c, 0, 72, 65
2, 5275, Note_on_c, 0, 67, 0
2, 5276, Note_on_c, 0, 66, 65
2, 5279, Note_on_c, 0, 66, 0
2, 5281, Note_on_c, 0, 67, 65
2, 5289, Note_on_c, 0, 66, 65
2, 5290, Note_on_c, 0, 67, 0
2, 5324, Note_on_c, 0, 64, 65
2, 5325, Note_on_c, 0, 72, 0
2, 5325, Note_on_c, 0, 66, 0
2, 5326, Note_on_c, 0, 74, 65
2, 5356, Note_on_c, 0, 66, 65
2, 5358, Note_on_c, 0, 64, 0
2, 5390, Note_on_c, 0, 74, 0
2, 5391, Note_on_c, 0, 66, 0
2, 5391, Note_on_c, 0, 71, 65
2, 5391, Note_on_c, 0, 67, 65
2, 5544, Note_on_c, 0, 71, 0
2, 5576, Note_on_c, 0, 69, 65
2, 5578, Note_on_c, 0, 67, 0
2, 5608, Note_on_c, 0, 67, 65
2, 5612, Note_on_c, 0, 69, 0
2, 5639, Note_on_c, 0, 67, 0
2, 5639, Note_on_c, 0, 66, 65
2, 5671, Note_on_c, 0, 67, 65
2, 5672, Note_on_c, 0, 66, 0
2, 5698, Note_on_c, 0, 64, 65
2, 5699, Note_on_c, 0, 67, 0
2, 5755, Note_on_c, 0, 62, 65
2, 5756, Note_on_c, 0, 69, 65
2, 5759, Note_on_c, 0, 64, 0
2, 5785, Note_on_c, 0, 62, 0
2, 5786, Note_on_c, 0, 64, 65
2, 5818, Note_on_c, 0, 66, 65
2, 5819, Note_on_c, 0, 64, 0
2, 5875, Note_on_c, 0, 71, 65
2, 5878, Note_on_c, 0, 69, 0
2, 5936, Note_on_c, 0, 64, 65
2, 5938, Note_on_c, 0, 66, 0
2, 5967, Note_on_c, 0, 73, 65
2, 5970, Note_on_c, 0, 71, 0
2, 5988, Note_on_c, 0, 73, 0
2, 5989, Note_on_c, 0, 74, 65
2, 6003, Note_on_c, 0, 73, 65
2, 6004, Note_on_c, 0, 74, 0
2, 6015, Note_on_c, 0, 73, 0
2, 6017, Note_on_c, 0, 74, 65
2, 6021, Note_on_c, 0, 64, 0
2, 6029, Note_on_c, 0, 74, 0
2, 6030, Note_on_c, 0, 73, 65
2, 6038, Note_on_c, 0, 73, 0
2, 6038, Note_on_c, 0, 74, 65
2, 6047, Note_on_c, 0, 67, 65
2, 6048, Note_on_c, 0, 74, 0
2, 6048, Note_on_c, 0, 73, 65
2, 6053, Note_on_c, 0, 74, 65
2, 6054, Note_on_c, 0, 73, 0
2, 6061, Note_on_c, 0, 73, 65
2, 6063, Note_on_c, 0, 74, 0
2, 6076, Note_on_c, 0, 73, 0
2, 6076, Note_on_c, 0, 71, 65
2, 6091, Note_on_c, 0, 73, 65
2, 6093, Note_on_c, 0, 71, 0
2, 6106, Note_on_c, 0, 73, 0
2, 6108, Note_on_c, 0, 74, 65
2, 6110, Note_on_c, 0, 67, 0
2, 6112, Note_on_c, 0, 66, 65
2, 6173, Note_on_c, 0, 66, 0
2, 6173, Note_on_c, 0, 67, 65
2, 6233, Note_on_c, 0, 69, 65
2, 6234, Note_on_c, 0, 67, 0
2, 6282, Note_on_c, 0, 74, 0
2, 6293, Note_on_c, 0, 72, 65
2, 6359, Note_on_c, 0, 69, 0
2, 6359, Note_on_c, 0, 71, 65
2, 6359, Note_on_c, 0, 62, 65
2, 6362, Note_on_c, 0, 72, 0
2, 6421, Note_on_c, 0, 71, 0
2, 6421, Note_on_c, 0, 69, 65
2, 6484, Note_on_c, 0, 69, 0
2, 6484, Note_on_c, 0, 72, 65
2, 6545, Note_on_c, 0, 72, 0
2, 6545, Note_on_c, 0, 71, 65
2, 6545, Note_on_c, 0, 67, 65
2, 6546, Note_on_c, 0, 62, 0
2, 6580, Note_on_c, 0, 71, 0
2, 6610, Note_on_c, 0, 71, 65
2, 6623, Note_on_c, 0, 71, 0
2, 6624, Note_on_c, 0, 69, 65
2, 6634, Note_on_c, 0, 69, 0
2, 6634, Note_on_c, 0, 71, 65
2, 6641, Note_on_c, 0, 67, 0
2, 6644, Note_on_c, 0, 69, 65
2, 6645, Note_on_c, 0, 71, 0
2, 6651, Note_on_c, 0, 69, 0
2, 6651, Note_on_c, 0, 71, 65
2, 6658, Note_on_c, 0, 71, 0
2, 6659, Note_on_c, 0, 69, 65
2, 6664, Note_on_c, 0, 71, 65
2, 6667, Note_on_c, 0, 69, 0
2, 6667, Note_on_c, 0, 67, 65
2, 6671, Note_on_c, 0, 71, 0
2, 6672, Note_on_c, 0, 69, 65
2, 6678, Note_on_c, 0, 69, 0
2, 6678, Note_on_c, 0, 71, 65
2, 6686, Note_on_c, 0, 71, 0
2, 6686, Note_on_c, 0, 69, 65
2, 6691, Note_on_c, 0, 69, 0
2, 6692, Note_on_c, 0, 71, 65
2, 6696, Note_on_c, 0, 71, 0
2, 6696, Note_on_c, 0, 69, 65
2, 6704, Note_on_c, 0, 71, 65
2, 6705, Note_on_c, 0, 69, 0
2, 6710, Note_on_c, 0, 71, 0
2, 6712, Note_on_c, 0, 69, 65
2, 6716, Note_on_c, 0, 71, 65
2, 6717, Note_on_c, 0, 69, 0
2, 6720, Note_on_c, 0, 67, 0
2, 6722, Note_on_c, 0, 69, 65
2, 6723, Note_on_c, 0, 71, 0
2, 6724, Note_on_c, 0, 66, 65
2, 6729, Note_on_c, 0, 71, 65
2, 6734, Note_on_c, 0, 71, 0
2, 6784, Note_on_c, 0, 69, 0
2, 6785, Note_on_c, 0, 67, 65
2, 6812, Note_on_c, 0, 67, 0
2, 6813, Note_on_c, 0, 69, 65
2, 6842, Note_on_c, 0, 69, 0
2, 6847, Note_on_c, 0, 66, 0
2, 6847, Note_on_c, 0, 67, 65
2, 6905, Note_on_c, 0, 67, 0
2, 6907, Note_on_c, 0, 74, 65
2, 7022, Note_on_c, 0, 74, 0
2, 7023, Note_on_c, 0, 72, 65
2, 7138, Note_on_c, 0, 72, 0
2, 7138, Note_on_c, 0, 74, 65
2, 7139, Note_on_c, 0, 71, 65
2, 7201, Note_on_c, 0, 76, 65
2, 7202, Note_on_c, 0, 74, 0
2, 7257, Note_on_c, 0, 69, 65
2, 7287, Note_on_c, 0, 78, 65
2, 7289, Note_on_c, 0, 71, 0
2, 7290, Note_on_c, 0, 76, 0
2, 7306, Note_on_c, 0, 78, 0
2, 7309, Note_on_c, 0, 69, 0
2, 7318, Note_on_c, 0, 69, 65
2, 7320, Note_on_c, 0, 79, 65
2, 7338, Note_on_c, 0, 78, 65
2, 7339, Note_on_c, 0, 79, 0
2, 7348, Note_on_c, 0, 78, 0
2, 7351, Note_on_c, 0, 79, 65
2, 7361, Note_on_c, 0, 79, 0
2, 7362, Note_on_c, 0, 78, 65
2, 7370, Note_on_c, 0, 78, 0
2, 7372, Note_on_c, 0, 79, 65
2, 7382, Note_on_c, 0, 79, 0
2, 7383, Note_on_c, 0, 78, 65
2, 7391, Note_on_c, 0, 78, 0
2, 7394, Note_on_c, 0, 79, 65
2, 7402, Note_on_c, 0, 79, 0
2, 7403, Note_on_c, 0, 78, 65
2, 7410, Note_on_c, 0, 78, 0
2, 7412, Note_on_c, 0, 79, 65
2, 7418, Note_on_c, 0, 79, 0
2, 7420, Note_on_c, 0, 78, 65
2, 7424, Note_on_c, 0, 79, 65
2, 7425, Note_on_c, 0, 78, 0
2, 7434, Note_on_c, 0, 78, 65
2, 7438, Note_on_c, 0, 79, 0
2, 7492, Note_on_c, 0, 78, 0
2, 7492, Note_on_c, 0, 76, 65
2, 7522, Note_on_c, 0, 78, 65
2, 7527, Note_on_c, 0, 76, 0
2, 7555, Note_on_c, 0, 78, 0
2, 7555, Note_on_c, 0, 67, 65
2, 7556, Note_on_c, 0, 79, 65
2, 7557, Note_on_c, 0, 69, 0
2, 7618, Note_on_c, 0, 69, 65
2, 7623, Note_on_c, 0, 67, 0
2, 7678, Note_on_c, 0, 69, 0
2, 7678, Note_on_c, 0, 71, 65
2, 7736, Note_on_c, 0, 79, 0
2, 7736, Note_on_c, 0, 78, 65
2, 7799, Note_on_c, 0, 78, 0
2, 7800, Note_on_c, 0, 76, 65
2, 7801, Note_on_c, 0, 73, 65
2, 7803, Note_on_c, 0, 71, 0
2, 7896, Note_on_c, 0, 76, 0
2, 7923, Note_on_c, 0, 78, 65
2, 7923, Note_on_c, 0, 74, 65
2, 7925, Note_on_c, 0, 73, 0
2, 8014, Note_on_c, 0, 79, 65
2, 8015, Note_on_c, 0, 78, 0
2, 8046, Note_on_c, 0, 79, 0
2, 8048, Note_on_c, 0, 76, 65
2, 8103, Note_on_c, 0, 71, 65
2, 8105, Note_on_c, 0, 74, 0
2, 8161, Note_on_c, 0, 71, 0
2, 8162, Note_on_c, 0, 69, 65
2, 8221, Note_on_c, 0, 67, 65
2, 8222, Note_on_c, 0, 78, 65
2, 8223, Note_on_c, 0, 76, 0
2, 8223, Note_on_c, 0, 69, 0
2, 8284, Note_on_c, 0, 74, 65
2, 8285, Note_on_c, 0, 66, 65
2, 8286, Note_on_c, 0, 78, 0
2, 8287, Note_on_c, 0, 67, 0
2, 8315, Note_on_c, 0, 66, 0
2, 8354, Note_on_c, 0, 71, 65
2, 8427, Note_on_c, 0, 74, 0
2, 8463, Note_on_c, 0, 69, 65
2, 8467, Note_on_c, 0, 71, 0
2, 8580, Note_on_c, 0, 67, 65
2, 8582, Note_on_c, 0, 62, 65
2, 8583, Note_on_c, 0, 69, 0
2, 8618, Note_on_c, 0, 62, 0
2, 8641, Note_on_c, 0, 64, 65
2, 8731, Note_on_c, 0, 66, 65
2, 8732, Note_on_c, 0, 67, 0
2, 8748, Note_on_c, 0, 66, 0
2, 8758, Note_on_c, 0, 62, 65
2, 8759, Note_on_c, 0, 64, 0
2, 8761, Note_on_c, 0, 67, 65
2, 8779, Note_on_c, 0, 67, 0
2, 8779, Note_on_c, 0, 66, 65
2, 8788, Note_on_c, 0, 66, 0
2, 8790, Note_on_c, 0, 67, 65
2, 8801, Note_on_c, 0, 67, 0
2, 8802, Note_on_c, 0, 66, 65
2, 8810, Note_on_c, 0, 66, 0
2, 8811, Note_on_c, 0, 67, 65
2, 8821, Note_on_c, 0, 67, 0
2, 8821, Note_on_c, 0, 66, 65
2, 8828, Note_on_c, 0, 66, 0
2, 8830, Note_on_c, 0, 67, 65
2, 8836, Note_on_c, 0, 67, 0
2, 8838, Note_on_c, 0, 66, 65
2, 8844, Note_on_c, 0, 66, 0
2, 8845, Note_on_c, 0, 67, 65
2, 8851, Note_on_c, 0, 67, 0
2, 8853, Note_on_c, 0, 66, 65
2, 8856, Note_on_c, 0, 66, 0
2, 8856, Note_on_c, 0, 67, 65
2, 8867, Note_on_c, 0, 62, 0
2, 8867, Note_on_c, 0, 60, 65
2, 8873, Note_on_c, 0, 66, 65
2, 8877, Note_on_c, 0, 67, 0
2, 8929, Note_on_c, 0, 64, 65
2, 8930, Note_on_c, 0, 66, 0
2, 8961, Note_on_c, 0, 66, 65
2, 8964, Note_on_c, 0, 64, 0
2, 8992, Note_on_c, 0, 66, 0
2, 8994, Note_on_c, 0, 67, 65
2, 8994, Note_on_c, 0, 59, 65
2, 8995, Note_on_c, 0, 60, 0
2, 9043, Note_on_c, 0, 59, 0
2, 9060, Note_on_c, 0, 64, 65
2, 9180, Note_on_c, 0, 62, 65
2, 9181, Note_on_c, 0, 65, 65
2, 9182, Note_on_c, 0, 64, 0
2, 9184, Note_on_c, 0, 67, 0
2, 9244, Note_on_c, 0, 65, 0
2, 9245, Note_on_c, 0, 64, 65
2, 9305, Note_on_c, 0, 61, 65
2, 9308, Note_on_c, 0, 62, 0
2, 9369, Note_on_c, 0, 65, 65
2, 9369, Note_on_c, 0, 62, 65
2, 9370, Note_on_c, 0, 64, 0
2, 9370, Note_on_c, 0, 61, 0
2, 9423, Note_on_c, 0, 65, 0
2, 9423, Note_on_c, 0, 67, 65
2, 9449, Note_on_c, 0, 69, 65
2, 9453, Note_on_c, 0, 67, 0
2, 9459, Note_on_c, 0, 69, 0
2, 9479, Note_on_c, 0, 62, 0
2, 9483, Note_on_c, 0, 64, 65
2, 9505, Note_on_c, 0, 62, 65
2, 9506, Note_on_c, 0, 64, 0
2, 9517, Note_on_c, 0, 62, 0
2, 9519, Note_on_c, 0, 64, 65
2, 9532, Note_on_c, 0, 64, 0
2, 9534, Note_on_c, 0, 62, 65
2, 9539, Note_on_c, 0, 60, 65
2, 9544, Note_on_c, 0, 62, 0
2, 9545, Note_on_c, 0, 64, 65
2, 9556, Note_on_c, 0, 64, 0
2, 9558, Note_on_c, 0, 62, 65
2, 9566, Note_on_c, 0, 62, 0
2, 9568, Note_on_c, 0, 64, 65
2, 9577, Note_on_c, 0, 64, 0
2, 9578, Note_on_c, 0, 62, 65
2, 9586, Note_on_c, 0, 62, 0
2, 9587, Note_on_c, 0, 64, 65
2, 9594, Note_on_c, 0, 64, 0
2, 9595, Note_on_c, 0, 62, 65
2, 9600, Note_on_c, 0, 64, 65
2, 9602, Note_on_c, 0, 62, 0
2, 9608, Note_on_c, 0, 62, 65
2, 9610, Note_on_c, 0, 64, 0
2, 9657, Note_on_c, 0, 60, 0
2, 9657, Note_on_c, 0, 59, 65
2, 9757, Note_on_c, 0, 59, 0
2, 9776, Note_on_c, 0, 52, 65
2, 9835, Note_on_c, 0, 57, 65
2, 9837, Note_on_c, 0, 52, 0
2, 9839, Note_on_c, 0, 62, 0
2, 9896, Note_on_c, 0, 59, 65
2, 9899, Note_on_c, 0, 57, 0
2, 9959, Note_on_c, 0, 69, 65
2, 9960, Note_on_c, 0, 59, 0
2, 9960, Note_on_c, 0, 60, 65
2, 10018, Note_on_c, 0, 62, 65
2, 10019, Note_on_c, 0, 60, 0
2, 10077, Note_on_c, 0, 69, 0
2, 10078, Note_on_c, 0, 71, 65
2, 10079, Note_on_c, 0, 55, 65
2, 10083, Note_on_c, 0, 62, 0
2, 10113, Note_on_c, 0, 55, 0
2, 10140, Note_on_c, 0, 67, 65
2, 10169, Note_on_c, 0, 73, 65
2, 10172, Note_on_c, 0, 71, 0
2, 10184, Note_on_c, 0, 73, 0
2, 10198, Note_on_c, 0, 74, 65
2, 10228, Note_on_c, 0, 74, 0
2, 10228, Note_on_c, 0, 73, 65
2, 10238, Note_on_c, 0, 73, 0
2, 10241, Note_on_c, 0, 74, 65
2, 10243, Note_on_c, 0, 67, 0
2, 10250, Note_on_c, 0, 71, 65
2, 10251, Note_on_c, 0, 74, 0
2, 10251, Note_on_c, 0, 73, 65
2, 10260, Note_on_c, 0, 73, 0
2, 10264, Note_on_c, 0, 74, 65
2, 10271, Note_on_c, 0, 74, 0
2, 10272, Note_on_c, 0, 73, 65
2, 10280, Note_on_c, 0, 73, 0
2, 10282, Note_on_c, 0, 74, 65
2, 10291, Note_on_c, 0, 74, 0
2, 10292, Note_on_c, 0, 73, 65
2, 10300, Note_on_c, 0, 73, 0
2, 10300, Note_on_c, 0, 74, 65
2, 10308, Note_on_c, 0, 69, 65
2, 10311, Note_on_c, 0, 71, 0
2, 10321, Note_on_c, 0, 73, 65
2, 10323, Note_on_c, 0, 74, 0
2, 10329, Note_on_c, 0, 73, 0
2, 10329, Note_on_c, 0, 74, 65
2, 10346, Note_on_c, 0, 73, 65
2, 10347, Note_on_c, 0, 74, 0
2, 10367, Note_on_c, 0, 73, 0
2, 10367, Note_on_c, 0, 67, 65
2, 10368, Note_on_c, 0, 69, 0
2, 10368, Note_on_c, 0, 71, 65
2, 10395, Note_on_c, 0, 73, 65
2, 10396, Note_on_c, 0, 71, 0
2, 10425, Note_on_c, 0, 73, 0
2, 10427, Note_on_c, 0, 74, 65
2, 10429, Note_on_c, 0, 66, 65
2, 10432, Note_on_c, 0, 67, 0
2, 10469, Note_on_c, 0, 66, 0
2, 10504, Note_on_c, 0, 71, 65
2, 10622, Note_on_c, 0, 69, 65
2, 10622, Note_on_c, 0, 72, 65
2, 10623, Note_on_c, 0, 74, 0
2, 10626, Note_on_c, 0, 71, 0
2, 10689, Note_on_c, 0, 71, 65
2, 10690, Note_on_c, 0, 72, 0
2, 10743, Note_on_c, 0, 68, 65
2, 10745, Note_on_c, 0, 69, 0
2, 10800, Note_on_c, 0, 68, 0
2, 10801, Note_on_c, 0, 69, 65
2, 10801, Note_on_c, 0, 72, 65
2, 10802, Note_on_c, 0, 71, 0
2, 10858, Note_on_c, 0, 67, 65
2, 10859, Note_on_c, 0, 69, 0
2, 10860, Note_on_c, 0, 72, 0
2, 10860, Note_on_c, 0, 74, 65
2, 10890, Note_on_c, 0, 76, 65
2, 10893, Note_on_c, 0, 74, 0
2, 10903, Note_on_c, 0, 76, 0
2, 10920, Note_on_c, 0, 71, 65
2, 10933, Note_on_c, 0, 67, 0
2, 10939, Note_on_c, 0, 69, 65
2, 10940, Note_on_c, 0, 71, 0
2, 10951, Note_on_c, 0, 69, 0
2, 10952, Note_on_c, 0, 71, 65
2, 10964, Note_on_c, 0, 71, 0
2, 10966, Note_on_c, 0, 69, 65
2, 10974, Note_on_c, 0, 67, 65
2, 10975, Note_on_c, 0, 69, 0
2, 10977, Note_on_c, 0, 71, 65
2, 10988, Note_on_c, 0, 71, 0
2, 10990, Note_on_c, 0, 69, 65
2, 10999, Note_on_c, 0, 69, 0
2, 11000, Note_on_c, 0, 71, 65
2, 11010, Note_on_c, 0, 71, 0
2, 11011, Note_on_c, 0, 69, 65
2, 11019, Note_on_c, 0, 69, 0
2, 11021, Note_on_c, 0, 71, 65
2, 11028, Note_on_c, 0, 67, 0
2, 11028, Note_on_c, 0, 71, 0
2, 11029, Note_on_c, 0, 69, 65
2, 11029, Note_on_c, 0, 66, 65
2, 11034, Note_on_c, 0, 71, 65
2, 11037, Note_on_c, 0, 69, 0
2, 11043, Note_on_c, 0, 69, 65
2, 11045, Note_on_c, 0, 71, 0
2, 11091, Note_on_c, 0, 69, 0
2, 11092, Note_on_c, 0, 67, 65
2, 11120, Note_on_c, 0, 67, 0
2, 11120, Note_on_c, 0, 69, 65
2, 11153, Note_on_c, 0, 69, 0
2, 11154, Note_on_c, 0, 67, 65
2, 11155, Note_on_c, 0, 66, 0
2, 11220, Note_on_c, 0, 62, 65
2, 11223, Note_on_c, 0, 67, 0
2, 11281, Note_on_c, 0, 64, 65
2, 11282, Note_on_c, 0, 62, 0
2, 11402, Note_on_c, 0, 62, 65
2, 11406, Note_on_c, 0, 64, 0
2, 11487, Note_on_c, 0, 64, 65
2, 11488, Note_on_c, 0, 62, 0
2, 11506, Note_on_c, 0, 60, 65
2, 11508, Note_on_c, 0, 64, 0
2, 11530, Note_on_c, 0, 59, 65
2, 11531, Note_on_c, 0, 74, 65
2, 11532, Note_on_c, 0, 60, 0
2, 11552, Note_on_c, 0, 59, 0
2, 11591, Note_on_c, 0, 71, 65
2, 11648, Note_on_c, 0, 76, 65
2, 11650, Note_on_c, 0, 74, 0
2, 11701, Note_on_c, 0, 69, 65
2, 11703, Note_on_c, 0, 71, 0
2, 11731, Note_on_c, 0, 71, 65
2, 11735, Note_on_c, 0, 69, 0
2, 11748, Note_on_c, 0, 72, 65
2, 11749, Note_on_c, 0, 71, 0
2, 11765, Note_on_c, 0, 76, 0
2, 11767, Note_on_c, 0, 74, 65
2, 11768, Note_on_c, 0, 72, 0
2, 11768, Note_on_c, 0, 71, 65
2, 11821, Note_on_c, 0, 71, 0
2, 11821, Note_on_c, 0, 69, 65
2, 11846, Note_on_c, 0, 76, 65
2, 11848, Note_on_c, 0, 74, 0
2, 11860, Note_on_c, 0, 72, 65
2, 11862, Note_on_c, 0, 76, 0
2, 11880, Note_on_c, 0, 72, 0
2, 11880, Note_on_c, 0, 71, 65
2, 11940, Note_on_c, 0, 67, 65
2, 11943, Note_on_c, 0, 69, 0
2, 11998, Note_on_c, 0, 66, 65
2, 12002, Note_on_c, 0, 67, 0
2, 12055, Note_on_c, 0, 64, 65
2, 12056, Note_on_c, 0, 71, 0
2, 12056, Note_on_c, 0, 72, 65
2, 12058, Note_on_c, 0, 66, 0
2, 12118, Note_on_c, 0, 62, 65
2, 12119, Note_on_c, 0, 74, 65
2, 12120, Note_on_c, 0, 72, 0
2, 12122, Note_on_c, 0, 64, 0
2, 12238, Note_on_c, 0, 64, 65
2, 12240, Note_on_c, 0, 62, 0
2, 12326, Note_on_c, 0, 66, 65
2, 12330, Note_on_c, 0, 64, 0
2, 12352, Note_on_c, 0, 66, 0
2, 12354, Note_on_c, 0, 67, 65
2, 12356, Note_on_c, 0, 72, 65
2, 12359, Note_on_c, 0, 74, 0
2, 12370, Note_on_c, 0, 67, 0
2, 12370, Note_on_c, 0, 66, 65
2, 12380, Note_on_c, 0, 66, 0
2, 12384, Note_on_c, 0, 67, 65
2, 12393, Note_on_c, 0, 67, 0
2, 12394, Note_on_c, 0, 66, 65
2, 12403, Note_on_c, 0, 66, 0
2, 12407, Note_on_c, 0, 67, 65
2, 12413, Note_on_c, 0, 72, 0
2, 12413, Note_on_c, 0, 71, 65
2, 12416, Note_on_c, 0, 67, 0
2, 12417, Note_on_c, 0, 66, 65
2, 12425, Note_on_c, 0, 66, 0
2, 12428, Note_on_c, 0, 67, 65
2, 12438, Note_on_c, 0, 67, 0
2, 12439, Note_on_c, 0, 66, 65
2, 12448, Note_on_c, 0, 66, 0
2, 12451, Note_on_c, 0, 67, 65
2, 12459, Note_on_c, 0, 67, 0
2, 12460, Note_on_c, 0, 66, 65
2, 12468, Note_on_c, 0, 66, 0
2, 12471, Note_on_c, 0, 67, 65
2, 12472, Note_on_c, 0, 72, 65
2, 12473, Note_on_c, 0, 71, 0
2, 12479, Note_on_c, 0, 66, 65
2, 12480, Note_on_c, 0, 67, 0
2, 12488, Note_on_c, 0, 66, 0
2, 12490, Note_on_c, 0, 67, 65
2, 12500, Note_on_c, 0, 66, 65
2, 12501, Note_on_c, 0, 67, 0
2, 12527, Note_on_c, 0, 66, 0
2, 12528, Note_on_c, 0, 74, 65
2, 12529, Note_on_c, 0, 72, 0
2, 12529, Note_on_c, 0, 64, 65
2, 12556, Note_on_c, 0, 66, 65
2, 12559, Note_on_c, 0, 64, 0
2, 12595, Note_on_c, 0, 74, 0
2, 12595, Note_on_c, 0, 66, 0
2, 12595, Note_on_c, 0, 71, 65
2, 12596, Note_on_c, 0, 67, 65
2, 12650, Note_on_c, 0, 71, 0
2, 12667, Note_on_c, 0, 74, 65
2, 12725, Note_on_c, 0, 76, 65
2, 12727, Note_on_c, 0, 74, 0
2, 12732, Note_on_c, 0, 67, 0
2, 12783, Note_on_c, 0, 69, 65
2, 12784, Note_on_c, 0, 76, 0
2, 12784, Note_on_c, 0, 72, 65
2, 12818, Note_on_c, 0, 69, 0
2, 12848, Note_on_c, 0, 72, 0
2, 12848, Note_on_c, 0, 69, 65
2, 12851, Note_on_c, 0, 66, 65
2, 12905, Note_on_c, 0, 71, 65
2, 12908, Note_on_c, 0, 69, 0
2, 12932, Note_on_c, 0, 72, 65
2, 12933, Note_on_c, 0, 71, 0
2, 12965, Note_on_c, 0, 72, 0
2, 12965, Note_on_c, 0, 71, 65
2, 12966, Note_on_c, 0, 67, 65
2, 12968, Note_on_c, 0, 66, 0
2, 13051, Note_on_c, 0, 73, 65
2, 13054, Note_on_c, 0, 71, 0
2, 13066, Note_on_c, 0, 73, 0
2, 13079, Note_on_c, 0, 74, 65
2, 13079, Note_on_c, 0, 64, 65
2, 13083, Note_on_c, 0, 67, 0
2, 13092, Note_on_c, 0, 74, 0
2, 13093, Note_on_c, 0, 73, 65
2, 13101, Note_on_c, 0, 73, 0
2, 13104, Note_on_c, 0, 74, 65
2, 13114, Note_on_c, 0, 74, 0
2, 13115, Note_on_c, 0, 73, 65
2, 13123, Note_on_c, 0, 73, 0
2, 13125, Note_on_c, 0, 74, 65
2, 13133, Note_on_c, 0, 74, 0
2, 13135, Note_on_c, 0, 73, 65
2, 13141, Note_on_c, 0, 73, 0
2, 13143, Note_on_c, 0, 74, 65
2, 13152, Note_on_c, 0, 74, 0
2, 13153, Note_on_c, 0, 73, 65
2, 13159, Note_on_c, 0, 73, 0
2, 13161, Note_on_c, 0, 74, 65
2, 13168, Note_on_c, 0, 74, 0
2, 13169, Note_on_c, 0, 73, 65
2, 13173, Note_on_c, 0, 73, 0
2, 13174, Note_on_c, 0, 74, 65
2, 13182, Note_on_c, 0, 73, 65
2, 13189, Note_on_c, 0, 73, 0
2, 13196, Note_on_c, 0, 73, 65
2, 13198, Note_on_c, 0, 74, 0
2, 13243, Note_on_c, 0, 73, 0
2, 13243, Note_on_c, 0, 71, 65
2, 13275, Note_on_c, 0, 73, 65
2, 13277, Note_on_c, 0, 71, 0
2, 13306, Note_on_c, 0, 74, 65
2, 13308, Note_on_c, 0, 62, 65
2, 13310, Note_on_c, 0, 73, 0
2, 13311, Note_on_c, 0, 64, 0
2, 13370, Note_on_c, 0, 64, 65
2, 13371, Note_on_c, 0, 62, 0
2, 13430, Note_on_c, 0, 66, 65
2, 13436, Note_on_c, 0, 64, 0
2, 13490, Note_on_c, 0, 72, 65
2, 13492, Note_on_c, 0, 74, 0
2, 13550, Note_on_c, 0, 72, 0
2, 13552, Note_on_c, 0, 71, 65
2, 13553, Note_on_c, 0, 68, 65
2, 13554, Note_on_c, 0, 66, 0
2, 13637, Note_on_c, 0, 68, 0
2, 13679, Note_on_c, 0, 72, 65
2, 13679, Note_on_c, 0, 69, 65
2, 13680, Note_on_c, 0, 71, 0
2, 13735, Note_on_c, 0, 69, 0
2, 13737, Note_on_c, 0, 74, 65
2, 13738, Note_on_c, 0, 72, 0
2, 13738, Note_on_c, 0, 67, 65
2, 13764, Note_on_c, 0, 76, 65
2, 13768, Note_on_c, 0, 74, 0
2, 13777, Note_on_c, 0, 76, 0
2, 13800, Note_on_c, 0, 71, 65
2, 13813, Note_on_c, 0, 67, 0
2, 13821, Note_on_c, 0, 69, 65
2, 13823, Note_on_c, 0, 71, 0
2, 13834, Note_on_c, 0, 69, 0
2, 13835, Note_on_c, 0, 71, 65
2, 13845, Note_on_c, 0, 71, 0
2, 13846, Note_on_c, 0, 69, 65
2, 13855, Note_on_c, 0, 71, 65
2, 13856, Note_on_c, 0, 69, 0
2, 13857, Note_on_c, 0, 67, 65
2, 13865, Note_on_c, 0, 71, 0
2, 13866, Note_on_c, 0, 69, 65
2, 13873, Note_on_c, 0, 69, 0
2, 13873, Note_on_c, 0, 71, 65
2, 13881, Note_on_c, 0, 71, 0
2, 13881, Note_on_c, 0, 69, 65
2, 13886, Note_on_c, 0, 71, 65
2, 13887, Note_on_c, 0, 69, 0
2, 13892, Note_on_c, 0, 69, 65
2, 13893, Note_on_c, 0, 71, 0
2, 13917, Note_on_c, 0, 66, 65
2, 13918, Note_on_c, 0, 67, 0
2, 13985, Note_on_c, 0, 69, 0
2, 13985, Note_on_c, 0, 67, 65
2, 14014, Note_on_c, 0, 69, 65
2, 14020, Note_on_c, 0, 67, 0
2, 14042, Note_on_c, 0, 69, 0
2, 14047, Note_on_c, 0, 66, 0
2, 14048, Note_on_c, 0, 67, 65
2, 14103, Note_on_c, 0, 64, 65
2, 14106, Note_on_c, 0, 67, 0
2, 14134, Note_on_c, 0, 66, 65
2, 14135, Note_on_c, 0, 64, 0
2, 14163, Note_on_c, 0, 66, 0
2, 14164, Note_on_c, 0, 67, 65
2, 14221, Note_on_c, 0, 71, 65
2, 14225, Note_on_c, 0, 67, 0
2, 14279, Note_on_c, 0, 71, 0
2, 14280, Note_on_c, 0, 69, 65
2, 14367, Note_on_c, 0, 71, 65
2, 14370, Note_on_c, 0, 69, 0
2, 14383, Note_on_c, 0, 67, 65
2, 14384, Note_on_c, 0, 71, 0
2, 14405, Note_on_c, 0, 67, 0
2, 14405, Note_on_c, 0, 66, 65
2, 14581, Note_on_c, 0, 66, 0
2, 14581, Note_on_c, 0, 67, 65
2, 14643, Note_on_c, 0, 69, 65
2, 14646, Note_on_c, 0, 67, 0
2, 14879, Note_on_c, 0, 67, 65
2, 14883, Note_on_c, 0, 69, 0
2, 14942, Note_on_c, 0, 66, 65
2, 14943, Note_on_c, 0, 67, 0
2, 15002, Note_on_c, 0, 67, 65
2, 15003, Note_on_c, 0, 66, 0
2, 15064, Note_on_c, 0, 69, 65
2, 15065, Note_on_c, 0, 67, 0
2, 15125, Note_on_c, 0, 66, 65
2, 15130, Note_on_c, 0, 69, 0
2, 15159, Note_on_c, 0, 66, 0
2, 15190, Note_on_c, 0, 69, 65
2, 15304, Note_on_c, 0, 67, 65
2, 15308, Note_on_c, 0, 69, 0
2, 15368, Note_on_c, 0, 81, 65
2, 15425, Note_on_c, 0, 67, 0
2, 15425, Note_on_c, 0, 66, 65
2, 15475, Note_on_c, 0, 81, 0
2, 15487, Note_on_c, 0, 83, 65
2, 15544, Note_on_c, 0, 66, 0
2, 15544, Note_on_c, 0, 64, 65
2, 15603, Note_on_c, 0, 81, 65
2, 15604, Note_on_c, 0, 83, 0
2, 15659, Note_on_c, 0, 62, 65
2, 15661, Note_on_c, 0, 64, 0
2, 15723, Note_on_c, 0, 81, 0
2, 15723, Note_on_c, 0, 79, 65
2, 15782, Note_on_c, 0, 61, 65
2, 15783, Note_on_c, 0, 62, 0
2, 15846, Note_on_c, 0, 61, 0
2, 15846, Note_on_c, 0, 78, 65
2, 15847, Note_on_c, 0, 62, 65
2, 15849, Note_on_c, 0, 79, 0
2, 15869, Note_on_c, 0, 62, 0
2, 15913, Note_on_c, 0, 74, 65
2, 16025, Note_on_c, 0, 79, 65
2, 16026, Note_on_c, 0, 78, 0
2, 16026, Note_on_c, 0, 72, 65
2, 16029, Note_on_c, 0, 74, 0
2, 16088, Note_on_c, 0, 71, 65
2, 16088, Note_on_c, 0, 81, 65
2, 16089, Note_on_c, 0, 79, 0
2, 16092, Note_on_c, 0, 72, 0
2, 16145, Note_on_c, 0, 69, 65
2, 16148, Note_on_c, 0, 71, 0
2, 16206, Note_on_c, 0, 71, 65
2, 16210, Note_on_c, 0, 69, 0
2, 16322, Note_on_c, 0, 81, 0
2, 16323, Note_on_c, 0, 79, 65
2, 16386, Note_on_c, 0, 79, 0
2, 16386, Note_on_c, 0, 78, 65
2, 16445, Note_on_c, 0, 69, 65
2, 16447, Note_on_c, 0, 79, 65
2, 16448, Note_on_c, 0, 78, 0
2, 16449, Note_on_c, 0, 71, 0
2, 16503, Note_on_c, 0, 79, 0
2, 16503, Note_on_c, 0, 81, 65
2, 16559, Note_on_c, 0, 78, 65
2, 16561, Note_on_c, 0, 81, 0
2, 16616, Note_on_c, 0, 78, 0
2, 16617, Note_on_c, 0, 74, 65
2, 16645, Note_on_c, 0, 76, 65
2, 16646, Note_on_c, 0, 74, 0
2, 16677, Note_on_c, 0, 78, 65
2, 16680, Note_on_c, 0, 76, 0
2, 16682, Note_on_c, 0, 69, 0
2, 16796, Note_on_c, 0, 80, 65
2, 16798, Note_on_c, 0, 78, 0
2, 16922, Note_on_c, 0, 80, 0
2, 16922, Note_on_c, 0, 81, 65
2, 16984, Note_on_c, 0, 78, 65
2, 17037, Note_on_c, 0, 79, 65
2, 17038, Note_on_c, 0, 78, 0
2, 17038, Note_on_c, 0, 76, 65
2, 17043, Note_on_c, 0, 81, 0
2, 17116, Note_on_c, 0, 78, 65
2, 17121, Note_on_c, 0, 79, 0
2, 17221, Note_on_c, 0, 75, 65
2, 17223, Note_on_c, 0, 76, 0
2, 17282, Note_on_c, 0, 78, 0
2, 17283, Note_on_c, 0, 79, 65
2, 17284, Note_on_c, 0, 76, 65
2, 17285, Note_on_c, 0, 75, 0
2, 17364, Note_on_c, 0, 81, 65
2, 17366, Note_on_c, 0, 79, 0
2, 17378, Note_on_c, 0, 81, 0
2, 17400, Note_on_c, 0, 79, 65
2, 17423, Note_on_c, 0, 79, 0
2, 17423, Note_on_c, 0, 78, 65
2, 17433, Note_on_c, 0, 78, 0
2, 17436, Note_on_c, 0, 79, 65
2, 17445, Note_on_c, 0, 79, 0
2, 17448, Note_on_c, 0, 78, 65
2, 17455, Note_on_c, 0, 78, 0
2, 17457, Note_on_c, 0, 79, 65
2, 17465, Note_on_c, 0, 79, 0
2, 17466, Note_on_c, 0, 78, 65
2, 17472, Note_on_c, 0, 79, 65
2, 17473, Note_on_c, 0, 78, 0
2, 17490, Note_on_c, 0, 78, 65
2, 17494, Note_on_c, 0, 79, 0
2, 17519, Note_on_c, 0, 76, 0
2, 17520, Note_on_c, 0, 75, 65
2, 17577, Note_on_c, 0, 78, 0
2, 17578, Note_on_c, 0, 76, 65
2, 17604, Note_on_c, 0, 78, 65
2, 17605, Note_on_c, 0, 76, 0
2, 17631, Note_on_c, 0, 75, 0
2, 17636, Note_on_c, 0, 78, 0
2, 17636, Note_on_c, 0, 76, 65
2, 17670, Note_on_c, 0, 76, 0
2, 17670, Note_on_c, 0, 71, 65
2, 17703, Note_on_c, 0, 76, 65
2, 17703, Note_on_c, 0, 68, 65
2, 17705, Note_on_c, 0, 71, 0
2, 17763, Note_on_c, 0, 68, 0
2, 17764, Note_on_c, 0, 69, 65
2, 17825, Note_on_c, 0, 74, 65
2, 17829, Note_on_c, 0, 76, 0
2, 17885, Note_on_c, 0, 71, 65
2, 17886, Note_on_c, 0, 69, 0
2, 17942, Note_on_c, 0, 73, 65
2, 17945, Note_on_c, 0, 74, 0
2, 17968, Note_on_c, 0, 73, 0
2, 17998, Note_on_c, 0, 71, 0
2, 18003, Note_on_c, 0, 73, 65
2, 18062, Note_on_c, 0, 64, 65
2, 18122, Note_on_c, 0, 69, 65
2, 18126, Note_on_c, 0, 64, 0
2, 18182, Note_on_c, 0, 75, 65
2, 18183, Note_on_c, 0, 73, 0
2, 18212, Note_on_c, 0, 76, 65
2, 18214, Note_on_c, 0, 75, 0
2, 18243, Note_on_c, 0, 76, 0
2, 18244, Note_on_c, 0, 75, 65
2, 18303, Note_on_c, 0, 71, 65
2, 18304, Note_on_c, 0, 69, 0
2, 18334, Note_on_c, 0, 71, 0
2, 18334, Note_on_c, 0, 72, 65
2, 18364, Note_on_c, 0, 72, 0
2, 18366, Note_on_c, 0, 71, 65
2, 18368, Note_on_c, 0, 76, 65
2, 18375, Note_on_c, 0, 75, 0
2, 18397, Note_on_c, 0, 79, 65
2, 18398, Note_on_c, 0, 76, 0
2, 18424, Note_on_c, 0, 79, 0
2, 18424, Note_on_c, 0, 78, 65
2, 18449, Note_on_c, 0, 78, 0
2, 18450, Note_on_c, 0, 76, 65
2, 18478, Note_on_c, 0, 76, 0
2, 18480, Note_on_c, 0, 72, 65
2, 18480, Note_on_c, 0, 81, 65
2, 18483, Note_on_c, 0, 71, 0
2, 18537, Note_on_c, 0, 78, 65
2, 18540, Note_on_c, 0, 81, 0
2, 18594, Note_on_c, 0, 78, 0
2, 18594, Note_on_c, 0, 75, 65
2, 18596, Note_on_c, 0, 71, 65
2, 18598, Note_on_c, 0, 72, 0
2, 18677, Note_on_c, 0, 72, 65
2, 18679, Note_on_c, 0, 71, 0
2, 18691, Note_on_c, 0, 69, 65
2, 18693, Note_on_c, 0, 72, 0
2, 18705, Note_on_c, 0, 75, 0
2, 18725, Note_on_c, 0, 76, 65
2, 18727, Note_on_c, 0, 68, 65
2, 18729, Note_on_c, 0, 69, 0
2, 18842, Note_on_c, 0, 76, 0
2, 18843, Note_on_c, 0, 77, 65
2, 18898, Note_on_c, 0, 69, 65
2, 18899, Note_on_c, 0, 68, 0
2, 18960, Note_on_c, 0, 76, 65
2, 18961, Note_on_c, 0, 77, 0
2, 18961, Note_on_c, 0, 69, 0
2, 18961, Note_on_c, 0, 71, 65
2, 19040, Note_on_c, 0, 76, 0
2, 19041, Note_on_c, 0, 77, 65
2, 19057, Note_on_c, 0, 74, 65
2, 19062, Note_on_c, 0, 77, 0
2, 19078, Note_on_c, 0, 74, 0
2, 19085, Note_on_c, 0, 73, 65
2, 19201, Note_on_c, 0, 71, 0
2, 19202, Note_on_c, 0, 69, 65
2, 19253, Note_on_c, 0, 66, 65
2, 19256, Note_on_c, 0, 74, 65
2, 19260, Note_on_c, 0, 69, 0
2, 19265, Note_on_c, 0, 73, 0
2, 19311, Note_on_c, 0, 66, 0
2, 19312, Note_on_c, 0, 74, 0
2, 19312, Note_on_c, 0, 76, 65
2, 19322, Note_on_c, 0, 67, 65
2, 19377, Note_on_c, 0, 67, 0
2, 19379, Note_on_c, 0, 69, 65
2, 19439, Note_on_c, 0, 66, 65
2, 19441, Note_on_c, 0, 69, 0
2, 19552, Note_on_c, 0, 76, 0
2, 19561, Note_on_c, 0, 74, 65
2, 19562, Note_on_c, 0, 69, 65
2, 19564, Note_on_c, 0, 66, 0
2, 19618, Note_on_c, 0, 74, 0
2, 19619, Note_on_c, 0, 72, 65
2, 19679, Note_on_c, 0, 68, 65
2, 19680, Note_on_c, 0, 69, 0
2, 19681, Note_on_c, 0, 74, 65
2, 19683, Note_on_c, 0, 72, 0
2, 19737, Note_on_c, 0, 74, 0
2, 19739, Note_on_c, 0, 76, 65
2, 19760, Note_on_c, 0, 68, 0
2, 19762, Note_on_c, 0, 69, 65
2, 19777, Note_on_c, 0, 65, 65
2, 19782, Note_on_c, 0, 69, 0
2, 19797, Note_on_c, 0, 65, 0
2, 19798, Note_on_c, 0, 76, 0
2, 19798, Note_on_c, 0, 64, 65
2, 19798, Note_on_c, 0, 72, 65
2, 19858, Note_on_c, 0, 73, 65
2, 19859, Note_on_c, 0, 72, 0
2, 19976, Note_on_c, 0, 65, 65
2, 19977, Note_on_c, 0, 64, 0
2, 19978, Note_on_c, 0, 73, 0
2, 19978, Note_on_c, 0, 74, 65
2, 20041, Note_on_c, 0, 76, 65
2, 20042, Note_on_c, 0, 67, 65
2, 20043, Note_on_c, 0, 65, 0
2, 20044, Note_on_c, 0, 74, 0
2, 20223, Note_on_c, 0, 69, 65
2, 20224, Note_on_c, 0, 76, 0
2, 20283, Note_on_c, 0, 67, 0
2, 20284, Note_on_c, 0, 65, 65
2, 20285, Note_on_c, 0, 74, 65
2, 20287, Note_on_c, 0, 69, 0
2, 20346, Note_on_c, 0, 65, 0
2, 20346, Note_on_c, 0, 64, 65
2, 20401, Note_on_c, 0, 65, 65
2, 20405, Note_on_c, 0, 64, 0
2, 20448, Note_on_c, 0, 74, 0
2, 20461, Note_on_c, 0, 67, 65
2, 20462, Note_on_c, 0, 65, 0
2, 20521, Note_on_c, 0, 76, 65
2, 20524, Note_on_c, 0, 64, 65
2, 20529, Note_on_c, 0, 67, 0
2, 20586, Note_on_c, 0, 69, 65
2, 20588, Note_on_c, 0, 64, 0
2, 20644, Note_on_c, 0, 77, 65
2, 20646, Note_on_c, 0, 76, 0
2, 20654, Note_on_c, 0, 69, 0
2, 20705, Note_on_c, 0, 69, 65
2, 20769, Note_on_c, 0, 76, 65
2, 20770, Note_on_c, 0, 68, 65
2, 20771, Note_on_c, 0, 77, 0
2, 20775, Note_on_c, 0, 69, 0
2, 20848, Note_on_c, 0, 77, 65
2, 20849, Note_on_c, 0, 76, 0
2, 20864, Note_on_c, 0, 74, 65
2, 20865, Note_on_c, 0, 77, 0
2, 20886, Note_on_c, 0, 72, 65
2, 20887, Note_on_c, 0, 68, 0
2, 20887, Note_on_c, 0, 69, 65
2, 20888, Note_on_c, 0, 74, 0
2, 20944, Note_on_c, 0, 69, 0
2, 20944, Note_on_c, 0, 64, 65
2, 21001, Note_on_c, 0, 69, 65
2, 21003, Note_on_c, 0, 64, 0
2, 21061, Note_on_c, 0, 74, 65
2, 21062, Note_on_c, 0, 72, 0
2, 21062, Note_on_c, 0, 67, 65
2, 21067, Note_on_c, 0, 69, 0
2, 21127, Note_on_c, 0, 65, 65
2, 21127, Note_on_c, 0, 76, 65
2, 21128, Note_on_c, 0, 74, 0
2, 21131, Note_on_c, 0, 67, 0
2, 21186, Note_on_c, 0, 64, 65
2, 21188, Note_on_c, 0, 65, 0
2, 21250, Note_on_c, 0, 66, 85
2, 21252, Note_on_c, 0, 64, 0
2, 21335, Note_on_c, 0, 68, 72
2, 21338, Note_on_c, 0, 66, 0
2, 21359, Note_on_c, 0, 68, 0
2, 21359, Note_on_c, 0, 69, 63
2, 21362, Note_on_c, 0, 76, 0
2, 21365, Note_on_c, 0, 74, 76
2, 21375, Note_on_c, 0, 68, 75
2, 21377, Note_on_c, 0, 69, 0
2, 21388, Note_on_c, 0, 68, 0
2, 21390, Note_on_c, 0, 69, 58
2, 21402, Note_on_c, 0, 68, 73
2, 21403, Note_on_c, 0, 69, 0
2, 21411, Note_on_c, 0, 74, 0
2, 21412, Note_on_c, 0, 72, 65
2, 21415, Note_on_c, 0, 68, 0
2, 21417, Note_on_c, 0, 69, 50
2, 21428, Note_on_c, 0, 68, 72
2, 21429, Note_on_c, 0, 69, 0
2, 21443, Note_on_c, 0, 69, 43
2, 21444, Note_on_c, 0, 68, 0
2, 21456, Note_on_c, 0, 68, 75
2, 21457, Note_on_c, 0, 69, 0
2, 21467, Note_on_c, 0, 72, 0
2, 21468, Note_on_c, 0, 68, 0
2, 21468, Note_on_c, 0, 74, 60
2, 21469, Note_on_c, 0, 69, 50
2, 21478, Note_on_c, 0, 68, 73
2, 21480, Note_on_c, 0, 69, 0
2, 21524, Note_on_c, 0, 74, 0
2, 21525, Note_on_c, 0, 76, 63
2, 21526, Note_on_c, 0, 66, 75
2, 21527, Note_on_c, 0, 68, 0
2, 21555, Note_on_c, 0, 68, 76
2, 21558, Note_on_c, 0, 66, 0
2, 21589, Note_on_c, 0, 68, 0
2, 21590, Note_on_c, 0, 69, 67
2, 21591, Note_on_c, 0, 76, 0
2, 21591, Note_on_c, 0, 72, 84
2, 21753, Note_on_c, 0, 69, 0
2, 21759, Note_on_c, 0, 72, 0
2, 21770, Note_on_c, 0, 71, 72
2, 21798, Note_on_c, 0, 69, 57
2, 21800, Note_on_c, 0, 71, 0
2, 21830, Note_on_c, 0, 67, 72
2, 21831, Note_on_c, 0, 69, 0
2, 21861, Note_on_c, 0, 69, 53
2, 21864, Note_on_c, 0, 67, 0
2, 21891, Note_on_c, 0, 69, 0
2, 21892, Note_on_c, 0, 66, 79
2, 21945, Note_on_c, 0, 66, 0
2, 21961, Note_on_c, 0, 71, 65
2, 21962, Note_on_c, 0, 64, 65
2, 21992, Note_on_c, 0, 66, 65
2, 21995, Note_on_c, 0, 64, 0
2, 22022, Note_on_c, 0, 66, 0
2, 22027, Note_on_c, 0, 67, 65
2, 22083, Note_on_c, 0, 71, 0
2, 22084, Note_on_c, 0, 72, 65
2, 22139, Note_on_c, 0, 66, 65
2, 22141, Note_on_c, 0, 67, 0
2, 22165, Note_on_c, 0, 74, 65
2, 22166, Note_on_c, 0, 72, 0
2, 22183, Note_on_c, 0, 74, 0
2, 22197, Note_on_c, 0, 76, 65
2, 22214, Note_on_c, 0, 76, 0
2, 22214, Note_on_c, 0, 74, 65
2, 22224, Note_on_c, 0, 74, 0
2, 22226, Note_on_c, 0, 66, 0
2, 22226, Note_on_c, 0, 76, 65
2, 22236, Note_on_c, 0, 76, 0
2, 22237, Note_on_c, 0, 74, 65
2, 22244, Note_on_c, 0, 74, 0
2, 22246, Note_on_c, 0, 76, 65
2, 22252, Note_on_c, 0, 69, 65
2, 22253, Note_on_c, 0, 76, 0
2, 22253, Note_on_c, 0, 74, 65
2, 22259, Note_on_c, 0, 76, 65
2, 22260, Note_on_c, 0, 74, 0
2, 22268, Note_on_c, 0, 74, 65
2, 22269, Note_on_c, 0, 76, 0
2, 22284, Note_on_c, 0, 74, 0
2, 22285, Note_on_c, 0, 72, 65
2, 22295, Note_on_c, 0, 72, 0
2, 22297, Note_on_c, 0, 74, 65
2, 22315, Note_on_c, 0, 74, 0
2, 22317, Note_on_c, 0, 76, 65
2, 22318, Note_on_c, 0, 68, 65
2, 22319, Note_on_c, 0, 69, 0
2, 22376, Note_on_c, 0, 68, 0
2, 22379, Note_on_c, 0, 69, 65
2, 22435, Note_on_c, 0, 71, 65
2, 22436, Note_on_c, 0, 69, 0
2, 22499, Note_on_c, 0, 74, 65
2, 22504, Note_on_c, 0, 76, 0
2, 22564, Note_on_c, 0, 74, 0
2, 22564, Note_on_c, 0, 72, 65
2, 22579, Note_on_c, 0, 71, 0
2, 22627, Note_on_c, 0, 64, 65
2, 22653, Note_on_c, 0, 64, 0
2, 22687, Note_on_c, 0, 69, 65
2, 22773, Note_on_c, 0, 74, 65
2, 22777, Note_on_c, 0, 72, 0
2, 22786, Note_on_c, 0, 74, 0
2, 22802, Note_on_c, 0, 72, 65
2, 22815, Note_on_c, 0, 69, 0
2, 22818, Note_on_c, 0, 72, 0
2, 22818, Note_on_c, 0, 71, 65
2, 22829, Note_on_c, 0, 71, 0
2, 22831, Note_on_c, 0, 72, 65
2, 22841, Note_on_c, 0, 72, 0
2, 22842, Note_on_c, 0, 71, 65
2, 22850, Note_on_c, 0, 71, 0
2, 22853, Note_on_c, 0, 72, 65
2, 22857, Note_on_c, 0, 69, 65
2, 22864, Note_on_c, 0, 72, 0
2, 22866, Note_on_c, 0, 71, 65
2, 22872, Note_on_c, 0, 71, 0
2, 22875, Note_on_c, 0, 72, 65
2, 22885, Note_on_c, 0, 72, 0
2, 22885, Note_on_c, 0, 71, 65
2, 22894, Note_on_c, 0, 71, 0
2, 22895, Note_on_c, 0, 72, 65
2, 22900, Note_on_c, 0, 72, 0
2, 22901, Note_on_c, 0, 69, 0
2, 22902, Note_on_c, 0, 71, 65
2, 22906, Note_on_c, 0, 72, 65
2, 22908, Note_on_c, 0, 71, 0
2, 22912, Note_on_c, 0, 68, 65
2, 22915, Note_on_c, 0, 71, 65
2, 22920, Note_on_c, 0, 72, 0
2, 22972, Note_on_c, 0, 71, 0
2, 22972, Note_on_c, 0, 69, 65
2, 22999, Note_on_c, 0, 69, 0
2, 23000, Note_on_c, 0, 71, 65
2, 23022, Note_on_c, 0, 71, 0
2, 23034, Note_on_c, 0, 68, 0
2, 23036, Note_on_c, 0, 69, 65
2, 23101, Note_on_c, 0, 76, 65
2, 23157, Note_on_c, 0, 72, 65
2, 23160, Note_on_c, 0, 69, 0
2, 23217, Note_on_c, 0, 77, 65
2, 23220, Note_on_c, 0, 76, 0
2, 23247, Note_on_c, 0, 79, 65
2, 23249, Note_on_c, 0, 77, 0
2, 23252, Note_on_c, 0, 72, 0
2, 23276, Note_on_c, 0, 79, 0
2, 23282, Note_on_c, 0, 71, 65
2, 23282, Note_on_c, 0, 81, 65
2, 23341, Note_on_c, 0, 71, 0
2, 23341, Note_on_c, 0, 72, 65
2, 23369, Note_on_c, 0, 69, 65
2, 23372, Note_on_c, 0, 72, 0
2, 23382, Note_on_c, 0, 81, 0
2, 23402, Note_on_c, 0, 74, 65
2, 23404, Note_on_c, 0, 69, 0
2, 23404, Note_on_c, 0, 67, 65
2, 23461, Note_on_c, 0, 71, 65
2, 23462, Note_on_c, 0, 67, 0
2, 23521, Note_on_c, 0, 64, 65
2, 23521, Note_on_c, 0, 76, 65
2, 23523, Note_on_c, 0, 71, 0
2, 23524, Note_on_c, 0, 74, 0
2, 23584, Note_on_c, 0, 67, 65
2, 23585, Note_on_c, 0, 64, 0
2, 23642, Note_on_c, 0, 74, 65
2, 23643, Note_on_c, 0, 76, 0
2, 23698, Note_on_c, 0, 66, 65
2, 23699, Note_on_c, 0, 67, 0
2, 23717, Note_on_c, 0, 74, 0
2, 23717, Note_on_c, 0, 76, 65
2, 23730, Note_on_c, 0, 76, 0
2, 23730, Note_on_c, 0, 72, 65
2, 23750, Note_on_c, 0, 72, 0
2, 23760, Note_on_c, 0, 71, 65
2, 23761, Note_on_c, 0, 66, 0
2, 23761, Note_on_c, 0, 67, 65
2, 23942, Note_on_c, 0, 71, 0
2, 23942, Note_on_c, 0, 73, 65
2, 23943, Note_on_c, 0, 67, 0
2, 24003, Note_on_c, 0, 73, 0
2, 24003, Note_on_c, 0, 74, 65
2, 24121, Note_on_c, 0, 69, 65
2, 24242, Note_on_c, 0, 70, 65
2, 24245, Note_on_c, 0, 69, 0
2, 24299, Note_on_c, 0, 74, 0
2, 24300, Note_on_c, 0, 76, 65
2, 24360, Note_on_c, 0, 73, 65
2, 24361, Note_on_c, 0, 76, 0
2, 24361, Note_on_c, 0, 69, 65
2, 24363, Note_on_c, 0, 70, 0
2, 24444, Note_on_c, 0, 70, 65
2, 24446, Note_on_c, 0, 69, 0
2, 24463, Note_on_c, 0, 67, 65
2, 24464, Note_on_c, 0, 70, 0
2, 24479, Note_on_c, 0, 67, 0
2, 24487, Note_on_c, 0, 66, 65
2, 24491, Note_on_c, 0, 74, 65
2, 24492, Note_on_c, 0, 73, 0
2, 24541, Note_on_c, 0, 69, 65
2, 24542, Note_on_c, 0, 74, 0
2, 24599, Note_on_c, 0, 69, 0
2, 24599, Note_on_c, 0, 71, 65
2, 24649, Note_on_c, 0, 66, 0
2, 24657, Note_on_c, 0, 67, 65
2, 24685, Note_on_c, 0, 71, 0
2, 24691, Note_on_c, 0, 72, 65
2, 24715, Note_on_c, 0, 72, 0
2, 24718, Note_on_c, 0, 74, 65
2, 24727, Note_on_c, 0, 69, 65
2, 24730, Note_on_c, 0, 67, 0
2, 24746, Note_on_c, 0, 72, 65
2, 24747, Note_on_c, 0, 74, 0
2, 24756, Note_on_c, 0, 72, 0
2, 24757, Note_on_c, 0, 74, 65
2, 24766, Note_on_c, 0, 74, 0
2, 24768, Note_on_c, 0, 72, 65
2, 24778, Note_on_c, 0, 74, 65
2, 24779, Note_on_c, 0, 72, 0
2, 24785, Note_on_c, 0, 72, 65
2, 24789, Note_on_c, 0, 74, 0
2, 24801, Note_on_c, 0, 71, 65
2, 24803, Note_on_c, 0, 72, 0
2, 24813, Note_on_c, 0, 72, 65
2, 24815, Note_on_c, 0, 71, 0
2, 24832, Note_on_c, 0, 74, 65
2, 24833, Note_on_c, 0, 72, 0
2, 24955, Note_on_c, 0, 69, 0
2, 24956, Note_on_c, 0, 67, 65
2, 25018, Note_on_c, 0, 72, 65
2, 25018, Note_on_c, 0, 66, 65
2, 25019, Note_on_c, 0, 74, 0
2, 25019, Note_on_c, 0, 67, 0
2, 25082, Note_on_c, 0, 66, 0
2, 25082, Note_on_c, 0, 71, 65
2, 25083, Note_on_c, 0, 72, 0
2, 25083, Note_on_c, 0, 67, 65
2, 25139, Note_on_c, 0, 71, 0
2, 25139, Note_on_c, 0, 69, 65
2, 25143, Note_on_c, 0, 67, 0
2, 25200, Note_on_c, 0, 72, 65
2, 25201, Note_on_c, 0, 69, 0
2, 25201, Note_on_c, 0, 66, 65
2, 25259, Note_on_c, 0, 66, 0
2, 25261, Note_on_c, 0, 67, 65
2, 25263, Note_on_c, 0, 71, 65
2, 25264, Note_on_c, 0, 72, 0
2, 25321, Note_on_c, 0, 71, 0
2, 25322, Note_on_c, 0, 69, 65
2, 25337, Note_on_c, 0, 67, 0
2, 25377, Note_on_c, 0, 67, 65
2, 25441, Note_on_c, 0, 66, 65
2, 25445, Note_on_c, 0, 67, 0
2, 25497, Note_on_c, 0, 69, 0
2, 25499, Note_on_c, 0, 71, 65
2, 25561, Note_on_c, 0, 71, 0
2, 25563, Note_on_c, 0, 66, 0
2, 25563, Note_on_c, 0, 67, 65
2, 25621, Note_on_c, 0, 67, 0
2, 25622, Note_on_c, 0, 74, 65
2, 25623, Note_on_c, 0, 59, 65
2, 25682, Note_on_c, 0, 59, 0
2, 25684, Note_on_c, 0, 60, 65
2, 25685, Note_on_c, 0, 76, 65
2, 25686, Note_on_c, 0, 74, 0
2, 25743, Note_on_c, 0, 62, 65
2, 25748, Note_on_c, 0, 60, 0
2, 25804, Note_on_c, 0, 76, 0
2, 25804, Note_on_c, 0, 74, 65
2, 25806, Note_on_c, 0, 62, 0
2, 25807, Note_on_c, 0, 64, 65
2, 25862, Note_on_c, 0, 66, 65
2, 25866, Note_on_c, 0, 64, 0
2, 25885, Note_on_c, 0, 74, 0
2, 25887, Note_on_c, 0, 76, 65
2, 25898, Note_on_c, 0, 72, 65
2, 25907, Note_on_c, 0, 76, 0
2, 25916, Note_on_c, 0, 72, 0
2, 25922, Note_on_c, 0, 66, 0
2, 25922, Note_on_c, 0, 71, 65
2, 25922, Note_on_c, 0, 67, 65
2, 25979, Note_on_c, 0, 69, 65
2, 25983, Note_on_c, 0, 67, 0
2, 26019, Note_on_c, 0, 71, 0
2, 26036, Note_on_c, 0, 71, 65
2, 26038, Note_on_c, 0, 69, 0
2, 26090, Note_on_c, 0, 71, 0
2, 26091, Note_on_c, 0, 69, 65
2, 26091, Note_on_c, 0, 72, 65
2, 26150, Note_on_c, 0, 69, 0
2, 26150, Note_on_c, 0, 74, 65
2, 26151, Note_on_c, 0, 72, 0
2, 26151, Note_on_c, 0, 67, 65
2, 26212, Note_on_c, 0, 67, 0
2, 26214, Note_on_c, 0, 66, 65
2, 26271, Note_on_c, 0, 66, 0
2, 26272, Note_on_c, 0, 67, 65
2, 26334, Note_on_c, 0, 62, 65
2, 26336, Note_on_c, 0, 67, 0
2, 26395, Note_on_c, 0, 72, 65
2, 26396, Note_on_c, 0, 74, 0
2, 26396, Note_on_c, 0, 64, 65
2, 26398, Note_on_c, 0, 62, 0
2, 26454, Note_on_c, 0, 71, 65
2, 26455, Note_on_c, 0, 72, 0
2, 26483, Note_on_c, 0, 72, 65
2, 26485, Note_on_c, 0, 71, 0
2, 26515, Note_on_c, 0, 72, 0
2, 26517, Note_on_c, 0, 74, 65
2, 26517, Note_on_c, 0, 62, 65
2, 26518, Note_on_c, 0, 64, 0
2, 26579, Note_on_c, 0, 60, 65
2, 26580, Note_on_c, 0, 66, 65
2, 26583, Note_on_c, 0, 62, 0
2, 26584, Note_on_c, 0, 74, 0
2, 26648, Note_on_c, 0, 67, 65
2, 26649, Note_on_c, 0, 66, 0
2, 26649, Note_on_c, 0, 59, 65
2, 26650, Note_on_c, 0, 60, 0
2, 26821, Note_on_c, 0, 60, 65
2, 26822, Note_on_c, 0, 59, 0
2, 26882, Note_on_c, 0, 62, 65
2, 26883, Note_on_c, 0, 60, 0
2, 27004, Note_on_c, 0, 67, 0
2, 27004, Note_on_c, 0, 69, 65
2, 27065, Note_on_c, 0, 67, 65
2, 27066, Note_on_c, 0, 69, 0
2, 27125, Note_on_c, 0, 60, 65
2, 27126, Note_on_c, 0, 66, 65
2, 27128, Note_on_c, 0, 67, 0
2, 27130, Note_on_c, 0, 62, 0
2, 27184, Note_on_c, 0, 59, 65
2, 27186, Note_on_c, 0, 60, 0
2, 27245, Note_on_c, 0, 60, 65
2, 27248, Note_on_c, 0, 59, 0
2, 27304, Note_on_c, 0, 62, 65
2, 27305, Note_on_c, 0, 60, 0
2, 27365, Note_on_c, 0, 59, 65
2, 27367, Note_on_c, 0, 62, 0
2, 27488, Note_on_c, 0, 66, 0
2, 27489, Note_on_c, 0, 64, 65
2, 27516, Note_on_c, 0, 59, 0
2, 27541, Note_on_c, 0, 66, 65
2, 27542, Note_on_c, 0, 57, 65
2, 27544, Note_on_c, 0, 64, 0
2, 27601, Note_on_c, 0, 59, 65
2, 27602, Note_on_c, 0, 66, 0
2, 27602, Note_on_c, 0, 67, 65
2, 27603, Note_on_c, 0, 57, 0
2, 27661, Note_on_c, 0, 69, 65
2, 27662, Note_on_c, 0, 60, 65
2, 27663, Note_on_c, 0, 59, 0
2, 27663, Note_on_c, 0, 67, 0
2, 27718, Note_on_c, 0, 71, 65
2, 27720, Note_on_c, 0, 62, 65
2, 27721, Note_on_c, 0, 69, 0
2, 27721, Note_on_c, 0, 60, 0
2, 27774, Note_on_c, 0, 64, 65
2, 27775, Note_on_c, 0, 71, 0
2, 27776, Note_on_c, 0, 62, 0
2, 27776, Note_on_c, 0, 72, 65
2, 27836, Note_on_c, 0, 65, 65
2, 27837, Note_on_c, 0, 64, 0
2, 27837, Note_on_c, 0, 72, 0
2, 27837, Note_on_c, 0, 74, 65
2, 27894, Note_on_c, 0, 74, 0
2, 27894, Note_on_c, 0, 76, 65
2, 27895, Note_on_c, 0, 64, 65
2, 27897, Note_on_c, 0, 65, 0
2, 27963, Note_on_c, 0, 71, 65
2, 27964, Note_on_c, 0, 64, 0
2, 27964, Note_on_c, 0, 77, 65
2, 27965, Note_on_c, 0, 76, 0
2, 28023, Note_on_c, 0, 77, 0
2, 28024, Note_on_c, 0, 74, 65
2, 28086, Note_on_c, 0, 76, 65
2, 28087, Note_on_c, 0, 74, 0
2, 28144, Note_on_c, 0, 67, 65
2, 28150, Note_on_c, 0, 71, 0
2, 28180, Note_on_c, 0, 67, 0
2, 28206, Note_on_c, 0, 72, 65
2, 28221, Note_on_c, 0, 76, 0
2, 28261, Note_on_c, 0, 74, 65
2, 28321, Note_on_c, 0, 71, 65
2, 28321, Note_on_c, 0, 76, 65
2, 28322, Note_on_c, 0, 72, 0
2, 28323, Note_on_c, 0, 74, 0
2, 28379, Note_on_c, 0, 69, 65
2, 28380, Note_on_c, 0, 71, 0
2, 28380, Note_on_c, 0, 78, 65
2, 28381, Note_on_c, 0, 76, 0
2, 28442, Note_on_c, 0, 78, 0
2, 28442, Note_on_c, 0, 79, 65
2, 28443, Note_on_c, 0, 69, 0
2, 28443, Note_on_c, 0, 67, 65
2, 28486, Note_on_c, 0, 79, 0
2, 28503, Note_on_c, 0, 65, 65
2, 28504, Note_on_c, 0, 74, 65
2, 28507, Note_on_c, 0, 67, 0
2, 28565, Note_on_c, 0, 64, 65
2, 28566, Note_on_c, 0, 76, 65
2, 28567, Note_on_c, 0, 65, 0
2, 28567, Note_on_c, 0, 74, 0
2, 28631, Note_on_c, 0, 62, 65
2, 28632, Note_on_c, 0, 64, 0
2, 28692, Note_on_c, 0, 74, 65
2, 28692, Note_on_c, 0, 64, 65
2, 28694, Note_on_c, 0, 76, 0
2, 28694, Note_on_c, 0, 62, 0
2, 28751, Note_on_c, 0, 66, 65
2, 28755, Note_on_c, 0, 64, 0
2, 28776, Note_on_c, 0, 76, 65
2, 28778, Note_on_c, 0, 74, 0
2, 28792, Note_on_c, 0, 72, 65
2, 28793, Note_on_c, 0, 76, 0
2, 28811, Note_on_c, 0, 66, 0
2, 28812, Note_on_c, 0, 72, 0
2, 28812, Note_on_c, 0, 67, 65
2, 28813, Note_on_c, 0, 71, 65
2, 28868, Note_on_c, 0, 62, 65
2, 28870, Note_on_c, 0, 67, 0
2, 28925, Note_on_c, 0, 67, 65
2, 28927, Note_on_c, 0, 62, 0
2, 28981, Note_on_c, 0, 72, 65
2, 28982, Note_on_c, 0, 71, 0
2, 28983, Note_on_c, 0, 69, 65
2, 28986, Note_on_c, 0, 67, 0
2, 29042, Note_on_c, 0, 71, 65
2, 29044, Note_on_c, 0, 72, 0
2, 29044, Note_on_c, 0, 74, 65
2, 29045, Note_on_c, 0, 69, 0
2, 29219, Note_on_c, 0, 69, 65
2, 29220, Note_on_c, 0, 71, 0
2, 29246, Note_on_c, 0, 69, 0
2, 29246, Note_on_c, 0, 67, 65
2, 29281, Note_on_c, 0, 67, 0
2, 29281, Note_on_c, 0, 72, 65
2, 29281, Note_on_c, 0, 69, 65
2, 29282, Note_on_c, 0, 62, 65
2, 29285, Note_on_c, 0, 74, 0
2, 29343, Note_on_c, 0, 72, 0
2, 29344, Note_on_c, 0, 71, 65
2, 29401, Note_on_c, 0, 72, 65
2, 29403, Note_on_c, 0, 71, 0
2, 29458, Note_on_c, 0, 72, 0
2, 29459, Note_on_c, 0, 74, 65
2, 29526, Note_on_c, 0, 74, 0
2, 29526, Note_on_c, 0, 71, 65
2, 29528, Note_on_c, 0, 69, 0
2, 29880, Note_on_c, 0, 62, 0
2, 29880, Note_on_c, 0, 71, 0
2, 29880, End_track
3, 0, Start_track
3, 0, Title_t, "Accomp 4 foot"
3, 0, MIDI_port, 0
3, 0, Control_c, 3, 7, 80
3, 0, Control_c, 3, 10, 68
3, 0, Control_c, 3, 91, 127
3, 0, Program_c, 3, 74
3, 1, Note_on_c, 3, 83, 65
3, 2, Note_on_c, 3, 86, 65
3, 119, Note_on_c, 3, 81, 65
3, 119, Note_on_c, 3, 88, 65
3, 120, Note_on_c, 3, 83, 0
3, 123, Note_on_c, 3, 86, 0
3, 204, Note_on_c, 3, 83, 65
3, 205, Note_on_c, 3, 81, 0
3, 218, Note_on_c, 3, 79, 65
3, 219, Note_on_c, 3, 83, 0
3, 232, Note_on_c, 3, 79, 0
3, 233, Note_on_c, 3, 86, 65
3, 235, Note_on_c, 3, 88, 0
3, 235, Note_on_c, 3, 78, 65
3, 311, Note_on_c, 3, 88, 65
3, 312, Note_on_c, 3, 86, 0
3, 329, Note_on_c, 3, 88, 0
3, 329, Note_on_c, 3, 84, 65
3, 344, Note_on_c, 3, 83, 65
3, 345, Note_on_c, 3, 78, 0
3, 345, Note_on_c, 3, 79, 65
3, 346, Note_on_c, 3, 84, 0
3, 411, Note_on_c, 3, 79, 0
3, 411, Note_on_c, 3, 81, 65
3, 440, Note_on_c, 3, 79, 65
3, 441, Note_on_c, 3, 81, 0
3, 470, Note_on_c, 3, 79, 0
3, 471, Note_on_c, 3, 78, 65
3, 500, Note_on_c, 3, 78, 0
3, 500, Note_on_c, 3, 79, 65
3, 528, Note_on_c, 3, 84, 65
3, 532, Note_on_c, 3, 83, 0
3, 532, Note_on_c, 3, 79, 0
3, 532, Note_on_c, 3, 76, 65
3, 593, Note_on_c, 3, 84, 0
3, 595, Note_on_c, 3, 86, 65
3, 596, Note_on_c, 3, 74, 65
3, 597, Note_on_c, 3, 76, 0
3, 682, Note_on_c, 3, 74, 0
3, 711, Note_on_c, 3, 76, 65
3, 793, Note_on_c, 3, 78, 65
3, 798, Note_on_c, 3, 76, 0
3, 810, Note_on_c, 3, 78, 0
3, 825, Note_on_c, 3, 79, 65
3, 826, Note_on_c, 3, 84, 65
3, 830, Note_on_c, 3, 86, 0
3, 839, Note_on_c, 3, 79, 0
3, 840, Note_on_c, 3, 78, 65
3, 850, Note_on_c, 3, 78, 0
3, 852, Note_on_c, 3, 79, 65
3, 862, Note_on_c, 3, 79, 0
3, 863, Note_on_c, 3, 78, 65
3, 872, Note_on_c, 3, 78, 0
3, 876, Note_on_c, 3, 79, 65
3, 884, Note_on_c, 3, 84, 0
3, 884, Note_on_c, 3, 83, 65
3, 885, Note_on_c, 3, 79, 0
3, 886, Note_on_c, 3, 78, 65
3, 895, Note_on_c, 3, 78, 0
3, 897, Note_on_c, 3, 79, 65
3, 907, Note_on_c, 3, 79, 0
3, 908, Note_on_c, 3, 78, 65
3, 917, Note_on_c, 3, 78, 0
3, 920, Note_on_c, 3, 79, 65
3, 927, Note_on_c, 3, 79, 0
3, 929, Note_on_c, 3, 78, 65
3, 935, Note_on_c, 3, 78, 0
3, 938, Note_on_c, 3, 79, 65
3, 946, Note_on_c, 3, 83, 0
3, 946, Note_on_c, 3, 84, 65
3, 947, Note_on_c, 3, 78, 65
3, 948, Note_on_c, 3, 79, 0
3, 1004, Note_on_c, 3, 76, 65
3, 1005, Note_on_c, 3, 86, 65
3, 1006, Note_on_c, 3, 84, 0
3, 1006, Note_on_c, 3, 78, 0
3, 1034, Note_on_c, 3, 78, 65
3, 1036, Note_on_c, 3, 76, 0
3, 1069, Note_on_c, 3, 78, 0
3, 1072, Note_on_c, 3, 83, 65
3, 1073, Note_on_c, 3, 79, 65
3, 1074, Note_on_c, 3, 86, 0
3, 1205, Note_on_c, 3, 83, 0
3, 1258, Note_on_c, 3, 81, 65
3, 1260, Note_on_c, 3, 79, 0
3, 1288, Note_on_c, 3, 79, 65
3, 1291, Note_on_c, 3, 81, 0
3, 1319, Note_on_c, 3, 79, 0
3, 1320, Note_on_c, 3, 78, 65
3, 1351, Note_on_c, 3, 79, 65
3, 1353, Note_on_c, 3, 78, 0
3, 1380, Note_on_c, 3, 76, 65
3, 1381, Note_on_c, 3, 79, 0
3, 1438, Note_on_c, 3, 81, 65
3, 1439, Note_on_c, 3, 74, 65
3, 1442, Note_on_c, 3, 76, 0
3, 1465, Note_on_c, 3, 74, 0
3, 1467, Note_on_c, 3, 76, 65
3, 1500, Note_on_c, 3, 78, 65
3, 1501, Note_on_c, 3, 76, 0
3, 1534, Note_on_c, 3, 78, 0
3, 1555, Note_on_c, 3, 78, 65
3, 1556, Note_on_c, 3, 81, 0
3, 1556, Note_on_c, 3, 83, 65
3, 1565, Note_on_c, 3, 76, 65
3, 1566, Note_on_c, 3, 78, 0
3, 1572, Note_on_c, 3, 76, 0
3, 1572, Note_on_c, 3, 78, 65
3, 1579, Note_on_c, 3, 76, 65
3, 1581, Note_on_c, 3, 78, 0
3, 1649, Note_on_c, 3, 85, 65
3, 1653, Note_on_c, 3, 83, 0
3, 1662, Note_on_c, 3, 85, 0
3, 1680, Note_on_c, 3, 86, 65
3, 1694, Note_on_c, 3, 86, 0
3, 1695, Note_on_c, 3, 85, 65
3, 1700, Note_on_c, 3, 76, 0
3, 1704, Note_on_c, 3, 85, 0
3, 1707, Note_on_c, 3, 86, 65
3, 1716, Note_on_c, 3, 86, 0
3, 1717, Note_on_c, 3, 85, 65
3, 1724, Note_on_c, 3, 85, 0
3, 1727, Note_on_c, 3, 86, 65
3, 1733, Note_on_c, 3, 86, 0
3, 1733, Note_on_c, 3, 79, 65
3, 1739, Note_on_c, 3, 86, 65
3, 1747, Note_on_c, 3, 86, 0
3, 1747, Note_on_c, 3, 85, 65
3, 1767, Note_on_c, 3, 85, 0
3, 1768, Note_on_c, 3, 83, 65
3, 1781, Note_on_c, 3, 85, 65
3, 1782, Note_on_c, 3, 83, 0
3, 1797, Note_on_c, 3, 85, 0
3, 1799, Note_on_c, 3, 86, 65
3, 1799, Note_on_c, 3, 78, 65
3, 1800, Note_on_c, 3, 79, 0
3, 1857, Note_on_c, 3, 78, 0
3, 1858, Note_on_c, 3, 79, 65
3, 1913, Note_on_c, 3, 79, 0
3, 1913, Note_on_c, 3, 81, 65
3, 1969, Note_on_c, 3, 86, 0
3, 1969, Note_on_c, 3, 84, 65
3, 2031, Note_on_c, 3, 84, 0
3, 2031, Note_on_c, 3, 83, 65
3, 2032, Note_on_c, 3, 81, 0
3, 2032, Note_on_c, 3, 74, 65
3, 2094, Note_on_c, 3, 83, 0
3, 2094, Note_on_c, 3, 81, 65
3, 2157, Note_on_c, 3, 84, 65
3, 2159, Note_on_c, 3, 81, 0
3, 2218, Note_on_c, 3, 74, 0
3, 2218, Note_on_c, 3, 83, 65
3, 2219, Note_on_c, 3, 84, 0
3, 2219, Note_on_c, 3, 79, 65
3, 2260, Note_on_c, 3, 83, 0
3, 2282, Note_on_c, 3, 83, 65
3, 2295, Note_on_c, 3, 79, 0
3, 2297, Note_on_c, 3, 81, 65
3, 2298, Note_on_c, 3, 83, 0
3, 2310, Note_on_c, 3, 81, 0
3, 2310, Note_on_c, 3, 83, 65
3, 2322, Note_on_c, 3, 83, 0
3, 2323, Note_on_c, 3, 81, 65
3, 2332, Note_on_c, 3, 81, 0
3, 2334, Note_on_c, 3, 79, 65
3, 2334, Note_on_c, 3, 83, 65
3, 2344, Note_on_c, 3, 83, 0
3, 2345, Note_on_c, 3, 81, 65
3, 2352, Note_on_c, 3, 81, 0
3, 2353, Note_on_c, 3, 83, 65
3, 2362, Note_on_c, 3, 81, 65
3, 2363, Note_on_c, 3, 83, 0
3, 2369, Note_on_c, 3, 81, 0
3, 2370, Note_on_c, 3, 83, 65
3, 2375, Note_on_c, 3, 83, 0
3, 2376, Note_on_c, 3, 81, 65
3, 2383, Note_on_c, 3, 83, 65
3, 2384, Note_on_c, 3, 81, 0
3, 2391, Note_on_c, 3, 81, 65
3, 2392, Note_on_c, 3, 79, 0
3, 2394, Note_on_c, 3, 78, 65
3, 2398, Note_on_c, 3, 83, 0
3, 2452, Note_on_c, 3, 81, 0
3, 2453, Note_on_c, 3, 79, 65
3, 2478, Note_on_c, 3, 79, 0
3, 2478, Note_on_c, 3, 81, 65
3, 2503, Note_on_c, 3, 81, 0
3, 2511, Note_on_c, 3, 78, 0
3, 2512, Note_on_c, 3, 79, 65
3, 2574, Note_on_c, 3, 86, 65
3, 2579, Note_on_c, 3, 79, 0
3, 2695, Note_on_c, 3, 86, 0
3, 2695, Note_on_c, 3, 84, 65
3, 2813, Note_on_c, 3, 84, 0
3, 2814, Note_on_c, 3, 86, 65
3, 2814, Note_on_c, 3, 83, 65
3, 2874, Note_on_c, 3, 86, 0
3, 2874, Note_on_c, 3, 88, 65
3, 2876, Note_on_c, 3, 83, 0
3, 2933, Note_on_c, 3, 81, 65
3, 2961, Note_on_c, 3, 90, 65
3, 2966, Note_on_c, 3, 88, 0
3, 2975, Note_on_c, 3, 90, 0
3, 2979, Note_on_c, 3, 81, 0
3, 2992, Note_on_c, 3, 81, 65
3, 2993, Note_on_c, 3, 91, 65
3, 3007, Note_on_c, 3, 91, 0
3, 3007, Note_on_c, 3, 90, 65
3, 3017, Note_on_c, 3, 90, 0
3, 3019, Note_on_c, 3, 91, 65
3, 3029, Note_on_c, 3, 91, 0
3, 3031, Note_on_c, 3, 90, 65
3, 3038, Note_on_c, 3, 90, 0
3, 3040, Note_on_c, 3, 91, 65
3, 3050, Note_on_c, 3, 91, 0
3, 3051, Note_on_c, 3, 90, 65
3, 3059, Note_on_c, 3, 90, 0
3, 3060, Note_on_c, 3, 91, 65
3, 3070, Note_on_c, 3, 91, 0
3, 3071, Note_on_c, 3, 90, 65
3, 3077, Note_on_c, 3, 90, 0
3, 3078, Note_on_c, 3, 91, 65
3, 3087, Note_on_c, 3, 91, 0
3, 3088, Note_on_c, 3, 90, 65
3, 3094, Note_on_c, 3, 90, 0
3, 3095, Note_on_c, 3, 91, 65
3, 3101, Note_on_c, 3, 91, 0
3, 3103, Note_on_c, 3, 90, 65
3, 3107, Note_on_c, 3, 90, 0
3, 3107, Note_on_c, 3, 91, 65
3, 3115, Note_on_c, 3, 90, 65
3, 3126, Note_on_c, 3, 91, 0
3, 3172, Note_on_c, 3, 90, 0
3, 3173, Note_on_c, 3, 88, 65
3, 3199, Note_on_c, 3, 90, 65
3, 3200, Note_on_c, 3, 88, 0
3, 3234, Note_on_c, 3, 79, 65
3, 3234, Note_on_c, 3, 91, 65
3, 3235, Note_on_c, 3, 90, 0
3, 3236, Note_on_c, 3, 81, 0
3, 3291, Note_on_c, 3, 81, 65
3, 3294, Note_on_c, 3, 79, 0
3, 3349, Note_on_c, 3, 81, 0
3, 3349, Note_on_c, 3, 83, 65
3, 3408, Note_on_c, 3, 90, 65
3, 3411, Note_on_c, 3, 91, 0
3, 3470, Note_on_c, 3, 90, 0
3, 3472, Note_on_c, 3, 88, 65
3, 3472, Note_on_c, 3, 85, 65
3, 3474, Note_on_c, 3, 83, 0
3, 3555, Note_on_c, 3, 88, 0
3, 3597, Note_on_c, 3, 85, 0
3, 3597, Note_on_c, 3, 90, 65
3, 3597, Note_on_c, 3, 86, 65
3, 3682, Note_on_c, 3, 91, 65
3, 3683, Note_on_c, 3, 90, 0
3, 3705, Note_on_c, 3, 91, 0
3, 3719, Note_on_c, 3, 90, 65
3, 3735, Note_on_c, 3, 90, 0
3, 3736, Note_on_c, 3, 88, 65
3, 3746, Note_on_c, 3, 88, 0
3, 3748, Note_on_c, 3, 90, 65
3, 3757, Note_on_c, 3, 90, 0
3, 3760, Note_on_c, 3, 88, 65
3, 3765, Note_on_c, 3, 88, 0
3, 3768, Note_on_c, 3, 90, 65
3, 3775, Note_on_c, 3, 86, 0
3, 3775, Note_on_c, 3, 83, 65
3, 3779, Note_on_c, 3, 88, 65
3, 3780, Note_on_c, 3, 90, 0
3, 3789, Note_on_c, 3, 88, 0
3, 3789, Note_on_c, 3, 90, 65
3, 3798, Note_on_c, 3, 90, 0
3, 3800, Note_on_c, 3, 88, 65
3, 3806, Note_on_c, 3, 88, 0
3, 3807, Note_on_c, 3, 90, 65
3, 3814, Note_on_c, 3, 90, 0
3, 3814, Note_on_c, 3, 88, 65
3, 3821, Note_on_c, 3, 88, 0
3, 3821, Note_on_c, 3, 90, 65
3, 3828, Note_on_c, 3, 90, 0
3, 3828, Note_on_c, 3, 88, 65
3, 3833, Note_on_c, 3, 81, 65
3, 3834, Note_on_c, 3, 90, 65
3, 3835, Note_on_c, 3, 83, 0
3, 3836, Note_on_c, 3, 88, 0
3, 3841, Note_on_c, 3, 90, 0
3, 3842, Note_on_c, 3, 88, 65
3, 3891, Note_on_c, 3, 81, 0
3, 3891, Note_on_c, 3, 79, 65
3, 3893, Note_on_c, 3, 88, 0
3, 3894, Note_on_c, 3, 90, 65
3, 3952, Note_on_c, 3, 90, 0
3, 3952, Note_on_c, 3, 86, 65
3, 3954, Note_on_c, 3, 78, 65
3, 3958, Note_on_c, 3, 79, 0
3, 4015, Note_on_c, 3, 78, 0
3, 4017, Note_on_c, 3, 83, 65
3, 4138, Note_on_c, 3, 81, 65
3, 4139, Note_on_c, 3, 86, 0
3, 4143, Note_on_c, 3, 83, 0
3, 4203, Note_on_c, 3, 86, 65
3, 4261, Note_on_c, 3, 79, 65
3, 4263, Note_on_c, 3, 81, 0
3, 4321, Note_on_c, 3, 86, 0
3, 4321, Note_on_c, 3, 88, 65
3, 4349, Note_on_c, 3, 79, 0
3, 4381, Note_on_c, 3, 79, 65
3, 4416, Note_on_c, 3, 88, 0
3, 4440, Note_on_c, 3, 88, 65
3, 4454, Note_on_c, 3, 88, 0
3, 4454, Note_on_c, 3, 86, 65
3, 4465, Note_on_c, 3, 86, 0
3, 4466, Note_on_c, 3, 88, 65
3, 4470, Note_on_c, 3, 79, 0
3, 4478, Note_on_c, 3, 88, 0
3, 4479, Note_on_c, 3, 86, 65
3, 4488, Note_on_c, 3, 86, 0
3, 4489, Note_on_c, 3, 88, 65
3, 4497, Note_on_c, 3, 88, 0
3, 4497, Note_on_c, 3, 86, 65
3, 4498, Note_on_c, 3, 79, 65
3, 4505, Note_on_c, 3, 88, 65
3, 4506, Note_on_c, 3, 86, 0
3, 4511, Note_on_c, 3, 88, 0
3, 4512, Note_on_c, 3, 86, 65
3, 4518, Note_on_c, 3, 88, 65
3, 4519, Note_on_c, 3, 86, 0
3, 4524, Note_on_c, 3, 88, 0
3, 4526, Note_on_c, 3, 86, 65
3, 4553, Note_on_c, 3, 79, 0
3, 4555, Note_on_c, 3, 78, 65
3, 4615, Note_on_c, 3, 84, 65
3, 4616, Note_on_c, 3, 86, 0
3, 4676, Note_on_c, 3, 83, 65
3, 4678, Note_on_c, 3, 84, 0
3, 4678, Note_on_c, 3, 79, 65
3, 4680, Note_on_c, 3, 78, 0
3, 4794, Note_on_c, 3, 78, 65
3, 4797, Note_on_c, 3, 79, 0
3, 4849, Note_on_c, 3, 83, 0
3, 4850, Note_on_c, 3, 84, 65
3, 4875, Note_on_c, 3, 79, 65
3, 4876, Note_on_c, 3, 78, 0
3, 4893, Note_on_c, 3, 76, 65
3, 4899, Note_on_c, 3, 79, 0
3, 4911, Note_on_c, 3, 86, 65
3, 4912, Note_on_c, 3, 84, 0
3, 4913, Note_on_c, 3, 74, 65
3, 4915, Note_on_c, 3, 76, 0
3, 5006, Note_on_c, 3, 74, 0
3, 5030, Note_on_c, 3, 76, 65
3, 5119, Note_on_c, 3, 78, 65
3, 5123, Note_on_c, 3, 76, 0
3, 5144, Note_on_c, 3, 78, 0
3, 5149, Note_on_c, 3, 79, 65
3, 5150, Note_on_c, 3, 84, 65
3, 5152, Note_on_c, 3, 86, 0
3, 5164, Note_on_c, 3, 79, 0
3, 5164, Note_on_c, 3, 78, 65
3, 5175, Note_on_c, 3, 78, 0
3, 5178, Note_on_c, 3, 79, 65
3, 5188, Note_on_c, 3, 79, 0
3, 5189, Note_on_c, 3, 78, 65
3, 5198, Note_on_c, 3, 78, 0
3, 5202, Note_on_c, 3, 79, 65
3, 5208, Note_on_c, 3, 84, 0
3, 5208, Note_on_c, 3, 83, 65
3, 5212, Note_on_c, 3, 79, 0
3, 5213, Note_on_c, 3, 78, 65
3, 5222, Note_on_c, 3, 78, 0
3, 5225, Note_on_c, 3, 79, 65
3, 5234, Note_on_c, 3, 78, 65
3, 5235, Note_on_c, 3, 79, 0
3, 5245, Note_on_c, 3, 78, 0
3, 5248, Note_on_c, 3, 79, 65
3, 5257, Note_on_c, 3, 79, 0
3, 5258, Note_on_c, 3, 78, 65
3, 5265, Note_on_c, 3, 78, 0
3, 5267, Note_on_c, 3, 79, 65
3, 5272, Note_on_c, 3, 83, 0
3, 5272, Note_on_c, 3, 84, 65
3, 5275, Note_on_c, 3, 79, 0
3, 5276, Note_on_c, 3, 78, 65
3, 5279, Note_on_c, 3, 78, 0
3, 5281, Note_on_c, 3, 79, 65
3, 5289, Note_on_c, 3, 78, 65
3, 5290, Note_on_c, 3, 79, 0
3, 5324, Note_on_c, 3, 76, 65
3, 5325, Note_on_c, 3, 84, 0
3, 5325, Note_on_c, 3, 78, 0
3, 5326, Note_on_c, 3, 86, 65
3, 5356, Note_on_c, 3, 78, 65
3, 5358, Note_on_c, 3, 76, 0
3, 5390, Note_on_c, 3, 86, 0
3, 5391, Note_on_c, 3, 78, 0
3, 5391, Note_on_c, 3, 83, 65
3, 5391, Note_on_c, 3, 79, 65
3, 5544, Note_on_c, 3, 83, 0
3, 5576, Note_on_c, 3, 81, 65
3, 5578, Note_on_c, 3, 79, 0
3, 5608, Note_on_c, 3, 79, 65
3, 5612, Note_on_c, 3, 81, 0
3, 5639, Note_on_c, 3, 79, 0
3, 5639, Note_on_c, 3, 78, 65
3, 5671, Note_on_c, 3, 79, 65
3, 5672, Note_on_c, 3, 78, 0
3, 5698, Note_on_c, 3, 76, 65
3, 5699, Note_on_c, 3, 79, 0
3, 5755, Note_on_c, 3, 74, 65
3, 5756, Note_on_c, 3, 81, 65
3, 5759, Note_on_c, 3, 76, 0
3, 5785, Note_on_c, 3, 74, 0
3, 5786, Note_on_c, 3, 76, 65
3, 5818, Note_on_c, 3, 78, 65
3, 5819, Note_on_c, 3, 76, 0
3, 5875, Note_on_c, 3, 83, 65
3, 5878, Note_on_c, 3, 81, 0
3, 5936, Note_on_c, 3, 76, 65
3, 5938, Note_on_c, 3, 78, 0
3, 5967, Note_on_c, 3, 85, 65
3, 5970, Note_on_c, 3, 83, 0
3, 5988, Note_on_c, 3, 85, 0
3, 5989, Note_on_c, 3, 86, 65
3, 6003, Note_on_c, 3, 85, 65
3, 6004, Note_on_c, 3, 86, 0
3, 6015, Note_on_c, 3, 85, 0
3, 6017, Note_on_c, 3, 86, 65
3, 6021, Note_on_c, 3, 76, 0
3, 6029, Note_on_c, 3, 86, 0
3, 6030, Note_on_c, 3, 85, 65
3, 6038, Note_on_c, 3, 85, 0
3, 6038, Note_on_c, 3, 86, 65
3, 6047, Note_on_c, 3, 79, 65
3, 6048, Note_on_c, 3, 86, 0
3, 6048, Note_on_c, 3, 85, 65
3, 6053, Note_on_c, 3, 86, 65
3, 6054, Note_on_c, 3, 85, 0
3, 6061, Note_on_c, 3, 85, 65
3, 6063, Note_on_c, 3, 86, 0
3, 6076, Note_on_c, 3, 85, 0
3, 6076, Note_on_c, 3, 83, 65
3, 6091, Note_on_c, 3, 85, 65
3, 6093, Note_on_c, 3, 83, 0
3, 6106, Note_on_c, 3, 85, 0
3, 6108, Note_on_c, 3, 86, 65
3, 6110, Note_on_c, 3, 79, 0
3, 6112, Note_on_c, 3, 78, 65
3, 6173, Note_on_c, 3, 78, 0
3, 6173, Note_on_c, 3, 79, 65
3, 6233, Note_on_c, 3, 81, 65
3, 6234, Note_on_c, 3, 79, 0
3, 6282, Note_on_c, 3, 86, 0
3, 6293, Note_on_c, 3, 84, 65
3, 6359, Note_on_c, 3, 81, 0
3, 6359, Note_on_c, 3, 83, 65
3, 6359, Note_on_c, 3, 74, 65
3, 6362, Note_on_c, 3, 84, 0
3, 6421, Note_on_c, 3, 83, 0
3, 6421, Note_on_c, 3, 81, 65
3, 6484, Note_on_c, 3, 81, 0
3, 6484, Note_on_c, 3, 84, 65
3, 6545, Note_on_c, 3, 84, 0
3, 6545, Note_on_c, 3, 83, 65
3, 6545, Note_on_c, 3, 79, 65
3, 6546, Note_on_c, 3, 74, 0
3, 6580, Note_on_c, 3, 83, 0
3, 6610, Note_on_c, 3, 83, 65
3, 6623, Note_on_c, 3, 83, 0
3, 6624, Note_on_c, 3, 81, 65
3, 6634, Note_on_c, 3, 81, 0
3, 6634, Note_on_c, 3, 83, 65
3, 6641, Note_on_c, 3, 79, 0
3, 6644, Note_on_c, 3, 81, 65
3, 6645, Note_on_c, 3, 83, 0
3, 6651, Note_on_c, 3, 81, 0
3, 6651, Note_on_c, 3, 83, 65
3, 6658, Note_on_c, 3, 83, 0
3, 6659, Note_on_c, 3, 81, 65
3, 6664, Note_on_c, 3, 83, 65
3, 6667, Note_on_c, 3, 81, 0
3, 6667, Note_on_c, 3, 79, 65
3, 6671, Note_on_c, 3, 83, 0
3, 6672, Note_on_c, 3, 81, 65
3, 6678, Note_on_c, 3, 81, 0
3, 6678, Note_on_c, 3, 83, 65
3, 6686, Note_on_c, 3, 83, 0
3, 6686, Note_on_c, 3, 81, 65
3, 6691, Note_on_c, 3, 81, 0
3, 6692, Note_on_c, 3, 83, 65
3, 6696, Note_on_c, 3, 83, 0
3, 6696, Note_on_c, 3, 81, 65
3, 6704, Note_on_c, 3, 83, 65
3, 6705, Note_on_c, 3, 81, 0
3, 6710, Note_on_c, 3, 83, 0
3, 6712, Note_on_c, 3, 81, 65
3, 6716, Note_on_c, 3, 83, 65
3, 6717, Note_on_c, 3, 81, 0
3, 6720, Note_on_c, 3, 79, 0
3, 6722, Note_on_c, 3, 81, 65
3, 6723, Note_on_c, 3, 83, 0
3, 6724, Note_on_c, 3, 78, 65
3, 6729, Note_on_c, 3, 83, 65
3, 6734, Note_on_c, 3, 83, 0
3, 6784, Note_on_c, 3, 81, 0
3, 6785, Note_on_c, 3, 79, 65
3, 6812, Note_on_c, 3, 79, 0
3, 6813, Note_on_c, 3, 81, 65
3, 6842, Note_on_c, 3, 81, 0
3, 6847, Note_on_c, 3, 78, 0
3, 6847, Note_on_c, 3, 79, 65
3, 6905, Note_on_c, 3, 79, 0
3, 6907, Note_on_c, 3, 86, 65
3, 7022, Note_on_c, 3, 86, 0
3, 7023, Note_on_c, 3, 84, 65
3, 7138, Note_on_c, 3, 84, 0
3, 7138, Note_on_c, 3, 86, 65
3, 7139, Note_on_c, 3, 83, 65
3, 7201, Note_on_c, 3, 88, 65
3, 7202, Note_on_c, 3, 86, 0
3, 7257, Note_on_c, 3, 81, 65
3, 7287, Note_on_c, 3, 90, 65
3, 7289, Note_on_c, 3, 83, 0
3, 7290, Note_on_c, 3, 88, 0
3, 7306, Note_on_c, 3, 90, 0
3, 7309, Note_on_c, 3, 81, 0
3, 7318, Note_on_c, 3, 81, 65
3, 7320, Note_on_c, 3, 91, 65
3, 7338, Note_on_c, 3, 90, 65
3, 7339, Note_on_c, 3, 91, 0
3, 7348, Note_on_c, 3, 90, 0
3, 7351, Note_on_c, 3, 91, 65
3, 7361, Note_on_c, 3, 91, 0
3, 7362, Note_on_c, 3, 90, 65
3, 7370, Note_on_c, 3, 90, 0
3, 7372, Note_on_c, 3, 91, 65
3, 7382, Note_on_c, 3, 91, 0
3, 7383, Note_on_c, 3, 90, 65
3, 7391, Note_on_c, 3, 90, 0
3, 7394, Note_on_c, 3, 91, 65
3, 7402, Note_on_c, 3, 91, 0
3, 7403, Note_on_c, 3, 90, 65
3, 7410, Note_on_c, 3, 90, 0
3, 7412, Note_on_c, 3, 91, 65
3, 7418, Note_on_c, 3, 91, 0
3, 7420, Note_on_c, 3, 90, 65
3, 7424, Note_on_c, 3, 91, 65
3, 7425, Note_on_c, 3, 90, 0
3, 7434, Note_on_c, 3, 90, 65
3, 7438, Note_on_c, 3, 91, 0
3, 7492, Note_on_c, 3, 90, 0
3, 7492, Note_on_c, 3, 88, 65
3, 7522, Note_on_c, 3, 90, 65
3, 7527, Note_on_c, 3, 88, 0
3, 7555, Note_on_c, 3, 90, 0
3, 7555, Note_on_c, 3, 79, 65
3, 7556, Note_on_c, 3, 91, 65
3, 7557, Note_on_c, 3, 81, 0
3, 7618, Note_on_c, 3, 81, 65
3, 7623, Note_on_c, 3, 79, 0
3, 7678, Note_on_c, 3, 81, 0
3, 7678, Note_on_c, 3, 83, 65
3, 7736, Note_on_c, 3, 91, 0
3, 7736, Note_on_c, 3, 90, 65
3, 7799, Note_on_c, 3, 90, 0
3, 7800, Note_on_c, 3, 88, 65
3, 7801, Note_on_c, 3, 85, 65
3, 7803, Note_on_c, 3, 83, 0
3, 7896, Note_on_c, 3, 88, 0
3, 7923, Note_on_c, 3, 90, 65
3, 7923, Note_on_c, 3, 86, 65
3, 7925, Note_on_c, 3, 85, 0
3, 8014, Note_on_c, 3, 91, 65
3, 8015, Note_on_c, 3, 90, 0
3, 8046, Note_on_c, 3, 91, 0
3, 8048, Note_on_c, 3, 88, 65
3, 8103, Note_on_c, 3, 83, 65
3, 8105, Note_on_c, 3, 86, 0
3, 8161, Note_on_c, 3, 83, 0
3, 8162, Note_on_c, 3, 81, 65
3, 8221, Note_on_c, 3, 79, 65
3, 8222, Note_on_c, 3, 90, 65
3, 8223, Note_on_c, 3, 88, 0
3, 8223, Note_on_c, 3, 81, 0
3, 8284, Note_on_c, 3, 86, 65
3, 8285, Note_on_c, 3, 78, 65
3, 8286, Note_on_c, 3, 90, 0
3, 8287, Note_on_c, 3, 79, 0
3, 8315, Note_on_c, 3, 78, 0
3, 8354, Note_on_c, 3, 83, 65
3, 8427, Note_on_c, 3, 86, 0
3, 8463, Note_on_c, 3, 81, 65
3, 8467, Note_on_c, 3, 83, 0
3, 8580, Note_on_c, 3, 79, 65
3, 8582, Note_on_c, 3, 74, 65
3, 8583, Note_on_c, 3, 81, 0
3, 8618, Note_on_c, 3, 74, 0
3, 8641, Note_on_c, 3, 76, 65
3, 8731, Note_on_c, 3, 78, 65
3, 8732, Note_on_c, 3, 79, 0
3, 8748, Note_on_c, 3, 78, 0
3, 8758, Note_on_c, 3, 74, 65
3, 8759, Note_on_c, 3, 76, 0
3, 8761, Note_on_c, 3, 79, 65
3, 8779, Note_on_c, 3, 79, 0
3, 8779, Note_on_c, 3, 78, 65
3, 8788, Note_on_c, 3, 78, 0
3, 8790, Note_on_c, 3, 79, 65
3, 8801, Note_on_c, 3, 79, 0
3, 8802, Note_on_c, 3, 78, 65
3, 8810, Note_on_c, 3, 78, 0
3, 8811, Note_on_c, 3, 79, 65
3, 8821, Note_on_c, 3, 79, 0
3, 8821, Note_on_c, 3, 78, 65
3, 8828, Note_on_c, 3, 78, 0
3, 8830, Note_on_c, 3, 79, 65
3, 8836, Note_on_c, 3, 79, 0
3, 8838, Note_on_c, 3, 78, 65
3, 8844, Note_on_c, 3, 78, 0
3, 8845, Note_on_c, 3, 79, 65
3, 8851, Note_on_c, 3, 79, 0
3, 8853, Note_on_c, 3, 78, 65
3, 8856, Note_on_c, 3, 78, 0
3, 8856, Note_on_c, 3, 79, 65
3, 8867, Note_on_c, 3, 74, 0
3, 8867, Note_on_c, 3, 72, 65
3, 8873, Note_on_c, 3, 78, 65
3, 8877, Note_on_c, 3, 79, 0
3, 8929, Note_on_c, 3, 76, 65
3, 8930, Note_on_c, 3, 78, 0
3, 8961, Note_on_c, 3, 78, 65
3, 8964, Note_on_c, 3, 76, 0
3, 8992, Note_on_c, 3, 78, 0
3, 8994, Note_on_c, 3, 79, 65
3, 8994, Note_on_c, 3, 71, 65
3, 8995, Note_on_c, 3, 72, 0
3, 9043, Note_on_c, 3, 71, 0
3, 9060, Note_on_c, 3, 76, 65
3, 9180, Note_on_c, 3, 74, 65
3, 9181, Note_on_c, 3, 77, 65
3, 9182, Note_on_c, 3, 76, 0
3, 9184, Note_on_c, 3, 79, 0
3, 9244, Note_on_c, 3, 77, 0
3, 9245, Note_on_c, 3, 76, 65
3, 9305, Note_on_c, 3, 73, 65
3, 9308, Note_on_c, 3, 74, 0
3, 9369, Note_on_c, 3, 77, 65
3, 9369, Note_on_c, 3, 74, 65
3, 9370, Note_on_c, 3, 76, 0
3, 9370, Note_on_c, 3, 73, 0
3, 9423, Note_on_c, 3, 77, 0
3, 9423, Note_on_c, 3, 79, 65
3, 9449, Note_on_c, 3, 81, 65
3, 9453, Note_on_c, 3, 79, 0
3, 9459, Note_on_c, 3, 81, 0
3, 9479, Note_on_c, 3, 74, 0
3, 9483, Note_on_c, 3, 76, 65
3, 9505, Note_on_c, 3, 74, 65
3, 9506, Note_on_c, 3, 76, 0
3, 9517, Note_on_c, 3, 74, 0
3, 9519, Note_on_c, 3, 76, 65
3, 9532, Note_on_c, 3, 76, 0
3, 9534, Note_on_c, 3, 74, 65
3, 9539, Note_on_c, 3, 72, 65
3, 9544, Note_on_c, 3, 74, 0
3, 9545, Note_on_c, 3, 76, 65
3, 9556, Note_on_c, 3, 76, 0
3, 9558, Note_on_c, 3, 74, 65
3, 9566, Note_on_c, 3, 74, 0
3, 9568, Note_on_c, 3, 76, 65
3, 9577, Note_on_c, 3, 76, 0
3, 9578, Note_on_c, 3, 74, 65
3, 9586, Note_on_c, 3, 74, 0
3, 9587, Note_on_c, 3, 76, 65
3, 9594, Note_on_c, 3, 76, 0
3, 9595, Note_on_c, 3, 74, 65
3, 9600, Note_on_c, 3, 76, 65
3, 9602, Note_on_c, 3, 74, 0
3, 9608, Note_on_c, 3, 74, 65
3, 9610, Note_on_c, 3, 76, 0
3, 9657, Note_on_c, 3, 72, 0
3, 9657, Note_on_c, 3, 71, 65
3, 9757, Note_on_c, 3, 71, 0
3, 9776, Note_on_c, 3, 64, 65
3, 9835, Note_on_c, 3, 69, 65
3, 9837, Note_on_c, 3, 64, 0
3, 9839, Note_on_c, 3, 74, 0
3, 9896, Note_on_c, 3, 71, 65
3, 9899, Note_on_c, 3, 69, 0
3, 9959, Note_on_c, 3, 81, 65
3, 9960, Note_on_c, 3, 71, 0
3, 9960, Note_on_c, 3, 72, 65
3, 10018, Note_on_c, 3, 74, 65
3, 10019, Note_on_c, 3, 72, 0
3, 10077, Note_on_c, 3, 81, 0
3, 10078, Note_on_c, 3, 83, 65
3, 10079, Note_on_c, 3, 67, 65
3, 10083, Note_on_c, 3, 74, 0
3, 10113, Note_on_c, 3, 67, 0
3, 10140, Note_on_c, 3, 79, 65
3, 10169, Note_on_c, 3, 85, 65
3, 10172, Note_on_c, 3, 83, 0
3, 10184, Note_on_c, 3, 85, 0
3, 10198, Note_on_c, 3, 86, 65
3, 10228, Note_on_c, 3, 86, 0
3, 10228, Note_on_c, 3, 85, 65
3, 10238, Note_on_c, 3, 85, 0
3, 10241, Note_on_c, 3, 86, 65
3, 10243, Note_on_c, 3, 79, 0
3, 10250, Note_on_c, 3, 83, 65
3, 10251, Note_on_c, 3, 86, 0
3, 10251, Note_on_c, 3, 85, 65
3, 10260, Note_on_c, 3, 85, 0
3, 10264, Note_on_c, 3, 86, 65
3, 10271, Note_on_c, 3, 86, 0
3, 10272, Note_on_c, 3, 85, 65
3, 10280, Note_on_c, 3, 85, 0
3, 10282, Note_on_c, 3, 86, 65
3, 10291, Note_on_c, 3, 86, 0
3, 10292, Note_on_c, 3, 85, 65
3, 10300, Note_on_c, 3, 85, 0
3, 10300, Note_on_c, 3, 86, 65
3, 10308, Note_on_c, 3, 81, 65
3, 10311, Note_on_c, 3, 83, 0
3, 10321, Note_on_c, 3, 85, 65
3, 10323, Note_on_c, 3, 86, 0
3, 10329, Note_on_c, 3, 85, 0
3, 10329, Note_on_c, 3, 86, 65
3, 10346, Note_on_c, 3, 85, 65
3, 10347, Note_on_c, 3, 86, 0
3, 10367, Note_on_c, 3, 85, 0
3, 10367, Note_on_c, 3, 79, 65
3, 10368, Note_on_c, 3, 81, 0
3, 10368, Note_on_c, 3, 83, 65
3, 10395, Note_on_c, 3, 85, 65
3, 10396, Note_on_c, 3, 83, 0
3, 10425, Note_on_c, 3, 85, 0
3, 10427, Note_on_c, 3, 86, 65
3, 10429, Note_on_c, 3, 78, 65
3, 10432, Note_on_c, 3, 79, 0
3, 10469, Note_on_c, 3, 78, 0
3, 10504, Note_on_c, 3, 83, 65
3, 10622, Note_on_c, 3, 81, 65
3, 10622, Note_on_c, 3, 84, 65
3, 10623, Note_on_c, 3, 86, 0
3, 10626, Note_on_c, 3, 83, 0
3, 10689, Note_on_c, 3, 83, 65
3, 10690, Note_on_c, 3, 84, 0
3, 10743, Note_on_c, 3, 80, 65
3, 10745, Note_on_c, 3, 81, 0
3, 10800, Note_on_c, 3, 80, 0
3, 10801, Note_on_c, 3, 81, 65
3, 10801, Note_on_c, 3, 84, 65
3, 10802, Note_on_c, 3, 83, 0
3, 10858, Note_on_c, 3, 79, 65
3, 10859, Note_on_c, 3, 81, 0
3, 10860, Note_on_c, 3, 84, 0
3, 10860, Note_on_c, 3, 86, 65
3, 10890, Note_on_c, 3, 88, 65
3, 10893, Note_on_c, 3, 86, 0
3, 10903, Note_on_c, 3, 88, 0
3, 10920, Note_on_c, 3, 83, 65
3, 10933, Note_on_c, 3, 79, 0
3, 10939, Note_on_c, 3, 81, 65
3, 10940, Note_on_c, 3, 83, 0
3, 10951, Note_on_c, 3, 81, 0
3, 10952, Note_on_c, 3, 83, 65
3, 10964, Note_on_c, 3, 83, 0
3, 10966, Note_on_c, 3, 81, 65
3, 10974, Note_on_c, 3, 79, 65
3, 10975, Note_on_c, 3, 81, 0
3, 10977, Note_on_c, 3, 83, 65
3, 10988, Note_on_c, 3, 83, 0
3, 10990, Note_on_c, 3, 81, 65
3, 10999, Note_on_c, 3, 81, 0
3, 11000, Note_on_c, 3, 83, 65
3, 11010, Note_on_c, 3, 83, 0
3, 11011, Note_on_c, 3, 81, 65
3, 11019, Note_on_c, 3, 81, 0
3, 11021, Note_on_c, 3, 83, 65
3, 11028, Note_on_c, 3, 79, 0
3, 11028, Note_on_c, 3, 83, 0
3, 11029, Note_on_c, 3, 81, 65
3, 11029, Note_on_c, 3, 78, 65
3, 11034, Note_on_c, 3, 83, 65
3, 11037, Note_on_c, 3, 81, 0
3, 11043, Note_on_c, 3, 81, 65
3, 11045, Note_on_c, 3, 83, 0
3, 11091, Note_on_c, 3, 81, 0
3, 11092, Note_on_c, 3, 79, 65
3, 11120, Note_on_c, 3, 79, 0
3, 11120, Note_on_c, 3, 81, 65
3, 11153, Note_on_c, 3, 81, 0
3, 11154, Note_on_c, 3, 79, 65
3, 11155, Note_on_c, 3, 78, 0
3, 11220, Note_on_c, 3, 74, 65
3, 11223, Note_on_c, 3, 79, 0
3, 11281, Note_on_c, 3, 76, 65
3, 11282, Note_on_c, 3, 74, 0
3, 11402, Note_on_c, 3, 74, 65
3, 11406, Note_on_c, 3, 76, 0
3, 11487, Note_on_c, 3, 76, 65
3, 11488, Note_on_c, 3, 74, 0
3, 11506, Note_on_c, 3, 72, 65
3, 11508, Note_on_c, 3, 76, 0
3, 11530, Note_on_c, 3, 71, 65
3, 11531, Note_on_c, 3, 86, 65
3, 11532, Note_on_c, 3, 72, 0
3, 11552, Note_on_c, 3, 71, 0
3, 11591, Note_on_c, 3, 83, 65
3, 11648, Note_on_c, 3, 88, 65
3, 11650, Note_on_c, 3, 86, 0
3, 11701, Note_on_c, 3, 81, 65
3, 11703, Note_on_c, 3, 83, 0
3, 11731, Note_on_c, 3, 83, 65
3, 11735, Note_on_c, 3, 81, 0
3, 11748, Note_on_c, 3, 84, 65
3, 11749, Note_on_c, 3, 83, 0
3, 11765, Note_on_c, 3, 88, 0
3, 11767, Note_on_c, 3, 86, 65
3, 11768, Note_on_c, 3, 84, 0
3, 11768, Note_on_c, 3, 83, 65
3, 11821, Note_on_c, 3, 83, 0
3, 11821, Note_on_c, 3, 81, 65
3, 11846, Note_on_c, 3, 88, 65
3, 11848, Note_on_c, 3, 86, 0
3, 11860, Note_on_c, 3, 84, 65
3, 11862, Note_on_c, 3, 88, 0
3, 11880, Note_on_c, 3, 84, 0
3, 11880, Note_on_c, 3, 83, 65
3, 11940, Note_on_c, 3, 79, 65
3, 11943, Note_on_c, 3, 81, 0
3, 11998, Note_on_c, 3, 78, 65
3, 12002, Note_on_c, 3, 79, 0
3, 12055, Note_on_c, 3, 76, 65
3, 12056, Note_on_c, 3, 83, 0
3, 12056, Note_on_c, 3, 84, 65
3, 12058, Note_on_c, 3, 78, 0
3, 12118, Note_on_c, 3, 74, 65
3, 12119, Note_on_c, 3, 86, 65
3, 12120, Note_on_c, 3, 84, 0
3, 12122, Note_on_c, 3, 76, 0
3, 12238, Note_on_c, 3, 76, 65
3, 12240, Note_on_c, 3, 74, 0
3, 12326, Note_on_c, 3, 78, 65
3, 12330, Note_on_c, 3, 76, 0
3, 12352, Note_on_c, 3, 78, 0
3, 12354, Note_on_c, 3, 79, 65
3, 12356, Note_on_c, 3, 84, 65
3, 12359, Note_on_c, 3, 86, 0
3, 12370, Note_on_c, 3, 79, 0
3, 12370, Note_on_c, 3, 78, 65
3, 12380, Note_on_c, 3, 78, 0
3, 12384, Note_on_c, 3, 79, 65
3, 12393, Note_on_c, 3, 79, 0
3, 12394, Note_on_c, 3, 78, 65
3, 12403, Note_on_c, 3, 78, 0
3, 12407, Note_on_c, 3, 79, 65
3, 12413, Note_on_c, 3, 84, 0
3, 12413, Note_on_c, 3, 83, 65
3, 12416, Note_on_c, 3, 79, 0
3, 12417, Note_on_c, 3, 78, 65
3, 12425, Note_on_c, 3, 78, 0
3, 12428, Note_on_c, 3, 79, 65
3, 12438, Note_on_c, 3, 79, 0
3, 12439, Note_on_c, 3, 78, 65
3, 12448, Note_on_c, 3, 78, 0
3, 12451, Note_on_c, 3, 79, 65
3, 12459, Note_on_c, 3, 79, 0
3, 12460, Note_on_c, 3, 78, 65
3, 12468, Note_on_c, 3, 78, 0
3, 12471, Note_on_c, 3, 79, 65
3, 12472, Note_on_c, 3, 84, 65
3, 12473, Note_on_c, 3, 83, 0
3, 12479, Note_on_c, 3, 78, 65
3, 12480, Note_on_c, 3, 79, 0
3, 12488, Note_on_c, 3, 78, 0
3, 12490, Note_on_c, 3, 79, 65
3, 12500, Note_on_c, 3, 78, 65
3, 12501, Note_on_c, 3, 79, 0
3, 12527, Note_on_c, 3, 78, 0
3, 12528, Note_on_c, 3, 86, 65
3, 12529, Note_on_c, 3, 84, 0
3, 12529, Note_on_c, 3, 76, 65
3, 12556, Note_on_c, 3, 78, 65
3, 12559, Note_on_c, 3, 76, 0
3, 12595, Note_on_c, 3, 86, 0
3, 12595, Note_on_c, 3, 78, 0
3, 12595, Note_on_c, 3, 83, 65
3, 12596, Note_on_c, 3, 79, 65
3, 12650, Note_on_c, 3, 83, 0
3, 12667, Note_on_c, 3, 86, 65
3, 12725, Note_on_c, 3, 88, 65
3, 12727, Note_on_c, 3, 86, 0
3, 12732, Note_on_c, 3, 79, 0
3, 12783, Note_on_c, 3, 81, 65
3, 12784, Note_on_c, 3, 88, 0
3, 12784, Note_on_c, 3, 84, 65
3, 12818, Note_on_c, 3, 81, 0
3, 12848, Note_on_c, 3, 84, 0
3, 12848, Note_on_c, 3, 81, 65
3, 12851, Note_on_c, 3, 78, 65
3, 12905, Note_on_c, 3, 83, 65
3, 12908, Note_on_c, 3, 81, 0
3, 12932, Note_on_c, 3, 84, 65
3, 12933, Note_on_c, 3, 83, 0
3, 12965, Note_on_c, 3, 84, 0
3, 12965, Note_on_c, 3, 83, 65
3, 12966, Note_on_c, 3, 79, 65
3, 12968, Note_on_c, 3, 78, 0
3, 13051, Note_on_c, 3, 85, 65
3, 13054, Note_on_c, 3, 83, 0
3, 13066, Note_on_c, 3, 85, 0
3, 13079, Note_on_c, 3, 86, 65
3, 13079, Note_on_c, 3, 76, 65
3, 13083, Note_on_c, 3, 79, 0
3, 13092, Note_on_c, 3, 86, 0
3, 13093, Note_on_c, 3, 85, 65
3, 13101, Note_on_c, 3, 85, 0
3, 13104, Note_on_c, 3, 86, 65
3, 13114, Note_on_c, 3, 86, 0
3, 13115, Note_on_c, 3, 85, 65
3, 13123, Note_on_c, 3, 85, 0
3, 13125, Note_on_c, 3, 86, 65
3, 13133, Note_on_c, 3, 86, 0
3, 13135, Note_on_c, 3, 85, 65
3, 13141, Note_on_c, 3, 85, 0
3, 13143, Note_on_c, 3, 86, 65
3, 13152, Note_on_c, 3, 86, 0
3, 13153, Note_on_c, 3, 85, 65
3, 13159, Note_on_c, 3, 85, 0
3, 13161, Note_on_c, 3, 86, 65
3, 13168, Note_on_c, 3, 86, 0
3, 13169, Note_on_c, 3, 85, 65
3, 13173, Note_on_c, 3, 85, 0
3, 13174, Note_on_c, 3, 86, 65
3, 13182, Note_on_c, 3, 85, 65
3, 13189, Note_on_c, 3, 85, 0
3, 13196, Note_on_c, 3, 85, 65
3, 13198, Note_on_c, 3, 86, 0
3, 13243, Note_on_c, 3, 85, 0
3, 13243, Note_on_c, 3, 83, 65
3, 13275, Note_on_c, 3, 85, 65
3, 13277, Note_on_c, 3, 83, 0
3, 13306, Note_on_c, 3, 86, 65
3, 13308, Note_on_c, 3, 74, 65
3, 13310, Note_on_c, 3, 85, 0
3, 13311, Note_on_c, 3, 76, 0
3, 13370, Note_on_c, 3, 76, 65
3, 13371, Note_on_c, 3, 74, 0
3, 13430, Note_on_c, 3, 78, 65
3, 13436, Note_on_c, 3, 76, 0
3, 13490, Note_on_c, 3, 84, 65
3, 13492, Note_on_c, 3, 86, 0
3, 13550, Note_on_c, 3, 84, 0
3, 13552, Note_on_c, 3, 83, 65
3, 13553, Note_on_c, 3, 80, 65
3, 13554, Note_on_c, 3, 78, 0
3, 13637, Note_on_c, 3, 80, 0
3, 13679, Note_on_c, 3, 84, 65
3, 13679, Note_on_c, 3, 81, 65
3, 13680, Note_on_c, 3, 83, 0
3, 13735, Note_on_c, 3, 81, 0
3, 13737, Note_on_c, 3, 86, 65
3, 13738, Note_on_c, 3, 84, 0
3, 13738, Note_on_c, 3, 79, 65
3, 13764, Note_on_c, 3, 88, 65
3, 13768, Note_on_c, 3, 86, 0
3, 13777, Note_on_c, 3, 88, 0
3, 13800, Note_on_c, 3, 83, 65
3, 13813, Note_on_c, 3, 79, 0
3, 13821, Note_on_c, 3, 81, 65
3, 13823, Note_on_c, 3, 83, 0
3, 13834, Note_on_c, 3, 81, 0
3, 13835, Note_on_c, 3, 83, 65
3, 13845, Note_on_c, 3, 83, 0
3, 13846, Note_on_c, 3, 81, 65
3, 13855, Note_on_c, 3, 83, 65
3, 13856, Note_on_c, 3, 81, 0
3, 13857, Note_on_c, 3, 79, 65
3, 13865, Note_on_c, 3, 83, 0
3, 13866, Note_on_c, 3, 81, 65
3, 13873, Note_on_c, 3, 81, 0
3, 13873, Note_on_c, 3, 83, 65
3, 13881, Note_on_c, 3, 83, 0
3, 13881, Note_on_c, 3, 81, 65
3, 13886, Note_on_c, 3, 83, 65
3, 13887, Note_on_c, 3, 81, 0
3, 13892, Note_on_c, 3, 81, 65
3, 13893, Note_on_c, 3, 83, 0
3, 13917, Note_on_c, 3, 78, 65
3, 13918, Note_on_c, 3, 79, 0
3, 13985, Note_on_c, 3, 81, 0
3, 13985, Note_on_c, 3, 79, 65
3, 14014, Note_on_c, 3, 81, 65
3, 14020, Note_on_c, 3, 79, 0
3, 14042, Note_on_c, 3, 81, 0
3, 14047, Note_on_c, 3, 78, 0
3, 14048, Note_on_c, 3, 79, 65
3, 14103, Note_on_c, 3, 76, 65
3, 14106, Note_on_c, 3, 79, 0
3, 14134, Note_on_c, 3, 78, 65
3, 14135, Note_on_c, 3, 76, 0
3, 14163, Note_on_c, 3, 78, 0
3, 14164, Note_on_c, 3, 79, 65
3, 14221, Note_on_c, 3, 83, 65
3, 14225, Note_on_c, 3, 79, 0
3, 14279, Note_on_c, 3, 83, 0
3, 14280, Note_on_c, 3, 81, 65
3, 14367, Note_on_c, 3, 83, 65
3, 14370, Note_on_c, 3, 81, 0
3, 14383, Note_on_c, 3, 79, 65
3, 14384, Note_on_c, 3, 83, 0
3, 14405, Note_on_c, 3, 79, 0
3, 14405, Note_on_c, 3, 78, 65
3, 14581, Note_on_c, 3, 78, 0
3, 14581, Note_on_c, 3, 79, 65
3, 14643, Note_on_c, 3, 81, 65
3, 14646, Note_on_c, 3, 79, 0
3, 14879, Note_on_c, 3, 79, 65
3, 14883, Note_on_c, 3, 81, 0
3, 14942, Note_on_c, 3, 78, 65
3, 14943, Note_on_c, 3, 79, 0
3, 15002, Note_on_c, 3, 79, 65
3, 15003, Note_on_c, 3, 78, 0
3, 15064, Note_on_c, 3, 81, 65
3, 15065, Note_on_c, 3, 79, 0
3, 15125, Note_on_c, 3, 78, 65
3, 15130, Note_on_c, 3, 81, 0
3, 15159, Note_on_c, 3, 78, 0
3, 15190, Note_on_c, 3, 81, 65
3, 15304, Note_on_c, 3, 79, 65
3, 15308, Note_on_c, 3, 81, 0
3, 15368, Note_on_c, 3, 93, 65
3, 15425, Note_on_c, 3, 79, 0
3, 15425, Note_on_c, 3, 78, 65
3, 15475, Note_on_c, 3, 93, 0
3, 15487, Note_on_c, 3, 95, 65
3, 15544, Note_on_c, 3, 78, 0
3, 15544, Note_on_c, 3, 76, 65
3, 15603, Note_on_c, 3, 93, 65
3, 15604, Note_on_c, 3, 95, 0
3, 15659, Note_on_c, 3, 74, 65
3, 15661, Note_on_c, 3, 76, 0
3, 15723, Note_on_c, 3, 93, 0
3, 15723, Note_on_c, 3, 91, 65
3, 15782, Note_on_c, 3, 73, 65
3, 15783, Note_on_c, 3, 74, 0
3, 15846, Note_on_c, 3, 73, 0
3, 15846, Note_on_c, 3, 90, 65
3, 15847, Note_on_c, 3, 74, 65
3, 15849, Note_on_c, 3, 91, 0
3, 15869, Note_on_c, 3, 74, 0
3, 15913, Note_on_c, 3, 86, 65
3, 16025, Note_on_c, 3, 91, 65
3, 16026, Note_on_c, 3, 90, 0
3, 16026, Note_on_c, 3, 84, 65
3, 16029, Note_on_c, 3, 86, 0
3, 16088, Note_on_c, 3, 83, 65
3, 16088, Note_on_c, 3, 93, 65
3, 16089, Note_on_c, 3, 91, 0
3, 16092, Note_on_c, 3, 84, 0
3, 16145, Note_on_c, 3, 81, 65
3, 16148, Note_on_c, 3, 83, 0
3, 16206, Note_on_c, 3, 83, 65
3, 16210, Note_on_c, 3, 81, 0
3, 16322, Note_on_c, 3, 93, 0
3, 16323, Note_on_c, 3, 91, 65
3, 16386, Note_on_c, 3, 91, 0
3, 16386, Note_on_c, 3, 90, 65
3, 16445, Note_on_c, 3, 81, 65
3, 16447, Note_on_c, 3, 91, 65
3, 16448, Note_on_c, 3, 90, 0
3, 16449, Note_on_c, 3, 83, 0
3, 16503, Note_on_c, 3, 91, 0
3, 16503, Note_on_c, 3, 93, 65
3, 16559, Note_on_c, 3, 90, 65
3, 16561, Note_on_c, 3, 93, 0
3, 16616, Note_on_c, 3, 90, 0
3, 16617, Note_on_c, 3, 86, 65
3, 16645, Note_on_c, 3, 88, 65
3, 16646, Note_on_c, 3, 86, 0
3, 16677, Note_on_c, 3, 90, 65
3, 16680, Note_on_c, 3, 88, 0
3, 16682, Note_on_c, 3, 81, 0
3, 16796, Note_on_c, 3, 92, 65
3, 16798, Note_on_c, 3, 90, 0
3, 16922, Note_on_c, 3, 92, 0
3, 16922, Note_on_c, 3, 93, 65
3, 16984, Note_on_c, 3, 90, 65
3, 17037, Note_on_c, 3, 91, 65
3, 17038, Note_on_c, 3, 90, 0
3, 17038, Note_on_c, 3, 88, 65
3, 17043, Note_on_c, 3, 93, 0
3, 17116, Note_on_c, 3, 90, 65
3, 17121, Note_on_c, 3, 91, 0
3, 17221, Note_on_c, 3, 87, 65
3, 17223, Note_on_c, 3, 88, 0
3, 17282, Note_on_c, 3, 90, 0
3, 17283, Note_on_c, 3, 91, 65
3, 17284, Note_on_c, 3, 88, 65
3, 17285, Note_on_c, 3, 87, 0
3, 17364, Note_on_c, 3, 93, 65
3, 17366, Note_on_c, 3, 91, 0
3, 17378, Note_on_c, 3, 93, 0
3, 17400, Note_on_c, 3, 91, 65
3, 17423, Note_on_c, 3, 91, 0
3, 17423, Note_on_c, 3, 90, 65
3, 17433, Note_on_c, 3, 90, 0
3, 17436, Note_on_c, 3, 91, 65
3, 17445, Note_on_c, 3, 91, 0
3, 17448, Note_on_c, 3, 90, 65
3, 17455, Note_on_c, 3, 90, 0
3, 17457, Note_on_c, 3, 91, 65
3, 17465, Note_on_c, 3, 91, 0
3, 17466, Note_on_c, 3, 90, 65
3, 17472, Note_on_c, 3, 91, 65
3, 17473, Note_on_c, 3, 90, 0
3, 17490, Note_on_c, 3, 90, 65
3, 17494, Note_on_c, 3, 91, 0
3, 17519, Note_on_c, 3, 88, 0
3, 17520, Note_on_c, 3, 87, 65
3, 17577, Note_on_c, 3, 90, 0
3, 17578, Note_on_c, 3, 88, 65
3, 17604, Note_on_c, 3, 90, 65
3, 17605, Note_on_c, 3, 88, 0
3, 17631, Note_on_c, 3, 87, 0
3, 17636, Note_on_c, 3, 90, 0
3, 17636, Note_on_c, 3, 88, 65
3, 17670, Note_on_c, 3, 88, 0
3, 17670, Note_on_c, 3, 83, 65
3, 17703, Note_on_c, 3, 88, 65
3, 17703, Note_on_c, 3, 80, 65
3, 17705, Note_on_c, 3, 83, 0
3, 17763, Note_on_c, 3, 80, 0
3, 17764, Note_on_c, 3, 81, 65
3, 17825, Note_on_c, 3, 86, 65
3, 17829, Note_on_c, 3, 88, 0
3, 17885, Note_on_c, 3, 83, 65
3, 17886, Note_on_c, 3, 81, 0
3, 17942, Note_on_c, 3, 85, 65
3, 17945, Note_on_c, 3, 86, 0
3, 17968, Note_on_c, 3, 85, 0
3, 17998, Note_on_c, 3, 83, 0
3, 18003, Note_on_c, 3, 85, 65
3, 18062, Note_on_c, 3, 76, 65
3, 18122, Note_on_c, 3, 81, 65
3, 18126, Note_on_c, 3, 76, 0
3, 18182, Note_on_c, 3, 87, 65
3, 18183, Note_on_c, 3, 85, 0
3, 18212, Note_on_c, 3, 88, 65
3, 18214, Note_on_c, 3, 87, 0
3, 18243, Note_on_c, 3, 88, 0
3, 18244, Note_on_c, 3, 87, 65
3, 18303, Note_on_c, 3, 83, 65
3, 18304, Note_on_c, 3, 81, 0
3, 18334, Note_on_c, 3, 83, 0
3, 18334, Note_on_c, 3, 84, 65
3, 18364, Note_on_c, 3, 84, 0
3, 18366, Note_on_c, 3, 83, 65
3, 18368, Note_on_c, 3, 88, 65
3, 18375, Note_on_c, 3, 87, 0
3, 18397, Note_on_c, 3, 91, 65
3, 18398, Note_on_c, 3, 88, 0
3, 18424, Note_on_c, 3, 91, 0
3, 18424, Note_on_c, 3, 90, 65
3, 18449, Note_on_c, 3, 90, 0
3, 18450, Note_on_c, 3, 88, 65
3, 18478, Note_on_c, 3, 88, 0
3, 18480, Note_on_c, 3, 84, 65
3, 18480, Note_on_c, 3, 93, 65
3, 18483, Note_on_c, 3, 83, 0
3, 18537, Note_on_c, 3, 90, 65
3, 18540, Note_on_c, 3, 93, 0
3, 18594, Note_on_c, 3, 90, 0
3, 18594, Note_on_c, 3, 87, 65
3, 18596, Note_on_c, 3, 83, 65
3, 18598, Note_on_c, 3, 84, 0
3, 18677, Note_on_c, 3, 84, 65
3, 18679, Note_on_c, 3, 83, 0
3, 18691, Note_on_c, 3, 81, 65
3, 18693, Note_on_c, 3, 84, 0
3, 18705, Note_on_c, 3, 87, 0
3, 18725, Note_on_c, 3, 88, 65
3, 18727, Note_on_c, 3, 80, 65
3, 18729, Note_on_c, 3, 81, 0
3, 18842, Note_on_c, 3, 88, 0
3, 18843, Note_on_c, 3, 89, 65
3, 18898, Note_on_c, 3, 81, 65
3, 18899, Note_on_c, 3, 80, 0
3, 18960, Note_on_c, 3, 88, 65
3, 18961, Note_on_c, 3, 89, 0
3, 18961, Note_on_c, 3, 81, 0
3, 18961, Note_on_c, 3, 83, 65
3, 19040, Note_on_c, 3, 88, 0
3, 19041, Note_on_c, 3, 89, 65
3, 19057, Note_on_c, 3, 86, 65
3, 19062, Note_on_c, 3, 89, 0
3, 19078, Note_on_c, 3, 86, 0
3, 19085, Note_on_c, 3, 85, 65
3, 19201, Note_on_c, 3, 83, 0
3, 19202, Note_on_c, 3, 81, 65
3, 19253, Note_on_c, 3, 78, 65
3, 19256, Note_on_c, 3, 86, 65
3, 19260, Note_on_c, 3, 81, 0
3, 19265, Note_on_c, 3, 85, 0
3, 19311, Note_on_c, 3, 78, 0
3, 19312, Note_on_c, 3, 86, 0
3, 19312, Note_on_c, 3, 88, 65
3, 19322, Note_on_c, 3, 79, 65
3, 19377, Note_on_c, 3, 79, 0
3, 19379, Note_on_c, 3, 81, 65
3, 19439, Note_on_c, 3, 78, 65
3, 19441, Note_on_c, 3, 81, 0
3, 19552, Note_on_c, 3, 88, 0
3, 19561, Note_on_c, 3, 86, 65
3, 19562, Note_on_c, 3, 81, 65
3, 19564, Note_on_c, 3, 78, 0
3, 19618, Note_on_c, 3, 86, 0
3, 19619, Note_on_c, 3, 84, 65
3, 19679, Note_on_c, 3, 80, 65
3, 19680, Note_on_c, 3, 81, 0
3, 19681, Note_on_c, 3, 86, 65
3, 19683, Note_on_c, 3, 84, 0
3, 19737, Note_on_c, 3, 86, 0
3, 19739, Note_on_c, 3, 88, 65
3, 19760, Note_on_c, 3, 80, 0
3, 19762, Note_on_c, 3, 81, 65
3, 19777, Note_on_c, 3, 77, 65
3, 19782, Note_on_c, 3, 81, 0
3, 19797, Note_on_c, 3, 77, 0
3, 19798, Note_on_c, 3, 88, 0
3, 19798, Note_on_c, 3, 76, 65
3, 19798, Note_on_c, 3, 84, 65
3, 19858, Note_on_c, 3, 85, 65
3, 19859, Note_on_c, 3, 84, 0
3, 19976, Note_on_c, 3, 77, 65
3, 19977, Note_on_c, 3, 76, 0
3, 19978, Note_on_c, 3, 85, 0
3, 19978, Note_on_c, 3, 86, 65
3, 20041, Note_on_c, 3, 88, 65
3, 20042, Note_on_c, 3, 79, 65
3, 20043, Note_on_c, 3, 77, 0
3, 20044, Note_on_c, 3, 86, 0
3, 20223, Note_on_c, 3, 81, 65
3, 20224, Note_on_c, 3, 88, 0
3, 20283, Note_on_c, 3, 79, 0
3, 20284, Note_on_c, 3, 77, 65
3, 20285, Note_on_c, 3, 86, 65
3, 20287, Note_on_c, 3, 81, 0
3, 20346, Note_on_c, 3, 77, 0
3, 20346, Note_on_c, 3, 76, 65
3, 20401, Note_on_c, 3, 77, 65
3, 20405, Note_on_c, 3, 76, 0
3, 20448, Note_on_c, 3, 86, 0
3, 20461, Note_on_c, 3, 79, 65
3, 20462, Note_on_c, 3, 77, 0
3, 20521, Note_on_c, 3, 88, 65
3, 20524, Note_on_c, 3, 76, 65
3, 20529, Note_on_c, 3, 79, 0
3, 20586, Note_on_c, 3, 81, 65
3, 20588, Note_on_c, 3, 76, 0
3, 20644, Note_on_c, 3, 89, 65
3, 20646, Note_on_c, 3, 88, 0
3, 20654, Note_on_c, 3, 81, 0
3, 20705, Note_on_c, 3, 81, 65
3, 20769, Note_on_c, 3, 88, 65
3, 20770, Note_on_c, 3, 80, 65
3, 20771, Note_on_c, 3, 89, 0
3, 20775, Note_on_c, 3, 81, 0
3, 20848, Note_on_c, 3, 89, 65
3, 20849, Note_on_c, 3, 88, 0
3, 20864, Note_on_c, 3, 86, 65
3, 20865, Note_on_c, 3, 89, 0
3, 20886, Note_on_c, 3, 84, 65
3, 20887, Note_on_c, 3, 80, 0
3, 20887, Note_on_c, 3, 81, 65
3, 20888, Note_on_c, 3, 86, 0
3, 20944, Note_on_c, 3, 81, 0
3, 20944, Note_on_c, 3, 76, 65
3, 21001, Note_on_c, 3, 81, 65
3, 21003, Note_on_c, 3, 76, 0
3, 21061, Note_on_c, 3, 86, 65
3, 21062, Note_on_c, 3, 84, 0
3, 21062, Note_on_c, 3, 79, 65
3, 21067, Note_on_c, 3, 81, 0
3, 21127, Note_on_c, 3, 77, 65
3, 21127, Note_on_c, 3, 88, 65
3, 21128, Note_on_c, 3, 86, 0
3, 21131, Note_on_c, 3, 79, 0
3, 21186, Note_on_c, 3, 76, 65
3, 21188, Note_on_c, 3, 77, 0
3, 21250, Note_on_c, 3, 78, 85
3, 21252, Note_on_c, 3, 76, 0
3, 21335, Note_on_c, 3, 80, 72
3, 21338, Note_on_c, 3, 78, 0
3, 21359, Note_on_c, 3, 80, 0
3, 21359, Note_on_c, 3, 81, 63
3, 21362, Note_on_c, 3, 88, 0
3, 21365, Note_on_c, 3, 86, 76
3, 21375, Note_on_c, 3, 80, 75
3, 21377, Note_on_c, 3, 81, 0
3, 21388, Note_on_c, 3, 80, 0
3, 21390, Note_on_c, 3, 81, 58
3, 21402, Note_on_c, 3, 80, 73
3, 21403, Note_on_c, 3, 81, 0
3, 21411, Note_on_c, 3, 86, 0
3, 21412, Note_on_c, 3, 84, 65
3, 21415, Note_on_c, 3, 80, 0
3, 21417, Note_on_c, 3, 81, 50
3, 21428, Note_on_c, 3, 80, 72
3, 21429, Note_on_c, 3, 81, 0
3, 21443, Note_on_c, 3, 81, 43
3, 21444, Note_on_c, 3, 80, 0
3, 21456, Note_on_c, 3, 80, 75
3, 21457, Note_on_c, 3, 81, 0
3, 21467, Note_on_c, 3, 84, 0
3, 21468, Note_on_c, 3, 80, 0
3, 21468, Note_on_c, 3, 86, 60
3, 21469, Note_on_c, 3, 81, 50
3, 21478, Note_on_c, 3, 80, 73
3, 21480, Note_on_c, 3, 81, 0
3, 21524, Note_on_c, 3, 86, 0
3, 21525, Note_on_c, 3, 88, 63
3, 21526, Note_on_c, 3, 78, 75
3, 21527, Note_on_c, 3, 80, 0
3, 21555, Note_on_c, 3, 80, 76
3, 21558, Note_on_c, 3, 78, 0
3, 21589, Note_on_c, 3, 80, 0
3, 21590, Note_on_c, 3, 81, 67
3, 21591, Note_on_c, 3, 88, 0
3, 21591, Note_on_c, 3, 84, 84
3, 21753, Note_on_c, 3, 81, 0
3, 21759, Note_on_c, 3, 84, 0
3, 21770, Note_on_c, 3, 83, 72
3, 21798, Note_on_c, 3, 81, 57
3, 21800, Note_on_c, 3, 83, 0
3, 21830, Note_on_c, 3, 79, 72
3, 21831, Note_on_c, 3, 81, 0
3, 21861, Note_on_c, 3, 81, 53
3, 21864, Note_on_c, 3, 79, 0
3, 21891, Note_on_c, 3, 81, 0
3, 21892, Note_on_c, 3, 78, 79
3, 21945, Note_on_c, 3, 78, 0
3, 21961, Note_on_c, 3, 83, 65
3, 21962, Note_on_c, 3, 76, 65
3, 21992, Note_on_c, 3, 78, 65
3, 21995, Note_on_c, 3, 76, 0
3, 22022, Note_on_c, 3, 78, 0
3, 22027, Note_on_c, 3, 79, 65
3, 22083, Note_on_c, 3, 83, 0
3, 22084, Note_on_c, 3, 84, 65
3, 22139, Note_on_c, 3, 78, 65
3, 22141, Note_on_c, 3, 79, 0
3, 22165, Note_on_c, 3, 86, 65
3, 22166, Note_on_c, 3, 84, 0
3, 22183, Note_on_c, 3, 86, 0
3, 22197, Note_on_c, 3, 88, 65
3, 22214, Note_on_c, 3, 88, 0
3, 22214, Note_on_c, 3, 86, 65
3, 22224, Note_on_c, 3, 86, 0
3, 22226, Note_on_c, 3, 78, 0
3, 22226, Note_on_c, 3, 88, 65
3, 22236, Note_on_c, 3, 88, 0
3, 22237, Note_on_c, 3, 86, 65
3, 22244, Note_on_c, 3, 86, 0
3, 22246, Note_on_c, 3, 88, 65
3, 22252, Note_on_c, 3, 81, 65
3, 22253, Note_on_c, 3, 88, 0
3, 22253, Note_on_c, 3, 86, 65
3, 22259, Note_on_c, 3, 88, 65
3, 22260, Note_on_c, 3, 86, 0
3, 22268, Note_on_c, 3, 86, 65
3, 22269, Note_on_c, 3, 88, 0
3, 22284, Note_on_c, 3, 86, 0
3, 22285, Note_on_c, 3, 84, 65
3, 22295, Note_on_c, 3, 84, 0
3, 22297, Note_on_c, 3, 86, 65
3, 22315, Note_on_c, 3, 86, 0
3, 22317, Note_on_c, 3, 88, 65
3, 22318, Note_on_c, 3, 80, 65
3, 22319, Note_on_c, 3, 81, 0
3, 22376, Note_on_c, 3, 80, 0
3, 22379, Note_on_c, 3, 81, 65
3, 22435, Note_on_c, 3, 83, 65
3, 22436, Note_on_c, 3, 81, 0
3, 22499, Note_on_c, 3, 86, 65
3, 22504, Note_on_c, 3, 88, 0
3, 22564, Note_on_c, 3, 86, 0
3, 22564, Note_on_c, 3, 84, 65
3, 22579, Note_on_c, 3, 83, 0
3, 22627, Note_on_c, 3, 76, 65
3, 22653, Note_on_c, 3, 76, 0
3, 22687, Note_on_c, 3, 81, 65
3, 22773, Note_on_c, 3, 86, 65
3, 22777, Note_on_c, 3, 84, 0
3, 22786, Note_on_c, 3, 86, 0
3, 22802, Note_on_c, 3, 84, 65
3, 22815, Note_on_c, 3, 81, 0
3, 22818, Note_on_c, 3, 84, 0
3, 22818, Note_on_c, 3, 83, 65
3, 22829, Note_on_c, 3, 83, 0
3, 22831, Note_on_c, 3, 84, 65
3, 22841, Note_on_c, 3, 84, 0
3, 22842, Note_on_c, 3, 83, 65
3, 22850, Note_on_c, 3, 83, 0
3, 22853, Note_on_c, 3, 84, 65
3, 22857, Note_on_c, 3, 81, 65
3, 22864, Note_on_c, 3, 84, 0
3, 22866, Note_on_c, 3, 83, 65
3, 22872, Note_on_c, 3, 83, 0
3, 22875, Note_on_c, 3, 84, 65
3, 22885, Note_on_c, 3, 84, 0
3, 22885, Note_on_c, 3, 83, 65
3, 22894, Note_on_c, 3, 83, 0
3, 22895, Note_on_c, 3, 84, 65
3, 22900, Note_on_c, 3, 84, 0
3, 22901, Note_on_c, 3, 81, 0
3, 22902, Note_on_c, 3, 83, 65
3, 22906, Note_on_c, 3, 84, 65
3, 22908, Note_on_c, 3, 83, 0
3, 22912, Note_on_c, 3, 80, 65
3, 22915, Note_on_c, 3, 83, 65
3, 22920, Note_on_c, 3, 84, 0
3, 22972, Note_on_c, 3, 83, 0
3, 22972, Note_on_c, 3, 81, 65
3, 22999, Note_on_c, 3, 81, 0
3, 23000, Note_on_c, 3, 83, 65
3, 23022, Note_on_c, 3, 83, 0
3, 23034, Note_on_c, 3, 80, 0
3, 23036, Note_on_c, 3, 81, 65
3, 23101, Note_on_c, 3, 88, 65
3, 23157, Note_on_c, 3, 84, 65
3, 23160, Note_on_c, 3, 81, 0
3, 23217, Note_on_c, 3, 89, 65
3, 23220, Note_on_c, 3, 88, 0
3, 23247, Note_on_c, 3, 91, 65
3, 23249, Note_on_c, 3, 89, 0
3, 23252, Note_on_c, 3, 84, 0
3, 23276, Note_on_c, 3, 91, 0
3, 23282, Note_on_c, 3, 83, 65
3, 23282, Note_on_c, 3, 93, 65
3, 23341, Note_on_c, 3, 83, 0
3, 23341, Note_on_c, 3, 84, 65
3, 23369, Note_on_c, 3, 81, 65
3, 23372, Note_on_c, 3, 84, 0
3, 23382, Note_on_c, 3, 93, 0
3, 23402, Note_on_c, 3, 86, 65
3, 23404, Note_on_c, 3, 81, 0
3, 23404, Note_on_c, 3, 79, 65
3, 23461, Note_on_c, 3, 83, 65
3, 23462, Note_on_c, 3, 79, 0
3, 23521, Note_on_c, 3, 76, 65
3, 23521, Note_on_c, 3, 88, 65
3, 23523, Note_on_c, 3, 83, 0
3, 23524, Note_on_c, 3, 86, 0
3, 23584, Note_on_c, 3, 79, 65
3, 23585, Note_on_c, 3, 76, 0
3, 23642, Note_on_c, 3, 86, 65
3, 23643, Note_on_c, 3, 88, 0
3, 23698, Note_on_c, 3, 78, 65
3, 23699, Note_on_c, 3, 79, 0
3, 23717, Note_on_c, 3, 86, 0
3, 23717, Note_on_c, 3, 88, 65
3, 23730, Note_on_c, 3, 88, 0
3, 23730, Note_on_c, 3, 84, 65
3, 23750, Note_on_c, 3, 84, 0
3, 23760, Note_on_c, 3, 83, 65
3, 23761, Note_on_c, 3, 78, 0
3, 23761, Note_on_c, 3, 79, 65
3, 23942, Note_on_c, 3, 83, 0
3, 23942, Note_on_c, 3, 85, 65
3, 23943, Note_on_c, 3, 79, 0
3, 24003, Note_on_c, 3, 85, 0
3, 24003, Note_on_c, 3, 86, 65
3, 24121, Note_on_c, 3, 81, 65
3, 24242, Note_on_c, 3, 82, 65
3, 24245, Note_on_c, 3, 81, 0
3, 24299, Note_on_c, 3, 86, 0
3, 24300, Note_on_c, 3, 88, 65
3, 24360, Note_on_c, 3, 85, 65
3, 24361, Note_on_c, 3, 88, 0
3, 24361, Note_on_c, 3, 81, 65
3, 24363, Note_on_c, 3, 82, 0
3, 24444, Note_on_c, 3, 82, 65
3, 24446, Note_on_c, 3, 81, 0
3, 24463, Note_on_c, 3, 79, 65
3, 24464, Note_on_c, 3, 82, 0
3, 24479, Note_on_c, 3, 79, 0
3, 24487, Note_on_c, 3, 78, 65
3, 24491, Note_on_c, 3, 86, 65
3, 24492, Note_on_c, 3, 85, 0
3, 24541, Note_on_c, 3, 81, 65
3, 24542, Note_on_c, 3, 86, 0
3, 24599, Note_on_c, 3, 81, 0
3, 24599, Note_on_c, 3, 83, 65
3, 24649, Note_on_c, 3, 78, 0
3, 24657, Note_on_c, 3, 79, 65
3, 24685, Note_on_c, 3, 83, 0
3, 24691, Note_on_c, 3, 84, 65
3, 24715, Note_on_c, 3, 84, 0
3, 24718, Note_on_c, 3, 86, 65
3, 24727, Note_on_c, 3, 81, 65
3, 24730, Note_on_c, 3, 79, 0
3, 24746, Note_on_c, 3, 84, 65
3, 24747, Note_on_c, 3, 86, 0
3, 24756, Note_on_c, 3, 84, 0
3, 24757, Note_on_c, 3, 86, 65
3, 24766, Note_on_c, 3, 86, 0
3, 24768, Note_on_c, 3, 84, 65
3, 24778, Note_on_c, 3, 86, 65
3, 24779, Note_on_c, 3, 84, 0
3, 24785, Note_on_c, 3, 84, 65
3, 24789, Note_on_c, 3, 86, 0
3, 24801, Note_on_c, 3, 83, 65
3, 24803, Note_on_c, 3, 84, 0
3, 24813, Note_on_c, 3, 84, 65
3, 24815, Note_on_c, 3, 83, 0
3, 24832, Note_on_c, 3, 86, 65
3, 24833, Note_on_c, 3, 84, 0
3, 24955, Note_on_c, 3, 81, 0
3, 24956, Note_on_c, 3, 79, 65
3, 25018, Note_on_c, 3, 84, 65
3, 25018, Note_on_c, 3, 78, 65
3, 25019, Note_on_c, 3, 86, 0
3, 25019, Note_on_c, 3, 79, 0
3, 25082, Note_on_c, 3, 78, 0
3, 25082, Note_on_c, 3, 83, 65
3, 25083, Note_on_c, 3, 84, 0
3, 25083, Note_on_c, 3, 79, 65
3, 25139, Note_on_c, 3, 83, 0
3, 25139, Note_on_c, 3, 81, 65
3, 25143, Note_on_c, 3, 79, 0
3, 25200, Note_on_c, 3, 84, 65
3, 25201, Note_on_c, 3, 81, 0
3, 25201, Note_on_c, 3, 78, 65
3, 25259, Note_on_c, 3, 78, 0
3, 25261, Note_on_c, 3, 79, 65
3, 25263, Note_on_c, 3, 83, 65
3, 25264, Note_on_c, 3, 84, 0
3, 25321, Note_on_c, 3, 83, 0
3, 25322, Note_on_c, 3, 81, 65
3, 25337, Note_on_c, 3, 79, 0
3, 25377, Note_on_c, 3, 79, 65
3, 25441, Note_on_c, 3, 78, 65
3, 25445, Note_on_c, 3, 79, 0
3, 25497, Note_on_c, 3, 81, 0
3, 25499, Note_on_c, 3, 83, 65
3, 25561, Note_on_c, 3, 83, 0
3, 25563, Note_on_c, 3, 78, 0
3, 25563, Note_on_c, 3, 79, 65
3, 25621, Note_on_c, 3, 79, 0
3, 25622, Note_on_c, 3, 86, 65
3, 25623, Note_on_c, 3, 71, 65
3, 25682, Note_on_c, 3, 71, 0
3, 25684, Note_on_c, 3, 72, 65
3, 25685, Note_on_c, 3, 88, 65
3, 25686, Note_on_c, 3, 86, 0
3, 25743, Note_on_c, 3, 74, 65
3, 25748, Note_on_c, 3, 72, 0
3, 25804, Note_on_c, 3, 88, 0
3, 25804, Note_on_c, 3, 86, 65
3, 25806, Note_on_c, 3, 74, 0
3, 25807, Note_on_c, 3, 76, 65
3, 25862, Note_on_c, 3, 78, 65
3, 25866, Note_on_c, 3, 76, 0
3, 25885, Note_on_c, 3, 86, 0
3, 25887, Note_on_c, 3, 88, 65
3, 25898, Note_on_c, 3, 84, 65
3, 25907, Note_on_c, 3, 88, 0
3, 25916, Note_on_c, 3, 84, 0
3, 25922, Note_on_c, 3, 78, 0
3, 25922, Note_on_c, 3, 83, 65
3, 25922, Note_on_c, 3, 79, 65
3, 25979, Note_on_c, 3, 81, 65
3, 25983, Note_on_c, 3, 79, 0
3, 26019, Note_on_c, 3, 83, 0
3, 26036, Note_on_c, 3, 83, 65
3, 26038, Note_on_c, 3, 81, 0
3, 26090, Note_on_c, 3, 83, 0
3, 26091, Note_on_c, 3, 81, 65
3, 26091, Note_on_c, 3, 84, 65
3, 26150, Note_on_c, 3, 81, 0
3, 26150, Note_on_c, 3, 86, 65
3, 26151, Note_on_c, 3, 84, 0
3, 26151, Note_on_c, 3, 79, 65
3, 26212, Note_on_c, 3, 79, 0
3, 26214, Note_on_c, 3, 78, 65
3, 26271, Note_on_c, 3, 78, 0
3, 26272, Note_on_c, 3, 79, 65
3, 26334, Note_on_c, 3, 74, 65
3, 26336, Note_on_c, 3, 79, 0
3, 26395, Note_on_c, 3, 84, 65
3, 26396, Note_on_c, 3, 86, 0
3, 26396, Note_on_c, 3, 76, 65
3, 26398, Note_on_c, 3, 74, 0
3, 26454, Note_on_c, 3, 83, 65
3, 26455, Note_on_c, 3, 84, 0
3, 26483, Note_on_c, 3, 84, 65
3, 26485, Note_on_c, 3, 83, 0
3, 26515, Note_on_c, 3, 84, 0
3, 26517, Note_on_c, 3, 86, 65
3, 26517, Note_on_c, 3, 74, 65
3, 26518, Note_on_c, 3, 76, 0
3, 26579, Note_on_c, 3, 72, 65
3, 26580, Note_on_c, 3, 78, 65
3, 26583, Note_on_c, 3, 74, 0
3, 26584, Note_on_c, 3, 86, 0
3, 26648, Note_on_c, 3, 79, 65
3, 26649, Note_on_c, 3, 78, 0
3, 26649, Note_on_c, 3, 71, 65
3, 26650, Note_on_c, 3, 72, 0
3, 26821, Note_on_c, 3, 72, 65
3, 26822, Note_on_c, 3, 71, 0
3, 26882, Note_on_c, 3, 74, 65
3, 26883, Note_on_c, 3, 72, 0
3, 27004, Note_on_c, 3, 79, 0
3, 27004, Note_on_c, 3, 81, 65
3, 27065, Note_on_c, 3, 79, 65
3, 27066, Note_on_c, 3, 81, 0
3, 27125, Note_on_c, 3, 72, 65
3, 27126, Note_on_c, 3, 78, 65
3, 27128, Note_on_c, 3, 79, 0
3, 27130, Note_on_c, 3, 74, 0
3, 27184, Note_on_c, 3, 71, 65
3, 27186, Note_on_c, 3, 72, 0
3, 27245, Note_on_c, 3, 72, 65
3, 27248, Note_on_c, 3, 71, 0
3, 27304, Note_on_c, 3, 74, 65
3, 27305, Note_on_c, 3, 72, 0
3, 27365, Note_on_c, 3, 71, 65
3, 27367, Note_on_c, 3, 74, 0
3, 27488, Note_on_c, 3, 78, 0
3, 27489, Note_on_c, 3, 76, 65
3, 27516, Note_on_c, 3, 71, 0
3, 27541, Note_on_c, 3, 78, 65
3, 27542, Note_on_c, 3, 69, 65
3, 27544, Note_on_c, 3, 76, 0
3, 27601, Note_on_c, 3, 71, 65
3, 27602, Note_on_c, 3, 78, 0
3, 27602, Note_on_c, 3, 79, 65
3, 27603, Note_on_c, 3, 69, 0
3, 27661, Note_on_c, 3, 81, 65
3, 27662, Note_on_c, 3, 72, 65
3, 27663, Note_on_c, 3, 71, 0
3, 27663, Note_on_c, 3, 79, 0
3, 27718, Note_on_c, 3, 83, 65
3, 27720, Note_on_c, 3, 74, 65
3, 27721, Note_on_c, 3, 81, 0
3, 27721, Note_on_c, 3, 72, 0
3, 27774, Note_on_c, 3, 76, 65
3, 27775, Note_on_c, 3, 83, 0
3, 27776, Note_on_c, 3, 74, 0
3, 27776, Note_on_c, 3, 84, 65
3, 27836, Note_on_c, 3, 77, 65
3, 27837, Note_on_c, 3, 76, 0
3, 27837, Note_on_c, 3, 84, 0
3, 27837, Note_on_c, 3, 86, 65
3, 27894, Note_on_c, 3, 86, 0
3, 27894, Note_on_c, 3, 88, 65
3, 27895, Note_on_c, 3, 76, 65
3, 27897, Note_on_c, 3, 77, 0
3, 27963, Note_on_c, 3, 83, 65
3, 27964, Note_on_c, 3, 76, 0
3, 27964, Note_on_c, 3, 89, 65
3, 27965, Note_on_c, 3, 88, 0
3, 28023, Note_on_c, 3, 89, 0
3, 28024, Note_on_c, 3, 86, 65
3, 28086, Note_on_c, 3, 88, 65
3, 28087, Note_on_c, 3, 86, 0
3, 28144, Note_on_c, 3, 79, 65
3, 28150, Note_on_c, 3, 83, 0
3, 28180, Note_on_c, 3, 79, 0
3, 28206, Note_on_c, 3, 84, 65
3, 28221, Note_on_c, 3, 88, 0
3, 28261, Note_on_c, 3, 86, 65
3, 28321, Note_on_c, 3, 83, 65
3, 28321, Note_on_c, 3, 88, 65
3, 28322, Note_on_c, 3, 84, 0
3, 28323, Note_on_c, 3, 86, 0
3, 28379, Note_on_c, 3, 81, 65
3, 28380, Note_on_c, 3, 83, 0
3, 28380, Note_on_c, 3, 90, 65
3, 28381, Note_on_c, 3, 88, 0
3, 28442, Note_on_c, 3, 90, 0
3, 28442, Note_on_c, 3, 91, 65
3, 28443, Note_on_c, 3, 81, 0
3, 28443, Note_on_c, 3, 79, 65
3, 28486, Note_on_c, 3, 91, 0
3, 28503, Note_on_c, 3, 77, 65
3, 28504, Note_on_c, 3, 86, 65
3, 28507, Note_on_c, 3, 79, 0
3, 28565, Note_on_c, 3, 76, 65
3, 28566, Note_on_c, 3, 88, 65
3, 28567, Note_on_c, 3, 77, 0
3, 28567, Note_on_c, 3, 86, 0
3, 28631, Note_on_c, 3, 74, 65
3, 28632, Note_on_c, 3, 76, 0
3, 28692, Note_on_c, 3, 86, 65
3, 28692, Note_on_c, 3, 76, 65
3, 28694, Note_on_c, 3, 88, 0
3, 28694, Note_on_c, 3, 74, 0
3, 28751, Note_on_c, 3, 78, 65
3, 28755, Note_on_c, 3, 76, 0
3, 28776, Note_on_c, 3, 88, 65
3, 28778, Note_on_c, 3, 86, 0
3, 28792, Note_on_c, 3, 84, 65
3, 28793, Note_on_c, 3, 88, 0
3, 28811, Note_on_c, 3, 78, 0
3, 28812, Note_on_c, 3, 84, 0
3, 28812, Note_on_c, 3, 79, 65
3, 28813, Note_on_c, 3, 83, 65
3, 28868, Note_on_c, 3, 74, 65
3, 28870, Note_on_c, 3, 79, 0
3, 28925, Note_on_c, 3, 79, 65
3, 28927, Note_on_c, 3, 74, 0
3, 28981, Note_on_c, 3, 84, 65
3, 28982, Note_on_c, 3, 83, 0
3, 28983, Note_on_c, 3, 81, 65
3, 28986, Note_on_c, 3, 79, 0
3, 29042, Note_on_c, 3, 83, 65
3, 29044, Note_on_c, 3, 84, 0
3, 29044, Note_on_c, 3, 86, 65
3, 29045, Note_on_c, 3, 81, 0
3, 29219, Note_on_c, 3, 81, 65
3, 29220, Note_on_c, 3, 83, 0
3, 29246, Note_on_c, 3, 81, 0
3, 29246, Note_on_c, 3, 79, 65
3, 29281, Note_on_c, 3, 79, 0
3, 29281, Note_on_c, 3, 84, 65
3, 29281, Note_on_c, 3, 81, 65
3, 29282, Note_on_c, 3, 74, 65
3, 29285, Note_on_c, 3, 86, 0
3, 29343, Note_on_c, 3, 84, 0
3, 29344, Note_on_c, 3, 83, 65
3, 29401, Note_on_c, 3, 84, 65
3, 29403, Note_on_c, 3, 83, 0
3, 29458, Note_on_c, 3, 84, 0
3, 29459, Note_on_c, 3, 86, 65
3, 29526, Note_on_c, 3, 86, 0
3, 29526, Note_on_c, 3, 83, 65
3, 29528, Note_on_c, 3, 81, 0
3, 29880, Note_on_c, 3, 74, 0
3, 29880, Note_on_c, 3, 83, 0
3, 29880, End_track
4, 0, Start_track
4, 0, Title_t, "Pedal"
4, 0, MIDI_port, 0
4, 0, Control_c, 1, 7, 97
4, 0, Control_c, 1, 91, 127
4, 0, Control_c, 1, 10, 25
4, 0, Program_c, 1, 43
4, 3, Note_on_c, 1, 55, 75
4, 117, Note_on_c, 1, 48, 75
4, 120, Note_on_c, 1, 55, 0
4, 238, Note_on_c, 1, 50, 75
4, 243, Note_on_c, 1, 48, 0
4, 350, Note_on_c, 1, 52, 75
4, 353, Note_on_c, 1, 50, 0
4, 464, Note_on_c, 1, 50, 75
4, 469, Note_on_c, 1, 52, 0
4, 525, Note_on_c, 1, 48, 75
4, 529, Note_on_c, 1, 50, 0
4, 589, Note_on_c, 1, 47, 75
4, 591, Note_on_c, 1, 48, 0
4, 694, Note_on_c, 1, 47, 0
4, 717, Note_on_c, 1, 48, 75
4, 823, Note_on_c, 1, 45, 75
4, 826, Note_on_c, 1, 48, 0
4, 936, Note_on_c, 1, 50, 75
4, 939, Note_on_c, 1, 45, 0
4, 1047, Note_on_c, 1, 50, 0
4, 1061, Note_on_c, 1, 55, 75
4, 1190, Note_on_c, 1, 59, 75
4, 1192, Note_on_c, 1, 55, 0
4, 1315, Note_on_c, 1, 57, 75
4, 1317, Note_on_c, 1, 59, 0
4, 1375, Note_on_c, 1, 55, 75
4, 1377, Note_on_c, 1, 57, 0
4, 1439, Note_on_c, 1, 54, 75
4, 1443, Note_on_c, 1, 55, 0
4, 1552, Note_on_c, 1, 55, 75
4, 1555, Note_on_c, 1, 54, 0
4, 1672, Note_on_c, 1, 57, 75
4, 1675, Note_on_c, 1, 55, 0
4, 1912, Note_on_c, 1, 57, 0
4, 1915, Note_on_c, 1, 55, 75
4, 1974, Note_on_c, 1, 54, 75
4, 1976, Note_on_c, 1, 55, 0
4, 2030, Note_on_c, 1, 55, 75
4, 2034, Note_on_c, 1, 54, 0
4, 2091, Note_on_c, 1, 55, 0
4, 2091, Note_on_c, 1, 57, 75
4, 2150, Note_on_c, 1, 54, 75
4, 2155, Note_on_c, 1, 57, 0
4, 2213, Note_on_c, 1, 55, 75
4, 2217, Note_on_c, 1, 54, 0
4, 2279, Note_on_c, 1, 48, 75
4, 2283, Note_on_c, 1, 55, 0
4, 2396, Note_on_c, 1, 50, 75
4, 2399, Note_on_c, 1, 48, 0
4, 2509, Note_on_c, 1, 43, 75
4, 2514, Note_on_c, 1, 50, 0
4, 2631, Note_on_c, 1, 52, 75
4, 2635, Note_on_c, 1, 43, 0
4, 2750, Note_on_c, 1, 47, 75
4, 2753, Note_on_c, 1, 52, 0
4, 2870, Note_on_c, 1, 48, 75
4, 2873, Note_on_c, 1, 47, 0
4, 2988, Note_on_c, 1, 45, 75
4, 2991, Note_on_c, 1, 48, 0
4, 3091, Note_on_c, 1, 45, 0
4, 3108, Note_on_c, 1, 50, 75
4, 3205, Note_on_c, 1, 50, 0
4, 3223, Note_on_c, 1, 55, 75
4, 3348, Note_on_c, 1, 52, 75
4, 3353, Note_on_c, 1, 55, 0
4, 3464, Note_on_c, 1, 57, 75
4, 3468, Note_on_c, 1, 52, 0
4, 3546, Note_on_c, 1, 57, 0
4, 3592, Note_on_c, 1, 50, 75
4, 3715, Note_on_c, 1, 43, 75
4, 3718, Note_on_c, 1, 50, 0
4, 3827, Note_on_c, 1, 45, 75
4, 3833, Note_on_c, 1, 43, 0
4, 3954, Note_on_c, 1, 47, 75
4, 3955, Note_on_c, 1, 45, 0
4, 4077, Note_on_c, 1, 42, 75
4, 4082, Note_on_c, 1, 47, 0
4, 4198, Note_on_c, 1, 43, 75
4, 4200, Note_on_c, 1, 42, 0
4, 4318, Note_on_c, 1, 36, 75
4, 4322, Note_on_c, 1, 43, 0
4, 4440, Note_on_c, 1, 38, 75
4, 4445, Note_on_c, 1, 36, 0
4, 4629, Note_on_c, 1, 38, 0
4, 4672, Note_on_c, 1, 43, 75
4, 4797, Note_on_c, 1, 45, 75
4, 4800, Note_on_c, 1, 43, 0
4, 4905, Note_on_c, 1, 47, 75
4, 4908, Note_on_c, 1, 45, 0
4, 5032, Note_on_c, 1, 48, 75
4, 5033, Note_on_c, 1, 47, 0
4, 5155, Note_on_c, 1, 45, 75
4, 5158, Note_on_c, 1, 48, 0
4, 5247, Note_on_c, 1, 45, 0
4, 5267, Note_on_c, 1, 50, 75
4, 5355, Note_on_c, 1, 50, 0
4, 5383, Note_on_c, 1, 55, 75
4, 5514, Note_on_c, 1, 59, 75
4, 5516, Note_on_c, 1, 55, 0
4, 5631, Note_on_c, 1, 57, 75
4, 5636, Note_on_c, 1, 59, 0
4, 5695, Note_on_c, 1, 55, 75
4, 5700, Note_on_c, 1, 57, 0
4, 5760, Note_on_c, 1, 54, 75
4, 5763, Note_on_c, 1, 55, 0
4, 5870, Note_on_c, 1, 55, 75
4, 5873, Note_on_c, 1, 54, 0
4, 5989, Note_on_c, 1, 57, 75
4, 5993, Note_on_c, 1, 55, 0
4, 6211, Note_on_c, 1, 57, 0
4, 6228, Note_on_c, 1, 55, 75
4, 6291, Note_on_c, 1, 54, 75
4, 6294, Note_on_c, 1, 55, 0
4, 6354, Note_on_c, 1, 55, 75
4, 6356, Note_on_c, 1, 54, 0
4, 6419, Note_on_c, 1, 57, 75
4, 6421, Note_on_c, 1, 55, 0
4, 6482, Note_on_c, 1, 54, 75
4, 6486, Note_on_c, 1, 57, 0
4, 6546, Note_on_c, 1, 54, 0
4, 6547, Note_on_c, 1, 55, 75
4, 6609, Note_on_c, 1, 48, 75
4, 6612, Note_on_c, 1, 55, 0
4, 6732, Note_on_c, 1, 50, 75
4, 6737, Note_on_c, 1, 48, 0
4, 6844, Note_on_c, 1, 43, 75
4, 6849, Note_on_c, 1, 50, 0
4, 6930, Note_on_c, 1, 43, 0
4, 6970, Note_on_c, 1, 52, 75
4, 7082, Note_on_c, 1, 47, 75
4, 7085, Note_on_c, 1, 52, 0
4, 7197, Note_on_c, 1, 48, 75
4, 7200, Note_on_c, 1, 47, 0
4, 7317, Note_on_c, 1, 45, 75
4, 7319, Note_on_c, 1, 48, 0
4, 7425, Note_on_c, 1, 45, 0
4, 7439, Note_on_c, 1, 50, 75
4, 7527, Note_on_c, 1, 50, 0
4, 7551, Note_on_c, 1, 55, 75
4, 7675, Note_on_c, 1, 52, 75
4, 7680, Note_on_c, 1, 55, 0
4, 7795, Note_on_c, 1, 57, 75
4, 7798, Note_on_c, 1, 52, 0
4, 7921, Note_on_c, 1, 50, 75
4, 7925, Note_on_c, 1, 57, 0
4, 8019, Note_on_c, 1, 50, 0
4, 8052, Note_on_c, 1, 43, 75
4, 8161, Note_on_c, 1, 45, 75
4, 8167, Note_on_c, 1, 43, 0
4, 8280, Note_on_c, 1, 45, 0
4, 8280, Note_on_c, 1, 47, 75
4, 8405, Note_on_c, 1, 42, 75
4, 8409, Note_on_c, 1, 47, 0
4, 8524, Note_on_c, 1, 42, 0
4, 8524, Note_on_c, 1, 43, 75
4, 8638, Note_on_c, 1, 36, 75
4, 8642, Note_on_c, 1, 43, 0
4, 8763, Note_on_c, 1, 38, 75
4, 8767, Note_on_c, 1, 36, 0
4, 8951, Note_on_c, 1, 38, 0
4, 8992, Note_on_c, 1, 43, 75
4, 9118, Note_on_c, 1, 40, 75
4, 9121, Note_on_c, 1, 43, 0
4, 9220, Note_on_c, 1, 40, 0
4, 9242, Note_on_c, 1, 45, 75
4, 9327, Note_on_c, 1, 45, 0
4, 9366, Note_on_c, 1, 38, 75
4, 9479, Note_on_c, 1, 42, 75
4, 9482, Note_on_c, 1, 38, 0
4, 9597, Note_on_c, 1, 44, 75
4, 9598, Note_on_c, 1, 42, 0
4, 9718, Note_on_c, 1, 45, 75
4, 9719, Note_on_c, 1, 44, 0
4, 9890, Note_on_c, 1, 43, 75
4, 9892, Note_on_c, 1, 45, 0
4, 9956, Note_on_c, 1, 42, 75
4, 9960, Note_on_c, 1, 43, 0
4, 10053, Note_on_c, 1, 42, 0
4, 10077, Note_on_c, 1, 43, 75
4, 10199, Note_on_c, 1, 40, 75
4, 10202, Note_on_c, 1, 43, 0
4, 10395, Note_on_c, 1, 40, 0
4, 10430, Note_on_c, 1, 38, 75
4, 10508, Note_on_c, 1, 38, 0
4, 10555, Note_on_c, 1, 50, 75
4, 10676, Note_on_c, 1, 52, 75
4, 10680, Note_on_c, 1, 50, 0
4, 10801, Note_on_c, 1, 45, 75
4, 10805, Note_on_c, 1, 52, 0
4, 10861, Note_on_c, 1, 47, 75
4, 10866, Note_on_c, 1, 45, 0
4, 10919, Note_on_c, 1, 48, 75
4, 10923, Note_on_c, 1, 47, 0
4, 11030, Note_on_c, 1, 50, 75
4, 11033, Note_on_c, 1, 48, 0
4, 11150, Note_on_c, 1, 55, 75
4, 11153, Note_on_c, 1, 50, 0
4, 11231, Note_on_c, 1, 55, 0
4, 11279, Note_on_c, 1, 60, 75
4, 11402, Note_on_c, 1, 59, 75
4, 11405, Note_on_c, 1, 60, 0
4, 11465, Note_on_c, 1, 57, 75
4, 11468, Note_on_c, 1, 59, 0
4, 11524, Note_on_c, 1, 55, 75
4, 11525, Note_on_c, 1, 57, 0
4, 11648, Note_on_c, 1, 48, 75
4, 11651, Note_on_c, 1, 55, 0
4, 11764, Note_on_c, 1, 50, 75
4, 11767, Note_on_c, 1, 48, 0
4, 11879, Note_on_c, 1, 43, 75
4, 11882, Note_on_c, 1, 50, 0
4, 12724, Note_on_c, 1, 36, 75
4, 12727, Note_on_c, 1, 43, 0
4, 12845, Note_on_c, 1, 38, 75
4, 12851, Note_on_c, 1, 36, 0
4, 12963, Note_on_c, 1, 43, 75
4, 12966, Note_on_c, 1, 38, 0
4, 13084, Note_on_c, 1, 45, 75
4, 13089, Note_on_c, 1, 43, 0
4, 13307, Note_on_c, 1, 38, 75
4, 13312, Note_on_c, 1, 45, 0
4, 13429, Note_on_c, 1, 38, 0
4, 13674, Note_on_c, 1, 45, 75
4, 13793, Note_on_c, 1, 49, 75
4, 13796, Note_on_c, 1, 45, 0
4, 13918, Note_on_c, 1, 51, 75
4, 13921, Note_on_c, 1, 49, 0
4, 14043, Note_on_c, 1, 52, 75
4, 14046, Note_on_c, 1, 51, 0
4, 14247, Note_on_c, 1, 52, 0
4, 14285, Note_on_c, 1, 45, 75
4, 14404, Note_on_c, 1, 47, 75
4, 14408, Note_on_c, 1, 45, 0
4, 14467, Note_on_c, 1, 49, 75
4, 14472, Note_on_c, 1, 47, 0
4, 14529, Note_on_c, 1, 49, 0
4, 14530, Note_on_c, 1, 50, 75
4, 14638, Note_on_c, 1, 49, 75
4, 14642, Note_on_c, 1, 50, 0
4, 14758, Note_on_c, 1, 50, 75
4, 14759, Note_on_c, 1, 49, 0
4, 14881, Note_on_c, 1, 52, 75
4, 14886, Note_on_c, 1, 50, 0
4, 14997, Note_on_c, 1, 45, 75
4, 15000, Note_on_c, 1, 52, 0
4, 15118, Note_on_c, 1, 50, 75
4, 15122, Note_on_c, 1, 45, 0
4, 15246, Note_on_c, 1, 49, 75
4, 15254, Note_on_c, 1, 50, 0
4, 15313, Note_on_c, 1, 49, 0
4, 15364, Note_on_c, 1, 50, 75
4, 15473, Note_on_c, 1, 50, 0
4, 15481, Note_on_c, 1, 55, 75
4, 15601, Note_on_c, 1, 54, 75
4, 15605, Note_on_c, 1, 55, 0
4, 15715, Note_on_c, 1, 52, 75
4, 15718, Note_on_c, 1, 54, 0
4, 15834, Note_on_c, 1, 52, 0
4, 15838, Note_on_c, 1, 50, 75
4, 15967, Note_on_c, 1, 52, 75
4, 15972, Note_on_c, 1, 50, 0
4, 16084, Note_on_c, 1, 54, 75
4, 16087, Note_on_c, 1, 52, 0
4, 16203, Note_on_c, 1, 55, 75
4, 16205, Note_on_c, 1, 54, 0
4, 16313, Note_on_c, 1, 55, 0
4, 16327, Note_on_c, 1, 47, 75
4, 16441, Note_on_c, 1, 49, 75
4, 16444, Note_on_c, 1, 47, 0
4, 16560, Note_on_c, 1, 49, 0
4, 16560, Note_on_c, 1, 50, 75
4, 16673, Note_on_c, 1, 47, 75
4, 16676, Note_on_c, 1, 50, 0
4, 16792, Note_on_c, 1, 52, 75
4, 16796, Note_on_c, 1, 47, 0
4, 16912, Note_on_c, 1, 45, 75
4, 16916, Note_on_c, 1, 52, 0
4, 16982, Note_on_c, 1, 45, 0
4, 17042, Note_on_c, 1, 52, 75
4, 17160, Note_on_c, 1, 57, 75
4, 17162, Note_on_c, 1, 52, 0
4, 17284, Note_on_c, 1, 55, 75
4, 17285, Note_on_c, 1, 57, 0
4, 17346, Note_on_c, 1, 52, 75
4, 17348, Note_on_c, 1, 55, 0
4, 17405, Note_on_c, 1, 59, 75
4, 17407, Note_on_c, 1, 52, 0
4, 17466, Note_on_c, 1, 59, 0
4, 17520, Note_on_c, 1, 47, 75
4, 17595, Note_on_c, 1, 47, 0
4, 17633, Note_on_c, 1, 40, 75
4, 17755, Note_on_c, 1, 42, 75
4, 17756, Note_on_c, 1, 40, 0
4, 17878, Note_on_c, 1, 44, 75
4, 17879, Note_on_c, 1, 42, 0
4, 17985, Note_on_c, 1, 44, 0
4, 18001, Note_on_c, 1, 45, 75
4, 18176, Note_on_c, 1, 43, 75
4, 18179, Note_on_c, 1, 45, 0
4, 18240, Note_on_c, 1, 42, 75
4, 18243, Note_on_c, 1, 43, 0
4, 18362, Note_on_c, 1, 42, 0
4, 18364, Note_on_c, 1, 43, 75
4, 18478, Note_on_c, 1, 42, 75
4, 18483, Note_on_c, 1, 43, 0
4, 18712, Note_on_c, 1, 40, 75
4, 18716, Note_on_c, 1, 42, 0
4, 18760, Note_on_c, 1, 40, 0
4, 18781, Note_on_c, 1, 52, 75
4, 18845, Note_on_c, 1, 52, 0
4, 18845, Note_on_c, 1, 47, 75
4, 18902, Note_on_c, 1, 45, 75
4, 18904, Note_on_c, 1, 47, 0
4, 18951, Note_on_c, 1, 45, 0
4, 18959, Note_on_c, 1, 44, 75
4, 19003, Note_on_c, 1, 44, 0
4, 19017, Note_on_c, 1, 40, 75
4, 19063, Note_on_c, 1, 40, 0
4, 19075, Note_on_c, 1, 45, 75
4, 19123, Note_on_c, 1, 45, 0
4, 19139, Note_on_c, 1, 52, 75
4, 19180, Note_on_c, 1, 52, 0
4, 19200, Note_on_c, 1, 57, 75
4, 19259, Note_on_c, 1, 57, 0
4, 19259, Note_on_c, 1, 50, 75
4, 19317, Note_on_c, 1, 50, 0
4, 19317, Note_on_c, 1, 49, 75
4, 19372, Note_on_c, 1, 45, 75
4, 19374, Note_on_c, 1, 49, 0
4, 19435, Note_on_c, 1, 50, 75
4, 19437, Note_on_c, 1, 45, 0
4, 19495, Note_on_c, 1, 48, 75
4, 19498, Note_on_c, 1, 50, 0
4, 19554, Note_on_c, 1, 47, 75
4, 19557, Note_on_c, 1, 48, 0
4, 19658, Note_on_c, 1, 47, 0
4, 19672, Note_on_c, 1, 52, 75
4, 19794, Note_on_c, 1, 45, 75
4, 19799, Note_on_c, 1, 52, 0
4, 19847, Note_on_c, 1, 45, 0
4, 19860, Note_on_c, 1, 57, 75
4, 19917, Note_on_c, 1, 55, 75
4, 19919, Note_on_c, 1, 57, 0
4, 19967, Note_on_c, 1, 55, 0
4, 19980, Note_on_c, 1, 58, 75
4, 20098, Note_on_c, 1, 58, 0
4, 20099, Note_on_c, 1, 49, 75
4, 20139, Note_on_c, 1, 49, 0
4, 20163, Note_on_c, 1, 50, 75
4, 20341, Note_on_c, 1, 48, 75
4, 20345, Note_on_c, 1, 50, 0
4, 20405, Note_on_c, 1, 47, 75
4, 20409, Note_on_c, 1, 48, 0
4, 20504, Note_on_c, 1, 47, 0
4, 20514, Note_on_c, 1, 48, 75
4, 20640, Note_on_c, 1, 50, 75
4, 20643, Note_on_c, 1, 48, 0
4, 20760, Note_on_c, 1, 52, 75
4, 20764, Note_on_c, 1, 50, 0
4, 20884, Note_on_c, 1, 45, 75
4, 20889, Note_on_c, 1, 52, 0
4, 21050, Note_on_c, 1, 45, 0
4, 21052, Note_on_c, 1, 47, 75
4, 21123, Note_on_c, 1, 49, 75
4, 21127, Note_on_c, 1, 47, 0
4, 21213, Note_on_c, 1, 49, 0
4, 21242, Note_on_c, 1, 50, 75
4, 21368, Note_on_c, 1, 47, 75
4, 21373, Note_on_c, 1, 50, 0
4, 21435, Note_on_c, 1, 47, 0
4, 21475, Note_on_c, 1, 52, 75
4, 21581, Note_on_c, 1, 57, 75
4, 21583, Note_on_c, 1, 52, 0
4, 21643, Note_on_c, 1, 59, 75
4, 21645, Note_on_c, 1, 57, 0
4, 21702, Note_on_c, 1, 60, 75
4, 21704, Note_on_c, 1, 59, 0
4, 21827, Note_on_c, 1, 59, 75
4, 21828, Note_on_c, 1, 60, 0
4, 21887, Note_on_c, 1, 57, 75
4, 21890, Note_on_c, 1, 59, 0
4, 21949, Note_on_c, 1, 55, 75
4, 21951, Note_on_c, 1, 57, 0
4, 22079, Note_on_c, 1, 57, 75
4, 22082, Note_on_c, 1, 55, 0
4, 22193, Note_on_c, 1, 59, 75
4, 22198, Note_on_c, 1, 57, 0
4, 22404, Note_on_c, 1, 59, 0
4, 22434, Note_on_c, 1, 57, 75
4, 22494, Note_on_c, 1, 56, 75
4, 22497, Note_on_c, 1, 57, 0
4, 22556, Note_on_c, 1, 56, 0
4, 22558, Note_on_c, 1, 57, 75
4, 22619, Note_on_c, 1, 55, 75
4, 22621, Note_on_c, 1, 57, 0
4, 22678, Note_on_c, 1, 53, 75
4, 22680, Note_on_c, 1, 55, 0
4, 22743, Note_on_c, 1, 52, 75
4, 22745, Note_on_c, 1, 53, 0
4, 22802, Note_on_c, 1, 52, 0
4, 22802, Note_on_c, 1, 50, 75
4, 22860, Note_on_c, 1, 50, 0
4, 22864, Note_on_c, 1, 47, 75
4, 22922, Note_on_c, 1, 47, 0
4, 22923, Note_on_c, 1, 52, 75
4, 22958, Note_on_c, 1, 52, 0
4, 22985, Note_on_c, 1, 40, 75
4, 23022, Note_on_c, 1, 40, 0
4, 23044, Note_on_c, 1, 45, 75
4, 23154, Note_on_c, 1, 40, 75
4, 23156, Note_on_c, 1, 45, 0
4, 23275, Note_on_c, 1, 42, 75
4, 23278, Note_on_c, 1, 40, 0
4, 23398, Note_on_c, 1, 43, 75
4, 23399, Note_on_c, 1, 42, 0
4, 23519, Note_on_c, 1, 36, 75
4, 23522, Note_on_c, 1, 43, 0
4, 23642, Note_on_c, 1, 38, 75
4, 23647, Note_on_c, 1, 36, 0
4, 23719, Note_on_c, 1, 38, 0
4, 23757, Note_on_c, 1, 43, 75
4, 23816, Note_on_c, 1, 41, 75
4, 23818, Note_on_c, 1, 43, 0
4, 23878, Note_on_c, 1, 40, 75
4, 23882, Note_on_c, 1, 41, 0
4, 23976, Note_on_c, 1, 40, 0
4, 24003, Note_on_c, 1, 41, 75
4, 24061, Note_on_c, 1, 40, 75
4, 24065, Note_on_c, 1, 41, 0
4, 24103, Note_on_c, 1, 40, 0
4, 24122, Note_on_c, 1, 38, 75
4, 24243, Note_on_c, 1, 43, 75
4, 24245, Note_on_c, 1, 38, 0
4, 24358, Note_on_c, 1, 45, 75
4, 24361, Note_on_c, 1, 43, 0
4, 24480, Note_on_c, 1, 38, 75
4, 24483, Note_on_c, 1, 45, 0
4, 24561, Note_on_c, 1, 38, 0
4, 24599, Note_on_c, 1, 50, 75
4, 24713, Note_on_c, 1, 48, 75
4, 24715, Note_on_c, 1, 50, 0
4, 24833, Note_on_c, 1, 47, 75
4, 24836, Note_on_c, 1, 48, 0
4, 25077, Note_on_c, 1, 52, 75
4, 25078, Note_on_c, 1, 47, 0
4, 25257, Note_on_c, 1, 50, 75
4, 25259, Note_on_c, 1, 52, 0
4, 25323, Note_on_c, 1, 48, 75
4, 25327, Note_on_c, 1, 50, 0
4, 25440, Note_on_c, 1, 50, 75
4, 25441, Note_on_c, 1, 48, 0
4, 25556, Note_on_c, 1, 43, 75
4, 25560, Note_on_c, 1, 50, 0
4, 26711, Note_on_c, 1, 45, 75
4, 26712, Note_on_c, 1, 43, 0
4, 26771, Note_on_c, 1, 47, 75
4, 26774, Note_on_c, 1, 45, 0
4, 26831, Note_on_c, 1, 45, 75
4, 26833, Note_on_c, 1, 47, 0
4, 26889, Note_on_c, 1, 43, 75
4, 26891, Note_on_c, 1, 45, 0
4, 26943, Note_on_c, 1, 42, 75
4, 26946, Note_on_c, 1, 43, 0
4, 27003, Note_on_c, 1, 40, 75
4, 27005, Note_on_c, 1, 42, 0
4, 27243, Note_on_c, 1, 39, 75
4, 27248, Note_on_c, 1, 40, 0
4, 27353, Note_on_c, 1, 39, 0
4, 27360, Note_on_c, 1, 40, 75
4, 27393, Note_on_c, 1, 40, 0
4, 27425, Note_on_c, 1, 47, 75
4, 27453, Note_on_c, 1, 47, 0
4, 27490, Note_on_c, 1, 52, 75
4, 27601, Note_on_c, 1, 50, 75
4, 27605, Note_on_c, 1, 52, 0
4, 27662, Note_on_c, 1, 48, 75
4, 27667, Note_on_c, 1, 50, 0
4, 27722, Note_on_c, 1, 47, 75
4, 27723, Note_on_c, 1, 48, 0
4, 27888, Note_on_c, 1, 48, 75
4, 27892, Note_on_c, 1, 47, 0
4, 27952, Note_on_c, 1, 50, 75
4, 27953, Note_on_c, 1, 48, 0
4, 28158, Note_on_c, 1, 50, 0
4, 28204, Note_on_c, 1, 48, 75
4, 28265, Note_on_c, 1, 47, 75
4, 28267, Note_on_c, 1, 48, 0
4, 28324, Note_on_c, 1, 48, 75
4, 28328, Note_on_c, 1, 47, 0
4, 28380, Note_on_c, 1, 50, 75
4, 28382, Note_on_c, 1, 48, 0
4, 28438, Note_on_c, 1, 47, 75
4, 28440, Note_on_c, 1, 50, 0
4, 28564, Note_on_c, 1, 47, 0
4, 28564, Note_on_c, 1, 48, 75
4, 28663, Note_on_c, 1, 48, 0
4, 28692, Note_on_c, 1, 36, 75
4, 28775, Note_on_c, 1, 36, 0
4, 28816, Note_on_c, 1, 43, 75
4, 29041, Note_on_c, 1, 50, 75
4, 29163, Note_on_c, 1, 52, 75
4, 29166, Note_on_c, 1, 50, 0
4, 29278, Note_on_c, 1, 54, 75
4, 29280, Note_on_c, 1, 52, 0
4, 29528, Note_on_c, 1, 55, 75
4, 29531, Note_on_c, 1, 54, 0
4, 29879, Note_on_c, 1, 43, 0
4, 29879, Note_on_c, 1, 55, 0
4, 29879, End_track
5, 0, Start_track
5, 0, Title_t, "Cantus Firmus"
5, 0, MIDI_port, 0
5, 0, Control_c, 2, 7, 101
5, 0, Control_c, 2, 10, 85
5, 0, Control_c, 2, 1, 70
5, 0, Control_c, 2, 91, 127
5, 0, Program_c, 2, 71
5, 2154, Note_on_c, 2, 62, 80
5, 2271, Note_on_c, 2, 64, 80
5, 2272, Note_on_c, 2, 62, 0
5, 2397, Note_on_c, 2, 62, 80
5, 2398, Note_on_c, 2, 64, 0
5, 2483, Note_on_c, 2, 64, 80
5, 2484, Note_on_c, 2, 62, 0
5, 2495, Note_on_c, 2, 60, 80
5, 2500, Note_on_c, 2, 64, 0
5, 2505, Note_on_c, 2, 60, 0
5, 2517, Note_on_c, 2, 60, 80
5, 2528, Note_on_c, 2, 60, 0
5, 2528, Note_on_c, 2, 59, 80
5, 2539, Note_on_c, 2, 59, 0
5, 2539, Note_on_c, 2, 57, 80
5, 2551, Note_on_c, 2, 59, 80
5, 2554, Note_on_c, 2, 57, 0
5, 2562, Note_on_c, 2, 59, 0
5, 2562, Note_on_c, 2, 60, 80
5, 2571, Note_on_c, 2, 60, 0
5, 2573, Note_on_c, 2, 59, 80
5, 2582, Note_on_c, 2, 60, 80
5, 2583, Note_on_c, 2, 59, 0
5, 2591, Note_on_c, 2, 60, 0
5, 2593, Note_on_c, 2, 59, 80
5, 2601, Note_on_c, 2, 60, 80
5, 2602, Note_on_c, 2, 59, 0
5, 2609, Note_on_c, 2, 60, 0
5, 2611, Note_on_c, 2, 59, 80
5, 2613, Note_on_c, 2, 60, 80
5, 2615, Note_on_c, 2, 59, 0
5, 2620, Note_on_c, 2, 60, 0
5, 2621, Note_on_c, 2, 59, 80
5, 2627, Note_on_c, 2, 60, 80
5, 2629, Note_on_c, 2, 59, 0
5, 2633, Note_on_c, 2, 60, 0
5, 2633, Note_on_c, 2, 59, 80
5, 2682, Note_on_c, 2, 60, 80
5, 2683, Note_on_c, 2, 59, 0
5, 2746, Note_on_c, 2, 62, 80
5, 2748, Note_on_c, 2, 60, 0
5, 2979, Note_on_c, 2, 62, 0
5, 2996, Note_on_c, 2, 62, 80
5, 3002, Note_on_c, 2, 60, 80
5, 3003, Note_on_c, 2, 62, 0
5, 3008, Note_on_c, 2, 62, 80
5, 3009, Note_on_c, 2, 60, 0
5, 3012, Note_on_c, 2, 62, 0
5, 3012, Note_on_c, 2, 60, 80
5, 3051, Note_on_c, 2, 59, 80
5, 3053, Note_on_c, 2, 60, 0
5, 3109, Note_on_c, 2, 60, 80
5, 3113, Note_on_c, 2, 59, 0
5, 3171, Note_on_c, 2, 62, 80
5, 3173, Note_on_c, 2, 60, 0
5, 3234, Note_on_c, 2, 62, 0
5, 3234, Note_on_c, 2, 59, 80
5, 3467, Note_on_c, 2, 59, 0
5, 3593, Note_on_c, 2, 57, 80
5, 3705, Note_on_c, 2, 57, 0
5, 3712, Note_on_c, 2, 59, 80
5, 3800, Note_on_c, 2, 61, 80
5, 3803, Note_on_c, 2, 59, 0
5, 3818, Note_on_c, 2, 61, 0
5, 3829, Note_on_c, 2, 62, 80
5, 3840, Note_on_c, 2, 61, 80
5, 3841, Note_on_c, 2, 62, 0
5, 3852, Note_on_c, 2, 61, 0
5, 3855, Note_on_c, 2, 62, 80
5, 3865, Note_on_c, 2, 62, 0
5, 3865, Note_on_c, 2, 61, 80
5, 3874, Note_on_c, 2, 61, 0
5, 3875, Note_on_c, 2, 62, 80
5, 3883, Note_on_c, 2, 62, 0
5, 3884, Note_on_c, 2, 61, 80
5, 3889, Note_on_c, 2, 61, 0
5, 3889, Note_on_c, 2, 62, 80
5, 3896, Note_on_c, 2, 61, 80
5, 3898, Note_on_c, 2, 62, 0
5, 3911, Note_on_c, 2, 61, 0
5, 3912, Note_on_c, 2, 59, 80
5, 3924, Note_on_c, 2, 61, 80
5, 3926, Note_on_c, 2, 59, 0
5, 3948, Note_on_c, 2, 62, 80
5, 3950, Note_on_c, 2, 61, 0
5, 4134, Note_on_c, 2, 60, 80
5, 4135, Note_on_c, 2, 62, 0
5, 4197, Note_on_c, 2, 59, 80
5, 4198, Note_on_c, 2, 60, 0
5, 4294, Note_on_c, 2, 59, 0
5, 4323, Note_on_c, 2, 60, 80
5, 4414, Note_on_c, 2, 60, 0
5, 4414, Note_on_c, 2, 62, 80
5, 4431, Note_on_c, 2, 59, 80
5, 4435, Note_on_c, 2, 62, 0
5, 4441, Note_on_c, 2, 59, 0
5, 4451, Note_on_c, 2, 59, 80
5, 4467, Note_on_c, 2, 59, 0
5, 4467, Note_on_c, 2, 57, 80
5, 4480, Note_on_c, 2, 57, 0
5, 4481, Note_on_c, 2, 59, 80
5, 4492, Note_on_c, 2, 59, 0
5, 4493, Note_on_c, 2, 57, 80
5, 4504, Note_on_c, 2, 57, 0
5, 4504, Note_on_c, 2, 59, 80
5, 4514, Note_on_c, 2, 59, 0
5, 4515, Note_on_c, 2, 57, 80
5, 4524, Note_on_c, 2, 57, 0
5, 4524, Note_on_c, 2, 59, 80
5, 4533, Note_on_c, 2, 59, 0
5, 4534, Note_on_c, 2, 57, 80
5, 4543, Note_on_c, 2, 57, 0
5, 4543, Note_on_c, 2, 59, 80
5, 4553, Note_on_c, 2, 59, 0
5, 4554, Note_on_c, 2, 57, 80
5, 4560, Note_on_c, 2, 59, 80
5, 4561, Note_on_c, 2, 57, 0
5, 4567, Note_on_c, 2, 57, 80
5, 4568, Note_on_c, 2, 59, 0
5, 4575, Note_on_c, 2, 59, 80
5, 4576, Note_on_c, 2, 57, 0
5, 4580, Note_on_c, 2, 59, 0
5, 4581, Note_on_c, 2, 57, 80
5, 4588, Note_on_c, 2, 59, 80
5, 4591, Note_on_c, 2, 57, 0
5, 4597, Note_on_c, 2, 59, 0
5, 4597, Note_on_c, 2, 57, 80
5, 4629, Note_on_c, 2, 57, 0
5, 4629, Note_on_c, 2, 55, 80
5, 4650, Note_on_c, 2, 55, 0
5, 4650, Note_on_c, 2, 57, 80
5, 4674, Note_on_c, 2, 55, 80
5, 4675, Note_on_c, 2, 57, 0
5, 5154, Note_on_c, 2, 55, 0
5, 6484, Note_on_c, 2, 62, 80
5, 6606, Note_on_c, 2, 64, 80
5, 6607, Note_on_c, 2, 62, 0
5, 6727, Note_on_c, 2, 62, 80
5, 6729, Note_on_c, 2, 64, 0
5, 6814, Note_on_c, 2, 64, 80
5, 6815, Note_on_c, 2, 62, 0
5, 6827, Note_on_c, 2, 60, 80
5, 6830, Note_on_c, 2, 64, 0
5, 6837, Note_on_c, 2, 60, 0
5, 6848, Note_on_c, 2, 60, 80
5, 6861, Note_on_c, 2, 60, 0
5, 6861, Note_on_c, 2, 59, 80
5, 6872, Note_on_c, 2, 59, 0
5, 6872, Note_on_c, 2, 57, 80
5, 6885, Note_on_c, 2, 59, 80
5, 6888, Note_on_c, 2, 57, 0
5, 6895, Note_on_c, 2, 60, 80
5, 6896, Note_on_c, 2, 59, 0
5, 6906, Note_on_c, 2, 60, 0
5, 6908, Note_on_c, 2, 59, 80
5, 6917, Note_on_c, 2, 59, 0
5, 6917, Note_on_c, 2, 60, 80
5, 6928, Note_on_c, 2, 60, 0
5, 6929, Note_on_c, 2, 59, 80
5, 6937, Note_on_c, 2, 60, 80
5, 6938, Note_on_c, 2, 59, 0
5, 6946, Note_on_c, 2, 60, 0
5, 6947, Note_on_c, 2, 59, 80
5, 6955, Note_on_c, 2, 60, 80
5, 6957, Note_on_c, 2, 59, 0
5, 6962, Note_on_c, 2, 60, 0
5, 6963, Note_on_c, 2, 59, 80
5, 6969, Note_on_c, 2, 60, 80
5, 6970, Note_on_c, 2, 59, 0
5, 6976, Note_on_c, 2, 60, 0
5, 6976, Note_on_c, 2, 59, 80
5, 7025, Note_on_c, 2, 59, 0
5, 7025, Note_on_c, 2, 60, 80
5, 7086, Note_on_c, 2, 62, 80
5, 7087, Note_on_c, 2, 60, 0
5, 7304, Note_on_c, 2, 62, 0
5, 7320, Note_on_c, 2, 62, 80
5, 7327, Note_on_c, 2, 62, 0
5, 7328, Note_on_c, 2, 60, 80
5, 7333, Note_on_c, 2, 62, 80
5, 7334, Note_on_c, 2, 60, 0
5, 7338, Note_on_c, 2, 62, 0
5, 7338, Note_on_c, 2, 60, 80
5, 7375, Note_on_c, 2, 59, 80
5, 7376, Note_on_c, 2, 60, 0
5, 7431, Note_on_c, 2, 60, 80
5, 7433, Note_on_c, 2, 59, 0
5, 7494, Note_on_c, 2, 62, 80
5, 7495, Note_on_c, 2, 60, 0
5, 7553, Note_on_c, 2, 59, 80
5, 7554, Note_on_c, 2, 62, 0
5, 7809, Note_on_c, 2, 59, 0
5, 7924, Note_on_c, 2, 57, 80
5, 8041, Note_on_c, 2, 59, 80
5, 8043, Note_on_c, 2, 57, 0
5, 8135, Note_on_c, 2, 61, 80
5, 8138, Note_on_c, 2, 59, 0
5, 8155, Note_on_c, 2, 61, 0
5, 8164, Note_on_c, 2, 62, 80
5, 8180, Note_on_c, 2, 61, 80
5, 8182, Note_on_c, 2, 62, 0
5, 8195, Note_on_c, 2, 61, 0
5, 8196, Note_on_c, 2, 62, 80
5, 8207, Note_on_c, 2, 62, 0
5, 8207, Note_on_c, 2, 61, 80
5, 8217, Note_on_c, 2, 61, 0
5, 8218, Note_on_c, 2, 62, 80
5, 8227, Note_on_c, 2, 62, 0
5, 8228, Note_on_c, 2, 61, 80
5, 8233, Note_on_c, 2, 61, 0
5, 8233, Note_on_c, 2, 62, 80
5, 8240, Note_on_c, 2, 61, 80
5, 8243, Note_on_c, 2, 62, 0
5, 8252, Note_on_c, 2, 61, 0
5, 8255, Note_on_c, 2, 59, 80
5, 8265, Note_on_c, 2, 61, 80
5, 8269, Note_on_c, 2, 59, 0
5, 8279, Note_on_c, 2, 61, 0
5, 8281, Note_on_c, 2, 62, 80
5, 8459, Note_on_c, 2, 60, 80
5, 8462, Note_on_c, 2, 62, 0
5, 8519, Note_on_c, 2, 60, 0
5, 8520, Note_on_c, 2, 59, 80
5, 8617, Note_on_c, 2, 59, 0
5, 8642, Note_on_c, 2, 60, 80
5, 8725, Note_on_c, 2, 60, 0
5, 8725, Note_on_c, 2, 62, 80
5, 8740, Note_on_c, 2, 64, 80
5, 8741, Note_on_c, 2, 62, 0
5, 8759, Note_on_c, 2, 59, 80
5, 8760, Note_on_c, 2, 64, 0
5, 8775, Note_on_c, 2, 57, 80
5, 8776, Note_on_c, 2, 59, 0
5, 8788, Note_on_c, 2, 59, 80
5, 8789, Note_on_c, 2, 57, 0
5, 8800, Note_on_c, 2, 59, 0
5, 8800, Note_on_c, 2, 57, 80
5, 8810, Note_on_c, 2, 59, 80
5, 8811, Note_on_c, 2, 57, 0
5, 8819, Note_on_c, 2, 59, 0
5, 8820, Note_on_c, 2, 57, 80
5, 8828, Note_on_c, 2, 59, 80
5, 8829, Note_on_c, 2, 57, 0
5, 8837, Note_on_c, 2, 59, 0
5, 8837, Note_on_c, 2, 57, 80
5, 8844, Note_on_c, 2, 59, 80
5, 8845, Note_on_c, 2, 57, 0
5, 8850, Note_on_c, 2, 59, 0
5, 8851, Note_on_c, 2, 57, 80
5, 8857, Note_on_c, 2, 59, 80
5, 8863, Note_on_c, 2, 59, 0
5, 8869, Note_on_c, 2, 59, 80
5, 8872, Note_on_c, 2, 57, 0
5, 8877, Note_on_c, 2, 57, 80
5, 8878, Note_on_c, 2, 59, 0
5, 8948, Note_on_c, 2, 55, 80
5, 8952, Note_on_c, 2, 57, 0
5, 8969, Note_on_c, 2, 55, 0
5, 8988, Note_on_c, 2, 55, 80
5, 9247, Note_on_c, 2, 55, 0
5, 11884, Note_on_c, 2, 55, 80
5, 11994, Note_on_c, 2, 55, 0
5, 11996, Note_on_c, 2, 57, 80
5, 12113, Note_on_c, 2, 59, 80
5, 12118, Note_on_c, 2, 57, 0
5, 12217, Note_on_c, 2, 59, 0
5, 12231, Note_on_c, 2, 60, 80
5, 12261, Note_on_c, 2, 62, 80
5, 12262, Note_on_c, 2, 60, 0
5, 12290, Note_on_c, 2, 64, 80
5, 12293, Note_on_c, 2, 62, 0
5, 12317, Note_on_c, 2, 64, 0
5, 12317, Note_on_c, 2, 60, 80
5, 12332, Note_on_c, 2, 60, 0
5, 12346, Note_on_c, 2, 59, 80
5, 12361, Note_on_c, 2, 59, 0
5, 12361, Note_on_c, 2, 57, 80
5, 12375, Note_on_c, 2, 57, 0
5, 12375, Note_on_c, 2, 59, 80
5, 12385, Note_on_c, 2, 59, 0
5, 12387, Note_on_c, 2, 57, 80
5, 12395, Note_on_c, 2, 59, 80
5, 12397, Note_on_c, 2, 57, 0
5, 12401, Note_on_c, 2, 59, 0
5, 12402, Note_on_c, 2, 57, 80
5, 12410, Note_on_c, 2, 59, 80
5, 12414, Note_on_c, 2, 59, 0
5, 12588, Note_on_c, 2, 57, 0
5, 12590, Note_on_c, 2, 59, 80
5, 12679, Note_on_c, 2, 60, 80
5, 12680, Note_on_c, 2, 59, 0
5, 12704, Note_on_c, 2, 59, 80
5, 12707, Note_on_c, 2, 60, 0
5, 12721, Note_on_c, 2, 57, 80
5, 12722, Note_on_c, 2, 59, 0
5, 12736, Note_on_c, 2, 57, 0
5, 12737, Note_on_c, 2, 59, 80
5, 12748, Note_on_c, 2, 59, 0
5, 12750, Note_on_c, 2, 57, 80
5, 12760, Note_on_c, 2, 57, 0
5, 12762, Note_on_c, 2, 59, 80
5, 12771, Note_on_c, 2, 59, 0
5, 12772, Note_on_c, 2, 57, 80
5, 12782, Note_on_c, 2, 57, 0
5, 12783, Note_on_c, 2, 59, 80
5, 12793, Note_on_c, 2, 59, 0
5, 12794, Note_on_c, 2, 57, 80
5, 12804, Note_on_c, 2, 57, 0
5, 12806, Note_on_c, 2, 59, 80
5, 12815, Note_on_c, 2, 59, 0
5, 12816, Note_on_c, 2, 57, 80
5, 12825, Note_on_c, 2, 57, 0
5, 12825, Note_on_c, 2, 59, 80
5, 12835, Note_on_c, 2, 59, 0
5, 12836, Note_on_c, 2, 57, 80
5, 12842, Note_on_c, 2, 57, 0
5, 12843, Note_on_c, 2, 59, 80
5, 12849, Note_on_c, 2, 59, 0
5, 12850, Note_on_c, 2, 57, 80
5, 12856, Note_on_c, 2, 59, 80
5, 12858, Note_on_c, 2, 57, 0
5, 12871, Note_on_c, 2, 57, 80
5, 12874, Note_on_c, 2, 59, 0
5, 12906, Note_on_c, 2, 55, 80
5, 12908, Note_on_c, 2, 57, 0
5, 12938, Note_on_c, 2, 57, 80
5, 12939, Note_on_c, 2, 55, 0
5, 12970, Note_on_c, 2, 55, 80
5, 12972, Note_on_c, 2, 57, 0
5, 13087, Note_on_c, 2, 55, 0
5, 14052, Note_on_c, 2, 55, 80
5, 14141, Note_on_c, 2, 57, 80
5, 14145, Note_on_c, 2, 55, 0
5, 14170, Note_on_c, 2, 59, 80
5, 14175, Note_on_c, 2, 57, 0
5, 14278, Note_on_c, 2, 61, 80
5, 14281, Note_on_c, 2, 59, 0
5, 14398, Note_on_c, 2, 62, 80
5, 14399, Note_on_c, 2, 61, 0
5, 14644, Note_on_c, 2, 64, 80
5, 14645, Note_on_c, 2, 62, 0
5, 14671, Note_on_c, 2, 62, 80
5, 14675, Note_on_c, 2, 64, 0
5, 14705, Note_on_c, 2, 64, 80
5, 14707, Note_on_c, 2, 62, 0
5, 14761, Note_on_c, 2, 59, 80
5, 14764, Note_on_c, 2, 64, 0
5, 14849, Note_on_c, 2, 61, 80
5, 14852, Note_on_c, 2, 59, 0
5, 14866, Note_on_c, 2, 62, 80
5, 14867, Note_on_c, 2, 61, 0
5, 14876, Note_on_c, 2, 62, 0
5, 14889, Note_on_c, 2, 62, 80
5, 14905, Note_on_c, 2, 61, 80
5, 14906, Note_on_c, 2, 62, 0
5, 14915, Note_on_c, 2, 61, 0
5, 14918, Note_on_c, 2, 62, 80
5, 14929, Note_on_c, 2, 62, 0
5, 14930, Note_on_c, 2, 61, 80
5, 14939, Note_on_c, 2, 61, 0
5, 14941, Note_on_c, 2, 62, 80
5, 14949, Note_on_c, 2, 61, 80
5, 14951, Note_on_c, 2, 62, 0
5, 14958, Note_on_c, 2, 61, 0
5, 14958, Note_on_c, 2, 62, 80
5, 14978, Note_on_c, 2, 61, 80
5, 14980, Note_on_c, 2, 62, 0
5, 14986, Note_on_c, 2, 61, 0
5, 14988, Note_on_c, 2, 62, 80
5, 14994, Note_on_c, 2, 61, 80
5, 14996, Note_on_c, 2, 62, 0
5, 15001, Note_on_c, 2, 61, 0
5, 15003, Note_on_c, 2, 62, 80
5, 15010, Note_on_c, 2, 61, 80
5, 15012, Note_on_c, 2, 62, 0
5, 15017, Note_on_c, 2, 61, 0
5, 15018, Note_on_c, 2, 62, 80
5, 15026, Note_on_c, 2, 61, 80
5, 15030, Note_on_c, 2, 62, 0
5, 15056, Note_on_c, 2, 59, 80
5, 15057, Note_on_c, 2, 61, 0
5, 15081, Note_on_c, 2, 61, 80
5, 15086, Note_on_c, 2, 59, 0
5, 15121, Note_on_c, 2, 61, 0
5, 15121, Note_on_c, 2, 62, 80
5, 15254, Note_on_c, 2, 62, 0
5, 16207, Note_on_c, 2, 59, 80
5, 16292, Note_on_c, 2, 60, 80
5, 16293, Note_on_c, 2, 59, 0
5, 16328, Note_on_c, 2, 62, 80
5, 16331, Note_on_c, 2, 60, 0
5, 16444, Note_on_c, 2, 64, 80
5, 16445, Note_on_c, 2, 62, 0
5, 16561, Note_on_c, 2, 62, 80
5, 16564, Note_on_c, 2, 64, 0
5, 16712, Note_on_c, 2, 62, 0
5, 16729, Note_on_c, 2, 60, 80
5, 16787, Note_on_c, 2, 62, 80
5, 16788, Note_on_c, 2, 60, 0
5, 16846, Note_on_c, 2, 59, 80
5, 16850, Note_on_c, 2, 62, 0
5, 16877, Note_on_c, 2, 59, 0
5, 16908, Note_on_c, 2, 59, 80
5, 16935, Note_on_c, 2, 60, 80
5, 16940, Note_on_c, 2, 59, 0
5, 16954, Note_on_c, 2, 60, 0
5, 16954, Note_on_c, 2, 62, 80
5, 16969, Note_on_c, 2, 60, 80
5, 16970, Note_on_c, 2, 62, 0
5, 16982, Note_on_c, 2, 60, 0
5, 16984, Note_on_c, 2, 62, 80
5, 16994, Note_on_c, 2, 60, 80
5, 16996, Note_on_c, 2, 62, 0
5, 17005, Note_on_c, 2, 60, 0
5, 17008, Note_on_c, 2, 62, 80
5, 17017, Note_on_c, 2, 60, 80
5, 17018, Note_on_c, 2, 62, 0
5, 17029, Note_on_c, 2, 60, 0
5, 17031, Note_on_c, 2, 62, 80
5, 17042, Note_on_c, 2, 62, 0
5, 17043, Note_on_c, 2, 60, 80
5, 17053, Note_on_c, 2, 60, 0
5, 17055, Note_on_c, 2, 62, 80
5, 17063, Note_on_c, 2, 60, 80
5, 17064, Note_on_c, 2, 62, 0
5, 17074, Note_on_c, 2, 60, 0
5, 17078, Note_on_c, 2, 62, 80
5, 17090, Note_on_c, 2, 62, 0
5, 17093, Note_on_c, 2, 60, 80
5, 17102, Note_on_c, 2, 60, 0
5, 17104, Note_on_c, 2, 62, 80
5, 17115, Note_on_c, 2, 62, 0
5, 17116, Note_on_c, 2, 60, 80
5, 17127, Note_on_c, 2, 60, 0
5, 17128, Note_on_c, 2, 62, 80
5, 17139, Note_on_c, 2, 62, 0
5, 17139, Note_on_c, 2, 60, 80
5, 17149, Note_on_c, 2, 60, 0
5, 17150, Note_on_c, 2, 62, 80
5, 17160, Note_on_c, 2, 60, 80
5, 17163, Note_on_c, 2, 62, 0
5, 17210, Note_on_c, 2, 60, 0
5, 17215, Note_on_c, 2, 59, 80
5, 17244, Note_on_c, 2, 60, 80
5, 17245, Note_on_c, 2, 59, 0
5, 17280, Note_on_c, 2, 59, 80
5, 17281, Note_on_c, 2, 60, 0
5, 17802, Note_on_c, 2, 59, 0
5, 19801, Note_on_c, 2, 64, 80
5, 19894, Note_on_c, 2, 64, 0
5, 19920, Note_on_c, 2, 64, 80
5, 19998, Note_on_c, 2, 64, 0
5, 20040, Note_on_c, 2, 64, 80
5, 20153, Note_on_c, 2, 64, 0
5, 20158, Note_on_c, 2, 57, 80
5, 20403, Note_on_c, 2, 57, 0
5, 20404, Note_on_c, 2, 62, 80
5, 20519, Note_on_c, 2, 62, 0
5, 20523, Note_on_c, 2, 60, 80
5, 20608, Note_on_c, 2, 60, 0
5, 20608, Note_on_c, 2, 59, 80
5, 20630, Note_on_c, 2, 59, 0
5, 20646, Note_on_c, 2, 60, 80
5, 20661, Note_on_c, 2, 59, 80
5, 20662, Note_on_c, 2, 60, 0
5, 20675, Note_on_c, 2, 59, 0
5, 20675, Note_on_c, 2, 60, 80
5, 20686, Note_on_c, 2, 60, 0
5, 20687, Note_on_c, 2, 59, 80
5, 20698, Note_on_c, 2, 59, 0
5, 20699, Note_on_c, 2, 60, 80
5, 20708, Note_on_c, 2, 60, 0
5, 20709, Note_on_c, 2, 59, 80
5, 20719, Note_on_c, 2, 59, 0
5, 20719, Note_on_c, 2, 60, 80
5, 20728, Note_on_c, 2, 60, 0
5, 20729, Note_on_c, 2, 59, 80
5, 20739, Note_on_c, 2, 59, 0
5, 20739, Note_on_c, 2, 60, 80
5, 20747, Note_on_c, 2, 60, 0
5, 20748, Note_on_c, 2, 59, 80
5, 20757, Note_on_c, 2, 59, 0
5, 20757, Note_on_c, 2, 60, 80
5, 20764, Note_on_c, 2, 60, 0
5, 20766, Note_on_c, 2, 59, 80
5, 20771, Note_on_c, 2, 60, 80
5, 20773, Note_on_c, 2, 59, 0
5, 20778, Note_on_c, 2, 60, 0
5, 20779, Note_on_c, 2, 59, 80
5, 20815, Note_on_c, 2, 57, 80
5, 20816, Note_on_c, 2, 59, 0
5, 20848, Note_on_c, 2, 57, 0
5, 20848, Note_on_c, 2, 59, 80
5, 20892, Note_on_c, 2, 57, 80
5, 20893, Note_on_c, 2, 59, 0
5, 21371, Note_on_c, 2, 57, 0
5, 23282, Note_on_c, 2, 60, 80
5, 23403, Note_on_c, 2, 59, 80
5, 23405, Note_on_c, 2, 60, 0
5, 23643, Note_on_c, 2, 59, 0
5, 23644, Note_on_c, 2, 57, 80
5, 23761, Note_on_c, 2, 55, 80
5, 23762, Note_on_c, 2, 57, 0
5, 23921, Note_on_c, 2, 55, 0
5, 23932, Note_on_c, 2, 58, 80
5, 23999, Note_on_c, 2, 57, 80
5, 24001, Note_on_c, 2, 58, 0
5, 24056, Note_on_c, 2, 55, 80
5, 24057, Note_on_c, 2, 57, 0
5, 24113, Note_on_c, 2, 55, 0
5, 24113, Note_on_c, 2, 53, 80
5, 24207, Note_on_c, 2, 55, 80
5, 24209, Note_on_c, 2, 53, 0
5, 24239, Note_on_c, 2, 53, 80
5, 24242, Note_on_c, 2, 55, 0
5, 24256, Note_on_c, 2, 52, 80
5, 24257, Note_on_c, 2, 53, 0
5, 24270, Note_on_c, 2, 53, 80
5, 24271, Note_on_c, 2, 52, 0
5, 24283, Note_on_c, 2, 53, 0
5, 24284, Note_on_c, 2, 52, 80
5, 24294, Note_on_c, 2, 52, 0
5, 24295, Note_on_c, 2, 53, 80
5, 24305, Note_on_c, 2, 53, 0
5, 24307, Note_on_c, 2, 52, 80
5, 24317, Note_on_c, 2, 52, 0
5, 24317, Note_on_c, 2, 53, 80
5, 24327, Note_on_c, 2, 53, 0
5, 24329, Note_on_c, 2, 52, 80
5, 24338, Note_on_c, 2, 52, 0
5, 24339, Note_on_c, 2, 53, 80
5, 24349, Note_on_c, 2, 53, 0
5, 24350, Note_on_c, 2, 52, 80
5, 24358, Note_on_c, 2, 52, 0
5, 24358, Note_on_c, 2, 53, 80
5, 24366, Note_on_c, 2, 53, 0
5, 24367, Note_on_c, 2, 52, 80
5, 24373, Note_on_c, 2, 53, 80
5, 24374, Note_on_c, 2, 52, 0
5, 24391, Note_on_c, 2, 52, 80
5, 24393, Note_on_c, 2, 53, 0
5, 24417, Note_on_c, 2, 50, 80
5, 24418, Note_on_c, 2, 52, 0
5, 24443, Note_on_c, 2, 50, 0
5, 24443, Note_on_c, 2, 52, 80
5, 24481, Note_on_c, 2, 50, 80
5, 24483, Note_on_c, 2, 52, 0
5, 24740, Note_on_c, 2, 50, 0
5, 25924, Note_on_c, 2, 50, 80
5, 26037, Note_on_c, 2, 55, 80
5, 26042, Note_on_c, 2, 50, 0
5, 26149, Note_on_c, 2, 57, 80
5, 26150, Note_on_c, 2, 55, 0
5, 26269, Note_on_c, 2, 57, 0
5, 26270, Note_on_c, 2, 59, 80
5, 26363, Note_on_c, 2, 59, 0
5, 26363, Note_on_c, 2, 60, 80
5, 26385, Note_on_c, 2, 60, 0
5, 26394, Note_on_c, 2, 62, 80
5, 26408, Note_on_c, 2, 62, 0
5, 26408, Note_on_c, 2, 60, 80
5, 26420, Note_on_c, 2, 60, 0
5, 26422, Note_on_c, 2, 62, 80
5, 26432, Note_on_c, 2, 62, 0
5, 26434, Note_on_c, 2, 60, 80
5, 26444, Note_on_c, 2, 60, 0
5, 26447, Note_on_c, 2, 62, 80
5, 26454, Note_on_c, 2, 62, 0
5, 26456, Note_on_c, 2, 60, 80
5, 26463, Note_on_c, 2, 60, 0
5, 26467, Note_on_c, 2, 62, 80
5, 26474, Note_on_c, 2, 62, 0
5, 26476, Note_on_c, 2, 60, 80
5, 26484, Note_on_c, 2, 60, 0
5, 26485, Note_on_c, 2, 62, 80
5, 26493, Note_on_c, 2, 62, 0
5, 26495, Note_on_c, 2, 60, 80
5, 26501, Note_on_c, 2, 60, 0
5, 26504, Note_on_c, 2, 62, 80
5, 26509, Note_on_c, 2, 62, 0
5, 26512, Note_on_c, 2, 60, 80
5, 26518, Note_on_c, 2, 60, 0
5, 26518, Note_on_c, 2, 62, 80
5, 26523, Note_on_c, 2, 62, 0
5, 26523, Note_on_c, 2, 60, 80
5, 26529, Note_on_c, 2, 62, 80
5, 26531, Note_on_c, 2, 60, 0
5, 26538, Note_on_c, 2, 60, 80
5, 26544, Note_on_c, 2, 62, 0
5, 26573, Note_on_c, 2, 60, 0
5, 26573, Note_on_c, 2, 59, 80
5, 26607, Note_on_c, 2, 60, 80
5, 26608, Note_on_c, 2, 59, 0
5, 26645, Note_on_c, 2, 60, 0
5, 26645, Note_on_c, 2, 62, 80
5, 26824, Note_on_c, 2, 60, 80
5, 26827, Note_on_c, 2, 62, 0
5, 26882, Note_on_c, 2, 60, 0
5, 26883, Note_on_c, 2, 59, 80
5, 26981, Note_on_c, 2, 59, 0
5, 27002, Note_on_c, 2, 60, 80
5, 27093, Note_on_c, 2, 62, 80
5, 27094, Note_on_c, 2, 60, 0
5, 27110, Note_on_c, 2, 62, 0
5, 27110, Note_on_c, 2, 59, 80
5, 27118, Note_on_c, 2, 59, 0
5, 27129, Note_on_c, 2, 59, 80
5, 27140, Note_on_c, 2, 59, 0
5, 27141, Note_on_c, 2, 57, 80
5, 27154, Note_on_c, 2, 57, 0
5, 27155, Note_on_c, 2, 59, 80
5, 27165, Note_on_c, 2, 59, 0
5, 27167, Note_on_c, 2, 57, 80
5, 27177, Note_on_c, 2, 57, 0
5, 27178, Note_on_c, 2, 59, 80
5, 27187, Note_on_c, 2, 59, 0
5, 27189, Note_on_c, 2, 57, 80
5, 27198, Note_on_c, 2, 57, 0
5, 27199, Note_on_c, 2, 59, 80
5, 27207, Note_on_c, 2, 59, 0
5, 27210, Note_on_c, 2, 57, 80
5, 27217, Note_on_c, 2, 59, 80
5, 27218, Note_on_c, 2, 57, 0
5, 27226, Note_on_c, 2, 59, 0
5, 27228, Note_on_c, 2, 57, 80
5, 27237, Note_on_c, 2, 57, 0
5, 27237, Note_on_c, 2, 59, 80
5, 27245, Note_on_c, 2, 59, 0
5, 27246, Note_on_c, 2, 57, 80
5, 27253, Note_on_c, 2, 59, 80
5, 27254, Note_on_c, 2, 57, 0
5, 27259, Note_on_c, 2, 59, 0
5, 27260, Note_on_c, 2, 57, 80
5, 27265, Note_on_c, 2, 59, 80
5, 27268, Note_on_c, 2, 57, 0
5, 27275, Note_on_c, 2, 57, 80
5, 27283, Note_on_c, 2, 59, 0
5, 27303, Note_on_c, 2, 55, 80
5, 27304, Note_on_c, 2, 57, 0
5, 27326, Note_on_c, 2, 55, 0
5, 27327, Note_on_c, 2, 57, 80
5, 27366, Note_on_c, 2, 55, 80
5, 27367, Note_on_c, 2, 57, 0
5, 29331, Note_on_c, 2, 55, 0
5, 29343, Note_on_c, 2, 54, 80
5, 29371, Note_on_c, 2, 52, 80
5, 29374, Note_on_c, 2, 54, 0
5, 29402, Note_on_c, 2, 50, 80
5, 29405, Note_on_c, 2, 52, 0
5, 29434, Note_on_c, 2, 48, 80
5, 29435, Note_on_c, 2, 50, 0
5, 29461, Note_on_c, 2, 48, 0
5, 29463, Note_on_c, 2, 47, 80
5, 29494, Note_on_c, 2, 47, 0
5, 29497, Note_on_c, 2, 45, 80
5, 29524, Note_on_c, 2, 45, 0
5, 29531, Note_on_c, 2, 43, 80
5, 29880, Note_on_c, 2, 43, 0
5, 29880, End_track
6, 0, Start_track
6, 0, MIDI_port, 0
6, 0, End_track
7, 0, Start_track
7, 0, Title_t, "An Wasserfluessen Babylon"
7, 0, MIDI_port, 0
7, 0, End_track
8, 0, Start_track
8, 0, Title_t, "by J S Bach (BWV 653)"
8, 0, MIDI_port, 0
8, 0, End_track
9, 0, Start_track
9, 0, MIDI_port, 0
9, 0, End_track
10, 0, Start_track
10, 0, Title_t, "Sequenced using WinJammer Professional"
10, 0, MIDI_port, 0
10, 0, End_track
11, 0, Start_track
11, 0, Title_t, "on Windows NT by Martin Robinson."
11, 0, MIDI_port, 0
11, 0, End_track
12, 0, Start_track
12, 0, Title_t, "(c) Martin Robinson 1997"
12, 0, MIDI_port, 0
12, 0, End_track
0, 0, End_of_file
