0, 0, Header, 1, 5, 240
1, 0, Start_track
1, 0, Time_signature, 2, 2, 24, 8
1, 0, Key_signature, 0, "major"
1, 0, Tempo, 600000
1, 0, Marker_t, "(c) Yo Tomita, 1997"
1, 31970, Tempo, 601805
1, 32015, Tempo, 604230
1, 32067, Tempo, 606673
1, 32125, Tempo, 608519
1, 32182, Tempo, 610998
1, 32192, Tempo, 600601
1, 38764, Tempo, 666667
1, 38880, Tempo, 681818
1, 39012, Tempo, 731707
1, 39156, Tempo, 789474
1, 39320, Tempo, 869565
1, 39360, Tempo, 923077
1, 39840, Tempo, 625000
1, 39840, End_track
2, 0, Start_track
2, 0, MIDI_port, 0
2, 0, Title_t, "BWV 870/2"
2, 0, Program_c, 0, 6
2, 2040, Note_on_c, 0, 72, 120
2, 2100, Note_on_c, 0, 72, 0
2, 2100, Note_on_c, 0, 71, 120
2, 2160, Note_on_c, 0, 71, 0
2, 2160, Note_on_c, 0, 72, 120
2, 2219, Note_on_c, 0, 72, 0
2, 2280, Note_on_c, 0, 67, 120
2, 2339, Note_on_c, 0, 67, 0
2, 2400, Note_on_c, 0, 76, 120
2, 2424, Note_on_c, 0, 74, 120
2, 2430, Note_on_c, 0, 76, 0
2, 2454, Note_on_c, 0, 74, 0
2, 2460, Note_on_c, 0, 76, 120
2, 2640, Note_on_c, 0, 76, 0
2, 2640, Note_on_c, 0, 74, 120
2, 3000, Note_on_c, 0, 74, 0
2, 3000, Note_on_c, 0, 72, 120
2, 3060, Note_on_c, 0, 72, 0
2, 3060, Note_on_c, 0, 71, 120
2, 3120, Note_on_c, 0, 71, 0
2, 3120, Note_on_c, 0, 72, 120
2, 3180, Note_on_c, 0, 72, 0
2, 3180, Note_on_c, 0, 74, 120
2, 3240, Note_on_c, 0, 74, 0
2, 3240, Note_on_c, 0, 71, 120
2, 3300, Note_on_c, 0, 71, 0
2, 3300, Note_on_c, 0, 72, 120
2, 3360, Note_on_c, 0, 72, 0
2, 3360, Note_on_c, 0, 69, 120
2, 3420, Note_on_c, 0, 69, 0
2, 3420, Note_on_c, 0, 72, 120
2, 3480, Note_on_c, 0, 72, 0
2, 3480, Note_on_c, 0, 71, 120
2, 3540, Note_on_c, 0, 71, 0
2, 3540, Note_on_c, 0, 72, 120
2, 3600, Note_on_c, 0, 72, 0
2, 3600, Note_on_c, 0, 74, 120
2, 3660, Note_on_c, 0, 74, 0
2, 3660, Note_on_c, 0, 76, 120
2, 3720, Note_on_c, 0, 76, 0
2, 3720, Note_on_c, 0, 72, 120
2, 3780, Note_on_c, 0, 72, 0
2, 3780, Note_on_c, 0, 74, 120
2, 3840, Note_on_c, 0, 74, 0
2, 3840, Note_on_c, 0, 71, 120
2, 3900, Note_on_c, 0, 71, 0
2, 3900, Note_on_c, 0, 69, 120
2, 3960, Note_on_c, 0, 69, 0
2, 3960, Note_on_c, 0, 71, 120
2, 4020, Note_on_c, 0, 71, 0
2, 4020, Note_on_c, 0, 72, 120
2, 4080, Note_on_c, 0, 72, 0
2, 4080, Note_on_c, 0, 71, 120
2, 4140, Note_on_c, 0, 71, 0
2, 4140, Note_on_c, 0, 72, 120
2, 4200, Note_on_c, 0, 72, 0
2, 4200, Note_on_c, 0, 69, 120
2, 4260, Note_on_c, 0, 69, 0
2, 4260, Note_on_c, 0, 71, 120
2, 4320, Note_on_c, 0, 71, 0
2, 4320, Note_on_c, 0, 72, 120
2, 4500, Note_on_c, 0, 72, 0
2, 4500, Note_on_c, 0, 69, 120
2, 4560, Note_on_c, 0, 69, 0
2, 4560, Note_on_c, 0, 70, 120
2, 4740, Note_on_c, 0, 70, 0
2, 4740, Note_on_c, 0, 67, 120
2, 4800, Note_on_c, 0, 67, 0
2, 4800, Note_on_c, 0, 69, 120
2, 5040, Note_on_c, 0, 69, 0
2, 5040, Note_on_c, 0, 71, 120
2, 5160, Note_on_c, 0, 71, 0
2, 5160, Note_on_c, 0, 72, 120
2, 5400, Note_on_c, 0, 72, 0
2, 5400, Note_on_c, 0, 72, 120
2, 5640, Note_on_c, 0, 72, 0
2, 5640, Note_on_c, 0, 71, 120
2, 5760, Note_on_c, 0, 71, 0
2, 5760, Note_on_c, 0, 72, 120
2, 5880, Note_on_c, 0, 72, 0
2, 5880, Note_on_c, 0, 79, 120
2, 5940, Note_on_c, 0, 79, 0
2, 5940, Note_on_c, 0, 77, 120
2, 6000, Note_on_c, 0, 77, 0
2, 6000, Note_on_c, 0, 79, 120
2, 6059, Note_on_c, 0, 79, 0
2, 6120, Note_on_c, 0, 72, 120
2, 6179, Note_on_c, 0, 72, 0
2, 6240, Note_on_c, 0, 81, 120
2, 6480, Note_on_c, 0, 81, 0
2, 6480, Note_on_c, 0, 79, 120
2, 6720, Note_on_c, 0, 79, 0
2, 6720, Note_on_c, 0, 78, 120
2, 6840, Note_on_c, 0, 78, 0
2, 6840, Note_on_c, 0, 81, 120
2, 6900, Note_on_c, 0, 81, 0
2, 6900, Note_on_c, 0, 79, 120
2, 6960, Note_on_c, 0, 79, 0
2, 6960, Note_on_c, 0, 81, 120
2, 7019, Note_on_c, 0, 81, 0
2, 7080, Note_on_c, 0, 74, 120
2, 7139, Note_on_c, 0, 74, 0
2, 7200, Note_on_c, 0, 83, 120
2, 7440, Note_on_c, 0, 83, 0
2, 7440, Note_on_c, 0, 81, 120
2, 7680, Note_on_c, 0, 81, 0
2, 7680, Note_on_c, 0, 80, 120
2, 7800, Note_on_c, 0, 80, 0
2, 7800, Note_on_c, 0, 83, 120
2, 7860, Note_on_c, 0, 83, 0
2, 7860, Note_on_c, 0, 81, 120
2, 7920, Note_on_c, 0, 81, 0
2, 7920, Note_on_c, 0, 83, 120
2, 7979, Note_on_c, 0, 83, 0
2, 8040, Note_on_c, 0, 76, 120
2, 8099, Note_on_c, 0, 76, 0
2, 8160, Note_on_c, 0, 84, 120
2, 8760, Note_on_c, 0, 84, 0
2, 8760, Note_on_c, 0, 84, 120
2, 8880, Note_on_c, 0, 84, 0
2, 8880, Note_on_c, 0, 83, 120
2, 9000, Note_on_c, 0, 83, 0
2, 9000, Note_on_c, 0, 79, 120
2, 9120, Note_on_c, 0, 79, 0
2, 9120, Note_on_c, 0, 76, 120
2, 9360, Note_on_c, 0, 76, 0
2, 9360, Note_on_c, 0, 78, 120
2, 9480, Note_on_c, 0, 78, 0
2, 9480, Note_on_c, 0, 79, 120
2, 9720, Note_on_c, 0, 79, 0
2, 9720, Note_on_c, 0, 78, 120
2, 9780, Note_on_c, 0, 78, 0
2, 9780, Note_on_c, 0, 76, 120
2, 9840, Note_on_c, 0, 76, 0
2, 9840, Note_on_c, 0, 79, 120
2, 9878, Note_on_c, 0, 78, 120
2, 9886, Note_on_c, 0, 79, 0
2, 9904, Note_on_c, 0, 79, 120
2, 9910, Note_on_c, 0, 78, 0
2, 9922, Note_on_c, 0, 78, 120
2, 9933, Note_on_c, 0, 79, 0
2, 9946, Note_on_c, 0, 79, 120
2, 9951, Note_on_c, 0, 78, 0
2, 9966, Note_on_c, 0, 78, 120
2, 9975, Note_on_c, 0, 79, 0
2, 10020, Note_on_c, 0, 79, 120
2, 10022, Note_on_c, 0, 78, 0
2, 10079, Note_on_c, 0, 79, 0
2, 10080, Note_on_c, 0, 79, 120
2, 10200, Note_on_c, 0, 79, 0
2, 10200, Note_on_c, 0, 76, 120
2, 10320, Note_on_c, 0, 76, 0
2, 10320, Note_on_c, 0, 73, 120
2, 10440, Note_on_c, 0, 73, 0
2, 10440, Note_on_c, 0, 74, 120
2, 10620, Note_on_c, 0, 74, 0
2, 10620, Note_on_c, 0, 79, 120
2, 10680, Note_on_c, 0, 79, 0
2, 10680, Note_on_c, 0, 82, 120
2, 10740, Note_on_c, 0, 82, 0
2, 10740, Note_on_c, 0, 81, 120
2, 10800, Note_on_c, 0, 81, 0
2, 10800, Note_on_c, 0, 79, 120
2, 10860, Note_on_c, 0, 79, 0
2, 10860, Note_on_c, 0, 77, 120
2, 10920, Note_on_c, 0, 77, 0
2, 10920, Note_on_c, 0, 76, 120
2, 10980, Note_on_c, 0, 76, 0
2, 10980, Note_on_c, 0, 74, 120
2, 11040, Note_on_c, 0, 74, 0
2, 11040, Note_on_c, 0, 73, 120
2, 11160, Note_on_c, 0, 73, 0
2, 11160, Note_on_c, 0, 74, 120
2, 11400, Note_on_c, 0, 74, 0
2, 11400, Note_on_c, 0, 73, 120
2, 11520, Note_on_c, 0, 73, 0
2, 11640, Note_on_c, 0, 74, 120
2, 11700, Note_on_c, 0, 74, 0
2, 11700, Note_on_c, 0, 73, 120
2, 11760, Note_on_c, 0, 73, 0
2, 11760, Note_on_c, 0, 74, 120
2, 11819, Note_on_c, 0, 74, 0
2, 11880, Note_on_c, 0, 69, 120
2, 11939, Note_on_c, 0, 69, 0
2, 12000, Note_on_c, 0, 77, 120
2, 12029, Note_on_c, 0, 77, 0
2, 12030, Note_on_c, 0, 76, 120
2, 12059, Note_on_c, 0, 76, 0
2, 12060, Note_on_c, 0, 77, 120
2, 12239, Note_on_c, 0, 77, 0
2, 12240, Note_on_c, 0, 76, 120
2, 12480, Note_on_c, 0, 76, 0
2, 12600, Note_on_c, 0, 74, 120
2, 12660, Note_on_c, 0, 74, 0
2, 12660, Note_on_c, 0, 72, 120
2, 12720, Note_on_c, 0, 72, 0
2, 12720, Note_on_c, 0, 74, 120
2, 12780, Note_on_c, 0, 74, 0
2, 12780, Note_on_c, 0, 76, 120
2, 12840, Note_on_c, 0, 76, 0
2, 12840, Note_on_c, 0, 72, 120
2, 12900, Note_on_c, 0, 72, 0
2, 12900, Note_on_c, 0, 74, 120
2, 12960, Note_on_c, 0, 74, 0
2, 12960, Note_on_c, 0, 71, 120
2, 13020, Note_on_c, 0, 71, 0
2, 13020, Note_on_c, 0, 74, 120
2, 13080, Note_on_c, 0, 74, 0
2, 13080, Note_on_c, 0, 72, 120
2, 13140, Note_on_c, 0, 72, 0
2, 13140, Note_on_c, 0, 74, 120
2, 13200, Note_on_c, 0, 74, 0
2, 13200, Note_on_c, 0, 76, 120
2, 13260, Note_on_c, 0, 76, 0
2, 13260, Note_on_c, 0, 77, 120
2, 13320, Note_on_c, 0, 77, 0
2, 13320, Note_on_c, 0, 74, 120
2, 13380, Note_on_c, 0, 74, 0
2, 13380, Note_on_c, 0, 76, 120
2, 13440, Note_on_c, 0, 76, 0
2, 13440, Note_on_c, 0, 72, 120
2, 13560, Note_on_c, 0, 72, 0
2, 13560, Note_on_c, 0, 76, 120
2, 13620, Note_on_c, 0, 76, 0
2, 13620, Note_on_c, 0, 74, 120
2, 13680, Note_on_c, 0, 74, 0
2, 13680, Note_on_c, 0, 76, 120
2, 13769, Note_on_c, 0, 76, 0
2, 13800, Note_on_c, 0, 72, 120
2, 13889, Note_on_c, 0, 72, 0
2, 13920, Note_on_c, 0, 81, 120
2, 14009, Note_on_c, 0, 81, 0
2, 14040, Note_on_c, 0, 72, 120
2, 14129, Note_on_c, 0, 72, 0
2, 14160, Note_on_c, 0, 69, 120
2, 14249, Note_on_c, 0, 69, 0
2, 14280, Note_on_c, 0, 74, 120
2, 14369, Note_on_c, 0, 74, 0
2, 14400, Note_on_c, 0, 71, 120
2, 14520, Note_on_c, 0, 71, 0
2, 14520, Note_on_c, 0, 74, 120
2, 14580, Note_on_c, 0, 74, 0
2, 14580, Note_on_c, 0, 72, 120
2, 14640, Note_on_c, 0, 72, 0
2, 14640, Note_on_c, 0, 74, 120
2, 14729, Note_on_c, 0, 74, 0
2, 14760, Note_on_c, 0, 71, 120
2, 14849, Note_on_c, 0, 71, 0
2, 14880, Note_on_c, 0, 79, 120
2, 14969, Note_on_c, 0, 79, 0
2, 15000, Note_on_c, 0, 70, 120
2, 15089, Note_on_c, 0, 70, 0
2, 15120, Note_on_c, 0, 67, 120
2, 15209, Note_on_c, 0, 67, 0
2, 15240, Note_on_c, 0, 72, 120
2, 15329, Note_on_c, 0, 72, 0
2, 15360, Note_on_c, 0, 69, 120
2, 15449, Note_on_c, 0, 69, 0
2, 15480, Note_on_c, 0, 74, 120
2, 15540, Note_on_c, 0, 74, 0
2, 15540, Note_on_c, 0, 72, 120
2, 15600, Note_on_c, 0, 72, 0
2, 15600, Note_on_c, 0, 74, 120
2, 15660, Note_on_c, 0, 74, 0
2, 15660, Note_on_c, 0, 76, 120
2, 15720, Note_on_c, 0, 76, 0
2, 15720, Note_on_c, 0, 72, 120
2, 15780, Note_on_c, 0, 72, 0
2, 15780, Note_on_c, 0, 74, 120
2, 15840, Note_on_c, 0, 74, 0
2, 15840, Note_on_c, 0, 71, 120
2, 15900, Note_on_c, 0, 71, 0
2, 15900, Note_on_c, 0, 69, 120
2, 15960, Note_on_c, 0, 69, 0
2, 15960, Note_on_c, 0, 71, 120
2, 16020, Note_on_c, 0, 71, 0
2, 16020, Note_on_c, 0, 72, 120
2, 16080, Note_on_c, 0, 72, 0
2, 16080, Note_on_c, 0, 71, 120
2, 16140, Note_on_c, 0, 71, 0
2, 16140, Note_on_c, 0, 72, 120
2, 16200, Note_on_c, 0, 72, 0
2, 16200, Note_on_c, 0, 69, 120
2, 16260, Note_on_c, 0, 69, 0
2, 16260, Note_on_c, 0, 71, 120
2, 16320, Note_on_c, 0, 71, 0
2, 16320, Note_on_c, 0, 67, 120
2, 16409, Note_on_c, 0, 67, 0
2, 16440, Note_on_c, 0, 72, 120
2, 16500, Note_on_c, 0, 72, 0
2, 16500, Note_on_c, 0, 71, 120
2, 16560, Note_on_c, 0, 71, 0
2, 16560, Note_on_c, 0, 72, 120
2, 16620, Note_on_c, 0, 72, 0
2, 16620, Note_on_c, 0, 74, 120
2, 16680, Note_on_c, 0, 74, 0
2, 16680, Note_on_c, 0, 70, 120
2, 16740, Note_on_c, 0, 70, 0
2, 16740, Note_on_c, 0, 72, 120
2, 16800, Note_on_c, 0, 72, 0
2, 16800, Note_on_c, 0, 69, 120
2, 16860, Note_on_c, 0, 69, 0
2, 16860, Note_on_c, 0, 67, 120
2, 16920, Note_on_c, 0, 67, 0
2, 16920, Note_on_c, 0, 69, 120
2, 16980, Note_on_c, 0, 69, 0
2, 16980, Note_on_c, 0, 70, 120
2, 17040, Note_on_c, 0, 70, 0
2, 17040, Note_on_c, 0, 69, 120
2, 17100, Note_on_c, 0, 69, 0
2, 17100, Note_on_c, 0, 70, 120
2, 17160, Note_on_c, 0, 70, 0
2, 17160, Note_on_c, 0, 67, 120
2, 17220, Note_on_c, 0, 67, 0
2, 17220, Note_on_c, 0, 69, 120
2, 17280, Note_on_c, 0, 69, 0
2, 17280, Note_on_c, 0, 67, 120
2, 17300, Note_on_c, 0, 67, 0
2, 17300, Note_on_c, 0, 65, 120
2, 17320, Note_on_c, 0, 67, 120
2, 17322, Note_on_c, 0, 65, 0
2, 17340, Note_on_c, 0, 65, 120
2, 17342, Note_on_c, 0, 67, 0
2, 17360, Note_on_c, 0, 67, 120
2, 17362, Note_on_c, 0, 65, 0
2, 17380, Note_on_c, 0, 65, 120
2, 17382, Note_on_c, 0, 67, 0
2, 17400, Note_on_c, 0, 67, 120
2, 17402, Note_on_c, 0, 65, 0
2, 17420, Note_on_c, 0, 65, 120
2, 17422, Note_on_c, 0, 67, 0
2, 17440, Note_on_c, 0, 67, 120
2, 17442, Note_on_c, 0, 65, 0
2, 17460, Note_on_c, 0, 65, 120
2, 17462, Note_on_c, 0, 67, 0
2, 17480, Note_on_c, 0, 67, 120
2, 17482, Note_on_c, 0, 65, 0
2, 17500, Note_on_c, 0, 65, 120
2, 17502, Note_on_c, 0, 67, 0
2, 17520, Note_on_c, 0, 67, 120
2, 17522, Note_on_c, 0, 65, 0
2, 17540, Note_on_c, 0, 65, 120
2, 17542, Note_on_c, 0, 67, 0
2, 17560, Note_on_c, 0, 67, 120
2, 17562, Note_on_c, 0, 65, 0
2, 17580, Note_on_c, 0, 65, 120
2, 17582, Note_on_c, 0, 67, 0
2, 17600, Note_on_c, 0, 67, 120
2, 17602, Note_on_c, 0, 65, 0
2, 17620, Note_on_c, 0, 65, 120
2, 17622, Note_on_c, 0, 67, 0
2, 17640, Note_on_c, 0, 67, 120
2, 17642, Note_on_c, 0, 65, 0
2, 17660, Note_on_c, 0, 65, 120
2, 17662, Note_on_c, 0, 67, 0
2, 17680, Note_on_c, 0, 67, 120
2, 17682, Note_on_c, 0, 65, 0
2, 17700, Note_on_c, 0, 65, 120
2, 17702, Note_on_c, 0, 67, 0
2, 17722, Note_on_c, 0, 65, 0
2, 17730, Note_on_c, 0, 67, 120
2, 17759, Note_on_c, 0, 67, 0
2, 17760, Note_on_c, 0, 65, 120
2, 17820, Note_on_c, 0, 65, 0
2, 17880, Note_on_c, 0, 74, 120
2, 17940, Note_on_c, 0, 74, 0
2, 17940, Note_on_c, 0, 72, 120
2, 18000, Note_on_c, 0, 72, 0
2, 18000, Note_on_c, 0, 74, 120
2, 18089, Note_on_c, 0, 74, 0
2, 18120, Note_on_c, 0, 65, 120
2, 18209, Note_on_c, 0, 65, 0
2, 18240, Note_on_c, 0, 64, 120
2, 18300, Note_on_c, 0, 64, 0
2, 18300, Note_on_c, 0, 62, 120
2, 18360, Note_on_c, 0, 62, 0
2, 18360, Note_on_c, 0, 64, 120
2, 18420, Note_on_c, 0, 64, 0
2, 18420, Note_on_c, 0, 65, 120
2, 18480, Note_on_c, 0, 65, 0
2, 18480, Note_on_c, 0, 64, 120
2, 18540, Note_on_c, 0, 64, 0
2, 18540, Note_on_c, 0, 65, 120
2, 18600, Note_on_c, 0, 65, 0
2, 18600, Note_on_c, 0, 62, 120
2, 18660, Note_on_c, 0, 62, 0
2, 18660, Note_on_c, 0, 64, 120
2, 18720, Note_on_c, 0, 64, 0
2, 18720, Note_on_c, 0, 60, 120
2, 18869, Note_on_c, 0, 60, 0
2, 18900, Note_on_c, 0, 60, 120
2, 18960, Note_on_c, 0, 60, 0
2, 18960, Note_on_c, 0, 59, 120
2, 19109, Note_on_c, 0, 59, 0
2, 19140, Note_on_c, 0, 59, 120
2, 19200, Note_on_c, 0, 59, 0
2, 19200, Note_on_c, 0, 57, 120
2, 19560, Note_on_c, 0, 57, 0
2, 19560, Note_on_c, 0, 59, 120
2, 19680, Note_on_c, 0, 59, 0
2, 19680, Note_on_c, 0, 60, 120
2, 20040, Note_on_c, 0, 60, 0
2, 20040, Note_on_c, 0, 57, 120
2, 20129, Note_on_c, 0, 57, 0
2, 20160, Note_on_c, 0, 62, 120
2, 20520, Note_on_c, 0, 62, 0
2, 20520, Note_on_c, 0, 59, 120
2, 20609, Note_on_c, 0, 59, 0
2, 20640, Note_on_c, 0, 64, 120
2, 21000, Note_on_c, 0, 64, 0
2, 21000, Note_on_c, 0, 60, 120
2, 21089, Note_on_c, 0, 60, 0
2, 21120, Note_on_c, 0, 65, 120
2, 21480, Note_on_c, 0, 65, 0
2, 21480, Note_on_c, 0, 62, 120
2, 21569, Note_on_c, 0, 62, 0
2, 21600, Note_on_c, 0, 67, 120
2, 21840, Note_on_c, 0, 67, 0
2, 21840, Note_on_c, 0, 69, 120
2, 21960, Note_on_c, 0, 69, 0
2, 21960, Note_on_c, 0, 71, 120
2, 22080, Note_on_c, 0, 71, 0
2, 22080, Note_on_c, 0, 72, 120
2, 23760, Note_on_c, 0, 72, 0
2, 23760, Note_on_c, 0, 71, 120
2, 24000, Note_on_c, 0, 71, 0
2, 24120, Note_on_c, 0, 72, 120
2, 24180, Note_on_c, 0, 72, 0
2, 24180, Note_on_c, 0, 71, 120
2, 24240, Note_on_c, 0, 71, 0
2, 24240, Note_on_c, 0, 72, 120
2, 24329, Note_on_c, 0, 72, 0
2, 24360, Note_on_c, 0, 67, 120
2, 24449, Note_on_c, 0, 67, 0
2, 24480, Note_on_c, 0, 76, 120
2, 24508, Note_on_c, 0, 74, 120
2, 24510, Note_on_c, 0, 76, 0
2, 24538, Note_on_c, 0, 74, 0
2, 24540, Note_on_c, 0, 76, 120
2, 24720, Note_on_c, 0, 76, 0
2, 24720, Note_on_c, 0, 74, 120
2, 24960, Note_on_c, 0, 74, 0
2, 25080, Note_on_c, 0, 72, 120
2, 25140, Note_on_c, 0, 72, 0
2, 25140, Note_on_c, 0, 71, 120
2, 25200, Note_on_c, 0, 71, 0
2, 25200, Note_on_c, 0, 72, 120
2, 25260, Note_on_c, 0, 72, 0
2, 25260, Note_on_c, 0, 74, 120
2, 25320, Note_on_c, 0, 74, 0
2, 25320, Note_on_c, 0, 71, 120
2, 25380, Note_on_c, 0, 71, 0
2, 25380, Note_on_c, 0, 72, 120
2, 25440, Note_on_c, 0, 72, 0
2, 25440, Note_on_c, 0, 69, 120
2, 25500, Note_on_c, 0, 69, 0
2, 25500, Note_on_c, 0, 72, 120
2, 25560, Note_on_c, 0, 72, 0
2, 25560, Note_on_c, 0, 71, 120
2, 25620, Note_on_c, 0, 71, 0
2, 25620, Note_on_c, 0, 72, 120
2, 25680, Note_on_c, 0, 72, 0
2, 25680, Note_on_c, 0, 74, 120
2, 25740, Note_on_c, 0, 74, 0
2, 25740, Note_on_c, 0, 76, 120
2, 25800, Note_on_c, 0, 76, 0
2, 25800, Note_on_c, 0, 72, 120
2, 25860, Note_on_c, 0, 72, 0
2, 25860, Note_on_c, 0, 74, 120
2, 25920, Note_on_c, 0, 74, 0
2, 25920, Note_on_c, 0, 71, 120
2, 26040, Note_on_c, 0, 71, 0
2, 26040, Note_on_c, 0, 74, 120
2, 26100, Note_on_c, 0, 74, 0
2, 26100, Note_on_c, 0, 72, 120
2, 26160, Note_on_c, 0, 72, 0
2, 26160, Note_on_c, 0, 74, 120
2, 26249, Note_on_c, 0, 74, 0
2, 26280, Note_on_c, 0, 67, 120
2, 26369, Note_on_c, 0, 67, 0
2, 26400, Note_on_c, 0, 76, 120
2, 26640, Note_on_c, 0, 76, 0
2, 26640, Note_on_c, 0, 74, 120
2, 26880, Note_on_c, 0, 74, 0
2, 26880, Note_on_c, 0, 72, 120
2, 27000, Note_on_c, 0, 72, 0
2, 27000, Note_on_c, 0, 76, 120
2, 27060, Note_on_c, 0, 76, 0
2, 27060, Note_on_c, 0, 74, 120
2, 27120, Note_on_c, 0, 74, 0
2, 27120, Note_on_c, 0, 76, 120
2, 27209, Note_on_c, 0, 76, 0
2, 27240, Note_on_c, 0, 69, 120
2, 27329, Note_on_c, 0, 69, 0
2, 27360, Note_on_c, 0, 77, 120
2, 27600, Note_on_c, 0, 77, 0
2, 27600, Note_on_c, 0, 76, 120
2, 27840, Note_on_c, 0, 76, 0
2, 27840, Note_on_c, 0, 74, 120
2, 27960, Note_on_c, 0, 74, 0
2, 27960, Note_on_c, 0, 77, 120
2, 28020, Note_on_c, 0, 77, 0
2, 28020, Note_on_c, 0, 76, 120
2, 28080, Note_on_c, 0, 76, 0
2, 28080, Note_on_c, 0, 77, 120
2, 28169, Note_on_c, 0, 77, 0
2, 28200, Note_on_c, 0, 71, 120
2, 28289, Note_on_c, 0, 71, 0
2, 28320, Note_on_c, 0, 79, 120
2, 28560, Note_on_c, 0, 79, 0
2, 28560, Note_on_c, 0, 77, 120
2, 28800, Note_on_c, 0, 77, 0
2, 28800, Note_on_c, 0, 76, 120
2, 28920, Note_on_c, 0, 76, 0
2, 28920, Note_on_c, 0, 77, 120
2, 29040, Note_on_c, 0, 77, 0
2, 29040, Note_on_c, 0, 79, 120
2, 29520, Note_on_c, 0, 79, 0
2, 29520, Note_on_c, 0, 77, 120
2, 30000, Note_on_c, 0, 77, 0
2, 30000, Note_on_c, 0, 76, 120
2, 30480, Note_on_c, 0, 76, 0
2, 30480, Note_on_c, 0, 74, 120
2, 30600, Note_on_c, 0, 74, 0
2, 30600, Note_on_c, 0, 72, 120
2, 30720, Note_on_c, 0, 72, 0
2, 30720, Note_on_c, 0, 71, 120
2, 30809, Note_on_c, 0, 71, 0
2, 30840, Note_on_c, 0, 67, 120
2, 30929, Note_on_c, 0, 67, 0
2, 30960, Note_on_c, 0, 72, 120
2, 31440, Note_on_c, 0, 72, 0
2, 31440, Note_on_c, 0, 71, 120
2, 31680, Note_on_c, 0, 71, 0
2, 31680, Note_on_c, 0, 72, 120
2, 31800, Note_on_c, 0, 72, 0
2, 31800, Note_on_c, 0, 74, 120
2, 31920, Note_on_c, 0, 74, 0
2, 31920, Note_on_c, 0, 67, 120
2, 31980, Note_on_c, 0, 67, 0
2, 31980, Note_on_c, 0, 72, 120
2, 32100, Note_on_c, 0, 72, 0
2, 32100, Note_on_c, 0, 71, 120
2, 32160, Note_on_c, 0, 71, 0
2, 32160, Note_on_c, 0, 72, 120
2, 32220, Note_on_c, 0, 72, 0
2, 32220, Note_on_c, 0, 65, 120
2, 32280, Note_on_c, 0, 65, 0
2, 32280, Note_on_c, 0, 64, 120
2, 32340, Note_on_c, 0, 64, 0
2, 32340, Note_on_c, 0, 62, 120
2, 32400, Note_on_c, 0, 62, 0
2, 32400, Note_on_c, 0, 64, 120
2, 32460, Note_on_c, 0, 64, 0
2, 32460, Note_on_c, 0, 65, 120
2, 32520, Note_on_c, 0, 65, 0
2, 32520, Note_on_c, 0, 62, 120
2, 32580, Note_on_c, 0, 62, 0
2, 32580, Note_on_c, 0, 64, 120
2, 32640, Note_on_c, 0, 64, 0
2, 32640, Note_on_c, 0, 65, 120
2, 32700, Note_on_c, 0, 65, 0
2, 32700, Note_on_c, 0, 64, 120
2, 32760, Note_on_c, 0, 64, 0
2, 32760, Note_on_c, 0, 65, 120
2, 32820, Note_on_c, 0, 65, 0
2, 32820, Note_on_c, 0, 67, 120
2, 32880, Note_on_c, 0, 67, 0
2, 32880, Note_on_c, 0, 65, 120
2, 32940, Note_on_c, 0, 65, 0
2, 32940, Note_on_c, 0, 67, 120
2, 33000, Note_on_c, 0, 67, 0
2, 33000, Note_on_c, 0, 64, 120
2, 33060, Note_on_c, 0, 64, 0
2, 33060, Note_on_c, 0, 65, 120
2, 33120, Note_on_c, 0, 65, 0
2, 33120, Note_on_c, 0, 62, 120
2, 33180, Note_on_c, 0, 62, 0
2, 33180, Note_on_c, 0, 60, 120
2, 33240, Note_on_c, 0, 60, 0
2, 33240, Note_on_c, 0, 62, 120
2, 33300, Note_on_c, 0, 62, 0
2, 33300, Note_on_c, 0, 64, 120
2, 33360, Note_on_c, 0, 64, 0
2, 33360, Note_on_c, 0, 62, 120
2, 33420, Note_on_c, 0, 62, 0
2, 33420, Note_on_c, 0, 64, 120
2, 33480, Note_on_c, 0, 64, 0
2, 33480, Note_on_c, 0, 60, 120
2, 33540, Note_on_c, 0, 60, 0
2, 33540, Note_on_c, 0, 62, 120
2, 33600, Note_on_c, 0, 62, 0
2, 33600, Note_on_c, 0, 64, 120
2, 33660, Note_on_c, 0, 64, 0
2, 33660, Note_on_c, 0, 62, 120
2, 33720, Note_on_c, 0, 62, 0
2, 33720, Note_on_c, 0, 64, 120
2, 33780, Note_on_c, 0, 64, 0
2, 33780, Note_on_c, 0, 65, 120
2, 33840, Note_on_c, 0, 65, 0
2, 33840, Note_on_c, 0, 64, 120
2, 33900, Note_on_c, 0, 64, 0
2, 33900, Note_on_c, 0, 65, 120
2, 33960, Note_on_c, 0, 65, 0
2, 33960, Note_on_c, 0, 62, 120
2, 34020, Note_on_c, 0, 62, 0
2, 34020, Note_on_c, 0, 64, 120
2, 34080, Note_on_c, 0, 64, 0
2, 34080, Note_on_c, 0, 60, 120
2, 35640, Note_on_c, 0, 60, 0
2, 35640, Note_on_c, 0, 59, 120
2, 35760, Note_on_c, 0, 59, 0
2, 35760, Note_on_c, 0, 60, 120
2, 35880, Note_on_c, 0, 60, 0
2, 35880, Note_on_c, 0, 62, 120
2, 36000, Note_on_c, 0, 62, 0
2, 36000, Note_on_c, 0, 64, 120
2, 36120, Note_on_c, 0, 64, 0
2, 36120, Note_on_c, 0, 67, 120
2, 36180, Note_on_c, 0, 67, 0
2, 36180, Note_on_c, 0, 65, 120
2, 36240, Note_on_c, 0, 65, 0
2, 36240, Note_on_c, 0, 67, 120
2, 36329, Note_on_c, 0, 67, 0
2, 36360, Note_on_c, 0, 60, 120
2, 36449, Note_on_c, 0, 60, 0
2, 36480, Note_on_c, 0, 69, 120
2, 36720, Note_on_c, 0, 69, 0
2, 36720, Note_on_c, 0, 67, 120
2, 36960, Note_on_c, 0, 67, 0
2, 37080, Note_on_c, 0, 65, 120
2, 37140, Note_on_c, 0, 65, 0
2, 37140, Note_on_c, 0, 64, 120
2, 37200, Note_on_c, 0, 64, 0
2, 37200, Note_on_c, 0, 65, 120
2, 37289, Note_on_c, 0, 65, 0
2, 37320, Note_on_c, 0, 62, 120
2, 37409, Note_on_c, 0, 62, 0
2, 37440, Note_on_c, 0, 67, 120
2, 37680, Note_on_c, 0, 67, 0
2, 37680, Note_on_c, 0, 65, 120
2, 37920, Note_on_c, 0, 65, 0
2, 37920, Note_on_c, 0, 64, 120
2, 38009, Note_on_c, 0, 64, 0
2, 38040, Note_on_c, 0, 68, 120
2, 38129, Note_on_c, 0, 68, 0
2, 38160, Note_on_c, 0, 67, 120
2, 38249, Note_on_c, 0, 67, 0
2, 38280, Note_on_c, 0, 71, 120
2, 38369, Note_on_c, 0, 71, 0
2, 38400, Note_on_c, 0, 72, 120
2, 38489, Note_on_c, 0, 72, 0
2, 38520, Note_on_c, 0, 65, 120
2, 38609, Note_on_c, 0, 65, 0
2, 38640, Note_on_c, 0, 64, 120
2, 38729, Note_on_c, 0, 64, 0
2, 38760, Note_on_c, 0, 72, 120
2, 38849, Note_on_c, 0, 72, 0
2, 38880, Note_on_c, 0, 62, 120
2, 38969, Note_on_c, 0, 62, 0
2, 39000, Note_on_c, 0, 72, 120
2, 39089, Note_on_c, 0, 72, 0
2, 39120, Note_on_c, 0, 65, 120
2, 39209, Note_on_c, 0, 65, 0
2, 39240, Note_on_c, 0, 71, 120
2, 39329, Note_on_c, 0, 71, 0
2, 39360, Note_on_c, 0, 72, 120
2, 39840, Note_on_c, 0, 72, 0
2, 39840, End_track
3, 0, Start_track
3, 0, MIDI_port, 0
3, 0, Title_t, "from WTC II"
3, 0, Program_c, 0, 6
3, 120, Note_on_c, 0, 67, 120
3, 180, Note_on_c, 0, 67, 0
3, 180, Note_on_c, 0, 65, 120
3, 240, Note_on_c, 0, 65, 0
3, 240, Note_on_c, 0, 67, 120
3, 299, Note_on_c, 0, 67, 0
3, 360, Note_on_c, 0, 60, 120
3, 419, Note_on_c, 0, 60, 0
3, 476, Note_on_c, 0, 69, 120
3, 504, Note_on_c, 0, 67, 120
3, 506, Note_on_c, 0, 69, 0
3, 534, Note_on_c, 0, 67, 0
3, 540, Note_on_c, 0, 69, 120
3, 720, Note_on_c, 0, 69, 0
3, 720, Note_on_c, 0, 67, 120
3, 960, Note_on_c, 0, 67, 0
3, 1080, Note_on_c, 0, 65, 120
3, 1140, Note_on_c, 0, 65, 0
3, 1140, Note_on_c, 0, 64, 120
3, 1200, Note_on_c, 0, 64, 0
3, 1200, Note_on_c, 0, 65, 120
3, 1260, Note_on_c, 0, 65, 0
3, 1260, Note_on_c, 0, 67, 120
3, 1320, Note_on_c, 0, 67, 0
3, 1320, Note_on_c, 0, 64, 120
3, 1380, Note_on_c, 0, 64, 0
3, 1380, Note_on_c, 0, 65, 120
3, 1440, Note_on_c, 0, 65, 0
3, 1440, Note_on_c, 0, 62, 120
3, 1500, Note_on_c, 0, 62, 0
3, 1500, Note_on_c, 0, 65, 120
3, 1560, Note_on_c, 0, 65, 0
3, 1560, Note_on_c, 0, 64, 120
3, 1620, Note_on_c, 0, 64, 0
3, 1620, Note_on_c, 0, 65, 120
3, 1680, Note_on_c, 0, 65, 0
3, 1680, Note_on_c, 0, 67, 120
3, 1740, Note_on_c, 0, 67, 0
3, 1740, Note_on_c, 0, 69, 120
3, 1800, Note_on_c, 0, 69, 0
3, 1800, Note_on_c, 0, 65, 120
3, 1860, Note_on_c, 0, 65, 0
3, 1860, Note_on_c, 0, 67, 120
3, 1920, Note_on_c, 0, 67, 0
3, 1920, Note_on_c, 0, 64, 120
3, 1980, Note_on_c, 0, 64, 0
3, 1980, Note_on_c, 0, 62, 120
3, 2040, Note_on_c, 0, 62, 0
3, 2040, Note_on_c, 0, 64, 120
3, 2100, Note_on_c, 0, 64, 0
3, 2100, Note_on_c, 0, 65, 120
3, 2160, Note_on_c, 0, 65, 0
3, 2160, Note_on_c, 0, 64, 120
3, 2220, Note_on_c, 0, 64, 0
3, 2220, Note_on_c, 0, 65, 120
3, 2280, Note_on_c, 0, 65, 0
3, 2280, Note_on_c, 0, 62, 120
3, 2340, Note_on_c, 0, 62, 0
3, 2340, Note_on_c, 0, 64, 120
3, 2400, Note_on_c, 0, 64, 0
3, 2400, Note_on_c, 0, 60, 120
3, 2460, Note_on_c, 0, 60, 0
3, 2460, Note_on_c, 0, 59, 120
3, 2520, Note_on_c, 0, 59, 0
3, 2520, Note_on_c, 0, 60, 120
3, 2580, Note_on_c, 0, 60, 0
3, 2580, Note_on_c, 0, 62, 120
3, 2640, Note_on_c, 0, 62, 0
3, 2640, Note_on_c, 0, 60, 120
3, 2700, Note_on_c, 0, 60, 0
3, 2700, Note_on_c, 0, 62, 120
3, 2760, Note_on_c, 0, 62, 0
3, 2760, Note_on_c, 0, 59, 120
3, 2820, Note_on_c, 0, 59, 0
3, 2820, Note_on_c, 0, 60, 120
3, 2880, Note_on_c, 0, 60, 0
3, 2880, Note_on_c, 0, 57, 120
3, 2940, Note_on_c, 0, 57, 0
3, 2940, Note_on_c, 0, 59, 120
3, 3000, Note_on_c, 0, 59, 0
3, 3000, Note_on_c, 0, 60, 120
3, 3060, Note_on_c, 0, 60, 0
3, 3060, Note_on_c, 0, 62, 120
3, 3120, Note_on_c, 0, 62, 0
3, 3120, Note_on_c, 0, 64, 120
3, 3180, Note_on_c, 0, 64, 0
3, 3180, Note_on_c, 0, 66, 120
3, 3240, Note_on_c, 0, 66, 0
3, 3240, Note_on_c, 0, 67, 120
3, 3480, Note_on_c, 0, 67, 0
3, 3480, Note_on_c, 0, 66, 120
3, 3540, Note_on_c, 0, 66, 0
3, 3540, Note_on_c, 0, 64, 120
3, 3600, Note_on_c, 0, 64, 0
3, 3600, Note_on_c, 0, 66, 120
3, 3628, Note_on_c, 0, 64, 120
3, 3630, Note_on_c, 0, 66, 0
3, 3658, Note_on_c, 0, 64, 0
3, 3660, Note_on_c, 0, 66, 120
3, 3840, Note_on_c, 0, 66, 0
3, 3840, Note_on_c, 0, 67, 120
3, 4380, Note_on_c, 0, 67, 0
3, 4380, Note_on_c, 0, 64, 120
3, 4440, Note_on_c, 0, 64, 0
3, 4440, Note_on_c, 0, 65, 120
3, 4620, Note_on_c, 0, 65, 0
3, 4620, Note_on_c, 0, 62, 120
3, 4680, Note_on_c, 0, 62, 0
3, 4680, Note_on_c, 0, 64, 120
3, 4920, Note_on_c, 0, 64, 0
3, 4920, Note_on_c, 0, 62, 120
3, 5040, Note_on_c, 0, 62, 0
3, 5040, Note_on_c, 0, 67, 120
3, 5280, Note_on_c, 0, 67, 0
3, 5280, Note_on_c, 0, 65, 120
3, 5340, Note_on_c, 0, 65, 0
3, 5340, Note_on_c, 0, 69, 120
3, 5400, Note_on_c, 0, 69, 0
3, 5400, Note_on_c, 0, 67, 120
3, 5460, Note_on_c, 0, 67, 0
3, 5460, Note_on_c, 0, 69, 120
3, 5520, Note_on_c, 0, 69, 0
3, 5520, Note_on_c, 0, 62, 120
3, 5760, Note_on_c, 0, 62, 0
3, 5760, Note_on_c, 0, 60, 120
3, 5819, Note_on_c, 0, 60, 0
3, 6360, Note_on_c, 0, 72, 120
3, 6420, Note_on_c, 0, 72, 0
3, 6420, Note_on_c, 0, 71, 120
3, 6480, Note_on_c, 0, 71, 0
3, 6480, Note_on_c, 0, 72, 120
3, 6539, Note_on_c, 0, 72, 0
3, 6600, Note_on_c, 0, 67, 120
3, 6659, Note_on_c, 0, 67, 0
3, 6720, Note_on_c, 0, 74, 120
3, 6960, Note_on_c, 0, 74, 0
3, 6960, Note_on_c, 0, 72, 120
3, 7200, Note_on_c, 0, 72, 0
3, 7200, Note_on_c, 0, 71, 120
3, 7320, Note_on_c, 0, 71, 0
3, 7320, Note_on_c, 0, 74, 120
3, 7380, Note_on_c, 0, 74, 0
3, 7380, Note_on_c, 0, 72, 120
3, 7440, Note_on_c, 0, 72, 0
3, 7440, Note_on_c, 0, 74, 120
3, 7499, Note_on_c, 0, 74, 0
3, 7560, Note_on_c, 0, 69, 120
3, 7619, Note_on_c, 0, 69, 0
3, 7680, Note_on_c, 0, 76, 120
3, 7920, Note_on_c, 0, 76, 0
3, 7920, Note_on_c, 0, 74, 120
3, 8160, Note_on_c, 0, 74, 0
3, 8160, Note_on_c, 0, 72, 120
3, 8280, Note_on_c, 0, 72, 0
3, 8280, Note_on_c, 0, 76, 120
3, 8340, Note_on_c, 0, 76, 0
3, 8340, Note_on_c, 0, 74, 120
3, 8400, Note_on_c, 0, 74, 0
3, 8400, Note_on_c, 0, 76, 120
3, 8520, Note_on_c, 0, 76, 0
3, 8520, Note_on_c, 0, 81, 120
3, 8640, Note_on_c, 0, 81, 0
3, 8640, Note_on_c, 0, 74, 120
3, 9240, Note_on_c, 0, 74, 0
3, 9240, Note_on_c, 0, 72, 120
3, 9300, Note_on_c, 0, 72, 0
3, 9300, Note_on_c, 0, 71, 120
3, 9360, Note_on_c, 0, 71, 0
3, 9360, Note_on_c, 0, 69, 120
3, 9480, Note_on_c, 0, 69, 0
3, 9480, Note_on_c, 0, 71, 120
3, 9720, Note_on_c, 0, 71, 0
3, 9720, Note_on_c, 0, 69, 120
3, 9780, Note_on_c, 0, 69, 0
3, 9780, Note_on_c, 0, 67, 120
3, 9840, Note_on_c, 0, 67, 0
3, 9840, Note_on_c, 0, 69, 120
3, 9960, Note_on_c, 0, 69, 0
3, 9960, Note_on_c, 0, 62, 120
3, 10080, Note_on_c, 0, 62, 0
3, 10080, Note_on_c, 0, 71, 120
3, 10320, Note_on_c, 0, 71, 0
3, 10320, Note_on_c, 0, 69, 120
3, 10560, Note_on_c, 0, 69, 0
3, 10680, Note_on_c, 0, 67, 120
3, 10740, Note_on_c, 0, 67, 0
3, 10740, Note_on_c, 0, 65, 120
3, 10800, Note_on_c, 0, 65, 0
3, 10800, Note_on_c, 0, 67, 120
3, 10860, Note_on_c, 0, 67, 0
3, 10860, Note_on_c, 0, 69, 120
3, 10920, Note_on_c, 0, 69, 0
3, 10920, Note_on_c, 0, 65, 120
3, 10980, Note_on_c, 0, 65, 0
3, 10980, Note_on_c, 0, 67, 120
3, 11040, Note_on_c, 0, 67, 0
3, 11040, Note_on_c, 0, 64, 120
3, 11100, Note_on_c, 0, 64, 0
3, 11100, Note_on_c, 0, 67, 120
3, 11160, Note_on_c, 0, 67, 0
3, 11160, Note_on_c, 0, 65, 120
3, 11220, Note_on_c, 0, 65, 0
3, 11220, Note_on_c, 0, 67, 120
3, 11280, Note_on_c, 0, 67, 0
3, 11280, Note_on_c, 0, 69, 120
3, 11340, Note_on_c, 0, 69, 0
3, 11340, Note_on_c, 0, 70, 120
3, 11400, Note_on_c, 0, 70, 0
3, 11400, Note_on_c, 0, 67, 120
3, 11460, Note_on_c, 0, 67, 0
3, 11460, Note_on_c, 0, 69, 120
3, 11520, Note_on_c, 0, 69, 0
3, 11520, Note_on_c, 0, 65, 120
3, 11580, Note_on_c, 0, 65, 0
3, 11580, Note_on_c, 0, 64, 120
3, 11640, Note_on_c, 0, 64, 0
3, 11640, Note_on_c, 0, 65, 120
3, 11700, Note_on_c, 0, 65, 0
3, 11700, Note_on_c, 0, 67, 120
3, 11760, Note_on_c, 0, 67, 0
3, 11760, Note_on_c, 0, 65, 120
3, 11820, Note_on_c, 0, 65, 0
3, 11820, Note_on_c, 0, 67, 120
3, 11880, Note_on_c, 0, 67, 0
3, 11880, Note_on_c, 0, 64, 120
3, 11940, Note_on_c, 0, 64, 0
3, 11940, Note_on_c, 0, 65, 120
3, 12000, Note_on_c, 0, 65, 0
3, 12000, Note_on_c, 0, 62, 120
3, 12060, Note_on_c, 0, 62, 0
3, 12060, Note_on_c, 0, 60, 120
3, 12120, Note_on_c, 0, 60, 0
3, 12120, Note_on_c, 0, 62, 120
3, 12180, Note_on_c, 0, 62, 0
3, 12180, Note_on_c, 0, 64, 120
3, 12240, Note_on_c, 0, 64, 0
3, 12240, Note_on_c, 0, 62, 120
3, 12300, Note_on_c, 0, 62, 0
3, 12300, Note_on_c, 0, 64, 120
3, 12360, Note_on_c, 0, 64, 0
3, 12360, Note_on_c, 0, 60, 120
3, 12420, Note_on_c, 0, 60, 0
3, 12420, Note_on_c, 0, 62, 120
3, 12480, Note_on_c, 0, 62, 0
3, 12480, Note_on_c, 0, 59, 120
3, 12540, Note_on_c, 0, 59, 0
3, 12540, Note_on_c, 0, 60, 120
3, 12600, Note_on_c, 0, 60, 0
3, 12600, Note_on_c, 0, 62, 120
3, 12660, Note_on_c, 0, 62, 0
3, 12660, Note_on_c, 0, 64, 120
3, 12720, Note_on_c, 0, 64, 0
3, 12720, Note_on_c, 0, 66, 120
3, 12780, Note_on_c, 0, 66, 0
3, 12780, Note_on_c, 0, 68, 120
3, 12840, Note_on_c, 0, 68, 0
3, 12840, Note_on_c, 0, 69, 120
3, 13080, Note_on_c, 0, 69, 0
3, 13080, Note_on_c, 0, 68, 120
3, 13140, Note_on_c, 0, 68, 0
3, 13140, Note_on_c, 0, 66, 120
3, 13200, Note_on_c, 0, 66, 0
3, 13200, Note_on_c, 0, 69, 120
3, 13220, Note_on_c, 0, 69, 0
3, 13220, Note_on_c, 0, 68, 120
3, 13240, Note_on_c, 0, 68, 0
3, 13240, Note_on_c, 0, 69, 120
3, 13260, Note_on_c, 0, 69, 0
3, 13260, Note_on_c, 0, 68, 120
3, 13280, Note_on_c, 0, 68, 0
3, 13280, Note_on_c, 0, 69, 120
3, 13300, Note_on_c, 0, 69, 0
3, 13300, Note_on_c, 0, 68, 120
3, 13440, Note_on_c, 0, 68, 0
3, 13440, Note_on_c, 0, 69, 120
3, 13500, Note_on_c, 0, 69, 0
3, 13500, Note_on_c, 0, 68, 120
3, 13560, Note_on_c, 0, 68, 0
3, 13560, Note_on_c, 0, 69, 120
3, 13620, Note_on_c, 0, 69, 0
3, 13620, Note_on_c, 0, 71, 120
3, 13680, Note_on_c, 0, 71, 0
3, 13680, Note_on_c, 0, 69, 120
3, 13740, Note_on_c, 0, 69, 0
3, 13740, Note_on_c, 0, 71, 120
3, 13800, Note_on_c, 0, 71, 0
3, 13800, Note_on_c, 0, 67, 120
3, 13860, Note_on_c, 0, 67, 0
3, 13860, Note_on_c, 0, 69, 120
3, 13920, Note_on_c, 0, 69, 0
3, 13920, Note_on_c, 0, 66, 120
3, 13980, Note_on_c, 0, 66, 0
3, 13980, Note_on_c, 0, 64, 120
3, 14040, Note_on_c, 0, 64, 0
3, 14040, Note_on_c, 0, 66, 120
3, 14100, Note_on_c, 0, 66, 0
3, 14100, Note_on_c, 0, 67, 120
3, 14160, Note_on_c, 0, 67, 0
3, 14160, Note_on_c, 0, 66, 120
3, 14220, Note_on_c, 0, 66, 0
3, 14220, Note_on_c, 0, 67, 120
3, 14280, Note_on_c, 0, 67, 0
3, 14280, Note_on_c, 0, 64, 120
3, 14340, Note_on_c, 0, 64, 0
3, 14340, Note_on_c, 0, 66, 120
3, 14400, Note_on_c, 0, 66, 0
3, 14400, Note_on_c, 0, 67, 120
3, 14460, Note_on_c, 0, 67, 0
3, 14460, Note_on_c, 0, 66, 120
3, 14520, Note_on_c, 0, 66, 0
3, 14520, Note_on_c, 0, 67, 120
3, 14580, Note_on_c, 0, 67, 0
3, 14580, Note_on_c, 0, 69, 120
3, 14640, Note_on_c, 0, 69, 0
3, 14640, Note_on_c, 0, 67, 120
3, 14700, Note_on_c, 0, 67, 0
3, 14700, Note_on_c, 0, 69, 120
3, 14760, Note_on_c, 0, 69, 0
3, 14760, Note_on_c, 0, 65, 120
3, 14820, Note_on_c, 0, 65, 0
3, 14820, Note_on_c, 0, 67, 120
3, 14880, Note_on_c, 0, 67, 0
3, 14880, Note_on_c, 0, 64, 120
3, 14940, Note_on_c, 0, 64, 0
3, 14940, Note_on_c, 0, 62, 120
3, 15000, Note_on_c, 0, 62, 0
3, 15000, Note_on_c, 0, 64, 120
3, 15060, Note_on_c, 0, 64, 0
3, 15060, Note_on_c, 0, 65, 120
3, 15120, Note_on_c, 0, 65, 0
3, 15120, Note_on_c, 0, 64, 120
3, 15180, Note_on_c, 0, 64, 0
3, 15180, Note_on_c, 0, 65, 120
3, 15240, Note_on_c, 0, 65, 0
3, 15240, Note_on_c, 0, 62, 120
3, 15300, Note_on_c, 0, 62, 0
3, 15300, Note_on_c, 0, 64, 120
3, 15360, Note_on_c, 0, 64, 0
3, 15360, Note_on_c, 0, 65, 120
3, 15420, Note_on_c, 0, 65, 0
3, 15420, Note_on_c, 0, 64, 120
3, 15480, Note_on_c, 0, 64, 0
3, 15480, Note_on_c, 0, 65, 120
3, 15540, Note_on_c, 0, 65, 0
3, 15540, Note_on_c, 0, 67, 120
3, 15600, Note_on_c, 0, 67, 0
3, 15600, Note_on_c, 0, 65, 120
3, 15660, Note_on_c, 0, 65, 0
3, 15660, Note_on_c, 0, 67, 120
3, 15720, Note_on_c, 0, 67, 0
3, 15720, Note_on_c, 0, 64, 120
3, 15780, Note_on_c, 0, 64, 0
3, 15780, Note_on_c, 0, 65, 120
3, 15840, Note_on_c, 0, 65, 0
3, 15840, Note_on_c, 0, 62, 120
3, 15929, Note_on_c, 0, 62, 0
3, 15960, Note_on_c, 0, 67, 120
3, 16020, Note_on_c, 0, 67, 0
3, 16020, Note_on_c, 0, 65, 120
3, 16080, Note_on_c, 0, 65, 0
3, 16080, Note_on_c, 0, 67, 120
3, 16140, Note_on_c, 0, 67, 0
3, 16140, Note_on_c, 0, 69, 120
3, 16196, Note_on_c, 0, 69, 0
3, 16200, Note_on_c, 0, 65, 120
3, 16260, Note_on_c, 0, 65, 0
3, 16260, Note_on_c, 0, 67, 120
3, 16320, Note_on_c, 0, 67, 0
3, 16320, Note_on_c, 0, 64, 120
3, 16380, Note_on_c, 0, 64, 0
3, 16380, Note_on_c, 0, 62, 120
3, 16440, Note_on_c, 0, 62, 0
3, 16440, Note_on_c, 0, 64, 120
3, 16500, Note_on_c, 0, 64, 0
3, 16500, Note_on_c, 0, 65, 120
3, 16560, Note_on_c, 0, 65, 0
3, 16560, Note_on_c, 0, 64, 120
3, 16620, Note_on_c, 0, 64, 0
3, 16620, Note_on_c, 0, 65, 120
3, 16680, Note_on_c, 0, 65, 0
3, 16680, Note_on_c, 0, 62, 120
3, 16740, Note_on_c, 0, 62, 0
3, 16740, Note_on_c, 0, 64, 120
3, 16800, Note_on_c, 0, 64, 0
3, 16800, Note_on_c, 0, 60, 120
3, 16889, Note_on_c, 0, 60, 0
3, 16920, Note_on_c, 0, 65, 120
3, 16980, Note_on_c, 0, 65, 0
3, 16980, Note_on_c, 0, 64, 120
3, 17040, Note_on_c, 0, 64, 0
3, 17040, Note_on_c, 0, 65, 120
3, 17100, Note_on_c, 0, 65, 0
3, 17100, Note_on_c, 0, 67, 120
3, 17156, Note_on_c, 0, 67, 0
3, 17160, Note_on_c, 0, 64, 120
3, 17220, Note_on_c, 0, 64, 0
3, 17220, Note_on_c, 0, 65, 120
3, 17280, Note_on_c, 0, 65, 0
3, 17280, Note_on_c, 0, 62, 120
3, 17340, Note_on_c, 0, 62, 0
3, 17340, Note_on_c, 0, 60, 120
3, 17400, Note_on_c, 0, 60, 0
3, 17400, Note_on_c, 0, 62, 120
3, 17460, Note_on_c, 0, 62, 0
3, 17460, Note_on_c, 0, 64, 120
3, 17520, Note_on_c, 0, 64, 0
3, 17520, Note_on_c, 0, 62, 120
3, 17580, Note_on_c, 0, 62, 0
3, 17580, Note_on_c, 0, 64, 120
3, 17640, Note_on_c, 0, 64, 0
3, 17640, Note_on_c, 0, 60, 120
3, 17700, Note_on_c, 0, 60, 0
3, 17700, Note_on_c, 0, 62, 120
3, 17760, Note_on_c, 0, 62, 0
3, 17760, Note_on_c, 0, 59, 120
3, 17820, Note_on_c, 0, 59, 0
3, 17820, Note_on_c, 0, 57, 120
3, 17880, Note_on_c, 0, 57, 0
3, 17880, Note_on_c, 0, 59, 120
3, 17940, Note_on_c, 0, 59, 0
3, 17940, Note_on_c, 0, 60, 120
3, 18000, Note_on_c, 0, 60, 0
3, 18000, Note_on_c, 0, 59, 120
3, 18060, Note_on_c, 0, 59, 0
3, 18060, Note_on_c, 0, 60, 120
3, 18120, Note_on_c, 0, 60, 0
3, 18120, Note_on_c, 0, 57, 120
3, 18180, Note_on_c, 0, 57, 0
3, 18180, Note_on_c, 0, 59, 120
3, 18240, Note_on_c, 0, 59, 0
3, 18240, Note_on_c, 0, 60, 120
3, 18600, Note_on_c, 0, 60, 0
3, 18600, Note_on_c, 0, 59, 120
3, 18749, Note_on_c, 0, 59, 0
3, 18780, Note_on_c, 0, 59, 120
3, 18840, Note_on_c, 0, 59, 0
3, 18840, Note_on_c, 0, 57, 120
3, 18989, Note_on_c, 0, 57, 0
3, 19020, Note_on_c, 0, 57, 120
3, 19080, Note_on_c, 0, 57, 0
3, 19080, Note_on_c, 0, 55, 120
3, 19289, Note_on_c, 0, 55, 0
3, 19320, Note_on_c, 0, 55, 120
3, 19440, Note_on_c, 0, 55, 0
3, 19440, Note_on_c, 0, 54, 120
3, 19560, Note_on_c, 0, 54, 0
3, 19560, Note_on_c, 0, 55, 120
3, 19740, Note_on_c, 0, 55, 0
3, 19740, Note_on_c, 0, 54, 120
3, 19800, Note_on_c, 0, 54, 0
3, 19800, Note_on_c, 0, 55, 120
3, 19860, Note_on_c, 0, 55, 0
3, 19860, Note_on_c, 0, 52, 120
3, 19920, Note_on_c, 0, 52, 0
3, 19920, Note_on_c, 0, 54, 120
3, 20280, Note_on_c, 0, 54, 0
3, 20280, Note_on_c, 0, 59, 120
3, 20369, Note_on_c, 0, 59, 0
3, 20400, Note_on_c, 0, 55, 120
3, 20760, Note_on_c, 0, 55, 0
3, 20760, Note_on_c, 0, 60, 120
3, 20849, Note_on_c, 0, 60, 0
3, 20880, Note_on_c, 0, 57, 120
3, 21240, Note_on_c, 0, 57, 0
3, 21240, Note_on_c, 0, 62, 120
3, 21329, Note_on_c, 0, 62, 0
3, 21360, Note_on_c, 0, 59, 120
3, 21720, Note_on_c, 0, 59, 0
3, 21720, Note_on_c, 0, 59, 120
3, 21840, Note_on_c, 0, 59, 0
3, 21840, Note_on_c, 0, 60, 120
3, 21960, Note_on_c, 0, 60, 0
3, 21960, Note_on_c, 0, 62, 120
3, 22080, Note_on_c, 0, 62, 0
3, 22080, Note_on_c, 0, 64, 120
3, 22200, Note_on_c, 0, 64, 0
3, 22200, Note_on_c, 0, 67, 120
3, 22260, Note_on_c, 0, 67, 0
3, 22260, Note_on_c, 0, 65, 120
3, 22320, Note_on_c, 0, 65, 0
3, 22320, Note_on_c, 0, 67, 120
3, 22409, Note_on_c, 0, 67, 0
3, 22440, Note_on_c, 0, 60, 120
3, 22529, Note_on_c, 0, 60, 0
3, 22560, Note_on_c, 0, 69, 120
3, 22588, Note_on_c, 0, 67, 120
3, 22590, Note_on_c, 0, 69, 0
3, 22618, Note_on_c, 0, 67, 0
3, 22620, Note_on_c, 0, 69, 120
3, 22800, Note_on_c, 0, 69, 0
3, 22800, Note_on_c, 0, 67, 120
3, 23040, Note_on_c, 0, 67, 0
3, 23160, Note_on_c, 0, 65, 120
3, 23220, Note_on_c, 0, 65, 0
3, 23220, Note_on_c, 0, 64, 120
3, 23280, Note_on_c, 0, 64, 0
3, 23280, Note_on_c, 0, 65, 120
3, 23340, Note_on_c, 0, 65, 0
3, 23340, Note_on_c, 0, 67, 120
3, 23400, Note_on_c, 0, 67, 0
3, 23400, Note_on_c, 0, 64, 120
3, 23460, Note_on_c, 0, 64, 0
3, 23460, Note_on_c, 0, 65, 120
3, 23520, Note_on_c, 0, 65, 0
3, 23520, Note_on_c, 0, 62, 120
3, 23580, Note_on_c, 0, 62, 0
3, 23580, Note_on_c, 0, 65, 120
3, 23640, Note_on_c, 0, 65, 0
3, 23640, Note_on_c, 0, 64, 120
3, 23700, Note_on_c, 0, 64, 0
3, 23700, Note_on_c, 0, 65, 120
3, 23760, Note_on_c, 0, 65, 0
3, 23760, Note_on_c, 0, 67, 120
3, 23820, Note_on_c, 0, 67, 0
3, 23820, Note_on_c, 0, 69, 120
3, 23880, Note_on_c, 0, 69, 0
3, 23880, Note_on_c, 0, 65, 120
3, 23940, Note_on_c, 0, 65, 0
3, 23940, Note_on_c, 0, 67, 120
3, 24000, Note_on_c, 0, 67, 0
3, 24000, Note_on_c, 0, 64, 120
3, 24060, Note_on_c, 0, 64, 0
3, 24060, Note_on_c, 0, 62, 120
3, 24120, Note_on_c, 0, 62, 0
3, 24120, Note_on_c, 0, 64, 120
3, 24180, Note_on_c, 0, 64, 0
3, 24180, Note_on_c, 0, 65, 120
3, 24240, Note_on_c, 0, 65, 0
3, 24240, Note_on_c, 0, 64, 120
3, 24300, Note_on_c, 0, 64, 0
3, 24300, Note_on_c, 0, 65, 120
3, 24360, Note_on_c, 0, 65, 0
3, 24360, Note_on_c, 0, 62, 120
3, 24420, Note_on_c, 0, 62, 0
3, 24420, Note_on_c, 0, 64, 120
3, 24480, Note_on_c, 0, 64, 0
3, 24480, Note_on_c, 0, 60, 120
3, 24540, Note_on_c, 0, 60, 0
3, 24540, Note_on_c, 0, 59, 120
3, 24600, Note_on_c, 0, 59, 0
3, 24600, Note_on_c, 0, 60, 120
3, 24660, Note_on_c, 0, 60, 0
3, 24660, Note_on_c, 0, 62, 120
3, 24720, Note_on_c, 0, 62, 0
3, 24720, Note_on_c, 0, 60, 120
3, 24780, Note_on_c, 0, 60, 0
3, 24780, Note_on_c, 0, 62, 120
3, 24840, Note_on_c, 0, 62, 0
3, 24840, Note_on_c, 0, 59, 120
3, 24900, Note_on_c, 0, 59, 0
3, 24900, Note_on_c, 0, 60, 120
3, 24960, Note_on_c, 0, 60, 0
3, 24960, Note_on_c, 0, 57, 120
3, 25020, Note_on_c, 0, 57, 0
3, 25020, Note_on_c, 0, 59, 120
3, 25080, Note_on_c, 0, 59, 0
3, 25080, Note_on_c, 0, 60, 120
3, 25140, Note_on_c, 0, 60, 0
3, 25140, Note_on_c, 0, 62, 120
3, 25200, Note_on_c, 0, 62, 0
3, 25200, Note_on_c, 0, 64, 120
3, 25260, Note_on_c, 0, 64, 0
3, 25260, Note_on_c, 0, 66, 120
3, 25320, Note_on_c, 0, 66, 0
3, 25320, Note_on_c, 0, 67, 120
3, 25560, Note_on_c, 0, 67, 0
3, 25560, Note_on_c, 0, 67, 120
3, 25800, Note_on_c, 0, 67, 0
3, 25800, Note_on_c, 0, 66, 120
3, 25920, Note_on_c, 0, 66, 0
3, 25920, Note_on_c, 0, 67, 120
3, 26160, Note_on_c, 0, 67, 0
3, 26520, Note_on_c, 0, 67, 120
3, 26580, Note_on_c, 0, 67, 0
3, 26580, Note_on_c, 0, 65, 120
3, 26640, Note_on_c, 0, 65, 0
3, 26640, Note_on_c, 0, 67, 120
3, 26729, Note_on_c, 0, 67, 0
3, 26760, Note_on_c, 0, 62, 120
3, 26849, Note_on_c, 0, 62, 0
3, 26880, Note_on_c, 0, 69, 120
3, 27120, Note_on_c, 0, 69, 0
3, 27120, Note_on_c, 0, 67, 120
3, 27360, Note_on_c, 0, 67, 0
3, 27360, Note_on_c, 0, 65, 120
3, 27480, Note_on_c, 0, 65, 0
3, 27480, Note_on_c, 0, 69, 120
3, 27540, Note_on_c, 0, 69, 0
3, 27540, Note_on_c, 0, 67, 120
3, 27600, Note_on_c, 0, 67, 0
3, 27600, Note_on_c, 0, 69, 120
3, 27689, Note_on_c, 0, 69, 0
3, 27720, Note_on_c, 0, 64, 120
3, 27809, Note_on_c, 0, 64, 0
3, 27840, Note_on_c, 0, 71, 120
3, 28080, Note_on_c, 0, 71, 0
3, 28080, Note_on_c, 0, 69, 120
3, 28320, Note_on_c, 0, 69, 0
3, 28320, Note_on_c, 0, 67, 120
3, 28440, Note_on_c, 0, 67, 0
3, 28440, Note_on_c, 0, 71, 120
3, 28500, Note_on_c, 0, 71, 0
3, 28500, Note_on_c, 0, 69, 120
3, 28560, Note_on_c, 0, 69, 0
3, 28560, Note_on_c, 0, 71, 120
3, 28649, Note_on_c, 0, 71, 0
3, 28680, Note_on_c, 0, 67, 120
3, 28769, Note_on_c, 0, 67, 0
3, 28800, Note_on_c, 0, 72, 120
3, 29040, Note_on_c, 0, 72, 0
3, 29040, Note_on_c, 0, 70, 120
3, 29280, Note_on_c, 0, 70, 0
3, 29280, Note_on_c, 0, 69, 120
3, 29760, Note_on_c, 0, 69, 0
3, 29760, Note_on_c, 0, 67, 120
3, 30240, Note_on_c, 0, 67, 0
3, 30240, Note_on_c, 0, 65, 120
3, 30960, Note_on_c, 0, 65, 0
3, 30960, Note_on_c, 0, 64, 120
3, 31200, Note_on_c, 0, 64, 0
3, 31200, Note_on_c, 0, 62, 120
3, 31500, Note_on_c, 0, 62, 0
3, 31500, Note_on_c, 0, 65, 120
3, 31560, Note_on_c, 0, 65, 0
3, 31560, Note_on_c, 0, 64, 120
3, 31620, Note_on_c, 0, 64, 0
3, 31620, Note_on_c, 0, 62, 120
3, 31680, Note_on_c, 0, 62, 0
3, 31680, Note_on_c, 0, 67, 120
3, 31740, Note_on_c, 0, 67, 0
3, 31740, Note_on_c, 0, 69, 120
3, 31800, Note_on_c, 0, 69, 0
3, 31800, Note_on_c, 0, 65, 120
3, 31860, Note_on_c, 0, 65, 0
3, 31860, Note_on_c, 0, 67, 120
3, 31919, Note_on_c, 0, 67, 0
3, 31920, Note_on_c, 0, 64, 120
3, 32040, Note_on_c, 0, 64, 0
3, 32040, Note_on_c, 0, 62, 120
3, 32160, Note_on_c, 0, 62, 0
3, 32160, Note_on_c, 0, 60, 120
3, 33959, Note_on_c, 0, 60, 0
3, 33960, Note_on_c, 0, 59, 120
3, 34080, Note_on_c, 0, 59, 0
3, 34080, Note_on_c, 0, 60, 120
3, 34199, Note_on_c, 0, 60, 0
3, 34200, Note_on_c, 0, 55, 120
3, 34260, Note_on_c, 0, 55, 0
3, 34260, Note_on_c, 0, 53, 120
3, 34320, Note_on_c, 0, 53, 0
3, 34320, Note_on_c, 0, 55, 120
3, 34409, Note_on_c, 0, 55, 0
3, 34440, Note_on_c, 0, 48, 120
3, 34529, Note_on_c, 0, 48, 0
3, 34560, Note_on_c, 0, 57, 120
3, 34589, Note_on_c, 0, 57, 0
3, 34590, Note_on_c, 0, 55, 120
3, 34619, Note_on_c, 0, 55, 0
3, 34620, Note_on_c, 0, 57, 120
3, 34799, Note_on_c, 0, 57, 0
3, 34800, Note_on_c, 0, 55, 120
3, 35039, Note_on_c, 0, 55, 0
3, 35160, Note_on_c, 0, 53, 120
3, 35220, Note_on_c, 0, 53, 0
3, 35220, Note_on_c, 0, 52, 120
3, 35279, Note_on_c, 0, 52, 0
3, 35280, Note_on_c, 0, 53, 120
3, 35369, Note_on_c, 0, 53, 0
3, 35400, Note_on_c, 0, 50, 120
3, 35489, Note_on_c, 0, 50, 0
3, 35520, Note_on_c, 0, 55, 120
3, 35760, Note_on_c, 0, 55, 0
3, 35760, Note_on_c, 0, 57, 120
3, 35880, Note_on_c, 0, 57, 0
3, 35880, Note_on_c, 0, 59, 120
3, 36000, Note_on_c, 0, 59, 0
3, 36000, Note_on_c, 0, 60, 120
3, 36120, Note_on_c, 0, 60, 0
3, 36120, Note_on_c, 0, 58, 120
3, 36180, Note_on_c, 0, 58, 0
3, 36180, Note_on_c, 0, 57, 120
3, 36240, Note_on_c, 0, 57, 0
3, 36240, Note_on_c, 0, 58, 120
3, 36329, Note_on_c, 0, 58, 0
3, 36360, Note_on_c, 0, 64, 120
3, 36449, Note_on_c, 0, 64, 0
3, 36480, Note_on_c, 0, 65, 120
3, 36720, Note_on_c, 0, 65, 0
3, 36720, Note_on_c, 0, 64, 120
3, 36960, Note_on_c, 0, 64, 0
3, 37560, Note_on_c, 0, 62, 120
3, 37620, Note_on_c, 0, 62, 0
3, 37620, Note_on_c, 0, 60, 120
3, 37680, Note_on_c, 0, 60, 0
3, 37680, Note_on_c, 0, 62, 120
3, 37769, Note_on_c, 0, 62, 0
3, 37800, Note_on_c, 0, 55, 120
3, 37889, Note_on_c, 0, 55, 0
3, 37920, Note_on_c, 0, 60, 120
3, 38009, Note_on_c, 0, 60, 0
3, 38040, Note_on_c, 0, 65, 120
3, 38040, Note_on_c, 0, 59, 120
3, 38129, Note_on_c, 0, 59, 0
3, 38129, Note_on_c, 0, 65, 0
3, 38160, Note_on_c, 0, 64, 120
3, 38160, Note_on_c, 0, 60, 120
3, 38249, Note_on_c, 0, 60, 0
3, 38249, Note_on_c, 0, 64, 0
3, 38280, Note_on_c, 0, 62, 120
3, 38280, Note_on_c, 0, 68, 120
3, 38369, Note_on_c, 0, 68, 0
3, 38369, Note_on_c, 0, 62, 0
3, 38400, Note_on_c, 0, 67, 120
3, 38400, Note_on_c, 0, 64, 120
3, 38489, Note_on_c, 0, 64, 0
3, 38489, Note_on_c, 0, 67, 0
3, 38520, Note_on_c, 0, 62, 120
3, 38520, Note_on_c, 0, 59, 120
3, 38609, Note_on_c, 0, 59, 0
3, 38609, Note_on_c, 0, 62, 0
3, 38640, Note_on_c, 0, 60, 120
3, 38729, Note_on_c, 0, 60, 0
3, 38760, Note_on_c, 0, 64, 120
3, 38849, Note_on_c, 0, 64, 0
3, 38880, Note_on_c, 0, 62, 120
3, 38880, Note_on_c, 0, 57, 120
3, 38969, Note_on_c, 0, 57, 0
3, 38969, Note_on_c, 0, 62, 0
3, 39120, Note_on_c, 0, 62, 120
3, 39120, Note_on_c, 0, 55, 120
3, 39209, Note_on_c, 0, 55, 0
3, 39209, Note_on_c, 0, 62, 0
3, 39360, Note_on_c, 0, 67, 120
3, 39360, Note_on_c, 0, 64, 120
3, 39360, Note_on_c, 0, 60, 120
3, 39840, Note_on_c, 0, 60, 0
3, 39840, Note_on_c, 0, 64, 0
3, 39840, Note_on_c, 0, 67, 0
3, 39840, End_track
4, 0, Start_track
4, 0, MIDI_port, 0
4, 0, Title_t, "by Yo Tomita"
4, 0, Program_c, 0, 6
4, 3960, Note_on_c, 0, 55, 120
4, 4020, Note_on_c, 0, 55, 0
4, 4020, Note_on_c, 0, 53, 120
4, 4080, Note_on_c, 0, 53, 0
4, 4080, Note_on_c, 0, 55, 120
4, 4139, Note_on_c, 0, 55, 0
4, 4200, Note_on_c, 0, 48, 120
4, 4259, Note_on_c, 0, 48, 0
4, 4320, Note_on_c, 0, 57, 120
4, 4348, Note_on_c, 0, 55, 120
4, 4350, Note_on_c, 0, 57, 0
4, 4378, Note_on_c, 0, 55, 0
4, 4380, Note_on_c, 0, 57, 120
4, 4560, Note_on_c, 0, 57, 0
4, 4560, Note_on_c, 0, 55, 120
4, 4800, Note_on_c, 0, 55, 0
4, 4920, Note_on_c, 0, 53, 120
4, 4980, Note_on_c, 0, 53, 0
4, 4980, Note_on_c, 0, 52, 120
4, 5040, Note_on_c, 0, 52, 0
4, 5040, Note_on_c, 0, 53, 120
4, 5100, Note_on_c, 0, 53, 0
4, 5100, Note_on_c, 0, 55, 120
4, 5160, Note_on_c, 0, 55, 0
4, 5160, Note_on_c, 0, 52, 120
4, 5220, Note_on_c, 0, 52, 0
4, 5220, Note_on_c, 0, 53, 120
4, 5280, Note_on_c, 0, 53, 0
4, 5280, Note_on_c, 0, 50, 120
4, 5340, Note_on_c, 0, 50, 0
4, 5340, Note_on_c, 0, 53, 120
4, 5400, Note_on_c, 0, 53, 0
4, 5400, Note_on_c, 0, 52, 120
4, 5460, Note_on_c, 0, 52, 0
4, 5460, Note_on_c, 0, 53, 120
4, 5520, Note_on_c, 0, 53, 0
4, 5520, Note_on_c, 0, 55, 120
4, 5580, Note_on_c, 0, 55, 0
4, 5580, Note_on_c, 0, 57, 120
4, 5640, Note_on_c, 0, 57, 0
4, 5640, Note_on_c, 0, 53, 120
4, 5700, Note_on_c, 0, 53, 0
4, 5700, Note_on_c, 0, 55, 120
4, 5760, Note_on_c, 0, 55, 0
4, 5760, Note_on_c, 0, 52, 120
4, 5820, Note_on_c, 0, 52, 0
4, 5820, Note_on_c, 0, 50, 120
4, 5880, Note_on_c, 0, 50, 0
4, 5880, Note_on_c, 0, 52, 120
4, 5940, Note_on_c, 0, 52, 0
4, 5940, Note_on_c, 0, 53, 120
4, 6000, Note_on_c, 0, 53, 0
4, 6000, Note_on_c, 0, 52, 120
4, 6060, Note_on_c, 0, 52, 0
4, 6060, Note_on_c, 0, 53, 120
4, 6120, Note_on_c, 0, 53, 0
4, 6120, Note_on_c, 0, 50, 120
4, 6180, Note_on_c, 0, 50, 0
4, 6180, Note_on_c, 0, 52, 120
4, 6240, Note_on_c, 0, 52, 0
4, 6240, Note_on_c, 0, 53, 120
4, 6300, Note_on_c, 0, 53, 0
4, 6300, Note_on_c, 0, 52, 120
4, 6360, Note_on_c, 0, 52, 0
4, 6360, Note_on_c, 0, 53, 120
4, 6420, Note_on_c, 0, 53, 0
4, 6420, Note_on_c, 0, 55, 120
4, 6480, Note_on_c, 0, 55, 0
4, 6480, Note_on_c, 0, 53, 120
4, 6540, Note_on_c, 0, 53, 0
4, 6540, Note_on_c, 0, 55, 120
4, 6600, Note_on_c, 0, 55, 0
4, 6600, Note_on_c, 0, 52, 120
4, 6660, Note_on_c, 0, 52, 0
4, 6660, Note_on_c, 0, 53, 120
4, 6720, Note_on_c, 0, 53, 0
4, 6720, Note_on_c, 0, 50, 120
4, 6780, Note_on_c, 0, 50, 0
4, 6780, Note_on_c, 0, 49, 120
4, 6840, Note_on_c, 0, 49, 0
4, 6840, Note_on_c, 0, 50, 120
4, 6900, Note_on_c, 0, 50, 0
4, 6900, Note_on_c, 0, 52, 120
4, 6960, Note_on_c, 0, 52, 0
4, 6960, Note_on_c, 0, 54, 120
4, 7020, Note_on_c, 0, 54, 0
4, 7020, Note_on_c, 0, 55, 120
4, 7080, Note_on_c, 0, 55, 0
4, 7080, Note_on_c, 0, 52, 120
4, 7140, Note_on_c, 0, 52, 0
4, 7140, Note_on_c, 0, 54, 120
4, 7200, Note_on_c, 0, 54, 0
4, 7200, Note_on_c, 0, 55, 120
4, 7260, Note_on_c, 0, 55, 0
4, 7260, Note_on_c, 0, 54, 120
4, 7320, Note_on_c, 0, 54, 0
4, 7320, Note_on_c, 0, 55, 120
4, 7380, Note_on_c, 0, 55, 0
4, 7380, Note_on_c, 0, 57, 120
4, 7440, Note_on_c, 0, 57, 0
4, 7440, Note_on_c, 0, 55, 120
4, 7500, Note_on_c, 0, 55, 0
4, 7500, Note_on_c, 0, 57, 120
4, 7560, Note_on_c, 0, 57, 0
4, 7560, Note_on_c, 0, 53, 120
4, 7620, Note_on_c, 0, 53, 0
4, 7620, Note_on_c, 0, 55, 120
4, 7680, Note_on_c, 0, 55, 0
4, 7680, Note_on_c, 0, 52, 120
4, 7740, Note_on_c, 0, 52, 0
4, 7740, Note_on_c, 0, 50, 120
4, 7800, Note_on_c, 0, 50, 0
4, 7800, Note_on_c, 0, 52, 120
4, 7860, Note_on_c, 0, 52, 0
4, 7860, Note_on_c, 0, 54, 120
4, 7920, Note_on_c, 0, 54, 0
4, 7920, Note_on_c, 0, 56, 120
4, 7980, Note_on_c, 0, 56, 0
4, 7980, Note_on_c, 0, 57, 120
4, 8040, Note_on_c, 0, 57, 0
4, 8040, Note_on_c, 0, 54, 120
4, 8100, Note_on_c, 0, 54, 0
4, 8100, Note_on_c, 0, 56, 120
4, 8160, Note_on_c, 0, 56, 0
4, 8160, Note_on_c, 0, 57, 120
4, 8220, Note_on_c, 0, 57, 0
4, 8220, Note_on_c, 0, 56, 120
4, 8280, Note_on_c, 0, 56, 0
4, 8280, Note_on_c, 0, 57, 120
4, 8340, Note_on_c, 0, 57, 0
4, 8340, Note_on_c, 0, 59, 120
4, 8400, Note_on_c, 0, 59, 0
4, 8400, Note_on_c, 0, 57, 120
4, 8460, Note_on_c, 0, 57, 0
4, 8460, Note_on_c, 0, 59, 120
4, 8520, Note_on_c, 0, 59, 0
4, 8520, Note_on_c, 0, 55, 120
4, 8580, Note_on_c, 0, 55, 0
4, 8580, Note_on_c, 0, 57, 120
4, 8640, Note_on_c, 0, 57, 0
4, 8640, Note_on_c, 0, 54, 120
4, 8700, Note_on_c, 0, 54, 0
4, 8700, Note_on_c, 0, 55, 120
4, 8760, Note_on_c, 0, 55, 0
4, 8760, Note_on_c, 0, 52, 120
4, 8820, Note_on_c, 0, 52, 0
4, 8820, Note_on_c, 0, 54, 120
4, 8880, Note_on_c, 0, 54, 0
4, 8880, Note_on_c, 0, 55, 120
4, 8940, Note_on_c, 0, 55, 0
4, 8940, Note_on_c, 0, 57, 120
4, 9000, Note_on_c, 0, 57, 0
4, 9000, Note_on_c, 0, 59, 120
4, 9060, Note_on_c, 0, 59, 0
4, 9060, Note_on_c, 0, 55, 120
4, 9120, Note_on_c, 0, 55, 0
4, 9120, Note_on_c, 0, 60, 120
4, 9180, Note_on_c, 0, 60, 0
4, 9180, Note_on_c, 0, 59, 120
4, 9240, Note_on_c, 0, 59, 0
4, 9240, Note_on_c, 0, 60, 120
4, 9300, Note_on_c, 0, 60, 0
4, 9300, Note_on_c, 0, 62, 120
4, 9360, Note_on_c, 0, 62, 0
4, 9360, Note_on_c, 0, 60, 120
4, 9420, Note_on_c, 0, 60, 0
4, 9420, Note_on_c, 0, 62, 120
4, 9480, Note_on_c, 0, 62, 0
4, 9480, Note_on_c, 0, 59, 120
4, 9540, Note_on_c, 0, 59, 0
4, 9540, Note_on_c, 0, 60, 120
4, 9600, Note_on_c, 0, 60, 0
4, 9600, Note_on_c, 0, 62, 120
4, 10079, Note_on_c, 0, 62, 0
4, 10080, Note_on_c, 0, 55, 120
4, 10200, Note_on_c, 0, 55, 0
4, 10200, Note_on_c, 0, 67, 120
4, 10260, Note_on_c, 0, 67, 0
4, 10260, Note_on_c, 0, 65, 120
4, 10320, Note_on_c, 0, 65, 0
4, 10320, Note_on_c, 0, 67, 120
4, 10380, Note_on_c, 0, 67, 0
4, 10380, Note_on_c, 0, 69, 120
4, 10440, Note_on_c, 0, 69, 0
4, 10440, Note_on_c, 0, 65, 120
4, 10500, Note_on_c, 0, 65, 0
4, 10500, Note_on_c, 0, 67, 120
4, 10560, Note_on_c, 0, 67, 0
4, 10560, Note_on_c, 0, 64, 120
4, 11040, Note_on_c, 0, 64, 0
4, 11160, Note_on_c, 0, 62, 120
4, 11219, Note_on_c, 0, 62, 0
4, 11280, Note_on_c, 0, 53, 120
4, 11339, Note_on_c, 0, 53, 0
4, 11400, Note_on_c, 0, 57, 120
4, 11459, Note_on_c, 0, 57, 0
4, 11520, Note_on_c, 0, 50, 120
4, 11640, Note_on_c, 0, 50, 0
4, 18360, Note_on_c, 0, 48, 120
4, 18420, Note_on_c, 0, 48, 0
4, 18420, Note_on_c, 0, 47, 120
4, 18480, Note_on_c, 0, 47, 0
4, 18480, Note_on_c, 0, 48, 120
4, 18569, Note_on_c, 0, 48, 0
4, 18600, Note_on_c, 0, 43, 120
4, 18689, Note_on_c, 0, 43, 0
4, 18720, Note_on_c, 0, 52, 120
4, 18748, Note_on_c, 0, 50, 120
4, 18750, Note_on_c, 0, 52, 0
4, 18778, Note_on_c, 0, 50, 0
4, 18780, Note_on_c, 0, 52, 120
4, 18960, Note_on_c, 0, 52, 0
4, 18960, Note_on_c, 0, 50, 120
4, 19200, Note_on_c, 0, 50, 0
4, 19320, Note_on_c, 0, 48, 120
4, 19380, Note_on_c, 0, 48, 0
4, 19380, Note_on_c, 0, 47, 120
4, 19440, Note_on_c, 0, 47, 0
4, 19440, Note_on_c, 0, 48, 120
4, 19500, Note_on_c, 0, 48, 0
4, 19500, Note_on_c, 0, 50, 120
4, 19560, Note_on_c, 0, 50, 0
4, 19560, Note_on_c, 0, 47, 120
4, 19620, Note_on_c, 0, 47, 0
4, 19620, Note_on_c, 0, 48, 120
4, 19680, Note_on_c, 0, 48, 0
4, 19680, Note_on_c, 0, 45, 120
4, 19740, Note_on_c, 0, 45, 0
4, 19740, Note_on_c, 0, 48, 120
4, 19800, Note_on_c, 0, 48, 0
4, 19800, Note_on_c, 0, 47, 120
4, 19860, Note_on_c, 0, 47, 0
4, 19860, Note_on_c, 0, 48, 120
4, 19920, Note_on_c, 0, 48, 0
4, 19920, Note_on_c, 0, 50, 120
4, 19980, Note_on_c, 0, 50, 0
4, 19980, Note_on_c, 0, 52, 120
4, 20040, Note_on_c, 0, 52, 0
4, 20040, Note_on_c, 0, 48, 120
4, 20100, Note_on_c, 0, 48, 0
4, 20100, Note_on_c, 0, 50, 120
4, 20160, Note_on_c, 0, 50, 0
4, 20160, Note_on_c, 0, 47, 120
4, 20220, Note_on_c, 0, 47, 0
4, 20220, Note_on_c, 0, 50, 120
4, 20280, Note_on_c, 0, 50, 0
4, 20280, Note_on_c, 0, 48, 120
4, 20340, Note_on_c, 0, 48, 0
4, 20340, Note_on_c, 0, 50, 120
4, 20400, Note_on_c, 0, 50, 0
4, 20400, Note_on_c, 0, 52, 120
4, 20460, Note_on_c, 0, 52, 0
4, 20460, Note_on_c, 0, 53, 120
4, 20520, Note_on_c, 0, 53, 0
4, 20520, Note_on_c, 0, 50, 120
4, 20580, Note_on_c, 0, 50, 0
4, 20580, Note_on_c, 0, 52, 120
4, 20640, Note_on_c, 0, 52, 0
4, 20640, Note_on_c, 0, 48, 120
4, 20700, Note_on_c, 0, 48, 0
4, 20700, Note_on_c, 0, 52, 120
4, 20760, Note_on_c, 0, 52, 0
4, 20760, Note_on_c, 0, 50, 120
4, 20820, Note_on_c, 0, 50, 0
4, 20820, Note_on_c, 0, 52, 120
4, 20880, Note_on_c, 0, 52, 0
4, 20880, Note_on_c, 0, 53, 120
4, 20940, Note_on_c, 0, 53, 0
4, 20940, Note_on_c, 0, 55, 120
4, 21000, Note_on_c, 0, 55, 0
4, 21000, Note_on_c, 0, 52, 120
4, 21060, Note_on_c, 0, 52, 0
4, 21060, Note_on_c, 0, 53, 120
4, 21120, Note_on_c, 0, 53, 0
4, 21120, Note_on_c, 0, 50, 120
4, 21180, Note_on_c, 0, 50, 0
4, 21180, Note_on_c, 0, 53, 120
4, 21240, Note_on_c, 0, 53, 0
4, 21240, Note_on_c, 0, 52, 120
4, 21300, Note_on_c, 0, 52, 0
4, 21300, Note_on_c, 0, 53, 120
4, 21360, Note_on_c, 0, 53, 0
4, 21360, Note_on_c, 0, 55, 120
4, 21420, Note_on_c, 0, 55, 0
4, 21420, Note_on_c, 0, 57, 120
4, 21480, Note_on_c, 0, 57, 0
4, 21480, Note_on_c, 0, 53, 120
4, 21540, Note_on_c, 0, 53, 0
4, 21540, Note_on_c, 0, 55, 120
4, 21600, Note_on_c, 0, 55, 0
4, 21600, Note_on_c, 0, 52, 120
4, 21660, Note_on_c, 0, 52, 0
4, 21660, Note_on_c, 0, 50, 120
4, 21720, Note_on_c, 0, 50, 0
4, 21720, Note_on_c, 0, 52, 120
4, 21780, Note_on_c, 0, 52, 0
4, 21780, Note_on_c, 0, 53, 120
4, 21840, Note_on_c, 0, 53, 0
4, 21840, Note_on_c, 0, 52, 120
4, 21900, Note_on_c, 0, 52, 0
4, 21900, Note_on_c, 0, 53, 120
4, 21960, Note_on_c, 0, 53, 0
4, 21960, Note_on_c, 0, 50, 120
4, 22020, Note_on_c, 0, 50, 0
4, 22020, Note_on_c, 0, 52, 120
4, 22080, Note_on_c, 0, 52, 0
4, 22080, Note_on_c, 0, 48, 120
4, 22140, Note_on_c, 0, 48, 0
4, 22140, Note_on_c, 0, 50, 120
4, 22200, Note_on_c, 0, 50, 0
4, 22200, Note_on_c, 0, 52, 120
4, 22260, Note_on_c, 0, 52, 0
4, 22260, Note_on_c, 0, 50, 120
4, 22320, Note_on_c, 0, 50, 0
4, 22320, Note_on_c, 0, 48, 120
4, 22380, Note_on_c, 0, 48, 0
4, 22380, Note_on_c, 0, 46, 120
4, 22440, Note_on_c, 0, 46, 0
4, 22440, Note_on_c, 0, 45, 120
4, 22500, Note_on_c, 0, 45, 0
4, 22500, Note_on_c, 0, 43, 120
4, 22560, Note_on_c, 0, 43, 0
4, 22560, Note_on_c, 0, 41, 120
4, 22620, Note_on_c, 0, 41, 0
4, 22620, Note_on_c, 0, 40, 120
4, 22680, Note_on_c, 0, 40, 0
4, 22680, Note_on_c, 0, 41, 120
4, 22740, Note_on_c, 0, 41, 0
4, 22740, Note_on_c, 0, 43, 120
4, 22800, Note_on_c, 0, 43, 0
4, 22800, Note_on_c, 0, 41, 120
4, 22860, Note_on_c, 0, 41, 0
4, 22860, Note_on_c, 0, 43, 120
4, 22920, Note_on_c, 0, 43, 0
4, 22920, Note_on_c, 0, 40, 120
4, 22980, Note_on_c, 0, 40, 0
4, 22980, Note_on_c, 0, 41, 120
4, 23040, Note_on_c, 0, 41, 0
4, 23040, Note_on_c, 0, 38, 120
4, 23100, Note_on_c, 0, 38, 0
4, 23100, Note_on_c, 0, 45, 120
4, 23160, Note_on_c, 0, 45, 0
4, 23160, Note_on_c, 0, 47, 120
4, 23220, Note_on_c, 0, 47, 0
4, 23220, Note_on_c, 0, 48, 120
4, 23280, Note_on_c, 0, 48, 0
4, 23280, Note_on_c, 0, 50, 120
4, 23340, Note_on_c, 0, 50, 0
4, 23340, Note_on_c, 0, 52, 120
4, 23400, Note_on_c, 0, 52, 0
4, 23400, Note_on_c, 0, 53, 120
4, 23460, Note_on_c, 0, 53, 0
4, 23460, Note_on_c, 0, 50, 120
4, 23520, Note_on_c, 0, 50, 0
4, 23520, Note_on_c, 0, 55, 120
4, 24960, Note_on_c, 0, 55, 0
4, 25320, Note_on_c, 0, 59, 120
4, 25409, Note_on_c, 0, 59, 0
4, 25440, Note_on_c, 0, 60, 120
4, 25529, Note_on_c, 0, 60, 0
4, 25560, Note_on_c, 0, 57, 120
4, 25649, Note_on_c, 0, 57, 0
4, 25680, Note_on_c, 0, 62, 120
4, 25769, Note_on_c, 0, 62, 0
4, 25800, Note_on_c, 0, 50, 120
4, 25889, Note_on_c, 0, 50, 0
4, 25920, Note_on_c, 0, 43, 120
4, 25980, Note_on_c, 0, 43, 0
4, 25980, Note_on_c, 0, 42, 120
4, 26040, Note_on_c, 0, 42, 0
4, 26040, Note_on_c, 0, 43, 120
4, 26100, Note_on_c, 0, 43, 0
4, 26100, Note_on_c, 0, 45, 120
4, 26160, Note_on_c, 0, 45, 0
4, 26160, Note_on_c, 0, 47, 120
4, 26220, Note_on_c, 0, 47, 0
4, 26220, Note_on_c, 0, 48, 120
4, 26280, Note_on_c, 0, 48, 0
4, 26280, Note_on_c, 0, 45, 120
4, 26340, Note_on_c, 0, 45, 0
4, 26340, Note_on_c, 0, 47, 120
4, 26400, Note_on_c, 0, 47, 0
4, 26400, Note_on_c, 0, 48, 120
4, 26460, Note_on_c, 0, 48, 0
4, 26460, Note_on_c, 0, 47, 120
4, 26520, Note_on_c, 0, 47, 0
4, 26520, Note_on_c, 0, 48, 120
4, 26580, Note_on_c, 0, 48, 0
4, 26580, Note_on_c, 0, 50, 120
4, 26640, Note_on_c, 0, 50, 0
4, 26640, Note_on_c, 0, 48, 120
4, 26700, Note_on_c, 0, 48, 0
4, 26700, Note_on_c, 0, 50, 120
4, 26760, Note_on_c, 0, 50, 0
4, 26760, Note_on_c, 0, 47, 120
4, 26820, Note_on_c, 0, 47, 0
4, 26820, Note_on_c, 0, 48, 120
4, 26880, Note_on_c, 0, 48, 0
4, 26880, Note_on_c, 0, 45, 120
4, 26940, Note_on_c, 0, 45, 0
4, 26940, Note_on_c, 0, 44, 120
4, 27000, Note_on_c, 0, 44, 0
4, 27000, Note_on_c, 0, 45, 120
4, 27060, Note_on_c, 0, 45, 0
4, 27060, Note_on_c, 0, 47, 120
4, 27120, Note_on_c, 0, 47, 0
4, 27120, Note_on_c, 0, 48, 120
4, 27180, Note_on_c, 0, 48, 0
4, 27180, Note_on_c, 0, 50, 120
4, 27240, Note_on_c, 0, 50, 0
4, 27240, Note_on_c, 0, 47, 120
4, 27300, Note_on_c, 0, 47, 0
4, 27300, Note_on_c, 0, 48, 120
4, 27360, Note_on_c, 0, 48, 0
4, 27360, Note_on_c, 0, 50, 120
4, 27420, Note_on_c, 0, 50, 0
4, 27420, Note_on_c, 0, 48, 120
4, 27480, Note_on_c, 0, 48, 0
4, 27480, Note_on_c, 0, 50, 120
4, 27540, Note_on_c, 0, 50, 0
4, 27540, Note_on_c, 0, 52, 120
4, 27600, Note_on_c, 0, 52, 0
4, 27600, Note_on_c, 0, 50, 120
4, 27660, Note_on_c, 0, 50, 0
4, 27660, Note_on_c, 0, 52, 120
4, 27720, Note_on_c, 0, 52, 0
4, 27720, Note_on_c, 0, 48, 120
4, 27780, Note_on_c, 0, 48, 0
4, 27780, Note_on_c, 0, 50, 120
4, 27840, Note_on_c, 0, 50, 0
4, 27840, Note_on_c, 0, 47, 120
4, 27900, Note_on_c, 0, 47, 0
4, 27900, Note_on_c, 0, 45, 120
4, 27960, Note_on_c, 0, 45, 0
4, 27960, Note_on_c, 0, 47, 120
4, 28020, Note_on_c, 0, 47, 0
4, 28020, Note_on_c, 0, 48, 120
4, 28080, Note_on_c, 0, 48, 0
4, 28080, Note_on_c, 0, 50, 120
4, 28140, Note_on_c, 0, 50, 0
4, 28140, Note_on_c, 0, 52, 120
4, 28200, Note_on_c, 0, 52, 0
4, 28200, Note_on_c, 0, 48, 120
4, 28260, Note_on_c, 0, 48, 0
4, 28260, Note_on_c, 0, 50, 120
4, 28320, Note_on_c, 0, 50, 0
4, 28320, Note_on_c, 0, 52, 120
4, 28380, Note_on_c, 0, 52, 0
4, 28380, Note_on_c, 0, 50, 120
4, 28440, Note_on_c, 0, 50, 0
4, 28440, Note_on_c, 0, 52, 120
4, 28500, Note_on_c, 0, 52, 0
4, 28500, Note_on_c, 0, 53, 120
4, 28560, Note_on_c, 0, 53, 0
4, 28560, Note_on_c, 0, 52, 120
4, 28620, Note_on_c, 0, 52, 0
4, 28620, Note_on_c, 0, 53, 120
4, 28680, Note_on_c, 0, 53, 0
4, 28680, Note_on_c, 0, 50, 120
4, 28740, Note_on_c, 0, 50, 0
4, 28740, Note_on_c, 0, 52, 120
4, 28800, Note_on_c, 0, 52, 0
4, 28800, Note_on_c, 0, 48, 120
4, 28860, Note_on_c, 0, 48, 0
4, 28860, Note_on_c, 0, 47, 120
4, 28920, Note_on_c, 0, 47, 0
4, 28920, Note_on_c, 0, 48, 120
4, 28980, Note_on_c, 0, 48, 0
4, 28980, Note_on_c, 0, 50, 120
4, 29040, Note_on_c, 0, 50, 0
4, 29040, Note_on_c, 0, 52, 120
4, 29100, Note_on_c, 0, 52, 0
4, 29100, Note_on_c, 0, 53, 120
4, 29160, Note_on_c, 0, 53, 0
4, 29160, Note_on_c, 0, 50, 120
4, 29220, Note_on_c, 0, 50, 0
4, 29220, Note_on_c, 0, 52, 120
4, 29280, Note_on_c, 0, 52, 0
4, 29280, Note_on_c, 0, 53, 120
4, 29340, Note_on_c, 0, 53, 0
4, 29340, Note_on_c, 0, 55, 120
4, 29400, Note_on_c, 0, 55, 0
4, 29400, Note_on_c, 0, 53, 120
4, 29460, Note_on_c, 0, 53, 0
4, 29460, Note_on_c, 0, 52, 120
4, 29520, Note_on_c, 0, 52, 0
4, 29520, Note_on_c, 0, 50, 120
4, 29580, Note_on_c, 0, 50, 0
4, 29580, Note_on_c, 0, 48, 120
4, 29640, Note_on_c, 0, 48, 0
4, 29640, Note_on_c, 0, 47, 120
4, 29700, Note_on_c, 0, 47, 0
4, 29700, Note_on_c, 0, 45, 120
4, 29760, Note_on_c, 0, 45, 0
4, 29760, Note_on_c, 0, 47, 120
4, 29820, Note_on_c, 0, 47, 0
4, 29820, Note_on_c, 0, 43, 120
4, 29880, Note_on_c, 0, 43, 0
4, 29880, Note_on_c, 0, 45, 120
4, 29940, Note_on_c, 0, 45, 0
4, 29940, Note_on_c, 0, 47, 120
4, 30000, Note_on_c, 0, 47, 0
4, 30000, Note_on_c, 0, 48, 120
4, 30060, Note_on_c, 0, 48, 0
4, 30060, Note_on_c, 0, 50, 120
4, 30120, Note_on_c, 0, 50, 0
4, 30120, Note_on_c, 0, 47, 120
4, 30180, Note_on_c, 0, 47, 0
4, 30180, Note_on_c, 0, 48, 120
4, 30240, Note_on_c, 0, 48, 0
4, 30240, Note_on_c, 0, 45, 120
4, 30300, Note_on_c, 0, 45, 0
4, 30300, Note_on_c, 0, 48, 120
4, 30360, Note_on_c, 0, 48, 0
4, 30360, Note_on_c, 0, 47, 120
4, 30420, Note_on_c, 0, 47, 0
4, 30420, Note_on_c, 0, 48, 120
4, 30480, Note_on_c, 0, 48, 0
4, 30480, Note_on_c, 0, 50, 120
4, 30540, Note_on_c, 0, 50, 0
4, 30540, Note_on_c, 0, 52, 120
4, 30600, Note_on_c, 0, 52, 0
4, 30600, Note_on_c, 0, 53, 120
4, 30660, Note_on_c, 0, 53, 0
4, 30660, Note_on_c, 0, 50, 120
4, 30720, Note_on_c, 0, 50, 0
4, 30720, Note_on_c, 0, 55, 120
4, 30780, Note_on_c, 0, 55, 0
4, 30780, Note_on_c, 0, 57, 120
4, 30840, Note_on_c, 0, 57, 0
4, 30840, Note_on_c, 0, 53, 120
4, 30900, Note_on_c, 0, 53, 0
4, 30900, Note_on_c, 0, 55, 120
4, 30960, Note_on_c, 0, 55, 0
4, 30960, Note_on_c, 0, 57, 120
4, 31020, Note_on_c, 0, 57, 0
4, 31020, Note_on_c, 0, 59, 120
4, 31080, Note_on_c, 0, 59, 0
4, 31080, Note_on_c, 0, 55, 120
4, 31140, Note_on_c, 0, 55, 0
4, 31140, Note_on_c, 0, 57, 120
4, 31200, Note_on_c, 0, 57, 0
4, 31200, Note_on_c, 0, 53, 120
4, 31260, Note_on_c, 0, 53, 0
4, 31260, Note_on_c, 0, 55, 120
4, 31320, Note_on_c, 0, 55, 0
4, 31320, Note_on_c, 0, 52, 120
4, 31380, Note_on_c, 0, 52, 0
4, 31380, Note_on_c, 0, 53, 120
4, 31440, Note_on_c, 0, 53, 0
4, 31440, Note_on_c, 0, 55, 120
4, 31500, Note_on_c, 0, 55, 0
4, 31500, Note_on_c, 0, 57, 120
4, 31560, Note_on_c, 0, 57, 0
4, 31560, Note_on_c, 0, 53, 120
4, 31620, Note_on_c, 0, 53, 0
4, 31620, Note_on_c, 0, 55, 120
4, 31680, Note_on_c, 0, 55, 0
4, 31680, Note_on_c, 0, 52, 120
4, 31800, Note_on_c, 0, 52, 0
4, 31800, Note_on_c, 0, 53, 120
4, 31920, Note_on_c, 0, 53, 0
4, 31920, Note_on_c, 0, 55, 120
4, 32040, Note_on_c, 0, 55, 0
4, 32040, Note_on_c, 0, 56, 120
4, 32160, Note_on_c, 0, 56, 0
4, 32160, Note_on_c, 0, 45, 120
4, 32280, Note_on_c, 0, 45, 0
4, 32280, Note_on_c, 0, 55, 120
4, 32340, Note_on_c, 0, 55, 0
4, 32340, Note_on_c, 0, 53, 120
4, 32400, Note_on_c, 0, 53, 0
4, 32400, Note_on_c, 0, 55, 120
4, 32489, Note_on_c, 0, 55, 0
4, 32520, Note_on_c, 0, 48, 120
4, 32609, Note_on_c, 0, 48, 0
4, 32640, Note_on_c, 0, 57, 120
4, 32669, Note_on_c, 0, 57, 0
4, 32670, Note_on_c, 0, 55, 120
4, 32699, Note_on_c, 0, 55, 0
4, 32700, Note_on_c, 0, 57, 120
4, 32879, Note_on_c, 0, 57, 0
4, 32880, Note_on_c, 0, 55, 120
4, 33120, Note_on_c, 0, 55, 0
4, 33240, Note_on_c, 0, 53, 120
4, 33300, Note_on_c, 0, 53, 0
4, 33300, Note_on_c, 0, 52, 120
4, 33360, Note_on_c, 0, 52, 0
4, 33360, Note_on_c, 0, 53, 120
4, 33449, Note_on_c, 0, 53, 0
4, 33480, Note_on_c, 0, 50, 120
4, 33569, Note_on_c, 0, 50, 0
4, 33600, Note_on_c, 0, 55, 120
4, 33629, Note_on_c, 0, 55, 0
4, 33630, Note_on_c, 0, 53, 120
4, 33659, Note_on_c, 0, 53, 0
4, 33660, Note_on_c, 0, 55, 120
4, 33839, Note_on_c, 0, 55, 0
4, 33840, Note_on_c, 0, 53, 120
4, 34080, Note_on_c, 0, 53, 0
4, 34080, Note_on_c, 0, 52, 120
4, 34140, Note_on_c, 0, 52, 0
4, 34140, Note_on_c, 0, 50, 120
4, 34200, Note_on_c, 0, 50, 0
4, 34200, Note_on_c, 0, 52, 120
4, 34260, Note_on_c, 0, 52, 0
4, 34260, Note_on_c, 0, 53, 120
4, 34320, Note_on_c, 0, 53, 0
4, 34320, Note_on_c, 0, 52, 120
4, 34380, Note_on_c, 0, 52, 0
4, 34380, Note_on_c, 0, 53, 120
4, 34440, Note_on_c, 0, 53, 0
4, 34440, Note_on_c, 0, 50, 120
4, 34500, Note_on_c, 0, 50, 0
4, 34500, Note_on_c, 0, 52, 120
4, 34560, Note_on_c, 0, 52, 0
4, 34560, Note_on_c, 0, 53, 120
4, 34620, Note_on_c, 0, 53, 0
4, 34620, Note_on_c, 0, 52, 120
4, 34680, Note_on_c, 0, 52, 0
4, 34680, Note_on_c, 0, 53, 120
4, 34740, Note_on_c, 0, 53, 0
4, 34740, Note_on_c, 0, 55, 120
4, 34799, Note_on_c, 0, 55, 0
4, 34800, Note_on_c, 0, 53, 120
4, 34860, Note_on_c, 0, 53, 0
4, 34860, Note_on_c, 0, 55, 120
4, 34920, Note_on_c, 0, 55, 0
4, 34920, Note_on_c, 0, 52, 120
4, 34980, Note_on_c, 0, 52, 0
4, 34980, Note_on_c, 0, 53, 120
4, 35040, Note_on_c, 0, 53, 0
4, 35040, Note_on_c, 0, 50, 120
4, 35100, Note_on_c, 0, 50, 0
4, 35100, Note_on_c, 0, 48, 120
4, 35160, Note_on_c, 0, 48, 0
4, 35160, Note_on_c, 0, 50, 120
4, 35220, Note_on_c, 0, 50, 0
4, 35220, Note_on_c, 0, 52, 120
4, 35280, Note_on_c, 0, 52, 0
4, 35280, Note_on_c, 0, 50, 120
4, 35340, Note_on_c, 0, 50, 0
4, 35340, Note_on_c, 0, 48, 120
4, 35400, Note_on_c, 0, 48, 0
4, 35400, Note_on_c, 0, 47, 120
4, 35460, Note_on_c, 0, 47, 0
4, 35460, Note_on_c, 0, 45, 120
4, 35520, Note_on_c, 0, 45, 0
4, 35520, Note_on_c, 0, 43, 120
4, 35580, Note_on_c, 0, 43, 0
4, 35580, Note_on_c, 0, 41, 120
4, 35640, Note_on_c, 0, 41, 0
4, 35640, Note_on_c, 0, 43, 120
4, 35700, Note_on_c, 0, 43, 0
4, 35700, Note_on_c, 0, 45, 120
4, 35760, Note_on_c, 0, 45, 0
4, 35760, Note_on_c, 0, 43, 120
4, 35820, Note_on_c, 0, 43, 0
4, 35820, Note_on_c, 0, 41, 120
4, 35880, Note_on_c, 0, 41, 0
4, 35880, Note_on_c, 0, 40, 120
4, 35940, Note_on_c, 0, 40, 0
4, 35940, Note_on_c, 0, 38, 120
4, 36000, Note_on_c, 0, 38, 0
4, 36000, Note_on_c, 0, 36, 120
4, 36060, Note_on_c, 0, 36, 0
4, 36060, Note_on_c, 0, 48, 120
4, 36120, Note_on_c, 0, 48, 0
4, 36120, Note_on_c, 0, 52, 120
4, 36180, Note_on_c, 0, 52, 0
4, 36180, Note_on_c, 0, 48, 120
4, 36240, Note_on_c, 0, 48, 0
4, 36240, Note_on_c, 0, 36, 120
4, 36300, Note_on_c, 0, 36, 0
4, 36300, Note_on_c, 0, 48, 120
4, 36360, Note_on_c, 0, 48, 0
4, 36360, Note_on_c, 0, 55, 120
4, 36420, Note_on_c, 0, 55, 0
4, 36420, Note_on_c, 0, 48, 120
4, 36480, Note_on_c, 0, 48, 0
4, 36480, Note_on_c, 0, 36, 120
4, 36540, Note_on_c, 0, 36, 0
4, 36540, Note_on_c, 0, 38, 120
4, 36600, Note_on_c, 0, 38, 0
4, 36600, Note_on_c, 0, 40, 120
4, 36660, Note_on_c, 0, 40, 0
4, 36660, Note_on_c, 0, 41, 120
4, 36720, Note_on_c, 0, 41, 0
4, 36720, Note_on_c, 0, 43, 120
4, 36780, Note_on_c, 0, 43, 0
4, 36780, Note_on_c, 0, 45, 120
4, 36840, Note_on_c, 0, 45, 0
4, 36840, Note_on_c, 0, 47, 120
4, 36900, Note_on_c, 0, 47, 0
4, 36900, Note_on_c, 0, 48, 120
4, 36960, Note_on_c, 0, 48, 0
4, 36960, Note_on_c, 0, 36, 120
4, 37020, Note_on_c, 0, 36, 0
4, 37020, Note_on_c, 0, 48, 120
4, 37080, Note_on_c, 0, 48, 0
4, 37080, Note_on_c, 0, 50, 120
4, 37140, Note_on_c, 0, 50, 0
4, 37140, Note_on_c, 0, 48, 120
4, 37200, Note_on_c, 0, 48, 0
4, 37200, Note_on_c, 0, 36, 120
4, 37260, Note_on_c, 0, 36, 0
4, 37260, Note_on_c, 0, 48, 120
4, 37320, Note_on_c, 0, 48, 0
4, 37320, Note_on_c, 0, 53, 120
4, 37380, Note_on_c, 0, 53, 0
4, 37380, Note_on_c, 0, 48, 120
4, 37440, Note_on_c, 0, 48, 0
4, 37440, Note_on_c, 0, 47, 120
4, 37500, Note_on_c, 0, 47, 0
4, 37500, Note_on_c, 0, 48, 120
4, 37560, Note_on_c, 0, 48, 0
4, 37560, Note_on_c, 0, 47, 120
4, 37620, Note_on_c, 0, 47, 0
4, 37620, Note_on_c, 0, 45, 120
4, 37680, Note_on_c, 0, 45, 0
4, 37680, Note_on_c, 0, 43, 120
4, 37740, Note_on_c, 0, 43, 0
4, 37740, Note_on_c, 0, 41, 120
4, 37800, Note_on_c, 0, 41, 0
4, 37800, Note_on_c, 0, 40, 120
4, 37860, Note_on_c, 0, 40, 0
4, 37860, Note_on_c, 0, 38, 120
4, 37920, Note_on_c, 0, 38, 0
4, 37920, Note_on_c, 0, 36, 120
4, 37980, Note_on_c, 0, 36, 0
4, 37980, Note_on_c, 0, 48, 120
4, 38040, Note_on_c, 0, 48, 0
4, 38040, Note_on_c, 0, 50, 120
4, 38100, Note_on_c, 0, 50, 0
4, 38100, Note_on_c, 0, 48, 120
4, 38160, Note_on_c, 0, 48, 0
4, 38160, Note_on_c, 0, 52, 120
4, 38220, Note_on_c, 0, 52, 0
4, 38220, Note_on_c, 0, 48, 120
4, 38280, Note_on_c, 0, 48, 0
4, 38280, Note_on_c, 0, 53, 120
4, 38340, Note_on_c, 0, 53, 0
4, 38340, Note_on_c, 0, 48, 120
4, 38400, Note_on_c, 0, 48, 0
4, 38400, Note_on_c, 0, 55, 120
4, 38460, Note_on_c, 0, 55, 0
4, 38460, Note_on_c, 0, 48, 120
4, 38520, Note_on_c, 0, 48, 0
4, 38520, Note_on_c, 0, 56, 120
4, 38580, Note_on_c, 0, 56, 0
4, 38580, Note_on_c, 0, 48, 120
4, 38640, Note_on_c, 0, 48, 0
4, 38640, Note_on_c, 0, 55, 120
4, 38700, Note_on_c, 0, 55, 0
4, 38700, Note_on_c, 0, 48, 120
4, 38760, Note_on_c, 0, 48, 0
4, 38760, Note_on_c, 0, 47, 120
4, 38820, Note_on_c, 0, 47, 0
4, 38820, Note_on_c, 0, 48, 120
4, 38880, Note_on_c, 0, 48, 0
4, 38880, Note_on_c, 0, 41, 120
4, 39000, Note_on_c, 0, 41, 0
4, 39120, Note_on_c, 0, 43, 120
4, 39240, Note_on_c, 0, 43, 0
4, 39360, Note_on_c, 0, 36, 120
4, 39840, Note_on_c, 0, 36, 0
4, 39840, End_track
5, 0, Start_track
5, 0, MIDI_port, 0
5, 0, Program_c, 1, 6
5, 120, Note_on_c, 1, 79, 120
5, 180, Note_on_c, 1, 79, 0
5, 180, Note_on_c, 1, 77, 120
5, 240, Note_on_c, 1, 77, 0
5, 240, Note_on_c, 1, 79, 120
5, 299, Note_on_c, 1, 79, 0
5, 360, Note_on_c, 1, 72, 120
5, 419, Note_on_c, 1, 72, 0
5, 476, Note_on_c, 1, 81, 120
5, 504, Note_on_c, 1, 79, 120
5, 506, Note_on_c, 1, 81, 0
5, 534, Note_on_c, 1, 79, 0
5, 540, Note_on_c, 1, 81, 120
5, 720, Note_on_c, 1, 81, 0
5, 720, Note_on_c, 1, 79, 120
5, 960, Note_on_c, 1, 79, 0
5, 1080, Note_on_c, 1, 77, 120
5, 1140, Note_on_c, 1, 77, 0
5, 1140, Note_on_c, 1, 76, 120
5, 1200, Note_on_c, 1, 76, 0
5, 1200, Note_on_c, 1, 77, 120
5, 1260, Note_on_c, 1, 77, 0
5, 1260, Note_on_c, 1, 79, 120
5, 1320, Note_on_c, 1, 79, 0
5, 1320, Note_on_c, 1, 76, 120
5, 1380, Note_on_c, 1, 76, 0
5, 1380, Note_on_c, 1, 77, 120
5, 1440, Note_on_c, 1, 77, 0
5, 1440, Note_on_c, 1, 74, 120
5, 1500, Note_on_c, 1, 74, 0
5, 1500, Note_on_c, 1, 77, 120
5, 1560, Note_on_c, 1, 77, 0
5, 1560, Note_on_c, 1, 76, 120
5, 1620, Note_on_c, 1, 76, 0
5, 1620, Note_on_c, 1, 77, 120
5, 1680, Note_on_c, 1, 77, 0
5, 1680, Note_on_c, 1, 79, 120
5, 1740, Note_on_c, 1, 79, 0
5, 1740, Note_on_c, 1, 81, 120
5, 1800, Note_on_c, 1, 81, 0
5, 1800, Note_on_c, 1, 77, 120
5, 1860, Note_on_c, 1, 77, 0
5, 1860, Note_on_c, 1, 79, 120
5, 1920, Note_on_c, 1, 79, 0
5, 1920, Note_on_c, 1, 76, 120
5, 1980, Note_on_c, 1, 76, 0
5, 1980, Note_on_c, 1, 74, 120
5, 2040, Note_on_c, 1, 74, 0
5, 2040, Note_on_c, 1, 84, 120
5, 2040, Note_on_c, 1, 76, 120
5, 2100, Note_on_c, 1, 76, 0
5, 2100, Note_on_c, 1, 84, 0
5, 2100, Note_on_c, 1, 83, 120
5, 2100, Note_on_c, 1, 77, 120
5, 2160, Note_on_c, 1, 77, 0
5, 2160, Note_on_c, 1, 83, 0
5, 2160, Note_on_c, 1, 84, 120
5, 2160, Note_on_c, 1, 76, 120
5, 2219, Note_on_c, 1, 84, 0
5, 2220, Note_on_c, 1, 76, 0
5, 2220, Note_on_c, 1, 77, 120
5, 2280, Note_on_c, 1, 77, 0
5, 2280, Note_on_c, 1, 79, 120
5, 2280, Note_on_c, 1, 74, 120
5, 2339, Note_on_c, 1, 79, 0
5, 2340, Note_on_c, 1, 74, 0
5, 2340, Note_on_c, 1, 76, 120
5, 2400, Note_on_c, 1, 76, 0
5, 2400, Note_on_c, 1, 88, 120
5, 2400, Note_on_c, 1, 72, 120
5, 2424, Note_on_c, 1, 86, 120
5, 2430, Note_on_c, 1, 88, 0
5, 2454, Note_on_c, 1, 86, 0
5, 2460, Note_on_c, 1, 72, 0
5, 2460, Note_on_c, 1, 88, 120
5, 2460, Note_on_c, 1, 71, 120
5, 2520, Note_on_c, 1, 71, 0
5, 2520, Note_on_c, 1, 72, 120
5, 2580, Note_on_c, 1, 72, 0
5, 2580, Note_on_c, 1, 74, 120
5, 2640, Note_on_c, 1, 74, 0
5, 2640, Note_on_c, 1, 88, 0
5, 2640, Note_on_c, 1, 86, 120
5, 2640, Note_on_c, 1, 72, 120
5, 2700, Note_on_c, 1, 72, 0
5, 2700, Note_on_c, 1, 74, 120
5, 2760, Note_on_c, 1, 74, 0
5, 2760, Note_on_c, 1, 71, 120
5, 2820, Note_on_c, 1, 71, 0
5, 2820, Note_on_c, 1, 72, 120
5, 2880, Note_on_c, 1, 72, 0
5, 2880, Note_on_c, 1, 69, 120
5, 2940, Note_on_c, 1, 69, 0
5, 2940, Note_on_c, 1, 71, 120
5, 3000, Note_on_c, 1, 71, 0
5, 3000, Note_on_c, 1, 86, 0
5, 3000, Note_on_c, 1, 84, 120
5, 3000, Note_on_c, 1, 72, 120
5, 3060, Note_on_c, 1, 72, 0
5, 3060, Note_on_c, 1, 84, 0
5, 3060, Note_on_c, 1, 83, 120
5, 3060, Note_on_c, 1, 74, 120
5, 3120, Note_on_c, 1, 74, 0
5, 3120, Note_on_c, 1, 83, 0
5, 3120, Note_on_c, 1, 84, 120
5, 3120, Note_on_c, 1, 76, 120
5, 3180, Note_on_c, 1, 76, 0
5, 3180, Note_on_c, 1, 84, 0
5, 3180, Note_on_c, 1, 86, 120
5, 3180, Note_on_c, 1, 78, 120
5, 3240, Note_on_c, 1, 78, 0
5, 3240, Note_on_c, 1, 86, 0
5, 3240, Note_on_c, 1, 83, 120
5, 3240, Note_on_c, 1, 79, 120
5, 3300, Note_on_c, 1, 83, 0
5, 3300, Note_on_c, 1, 84, 120
5, 3360, Note_on_c, 1, 84, 0
5, 3360, Note_on_c, 1, 81, 120
5, 3420, Note_on_c, 1, 81, 0
5, 3420, Note_on_c, 1, 84, 120
5, 3480, Note_on_c, 1, 84, 0
5, 3480, Note_on_c, 1, 79, 0
5, 3480, Note_on_c, 1, 83, 120
5, 3480, Note_on_c, 1, 78, 120
5, 3540, Note_on_c, 1, 78, 0
5, 3540, Note_on_c, 1, 83, 0
5, 3540, Note_on_c, 1, 84, 120
5, 3540, Note_on_c, 1, 76, 120
5, 3600, Note_on_c, 1, 76, 0
5, 3600, Note_on_c, 1, 84, 0
5, 3600, Note_on_c, 1, 86, 120
5, 3600, Note_on_c, 1, 78, 120
5, 3628, Note_on_c, 1, 76, 120
5, 3630, Note_on_c, 1, 78, 0
5, 3658, Note_on_c, 1, 76, 0
5, 3660, Note_on_c, 1, 86, 0
5, 3660, Note_on_c, 1, 88, 120
5, 3660, Note_on_c, 1, 78, 120
5, 3720, Note_on_c, 1, 88, 0
5, 3720, Note_on_c, 1, 84, 120
5, 3780, Note_on_c, 1, 84, 0
5, 3780, Note_on_c, 1, 86, 120
5, 3840, Note_on_c, 1, 86, 0
5, 3840, Note_on_c, 1, 78, 0
5, 3840, Note_on_c, 1, 83, 120
5, 3840, Note_on_c, 1, 79, 120
5, 3900, Note_on_c, 1, 83, 0
5, 3900, Note_on_c, 1, 81, 120
5, 3960, Note_on_c, 1, 81, 0
5, 3960, Note_on_c, 1, 83, 120
5, 3960, Note_on_c, 1, 67, 120
5, 4020, Note_on_c, 1, 67, 0
5, 4020, Note_on_c, 1, 83, 0
5, 4020, Note_on_c, 1, 84, 120
5, 4020, Note_on_c, 1, 65, 120
5, 4080, Note_on_c, 1, 65, 0
5, 4080, Note_on_c, 1, 84, 0
5, 4080, Note_on_c, 1, 83, 120
5, 4080, Note_on_c, 1, 67, 120
5, 4139, Note_on_c, 1, 67, 0
5, 4140, Note_on_c, 1, 83, 0
5, 4140, Note_on_c, 1, 84, 120
5, 4200, Note_on_c, 1, 84, 0
5, 4200, Note_on_c, 1, 81, 120
5, 4200, Note_on_c, 1, 60, 120
5, 4259, Note_on_c, 1, 60, 0
5, 4260, Note_on_c, 1, 81, 0
5, 4260, Note_on_c, 1, 83, 120
5, 4320, Note_on_c, 1, 83, 0
5, 4320, Note_on_c, 1, 84, 120
5, 4320, Note_on_c, 1, 69, 120
5, 4348, Note_on_c, 1, 67, 120
5, 4350, Note_on_c, 1, 69, 0
5, 4378, Note_on_c, 1, 67, 0
5, 4380, Note_on_c, 1, 79, 0
5, 4380, Note_on_c, 1, 76, 120
5, 4380, Note_on_c, 1, 69, 120
5, 4440, Note_on_c, 1, 76, 0
5, 4440, Note_on_c, 1, 77, 120
5, 4500, Note_on_c, 1, 84, 0
5, 4500, Note_on_c, 1, 81, 120
5, 4560, Note_on_c, 1, 81, 0
5, 4560, Note_on_c, 1, 69, 0
5, 4560, Note_on_c, 1, 82, 120
5, 4560, Note_on_c, 1, 67, 120
5, 4620, Note_on_c, 1, 77, 0
5, 4620, Note_on_c, 1, 74, 120
5, 4680, Note_on_c, 1, 74, 0
5, 4680, Note_on_c, 1, 76, 120
5, 4740, Note_on_c, 1, 82, 0
5, 4740, Note_on_c, 1, 79, 120
5, 4800, Note_on_c, 1, 79, 0
5, 4800, Note_on_c, 1, 67, 0
5, 4800, Note_on_c, 1, 81, 120
5, 4920, Note_on_c, 1, 76, 0
5, 4920, Note_on_c, 1, 74, 120
5, 4920, Note_on_c, 1, 65, 120
5, 4980, Note_on_c, 1, 65, 0
5, 4980, Note_on_c, 1, 64, 120
5, 5040, Note_on_c, 1, 64, 0
5, 5040, Note_on_c, 1, 74, 0
5, 5040, Note_on_c, 1, 81, 0
5, 5040, Note_on_c, 1, 83, 120
5, 5040, Note_on_c, 1, 79, 120
5, 5040, Note_on_c, 1, 65, 120
5, 5100, Note_on_c, 1, 65, 0
5, 5100, Note_on_c, 1, 67, 120
5, 5160, Note_on_c, 1, 67, 0
5, 5160, Note_on_c, 1, 83, 0
5, 5160, Note_on_c, 1, 84, 120
5, 5160, Note_on_c, 1, 64, 120
5, 5220, Note_on_c, 1, 64, 0
5, 5220, Note_on_c, 1, 65, 120
5, 5280, Note_on_c, 1, 65, 0
5, 5280, Note_on_c, 1, 79, 0
5, 5280, Note_on_c, 1, 77, 120
5, 5280, Note_on_c, 1, 62, 120
5, 5340, Note_on_c, 1, 62, 0
5, 5340, Note_on_c, 1, 77, 0
5, 5340, Note_on_c, 1, 81, 120
5, 5340, Note_on_c, 1, 65, 120
5, 5400, Note_on_c, 1, 65, 0
5, 5400, Note_on_c, 1, 81, 0
5, 5400, Note_on_c, 1, 84, 0
5, 5400, Note_on_c, 1, 84, 120
5, 5400, Note_on_c, 1, 79, 120
5, 5400, Note_on_c, 1, 64, 120
5, 5460, Note_on_c, 1, 64, 0
5, 5460, Note_on_c, 1, 79, 0
5, 5460, Note_on_c, 1, 81, 120
5, 5460, Note_on_c, 1, 65, 120
5, 5520, Note_on_c, 1, 65, 0
5, 5520, Note_on_c, 1, 81, 0
5, 5520, Note_on_c, 1, 74, 120
5, 5520, Note_on_c, 1, 67, 120
5, 5580, Note_on_c, 1, 67, 0
5, 5580, Note_on_c, 1, 69, 120
5, 5640, Note_on_c, 1, 69, 0
5, 5640, Note_on_c, 1, 84, 0
5, 5640, Note_on_c, 1, 83, 120
5, 5640, Note_on_c, 1, 65, 120
5, 5700, Note_on_c, 1, 65, 0
5, 5700, Note_on_c, 1, 67, 120
5, 5760, Note_on_c, 1, 67, 0
5, 5760, Note_on_c, 1, 83, 0
5, 5760, Note_on_c, 1, 74, 0
5, 5760, Note_on_c, 1, 84, 120
5, 5760, Note_on_c, 1, 72, 120
5, 5760, Note_on_c, 1, 64, 120
5, 5819, Note_on_c, 1, 72, 0
5, 5820, Note_on_c, 1, 64, 0
5, 5820, Note_on_c, 1, 62, 120
5, 5880, Note_on_c, 1, 62, 0
5, 5880, Note_on_c, 1, 84, 0
5, 5880, Note_on_c, 1, 91, 120
5, 5880, Note_on_c, 1, 64, 120
5, 5940, Note_on_c, 1, 64, 0
5, 5940, Note_on_c, 1, 91, 0
5, 5940, Note_on_c, 1, 89, 120
5, 5940, Note_on_c, 1, 65, 120
5, 6000, Note_on_c, 1, 65, 0
5, 6000, Note_on_c, 1, 89, 0
5, 6000, Note_on_c, 1, 91, 120
5, 6000, Note_on_c, 1, 64, 120
5, 6059, Note_on_c, 1, 91, 0
5, 6060, Note_on_c, 1, 64, 0
5, 6060, Note_on_c, 1, 65, 120
5, 6120, Note_on_c, 1, 65, 0
5, 6120, Note_on_c, 1, 84, 120
5, 6120, Note_on_c, 1, 62, 120
5, 6179, Note_on_c, 1, 84, 0
5, 6180, Note_on_c, 1, 62, 0
5, 6180, Note_on_c, 1, 64, 120
5, 6240, Note_on_c, 1, 64, 0
5, 6240, Note_on_c, 1, 93, 120
5, 6240, Note_on_c, 1, 65, 120
5, 6300, Note_on_c, 1, 65, 0
5, 6300, Note_on_c, 1, 64, 120
5, 6360, Note_on_c, 1, 64, 0
5, 6360, Note_on_c, 1, 84, 120
5, 6360, Note_on_c, 1, 65, 120
5, 6420, Note_on_c, 1, 65, 0
5, 6420, Note_on_c, 1, 84, 0
5, 6420, Note_on_c, 1, 83, 120
5, 6420, Note_on_c, 1, 67, 120
5, 6480, Note_on_c, 1, 67, 0
5, 6480, Note_on_c, 1, 83, 0
5, 6480, Note_on_c, 1, 93, 0
5, 6480, Note_on_c, 1, 91, 120
5, 6480, Note_on_c, 1, 84, 120
5, 6480, Note_on_c, 1, 65, 120
5, 6539, Note_on_c, 1, 84, 0
5, 6540, Note_on_c, 1, 65, 0
5, 6540, Note_on_c, 1, 67, 120
5, 6600, Note_on_c, 1, 67, 0
5, 6600, Note_on_c, 1, 79, 120
5, 6600, Note_on_c, 1, 64, 120
5, 6659, Note_on_c, 1, 79, 0
5, 6660, Note_on_c, 1, 64, 0
5, 6660, Note_on_c, 1, 65, 120
5, 6720, Note_on_c, 1, 65, 0
5, 6720, Note_on_c, 1, 91, 0
5, 6720, Note_on_c, 1, 90, 120
5, 6720, Note_on_c, 1, 86, 120
5, 6720, Note_on_c, 1, 62, 120
5, 6780, Note_on_c, 1, 62, 0
5, 6780, Note_on_c, 1, 61, 120
5, 6840, Note_on_c, 1, 61, 0
5, 6840, Note_on_c, 1, 90, 0
5, 6840, Note_on_c, 1, 93, 120
5, 6840, Note_on_c, 1, 62, 120
5, 6900, Note_on_c, 1, 62, 0
5, 6900, Note_on_c, 1, 93, 0
5, 6900, Note_on_c, 1, 91, 120
5, 6900, Note_on_c, 1, 64, 120
5, 6960, Note_on_c, 1, 64, 0
5, 6960, Note_on_c, 1, 91, 0
5, 6960, Note_on_c, 1, 86, 0
5, 6960, Note_on_c, 1, 93, 120
5, 6960, Note_on_c, 1, 84, 120
5, 6960, Note_on_c, 1, 66, 120
5, 7019, Note_on_c, 1, 93, 0
5, 7020, Note_on_c, 1, 66, 0
5, 7020, Note_on_c, 1, 67, 120
5, 7080, Note_on_c, 1, 67, 0
5, 7080, Note_on_c, 1, 86, 120
5, 7080, Note_on_c, 1, 64, 120
5, 7139, Note_on_c, 1, 86, 0
5, 7140, Note_on_c, 1, 64, 0
5, 7140, Note_on_c, 1, 66, 120
5, 7200, Note_on_c, 1, 66, 0
5, 7200, Note_on_c, 1, 84, 0
5, 7200, Note_on_c, 1, 95, 120
5, 7200, Note_on_c, 1, 83, 120
5, 7200, Note_on_c, 1, 67, 120
5, 7260, Note_on_c, 1, 67, 0
5, 7260, Note_on_c, 1, 66, 120
5, 7320, Note_on_c, 1, 66, 0
5, 7320, Note_on_c, 1, 83, 0
5, 7320, Note_on_c, 1, 86, 120
5, 7320, Note_on_c, 1, 67, 120
5, 7380, Note_on_c, 1, 67, 0
5, 7380, Note_on_c, 1, 86, 0
5, 7380, Note_on_c, 1, 84, 120
5, 7380, Note_on_c, 1, 69, 120
5, 7440, Note_on_c, 1, 69, 0
5, 7440, Note_on_c, 1, 84, 0
5, 7440, Note_on_c, 1, 95, 0
5, 7440, Note_on_c, 1, 93, 120
5, 7440, Note_on_c, 1, 86, 120
5, 7440, Note_on_c, 1, 67, 120
5, 7499, Note_on_c, 1, 86, 0
5, 7500, Note_on_c, 1, 67, 0
5, 7500, Note_on_c, 1, 69, 120
5, 7560, Note_on_c, 1, 69, 0
5, 7560, Note_on_c, 1, 81, 120
5, 7560, Note_on_c, 1, 65, 120
5, 7619, Note_on_c, 1, 81, 0
5, 7620, Note_on_c, 1, 65, 0
5, 7620, Note_on_c, 1, 67, 120
5, 7680, Note_on_c, 1, 67, 0
5, 7680, Note_on_c, 1, 93, 0
5, 7680, Note_on_c, 1, 92, 120
5, 7680, Note_on_c, 1, 88, 120
5, 7680, Note_on_c, 1, 64, 120
5, 7740, Note_on_c, 1, 64, 0
5, 7740, Note_on_c, 1, 62, 120
5, 7800, Note_on_c, 1, 62, 0
5, 7800, Note_on_c, 1, 92, 0
5, 7800, Note_on_c, 1, 95, 120
5, 7800, Note_on_c, 1, 64, 120
5, 7860, Note_on_c, 1, 64, 0
5, 7860, Note_on_c, 1, 95, 0
5, 7860, Note_on_c, 1, 93, 120
5, 7860, Note_on_c, 1, 66, 120
5, 7920, Note_on_c, 1, 66, 0
5, 7920, Note_on_c, 1, 93, 0
5, 7920, Note_on_c, 1, 88, 0
5, 7920, Note_on_c, 1, 95, 120
5, 7920, Note_on_c, 1, 86, 120
5, 7920, Note_on_c, 1, 68, 120
5, 7979, Note_on_c, 1, 95, 0
5, 7980, Note_on_c, 1, 68, 0
5, 7980, Note_on_c, 1, 69, 120
5, 8040, Note_on_c, 1, 69, 0
5, 8040, Note_on_c, 1, 88, 120
5, 8040, Note_on_c, 1, 66, 120
5, 8099, Note_on_c, 1, 88, 0
5, 8100, Note_on_c, 1, 66, 0
5, 8100, Note_on_c, 1, 68, 120
5, 8160, Note_on_c, 1, 68, 0
5, 8160, Note_on_c, 1, 86, 0
5, 8160, Note_on_c, 1, 96, 120
5, 8160, Note_on_c, 1, 84, 120
5, 8160, Note_on_c, 1, 69, 120
5, 8220, Note_on_c, 1, 69, 0
5, 8220, Note_on_c, 1, 68, 120
5, 8280, Note_on_c, 1, 68, 0
5, 8280, Note_on_c, 1, 84, 0
5, 8280, Note_on_c, 1, 88, 120
5, 8280, Note_on_c, 1, 69, 120
5, 8340, Note_on_c, 1, 69, 0
5, 8340, Note_on_c, 1, 88, 0
5, 8340, Note_on_c, 1, 86, 120
5, 8340, Note_on_c, 1, 71, 120
5, 8400, Note_on_c, 1, 71, 0
5, 8400, Note_on_c, 1, 86, 0
5, 8400, Note_on_c, 1, 88, 120
5, 8400, Note_on_c, 1, 69, 120
5, 8460, Note_on_c, 1, 69, 0
5, 8460, Note_on_c, 1, 71, 120
5, 8520, Note_on_c, 1, 71, 0
5, 8520, Note_on_c, 1, 88, 0
5, 8520, Note_on_c, 1, 93, 120
5, 8520, Note_on_c, 1, 67, 120
5, 8580, Note_on_c, 1, 67, 0
5, 8580, Note_on_c, 1, 69, 120
5, 8640, Note_on_c, 1, 69, 0
5, 8640, Note_on_c, 1, 93, 0
5, 8640, Note_on_c, 1, 86, 120
5, 8640, Note_on_c, 1, 66, 120
5, 8700, Note_on_c, 1, 66, 0
5, 8700, Note_on_c, 1, 67, 120
5, 8760, Note_on_c, 1, 67, 0
5, 8760, Note_on_c, 1, 96, 0
5, 8760, Note_on_c, 1, 96, 120
5, 8760, Note_on_c, 1, 64, 120
5, 8820, Note_on_c, 1, 64, 0
5, 8820, Note_on_c, 1, 66, 120
5, 8880, Note_on_c, 1, 66, 0
5, 8880, Note_on_c, 1, 96, 0
5, 8880, Note_on_c, 1, 95, 120
5, 8880, Note_on_c, 1, 67, 120
5, 8940, Note_on_c, 1, 67, 0
5, 8940, Note_on_c, 1, 69, 120
5, 9000, Note_on_c, 1, 69, 0
5, 9000, Note_on_c, 1, 95, 0
5, 9000, Note_on_c, 1, 91, 120
5, 9000, Note_on_c, 1, 71, 120
5, 9060, Note_on_c, 1, 71, 0
5, 9060, Note_on_c, 1, 67, 120
5, 9120, Note_on_c, 1, 67, 0
5, 9120, Note_on_c, 1, 91, 0
5, 9120, Note_on_c, 1, 88, 120
5, 9120, Note_on_c, 1, 72, 120
5, 9180, Note_on_c, 1, 72, 0
5, 9180, Note_on_c, 1, 71, 120
5, 9240, Note_on_c, 1, 71, 0
5, 9240, Note_on_c, 1, 86, 0
5, 9240, Note_on_c, 1, 84, 120
5, 9240, Note_on_c, 1, 72, 120
5, 9300, Note_on_c, 1, 72, 0
5, 9300, Note_on_c, 1, 84, 0
5, 9300, Note_on_c, 1, 83, 120
5, 9300, Note_on_c, 1, 74, 120
5, 9360, Note_on_c, 1, 74, 0
5, 9360, Note_on_c, 1, 83, 0
5, 9360, Note_on_c, 1, 88, 0
5, 9360, Note_on_c, 1, 90, 120
5, 9360, Note_on_c, 1, 81, 120
5, 9360, Note_on_c, 1, 72, 120
5, 9420, Note_on_c, 1, 72, 0
5, 9420, Note_on_c, 1, 74, 120
5, 9480, Note_on_c, 1, 74, 0
5, 9480, Note_on_c, 1, 81, 0
5, 9480, Note_on_c, 1, 90, 0
5, 9480, Note_on_c, 1, 91, 120
5, 9480, Note_on_c, 1, 83, 120
5, 9480, Note_on_c, 1, 71, 120
5, 9540, Note_on_c, 1, 71, 0
5, 9540, Note_on_c, 1, 72, 120
5, 9600, Note_on_c, 1, 72, 0
5, 9600, Note_on_c, 1, 74, 120
5, 9720, Note_on_c, 1, 83, 0
5, 9720, Note_on_c, 1, 91, 0
5, 9720, Note_on_c, 1, 90, 120
5, 9720, Note_on_c, 1, 81, 120
5, 9780, Note_on_c, 1, 81, 0
5, 9780, Note_on_c, 1, 90, 0
5, 9780, Note_on_c, 1, 88, 120
5, 9780, Note_on_c, 1, 79, 120
5, 9840, Note_on_c, 1, 79, 0
5, 9840, Note_on_c, 1, 88, 0
5, 9840, Note_on_c, 1, 91, 120
5, 9840, Note_on_c, 1, 81, 120
5, 9878, Note_on_c, 1, 90, 120
5, 9886, Note_on_c, 1, 91, 0
5, 9904, Note_on_c, 1, 91, 120
5, 9910, Note_on_c, 1, 90, 0
5, 9922, Note_on_c, 1, 90, 120
5, 9933, Note_on_c, 1, 91, 0
5, 9946, Note_on_c, 1, 91, 120
5, 9951, Note_on_c, 1, 90, 0
5, 9960, Note_on_c, 1, 81, 0
5, 9960, Note_on_c, 1, 74, 120
5, 9966, Note_on_c, 1, 90, 120
5, 9975, Note_on_c, 1, 91, 0
5, 10020, Note_on_c, 1, 91, 120
5, 10022, Note_on_c, 1, 90, 0
5, 10079, Note_on_c, 1, 74, 0
5, 10079, Note_on_c, 1, 91, 0
5, 10080, Note_on_c, 1, 74, 0
5, 10080, Note_on_c, 1, 91, 120
5, 10080, Note_on_c, 1, 83, 120
5, 10080, Note_on_c, 1, 67, 120
5, 10200, Note_on_c, 1, 67, 0
5, 10200, Note_on_c, 1, 91, 0
5, 10200, Note_on_c, 1, 88, 120
5, 10200, Note_on_c, 1, 79, 120
5, 10260, Note_on_c, 1, 79, 0
5, 10260, Note_on_c, 1, 77, 120
5, 10320, Note_on_c, 1, 77, 0
5, 10320, Note_on_c, 1, 88, 0
5, 10320, Note_on_c, 1, 83, 0
5, 10320, Note_on_c, 1, 85, 120
5, 10320, Note_on_c, 1, 81, 120
5, 10320, Note_on_c, 1, 79, 120
5, 10380, Note_on_c, 1, 79, 0
5, 10380, Note_on_c, 1, 81, 120
5, 10440, Note_on_c, 1, 81, 0
5, 10440, Note_on_c, 1, 85, 0
5, 10440, Note_on_c, 1, 86, 120
5, 10440, Note_on_c, 1, 77, 120
5, 10500, Note_on_c, 1, 77, 0
5, 10500, Note_on_c, 1, 79, 120
5, 10560, Note_on_c, 1, 79, 0
5, 10560, Note_on_c, 1, 81, 0
5, 10560, Note_on_c, 1, 76, 120
5, 10620, Note_on_c, 1, 86, 0
5, 10620, Note_on_c, 1, 91, 120
5, 10680, Note_on_c, 1, 91, 0
5, 10680, Note_on_c, 1, 94, 120
5, 10680, Note_on_c, 1, 79, 120
5, 10740, Note_on_c, 1, 79, 0
5, 10740, Note_on_c, 1, 94, 0
5, 10740, Note_on_c, 1, 93, 120
5, 10740, Note_on_c, 1, 77, 120
5, 10800, Note_on_c, 1, 77, 0
5, 10800, Note_on_c, 1, 93, 0
5, 10800, Note_on_c, 1, 91, 120
5, 10800, Note_on_c, 1, 79, 120
5, 10860, Note_on_c, 1, 79, 0
5, 10860, Note_on_c, 1, 91, 0
5, 10860, Note_on_c, 1, 89, 120
5, 10860, Note_on_c, 1, 81, 120
5, 10920, Note_on_c, 1, 81, 0
5, 10920, Note_on_c, 1, 89, 0
5, 10920, Note_on_c, 1, 88, 120
5, 10920, Note_on_c, 1, 77, 120
5, 10980, Note_on_c, 1, 77, 0
5, 10980, Note_on_c, 1, 88, 0
5, 10980, Note_on_c, 1, 86, 120
5, 10980, Note_on_c, 1, 79, 120
5, 11040, Note_on_c, 1, 79, 0
5, 11040, Note_on_c, 1, 86, 0
5, 11040, Note_on_c, 1, 76, 0
5, 11040, Note_on_c, 1, 85, 120
5, 11040, Note_on_c, 1, 76, 120
5, 11100, Note_on_c, 1, 76, 0
5, 11100, Note_on_c, 1, 79, 120
5, 11160, Note_on_c, 1, 79, 0
5, 11160, Note_on_c, 1, 85, 0
5, 11160, Note_on_c, 1, 86, 120
5, 11160, Note_on_c, 1, 77, 120
5, 11160, Note_on_c, 1, 74, 120
5, 11219, Note_on_c, 1, 74, 0
5, 11220, Note_on_c, 1, 77, 0
5, 11220, Note_on_c, 1, 79, 120
5, 11280, Note_on_c, 1, 79, 0
5, 11280, Note_on_c, 1, 81, 120
5, 11280, Note_on_c, 1, 65, 120
5, 11339, Note_on_c, 1, 65, 0
5, 11340, Note_on_c, 1, 81, 0
5, 11340, Note_on_c, 1, 82, 120
5, 11400, Note_on_c, 1, 82, 0
5, 11400, Note_on_c, 1, 86, 0
5, 11400, Note_on_c, 1, 85, 120
5, 11400, Note_on_c, 1, 79, 120
5, 11400, Note_on_c, 1, 69, 120
5, 11459, Note_on_c, 1, 69, 0
5, 11460, Note_on_c, 1, 79, 0
5, 11460, Note_on_c, 1, 81, 120
5, 11520, Note_on_c, 1, 81, 0
5, 11520, Note_on_c, 1, 85, 0
5, 11520, Note_on_c, 1, 77, 120
5, 11520, Note_on_c, 1, 62, 120
5, 11580, Note_on_c, 1, 77, 0
5, 11640, Note_on_c, 1, 62, 0
5, 18240, Note_on_c, 1, 72, 120
5, 18240, Note_on_c, 1, 76, 120
5, 18300, Note_on_c, 1, 76, 0
5, 18300, Note_on_c, 1, 74, 120
5, 18360, Note_on_c, 1, 74, 0
5, 18360, Note_on_c, 1, 76, 120
5, 18360, Note_on_c, 1, 60, 120
5, 18420, Note_on_c, 1, 60, 0
5, 18420, Note_on_c, 1, 76, 0
5, 18420, Note_on_c, 1, 77, 120
5, 18420, Note_on_c, 1, 59, 120
5, 18480, Note_on_c, 1, 59, 0
5, 18480, Note_on_c, 1, 77, 0
5, 18480, Note_on_c, 1, 76, 120
5, 18480, Note_on_c, 1, 60, 120
5, 18540, Note_on_c, 1, 76, 0
5, 18540, Note_on_c, 1, 77, 120
5, 18569, Note_on_c, 1, 60, 0
5, 18600, Note_on_c, 1, 77, 0
5, 18600, Note_on_c, 1, 72, 0
5, 18600, Note_on_c, 1, 74, 120
5, 18600, Note_on_c, 1, 71, 120
5, 18600, Note_on_c, 1, 55, 120
5, 18660, Note_on_c, 1, 74, 0
5, 18660, Note_on_c, 1, 76, 120
5, 18689, Note_on_c, 1, 55, 0
5, 18720, Note_on_c, 1, 76, 0
5, 18720, Note_on_c, 1, 72, 120
5, 18720, Note_on_c, 1, 64, 120
5, 18748, Note_on_c, 1, 62, 120
5, 18749, Note_on_c, 1, 71, 0
5, 18750, Note_on_c, 1, 64, 0
5, 18778, Note_on_c, 1, 62, 0
5, 18780, Note_on_c, 1, 71, 120
5, 18780, Note_on_c, 1, 64, 120
5, 18840, Note_on_c, 1, 71, 0
5, 18840, Note_on_c, 1, 69, 120
5, 18869, Note_on_c, 1, 72, 0
5, 18900, Note_on_c, 1, 72, 120
5, 18960, Note_on_c, 1, 72, 0
5, 18960, Note_on_c, 1, 64, 0
5, 18960, Note_on_c, 1, 71, 120
5, 18960, Note_on_c, 1, 62, 120
5, 18989, Note_on_c, 1, 69, 0
5, 19020, Note_on_c, 1, 69, 120
5, 19080, Note_on_c, 1, 69, 0
5, 19080, Note_on_c, 1, 67, 120
5, 19109, Note_on_c, 1, 71, 0
5, 19140, Note_on_c, 1, 71, 120
5, 19200, Note_on_c, 1, 71, 0
5, 19200, Note_on_c, 1, 62, 0
5, 19200, Note_on_c, 1, 69, 120
5, 19289, Note_on_c, 1, 67, 0
5, 19320, Note_on_c, 1, 67, 120
5, 19320, Note_on_c, 1, 60, 120
5, 19380, Note_on_c, 1, 60, 0
5, 19380, Note_on_c, 1, 59, 120
5, 19440, Note_on_c, 1, 59, 0
5, 19440, Note_on_c, 1, 67, 0
5, 19440, Note_on_c, 1, 66, 120
5, 19440, Note_on_c, 1, 60, 120
5, 19500, Note_on_c, 1, 60, 0
5, 19500, Note_on_c, 1, 62, 120
5, 19560, Note_on_c, 1, 62, 0
5, 19560, Note_on_c, 1, 66, 0
5, 19560, Note_on_c, 1, 69, 0
5, 19560, Note_on_c, 1, 71, 120
5, 19560, Note_on_c, 1, 67, 120
5, 19560, Note_on_c, 1, 59, 120
5, 19620, Note_on_c, 1, 59, 0
5, 19620, Note_on_c, 1, 60, 120
5, 19680, Note_on_c, 1, 60, 0
5, 19680, Note_on_c, 1, 71, 0
5, 19680, Note_on_c, 1, 72, 120
5, 19680, Note_on_c, 1, 57, 120
5, 19740, Note_on_c, 1, 57, 0
5, 19740, Note_on_c, 1, 67, 0
5, 19740, Note_on_c, 1, 66, 120
5, 19740, Note_on_c, 1, 60, 120
5, 19800, Note_on_c, 1, 60, 0
5, 19800, Note_on_c, 1, 66, 0
5, 19800, Note_on_c, 1, 67, 120
5, 19800, Note_on_c, 1, 59, 120
5, 19860, Note_on_c, 1, 59, 0
5, 19860, Note_on_c, 1, 67, 0
5, 19860, Note_on_c, 1, 64, 120
5, 19860, Note_on_c, 1, 60, 120
5, 19920, Note_on_c, 1, 60, 0
5, 19920, Note_on_c, 1, 64, 0
5, 19920, Note_on_c, 1, 66, 120
5, 19920, Note_on_c, 1, 62, 120
5, 19980, Note_on_c, 1, 62, 0
5, 19980, Note_on_c, 1, 64, 120
5, 20040, Note_on_c, 1, 64, 0
5, 20040, Note_on_c, 1, 72, 0
5, 20040, Note_on_c, 1, 69, 120
5, 20040, Note_on_c, 1, 60, 120
5, 20100, Note_on_c, 1, 60, 0
5, 20100, Note_on_c, 1, 62, 120
5, 20129, Note_on_c, 1, 69, 0
5, 20160, Note_on_c, 1, 62, 0
5, 20160, Note_on_c, 1, 74, 120
5, 20160, Note_on_c, 1, 59, 120
5, 20220, Note_on_c, 1, 59, 0
5, 20220, Note_on_c, 1, 62, 120
5, 20280, Note_on_c, 1, 62, 0
5, 20280, Note_on_c, 1, 66, 0
5, 20280, Note_on_c, 1, 71, 120
5, 20280, Note_on_c, 1, 60, 120
5, 20340, Note_on_c, 1, 60, 0
5, 20340, Note_on_c, 1, 62, 120
5, 20369, Note_on_c, 1, 71, 0
5, 20400, Note_on_c, 1, 62, 0
5, 20400, Note_on_c, 1, 67, 120
5, 20400, Note_on_c, 1, 64, 120
5, 20460, Note_on_c, 1, 64, 0
5, 20460, Note_on_c, 1, 65, 120
5, 20520, Note_on_c, 1, 65, 0
5, 20520, Note_on_c, 1, 74, 0
5, 20520, Note_on_c, 1, 71, 120
5, 20520, Note_on_c, 1, 62, 120
5, 20580, Note_on_c, 1, 62, 0
5, 20580, Note_on_c, 1, 64, 120
5, 20609, Note_on_c, 1, 71, 0
5, 20640, Note_on_c, 1, 64, 0
5, 20640, Note_on_c, 1, 76, 120
5, 20640, Note_on_c, 1, 60, 120
5, 20700, Note_on_c, 1, 60, 0
5, 20700, Note_on_c, 1, 64, 120
5, 20760, Note_on_c, 1, 64, 0
5, 20760, Note_on_c, 1, 67, 0
5, 20760, Note_on_c, 1, 72, 120
5, 20760, Note_on_c, 1, 62, 120
5, 20820, Note_on_c, 1, 62, 0
5, 20820, Note_on_c, 1, 64, 120
5, 20849, Note_on_c, 1, 72, 0
5, 20880, Note_on_c, 1, 64, 0
5, 20880, Note_on_c, 1, 69, 120
5, 20880, Note_on_c, 1, 65, 120
5, 20940, Note_on_c, 1, 65, 0
5, 20940, Note_on_c, 1, 67, 120
5, 21000, Note_on_c, 1, 67, 0
5, 21000, Note_on_c, 1, 76, 0
5, 21000, Note_on_c, 1, 72, 120
5, 21000, Note_on_c, 1, 64, 120
5, 21060, Note_on_c, 1, 64, 0
5, 21060, Note_on_c, 1, 65, 120
5, 21089, Note_on_c, 1, 72, 0
5, 21120, Note_on_c, 1, 65, 0
5, 21120, Note_on_c, 1, 77, 120
5, 21120, Note_on_c, 1, 62, 120
5, 21180, Note_on_c, 1, 62, 0
5, 21180, Note_on_c, 1, 65, 120
5, 21240, Note_on_c, 1, 65, 0
5, 21240, Note_on_c, 1, 69, 0
5, 21240, Note_on_c, 1, 74, 120
5, 21240, Note_on_c, 1, 64, 120
5, 21300, Note_on_c, 1, 64, 0
5, 21300, Note_on_c, 1, 65, 120
5, 21329, Note_on_c, 1, 74, 0
5, 21360, Note_on_c, 1, 65, 0
5, 21360, Note_on_c, 1, 71, 120
5, 21360, Note_on_c, 1, 67, 120
5, 21420, Note_on_c, 1, 67, 0
5, 21420, Note_on_c, 1, 69, 120
5, 21480, Note_on_c, 1, 69, 0
5, 21480, Note_on_c, 1, 77, 0
5, 21480, Note_on_c, 1, 74, 120
5, 21480, Note_on_c, 1, 65, 120
5, 21540, Note_on_c, 1, 65, 0
5, 21540, Note_on_c, 1, 67, 120
5, 21569, Note_on_c, 1, 74, 0
5, 21600, Note_on_c, 1, 67, 0
5, 21600, Note_on_c, 1, 79, 120
5, 21600, Note_on_c, 1, 64, 120
5, 21660, Note_on_c, 1, 64, 0
5, 21660, Note_on_c, 1, 62, 120
5, 21720, Note_on_c, 1, 62, 0
5, 21720, Note_on_c, 1, 71, 0
5, 21720, Note_on_c, 1, 71, 120
5, 21720, Note_on_c, 1, 64, 120
5, 21780, Note_on_c, 1, 64, 0
5, 21780, Note_on_c, 1, 65, 120
5, 21840, Note_on_c, 1, 65, 0
5, 21840, Note_on_c, 1, 71, 0
5, 21840, Note_on_c, 1, 79, 0
5, 21840, Note_on_c, 1, 81, 120
5, 21840, Note_on_c, 1, 72, 120
5, 21840, Note_on_c, 1, 64, 120
5, 21900, Note_on_c, 1, 64, 0
5, 21900, Note_on_c, 1, 65, 120
5, 21960, Note_on_c, 1, 65, 0
5, 21960, Note_on_c, 1, 72, 0
5, 21960, Note_on_c, 1, 81, 0
5, 21960, Note_on_c, 1, 83, 120
5, 21960, Note_on_c, 1, 74, 120
5, 21960, Note_on_c, 1, 62, 120
5, 22020, Note_on_c, 1, 62, 0
5, 22020, Note_on_c, 1, 64, 120
5, 22080, Note_on_c, 1, 64, 0
5, 22080, Note_on_c, 1, 74, 0
5, 22080, Note_on_c, 1, 83, 0
5, 22080, Note_on_c, 1, 84, 120
5, 22080, Note_on_c, 1, 76, 120
5, 22080, Note_on_c, 1, 60, 120
5, 22140, Note_on_c, 1, 60, 0
5, 22140, Note_on_c, 1, 62, 120
5, 22200, Note_on_c, 1, 62, 0
5, 22200, Note_on_c, 1, 76, 0
5, 22200, Note_on_c, 1, 79, 120
5, 22200, Note_on_c, 1, 64, 120
5, 22260, Note_on_c, 1, 64, 0
5, 22260, Note_on_c, 1, 79, 0
5, 22260, Note_on_c, 1, 77, 120
5, 22260, Note_on_c, 1, 62, 120
5, 22320, Note_on_c, 1, 62, 0
5, 22320, Note_on_c, 1, 77, 0
5, 22320, Note_on_c, 1, 79, 120
5, 22320, Note_on_c, 1, 60, 120
5, 22380, Note_on_c, 1, 60, 0
5, 22380, Note_on_c, 1, 58, 120
5, 22409, Note_on_c, 1, 79, 0
5, 22440, Note_on_c, 1, 58, 0
5, 22440, Note_on_c, 1, 72, 120
5, 22440, Note_on_c, 1, 57, 120
5, 22500, Note_on_c, 1, 57, 0
5, 22500, Note_on_c, 1, 55, 120
5, 22529, Note_on_c, 1, 72, 0
5, 22560, Note_on_c, 1, 55, 0
5, 22560, Note_on_c, 1, 81, 120
5, 22560, Note_on_c, 1, 53, 120
5, 22588, Note_on_c, 1, 79, 120
5, 22590, Note_on_c, 1, 81, 0
5, 22618, Note_on_c, 1, 79, 0
5, 22620, Note_on_c, 1, 53, 0
5, 22620, Note_on_c, 1, 81, 120
5, 22620, Note_on_c, 1, 52, 120
5, 22680, Note_on_c, 1, 52, 0
5, 22680, Note_on_c, 1, 53, 120
5, 22740, Note_on_c, 1, 53, 0
5, 22740, Note_on_c, 1, 55, 120
5, 22800, Note_on_c, 1, 55, 0
5, 22800, Note_on_c, 1, 81, 0
5, 22800, Note_on_c, 1, 79, 120
5, 22800, Note_on_c, 1, 53, 120
5, 22860, Note_on_c, 1, 53, 0
5, 22860, Note_on_c, 1, 55, 120
5, 22920, Note_on_c, 1, 55, 0
5, 22920, Note_on_c, 1, 52, 120
5, 22980, Note_on_c, 1, 52, 0
5, 22980, Note_on_c, 1, 53, 120
5, 23040, Note_on_c, 1, 53, 0
5, 23040, Note_on_c, 1, 79, 0
5, 23040, Note_on_c, 1, 50, 120
5, 23100, Note_on_c, 1, 50, 0
5, 23100, Note_on_c, 1, 57, 120
5, 23160, Note_on_c, 1, 57, 0
5, 23160, Note_on_c, 1, 77, 120
5, 23160, Note_on_c, 1, 59, 120
5, 23220, Note_on_c, 1, 59, 0
5, 23220, Note_on_c, 1, 77, 0
5, 23220, Note_on_c, 1, 76, 120
5, 23220, Note_on_c, 1, 60, 120
5, 23280, Note_on_c, 1, 60, 0
5, 23280, Note_on_c, 1, 76, 0
5, 23280, Note_on_c, 1, 77, 120
5, 23280, Note_on_c, 1, 62, 120
5, 23340, Note_on_c, 1, 62, 0
5, 23340, Note_on_c, 1, 77, 0
5, 23340, Note_on_c, 1, 79, 120
5, 23340, Note_on_c, 1, 64, 120
5, 23400, Note_on_c, 1, 64, 0
5, 23400, Note_on_c, 1, 79, 0
5, 23400, Note_on_c, 1, 76, 120
5, 23400, Note_on_c, 1, 65, 120
5, 23460, Note_on_c, 1, 65, 0
5, 23460, Note_on_c, 1, 76, 0
5, 23460, Note_on_c, 1, 77, 120
5, 23460, Note_on_c, 1, 62, 120
5, 23520, Note_on_c, 1, 62, 0
5, 23520, Note_on_c, 1, 77, 0
5, 23520, Note_on_c, 1, 74, 120
5, 23520, Note_on_c, 1, 67, 120
5, 23580, Note_on_c, 1, 74, 0
5, 23580, Note_on_c, 1, 77, 120
5, 23640, Note_on_c, 1, 77, 0
5, 23640, Note_on_c, 1, 76, 120
5, 23700, Note_on_c, 1, 76, 0
5, 23700, Note_on_c, 1, 77, 120
5, 23760, Note_on_c, 1, 77, 0
5, 23760, Note_on_c, 1, 84, 0
5, 23760, Note_on_c, 1, 83, 120
5, 23760, Note_on_c, 1, 79, 120
5, 23820, Note_on_c, 1, 79, 0
5, 23820, Note_on_c, 1, 81, 120
5, 23880, Note_on_c, 1, 81, 0
5, 23880, Note_on_c, 1, 77, 120
5, 23940, Note_on_c, 1, 77, 0
5, 23940, Note_on_c, 1, 79, 120
5, 24000, Note_on_c, 1, 79, 0
5, 24000, Note_on_c, 1, 83, 0
5, 24000, Note_on_c, 1, 76, 120
5, 24060, Note_on_c, 1, 76, 0
5, 24060, Note_on_c, 1, 74, 120
5, 24120, Note_on_c, 1, 74, 0
5, 24120, Note_on_c, 1, 84, 120
5, 24120, Note_on_c, 1, 76, 120
5, 24180, Note_on_c, 1, 76, 0
5, 24180, Note_on_c, 1, 84, 0
5, 24180, Note_on_c, 1, 83, 120
5, 24180, Note_on_c, 1, 77, 120
5, 24240, Note_on_c, 1, 77, 0
5, 24240, Note_on_c, 1, 83, 0
5, 24240, Note_on_c, 1, 84, 120
5, 24240, Note_on_c, 1, 76, 120
5, 24300, Note_on_c, 1, 76, 0
5, 24300, Note_on_c, 1, 77, 120
5, 24329, Note_on_c, 1, 84, 0
5, 24360, Note_on_c, 1, 77, 0
5, 24360, Note_on_c, 1, 79, 120
5, 24360, Note_on_c, 1, 74, 120
5, 24420, Note_on_c, 1, 74, 0
5, 24420, Note_on_c, 1, 76, 120
5, 24449, Note_on_c, 1, 79, 0
5, 24480, Note_on_c, 1, 76, 0
5, 24480, Note_on_c, 1, 88, 120
5, 24480, Note_on_c, 1, 72, 120
5, 24508, Note_on_c, 1, 86, 120
5, 24510, Note_on_c, 1, 88, 0
5, 24538, Note_on_c, 1, 86, 0
5, 24540, Note_on_c, 1, 72, 0
5, 24540, Note_on_c, 1, 88, 120
5, 24540, Note_on_c, 1, 71, 120
5, 24600, Note_on_c, 1, 71, 0
5, 24600, Note_on_c, 1, 72, 120
5, 24660, Note_on_c, 1, 72, 0
5, 24660, Note_on_c, 1, 74, 120
5, 24720, Note_on_c, 1, 74, 0
5, 24720, Note_on_c, 1, 88, 0
5, 24720, Note_on_c, 1, 86, 120
5, 24720, Note_on_c, 1, 72, 120
5, 24780, Note_on_c, 1, 72, 0
5, 24780, Note_on_c, 1, 74, 120
5, 24840, Note_on_c, 1, 74, 0
5, 24840, Note_on_c, 1, 71, 120
5, 24900, Note_on_c, 1, 71, 0
5, 24900, Note_on_c, 1, 72, 120
5, 24960, Note_on_c, 1, 72, 0
5, 24960, Note_on_c, 1, 86, 0
5, 24960, Note_on_c, 1, 67, 0
5, 24960, Note_on_c, 1, 69, 120
5, 25020, Note_on_c, 1, 69, 0
5, 25020, Note_on_c, 1, 71, 120
5, 25080, Note_on_c, 1, 71, 0
5, 25080, Note_on_c, 1, 84, 120
5, 25080, Note_on_c, 1, 72, 120
5, 25140, Note_on_c, 1, 72, 0
5, 25140, Note_on_c, 1, 84, 0
5, 25140, Note_on_c, 1, 83, 120
5, 25140, Note_on_c, 1, 74, 120
5, 25200, Note_on_c, 1, 74, 0
5, 25200, Note_on_c, 1, 83, 0
5, 25200, Note_on_c, 1, 84, 120
5, 25200, Note_on_c, 1, 76, 120
5, 25260, Note_on_c, 1, 76, 0
5, 25260, Note_on_c, 1, 84, 0
5, 25260, Note_on_c, 1, 86, 120
5, 25260, Note_on_c, 1, 78, 120
5, 25320, Note_on_c, 1, 78, 0
5, 25320, Note_on_c, 1, 86, 0
5, 25320, Note_on_c, 1, 83, 120
5, 25320, Note_on_c, 1, 79, 120
5, 25320, Note_on_c, 1, 71, 120
5, 25380, Note_on_c, 1, 83, 0
5, 25380, Note_on_c, 1, 84, 120
5, 25409, Note_on_c, 1, 71, 0
5, 25440, Note_on_c, 1, 84, 0
5, 25440, Note_on_c, 1, 81, 120
5, 25440, Note_on_c, 1, 72, 120
5, 25500, Note_on_c, 1, 81, 0
5, 25500, Note_on_c, 1, 84, 120
5, 25529, Note_on_c, 1, 72, 0
5, 25560, Note_on_c, 1, 84, 0
5, 25560, Note_on_c, 1, 79, 0
5, 25560, Note_on_c, 1, 83, 120
5, 25560, Note_on_c, 1, 79, 120
5, 25560, Note_on_c, 1, 69, 120
5, 25620, Note_on_c, 1, 83, 0
5, 25620, Note_on_c, 1, 84, 120
5, 25649, Note_on_c, 1, 69, 0
5, 25680, Note_on_c, 1, 84, 0
5, 25680, Note_on_c, 1, 86, 120
5, 25680, Note_on_c, 1, 74, 120
5, 25740, Note_on_c, 1, 86, 0
5, 25740, Note_on_c, 1, 88, 120
5, 25769, Note_on_c, 1, 74, 0
5, 25800, Note_on_c, 1, 88, 0
5, 25800, Note_on_c, 1, 79, 0
5, 25800, Note_on_c, 1, 84, 120
5, 25800, Note_on_c, 1, 78, 120
5, 25800, Note_on_c, 1, 62, 120
5, 25860, Note_on_c, 1, 84, 0
5, 25860, Note_on_c, 1, 86, 120
5, 25889, Note_on_c, 1, 62, 0
5, 25920, Note_on_c, 1, 86, 0
5, 25920, Note_on_c, 1, 78, 0
5, 25920, Note_on_c, 1, 83, 120
5, 25920, Note_on_c, 1, 79, 120
5, 25920, Note_on_c, 1, 55, 120
5, 25980, Note_on_c, 1, 55, 0
5, 25980, Note_on_c, 1, 54, 120
5, 26040, Note_on_c, 1, 54, 0
5, 26040, Note_on_c, 1, 83, 0
5, 26040, Note_on_c, 1, 86, 120
5, 26040, Note_on_c, 1, 55, 120
5, 26100, Note_on_c, 1, 55, 0
5, 26100, Note_on_c, 1, 86, 0
5, 26100, Note_on_c, 1, 84, 120
5, 26100, Note_on_c, 1, 57, 120
5, 26160, Note_on_c, 1, 57, 0
5, 26160, Note_on_c, 1, 84, 0
5, 26160, Note_on_c, 1, 79, 0
5, 26160, Note_on_c, 1, 86, 120
5, 26160, Note_on_c, 1, 59, 120
5, 26220, Note_on_c, 1, 59, 0
5, 26220, Note_on_c, 1, 60, 120
5, 26249, Note_on_c, 1, 86, 0
5, 26280, Note_on_c, 1, 60, 0
5, 26280, Note_on_c, 1, 79, 120
5, 26280, Note_on_c, 1, 57, 120
5, 26340, Note_on_c, 1, 57, 0
5, 26340, Note_on_c, 1, 59, 120
5, 26369, Note_on_c, 1, 79, 0
5, 26400, Note_on_c, 1, 59, 0
5, 26400, Note_on_c, 1, 88, 120
5, 26400, Note_on_c, 1, 60, 120
5, 26460, Note_on_c, 1, 60, 0
5, 26460, Note_on_c, 1, 59, 120
5, 26520, Note_on_c, 1, 59, 0
5, 26520, Note_on_c, 1, 79, 120
5, 26520, Note_on_c, 1, 60, 120
5, 26580, Note_on_c, 1, 60, 0
5, 26580, Note_on_c, 1, 79, 0
5, 26580, Note_on_c, 1, 77, 120
5, 26580, Note_on_c, 1, 62, 120
5, 26640, Note_on_c, 1, 62, 0
5, 26640, Note_on_c, 1, 77, 0
5, 26640, Note_on_c, 1, 88, 0
5, 26640, Note_on_c, 1, 86, 120
5, 26640, Note_on_c, 1, 79, 120
5, 26640, Note_on_c, 1, 60, 120
5, 26700, Note_on_c, 1, 60, 0
5, 26700, Note_on_c, 1, 62, 120
5, 26729, Note_on_c, 1, 79, 0
5, 26760, Note_on_c, 1, 62, 0
5, 26760, Note_on_c, 1, 74, 120
5, 26760, Note_on_c, 1, 59, 120
5, 26820, Note_on_c, 1, 59, 0
5, 26820, Note_on_c, 1, 60, 120
5, 26849, Note_on_c, 1, 74, 0
5, 26880, Note_on_c, 1, 60, 0
5, 26880, Note_on_c, 1, 86, 0
5, 26880, Note_on_c, 1, 84, 120
5, 26880, Note_on_c, 1, 81, 120
5, 26880, Note_on_c, 1, 57, 120
5, 26940, Note_on_c, 1, 57, 0
5, 26940, Note_on_c, 1, 56, 120
5, 27000, Note_on_c, 1, 56, 0
5, 27000, Note_on_c, 1, 84, 0
5, 27000, Note_on_c, 1, 88, 120
5, 27000, Note_on_c, 1, 57, 120
5, 27060, Note_on_c, 1, 57, 0
5, 27060, Note_on_c, 1, 88, 0
5, 27060, Note_on_c, 1, 86, 120
5, 27060, Note_on_c, 1, 59, 120
5, 27120, Note_on_c, 1, 59, 0
5, 27120, Note_on_c, 1, 86, 0
5, 27120, Note_on_c, 1, 81, 0
5, 27120, Note_on_c, 1, 88, 120
5, 27120, Note_on_c, 1, 79, 120
5, 27120, Note_on_c, 1, 60, 120
5, 27180, Note_on_c, 1, 60, 0
5, 27180, Note_on_c, 1, 62, 120
5, 27209, Note_on_c, 1, 88, 0
5, 27240, Note_on_c, 1, 62, 0
5, 27240, Note_on_c, 1, 81, 120
5, 27240, Note_on_c, 1, 59, 120
5, 27300, Note_on_c, 1, 59, 0
5, 27300, Note_on_c, 1, 60, 120
5, 27329, Note_on_c, 1, 81, 0
5, 27360, Note_on_c, 1, 60, 0
5, 27360, Note_on_c, 1, 79, 0
5, 27360, Note_on_c, 1, 89, 120
5, 27360, Note_on_c, 1, 77, 120
5, 27360, Note_on_c, 1, 62, 120
5, 27420, Note_on_c, 1, 62, 0
5, 27420, Note_on_c, 1, 60, 120
5, 27480, Note_on_c, 1, 60, 0
5, 27480, Note_on_c, 1, 77, 0
5, 27480, Note_on_c, 1, 81, 120
5, 27480, Note_on_c, 1, 62, 120
5, 27540, Note_on_c, 1, 62, 0
5, 27540, Note_on_c, 1, 81, 0
5, 27540, Note_on_c, 1, 79, 120
5, 27540, Note_on_c, 1, 64, 120
5, 27600, Note_on_c, 1, 64, 0
5, 27600, Note_on_c, 1, 79, 0
5, 27600, Note_on_c, 1, 89, 0
5, 27600, Note_on_c, 1, 88, 120
5, 27600, Note_on_c, 1, 81, 120
5, 27600, Note_on_c, 1, 62, 120
5, 27660, Note_on_c, 1, 62, 0
5, 27660, Note_on_c, 1, 64, 120
5, 27689, Note_on_c, 1, 81, 0
5, 27720, Note_on_c, 1, 64, 0
5, 27720, Note_on_c, 1, 76, 120
5, 27720, Note_on_c, 1, 60, 120
5, 27780, Note_on_c, 1, 60, 0
5, 27780, Note_on_c, 1, 62, 120
5, 27809, Note_on_c, 1, 76, 0
5, 27840, Note_on_c, 1, 62, 0
5, 27840, Note_on_c, 1, 88, 0
5, 27840, Note_on_c, 1, 86, 120
5, 27840, Note_on_c, 1, 83, 120
5, 27840, Note_on_c, 1, 59, 120
5, 27900, Note_on_c, 1, 59, 0
5, 27900, Note_on_c, 1, 57, 120
5, 27960, Note_on_c, 1, 57, 0
5, 27960, Note_on_c, 1, 86, 0
5, 27960, Note_on_c, 1, 89, 120
5, 27960, Note_on_c, 1, 59, 120
5, 28020, Note_on_c, 1, 59, 0
5, 28020, Note_on_c, 1, 89, 0
5, 28020, Note_on_c, 1, 88, 120
5, 28020, Note_on_c, 1, 60, 120
5, 28080, Note_on_c, 1, 60, 0
5, 28080, Note_on_c, 1, 88, 0
5, 28080, Note_on_c, 1, 83, 0
5, 28080, Note_on_c, 1, 89, 120
5, 28080, Note_on_c, 1, 81, 120
5, 28080, Note_on_c, 1, 62, 120
5, 28140, Note_on_c, 1, 62, 0
5, 28140, Note_on_c, 1, 64, 120
5, 28169, Note_on_c, 1, 89, 0
5, 28200, Note_on_c, 1, 64, 0
5, 28200, Note_on_c, 1, 83, 120
5, 28200, Note_on_c, 1, 60, 120
5, 28260, Note_on_c, 1, 60, 0
5, 28260, Note_on_c, 1, 62, 120
5, 28289, Note_on_c, 1, 83, 0
5, 28320, Note_on_c, 1, 62, 0
5, 28320, Note_on_c, 1, 81, 0
5, 28320, Note_on_c, 1, 91, 120
5, 28320, Note_on_c, 1, 79, 120
5, 28320, Note_on_c, 1, 64, 120
5, 28380, Note_on_c, 1, 64, 0
5, 28380, Note_on_c, 1, 62, 120
5, 28440, Note_on_c, 1, 62, 0
5, 28440, Note_on_c, 1, 79, 0
5, 28440, Note_on_c, 1, 83, 120
5, 28440, Note_on_c, 1, 64, 120
5, 28500, Note_on_c, 1, 64, 0
5, 28500, Note_on_c, 1, 83, 0
5, 28500, Note_on_c, 1, 81, 120
5, 28500, Note_on_c, 1, 65, 120
5, 28560, Note_on_c, 1, 65, 0
5, 28560, Note_on_c, 1, 81, 0
5, 28560, Note_on_c, 1, 91, 0
5, 28560, Note_on_c, 1, 89, 120
5, 28560, Note_on_c, 1, 83, 120
5, 28560, Note_on_c, 1, 64, 120
5, 28620, Note_on_c, 1, 64, 0
5, 28620, Note_on_c, 1, 65, 120
5, 28649, Note_on_c, 1, 83, 0
5, 28680, Note_on_c, 1, 65, 0
5, 28680, Note_on_c, 1, 79, 120
5, 28680, Note_on_c, 1, 62, 120
5, 28740, Note_on_c, 1, 62, 0
5, 28740, Note_on_c, 1, 64, 120
5, 28769, Note_on_c, 1, 79, 0
5, 28800, Note_on_c, 1, 64, 0
5, 28800, Note_on_c, 1, 89, 0
5, 28800, Note_on_c, 1, 88, 120
5, 28800, Note_on_c, 1, 84, 120
5, 28800, Note_on_c, 1, 60, 120
5, 28860, Note_on_c, 1, 60, 0
5, 28860, Note_on_c, 1, 59, 120
5, 28920, Note_on_c, 1, 59, 0
5, 28920, Note_on_c, 1, 88, 0
5, 28920, Note_on_c, 1, 89, 120
5, 28920, Note_on_c, 1, 60, 120
5, 28980, Note_on_c, 1, 60, 0
5, 28980, Note_on_c, 1, 62, 120
5, 29040, Note_on_c, 1, 62, 0
5, 29040, Note_on_c, 1, 89, 0
5, 29040, Note_on_c, 1, 84, 0
5, 29040, Note_on_c, 1, 91, 120
5, 29040, Note_on_c, 1, 82, 120
5, 29040, Note_on_c, 1, 64, 120
5, 29100, Note_on_c, 1, 64, 0
5, 29100, Note_on_c, 1, 65, 120
5, 29160, Note_on_c, 1, 65, 0
5, 29160, Note_on_c, 1, 62, 120
5, 29220, Note_on_c, 1, 62, 0
5, 29220, Note_on_c, 1, 64, 120
5, 29280, Note_on_c, 1, 64, 0
5, 29280, Note_on_c, 1, 82, 0
5, 29280, Note_on_c, 1, 81, 120
5, 29280, Note_on_c, 1, 65, 120
5, 29340, Note_on_c, 1, 65, 0
5, 29340, Note_on_c, 1, 67, 120
5, 29400, Note_on_c, 1, 67, 0
5, 29400, Note_on_c, 1, 65, 120
5, 29460, Note_on_c, 1, 65, 0
5, 29460, Note_on_c, 1, 64, 120
5, 29520, Note_on_c, 1, 64, 0
5, 29520, Note_on_c, 1, 91, 0
5, 29520, Note_on_c, 1, 89, 120
5, 29520, Note_on_c, 1, 62, 120
5, 29580, Note_on_c, 1, 62, 0
5, 29580, Note_on_c, 1, 60, 120
5, 29640, Note_on_c, 1, 60, 0
5, 29640, Note_on_c, 1, 59, 120
5, 29700, Note_on_c, 1, 59, 0
5, 29700, Note_on_c, 1, 57, 120
5, 29760, Note_on_c, 1, 57, 0
5, 29760, Note_on_c, 1, 81, 0
5, 29760, Note_on_c, 1, 79, 120
5, 29760, Note_on_c, 1, 59, 120
5, 29820, Note_on_c, 1, 59, 0
5, 29820, Note_on_c, 1, 55, 120
5, 29880, Note_on_c, 1, 55, 0
5, 29880, Note_on_c, 1, 57, 120
5, 29940, Note_on_c, 1, 57, 0
5, 29940, Note_on_c, 1, 59, 120
5, 30000, Note_on_c, 1, 59, 0
5, 30000, Note_on_c, 1, 89, 0
5, 30000, Note_on_c, 1, 88, 120
5, 30000, Note_on_c, 1, 60, 120
5, 30060, Note_on_c, 1, 60, 0
5, 30060, Note_on_c, 1, 62, 120
5, 30120, Note_on_c, 1, 62, 0
5, 30120, Note_on_c, 1, 59, 120
5, 30180, Note_on_c, 1, 59, 0
5, 30180, Note_on_c, 1, 60, 120
5, 30240, Note_on_c, 1, 60, 0
5, 30240, Note_on_c, 1, 79, 0
5, 30240, Note_on_c, 1, 77, 120
5, 30240, Note_on_c, 1, 57, 120
5, 30300, Note_on_c, 1, 57, 0
5, 30300, Note_on_c, 1, 60, 120
5, 30360, Note_on_c, 1, 60, 0
5, 30360, Note_on_c, 1, 59, 120
5, 30420, Note_on_c, 1, 59, 0
5, 30420, Note_on_c, 1, 60, 120
5, 30480, Note_on_c, 1, 60, 0
5, 30480, Note_on_c, 1, 88, 0
5, 30480, Note_on_c, 1, 86, 120
5, 30480, Note_on_c, 1, 62, 120
5, 30540, Note_on_c, 1, 62, 0
5, 30540, Note_on_c, 1, 64, 120
5, 30600, Note_on_c, 1, 64, 0
5, 30600, Note_on_c, 1, 86, 0
5, 30600, Note_on_c, 1, 84, 120
5, 30600, Note_on_c, 1, 65, 120
5, 30660, Note_on_c, 1, 65, 0
5, 30660, Note_on_c, 1, 62, 120
5, 30720, Note_on_c, 1, 62, 0
5, 30720, Note_on_c, 1, 84, 0
5, 30720, Note_on_c, 1, 83, 120
5, 30720, Note_on_c, 1, 67, 120
5, 30780, Note_on_c, 1, 67, 0
5, 30780, Note_on_c, 1, 69, 120
5, 30809, Note_on_c, 1, 83, 0
5, 30840, Note_on_c, 1, 69, 0
5, 30840, Note_on_c, 1, 79, 120
5, 30840, Note_on_c, 1, 65, 120
5, 30900, Note_on_c, 1, 65, 0
5, 30900, Note_on_c, 1, 67, 120
5, 30929, Note_on_c, 1, 79, 0
5, 30960, Note_on_c, 1, 67, 0
5, 30960, Note_on_c, 1, 77, 0
5, 30960, Note_on_c, 1, 84, 120
5, 30960, Note_on_c, 1, 76, 120
5, 30960, Note_on_c, 1, 69, 120
5, 31020, Note_on_c, 1, 69, 0
5, 31020, Note_on_c, 1, 71, 120
5, 31080, Note_on_c, 1, 71, 0
5, 31080, Note_on_c, 1, 67, 120
5, 31140, Note_on_c, 1, 67, 0
5, 31140, Note_on_c, 1, 69, 120
5, 31200, Note_on_c, 1, 69, 0
5, 31200, Note_on_c, 1, 76, 0
5, 31200, Note_on_c, 1, 74, 120
5, 31200, Note_on_c, 1, 65, 120
5, 31260, Note_on_c, 1, 65, 0
5, 31260, Note_on_c, 1, 67, 120
5, 31320, Note_on_c, 1, 67, 0
5, 31320, Note_on_c, 1, 64, 120
5, 31380, Note_on_c, 1, 64, 0
5, 31380, Note_on_c, 1, 65, 120
5, 31440, Note_on_c, 1, 65, 0
5, 31440, Note_on_c, 1, 84, 0
5, 31440, Note_on_c, 1, 83, 120
5, 31440, Note_on_c, 1, 67, 120
5, 31500, Note_on_c, 1, 67, 0
5, 31500, Note_on_c, 1, 74, 0
5, 31500, Note_on_c, 1, 77, 120
5, 31500, Note_on_c, 1, 69, 120
5, 31560, Note_on_c, 1, 69, 0
5, 31560, Note_on_c, 1, 77, 0
5, 31560, Note_on_c, 1, 76, 120
5, 31560, Note_on_c, 1, 65, 120
5, 31620, Note_on_c, 1, 65, 0
5, 31620, Note_on_c, 1, 76, 0
5, 31620, Note_on_c, 1, 74, 120
5, 31620, Note_on_c, 1, 67, 120
5, 31680, Note_on_c, 1, 67, 0
5, 31680, Note_on_c, 1, 74, 0
5, 31680, Note_on_c, 1, 83, 0
5, 31680, Note_on_c, 1, 84, 120
5, 31680, Note_on_c, 1, 79, 120
5, 31680, Note_on_c, 1, 64, 120
5, 31740, Note_on_c, 1, 79, 0
5, 31740, Note_on_c, 1, 81, 120
5, 31800, Note_on_c, 1, 81, 0
5, 31800, Note_on_c, 1, 64, 0
5, 31800, Note_on_c, 1, 84, 0
5, 31800, Note_on_c, 1, 86, 120
5, 31800, Note_on_c, 1, 77, 120
5, 31800, Note_on_c, 1, 65, 120
5, 31860, Note_on_c, 1, 77, 0
5, 31860, Note_on_c, 1, 79, 120
5, 31919, Note_on_c, 1, 79, 0
5, 31920, Note_on_c, 1, 65, 0
5, 31920, Note_on_c, 1, 86, 0
5, 31920, Note_on_c, 1, 79, 120
5, 31920, Note_on_c, 1, 76, 120
5, 31920, Note_on_c, 1, 67, 120
5, 31980, Note_on_c, 1, 79, 0
5, 31980, Note_on_c, 1, 84, 120
5, 32040, Note_on_c, 1, 67, 0
5, 32040, Note_on_c, 1, 76, 0
5, 32040, Note_on_c, 1, 74, 120
5, 32040, Note_on_c, 1, 68, 120
5, 32100, Note_on_c, 1, 84, 0
5, 32100, Note_on_c, 1, 83, 120
5, 32160, Note_on_c, 1, 83, 0
5, 32160, Note_on_c, 1, 68, 0
5, 32160, Note_on_c, 1, 74, 0
5, 32160, Note_on_c, 1, 84, 120
5, 32160, Note_on_c, 1, 72, 120
5, 32160, Note_on_c, 1, 57, 120
5, 32220, Note_on_c, 1, 84, 0
5, 32220, Note_on_c, 1, 77, 120
5, 32280, Note_on_c, 1, 77, 0
5, 32280, Note_on_c, 1, 57, 0
5, 32280, Note_on_c, 1, 76, 120
5, 32280, Note_on_c, 1, 67, 120
5, 32340, Note_on_c, 1, 67, 0
5, 32340, Note_on_c, 1, 76, 0
5, 32340, Note_on_c, 1, 74, 120
5, 32340, Note_on_c, 1, 65, 120
5, 32400, Note_on_c, 1, 65, 0
5, 32400, Note_on_c, 1, 74, 0
5, 32400, Note_on_c, 1, 76, 120
5, 32400, Note_on_c, 1, 67, 120
5, 32460, Note_on_c, 1, 76, 0
5, 32460, Note_on_c, 1, 77, 120
5, 32489, Note_on_c, 1, 67, 0
5, 32520, Note_on_c, 1, 77, 0
5, 32520, Note_on_c, 1, 74, 120
5, 32520, Note_on_c, 1, 60, 120
5, 32580, Note_on_c, 1, 74, 0
5, 32580, Note_on_c, 1, 76, 120
5, 32609, Note_on_c, 1, 60, 0
5, 32640, Note_on_c, 1, 76, 0
5, 32640, Note_on_c, 1, 77, 120
5, 32640, Note_on_c, 1, 69, 120
5, 32669, Note_on_c, 1, 69, 0
5, 32670, Note_on_c, 1, 67, 120
5, 32699, Note_on_c, 1, 67, 0
5, 32700, Note_on_c, 1, 77, 0
5, 32700, Note_on_c, 1, 76, 120
5, 32700, Note_on_c, 1, 69, 120
5, 32760, Note_on_c, 1, 76, 0
5, 32760, Note_on_c, 1, 77, 120
5, 32820, Note_on_c, 1, 77, 0
5, 32820, Note_on_c, 1, 79, 120
5, 32879, Note_on_c, 1, 69, 0
5, 32880, Note_on_c, 1, 79, 0
5, 32880, Note_on_c, 1, 77, 120
5, 32880, Note_on_c, 1, 67, 120
5, 32940, Note_on_c, 1, 77, 0
5, 32940, Note_on_c, 1, 79, 120
5, 33000, Note_on_c, 1, 79, 0
5, 33000, Note_on_c, 1, 76, 120
5, 33060, Note_on_c, 1, 76, 0
5, 33060, Note_on_c, 1, 77, 120
5, 33120, Note_on_c, 1, 77, 0
5, 33120, Note_on_c, 1, 67, 0
5, 33120, Note_on_c, 1, 74, 120
5, 33180, Note_on_c, 1, 74, 0
5, 33180, Note_on_c, 1, 72, 120
5, 33240, Note_on_c, 1, 72, 0
5, 33240, Note_on_c, 1, 74, 120
5, 33240, Note_on_c, 1, 65, 120
5, 33300, Note_on_c, 1, 65, 0
5, 33300, Note_on_c, 1, 74, 0
5, 33300, Note_on_c, 1, 76, 120
5, 33300, Note_on_c, 1, 64, 120
5, 33360, Note_on_c, 1, 64, 0
5, 33360, Note_on_c, 1, 76, 0
5, 33360, Note_on_c, 1, 74, 120
5, 33360, Note_on_c, 1, 65, 120
5, 33420, Note_on_c, 1, 74, 0
5, 33420, Note_on_c, 1, 76, 120
5, 33449, Note_on_c, 1, 65, 0
5, 33480, Note_on_c, 1, 76, 0
5, 33480, Note_on_c, 1, 72, 120
5, 33480, Note_on_c, 1, 62, 120
5, 33540, Note_on_c, 1, 72, 0
5, 33540, Note_on_c, 1, 74, 120
5, 33569, Note_on_c, 1, 62, 0
5, 33600, Note_on_c, 1, 74, 0
5, 33600, Note_on_c, 1, 76, 120
5, 33600, Note_on_c, 1, 67, 120
5, 33629, Note_on_c, 1, 67, 0
5, 33630, Note_on_c, 1, 65, 120
5, 33659, Note_on_c, 1, 65, 0
5, 33660, Note_on_c, 1, 76, 0
5, 33660, Note_on_c, 1, 74, 120
5, 33660, Note_on_c, 1, 67, 120
5, 33720, Note_on_c, 1, 74, 0
5, 33720, Note_on_c, 1, 76, 120
5, 33780, Note_on_c, 1, 76, 0
5, 33780, Note_on_c, 1, 77, 120
5, 33839, Note_on_c, 1, 67, 0
5, 33840, Note_on_c, 1, 77, 0
5, 33840, Note_on_c, 1, 76, 120
5, 33840, Note_on_c, 1, 65, 120
5, 33900, Note_on_c, 1, 76, 0
5, 33900, Note_on_c, 1, 77, 120
5, 33959, Note_on_c, 1, 72, 0
5, 33960, Note_on_c, 1, 77, 0
5, 33960, Note_on_c, 1, 74, 120
5, 33960, Note_on_c, 1, 71, 120
5, 34020, Note_on_c, 1, 74, 0
5, 34020, Note_on_c, 1, 76, 120
5, 34080, Note_on_c, 1, 76, 0
5, 34080, Note_on_c, 1, 71, 0
5, 34080, Note_on_c, 1, 65, 0
5, 34080, Note_on_c, 1, 72, 120
5, 34080, Note_on_c, 1, 72, 120
5, 34080, Note_on_c, 1, 64, 120
5, 34140, Note_on_c, 1, 64, 0
5, 34140, Note_on_c, 1, 62, 120
5, 34199, Note_on_c, 1, 72, 0
5, 34200, Note_on_c, 1, 62, 0
5, 34200, Note_on_c, 1, 67, 120
5, 34200, Note_on_c, 1, 64, 120
5, 34260, Note_on_c, 1, 64, 0
5, 34260, Note_on_c, 1, 67, 0
5, 34260, Note_on_c, 1, 65, 120
5, 34260, Note_on_c, 1, 65, 120
5, 34320, Note_on_c, 1, 65, 0
5, 34320, Note_on_c, 1, 65, 0
5, 34320, Note_on_c, 1, 67, 120
5, 34320, Note_on_c, 1, 64, 120
5, 34380, Note_on_c, 1, 64, 0
5, 34380, Note_on_c, 1, 65, 120
5, 34409, Note_on_c, 1, 67, 0
5, 34440, Note_on_c, 1, 65, 0
5, 34440, Note_on_c, 1, 60, 120
5, 34440, Note_on_c, 1, 62, 120
5, 34500, Note_on_c, 1, 62, 0
5, 34500, Note_on_c, 1, 64, 120
5, 34529, Note_on_c, 1, 60, 0
5, 34560, Note_on_c, 1, 64, 0
5, 34560, Note_on_c, 1, 69, 120
5, 34560, Note_on_c, 1, 65, 120
5, 34589, Note_on_c, 1, 69, 0
5, 34590, Note_on_c, 1, 67, 120
5, 34619, Note_on_c, 1, 67, 0
5, 34620, Note_on_c, 1, 65, 0
5, 34620, Note_on_c, 1, 69, 120
5, 34620, Note_on_c, 1, 64, 120
5, 34680, Note_on_c, 1, 64, 0
5, 34680, Note_on_c, 1, 65, 120
5, 34740, Note_on_c, 1, 65, 0
5, 34740, Note_on_c, 1, 67, 120
5, 34799, Note_on_c, 1, 67, 0
5, 34799, Note_on_c, 1, 69, 0
5, 34800, Note_on_c, 1, 67, 120
5, 34800, Note_on_c, 1, 65, 120
5, 34860, Note_on_c, 1, 65, 0
5, 34860, Note_on_c, 1, 67, 120
5, 34920, Note_on_c, 1, 67, 0
5, 34920, Note_on_c, 1, 64, 120
5, 34980, Note_on_c, 1, 64, 0
5, 34980, Note_on_c, 1, 65, 120
5, 35039, Note_on_c, 1, 67, 0
5, 35040, Note_on_c, 1, 65, 0
5, 35040, Note_on_c, 1, 62, 120
5, 35100, Note_on_c, 1, 62, 0
5, 35100, Note_on_c, 1, 60, 120
5, 35160, Note_on_c, 1, 60, 0
5, 35160, Note_on_c, 1, 65, 120
5, 35160, Note_on_c, 1, 62, 120
5, 35220, Note_on_c, 1, 62, 0
5, 35220, Note_on_c, 1, 65, 0
5, 35220, Note_on_c, 1, 64, 120
5, 35220, Note_on_c, 1, 64, 120
5, 35279, Note_on_c, 1, 64, 0
5, 35280, Note_on_c, 1, 64, 0
5, 35280, Note_on_c, 1, 65, 120
5, 35280, Note_on_c, 1, 62, 120
5, 35340, Note_on_c, 1, 62, 0
5, 35340, Note_on_c, 1, 60, 120
5, 35369, Note_on_c, 1, 65, 0
5, 35400, Note_on_c, 1, 60, 0
5, 35400, Note_on_c, 1, 62, 120
5, 35400, Note_on_c, 1, 59, 120
5, 35460, Note_on_c, 1, 59, 0
5, 35460, Note_on_c, 1, 57, 120
5, 35489, Note_on_c, 1, 62, 0
5, 35520, Note_on_c, 1, 57, 0
5, 35520, Note_on_c, 1, 67, 120
5, 35520, Note_on_c, 1, 55, 120
5, 35580, Note_on_c, 1, 55, 0
5, 35580, Note_on_c, 1, 53, 120
5, 35640, Note_on_c, 1, 53, 0
5, 35640, Note_on_c, 1, 72, 0
5, 35640, Note_on_c, 1, 71, 120
5, 35640, Note_on_c, 1, 55, 120
5, 35700, Note_on_c, 1, 55, 0
5, 35700, Note_on_c, 1, 57, 120
5, 35760, Note_on_c, 1, 57, 0
5, 35760, Note_on_c, 1, 71, 0
5, 35760, Note_on_c, 1, 67, 0
5, 35760, Note_on_c, 1, 72, 120
5, 35760, Note_on_c, 1, 69, 120
5, 35760, Note_on_c, 1, 55, 120
5, 35820, Note_on_c, 1, 55, 0
5, 35820, Note_on_c, 1, 53, 120
5, 35880, Note_on_c, 1, 53, 0
5, 35880, Note_on_c, 1, 69, 0
5, 35880, Note_on_c, 1, 72, 0
5, 35880, Note_on_c, 1, 74, 120
5, 35880, Note_on_c, 1, 71, 120
5, 35880, Note_on_c, 1, 52, 120
5, 35940, Note_on_c, 1, 52, 0
5, 35940, Note_on_c, 1, 50, 120
5, 36000, Note_on_c, 1, 50, 0
5, 36000, Note_on_c, 1, 71, 0
5, 36000, Note_on_c, 1, 74, 0
5, 36000, Note_on_c, 1, 76, 120
5, 36000, Note_on_c, 1, 72, 120
5, 36000, Note_on_c, 1, 48, 120
5, 36060, Note_on_c, 1, 48, 0
5, 36060, Note_on_c, 1, 60, 120
5, 36120, Note_on_c, 1, 60, 0
5, 36120, Note_on_c, 1, 72, 0
5, 36120, Note_on_c, 1, 76, 0
5, 36120, Note_on_c, 1, 79, 120
5, 36120, Note_on_c, 1, 70, 120
5, 36120, Note_on_c, 1, 64, 120
5, 36180, Note_on_c, 1, 64, 0
5, 36180, Note_on_c, 1, 70, 0
5, 36180, Note_on_c, 1, 79, 0
5, 36180, Note_on_c, 1, 77, 120
5, 36180, Note_on_c, 1, 69, 120
5, 36180, Note_on_c, 1, 60, 120
5, 36240, Note_on_c, 1, 60, 0
5, 36240, Note_on_c, 1, 69, 0
5, 36240, Note_on_c, 1, 77, 0
5, 36240, Note_on_c, 1, 79, 120
5, 36240, Note_on_c, 1, 70, 120
5, 36240, Note_on_c, 1, 48, 120
5, 36300, Note_on_c, 1, 48, 0
5, 36300, Note_on_c, 1, 60, 120
5, 36329, Note_on_c, 1, 70, 0
5, 36329, Note_on_c, 1, 79, 0
5, 36360, Note_on_c, 1, 60, 0
5, 36360, Note_on_c, 1, 72, 120
5, 36360, Note_on_c, 1, 76, 120
5, 36360, Note_on_c, 1, 67, 120
5, 36420, Note_on_c, 1, 67, 0
5, 36420, Note_on_c, 1, 60, 120
5, 36449, Note_on_c, 1, 76, 0
5, 36449, Note_on_c, 1, 72, 0
5, 36480, Note_on_c, 1, 60, 0
5, 36480, Note_on_c, 1, 81, 120
5, 36480, Note_on_c, 1, 77, 120
5, 36480, Note_on_c, 1, 48, 120
5, 36540, Note_on_c, 1, 48, 0
5, 36540, Note_on_c, 1, 50, 120
5, 36600, Note_on_c, 1, 50, 0
5, 36600, Note_on_c, 1, 52, 120
5, 36660, Note_on_c, 1, 52, 0
5, 36660, Note_on_c, 1, 53, 120
5, 36720, Note_on_c, 1, 53, 0
5, 36720, Note_on_c, 1, 77, 0
5, 36720, Note_on_c, 1, 81, 0
5, 36720, Note_on_c, 1, 79, 120
5, 36720, Note_on_c, 1, 76, 120
5, 36720, Note_on_c, 1, 55, 120
5, 36780, Note_on_c, 1, 55, 0
5, 36780, Note_on_c, 1, 57, 120
5, 36840, Note_on_c, 1, 57, 0
5, 36840, Note_on_c, 1, 59, 120
5, 36900, Note_on_c, 1, 59, 0
5, 36900, Note_on_c, 1, 60, 120
5, 36960, Note_on_c, 1, 60, 0
5, 36960, Note_on_c, 1, 76, 0
5, 36960, Note_on_c, 1, 79, 0
5, 36960, Note_on_c, 1, 48, 120
5, 37020, Note_on_c, 1, 48, 0
5, 37020, Note_on_c, 1, 60, 120
5, 37080, Note_on_c, 1, 60, 0
5, 37080, Note_on_c, 1, 77, 120
5, 37080, Note_on_c, 1, 62, 120
5, 37140, Note_on_c, 1, 62, 0
5, 37140, Note_on_c, 1, 77, 0
5, 37140, Note_on_c, 1, 76, 120
5, 37140, Note_on_c, 1, 60, 120
5, 37200, Note_on_c, 1, 60, 0
5, 37200, Note_on_c, 1, 76, 0
5, 37200, Note_on_c, 1, 77, 120
5, 37200, Note_on_c, 1, 48, 120
5, 37260, Note_on_c, 1, 48, 0
5, 37260, Note_on_c, 1, 60, 120
5, 37289, Note_on_c, 1, 77, 0
5, 37320, Note_on_c, 1, 60, 0
5, 37320, Note_on_c, 1, 74, 120
5, 37320, Note_on_c, 1, 65, 120
5, 37380, Note_on_c, 1, 65, 0
5, 37380, Note_on_c, 1, 60, 120
5, 37409, Note_on_c, 1, 74, 0
5, 37440, Note_on_c, 1, 60, 0
5, 37440, Note_on_c, 1, 79, 120
5, 37440, Note_on_c, 1, 59, 120
5, 37500, Note_on_c, 1, 59, 0
5, 37500, Note_on_c, 1, 60, 120
5, 37560, Note_on_c, 1, 60, 0
5, 37560, Note_on_c, 1, 74, 120
5, 37560, Note_on_c, 1, 59, 120
5, 37620, Note_on_c, 1, 59, 0
5, 37620, Note_on_c, 1, 74, 0
5, 37620, Note_on_c, 1, 72, 120
5, 37620, Note_on_c, 1, 57, 120
5, 37680, Note_on_c, 1, 57, 0
5, 37680, Note_on_c, 1, 72, 0
5, 37680, Note_on_c, 1, 79, 0
5, 37680, Note_on_c, 1, 77, 120
5, 37680, Note_on_c, 1, 74, 120
5, 37680, Note_on_c, 1, 55, 120
5, 37740, Note_on_c, 1, 55, 0
5, 37740, Note_on_c, 1, 53, 120
5, 37769, Note_on_c, 1, 74, 0
5, 37800, Note_on_c, 1, 53, 0
5, 37800, Note_on_c, 1, 67, 120
5, 37800, Note_on_c, 1, 52, 120
5, 37860, Note_on_c, 1, 52, 0
5, 37860, Note_on_c, 1, 50, 120
5, 37889, Note_on_c, 1, 67, 0
5, 37920, Note_on_c, 1, 50, 0
5, 37920, Note_on_c, 1, 77, 0
5, 37920, Note_on_c, 1, 76, 120
5, 37920, Note_on_c, 1, 72, 120
5, 37920, Note_on_c, 1, 48, 120
5, 37980, Note_on_c, 1, 48, 0
5, 37980, Note_on_c, 1, 60, 120
5, 38009, Note_on_c, 1, 72, 0
5, 38009, Note_on_c, 1, 76, 0
5, 38040, Note_on_c, 1, 60, 0
5, 38040, Note_on_c, 1, 80, 120
5, 38040, Note_on_c, 1, 77, 120
5, 38040, Note_on_c, 1, 71, 120
5, 38040, Note_on_c, 1, 62, 120
5, 38100, Note_on_c, 1, 62, 0
5, 38100, Note_on_c, 1, 60, 120
5, 38129, Note_on_c, 1, 80, 0
5, 38129, Note_on_c, 1, 71, 0
5, 38129, Note_on_c, 1, 77, 0
5, 38160, Note_on_c, 1, 60, 0
5, 38160, Note_on_c, 1, 79, 120
5, 38160, Note_on_c, 1, 76, 120
5, 38160, Note_on_c, 1, 72, 120
5, 38160, Note_on_c, 1, 64, 120
5, 38220, Note_on_c, 1, 64, 0
5, 38220, Note_on_c, 1, 60, 120
5, 38249, Note_on_c, 1, 79, 0
5, 38249, Note_on_c, 1, 72, 0
5, 38249, Note_on_c, 1, 76, 0
5, 38280, Note_on_c, 1, 60, 0
5, 38280, Note_on_c, 1, 83, 120
5, 38280, Note_on_c, 1, 74, 120
5, 38280, Note_on_c, 1, 80, 120
5, 38280, Note_on_c, 1, 65, 120
5, 38340, Note_on_c, 1, 65, 0
5, 38340, Note_on_c, 1, 60, 120
5, 38369, Note_on_c, 1, 83, 0
5, 38369, Note_on_c, 1, 80, 0
5, 38369, Note_on_c, 1, 74, 0
5, 38400, Note_on_c, 1, 60, 0
5, 38400, Note_on_c, 1, 84, 120
5, 38400, Note_on_c, 1, 79, 120
5, 38400, Note_on_c, 1, 76, 120
5, 38400, Note_on_c, 1, 67, 120
5, 38460, Note_on_c, 1, 67, 0
5, 38460, Note_on_c, 1, 60, 120
5, 38489, Note_on_c, 1, 84, 0
5, 38489, Note_on_c, 1, 76, 0
5, 38489, Note_on_c, 1, 79, 0
5, 38520, Note_on_c, 1, 60, 0
5, 38520, Note_on_c, 1, 77, 120
5, 38520, Note_on_c, 1, 74, 120
5, 38520, Note_on_c, 1, 71, 120
5, 38520, Note_on_c, 1, 68, 120
5, 38580, Note_on_c, 1, 68, 0
5, 38580, Note_on_c, 1, 60, 120
5, 38609, Note_on_c, 1, 77, 0
5, 38609, Note_on_c, 1, 71, 0
5, 38609, Note_on_c, 1, 74, 0
5, 38640, Note_on_c, 1, 60, 0
5, 38640, Note_on_c, 1, 76, 120
5, 38640, Note_on_c, 1, 72, 120
5, 38640, Note_on_c, 1, 67, 120
5, 38700, Note_on_c, 1, 67, 0
5, 38700, Note_on_c, 1, 60, 120
5, 38729, Note_on_c, 1, 72, 0
5, 38729, Note_on_c, 1, 76, 0
5, 38760, Note_on_c, 1, 60, 0
5, 38760, Note_on_c, 1, 84, 120
5, 38760, Note_on_c, 1, 76, 120
5, 38760, Note_on_c, 1, 59, 120
5, 38820, Note_on_c, 1, 59, 0
5, 38820, Note_on_c, 1, 60, 120
5, 38849, Note_on_c, 1, 76, 0
5, 38849, Note_on_c, 1, 84, 0
5, 38880, Note_on_c, 1, 60, 0
5, 38880, Note_on_c, 1, 74, 120
5, 38880, Note_on_c, 1, 74, 120
5, 38880, Note_on_c, 1, 69, 120
5, 38880, Note_on_c, 1, 53, 120
5, 38969, Note_on_c, 1, 69, 0
5, 38969, Note_on_c, 1, 74, 0
5, 38969, Note_on_c, 1, 74, 0
5, 39000, Note_on_c, 1, 53, 0
5, 39000, Note_on_c, 1, 84, 120
5, 39089, Note_on_c, 1, 84, 0
5, 39120, Note_on_c, 1, 77, 120
5, 39120, Note_on_c, 1, 74, 120
5, 39120, Note_on_c, 1, 67, 120
5, 39120, Note_on_c, 1, 55, 120
5, 39209, Note_on_c, 1, 67, 0
5, 39209, Note_on_c, 1, 77, 0
5, 39209, Note_on_c, 1, 74, 0
5, 39240, Note_on_c, 1, 55, 0
5, 39240, Note_on_c, 1, 83, 120
5, 39329, Note_on_c, 1, 83, 0
5, 39360, Note_on_c, 1, 84, 120
5, 39360, Note_on_c, 1, 79, 120
5, 39360, Note_on_c, 1, 76, 120
5, 39360, Note_on_c, 1, 72, 120
5, 39360, Note_on_c, 1, 48, 120
5, 39840, Note_on_c, 1, 48, 0
5, 39840, Note_on_c, 1, 76, 0
5, 39840, Note_on_c, 1, 84, 0
5, 39840, Note_on_c, 1, 79, 0
5, 39840, Note_on_c, 1, 72, 0
5, 39840, End_track
0, 0, End_of_file
