0, 0, Header, 1, 5, 240
1, 0, Start_track
1, 0, Time_signature, 4, 2, 24, 8
1, 0, Key_signature, -3, "major"
1, 0, Tempo, 1276596
1, 0, Marker_t, "(c) Yo Tomita, 1997"
1, 21228, Tempo, 1276596
1, 21232, Tempo, 1282051
1, 21236, Tempo, 1284797
1, 21240, Tempo, 1287554
1, 21244, Tempo, 1293103
1, 21248, Tempo, 1295896
1, 21252, Tempo, 1298701
1, 21256, Tempo, 1301518
1, 21260, Tempo, 1307190
1, 21264, Tempo, 1310044
1, 21268, Tempo, 1312910
1, 21272, Tempo, 1315789
1, 21276, Tempo, 1321586
1, 21280, Tempo, 1324503
1, 21284, Tempo, 1327434
1, 21288, Tempo, 1333333
1, 21292, Tempo, 1336303
1, 21296, Tempo, 1339286
1, 21300, Tempo, 1342282
1, 21304, Tempo, 1348315
1, 21308, Tempo, 1351351
1, 21312, Tempo, 1354402
1, 21316, Tempo, 1357466
1, 21320, Tempo, 1363636
1, 21324, Tempo, 1366743
1, 21328, Tempo, 1369863
1, 21332, Tempo, 1372998
1, 21336, Tempo, 1379310
1, 21340, Tempo, 1382488
1, 21344, Tempo, 1385681
1, 21348, Tempo, 1392111
1, 21352, Tempo, 1395349
1, 21356, Tempo, 1398601
1, 21360, Tempo, 1401869
1, 21364, Tempo, 1408451
1, 21368, Tempo, 1411765
1, 21372, Tempo, 1415094
1, 21376, Tempo, 1418440
1, 21380, Tempo, 1425178
1, 21384, Tempo, 1428571
1, 21388, Tempo, 1431981
1, 21392, Tempo, 1438849
1, 21396, Tempo, 1442308
1, 21400, Tempo, 1445783
1, 21404, Tempo, 1449275
1, 21408, Tempo, 1456311
1, 21412, Tempo, 1459854
1, 21416, Tempo, 1463415
1, 21420, Tempo, 1466993
1, 21424, Tempo, 1474201
1, 21428, Tempo, 1477833
1, 21432, Tempo, 1481481
1, 21436, Tempo, 1485149
1, 21440, Tempo, 1492537
1, 21444, Tempo, 1496259
1, 21448, Tempo, 1500000
1, 21452, Tempo, 1507538
1, 21456, Tempo, 1511335
1, 21460, Tempo, 1515152
1, 21464, Tempo, 1518987
1, 21468, Tempo, 1526718
1, 21472, Tempo, 1530612
1, 21476, Tempo, 1534527
1, 21480, Tempo, 1538462
1, 21484, Tempo, 1546392
1, 21488, Tempo, 1550388
1, 21492, Tempo, 1554404
1, 21496, Tempo, 1562500
1, 21500, Tempo, 1566580
1, 21504, Tempo, 1570681
1, 21508, Tempo, 1574803
1, 21512, Tempo, 1583113
1, 21516, Tempo, 1587302
1, 21520, Tempo, 1591512
1, 21524, Tempo, 1595745
1, 21528, Tempo, 1604278
1, 21532, Tempo, 1608579
1, 21536, Tempo, 1612903
1, 21540, Tempo, 1617251
1, 21546, Tempo, 1764706
1, 21598, Tempo, 2000000
1, 21740, Tempo, 1456311
1, 21748, Tempo, 1452785
1, 21756, Tempo, 1449275
1, 21764, Tempo, 1445783
1, 21772, Tempo, 1442308
1, 21780, Tempo, 1438849
1, 21788, Tempo, 1435407
1, 21796, Tempo, 1431981
1, 21804, Tempo, 1428571
1, 21808, Tempo, 1425178
1, 21816, Tempo, 1421801
1, 21824, Tempo, 1418440
1, 21832, Tempo, 1415094
1, 21840, Tempo, 1411765
1, 21848, Tempo, 1408451
1, 21856, Tempo, 1405152
1, 21864, Tempo, 1401869
1, 21872, Tempo, 1398601
1, 21876, Tempo, 1395349
1, 21884, Tempo, 1392111
1, 21892, Tempo, 1388889
1, 21900, Tempo, 1385681
1, 21908, Tempo, 1382488
1, 21916, Tempo, 1379310
1, 21924, Tempo, 1376147
1, 21932, Tempo, 1372998
1, 21936, Tempo, 1369863
1, 21944, Tempo, 1366743
1, 21952, Tempo, 1363636
1, 21960, Tempo, 1360544
1, 21968, Tempo, 1357466
1, 21976, Tempo, 1354402
1, 21984, Tempo, 1351351
1, 21992, Tempo, 1348315
1, 22000, Tempo, 1345291
1, 22004, Tempo, 1342282
1, 22012, Tempo, 1339286
1, 22020, Tempo, 1336303
1, 22028, Tempo, 1333333
1, 22036, Tempo, 1330377
1, 22044, Tempo, 1327434
1, 22052, Tempo, 1324503
1, 22060, Tempo, 1321586
1, 22068, Tempo, 1318681
1, 22072, Tempo, 1315789
1, 22080, Tempo, 1312910
1, 22088, Tempo, 1310044
1, 22096, Tempo, 1307190
1, 22104, Tempo, 1304348
1, 22112, Tempo, 1301518
1, 22120, Tempo, 1298701
1, 22128, Tempo, 1295896
1, 22132, Tempo, 1293103
1, 25264, Tempo, 1293103
1, 25272, Tempo, 1295896
1, 25280, Tempo, 1298701
1, 25288, Tempo, 1301518
1, 25296, Tempo, 1304348
1, 25304, Tempo, 1307190
1, 25312, Tempo, 1310044
1, 25320, Tempo, 1312910
1, 25328, Tempo, 1315789
1, 25336, Tempo, 1318681
1, 25344, Tempo, 1321586
1, 25352, Tempo, 1324503
1, 25360, Tempo, 1327434
1, 25368, Tempo, 1330377
1, 25376, Tempo, 1333333
1, 25380, Tempo, 1336303
1, 25388, Tempo, 1339286
1, 25396, Tempo, 1342282
1, 25404, Tempo, 1345291
1, 25412, Tempo, 1348315
1, 25420, Tempo, 1351351
1, 25428, Tempo, 1354402
1, 25436, Tempo, 1357466
1, 25444, Tempo, 1360544
1, 25452, Tempo, 1363636
1, 25460, Tempo, 1366743
1, 25468, Tempo, 1369863
1, 25476, Tempo, 1372998
1, 25484, Tempo, 1376147
1, 25492, Tempo, 1379310
1, 25496, Tempo, 1382488
1, 25504, Tempo, 1385681
1, 25512, Tempo, 1388889
1, 25520, Tempo, 1392111
1, 25528, Tempo, 1395349
1, 25536, Tempo, 1398601
1, 25544, Tempo, 1401869
1, 25552, Tempo, 1405152
1, 25560, Tempo, 1408451
1, 25568, Tempo, 1411765
1, 25576, Tempo, 1415094
1, 25584, Tempo, 1418440
1, 25592, Tempo, 1421801
1, 25600, Tempo, 1425178
1, 25604, Tempo, 1428571
1, 25608, Tempo, 1431981
1, 25612, Tempo, 1438849
1, 25616, Tempo, 1442308
1, 25620, Tempo, 1449275
1, 25624, Tempo, 1452785
1, 25628, Tempo, 1459854
1, 25632, Tempo, 1463415
1, 25636, Tempo, 1470588
1, 25640, Tempo, 1474201
1, 25644, Tempo, 1481481
1, 25648, Tempo, 1485149
1, 25652, Tempo, 1492537
1, 25656, Tempo, 1496259
1, 25660, Tempo, 1503759
1, 25664, Tempo, 1511335
1, 25668, Tempo, 1515152
1, 25672, Tempo, 1522843
1, 25676, Tempo, 1526718
1, 25680, Tempo, 1534527
1, 25684, Tempo, 1538462
1, 25688, Tempo, 1546392
1, 25692, Tempo, 1550388
1, 25696, Tempo, 1558442
1, 25700, Tempo, 1562500
1, 25704, Tempo, 1570681
1, 25708, Tempo, 1574803
1, 25712, Tempo, 1583113
1, 25716, Tempo, 1591512
1, 25720, Tempo, 1595745
1, 25724, Tempo, 1604278
1, 25728, Tempo, 1608579
1, 25732, Tempo, 1617251
1, 25736, Tempo, 1621622
1, 25740, Tempo, 1630435
1, 25744, Tempo, 1634877
1, 25748, Tempo, 1643836
1, 25752, Tempo, 1648352
1, 25756, Tempo, 1657459
1, 25760, Tempo, 1662050
1, 25764, Tempo, 1671309
1, 25768, Tempo, 1680672
1, 25772, Tempo, 1685393
1, 25776, Tempo, 1694915
1, 25780, Tempo, 1699717
1, 25784, Tempo, 1709402
1, 25788, Tempo, 1714286
1, 25792, Tempo, 1724138
1, 25796, Tempo, 1729107
1, 25800, Tempo, 1739130
1, 25804, Tempo, 1744186
1, 25808, Tempo, 1754386
1, 25812, Tempo, 1759531
1, 25816, Tempo, 1769912
1, 25820, Tempo, 1780415
1, 25824, Tempo, 1785714
1, 25828, Tempo, 1796407
1, 25832, Tempo, 1801802
1, 25836, Tempo, 1812689
1, 25840, Tempo, 1818182
1, 25844, Tempo, 1829268
1, 25848, Tempo, 1834862
1, 25852, Tempo, 2298851
1, 25856, Tempo, 2247191
1, 25860, Tempo, 2298851
1, 25920, Tempo, 2197802
1, 25924, Tempo, 2173913
1, 25928, Tempo, 2120141
1, 26880, Tempo, 1395349
1, 26880, End_track
2, 0, Start_track
2, 0, MIDI_port, 0
2, 0, Title_t, "BWV 871/2"
2, 0, Program_c, 0, 6
2, 1080, Note_on_c, 0, 72, 64
2, 1200, Note_on_c, 0, 72, 0
2, 1200, Note_on_c, 0, 70, 64
2, 1320, Note_on_c, 0, 70, 0
2, 1320, Note_on_c, 0, 72, 64
2, 1440, Note_on_c, 0, 72, 0
2, 1440, Note_on_c, 0, 74, 64
2, 1560, Note_on_c, 0, 74, 0
2, 1560, Note_on_c, 0, 67, 64
2, 1680, Note_on_c, 0, 67, 0
2, 1680, Note_on_c, 0, 72, 64
2, 1800, Note_on_c, 0, 72, 0
2, 1800, Note_on_c, 0, 70, 64
2, 1860, Note_on_c, 0, 70, 0
2, 1860, Note_on_c, 0, 69, 64
2, 1920, Note_on_c, 0, 69, 0
2, 1920, Note_on_c, 0, 70, 64
2, 2160, Note_on_c, 0, 70, 0
2, 2160, Note_on_c, 0, 68, 64
2, 2400, Note_on_c, 0, 68, 0
2, 2400, Note_on_c, 0, 67, 64
2, 2520, Note_on_c, 0, 67, 0
2, 2520, Note_on_c, 0, 72, 64
2, 2640, Note_on_c, 0, 72, 0
2, 2640, Note_on_c, 0, 65, 64
2, 3000, Note_on_c, 0, 65, 0
2, 3000, Note_on_c, 0, 63, 64
2, 3060, Note_on_c, 0, 63, 0
2, 3060, Note_on_c, 0, 62, 64
2, 3120, Note_on_c, 0, 62, 0
2, 3120, Note_on_c, 0, 67, 64
2, 3240, Note_on_c, 0, 67, 0
2, 3240, Note_on_c, 0, 65, 64
2, 3360, Note_on_c, 0, 65, 0
2, 3360, Note_on_c, 0, 63, 64
2, 3600, Note_on_c, 0, 63, 0
2, 3600, Note_on_c, 0, 63, 64
2, 3622, Note_on_c, 0, 62, 64
2, 3629, Note_on_c, 0, 63, 0
2, 3636, Note_on_c, 0, 63, 64
2, 3639, Note_on_c, 0, 62, 0
2, 3654, Note_on_c, 0, 62, 64
2, 3665, Note_on_c, 0, 63, 0
2, 3670, Note_on_c, 0, 63, 64
2, 3683, Note_on_c, 0, 63, 0
2, 3683, Note_on_c, 0, 62, 0
2, 3686, Note_on_c, 0, 62, 64
2, 3702, Note_on_c, 0, 63, 64
2, 3711, Note_on_c, 0, 62, 0
2, 3718, Note_on_c, 0, 62, 64
2, 3727, Note_on_c, 0, 63, 0
2, 3840, Note_on_c, 0, 60, 64
2, 3841, Note_on_c, 0, 62, 0
2, 3959, Note_on_c, 0, 60, 0
2, 3960, Note_on_c, 0, 67, 64
2, 4049, Note_on_c, 0, 67, 0
2, 4080, Note_on_c, 0, 72, 64
2, 4440, Note_on_c, 0, 72, 0
2, 4440, Note_on_c, 0, 70, 64
2, 4500, Note_on_c, 0, 70, 0
2, 4500, Note_on_c, 0, 72, 64
2, 4560, Note_on_c, 0, 72, 0
2, 4560, Note_on_c, 0, 74, 64
2, 4620, Note_on_c, 0, 74, 0
2, 4620, Note_on_c, 0, 76, 64
2, 4680, Note_on_c, 0, 76, 0
2, 4680, Note_on_c, 0, 77, 64
2, 4740, Note_on_c, 0, 77, 0
2, 4740, Note_on_c, 0, 79, 64
2, 4800, Note_on_c, 0, 79, 0
2, 4800, Note_on_c, 0, 80, 64
2, 4860, Note_on_c, 0, 80, 0
2, 4860, Note_on_c, 0, 77, 64
2, 4920, Note_on_c, 0, 77, 0
2, 4920, Note_on_c, 0, 84, 64
2, 4980, Note_on_c, 0, 84, 0
2, 4980, Note_on_c, 0, 82, 64
2, 5040, Note_on_c, 0, 82, 0
2, 5040, Note_on_c, 0, 80, 64
2, 5100, Note_on_c, 0, 80, 0
2, 5100, Note_on_c, 0, 79, 64
2, 5160, Note_on_c, 0, 79, 0
2, 5160, Note_on_c, 0, 77, 64
2, 5220, Note_on_c, 0, 77, 0
2, 5220, Note_on_c, 0, 75, 64
2, 5280, Note_on_c, 0, 75, 0
2, 5280, Note_on_c, 0, 74, 64
2, 5340, Note_on_c, 0, 74, 0
2, 5340, Note_on_c, 0, 70, 64
2, 5400, Note_on_c, 0, 70, 0
2, 5400, Note_on_c, 0, 77, 64
2, 5460, Note_on_c, 0, 77, 0
2, 5460, Note_on_c, 0, 75, 64
2, 5520, Note_on_c, 0, 75, 0
2, 5520, Note_on_c, 0, 74, 64
2, 5580, Note_on_c, 0, 74, 0
2, 5580, Note_on_c, 0, 72, 64
2, 5640, Note_on_c, 0, 72, 0
2, 5640, Note_on_c, 0, 70, 64
2, 5700, Note_on_c, 0, 70, 0
2, 5700, Note_on_c, 0, 68, 64
2, 5760, Note_on_c, 0, 68, 0
2, 5760, Note_on_c, 0, 67, 64
2, 5880, Note_on_c, 0, 67, 0
2, 6900, Note_on_c, 0, 79, 64
2, 6960, Note_on_c, 0, 79, 0
2, 6960, Note_on_c, 0, 75, 64
2, 7140, Note_on_c, 0, 75, 0
2, 7140, Note_on_c, 0, 77, 64
2, 7200, Note_on_c, 0, 77, 0
2, 7200, Note_on_c, 0, 79, 64
2, 7320, Note_on_c, 0, 79, 0
2, 7320, Note_on_c, 0, 72, 64
2, 7439, Note_on_c, 0, 72, 0
2, 7440, Note_on_c, 0, 77, 64
2, 7560, Note_on_c, 0, 77, 0
2, 7560, Note_on_c, 0, 75, 64
2, 7620, Note_on_c, 0, 75, 0
2, 7620, Note_on_c, 0, 74, 64
2, 7680, Note_on_c, 0, 74, 0
2, 7680, Note_on_c, 0, 75, 64
2, 7800, Note_on_c, 0, 75, 0
2, 7800, Note_on_c, 0, 68, 64
2, 7919, Note_on_c, 0, 68, 0
2, 7920, Note_on_c, 0, 73, 64
2, 8040, Note_on_c, 0, 73, 0
2, 8040, Note_on_c, 0, 72, 64
2, 8100, Note_on_c, 0, 72, 0
2, 8100, Note_on_c, 0, 70, 64
2, 8160, Note_on_c, 0, 70, 0
2, 8160, Note_on_c, 0, 72, 64
2, 8280, Note_on_c, 0, 72, 0
2, 8280, Note_on_c, 0, 65, 64
2, 8399, Note_on_c, 0, 65, 0
2, 8400, Note_on_c, 0, 70, 64
2, 8520, Note_on_c, 0, 70, 0
2, 8520, Note_on_c, 0, 68, 64
2, 8580, Note_on_c, 0, 68, 0
2, 8580, Note_on_c, 0, 67, 64
2, 8640, Note_on_c, 0, 67, 0
2, 8640, Note_on_c, 0, 68, 64
2, 8820, Note_on_c, 0, 68, 0
2, 8820, Note_on_c, 0, 68, 64
2, 8880, Note_on_c, 0, 68, 0
2, 8880, Note_on_c, 0, 62, 64
2, 9000, Note_on_c, 0, 62, 0
2, 9000, Note_on_c, 0, 63, 64
2, 9120, Note_on_c, 0, 63, 0
2, 9120, Note_on_c, 0, 65, 64
2, 9240, Note_on_c, 0, 65, 0
2, 9240, Note_on_c, 0, 63, 64
2, 9480, Note_on_c, 0, 63, 0
2, 9480, Note_on_c, 0, 65, 64
2, 9720, Note_on_c, 0, 65, 0
2, 9720, Note_on_c, 0, 63, 64
2, 9840, Note_on_c, 0, 63, 0
2, 9840, Note_on_c, 0, 68, 64
2, 10020, Note_on_c, 0, 68, 0
2, 10020, Note_on_c, 0, 68, 64
2, 10080, Note_on_c, 0, 68, 0
2, 10080, Note_on_c, 0, 67, 64
2, 10260, Note_on_c, 0, 67, 0
2, 10260, Note_on_c, 0, 67, 64
2, 10320, Note_on_c, 0, 67, 0
2, 10320, Note_on_c, 0, 72, 64
2, 10500, Note_on_c, 0, 72, 0
2, 10500, Note_on_c, 0, 70, 64
2, 10620, Note_on_c, 0, 70, 0
2, 10620, Note_on_c, 0, 70, 64
2, 10680, Note_on_c, 0, 70, 0
2, 10680, Note_on_c, 0, 68, 64
2, 10860, Note_on_c, 0, 68, 0
2, 10860, Note_on_c, 0, 67, 64
2, 10920, Note_on_c, 0, 67, 0
2, 10920, Note_on_c, 0, 68, 64
2, 10980, Note_on_c, 0, 68, 0
2, 10980, Note_on_c, 0, 70, 64
2, 11040, Note_on_c, 0, 70, 0
2, 11040, Note_on_c, 0, 64, 64
2, 11160, Note_on_c, 0, 64, 0
2, 11220, Note_on_c, 0, 68, 64
2, 11280, Note_on_c, 0, 68, 0
2, 11280, Note_on_c, 0, 73, 64
2, 11460, Note_on_c, 0, 73, 0
2, 11460, Note_on_c, 0, 72, 64
2, 11580, Note_on_c, 0, 72, 0
2, 11580, Note_on_c, 0, 72, 64
2, 11640, Note_on_c, 0, 72, 0
2, 11640, Note_on_c, 0, 70, 64
2, 11820, Note_on_c, 0, 70, 0
2, 11820, Note_on_c, 0, 69, 64
2, 11880, Note_on_c, 0, 69, 0
2, 11880, Note_on_c, 0, 70, 64
2, 11940, Note_on_c, 0, 70, 0
2, 11940, Note_on_c, 0, 72, 64
2, 12000, Note_on_c, 0, 72, 0
2, 12000, Note_on_c, 0, 66, 64
2, 12120, Note_on_c, 0, 66, 0
2, 12120, Note_on_c, 0, 67, 64
2, 12300, Note_on_c, 0, 67, 0
2, 12300, Note_on_c, 0, 67, 64
2, 12420, Note_on_c, 0, 67, 0
2, 12420, Note_on_c, 0, 66, 64
2, 12480, Note_on_c, 0, 66, 0
2, 12480, Note_on_c, 0, 67, 64
2, 12600, Note_on_c, 0, 67, 0
2, 12600, Note_on_c, 0, 79, 64
2, 12720, Note_on_c, 0, 79, 0
2, 12720, Note_on_c, 0, 75, 64
2, 12840, Note_on_c, 0, 75, 0
2, 12840, Note_on_c, 0, 77, 64
2, 12960, Note_on_c, 0, 77, 0
2, 12960, Note_on_c, 0, 79, 64
2, 13080, Note_on_c, 0, 79, 0
2, 13080, Note_on_c, 0, 72, 64
2, 13200, Note_on_c, 0, 72, 0
2, 13200, Note_on_c, 0, 77, 64
2, 13320, Note_on_c, 0, 77, 0
2, 13320, Note_on_c, 0, 75, 64
2, 13380, Note_on_c, 0, 75, 0
2, 13380, Note_on_c, 0, 74, 64
2, 13440, Note_on_c, 0, 74, 0
2, 13440, Note_on_c, 0, 75, 64
2, 13500, Note_on_c, 0, 75, 0
2, 13500, Note_on_c, 0, 74, 64
2, 13560, Note_on_c, 0, 74, 0
2, 13560, Note_on_c, 0, 72, 64
2, 13620, Note_on_c, 0, 72, 0
2, 13620, Note_on_c, 0, 71, 64
2, 13680, Note_on_c, 0, 71, 0
2, 13680, Note_on_c, 0, 72, 64
2, 13740, Note_on_c, 0, 72, 0
2, 13740, Note_on_c, 0, 75, 64
2, 13800, Note_on_c, 0, 75, 0
2, 13800, Note_on_c, 0, 77, 64
2, 13860, Note_on_c, 0, 77, 0
2, 13860, Note_on_c, 0, 79, 64
2, 13920, Note_on_c, 0, 79, 0
2, 13920, Note_on_c, 0, 80, 64
2, 13980, Note_on_c, 0, 80, 0
2, 13980, Note_on_c, 0, 72, 64
2, 14040, Note_on_c, 0, 72, 0
2, 14040, Note_on_c, 0, 71, 64
2, 14100, Note_on_c, 0, 71, 0
2, 14100, Note_on_c, 0, 69, 64
2, 14160, Note_on_c, 0, 69, 0
2, 14160, Note_on_c, 0, 71, 64
2, 14220, Note_on_c, 0, 71, 0
2, 14220, Note_on_c, 0, 79, 64
2, 14280, Note_on_c, 0, 79, 0
2, 14280, Note_on_c, 0, 77, 64
2, 14340, Note_on_c, 0, 77, 0
2, 14340, Note_on_c, 0, 79, 64
2, 14400, Note_on_c, 0, 79, 0
2, 14400, Note_on_c, 0, 75, 64
2, 14520, Note_on_c, 0, 75, 0
2, 15000, Note_on_c, 0, 79, 64
2, 15120, Note_on_c, 0, 79, 0
2, 15120, Note_on_c, 0, 76, 64
2, 15240, Note_on_c, 0, 76, 0
2, 15240, Note_on_c, 0, 78, 64
2, 15360, Note_on_c, 0, 78, 0
2, 15360, Note_on_c, 0, 79, 64
2, 15480, Note_on_c, 0, 79, 0
2, 15480, Note_on_c, 0, 72, 64
2, 15600, Note_on_c, 0, 72, 0
2, 15600, Note_on_c, 0, 77, 64
2, 15720, Note_on_c, 0, 77, 0
2, 15720, Note_on_c, 0, 75, 64
2, 15780, Note_on_c, 0, 75, 0
2, 15780, Note_on_c, 0, 74, 64
2, 15840, Note_on_c, 0, 74, 0
2, 15840, Note_on_c, 0, 75, 64
2, 16020, Note_on_c, 0, 75, 0
2, 16020, Note_on_c, 0, 75, 64
2, 16080, Note_on_c, 0, 75, 0
2, 16080, Note_on_c, 0, 74, 64
2, 16200, Note_on_c, 0, 74, 0
2, 16200, Note_on_c, 0, 76, 64
2, 16320, Note_on_c, 0, 76, 0
2, 16320, Note_on_c, 0, 77, 64
2, 16440, Note_on_c, 0, 77, 0
2, 16440, Note_on_c, 0, 70, 64
2, 16560, Note_on_c, 0, 70, 0
2, 16560, Note_on_c, 0, 75, 64
2, 16680, Note_on_c, 0, 75, 0
2, 16680, Note_on_c, 0, 74, 64
2, 16740, Note_on_c, 0, 74, 0
2, 16740, Note_on_c, 0, 72, 64
2, 16800, Note_on_c, 0, 72, 0
2, 16800, Note_on_c, 0, 74, 64
2, 16920, Note_on_c, 0, 74, 0
2, 16920, Note_on_c, 0, 67, 64
2, 17040, Note_on_c, 0, 67, 0
2, 17040, Note_on_c, 0, 75, 64
2, 17340, Note_on_c, 0, 75, 0
2, 17340, Note_on_c, 0, 75, 64
2, 17400, Note_on_c, 0, 75, 0
2, 17400, Note_on_c, 0, 74, 64
2, 17580, Note_on_c, 0, 74, 0
2, 17580, Note_on_c, 0, 72, 64
2, 17700, Note_on_c, 0, 72, 0
2, 17700, Note_on_c, 0, 71, 64
2, 17760, Note_on_c, 0, 71, 0
2, 17760, Note_on_c, 0, 72, 64
2, 17880, Note_on_c, 0, 72, 0
2, 17880, Note_on_c, 0, 79, 64
2, 18000, Note_on_c, 0, 79, 0
2, 18000, Note_on_c, 0, 74, 64
2, 18120, Note_on_c, 0, 74, 0
2, 18120, Note_on_c, 0, 75, 64
2, 18180, Note_on_c, 0, 75, 0
2, 18180, Note_on_c, 0, 77, 64
2, 18240, Note_on_c, 0, 77, 0
2, 18240, Note_on_c, 0, 75, 64
2, 18360, Note_on_c, 0, 75, 0
2, 18360, Note_on_c, 0, 74, 64
2, 18480, Note_on_c, 0, 74, 0
2, 18540, Note_on_c, 0, 72, 64
2, 18660, Note_on_c, 0, 72, 0
2, 18660, Note_on_c, 0, 70, 64
2, 18720, Note_on_c, 0, 70, 0
2, 18720, Note_on_c, 0, 68, 64
2, 18900, Note_on_c, 0, 68, 0
2, 18900, Note_on_c, 0, 68, 64
2, 18960, Note_on_c, 0, 68, 0
2, 18960, Note_on_c, 0, 67, 64
2, 19440, Note_on_c, 0, 67, 0
2, 19440, Note_on_c, 0, 72, 64
2, 19980, Note_on_c, 0, 72, 0
2, 19980, Note_on_c, 0, 71, 64
2, 20040, Note_on_c, 0, 71, 0
2, 20040, Note_on_c, 0, 72, 64
2, 20100, Note_on_c, 0, 72, 0
2, 20100, Note_on_c, 0, 74, 64
2, 20160, Note_on_c, 0, 74, 0
2, 20160, Note_on_c, 0, 67, 64
2, 20280, Note_on_c, 0, 67, 0
2, 20280, Note_on_c, 0, 68, 64
2, 20400, Note_on_c, 0, 68, 0
2, 20400, Note_on_c, 0, 67, 64
2, 20580, Note_on_c, 0, 67, 0
2, 20580, Note_on_c, 0, 69, 64
2, 20640, Note_on_c, 0, 69, 0
2, 20640, Note_on_c, 0, 70, 64
2, 20760, Note_on_c, 0, 70, 0
2, 20760, Note_on_c, 0, 71, 64
2, 20880, Note_on_c, 0, 71, 0
2, 20940, Note_on_c, 0, 67, 64
2, 21000, Note_on_c, 0, 67, 0
2, 21000, Note_on_c, 0, 72, 64
2, 21060, Note_on_c, 0, 72, 0
2, 21060, Note_on_c, 0, 66, 64
2, 21120, Note_on_c, 0, 66, 0
2, 21120, Note_on_c, 0, 67, 64
2, 21240, Note_on_c, 0, 67, 0
2, 21240, Note_on_c, 0, 63, 64
2, 21360, Note_on_c, 0, 63, 0
2, 21360, Note_on_c, 0, 62, 64
2, 21600, Note_on_c, 0, 62, 0
2, 21600, Note_on_c, 0, 60, 64
2, 21720, Note_on_c, 0, 60, 0
2, 21960, Note_on_c, 0, 72, 64
2, 22080, Note_on_c, 0, 72, 0
2, 22080, Note_on_c, 0, 71, 64
2, 22200, Note_on_c, 0, 71, 0
2, 22200, Note_on_c, 0, 72, 64
2, 22320, Note_on_c, 0, 72, 0
2, 22320, Note_on_c, 0, 74, 64
2, 22440, Note_on_c, 0, 74, 0
2, 22440, Note_on_c, 0, 67, 64
2, 22560, Note_on_c, 0, 67, 0
2, 22560, Note_on_c, 0, 72, 64
2, 22680, Note_on_c, 0, 72, 0
2, 22680, Note_on_c, 0, 70, 64
2, 22740, Note_on_c, 0, 70, 0
2, 22740, Note_on_c, 0, 68, 64
2, 22800, Note_on_c, 0, 68, 0
2, 22800, Note_on_c, 0, 70, 64
2, 22920, Note_on_c, 0, 70, 0
2, 22920, Note_on_c, 0, 72, 64
2, 23040, Note_on_c, 0, 72, 0
2, 23040, Note_on_c, 0, 68, 64
2, 23160, Note_on_c, 0, 68, 0
2, 23160, Note_on_c, 0, 70, 64
2, 23280, Note_on_c, 0, 70, 0
2, 23280, Note_on_c, 0, 72, 64
2, 23400, Note_on_c, 0, 72, 0
2, 23400, Note_on_c, 0, 65, 64
2, 23520, Note_on_c, 0, 65, 0
2, 23520, Note_on_c, 0, 70, 64
2, 23640, Note_on_c, 0, 70, 0
2, 23640, Note_on_c, 0, 68, 64
2, 23700, Note_on_c, 0, 68, 0
2, 23700, Note_on_c, 0, 67, 64
2, 23760, Note_on_c, 0, 67, 0
2, 23760, Note_on_c, 0, 68, 64
2, 23880, Note_on_c, 0, 68, 0
2, 23880, Note_on_c, 0, 67, 64
2, 24120, Note_on_c, 0, 67, 0
2, 24120, Note_on_c, 0, 69, 64
2, 24180, Note_on_c, 0, 69, 0
2, 24180, Note_on_c, 0, 70, 64
2, 24210, Note_on_c, 0, 70, 0
2, 24210, Note_on_c, 0, 72, 64
2, 24240, Note_on_c, 0, 72, 0
2, 24240, Note_on_c, 0, 65, 64
2, 24360, Note_on_c, 0, 65, 0
2, 24360, Note_on_c, 0, 72, 64
2, 24480, Note_on_c, 0, 72, 0
2, 24480, Note_on_c, 0, 74, 64
2, 24600, Note_on_c, 0, 74, 0
2, 24600, Note_on_c, 0, 72, 64
2, 24660, Note_on_c, 0, 72, 0
2, 24660, Note_on_c, 0, 71, 64
2, 24720, Note_on_c, 0, 71, 0
2, 24720, Note_on_c, 0, 72, 64
2, 24960, Note_on_c, 0, 72, 0
2, 25020, Note_on_c, 0, 74, 64
2, 25080, Note_on_c, 0, 74, 0
2, 25080, Note_on_c, 0, 75, 64
2, 25140, Note_on_c, 0, 75, 0
2, 25140, Note_on_c, 0, 71, 64
2, 25200, Note_on_c, 0, 71, 0
2, 25200, Note_on_c, 0, 72, 64
2, 25680, Note_on_c, 0, 72, 0
2, 25800, Note_on_c, 0, 71, 64
2, 25920, Note_on_c, 0, 71, 0
2, 25950, Note_on_c, 0, 72, 64
2, 26880, Note_on_c, 0, 72, 0
2, 26880, End_track
3, 0, Start_track
3, 0, MIDI_port, 0
3, 0, Title_t, "Sequenced"
3, 0, Program_c, 0, 6
3, 120, Note_on_c, 0, 67, 64
3, 240, Note_on_c, 0, 67, 0
3, 240, Note_on_c, 0, 63, 64
3, 360, Note_on_c, 0, 63, 0
3, 360, Note_on_c, 0, 65, 64
3, 480, Note_on_c, 0, 65, 0
3, 480, Note_on_c, 0, 67, 64
3, 600, Note_on_c, 0, 67, 0
3, 600, Note_on_c, 0, 60, 64
3, 720, Note_on_c, 0, 60, 0
3, 720, Note_on_c, 0, 65, 64
3, 840, Note_on_c, 0, 65, 0
3, 840, Note_on_c, 0, 63, 64
3, 900, Note_on_c, 0, 63, 0
3, 900, Note_on_c, 0, 62, 64
3, 960, Note_on_c, 0, 62, 0
3, 960, Note_on_c, 0, 63, 64
3, 1200, Note_on_c, 0, 63, 0
3, 1200, Note_on_c, 0, 62, 64
3, 1320, Note_on_c, 0, 62, 0
3, 1320, Note_on_c, 0, 60, 64
3, 1440, Note_on_c, 0, 60, 0
3, 1440, Note_on_c, 0, 58, 64
3, 1680, Note_on_c, 0, 58, 0
3, 1680, Note_on_c, 0, 58, 64
3, 1696, Note_on_c, 0, 58, 0
3, 1706, Note_on_c, 0, 57, 64
3, 1720, Note_on_c, 0, 58, 64
3, 1723, Note_on_c, 0, 57, 0
3, 1729, Note_on_c, 0, 58, 0
3, 1734, Note_on_c, 0, 57, 64
3, 1747, Note_on_c, 0, 57, 0
3, 1748, Note_on_c, 0, 58, 64
3, 1758, Note_on_c, 0, 58, 0
3, 1764, Note_on_c, 0, 57, 64
3, 1778, Note_on_c, 0, 58, 64
3, 1787, Note_on_c, 0, 57, 0
3, 1796, Note_on_c, 0, 57, 64
3, 1805, Note_on_c, 0, 58, 0
3, 1920, Note_on_c, 0, 57, 0
3, 1920, Note_on_c, 0, 55, 64
3, 2040, Note_on_c, 0, 55, 0
3, 2040, Note_on_c, 0, 67, 64
3, 2280, Note_on_c, 0, 67, 0
3, 2280, Note_on_c, 0, 65, 64
3, 2520, Note_on_c, 0, 65, 0
3, 2520, Note_on_c, 0, 63, 64
3, 2760, Note_on_c, 0, 63, 0
3, 2760, Note_on_c, 0, 62, 64
3, 2820, Note_on_c, 0, 62, 0
3, 2820, Note_on_c, 0, 60, 64
3, 2880, Note_on_c, 0, 60, 0
3, 2880, Note_on_c, 0, 59, 64
3, 3120, Note_on_c, 0, 59, 0
3, 3120, Note_on_c, 0, 60, 64
3, 3600, Note_on_c, 0, 60, 0
3, 3600, Note_on_c, 0, 59, 64
3, 3840, Note_on_c, 0, 59, 0
3, 3840, Note_on_c, 0, 60, 64
3, 4080, Note_on_c, 0, 60, 0
3, 4200, Note_on_c, 0, 63, 64
3, 4320, Note_on_c, 0, 63, 0
3, 4320, Note_on_c, 0, 62, 64
3, 4380, Note_on_c, 0, 62, 0
3, 4380, Note_on_c, 0, 66, 64
3, 4440, Note_on_c, 0, 66, 0
3, 4440, Note_on_c, 0, 67, 64
3, 4560, Note_on_c, 0, 67, 0
3, 5400, Note_on_c, 0, 62, 64
3, 5520, Note_on_c, 0, 62, 0
3, 5520, Note_on_c, 0, 58, 64
3, 5640, Note_on_c, 0, 58, 0
3, 5640, Note_on_c, 0, 62, 64
3, 5760, Note_on_c, 0, 62, 0
3, 5760, Note_on_c, 0, 63, 64
3, 5820, Note_on_c, 0, 63, 0
3, 5820, Note_on_c, 0, 60, 64
3, 5880, Note_on_c, 0, 60, 0
3, 5880, Note_on_c, 0, 68, 64
3, 5940, Note_on_c, 0, 68, 0
3, 5940, Note_on_c, 0, 67, 64
3, 6000, Note_on_c, 0, 67, 0
3, 6000, Note_on_c, 0, 65, 64
3, 6060, Note_on_c, 0, 65, 0
3, 6060, Note_on_c, 0, 63, 64
3, 6120, Note_on_c, 0, 63, 0
3, 6120, Note_on_c, 0, 62, 64
3, 6180, Note_on_c, 0, 62, 0
3, 6180, Note_on_c, 0, 60, 64
3, 6240, Note_on_c, 0, 60, 0
3, 6240, Note_on_c, 0, 59, 64
3, 6300, Note_on_c, 0, 59, 0
3, 6300, Note_on_c, 0, 65, 64
3, 6360, Note_on_c, 0, 65, 0
3, 6360, Note_on_c, 0, 63, 64
3, 6420, Note_on_c, 0, 63, 0
3, 6420, Note_on_c, 0, 62, 64
3, 6480, Note_on_c, 0, 62, 0
3, 6480, Note_on_c, 0, 63, 64
3, 6540, Note_on_c, 0, 63, 0
3, 6540, Note_on_c, 0, 68, 64
3, 6600, Note_on_c, 0, 68, 0
3, 6600, Note_on_c, 0, 67, 64
3, 6660, Note_on_c, 0, 67, 0
3, 6660, Note_on_c, 0, 65, 64
3, 6720, Note_on_c, 0, 65, 0
3, 6720, Note_on_c, 0, 74, 64
3, 6780, Note_on_c, 0, 74, 0
3, 6780, Note_on_c, 0, 72, 64
3, 6840, Note_on_c, 0, 72, 0
3, 6840, Note_on_c, 0, 74, 64
3, 7020, Note_on_c, 0, 74, 0
3, 7020, Note_on_c, 0, 71, 64
3, 7080, Note_on_c, 0, 71, 0
3, 7080, Note_on_c, 0, 72, 64
3, 7260, Note_on_c, 0, 72, 0
3, 7260, Note_on_c, 0, 71, 64
3, 7320, Note_on_c, 0, 71, 0
3, 7320, Note_on_c, 0, 72, 64
3, 7500, Note_on_c, 0, 72, 0
3, 7500, Note_on_c, 0, 71, 64
3, 7680, Note_on_c, 0, 71, 0
3, 7680, Note_on_c, 0, 72, 64
3, 7740, Note_on_c, 0, 72, 0
3, 7740, Note_on_c, 0, 67, 64
3, 7800, Note_on_c, 0, 67, 0
3, 7800, Note_on_c, 0, 68, 64
3, 7980, Note_on_c, 0, 68, 0
3, 7980, Note_on_c, 0, 67, 64
3, 8220, Note_on_c, 0, 67, 0
3, 8220, Note_on_c, 0, 64, 64
3, 8280, Note_on_c, 0, 64, 0
3, 8280, Note_on_c, 0, 65, 64
3, 8460, Note_on_c, 0, 65, 0
3, 8460, Note_on_c, 0, 64, 64
3, 8640, Note_on_c, 0, 64, 0
3, 8640, Note_on_c, 0, 65, 64
3, 8760, Note_on_c, 0, 65, 0
3, 8760, Note_on_c, 0, 60, 74
3, 8880, Note_on_c, 0, 60, 0
3, 8880, Note_on_c, 0, 59, 74
3, 9000, Note_on_c, 0, 59, 0
3, 9000, Note_on_c, 0, 60, 74
3, 9120, Note_on_c, 0, 60, 0
3, 9120, Note_on_c, 0, 62, 74
3, 9240, Note_on_c, 0, 62, 0
3, 9240, Note_on_c, 0, 55, 74
3, 9360, Note_on_c, 0, 55, 0
3, 9360, Note_on_c, 0, 60, 74
3, 9480, Note_on_c, 0, 60, 0
3, 9480, Note_on_c, 0, 59, 74
3, 9540, Note_on_c, 0, 59, 0
3, 9540, Note_on_c, 0, 57, 74
3, 9600, Note_on_c, 0, 57, 0
3, 9600, Note_on_c, 0, 55, 64
3, 9660, Note_on_c, 0, 55, 0
3, 9660, Note_on_c, 0, 59, 64
3, 9720, Note_on_c, 0, 59, 0
3, 9720, Note_on_c, 0, 60, 64
3, 9900, Note_on_c, 0, 60, 0
3, 9900, Note_on_c, 0, 60, 64
3, 9960, Note_on_c, 0, 60, 0
3, 9960, Note_on_c, 0, 62, 64
3, 10140, Note_on_c, 0, 62, 0
3, 10140, Note_on_c, 0, 62, 64
3, 10200, Note_on_c, 0, 62, 0
3, 10200, Note_on_c, 0, 63, 64
3, 10380, Note_on_c, 0, 63, 0
3, 10380, Note_on_c, 0, 65, 64
3, 10440, Note_on_c, 0, 65, 0
3, 10440, Note_on_c, 0, 66, 64
3, 10560, Note_on_c, 0, 66, 0
3, 10560, Note_on_c, 0, 64, 64
3, 10680, Note_on_c, 0, 64, 0
3, 10740, Note_on_c, 0, 65, 64
3, 10800, Note_on_c, 0, 65, 0
3, 10800, Note_on_c, 0, 61, 64
3, 11100, Note_on_c, 0, 61, 0
3, 11100, Note_on_c, 0, 60, 64
3, 11160, Note_on_c, 0, 60, 0
3, 11160, Note_on_c, 0, 65, 64
3, 11340, Note_on_c, 0, 65, 0
3, 11340, Note_on_c, 0, 67, 64
3, 11400, Note_on_c, 0, 67, 0
3, 11400, Note_on_c, 0, 68, 64
3, 11520, Note_on_c, 0, 68, 0
3, 11520, Note_on_c, 0, 66, 64
3, 11640, Note_on_c, 0, 66, 0
3, 11700, Note_on_c, 0, 67, 64
3, 11760, Note_on_c, 0, 67, 0
3, 11760, Note_on_c, 0, 63, 64
3, 12060, Note_on_c, 0, 63, 0
3, 12060, Note_on_c, 0, 62, 64
3, 12180, Note_on_c, 0, 62, 0
3, 12180, Note_on_c, 0, 60, 64
3, 12240, Note_on_c, 0, 60, 0
3, 12240, Note_on_c, 0, 58, 64
3, 12360, Note_on_c, 0, 58, 0
3, 12360, Note_on_c, 0, 57, 64
3, 12480, Note_on_c, 0, 57, 0
3, 12480, Note_on_c, 0, 55, 64
3, 12600, Note_on_c, 0, 55, 0
3, 12720, Note_on_c, 0, 67, 64
3, 12960, Note_on_c, 0, 67, 0
3, 12960, Note_on_c, 0, 63, 64
3, 13200, Note_on_c, 0, 63, 0
3, 13200, Note_on_c, 0, 65, 64
3, 13440, Note_on_c, 0, 65, 0
3, 13440, Note_on_c, 0, 67, 64
3, 13680, Note_on_c, 0, 67, 0
3, 13680, Note_on_c, 0, 60, 64
3, 13920, Note_on_c, 0, 60, 0
3, 13920, Note_on_c, 0, 65, 64
3, 14160, Note_on_c, 0, 65, 0
3, 14160, Note_on_c, 0, 63, 64
3, 14280, Note_on_c, 0, 63, 0
3, 14280, Note_on_c, 0, 62, 64
3, 14400, Note_on_c, 0, 62, 0
3, 14400, Note_on_c, 0, 63, 64
3, 14520, Note_on_c, 0, 63, 0
3, 14520, Note_on_c, 0, 72, 64
3, 14640, Note_on_c, 0, 72, 0
3, 14640, Note_on_c, 0, 70, 64
3, 14760, Note_on_c, 0, 70, 0
3, 14760, Note_on_c, 0, 72, 64
3, 14880, Note_on_c, 0, 72, 0
3, 14880, Note_on_c, 0, 74, 64
3, 15000, Note_on_c, 0, 74, 0
3, 15000, Note_on_c, 0, 67, 64
3, 15120, Note_on_c, 0, 67, 0
3, 15120, Note_on_c, 0, 72, 64
3, 15240, Note_on_c, 0, 72, 0
3, 15240, Note_on_c, 0, 70, 64
3, 15300, Note_on_c, 0, 70, 0
3, 15300, Note_on_c, 0, 69, 64
3, 15360, Note_on_c, 0, 69, 0
3, 15360, Note_on_c, 0, 70, 64
3, 15480, Note_on_c, 0, 70, 0
3, 15480, Note_on_c, 0, 68, 64
3, 15540, Note_on_c, 0, 68, 0
3, 15540, Note_on_c, 0, 67, 64
3, 15600, Note_on_c, 0, 67, 0
3, 15600, Note_on_c, 0, 72, 64
3, 15660, Note_on_c, 0, 72, 0
3, 15660, Note_on_c, 0, 60, 64
3, 15720, Note_on_c, 0, 60, 0
3, 15720, Note_on_c, 0, 67, 64
3, 15900, Note_on_c, 0, 67, 0
3, 15900, Note_on_c, 0, 67, 64
3, 15960, Note_on_c, 0, 67, 0
3, 15960, Note_on_c, 0, 69, 64
3, 16080, Note_on_c, 0, 69, 0
3, 16080, Note_on_c, 0, 70, 64
3, 16140, Note_on_c, 0, 70, 0
3, 16140, Note_on_c, 0, 72, 64
3, 16200, Note_on_c, 0, 72, 0
3, 16200, Note_on_c, 0, 73, 64
3, 16319, Note_on_c, 0, 73, 0
3, 16380, Note_on_c, 0, 72, 64
3, 16440, Note_on_c, 0, 72, 0
3, 16440, Note_on_c, 0, 70, 64
3, 16499, Note_on_c, 0, 70, 0
3, 16500, Note_on_c, 0, 68, 64
3, 16560, Note_on_c, 0, 68, 0
3, 16560, Note_on_c, 0, 67, 64
3, 16679, Note_on_c, 0, 67, 0
3, 16680, Note_on_c, 0, 69, 64
3, 16800, Note_on_c, 0, 69, 0
3, 16800, Note_on_c, 0, 70, 64
3, 16920, Note_on_c, 0, 70, 0
3, 16920, Note_on_c, 0, 63, 64
3, 17040, Note_on_c, 0, 63, 0
3, 17040, Note_on_c, 0, 68, 64
3, 17160, Note_on_c, 0, 68, 0
3, 17160, Note_on_c, 0, 67, 64
3, 17220, Note_on_c, 0, 67, 0
3, 17220, Note_on_c, 0, 65, 64
3, 17280, Note_on_c, 0, 65, 0
3, 17280, Note_on_c, 0, 67, 64
3, 17460, Note_on_c, 0, 67, 0
3, 17460, Note_on_c, 0, 65, 64
3, 17520, Note_on_c, 0, 65, 0
3, 17520, Note_on_c, 0, 63, 64
3, 17640, Note_on_c, 0, 63, 0
3, 17640, Note_on_c, 0, 62, 64
3, 17760, Note_on_c, 0, 62, 0
3, 17760, Note_on_c, 0, 60, 64
3, 17880, Note_on_c, 0, 60, 0
3, 17880, Note_on_c, 0, 75, 64
3, 18000, Note_on_c, 0, 75, 0
3, 18000, Note_on_c, 0, 68, 64
3, 18240, Note_on_c, 0, 68, 0
3, 18300, Note_on_c, 0, 67, 64
3, 18420, Note_on_c, 0, 67, 0
3, 18420, Note_on_c, 0, 65, 64
3, 18480, Note_on_c, 0, 65, 0
3, 18480, Note_on_c, 0, 63, 64
3, 18600, Note_on_c, 0, 63, 0
3, 18600, Note_on_c, 0, 64, 64
3, 18720, Note_on_c, 0, 64, 0
3, 18780, Note_on_c, 0, 65, 64
3, 18840, Note_on_c, 0, 65, 0
3, 18840, Note_on_c, 0, 62, 64
3, 18960, Note_on_c, 0, 62, 0
3, 19020, Note_on_c, 0, 63, 64
3, 19080, Note_on_c, 0, 63, 0
3, 19080, Note_on_c, 0, 65, 64
3, 19320, Note_on_c, 0, 65, 0
3, 19320, Note_on_c, 0, 63, 64
3, 19500, Note_on_c, 0, 63, 0
3, 19500, Note_on_c, 0, 64, 64
3, 19560, Note_on_c, 0, 64, 0
3, 19560, Note_on_c, 0, 65, 64
3, 19620, Note_on_c, 0, 65, 0
3, 19620, Note_on_c, 0, 67, 64
3, 19680, Note_on_c, 0, 67, 0
3, 19680, Note_on_c, 0, 68, 64
3, 19920, Note_on_c, 0, 68, 0
3, 19920, Note_on_c, 0, 67, 64
3, 20040, Note_on_c, 0, 67, 0
3, 20040, Note_on_c, 0, 65, 64
3, 20220, Note_on_c, 0, 65, 0
3, 20220, Note_on_c, 0, 63, 64
3, 20340, Note_on_c, 0, 63, 0
3, 20340, Note_on_c, 0, 65, 64
3, 20460, Note_on_c, 0, 65, 0
3, 20460, Note_on_c, 0, 65, 64
3, 20520, Note_on_c, 0, 65, 0
3, 20520, Note_on_c, 0, 63, 64
3, 20640, Note_on_c, 0, 63, 0
3, 20700, Note_on_c, 0, 65, 64
3, 20760, Note_on_c, 0, 65, 0
3, 20760, Note_on_c, 0, 63, 64
3, 20820, Note_on_c, 0, 63, 0
3, 20820, Note_on_c, 0, 62, 64
3, 20880, Note_on_c, 0, 62, 0
3, 20880, Note_on_c, 0, 63, 64
3, 21120, Note_on_c, 0, 63, 0
3, 21180, Note_on_c, 0, 62, 64
3, 21300, Note_on_c, 0, 62, 0
3, 21300, Note_on_c, 0, 60, 64
3, 21420, Note_on_c, 0, 60, 0
3, 21420, Note_on_c, 0, 57, 64
3, 21480, Note_on_c, 0, 57, 0
3, 21480, Note_on_c, 0, 59, 64
3, 21600, Note_on_c, 0, 59, 0
3, 21600, Note_on_c, 0, 60, 64
3, 21720, Note_on_c, 0, 60, 0
3, 21720, Note_on_c, 0, 67, 64
3, 21840, Note_on_c, 0, 67, 0
3, 21840, Note_on_c, 0, 63, 64
3, 21960, Note_on_c, 0, 63, 0
3, 21960, Note_on_c, 0, 65, 64
3, 22080, Note_on_c, 0, 65, 0
3, 22080, Note_on_c, 0, 67, 64
3, 22200, Note_on_c, 0, 67, 0
3, 22200, Note_on_c, 0, 63, 64
3, 22320, Note_on_c, 0, 63, 0
3, 22320, Note_on_c, 0, 65, 64
3, 22440, Note_on_c, 0, 65, 0
3, 22440, Note_on_c, 0, 63, 64
3, 22500, Note_on_c, 0, 63, 0
3, 22500, Note_on_c, 0, 62, 64
3, 22560, Note_on_c, 0, 62, 0
3, 22560, Note_on_c, 0, 64, 64
3, 22680, Note_on_c, 0, 64, 0
3, 22680, Note_on_c, 0, 65, 64
3, 22800, Note_on_c, 0, 65, 0
3, 22800, Note_on_c, 0, 67, 64
3, 22920, Note_on_c, 0, 67, 0
3, 22920, Note_on_c, 0, 65, 64
3, 22980, Note_on_c, 0, 65, 0
3, 22980, Note_on_c, 0, 64, 64
3, 23040, Note_on_c, 0, 64, 0
3, 23040, Note_on_c, 0, 65, 64
3, 23160, Note_on_c, 0, 65, 0
3, 23160, Note_on_c, 0, 67, 64
3, 23280, Note_on_c, 0, 67, 0
3, 23280, Note_on_c, 0, 64, 64
3, 23400, Note_on_c, 0, 64, 0
3, 23400, Note_on_c, 0, 65, 64
3, 23520, Note_on_c, 0, 65, 0
3, 23520, Note_on_c, 0, 67, 64
3, 23640, Note_on_c, 0, 67, 0
3, 23640, Note_on_c, 0, 60, 64
3, 23759, Note_on_c, 0, 60, 0
3, 23760, Note_on_c, 0, 65, 64
3, 23880, Note_on_c, 0, 65, 0
3, 23880, Note_on_c, 0, 64, 64
3, 23940, Note_on_c, 0, 64, 0
3, 23940, Note_on_c, 0, 62, 64
3, 24000, Note_on_c, 0, 62, 0
3, 24000, Note_on_c, 0, 64, 64
3, 24120, Note_on_c, 0, 64, 0
3, 24120, Note_on_c, 0, 63, 64
3, 24240, Note_on_c, 0, 63, 0
3, 24240, Note_on_c, 0, 61, 64
3, 24360, Note_on_c, 0, 61, 0
3, 24360, Note_on_c, 0, 63, 64
3, 24480, Note_on_c, 0, 63, 0
3, 24480, Note_on_c, 0, 65, 64
3, 24600, Note_on_c, 0, 65, 0
3, 24600, Note_on_c, 0, 63, 64
3, 24660, Note_on_c, 0, 63, 0
3, 24660, Note_on_c, 0, 62, 64
3, 24720, Note_on_c, 0, 62, 0
3, 24720, Note_on_c, 0, 63, 64
3, 24840, Note_on_c, 0, 63, 0
3, 24840, Note_on_c, 0, 67, 64
3, 24960, Note_on_c, 0, 67, 0
3, 25260, Note_on_c, 0, 69, 64
3, 25320, Note_on_c, 0, 66, 64
3, 25680, Note_on_c, 0, 66, 0
3, 25680, Note_on_c, 0, 69, 0
3, 25800, Note_on_c, 0, 65, 64
3, 25800, Note_on_c, 0, 67, 64
3, 25920, Note_on_c, 0, 67, 0
3, 25920, Note_on_c, 0, 65, 0
3, 25930, Note_on_c, 0, 63, 64
3, 25940, Note_on_c, 0, 67, 64
3, 26880, Note_on_c, 0, 67, 0
3, 26880, Note_on_c, 0, 63, 0
3, 26880, End_track
4, 0, Start_track
4, 0, MIDI_port, 0
4, 0, Title_t, "by"
4, 0, Program_c, 0, 6
4, 13560, Note_on_c, 0, 55, 64
4, 13680, Note_on_c, 0, 55, 0
4, 13680, Note_on_c, 0, 56, 64
4, 13800, Note_on_c, 0, 56, 0
4, 13800, Note_on_c, 0, 55, 64
4, 13920, Note_on_c, 0, 55, 0
4, 13920, Note_on_c, 0, 53, 64
4, 14040, Note_on_c, 0, 53, 0
4, 14040, Note_on_c, 0, 62, 64
4, 14160, Note_on_c, 0, 62, 0
4, 14160, Note_on_c, 0, 55, 64
4, 14280, Note_on_c, 0, 55, 0
4, 14280, Note_on_c, 0, 57, 64
4, 14340, Note_on_c, 0, 57, 0
4, 14340, Note_on_c, 0, 59, 64
4, 14400, Note_on_c, 0, 59, 0
4, 14400, Note_on_c, 0, 60, 64
4, 14460, Note_on_c, 0, 60, 0
4, 14460, Note_on_c, 0, 62, 64
4, 14520, Note_on_c, 0, 62, 0
4, 14520, Note_on_c, 0, 63, 64
4, 14580, Note_on_c, 0, 63, 0
4, 14580, Note_on_c, 0, 65, 64
4, 14640, Note_on_c, 0, 65, 0
4, 14640, Note_on_c, 0, 67, 64
4, 14700, Note_on_c, 0, 67, 0
4, 14700, Note_on_c, 0, 63, 64
4, 14760, Note_on_c, 0, 63, 0
4, 14760, Note_on_c, 0, 62, 64
4, 14820, Note_on_c, 0, 62, 0
4, 14820, Note_on_c, 0, 60, 64
4, 14880, Note_on_c, 0, 60, 0
4, 14880, Note_on_c, 0, 58, 64
4, 14940, Note_on_c, 0, 58, 0
4, 14940, Note_on_c, 0, 57, 64
4, 15000, Note_on_c, 0, 57, 0
4, 15000, Note_on_c, 0, 58, 64
4, 15180, Note_on_c, 0, 58, 0
4, 15180, Note_on_c, 0, 57, 64
4, 15240, Note_on_c, 0, 57, 0
4, 15240, Note_on_c, 0, 62, 64
4, 15300, Note_on_c, 0, 62, 0
4, 15300, Note_on_c, 0, 60, 64
4, 15360, Note_on_c, 0, 60, 0
4, 15360, Note_on_c, 0, 58, 64
4, 15420, Note_on_c, 0, 58, 0
4, 15420, Note_on_c, 0, 55, 64
4, 15480, Note_on_c, 0, 55, 0
4, 15480, Note_on_c, 0, 60, 64
4, 15600, Note_on_c, 0, 60, 0
4, 15600, Note_on_c, 0, 57, 64
4, 15720, Note_on_c, 0, 57, 0
4, 15720, Note_on_c, 0, 59, 64
4, 15840, Note_on_c, 0, 59, 0
4, 15840, Note_on_c, 0, 60, 64
4, 15960, Note_on_c, 0, 60, 0
4, 15960, Note_on_c, 0, 53, 64
4, 16080, Note_on_c, 0, 53, 0
4, 16080, Note_on_c, 0, 58, 64
4, 16200, Note_on_c, 0, 58, 0
4, 16200, Note_on_c, 0, 56, 64
4, 16260, Note_on_c, 0, 56, 0
4, 16260, Note_on_c, 0, 55, 64
4, 16320, Note_on_c, 0, 55, 0
4, 16320, Note_on_c, 0, 57, 64
4, 16440, Note_on_c, 0, 57, 0
4, 16440, Note_on_c, 0, 62, 64
4, 16620, Note_on_c, 0, 62, 0
4, 16620, Note_on_c, 0, 60, 64
4, 16680, Note_on_c, 0, 60, 0
4, 16680, Note_on_c, 0, 65, 64
4, 16740, Note_on_c, 0, 65, 0
4, 16740, Note_on_c, 0, 63, 64
4, 16800, Note_on_c, 0, 63, 0
4, 16800, Note_on_c, 0, 62, 64
4, 16860, Note_on_c, 0, 62, 0
4, 16860, Note_on_c, 0, 60, 64
4, 16920, Note_on_c, 0, 60, 0
4, 16920, Note_on_c, 0, 61, 64
4, 17100, Note_on_c, 0, 61, 0
4, 17100, Note_on_c, 0, 60, 64
4, 17160, Note_on_c, 0, 60, 0
4, 17160, Note_on_c, 0, 58, 64
4, 17220, Note_on_c, 0, 58, 0
4, 17220, Note_on_c, 0, 56, 64
4, 17280, Note_on_c, 0, 56, 0
4, 17280, Note_on_c, 0, 58, 64
4, 17400, Note_on_c, 0, 58, 0
4, 17400, Note_on_c, 0, 59, 64
4, 17520, Note_on_c, 0, 59, 0
4, 17520, Note_on_c, 0, 60, 64
4, 17640, Note_on_c, 0, 60, 0
4, 17760, Note_on_c, 0, 55, 64
4, 17819, Note_on_c, 0, 55, 0
4, 17820, Note_on_c, 0, 60, 64
4, 17880, Note_on_c, 0, 60, 0
4, 17880, Note_on_c, 0, 59, 64
4, 17940, Note_on_c, 0, 59, 0
4, 17940, Note_on_c, 0, 60, 64
4, 18060, Note_on_c, 0, 60, 0
4, 18060, Note_on_c, 0, 59, 64
4, 18120, Note_on_c, 0, 59, 0
4, 18120, Note_on_c, 0, 60, 64
4, 18360, Note_on_c, 0, 60, 0
4, 18360, Note_on_c, 0, 59, 64
4, 18480, Note_on_c, 0, 59, 0
4, 18480, Note_on_c, 0, 60, 64
4, 18840, Note_on_c, 0, 60, 0
4, 18840, Note_on_c, 0, 59, 64
4, 18960, Note_on_c, 0, 59, 0
4, 18960, Note_on_c, 0, 60, 64
4, 19140, Note_on_c, 0, 60, 0
4, 19140, Note_on_c, 0, 59, 64
4, 19260, Note_on_c, 0, 59, 0
4, 19260, Note_on_c, 0, 55, 64
4, 19320, Note_on_c, 0, 55, 0
4, 19320, Note_on_c, 0, 60, 64
4, 19560, Note_on_c, 0, 60, 0
4, 19560, Note_on_c, 0, 58, 64
4, 19680, Note_on_c, 0, 58, 0
4, 19680, Note_on_c, 0, 56, 64
4, 19740, Note_on_c, 0, 56, 0
4, 19740, Note_on_c, 0, 67, 64
4, 19800, Note_on_c, 0, 67, 0
4, 19800, Note_on_c, 0, 65, 64
4, 19860, Note_on_c, 0, 65, 0
4, 19860, Note_on_c, 0, 63, 64
4, 19920, Note_on_c, 0, 63, 0
4, 19920, Note_on_c, 0, 62, 64
4, 20280, Note_on_c, 0, 62, 0
4, 20280, Note_on_c, 0, 60, 64
4, 20400, Note_on_c, 0, 60, 0
4, 20400, Note_on_c, 0, 62, 64
4, 20520, Note_on_c, 0, 62, 0
4, 20520, Note_on_c, 0, 60, 64
4, 20640, Note_on_c, 0, 60, 0
4, 20640, Note_on_c, 0, 53, 64
4, 20760, Note_on_c, 0, 53, 0
4, 20760, Note_on_c, 0, 55, 64
4, 21000, Note_on_c, 0, 55, 0
4, 21000, Note_on_c, 0, 57, 64
4, 21120, Note_on_c, 0, 57, 0
4, 21120, Note_on_c, 0, 55, 64
4, 21360, Note_on_c, 0, 55, 0
4, 21540, Note_on_c, 0, 53, 64
4, 21600, Note_on_c, 0, 53, 0
4, 21600, Note_on_c, 0, 51, 64
4, 21720, Note_on_c, 0, 51, 0
4, 22200, Note_on_c, 0, 63, 64
4, 22320, Note_on_c, 0, 63, 0
4, 22320, Note_on_c, 0, 59, 64
4, 22440, Note_on_c, 0, 59, 0
4, 22440, Note_on_c, 0, 60, 64
4, 22560, Note_on_c, 0, 60, 0
4, 22560, Note_on_c, 0, 55, 64
4, 22680, Note_on_c, 0, 55, 0
4, 23160, Note_on_c, 0, 61, 64
4, 23280, Note_on_c, 0, 61, 0
4, 23280, Note_on_c, 0, 55, 64
4, 23400, Note_on_c, 0, 55, 0
4, 23400, Note_on_c, 0, 56, 64
4, 23520, Note_on_c, 0, 56, 0
4, 23520, Note_on_c, 0, 52, 64
4, 23640, Note_on_c, 0, 52, 0
4, 23640, Note_on_c, 0, 60, 64
4, 23760, Note_on_c, 0, 60, 0
4, 23760, Note_on_c, 0, 56, 64
4, 23880, Note_on_c, 0, 56, 0
4, 23880, Note_on_c, 0, 58, 64
4, 24000, Note_on_c, 0, 58, 0
4, 24000, Note_on_c, 0, 60, 64
4, 24120, Note_on_c, 0, 60, 0
4, 24120, Note_on_c, 0, 53, 64
4, 24240, Note_on_c, 0, 53, 0
4, 24240, Note_on_c, 0, 58, 64
4, 24360, Note_on_c, 0, 58, 0
4, 24360, Note_on_c, 0, 56, 64
4, 24420, Note_on_c, 0, 56, 0
4, 24420, Note_on_c, 0, 55, 64
4, 24480, Note_on_c, 0, 55, 0
4, 24480, Note_on_c, 0, 56, 64
4, 24600, Note_on_c, 0, 56, 0
4, 24600, Note_on_c, 0, 55, 64
4, 24720, Note_on_c, 0, 55, 0
4, 24720, Note_on_c, 0, 55, 64
4, 24840, Note_on_c, 0, 55, 0
4, 24840, Note_on_c, 0, 63, 64
4, 24960, Note_on_c, 0, 63, 0
4, 25380, Note_on_c, 0, 62, 64
4, 25440, Note_on_c, 0, 62, 0
4, 25440, Note_on_c, 0, 63, 64
4, 25680, Note_on_c, 0, 63, 0
4, 25800, Note_on_c, 0, 65, 64
4, 25800, Note_on_c, 0, 62, 64
4, 25920, Note_on_c, 0, 62, 0
4, 25920, Note_on_c, 0, 65, 0
4, 25920, Note_on_c, 0, 63, 64
4, 25920, Note_on_c, 0, 60, 64
4, 26879, Note_on_c, 0, 63, 0
4, 26880, Note_on_c, 0, 60, 0
4, 26880, End_track
5, 0, Start_track
5, 0, MIDI_port, 0
5, 0, Title_t, "Yo Tomita"
5, 0, Program_c, 0, 6
5, 3000, Note_on_c, 0, 55, 64
5, 3120, Note_on_c, 0, 55, 0
5, 3120, Note_on_c, 0, 51, 64
5, 3240, Note_on_c, 0, 51, 0
5, 3240, Note_on_c, 0, 53, 64
5, 3360, Note_on_c, 0, 53, 0
5, 3360, Note_on_c, 0, 55, 64
5, 3480, Note_on_c, 0, 55, 0
5, 3480, Note_on_c, 0, 48, 64
5, 3600, Note_on_c, 0, 48, 0
5, 3600, Note_on_c, 0, 53, 64
5, 3720, Note_on_c, 0, 53, 0
5, 3720, Note_on_c, 0, 51, 64
5, 3780, Note_on_c, 0, 51, 0
5, 3780, Note_on_c, 0, 50, 64
5, 3840, Note_on_c, 0, 50, 0
5, 3840, Note_on_c, 0, 51, 64
5, 3900, Note_on_c, 0, 51, 0
5, 3900, Note_on_c, 0, 55, 64
5, 3960, Note_on_c, 0, 55, 0
5, 3960, Note_on_c, 0, 48, 64
5, 4020, Note_on_c, 0, 48, 0
5, 4020, Note_on_c, 0, 50, 64
5, 4080, Note_on_c, 0, 50, 0
5, 4080, Note_on_c, 0, 51, 64
5, 4140, Note_on_c, 0, 51, 0
5, 4140, Note_on_c, 0, 53, 64
5, 4200, Note_on_c, 0, 53, 0
5, 4200, Note_on_c, 0, 55, 64
5, 4260, Note_on_c, 0, 55, 0
5, 4260, Note_on_c, 0, 57, 64
5, 4320, Note_on_c, 0, 57, 0
5, 4320, Note_on_c, 0, 58, 64
5, 4380, Note_on_c, 0, 58, 0
5, 4380, Note_on_c, 0, 62, 64
5, 4440, Note_on_c, 0, 62, 0
5, 4440, Note_on_c, 0, 55, 64
5, 4500, Note_on_c, 0, 55, 0
5, 4500, Note_on_c, 0, 57, 64
5, 4560, Note_on_c, 0, 57, 0
5, 4560, Note_on_c, 0, 58, 64
5, 4620, Note_on_c, 0, 58, 0
5, 4620, Note_on_c, 0, 60, 64
5, 4680, Note_on_c, 0, 60, 0
5, 4680, Note_on_c, 0, 62, 64
5, 4740, Note_on_c, 0, 62, 0
5, 4740, Note_on_c, 0, 64, 64
5, 4800, Note_on_c, 0, 64, 0
5, 4800, Note_on_c, 0, 65, 64
5, 4920, Note_on_c, 0, 65, 0
5, 4920, Note_on_c, 0, 56, 64
5, 5040, Note_on_c, 0, 56, 0
5, 5040, Note_on_c, 0, 53, 64
5, 5160, Note_on_c, 0, 53, 0
5, 5160, Note_on_c, 0, 56, 64
5, 5280, Note_on_c, 0, 56, 0
5, 5280, Note_on_c, 0, 58, 64
5, 5400, Note_on_c, 0, 58, 0
5, 5880, Note_on_c, 0, 48, 64
5, 6000, Note_on_c, 0, 48, 0
5, 6000, Note_on_c, 0, 47, 64
5, 6120, Note_on_c, 0, 47, 0
5, 6120, Note_on_c, 0, 48, 64
5, 6240, Note_on_c, 0, 48, 0
5, 6240, Note_on_c, 0, 50, 64
5, 6360, Note_on_c, 0, 50, 0
5, 6360, Note_on_c, 0, 43, 64
5, 6480, Note_on_c, 0, 43, 0
5, 6480, Note_on_c, 0, 48, 64
5, 6600, Note_on_c, 0, 48, 0
5, 6600, Note_on_c, 0, 47, 64
5, 6660, Note_on_c, 0, 47, 0
5, 6660, Note_on_c, 0, 45, 64
5, 6720, Note_on_c, 0, 45, 0
5, 6720, Note_on_c, 0, 47, 64
5, 6840, Note_on_c, 0, 47, 0
5, 6840, Note_on_c, 0, 43, 64
5, 6960, Note_on_c, 0, 43, 0
5, 6960, Note_on_c, 0, 48, 64
5, 7080, Note_on_c, 0, 48, 0
5, 7080, Note_on_c, 0, 44, 64
5, 7200, Note_on_c, 0, 44, 0
5, 7200, Note_on_c, 0, 39, 64
5, 7380, Note_on_c, 0, 39, 0
5, 7380, Note_on_c, 0, 56, 64
5, 7440, Note_on_c, 0, 56, 0
5, 7440, Note_on_c, 0, 50, 64
5, 7560, Note_on_c, 0, 50, 0
5, 7560, Note_on_c, 0, 55, 64
5, 7680, Note_on_c, 0, 55, 0
5, 7680, Note_on_c, 0, 48, 64
5, 7860, Note_on_c, 0, 48, 0
5, 7860, Note_on_c, 0, 53, 64
5, 7920, Note_on_c, 0, 53, 0
5, 7920, Note_on_c, 0, 46, 64
5, 8040, Note_on_c, 0, 46, 0
5, 8040, Note_on_c, 0, 51, 64
5, 8160, Note_on_c, 0, 51, 0
5, 8160, Note_on_c, 0, 44, 64
5, 8340, Note_on_c, 0, 44, 0
5, 8340, Note_on_c, 0, 49, 64
5, 8400, Note_on_c, 0, 49, 0
5, 8400, Note_on_c, 0, 43, 64
5, 8520, Note_on_c, 0, 43, 0
5, 8520, Note_on_c, 0, 48, 64
5, 8640, Note_on_c, 0, 48, 0
5, 8640, Note_on_c, 0, 41, 64
5, 8700, Note_on_c, 0, 41, 0
5, 8700, Note_on_c, 0, 48, 64
5, 8760, Note_on_c, 0, 48, 0
5, 8760, Note_on_c, 0, 53, 64
5, 8940, Note_on_c, 0, 53, 0
5, 8940, Note_on_c, 0, 51, 64
5, 9000, Note_on_c, 0, 51, 0
5, 9000, Note_on_c, 0, 50, 64
5, 9060, Note_on_c, 0, 50, 0
5, 9060, Note_on_c, 0, 48, 64
5, 9120, Note_on_c, 0, 48, 0
5, 9120, Note_on_c, 0, 47, 64
5, 9180, Note_on_c, 0, 47, 0
5, 9180, Note_on_c, 0, 43, 64
5, 9240, Note_on_c, 0, 43, 0
5, 9240, Note_on_c, 0, 48, 64
5, 9300, Note_on_c, 0, 48, 0
5, 9300, Note_on_c, 0, 46, 64
5, 9360, Note_on_c, 0, 46, 0
5, 9360, Note_on_c, 0, 44, 64
5, 9420, Note_on_c, 0, 44, 0
5, 9420, Note_on_c, 0, 48, 64
5, 9480, Note_on_c, 0, 48, 0
5, 9480, Note_on_c, 0, 38, 64
5, 9600, Note_on_c, 0, 38, 0
5, 9600, Note_on_c, 0, 39, 64
5, 9780, Note_on_c, 0, 39, 0
5, 9780, Note_on_c, 0, 36, 64
5, 9840, Note_on_c, 0, 36, 0
5, 9840, Note_on_c, 0, 41, 64
5, 9960, Note_on_c, 0, 41, 0
5, 9960, Note_on_c, 0, 46, 64
5, 10080, Note_on_c, 0, 46, 0
5, 10080, Note_on_c, 0, 47, 64
5, 10200, Note_on_c, 0, 47, 0
5, 10200, Note_on_c, 0, 48, 64
5, 10320, Note_on_c, 0, 48, 0
5, 10320, Note_on_c, 0, 44, 64
5, 10440, Note_on_c, 0, 44, 0
5, 10440, Note_on_c, 0, 46, 64
5, 10560, Note_on_c, 0, 46, 0
5, 10560, Note_on_c, 0, 48, 64
5, 10680, Note_on_c, 0, 48, 0
5, 10680, Note_on_c, 0, 41, 64
5, 10800, Note_on_c, 0, 41, 0
5, 10800, Note_on_c, 0, 46, 64
5, 10920, Note_on_c, 0, 46, 0
5, 10920, Note_on_c, 0, 44, 64
5, 10980, Note_on_c, 0, 44, 0
5, 10980, Note_on_c, 0, 43, 64
5, 11040, Note_on_c, 0, 43, 0
5, 11040, Note_on_c, 0, 44, 64
5, 11160, Note_on_c, 0, 44, 0
5, 11160, Note_on_c, 0, 56, 64
5, 11220, Note_on_c, 0, 56, 0
5, 11220, Note_on_c, 0, 53, 64
5, 11280, Note_on_c, 0, 53, 0
5, 11280, Note_on_c, 0, 58, 64
5, 11400, Note_on_c, 0, 58, 0
5, 11400, Note_on_c, 0, 60, 64
5, 11520, Note_on_c, 0, 60, 0
5, 11520, Note_on_c, 0, 50, 64
5, 11640, Note_on_c, 0, 50, 0
5, 11640, Note_on_c, 0, 55, 64
5, 11760, Note_on_c, 0, 55, 0
5, 11760, Note_on_c, 0, 48, 64
5, 11880, Note_on_c, 0, 48, 0
5, 11880, Note_on_c, 0, 46, 64
5, 11940, Note_on_c, 0, 46, 0
5, 11940, Note_on_c, 0, 45, 64
5, 12000, Note_on_c, 0, 45, 0
5, 12000, Note_on_c, 0, 46, 64
5, 12120, Note_on_c, 0, 46, 0
5, 12120, Note_on_c, 0, 51, 64
5, 12240, Note_on_c, 0, 51, 0
5, 12240, Note_on_c, 0, 48, 64
5, 12360, Note_on_c, 0, 48, 0
5, 12360, Note_on_c, 0, 50, 64
5, 12480, Note_on_c, 0, 50, 0
5, 12480, Note_on_c, 0, 43, 64
5, 12600, Note_on_c, 0, 43, 0
5, 17520, Note_on_c, 0, 55, 64
5, 17760, Note_on_c, 0, 51, 64
5, 17820, Note_on_c, 0, 55, 0
5, 18000, Note_on_c, 0, 51, 0
5, 18000, Note_on_c, 0, 53, 64
5, 18240, Note_on_c, 0, 53, 0
5, 18240, Note_on_c, 0, 55, 64
5, 18480, Note_on_c, 0, 55, 0
5, 18480, Note_on_c, 0, 48, 64
5, 18720, Note_on_c, 0, 48, 0
5, 18720, Note_on_c, 0, 53, 64
5, 18960, Note_on_c, 0, 53, 0
5, 18960, Note_on_c, 0, 51, 64
5, 19080, Note_on_c, 0, 51, 0
5, 19080, Note_on_c, 0, 50, 64
5, 19200, Note_on_c, 0, 50, 0
5, 19200, Note_on_c, 0, 51, 64
5, 19380, Note_on_c, 0, 51, 0
5, 19380, Note_on_c, 0, 55, 64
5, 19440, Note_on_c, 0, 55, 0
5, 19440, Note_on_c, 0, 56, 64
5, 19560, Note_on_c, 0, 56, 0
5, 19560, Note_on_c, 0, 55, 64
5, 19680, Note_on_c, 0, 55, 0
5, 19680, Note_on_c, 0, 53, 64
5, 19800, Note_on_c, 0, 53, 0
5, 19800, Note_on_c, 0, 62, 64
5, 19920, Note_on_c, 0, 62, 0
5, 19920, Note_on_c, 0, 55, 64
5, 20040, Note_on_c, 0, 55, 0
5, 20040, Note_on_c, 0, 57, 64
5, 20100, Note_on_c, 0, 57, 0
5, 20100, Note_on_c, 0, 59, 64
5, 20160, Note_on_c, 0, 59, 0
5, 20160, Note_on_c, 0, 60, 64
5, 20280, Note_on_c, 0, 60, 0
5, 20280, Note_on_c, 0, 48, 64
5, 20400, Note_on_c, 0, 48, 0
5, 20400, Note_on_c, 0, 47, 64
5, 20520, Note_on_c, 0, 47, 0
5, 20520, Note_on_c, 0, 48, 64
5, 20640, Note_on_c, 0, 48, 0
5, 20640, Note_on_c, 0, 50, 64
5, 20760, Note_on_c, 0, 50, 0
5, 20760, Note_on_c, 0, 43, 64
5, 20880, Note_on_c, 0, 43, 0
5, 20880, Note_on_c, 0, 48, 64
5, 21000, Note_on_c, 0, 48, 0
5, 21000, Note_on_c, 0, 47, 64
5, 21060, Note_on_c, 0, 47, 0
5, 21060, Note_on_c, 0, 45, 64
5, 21120, Note_on_c, 0, 45, 0
5, 21120, Note_on_c, 0, 47, 64
5, 21240, Note_on_c, 0, 47, 0
5, 21240, Note_on_c, 0, 48, 64
5, 21360, Note_on_c, 0, 48, 0
5, 21360, Note_on_c, 0, 41, 64
5, 21480, Note_on_c, 0, 41, 0
5, 21480, Note_on_c, 0, 43, 64
5, 21600, Note_on_c, 0, 43, 0
5, 21600, Note_on_c, 0, 36, 64
5, 21720, Note_on_c, 0, 36, 0
5, 22560, Note_on_c, 0, 48, 64
5, 22680, Note_on_c, 0, 48, 0
5, 23520, Note_on_c, 0, 48, 64
5, 23640, Note_on_c, 0, 48, 0
5, 24120, Note_on_c, 0, 48, 64
5, 24240, Note_on_c, 0, 48, 0
5, 24240, Note_on_c, 0, 49, 64
5, 24360, Note_on_c, 0, 49, 0
5, 24360, Note_on_c, 0, 48, 64
5, 24480, Note_on_c, 0, 48, 0
5, 24480, Note_on_c, 0, 47, 64
5, 24600, Note_on_c, 0, 47, 0
5, 24600, Note_on_c, 0, 53, 64
5, 24720, Note_on_c, 0, 53, 0
5, 24720, Note_on_c, 0, 51, 64
5, 24780, Note_on_c, 0, 51, 0
5, 24780, Note_on_c, 0, 50, 64
5, 24840, Note_on_c, 0, 50, 0
5, 24840, Note_on_c, 0, 48, 64
5, 24900, Note_on_c, 0, 48, 0
5, 24900, Note_on_c, 0, 50, 64
5, 24930, Note_on_c, 0, 50, 0
5, 24930, Note_on_c, 0, 51, 64
5, 24960, Note_on_c, 0, 51, 0
5, 24960, Note_on_c, 0, 42, 64
5, 25200, Note_on_c, 0, 42, 0
5, 25500, Note_on_c, 0, 59, 64
5, 25560, Note_on_c, 0, 59, 0
5, 25560, Note_on_c, 0, 60, 64
5, 25620, Note_on_c, 0, 60, 0
5, 25620, Note_on_c, 0, 54, 64
5, 25680, Note_on_c, 0, 54, 0
5, 25680, Note_on_c, 0, 55, 64
5, 25800, Note_on_c, 0, 55, 0
5, 25800, Note_on_c, 0, 43, 64
5, 25900, Note_on_c, 0, 36, 64
5, 25910, Note_on_c, 0, 48, 64
5, 25920, Note_on_c, 0, 43, 0
5, 26880, Note_on_c, 0, 48, 0
5, 26880, Note_on_c, 0, 36, 0
5, 26880, End_track
0, 0, End_of_file
