0, 0, Header, 1, 4, 120
1, 0, Start_track
1, 0, Time_signature, 4, 2, 24, 8
1, 0, Key_signature, 7, "major"
1, 0, Tempo, 750000
1, 0, Marker_t, "(c) Yo Tomita, 1997"
1, 15990, Tempo, 750281
1, 15997, Tempo, 751221
1, 16001, Tempo, 752162
1, 16007, Tempo, 753107
1, 16014, Tempo, 754053
1, 16018, Tempo, 755002
1, 16024, Tempo, 755953
1, 16028, Tempo, 756907
1, 16035, Tempo, 757863
1, 16041, Tempo, 758821
1, 16045, Tempo, 759782
1, 16048, Tempo, 760746
1, 16051, Tempo, 761711
1, 16054, Tempo, 762680
1, 16057, Tempo, 763650
1, 16060, Tempo, 764623
1, 16064, Tempo, 765599
1, 16067, Tempo, 766577
1, 16070, Tempo, 767558
1, 16072, Tempo, 768541
1, 16075, Tempo, 769527
1, 16081, Tempo, 771506
1, 16085, Tempo, 772499
1, 16087, Tempo, 773495
1, 16091, Tempo, 774493
1, 16092, Tempo, 775494
1, 16095, Tempo, 776498
1, 16098, Tempo, 777504
1, 16102, Tempo, 778513
1, 16105, Tempo, 779524
1, 16108, Tempo, 780539
1, 16111, Tempo, 781555
1, 16114, Tempo, 782575
1, 16120, Tempo, 783597
1, 16125, Tempo, 785649
1, 16130, Tempo, 787712
1, 16134, Tempo, 788747
1, 16138, Tempo, 790826
1, 16142, Tempo, 791870
1, 16147, Tempo, 792917
1, 16150, Tempo, 793966
1, 16152, Tempo, 795018
1, 16160, Tempo, 797130
1, 16165, Tempo, 799254
1, 16170, Tempo, 801389
1, 16172, Tempo, 802461
1, 16178, Tempo, 804613
1, 16182, Tempo, 805694
1, 16188, Tempo, 807863
1, 16194, Tempo, 810045
1, 16200, Tempo, 812238
1, 16204, Tempo, 814443
1, 16208, Tempo, 815550
1, 16214, Tempo, 817773
1, 16220, Tempo, 820008
1, 16224, Tempo, 822256
1, 16230, Tempo, 824516
1, 16234, Tempo, 826788
1, 16238, Tempo, 829073
1, 16244, Tempo, 832524
1, 16250, Tempo, 834841
1, 16254, Tempo, 837170
1, 16260, Tempo, 839513
1, 16264, Tempo, 841869
1, 16268, Tempo, 843052
1, 16272, Tempo, 845428
1, 16275, Tempo, 846621
1, 16281, Tempo, 849017
1, 16287, Tempo, 851426
1, 16291, Tempo, 853849
1, 16297, Tempo, 857510
1, 16302, Tempo, 859968
1, 16307, Tempo, 862441
1, 16311, Tempo, 864927
1, 16314, Tempo, 867428
1, 16318, Tempo, 869943
1, 16322, Tempo, 872473
1, 16325, Tempo, 875018
1, 16330, Tempo, 878863
1, 16332, Tempo, 881446
1, 16337, Tempo, 884043
1, 16338, Tempo, 886656
1, 16341, Tempo, 887968
1, 16344, Tempo, 890604
1, 16347, Tempo, 891928
1, 16348, Tempo, 894588
1, 16351, Tempo, 897263
1, 16354, Tempo, 901307
1, 16357, Tempo, 904023
1, 16360, Tempo, 906755
1, 16362, Tempo, 910885
1, 16365, Tempo, 913659
1, 16368, Tempo, 917852
1, 16371, Tempo, 920669
1, 16372, Tempo, 923503
1, 16377, Tempo, 926355
1, 16380, Tempo, 929224
1, 16382, Tempo, 933562
1, 16385, Tempo, 936476
1, 16390, Tempo, 937940
1, 16391, Tempo, 940881
1, 16395, Tempo, 943841
1, 16398, Tempo, 946820
1, 16401, Tempo, 949818
1, 16404, Tempo, 951324
1, 16407, Tempo, 954350
1, 16410, Tempo, 957396
1, 16412, Tempo, 960461
1, 16415, Tempo, 963546
1, 16420, Tempo, 966651
1, 16422, Tempo, 969775
1, 16425, Tempo, 972920
1, 16428, Tempo, 976086
1, 16432, Tempo, 980873
1, 16435, Tempo, 984091
1, 16438, Tempo, 987329
1, 16441, Tempo, 992228
1, 16444, Tempo, 995520
1, 16447, Tempo, 998835
1, 16450, Tempo, 1000500
1, 16451, Tempo, 1020929
1, 16452, Tempo, 1024415
1, 16454, Tempo, 1031460
1, 16457, Tempo, 1038601
1, 16460, Tempo, 1045843
1, 16462, Tempo, 1051340
1, 16465, Tempo, 1058761
1, 16468, Tempo, 1062511
1, 16470, Tempo, 1066288
1, 16472, Tempo, 1073922
1, 16475, Tempo, 1079719
1, 16477, Tempo, 1083619
1, 16480, Tempo, 1089522
1, 16482, Tempo, 1095490
1, 16484, Tempo, 1099505
1, 16485, Tempo, 1101524
1, 16487, Tempo, 1103550
1, 16488, Tempo, 1109673
1, 16490, Tempo, 1113792
1, 16491, Tempo, 1115864
1, 16492, Tempo, 1122125
1, 16494, Tempo, 1126338
1, 16495, Tempo, 1134859
1, 16497, Tempo, 1143511
1, 16498, Tempo, 1150086
1, 16500, Tempo, 1161215
1, 16501, Tempo, 1165728
1, 16502, Tempo, 1172562
1, 16504, Tempo, 1177163
1, 16505, Tempo, 1181800
1, 16507, Tempo, 1184133
1, 16508, Tempo, 1191185
1, 16511, Tempo, 1193555
1, 16512, Tempo, 1200720
1, 16515, Tempo, 1207973
1, 16518, Tempo, 1220256
1, 16521, Tempo, 1261299
1, 16522, Tempo, 1305199
1, 16525, Tempo, 1322460
1, 16527, Tempo, 1334223
1, 16528, Tempo, 1346197
1, 16530, Tempo, 1352265
1, 16531, Tempo, 1358388
1, 16532, Tempo, 1364567
1, 16534, Tempo, 1373941
1, 16537, Tempo, 1383445
1, 16540, Tempo, 1396323
1, 16541, Tempo, 1402852
1, 16542, Tempo, 1409443
1, 16544, Tempo, 1422812
1, 16545, Tempo, 1436438
1, 16547, Tempo, 1443349
1, 16548, Tempo, 1453841
1, 16550, Tempo, 1471670
1, 16551, Tempo, 1493652
1, 16552, Tempo, 1597019
1, 16554, Tempo, 1605566
1, 16555, Tempo, 1609874
1, 16557, Tempo, 1622938
1, 16558, Tempo, 1631765
1, 16560, Tempo, 1640689
1, 16561, Tempo, 1654260
1, 16565, Tempo, 1393081
1, 16567, Tempo, 1383445
1, 16568, Tempo, 1373941
1, 16570, Tempo, 1361470
1, 16571, Tempo, 1352265
1, 16572, Tempo, 1337196
1, 16574, Tempo, 1328315
1, 16575, Tempo, 1305199
1, 16577, Tempo, 1250782
1, 16578, Tempo, 1227747
1, 16580, Tempo, 1212856
1, 16581, Tempo, 1200720
1, 16582, Tempo, 1174858
1, 16584, Tempo, 1156738
1, 16585, Tempo, 1143511
1, 16587, Tempo, 1137010
1, 16588, Tempo, 1130582
1, 16590, Tempo, 1122125
1, 16591, Tempo, 1113792
1, 16592, Tempo, 1107624
1, 16594, Tempo, 1103550
1, 16595, Tempo, 1095490
1, 16597, Tempo, 1091504
1, 16598, Tempo, 1087548
1, 16600, Tempo, 1083619
1, 16601, Tempo, 1079719
1, 16602, Tempo, 1073922
1, 16604, Tempo, 1072003
1, 16607, Tempo, 1062511
1, 16610, Tempo, 1058761
1, 16611, Tempo, 1055038
1, 16612, Tempo, 1049501
1, 16614, Tempo, 1045843
1, 16615, Tempo, 1040402
1, 16617, Tempo, 1036807
1, 16618, Tempo, 1035018
1, 16621, Tempo, 1029689
1, 16622, Tempo, 1027925
1, 16624, Tempo, 1022669
1, 16625, Tempo, 1020929
1, 16627, Tempo, 1017467
1, 16627, End_track
2, 0, Start_track
2, 0, MIDI_port, 0
2, 0, Title_t, "BWV 872/2"
2, 0, Program_c, 0, 6
2, 300, Note_on_c, 0, 68, 64
2, 329, Note_on_c, 0, 68, 0
2, 360, Note_on_c, 0, 72, 64
2, 389, Note_on_c, 0, 72, 0
2, 420, Note_on_c, 0, 68, 64
2, 449, Note_on_c, 0, 68, 0
2, 480, Note_on_c, 0, 73, 64
2, 540, Note_on_c, 0, 73, 0
2, 600, Note_on_c, 0, 71, 64
2, 660, Note_on_c, 0, 71, 0
2, 720, Note_on_c, 0, 70, 64
2, 750, Note_on_c, 0, 70, 0
2, 750, Note_on_c, 0, 68, 64
2, 780, Note_on_c, 0, 68, 0
2, 780, Note_on_c, 0, 66, 64
2, 870, Note_on_c, 0, 66, 0
2, 870, Note_on_c, 0, 68, 64
2, 900, Note_on_c, 0, 68, 0
2, 900, Note_on_c, 0, 70, 64
2, 930, Note_on_c, 0, 70, 0
2, 930, Note_on_c, 0, 66, 64
2, 960, Note_on_c, 0, 66, 0
2, 960, Note_on_c, 0, 68, 64
2, 1020, Note_on_c, 0, 68, 0
2, 1080, Note_on_c, 0, 73, 64
2, 1140, Note_on_c, 0, 73, 0
2, 1200, Note_on_c, 0, 73, 64
2, 1260, Note_on_c, 0, 73, 0
2, 1320, Note_on_c, 0, 72, 64
2, 1380, Note_on_c, 0, 72, 0
2, 1500, Note_on_c, 0, 73, 64
2, 1529, Note_on_c, 0, 73, 0
2, 1560, Note_on_c, 0, 77, 64
2, 1589, Note_on_c, 0, 77, 0
2, 1620, Note_on_c, 0, 73, 64
2, 1649, Note_on_c, 0, 73, 0
2, 1680, Note_on_c, 0, 80, 64
2, 1740, Note_on_c, 0, 80, 0
2, 1800, Note_on_c, 0, 78, 64
2, 1860, Note_on_c, 0, 78, 0
2, 1920, Note_on_c, 0, 77, 64
2, 1950, Note_on_c, 0, 77, 0
2, 1950, Note_on_c, 0, 75, 64
2, 1980, Note_on_c, 0, 75, 0
2, 1980, Note_on_c, 0, 73, 64
2, 2070, Note_on_c, 0, 73, 0
2, 2070, Note_on_c, 0, 75, 64
2, 2100, Note_on_c, 0, 75, 0
2, 2100, Note_on_c, 0, 77, 64
2, 2130, Note_on_c, 0, 77, 0
2, 2130, Note_on_c, 0, 73, 64
2, 2160, Note_on_c, 0, 73, 0
2, 2190, Note_on_c, 0, 75, 64
2, 2220, Note_on_c, 0, 75, 0
2, 2220, Note_on_c, 0, 78, 64
2, 2250, Note_on_c, 0, 78, 0
2, 2250, Note_on_c, 0, 75, 64
2, 2280, Note_on_c, 0, 75, 0
2, 2280, Note_on_c, 0, 80, 64
2, 2340, Note_on_c, 0, 80, 0
2, 2400, Note_on_c, 0, 78, 64
2, 2460, Note_on_c, 0, 78, 0
2, 2520, Note_on_c, 0, 77, 64
2, 2594, Note_on_c, 0, 77, 0
2, 2610, Note_on_c, 0, 77, 64
2, 2640, Note_on_c, 0, 77, 0
2, 2640, Note_on_c, 0, 79, 64
2, 2700, Note_on_c, 0, 79, 0
2, 2700, Note_on_c, 0, 80, 64
2, 2774, Note_on_c, 0, 80, 0
2, 2790, Note_on_c, 0, 80, 64
2, 2820, Note_on_c, 0, 80, 0
2, 2820, Note_on_c, 0, 79, 64
2, 2880, Note_on_c, 0, 79, 0
2, 2880, Note_on_c, 0, 80, 64
2, 2940, Note_on_c, 0, 80, 0
2, 3420, Note_on_c, 0, 65, 64
2, 3449, Note_on_c, 0, 65, 0
2, 3480, Note_on_c, 0, 68, 64
2, 3509, Note_on_c, 0, 68, 0
2, 3540, Note_on_c, 0, 65, 64
2, 3569, Note_on_c, 0, 65, 0
2, 3600, Note_on_c, 0, 70, 64
2, 3660, Note_on_c, 0, 70, 0
2, 3720, Note_on_c, 0, 68, 64
2, 3780, Note_on_c, 0, 68, 0
2, 3840, Note_on_c, 0, 66, 64
2, 3870, Note_on_c, 0, 66, 0
2, 3870, Note_on_c, 0, 68, 64
2, 3900, Note_on_c, 0, 68, 0
2, 3900, Note_on_c, 0, 70, 64
2, 3930, Note_on_c, 0, 70, 0
2, 3930, Note_on_c, 0, 72, 64
2, 3960, Note_on_c, 0, 72, 0
2, 3960, Note_on_c, 0, 74, 64
2, 3990, Note_on_c, 0, 74, 0
2, 3990, Note_on_c, 0, 75, 64
2, 4020, Note_on_c, 0, 75, 0
2, 4020, Note_on_c, 0, 77, 64
2, 4035, Note_on_c, 0, 75, 64
2, 4040, Note_on_c, 0, 77, 0
2, 4050, Note_on_c, 0, 74, 64
2, 4057, Note_on_c, 0, 75, 0
2, 4080, Note_on_c, 0, 74, 0
2, 4080, Note_on_c, 0, 75, 64
2, 4140, Note_on_c, 0, 75, 0
2, 4260, Note_on_c, 0, 75, 64
2, 4289, Note_on_c, 0, 75, 0
2, 4320, Note_on_c, 0, 72, 64
2, 4349, Note_on_c, 0, 72, 0
2, 4380, Note_on_c, 0, 75, 64
2, 4409, Note_on_c, 0, 75, 0
2, 4440, Note_on_c, 0, 68, 64
2, 4469, Note_on_c, 0, 68, 0
2, 4500, Note_on_c, 0, 73, 64
2, 4560, Note_on_c, 0, 73, 0
2, 4560, Note_on_c, 0, 70, 64
2, 4620, Note_on_c, 0, 70, 0
2, 4680, Note_on_c, 0, 72, 64
2, 4740, Note_on_c, 0, 72, 0
2, 4800, Note_on_c, 0, 73, 64
2, 4829, Note_on_c, 0, 73, 0
2, 4860, Note_on_c, 0, 80, 64
2, 4889, Note_on_c, 0, 80, 0
2, 4920, Note_on_c, 0, 77, 64
2, 4949, Note_on_c, 0, 77, 0
2, 4980, Note_on_c, 0, 80, 64
2, 5009, Note_on_c, 0, 80, 0
2, 5040, Note_on_c, 0, 73, 64
2, 5100, Note_on_c, 0, 73, 0
2, 5190, Note_on_c, 0, 71, 64
2, 5220, Note_on_c, 0, 71, 0
2, 5220, Note_on_c, 0, 70, 64
2, 5250, Note_on_c, 0, 70, 0
2, 5250, Note_on_c, 0, 68, 64
2, 5280, Note_on_c, 0, 68, 0
2, 5280, Note_on_c, 0, 70, 64
2, 5430, Note_on_c, 0, 70, 0
2, 5430, Note_on_c, 0, 70, 64
2, 5460, Note_on_c, 0, 70, 0
2, 5460, Note_on_c, 0, 75, 64
2, 5520, Note_on_c, 0, 75, 0
2, 5520, Note_on_c, 0, 68, 64
2, 5670, Note_on_c, 0, 68, 0
2, 5670, Note_on_c, 0, 68, 64
2, 5700, Note_on_c, 0, 68, 0
2, 5700, Note_on_c, 0, 73, 64
2, 5760, Note_on_c, 0, 73, 0
2, 5760, Note_on_c, 0, 66, 64
2, 5910, Note_on_c, 0, 66, 0
2, 5910, Note_on_c, 0, 65, 64
2, 5940, Note_on_c, 0, 65, 0
2, 5940, Note_on_c, 0, 66, 64
2, 6000, Note_on_c, 0, 66, 0
2, 6000, Note_on_c, 0, 65, 64
2, 6150, Note_on_c, 0, 65, 0
2, 6150, Note_on_c, 0, 63, 64
2, 6180, Note_on_c, 0, 63, 0
2, 6180, Note_on_c, 0, 65, 64
2, 6330, Note_on_c, 0, 65, 0
2, 6330, Note_on_c, 0, 65, 64
2, 6360, Note_on_c, 0, 65, 0
2, 6360, Note_on_c, 0, 63, 64
2, 6480, Note_on_c, 0, 63, 0
2, 6480, Note_on_c, 0, 65, 64
2, 6540, Note_on_c, 0, 65, 0
2, 6660, Note_on_c, 0, 77, 64
2, 6689, Note_on_c, 0, 77, 0
2, 6720, Note_on_c, 0, 73, 64
2, 6749, Note_on_c, 0, 73, 0
2, 6780, Note_on_c, 0, 77, 64
2, 6809, Note_on_c, 0, 77, 0
2, 6840, Note_on_c, 0, 70, 64
2, 6900, Note_on_c, 0, 70, 0
2, 7020, Note_on_c, 0, 82, 64
2, 7049, Note_on_c, 0, 82, 0
2, 7080, Note_on_c, 0, 79, 64
2, 7109, Note_on_c, 0, 79, 0
2, 7140, Note_on_c, 0, 82, 64
2, 7169, Note_on_c, 0, 82, 0
2, 7200, Note_on_c, 0, 75, 64
2, 7260, Note_on_c, 0, 75, 0
2, 7320, Note_on_c, 0, 77, 64
2, 7380, Note_on_c, 0, 77, 0
2, 7440, Note_on_c, 0, 78, 64
2, 7470, Note_on_c, 0, 78, 0
2, 7470, Note_on_c, 0, 80, 64
2, 7500, Note_on_c, 0, 80, 0
2, 7500, Note_on_c, 0, 82, 64
2, 7590, Note_on_c, 0, 82, 0
2, 7590, Note_on_c, 0, 80, 64
2, 7620, Note_on_c, 0, 80, 0
2, 7620, Note_on_c, 0, 78, 64
2, 7650, Note_on_c, 0, 78, 0
2, 7650, Note_on_c, 0, 80, 64
2, 7680, Note_on_c, 0, 80, 0
2, 7680, Note_on_c, 0, 77, 64
2, 7710, Note_on_c, 0, 77, 0
2, 7710, Note_on_c, 0, 78, 64
2, 7740, Note_on_c, 0, 78, 0
2, 7740, Note_on_c, 0, 80, 64
2, 7830, Note_on_c, 0, 80, 0
2, 7830, Note_on_c, 0, 78, 64
2, 7860, Note_on_c, 0, 78, 0
2, 7860, Note_on_c, 0, 77, 64
2, 7890, Note_on_c, 0, 77, 0
2, 7890, Note_on_c, 0, 78, 64
2, 7920, Note_on_c, 0, 78, 0
2, 7920, Note_on_c, 0, 75, 64
2, 7950, Note_on_c, 0, 75, 0
2, 7950, Note_on_c, 0, 80, 64
2, 7980, Note_on_c, 0, 80, 0
2, 7980, Note_on_c, 0, 78, 64
2, 8010, Note_on_c, 0, 78, 0
2, 8010, Note_on_c, 0, 77, 64
2, 8040, Note_on_c, 0, 77, 0
2, 8040, Note_on_c, 0, 75, 64
2, 8070, Note_on_c, 0, 75, 0
2, 8070, Note_on_c, 0, 73, 64
2, 8100, Note_on_c, 0, 73, 0
2, 8100, Note_on_c, 0, 72, 64
2, 8115, Note_on_c, 0, 72, 0
2, 8115, Note_on_c, 0, 73, 64
2, 8130, Note_on_c, 0, 73, 0
2, 8130, Note_on_c, 0, 75, 64
2, 8160, Note_on_c, 0, 75, 0
2, 8160, Note_on_c, 0, 73, 64
2, 8190, Note_on_c, 0, 73, 0
2, 8190, Note_on_c, 0, 70, 64
2, 8220, Note_on_c, 0, 70, 0
2, 8220, Note_on_c, 0, 72, 64
2, 8250, Note_on_c, 0, 72, 0
2, 8250, Note_on_c, 0, 73, 64
2, 8280, Note_on_c, 0, 73, 0
2, 8280, Note_on_c, 0, 75, 64
2, 8310, Note_on_c, 0, 75, 0
2, 8310, Note_on_c, 0, 77, 64
2, 8340, Note_on_c, 0, 77, 0
2, 8340, Note_on_c, 0, 78, 64
2, 8355, Note_on_c, 0, 78, 0
2, 8355, Note_on_c, 0, 77, 64
2, 8370, Note_on_c, 0, 77, 0
2, 8370, Note_on_c, 0, 75, 64
2, 8400, Note_on_c, 0, 75, 0
2, 8400, Note_on_c, 0, 73, 64
2, 8430, Note_on_c, 0, 73, 0
2, 8430, Note_on_c, 0, 72, 64
2, 8460, Note_on_c, 0, 72, 0
2, 8460, Note_on_c, 0, 70, 64
2, 8490, Note_on_c, 0, 70, 0
2, 8490, Note_on_c, 0, 68, 64
2, 8520, Note_on_c, 0, 68, 0
2, 8520, Note_on_c, 0, 73, 64
2, 8580, Note_on_c, 0, 73, 0
2, 8640, Note_on_c, 0, 70, 64
2, 8700, Note_on_c, 0, 70, 0
2, 8760, Note_on_c, 0, 78, 64
2, 8820, Note_on_c, 0, 78, 0
2, 8910, Note_on_c, 0, 78, 64
2, 8940, Note_on_c, 0, 78, 0
2, 8940, Note_on_c, 0, 77, 64
2, 8970, Note_on_c, 0, 77, 0
2, 8970, Note_on_c, 0, 75, 64
2, 9000, Note_on_c, 0, 75, 0
2, 9000, Note_on_c, 0, 77, 64
2, 9015, Note_on_c, 0, 78, 64
2, 9019, Note_on_c, 0, 77, 0
2, 9030, Note_on_c, 0, 80, 64
2, 9035, Note_on_c, 0, 78, 0
2, 9051, Note_on_c, 0, 80, 0
2, 9060, Note_on_c, 0, 73, 64
2, 9075, Note_on_c, 0, 75, 64
2, 9081, Note_on_c, 0, 73, 0
2, 9090, Note_on_c, 0, 77, 64
2, 9097, Note_on_c, 0, 75, 0
2, 9112, Note_on_c, 0, 77, 0
2, 9120, Note_on_c, 0, 70, 64
2, 9137, Note_on_c, 0, 70, 0
2, 9150, Note_on_c, 0, 77, 64
2, 9180, Note_on_c, 0, 77, 0
2, 9180, Note_on_c, 0, 75, 64
2, 9210, Note_on_c, 0, 75, 0
2, 9210, Note_on_c, 0, 73, 64
2, 9240, Note_on_c, 0, 73, 0
2, 9240, Note_on_c, 0, 75, 64
2, 9255, Note_on_c, 0, 77, 64
2, 9263, Note_on_c, 0, 75, 0
2, 9270, Note_on_c, 0, 78, 64
2, 9281, Note_on_c, 0, 77, 0
2, 9292, Note_on_c, 0, 78, 0
2, 9300, Note_on_c, 0, 72, 64
2, 9315, Note_on_c, 0, 73, 64
2, 9324, Note_on_c, 0, 72, 0
2, 9330, Note_on_c, 0, 75, 64
2, 9341, Note_on_c, 0, 73, 0
2, 9351, Note_on_c, 0, 75, 0
2, 9360, Note_on_c, 0, 68, 64
2, 9379, Note_on_c, 0, 68, 0
2, 9390, Note_on_c, 0, 75, 64
2, 9420, Note_on_c, 0, 75, 0
2, 9420, Note_on_c, 0, 73, 64
2, 9450, Note_on_c, 0, 73, 0
2, 9450, Note_on_c, 0, 72, 64
2, 9480, Note_on_c, 0, 72, 0
2, 9480, Note_on_c, 0, 73, 64
2, 9495, Note_on_c, 0, 75, 64
2, 9505, Note_on_c, 0, 73, 0
2, 9510, Note_on_c, 0, 77, 64
2, 9517, Note_on_c, 0, 75, 0
2, 9534, Note_on_c, 0, 77, 0
2, 9540, Note_on_c, 0, 68, 64
2, 9555, Note_on_c, 0, 70, 64
2, 9562, Note_on_c, 0, 68, 0
2, 9570, Note_on_c, 0, 71, 64
2, 9576, Note_on_c, 0, 70, 0
2, 9600, Note_on_c, 0, 71, 0
2, 9600, Note_on_c, 0, 70, 64
2, 9690, Note_on_c, 0, 70, 0
2, 9690, Note_on_c, 0, 66, 64
2, 9720, Note_on_c, 0, 66, 0
2, 9720, Note_on_c, 0, 68, 64
2, 9810, Note_on_c, 0, 68, 0
2, 9810, Note_on_c, 0, 65, 64
2, 9840, Note_on_c, 0, 65, 0
2, 9840, Note_on_c, 0, 66, 64
2, 9930, Note_on_c, 0, 66, 0
2, 9930, Note_on_c, 0, 63, 64
2, 9960, Note_on_c, 0, 63, 0
2, 9960, Note_on_c, 0, 65, 64
2, 10230, Note_on_c, 0, 65, 0
2, 10230, Note_on_c, 0, 63, 64
2, 10260, Note_on_c, 0, 63, 0
2, 10260, Note_on_c, 0, 66, 64
2, 10290, Note_on_c, 0, 66, 0
2, 10290, Note_on_c, 0, 63, 64
2, 10320, Note_on_c, 0, 63, 0
2, 10320, Note_on_c, 0, 60, 64
2, 10380, Note_on_c, 0, 60, 0
2, 10380, Note_on_c, 0, 60, 64
2, 10410, Note_on_c, 0, 60, 0
2, 10410, Note_on_c, 0, 63, 64
2, 10440, Note_on_c, 0, 63, 0
2, 10440, Note_on_c, 0, 68, 64
2, 10530, Note_on_c, 0, 68, 0
2, 10530, Note_on_c, 0, 66, 64
2, 10560, Note_on_c, 0, 66, 0
2, 10560, Note_on_c, 0, 65, 64
2, 10620, Note_on_c, 0, 65, 0
2, 10620, Note_on_c, 0, 65, 64
2, 10650, Note_on_c, 0, 65, 0
2, 10650, Note_on_c, 0, 68, 64
2, 10680, Note_on_c, 0, 68, 0
2, 10680, Note_on_c, 0, 73, 64
2, 10770, Note_on_c, 0, 73, 0
2, 10770, Note_on_c, 0, 71, 64
2, 10800, Note_on_c, 0, 71, 0
2, 10800, Note_on_c, 0, 70, 64
2, 10860, Note_on_c, 0, 70, 0
2, 10860, Note_on_c, 0, 70, 64
2, 10890, Note_on_c, 0, 70, 0
2, 10890, Note_on_c, 0, 73, 64
2, 10920, Note_on_c, 0, 73, 0
2, 10920, Note_on_c, 0, 78, 64
2, 11070, Note_on_c, 0, 78, 0
2, 11070, Note_on_c, 0, 70, 64
2, 11100, Note_on_c, 0, 70, 0
2, 11100, Note_on_c, 0, 72, 64
2, 11130, Note_on_c, 0, 72, 0
2, 11130, Note_on_c, 0, 73, 64
2, 11160, Note_on_c, 0, 73, 0
2, 11160, Note_on_c, 0, 75, 64
2, 11190, Note_on_c, 0, 75, 0
2, 11190, Note_on_c, 0, 77, 64
2, 11220, Note_on_c, 0, 77, 0
2, 11220, Note_on_c, 0, 78, 64
2, 11235, Note_on_c, 0, 77, 64
2, 11240, Note_on_c, 0, 78, 0
2, 11250, Note_on_c, 0, 75, 64
2, 11257, Note_on_c, 0, 77, 0
2, 11280, Note_on_c, 0, 75, 0
2, 11280, Note_on_c, 0, 77, 64
2, 11310, Note_on_c, 0, 77, 0
2, 11310, Note_on_c, 0, 78, 64
2, 11340, Note_on_c, 0, 78, 0
2, 11340, Note_on_c, 0, 77, 64
2, 11370, Note_on_c, 0, 77, 0
2, 11370, Note_on_c, 0, 75, 64
2, 11400, Note_on_c, 0, 75, 0
2, 11400, Note_on_c, 0, 73, 64
2, 11430, Note_on_c, 0, 73, 0
2, 11430, Note_on_c, 0, 72, 64
2, 11460, Note_on_c, 0, 72, 0
2, 11460, Note_on_c, 0, 70, 64
2, 11475, Note_on_c, 0, 72, 64
2, 11482, Note_on_c, 0, 70, 0
2, 11490, Note_on_c, 0, 73, 64
2, 11498, Note_on_c, 0, 72, 0
2, 11520, Note_on_c, 0, 73, 0
2, 11520, Note_on_c, 0, 72, 64
2, 11549, Note_on_c, 0, 72, 0
2, 11580, Note_on_c, 0, 80, 64
2, 11609, Note_on_c, 0, 80, 0
2, 11640, Note_on_c, 0, 77, 64
2, 11669, Note_on_c, 0, 77, 0
2, 11700, Note_on_c, 0, 80, 64
2, 11729, Note_on_c, 0, 80, 0
2, 11760, Note_on_c, 0, 73, 64
2, 11774, Note_on_c, 0, 73, 0
2, 11790, Note_on_c, 0, 77, 64
2, 11820, Note_on_c, 0, 77, 0
2, 11820, Note_on_c, 0, 78, 64
2, 11850, Note_on_c, 0, 78, 0
2, 11850, Note_on_c, 0, 80, 64
2, 11880, Note_on_c, 0, 80, 0
2, 11880, Note_on_c, 0, 82, 64
2, 11910, Note_on_c, 0, 82, 0
2, 11910, Note_on_c, 0, 84, 64
2, 11940, Note_on_c, 0, 84, 0
2, 11940, Note_on_c, 0, 85, 64
2, 11970, Note_on_c, 0, 85, 0
2, 11970, Note_on_c, 0, 82, 64
2, 12000, Note_on_c, 0, 82, 0
2, 12000, Note_on_c, 0, 78, 64
2, 12030, Note_on_c, 0, 78, 0
2, 12030, Note_on_c, 0, 80, 64
2, 12060, Note_on_c, 0, 80, 0
2, 12060, Note_on_c, 0, 78, 64
2, 12090, Note_on_c, 0, 78, 0
2, 12090, Note_on_c, 0, 77, 64
2, 12120, Note_on_c, 0, 77, 0
2, 12120, Note_on_c, 0, 75, 64
2, 12150, Note_on_c, 0, 75, 0
2, 12150, Note_on_c, 0, 73, 64
2, 12180, Note_on_c, 0, 73, 0
2, 12180, Note_on_c, 0, 72, 64
2, 12195, Note_on_c, 0, 73, 64
2, 12200, Note_on_c, 0, 72, 0
2, 12210, Note_on_c, 0, 75, 64
2, 12215, Note_on_c, 0, 73, 0
2, 12240, Note_on_c, 0, 75, 0
2, 12240, Note_on_c, 0, 68, 64
2, 12510, Note_on_c, 0, 68, 0
2, 12510, Note_on_c, 0, 61, 64
2, 12540, Note_on_c, 0, 61, 0
2, 12540, Note_on_c, 0, 63, 64
2, 12570, Note_on_c, 0, 63, 0
2, 12570, Note_on_c, 0, 65, 64
2, 12600, Note_on_c, 0, 65, 0
2, 12600, Note_on_c, 0, 66, 64
2, 12630, Note_on_c, 0, 66, 0
2, 12630, Note_on_c, 0, 68, 64
2, 12660, Note_on_c, 0, 68, 0
2, 12660, Note_on_c, 0, 70, 64
2, 12690, Note_on_c, 0, 70, 0
2, 12690, Note_on_c, 0, 66, 64
2, 12720, Note_on_c, 0, 66, 0
2, 12720, Note_on_c, 0, 63, 64
2, 12750, Note_on_c, 0, 63, 0
2, 12750, Note_on_c, 0, 65, 64
2, 12780, Note_on_c, 0, 65, 0
2, 12780, Note_on_c, 0, 66, 64
2, 12810, Note_on_c, 0, 66, 0
2, 12810, Note_on_c, 0, 68, 64
2, 12840, Note_on_c, 0, 68, 0
2, 12840, Note_on_c, 0, 70, 64
2, 12870, Note_on_c, 0, 70, 0
2, 12870, Note_on_c, 0, 72, 64
2, 12900, Note_on_c, 0, 72, 0
2, 12900, Note_on_c, 0, 73, 64
2, 12915, Note_on_c, 0, 72, 64
2, 12921, Note_on_c, 0, 73, 0
2, 12930, Note_on_c, 0, 70, 64
2, 12937, Note_on_c, 0, 72, 0
2, 12960, Note_on_c, 0, 70, 0
2, 12960, Note_on_c, 0, 72, 64
2, 12989, Note_on_c, 0, 72, 0
2, 13020, Note_on_c, 0, 75, 64
2, 13050, Note_on_c, 0, 75, 0
2, 13050, Note_on_c, 0, 73, 64
2, 13080, Note_on_c, 0, 73, 0
2, 13080, Note_on_c, 0, 72, 64
2, 13124, Note_on_c, 0, 72, 0
2, 13140, Note_on_c, 0, 75, 64
2, 13184, Note_on_c, 0, 75, 0
2, 13200, Note_on_c, 0, 68, 64
2, 13244, Note_on_c, 0, 68, 0
2, 13260, Note_on_c, 0, 73, 64
2, 13304, Note_on_c, 0, 73, 0
2, 13320, Note_on_c, 0, 76, 64
2, 13364, Note_on_c, 0, 76, 0
2, 13380, Note_on_c, 0, 73, 64
2, 13424, Note_on_c, 0, 73, 0
2, 13440, Note_on_c, 0, 78, 64
2, 13454, Note_on_c, 0, 78, 0
2, 13470, Note_on_c, 0, 81, 64
2, 13500, Note_on_c, 0, 81, 0
2, 13500, Note_on_c, 0, 80, 64
2, 13530, Note_on_c, 0, 80, 0
2, 13530, Note_on_c, 0, 78, 64
2, 13560, Note_on_c, 0, 78, 0
2, 13560, Note_on_c, 0, 76, 64
2, 13590, Note_on_c, 0, 76, 0
2, 13590, Note_on_c, 0, 75, 64
2, 13620, Note_on_c, 0, 75, 0
2, 13620, Note_on_c, 0, 73, 64
2, 13635, Note_on_c, 0, 75, 64
2, 13639, Note_on_c, 0, 73, 0
2, 13650, Note_on_c, 0, 76, 64
2, 13655, Note_on_c, 0, 75, 0
2, 13680, Note_on_c, 0, 76, 0
2, 13680, Note_on_c, 0, 67, 64
2, 13710, Note_on_c, 0, 67, 0
2, 13710, Note_on_c, 0, 68, 64
2, 13740, Note_on_c, 0, 68, 0
2, 13740, Note_on_c, 0, 70, 64
2, 13770, Note_on_c, 0, 70, 0
2, 13770, Note_on_c, 0, 72, 64
2, 13800, Note_on_c, 0, 72, 0
2, 13800, Note_on_c, 0, 73, 64
2, 13830, Note_on_c, 0, 73, 0
2, 13830, Note_on_c, 0, 75, 64
2, 13860, Note_on_c, 0, 75, 0
2, 13860, Note_on_c, 0, 67, 64
2, 13860, Note_on_c, 0, 76, 64
2, 13875, Note_on_c, 0, 75, 64
2, 13881, Note_on_c, 0, 76, 0
2, 13890, Note_on_c, 0, 73, 64
2, 13893, Note_on_c, 0, 75, 0
2, 13920, Note_on_c, 0, 73, 0
2, 13920, Note_on_c, 0, 67, 0
2, 13920, Note_on_c, 0, 72, 64
2, 13920, Note_on_c, 0, 68, 64
2, 13980, Note_on_c, 0, 68, 0
2, 13980, Note_on_c, 0, 72, 0
2, 13980, Note_on_c, 0, 75, 64
2, 14040, Note_on_c, 0, 75, 0
2, 14040, Note_on_c, 0, 80, 64
2, 14280, Note_on_c, 0, 80, 0
2, 14280, Note_on_c, 0, 78, 64
2, 14520, Note_on_c, 0, 78, 0
2, 14520, Note_on_c, 0, 77, 64
2, 14715, Note_on_c, 0, 77, 0
2, 14715, Note_on_c, 0, 75, 64
2, 14730, Note_on_c, 0, 73, 64
2, 14735, Note_on_c, 0, 75, 0
2, 14745, Note_on_c, 0, 71, 64
2, 14750, Note_on_c, 0, 73, 0
2, 14760, Note_on_c, 0, 70, 64
2, 14767, Note_on_c, 0, 71, 0
2, 14775, Note_on_c, 0, 68, 64
2, 14781, Note_on_c, 0, 70, 0
2, 14790, Note_on_c, 0, 66, 64
2, 14796, Note_on_c, 0, 68, 0
2, 14805, Note_on_c, 0, 65, 64
2, 14813, Note_on_c, 0, 66, 0
2, 14820, Note_on_c, 0, 65, 0
2, 14820, Note_on_c, 0, 66, 64
2, 15060, Note_on_c, 0, 66, 0
2, 15060, Note_on_c, 0, 65, 64
2, 15135, Note_on_c, 0, 65, 0
2, 15135, Note_on_c, 0, 65, 64
2, 15150, Note_on_c, 0, 65, 0
2, 15150, Note_on_c, 0, 63, 64
2, 15165, Note_on_c, 0, 63, 0
2, 15165, Note_on_c, 0, 61, 64
2, 15180, Note_on_c, 0, 61, 0
2, 15180, Note_on_c, 0, 63, 64
2, 15420, Note_on_c, 0, 63, 0
2, 15420, Note_on_c, 0, 61, 64
2, 15510, Note_on_c, 0, 61, 0
2, 15510, Note_on_c, 0, 61, 64
2, 15540, Note_on_c, 0, 61, 0
2, 15540, Note_on_c, 0, 60, 64
2, 15600, Note_on_c, 0, 60, 0
2, 15600, Note_on_c, 0, 61, 64
2, 15750, Note_on_c, 0, 61, 0
2, 15750, Note_on_c, 0, 56, 64
2, 15780, Note_on_c, 0, 56, 0
2, 15780, Note_on_c, 0, 59, 64
2, 15810, Note_on_c, 0, 59, 0
2, 15810, Note_on_c, 0, 56, 64
2, 15840, Note_on_c, 0, 56, 0
2, 15840, Note_on_c, 0, 58, 64
2, 15990, Note_on_c, 0, 58, 0
2, 15990, Note_on_c, 0, 58, 64
2, 16020, Note_on_c, 0, 58, 0
2, 16020, Note_on_c, 0, 61, 64
2, 16050, Note_on_c, 0, 61, 0
2, 16050, Note_on_c, 0, 58, 64
2, 16080, Note_on_c, 0, 58, 0
2, 16080, Note_on_c, 0, 63, 64
2, 16230, Note_on_c, 0, 63, 0
2, 16230, Note_on_c, 0, 65, 64
2, 16260, Note_on_c, 0, 65, 0
2, 16260, Note_on_c, 0, 66, 64
2, 16350, Note_on_c, 0, 66, 0
2, 16350, Note_on_c, 0, 65, 64
2, 16380, Note_on_c, 0, 65, 0
2, 16380, Note_on_c, 0, 63, 64
2, 16410, Note_on_c, 0, 63, 0
2, 16410, Note_on_c, 0, 66, 64
2, 16470, Note_on_c, 0, 66, 0
2, 16470, Note_on_c, 0, 70, 64
2, 16500, Note_on_c, 0, 70, 0
2, 16500, Note_on_c, 0, 68, 64
2, 16530, Note_on_c, 0, 68, 0
2, 16530, Note_on_c, 0, 66, 64
2, 16560, Note_on_c, 0, 66, 0
2, 16560, Note_on_c, 0, 65, 64
2, 16800, Note_on_c, 0, 65, 0
2, 16800, End_track
3, 0, Start_track
3, 0, MIDI_port, 0
3, 0, Title_t, "Sequenced"
3, 0, Program_c, 1, 6
3, 540, Note_on_c, 1, 68, 64
3, 584, Note_on_c, 1, 68, 0
3, 600, Note_on_c, 1, 65, 64
3, 644, Note_on_c, 1, 65, 0
3, 660, Note_on_c, 1, 68, 64
3, 704, Note_on_c, 1, 68, 0
3, 720, Note_on_c, 1, 61, 64
3, 780, Note_on_c, 1, 61, 0
3, 840, Note_on_c, 1, 63, 64
3, 900, Note_on_c, 1, 63, 0
3, 960, Note_on_c, 1, 65, 64
3, 990, Note_on_c, 1, 65, 0
3, 990, Note_on_c, 1, 66, 64
3, 1020, Note_on_c, 1, 66, 0
3, 1020, Note_on_c, 1, 68, 64
3, 1110, Note_on_c, 1, 68, 0
3, 1110, Note_on_c, 1, 66, 64
3, 1140, Note_on_c, 1, 66, 0
3, 1140, Note_on_c, 1, 65, 64
3, 1170, Note_on_c, 1, 65, 0
3, 1170, Note_on_c, 1, 68, 64
3, 1200, Note_on_c, 1, 68, 0
3, 1200, Note_on_c, 1, 63, 64
3, 1230, Note_on_c, 1, 63, 0
3, 1230, Note_on_c, 1, 65, 64
3, 1260, Note_on_c, 1, 65, 0
3, 1260, Note_on_c, 1, 66, 64
3, 1350, Note_on_c, 1, 66, 0
3, 1350, Note_on_c, 1, 65, 64
3, 1380, Note_on_c, 1, 65, 0
3, 1380, Note_on_c, 1, 63, 64
3, 1410, Note_on_c, 1, 63, 0
3, 1410, Note_on_c, 1, 66, 64
3, 1440, Note_on_c, 1, 66, 0
3, 1440, Note_on_c, 1, 65, 64
3, 1500, Note_on_c, 1, 65, 0
3, 1740, Note_on_c, 1, 68, 64
3, 1769, Note_on_c, 1, 68, 0
3, 1800, Note_on_c, 1, 72, 64
3, 1829, Note_on_c, 1, 72, 0
3, 1860, Note_on_c, 1, 68, 64
3, 1889, Note_on_c, 1, 68, 0
3, 1920, Note_on_c, 1, 73, 64
3, 1980, Note_on_c, 1, 73, 0
3, 2040, Note_on_c, 1, 71, 64
3, 2100, Note_on_c, 1, 71, 0
3, 2160, Note_on_c, 1, 70, 64
3, 2220, Note_on_c, 1, 70, 0
3, 2310, Note_on_c, 1, 70, 64
3, 2340, Note_on_c, 1, 70, 0
3, 2340, Note_on_c, 1, 74, 64
3, 2370, Note_on_c, 1, 74, 0
3, 2370, Note_on_c, 1, 70, 64
3, 2400, Note_on_c, 1, 70, 0
3, 2400, Note_on_c, 1, 75, 64
3, 2460, Note_on_c, 1, 75, 0
3, 2550, Note_on_c, 1, 75, 64
3, 2580, Note_on_c, 1, 75, 0
3, 2580, Note_on_c, 1, 73, 64
3, 2670, Note_on_c, 1, 73, 0
3, 2670, Note_on_c, 1, 72, 64
3, 2714, Note_on_c, 1, 72, 0
3, 2730, Note_on_c, 1, 72, 64
3, 2760, Note_on_c, 1, 72, 0
3, 2760, Note_on_c, 1, 70, 64
3, 2849, Note_on_c, 1, 70, 0
3, 2850, Note_on_c, 1, 73, 64
3, 2880, Note_on_c, 1, 73, 0
3, 2880, Note_on_c, 1, 72, 64
3, 2940, Note_on_c, 1, 72, 0
3, 3180, Note_on_c, 1, 56, 64
3, 3209, Note_on_c, 1, 56, 0
3, 3240, Note_on_c, 1, 60, 64
3, 3269, Note_on_c, 1, 60, 0
3, 3300, Note_on_c, 1, 56, 64
3, 3329, Note_on_c, 1, 56, 0
3, 3360, Note_on_c, 1, 61, 64
3, 3420, Note_on_c, 1, 61, 0
3, 3480, Note_on_c, 1, 59, 64
3, 3540, Note_on_c, 1, 59, 0
3, 3600, Note_on_c, 1, 58, 64
3, 3630, Note_on_c, 1, 58, 0
3, 3630, Note_on_c, 1, 60, 64
3, 3660, Note_on_c, 1, 60, 0
3, 3660, Note_on_c, 1, 62, 64
3, 3690, Note_on_c, 1, 62, 0
3, 3690, Note_on_c, 1, 63, 64
3, 3720, Note_on_c, 1, 63, 0
3, 3720, Note_on_c, 1, 65, 64
3, 3750, Note_on_c, 1, 65, 0
3, 3750, Note_on_c, 1, 66, 64
3, 3780, Note_on_c, 1, 66, 0
3, 3780, Note_on_c, 1, 68, 64
3, 3795, Note_on_c, 1, 66, 64
3, 3801, Note_on_c, 1, 68, 0
3, 3810, Note_on_c, 1, 65, 64
3, 3816, Note_on_c, 1, 66, 0
3, 3840, Note_on_c, 1, 65, 0
3, 3840, Note_on_c, 1, 66, 64
3, 3900, Note_on_c, 1, 66, 0
3, 3960, Note_on_c, 1, 65, 64
3, 4020, Note_on_c, 1, 65, 0
3, 4140, Note_on_c, 1, 70, 64
3, 4169, Note_on_c, 1, 70, 0
3, 4200, Note_on_c, 1, 66, 64
3, 4229, Note_on_c, 1, 66, 0
3, 4260, Note_on_c, 1, 70, 64
3, 4289, Note_on_c, 1, 70, 0
3, 4320, Note_on_c, 1, 63, 64
3, 4349, Note_on_c, 1, 63, 0
3, 4380, Note_on_c, 1, 66, 64
3, 4440, Note_on_c, 1, 66, 0
3, 4440, Note_on_c, 1, 65, 64
3, 4500, Note_on_c, 1, 65, 0
3, 4500, Note_on_c, 1, 68, 64
3, 4590, Note_on_c, 1, 68, 0
3, 4590, Note_on_c, 1, 68, 64
3, 4620, Note_on_c, 1, 68, 0
3, 4620, Note_on_c, 1, 66, 64
3, 4650, Note_on_c, 1, 66, 0
3, 4650, Note_on_c, 1, 65, 64
3, 4680, Note_on_c, 1, 65, 0
3, 4680, Note_on_c, 1, 63, 64
3, 4710, Note_on_c, 1, 63, 0
3, 4710, Note_on_c, 1, 61, 64
3, 4740, Note_on_c, 1, 61, 0
3, 4740, Note_on_c, 1, 60, 64
3, 4755, Note_on_c, 1, 61, 64
3, 4761, Note_on_c, 1, 60, 0
3, 4770, Note_on_c, 1, 63, 64
3, 4775, Note_on_c, 1, 61, 0
3, 4800, Note_on_c, 1, 63, 0
3, 4800, Note_on_c, 1, 56, 64
3, 4860, Note_on_c, 1, 56, 0
3, 4980, Note_on_c, 1, 61, 64
3, 5009, Note_on_c, 1, 61, 0
3, 5040, Note_on_c, 1, 65, 64
3, 5069, Note_on_c, 1, 65, 0
3, 5100, Note_on_c, 1, 61, 64
3, 5129, Note_on_c, 1, 61, 0
3, 5160, Note_on_c, 1, 68, 64
3, 5204, Note_on_c, 1, 68, 0
3, 5310, Note_on_c, 1, 68, 64
3, 5340, Note_on_c, 1, 68, 0
3, 5340, Note_on_c, 1, 66, 64
3, 5370, Note_on_c, 1, 66, 0
3, 5370, Note_on_c, 1, 65, 64
3, 5400, Note_on_c, 1, 65, 0
3, 5400, Note_on_c, 1, 66, 64
3, 5485, Note_on_c, 1, 66, 0
3, 5490, Note_on_c, 1, 66, 64
3, 5543, Note_on_c, 1, 66, 0
3, 5550, Note_on_c, 1, 66, 64
3, 5580, Note_on_c, 1, 66, 0
3, 5580, Note_on_c, 1, 65, 64
3, 5610, Note_on_c, 1, 65, 0
3, 5610, Note_on_c, 1, 63, 64
3, 5640, Note_on_c, 1, 63, 0
3, 5640, Note_on_c, 1, 65, 64
3, 5723, Note_on_c, 1, 65, 0
3, 5730, Note_on_c, 1, 65, 64
3, 5784, Note_on_c, 1, 65, 0
3, 5790, Note_on_c, 1, 65, 64
3, 5820, Note_on_c, 1, 65, 0
3, 5820, Note_on_c, 1, 63, 64
3, 5850, Note_on_c, 1, 63, 0
3, 5850, Note_on_c, 1, 61, 64
3, 5880, Note_on_c, 1, 61, 0
3, 5880, Note_on_c, 1, 63, 64
3, 5964, Note_on_c, 1, 63, 0
3, 5970, Note_on_c, 1, 63, 64
3, 6023, Note_on_c, 1, 63, 0
3, 6030, Note_on_c, 1, 63, 64
3, 6060, Note_on_c, 1, 63, 0
3, 6060, Note_on_c, 1, 61, 64
3, 6090, Note_on_c, 1, 61, 0
3, 6090, Note_on_c, 1, 60, 64
3, 6120, Note_on_c, 1, 60, 0
3, 6120, Note_on_c, 1, 61, 64
3, 6210, Note_on_c, 1, 61, 0
3, 6210, Note_on_c, 1, 60, 64
3, 6240, Note_on_c, 1, 60, 0
3, 6240, Note_on_c, 1, 58, 64
3, 6270, Note_on_c, 1, 58, 0
3, 6270, Note_on_c, 1, 57, 64
3, 6300, Note_on_c, 1, 57, 0
3, 6300, Note_on_c, 1, 58, 64
3, 6390, Note_on_c, 1, 58, 0
3, 6390, Note_on_c, 1, 61, 64
3, 6420, Note_on_c, 1, 61, 0
3, 6420, Note_on_c, 1, 60, 64
3, 6450, Note_on_c, 1, 60, 0
3, 6450, Note_on_c, 1, 58, 64
3, 6480, Note_on_c, 1, 58, 0
3, 6480, Note_on_c, 1, 57, 64
3, 6540, Note_on_c, 1, 57, 0
3, 6780, Note_on_c, 1, 58, 64
3, 6813, Note_on_c, 1, 58, 0
3, 6840, Note_on_c, 1, 62, 64
3, 6873, Note_on_c, 1, 62, 0
3, 6900, Note_on_c, 1, 58, 64
3, 6935, Note_on_c, 1, 58, 0
3, 6960, Note_on_c, 1, 63, 64
3, 7020, Note_on_c, 1, 63, 0
3, 7080, Note_on_c, 1, 61, 64
3, 7140, Note_on_c, 1, 61, 0
3, 7200, Note_on_c, 1, 60, 64
3, 7230, Note_on_c, 1, 60, 0
3, 7230, Note_on_c, 1, 58, 64
3, 7260, Note_on_c, 1, 58, 0
3, 7260, Note_on_c, 1, 56, 64
3, 7350, Note_on_c, 1, 56, 0
3, 7350, Note_on_c, 1, 58, 64
3, 7380, Note_on_c, 1, 58, 0
3, 7380, Note_on_c, 1, 59, 64
3, 7395, Note_on_c, 1, 58, 64
3, 7401, Note_on_c, 1, 59, 0
3, 7410, Note_on_c, 1, 56, 64
3, 7416, Note_on_c, 1, 58, 0
3, 7440, Note_on_c, 1, 56, 0
3, 7440, Note_on_c, 1, 58, 64
3, 7470, Note_on_c, 1, 58, 0
3, 7470, Note_on_c, 1, 60, 64
3, 7500, Note_on_c, 1, 60, 0
3, 7500, Note_on_c, 1, 61, 64
3, 7515, Note_on_c, 1, 60, 64
3, 7522, Note_on_c, 1, 61, 0
3, 7530, Note_on_c, 1, 58, 64
3, 7538, Note_on_c, 1, 60, 0
3, 7560, Note_on_c, 1, 58, 0
3, 7560, Note_on_c, 1, 60, 64
3, 7590, Note_on_c, 1, 60, 0
3, 7590, Note_on_c, 1, 61, 64
3, 7620, Note_on_c, 1, 61, 0
3, 7620, Note_on_c, 1, 63, 64
3, 7635, Note_on_c, 1, 61, 64
3, 7643, Note_on_c, 1, 63, 0
3, 7650, Note_on_c, 1, 60, 64
3, 7655, Note_on_c, 1, 61, 0
3, 7680, Note_on_c, 1, 60, 0
3, 7680, Note_on_c, 1, 61, 64
3, 7976, Note_on_c, 1, 61, 0
3, 7978, Note_on_c, 1, 61, 64
3, 8007, Note_on_c, 1, 61, 0
3, 8040, Note_on_c, 1, 60, 64
3, 8069, Note_on_c, 1, 60, 0
3, 8100, Note_on_c, 1, 65, 64
3, 8129, Note_on_c, 1, 65, 0
3, 8160, Note_on_c, 1, 58, 64
3, 8340, Note_on_c, 1, 58, 0
3, 8340, Note_on_c, 1, 63, 64
3, 8400, Note_on_c, 1, 63, 0
3, 8400, Note_on_c, 1, 56, 64
3, 8520, Note_on_c, 1, 56, 0
3, 8550, Note_on_c, 1, 68, 64
3, 8580, Note_on_c, 1, 68, 0
3, 8580, Note_on_c, 1, 65, 64
3, 8610, Note_on_c, 1, 65, 0
3, 8610, Note_on_c, 1, 68, 64
3, 8640, Note_on_c, 1, 68, 0
3, 8640, Note_on_c, 1, 61, 64
3, 8700, Note_on_c, 1, 61, 0
3, 8790, Note_on_c, 1, 60, 64
3, 8820, Note_on_c, 1, 60, 0
3, 8820, Note_on_c, 1, 56, 64
3, 8850, Note_on_c, 1, 56, 0
3, 8850, Note_on_c, 1, 60, 64
3, 8880, Note_on_c, 1, 60, 0
3, 8880, Note_on_c, 1, 61, 64
3, 8940, Note_on_c, 1, 61, 0
3, 8940, Note_on_c, 1, 56, 64
3, 9000, Note_on_c, 1, 56, 0
3, 9000, Note_on_c, 1, 61, 64
3, 9180, Note_on_c, 1, 61, 0
3, 9180, Note_on_c, 1, 58, 64
3, 9240, Note_on_c, 1, 58, 0
3, 9240, Note_on_c, 1, 54, 64
3, 9420, Note_on_c, 1, 54, 0
3, 9420, Note_on_c, 1, 56, 64
3, 9480, Note_on_c, 1, 56, 0
3, 9480, Note_on_c, 1, 53, 64
3, 9540, Note_on_c, 1, 53, 0
3, 9540, Note_on_c, 1, 65, 64
3, 9630, Note_on_c, 1, 65, 0
3, 9630, Note_on_c, 1, 61, 64
3, 9660, Note_on_c, 1, 61, 0
3, 9660, Note_on_c, 1, 63, 64
3, 9750, Note_on_c, 1, 63, 0
3, 9750, Note_on_c, 1, 60, 64
3, 9780, Note_on_c, 1, 60, 0
3, 9780, Note_on_c, 1, 61, 64
3, 9870, Note_on_c, 1, 61, 0
3, 9870, Note_on_c, 1, 58, 64
3, 9900, Note_on_c, 1, 58, 0
3, 9900, Note_on_c, 1, 60, 64
3, 9960, Note_on_c, 1, 60, 0
3, 9990, Note_on_c, 1, 61, 64
3, 10020, Note_on_c, 1, 61, 0
3, 10020, Note_on_c, 1, 56, 64
3, 10050, Note_on_c, 1, 56, 0
3, 10050, Note_on_c, 1, 59, 64
3, 10080, Note_on_c, 1, 59, 0
3, 10080, Note_on_c, 1, 58, 64
3, 10320, Note_on_c, 1, 58, 0
3, 10350, Note_on_c, 1, 56, 64
3, 10470, Note_on_c, 1, 56, 0
3, 10470, Note_on_c, 1, 61, 64
3, 10500, Note_on_c, 1, 61, 0
3, 10500, Note_on_c, 1, 60, 64
3, 10560, Note_on_c, 1, 60, 0
3, 10590, Note_on_c, 1, 61, 64
3, 10710, Note_on_c, 1, 61, 0
3, 10710, Note_on_c, 1, 66, 64
3, 10740, Note_on_c, 1, 66, 0
3, 10740, Note_on_c, 1, 65, 64
3, 10800, Note_on_c, 1, 65, 0
3, 10830, Note_on_c, 1, 66, 64
3, 10950, Note_on_c, 1, 66, 0
3, 10950, Note_on_c, 1, 71, 64
3, 10980, Note_on_c, 1, 71, 0
3, 10980, Note_on_c, 1, 70, 64
3, 11010, Note_on_c, 1, 70, 0
3, 11010, Note_on_c, 1, 75, 64
3, 11040, Note_on_c, 1, 75, 0
3, 11040, Note_on_c, 1, 68, 64
3, 11100, Note_on_c, 1, 68, 0
3, 11310, Note_on_c, 1, 60, 64
3, 11340, Note_on_c, 1, 60, 0
3, 11340, Note_on_c, 1, 61, 64
3, 11370, Note_on_c, 1, 61, 0
3, 11370, Note_on_c, 1, 63, 64
3, 11400, Note_on_c, 1, 63, 0
3, 11400, Note_on_c, 1, 65, 64
3, 11430, Note_on_c, 1, 65, 0
3, 11430, Note_on_c, 1, 67, 64
3, 11460, Note_on_c, 1, 67, 0
3, 11460, Note_on_c, 1, 68, 64
3, 11490, Note_on_c, 1, 68, 0
3, 11490, Note_on_c, 1, 67, 64
3, 11520, Note_on_c, 1, 67, 0
3, 11520, Note_on_c, 1, 68, 64
3, 11580, Note_on_c, 1, 68, 0
3, 11640, Note_on_c, 1, 61, 64
3, 11744, Note_on_c, 1, 61, 0
3, 11760, Note_on_c, 1, 65, 64
3, 11864, Note_on_c, 1, 65, 0
3, 11880, Note_on_c, 1, 61, 64
3, 11984, Note_on_c, 1, 61, 0
3, 12000, Note_on_c, 1, 66, 64
3, 12060, Note_on_c, 1, 66, 0
3, 12180, Note_on_c, 1, 66, 64
3, 12270, Note_on_c, 1, 66, 0
3, 12270, Note_on_c, 1, 70, 64
3, 12300, Note_on_c, 1, 70, 0
3, 12300, Note_on_c, 1, 68, 64
3, 12330, Note_on_c, 1, 68, 0
3, 12330, Note_on_c, 1, 66, 64
3, 12360, Note_on_c, 1, 66, 0
3, 12360, Note_on_c, 1, 65, 64
3, 12390, Note_on_c, 1, 65, 0
3, 12390, Note_on_c, 1, 63, 64
3, 12420, Note_on_c, 1, 63, 0
3, 12420, Note_on_c, 1, 61, 64
3, 12435, Note_on_c, 1, 63, 64
3, 12439, Note_on_c, 1, 61, 0
3, 12450, Note_on_c, 1, 65, 64
3, 12455, Note_on_c, 1, 63, 0
3, 12480, Note_on_c, 1, 65, 0
3, 12480, Note_on_c, 1, 58, 64
3, 12600, Note_on_c, 1, 58, 0
3, 12660, Note_on_c, 1, 63, 64
3, 12704, Note_on_c, 1, 63, 0
3, 12720, Note_on_c, 1, 58, 64
3, 12764, Note_on_c, 1, 58, 0
3, 12780, Note_on_c, 1, 63, 64
3, 12824, Note_on_c, 1, 63, 0
3, 12840, Note_on_c, 1, 54, 64
3, 12884, Note_on_c, 1, 54, 0
3, 12900, Note_on_c, 1, 66, 64
3, 12990, Note_on_c, 1, 66, 0
3, 12990, Note_on_c, 1, 68, 64
3, 13020, Note_on_c, 1, 68, 0
3, 13020, Note_on_c, 1, 66, 64
3, 13050, Note_on_c, 1, 66, 0
3, 13050, Note_on_c, 1, 64, 64
3, 13080, Note_on_c, 1, 64, 0
3, 13080, Note_on_c, 1, 63, 64
3, 13110, Note_on_c, 1, 63, 0
3, 13110, Note_on_c, 1, 61, 64
3, 13140, Note_on_c, 1, 61, 0
3, 13140, Note_on_c, 1, 60, 64
3, 13155, Note_on_c, 1, 61, 64
3, 13162, Note_on_c, 1, 60, 0
3, 13170, Note_on_c, 1, 63, 64
3, 13175, Note_on_c, 1, 61, 0
3, 13200, Note_on_c, 1, 63, 0
3, 13200, Note_on_c, 1, 64, 64
3, 13230, Note_on_c, 1, 64, 0
3, 13230, Note_on_c, 1, 66, 64
3, 13260, Note_on_c, 1, 66, 0
3, 13260, Note_on_c, 1, 64, 64
3, 13290, Note_on_c, 1, 64, 0
3, 13290, Note_on_c, 1, 63, 64
3, 13320, Note_on_c, 1, 63, 0
3, 13320, Note_on_c, 1, 61, 64
3, 13350, Note_on_c, 1, 61, 0
3, 13350, Note_on_c, 1, 60, 64
3, 13380, Note_on_c, 1, 60, 0
3, 13380, Note_on_c, 1, 58, 64
3, 13395, Note_on_c, 1, 60, 64
3, 13402, Note_on_c, 1, 58, 0
3, 13410, Note_on_c, 1, 61, 64
3, 13416, Note_on_c, 1, 60, 0
3, 13440, Note_on_c, 1, 61, 0
3, 13440, Note_on_c, 1, 60, 64
3, 13484, Note_on_c, 1, 60, 0
3, 13500, Note_on_c, 1, 63, 64
3, 13544, Note_on_c, 1, 63, 0
3, 13560, Note_on_c, 1, 61, 64
3, 13604, Note_on_c, 1, 61, 0
3, 13620, Note_on_c, 1, 64, 64
3, 13664, Note_on_c, 1, 64, 0
3, 13680, Note_on_c, 1, 58, 64
3, 13740, Note_on_c, 1, 58, 0
3, 13740, Note_on_c, 1, 61, 64
3, 13800, Note_on_c, 1, 64, 64
3, 13919, Note_on_c, 1, 61, 0
3, 13920, Note_on_c, 1, 64, 0
3, 13920, Note_on_c, 1, 63, 64
3, 13980, Note_on_c, 1, 63, 0
3, 14100, Note_on_c, 1, 77, 64
3, 14144, Note_on_c, 1, 77, 0
3, 14160, Note_on_c, 1, 74, 64
3, 14204, Note_on_c, 1, 74, 0
3, 14220, Note_on_c, 1, 77, 64
3, 14264, Note_on_c, 1, 77, 0
3, 14280, Note_on_c, 1, 70, 64
3, 14324, Note_on_c, 1, 70, 0
3, 14340, Note_on_c, 1, 75, 64
3, 14384, Note_on_c, 1, 75, 0
3, 14400, Note_on_c, 1, 72, 64
3, 14444, Note_on_c, 1, 72, 0
3, 14460, Note_on_c, 1, 75, 64
3, 14504, Note_on_c, 1, 75, 0
3, 14520, Note_on_c, 1, 68, 64
3, 14564, Note_on_c, 1, 68, 0
3, 14580, Note_on_c, 1, 73, 64
3, 14624, Note_on_c, 1, 73, 0
3, 14640, Note_on_c, 1, 70, 64
3, 14670, Note_on_c, 1, 70, 0
3, 14670, Note_on_c, 1, 73, 64
3, 14700, Note_on_c, 1, 73, 0
3, 14700, Note_on_c, 1, 66, 64
3, 14760, Note_on_c, 1, 66, 0
3, 14835, Note_on_c, 1, 65, 64
3, 14850, Note_on_c, 1, 63, 64
3, 14855, Note_on_c, 1, 65, 0
3, 14865, Note_on_c, 1, 61, 64
3, 14870, Note_on_c, 1, 63, 0
3, 14880, Note_on_c, 1, 60, 64
3, 14886, Note_on_c, 1, 61, 0
3, 14910, Note_on_c, 1, 60, 0
3, 14910, Note_on_c, 1, 63, 64
3, 14910, Note_on_c, 1, 63, 64
3, 14940, Note_on_c, 1, 63, 0
3, 14940, Note_on_c, 1, 56, 64
3, 14955, Note_on_c, 1, 54, 64
3, 14970, Note_on_c, 1, 53, 64
3, 14977, Note_on_c, 1, 54, 0
3, 14985, Note_on_c, 1, 51, 64
3, 14990, Note_on_c, 1, 53, 0
3, 15000, Note_on_c, 1, 53, 64
3, 15006, Note_on_c, 1, 51, 0
3, 15015, Note_on_c, 1, 51, 64
3, 15023, Note_on_c, 1, 53, 0
3, 15030, Note_on_c, 1, 49, 64
3, 15037, Note_on_c, 1, 51, 0
3, 15045, Note_on_c, 1, 48, 64
3, 15050, Note_on_c, 1, 49, 0
3, 15060, Note_on_c, 1, 48, 0
3, 15060, Note_on_c, 1, 63, 0
3, 15060, Note_on_c, 1, 61, 64
3, 15060, Note_on_c, 1, 49, 64
3, 15120, Note_on_c, 1, 49, 0
3, 15120, Note_on_c, 1, 56, 0
3, 15180, Note_on_c, 1, 55, 64
3, 15195, Note_on_c, 1, 61, 0
3, 15195, Note_on_c, 1, 61, 64
3, 15210, Note_on_c, 1, 60, 64
3, 15217, Note_on_c, 1, 61, 0
3, 15225, Note_on_c, 1, 58, 64
3, 15230, Note_on_c, 1, 60, 0
3, 15240, Note_on_c, 1, 55, 0
3, 15240, Note_on_c, 1, 60, 64
3, 15240, Note_on_c, 1, 56, 64
3, 15246, Note_on_c, 1, 58, 0
3, 15360, Note_on_c, 1, 56, 0
3, 15390, Note_on_c, 1, 60, 0
3, 15390, Note_on_c, 1, 56, 64
3, 15450, Note_on_c, 1, 56, 0
3, 15450, Note_on_c, 1, 55, 64
3, 15480, Note_on_c, 1, 55, 0
3, 15480, Note_on_c, 1, 56, 64
3, 15480, Note_on_c, 1, 44, 64
3, 15570, Note_on_c, 1, 56, 0
3, 15570, Note_on_c, 1, 54, 64
3, 15600, Note_on_c, 1, 44, 0
3, 15600, Note_on_c, 1, 37, 64
3, 15630, Note_on_c, 1, 54, 0
3, 15630, Note_on_c, 1, 54, 64
3, 15660, Note_on_c, 1, 54, 0
3, 15660, Note_on_c, 1, 53, 64
3, 15690, Note_on_c, 1, 53, 0
3, 15690, Note_on_c, 1, 51, 64
3, 15720, Note_on_c, 1, 51, 0
3, 15720, Note_on_c, 1, 53, 64
3, 15870, Note_on_c, 1, 53, 0
3, 15870, Note_on_c, 1, 56, 64
3, 15900, Note_on_c, 1, 56, 0
3, 15900, Note_on_c, 1, 54, 64
3, 15930, Note_on_c, 1, 54, 0
3, 15930, Note_on_c, 1, 53, 64
3, 15960, Note_on_c, 1, 53, 0
3, 15960, Note_on_c, 1, 54, 64
3, 16200, Note_on_c, 1, 54, 0
3, 16290, Note_on_c, 1, 56, 64
3, 16320, Note_on_c, 1, 56, 0
3, 16320, Note_on_c, 1, 58, 64
3, 16440, Note_on_c, 1, 58, 0
3, 16440, Note_on_c, 1, 60, 64
3, 16560, Note_on_c, 1, 60, 0
3, 16560, Note_on_c, 1, 61, 64
3, 16560, Note_on_c, 1, 56, 64
3, 16800, Note_on_c, 1, 56, 0
3, 16800, Note_on_c, 1, 61, 0
3, 16800, Note_on_c, 1, 37, 0
3, 16800, End_track
4, 0, Start_track
4, 0, MIDI_port, 0
4, 0, Title_t, "by Yo Tomita"
4, 0, Program_c, 2, 6
4, 60, Note_on_c, 2, 49, 64
4, 89, Note_on_c, 2, 49, 0
4, 120, Note_on_c, 2, 53, 64
4, 149, Note_on_c, 2, 53, 0
4, 180, Note_on_c, 2, 49, 64
4, 209, Note_on_c, 2, 49, 0
4, 240, Note_on_c, 2, 56, 64
4, 284, Note_on_c, 2, 56, 0
4, 360, Note_on_c, 2, 54, 64
4, 420, Note_on_c, 2, 54, 0
4, 480, Note_on_c, 2, 53, 64
4, 510, Note_on_c, 2, 53, 0
4, 510, Note_on_c, 2, 51, 64
4, 540, Note_on_c, 2, 51, 0
4, 540, Note_on_c, 2, 49, 64
4, 630, Note_on_c, 2, 49, 0
4, 630, Note_on_c, 2, 51, 64
4, 660, Note_on_c, 2, 51, 0
4, 660, Note_on_c, 2, 53, 64
4, 690, Note_on_c, 2, 53, 0
4, 690, Note_on_c, 2, 49, 64
4, 720, Note_on_c, 2, 49, 0
4, 720, Note_on_c, 2, 54, 64
4, 780, Note_on_c, 2, 54, 0
4, 840, Note_on_c, 2, 42, 64
4, 900, Note_on_c, 2, 42, 0
4, 1020, Note_on_c, 2, 49, 64
4, 1049, Note_on_c, 2, 49, 0
4, 1080, Note_on_c, 2, 46, 64
4, 1109, Note_on_c, 2, 46, 0
4, 1140, Note_on_c, 2, 49, 64
4, 1169, Note_on_c, 2, 49, 0
4, 1200, Note_on_c, 2, 42, 64
4, 1229, Note_on_c, 2, 42, 0
4, 1260, Note_on_c, 2, 46, 64
4, 1289, Note_on_c, 2, 46, 0
4, 1320, Note_on_c, 2, 39, 64
4, 1349, Note_on_c, 2, 39, 0
4, 1380, Note_on_c, 2, 44, 64
4, 1409, Note_on_c, 2, 44, 0
4, 1440, Note_on_c, 2, 37, 64
4, 1500, Note_on_c, 2, 37, 0
4, 1620, Note_on_c, 2, 61, 64
4, 1649, Note_on_c, 2, 61, 0
4, 1680, Note_on_c, 2, 60, 64
4, 1709, Note_on_c, 2, 60, 0
4, 1740, Note_on_c, 2, 63, 64
4, 1769, Note_on_c, 2, 63, 0
4, 1800, Note_on_c, 2, 56, 64
4, 1860, Note_on_c, 2, 56, 0
4, 1980, Note_on_c, 2, 49, 64
4, 2009, Note_on_c, 2, 49, 0
4, 2040, Note_on_c, 2, 53, 64
4, 2069, Note_on_c, 2, 53, 0
4, 2100, Note_on_c, 2, 49, 64
4, 2129, Note_on_c, 2, 49, 0
4, 2160, Note_on_c, 2, 54, 64
4, 2220, Note_on_c, 2, 54, 0
4, 2280, Note_on_c, 2, 53, 64
4, 2340, Note_on_c, 2, 53, 0
4, 2430, Note_on_c, 2, 51, 64
4, 2460, Note_on_c, 2, 51, 0
4, 2460, Note_on_c, 2, 48, 64
4, 2490, Note_on_c, 2, 48, 0
4, 2490, Note_on_c, 2, 51, 64
4, 2520, Note_on_c, 2, 51, 0
4, 2520, Note_on_c, 2, 45, 64
4, 2580, Note_on_c, 2, 45, 0
4, 2580, Note_on_c, 2, 46, 64
4, 2624, Note_on_c, 2, 46, 0
4, 2640, Note_on_c, 2, 39, 64
4, 2684, Note_on_c, 2, 39, 0
4, 2700, Note_on_c, 2, 41, 64
4, 2744, Note_on_c, 2, 41, 0
4, 2760, Note_on_c, 2, 37, 64
4, 2804, Note_on_c, 2, 37, 0
4, 2820, Note_on_c, 2, 39, 64
4, 2864, Note_on_c, 2, 39, 0
4, 2940, Note_on_c, 2, 44, 64
4, 2969, Note_on_c, 2, 44, 0
4, 3000, Note_on_c, 2, 48, 64
4, 3029, Note_on_c, 2, 48, 0
4, 3060, Note_on_c, 2, 44, 64
4, 3089, Note_on_c, 2, 44, 0
4, 3120, Note_on_c, 2, 49, 64
4, 3180, Note_on_c, 2, 49, 0
4, 3240, Note_on_c, 2, 48, 64
4, 3300, Note_on_c, 2, 48, 0
4, 3360, Note_on_c, 2, 46, 64
4, 3390, Note_on_c, 2, 46, 0
4, 3390, Note_on_c, 2, 48, 64
4, 3420, Note_on_c, 2, 48, 0
4, 3420, Note_on_c, 2, 49, 64
4, 3450, Note_on_c, 2, 49, 0
4, 3450, Note_on_c, 2, 51, 64
4, 3480, Note_on_c, 2, 51, 0
4, 3480, Note_on_c, 2, 53, 64
4, 3510, Note_on_c, 2, 53, 0
4, 3510, Note_on_c, 2, 54, 64
4, 3540, Note_on_c, 2, 54, 0
4, 3540, Note_on_c, 2, 56, 64
4, 3555, Note_on_c, 2, 54, 64
4, 3559, Note_on_c, 2, 56, 0
4, 3570, Note_on_c, 2, 53, 64
4, 3574, Note_on_c, 2, 54, 0
4, 3600, Note_on_c, 2, 53, 0
4, 3600, Note_on_c, 2, 54, 64
4, 3660, Note_on_c, 2, 54, 0
4, 3720, Note_on_c, 2, 50, 64
4, 3780, Note_on_c, 2, 50, 0
4, 3840, Note_on_c, 2, 51, 64
4, 3900, Note_on_c, 2, 51, 0
4, 4020, Note_on_c, 2, 58, 64
4, 4049, Note_on_c, 2, 58, 0
4, 4080, Note_on_c, 2, 54, 64
4, 4109, Note_on_c, 2, 54, 0
4, 4140, Note_on_c, 2, 58, 64
4, 4169, Note_on_c, 2, 58, 0
4, 4200, Note_on_c, 2, 51, 64
4, 4229, Note_on_c, 2, 51, 0
4, 4260, Note_on_c, 2, 55, 64
4, 4289, Note_on_c, 2, 55, 0
4, 4320, Note_on_c, 2, 56, 64
4, 4350, Note_on_c, 2, 56, 0
4, 4350, Note_on_c, 2, 44, 64
4, 4380, Note_on_c, 2, 44, 0
4, 4380, Note_on_c, 2, 46, 64
4, 4410, Note_on_c, 2, 46, 0
4, 4410, Note_on_c, 2, 48, 64
4, 4440, Note_on_c, 2, 48, 0
4, 4440, Note_on_c, 2, 49, 64
4, 4470, Note_on_c, 2, 49, 0
4, 4470, Note_on_c, 2, 51, 64
4, 4500, Note_on_c, 2, 51, 0
4, 4500, Note_on_c, 2, 53, 64
4, 4515, Note_on_c, 2, 51, 64
4, 4520, Note_on_c, 2, 53, 0
4, 4530, Note_on_c, 2, 49, 64
4, 4535, Note_on_c, 2, 51, 0
4, 4560, Note_on_c, 2, 49, 0
4, 4560, Note_on_c, 2, 54, 64
4, 4589, Note_on_c, 2, 54, 0
4, 4620, Note_on_c, 2, 51, 64
4, 4649, Note_on_c, 2, 51, 0
4, 4740, Note_on_c, 2, 56, 64
4, 4769, Note_on_c, 2, 56, 0
4, 4800, Note_on_c, 2, 53, 64
4, 4829, Note_on_c, 2, 53, 0
4, 4860, Note_on_c, 2, 56, 64
4, 4889, Note_on_c, 2, 56, 0
4, 4920, Note_on_c, 2, 49, 64
4, 4964, Note_on_c, 2, 49, 0
4, 5100, Note_on_c, 2, 49, 64
4, 5129, Note_on_c, 2, 49, 0
4, 5160, Note_on_c, 2, 53, 64
4, 5189, Note_on_c, 2, 53, 0
4, 5220, Note_on_c, 2, 49, 64
4, 5249, Note_on_c, 2, 49, 0
4, 5280, Note_on_c, 2, 54, 64
4, 5309, Note_on_c, 2, 54, 0
4, 5340, Note_on_c, 2, 58, 64
4, 5369, Note_on_c, 2, 58, 0
4, 5400, Note_on_c, 2, 51, 64
4, 5429, Note_on_c, 2, 51, 0
4, 5460, Note_on_c, 2, 54, 64
4, 5489, Note_on_c, 2, 54, 0
4, 5520, Note_on_c, 2, 48, 64
4, 5549, Note_on_c, 2, 48, 0
4, 5580, Note_on_c, 2, 56, 64
4, 5609, Note_on_c, 2, 56, 0
4, 5640, Note_on_c, 2, 49, 64
4, 5669, Note_on_c, 2, 49, 0
4, 5700, Note_on_c, 2, 53, 64
4, 5729, Note_on_c, 2, 53, 0
4, 5760, Note_on_c, 2, 46, 64
4, 5789, Note_on_c, 2, 46, 0
4, 5820, Note_on_c, 2, 54, 64
4, 5849, Note_on_c, 2, 54, 0
4, 5880, Note_on_c, 2, 48, 64
4, 5909, Note_on_c, 2, 48, 0
4, 5940, Note_on_c, 2, 51, 64
4, 5969, Note_on_c, 2, 51, 0
4, 6000, Note_on_c, 2, 45, 64
4, 6029, Note_on_c, 2, 45, 0
4, 6060, Note_on_c, 2, 41, 64
4, 6104, Note_on_c, 2, 41, 0
4, 6120, Note_on_c, 2, 46, 64
4, 6164, Note_on_c, 2, 46, 0
4, 6180, Note_on_c, 2, 44, 64
4, 6224, Note_on_c, 2, 44, 0
4, 6240, Note_on_c, 2, 42, 64
4, 6284, Note_on_c, 2, 42, 0
4, 6300, Note_on_c, 2, 41, 64
4, 6344, Note_on_c, 2, 41, 0
4, 6360, Note_on_c, 2, 44, 64
4, 6373, Note_on_c, 2, 42, 64
4, 6375, Note_on_c, 2, 42, 0
4, 6376, Note_on_c, 2, 44, 0
4, 6379, Note_on_c, 2, 44, 64
4, 6388, Note_on_c, 2, 42, 64
4, 6393, Note_on_c, 2, 44, 0
4, 6395, Note_on_c, 2, 44, 64
4, 6402, Note_on_c, 2, 42, 0
4, 6405, Note_on_c, 2, 42, 64
4, 6409, Note_on_c, 2, 44, 0
4, 6413, Note_on_c, 2, 44, 64
4, 6419, Note_on_c, 2, 42, 0
4, 6424, Note_on_c, 2, 42, 64
4, 6427, Note_on_c, 2, 44, 0
4, 6431, Note_on_c, 2, 44, 64
4, 6438, Note_on_c, 2, 42, 0
4, 6441, Note_on_c, 2, 42, 64
4, 6445, Note_on_c, 2, 44, 0
4, 6455, Note_on_c, 2, 42, 0
4, 6456, Note_on_c, 2, 41, 64
4, 6465, Note_on_c, 2, 42, 64
4, 6470, Note_on_c, 2, 41, 0
4, 6479, Note_on_c, 2, 42, 0
4, 6480, Note_on_c, 2, 41, 64
4, 6524, Note_on_c, 2, 41, 0
4, 6540, Note_on_c, 2, 53, 64
4, 6569, Note_on_c, 2, 53, 0
4, 6600, Note_on_c, 2, 57, 64
4, 6629, Note_on_c, 2, 57, 0
4, 6660, Note_on_c, 2, 53, 64
4, 6689, Note_on_c, 2, 53, 0
4, 6720, Note_on_c, 2, 58, 64
4, 6747, Note_on_c, 2, 58, 0
4, 6840, Note_on_c, 2, 56, 64
4, 6900, Note_on_c, 2, 56, 0
4, 6960, Note_on_c, 2, 55, 64
4, 6990, Note_on_c, 2, 55, 0
4, 6990, Note_on_c, 2, 53, 64
4, 7020, Note_on_c, 2, 53, 0
4, 7020, Note_on_c, 2, 51, 64
4, 7110, Note_on_c, 2, 51, 0
4, 7110, Note_on_c, 2, 53, 64
4, 7140, Note_on_c, 2, 53, 0
4, 7140, Note_on_c, 2, 55, 64
4, 7155, Note_on_c, 2, 53, 64
4, 7162, Note_on_c, 2, 55, 0
4, 7170, Note_on_c, 2, 51, 64
4, 7177, Note_on_c, 2, 53, 0
4, 7200, Note_on_c, 2, 51, 0
4, 7200, Note_on_c, 2, 56, 64
4, 7260, Note_on_c, 2, 56, 0
4, 7740, Note_on_c, 2, 49, 64
4, 7784, Note_on_c, 2, 49, 0
4, 7800, Note_on_c, 2, 53, 64
4, 7844, Note_on_c, 2, 53, 0
4, 7860, Note_on_c, 2, 49, 64
4, 7904, Note_on_c, 2, 49, 0
4, 7920, Note_on_c, 2, 56, 64
4, 8220, Note_on_c, 2, 56, 0
4, 8220, Note_on_c, 2, 56, 64
4, 8280, Note_on_c, 2, 56, 0
4, 8280, Note_on_c, 2, 54, 64
4, 8460, Note_on_c, 2, 54, 0
4, 8460, Note_on_c, 2, 54, 64
4, 8519, Note_on_c, 2, 54, 0
4, 8520, Note_on_c, 2, 53, 64
4, 8580, Note_on_c, 2, 53, 0
4, 8670, Note_on_c, 2, 58, 64
4, 8700, Note_on_c, 2, 58, 0
4, 8700, Note_on_c, 2, 54, 64
4, 8730, Note_on_c, 2, 54, 0
4, 8730, Note_on_c, 2, 58, 64
4, 8760, Note_on_c, 2, 58, 0
4, 8760, Note_on_c, 2, 51, 64
4, 8820, Note_on_c, 2, 51, 0
4, 8880, Note_on_c, 2, 49, 64
4, 8940, Note_on_c, 2, 49, 0
4, 9030, Note_on_c, 2, 49, 64
4, 9060, Note_on_c, 2, 49, 0
4, 9060, Note_on_c, 2, 53, 64
4, 9090, Note_on_c, 2, 53, 0
4, 9090, Note_on_c, 2, 49, 64
4, 9120, Note_on_c, 2, 49, 0
4, 9120, Note_on_c, 2, 54, 64
4, 9180, Note_on_c, 2, 54, 0
4, 9300, Note_on_c, 2, 51, 64
4, 9360, Note_on_c, 2, 51, 0
4, 9360, Note_on_c, 2, 48, 64
4, 9420, Note_on_c, 2, 48, 0
4, 9540, Note_on_c, 2, 49, 64
4, 9584, Note_on_c, 2, 49, 0
4, 9600, Note_on_c, 2, 42, 64
4, 9644, Note_on_c, 2, 42, 0
4, 9660, Note_on_c, 2, 54, 64
4, 9704, Note_on_c, 2, 54, 0
4, 9720, Note_on_c, 2, 53, 64
4, 9764, Note_on_c, 2, 53, 0
4, 9780, Note_on_c, 2, 46, 64
4, 9824, Note_on_c, 2, 46, 0
4, 9840, Note_on_c, 2, 51, 64
4, 9884, Note_on_c, 2, 51, 0
4, 9900, Note_on_c, 2, 44, 64
4, 9944, Note_on_c, 2, 44, 0
4, 9960, Note_on_c, 2, 49, 64
4, 10004, Note_on_c, 2, 49, 0
4, 10020, Note_on_c, 2, 37, 64
4, 10064, Note_on_c, 2, 37, 0
4, 10080, Note_on_c, 2, 42, 64
4, 10094, Note_on_c, 2, 42, 0
4, 10110, Note_on_c, 2, 49, 64
4, 10140, Note_on_c, 2, 49, 0
4, 10140, Note_on_c, 2, 46, 64
4, 10170, Note_on_c, 2, 46, 0
4, 10170, Note_on_c, 2, 49, 64
4, 10200, Note_on_c, 2, 49, 0
4, 10200, Note_on_c, 2, 54, 64
4, 10380, Note_on_c, 2, 54, 0
4, 10380, Note_on_c, 2, 54, 64
4, 10424, Note_on_c, 2, 54, 0
4, 10440, Note_on_c, 2, 53, 64
4, 10484, Note_on_c, 2, 53, 0
4, 10500, Note_on_c, 2, 56, 64
4, 10544, Note_on_c, 2, 56, 0
4, 10560, Note_on_c, 2, 49, 64
4, 10604, Note_on_c, 2, 49, 0
4, 10620, Note_on_c, 2, 59, 64
4, 10664, Note_on_c, 2, 59, 0
4, 10680, Note_on_c, 2, 58, 64
4, 10724, Note_on_c, 2, 58, 0
4, 10740, Note_on_c, 2, 61, 64
4, 10784, Note_on_c, 2, 61, 0
4, 10800, Note_on_c, 2, 54, 64
4, 10844, Note_on_c, 2, 54, 0
4, 10860, Note_on_c, 2, 53, 64
4, 10904, Note_on_c, 2, 53, 0
4, 10920, Note_on_c, 2, 51, 64
4, 10964, Note_on_c, 2, 51, 0
4, 10980, Note_on_c, 2, 54, 64
4, 11024, Note_on_c, 2, 54, 0
4, 11040, Note_on_c, 2, 48, 64
4, 11084, Note_on_c, 2, 48, 0
4, 11100, Note_on_c, 2, 56, 64
4, 11144, Note_on_c, 2, 56, 0
4, 11160, Note_on_c, 2, 60, 64
4, 11204, Note_on_c, 2, 60, 0
4, 11220, Note_on_c, 2, 56, 64
4, 11264, Note_on_c, 2, 56, 0
4, 11280, Note_on_c, 2, 61, 64
4, 11324, Note_on_c, 2, 61, 0
4, 11400, Note_on_c, 2, 58, 64
4, 11460, Note_on_c, 2, 58, 0
4, 11550, Note_on_c, 2, 56, 64
4, 11580, Note_on_c, 2, 56, 0
4, 11580, Note_on_c, 2, 58, 64
4, 11610, Note_on_c, 2, 58, 0
4, 11610, Note_on_c, 2, 60, 64
4, 11640, Note_on_c, 2, 60, 0
4, 11640, Note_on_c, 2, 61, 64
4, 11670, Note_on_c, 2, 61, 0
4, 11670, Note_on_c, 2, 63, 64
4, 11700, Note_on_c, 2, 63, 0
4, 11700, Note_on_c, 2, 65, 64
4, 11730, Note_on_c, 2, 65, 0
4, 11730, Note_on_c, 2, 61, 64
4, 11760, Note_on_c, 2, 61, 0
4, 11760, Note_on_c, 2, 58, 64
4, 11804, Note_on_c, 2, 58, 0
4, 11820, Note_on_c, 2, 58, 64
4, 11864, Note_on_c, 2, 58, 0
4, 11880, Note_on_c, 2, 61, 64
4, 11924, Note_on_c, 2, 61, 0
4, 11940, Note_on_c, 2, 58, 64
4, 11984, Note_on_c, 2, 58, 0
4, 12000, Note_on_c, 2, 63, 64
4, 12044, Note_on_c, 2, 63, 0
4, 12060, Note_on_c, 2, 51, 64
4, 12104, Note_on_c, 2, 51, 0
4, 12120, Note_on_c, 2, 48, 64
4, 12164, Note_on_c, 2, 48, 0
4, 12180, Note_on_c, 2, 51, 64
4, 12224, Note_on_c, 2, 51, 0
4, 12240, Note_on_c, 2, 53, 64
4, 12284, Note_on_c, 2, 53, 0
4, 12300, Note_on_c, 2, 41, 64
4, 12344, Note_on_c, 2, 41, 0
4, 12360, Note_on_c, 2, 37, 64
4, 12404, Note_on_c, 2, 37, 0
4, 12420, Note_on_c, 2, 41, 64
4, 12464, Note_on_c, 2, 41, 0
4, 12480, Note_on_c, 2, 42, 64
4, 12600, Note_on_c, 2, 42, 0
4, 12600, Note_on_c, 2, 51, 64
4, 12720, Note_on_c, 2, 51, 0
4, 12720, Note_on_c, 2, 54, 64
4, 12840, Note_on_c, 2, 54, 0
4, 12840, Note_on_c, 2, 51, 64
4, 12960, Note_on_c, 2, 51, 0
4, 12960, Note_on_c, 2, 56, 64
4, 13950, Note_on_c, 2, 56, 0
4, 13950, Note_on_c, 2, 58, 64
4, 13980, Note_on_c, 2, 58, 0
4, 13980, Note_on_c, 2, 56, 64
4, 14010, Note_on_c, 2, 56, 0
4, 14010, Note_on_c, 2, 54, 64
4, 14040, Note_on_c, 2, 54, 0
4, 14040, Note_on_c, 2, 53, 64
4, 14070, Note_on_c, 2, 53, 0
4, 14070, Note_on_c, 2, 51, 64
4, 14100, Note_on_c, 2, 51, 0
4, 14100, Note_on_c, 2, 50, 64
4, 14115, Note_on_c, 2, 51, 64
4, 14121, Note_on_c, 2, 50, 0
4, 14130, Note_on_c, 2, 53, 64
4, 14135, Note_on_c, 2, 51, 0
4, 14160, Note_on_c, 2, 53, 0
4, 14160, Note_on_c, 2, 46, 64
4, 14190, Note_on_c, 2, 46, 0
4, 14190, Note_on_c, 2, 58, 64
4, 14220, Note_on_c, 2, 58, 0
4, 14220, Note_on_c, 2, 60, 64
4, 14250, Note_on_c, 2, 60, 0
4, 14250, Note_on_c, 2, 62, 64
4, 14280, Note_on_c, 2, 62, 0
4, 14280, Note_on_c, 2, 63, 64
4, 14310, Note_on_c, 2, 63, 0
4, 14310, Note_on_c, 2, 65, 64
4, 14340, Note_on_c, 2, 65, 0
4, 14340, Note_on_c, 2, 66, 64
4, 14355, Note_on_c, 2, 65, 64
4, 14360, Note_on_c, 2, 66, 0
4, 14370, Note_on_c, 2, 63, 64
4, 14374, Note_on_c, 2, 65, 0
4, 14400, Note_on_c, 2, 63, 0
4, 14400, Note_on_c, 2, 68, 64
4, 14430, Note_on_c, 2, 68, 0
4, 14430, Note_on_c, 2, 66, 64
4, 14460, Note_on_c, 2, 66, 0
4, 14460, Note_on_c, 2, 65, 64
4, 14490, Note_on_c, 2, 65, 0
4, 14490, Note_on_c, 2, 63, 64
4, 14520, Note_on_c, 2, 63, 0
4, 14520, Note_on_c, 2, 61, 64
4, 14550, Note_on_c, 2, 61, 0
4, 14550, Note_on_c, 2, 59, 64
4, 14580, Note_on_c, 2, 59, 0
4, 14580, Note_on_c, 2, 58, 64
4, 14595, Note_on_c, 2, 59, 64
4, 14601, Note_on_c, 2, 58, 0
4, 14610, Note_on_c, 2, 61, 64
4, 14615, Note_on_c, 2, 59, 0
4, 14640, Note_on_c, 2, 61, 0
4, 14640, Note_on_c, 2, 54, 64
4, 14700, Note_on_c, 2, 54, 0
4, 14700, Note_on_c, 2, 39, 64
4, 14760, Note_on_c, 2, 39, 0
4, 14760, Note_on_c, 2, 42, 64
4, 14820, Note_on_c, 2, 42, 0
4, 14820, Note_on_c, 2, 39, 64
4, 14880, Note_on_c, 2, 39, 0
4, 14880, Note_on_c, 2, 44, 64
4, 15075, Note_on_c, 2, 44, 0
4, 15075, Note_on_c, 2, 46, 64
4, 15090, Note_on_c, 2, 46, 0
4, 15090, Note_on_c, 2, 44, 64
4, 15105, Note_on_c, 2, 44, 0
4, 15105, Note_on_c, 2, 43, 64
4, 15120, Note_on_c, 2, 43, 0
4, 15120, Note_on_c, 2, 44, 64
4, 15255, Note_on_c, 2, 44, 0
4, 15255, Note_on_c, 2, 46, 64
4, 15270, Note_on_c, 2, 46, 0
4, 15270, Note_on_c, 2, 48, 64
4, 15285, Note_on_c, 2, 49, 64
4, 15290, Note_on_c, 2, 48, 0
4, 15300, Note_on_c, 2, 51, 64
4, 15308, Note_on_c, 2, 49, 0
4, 15315, Note_on_c, 2, 53, 64
4, 15323, Note_on_c, 2, 51, 0
4, 15330, Note_on_c, 2, 54, 64
4, 15338, Note_on_c, 2, 53, 0
4, 15345, Note_on_c, 2, 51, 64
4, 15352, Note_on_c, 2, 54, 0
4, 15360, Note_on_c, 2, 53, 64
4, 15366, Note_on_c, 2, 51, 0
4, 15420, Note_on_c, 2, 53, 0
4, 15420, Note_on_c, 2, 52, 64
4, 15480, Note_on_c, 2, 52, 0
4, 15480, Note_on_c, 2, 51, 64
4, 15600, Note_on_c, 2, 51, 0
4, 15600, Note_on_c, 2, 49, 64
4, 16110, Note_on_c, 2, 49, 0
4, 16110, Note_on_c, 2, 49, 64
4, 16140, Note_on_c, 2, 49, 0
4, 16140, Note_on_c, 2, 48, 64
4, 16170, Note_on_c, 2, 48, 0
4, 16170, Note_on_c, 2, 46, 64
4, 16200, Note_on_c, 2, 46, 0
4, 16200, Note_on_c, 2, 48, 64
4, 16320, Note_on_c, 2, 48, 0
4, 16320, Note_on_c, 2, 49, 64
4, 16440, Note_on_c, 2, 49, 0
4, 16440, Note_on_c, 2, 51, 64
4, 16560, Note_on_c, 2, 51, 0
4, 16560, Note_on_c, 2, 49, 64
4, 16800, Note_on_c, 2, 49, 0
4, 16800, End_track
0, 0, End_of_file
