0, 0, Header, 1, 4, 120
1, 0, Start_track
1, 0, Time_signature, 12, 4, 6, 8
1, 0, Key_signature, 4, "major"
1, 0, Tempo, 625000
1, 0, Marker_t, "(c) Yo Tomita, 1997"
1, 24932, Tempo, 625000
1, 24934, Tempo, 621762
1, 24944, Tempo, 625000
1, 24954, Tempo, 628272
1, 24963, Tempo, 631579
1, 24973, Tempo, 634921
1, 24982, Tempo, 638298
1, 24992, Tempo, 641711
1, 25002, Tempo, 645161
1, 25011, Tempo, 648649
1, 25021, Tempo, 652174
1, 25030, Tempo, 655738
1, 25040, Tempo, 659341
1, 25050, Tempo, 662983
1, 25059, Tempo, 666667
1, 25069, Tempo, 670391
1, 25078, Tempo, 674157
1, 25088, Tempo, 677966
1, 25098, Tempo, 681818
1, 25107, Tempo, 685714
1, 25117, Tempo, 689655
1, 25126, Tempo, 693642
1, 25136, Tempo, 697674
1, 25143, Tempo, 693642
1, 25145, Tempo, 697674
1, 25147, Tempo, 701754
1, 25148, Tempo, 705882
1, 25150, Tempo, 710059
1, 25152, Tempo, 714286
1, 25153, Tempo, 718563
1, 25155, Tempo, 722892
1, 25156, Tempo, 727273
1, 25158, Tempo, 731707
1, 25160, Tempo, 736196
1, 25161, Tempo, 740741
1, 25163, Tempo, 745342
1, 25165, Tempo, 750000
1, 25166, Tempo, 754717
1, 25168, Tempo, 759494
1, 25169, Tempo, 764331
1, 25171, Tempo, 769231
1, 25173, Tempo, 774194
1, 25174, Tempo, 779221
1, 25176, Tempo, 784314
1, 25178, Tempo, 789474
1, 25179, Tempo, 794702
1, 25181, Tempo, 800000
1, 25182, Tempo, 805369
1, 25183, Tempo, 816327
1, 25184, Tempo, 827586
1, 25185, Tempo, 845070
1, 25186, Tempo, 857143
1, 25187, Tempo, 875912
1, 25188, Tempo, 888889
1, 25189, Tempo, 902256
1, 25190, Tempo, 923077
1, 25191, Tempo, 937500
1, 25192, Tempo, 960000
1, 25193, Tempo, 975610
1, 25194, Tempo, 991736
1, 25195, Tempo, 1016949
1, 25196, Tempo, 1034483
1, 25197, Tempo, 1061947
1, 25198, Tempo, 1081081
1, 25199, Tempo, 1100917
1, 25200, Tempo, 1132075
1, 25201, Tempo, 1153846
1, 25202, Tempo, 1188119
1, 25202, End_track
2, 0, Start_track
2, 0, MIDI_port, 0
2, 0, Title_t, "BWV 873/2"
2, 0, Program_c, 0, 6
2, 540, Note_on_c, 0, 68, 70
2, 570, Note_on_c, 0, 68, 0
2, 570, Note_on_c, 0, 67, 70
2, 600, Note_on_c, 0, 67, 0
2, 600, Note_on_c, 0, 68, 70
2, 630, Note_on_c, 0, 68, 0
2, 630, Note_on_c, 0, 70, 70
2, 660, Note_on_c, 0, 70, 0
2, 660, Note_on_c, 0, 68, 70
2, 690, Note_on_c, 0, 68, 0
2, 690, Note_on_c, 0, 70, 70
2, 720, Note_on_c, 0, 70, 0
2, 720, Note_on_c, 0, 63, 70
2, 750, Note_on_c, 0, 63, 0
2, 750, Note_on_c, 0, 65, 70
2, 780, Note_on_c, 0, 65, 0
2, 780, Note_on_c, 0, 67, 70
2, 810, Note_on_c, 0, 67, 0
2, 810, Note_on_c, 0, 68, 70
2, 840, Note_on_c, 0, 68, 0
2, 840, Note_on_c, 0, 70, 70
2, 870, Note_on_c, 0, 70, 0
2, 870, Note_on_c, 0, 71, 70
2, 900, Note_on_c, 0, 71, 0
2, 900, Note_on_c, 0, 73, 70
2, 930, Note_on_c, 0, 73, 0
2, 930, Note_on_c, 0, 71, 70
2, 960, Note_on_c, 0, 71, 0
2, 960, Note_on_c, 0, 73, 70
2, 990, Note_on_c, 0, 73, 0
2, 990, Note_on_c, 0, 70, 70
2, 1020, Note_on_c, 0, 70, 0
2, 1020, Note_on_c, 0, 75, 70
2, 1050, Note_on_c, 0, 75, 0
2, 1050, Note_on_c, 0, 73, 70
2, 1080, Note_on_c, 0, 73, 0
2, 1080, Note_on_c, 0, 71, 70
2, 1110, Note_on_c, 0, 71, 0
2, 1110, Note_on_c, 0, 70, 70
2, 1140, Note_on_c, 0, 70, 0
2, 1140, Note_on_c, 0, 71, 70
2, 1170, Note_on_c, 0, 71, 0
2, 1170, Note_on_c, 0, 68, 70
2, 1200, Note_on_c, 0, 68, 0
2, 1200, Note_on_c, 0, 73, 70
2, 1230, Note_on_c, 0, 73, 0
2, 1230, Note_on_c, 0, 71, 70
2, 1260, Note_on_c, 0, 71, 0
2, 1260, Note_on_c, 0, 69, 70
2, 1290, Note_on_c, 0, 69, 0
2, 1290, Note_on_c, 0, 68, 70
2, 1320, Note_on_c, 0, 68, 0
2, 1320, Note_on_c, 0, 69, 70
2, 1350, Note_on_c, 0, 69, 0
2, 1350, Note_on_c, 0, 66, 70
2, 1380, Note_on_c, 0, 66, 0
2, 1380, Note_on_c, 0, 71, 70
2, 1410, Note_on_c, 0, 71, 0
2, 1410, Note_on_c, 0, 69, 70
2, 1440, Note_on_c, 0, 69, 0
2, 1440, Note_on_c, 0, 68, 70
2, 1530, Note_on_c, 0, 68, 0
2, 1530, Note_on_c, 0, 66, 70
2, 1710, Note_on_c, 0, 66, 0
2, 1710, Note_on_c, 0, 64, 70
2, 1800, Note_on_c, 0, 63, 70
2, 1809, Note_on_c, 0, 64, 0
2, 1879, Note_on_c, 0, 63, 0
2, 1890, Note_on_c, 0, 75, 70
2, 1969, Note_on_c, 0, 75, 0
2, 1980, Note_on_c, 0, 68, 70
2, 2070, Note_on_c, 0, 69, 70
2, 2079, Note_on_c, 0, 68, 0
2, 2250, Note_on_c, 0, 69, 0
2, 2250, Note_on_c, 0, 68, 70
2, 2430, Note_on_c, 0, 68, 0
2, 2430, Note_on_c, 0, 66, 70
2, 2550, Note_on_c, 0, 66, 0
2, 2550, Note_on_c, 0, 68, 70
2, 2580, Note_on_c, 0, 68, 0
2, 2580, Note_on_c, 0, 69, 70
2, 2610, Note_on_c, 0, 69, 0
2, 2610, Note_on_c, 0, 68, 70
2, 2640, Note_on_c, 0, 68, 0
2, 2640, Note_on_c, 0, 69, 70
2, 2670, Note_on_c, 0, 69, 0
2, 2670, Note_on_c, 0, 66, 70
2, 2700, Note_on_c, 0, 66, 0
2, 2700, Note_on_c, 0, 64, 70
2, 2880, Note_on_c, 0, 64, 0
2, 2880, Note_on_c, 0, 63, 70
2, 2970, Note_on_c, 0, 63, 0
2, 3060, Note_on_c, 0, 68, 70
2, 3090, Note_on_c, 0, 68, 0
2, 3090, Note_on_c, 0, 66, 70
2, 3120, Note_on_c, 0, 66, 0
2, 3120, Note_on_c, 0, 68, 70
2, 3150, Note_on_c, 0, 68, 0
2, 3150, Note_on_c, 0, 64, 70
2, 3180, Note_on_c, 0, 64, 0
2, 3180, Note_on_c, 0, 69, 70
2, 3210, Note_on_c, 0, 69, 0
2, 3210, Note_on_c, 0, 68, 70
2, 3240, Note_on_c, 0, 68, 0
2, 3240, Note_on_c, 0, 66, 70
2, 3270, Note_on_c, 0, 66, 0
2, 3270, Note_on_c, 0, 64, 70
2, 3300, Note_on_c, 0, 64, 0
2, 3300, Note_on_c, 0, 66, 70
2, 3330, Note_on_c, 0, 66, 0
2, 3330, Note_on_c, 0, 63, 70
2, 3360, Note_on_c, 0, 63, 0
2, 3360, Note_on_c, 0, 68, 70
2, 3390, Note_on_c, 0, 68, 0
2, 3390, Note_on_c, 0, 66, 70
2, 3420, Note_on_c, 0, 66, 0
2, 3420, Note_on_c, 0, 65, 70
2, 3450, Note_on_c, 0, 65, 0
2, 3450, Note_on_c, 0, 63, 70
2, 3480, Note_on_c, 0, 63, 0
2, 3480, Note_on_c, 0, 61, 70
2, 3510, Note_on_c, 0, 61, 0
2, 3510, Note_on_c, 0, 66, 70
2, 3690, Note_on_c, 0, 66, 0
2, 3690, Note_on_c, 0, 64, 70
2, 3870, Note_on_c, 0, 64, 0
2, 3870, Note_on_c, 0, 63, 70
2, 3900, Note_on_c, 0, 63, 0
2, 3900, Note_on_c, 0, 61, 70
2, 3930, Note_on_c, 0, 61, 0
2, 3930, Note_on_c, 0, 59, 70
2, 3960, Note_on_c, 0, 59, 0
2, 3960, Note_on_c, 0, 61, 70
2, 4140, Note_on_c, 0, 61, 0
2, 4140, Note_on_c, 0, 59, 70
2, 4320, Note_on_c, 0, 59, 0
2, 4320, Note_on_c, 0, 57, 70
2, 4350, Note_on_c, 0, 57, 0
2, 4350, Note_on_c, 0, 56, 70
2, 4380, Note_on_c, 0, 56, 0
2, 4380, Note_on_c, 0, 57, 70
2, 4410, Note_on_c, 0, 57, 0
2, 4410, Note_on_c, 0, 54, 70
2, 4440, Note_on_c, 0, 54, 0
2, 4440, Note_on_c, 0, 59, 70
2, 4470, Note_on_c, 0, 59, 0
2, 4470, Note_on_c, 0, 57, 70
2, 4500, Note_on_c, 0, 57, 0
2, 4500, Note_on_c, 0, 56, 70
2, 4530, Note_on_c, 0, 56, 0
2, 4530, Note_on_c, 0, 59, 70
2, 4560, Note_on_c, 0, 59, 0
2, 4560, Note_on_c, 0, 64, 70
2, 4620, Note_on_c, 0, 64, 0
2, 4620, Note_on_c, 0, 63, 70
2, 4650, Note_on_c, 0, 63, 0
2, 4650, Note_on_c, 0, 61, 70
2, 4680, Note_on_c, 0, 61, 0
2, 4680, Note_on_c, 0, 59, 70
2, 4710, Note_on_c, 0, 59, 0
2, 4710, Note_on_c, 0, 64, 70
2, 4740, Note_on_c, 0, 64, 0
2, 4740, Note_on_c, 0, 68, 70
2, 4800, Note_on_c, 0, 68, 0
2, 4800, Note_on_c, 0, 66, 70
2, 4830, Note_on_c, 0, 66, 0
2, 4830, Note_on_c, 0, 64, 70
2, 4860, Note_on_c, 0, 64, 0
2, 4860, Note_on_c, 0, 63, 70
2, 4950, Note_on_c, 0, 63, 0
2, 4950, Note_on_c, 0, 65, 70
2, 5040, Note_on_c, 0, 65, 0
2, 5040, Note_on_c, 0, 66, 70
2, 5130, Note_on_c, 0, 66, 0
2, 5220, Note_on_c, 0, 70, 70
2, 5310, Note_on_c, 0, 70, 0
2, 5310, Note_on_c, 0, 72, 70
2, 5400, Note_on_c, 0, 72, 0
2, 5400, Note_on_c, 0, 73, 70
2, 5430, Note_on_c, 0, 73, 0
2, 5430, Note_on_c, 0, 72, 70
2, 5460, Note_on_c, 0, 72, 0
2, 5460, Note_on_c, 0, 73, 70
2, 5490, Note_on_c, 0, 73, 0
2, 5490, Note_on_c, 0, 75, 70
2, 5520, Note_on_c, 0, 75, 0
2, 5520, Note_on_c, 0, 73, 70
2, 5550, Note_on_c, 0, 73, 0
2, 5550, Note_on_c, 0, 75, 70
2, 5580, Note_on_c, 0, 75, 0
2, 5580, Note_on_c, 0, 68, 70
2, 5610, Note_on_c, 0, 68, 0
2, 5610, Note_on_c, 0, 70, 70
2, 5640, Note_on_c, 0, 70, 0
2, 5640, Note_on_c, 0, 72, 70
2, 5670, Note_on_c, 0, 72, 0
2, 5670, Note_on_c, 0, 73, 70
2, 5700, Note_on_c, 0, 73, 0
2, 5700, Note_on_c, 0, 75, 70
2, 5730, Note_on_c, 0, 75, 0
2, 5730, Note_on_c, 0, 76, 70
2, 5760, Note_on_c, 0, 76, 0
2, 5760, Note_on_c, 0, 78, 70
2, 5790, Note_on_c, 0, 78, 0
2, 5790, Note_on_c, 0, 76, 70
2, 5820, Note_on_c, 0, 76, 0
2, 5820, Note_on_c, 0, 78, 70
2, 5850, Note_on_c, 0, 78, 0
2, 5850, Note_on_c, 0, 75, 70
2, 5880, Note_on_c, 0, 75, 0
2, 5880, Note_on_c, 0, 80, 70
2, 5910, Note_on_c, 0, 80, 0
2, 5910, Note_on_c, 0, 78, 70
2, 5940, Note_on_c, 0, 78, 0
2, 5940, Note_on_c, 0, 76, 70
2, 5970, Note_on_c, 0, 76, 0
2, 5970, Note_on_c, 0, 75, 70
2, 6000, Note_on_c, 0, 75, 0
2, 6000, Note_on_c, 0, 76, 70
2, 6030, Note_on_c, 0, 76, 0
2, 6030, Note_on_c, 0, 73, 70
2, 6060, Note_on_c, 0, 73, 0
2, 6060, Note_on_c, 0, 71, 70
2, 6090, Note_on_c, 0, 71, 0
2, 6090, Note_on_c, 0, 73, 70
2, 6120, Note_on_c, 0, 73, 0
2, 6120, Note_on_c, 0, 82, 70
2, 6210, Note_on_c, 0, 82, 0
2, 6210, Note_on_c, 0, 75, 70
2, 6300, Note_on_c, 0, 75, 0
2, 6300, Note_on_c, 0, 77, 70
2, 6390, Note_on_c, 0, 77, 0
2, 6390, Note_on_c, 0, 79, 70
2, 6480, Note_on_c, 0, 79, 0
2, 6480, Note_on_c, 0, 80, 70
2, 6570, Note_on_c, 0, 80, 0
2, 6570, Note_on_c, 0, 76, 70
2, 6750, Note_on_c, 0, 76, 0
2, 6750, Note_on_c, 0, 75, 70
2, 6840, Note_on_c, 0, 75, 0
2, 6840, Note_on_c, 0, 76, 70
2, 7020, Note_on_c, 0, 76, 0
2, 7020, Note_on_c, 0, 75, 70
2, 7110, Note_on_c, 0, 75, 0
2, 7110, Note_on_c, 0, 74, 70
2, 7200, Note_on_c, 0, 74, 0
2, 7200, Note_on_c, 0, 73, 70
2, 7290, Note_on_c, 0, 73, 0
2, 7290, Note_on_c, 0, 75, 70
2, 7320, Note_on_c, 0, 75, 0
2, 7320, Note_on_c, 0, 76, 70
2, 7350, Note_on_c, 0, 76, 0
2, 7350, Note_on_c, 0, 78, 70
2, 7380, Note_on_c, 0, 78, 0
2, 7380, Note_on_c, 0, 71, 70
2, 7439, Note_on_c, 0, 71, 0
2, 7470, Note_on_c, 0, 73, 70
2, 7500, Note_on_c, 0, 73, 0
2, 7500, Note_on_c, 0, 75, 70
2, 7530, Note_on_c, 0, 75, 0
2, 7530, Note_on_c, 0, 76, 70
2, 7560, Note_on_c, 0, 76, 0
2, 7560, Note_on_c, 0, 69, 70
2, 7619, Note_on_c, 0, 69, 0
2, 7650, Note_on_c, 0, 71, 70
2, 7680, Note_on_c, 0, 71, 0
2, 7680, Note_on_c, 0, 73, 70
2, 7710, Note_on_c, 0, 73, 0
2, 7710, Note_on_c, 0, 75, 70
2, 7740, Note_on_c, 0, 75, 0
2, 7740, Note_on_c, 0, 68, 70
2, 7839, Note_on_c, 0, 68, 0
2, 7860, Note_on_c, 0, 71, 70
2, 7890, Note_on_c, 0, 71, 0
2, 7890, Note_on_c, 0, 70, 70
2, 7920, Note_on_c, 0, 70, 0
2, 7920, Note_on_c, 0, 71, 70
2, 8019, Note_on_c, 0, 71, 0
2, 8040, Note_on_c, 0, 75, 70
2, 8070, Note_on_c, 0, 75, 0
2, 8070, Note_on_c, 0, 73, 70
2, 8100, Note_on_c, 0, 73, 0
2, 8100, Note_on_c, 0, 75, 70
2, 8199, Note_on_c, 0, 75, 0
2, 8220, Note_on_c, 0, 78, 70
2, 8250, Note_on_c, 0, 78, 0
2, 8250, Note_on_c, 0, 76, 70
2, 8280, Note_on_c, 0, 76, 0
2, 8280, Note_on_c, 0, 78, 70
2, 8310, Note_on_c, 0, 78, 0
2, 8310, Note_on_c, 0, 80, 70
2, 8340, Note_on_c, 0, 80, 0
2, 8340, Note_on_c, 0, 78, 70
2, 8370, Note_on_c, 0, 78, 0
2, 8370, Note_on_c, 0, 76, 70
2, 8400, Note_on_c, 0, 76, 0
2, 8400, Note_on_c, 0, 78, 70
2, 8430, Note_on_c, 0, 78, 0
2, 8430, Note_on_c, 0, 76, 70
2, 8460, Note_on_c, 0, 76, 0
2, 8460, Note_on_c, 0, 83, 70
2, 8490, Note_on_c, 0, 83, 0
2, 8490, Note_on_c, 0, 82, 70
2, 8520, Note_on_c, 0, 82, 0
2, 8520, Note_on_c, 0, 80, 70
2, 8550, Note_on_c, 0, 80, 0
2, 8550, Note_on_c, 0, 78, 70
2, 8580, Note_on_c, 0, 78, 0
2, 8580, Note_on_c, 0, 76, 70
2, 8610, Note_on_c, 0, 76, 0
2, 8610, Note_on_c, 0, 75, 70
2, 8640, Note_on_c, 0, 75, 0
2, 8640, Note_on_c, 0, 73, 70
2, 8670, Note_on_c, 0, 73, 0
2, 8670, Note_on_c, 0, 75, 70
2, 8700, Note_on_c, 0, 75, 0
2, 8700, Note_on_c, 0, 73, 70
2, 8730, Note_on_c, 0, 73, 0
2, 8730, Note_on_c, 0, 76, 70
2, 8760, Note_on_c, 0, 76, 0
2, 8760, Note_on_c, 0, 71, 70
2, 8790, Note_on_c, 0, 71, 0
2, 8790, Note_on_c, 0, 73, 70
2, 8820, Note_on_c, 0, 73, 0
2, 8820, Note_on_c, 0, 75, 70
2, 8850, Note_on_c, 0, 75, 0
2, 8850, Note_on_c, 0, 76, 70
2, 8880, Note_on_c, 0, 76, 0
2, 8880, Note_on_c, 0, 75, 70
2, 8910, Note_on_c, 0, 75, 0
2, 8910, Note_on_c, 0, 78, 70
2, 8940, Note_on_c, 0, 78, 0
2, 8940, Note_on_c, 0, 73, 70
2, 8970, Note_on_c, 0, 73, 0
2, 8970, Note_on_c, 0, 75, 70
2, 9000, Note_on_c, 0, 75, 0
2, 9000, Note_on_c, 0, 76, 70
2, 9090, Note_on_c, 0, 76, 0
2, 9090, Note_on_c, 0, 77, 70
2, 9180, Note_on_c, 0, 77, 0
2, 9180, Note_on_c, 0, 69, 70
2, 9240, Note_on_c, 0, 69, 0
2, 9330, Note_on_c, 0, 78, 70
2, 9360, Note_on_c, 0, 78, 0
2, 9360, Note_on_c, 0, 77, 70
2, 9420, Note_on_c, 0, 77, 0
2, 9420, Note_on_c, 0, 76, 70
2, 9450, Note_on_c, 0, 76, 0
2, 9450, Note_on_c, 0, 75, 70
2, 9510, Note_on_c, 0, 75, 0
2, 9510, Note_on_c, 0, 74, 70
2, 9540, Note_on_c, 0, 74, 0
2, 9540, Note_on_c, 0, 73, 70
2, 9600, Note_on_c, 0, 73, 0
2, 9600, Note_on_c, 0, 78, 70
2, 9630, Note_on_c, 0, 78, 0
2, 9630, Note_on_c, 0, 77, 70
2, 9690, Note_on_c, 0, 77, 0
2, 9690, Note_on_c, 0, 76, 70
2, 9720, Note_on_c, 0, 76, 0
2, 9720, Note_on_c, 0, 75, 70
2, 9780, Note_on_c, 0, 75, 0
2, 9780, Note_on_c, 0, 77, 70
2, 9810, Note_on_c, 0, 77, 0
2, 9810, Note_on_c, 0, 78, 70
2, 9990, Note_on_c, 0, 78, 0
2, 9990, Note_on_c, 0, 76, 70
2, 10170, Note_on_c, 0, 76, 0
2, 10170, Note_on_c, 0, 75, 70
2, 10320, Note_on_c, 0, 75, 0
2, 10320, Note_on_c, 0, 73, 70
2, 10350, Note_on_c, 0, 73, 0
2, 10350, Note_on_c, 0, 72, 70
2, 10410, Note_on_c, 0, 72, 0
2, 10410, Note_on_c, 0, 71, 70
2, 10440, Note_on_c, 0, 71, 0
2, 10440, Note_on_c, 0, 70, 70
2, 10500, Note_on_c, 0, 70, 0
2, 10500, Note_on_c, 0, 69, 70
2, 10530, Note_on_c, 0, 69, 0
2, 10530, Note_on_c, 0, 78, 70
2, 10560, Note_on_c, 0, 78, 0
2, 10560, Note_on_c, 0, 76, 70
2, 10590, Note_on_c, 0, 76, 0
2, 10590, Note_on_c, 0, 78, 70
2, 10620, Note_on_c, 0, 78, 0
2, 10620, Note_on_c, 0, 72, 70
2, 10650, Note_on_c, 0, 72, 0
2, 10650, Note_on_c, 0, 73, 70
2, 10680, Note_on_c, 0, 73, 0
2, 10680, Note_on_c, 0, 75, 70
2, 10710, Note_on_c, 0, 75, 0
2, 10710, Note_on_c, 0, 68, 70
2, 10800, Note_on_c, 0, 68, 0
2, 10800, Note_on_c, 0, 70, 70
2, 10890, Note_on_c, 0, 70, 0
2, 10890, Note_on_c, 0, 72, 70
2, 10980, Note_on_c, 0, 72, 0
2, 10980, Note_on_c, 0, 73, 70
2, 11070, Note_on_c, 0, 73, 0
2, 11070, Note_on_c, 0, 69, 70
2, 11250, Note_on_c, 0, 69, 0
2, 11250, Note_on_c, 0, 68, 70
2, 11430, Note_on_c, 0, 68, 0
2, 11430, Note_on_c, 0, 66, 70
2, 11520, Note_on_c, 0, 66, 0
2, 11520, Note_on_c, 0, 68, 70
2, 11550, Note_on_c, 0, 68, 0
2, 11550, Note_on_c, 0, 63, 70
2, 11580, Note_on_c, 0, 63, 0
2, 11580, Note_on_c, 0, 68, 70
2, 11640, Note_on_c, 0, 68, 0
2, 11640, Note_on_c, 0, 66, 70
2, 11670, Note_on_c, 0, 66, 0
2, 11670, Note_on_c, 0, 64, 70
2, 11700, Note_on_c, 0, 64, 0
2, 11700, Note_on_c, 0, 63, 70
2, 11730, Note_on_c, 0, 63, 0
2, 11730, Note_on_c, 0, 66, 70
2, 11760, Note_on_c, 0, 66, 0
2, 11760, Note_on_c, 0, 69, 70
2, 11820, Note_on_c, 0, 69, 0
2, 11820, Note_on_c, 0, 68, 70
2, 11850, Note_on_c, 0, 68, 0
2, 11850, Note_on_c, 0, 66, 70
2, 11880, Note_on_c, 0, 66, 0
2, 11880, Note_on_c, 0, 64, 70
2, 11970, Note_on_c, 0, 64, 0
2, 11970, Note_on_c, 0, 66, 70
2, 12060, Note_on_c, 0, 66, 0
2, 12060, Note_on_c, 0, 68, 70
2, 12120, Note_on_c, 0, 68, 0
2, 12240, Note_on_c, 0, 78, 70
2, 12420, Note_on_c, 0, 78, 0
2, 12420, Note_on_c, 0, 77, 70
2, 12510, Note_on_c, 0, 77, 0
2, 12510, Note_on_c, 0, 76, 70
2, 12600, Note_on_c, 0, 76, 0
2, 12600, Note_on_c, 0, 75, 70
2, 12659, Note_on_c, 0, 75, 0
2, 12690, Note_on_c, 0, 80, 70
2, 12749, Note_on_c, 0, 80, 0
2, 12780, Note_on_c, 0, 73, 70
2, 12839, Note_on_c, 0, 73, 0
2, 12870, Note_on_c, 0, 78, 70
2, 13050, Note_on_c, 0, 78, 0
2, 13050, Note_on_c, 0, 76, 70
2, 13140, Note_on_c, 0, 76, 0
2, 13140, Note_on_c, 0, 75, 70
2, 13230, Note_on_c, 0, 75, 0
2, 13230, Note_on_c, 0, 76, 70
2, 13410, Note_on_c, 0, 76, 0
2, 13410, Note_on_c, 0, 75, 70
2, 13530, Note_on_c, 0, 75, 0
2, 13530, Note_on_c, 0, 73, 70
2, 13560, Note_on_c, 0, 73, 0
2, 13560, Note_on_c, 0, 71, 70
2, 13590, Note_on_c, 0, 71, 0
2, 13590, Note_on_c, 0, 73, 70
2, 13620, Note_on_c, 0, 73, 0
2, 13620, Note_on_c, 0, 75, 70
2, 13650, Note_on_c, 0, 75, 0
2, 13650, Note_on_c, 0, 76, 70
2, 13710, Note_on_c, 0, 76, 0
2, 13710, Note_on_c, 0, 75, 70
2, 13740, Note_on_c, 0, 75, 0
2, 13740, Note_on_c, 0, 73, 70
2, 13770, Note_on_c, 0, 73, 0
2, 13770, Note_on_c, 0, 71, 70
2, 13800, Note_on_c, 0, 71, 0
2, 13800, Note_on_c, 0, 73, 70
2, 13830, Note_on_c, 0, 73, 0
2, 13830, Note_on_c, 0, 71, 70
2, 13860, Note_on_c, 0, 71, 0
2, 13860, Note_on_c, 0, 70, 70
2, 13950, Note_on_c, 0, 70, 0
2, 14040, Note_on_c, 0, 75, 70
2, 14070, Note_on_c, 0, 75, 0
2, 14070, Note_on_c, 0, 73, 70
2, 14100, Note_on_c, 0, 73, 0
2, 14100, Note_on_c, 0, 75, 70
2, 14130, Note_on_c, 0, 75, 0
2, 14130, Note_on_c, 0, 71, 70
2, 14160, Note_on_c, 0, 71, 0
2, 14160, Note_on_c, 0, 76, 70
2, 14190, Note_on_c, 0, 76, 0
2, 14190, Note_on_c, 0, 75, 70
2, 14220, Note_on_c, 0, 75, 0
2, 14220, Note_on_c, 0, 73, 70
2, 14250, Note_on_c, 0, 73, 0
2, 14250, Note_on_c, 0, 71, 70
2, 14280, Note_on_c, 0, 71, 0
2, 14280, Note_on_c, 0, 73, 70
2, 14310, Note_on_c, 0, 73, 0
2, 14310, Note_on_c, 0, 70, 70
2, 14340, Note_on_c, 0, 70, 0
2, 14340, Note_on_c, 0, 75, 70
2, 14370, Note_on_c, 0, 75, 0
2, 14370, Note_on_c, 0, 73, 70
2, 14400, Note_on_c, 0, 73, 0
2, 14400, Note_on_c, 0, 72, 70
2, 14430, Note_on_c, 0, 72, 0
2, 14430, Note_on_c, 0, 70, 70
2, 14460, Note_on_c, 0, 70, 0
2, 14460, Note_on_c, 0, 68, 70
2, 14490, Note_on_c, 0, 68, 0
2, 14490, Note_on_c, 0, 73, 70
2, 14670, Note_on_c, 0, 73, 0
2, 14670, Note_on_c, 0, 71, 70
2, 14850, Note_on_c, 0, 71, 0
2, 14850, Note_on_c, 0, 69, 70
2, 14880, Note_on_c, 0, 69, 0
2, 14880, Note_on_c, 0, 68, 70
2, 14910, Note_on_c, 0, 68, 0
2, 14910, Note_on_c, 0, 66, 70
2, 14940, Note_on_c, 0, 66, 0
2, 14940, Note_on_c, 0, 68, 70
2, 15120, Note_on_c, 0, 68, 0
2, 15120, Note_on_c, 0, 66, 70
2, 15300, Note_on_c, 0, 66, 0
2, 15300, Note_on_c, 0, 64, 70
2, 15330, Note_on_c, 0, 64, 0
2, 15330, Note_on_c, 0, 63, 70
2, 15360, Note_on_c, 0, 63, 0
2, 15360, Note_on_c, 0, 64, 70
2, 15390, Note_on_c, 0, 64, 0
2, 15390, Note_on_c, 0, 61, 70
2, 15420, Note_on_c, 0, 61, 0
2, 15420, Note_on_c, 0, 66, 70
2, 15450, Note_on_c, 0, 66, 0
2, 15450, Note_on_c, 0, 64, 70
2, 15480, Note_on_c, 0, 64, 0
2, 15480, Note_on_c, 0, 63, 70
2, 15510, Note_on_c, 0, 63, 0
2, 15510, Note_on_c, 0, 66, 70
2, 15540, Note_on_c, 0, 66, 0
2, 15540, Note_on_c, 0, 71, 70
2, 15600, Note_on_c, 0, 71, 0
2, 15600, Note_on_c, 0, 69, 70
2, 15630, Note_on_c, 0, 69, 0
2, 15630, Note_on_c, 0, 68, 70
2, 15660, Note_on_c, 0, 68, 0
2, 15660, Note_on_c, 0, 66, 70
2, 15690, Note_on_c, 0, 66, 0
2, 15690, Note_on_c, 0, 77, 70
2, 15720, Note_on_c, 0, 77, 0
2, 15720, Note_on_c, 0, 78, 70
2, 15750, Note_on_c, 0, 78, 0
2, 15750, Note_on_c, 0, 80, 70
2, 15780, Note_on_c, 0, 80, 0
2, 15780, Note_on_c, 0, 73, 70
2, 15810, Note_on_c, 0, 73, 0
2, 15810, Note_on_c, 0, 71, 70
2, 15840, Note_on_c, 0, 71, 0
2, 15840, Note_on_c, 0, 69, 70
2, 15930, Note_on_c, 0, 69, 0
2, 15990, Note_on_c, 0, 78, 70
2, 16020, Note_on_c, 0, 78, 0
2, 16020, Note_on_c, 0, 76, 70
2, 16110, Note_on_c, 0, 76, 0
2, 16110, Note_on_c, 0, 75, 70
2, 16230, Note_on_c, 0, 75, 0
2, 16230, Note_on_c, 0, 73, 70
2, 16260, Note_on_c, 0, 73, 0
2, 16260, Note_on_c, 0, 75, 70
2, 16290, Note_on_c, 0, 75, 0
2, 16290, Note_on_c, 0, 76, 70
2, 16320, Note_on_c, 0, 76, 0
2, 16320, Note_on_c, 0, 69, 70
2, 16350, Note_on_c, 0, 69, 0
2, 16350, Note_on_c, 0, 68, 70
2, 16380, Note_on_c, 0, 68, 0
2, 16380, Note_on_c, 0, 66, 70
2, 16410, Note_on_c, 0, 66, 0
2, 16410, Note_on_c, 0, 75, 70
2, 16440, Note_on_c, 0, 75, 0
2, 16440, Note_on_c, 0, 76, 70
2, 16470, Note_on_c, 0, 76, 0
2, 16470, Note_on_c, 0, 78, 70
2, 16500, Note_on_c, 0, 78, 0
2, 16500, Note_on_c, 0, 71, 70
2, 16530, Note_on_c, 0, 71, 0
2, 16530, Note_on_c, 0, 69, 70
2, 16560, Note_on_c, 0, 69, 0
2, 16560, Note_on_c, 0, 68, 70
2, 16590, Note_on_c, 0, 68, 0
2, 16590, Note_on_c, 0, 80, 70
2, 16620, Note_on_c, 0, 80, 0
2, 16620, Note_on_c, 0, 81, 70
2, 16650, Note_on_c, 0, 81, 0
2, 16650, Note_on_c, 0, 83, 70
2, 16680, Note_on_c, 0, 83, 0
2, 16680, Note_on_c, 0, 76, 70
2, 16710, Note_on_c, 0, 76, 0
2, 16710, Note_on_c, 0, 74, 70
2, 16740, Note_on_c, 0, 74, 0
2, 16740, Note_on_c, 0, 73, 70
2, 16950, Note_on_c, 0, 73, 0
2, 16950, Note_on_c, 0, 72, 70
2, 16980, Note_on_c, 0, 72, 0
2, 16980, Note_on_c, 0, 73, 70
2, 17010, Note_on_c, 0, 73, 0
2, 17010, Note_on_c, 0, 75, 70
2, 17040, Note_on_c, 0, 75, 0
2, 17040, Note_on_c, 0, 73, 70
2, 17070, Note_on_c, 0, 73, 0
2, 17070, Note_on_c, 0, 75, 70
2, 17100, Note_on_c, 0, 75, 0
2, 17100, Note_on_c, 0, 68, 70
2, 17130, Note_on_c, 0, 68, 0
2, 17130, Note_on_c, 0, 70, 70
2, 17160, Note_on_c, 0, 70, 0
2, 17160, Note_on_c, 0, 72, 70
2, 17190, Note_on_c, 0, 72, 0
2, 17190, Note_on_c, 0, 73, 70
2, 17220, Note_on_c, 0, 73, 0
2, 17220, Note_on_c, 0, 75, 70
2, 17250, Note_on_c, 0, 75, 0
2, 17250, Note_on_c, 0, 76, 70
2, 17280, Note_on_c, 0, 76, 0
2, 17280, Note_on_c, 0, 78, 70
2, 17310, Note_on_c, 0, 78, 0
2, 17310, Note_on_c, 0, 76, 70
2, 17340, Note_on_c, 0, 76, 0
2, 17340, Note_on_c, 0, 78, 70
2, 17370, Note_on_c, 0, 78, 0
2, 17370, Note_on_c, 0, 75, 70
2, 17400, Note_on_c, 0, 75, 0
2, 17400, Note_on_c, 0, 80, 70
2, 17430, Note_on_c, 0, 80, 0
2, 17430, Note_on_c, 0, 78, 70
2, 17460, Note_on_c, 0, 78, 0
2, 17460, Note_on_c, 0, 76, 70
2, 17550, Note_on_c, 0, 76, 0
2, 17550, Note_on_c, 0, 75, 70
2, 17640, Note_on_c, 0, 75, 0
2, 17640, Note_on_c, 0, 73, 70
2, 17760, Note_on_c, 0, 73, 0
2, 17760, Note_on_c, 0, 73, 70
2, 17790, Note_on_c, 0, 73, 0
2, 17790, Note_on_c, 0, 76, 70
2, 17820, Note_on_c, 0, 76, 0
2, 17820, Note_on_c, 0, 75, 70
2, 17910, Note_on_c, 0, 75, 0
2, 17910, Note_on_c, 0, 73, 70
2, 18000, Note_on_c, 0, 73, 0
2, 18000, Note_on_c, 0, 71, 70
2, 18120, Note_on_c, 0, 71, 0
2, 18120, Note_on_c, 0, 71, 70
2, 18150, Note_on_c, 0, 71, 0
2, 18150, Note_on_c, 0, 74, 70
2, 18180, Note_on_c, 0, 74, 0
2, 18180, Note_on_c, 0, 73, 70
2, 18210, Note_on_c, 0, 73, 0
2, 18210, Note_on_c, 0, 71, 70
2, 18240, Note_on_c, 0, 71, 0
2, 18240, Note_on_c, 0, 73, 70
2, 18270, Note_on_c, 0, 73, 0
2, 18270, Note_on_c, 0, 66, 70
2, 18300, Note_on_c, 0, 66, 0
2, 18300, Note_on_c, 0, 71, 70
2, 18330, Note_on_c, 0, 71, 0
2, 18330, Note_on_c, 0, 69, 70
2, 18360, Note_on_c, 0, 69, 0
2, 18360, Note_on_c, 0, 68, 70
2, 18390, Note_on_c, 0, 68, 0
2, 18390, Note_on_c, 0, 66, 70
2, 18420, Note_on_c, 0, 66, 0
2, 18420, Note_on_c, 0, 68, 70
2, 18450, Note_on_c, 0, 68, 0
2, 18450, Note_on_c, 0, 64, 70
2, 18480, Note_on_c, 0, 64, 0
2, 18480, Note_on_c, 0, 69, 70
2, 18510, Note_on_c, 0, 69, 0
2, 18510, Note_on_c, 0, 68, 70
2, 18540, Note_on_c, 0, 68, 0
2, 18540, Note_on_c, 0, 66, 70
2, 18570, Note_on_c, 0, 66, 0
2, 18570, Note_on_c, 0, 64, 70
2, 18600, Note_on_c, 0, 64, 0
2, 18600, Note_on_c, 0, 66, 70
2, 18630, Note_on_c, 0, 66, 0
2, 18630, Note_on_c, 0, 68, 70
2, 18660, Note_on_c, 0, 68, 0
2, 18660, Note_on_c, 0, 66, 70
2, 18690, Note_on_c, 0, 66, 0
2, 18690, Note_on_c, 0, 68, 70
2, 18720, Note_on_c, 0, 68, 0
2, 18720, Note_on_c, 0, 69, 70
2, 18990, Note_on_c, 0, 69, 0
2, 18990, Note_on_c, 0, 68, 70
2, 19080, Note_on_c, 0, 68, 0
2, 19080, Note_on_c, 0, 69, 70
2, 19110, Note_on_c, 0, 69, 0
2, 19110, Note_on_c, 0, 73, 70
2, 19140, Note_on_c, 0, 73, 0
2, 19140, Note_on_c, 0, 71, 70
2, 19170, Note_on_c, 0, 71, 0
2, 19170, Note_on_c, 0, 73, 70
2, 19200, Note_on_c, 0, 73, 0
2, 19200, Note_on_c, 0, 71, 70
2, 19230, Note_on_c, 0, 71, 0
2, 19230, Note_on_c, 0, 69, 70
2, 19260, Note_on_c, 0, 69, 0
2, 19260, Note_on_c, 0, 71, 70
2, 19290, Note_on_c, 0, 71, 0
2, 19290, Note_on_c, 0, 65, 70
2, 19320, Note_on_c, 0, 65, 0
2, 19320, Note_on_c, 0, 66, 70
2, 19350, Note_on_c, 0, 66, 0
2, 19350, Note_on_c, 0, 65, 70
2, 19410, Note_on_c, 0, 65, 0
2, 19440, Note_on_c, 0, 73, 70
2, 19620, Note_on_c, 0, 73, 0
2, 19620, Note_on_c, 0, 72, 70
2, 19710, Note_on_c, 0, 72, 0
2, 19710, Note_on_c, 0, 71, 70
2, 19800, Note_on_c, 0, 71, 0
2, 19800, Note_on_c, 0, 70, 70
2, 19859, Note_on_c, 0, 70, 0
2, 19890, Note_on_c, 0, 75, 70
2, 19949, Note_on_c, 0, 75, 0
2, 19980, Note_on_c, 0, 68, 70
2, 20039, Note_on_c, 0, 68, 0
2, 20070, Note_on_c, 0, 73, 70
2, 20250, Note_on_c, 0, 73, 0
2, 20250, Note_on_c, 0, 72, 70
2, 20340, Note_on_c, 0, 72, 0
2, 20340, Note_on_c, 0, 73, 70
2, 20400, Note_on_c, 0, 73, 0
2, 20430, Note_on_c, 0, 69, 70
2, 20460, Note_on_c, 0, 69, 0
2, 20460, Note_on_c, 0, 68, 70
2, 20490, Note_on_c, 0, 68, 0
2, 20490, Note_on_c, 0, 69, 70
2, 20520, Note_on_c, 0, 69, 0
2, 20520, Note_on_c, 0, 66, 70
2, 20550, Note_on_c, 0, 66, 0
2, 20550, Note_on_c, 0, 71, 70
2, 20580, Note_on_c, 0, 71, 0
2, 20580, Note_on_c, 0, 69, 70
2, 20610, Note_on_c, 0, 69, 0
2, 20610, Note_on_c, 0, 68, 70
2, 20640, Note_on_c, 0, 68, 0
2, 20640, Note_on_c, 0, 66, 70
2, 20670, Note_on_c, 0, 66, 0
2, 20670, Note_on_c, 0, 68, 70
2, 20700, Note_on_c, 0, 68, 0
2, 20700, Note_on_c, 0, 64, 70
2, 20730, Note_on_c, 0, 64, 0
2, 20730, Note_on_c, 0, 69, 70
2, 20760, Note_on_c, 0, 69, 0
2, 20760, Note_on_c, 0, 68, 70
2, 20790, Note_on_c, 0, 68, 0
2, 20790, Note_on_c, 0, 66, 70
2, 20910, Note_on_c, 0, 66, 0
2, 20910, Note_on_c, 0, 64, 70
2, 20940, Note_on_c, 0, 64, 0
2, 20940, Note_on_c, 0, 63, 70
2, 20970, Note_on_c, 0, 63, 0
2, 20970, Note_on_c, 0, 64, 70
2, 21000, Note_on_c, 0, 64, 0
2, 21000, Note_on_c, 0, 68, 70
2, 21030, Note_on_c, 0, 68, 0
2, 21030, Note_on_c, 0, 73, 70
2, 21090, Note_on_c, 0, 73, 0
2, 21090, Note_on_c, 0, 72, 70
2, 21120, Note_on_c, 0, 72, 0
2, 21120, Note_on_c, 0, 70, 70
2, 21150, Note_on_c, 0, 70, 0
2, 21150, Note_on_c, 0, 72, 70
2, 21180, Note_on_c, 0, 72, 0
2, 21180, Note_on_c, 0, 75, 70
2, 21210, Note_on_c, 0, 75, 0
2, 21210, Note_on_c, 0, 80, 70
2, 21270, Note_on_c, 0, 80, 0
2, 21270, Note_on_c, 0, 78, 70
2, 21300, Note_on_c, 0, 78, 0
2, 21300, Note_on_c, 0, 76, 70
2, 21330, Note_on_c, 0, 76, 0
2, 21330, Note_on_c, 0, 75, 70
2, 21360, Note_on_c, 0, 75, 0
2, 21360, Note_on_c, 0, 76, 70
2, 21390, Note_on_c, 0, 76, 0
2, 21390, Note_on_c, 0, 73, 70
2, 21420, Note_on_c, 0, 73, 0
2, 21420, Note_on_c, 0, 72, 70
2, 21450, Note_on_c, 0, 72, 0
2, 21450, Note_on_c, 0, 73, 70
2, 21480, Note_on_c, 0, 73, 0
2, 21480, Note_on_c, 0, 75, 70
2, 21510, Note_on_c, 0, 75, 0
2, 21510, Note_on_c, 0, 68, 70
2, 21540, Note_on_c, 0, 68, 0
2, 21540, Note_on_c, 0, 80, 70
2, 21570, Note_on_c, 0, 80, 0
2, 21570, Note_on_c, 0, 78, 70
2, 21600, Note_on_c, 0, 78, 0
2, 21600, Note_on_c, 0, 76, 70
2, 21630, Note_on_c, 0, 76, 0
2, 21630, Note_on_c, 0, 75, 70
2, 21660, Note_on_c, 0, 75, 0
2, 21660, Note_on_c, 0, 76, 70
2, 21690, Note_on_c, 0, 76, 0
2, 21690, Note_on_c, 0, 68, 70
2, 21710, Note_on_c, 0, 67, 70
2, 21719, Note_on_c, 0, 68, 0
2, 21720, Note_on_c, 0, 68, 70
2, 21729, Note_on_c, 0, 67, 0
2, 21730, Note_on_c, 0, 67, 70
2, 21739, Note_on_c, 0, 68, 0
2, 21740, Note_on_c, 0, 68, 70
2, 21749, Note_on_c, 0, 67, 0
2, 21750, Note_on_c, 0, 67, 70
2, 21759, Note_on_c, 0, 68, 0
2, 21779, Note_on_c, 0, 67, 0
2, 21780, Note_on_c, 0, 68, 70
2, 22050, Note_on_c, 0, 68, 0
2, 22050, Note_on_c, 0, 66, 70
2, 22170, Note_on_c, 0, 66, 0
2, 22170, Note_on_c, 0, 64, 70
2, 22200, Note_on_c, 0, 64, 0
2, 22200, Note_on_c, 0, 66, 70
2, 22230, Note_on_c, 0, 66, 0
2, 22230, Note_on_c, 0, 63, 70
2, 22260, Note_on_c, 0, 63, 0
2, 22260, Note_on_c, 0, 68, 70
2, 22290, Note_on_c, 0, 68, 0
2, 22290, Note_on_c, 0, 66, 70
2, 22320, Note_on_c, 0, 66, 0
2, 22320, Note_on_c, 0, 65, 70
2, 22410, Note_on_c, 0, 65, 0
2, 22410, Note_on_c, 0, 64, 70
2, 22530, Note_on_c, 0, 64, 0
2, 22530, Note_on_c, 0, 63, 70
2, 22560, Note_on_c, 0, 63, 0
2, 22560, Note_on_c, 0, 64, 70
2, 22590, Note_on_c, 0, 64, 0
2, 22590, Note_on_c, 0, 61, 70
2, 22620, Note_on_c, 0, 61, 0
2, 22620, Note_on_c, 0, 66, 70
2, 22650, Note_on_c, 0, 66, 0
2, 22650, Note_on_c, 0, 64, 70
2, 22680, Note_on_c, 0, 64, 0
2, 22680, Note_on_c, 0, 63, 70
2, 22710, Note_on_c, 0, 63, 0
2, 22710, Note_on_c, 0, 61, 70
2, 22740, Note_on_c, 0, 61, 0
2, 22740, Note_on_c, 0, 59, 70
2, 22770, Note_on_c, 0, 59, 0
2, 22770, Note_on_c, 0, 64, 70
2, 22890, Note_on_c, 0, 64, 0
2, 22890, Note_on_c, 0, 63, 70
2, 22920, Note_on_c, 0, 63, 0
2, 22920, Note_on_c, 0, 61, 70
2, 22950, Note_on_c, 0, 61, 0
2, 22950, Note_on_c, 0, 63, 70
2, 22980, Note_on_c, 0, 63, 0
2, 22980, Note_on_c, 0, 65, 70
2, 23010, Note_on_c, 0, 65, 0
2, 23010, Note_on_c, 0, 66, 70
2, 23040, Note_on_c, 0, 66, 0
2, 23040, Note_on_c, 0, 68, 70
2, 23250, Note_on_c, 0, 68, 0
2, 23250, Note_on_c, 0, 66, 70
2, 23280, Note_on_c, 0, 66, 0
2, 23280, Note_on_c, 0, 65, 70
2, 23310, Note_on_c, 0, 65, 0
2, 23310, Note_on_c, 0, 66, 70
2, 23340, Note_on_c, 0, 66, 0
2, 23340, Note_on_c, 0, 69, 70
2, 23370, Note_on_c, 0, 69, 0
2, 23370, Note_on_c, 0, 73, 70
2, 23400, Note_on_c, 0, 73, 0
2, 23400, Note_on_c, 0, 78, 70
2, 23580, Note_on_c, 0, 78, 0
2, 23580, Note_on_c, 0, 77, 70
2, 23670, Note_on_c, 0, 77, 0
2, 23670, Note_on_c, 0, 76, 70
2, 23760, Note_on_c, 0, 76, 0
2, 23760, Note_on_c, 0, 75, 70
2, 23850, Note_on_c, 0, 75, 0
2, 23850, Note_on_c, 0, 80, 70
2, 23940, Note_on_c, 0, 80, 0
2, 23940, Note_on_c, 0, 73, 70
2, 24150, Note_on_c, 0, 73, 0
2, 24150, Note_on_c, 0, 72, 70
2, 24180, Note_on_c, 0, 72, 0
2, 24180, Note_on_c, 0, 70, 70
2, 24210, Note_on_c, 0, 70, 0
2, 24210, Note_on_c, 0, 72, 70
2, 24240, Note_on_c, 0, 72, 0
2, 24240, Note_on_c, 0, 70, 70
2, 24270, Note_on_c, 0, 70, 0
2, 24270, Note_on_c, 0, 68, 70
2, 24300, Note_on_c, 0, 68, 0
2, 24300, Note_on_c, 0, 80, 70
2, 24390, Note_on_c, 0, 80, 0
2, 24390, Note_on_c, 0, 79, 70
2, 24480, Note_on_c, 0, 79, 0
2, 24480, Note_on_c, 0, 78, 70
2, 24570, Note_on_c, 0, 78, 0
2, 24570, Note_on_c, 0, 77, 70
2, 24660, Note_on_c, 0, 77, 0
2, 24660, Note_on_c, 0, 76, 70
2, 24750, Note_on_c, 0, 76, 0
2, 24750, Note_on_c, 0, 75, 70
2, 24810, Note_on_c, 0, 75, 0
2, 24810, Note_on_c, 0, 73, 70
2, 24840, Note_on_c, 0, 73, 0
2, 24840, Note_on_c, 0, 72, 70
2, 24900, Note_on_c, 0, 72, 0
2, 24900, Note_on_c, 0, 68, 70
2, 24930, Note_on_c, 0, 68, 0
2, 24930, Note_on_c, 0, 73, 70
2, 25110, Note_on_c, 0, 73, 0
2, 25110, Note_on_c, 0, 72, 70
2, 25200, Note_on_c, 0, 72, 0
2, 25200, Note_on_c, 0, 73, 70
2, 25290, Note_on_c, 0, 73, 0
2, 25290, End_track
3, 0, Start_track
3, 0, MIDI_port, 0
3, 0, Title_t, "Sequenced "
3, 0, Program_c, 1, 6
3, 1440, Note_on_c, 1, 61, 70
3, 1470, Note_on_c, 1, 61, 0
3, 1470, Note_on_c, 1, 60, 70
3, 1500, Note_on_c, 1, 60, 0
3, 1500, Note_on_c, 1, 61, 70
3, 1530, Note_on_c, 1, 61, 0
3, 1530, Note_on_c, 1, 63, 70
3, 1560, Note_on_c, 1, 63, 0
3, 1560, Note_on_c, 1, 61, 70
3, 1590, Note_on_c, 1, 61, 0
3, 1590, Note_on_c, 1, 63, 70
3, 1620, Note_on_c, 1, 63, 0
3, 1620, Note_on_c, 1, 56, 70
3, 1650, Note_on_c, 1, 56, 0
3, 1650, Note_on_c, 1, 58, 70
3, 1680, Note_on_c, 1, 58, 0
3, 1680, Note_on_c, 1, 60, 70
3, 1710, Note_on_c, 1, 60, 0
3, 1710, Note_on_c, 1, 61, 70
3, 1740, Note_on_c, 1, 61, 0
3, 1740, Note_on_c, 1, 63, 70
3, 1770, Note_on_c, 1, 63, 0
3, 1770, Note_on_c, 1, 64, 70
3, 1800, Note_on_c, 1, 64, 0
3, 1800, Note_on_c, 1, 66, 70
3, 1830, Note_on_c, 1, 66, 0
3, 1830, Note_on_c, 1, 64, 70
3, 1860, Note_on_c, 1, 64, 0
3, 1860, Note_on_c, 1, 66, 70
3, 1890, Note_on_c, 1, 66, 0
3, 1890, Note_on_c, 1, 63, 70
3, 1920, Note_on_c, 1, 63, 0
3, 1920, Note_on_c, 1, 68, 70
3, 1950, Note_on_c, 1, 68, 0
3, 1950, Note_on_c, 1, 66, 70
3, 1980, Note_on_c, 1, 66, 0
3, 1980, Note_on_c, 1, 64, 70
3, 2010, Note_on_c, 1, 64, 0
3, 2010, Note_on_c, 1, 63, 70
3, 2040, Note_on_c, 1, 63, 0
3, 2040, Note_on_c, 1, 64, 70
3, 2070, Note_on_c, 1, 64, 0
3, 2070, Note_on_c, 1, 61, 70
3, 2100, Note_on_c, 1, 61, 0
3, 2100, Note_on_c, 1, 66, 70
3, 2130, Note_on_c, 1, 66, 0
3, 2130, Note_on_c, 1, 64, 70
3, 2160, Note_on_c, 1, 64, 0
3, 2160, Note_on_c, 1, 63, 70
3, 2190, Note_on_c, 1, 63, 0
3, 2190, Note_on_c, 1, 61, 70
3, 2220, Note_on_c, 1, 61, 0
3, 2220, Note_on_c, 1, 63, 70
3, 2250, Note_on_c, 1, 63, 0
3, 2250, Note_on_c, 1, 59, 70
3, 2280, Note_on_c, 1, 59, 0
3, 2280, Note_on_c, 1, 64, 70
3, 2310, Note_on_c, 1, 64, 0
3, 2310, Note_on_c, 1, 63, 70
3, 2340, Note_on_c, 1, 63, 0
3, 2340, Note_on_c, 1, 61, 70
3, 2370, Note_on_c, 1, 61, 0
3, 2370, Note_on_c, 1, 63, 70
3, 2400, Note_on_c, 1, 63, 0
3, 2400, Note_on_c, 1, 64, 70
3, 2430, Note_on_c, 1, 64, 0
3, 2430, Note_on_c, 1, 63, 70
3, 2460, Note_on_c, 1, 63, 0
3, 2460, Note_on_c, 1, 64, 70
3, 2490, Note_on_c, 1, 64, 0
3, 2490, Note_on_c, 1, 61, 70
3, 2520, Note_on_c, 1, 61, 0
3, 2520, Note_on_c, 1, 60, 70
3, 2790, Note_on_c, 1, 60, 0
3, 2790, Note_on_c, 1, 61, 70
3, 2970, Note_on_c, 1, 61, 0
3, 2970, Note_on_c, 1, 60, 70
3, 3060, Note_on_c, 1, 60, 0
3, 3060, Note_on_c, 1, 61, 70
3, 3330, Note_on_c, 1, 61, 0
3, 3330, Note_on_c, 1, 59, 70
3, 3510, Note_on_c, 1, 59, 0
3, 3510, Note_on_c, 1, 57, 70
3, 3540, Note_on_c, 1, 57, 0
3, 3540, Note_on_c, 1, 56, 70
3, 3570, Note_on_c, 1, 56, 0
3, 3570, Note_on_c, 1, 54, 70
3, 3600, Note_on_c, 1, 54, 0
3, 3600, Note_on_c, 1, 56, 70
3, 3780, Note_on_c, 1, 56, 0
3, 3780, Note_on_c, 1, 54, 70
3, 3960, Note_on_c, 1, 54, 0
3, 3960, Note_on_c, 1, 52, 70
3, 3990, Note_on_c, 1, 52, 0
3, 3990, Note_on_c, 1, 51, 70
3, 4020, Note_on_c, 1, 51, 0
3, 4020, Note_on_c, 1, 52, 70
3, 4050, Note_on_c, 1, 52, 0
3, 4050, Note_on_c, 1, 49, 70
3, 4080, Note_on_c, 1, 49, 0
3, 4080, Note_on_c, 1, 54, 70
3, 4110, Note_on_c, 1, 54, 0
3, 4110, Note_on_c, 1, 52, 70
3, 4140, Note_on_c, 1, 52, 0
3, 4140, Note_on_c, 1, 51, 70
3, 4170, Note_on_c, 1, 51, 0
3, 4170, Note_on_c, 1, 49, 70
3, 4200, Note_on_c, 1, 49, 0
3, 4200, Note_on_c, 1, 47, 70
3, 4230, Note_on_c, 1, 47, 0
3, 4230, Note_on_c, 1, 52, 70
3, 4410, Note_on_c, 1, 52, 0
3, 4410, Note_on_c, 1, 51, 70
3, 4500, Note_on_c, 1, 51, 0
3, 4500, Note_on_c, 1, 52, 70
3, 4590, Note_on_c, 1, 52, 0
3, 4590, Note_on_c, 1, 54, 70
3, 4680, Note_on_c, 1, 54, 0
3, 4680, Note_on_c, 1, 56, 70
3, 4770, Note_on_c, 1, 56, 0
3, 4770, Note_on_c, 1, 58, 70
3, 4860, Note_on_c, 1, 58, 0
3, 4860, Note_on_c, 1, 59, 70
3, 5070, Note_on_c, 1, 59, 0
3, 5070, Note_on_c, 1, 57, 70
3, 5100, Note_on_c, 1, 57, 0
3, 5100, Note_on_c, 1, 59, 70
3, 5130, Note_on_c, 1, 59, 0
3, 5130, Note_on_c, 1, 61, 70
3, 5160, Note_on_c, 1, 61, 0
3, 5160, Note_on_c, 1, 63, 70
3, 5190, Note_on_c, 1, 63, 0
3, 5190, Note_on_c, 1, 64, 70
3, 5220, Note_on_c, 1, 64, 0
3, 5220, Note_on_c, 1, 66, 70
3, 5250, Note_on_c, 1, 66, 0
3, 5250, Note_on_c, 1, 64, 70
3, 5280, Note_on_c, 1, 64, 0
3, 5280, Note_on_c, 1, 66, 70
3, 5310, Note_on_c, 1, 66, 0
3, 5310, Note_on_c, 1, 63, 70
3, 5340, Note_on_c, 1, 63, 0
3, 5340, Note_on_c, 1, 68, 70
3, 5370, Note_on_c, 1, 68, 0
3, 5370, Note_on_c, 1, 66, 70
3, 5400, Note_on_c, 1, 66, 0
3, 5400, Note_on_c, 1, 64, 70
3, 5490, Note_on_c, 1, 64, 0
3, 5940, Note_on_c, 1, 68, 70
3, 5970, Note_on_c, 1, 68, 0
3, 5970, Note_on_c, 1, 67, 70
3, 6000, Note_on_c, 1, 67, 0
3, 6000, Note_on_c, 1, 68, 70
3, 6030, Note_on_c, 1, 68, 0
3, 6030, Note_on_c, 1, 70, 70
3, 6060, Note_on_c, 1, 70, 0
3, 6060, Note_on_c, 1, 68, 70
3, 6090, Note_on_c, 1, 68, 0
3, 6090, Note_on_c, 1, 70, 70
3, 6120, Note_on_c, 1, 70, 0
3, 6120, Note_on_c, 1, 63, 70
3, 6150, Note_on_c, 1, 63, 0
3, 6150, Note_on_c, 1, 65, 70
3, 6180, Note_on_c, 1, 65, 0
3, 6180, Note_on_c, 1, 67, 70
3, 6210, Note_on_c, 1, 67, 0
3, 6210, Note_on_c, 1, 68, 70
3, 6240, Note_on_c, 1, 68, 0
3, 6240, Note_on_c, 1, 70, 70
3, 6270, Note_on_c, 1, 70, 0
3, 6270, Note_on_c, 1, 71, 70
3, 6300, Note_on_c, 1, 71, 0
3, 6300, Note_on_c, 1, 73, 70
3, 6330, Note_on_c, 1, 73, 0
3, 6330, Note_on_c, 1, 71, 70
3, 6360, Note_on_c, 1, 71, 0
3, 6360, Note_on_c, 1, 73, 70
3, 6390, Note_on_c, 1, 73, 0
3, 6390, Note_on_c, 1, 70, 70
3, 6420, Note_on_c, 1, 70, 0
3, 6420, Note_on_c, 1, 75, 70
3, 6450, Note_on_c, 1, 75, 0
3, 6450, Note_on_c, 1, 73, 70
3, 6480, Note_on_c, 1, 73, 0
3, 6480, Note_on_c, 1, 71, 70
3, 6510, Note_on_c, 1, 71, 0
3, 6510, Note_on_c, 1, 70, 70
3, 6540, Note_on_c, 1, 70, 0
3, 6540, Note_on_c, 1, 71, 70
3, 6570, Note_on_c, 1, 71, 0
3, 6570, Note_on_c, 1, 68, 70
3, 6600, Note_on_c, 1, 68, 0
3, 6600, Note_on_c, 1, 73, 70
3, 6630, Note_on_c, 1, 73, 0
3, 6630, Note_on_c, 1, 71, 70
3, 6660, Note_on_c, 1, 71, 0
3, 6660, Note_on_c, 1, 69, 70
3, 6690, Note_on_c, 1, 69, 0
3, 6690, Note_on_c, 1, 68, 70
3, 6720, Note_on_c, 1, 68, 0
3, 6720, Note_on_c, 1, 69, 70
3, 6750, Note_on_c, 1, 69, 0
3, 6750, Note_on_c, 1, 66, 70
3, 6780, Note_on_c, 1, 66, 0
3, 6780, Note_on_c, 1, 71, 70
3, 6810, Note_on_c, 1, 71, 0
3, 6810, Note_on_c, 1, 69, 70
3, 6840, Note_on_c, 1, 69, 0
3, 6840, Note_on_c, 1, 68, 70
3, 6870, Note_on_c, 1, 68, 0
3, 6870, Note_on_c, 1, 66, 70
3, 6900, Note_on_c, 1, 66, 0
3, 6900, Note_on_c, 1, 68, 70
3, 6930, Note_on_c, 1, 68, 0
3, 6930, Note_on_c, 1, 70, 70
3, 6960, Note_on_c, 1, 70, 0
3, 6960, Note_on_c, 1, 68, 70
3, 6990, Note_on_c, 1, 68, 0
3, 6990, Note_on_c, 1, 70, 70
3, 7020, Note_on_c, 1, 70, 0
3, 7020, Note_on_c, 1, 71, 70
3, 7290, Note_on_c, 1, 71, 0
3, 7290, Note_on_c, 1, 69, 70
3, 7470, Note_on_c, 1, 69, 0
3, 7470, Note_on_c, 1, 68, 70
3, 7650, Note_on_c, 1, 68, 0
3, 7650, Note_on_c, 1, 66, 70
3, 7830, Note_on_c, 1, 66, 0
3, 7830, Note_on_c, 1, 64, 70
3, 7920, Note_on_c, 1, 64, 0
3, 7920, Note_on_c, 1, 63, 70
3, 8010, Note_on_c, 1, 63, 0
3, 8010, Note_on_c, 1, 68, 70
3, 8100, Note_on_c, 1, 68, 0
3, 8100, Note_on_c, 1, 66, 70
3, 8190, Note_on_c, 1, 66, 0
3, 8190, Note_on_c, 1, 71, 70
3, 8340, Note_on_c, 1, 71, 0
3, 8340, Note_on_c, 1, 69, 70
3, 8430, Note_on_c, 1, 69, 0
3, 8430, Note_on_c, 1, 68, 70
3, 8460, Note_on_c, 1, 68, 0
3, 8460, Note_on_c, 1, 66, 70
3, 8550, Note_on_c, 1, 66, 0
3, 8550, Note_on_c, 1, 71, 70
3, 8700, Note_on_c, 1, 71, 0
3, 8700, Note_on_c, 1, 70, 70
3, 8730, Note_on_c, 1, 70, 0
3, 8730, Note_on_c, 1, 68, 70
3, 8790, Note_on_c, 1, 68, 0
3, 8790, Note_on_c, 1, 67, 70
3, 8820, Note_on_c, 1, 67, 0
3, 8820, Note_on_c, 1, 66, 70
3, 8880, Note_on_c, 1, 66, 0
3, 8880, Note_on_c, 1, 60, 70
3, 8910, Note_on_c, 1, 60, 0
3, 8910, Note_on_c, 1, 61, 70
3, 8970, Note_on_c, 1, 61, 0
3, 9000, Note_on_c, 1, 73, 70
3, 9030, Note_on_c, 1, 73, 0
3, 9030, Note_on_c, 1, 75, 70
3, 9060, Note_on_c, 1, 75, 0
3, 9060, Note_on_c, 1, 73, 70
3, 9090, Note_on_c, 1, 73, 0
3, 9090, Note_on_c, 1, 71, 70
3, 9120, Note_on_c, 1, 71, 0
3, 9120, Note_on_c, 1, 73, 70
3, 9150, Note_on_c, 1, 73, 0
3, 9150, Note_on_c, 1, 71, 70
3, 9180, Note_on_c, 1, 71, 0
3, 9180, Note_on_c, 1, 78, 70
3, 9210, Note_on_c, 1, 78, 0
3, 9210, Note_on_c, 1, 76, 70
3, 9240, Note_on_c, 1, 76, 0
3, 9240, Note_on_c, 1, 74, 70
3, 9270, Note_on_c, 1, 74, 0
3, 9270, Note_on_c, 1, 73, 70
3, 9300, Note_on_c, 1, 73, 0
3, 9300, Note_on_c, 1, 71, 70
3, 9330, Note_on_c, 1, 71, 0
3, 9330, Note_on_c, 1, 69, 70
3, 9360, Note_on_c, 1, 69, 0
3, 9360, Note_on_c, 1, 68, 70
3, 9390, Note_on_c, 1, 68, 0
3, 9390, Note_on_c, 1, 69, 70
3, 9420, Note_on_c, 1, 69, 0
3, 9420, Note_on_c, 1, 68, 70
3, 9450, Note_on_c, 1, 68, 0
3, 9450, Note_on_c, 1, 71, 70
3, 9480, Note_on_c, 1, 71, 0
3, 9480, Note_on_c, 1, 66, 70
3, 9510, Note_on_c, 1, 66, 0
3, 9510, Note_on_c, 1, 68, 70
3, 9540, Note_on_c, 1, 68, 0
3, 9540, Note_on_c, 1, 69, 70
3, 9570, Note_on_c, 1, 69, 0
3, 9570, Note_on_c, 1, 71, 70
3, 9600, Note_on_c, 1, 71, 0
3, 9600, Note_on_c, 1, 69, 70
3, 9630, Note_on_c, 1, 69, 0
3, 9630, Note_on_c, 1, 73, 70
3, 9660, Note_on_c, 1, 73, 0
3, 9660, Note_on_c, 1, 68, 70
3, 9690, Note_on_c, 1, 68, 0
3, 9690, Note_on_c, 1, 70, 70
3, 9720, Note_on_c, 1, 70, 0
3, 9720, Note_on_c, 1, 71, 70
3, 9870, Note_on_c, 1, 71, 0
3, 9870, Note_on_c, 1, 69, 70
3, 9900, Note_on_c, 1, 69, 0
3, 9900, Note_on_c, 1, 68, 70
3, 9960, Note_on_c, 1, 68, 0
3, 9960, Note_on_c, 1, 72, 70
3, 9990, Note_on_c, 1, 72, 0
3, 9990, Note_on_c, 1, 73, 70
3, 10080, Note_on_c, 1, 73, 0
3, 10080, Note_on_c, 1, 66, 70
3, 10200, Note_on_c, 1, 66, 0
3, 10200, Note_on_c, 1, 64, 70
3, 10230, Note_on_c, 1, 64, 0
3, 10230, Note_on_c, 1, 66, 70
3, 10260, Note_on_c, 1, 66, 0
3, 10260, Note_on_c, 1, 68, 70
3, 10380, Note_on_c, 1, 68, 0
3, 10380, Note_on_c, 1, 66, 70
3, 10410, Note_on_c, 1, 66, 0
3, 10410, Note_on_c, 1, 68, 70
3, 10440, Note_on_c, 1, 68, 0
3, 10440, Note_on_c, 1, 61, 70
3, 10470, Note_on_c, 1, 61, 0
3, 10470, Note_on_c, 1, 60, 70
3, 10500, Note_on_c, 1, 60, 0
3, 10500, Note_on_c, 1, 61, 70
3, 10530, Note_on_c, 1, 61, 0
3, 10530, Note_on_c, 1, 63, 70
3, 10560, Note_on_c, 1, 63, 0
3, 10560, Note_on_c, 1, 61, 70
3, 10590, Note_on_c, 1, 61, 0
3, 10590, Note_on_c, 1, 63, 70
3, 10620, Note_on_c, 1, 63, 0
3, 10620, Note_on_c, 1, 56, 70
3, 10650, Note_on_c, 1, 56, 0
3, 10650, Note_on_c, 1, 58, 70
3, 10680, Note_on_c, 1, 58, 0
3, 10680, Note_on_c, 1, 60, 70
3, 10710, Note_on_c, 1, 60, 0
3, 10710, Note_on_c, 1, 61, 70
3, 10740, Note_on_c, 1, 61, 0
3, 10740, Note_on_c, 1, 63, 70
3, 10770, Note_on_c, 1, 63, 0
3, 10770, Note_on_c, 1, 64, 70
3, 10800, Note_on_c, 1, 64, 0
3, 10800, Note_on_c, 1, 66, 70
3, 10830, Note_on_c, 1, 66, 0
3, 10830, Note_on_c, 1, 64, 70
3, 10860, Note_on_c, 1, 64, 0
3, 10860, Note_on_c, 1, 66, 70
3, 10890, Note_on_c, 1, 66, 0
3, 10890, Note_on_c, 1, 63, 70
3, 10920, Note_on_c, 1, 63, 0
3, 10920, Note_on_c, 1, 68, 70
3, 10950, Note_on_c, 1, 68, 0
3, 10950, Note_on_c, 1, 66, 70
3, 10980, Note_on_c, 1, 66, 0
3, 10980, Note_on_c, 1, 64, 70
3, 11010, Note_on_c, 1, 64, 0
3, 11010, Note_on_c, 1, 63, 70
3, 11040, Note_on_c, 1, 63, 0
3, 11040, Note_on_c, 1, 64, 70
3, 11070, Note_on_c, 1, 64, 0
3, 11070, Note_on_c, 1, 61, 70
3, 11100, Note_on_c, 1, 61, 0
3, 11100, Note_on_c, 1, 66, 70
3, 11130, Note_on_c, 1, 66, 0
3, 11130, Note_on_c, 1, 64, 70
3, 11160, Note_on_c, 1, 64, 0
3, 11160, Note_on_c, 1, 63, 70
3, 11190, Note_on_c, 1, 63, 0
3, 11190, Note_on_c, 1, 61, 70
3, 11220, Note_on_c, 1, 61, 0
3, 11220, Note_on_c, 1, 63, 70
3, 11250, Note_on_c, 1, 63, 0
3, 11250, Note_on_c, 1, 59, 70
3, 11280, Note_on_c, 1, 59, 0
3, 11280, Note_on_c, 1, 64, 70
3, 11310, Note_on_c, 1, 64, 0
3, 11310, Note_on_c, 1, 63, 70
3, 11340, Note_on_c, 1, 63, 0
3, 11340, Note_on_c, 1, 61, 70
3, 11370, Note_on_c, 1, 61, 0
3, 11370, Note_on_c, 1, 63, 70
3, 11400, Note_on_c, 1, 63, 0
3, 11400, Note_on_c, 1, 64, 70
3, 11430, Note_on_c, 1, 64, 0
3, 11430, Note_on_c, 1, 63, 70
3, 11460, Note_on_c, 1, 63, 0
3, 11460, Note_on_c, 1, 64, 70
3, 11490, Note_on_c, 1, 64, 0
3, 11490, Note_on_c, 1, 61, 70
3, 11520, Note_on_c, 1, 61, 0
3, 11520, Note_on_c, 1, 60, 70
3, 11610, Note_on_c, 1, 60, 0
3, 11610, Note_on_c, 1, 61, 70
3, 11700, Note_on_c, 1, 61, 0
3, 11700, Note_on_c, 1, 63, 70
3, 11790, Note_on_c, 1, 63, 0
3, 11790, Note_on_c, 1, 60, 70
3, 11880, Note_on_c, 1, 60, 0
3, 11880, Note_on_c, 1, 61, 70
3, 11910, Note_on_c, 1, 61, 0
3, 11910, Note_on_c, 1, 56, 70
3, 11940, Note_on_c, 1, 56, 0
3, 11940, Note_on_c, 1, 61, 70
3, 12000, Note_on_c, 1, 61, 0
3, 12000, Note_on_c, 1, 59, 70
3, 12030, Note_on_c, 1, 59, 0
3, 12030, Note_on_c, 1, 57, 70
3, 12060, Note_on_c, 1, 57, 0
3, 12060, Note_on_c, 1, 56, 70
3, 12090, Note_on_c, 1, 56, 0
3, 12090, Note_on_c, 1, 59, 70
3, 12120, Note_on_c, 1, 59, 0
3, 12120, Note_on_c, 1, 62, 70
3, 12180, Note_on_c, 1, 62, 0
3, 12180, Note_on_c, 1, 61, 70
3, 12210, Note_on_c, 1, 61, 0
3, 12210, Note_on_c, 1, 59, 70
3, 12240, Note_on_c, 1, 59, 0
3, 12240, Note_on_c, 1, 57, 70
3, 12270, Note_on_c, 1, 57, 0
3, 12270, Note_on_c, 1, 59, 70
3, 12300, Note_on_c, 1, 59, 0
3, 12300, Note_on_c, 1, 61, 70
3, 12360, Note_on_c, 1, 61, 0
3, 12360, Note_on_c, 1, 54, 70
3, 12390, Note_on_c, 1, 54, 0
3, 12390, Note_on_c, 1, 59, 70
3, 12450, Note_on_c, 1, 59, 0
3, 12450, Note_on_c, 1, 58, 70
3, 12480, Note_on_c, 1, 58, 0
3, 12480, Note_on_c, 1, 56, 70
3, 12510, Note_on_c, 1, 56, 0
3, 12510, Note_on_c, 1, 58, 70
3, 12600, Note_on_c, 1, 58, 0
3, 12600, Note_on_c, 1, 59, 70
3, 12690, Note_on_c, 1, 59, 0
3, 12690, Note_on_c, 1, 71, 70
3, 12780, Note_on_c, 1, 71, 0
3, 12780, Note_on_c, 1, 70, 70
3, 12870, Note_on_c, 1, 70, 0
3, 12870, Note_on_c, 1, 69, 70
3, 12960, Note_on_c, 1, 69, 0
3, 12960, Note_on_c, 1, 68, 70
3, 13031, Note_on_c, 1, 68, 0
3, 13050, Note_on_c, 1, 73, 70
3, 13170, Note_on_c, 1, 73, 0
3, 13170, Note_on_c, 1, 71, 70
3, 13200, Note_on_c, 1, 71, 0
3, 13200, Note_on_c, 1, 70, 70
3, 13230, Note_on_c, 1, 70, 0
3, 13230, Note_on_c, 1, 71, 70
3, 13260, Note_on_c, 1, 71, 0
3, 13260, Note_on_c, 1, 73, 70
3, 13290, Note_on_c, 1, 73, 0
3, 13290, Note_on_c, 1, 71, 70
3, 13320, Note_on_c, 1, 71, 0
3, 13320, Note_on_c, 1, 70, 70
3, 13350, Note_on_c, 1, 70, 0
3, 13350, Note_on_c, 1, 71, 70
3, 13380, Note_on_c, 1, 71, 0
3, 13380, Note_on_c, 1, 73, 70
3, 13410, Note_on_c, 1, 73, 0
3, 13410, Note_on_c, 1, 71, 70
3, 13440, Note_on_c, 1, 71, 0
3, 13440, Note_on_c, 1, 73, 70
3, 13470, Note_on_c, 1, 73, 0
3, 13470, Note_on_c, 1, 70, 70
3, 13500, Note_on_c, 1, 70, 0
3, 13500, Note_on_c, 1, 68, 70
3, 13680, Note_on_c, 1, 68, 0
3, 13680, Note_on_c, 1, 67, 70
3, 13770, Note_on_c, 1, 67, 0
3, 13770, Note_on_c, 1, 68, 70
3, 13950, Note_on_c, 1, 68, 0
3, 13950, Note_on_c, 1, 67, 70
3, 14040, Note_on_c, 1, 67, 0
3, 14040, Note_on_c, 1, 68, 70
3, 14310, Note_on_c, 1, 68, 0
3, 14310, Note_on_c, 1, 66, 70
3, 14490, Note_on_c, 1, 66, 0
3, 14490, Note_on_c, 1, 64, 70
3, 14520, Note_on_c, 1, 64, 0
3, 14520, Note_on_c, 1, 63, 70
3, 14550, Note_on_c, 1, 63, 0
3, 14550, Note_on_c, 1, 61, 70
3, 14580, Note_on_c, 1, 61, 0
3, 14580, Note_on_c, 1, 63, 70
3, 14760, Note_on_c, 1, 63, 0
3, 14760, Note_on_c, 1, 61, 70
3, 14940, Note_on_c, 1, 61, 0
3, 14940, Note_on_c, 1, 59, 70
3, 14970, Note_on_c, 1, 59, 0
3, 14970, Note_on_c, 1, 58, 70
3, 15000, Note_on_c, 1, 58, 0
3, 15000, Note_on_c, 1, 59, 70
3, 15030, Note_on_c, 1, 59, 0
3, 15030, Note_on_c, 1, 56, 70
3, 15060, Note_on_c, 1, 56, 0
3, 15060, Note_on_c, 1, 61, 70
3, 15090, Note_on_c, 1, 61, 0
3, 15090, Note_on_c, 1, 59, 70
3, 15120, Note_on_c, 1, 59, 0
3, 15120, Note_on_c, 1, 58, 70
3, 15150, Note_on_c, 1, 58, 0
3, 15150, Note_on_c, 1, 56, 70
3, 15180, Note_on_c, 1, 56, 0
3, 15180, Note_on_c, 1, 54, 70
3, 15210, Note_on_c, 1, 54, 0
3, 15210, Note_on_c, 1, 59, 70
3, 15390, Note_on_c, 1, 59, 0
3, 15390, Note_on_c, 1, 58, 70
3, 15480, Note_on_c, 1, 58, 0
3, 15480, Note_on_c, 1, 59, 70
3, 15570, Note_on_c, 1, 59, 0
3, 15570, Note_on_c, 1, 61, 70
3, 15660, Note_on_c, 1, 61, 0
3, 15660, Note_on_c, 1, 63, 70
3, 15750, Note_on_c, 1, 63, 0
3, 15750, Note_on_c, 1, 65, 70
3, 15840, Note_on_c, 1, 65, 0
3, 15840, Note_on_c, 1, 66, 70
3, 15870, Note_on_c, 1, 66, 0
3, 15870, Note_on_c, 1, 61, 70
3, 15900, Note_on_c, 1, 61, 0
3, 15900, Note_on_c, 1, 66, 70
3, 15960, Note_on_c, 1, 66, 0
3, 15960, Note_on_c, 1, 64, 70
3, 15990, Note_on_c, 1, 64, 0
3, 15990, Note_on_c, 1, 62, 70
3, 16020, Note_on_c, 1, 62, 0
3, 16020, Note_on_c, 1, 61, 70
3, 16050, Note_on_c, 1, 61, 0
3, 16050, Note_on_c, 1, 72, 70
3, 16080, Note_on_c, 1, 72, 0
3, 16080, Note_on_c, 1, 73, 70
3, 16110, Note_on_c, 1, 73, 0
3, 16110, Note_on_c, 1, 75, 70
3, 16140, Note_on_c, 1, 75, 0
3, 16140, Note_on_c, 1, 68, 70
3, 16170, Note_on_c, 1, 68, 0
3, 16170, Note_on_c, 1, 66, 70
3, 16200, Note_on_c, 1, 66, 0
3, 16200, Note_on_c, 1, 64, 70
3, 16260, Note_on_c, 1, 64, 0
3, 16260, Note_on_c, 1, 56, 70
3, 16290, Note_on_c, 1, 56, 0
3, 16290, Note_on_c, 1, 61, 70
3, 16410, Note_on_c, 1, 61, 0
3, 16410, Note_on_c, 1, 59, 70
3, 16440, Note_on_c, 1, 59, 0
3, 16440, Note_on_c, 1, 61, 70
3, 16470, Note_on_c, 1, 61, 0
3, 16470, Note_on_c, 1, 63, 70
3, 16500, Note_on_c, 1, 63, 0
3, 16500, Note_on_c, 1, 64, 70
3, 16530, Note_on_c, 1, 64, 0
3, 16530, Note_on_c, 1, 66, 70
3, 16560, Note_on_c, 1, 66, 0
3, 16560, Note_on_c, 1, 64, 70
3, 16590, Note_on_c, 1, 64, 0
3, 16770, Note_on_c, 1, 65, 70
3, 16800, Note_on_c, 1, 65, 0
3, 16800, Note_on_c, 1, 66, 70
3, 16830, Note_on_c, 1, 66, 0
3, 16830, Note_on_c, 1, 68, 70
3, 16860, Note_on_c, 1, 68, 0
3, 16860, Note_on_c, 1, 61, 70
3, 16890, Note_on_c, 1, 61, 0
3, 16890, Note_on_c, 1, 59, 70
3, 16920, Note_on_c, 1, 59, 0
3, 16920, Note_on_c, 1, 57, 70
3, 16980, Note_on_c, 1, 57, 0
3, 16980, Note_on_c, 1, 69, 70
3, 17010, Note_on_c, 1, 69, 0
3, 17010, Note_on_c, 1, 60, 70
3, 17100, Note_on_c, 1, 60, 0
3, 17100, Note_on_c, 1, 61, 70
3, 17370, Note_on_c, 1, 61, 0
3, 17370, Note_on_c, 1, 60, 70
3, 17460, Note_on_c, 1, 60, 0
3, 17460, Note_on_c, 1, 61, 70
3, 17490, Note_on_c, 1, 61, 0
3, 17490, Note_on_c, 1, 64, 70
3, 17520, Note_on_c, 1, 64, 0
3, 17520, Note_on_c, 1, 69, 70
3, 17580, Note_on_c, 1, 69, 0
3, 17580, Note_on_c, 1, 67, 70
3, 17610, Note_on_c, 1, 67, 0
3, 17610, Note_on_c, 1, 68, 70
3, 17670, Note_on_c, 1, 68, 0
3, 17670, Note_on_c, 1, 66, 70
3, 17700, Note_on_c, 1, 66, 0
3, 17700, Note_on_c, 1, 65, 70
3, 17730, Note_on_c, 1, 65, 0
3, 17730, Note_on_c, 1, 66, 70
3, 17850, Note_on_c, 1, 66, 0
3, 17850, Note_on_c, 1, 63, 70
3, 17880, Note_on_c, 1, 63, 0
3, 17880, Note_on_c, 1, 68, 70
3, 17940, Note_on_c, 1, 68, 0
3, 17940, Note_on_c, 1, 65, 70
3, 17970, Note_on_c, 1, 65, 0
3, 17970, Note_on_c, 1, 66, 70
3, 18030, Note_on_c, 1, 66, 0
3, 18030, Note_on_c, 1, 64, 70
3, 18060, Note_on_c, 1, 64, 0
3, 18060, Note_on_c, 1, 63, 70
3, 18090, Note_on_c, 1, 63, 0
3, 18090, Note_on_c, 1, 64, 70
3, 18270, Note_on_c, 1, 64, 0
3, 18270, Note_on_c, 1, 63, 70
3, 18360, Note_on_c, 1, 63, 0
3, 18360, Note_on_c, 1, 62, 70
3, 18450, Note_on_c, 1, 62, 0
3, 18450, Note_on_c, 1, 61, 70
3, 18540, Note_on_c, 1, 61, 0
3, 18540, Note_on_c, 1, 60, 70
3, 18630, Note_on_c, 1, 60, 0
3, 18630, Note_on_c, 1, 59, 70
3, 18720, Note_on_c, 1, 59, 0
3, 18720, Note_on_c, 1, 61, 70
3, 18750, Note_on_c, 1, 61, 0
3, 18750, Note_on_c, 1, 62, 70
3, 18780, Note_on_c, 1, 62, 0
3, 18780, Note_on_c, 1, 61, 70
3, 18810, Note_on_c, 1, 61, 0
3, 18810, Note_on_c, 1, 59, 70
3, 18840, Note_on_c, 1, 59, 0
3, 18840, Note_on_c, 1, 61, 70
3, 18870, Note_on_c, 1, 61, 0
3, 18870, Note_on_c, 1, 59, 70
3, 18900, Note_on_c, 1, 59, 0
3, 18900, Note_on_c, 1, 64, 70
3, 18930, Note_on_c, 1, 64, 0
3, 18930, Note_on_c, 1, 62, 70
3, 18960, Note_on_c, 1, 62, 0
3, 18960, Note_on_c, 1, 61, 70
3, 18990, Note_on_c, 1, 61, 0
3, 18990, Note_on_c, 1, 59, 70
3, 19020, Note_on_c, 1, 59, 0
3, 19020, Note_on_c, 1, 57, 70
3, 19050, Note_on_c, 1, 57, 0
3, 19050, Note_on_c, 1, 56, 70
3, 19080, Note_on_c, 1, 56, 0
3, 19080, Note_on_c, 1, 54, 70
3, 19110, Note_on_c, 1, 54, 0
3, 19110, Note_on_c, 1, 57, 70
3, 19140, Note_on_c, 1, 57, 0
3, 19140, Note_on_c, 1, 56, 70
3, 19170, Note_on_c, 1, 56, 0
3, 19170, Note_on_c, 1, 57, 70
3, 19200, Note_on_c, 1, 57, 0
3, 19200, Note_on_c, 1, 52, 70
3, 19230, Note_on_c, 1, 52, 0
3, 19230, Note_on_c, 1, 54, 70
3, 19260, Note_on_c, 1, 54, 0
3, 19260, Note_on_c, 1, 56, 70
3, 19290, Note_on_c, 1, 56, 0
3, 19290, Note_on_c, 1, 57, 70
3, 19320, Note_on_c, 1, 57, 0
3, 19320, Note_on_c, 1, 56, 70
3, 19350, Note_on_c, 1, 56, 0
3, 19350, Note_on_c, 1, 59, 70
3, 19380, Note_on_c, 1, 59, 0
3, 19380, Note_on_c, 1, 54, 70
3, 19410, Note_on_c, 1, 54, 0
3, 19410, Note_on_c, 1, 56, 70
3, 19440, Note_on_c, 1, 56, 0
3, 19440, Note_on_c, 1, 57, 70
3, 19530, Note_on_c, 1, 57, 0
3, 19530, Note_on_c, 1, 69, 70
3, 19650, Note_on_c, 1, 69, 0
3, 19650, Note_on_c, 1, 68, 70
3, 19680, Note_on_c, 1, 68, 0
3, 19680, Note_on_c, 1, 66, 70
3, 19710, Note_on_c, 1, 66, 0
3, 19710, Note_on_c, 1, 65, 70
3, 19740, Note_on_c, 1, 65, 0
3, 19740, Note_on_c, 1, 66, 70
3, 19770, Note_on_c, 1, 66, 0
3, 19770, Note_on_c, 1, 68, 70
3, 19800, Note_on_c, 1, 68, 0
3, 19800, Note_on_c, 1, 61, 70
3, 19890, Note_on_c, 1, 61, 0
3, 19890, Note_on_c, 1, 60, 70
3, 19980, Note_on_c, 1, 60, 0
3, 19980, Note_on_c, 1, 68, 70
3, 20010, Note_on_c, 1, 68, 0
3, 20010, Note_on_c, 1, 66, 70
3, 20040, Note_on_c, 1, 66, 0
3, 20040, Note_on_c, 1, 68, 70
3, 20070, Note_on_c, 1, 68, 0
3, 20070, Note_on_c, 1, 64, 70
3, 20100, Note_on_c, 1, 64, 0
3, 20100, Note_on_c, 1, 69, 70
3, 20130, Note_on_c, 1, 69, 0
3, 20130, Note_on_c, 1, 68, 70
3, 20160, Note_on_c, 1, 68, 0
3, 20160, Note_on_c, 1, 66, 70
3, 20190, Note_on_c, 1, 66, 0
3, 20190, Note_on_c, 1, 64, 70
3, 20220, Note_on_c, 1, 64, 0
3, 20220, Note_on_c, 1, 66, 70
3, 20250, Note_on_c, 1, 66, 0
3, 20250, Note_on_c, 1, 63, 70
3, 20280, Note_on_c, 1, 63, 0
3, 20280, Note_on_c, 1, 68, 70
3, 20310, Note_on_c, 1, 68, 0
3, 20310, Note_on_c, 1, 66, 70
3, 20340, Note_on_c, 1, 66, 0
3, 20340, Note_on_c, 1, 64, 70
3, 20370, Note_on_c, 1, 64, 0
3, 20370, Note_on_c, 1, 63, 70
3, 20400, Note_on_c, 1, 63, 0
3, 20400, Note_on_c, 1, 64, 70
3, 20430, Note_on_c, 1, 64, 0
3, 20430, Note_on_c, 1, 61, 70
3, 20460, Note_on_c, 1, 61, 0
3, 20460, Note_on_c, 1, 66, 70
3, 20490, Note_on_c, 1, 66, 0
3, 20490, Note_on_c, 1, 64, 70
3, 20520, Note_on_c, 1, 64, 0
3, 20520, Note_on_c, 1, 63, 70
3, 20550, Note_on_c, 1, 63, 0
3, 20550, Note_on_c, 1, 61, 70
3, 20580, Note_on_c, 1, 61, 0
3, 20580, Note_on_c, 1, 63, 70
3, 20610, Note_on_c, 1, 63, 0
3, 20610, Note_on_c, 1, 59, 70
3, 20640, Note_on_c, 1, 59, 0
3, 20640, Note_on_c, 1, 64, 70
3, 20670, Note_on_c, 1, 64, 0
3, 20670, Note_on_c, 1, 63, 70
3, 20700, Note_on_c, 1, 63, 0
3, 20700, Note_on_c, 1, 61, 70
3, 20820, Note_on_c, 1, 61, 0
3, 20820, Note_on_c, 1, 60, 70
3, 20850, Note_on_c, 1, 60, 0
3, 20850, Note_on_c, 1, 58, 70
3, 20880, Note_on_c, 1, 58, 0
3, 20880, Note_on_c, 1, 60, 70
3, 20970, Note_on_c, 1, 60, 0
3, 20970, Note_on_c, 1, 61, 70
3, 21045, Note_on_c, 1, 61, 0
3, 21060, Note_on_c, 1, 63, 70
3, 21129, Note_on_c, 1, 63, 0
3, 21150, Note_on_c, 1, 66, 70
3, 21240, Note_on_c, 1, 66, 0
3, 21240, Note_on_c, 1, 64, 70
3, 21270, Note_on_c, 1, 64, 0
3, 21270, Note_on_c, 1, 63, 70
3, 21300, Note_on_c, 1, 63, 0
3, 21300, Note_on_c, 1, 61, 70
3, 21330, Note_on_c, 1, 61, 0
3, 21330, Note_on_c, 1, 68, 70
3, 21350, Note_on_c, 1, 67, 70
3, 21355, Note_on_c, 1, 68, 0
3, 21358, Note_on_c, 1, 68, 70
3, 21359, Note_on_c, 1, 67, 0
3, 21367, Note_on_c, 1, 68, 0
3, 21368, Note_on_c, 1, 67, 70
3, 21377, Note_on_c, 1, 67, 0
3, 21378, Note_on_c, 1, 68, 70
3, 21386, Note_on_c, 1, 67, 70
3, 21387, Note_on_c, 1, 68, 0
3, 21420, Note_on_c, 1, 68, 70
3, 21421, Note_on_c, 1, 67, 0
3, 21480, Note_on_c, 1, 68, 0
3, 21600, Note_on_c, 1, 56, 70
3, 21630, Note_on_c, 1, 56, 0
3, 21630, Note_on_c, 1, 55, 70
3, 21660, Note_on_c, 1, 55, 0
3, 21660, Note_on_c, 1, 56, 70
3, 21690, Note_on_c, 1, 56, 0
3, 21690, Note_on_c, 1, 58, 70
3, 21720, Note_on_c, 1, 58, 0
3, 21720, Note_on_c, 1, 56, 70
3, 21750, Note_on_c, 1, 56, 0
3, 21750, Note_on_c, 1, 58, 70
3, 21780, Note_on_c, 1, 58, 0
3, 21780, Note_on_c, 1, 51, 70
3, 21810, Note_on_c, 1, 51, 0
3, 21810, Note_on_c, 1, 53, 70
3, 21840, Note_on_c, 1, 53, 0
3, 21840, Note_on_c, 1, 55, 70
3, 21870, Note_on_c, 1, 55, 0
3, 21870, Note_on_c, 1, 56, 70
3, 21900, Note_on_c, 1, 56, 0
3, 21900, Note_on_c, 1, 58, 70
3, 21930, Note_on_c, 1, 58, 0
3, 21930, Note_on_c, 1, 59, 70
3, 21960, Note_on_c, 1, 59, 0
3, 21960, Note_on_c, 1, 61, 70
3, 21990, Note_on_c, 1, 61, 0
3, 21990, Note_on_c, 1, 59, 70
3, 22020, Note_on_c, 1, 59, 0
3, 22020, Note_on_c, 1, 61, 70
3, 22050, Note_on_c, 1, 61, 0
3, 22050, Note_on_c, 1, 58, 70
3, 22080, Note_on_c, 1, 58, 0
3, 22080, Note_on_c, 1, 63, 70
3, 22110, Note_on_c, 1, 63, 0
3, 22110, Note_on_c, 1, 61, 70
3, 22140, Note_on_c, 1, 61, 0
3, 22140, Note_on_c, 1, 60, 70
3, 22230, Note_on_c, 1, 60, 0
3, 22230, Note_on_c, 1, 59, 70
3, 22350, Note_on_c, 1, 59, 0
3, 22350, Note_on_c, 1, 57, 70
3, 22380, Note_on_c, 1, 57, 0
3, 22380, Note_on_c, 1, 59, 70
3, 22410, Note_on_c, 1, 59, 0
3, 22410, Note_on_c, 1, 56, 70
3, 22440, Note_on_c, 1, 56, 0
3, 22440, Note_on_c, 1, 61, 70
3, 22470, Note_on_c, 1, 61, 0
3, 22470, Note_on_c, 1, 59, 70
3, 22500, Note_on_c, 1, 59, 0
3, 22500, Note_on_c, 1, 58, 70
3, 22590, Note_on_c, 1, 58, 0
3, 22590, Note_on_c, 1, 57, 70
3, 22770, Note_on_c, 1, 57, 0
3, 22770, Note_on_c, 1, 56, 70
3, 22800, Note_on_c, 1, 56, 0
3, 22800, Note_on_c, 1, 54, 70
3, 22830, Note_on_c, 1, 54, 0
3, 22830, Note_on_c, 1, 52, 70
3, 22860, Note_on_c, 1, 52, 0
3, 22860, Note_on_c, 1, 54, 70
3, 22890, Note_on_c, 1, 54, 0
3, 22890, Note_on_c, 1, 56, 70
3, 22920, Note_on_c, 1, 56, 0
3, 22920, Note_on_c, 1, 58, 70
3, 22950, Note_on_c, 1, 58, 0
3, 22950, Note_on_c, 1, 59, 70
3, 23070, Note_on_c, 1, 59, 0
3, 23070, Note_on_c, 1, 61, 70
3, 23100, Note_on_c, 1, 61, 0
3, 23100, Note_on_c, 1, 62, 70
3, 23130, Note_on_c, 1, 62, 0
3, 23130, Note_on_c, 1, 61, 70
3, 23160, Note_on_c, 1, 61, 0
3, 23160, Note_on_c, 1, 62, 70
3, 23190, Note_on_c, 1, 62, 0
3, 23190, Note_on_c, 1, 59, 70
3, 23220, Note_on_c, 1, 59, 0
3, 23220, Note_on_c, 1, 57, 70
3, 23280, Note_on_c, 1, 57, 0
3, 23400, Note_on_c, 1, 61, 70
3, 23430, Note_on_c, 1, 61, 0
3, 23430, Note_on_c, 1, 60, 70
3, 23460, Note_on_c, 1, 60, 0
3, 23460, Note_on_c, 1, 61, 70
3, 23490, Note_on_c, 1, 61, 0
3, 23490, Note_on_c, 1, 63, 70
3, 23520, Note_on_c, 1, 63, 0
3, 23520, Note_on_c, 1, 61, 70
3, 23550, Note_on_c, 1, 61, 0
3, 23550, Note_on_c, 1, 63, 70
3, 23580, Note_on_c, 1, 63, 0
3, 23580, Note_on_c, 1, 56, 70
3, 23610, Note_on_c, 1, 56, 0
3, 23610, Note_on_c, 1, 58, 70
3, 23640, Note_on_c, 1, 58, 0
3, 23640, Note_on_c, 1, 60, 70
3, 23670, Note_on_c, 1, 60, 0
3, 23670, Note_on_c, 1, 61, 70
3, 23700, Note_on_c, 1, 61, 0
3, 23700, Note_on_c, 1, 63, 70
3, 23730, Note_on_c, 1, 63, 0
3, 23730, Note_on_c, 1, 64, 70
3, 23760, Note_on_c, 1, 64, 0
3, 23760, Note_on_c, 1, 66, 70
3, 23790, Note_on_c, 1, 66, 0
3, 23790, Note_on_c, 1, 64, 70
3, 23820, Note_on_c, 1, 64, 0
3, 23820, Note_on_c, 1, 66, 70
3, 23850, Note_on_c, 1, 66, 0
3, 23850, Note_on_c, 1, 63, 70
3, 23880, Note_on_c, 1, 63, 0
3, 23880, Note_on_c, 1, 68, 70
3, 23910, Note_on_c, 1, 68, 0
3, 23910, Note_on_c, 1, 66, 70
3, 23940, Note_on_c, 1, 66, 0
3, 23940, Note_on_c, 1, 64, 70
3, 23970, Note_on_c, 1, 64, 0
3, 23970, Note_on_c, 1, 63, 70
3, 24000, Note_on_c, 1, 63, 0
3, 24000, Note_on_c, 1, 64, 70
3, 24030, Note_on_c, 1, 64, 0
3, 24030, Note_on_c, 1, 61, 70
3, 24060, Note_on_c, 1, 61, 0
3, 24060, Note_on_c, 1, 69, 70
3, 24090, Note_on_c, 1, 69, 0
3, 24090, Note_on_c, 1, 68, 70
3, 24120, Note_on_c, 1, 68, 0
3, 24120, Note_on_c, 1, 66, 70
3, 24300, Note_on_c, 1, 66, 0
3, 24300, Note_on_c, 1, 65, 70
3, 24390, Note_on_c, 1, 65, 0
3, 24390, Note_on_c, 1, 64, 70
3, 24480, Note_on_c, 1, 64, 0
3, 24480, Note_on_c, 1, 63, 70
3, 24541, Note_on_c, 1, 63, 0
3, 24570, Note_on_c, 1, 68, 70
3, 24639, Note_on_c, 1, 68, 0
3, 24660, Note_on_c, 1, 61, 70
3, 24719, Note_on_c, 1, 61, 0
3, 24750, Note_on_c, 1, 66, 70
3, 24930, Note_on_c, 1, 66, 0
3, 24930, Note_on_c, 1, 64, 70
3, 24990, Note_on_c, 1, 64, 0
3, 24990, Note_on_c, 1, 63, 70
3, 25020, Note_on_c, 1, 63, 0
3, 25020, Note_on_c, 1, 64, 70
3, 25050, Note_on_c, 1, 64, 0
3, 25050, Note_on_c, 1, 69, 70
3, 25080, Note_on_c, 1, 69, 0
3, 25080, Note_on_c, 1, 68, 70
3, 25110, Note_on_c, 1, 68, 0
3, 25110, Note_on_c, 1, 66, 70
3, 25140, Note_on_c, 1, 66, 0
3, 25140, Note_on_c, 1, 64, 70
3, 25170, Note_on_c, 1, 64, 0
3, 25170, Note_on_c, 1, 63, 70
3, 25200, Note_on_c, 1, 63, 0
3, 25200, Note_on_c, 1, 65, 70
3, 25290, Note_on_c, 1, 65, 0
3, 25290, End_track
4, 0, Start_track
4, 0, MIDI_port, 0
4, 0, Title_t, "by Yo Tomita"
4, 0, Program_c, 2, 6
4, 0, Note_on_c, 2, 49, 70
4, 30, Note_on_c, 2, 49, 0
4, 30, Note_on_c, 2, 48, 70
4, 60, Note_on_c, 2, 48, 0
4, 60, Note_on_c, 2, 49, 70
4, 90, Note_on_c, 2, 49, 0
4, 90, Note_on_c, 2, 51, 70
4, 120, Note_on_c, 2, 51, 0
4, 120, Note_on_c, 2, 49, 70
4, 150, Note_on_c, 2, 49, 0
4, 150, Note_on_c, 2, 51, 70
4, 180, Note_on_c, 2, 51, 0
4, 180, Note_on_c, 2, 44, 70
4, 210, Note_on_c, 2, 44, 0
4, 210, Note_on_c, 2, 46, 70
4, 240, Note_on_c, 2, 46, 0
4, 240, Note_on_c, 2, 48, 70
4, 270, Note_on_c, 2, 48, 0
4, 270, Note_on_c, 2, 49, 70
4, 300, Note_on_c, 2, 49, 0
4, 300, Note_on_c, 2, 51, 70
4, 330, Note_on_c, 2, 51, 0
4, 330, Note_on_c, 2, 52, 70
4, 360, Note_on_c, 2, 52, 0
4, 360, Note_on_c, 2, 54, 70
4, 390, Note_on_c, 2, 54, 0
4, 390, Note_on_c, 2, 52, 70
4, 420, Note_on_c, 2, 52, 0
4, 420, Note_on_c, 2, 54, 70
4, 450, Note_on_c, 2, 54, 0
4, 450, Note_on_c, 2, 51, 70
4, 480, Note_on_c, 2, 51, 0
4, 480, Note_on_c, 2, 56, 70
4, 510, Note_on_c, 2, 56, 0
4, 510, Note_on_c, 2, 54, 70
4, 540, Note_on_c, 2, 54, 0
4, 540, Note_on_c, 2, 52, 70
4, 570, Note_on_c, 2, 52, 0
4, 570, Note_on_c, 2, 51, 70
4, 600, Note_on_c, 2, 51, 0
4, 600, Note_on_c, 2, 52, 70
4, 630, Note_on_c, 2, 52, 0
4, 630, Note_on_c, 2, 49, 70
4, 810, Note_on_c, 2, 49, 0
4, 810, Note_on_c, 2, 47, 70
4, 900, Note_on_c, 2, 47, 0
4, 900, Note_on_c, 2, 46, 70
4, 965, Note_on_c, 2, 46, 0
4, 990, Note_on_c, 2, 55, 70
4, 1049, Note_on_c, 2, 55, 0
4, 1080, Note_on_c, 2, 44, 70
4, 1139, Note_on_c, 2, 44, 0
4, 1170, Note_on_c, 2, 52, 70
4, 1350, Note_on_c, 2, 52, 0
4, 1350, Note_on_c, 2, 51, 70
4, 1440, Note_on_c, 2, 51, 0
4, 1440, Note_on_c, 2, 52, 70
4, 1514, Note_on_c, 2, 52, 0
4, 1530, Note_on_c, 2, 48, 70
4, 1604, Note_on_c, 2, 48, 0
4, 1620, Note_on_c, 2, 49, 70
4, 1694, Note_on_c, 2, 49, 0
4, 1710, Note_on_c, 2, 61, 70
4, 1890, Note_on_c, 2, 61, 0
4, 1890, Note_on_c, 2, 60, 70
4, 1980, Note_on_c, 2, 60, 0
4, 1980, Note_on_c, 2, 61, 70
4, 2045, Note_on_c, 2, 61, 0
4, 2070, Note_on_c, 2, 54, 70
4, 2133, Note_on_c, 2, 54, 0
4, 2160, Note_on_c, 2, 59, 70
4, 2223, Note_on_c, 2, 59, 0
4, 2250, Note_on_c, 2, 52, 70
4, 2313, Note_on_c, 2, 52, 0
4, 2340, Note_on_c, 2, 57, 70
4, 2520, Note_on_c, 2, 57, 0
4, 2520, Note_on_c, 2, 56, 70
4, 2730, Note_on_c, 2, 56, 0
4, 2730, Note_on_c, 2, 54, 70
4, 2760, Note_on_c, 2, 54, 0
4, 2760, Note_on_c, 2, 56, 70
4, 2790, Note_on_c, 2, 56, 0
4, 2790, Note_on_c, 2, 52, 70
4, 2820, Note_on_c, 2, 52, 0
4, 2820, Note_on_c, 2, 57, 70
4, 2850, Note_on_c, 2, 57, 0
4, 2850, Note_on_c, 2, 56, 70
4, 2880, Note_on_c, 2, 56, 0
4, 2880, Note_on_c, 2, 54, 70
4, 2910, Note_on_c, 2, 54, 0
4, 2910, Note_on_c, 2, 52, 70
4, 2940, Note_on_c, 2, 52, 0
4, 2940, Note_on_c, 2, 54, 70
4, 2970, Note_on_c, 2, 54, 0
4, 2970, Note_on_c, 2, 51, 70
4, 3000, Note_on_c, 2, 51, 0
4, 3000, Note_on_c, 2, 56, 70
4, 3030, Note_on_c, 2, 56, 0
4, 3030, Note_on_c, 2, 54, 70
4, 3060, Note_on_c, 2, 54, 0
4, 3060, Note_on_c, 2, 52, 70
4, 3090, Note_on_c, 2, 52, 0
4, 3090, Note_on_c, 2, 51, 70
4, 3120, Note_on_c, 2, 51, 0
4, 3120, Note_on_c, 2, 52, 70
4, 3150, Note_on_c, 2, 52, 0
4, 3150, Note_on_c, 2, 49, 70
4, 3180, Note_on_c, 2, 49, 0
4, 3180, Note_on_c, 2, 54, 70
4, 3210, Note_on_c, 2, 54, 0
4, 3210, Note_on_c, 2, 52, 70
4, 3240, Note_on_c, 2, 52, 0
4, 3240, Note_on_c, 2, 51, 70
4, 3303, Note_on_c, 2, 51, 0
4, 3330, Note_on_c, 2, 56, 70
4, 3393, Note_on_c, 2, 56, 0
4, 3420, Note_on_c, 2, 49, 70
4, 3630, Note_on_c, 2, 49, 0
4, 3630, Note_on_c, 2, 47, 70
4, 3660, Note_on_c, 2, 47, 0
4, 3660, Note_on_c, 2, 49, 70
4, 3690, Note_on_c, 2, 49, 0
4, 3690, Note_on_c, 2, 44, 70
4, 3720, Note_on_c, 2, 44, 0
4, 3720, Note_on_c, 2, 49, 70
4, 3750, Note_on_c, 2, 49, 0
4, 3750, Note_on_c, 2, 47, 70
4, 3780, Note_on_c, 2, 47, 0
4, 3780, Note_on_c, 2, 46, 70
4, 3810, Note_on_c, 2, 46, 0
4, 3810, Note_on_c, 2, 44, 70
4, 3840, Note_on_c, 2, 44, 0
4, 3840, Note_on_c, 2, 42, 70
4, 3870, Note_on_c, 2, 42, 0
4, 3870, Note_on_c, 2, 47, 70
4, 4050, Note_on_c, 2, 47, 0
4, 4050, Note_on_c, 2, 45, 70
4, 4230, Note_on_c, 2, 45, 0
4, 4230, Note_on_c, 2, 44, 70
4, 4260, Note_on_c, 2, 44, 0
4, 4260, Note_on_c, 2, 42, 70
4, 4290, Note_on_c, 2, 42, 0
4, 4290, Note_on_c, 2, 40, 70
4, 4320, Note_on_c, 2, 40, 0
4, 4320, Note_on_c, 2, 42, 70
4, 4394, Note_on_c, 2, 42, 0
4, 4410, Note_on_c, 2, 47, 70
4, 4484, Note_on_c, 2, 47, 0
4, 4500, Note_on_c, 2, 40, 70
4, 4574, Note_on_c, 2, 40, 0
4, 4860, Note_on_c, 2, 47, 70
4, 4890, Note_on_c, 2, 47, 0
4, 4890, Note_on_c, 2, 45, 70
4, 4920, Note_on_c, 2, 45, 0
4, 4920, Note_on_c, 2, 47, 70
4, 4950, Note_on_c, 2, 47, 0
4, 4950, Note_on_c, 2, 49, 70
4, 4980, Note_on_c, 2, 49, 0
4, 4980, Note_on_c, 2, 47, 70
4, 5010, Note_on_c, 2, 47, 0
4, 5010, Note_on_c, 2, 49, 70
4, 5040, Note_on_c, 2, 49, 0
4, 5040, Note_on_c, 2, 42, 70
4, 5130, Note_on_c, 2, 42, 0
4, 5130, Note_on_c, 2, 40, 70
4, 5220, Note_on_c, 2, 40, 0
4, 5220, Note_on_c, 2, 39, 70
4, 5294, Note_on_c, 2, 39, 0
4, 5310, Note_on_c, 2, 44, 70
4, 5384, Note_on_c, 2, 44, 0
4, 5400, Note_on_c, 2, 49, 70
4, 5430, Note_on_c, 2, 49, 0
4, 5430, Note_on_c, 2, 51, 70
4, 5460, Note_on_c, 2, 51, 0
4, 5460, Note_on_c, 2, 52, 70
4, 5490, Note_on_c, 2, 52, 0
4, 5490, Note_on_c, 2, 54, 70
4, 5610, Note_on_c, 2, 54, 0
4, 5610, Note_on_c, 2, 52, 70
4, 5640, Note_on_c, 2, 52, 0
4, 5640, Note_on_c, 2, 51, 70
4, 5670, Note_on_c, 2, 51, 0
4, 5670, Note_on_c, 2, 52, 70
4, 5700, Note_on_c, 2, 52, 0
4, 5700, Note_on_c, 2, 54, 70
4, 5730, Note_on_c, 2, 54, 0
4, 5730, Note_on_c, 2, 56, 70
4, 5760, Note_on_c, 2, 56, 0
4, 5760, Note_on_c, 2, 57, 70
4, 5790, Note_on_c, 2, 57, 0
4, 5790, Note_on_c, 2, 56, 70
4, 5820, Note_on_c, 2, 56, 0
4, 5820, Note_on_c, 2, 54, 70
4, 5850, Note_on_c, 2, 54, 0
4, 5850, Note_on_c, 2, 56, 70
4, 5880, Note_on_c, 2, 56, 0
4, 5880, Note_on_c, 2, 58, 70
4, 5910, Note_on_c, 2, 58, 0
4, 5910, Note_on_c, 2, 60, 70
4, 5940, Note_on_c, 2, 60, 0
4, 5940, Note_on_c, 2, 61, 70
4, 6210, Note_on_c, 2, 61, 0
4, 6210, Note_on_c, 2, 59, 70
4, 6300, Note_on_c, 2, 59, 0
4, 6300, Note_on_c, 2, 58, 70
4, 6363, Note_on_c, 2, 58, 0
4, 6390, Note_on_c, 2, 63, 70
4, 6451, Note_on_c, 2, 63, 0
4, 6480, Note_on_c, 2, 56, 70
4, 6545, Note_on_c, 2, 56, 0
4, 6570, Note_on_c, 2, 61, 70
4, 6633, Note_on_c, 2, 61, 0
4, 6660, Note_on_c, 2, 54, 70
4, 6723, Note_on_c, 2, 54, 0
4, 6750, Note_on_c, 2, 59, 70
4, 6809, Note_on_c, 2, 59, 0
4, 6840, Note_on_c, 2, 52, 70
4, 6870, Note_on_c, 2, 52, 0
4, 6870, Note_on_c, 2, 51, 70
4, 6900, Note_on_c, 2, 51, 0
4, 6900, Note_on_c, 2, 52, 70
4, 6930, Note_on_c, 2, 52, 0
4, 6930, Note_on_c, 2, 54, 70
4, 6960, Note_on_c, 2, 54, 0
4, 6960, Note_on_c, 2, 52, 70
4, 6990, Note_on_c, 2, 52, 0
4, 6990, Note_on_c, 2, 54, 70
4, 7020, Note_on_c, 2, 54, 0
4, 7020, Note_on_c, 2, 47, 70
4, 7050, Note_on_c, 2, 47, 0
4, 7050, Note_on_c, 2, 49, 70
4, 7080, Note_on_c, 2, 49, 0
4, 7080, Note_on_c, 2, 51, 70
4, 7110, Note_on_c, 2, 51, 0
4, 7110, Note_on_c, 2, 52, 70
4, 7140, Note_on_c, 2, 52, 0
4, 7140, Note_on_c, 2, 54, 70
4, 7170, Note_on_c, 2, 54, 0
4, 7170, Note_on_c, 2, 56, 70
4, 7200, Note_on_c, 2, 56, 0
4, 7200, Note_on_c, 2, 57, 70
4, 7230, Note_on_c, 2, 57, 0
4, 7230, Note_on_c, 2, 56, 70
4, 7260, Note_on_c, 2, 56, 0
4, 7260, Note_on_c, 2, 57, 70
4, 7290, Note_on_c, 2, 57, 0
4, 7290, Note_on_c, 2, 54, 70
4, 7320, Note_on_c, 2, 54, 0
4, 7320, Note_on_c, 2, 59, 70
4, 7350, Note_on_c, 2, 59, 0
4, 7350, Note_on_c, 2, 57, 70
4, 7380, Note_on_c, 2, 57, 0
4, 7380, Note_on_c, 2, 56, 70
4, 7410, Note_on_c, 2, 56, 0
4, 7410, Note_on_c, 2, 54, 70
4, 7440, Note_on_c, 2, 54, 0
4, 7440, Note_on_c, 2, 56, 70
4, 7470, Note_on_c, 2, 56, 0
4, 7470, Note_on_c, 2, 52, 70
4, 7500, Note_on_c, 2, 52, 0
4, 7500, Note_on_c, 2, 57, 70
4, 7530, Note_on_c, 2, 57, 0
4, 7530, Note_on_c, 2, 56, 70
4, 7560, Note_on_c, 2, 56, 0
4, 7560, Note_on_c, 2, 54, 70
4, 7590, Note_on_c, 2, 54, 0
4, 7590, Note_on_c, 2, 52, 70
4, 7620, Note_on_c, 2, 52, 0
4, 7620, Note_on_c, 2, 54, 70
4, 7650, Note_on_c, 2, 54, 0
4, 7650, Note_on_c, 2, 51, 70
4, 7680, Note_on_c, 2, 51, 0
4, 7680, Note_on_c, 2, 56, 70
4, 7710, Note_on_c, 2, 56, 0
4, 7710, Note_on_c, 2, 54, 70
4, 7740, Note_on_c, 2, 54, 0
4, 7740, Note_on_c, 2, 52, 70
4, 7770, Note_on_c, 2, 52, 0
4, 7770, Note_on_c, 2, 51, 70
4, 7800, Note_on_c, 2, 51, 0
4, 7800, Note_on_c, 2, 52, 70
4, 7830, Note_on_c, 2, 52, 0
4, 7830, Note_on_c, 2, 49, 70
4, 7890, Note_on_c, 2, 49, 0
4, 7920, Note_on_c, 2, 56, 70
4, 7950, Note_on_c, 2, 56, 0
4, 7950, Note_on_c, 2, 54, 70
4, 7980, Note_on_c, 2, 54, 0
4, 7980, Note_on_c, 2, 56, 70
4, 8010, Note_on_c, 2, 56, 0
4, 8010, Note_on_c, 2, 52, 70
4, 8070, Note_on_c, 2, 52, 0
4, 8100, Note_on_c, 2, 59, 70
4, 8130, Note_on_c, 2, 59, 0
4, 8130, Note_on_c, 2, 58, 70
4, 8160, Note_on_c, 2, 58, 0
4, 8160, Note_on_c, 2, 59, 70
4, 8190, Note_on_c, 2, 59, 0
4, 8190, Note_on_c, 2, 56, 70
4, 8250, Note_on_c, 2, 56, 0
4, 8280, Note_on_c, 2, 63, 70
4, 8370, Note_on_c, 2, 63, 0
4, 8370, Note_on_c, 2, 64, 70
4, 8550, Note_on_c, 2, 64, 0
4, 8550, Note_on_c, 2, 63, 70
4, 8580, Note_on_c, 2, 63, 0
4, 8580, Note_on_c, 2, 61, 70
4, 8610, Note_on_c, 2, 61, 0
4, 8610, Note_on_c, 2, 59, 70
4, 8640, Note_on_c, 2, 59, 0
4, 8640, Note_on_c, 2, 66, 70
4, 8700, Note_on_c, 2, 66, 0
4, 8700, Note_on_c, 2, 54, 70
4, 8730, Note_on_c, 2, 54, 0
4, 8730, Note_on_c, 2, 56, 70
4, 8790, Note_on_c, 2, 56, 0
4, 8790, Note_on_c, 2, 58, 70
4, 8820, Note_on_c, 2, 58, 0
4, 8820, Note_on_c, 2, 59, 70
4, 8880, Note_on_c, 2, 59, 0
4, 8880, Note_on_c, 2, 56, 70
4, 8910, Note_on_c, 2, 56, 0
4, 8910, Note_on_c, 2, 58, 70
4, 8970, Note_on_c, 2, 58, 0
4, 8970, Note_on_c, 2, 60, 70
4, 9000, Note_on_c, 2, 60, 0
4, 9000, Note_on_c, 2, 61, 70
4, 9030, Note_on_c, 2, 61, 0
4, 9030, Note_on_c, 2, 59, 70
4, 9060, Note_on_c, 2, 59, 0
4, 9060, Note_on_c, 2, 57, 70
4, 9090, Note_on_c, 2, 57, 0
4, 9090, Note_on_c, 2, 56, 70
4, 9119, Note_on_c, 2, 56, 0
4, 9120, Note_on_c, 2, 57, 70
4, 9149, Note_on_c, 2, 57, 0
4, 9150, Note_on_c, 2, 56, 70
4, 9179, Note_on_c, 2, 56, 0
4, 9180, Note_on_c, 2, 54, 70
4, 9270, Note_on_c, 2, 54, 0
4, 9720, Note_on_c, 2, 56, 70
4, 9750, Note_on_c, 2, 56, 0
4, 9750, Note_on_c, 2, 57, 70
4, 9780, Note_on_c, 2, 57, 0
4, 9780, Note_on_c, 2, 56, 70
4, 9810, Note_on_c, 2, 56, 0
4, 9810, Note_on_c, 2, 54, 70
4, 9840, Note_on_c, 2, 54, 0
4, 9840, Note_on_c, 2, 56, 70
4, 9870, Note_on_c, 2, 56, 0
4, 9870, Note_on_c, 2, 54, 70
4, 9900, Note_on_c, 2, 54, 0
4, 9900, Note_on_c, 2, 61, 70
4, 9930, Note_on_c, 2, 61, 0
4, 9930, Note_on_c, 2, 59, 70
4, 9960, Note_on_c, 2, 59, 0
4, 9960, Note_on_c, 2, 57, 70
4, 9990, Note_on_c, 2, 57, 0
4, 9990, Note_on_c, 2, 56, 70
4, 10020, Note_on_c, 2, 56, 0
4, 10020, Note_on_c, 2, 54, 70
4, 10050, Note_on_c, 2, 54, 0
4, 10050, Note_on_c, 2, 52, 70
4, 10080, Note_on_c, 2, 52, 0
4, 10080, Note_on_c, 2, 51, 70
4, 10110, Note_on_c, 2, 51, 0
4, 10110, Note_on_c, 2, 52, 70
4, 10140, Note_on_c, 2, 52, 0
4, 10140, Note_on_c, 2, 51, 70
4, 10170, Note_on_c, 2, 51, 0
4, 10170, Note_on_c, 2, 54, 70
4, 10200, Note_on_c, 2, 54, 0
4, 10200, Note_on_c, 2, 49, 70
4, 10230, Note_on_c, 2, 49, 0
4, 10230, Note_on_c, 2, 51, 70
4, 10260, Note_on_c, 2, 51, 0
4, 10260, Note_on_c, 2, 52, 70
4, 10290, Note_on_c, 2, 52, 0
4, 10290, Note_on_c, 2, 54, 70
4, 10320, Note_on_c, 2, 54, 0
4, 10320, Note_on_c, 2, 52, 70
4, 10350, Note_on_c, 2, 52, 0
4, 10350, Note_on_c, 2, 56, 70
4, 10380, Note_on_c, 2, 56, 0
4, 10380, Note_on_c, 2, 51, 70
4, 10410, Note_on_c, 2, 51, 0
4, 10410, Note_on_c, 2, 53, 70
4, 10440, Note_on_c, 2, 53, 0
4, 10440, Note_on_c, 2, 54, 70
4, 10710, Note_on_c, 2, 54, 0
4, 10710, Note_on_c, 2, 52, 70
4, 10800, Note_on_c, 2, 52, 0
4, 10800, Note_on_c, 2, 51, 70
4, 10861, Note_on_c, 2, 51, 0
4, 10890, Note_on_c, 2, 56, 70
4, 10951, Note_on_c, 2, 56, 0
4, 10980, Note_on_c, 2, 49, 70
4, 11043, Note_on_c, 2, 49, 0
4, 11070, Note_on_c, 2, 54, 70
4, 11129, Note_on_c, 2, 54, 0
4, 11160, Note_on_c, 2, 47, 70
4, 11219, Note_on_c, 2, 47, 0
4, 11250, Note_on_c, 2, 52, 70
4, 11313, Note_on_c, 2, 52, 0
4, 11340, Note_on_c, 2, 47, 70
4, 11358, Note_on_c, 2, 45, 70
4, 11361, Note_on_c, 2, 47, 0
4, 11370, Note_on_c, 2, 47, 70
4, 11377, Note_on_c, 2, 45, 0
4, 11385, Note_on_c, 2, 45, 70
4, 11391, Note_on_c, 2, 47, 0
4, 11400, Note_on_c, 2, 47, 70
4, 11406, Note_on_c, 2, 45, 0
4, 11415, Note_on_c, 2, 45, 70
4, 11421, Note_on_c, 2, 47, 0
4, 11430, Note_on_c, 2, 47, 70
4, 11440, Note_on_c, 2, 45, 0
4, 11444, Note_on_c, 2, 47, 0
4, 11445, Note_on_c, 2, 45, 70
4, 11452, Note_on_c, 2, 47, 70
4, 11470, Note_on_c, 2, 45, 0
4, 11475, Note_on_c, 2, 45, 70
4, 11479, Note_on_c, 2, 47, 0
4, 11489, Note_on_c, 2, 45, 0
4, 11490, Note_on_c, 2, 44, 70
4, 11505, Note_on_c, 2, 45, 70
4, 11509, Note_on_c, 2, 44, 0
4, 11519, Note_on_c, 2, 45, 0
4, 11520, Note_on_c, 2, 44, 70
4, 11610, Note_on_c, 2, 44, 0
4, 11610, Note_on_c, 2, 46, 70
4, 11700, Note_on_c, 2, 46, 0
4, 11700, Note_on_c, 2, 48, 70
4, 11775, Note_on_c, 2, 48, 0
4, 11790, Note_on_c, 2, 44, 70
4, 11853, Note_on_c, 2, 44, 0
4, 11880, Note_on_c, 2, 49, 70
4, 11970, Note_on_c, 2, 49, 0
4, 11970, Note_on_c, 2, 51, 70
4, 12060, Note_on_c, 2, 51, 0
4, 12060, Note_on_c, 2, 52, 70
4, 12150, Note_on_c, 2, 52, 0
4, 12150, Note_on_c, 2, 53, 70
4, 12240, Note_on_c, 2, 53, 0
4, 12240, Note_on_c, 2, 54, 70
4, 12315, Note_on_c, 2, 54, 0
4, 12330, Note_on_c, 2, 50, 70
4, 12420, Note_on_c, 2, 50, 0
4, 12420, Note_on_c, 2, 49, 70
4, 12510, Note_on_c, 2, 49, 0
4, 12510, Note_on_c, 2, 54, 70
4, 12540, Note_on_c, 2, 54, 0
4, 12540, Note_on_c, 2, 52, 70
4, 12570, Note_on_c, 2, 52, 0
4, 12570, Note_on_c, 2, 54, 70
4, 12600, Note_on_c, 2, 54, 0
4, 12600, Note_on_c, 2, 47, 70
4, 12630, Note_on_c, 2, 47, 0
4, 12630, Note_on_c, 2, 56, 70
4, 12660, Note_on_c, 2, 56, 0
4, 12660, Note_on_c, 2, 54, 70
4, 12690, Note_on_c, 2, 54, 0
4, 12690, Note_on_c, 2, 53, 70
4, 12720, Note_on_c, 2, 53, 0
4, 12720, Note_on_c, 2, 51, 70
4, 12750, Note_on_c, 2, 51, 0
4, 12750, Note_on_c, 2, 53, 70
4, 12780, Note_on_c, 2, 53, 0
4, 12780, Note_on_c, 2, 54, 70
4, 12810, Note_on_c, 2, 54, 0
4, 12810, Note_on_c, 2, 56, 70
4, 12840, Note_on_c, 2, 56, 0
4, 12840, Note_on_c, 2, 52, 70
4, 12870, Note_on_c, 2, 52, 0
4, 12870, Note_on_c, 2, 51, 70
4, 12900, Note_on_c, 2, 51, 0
4, 12900, Note_on_c, 2, 52, 70
4, 12930, Note_on_c, 2, 52, 0
4, 12930, Note_on_c, 2, 49, 70
4, 12960, Note_on_c, 2, 49, 0
4, 12960, Note_on_c, 2, 48, 70
4, 12990, Note_on_c, 2, 48, 0
4, 12990, Note_on_c, 2, 49, 70
4, 13020, Note_on_c, 2, 49, 0
4, 13020, Note_on_c, 2, 51, 70
4, 13050, Note_on_c, 2, 51, 0
4, 13050, Note_on_c, 2, 52, 70
4, 13080, Note_on_c, 2, 52, 0
4, 13080, Note_on_c, 2, 51, 70
4, 13110, Note_on_c, 2, 51, 0
4, 13110, Note_on_c, 2, 49, 70
4, 13140, Note_on_c, 2, 49, 0
4, 13140, Note_on_c, 2, 56, 70
4, 13181, Note_on_c, 2, 56, 0
4, 13200, Note_on_c, 2, 51, 70
4, 13230, Note_on_c, 2, 51, 0
4, 13230, Note_on_c, 2, 56, 70
4, 13320, Note_on_c, 2, 56, 0
4, 13320, Note_on_c, 2, 55, 70
4, 13410, Note_on_c, 2, 55, 0
4, 13410, Note_on_c, 2, 54, 70
4, 13500, Note_on_c, 2, 54, 0
4, 13500, Note_on_c, 2, 53, 70
4, 13557, Note_on_c, 2, 53, 0
4, 13590, Note_on_c, 2, 58, 70
4, 13645, Note_on_c, 2, 58, 0
4, 13680, Note_on_c, 2, 51, 70
4, 13800, Note_on_c, 2, 51, 0
4, 13800, Note_on_c, 2, 52, 70
4, 13830, Note_on_c, 2, 52, 0
4, 13830, Note_on_c, 2, 51, 70
4, 13860, Note_on_c, 2, 51, 0
4, 13860, Note_on_c, 2, 49, 70
4, 13890, Note_on_c, 2, 49, 0
4, 13890, Note_on_c, 2, 47, 70
4, 13920, Note_on_c, 2, 47, 0
4, 13920, Note_on_c, 2, 49, 70
4, 13950, Note_on_c, 2, 49, 0
4, 13950, Note_on_c, 2, 46, 70
4, 13980, Note_on_c, 2, 46, 0
4, 13980, Note_on_c, 2, 51, 70
4, 14010, Note_on_c, 2, 51, 0
4, 14010, Note_on_c, 2, 49, 70
4, 14040, Note_on_c, 2, 49, 0
4, 14040, Note_on_c, 2, 47, 70
4, 14070, Note_on_c, 2, 47, 0
4, 14070, Note_on_c, 2, 46, 70
4, 14100, Note_on_c, 2, 46, 0
4, 14100, Note_on_c, 2, 47, 70
4, 14130, Note_on_c, 2, 47, 0
4, 14130, Note_on_c, 2, 44, 70
4, 14160, Note_on_c, 2, 44, 0
4, 14160, Note_on_c, 2, 49, 70
4, 14190, Note_on_c, 2, 49, 0
4, 14190, Note_on_c, 2, 47, 70
4, 14220, Note_on_c, 2, 47, 0
4, 14220, Note_on_c, 2, 46, 70
4, 14291, Note_on_c, 2, 46, 0
4, 14310, Note_on_c, 2, 51, 70
4, 14381, Note_on_c, 2, 51, 0
4, 14400, Note_on_c, 2, 44, 70
4, 14490, Note_on_c, 2, 44, 0
4, 14580, Note_on_c, 2, 56, 70
4, 14610, Note_on_c, 2, 56, 0
4, 14610, Note_on_c, 2, 54, 70
4, 14640, Note_on_c, 2, 54, 0
4, 14640, Note_on_c, 2, 56, 70
4, 14670, Note_on_c, 2, 56, 0
4, 14670, Note_on_c, 2, 51, 70
4, 14700, Note_on_c, 2, 51, 0
4, 14700, Note_on_c, 2, 56, 70
4, 14730, Note_on_c, 2, 56, 0
4, 14730, Note_on_c, 2, 54, 70
4, 14760, Note_on_c, 2, 54, 0
4, 14760, Note_on_c, 2, 53, 70
4, 14790, Note_on_c, 2, 53, 0
4, 14790, Note_on_c, 2, 51, 70
4, 14820, Note_on_c, 2, 51, 0
4, 14820, Note_on_c, 2, 49, 70
4, 14850, Note_on_c, 2, 49, 0
4, 14850, Note_on_c, 2, 54, 70
4, 15030, Note_on_c, 2, 54, 0
4, 15030, Note_on_c, 2, 52, 70
4, 15210, Note_on_c, 2, 52, 0
4, 15210, Note_on_c, 2, 51, 70
4, 15240, Note_on_c, 2, 51, 0
4, 15240, Note_on_c, 2, 49, 70
4, 15270, Note_on_c, 2, 49, 0
4, 15270, Note_on_c, 2, 47, 70
4, 15300, Note_on_c, 2, 47, 0
4, 15300, Note_on_c, 2, 49, 70
4, 15375, Note_on_c, 2, 49, 0
4, 15390, Note_on_c, 2, 54, 70
4, 15457, Note_on_c, 2, 54, 0
4, 15480, Note_on_c, 2, 47, 70
4, 15570, Note_on_c, 2, 47, 0
4, 15630, Note_on_c, 2, 59, 70
4, 15660, Note_on_c, 2, 59, 0
4, 15660, Note_on_c, 2, 57, 70
4, 15750, Note_on_c, 2, 57, 0
4, 15750, Note_on_c, 2, 56, 70
4, 15840, Note_on_c, 2, 56, 0
4, 15840, Note_on_c, 2, 54, 70
4, 15930, Note_on_c, 2, 54, 0
4, 15930, Note_on_c, 2, 56, 70
4, 16020, Note_on_c, 2, 56, 0
4, 16020, Note_on_c, 2, 58, 70
4, 16110, Note_on_c, 2, 58, 0
4, 16110, Note_on_c, 2, 60, 70
4, 16200, Note_on_c, 2, 60, 0
4, 16200, Note_on_c, 2, 61, 70
4, 16233, Note_on_c, 2, 61, 0
4, 16350, Note_on_c, 2, 49, 70
4, 16380, Note_on_c, 2, 49, 0
4, 16380, Note_on_c, 2, 51, 70
4, 16470, Note_on_c, 2, 51, 0
4, 16530, Note_on_c, 2, 63, 70
4, 16560, Note_on_c, 2, 63, 0
4, 16560, Note_on_c, 2, 64, 70
4, 16590, Note_on_c, 2, 64, 0
4, 16590, Note_on_c, 2, 52, 70
4, 16620, Note_on_c, 2, 52, 0
4, 16620, Note_on_c, 2, 54, 70
4, 16650, Note_on_c, 2, 54, 0
4, 16650, Note_on_c, 2, 56, 70
4, 16680, Note_on_c, 2, 56, 0
4, 16680, Note_on_c, 2, 54, 70
4, 16710, Note_on_c, 2, 54, 0
4, 16710, Note_on_c, 2, 56, 70
4, 16740, Note_on_c, 2, 56, 0
4, 16740, Note_on_c, 2, 57, 70
4, 16770, Note_on_c, 2, 57, 0
4, 16770, Note_on_c, 2, 56, 70
4, 16800, Note_on_c, 2, 56, 0
4, 16800, Note_on_c, 2, 54, 70
4, 16830, Note_on_c, 2, 54, 0
4, 16830, Note_on_c, 2, 53, 70
4, 16860, Note_on_c, 2, 53, 0
4, 16860, Note_on_c, 2, 51, 70
4, 16890, Note_on_c, 2, 51, 0
4, 16890, Note_on_c, 2, 53, 70
4, 16920, Note_on_c, 2, 53, 0
4, 16920, Note_on_c, 2, 54, 70
4, 17100, Note_on_c, 2, 54, 0
4, 17100, Note_on_c, 2, 53, 70
4, 17190, Note_on_c, 2, 53, 0
4, 17190, Note_on_c, 2, 52, 70
4, 17280, Note_on_c, 2, 52, 0
4, 17280, Note_on_c, 2, 51, 70
4, 17353, Note_on_c, 2, 51, 0
4, 17370, Note_on_c, 2, 56, 70
4, 17443, Note_on_c, 2, 56, 0
4, 17460, Note_on_c, 2, 49, 70
4, 17550, Note_on_c, 2, 49, 0
4, 17550, Note_on_c, 2, 47, 70
4, 17640, Note_on_c, 2, 47, 0
4, 17640, Note_on_c, 2, 45, 70
4, 17730, Note_on_c, 2, 45, 0
4, 17790, Note_on_c, 2, 46, 70
4, 17820, Note_on_c, 2, 46, 0
4, 17820, Note_on_c, 2, 47, 70
4, 17910, Note_on_c, 2, 47, 0
4, 17910, Note_on_c, 2, 45, 70
4, 18000, Note_on_c, 2, 45, 0
4, 18000, Note_on_c, 2, 44, 70
4, 18090, Note_on_c, 2, 44, 0
4, 18150, Note_on_c, 2, 56, 70
4, 18180, Note_on_c, 2, 56, 0
4, 18180, Note_on_c, 2, 57, 70
4, 18210, Note_on_c, 2, 57, 0
4, 18210, Note_on_c, 2, 56, 70
4, 18240, Note_on_c, 2, 56, 0
4, 18240, Note_on_c, 2, 57, 70
4, 18270, Note_on_c, 2, 57, 0
4, 18270, Note_on_c, 2, 59, 70
4, 18300, Note_on_c, 2, 59, 0
4, 18300, Note_on_c, 2, 57, 70
4, 18330, Note_on_c, 2, 57, 0
4, 18330, Note_on_c, 2, 59, 70
4, 18360, Note_on_c, 2, 59, 0
4, 18360, Note_on_c, 2, 52, 70
4, 18421, Note_on_c, 2, 52, 0
4, 18450, Note_on_c, 2, 57, 70
4, 18509, Note_on_c, 2, 57, 0
4, 18540, Note_on_c, 2, 51, 70
4, 18630, Note_on_c, 2, 51, 0
4, 18630, Note_on_c, 2, 52, 70
4, 18720, Note_on_c, 2, 52, 0
4, 18720, Note_on_c, 2, 45, 70
4, 18750, Note_on_c, 2, 45, 0
4, 18750, Note_on_c, 2, 47, 70
4, 18780, Note_on_c, 2, 47, 0
4, 18780, Note_on_c, 2, 49, 70
4, 18810, Note_on_c, 2, 49, 0
4, 18810, Note_on_c, 2, 50, 70
4, 18840, Note_on_c, 2, 50, 0
4, 18840, Note_on_c, 2, 52, 70
4, 18870, Note_on_c, 2, 52, 0
4, 18870, Note_on_c, 2, 50, 70
4, 18900, Note_on_c, 2, 50, 0
4, 18900, Note_on_c, 2, 49, 70
4, 18930, Note_on_c, 2, 49, 0
4, 18930, Note_on_c, 2, 47, 70
4, 18960, Note_on_c, 2, 47, 0
4, 18960, Note_on_c, 2, 45, 70
4, 18990, Note_on_c, 2, 45, 0
4, 18990, Note_on_c, 2, 52, 70
4, 19170, Note_on_c, 2, 52, 0
4, 19170, Note_on_c, 2, 51, 70
4, 19260, Note_on_c, 2, 51, 0
4, 19260, Note_on_c, 2, 50, 70
4, 19350, Note_on_c, 2, 50, 0
4, 19350, Note_on_c, 2, 49, 70
4, 19470, Note_on_c, 2, 49, 0
4, 19470, Note_on_c, 2, 48, 70
4, 19500, Note_on_c, 2, 48, 0
4, 19500, Note_on_c, 2, 49, 70
4, 19530, Note_on_c, 2, 49, 0
4, 19530, Note_on_c, 2, 51, 70
4, 19560, Note_on_c, 2, 51, 0
4, 19560, Note_on_c, 2, 49, 70
4, 19590, Note_on_c, 2, 49, 0
4, 19590, Note_on_c, 2, 51, 70
4, 19620, Note_on_c, 2, 51, 0
4, 19620, Note_on_c, 2, 44, 70
4, 19650, Note_on_c, 2, 44, 0
4, 19650, Note_on_c, 2, 46, 70
4, 19680, Note_on_c, 2, 46, 0
4, 19680, Note_on_c, 2, 48, 70
4, 19710, Note_on_c, 2, 48, 0
4, 19710, Note_on_c, 2, 49, 70
4, 19740, Note_on_c, 2, 49, 0
4, 19740, Note_on_c, 2, 51, 70
4, 19770, Note_on_c, 2, 51, 0
4, 19770, Note_on_c, 2, 53, 70
4, 19800, Note_on_c, 2, 53, 0
4, 19800, Note_on_c, 2, 54, 70
4, 19830, Note_on_c, 2, 54, 0
4, 19830, Note_on_c, 2, 52, 70
4, 19860, Note_on_c, 2, 52, 0
4, 19860, Note_on_c, 2, 54, 70
4, 19890, Note_on_c, 2, 54, 0
4, 19890, Note_on_c, 2, 51, 70
4, 19920, Note_on_c, 2, 51, 0
4, 19920, Note_on_c, 2, 56, 70
4, 19950, Note_on_c, 2, 56, 0
4, 19950, Note_on_c, 2, 54, 70
4, 19980, Note_on_c, 2, 54, 0
4, 19980, Note_on_c, 2, 52, 70
4, 20010, Note_on_c, 2, 52, 0
4, 20010, Note_on_c, 2, 51, 70
4, 20040, Note_on_c, 2, 51, 0
4, 20040, Note_on_c, 2, 52, 70
4, 20070, Note_on_c, 2, 52, 0
4, 20070, Note_on_c, 2, 49, 70
4, 20100, Note_on_c, 2, 49, 0
4, 20100, Note_on_c, 2, 54, 70
4, 20130, Note_on_c, 2, 54, 0
4, 20130, Note_on_c, 2, 52, 70
4, 20160, Note_on_c, 2, 52, 0
4, 20160, Note_on_c, 2, 51, 70
4, 20227, Note_on_c, 2, 51, 0
4, 20250, Note_on_c, 2, 56, 70
4, 20323, Note_on_c, 2, 56, 0
4, 20340, Note_on_c, 2, 49, 70
4, 20413, Note_on_c, 2, 49, 0
4, 20430, Note_on_c, 2, 54, 70
4, 20501, Note_on_c, 2, 54, 0
4, 20520, Note_on_c, 2, 59, 70
4, 20591, Note_on_c, 2, 59, 0
4, 20610, Note_on_c, 2, 52, 70
4, 20681, Note_on_c, 2, 52, 0
4, 20700, Note_on_c, 2, 57, 70
4, 20769, Note_on_c, 2, 57, 0
4, 20790, Note_on_c, 2, 51, 70
4, 20861, Note_on_c, 2, 51, 0
4, 20880, Note_on_c, 2, 56, 70
4, 21480, Note_on_c, 2, 56, 0
4, 21480, Note_on_c, 2, 54, 70
4, 21510, Note_on_c, 2, 54, 0
4, 21510, Note_on_c, 2, 52, 70
4, 21570, Note_on_c, 2, 52, 0
4, 21570, Note_on_c, 2, 51, 70
4, 21600, Note_on_c, 2, 51, 0
4, 21600, Note_on_c, 2, 49, 70
4, 21780, Note_on_c, 2, 49, 0
4, 21780, Note_on_c, 2, 48, 70
4, 21870, Note_on_c, 2, 48, 0
4, 21870, Note_on_c, 2, 47, 70
4, 21960, Note_on_c, 2, 47, 0
4, 21960, Note_on_c, 2, 46, 70
4, 22037, Note_on_c, 2, 46, 0
4, 22050, Note_on_c, 2, 51, 70
4, 22121, Note_on_c, 2, 51, 0
4, 22140, Note_on_c, 2, 44, 70
4, 22185, Note_on_c, 2, 44, 0
4, 22230, Note_on_c, 2, 56, 70
4, 22260, Note_on_c, 2, 56, 0
4, 22260, Note_on_c, 2, 54, 70
4, 22290, Note_on_c, 2, 54, 0
4, 22290, Note_on_c, 2, 56, 70
4, 22320, Note_on_c, 2, 56, 0
4, 22320, Note_on_c, 2, 49, 70
4, 22380, Note_on_c, 2, 49, 0
4, 22410, Note_on_c, 2, 49, 70
4, 22440, Note_on_c, 2, 49, 0
4, 22440, Note_on_c, 2, 47, 70
4, 22470, Note_on_c, 2, 47, 0
4, 22470, Note_on_c, 2, 49, 70
4, 22500, Note_on_c, 2, 49, 0
4, 22500, Note_on_c, 2, 42, 70
4, 22541, Note_on_c, 2, 42, 0
4, 22590, Note_on_c, 2, 54, 70
4, 22620, Note_on_c, 2, 54, 0
4, 22620, Note_on_c, 2, 52, 70
4, 22650, Note_on_c, 2, 52, 0
4, 22650, Note_on_c, 2, 54, 70
4, 22680, Note_on_c, 2, 54, 0
4, 22680, Note_on_c, 2, 47, 70
4, 22980, Note_on_c, 2, 47, 0
4, 22980, Note_on_c, 2, 49, 70
4, 23010, Note_on_c, 2, 49, 0
4, 23010, Note_on_c, 2, 50, 70
4, 23040, Note_on_c, 2, 50, 0
4, 23040, Note_on_c, 2, 41, 70
4, 23105, Note_on_c, 2, 41, 0
4, 23130, Note_on_c, 2, 53, 70
4, 23220, Note_on_c, 2, 53, 0
4, 23220, Note_on_c, 2, 54, 70
4, 23280, Note_on_c, 2, 54, 0
4, 23280, Note_on_c, 2, 56, 70
4, 23310, Note_on_c, 2, 56, 0
4, 23310, Note_on_c, 2, 57, 70
4, 23460, Note_on_c, 2, 57, 0
4, 23460, Note_on_c, 2, 56, 70
4, 23490, Note_on_c, 2, 56, 0
4, 23490, Note_on_c, 2, 54, 70
4, 23580, Note_on_c, 2, 54, 0
4, 23580, Note_on_c, 2, 56, 70
4, 23970, Note_on_c, 2, 56, 0
4, 23970, Note_on_c, 2, 54, 70
4, 24000, Note_on_c, 2, 54, 0
4, 24000, Note_on_c, 2, 56, 70
4, 24030, Note_on_c, 2, 56, 0
4, 24030, Note_on_c, 2, 57, 70
4, 24060, Note_on_c, 2, 57, 0
4, 24060, Note_on_c, 2, 56, 70
4, 24090, Note_on_c, 2, 56, 0
4, 24090, Note_on_c, 2, 57, 70
4, 24120, Note_on_c, 2, 57, 0
4, 24120, Note_on_c, 2, 51, 70
4, 24150, Note_on_c, 2, 51, 0
4, 24150, Note_on_c, 2, 52, 70
4, 24180, Note_on_c, 2, 52, 0
4, 24180, Note_on_c, 2, 54, 70
4, 24210, Note_on_c, 2, 54, 0
4, 24210, Note_on_c, 2, 56, 70
4, 24240, Note_on_c, 2, 56, 0
4, 24240, Note_on_c, 2, 58, 70
4, 24270, Note_on_c, 2, 58, 0
4, 24270, Note_on_c, 2, 60, 70
4, 24300, Note_on_c, 2, 60, 0
4, 24300, Note_on_c, 2, 61, 70
4, 24330, Note_on_c, 2, 61, 0
4, 24330, Note_on_c, 2, 60, 70
4, 24360, Note_on_c, 2, 60, 0
4, 24360, Note_on_c, 2, 61, 70
4, 24390, Note_on_c, 2, 61, 0
4, 24390, Note_on_c, 2, 58, 70
4, 24420, Note_on_c, 2, 58, 0
4, 24420, Note_on_c, 2, 63, 70
4, 24450, Note_on_c, 2, 63, 0
4, 24450, Note_on_c, 2, 61, 70
4, 24480, Note_on_c, 2, 61, 0
4, 24480, Note_on_c, 2, 60, 70
4, 24510, Note_on_c, 2, 60, 0
4, 24510, Note_on_c, 2, 58, 70
4, 24540, Note_on_c, 2, 58, 0
4, 24540, Note_on_c, 2, 60, 70
4, 24570, Note_on_c, 2, 60, 0
4, 24570, Note_on_c, 2, 56, 70
4, 24600, Note_on_c, 2, 56, 0
4, 24600, Note_on_c, 2, 61, 70
4, 24630, Note_on_c, 2, 61, 0
4, 24630, Note_on_c, 2, 59, 70
4, 24660, Note_on_c, 2, 59, 0
4, 24660, Note_on_c, 2, 57, 70
4, 24690, Note_on_c, 2, 57, 0
4, 24690, Note_on_c, 2, 56, 70
4, 24720, Note_on_c, 2, 56, 0
4, 24720, Note_on_c, 2, 57, 70
4, 24750, Note_on_c, 2, 57, 0
4, 24750, Note_on_c, 2, 48, 70
4, 24780, Note_on_c, 2, 48, 0
4, 24780, Note_on_c, 2, 49, 70
4, 24810, Note_on_c, 2, 49, 0
4, 24810, Note_on_c, 2, 51, 70
4, 24840, Note_on_c, 2, 51, 0
4, 24840, Note_on_c, 2, 52, 70
4, 24870, Note_on_c, 2, 52, 0
4, 24870, Note_on_c, 2, 51, 70
4, 24900, Note_on_c, 2, 51, 0
4, 24900, Note_on_c, 2, 52, 70
4, 24930, Note_on_c, 2, 52, 0
4, 24930, Note_on_c, 2, 43, 70
4, 24960, Note_on_c, 2, 43, 0
4, 24960, Note_on_c, 2, 44, 70
4, 24990, Note_on_c, 2, 44, 0
4, 24990, Note_on_c, 2, 46, 70
4, 25020, Note_on_c, 2, 46, 0
4, 25020, Note_on_c, 2, 44, 70
4, 25200, Note_on_c, 2, 44, 0
4, 25200, Note_on_c, 2, 37, 70
4, 25290, Note_on_c, 2, 37, 0
4, 25290, End_track
0, 0, End_of_file
