0, 0, Header, 1, 5, 120
1, 0, Start_track
1, 0, Time_signature, 2, 1, 48, 8
1, 0, Key_signature, 2, "major"
1, 0, Tempo, 769231
1, 0, Marker_t, "(c) Yo Tomita, 1997"
1, 23255, Tempo, 774194
1, 23270, Tempo, 779221
1, 23282, Tempo, 784314
1, 23297, Tempo, 789474
1, 23310, Tempo, 794702
1, 23322, Tempo, 800000
1, 23337, Tempo, 805369
1, 23350, Tempo, 810811
1, 23362, Tempo, 816327
1, 23377, Tempo, 821918
1, 23390, Tempo, 827586
1, 23405, Tempo, 833333
1, 23417, Tempo, 839161
1, 23430, Tempo, 845070
1, 23445, Tempo, 851064
1, 23457, Tempo, 857143
1, 23470, Tempo, 863309
1, 23485, Tempo, 869565
1, 23497, Tempo, 875912
1, 23510, Tempo, 882353
1, 23525, Tempo, 888889
1, 23537, Tempo, 895522
1, 23552, Tempo, 902256
1, 23565, Tempo, 909091
1, 23577, Tempo, 916031
1, 23592, Tempo, 923077
1, 23605, Tempo, 930233
1, 23617, Tempo, 937500
1, 23632, Tempo, 944882
1, 23645, Tempo, 952381
1, 23660, Tempo, 960000
1, 23672, Tempo, 967742
1, 23685, Tempo, 975610
1, 23700, Tempo, 983607
1, 23712, Tempo, 991736
1, 23725, Tempo, 1000000
1, 23740, Tempo, 1008403
1, 23747, Tempo, 1445783
1, 23750, Tempo, 1463415
1, 23750, End_track
2, 0, Start_track
2, 0, MIDI_port, 0
2, 0, Title_t, "BWV 874/2"
2, 0, Program_c, 0, 6
2, 1980, Note_on_c, 0, 74, 70
2, 2040, Note_on_c, 0, 74, 0
2, 2040, Note_on_c, 0, 74, 70
2, 2100, Note_on_c, 0, 74, 0
2, 2100, Note_on_c, 0, 74, 70
2, 2160, Note_on_c, 0, 74, 0
2, 2160, Note_on_c, 0, 67, 70
2, 2280, Note_on_c, 0, 67, 0
2, 2280, Note_on_c, 0, 71, 70
2, 2460, Note_on_c, 0, 71, 0
2, 2460, Note_on_c, 0, 64, 70
2, 2520, Note_on_c, 0, 64, 0
2, 2520, Note_on_c, 0, 69, 70
2, 2580, Note_on_c, 0, 69, 0
2, 2580, Note_on_c, 0, 67, 70
2, 2640, Note_on_c, 0, 67, 0
2, 2640, Note_on_c, 0, 66, 70
2, 2880, Note_on_c, 0, 66, 0
2, 2880, Note_on_c, 0, 68, 70
2, 3120, Note_on_c, 0, 68, 0
2, 3120, Note_on_c, 0, 69, 70
2, 3240, Note_on_c, 0, 69, 0
2, 3300, Note_on_c, 0, 64, 70
2, 3360, Note_on_c, 0, 64, 0
2, 3360, Note_on_c, 0, 69, 70
2, 3420, Note_on_c, 0, 69, 0
2, 3420, Note_on_c, 0, 67, 70
2, 3480, Note_on_c, 0, 67, 0
2, 3480, Note_on_c, 0, 66, 70
2, 3720, Note_on_c, 0, 66, 0
2, 3720, Note_on_c, 0, 64, 70
2, 3780, Note_on_c, 0, 64, 0
2, 3780, Note_on_c, 0, 62, 70
2, 3840, Note_on_c, 0, 62, 0
2, 3840, Note_on_c, 0, 61, 70
2, 3960, Note_on_c, 0, 61, 0
2, 3960, Note_on_c, 0, 62, 70
2, 4140, Note_on_c, 0, 62, 0
2, 4140, Note_on_c, 0, 71, 70
2, 4170, Note_on_c, 0, 71, 0
2, 4170, Note_on_c, 0, 69, 70
2, 4200, Note_on_c, 0, 69, 0
2, 4200, Note_on_c, 0, 71, 70
2, 4260, Note_on_c, 0, 71, 0
2, 4260, Note_on_c, 0, 62, 70
2, 4320, Note_on_c, 0, 62, 0
2, 4320, Note_on_c, 0, 61, 70
2, 4440, Note_on_c, 0, 61, 0
2, 4620, Note_on_c, 0, 64, 70
2, 4680, Note_on_c, 0, 64, 0
2, 4680, Note_on_c, 0, 69, 70
2, 4740, Note_on_c, 0, 69, 0
2, 4740, Note_on_c, 0, 67, 70
2, 4800, Note_on_c, 0, 67, 0
2, 4800, Note_on_c, 0, 66, 70
2, 5040, Note_on_c, 0, 66, 0
2, 5100, Note_on_c, 0, 71, 70
2, 5160, Note_on_c, 0, 71, 0
2, 5160, Note_on_c, 0, 71, 70
2, 5220, Note_on_c, 0, 71, 0
2, 5220, Note_on_c, 0, 71, 70
2, 5280, Note_on_c, 0, 71, 0
2, 5280, Note_on_c, 0, 64, 70
2, 5400, Note_on_c, 0, 64, 0
2, 5400, Note_on_c, 0, 67, 70
2, 5580, Note_on_c, 0, 67, 0
2, 5580, Note_on_c, 0, 61, 70
2, 5640, Note_on_c, 0, 61, 0
2, 5640, Note_on_c, 0, 66, 70
2, 5700, Note_on_c, 0, 66, 0
2, 5700, Note_on_c, 0, 64, 70
2, 5760, Note_on_c, 0, 64, 0
2, 5760, Note_on_c, 0, 62, 70
2, 5820, Note_on_c, 0, 62, 0
2, 5820, Note_on_c, 0, 66, 70
2, 5880, Note_on_c, 0, 66, 0
2, 5880, Note_on_c, 0, 71, 70
2, 5940, Note_on_c, 0, 71, 0
2, 5940, Note_on_c, 0, 69, 70
2, 6000, Note_on_c, 0, 69, 0
2, 6000, Note_on_c, 0, 68, 70
2, 6060, Note_on_c, 0, 68, 0
2, 6060, Note_on_c, 0, 71, 70
2, 6120, Note_on_c, 0, 71, 0
2, 6120, Note_on_c, 0, 76, 70
2, 6180, Note_on_c, 0, 76, 0
2, 6180, Note_on_c, 0, 74, 70
2, 6240, Note_on_c, 0, 74, 0
2, 6240, Note_on_c, 0, 73, 70
2, 6360, Note_on_c, 0, 73, 0
2, 6540, Note_on_c, 0, 74, 70
2, 6600, Note_on_c, 0, 74, 0
2, 6600, Note_on_c, 0, 74, 70
2, 6660, Note_on_c, 0, 74, 0
2, 6660, Note_on_c, 0, 74, 70
2, 6720, Note_on_c, 0, 74, 0
2, 6720, Note_on_c, 0, 67, 70
2, 6840, Note_on_c, 0, 67, 0
2, 6840, Note_on_c, 0, 71, 70
2, 7020, Note_on_c, 0, 71, 0
2, 7020, Note_on_c, 0, 64, 70
2, 7080, Note_on_c, 0, 64, 0
2, 7080, Note_on_c, 0, 69, 70
2, 7140, Note_on_c, 0, 69, 0
2, 7140, Note_on_c, 0, 67, 70
2, 7200, Note_on_c, 0, 67, 0
2, 7200, Note_on_c, 0, 66, 70
2, 7320, Note_on_c, 0, 66, 0
2, 7380, Note_on_c, 0, 69, 70
2, 7440, Note_on_c, 0, 69, 0
2, 7440, Note_on_c, 0, 74, 70
2, 7500, Note_on_c, 0, 74, 0
2, 7500, Note_on_c, 0, 72, 70
2, 7560, Note_on_c, 0, 72, 0
2, 7560, Note_on_c, 0, 71, 70
2, 7620, Note_on_c, 0, 71, 0
2, 7620, Note_on_c, 0, 74, 70
2, 7680, Note_on_c, 0, 74, 0
2, 7680, Note_on_c, 0, 79, 70
2, 7800, Note_on_c, 0, 79, 0
2, 7800, Note_on_c, 0, 78, 70
2, 7860, Note_on_c, 0, 78, 0
2, 7860, Note_on_c, 0, 76, 70
2, 7920, Note_on_c, 0, 76, 0
2, 7920, Note_on_c, 0, 81, 70
2, 7980, Note_on_c, 0, 81, 0
2, 7980, Note_on_c, 0, 79, 70
2, 8040, Note_on_c, 0, 79, 0
2, 8040, Note_on_c, 0, 78, 70
2, 8100, Note_on_c, 0, 78, 0
2, 8100, Note_on_c, 0, 76, 70
2, 8160, Note_on_c, 0, 76, 0
2, 8160, Note_on_c, 0, 74, 70
2, 8280, Note_on_c, 0, 74, 0
2, 8280, Note_on_c, 0, 73, 70
2, 8340, Note_on_c, 0, 73, 0
2, 8340, Note_on_c, 0, 71, 70
2, 8400, Note_on_c, 0, 71, 0
2, 8400, Note_on_c, 0, 76, 70
2, 8460, Note_on_c, 0, 76, 0
2, 8460, Note_on_c, 0, 74, 70
2, 8520, Note_on_c, 0, 74, 0
2, 8520, Note_on_c, 0, 73, 70
2, 8580, Note_on_c, 0, 73, 0
2, 8580, Note_on_c, 0, 71, 70
2, 8640, Note_on_c, 0, 71, 0
2, 8640, Note_on_c, 0, 69, 70
2, 8700, Note_on_c, 0, 69, 0
2, 8700, Note_on_c, 0, 73, 70
2, 8760, Note_on_c, 0, 73, 0
2, 8760, Note_on_c, 0, 71, 70
2, 8820, Note_on_c, 0, 71, 0
2, 8820, Note_on_c, 0, 69, 70
2, 8880, Note_on_c, 0, 69, 0
2, 8880, Note_on_c, 0, 68, 70
2, 8940, Note_on_c, 0, 68, 0
2, 8940, Note_on_c, 0, 64, 70
2, 9000, Note_on_c, 0, 64, 0
2, 9000, Note_on_c, 0, 69, 70
2, 9300, Note_on_c, 0, 69, 0
2, 9300, Note_on_c, 0, 68, 70
2, 9360, Note_on_c, 0, 68, 0
2, 9360, Note_on_c, 0, 69, 70
2, 9660, Note_on_c, 0, 69, 0
2, 9660, Note_on_c, 0, 66, 70
2, 9720, Note_on_c, 0, 66, 0
2, 9720, Note_on_c, 0, 71, 70
2, 9780, Note_on_c, 0, 71, 0
2, 9780, Note_on_c, 0, 69, 70
2, 9840, Note_on_c, 0, 69, 0
2, 9840, Note_on_c, 0, 67, 70
2, 9960, Note_on_c, 0, 67, 0
2, 10140, Note_on_c, 0, 78, 70
2, 10200, Note_on_c, 0, 78, 0
2, 10200, Note_on_c, 0, 78, 70
2, 10260, Note_on_c, 0, 78, 0
2, 10260, Note_on_c, 0, 78, 70
2, 10320, Note_on_c, 0, 78, 0
2, 10320, Note_on_c, 0, 71, 70
2, 10440, Note_on_c, 0, 71, 0
2, 10440, Note_on_c, 0, 74, 70
2, 10620, Note_on_c, 0, 74, 0
2, 10620, Note_on_c, 0, 68, 70
2, 10680, Note_on_c, 0, 68, 0
2, 10680, Note_on_c, 0, 73, 70
2, 10740, Note_on_c, 0, 73, 0
2, 10740, Note_on_c, 0, 71, 70
2, 10800, Note_on_c, 0, 71, 0
2, 10800, Note_on_c, 0, 70, 70
2, 10920, Note_on_c, 0, 70, 0
2, 10920, Note_on_c, 0, 71, 70
2, 10980, Note_on_c, 0, 71, 0
2, 10980, Note_on_c, 0, 73, 70
2, 11040, Note_on_c, 0, 73, 0
2, 11040, Note_on_c, 0, 74, 70
2, 11400, Note_on_c, 0, 74, 0
2, 11400, Note_on_c, 0, 73, 70
2, 11820, Note_on_c, 0, 73, 0
2, 11820, Note_on_c, 0, 71, 70
2, 11850, Note_on_c, 0, 71, 0
2, 11850, Note_on_c, 0, 69, 70
2, 11880, Note_on_c, 0, 69, 0
2, 11880, Note_on_c, 0, 68, 70
2, 11940, Note_on_c, 0, 68, 0
2, 11940, Note_on_c, 0, 66, 70
2, 12000, Note_on_c, 0, 66, 0
2, 12000, Note_on_c, 0, 65, 70
2, 12300, Note_on_c, 0, 65, 0
2, 12300, Note_on_c, 0, 61, 70
2, 12360, Note_on_c, 0, 61, 0
2, 12360, Note_on_c, 0, 66, 70
2, 12600, Note_on_c, 0, 66, 0
2, 12600, Note_on_c, 0, 65, 70
2, 12720, Note_on_c, 0, 65, 0
2, 12720, Note_on_c, 0, 66, 70
2, 12840, Note_on_c, 0, 66, 0
2, 12900, Note_on_c, 0, 81, 70
2, 12960, Note_on_c, 0, 81, 0
2, 12960, Note_on_c, 0, 81, 70
2, 13020, Note_on_c, 0, 81, 0
2, 13020, Note_on_c, 0, 81, 70
2, 13080, Note_on_c, 0, 81, 0
2, 13080, Note_on_c, 0, 74, 70
2, 13200, Note_on_c, 0, 74, 0
2, 13200, Note_on_c, 0, 78, 70
2, 13380, Note_on_c, 0, 78, 0
2, 13380, Note_on_c, 0, 71, 70
2, 13440, Note_on_c, 0, 71, 0
2, 13440, Note_on_c, 0, 76, 70
2, 13500, Note_on_c, 0, 76, 0
2, 13500, Note_on_c, 0, 74, 70
2, 13560, Note_on_c, 0, 74, 0
2, 13560, Note_on_c, 0, 73, 70
2, 13680, Note_on_c, 0, 73, 0
2, 13740, Note_on_c, 0, 69, 70
2, 13800, Note_on_c, 0, 69, 0
2, 13800, Note_on_c, 0, 74, 70
2, 13860, Note_on_c, 0, 74, 0
2, 13860, Note_on_c, 0, 72, 70
2, 13920, Note_on_c, 0, 72, 0
2, 13920, Note_on_c, 0, 71, 70
2, 14040, Note_on_c, 0, 71, 0
2, 14100, Note_on_c, 0, 71, 70
2, 14160, Note_on_c, 0, 71, 0
2, 14160, Note_on_c, 0, 76, 70
2, 14220, Note_on_c, 0, 76, 0
2, 14220, Note_on_c, 0, 74, 70
2, 14280, Note_on_c, 0, 74, 0
2, 14280, Note_on_c, 0, 72, 70
2, 14640, Note_on_c, 0, 72, 0
2, 14640, Note_on_c, 0, 71, 70
2, 14940, Note_on_c, 0, 71, 0
2, 14940, Note_on_c, 0, 69, 70
2, 15060, Note_on_c, 0, 69, 0
2, 15060, Note_on_c, 0, 67, 70
2, 15180, Note_on_c, 0, 67, 0
2, 15180, Note_on_c, 0, 66, 70
2, 15210, Note_on_c, 0, 66, 0
2, 15210, Note_on_c, 0, 64, 70
2, 15240, Note_on_c, 0, 64, 0
2, 15240, Note_on_c, 0, 66, 70
2, 15360, Note_on_c, 0, 66, 0
2, 15360, Note_on_c, 0, 67, 70
2, 15420, Note_on_c, 0, 67, 0
2, 15660, Note_on_c, 0, 79, 70
2, 15720, Note_on_c, 0, 79, 0
2, 15720, Note_on_c, 0, 79, 70
2, 15780, Note_on_c, 0, 79, 0
2, 15780, Note_on_c, 0, 79, 70
2, 15840, Note_on_c, 0, 79, 0
2, 15840, Note_on_c, 0, 73, 70
2, 15960, Note_on_c, 0, 73, 0
2, 15960, Note_on_c, 0, 76, 70
2, 16140, Note_on_c, 0, 76, 0
2, 16140, Note_on_c, 0, 69, 70
2, 16200, Note_on_c, 0, 69, 0
2, 16200, Note_on_c, 0, 74, 70
2, 16260, Note_on_c, 0, 74, 0
2, 16260, Note_on_c, 0, 72, 70
2, 16320, Note_on_c, 0, 72, 0
2, 16320, Note_on_c, 0, 71, 70
2, 16620, Note_on_c, 0, 71, 0
2, 16620, Note_on_c, 0, 64, 70
2, 16680, Note_on_c, 0, 64, 0
2, 16680, Note_on_c, 0, 69, 70
2, 16740, Note_on_c, 0, 69, 0
2, 16740, Note_on_c, 0, 67, 70
2, 16800, Note_on_c, 0, 67, 0
2, 16800, Note_on_c, 0, 66, 70
2, 16920, Note_on_c, 0, 66, 0
2, 16920, Note_on_c, 0, 73, 70
2, 17100, Note_on_c, 0, 73, 0
2, 17100, Note_on_c, 0, 66, 70
2, 17160, Note_on_c, 0, 66, 0
2, 17160, Note_on_c, 0, 71, 70
2, 17220, Note_on_c, 0, 71, 0
2, 17220, Note_on_c, 0, 69, 70
2, 17280, Note_on_c, 0, 69, 0
2, 17280, Note_on_c, 0, 67, 70
2, 17700, Note_on_c, 0, 67, 0
2, 17700, Note_on_c, 0, 64, 70
2, 17760, Note_on_c, 0, 64, 0
2, 17760, Note_on_c, 0, 69, 70
2, 17820, Note_on_c, 0, 69, 0
2, 17820, Note_on_c, 0, 67, 70
2, 17880, Note_on_c, 0, 67, 0
2, 17880, Note_on_c, 0, 66, 70
2, 17940, Note_on_c, 0, 66, 0
2, 17940, Note_on_c, 0, 69, 70
2, 18000, Note_on_c, 0, 69, 0
2, 18000, Note_on_c, 0, 74, 70
2, 18060, Note_on_c, 0, 74, 0
2, 18060, Note_on_c, 0, 73, 70
2, 18120, Note_on_c, 0, 73, 0
2, 18120, Note_on_c, 0, 71, 70
2, 18180, Note_on_c, 0, 71, 0
2, 18180, Note_on_c, 0, 74, 70
2, 18240, Note_on_c, 0, 74, 0
2, 18240, Note_on_c, 0, 79, 70
2, 18540, Note_on_c, 0, 79, 0
2, 18540, Note_on_c, 0, 76, 70
2, 18600, Note_on_c, 0, 76, 0
2, 18600, Note_on_c, 0, 81, 70
2, 18660, Note_on_c, 0, 81, 0
2, 18660, Note_on_c, 0, 79, 70
2, 18720, Note_on_c, 0, 79, 0
2, 18720, Note_on_c, 0, 78, 70
2, 18780, Note_on_c, 0, 78, 0
2, 18780, Note_on_c, 0, 79, 70
2, 18840, Note_on_c, 0, 79, 0
2, 18840, Note_on_c, 0, 81, 70
2, 19020, Note_on_c, 0, 81, 0
2, 19020, Note_on_c, 0, 74, 70
2, 19080, Note_on_c, 0, 74, 0
2, 19080, Note_on_c, 0, 79, 70
2, 19140, Note_on_c, 0, 79, 0
2, 19140, Note_on_c, 0, 78, 70
2, 19200, Note_on_c, 0, 78, 0
2, 19200, Note_on_c, 0, 76, 70
2, 19560, Note_on_c, 0, 76, 0
2, 19560, Note_on_c, 0, 74, 70
2, 19620, Note_on_c, 0, 74, 0
2, 19620, Note_on_c, 0, 72, 70
2, 19680, Note_on_c, 0, 72, 0
2, 19680, Note_on_c, 0, 71, 70
2, 19980, Note_on_c, 0, 71, 0
2, 19980, Note_on_c, 0, 64, 70
2, 20040, Note_on_c, 0, 64, 0
2, 20040, Note_on_c, 0, 69, 70
2, 20100, Note_on_c, 0, 69, 0
2, 20100, Note_on_c, 0, 67, 70
2, 20160, Note_on_c, 0, 67, 0
2, 20160, Note_on_c, 0, 66, 70
2, 20280, Note_on_c, 0, 66, 0
2, 20280, Note_on_c, 0, 64, 70
2, 20400, Note_on_c, 0, 64, 0
2, 20400, Note_on_c, 0, 66, 70
2, 20460, Note_on_c, 0, 66, 0
2, 20460, Note_on_c, 0, 68, 70
2, 20520, Note_on_c, 0, 68, 0
2, 20520, Note_on_c, 0, 69, 70
2, 20760, Note_on_c, 0, 69, 0
2, 20760, Note_on_c, 0, 68, 70
2, 20880, Note_on_c, 0, 68, 0
2, 20880, Note_on_c, 0, 69, 70
2, 20940, Note_on_c, 0, 69, 0
2, 20940, Note_on_c, 0, 81, 70
2, 21000, Note_on_c, 0, 81, 0
2, 21000, Note_on_c, 0, 81, 70
2, 21060, Note_on_c, 0, 81, 0
2, 21060, Note_on_c, 0, 81, 70
2, 21120, Note_on_c, 0, 81, 0
2, 21120, Note_on_c, 0, 74, 70
2, 21240, Note_on_c, 0, 74, 0
2, 21240, Note_on_c, 0, 78, 70
2, 21420, Note_on_c, 0, 78, 0
2, 21420, Note_on_c, 0, 71, 70
2, 21480, Note_on_c, 0, 71, 0
2, 21480, Note_on_c, 0, 76, 70
2, 21540, Note_on_c, 0, 76, 0
2, 21540, Note_on_c, 0, 74, 70
2, 21600, Note_on_c, 0, 74, 0
2, 21600, Note_on_c, 0, 73, 70
2, 21840, Note_on_c, 0, 73, 0
2, 21840, Note_on_c, 0, 72, 70
2, 22140, Note_on_c, 0, 72, 0
2, 22140, Note_on_c, 0, 69, 70
2, 22200, Note_on_c, 0, 69, 0
2, 22200, Note_on_c, 0, 74, 70
2, 22260, Note_on_c, 0, 74, 0
2, 22260, Note_on_c, 0, 72, 70
2, 22320, Note_on_c, 0, 72, 0
2, 22320, Note_on_c, 0, 71, 70
2, 22680, Note_on_c, 0, 71, 0
2, 22680, Note_on_c, 0, 69, 70
2, 23160, Note_on_c, 0, 69, 0
2, 23160, Note_on_c, 0, 67, 70
2, 23340, Note_on_c, 0, 67, 0
2, 23340, Note_on_c, 0, 64, 70
2, 23400, Note_on_c, 0, 64, 0
2, 23400, Note_on_c, 0, 69, 70
2, 23460, Note_on_c, 0, 69, 0
2, 23460, Note_on_c, 0, 67, 70
2, 23520, Note_on_c, 0, 67, 0
2, 23520, Note_on_c, 0, 66, 70
2, 23640, Note_on_c, 0, 66, 0
2, 23640, Note_on_c, 0, 64, 70
2, 23760, Note_on_c, 0, 64, 0
2, 23760, Note_on_c, 0, 62, 70
2, 24000, Note_on_c, 0, 62, 0
2, 24000, End_track
3, 0, Start_track
3, 0, MIDI_port, 0
3, 0, Title_t, "Sequenced"
3, 0, Program_c, 1, 6
3, 780, Note_on_c, 1, 69, 70
3, 840, Note_on_c, 1, 69, 0
3, 840, Note_on_c, 1, 69, 70
3, 900, Note_on_c, 1, 69, 0
3, 900, Note_on_c, 1, 69, 70
3, 960, Note_on_c, 1, 69, 0
3, 960, Note_on_c, 1, 62, 70
3, 1080, Note_on_c, 1, 62, 0
3, 1080, Note_on_c, 1, 66, 70
3, 1260, Note_on_c, 1, 66, 0
3, 1260, Note_on_c, 1, 59, 70
3, 1320, Note_on_c, 1, 59, 0
3, 1320, Note_on_c, 1, 64, 70
3, 1380, Note_on_c, 1, 64, 0
3, 1380, Note_on_c, 1, 62, 70
3, 1440, Note_on_c, 1, 62, 0
3, 1440, Note_on_c, 1, 61, 70
3, 1500, Note_on_c, 1, 61, 0
3, 1500, Note_on_c, 1, 64, 70
3, 1560, Note_on_c, 1, 64, 0
3, 1560, Note_on_c, 1, 69, 70
3, 1620, Note_on_c, 1, 69, 0
3, 1620, Note_on_c, 1, 67, 70
3, 1680, Note_on_c, 1, 67, 0
3, 1680, Note_on_c, 1, 66, 70
3, 1800, Note_on_c, 1, 66, 0
3, 1800, Note_on_c, 1, 69, 70
3, 1980, Note_on_c, 1, 69, 0
3, 1980, Note_on_c, 1, 62, 70
3, 2040, Note_on_c, 1, 62, 0
3, 2040, Note_on_c, 1, 67, 70
3, 2100, Note_on_c, 1, 67, 0
3, 2100, Note_on_c, 1, 66, 70
3, 2160, Note_on_c, 1, 66, 0
3, 2160, Note_on_c, 1, 64, 70
3, 2220, Note_on_c, 1, 64, 0
3, 2220, Note_on_c, 1, 66, 70
3, 2280, Note_on_c, 1, 66, 0
3, 2280, Note_on_c, 1, 67, 70
3, 2520, Note_on_c, 1, 67, 0
3, 2520, Note_on_c, 1, 66, 70
3, 2580, Note_on_c, 1, 66, 0
3, 2580, Note_on_c, 1, 64, 70
3, 2640, Note_on_c, 1, 64, 0
3, 2640, Note_on_c, 1, 62, 70
3, 2760, Note_on_c, 1, 62, 0
3, 3060, Note_on_c, 1, 59, 70
3, 3120, Note_on_c, 1, 59, 0
3, 3120, Note_on_c, 1, 64, 70
3, 3180, Note_on_c, 1, 64, 0
3, 3180, Note_on_c, 1, 62, 70
3, 3240, Note_on_c, 1, 62, 0
3, 3240, Note_on_c, 1, 61, 70
3, 3480, Note_on_c, 1, 61, 0
3, 3540, Note_on_c, 1, 57, 70
3, 3600, Note_on_c, 1, 57, 0
3, 3600, Note_on_c, 1, 62, 70
3, 3660, Note_on_c, 1, 62, 0
3, 3660, Note_on_c, 1, 61, 70
3, 3720, Note_on_c, 1, 61, 0
3, 3720, Note_on_c, 1, 59, 70
3, 3840, Note_on_c, 1, 59, 0
3, 3840, Note_on_c, 1, 57, 70
3, 3960, Note_on_c, 1, 57, 0
3, 3960, Note_on_c, 1, 56, 70
3, 4020, Note_on_c, 1, 56, 0
3, 4020, Note_on_c, 1, 54, 70
3, 4080, Note_on_c, 1, 54, 0
3, 4080, Note_on_c, 1, 52, 70
3, 4320, Note_on_c, 1, 52, 0
3, 4380, Note_on_c, 1, 64, 70
3, 4440, Note_on_c, 1, 64, 0
3, 4440, Note_on_c, 1, 64, 70
3, 4500, Note_on_c, 1, 64, 0
3, 4500, Note_on_c, 1, 64, 70
3, 4560, Note_on_c, 1, 64, 0
3, 4560, Note_on_c, 1, 57, 70
3, 4680, Note_on_c, 1, 57, 0
3, 4680, Note_on_c, 1, 60, 70
3, 4860, Note_on_c, 1, 60, 0
3, 4860, Note_on_c, 1, 54, 70
3, 4920, Note_on_c, 1, 54, 0
3, 4920, Note_on_c, 1, 59, 70
3, 4980, Note_on_c, 1, 59, 0
3, 4980, Note_on_c, 1, 57, 70
3, 5040, Note_on_c, 1, 57, 0
3, 5040, Note_on_c, 1, 55, 70
3, 5100, Note_on_c, 1, 55, 0
3, 5100, Note_on_c, 1, 59, 70
3, 5160, Note_on_c, 1, 59, 0
3, 5160, Note_on_c, 1, 64, 70
3, 5220, Note_on_c, 1, 64, 0
3, 5220, Note_on_c, 1, 62, 70
3, 5280, Note_on_c, 1, 62, 0
3, 5280, Note_on_c, 1, 61, 70
3, 5340, Note_on_c, 1, 61, 0
3, 5340, Note_on_c, 1, 59, 70
3, 5400, Note_on_c, 1, 59, 0
3, 5400, Note_on_c, 1, 58, 70
3, 5460, Note_on_c, 1, 58, 0
3, 5460, Note_on_c, 1, 59, 70
3, 5520, Note_on_c, 1, 59, 0
3, 5520, Note_on_c, 1, 61, 70
3, 5580, Note_on_c, 1, 61, 0
3, 5580, Note_on_c, 1, 64, 70
3, 5640, Note_on_c, 1, 64, 0
3, 5640, Note_on_c, 1, 62, 70
3, 5700, Note_on_c, 1, 62, 0
3, 5700, Note_on_c, 1, 61, 70
3, 5760, Note_on_c, 1, 61, 0
3, 5760, Note_on_c, 1, 59, 70
3, 5880, Note_on_c, 1, 59, 0
3, 6300, Note_on_c, 1, 69, 70
3, 6360, Note_on_c, 1, 69, 0
3, 6360, Note_on_c, 1, 69, 70
3, 6420, Note_on_c, 1, 69, 0
3, 6420, Note_on_c, 1, 69, 70
3, 6480, Note_on_c, 1, 69, 0
3, 6480, Note_on_c, 1, 62, 70
3, 6600, Note_on_c, 1, 62, 0
3, 6600, Note_on_c, 1, 66, 70
3, 6780, Note_on_c, 1, 66, 0
3, 6780, Note_on_c, 1, 59, 70
3, 6840, Note_on_c, 1, 59, 0
3, 6840, Note_on_c, 1, 64, 70
3, 6900, Note_on_c, 1, 64, 0
3, 6900, Note_on_c, 1, 62, 70
3, 6960, Note_on_c, 1, 62, 0
3, 6960, Note_on_c, 1, 61, 70
3, 7200, Note_on_c, 1, 61, 0
3, 7260, Note_on_c, 1, 57, 70
3, 7320, Note_on_c, 1, 57, 0
3, 7320, Note_on_c, 1, 62, 70
3, 7380, Note_on_c, 1, 62, 0
3, 7380, Note_on_c, 1, 60, 70
3, 7440, Note_on_c, 1, 60, 0
3, 7440, Note_on_c, 1, 59, 70
3, 7500, Note_on_c, 1, 59, 0
3, 7500, Note_on_c, 1, 62, 70
3, 7560, Note_on_c, 1, 62, 0
3, 7560, Note_on_c, 1, 67, 70
3, 7620, Note_on_c, 1, 67, 0
3, 7620, Note_on_c, 1, 66, 70
3, 7680, Note_on_c, 1, 66, 0
3, 7680, Note_on_c, 1, 64, 70
3, 7740, Note_on_c, 1, 64, 0
3, 7740, Note_on_c, 1, 62, 70
3, 7800, Note_on_c, 1, 62, 0
3, 7800, Note_on_c, 1, 61, 70
3, 7920, Note_on_c, 1, 61, 0
3, 7920, Note_on_c, 1, 62, 70
3, 7980, Note_on_c, 1, 62, 0
3, 7980, Note_on_c, 1, 64, 70
3, 8040, Note_on_c, 1, 64, 0
3, 8040, Note_on_c, 1, 66, 70
3, 8280, Note_on_c, 1, 66, 0
3, 8280, Note_on_c, 1, 68, 70
3, 8520, Note_on_c, 1, 68, 0
3, 8520, Note_on_c, 1, 69, 70
3, 8580, Note_on_c, 1, 69, 0
3, 8580, Note_on_c, 1, 64, 70
3, 8640, Note_on_c, 1, 64, 0
3, 8640, Note_on_c, 1, 69, 70
3, 8700, Note_on_c, 1, 69, 0
3, 8700, Note_on_c, 1, 68, 70
3, 8760, Note_on_c, 1, 68, 0
3, 8760, Note_on_c, 1, 66, 70
3, 8880, Note_on_c, 1, 66, 0
3, 8880, Note_on_c, 1, 64, 70
3, 9000, Note_on_c, 1, 64, 0
3, 9000, Note_on_c, 1, 62, 70
3, 9060, Note_on_c, 1, 62, 0
3, 9060, Note_on_c, 1, 61, 70
3, 9120, Note_on_c, 1, 61, 0
3, 9120, Note_on_c, 1, 59, 70
3, 9180, Note_on_c, 1, 59, 0
3, 9180, Note_on_c, 1, 61, 70
3, 9240, Note_on_c, 1, 61, 0
3, 9240, Note_on_c, 1, 62, 70
3, 9420, Note_on_c, 1, 62, 0
3, 9420, Note_on_c, 1, 61, 70
3, 9480, Note_on_c, 1, 61, 0
3, 9480, Note_on_c, 1, 66, 70
3, 9540, Note_on_c, 1, 66, 0
3, 9540, Note_on_c, 1, 64, 70
3, 9600, Note_on_c, 1, 64, 0
3, 9600, Note_on_c, 1, 63, 70
3, 9720, Note_on_c, 1, 63, 0
3, 9900, Note_on_c, 1, 59, 70
3, 9960, Note_on_c, 1, 59, 0
3, 9960, Note_on_c, 1, 64, 70
3, 10020, Note_on_c, 1, 64, 0
3, 10020, Note_on_c, 1, 62, 70
3, 10080, Note_on_c, 1, 62, 0
3, 10080, Note_on_c, 1, 61, 70
3, 10140, Note_on_c, 1, 61, 0
3, 10380, Note_on_c, 1, 71, 70
3, 10440, Note_on_c, 1, 71, 0
3, 10440, Note_on_c, 1, 71, 70
3, 10500, Note_on_c, 1, 71, 0
3, 10500, Note_on_c, 1, 71, 70
3, 10560, Note_on_c, 1, 71, 0
3, 10560, Note_on_c, 1, 64, 70
3, 10680, Note_on_c, 1, 64, 0
3, 10680, Note_on_c, 1, 67, 70
3, 10860, Note_on_c, 1, 67, 0
3, 10860, Note_on_c, 1, 61, 70
3, 10920, Note_on_c, 1, 61, 0
3, 10920, Note_on_c, 1, 66, 70
3, 10980, Note_on_c, 1, 66, 0
3, 10980, Note_on_c, 1, 64, 70
3, 11040, Note_on_c, 1, 64, 0
3, 11040, Note_on_c, 1, 62, 70
3, 11100, Note_on_c, 1, 62, 0
3, 11100, Note_on_c, 1, 66, 70
3, 11160, Note_on_c, 1, 66, 0
3, 11160, Note_on_c, 1, 71, 70
3, 11220, Note_on_c, 1, 71, 0
3, 11220, Note_on_c, 1, 69, 70
3, 11280, Note_on_c, 1, 69, 0
3, 11280, Note_on_c, 1, 68, 70
3, 11580, Note_on_c, 1, 68, 0
3, 11580, Note_on_c, 1, 61, 70
3, 11640, Note_on_c, 1, 61, 0
3, 11640, Note_on_c, 1, 66, 70
3, 11700, Note_on_c, 1, 66, 0
3, 11700, Note_on_c, 1, 64, 70
3, 11760, Note_on_c, 1, 64, 0
3, 11760, Note_on_c, 1, 62, 70
3, 11940, Note_on_c, 1, 62, 0
3, 11940, Note_on_c, 1, 61, 70
3, 12000, Note_on_c, 1, 61, 0
3, 12000, Note_on_c, 1, 59, 70
3, 12300, Note_on_c, 1, 59, 0
3, 12300, Note_on_c, 1, 57, 70
3, 12330, Note_on_c, 1, 57, 0
3, 12330, Note_on_c, 1, 59, 70
3, 12360, Note_on_c, 1, 59, 0
3, 12360, Note_on_c, 1, 61, 70
3, 12420, Note_on_c, 1, 61, 0
3, 12420, Note_on_c, 1, 62, 70
3, 12480, Note_on_c, 1, 62, 0
3, 12480, Note_on_c, 1, 61, 70
3, 12660, Note_on_c, 1, 61, 0
3, 12660, Note_on_c, 1, 59, 70
3, 12720, Note_on_c, 1, 59, 0
3, 12720, Note_on_c, 1, 57, 70
3, 12780, Note_on_c, 1, 57, 0
3, 13020, Note_on_c, 1, 69, 70
3, 13080, Note_on_c, 1, 69, 0
3, 13080, Note_on_c, 1, 69, 70
3, 13140, Note_on_c, 1, 69, 0
3, 13140, Note_on_c, 1, 69, 70
3, 13200, Note_on_c, 1, 69, 0
3, 13200, Note_on_c, 1, 62, 70
3, 13260, Note_on_c, 1, 62, 0
3, 13500, Note_on_c, 1, 64, 70
3, 13560, Note_on_c, 1, 64, 0
3, 13560, Note_on_c, 1, 69, 70
3, 13620, Note_on_c, 1, 69, 0
3, 13620, Note_on_c, 1, 67, 70
3, 13680, Note_on_c, 1, 67, 0
3, 13680, Note_on_c, 1, 66, 70
3, 13800, Note_on_c, 1, 66, 0
3, 13860, Note_on_c, 1, 62, 70
3, 13920, Note_on_c, 1, 62, 0
3, 13920, Note_on_c, 1, 67, 70
3, 13980, Note_on_c, 1, 67, 0
3, 13980, Note_on_c, 1, 66, 70
3, 14040, Note_on_c, 1, 66, 0
3, 14040, Note_on_c, 1, 64, 70
3, 14160, Note_on_c, 1, 64, 0
3, 14340, Note_on_c, 1, 64, 70
3, 14400, Note_on_c, 1, 64, 0
3, 14400, Note_on_c, 1, 69, 70
3, 14460, Note_on_c, 1, 69, 0
3, 14460, Note_on_c, 1, 67, 70
3, 14520, Note_on_c, 1, 67, 0
3, 14520, Note_on_c, 1, 66, 70
3, 14580, Note_on_c, 1, 66, 0
3, 14580, Note_on_c, 1, 62, 70
3, 14640, Note_on_c, 1, 62, 0
3, 14640, Note_on_c, 1, 67, 70
3, 14700, Note_on_c, 1, 67, 0
3, 14700, Note_on_c, 1, 66, 70
3, 14760, Note_on_c, 1, 66, 0
3, 14760, Note_on_c, 1, 64, 70
3, 14820, Note_on_c, 1, 64, 0
3, 14820, Note_on_c, 1, 62, 70
3, 14880, Note_on_c, 1, 62, 0
3, 14880, Note_on_c, 1, 60, 70
3, 15000, Note_on_c, 1, 60, 0
3, 15000, Note_on_c, 1, 59, 70
3, 15120, Note_on_c, 1, 59, 0
3, 15120, Note_on_c, 1, 64, 70
3, 15240, Note_on_c, 1, 64, 0
3, 15240, Note_on_c, 1, 62, 70
3, 15420, Note_on_c, 1, 62, 0
3, 15540, Note_on_c, 1, 71, 70
3, 15600, Note_on_c, 1, 71, 0
3, 15600, Note_on_c, 1, 71, 70
3, 15660, Note_on_c, 1, 71, 0
3, 15660, Note_on_c, 1, 71, 70
3, 15720, Note_on_c, 1, 71, 0
3, 15720, Note_on_c, 1, 64, 70
3, 15840, Note_on_c, 1, 64, 0
3, 15840, Note_on_c, 1, 67, 70
3, 16020, Note_on_c, 1, 67, 0
3, 16020, Note_on_c, 1, 61, 70
3, 16080, Note_on_c, 1, 61, 0
3, 16080, Note_on_c, 1, 66, 70
3, 16140, Note_on_c, 1, 66, 0
3, 16140, Note_on_c, 1, 64, 70
3, 16200, Note_on_c, 1, 64, 0
3, 16200, Note_on_c, 1, 62, 70
3, 16440, Note_on_c, 1, 62, 0
3, 16500, Note_on_c, 1, 59, 70
3, 16560, Note_on_c, 1, 59, 0
3, 16560, Note_on_c, 1, 64, 70
3, 16620, Note_on_c, 1, 64, 0
3, 16620, Note_on_c, 1, 62, 70
3, 16680, Note_on_c, 1, 62, 0
3, 16680, Note_on_c, 1, 61, 70
3, 16920, Note_on_c, 1, 61, 0
3, 16980, Note_on_c, 1, 61, 70
3, 17040, Note_on_c, 1, 61, 0
3, 17040, Note_on_c, 1, 66, 70
3, 17100, Note_on_c, 1, 66, 0
3, 17100, Note_on_c, 1, 64, 70
3, 17160, Note_on_c, 1, 64, 0
3, 17160, Note_on_c, 1, 62, 70
3, 17400, Note_on_c, 1, 62, 0
3, 17460, Note_on_c, 1, 59, 70
3, 17520, Note_on_c, 1, 59, 0
3, 17520, Note_on_c, 1, 64, 70
3, 17580, Note_on_c, 1, 64, 0
3, 17580, Note_on_c, 1, 62, 70
3, 17640, Note_on_c, 1, 62, 0
3, 17640, Note_on_c, 1, 61, 70
3, 17820, Note_on_c, 1, 61, 0
3, 17820, Note_on_c, 1, 61, 70
3, 17880, Note_on_c, 1, 61, 0
3, 17880, Note_on_c, 1, 66, 70
3, 17940, Note_on_c, 1, 66, 0
3, 17940, Note_on_c, 1, 64, 70
3, 18000, Note_on_c, 1, 64, 0
3, 18000, Note_on_c, 1, 62, 70
3, 18060, Note_on_c, 1, 62, 0
3, 18060, Note_on_c, 1, 66, 70
3, 18120, Note_on_c, 1, 66, 0
3, 18120, Note_on_c, 1, 71, 70
3, 18180, Note_on_c, 1, 71, 0
3, 18180, Note_on_c, 1, 69, 70
3, 18240, Note_on_c, 1, 69, 0
3, 18240, Note_on_c, 1, 67, 70
3, 18300, Note_on_c, 1, 67, 0
3, 18300, Note_on_c, 1, 71, 70
3, 18360, Note_on_c, 1, 71, 0
3, 18360, Note_on_c, 1, 76, 70
3, 18420, Note_on_c, 1, 76, 0
3, 18420, Note_on_c, 1, 74, 70
3, 18480, Note_on_c, 1, 74, 0
3, 18480, Note_on_c, 1, 73, 70
3, 18720, Note_on_c, 1, 73, 0
3, 18720, Note_on_c, 1, 74, 70
3, 18780, Note_on_c, 1, 74, 0
3, 18780, Note_on_c, 1, 76, 70
3, 18840, Note_on_c, 1, 76, 0
3, 18840, Note_on_c, 1, 78, 70
3, 19020, Note_on_c, 1, 78, 0
3, 19020, Note_on_c, 1, 71, 70
3, 19080, Note_on_c, 1, 71, 0
3, 19080, Note_on_c, 1, 76, 70
3, 19140, Note_on_c, 1, 76, 0
3, 19140, Note_on_c, 1, 74, 70
3, 19200, Note_on_c, 1, 74, 0
3, 19200, Note_on_c, 1, 73, 70
3, 19320, Note_on_c, 1, 73, 0
3, 19380, Note_on_c, 1, 64, 70
3, 19440, Note_on_c, 1, 64, 0
3, 19440, Note_on_c, 1, 69, 70
3, 19500, Note_on_c, 1, 69, 0
3, 19500, Note_on_c, 1, 67, 70
3, 19560, Note_on_c, 1, 67, 0
3, 19560, Note_on_c, 1, 66, 70
3, 19620, Note_on_c, 1, 66, 0
3, 19620, Note_on_c, 1, 64, 70
3, 19680, Note_on_c, 1, 64, 0
3, 19680, Note_on_c, 1, 62, 70
3, 19800, Note_on_c, 1, 62, 0
3, 19800, Note_on_c, 1, 61, 70
3, 19860, Note_on_c, 1, 61, 0
3, 19860, Note_on_c, 1, 62, 70
3, 19920, Note_on_c, 1, 62, 0
3, 19920, Note_on_c, 1, 64, 70
3, 19980, Note_on_c, 1, 64, 0
3, 19980, Note_on_c, 1, 62, 70
3, 20040, Note_on_c, 1, 62, 0
3, 20040, Note_on_c, 1, 61, 70
3, 20100, Note_on_c, 1, 61, 0
3, 20100, Note_on_c, 1, 64, 70
3, 20220, Note_on_c, 1, 64, 0
3, 20220, Note_on_c, 1, 62, 70
3, 20340, Note_on_c, 1, 62, 0
3, 20340, Note_on_c, 1, 61, 70
3, 20400, Note_on_c, 1, 61, 0
3, 20400, Note_on_c, 1, 60, 70
3, 20460, Note_on_c, 1, 60, 0
3, 20460, Note_on_c, 1, 59, 70
3, 20520, Note_on_c, 1, 59, 0
3, 20520, Note_on_c, 1, 57, 70
3, 20580, Note_on_c, 1, 57, 0
3, 20580, Note_on_c, 1, 60, 70
3, 20640, Note_on_c, 1, 60, 0
3, 20640, Note_on_c, 1, 62, 70
3, 20700, Note_on_c, 1, 62, 0
3, 20700, Note_on_c, 1, 64, 70
3, 20730, Note_on_c, 1, 64, 0
3, 20730, Note_on_c, 1, 65, 70
3, 20760, Note_on_c, 1, 65, 0
3, 20760, Note_on_c, 1, 64, 70
3, 20940, Note_on_c, 1, 64, 0
3, 21060, Note_on_c, 1, 78, 70
3, 21120, Note_on_c, 1, 78, 0
3, 21120, Note_on_c, 1, 78, 70
3, 21180, Note_on_c, 1, 78, 0
3, 21180, Note_on_c, 1, 78, 70
3, 21240, Note_on_c, 1, 78, 0
3, 21240, Note_on_c, 1, 71, 70
3, 21360, Note_on_c, 1, 71, 0
3, 21360, Note_on_c, 1, 74, 70
3, 21540, Note_on_c, 1, 74, 0
3, 21540, Note_on_c, 1, 68, 70
3, 21600, Note_on_c, 1, 68, 0
3, 21600, Note_on_c, 1, 73, 70
3, 21660, Note_on_c, 1, 73, 0
3, 21660, Note_on_c, 1, 71, 70
3, 21720, Note_on_c, 1, 71, 0
3, 21720, Note_on_c, 1, 69, 70
3, 21900, Note_on_c, 1, 69, 0
3, 21900, Note_on_c, 1, 67, 70
3, 21960, Note_on_c, 1, 67, 0
3, 21960, Note_on_c, 1, 66, 70
3, 22020, Note_on_c, 1, 66, 0
3, 22020, Note_on_c, 1, 64, 70
3, 22080, Note_on_c, 1, 64, 0
3, 22080, Note_on_c, 1, 66, 70
3, 22320, Note_on_c, 1, 66, 0
3, 22380, Note_on_c, 1, 62, 70
3, 22440, Note_on_c, 1, 62, 0
3, 22440, Note_on_c, 1, 67, 70
3, 22500, Note_on_c, 1, 67, 0
3, 22500, Note_on_c, 1, 66, 70
3, 22560, Note_on_c, 1, 66, 0
3, 22560, Note_on_c, 1, 64, 70
3, 22620, Note_on_c, 1, 64, 0
3, 22620, Note_on_c, 1, 62, 70
3, 22680, Note_on_c, 1, 62, 0
3, 22680, Note_on_c, 1, 61, 70
3, 22800, Note_on_c, 1, 61, 0
3, 22860, Note_on_c, 1, 57, 70
3, 22920, Note_on_c, 1, 57, 0
3, 22920, Note_on_c, 1, 62, 70
3, 22980, Note_on_c, 1, 62, 0
3, 22980, Note_on_c, 1, 60, 70
3, 23040, Note_on_c, 1, 60, 0
3, 23040, Note_on_c, 1, 59, 70
3, 23220, Note_on_c, 1, 59, 0
3, 23220, Note_on_c, 1, 59, 70
3, 23280, Note_on_c, 1, 59, 0
3, 23280, Note_on_c, 1, 64, 70
3, 23340, Note_on_c, 1, 64, 0
3, 23340, Note_on_c, 1, 62, 70
3, 23400, Note_on_c, 1, 62, 0
3, 23400, Note_on_c, 1, 61, 70
3, 23460, Note_on_c, 1, 61, 0
3, 23460, Note_on_c, 1, 64, 70
3, 23580, Note_on_c, 1, 64, 0
3, 23580, Note_on_c, 1, 62, 70
3, 23700, Note_on_c, 1, 62, 0
3, 23700, Note_on_c, 1, 61, 70
3, 23760, Note_on_c, 1, 61, 0
3, 23760, Note_on_c, 1, 57, 70
3, 24000, Note_on_c, 1, 57, 0
3, 24000, End_track
4, 0, Start_track
4, 0, MIDI_port, 0
4, 0, Title_t, "by"
4, 0, Program_c, 2, 6
4, 60, Note_on_c, 2, 62, 70
4, 120, Note_on_c, 2, 62, 0
4, 120, Note_on_c, 2, 62, 70
4, 180, Note_on_c, 2, 62, 0
4, 180, Note_on_c, 2, 62, 70
4, 240, Note_on_c, 2, 62, 0
4, 240, Note_on_c, 2, 55, 70
4, 360, Note_on_c, 2, 55, 0
4, 360, Note_on_c, 2, 59, 70
4, 540, Note_on_c, 2, 59, 0
4, 540, Note_on_c, 2, 52, 70
4, 600, Note_on_c, 2, 52, 0
4, 600, Note_on_c, 2, 57, 70
4, 660, Note_on_c, 2, 57, 0
4, 660, Note_on_c, 2, 55, 70
4, 720, Note_on_c, 2, 55, 0
4, 720, Note_on_c, 2, 54, 70
4, 840, Note_on_c, 2, 54, 0
4, 840, Note_on_c, 2, 50, 70
4, 960, Note_on_c, 2, 50, 0
4, 1020, Note_on_c, 2, 54, 70
4, 1080, Note_on_c, 2, 54, 0
4, 1080, Note_on_c, 2, 59, 70
4, 1140, Note_on_c, 2, 59, 0
4, 1140, Note_on_c, 2, 57, 70
4, 1200, Note_on_c, 2, 57, 0
4, 1200, Note_on_c, 2, 56, 70
4, 1440, Note_on_c, 2, 56, 0
4, 1440, Note_on_c, 2, 57, 70
4, 1560, Note_on_c, 2, 57, 0
4, 1560, Note_on_c, 2, 61, 70
4, 1680, Note_on_c, 2, 61, 0
4, 1740, Note_on_c, 2, 57, 70
4, 1800, Note_on_c, 2, 57, 0
4, 1800, Note_on_c, 2, 62, 70
4, 1860, Note_on_c, 2, 62, 0
4, 1860, Note_on_c, 2, 61, 70
4, 1920, Note_on_c, 2, 61, 0
4, 1920, Note_on_c, 2, 59, 70
4, 2160, Note_on_c, 2, 59, 0
4, 2220, Note_on_c, 2, 59, 70
4, 2280, Note_on_c, 2, 59, 0
4, 2280, Note_on_c, 2, 64, 70
4, 2340, Note_on_c, 2, 64, 0
4, 2340, Note_on_c, 2, 62, 70
4, 2400, Note_on_c, 2, 62, 0
4, 2400, Note_on_c, 2, 61, 70
4, 2640, Note_on_c, 2, 61, 0
4, 2700, Note_on_c, 2, 57, 70
4, 2760, Note_on_c, 2, 57, 0
4, 2760, Note_on_c, 2, 62, 70
4, 2820, Note_on_c, 2, 62, 0
4, 2820, Note_on_c, 2, 61, 70
4, 2880, Note_on_c, 2, 61, 0
4, 2880, Note_on_c, 2, 59, 70
4, 3120, Note_on_c, 2, 59, 0
4, 3180, Note_on_c, 2, 52, 70
4, 3240, Note_on_c, 2, 52, 0
4, 3240, Note_on_c, 2, 57, 70
4, 3300, Note_on_c, 2, 57, 0
4, 3300, Note_on_c, 2, 55, 70
4, 3360, Note_on_c, 2, 55, 0
4, 3360, Note_on_c, 2, 54, 70
4, 3420, Note_on_c, 2, 54, 0
4, 3420, Note_on_c, 2, 52, 70
4, 3480, Note_on_c, 2, 52, 0
4, 3480, Note_on_c, 2, 50, 70
4, 3600, Note_on_c, 2, 50, 0
4, 3660, Note_on_c, 2, 50, 70
4, 3720, Note_on_c, 2, 50, 0
4, 3720, Note_on_c, 2, 55, 70
4, 3780, Note_on_c, 2, 55, 0
4, 3780, Note_on_c, 2, 54, 70
4, 3840, Note_on_c, 2, 54, 0
4, 3840, Note_on_c, 2, 52, 70
4, 3960, Note_on_c, 2, 52, 0
4, 3960, Note_on_c, 2, 50, 70
4, 4020, Note_on_c, 2, 50, 0
4, 4020, Note_on_c, 2, 49, 70
4, 4080, Note_on_c, 2, 49, 0
4, 4080, Note_on_c, 2, 47, 70
4, 4320, Note_on_c, 2, 47, 0
4, 4320, Note_on_c, 2, 52, 70
4, 4620, Note_on_c, 2, 52, 0
4, 4620, Note_on_c, 2, 55, 70
4, 4680, Note_on_c, 2, 55, 0
4, 4680, Note_on_c, 2, 54, 70
4, 4740, Note_on_c, 2, 54, 0
4, 4740, Note_on_c, 2, 52, 70
4, 4800, Note_on_c, 2, 52, 0
4, 4800, Note_on_c, 2, 51, 70
4, 5040, Note_on_c, 2, 51, 0
4, 5040, Note_on_c, 2, 52, 70
4, 5100, Note_on_c, 2, 52, 0
4, 5100, Note_on_c, 2, 50, 70
4, 5160, Note_on_c, 2, 50, 0
4, 5160, Note_on_c, 2, 55, 70
4, 5400, Note_on_c, 2, 55, 0
4, 5400, Note_on_c, 2, 49, 70
4, 5460, Note_on_c, 2, 49, 0
4, 5460, Note_on_c, 2, 50, 70
4, 5520, Note_on_c, 2, 50, 0
4, 5520, Note_on_c, 2, 52, 70
4, 5580, Note_on_c, 2, 52, 0
4, 5580, Note_on_c, 2, 55, 70
4, 5640, Note_on_c, 2, 55, 0
4, 5640, Note_on_c, 2, 54, 70
4, 5820, Note_on_c, 2, 54, 0
4, 5820, Note_on_c, 2, 57, 70
4, 5880, Note_on_c, 2, 57, 0
4, 5880, Note_on_c, 2, 56, 70
4, 5940, Note_on_c, 2, 56, 0
4, 5940, Note_on_c, 2, 54, 70
4, 6000, Note_on_c, 2, 54, 0
4, 6000, Note_on_c, 2, 52, 70
4, 6300, Note_on_c, 2, 52, 0
4, 6300, Note_on_c, 2, 52, 70
4, 6360, Note_on_c, 2, 52, 0
4, 6360, Note_on_c, 2, 57, 70
4, 6420, Note_on_c, 2, 57, 0
4, 6420, Note_on_c, 2, 55, 70
4, 6480, Note_on_c, 2, 55, 0
4, 6480, Note_on_c, 2, 54, 70
4, 6540, Note_on_c, 2, 54, 0
4, 6540, Note_on_c, 2, 52, 70
4, 6600, Note_on_c, 2, 52, 0
4, 6600, Note_on_c, 2, 50, 70
4, 6720, Note_on_c, 2, 50, 0
4, 6720, Note_on_c, 2, 52, 70
4, 6780, Note_on_c, 2, 52, 0
4, 6780, Note_on_c, 2, 54, 70
4, 6840, Note_on_c, 2, 54, 0
4, 6840, Note_on_c, 2, 55, 70
4, 7020, Note_on_c, 2, 55, 0
4, 7020, Note_on_c, 2, 55, 70
4, 7080, Note_on_c, 2, 55, 0
4, 7080, Note_on_c, 2, 54, 70
4, 7140, Note_on_c, 2, 54, 0
4, 7140, Note_on_c, 2, 52, 70
4, 7200, Note_on_c, 2, 52, 0
4, 7200, Note_on_c, 2, 50, 70
4, 7320, Note_on_c, 2, 50, 0
4, 7740, Note_on_c, 2, 52, 70
4, 7800, Note_on_c, 2, 52, 0
4, 7800, Note_on_c, 2, 57, 70
4, 7860, Note_on_c, 2, 57, 0
4, 7860, Note_on_c, 2, 55, 70
4, 7920, Note_on_c, 2, 55, 0
4, 7920, Note_on_c, 2, 54, 70
4, 7980, Note_on_c, 2, 54, 0
4, 7980, Note_on_c, 2, 57, 70
4, 8040, Note_on_c, 2, 57, 0
4, 8040, Note_on_c, 2, 62, 70
4, 8100, Note_on_c, 2, 62, 0
4, 8100, Note_on_c, 2, 61, 70
4, 8160, Note_on_c, 2, 61, 0
4, 8160, Note_on_c, 2, 59, 70
4, 8280, Note_on_c, 2, 59, 0
4, 8460, Note_on_c, 2, 59, 70
4, 8520, Note_on_c, 2, 59, 0
4, 8520, Note_on_c, 2, 61, 70
4, 8700, Note_on_c, 2, 61, 0
4, 8700, Note_on_c, 2, 57, 70
4, 8760, Note_on_c, 2, 57, 0
4, 8760, Note_on_c, 2, 62, 70
4, 8820, Note_on_c, 2, 62, 0
4, 8820, Note_on_c, 2, 61, 70
4, 8880, Note_on_c, 2, 61, 0
4, 8880, Note_on_c, 2, 59, 70
4, 9000, Note_on_c, 2, 59, 0
4, 9000, Note_on_c, 2, 57, 70
4, 9060, Note_on_c, 2, 57, 0
4, 9060, Note_on_c, 2, 56, 70
4, 9120, Note_on_c, 2, 56, 0
4, 9120, Note_on_c, 2, 54, 70
4, 9240, Note_on_c, 2, 54, 0
4, 9240, Note_on_c, 2, 52, 70
4, 9480, Note_on_c, 2, 52, 0
4, 9660, Note_on_c, 2, 59, 70
4, 9720, Note_on_c, 2, 59, 0
4, 9720, Note_on_c, 2, 59, 70
4, 9780, Note_on_c, 2, 59, 0
4, 9780, Note_on_c, 2, 59, 70
4, 9840, Note_on_c, 2, 59, 0
4, 9840, Note_on_c, 2, 52, 70
4, 9960, Note_on_c, 2, 52, 0
4, 9960, Note_on_c, 2, 55, 70
4, 10140, Note_on_c, 2, 55, 0
4, 10140, Note_on_c, 2, 49, 70
4, 10200, Note_on_c, 2, 49, 0
4, 10200, Note_on_c, 2, 54, 70
4, 10260, Note_on_c, 2, 54, 0
4, 10260, Note_on_c, 2, 52, 70
4, 10320, Note_on_c, 2, 52, 0
4, 10320, Note_on_c, 2, 51, 70
4, 10380, Note_on_c, 2, 51, 0
4, 10380, Note_on_c, 2, 53, 70
4, 10410, Note_on_c, 2, 53, 0
4, 10410, Note_on_c, 2, 54, 70
4, 10440, Note_on_c, 2, 54, 0
4, 10440, Note_on_c, 2, 53, 70
4, 10560, Note_on_c, 2, 53, 0
4, 10620, Note_on_c, 2, 59, 70
4, 10680, Note_on_c, 2, 59, 0
4, 10680, Note_on_c, 2, 58, 70
4, 10740, Note_on_c, 2, 58, 0
4, 10740, Note_on_c, 2, 61, 70
4, 10860, Note_on_c, 2, 61, 0
4, 10860, Note_on_c, 2, 64, 70
4, 10920, Note_on_c, 2, 64, 0
4, 10920, Note_on_c, 2, 62, 70
4, 10980, Note_on_c, 2, 62, 0
4, 10980, Note_on_c, 2, 61, 70
4, 11040, Note_on_c, 2, 61, 0
4, 11040, Note_on_c, 2, 59, 70
4, 11340, Note_on_c, 2, 59, 0
4, 11340, Note_on_c, 2, 56, 70
4, 11400, Note_on_c, 2, 56, 0
4, 11400, Note_on_c, 2, 61, 70
4, 11460, Note_on_c, 2, 61, 0
4, 11460, Note_on_c, 2, 59, 70
4, 11520, Note_on_c, 2, 59, 0
4, 11520, Note_on_c, 2, 57, 70
4, 11820, Note_on_c, 2, 57, 0
4, 11820, Note_on_c, 2, 54, 70
4, 11880, Note_on_c, 2, 54, 0
4, 11880, Note_on_c, 2, 59, 70
4, 11940, Note_on_c, 2, 59, 0
4, 11940, Note_on_c, 2, 57, 70
4, 12000, Note_on_c, 2, 57, 0
4, 12000, Note_on_c, 2, 56, 70
4, 12300, Note_on_c, 2, 56, 0
4, 12300, Note_on_c, 2, 54, 70
4, 12330, Note_on_c, 2, 54, 0
4, 12330, Note_on_c, 2, 56, 70
4, 12360, Note_on_c, 2, 56, 0
4, 12360, Note_on_c, 2, 57, 70
4, 12480, Note_on_c, 2, 57, 0
4, 12480, Note_on_c, 2, 56, 70
4, 12540, Note_on_c, 2, 56, 0
4, 12540, Note_on_c, 2, 54, 70
4, 12600, Note_on_c, 2, 54, 0
4, 12600, Note_on_c, 2, 56, 70
4, 12720, Note_on_c, 2, 56, 0
4, 12720, Note_on_c, 2, 54, 70
4, 12780, Note_on_c, 2, 54, 0
4, 13260, Note_on_c, 2, 50, 70
4, 13320, Note_on_c, 2, 50, 0
4, 13320, Note_on_c, 2, 55, 70
4, 13380, Note_on_c, 2, 55, 0
4, 13380, Note_on_c, 2, 54, 70
4, 13440, Note_on_c, 2, 54, 0
4, 13440, Note_on_c, 2, 52, 70
4, 13560, Note_on_c, 2, 52, 0
4, 13620, Note_on_c, 2, 57, 70
4, 13680, Note_on_c, 2, 57, 0
4, 13680, Note_on_c, 2, 62, 70
4, 13740, Note_on_c, 2, 62, 0
4, 13740, Note_on_c, 2, 60, 70
4, 13800, Note_on_c, 2, 60, 0
4, 13800, Note_on_c, 2, 59, 70
4, 13980, Note_on_c, 2, 59, 0
4, 13980, Note_on_c, 2, 57, 70
4, 14040, Note_on_c, 2, 57, 0
4, 14040, Note_on_c, 2, 55, 70
4, 14160, Note_on_c, 2, 55, 0
4, 14220, Note_on_c, 2, 52, 70
4, 14280, Note_on_c, 2, 52, 0
4, 14280, Note_on_c, 2, 57, 70
4, 14340, Note_on_c, 2, 57, 0
4, 14340, Note_on_c, 2, 55, 70
4, 14400, Note_on_c, 2, 55, 0
4, 14400, Note_on_c, 2, 54, 70
4, 14460, Note_on_c, 2, 54, 0
4, 14460, Note_on_c, 2, 52, 70
4, 14520, Note_on_c, 2, 52, 0
4, 14520, Note_on_c, 2, 50, 70
4, 14580, Note_on_c, 2, 50, 0
4, 14580, Note_on_c, 2, 54, 70
4, 14640, Note_on_c, 2, 54, 0
4, 14640, Note_on_c, 2, 59, 70
4, 14700, Note_on_c, 2, 59, 0
4, 14700, Note_on_c, 2, 57, 70
4, 14760, Note_on_c, 2, 57, 0
4, 14760, Note_on_c, 2, 55, 70
4, 14940, Note_on_c, 2, 55, 0
4, 14940, Note_on_c, 2, 57, 70
4, 15000, Note_on_c, 2, 57, 0
4, 15000, Note_on_c, 2, 59, 70
4, 15060, Note_on_c, 2, 59, 0
4, 15060, Note_on_c, 2, 64, 70
4, 15120, Note_on_c, 2, 64, 0
4, 15120, Note_on_c, 2, 57, 70
4, 15360, Note_on_c, 2, 57, 0
4, 15360, Note_on_c, 2, 55, 70
4, 15420, Note_on_c, 2, 55, 0
4, 15420, Note_on_c, 2, 62, 70
4, 15480, Note_on_c, 2, 62, 0
4, 15480, Note_on_c, 2, 62, 70
4, 15540, Note_on_c, 2, 62, 0
4, 15540, Note_on_c, 2, 62, 70
4, 15600, Note_on_c, 2, 62, 0
4, 15600, Note_on_c, 2, 55, 70
4, 15720, Note_on_c, 2, 55, 0
4, 15720, Note_on_c, 2, 59, 70
4, 15900, Note_on_c, 2, 59, 0
4, 15900, Note_on_c, 2, 52, 70
4, 15960, Note_on_c, 2, 52, 0
4, 15960, Note_on_c, 2, 57, 70
4, 16020, Note_on_c, 2, 57, 0
4, 16020, Note_on_c, 2, 55, 70
4, 16080, Note_on_c, 2, 55, 0
4, 16080, Note_on_c, 2, 54, 70
4, 16380, Note_on_c, 2, 54, 0
4, 16380, Note_on_c, 2, 47, 70
4, 16440, Note_on_c, 2, 47, 0
4, 16440, Note_on_c, 2, 52, 70
4, 16500, Note_on_c, 2, 52, 0
4, 16500, Note_on_c, 2, 50, 70
4, 16560, Note_on_c, 2, 50, 0
4, 16560, Note_on_c, 2, 49, 70
4, 16620, Note_on_c, 2, 49, 0
4, 16620, Note_on_c, 2, 50, 70
4, 16680, Note_on_c, 2, 50, 0
4, 16680, Note_on_c, 2, 52, 70
4, 16860, Note_on_c, 2, 52, 0
4, 16860, Note_on_c, 2, 49, 70
4, 16920, Note_on_c, 2, 49, 0
4, 16920, Note_on_c, 2, 54, 70
4, 16980, Note_on_c, 2, 54, 0
4, 16980, Note_on_c, 2, 52, 70
4, 17040, Note_on_c, 2, 52, 0
4, 17040, Note_on_c, 2, 50, 70
4, 17100, Note_on_c, 2, 50, 0
4, 17220, Note_on_c, 2, 54, 70
4, 17280, Note_on_c, 2, 54, 0
4, 17280, Note_on_c, 2, 59, 70
4, 17340, Note_on_c, 2, 59, 0
4, 17340, Note_on_c, 2, 57, 70
4, 17400, Note_on_c, 2, 57, 0
4, 17400, Note_on_c, 2, 55, 70
4, 17520, Note_on_c, 2, 55, 0
4, 18780, Note_on_c, 2, 62, 70
4, 18840, Note_on_c, 2, 62, 0
4, 18840, Note_on_c, 2, 62, 70
4, 18900, Note_on_c, 2, 62, 0
4, 18900, Note_on_c, 2, 62, 70
4, 18960, Note_on_c, 2, 62, 0
4, 18960, Note_on_c, 2, 55, 70
4, 19080, Note_on_c, 2, 55, 0
4, 19080, Note_on_c, 2, 59, 70
4, 19260, Note_on_c, 2, 59, 0
4, 19260, Note_on_c, 2, 52, 70
4, 19320, Note_on_c, 2, 52, 0
4, 19320, Note_on_c, 2, 57, 70
4, 19380, Note_on_c, 2, 57, 0
4, 19380, Note_on_c, 2, 55, 70
4, 19440, Note_on_c, 2, 55, 0
4, 19440, Note_on_c, 2, 54, 70
4, 19500, Note_on_c, 2, 54, 0
4, 19500, Note_on_c, 2, 55, 70
4, 19560, Note_on_c, 2, 55, 0
4, 19560, Note_on_c, 2, 57, 70
4, 19740, Note_on_c, 2, 57, 0
4, 19740, Note_on_c, 2, 50, 70
4, 19800, Note_on_c, 2, 50, 0
4, 19800, Note_on_c, 2, 55, 70
4, 19860, Note_on_c, 2, 55, 0
4, 19860, Note_on_c, 2, 54, 70
4, 19920, Note_on_c, 2, 54, 0
4, 19920, Note_on_c, 2, 52, 70
4, 20040, Note_on_c, 2, 52, 0
4, 20700, Note_on_c, 2, 59, 70
4, 20760, Note_on_c, 2, 59, 0
4, 20760, Note_on_c, 2, 59, 70
4, 20820, Note_on_c, 2, 59, 0
4, 20820, Note_on_c, 2, 59, 70
4, 20880, Note_on_c, 2, 59, 0
4, 20880, Note_on_c, 2, 52, 70
4, 20940, Note_on_c, 2, 52, 0
4, 21180, Note_on_c, 2, 62, 70
4, 21240, Note_on_c, 2, 62, 0
4, 21240, Note_on_c, 2, 62, 70
4, 21300, Note_on_c, 2, 62, 0
4, 21300, Note_on_c, 2, 62, 70
4, 21360, Note_on_c, 2, 62, 0
4, 21360, Note_on_c, 2, 56, 70
4, 21480, Note_on_c, 2, 56, 0
4, 21480, Note_on_c, 2, 59, 70
4, 21660, Note_on_c, 2, 59, 0
4, 21660, Note_on_c, 2, 52, 70
4, 21720, Note_on_c, 2, 52, 0
4, 21720, Note_on_c, 2, 57, 70
4, 21780, Note_on_c, 2, 57, 0
4, 21780, Note_on_c, 2, 55, 70
4, 21840, Note_on_c, 2, 55, 0
4, 21840, Note_on_c, 2, 54, 70
4, 22020, Note_on_c, 2, 54, 0
4, 22020, Note_on_c, 2, 57, 70
4, 22080, Note_on_c, 2, 57, 0
4, 22080, Note_on_c, 2, 62, 70
4, 22140, Note_on_c, 2, 62, 0
4, 22140, Note_on_c, 2, 60, 70
4, 22200, Note_on_c, 2, 60, 0
4, 22200, Note_on_c, 2, 59, 70
4, 22260, Note_on_c, 2, 59, 0
4, 22260, Note_on_c, 2, 57, 70
4, 22320, Note_on_c, 2, 57, 0
4, 22320, Note_on_c, 2, 55, 70
4, 22620, Note_on_c, 2, 55, 0
4, 22620, Note_on_c, 2, 52, 70
4, 22680, Note_on_c, 2, 52, 0
4, 22680, Note_on_c, 2, 57, 70
4, 22740, Note_on_c, 2, 57, 0
4, 22740, Note_on_c, 2, 55, 70
4, 22800, Note_on_c, 2, 55, 0
4, 22800, Note_on_c, 2, 54, 70
4, 23100, Note_on_c, 2, 54, 0
4, 23100, Note_on_c, 2, 47, 70
4, 23160, Note_on_c, 2, 47, 0
4, 23160, Note_on_c, 2, 52, 70
4, 23220, Note_on_c, 2, 52, 0
4, 23220, Note_on_c, 2, 50, 70
4, 23280, Note_on_c, 2, 50, 0
4, 23280, Note_on_c, 2, 49, 70
4, 23340, Note_on_c, 2, 49, 0
4, 23340, Note_on_c, 2, 50, 70
4, 23400, Note_on_c, 2, 50, 0
4, 23400, Note_on_c, 2, 52, 70
4, 23520, Note_on_c, 2, 52, 0
4, 23580, Note_on_c, 2, 50, 70
4, 23640, Note_on_c, 2, 50, 0
4, 23640, Note_on_c, 2, 57, 70
4, 23700, Note_on_c, 2, 57, 0
4, 23700, Note_on_c, 2, 55, 70
4, 23760, Note_on_c, 2, 55, 0
4, 23760, Note_on_c, 2, 54, 70
4, 24000, Note_on_c, 2, 54, 0
4, 24000, End_track
5, 0, Start_track
5, 0, MIDI_port, 0
5, 0, Title_t, "Yo Tomita"
5, 0, Program_c, 3, 6
5, 2460, Note_on_c, 3, 57, 70
5, 2520, Note_on_c, 3, 57, 0
5, 2520, Note_on_c, 3, 57, 70
5, 2580, Note_on_c, 3, 57, 0
5, 2580, Note_on_c, 3, 57, 70
5, 2640, Note_on_c, 3, 57, 0
5, 2640, Note_on_c, 3, 50, 70
5, 2760, Note_on_c, 3, 50, 0
5, 2760, Note_on_c, 3, 54, 70
5, 2940, Note_on_c, 3, 54, 0
5, 2940, Note_on_c, 3, 47, 70
5, 3000, Note_on_c, 3, 47, 0
5, 3000, Note_on_c, 3, 52, 70
5, 3060, Note_on_c, 3, 52, 0
5, 3060, Note_on_c, 3, 50, 70
5, 3120, Note_on_c, 3, 50, 0
5, 3120, Note_on_c, 3, 49, 70
5, 3180, Note_on_c, 3, 49, 0
5, 3180, Note_on_c, 3, 47, 70
5, 3240, Note_on_c, 3, 47, 0
5, 3240, Note_on_c, 3, 45, 70
5, 3360, Note_on_c, 3, 45, 0
5, 3420, Note_on_c, 3, 45, 70
5, 3480, Note_on_c, 3, 45, 0
5, 3480, Note_on_c, 3, 50, 70
5, 3540, Note_on_c, 3, 50, 0
5, 3540, Note_on_c, 3, 49, 70
5, 3600, Note_on_c, 3, 49, 0
5, 3600, Note_on_c, 3, 47, 70
5, 3660, Note_on_c, 3, 47, 0
5, 3660, Note_on_c, 3, 45, 70
5, 3720, Note_on_c, 3, 45, 0
5, 3720, Note_on_c, 3, 43, 70
5, 3900, Note_on_c, 3, 43, 0
5, 3900, Note_on_c, 3, 42, 70
5, 3960, Note_on_c, 3, 42, 0
5, 3960, Note_on_c, 3, 47, 70
5, 4020, Note_on_c, 3, 47, 0
5, 4020, Note_on_c, 3, 45, 70
5, 4080, Note_on_c, 3, 45, 0
5, 4080, Note_on_c, 3, 44, 70
5, 4320, Note_on_c, 3, 44, 0
5, 4320, Note_on_c, 3, 45, 70
5, 4440, Note_on_c, 3, 45, 0
5, 4440, Note_on_c, 3, 43, 70
5, 4560, Note_on_c, 3, 43, 0
5, 4560, Note_on_c, 3, 42, 70
5, 4800, Note_on_c, 3, 42, 0
5, 4800, Note_on_c, 3, 47, 70
5, 5640, Note_on_c, 3, 47, 0
5, 5640, Note_on_c, 3, 46, 70
5, 5760, Note_on_c, 3, 46, 0
5, 5760, Note_on_c, 3, 47, 70
5, 5880, Note_on_c, 3, 47, 0
5, 6060, Note_on_c, 3, 50, 70
5, 6120, Note_on_c, 3, 50, 0
5, 6120, Note_on_c, 3, 49, 70
5, 6180, Note_on_c, 3, 49, 0
5, 6180, Note_on_c, 3, 47, 70
5, 6240, Note_on_c, 3, 47, 0
5, 6240, Note_on_c, 3, 45, 70
5, 6360, Note_on_c, 3, 45, 0
5, 6420, Note_on_c, 3, 45, 70
5, 6480, Note_on_c, 3, 45, 0
5, 6480, Note_on_c, 3, 47, 70
5, 6600, Note_on_c, 3, 47, 0
5, 6660, Note_on_c, 3, 47, 70
5, 6720, Note_on_c, 3, 47, 0
5, 6720, Note_on_c, 3, 40, 70
5, 6840, Note_on_c, 3, 40, 0
5, 6900, Note_on_c, 3, 52, 70
5, 6960, Note_on_c, 3, 52, 0
5, 6960, Note_on_c, 3, 45, 70
5, 7080, Note_on_c, 3, 45, 0
5, 7140, Note_on_c, 3, 45, 70
5, 7200, Note_on_c, 3, 45, 0
5, 7200, Note_on_c, 3, 38, 70
5, 7320, Note_on_c, 3, 38, 0
5, 8220, Note_on_c, 3, 47, 70
5, 8280, Note_on_c, 3, 47, 0
5, 8280, Note_on_c, 3, 52, 70
5, 8340, Note_on_c, 3, 52, 0
5, 8340, Note_on_c, 3, 50, 70
5, 8400, Note_on_c, 3, 50, 0
5, 8400, Note_on_c, 3, 49, 70
5, 8460, Note_on_c, 3, 49, 0
5, 8460, Note_on_c, 3, 52, 70
5, 8520, Note_on_c, 3, 52, 0
5, 8520, Note_on_c, 3, 57, 70
5, 8580, Note_on_c, 3, 57, 0
5, 8580, Note_on_c, 3, 56, 70
5, 8640, Note_on_c, 3, 56, 0
5, 8640, Note_on_c, 3, 54, 70
5, 8700, Note_on_c, 3, 54, 0
5, 8700, Note_on_c, 3, 52, 70
5, 8760, Note_on_c, 3, 52, 0
5, 8760, Note_on_c, 3, 50, 70
5, 8940, Note_on_c, 3, 50, 0
5, 8940, Note_on_c, 3, 49, 70
5, 9000, Note_on_c, 3, 49, 0
5, 9000, Note_on_c, 3, 54, 70
5, 9060, Note_on_c, 3, 54, 0
5, 9060, Note_on_c, 3, 52, 70
5, 9120, Note_on_c, 3, 52, 0
5, 9120, Note_on_c, 3, 50, 70
5, 9240, Note_on_c, 3, 50, 0
5, 9240, Note_on_c, 3, 52, 70
5, 9360, Note_on_c, 3, 52, 0
5, 9360, Note_on_c, 3, 45, 70
5, 9480, Note_on_c, 3, 45, 0
5, 9540, Note_on_c, 3, 42, 70
5, 9600, Note_on_c, 3, 42, 0
5, 9600, Note_on_c, 3, 47, 70
5, 9720, Note_on_c, 3, 47, 0
5, 9900, Note_on_c, 3, 50, 70
5, 9960, Note_on_c, 3, 50, 0
5, 9960, Note_on_c, 3, 49, 70
5, 10020, Note_on_c, 3, 49, 0
5, 10020, Note_on_c, 3, 47, 70
5, 10080, Note_on_c, 3, 47, 0
5, 10080, Note_on_c, 3, 46, 70
5, 10200, Note_on_c, 3, 46, 0
5, 10260, Note_on_c, 3, 46, 70
5, 10320, Note_on_c, 3, 46, 0
5, 10320, Note_on_c, 3, 45, 70
5, 10440, Note_on_c, 3, 45, 0
5, 10500, Note_on_c, 3, 44, 70
5, 10560, Note_on_c, 3, 44, 0
5, 10560, Note_on_c, 3, 49, 70
5, 10680, Note_on_c, 3, 49, 0
5, 10740, Note_on_c, 3, 52, 70
5, 10800, Note_on_c, 3, 52, 0
5, 10800, Note_on_c, 3, 42, 70
5, 10860, Note_on_c, 3, 42, 0
5, 10860, Note_on_c, 3, 54, 70
5, 10920, Note_on_c, 3, 54, 0
5, 10920, Note_on_c, 3, 56, 70
5, 10980, Note_on_c, 3, 56, 0
5, 10980, Note_on_c, 3, 58, 70
5, 11040, Note_on_c, 3, 58, 0
5, 11040, Note_on_c, 3, 59, 70
5, 11100, Note_on_c, 3, 59, 0
5, 11100, Note_on_c, 3, 57, 70
5, 11160, Note_on_c, 3, 57, 0
5, 11160, Note_on_c, 3, 56, 70
5, 11220, Note_on_c, 3, 56, 0
5, 11220, Note_on_c, 3, 54, 70
5, 11280, Note_on_c, 3, 54, 0
5, 11280, Note_on_c, 3, 53, 70
5, 11520, Note_on_c, 3, 53, 0
5, 11580, Note_on_c, 3, 54, 70
5, 11640, Note_on_c, 3, 54, 0
5, 11640, Note_on_c, 3, 54, 70
5, 11700, Note_on_c, 3, 54, 0
5, 11700, Note_on_c, 3, 54, 70
5, 11760, Note_on_c, 3, 54, 0
5, 11760, Note_on_c, 3, 47, 70
5, 11880, Note_on_c, 3, 47, 0
5, 11880, Note_on_c, 3, 50, 70
5, 12060, Note_on_c, 3, 50, 0
5, 12060, Note_on_c, 3, 44, 70
5, 12120, Note_on_c, 3, 44, 0
5, 12120, Note_on_c, 3, 49, 70
5, 12180, Note_on_c, 3, 49, 0
5, 12180, Note_on_c, 3, 47, 70
5, 12240, Note_on_c, 3, 47, 0
5, 12240, Note_on_c, 3, 45, 70
5, 12420, Note_on_c, 3, 45, 0
5, 12420, Note_on_c, 3, 47, 70
5, 12480, Note_on_c, 3, 47, 0
5, 12480, Note_on_c, 3, 49, 70
5, 12720, Note_on_c, 3, 49, 0
5, 12720, Note_on_c, 3, 42, 70
5, 12780, Note_on_c, 3, 42, 0
5, 12780, Note_on_c, 3, 57, 70
5, 12840, Note_on_c, 3, 57, 0
5, 12840, Note_on_c, 3, 57, 70
5, 12900, Note_on_c, 3, 57, 0
5, 12900, Note_on_c, 3, 57, 70
5, 12960, Note_on_c, 3, 57, 0
5, 12960, Note_on_c, 3, 50, 70
5, 13080, Note_on_c, 3, 50, 0
5, 13080, Note_on_c, 3, 54, 70
5, 13260, Note_on_c, 3, 54, 0
5, 13260, Note_on_c, 3, 47, 70
5, 13320, Note_on_c, 3, 47, 0
5, 13320, Note_on_c, 3, 52, 70
5, 13380, Note_on_c, 3, 52, 0
5, 13380, Note_on_c, 3, 50, 70
5, 13440, Note_on_c, 3, 50, 0
5, 13440, Note_on_c, 3, 49, 70
5, 13500, Note_on_c, 3, 49, 0
5, 13500, Note_on_c, 3, 47, 70
5, 13560, Note_on_c, 3, 47, 0
5, 13560, Note_on_c, 3, 45, 70
5, 13680, Note_on_c, 3, 45, 0
5, 13980, Note_on_c, 3, 47, 70
5, 14040, Note_on_c, 3, 47, 0
5, 14040, Note_on_c, 3, 52, 70
5, 14100, Note_on_c, 3, 52, 0
5, 14100, Note_on_c, 3, 50, 70
5, 14160, Note_on_c, 3, 50, 0
5, 14160, Note_on_c, 3, 48, 70
5, 14220, Note_on_c, 3, 48, 0
5, 14220, Note_on_c, 3, 47, 70
5, 14280, Note_on_c, 3, 47, 0
5, 14280, Note_on_c, 3, 45, 70
5, 14520, Note_on_c, 3, 45, 0
5, 14520, Note_on_c, 3, 47, 70
5, 14700, Note_on_c, 3, 47, 0
5, 14700, Note_on_c, 3, 50, 70
5, 14760, Note_on_c, 3, 50, 0
5, 14760, Note_on_c, 3, 55, 70
5, 14820, Note_on_c, 3, 55, 0
5, 14820, Note_on_c, 3, 54, 70
5, 14880, Note_on_c, 3, 54, 0
5, 14880, Note_on_c, 3, 52, 70
5, 14940, Note_on_c, 3, 52, 0
5, 14940, Note_on_c, 3, 54, 70
5, 15000, Note_on_c, 3, 54, 0
5, 15000, Note_on_c, 3, 55, 70
5, 15060, Note_on_c, 3, 55, 0
5, 15060, Note_on_c, 3, 52, 70
5, 15120, Note_on_c, 3, 52, 0
5, 15120, Note_on_c, 3, 48, 70
5, 15180, Note_on_c, 3, 48, 0
5, 15180, Note_on_c, 3, 45, 70
5, 15240, Note_on_c, 3, 45, 0
5, 15240, Note_on_c, 3, 50, 70
5, 15300, Note_on_c, 3, 50, 0
5, 15300, Note_on_c, 3, 48, 70
5, 15360, Note_on_c, 3, 48, 0
5, 15360, Note_on_c, 3, 47, 70
5, 15420, Note_on_c, 3, 47, 0
5, 15420, Note_on_c, 3, 50, 70
5, 15480, Note_on_c, 3, 50, 0
5, 15480, Note_on_c, 3, 55, 70
5, 15540, Note_on_c, 3, 55, 0
5, 15540, Note_on_c, 3, 54, 70
5, 15600, Note_on_c, 3, 54, 0
5, 15600, Note_on_c, 3, 52, 70
5, 15900, Note_on_c, 3, 52, 0
5, 15900, Note_on_c, 3, 50, 70
5, 15960, Note_on_c, 3, 50, 0
5, 15960, Note_on_c, 3, 49, 70
5, 16020, Note_on_c, 3, 49, 0
5, 16020, Note_on_c, 3, 45, 70
5, 16080, Note_on_c, 3, 45, 0
5, 16080, Note_on_c, 3, 50, 70
5, 16140, Note_on_c, 3, 50, 0
5, 16140, Note_on_c, 3, 48, 70
5, 16200, Note_on_c, 3, 48, 0
5, 16200, Note_on_c, 3, 47, 70
5, 16260, Note_on_c, 3, 47, 0
5, 16260, Note_on_c, 3, 45, 70
5, 16320, Note_on_c, 3, 45, 0
5, 16320, Note_on_c, 3, 43, 70
5, 16440, Note_on_c, 3, 43, 0
5, 16440, Note_on_c, 3, 44, 70
5, 16560, Note_on_c, 3, 44, 0
5, 16560, Note_on_c, 3, 45, 70
5, 16800, Note_on_c, 3, 45, 0
5, 16800, Note_on_c, 3, 46, 70
5, 17040, Note_on_c, 3, 46, 0
5, 17040, Note_on_c, 3, 47, 70
5, 17340, Note_on_c, 3, 47, 0
5, 17340, Note_on_c, 3, 47, 70
5, 17400, Note_on_c, 3, 47, 0
5, 17400, Note_on_c, 3, 52, 70
5, 17460, Note_on_c, 3, 52, 0
5, 17460, Note_on_c, 3, 50, 70
5, 17520, Note_on_c, 3, 50, 0
5, 17520, Note_on_c, 3, 49, 70
5, 17580, Note_on_c, 3, 49, 0
5, 17580, Note_on_c, 3, 52, 70
5, 17640, Note_on_c, 3, 52, 0
5, 17640, Note_on_c, 3, 57, 70
5, 17700, Note_on_c, 3, 57, 0
5, 17700, Note_on_c, 3, 55, 70
5, 17760, Note_on_c, 3, 55, 0
5, 17760, Note_on_c, 3, 54, 70
5, 17820, Note_on_c, 3, 54, 0
5, 17820, Note_on_c, 3, 57, 70
5, 17880, Note_on_c, 3, 57, 0
5, 17880, Note_on_c, 3, 62, 70
5, 17940, Note_on_c, 3, 62, 0
5, 17940, Note_on_c, 3, 61, 70
5, 18000, Note_on_c, 3, 61, 0
5, 18000, Note_on_c, 3, 59, 70
5, 18060, Note_on_c, 3, 59, 0
5, 18060, Note_on_c, 3, 57, 70
5, 18120, Note_on_c, 3, 57, 0
5, 18120, Note_on_c, 3, 55, 70
5, 18180, Note_on_c, 3, 55, 0
5, 18180, Note_on_c, 3, 54, 70
5, 18240, Note_on_c, 3, 54, 0
5, 18240, Note_on_c, 3, 52, 70
5, 18300, Note_on_c, 3, 52, 0
5, 18300, Note_on_c, 3, 50, 70
5, 18360, Note_on_c, 3, 50, 0
5, 18360, Note_on_c, 3, 49, 70
5, 18420, Note_on_c, 3, 49, 0
5, 18420, Note_on_c, 3, 47, 70
5, 18480, Note_on_c, 3, 47, 0
5, 18480, Note_on_c, 3, 45, 70
5, 18540, Note_on_c, 3, 45, 0
5, 18540, Note_on_c, 3, 43, 70
5, 18600, Note_on_c, 3, 43, 0
5, 18600, Note_on_c, 3, 42, 70
5, 18660, Note_on_c, 3, 42, 0
5, 18660, Note_on_c, 3, 40, 70
5, 18720, Note_on_c, 3, 40, 0
5, 18720, Note_on_c, 3, 38, 70
5, 18780, Note_on_c, 3, 38, 0
5, 18900, Note_on_c, 3, 50, 70
5, 18960, Note_on_c, 3, 50, 0
5, 18960, Note_on_c, 3, 52, 70
5, 19080, Note_on_c, 3, 52, 0
5, 19140, Note_on_c, 3, 52, 70
5, 19200, Note_on_c, 3, 52, 0
5, 19200, Note_on_c, 3, 57, 70
5, 19260, Note_on_c, 3, 57, 0
5, 19260, Note_on_c, 3, 55, 70
5, 19320, Note_on_c, 3, 55, 0
5, 19320, Note_on_c, 3, 54, 70
5, 19380, Note_on_c, 3, 54, 0
5, 19380, Note_on_c, 3, 52, 70
5, 19440, Note_on_c, 3, 52, 0
5, 19440, Note_on_c, 3, 50, 70
5, 19500, Note_on_c, 3, 50, 0
5, 19500, Note_on_c, 3, 52, 70
5, 19560, Note_on_c, 3, 52, 0
5, 19560, Note_on_c, 3, 54, 70
5, 19740, Note_on_c, 3, 54, 0
5, 19740, Note_on_c, 3, 47, 70
5, 19800, Note_on_c, 3, 47, 0
5, 19800, Note_on_c, 3, 52, 70
5, 19860, Note_on_c, 3, 52, 0
5, 19860, Note_on_c, 3, 50, 70
5, 19920, Note_on_c, 3, 50, 0
5, 19920, Note_on_c, 3, 49, 70
5, 19980, Note_on_c, 3, 49, 0
5, 19980, Note_on_c, 3, 47, 70
5, 20040, Note_on_c, 3, 47, 0
5, 20040, Note_on_c, 3, 45, 70
5, 20220, Note_on_c, 3, 45, 0
5, 20220, Note_on_c, 3, 57, 70
5, 20280, Note_on_c, 3, 57, 0
5, 20280, Note_on_c, 3, 57, 70
5, 20340, Note_on_c, 3, 57, 0
5, 20340, Note_on_c, 3, 57, 70
5, 20400, Note_on_c, 3, 57, 0
5, 20400, Note_on_c, 3, 51, 70
5, 20460, Note_on_c, 3, 51, 0
5, 20460, Note_on_c, 3, 52, 70
5, 20520, Note_on_c, 3, 52, 0
5, 20520, Note_on_c, 3, 53, 70
5, 20700, Note_on_c, 3, 53, 0
5, 20700, Note_on_c, 3, 47, 70
5, 20760, Note_on_c, 3, 47, 0
5, 20760, Note_on_c, 3, 52, 70
5, 20820, Note_on_c, 3, 52, 0
5, 20820, Note_on_c, 3, 50, 70
5, 20880, Note_on_c, 3, 50, 0
5, 20880, Note_on_c, 3, 49, 70
5, 20940, Note_on_c, 3, 49, 0
5, 20940, Note_on_c, 3, 45, 70
5, 21000, Note_on_c, 3, 45, 0
5, 21000, Note_on_c, 3, 50, 70
5, 21060, Note_on_c, 3, 50, 0
5, 21060, Note_on_c, 3, 49, 70
5, 21120, Note_on_c, 3, 49, 0
5, 21120, Note_on_c, 3, 47, 70
5, 21180, Note_on_c, 3, 47, 0
5, 21300, Note_on_c, 3, 59, 70
5, 21360, Note_on_c, 3, 59, 0
5, 21360, Note_on_c, 3, 59, 70
5, 21420, Note_on_c, 3, 59, 0
5, 21420, Note_on_c, 3, 59, 70
5, 21480, Note_on_c, 3, 59, 0
5, 21480, Note_on_c, 3, 52, 70
5, 21600, Note_on_c, 3, 52, 0
5, 21600, Note_on_c, 3, 55, 70
5, 21780, Note_on_c, 3, 55, 0
5, 21780, Note_on_c, 3, 49, 70
5, 21840, Note_on_c, 3, 49, 0
5, 21840, Note_on_c, 3, 54, 70
5, 21900, Note_on_c, 3, 54, 0
5, 21900, Note_on_c, 3, 52, 70
5, 21960, Note_on_c, 3, 52, 0
5, 21960, Note_on_c, 3, 50, 70
5, 22200, Note_on_c, 3, 50, 0
5, 22260, Note_on_c, 3, 50, 70
5, 22320, Note_on_c, 3, 50, 0
5, 22320, Note_on_c, 3, 55, 70
5, 22380, Note_on_c, 3, 55, 0
5, 22380, Note_on_c, 3, 54, 70
5, 22440, Note_on_c, 3, 54, 0
5, 22440, Note_on_c, 3, 52, 70
5, 22500, Note_on_c, 3, 52, 0
5, 22500, Note_on_c, 3, 50, 70
5, 22560, Note_on_c, 3, 50, 0
5, 22560, Note_on_c, 3, 49, 70
5, 22680, Note_on_c, 3, 49, 0
5, 22740, Note_on_c, 3, 45, 70
5, 22800, Note_on_c, 3, 45, 0
5, 22800, Note_on_c, 3, 50, 70
5, 22860, Note_on_c, 3, 50, 0
5, 22860, Note_on_c, 3, 48, 70
5, 22920, Note_on_c, 3, 48, 0
5, 22920, Note_on_c, 3, 47, 70
5, 22980, Note_on_c, 3, 47, 0
5, 22980, Note_on_c, 3, 45, 70
5, 23040, Note_on_c, 3, 45, 0
5, 23040, Note_on_c, 3, 43, 70
5, 23280, Note_on_c, 3, 43, 0
5, 23280, Note_on_c, 3, 45, 70
5, 23760, Note_on_c, 3, 45, 0
5, 23760, Note_on_c, 3, 38, 70
5, 24000, Note_on_c, 3, 38, 0
5, 24000, End_track
0, 0, End_of_file
