0, 0, Header, 1, 4, 120
1, 0, Start_track
1, 0, Time_signature, 4, 2, 24, 8
1, 0, Key_signature, -1, "major"
1, 0, Tempo, 857143
1, 0, Marker_t, "© Y.Tomita 1996"
1, 12367, Tempo, 851064
1, 12382, Tempo, 857143
1, 12395, Tempo, 863309
1, 12407, Tempo, 869565
1, 12420, Tempo, 875912
1, 12432, Tempo, 882353
1, 12447, Tempo, 888889
1, 12460, Tempo, 895522
1, 12472, Tempo, 902256
1, 12485, Tempo, 909091
1, 12497, Tempo, 916031
1, 12512, Tempo, 923077
1, 12525, Tempo, 930233
1, 12537, Tempo, 937500
1, 12550, Tempo, 944882
1, 12562, Tempo, 952381
1, 12577, Tempo, 960000
1, 12590, Tempo, 967742
1, 12602, Tempo, 975610
1, 12615, Tempo, 983607
1, 12627, Tempo, 991736
1, 12642, Tempo, 1000000
1, 12655, Tempo, 1008403
1, 12667, Tempo, 1016949
1, 12680, Tempo, 1025641
1, 12692, Tempo, 1034483
1, 12702, Tempo, 1558442
1, 12702, End_track
2, 0, Start_track
2, 0, MIDI_port, 0
2, 0, Title_t, "BWV 875/2"
2, 960, Note_on_c, 0, 69, 70
2, 980, Note_on_c, 0, 69, 0
2, 980, Note_on_c, 0, 71, 70
2, 999, Note_on_c, 0, 71, 0
2, 999, Note_on_c, 0, 72, 70
2, 1020, Note_on_c, 0, 72, 0
2, 1020, Note_on_c, 0, 74, 70
2, 1040, Note_on_c, 0, 74, 0
2, 1040, Note_on_c, 0, 72, 70
2, 1059, Note_on_c, 0, 72, 0
2, 1059, Note_on_c, 0, 71, 70
2, 1080, Note_on_c, 0, 71, 0
2, 1080, Note_on_c, 0, 72, 70
2, 1100, Note_on_c, 0, 72, 0
2, 1100, Note_on_c, 0, 74, 70
2, 1119, Note_on_c, 0, 74, 0
2, 1119, Note_on_c, 0, 76, 70
2, 1140, Note_on_c, 0, 76, 0
2, 1140, Note_on_c, 0, 77, 70
2, 1160, Note_on_c, 0, 77, 0
2, 1160, Note_on_c, 0, 76, 70
2, 1179, Note_on_c, 0, 76, 0
2, 1179, Note_on_c, 0, 74, 70
2, 1200, Note_on_c, 0, 74, 0
2, 1200, Note_on_c, 0, 76, 70
2, 1260, Note_on_c, 0, 76, 0
2, 1260, Note_on_c, 0, 81, 70
2, 1320, Note_on_c, 0, 81, 0
2, 1320, Note_on_c, 0, 80, 70
2, 1380, Note_on_c, 0, 80, 0
2, 1380, Note_on_c, 0, 79, 70
2, 1440, Note_on_c, 0, 79, 0
2, 1440, Note_on_c, 0, 78, 70
2, 1500, Note_on_c, 0, 78, 0
2, 1500, Note_on_c, 0, 77, 70
2, 1560, Note_on_c, 0, 77, 0
2, 1560, Note_on_c, 0, 76, 70
2, 1620, Note_on_c, 0, 76, 0
2, 1620, Note_on_c, 0, 74, 70
2, 1740, Note_on_c, 0, 74, 0
2, 1740, Note_on_c, 0, 72, 70
2, 1800, Note_on_c, 0, 72, 0
2, 1800, Note_on_c, 0, 71, 70
2, 1860, Note_on_c, 0, 71, 0
2, 1860, Note_on_c, 0, 76, 70
2, 1920, Note_on_c, 0, 76, 0
2, 1920, Note_on_c, 0, 69, 70
2, 1980, Note_on_c, 0, 69, 0
2, 1980, Note_on_c, 0, 71, 70
2, 2040, Note_on_c, 0, 71, 0
2, 2040, Note_on_c, 0, 72, 70
2, 2100, Note_on_c, 0, 72, 0
2, 2100, Note_on_c, 0, 68, 70
2, 2160, Note_on_c, 0, 68, 0
2, 2160, Note_on_c, 0, 69, 70
2, 2180, Note_on_c, 0, 69, 0
2, 2180, Note_on_c, 0, 67, 70
2, 2199, Note_on_c, 0, 67, 0
2, 2199, Note_on_c, 0, 65, 70
2, 2220, Note_on_c, 0, 65, 0
2, 2220, Note_on_c, 0, 64, 70
2, 2240, Note_on_c, 0, 64, 0
2, 2240, Note_on_c, 0, 65, 70
2, 2259, Note_on_c, 0, 65, 0
2, 2259, Note_on_c, 0, 67, 70
2, 2280, Note_on_c, 0, 67, 0
2, 2280, Note_on_c, 0, 65, 70
2, 2300, Note_on_c, 0, 65, 0
2, 2300, Note_on_c, 0, 64, 70
2, 2319, Note_on_c, 0, 64, 0
2, 2319, Note_on_c, 0, 62, 70
2, 2340, Note_on_c, 0, 62, 0
2, 2340, Note_on_c, 0, 61, 70
2, 2360, Note_on_c, 0, 61, 0
2, 2360, Note_on_c, 0, 62, 70
2, 2379, Note_on_c, 0, 62, 0
2, 2379, Note_on_c, 0, 64, 70
2, 2400, Note_on_c, 0, 64, 0
2, 2400, Note_on_c, 0, 62, 70
2, 2460, Note_on_c, 0, 62, 0
2, 2460, Note_on_c, 0, 61, 70
2, 2520, Note_on_c, 0, 61, 0
2, 2520, Note_on_c, 0, 62, 70
2, 2580, Note_on_c, 0, 62, 0
2, 2580, Note_on_c, 0, 67, 70
2, 2670, Note_on_c, 0, 67, 0
2, 2670, Note_on_c, 0, 64, 70
2, 2700, Note_on_c, 0, 64, 0
2, 2700, Note_on_c, 0, 65, 70
2, 2730, Note_on_c, 0, 65, 0
2, 2730, Note_on_c, 0, 67, 70
2, 2760, Note_on_c, 0, 67, 0
2, 2760, Note_on_c, 0, 69, 70
2, 2790, Note_on_c, 0, 69, 0
2, 2790, Note_on_c, 0, 71, 70
2, 2820, Note_on_c, 0, 71, 0
2, 2820, Note_on_c, 0, 72, 70
2, 2850, Note_on_c, 0, 72, 0
2, 2850, Note_on_c, 0, 69, 70
2, 2880, Note_on_c, 0, 69, 0
2, 2880, Note_on_c, 0, 74, 70
2, 2910, Note_on_c, 0, 74, 0
2, 2910, Note_on_c, 0, 73, 70
2, 2940, Note_on_c, 0, 73, 0
2, 2940, Note_on_c, 0, 74, 70
2, 2970, Note_on_c, 0, 74, 0
2, 2970, Note_on_c, 0, 76, 70
2, 3000, Note_on_c, 0, 76, 0
2, 3000, Note_on_c, 0, 77, 70
2, 3030, Note_on_c, 0, 77, 0
2, 3030, Note_on_c, 0, 71, 70
2, 3060, Note_on_c, 0, 71, 0
2, 3060, Note_on_c, 0, 76, 70
2, 3090, Note_on_c, 0, 76, 0
2, 3090, Note_on_c, 0, 74, 70
2, 3120, Note_on_c, 0, 74, 0
2, 3120, Note_on_c, 0, 73, 70
2, 3150, Note_on_c, 0, 73, 0
2, 3150, Note_on_c, 0, 69, 70
2, 3180, Note_on_c, 0, 69, 0
2, 3180, Note_on_c, 0, 74, 70
2, 3300, Note_on_c, 0, 74, 0
2, 3300, Note_on_c, 0, 72, 70
2, 3420, Note_on_c, 0, 72, 0
2, 3420, Note_on_c, 0, 70, 70
2, 3480, Note_on_c, 0, 70, 0
2, 3480, Note_on_c, 0, 69, 70
2, 3600, Note_on_c, 0, 69, 0
2, 3600, Note_on_c, 0, 67, 70
2, 3630, Note_on_c, 0, 67, 0
2, 3630, Note_on_c, 0, 79, 70
2, 3660, Note_on_c, 0, 79, 0
2, 3660, Note_on_c, 0, 81, 70
2, 3690, Note_on_c, 0, 81, 0
2, 3690, Note_on_c, 0, 79, 70
2, 3720, Note_on_c, 0, 79, 0
2, 3720, Note_on_c, 0, 77, 70
2, 3750, Note_on_c, 0, 77, 0
2, 3750, Note_on_c, 0, 81, 70
2, 3780, Note_on_c, 0, 81, 0
2, 3780, Note_on_c, 0, 79, 70
2, 3810, Note_on_c, 0, 79, 0
2, 3810, Note_on_c, 0, 77, 70
2, 3840, Note_on_c, 0, 77, 0
2, 3840, Note_on_c, 0, 76, 70
2, 3870, Note_on_c, 0, 76, 0
2, 3870, Note_on_c, 0, 72, 70
2, 3900, Note_on_c, 0, 72, 0
2, 3900, Note_on_c, 0, 77, 70
2, 4020, Note_on_c, 0, 77, 0
2, 4020, Note_on_c, 0, 76, 70
2, 4110, Note_on_c, 0, 76, 0
2, 4110, Note_on_c, 0, 77, 70
2, 4170, Note_on_c, 0, 77, 0
2, 4170, Note_on_c, 0, 76, 70
2, 4230, Note_on_c, 0, 76, 0
2, 4230, Note_on_c, 0, 74, 70
2, 4290, Note_on_c, 0, 74, 0
2, 4290, Note_on_c, 0, 73, 70
2, 4320, Note_on_c, 0, 73, 0
2, 4320, Note_on_c, 0, 74, 70
2, 4380, Note_on_c, 0, 74, 0
2, 4380, Note_on_c, 0, 70, 70
2, 4440, Note_on_c, 0, 70, 0
2, 4440, Note_on_c, 0, 69, 70
2, 4460, Note_on_c, 0, 69, 0
2, 4460, Note_on_c, 0, 67, 70
2, 4479, Note_on_c, 0, 67, 0
2, 4479, Note_on_c, 0, 65, 70
2, 4500, Note_on_c, 0, 65, 0
2, 4500, Note_on_c, 0, 64, 70
2, 4520, Note_on_c, 0, 64, 0
2, 4520, Note_on_c, 0, 65, 70
2, 4539, Note_on_c, 0, 65, 0
2, 4539, Note_on_c, 0, 67, 70
2, 4560, Note_on_c, 0, 67, 0
2, 4560, Note_on_c, 0, 65, 70
2, 4580, Note_on_c, 0, 65, 0
2, 4580, Note_on_c, 0, 64, 70
2, 4599, Note_on_c, 0, 64, 0
2, 4599, Note_on_c, 0, 62, 70
2, 4620, Note_on_c, 0, 62, 0
2, 4620, Note_on_c, 0, 61, 70
2, 4640, Note_on_c, 0, 61, 0
2, 4640, Note_on_c, 0, 62, 70
2, 4659, Note_on_c, 0, 62, 0
2, 4659, Note_on_c, 0, 64, 70
2, 4680, Note_on_c, 0, 64, 0
2, 4680, Note_on_c, 0, 62, 70
2, 4700, Note_on_c, 0, 62, 0
2, 4700, Note_on_c, 0, 64, 70
2, 4719, Note_on_c, 0, 64, 0
2, 4719, Note_on_c, 0, 65, 70
2, 4740, Note_on_c, 0, 65, 0
2, 4740, Note_on_c, 0, 67, 70
2, 4760, Note_on_c, 0, 67, 0
2, 4760, Note_on_c, 0, 65, 70
2, 4779, Note_on_c, 0, 65, 0
2, 4779, Note_on_c, 0, 64, 70
2, 4800, Note_on_c, 0, 64, 0
2, 4800, Note_on_c, 0, 65, 70
2, 4820, Note_on_c, 0, 65, 0
2, 4820, Note_on_c, 0, 67, 70
2, 4839, Note_on_c, 0, 67, 0
2, 4839, Note_on_c, 0, 69, 70
2, 4860, Note_on_c, 0, 69, 0
2, 4860, Note_on_c, 0, 70, 70
2, 4880, Note_on_c, 0, 70, 0
2, 4880, Note_on_c, 0, 69, 70
2, 4899, Note_on_c, 0, 69, 0
2, 4899, Note_on_c, 0, 67, 70
2, 4920, Note_on_c, 0, 67, 0
2, 4920, Note_on_c, 0, 69, 70
2, 4980, Note_on_c, 0, 69, 0
2, 4980, Note_on_c, 0, 74, 70
2, 5040, Note_on_c, 0, 74, 0
2, 5040, Note_on_c, 0, 73, 70
2, 5100, Note_on_c, 0, 73, 0
2, 5100, Note_on_c, 0, 72, 70
2, 5160, Note_on_c, 0, 72, 0
2, 5160, Note_on_c, 0, 71, 70
2, 5220, Note_on_c, 0, 71, 0
2, 5220, Note_on_c, 0, 70, 70
2, 5280, Note_on_c, 0, 70, 0
2, 5280, Note_on_c, 0, 69, 70
2, 5340, Note_on_c, 0, 69, 0
2, 5340, Note_on_c, 0, 81, 70
2, 5400, Note_on_c, 0, 81, 0
2, 5400, Note_on_c, 0, 80, 70
2, 5460, Note_on_c, 0, 80, 0
2, 5460, Note_on_c, 0, 79, 70
2, 5520, Note_on_c, 0, 79, 0
2, 5520, Note_on_c, 0, 78, 70
2, 5580, Note_on_c, 0, 78, 0
2, 5580, Note_on_c, 0, 77, 70
2, 5640, Note_on_c, 0, 77, 0
2, 5640, Note_on_c, 0, 76, 70
2, 5820, Note_on_c, 0, 76, 0
2, 5820, Note_on_c, 0, 74, 70
2, 5940, Note_on_c, 0, 74, 0
2, 5940, Note_on_c, 0, 73, 70
2, 6000, Note_on_c, 0, 73, 0
2, 6030, Note_on_c, 0, 81, 70
2, 6060, Note_on_c, 0, 81, 0
2, 6060, Note_on_c, 0, 82, 70
2, 6090, Note_on_c, 0, 82, 0
2, 6090, Note_on_c, 0, 81, 70
2, 6120, Note_on_c, 0, 81, 0
2, 6120, Note_on_c, 0, 79, 70
2, 6150, Note_on_c, 0, 79, 0
2, 6150, Note_on_c, 0, 82, 70
2, 6180, Note_on_c, 0, 82, 0
2, 6180, Note_on_c, 0, 81, 70
2, 6210, Note_on_c, 0, 81, 0
2, 6210, Note_on_c, 0, 79, 70
2, 6240, Note_on_c, 0, 79, 0
2, 6240, Note_on_c, 0, 77, 70
2, 6260, Note_on_c, 0, 77, 0
2, 6260, Note_on_c, 0, 76, 70
2, 6279, Note_on_c, 0, 76, 0
2, 6279, Note_on_c, 0, 74, 70
2, 6300, Note_on_c, 0, 74, 0
2, 6300, Note_on_c, 0, 73, 70
2, 6320, Note_on_c, 0, 73, 0
2, 6320, Note_on_c, 0, 74, 70
2, 6339, Note_on_c, 0, 74, 0
2, 6339, Note_on_c, 0, 76, 70
2, 6360, Note_on_c, 0, 76, 0
2, 6360, Note_on_c, 0, 69, 70
2, 6380, Note_on_c, 0, 69, 0
2, 6380, Note_on_c, 0, 71, 70
2, 6399, Note_on_c, 0, 71, 0
2, 6399, Note_on_c, 0, 73, 70
2, 6420, Note_on_c, 0, 73, 0
2, 6420, Note_on_c, 0, 74, 70
2, 6440, Note_on_c, 0, 74, 0
2, 6440, Note_on_c, 0, 73, 70
2, 6459, Note_on_c, 0, 73, 0
2, 6459, Note_on_c, 0, 71, 70
2, 6480, Note_on_c, 0, 71, 0
2, 6480, Note_on_c, 0, 73, 70
2, 6500, Note_on_c, 0, 73, 0
2, 6500, Note_on_c, 0, 74, 70
2, 6519, Note_on_c, 0, 74, 0
2, 6519, Note_on_c, 0, 76, 70
2, 6540, Note_on_c, 0, 76, 0
2, 6540, Note_on_c, 0, 77, 70
2, 6560, Note_on_c, 0, 77, 0
2, 6560, Note_on_c, 0, 76, 70
2, 6579, Note_on_c, 0, 76, 0
2, 6579, Note_on_c, 0, 74, 70
2, 6600, Note_on_c, 0, 74, 0
2, 6600, Note_on_c, 0, 76, 70
2, 6660, Note_on_c, 0, 76, 0
2, 6660, Note_on_c, 0, 81, 70
2, 6720, Note_on_c, 0, 81, 0
2, 6720, Note_on_c, 0, 80, 70
2, 6780, Note_on_c, 0, 80, 0
2, 6780, Note_on_c, 0, 79, 70
2, 6840, Note_on_c, 0, 79, 0
2, 6840, Note_on_c, 0, 78, 70
2, 6900, Note_on_c, 0, 78, 0
2, 6900, Note_on_c, 0, 77, 70
2, 6960, Note_on_c, 0, 77, 0
2, 6960, Note_on_c, 0, 76, 70
2, 7020, Note_on_c, 0, 76, 0
2, 7020, Note_on_c, 0, 74, 70
2, 7140, Note_on_c, 0, 74, 0
2, 7140, Note_on_c, 0, 72, 70
2, 7200, Note_on_c, 0, 72, 0
2, 7200, Note_on_c, 0, 71, 70
2, 7260, Note_on_c, 0, 71, 0
2, 7260, Note_on_c, 0, 70, 70
2, 7380, Note_on_c, 0, 70, 0
2, 7380, Note_on_c, 0, 69, 70
2, 7440, Note_on_c, 0, 69, 0
2, 7440, Note_on_c, 0, 68, 70
2, 7500, Note_on_c, 0, 68, 0
2, 7500, Note_on_c, 0, 67, 70
2, 7620, Note_on_c, 0, 67, 0
2, 7620, Note_on_c, 0, 65, 70
2, 7630, Note_on_c, 0, 67, 70
2, 7639, Note_on_c, 0, 67, 0
2, 7639, Note_on_c, 0, 65, 0
2, 7640, Note_on_c, 0, 67, 70
2, 7640, Note_on_c, 0, 65, 70
2, 7649, Note_on_c, 0, 65, 0
2, 7649, Note_on_c, 0, 67, 0
2, 7650, Note_on_c, 0, 65, 70
2, 7659, Note_on_c, 0, 65, 0
2, 7660, Note_on_c, 0, 64, 70
2, 7669, Note_on_c, 0, 64, 0
2, 7670, Note_on_c, 0, 65, 70
2, 7679, Note_on_c, 0, 65, 0
2, 7680, Note_on_c, 0, 64, 70
2, 7740, Note_on_c, 0, 64, 0
2, 8060, Note_on_c, 0, 62, 70
2, 8079, Note_on_c, 0, 62, 0
2, 8079, Note_on_c, 0, 64, 70
2, 8100, Note_on_c, 0, 64, 0
2, 8100, Note_on_c, 0, 65, 70
2, 8120, Note_on_c, 0, 65, 0
2, 8120, Note_on_c, 0, 64, 70
2, 8139, Note_on_c, 0, 64, 0
2, 8139, Note_on_c, 0, 62, 70
2, 8160, Note_on_c, 0, 62, 0
2, 8180, Note_on_c, 0, 70, 70
2, 8199, Note_on_c, 0, 70, 0
2, 8199, Note_on_c, 0, 69, 70
2, 8220, Note_on_c, 0, 69, 0
2, 8220, Note_on_c, 0, 67, 70
2, 8240, Note_on_c, 0, 67, 0
2, 8240, Note_on_c, 0, 69, 70
2, 8259, Note_on_c, 0, 69, 0
2, 8259, Note_on_c, 0, 70, 70
2, 8280, Note_on_c, 0, 70, 0
2, 8300, Note_on_c, 0, 69, 70
2, 8319, Note_on_c, 0, 69, 0
2, 8319, Note_on_c, 0, 70, 70
2, 8340, Note_on_c, 0, 70, 0
2, 8340, Note_on_c, 0, 72, 70
2, 8360, Note_on_c, 0, 72, 0
2, 8360, Note_on_c, 0, 70, 70
2, 8379, Note_on_c, 0, 70, 0
2, 8379, Note_on_c, 0, 69, 70
2, 8400, Note_on_c, 0, 69, 0
2, 8400, Note_on_c, 0, 70, 70
2, 8460, Note_on_c, 0, 70, 0
2, 8460, Note_on_c, 0, 66, 70
2, 8520, Note_on_c, 0, 66, 0
2, 8520, Note_on_c, 0, 67, 70
2, 8540, Note_on_c, 0, 67, 0
2, 8540, Note_on_c, 0, 69, 70
2, 8559, Note_on_c, 0, 69, 0
2, 8559, Note_on_c, 0, 70, 70
2, 8580, Note_on_c, 0, 70, 0
2, 8580, Note_on_c, 0, 72, 70
2, 8600, Note_on_c, 0, 72, 0
2, 8600, Note_on_c, 0, 70, 70
2, 8619, Note_on_c, 0, 70, 0
2, 8619, Note_on_c, 0, 69, 70
2, 8640, Note_on_c, 0, 69, 0
2, 8640, Note_on_c, 0, 70, 70
2, 8660, Note_on_c, 0, 70, 0
2, 8660, Note_on_c, 0, 72, 70
2, 8679, Note_on_c, 0, 72, 0
2, 8679, Note_on_c, 0, 74, 70
2, 8700, Note_on_c, 0, 74, 0
2, 8700, Note_on_c, 0, 75, 70
2, 8720, Note_on_c, 0, 75, 0
2, 8720, Note_on_c, 0, 74, 70
2, 8739, Note_on_c, 0, 74, 0
2, 8739, Note_on_c, 0, 73, 70
2, 8760, Note_on_c, 0, 73, 0
2, 8760, Note_on_c, 0, 74, 70
2, 8940, Note_on_c, 0, 74, 0
2, 9000, Note_on_c, 0, 79, 70
2, 9020, Note_on_c, 0, 79, 0
2, 9020, Note_on_c, 0, 77, 70
2, 9039, Note_on_c, 0, 77, 0
2, 9039, Note_on_c, 0, 76, 70
2, 9060, Note_on_c, 0, 76, 0
2, 9060, Note_on_c, 0, 74, 70
2, 9080, Note_on_c, 0, 74, 0
2, 9080, Note_on_c, 0, 76, 70
2, 9099, Note_on_c, 0, 76, 0
2, 9099, Note_on_c, 0, 77, 70
2, 9120, Note_on_c, 0, 77, 0
2, 9120, Note_on_c, 0, 76, 70
2, 9159, Note_on_c, 0, 76, 0
2, 9180, Note_on_c, 0, 79, 70
2, 9219, Note_on_c, 0, 79, 0
2, 9240, Note_on_c, 0, 72, 70
2, 9279, Note_on_c, 0, 72, 0
2, 9480, Note_on_c, 0, 77, 70
2, 9500, Note_on_c, 0, 77, 0
2, 9500, Note_on_c, 0, 75, 70
2, 9519, Note_on_c, 0, 75, 0
2, 9519, Note_on_c, 0, 74, 70
2, 9540, Note_on_c, 0, 74, 0
2, 9540, Note_on_c, 0, 72, 70
2, 9560, Note_on_c, 0, 72, 0
2, 9560, Note_on_c, 0, 74, 70
2, 9579, Note_on_c, 0, 74, 0
2, 9579, Note_on_c, 0, 75, 70
2, 9600, Note_on_c, 0, 75, 0
2, 9600, Note_on_c, 0, 74, 70
2, 9720, Note_on_c, 0, 74, 0
2, 9720, Note_on_c, 0, 73, 70
2, 9740, Note_on_c, 0, 73, 0
2, 9740, Note_on_c, 0, 74, 70
2, 9759, Note_on_c, 0, 74, 0
2, 9759, Note_on_c, 0, 76, 70
2, 9780, Note_on_c, 0, 76, 0
2, 9780, Note_on_c, 0, 77, 70
2, 9800, Note_on_c, 0, 77, 0
2, 9800, Note_on_c, 0, 76, 70
2, 9819, Note_on_c, 0, 76, 0
2, 9819, Note_on_c, 0, 74, 70
2, 9840, Note_on_c, 0, 74, 0
2, 9840, Note_on_c, 0, 76, 70
2, 9860, Note_on_c, 0, 76, 0
2, 9860, Note_on_c, 0, 77, 70
2, 9879, Note_on_c, 0, 77, 0
2, 9879, Note_on_c, 0, 79, 70
2, 9900, Note_on_c, 0, 79, 0
2, 9900, Note_on_c, 0, 81, 70
2, 9920, Note_on_c, 0, 81, 0
2, 9920, Note_on_c, 0, 79, 70
2, 9939, Note_on_c, 0, 79, 0
2, 9939, Note_on_c, 0, 77, 70
2, 9960, Note_on_c, 0, 77, 0
2, 9960, Note_on_c, 0, 79, 70
2, 10020, Note_on_c, 0, 79, 0
2, 10020, Note_on_c, 0, 77, 70
2, 10080, Note_on_c, 0, 77, 0
2, 10080, Note_on_c, 0, 76, 70
2, 10230, Note_on_c, 0, 76, 0
2, 10230, Note_on_c, 0, 74, 70
2, 10260, Note_on_c, 0, 74, 0
2, 10260, Note_on_c, 0, 75, 70
2, 10290, Note_on_c, 0, 75, 0
2, 10290, Note_on_c, 0, 74, 70
2, 10320, Note_on_c, 0, 74, 0
2, 10320, Note_on_c, 0, 73, 70
2, 10350, Note_on_c, 0, 73, 0
2, 10350, Note_on_c, 0, 76, 70
2, 10380, Note_on_c, 0, 76, 0
2, 10380, Note_on_c, 0, 74, 70
2, 10410, Note_on_c, 0, 74, 0
2, 10410, Note_on_c, 0, 72, 70
2, 10440, Note_on_c, 0, 72, 0
2, 10440, Note_on_c, 0, 71, 70
2, 10500, Note_on_c, 0, 71, 0
2, 10500, Note_on_c, 0, 70, 70
2, 10560, Note_on_c, 0, 70, 0
2, 10560, Note_on_c, 0, 69, 70
2, 10740, Note_on_c, 0, 69, 0
2, 10740, Note_on_c, 0, 67, 70
2, 10860, Note_on_c, 0, 67, 0
2, 10860, Note_on_c, 0, 65, 70
2, 10920, Note_on_c, 0, 65, 0
2, 10920, Note_on_c, 0, 64, 70
2, 11040, Note_on_c, 0, 64, 0
2, 11040, Note_on_c, 0, 62, 70
2, 11160, Note_on_c, 0, 62, 0
2, 11760, Note_on_c, 0, 62, 70
2, 11780, Note_on_c, 0, 62, 0
2, 11780, Note_on_c, 0, 64, 70
2, 11799, Note_on_c, 0, 64, 0
2, 11799, Note_on_c, 0, 65, 70
2, 11820, Note_on_c, 0, 65, 0
2, 11820, Note_on_c, 0, 67, 70
2, 11840, Note_on_c, 0, 67, 0
2, 11840, Note_on_c, 0, 65, 70
2, 11859, Note_on_c, 0, 65, 0
2, 11859, Note_on_c, 0, 64, 70
2, 11880, Note_on_c, 0, 64, 0
2, 11880, Note_on_c, 0, 65, 70
2, 11900, Note_on_c, 0, 65, 0
2, 11900, Note_on_c, 0, 67, 70
2, 11919, Note_on_c, 0, 67, 0
2, 11919, Note_on_c, 0, 69, 70
2, 11940, Note_on_c, 0, 69, 0
2, 11940, Note_on_c, 0, 70, 70
2, 11960, Note_on_c, 0, 70, 0
2, 11960, Note_on_c, 0, 69, 70
2, 11979, Note_on_c, 0, 69, 0
2, 11979, Note_on_c, 0, 67, 70
2, 12000, Note_on_c, 0, 67, 0
2, 12000, Note_on_c, 0, 69, 70
2, 12060, Note_on_c, 0, 69, 0
2, 12060, Note_on_c, 0, 74, 70
2, 12120, Note_on_c, 0, 74, 0
2, 12120, Note_on_c, 0, 73, 70
2, 12180, Note_on_c, 0, 73, 0
2, 12180, Note_on_c, 0, 72, 70
2, 12240, Note_on_c, 0, 72, 0
2, 12240, Note_on_c, 0, 71, 70
2, 12300, Note_on_c, 0, 71, 0
2, 12300, Note_on_c, 0, 70, 70
2, 12360, Note_on_c, 0, 70, 0
2, 12360, Note_on_c, 0, 69, 70
2, 12420, Note_on_c, 0, 69, 0
2, 12420, Note_on_c, 0, 67, 70
2, 12510, Note_on_c, 0, 67, 0
2, 12510, Note_on_c, 0, 67, 70
2, 12540, Note_on_c, 0, 67, 0
2, 12540, Note_on_c, 0, 65, 70
2, 12570, Note_on_c, 0, 65, 0
2, 12570, Note_on_c, 0, 64, 70
2, 12600, Note_on_c, 0, 64, 0
2, 12600, Note_on_c, 0, 65, 70
2, 12624, Note_on_c, 0, 64, 70
2, 12629, Note_on_c, 0, 65, 0
2, 12632, Note_on_c, 0, 65, 70
2, 12639, Note_on_c, 0, 64, 0
2, 12642, Note_on_c, 0, 64, 70
2, 12645, Note_on_c, 0, 65, 0
2, 12651, Note_on_c, 0, 64, 0
2, 12652, Note_on_c, 0, 65, 70
2, 12661, Note_on_c, 0, 65, 0
2, 12666, Note_on_c, 0, 64, 70
2, 12690, Note_on_c, 0, 62, 70
2, 12693, Note_on_c, 0, 64, 0
2, 12720, Note_on_c, 0, 62, 0
2, 12720, Note_on_c, 0, 62, 70
2, 12960, Note_on_c, 0, 62, 0
2, 12960, End_track
3, 0, Start_track
3, 0, MIDI_port, 0
3, 0, Title_t, "sequenced by"
3, 0, Note_on_c, 1, 62, 70
3, 20, Note_on_c, 1, 62, 0
3, 20, Note_on_c, 1, 64, 70
3, 39, Note_on_c, 1, 64, 0
3, 39, Note_on_c, 1, 65, 70
3, 60, Note_on_c, 1, 65, 0
3, 60, Note_on_c, 1, 67, 70
3, 80, Note_on_c, 1, 67, 0
3, 80, Note_on_c, 1, 65, 70
3, 99, Note_on_c, 1, 65, 0
3, 99, Note_on_c, 1, 64, 70
3, 120, Note_on_c, 1, 64, 0
3, 120, Note_on_c, 1, 65, 70
3, 140, Note_on_c, 1, 65, 0
3, 140, Note_on_c, 1, 67, 70
3, 159, Note_on_c, 1, 67, 0
3, 159, Note_on_c, 1, 69, 70
3, 180, Note_on_c, 1, 69, 0
3, 180, Note_on_c, 1, 70, 70
3, 200, Note_on_c, 1, 70, 0
3, 200, Note_on_c, 1, 69, 70
3, 219, Note_on_c, 1, 69, 0
3, 219, Note_on_c, 1, 67, 70
3, 240, Note_on_c, 1, 67, 0
3, 240, Note_on_c, 1, 69, 70
3, 300, Note_on_c, 1, 69, 0
3, 300, Note_on_c, 1, 74, 70
3, 360, Note_on_c, 1, 74, 0
3, 360, Note_on_c, 1, 73, 70
3, 420, Note_on_c, 1, 73, 0
3, 420, Note_on_c, 1, 72, 70
3, 480, Note_on_c, 1, 72, 0
3, 480, Note_on_c, 1, 71, 70
3, 540, Note_on_c, 1, 71, 0
3, 540, Note_on_c, 1, 70, 70
3, 600, Note_on_c, 1, 70, 0
3, 600, Note_on_c, 1, 69, 70
3, 660, Note_on_c, 1, 69, 0
3, 660, Note_on_c, 1, 67, 70
3, 780, Note_on_c, 1, 67, 0
3, 780, Note_on_c, 1, 65, 70
3, 840, Note_on_c, 1, 65, 0
3, 840, Note_on_c, 1, 64, 70
3, 900, Note_on_c, 1, 64, 0
3, 900, Note_on_c, 1, 69, 70
3, 960, Note_on_c, 1, 69, 0
3, 960, Note_on_c, 1, 65, 70
3, 1020, Note_on_c, 1, 65, 0
3, 1020, Note_on_c, 1, 62, 70
3, 1080, Note_on_c, 1, 62, 0
3, 1080, Note_on_c, 1, 69, 70
3, 1140, Note_on_c, 1, 69, 0
3, 1230, Note_on_c, 1, 59, 70
3, 1260, Note_on_c, 1, 59, 0
3, 1260, Note_on_c, 1, 60, 70
3, 1290, Note_on_c, 1, 60, 0
3, 1290, Note_on_c, 1, 62, 70
3, 1320, Note_on_c, 1, 62, 0
3, 1320, Note_on_c, 1, 64, 70
3, 1350, Note_on_c, 1, 64, 0
3, 1350, Note_on_c, 1, 66, 70
3, 1380, Note_on_c, 1, 66, 0
3, 1380, Note_on_c, 1, 67, 70
3, 1410, Note_on_c, 1, 67, 0
3, 1410, Note_on_c, 1, 64, 70
3, 1440, Note_on_c, 1, 64, 0
3, 1440, Note_on_c, 1, 69, 70
3, 1470, Note_on_c, 1, 69, 0
3, 1470, Note_on_c, 1, 68, 70
3, 1500, Note_on_c, 1, 68, 0
3, 1500, Note_on_c, 1, 69, 70
3, 1530, Note_on_c, 1, 69, 0
3, 1530, Note_on_c, 1, 71, 70
3, 1560, Note_on_c, 1, 71, 0
3, 1560, Note_on_c, 1, 72, 70
3, 1590, Note_on_c, 1, 72, 0
3, 1590, Note_on_c, 1, 66, 70
3, 1620, Note_on_c, 1, 66, 0
3, 1620, Note_on_c, 1, 71, 70
3, 1650, Note_on_c, 1, 71, 0
3, 1650, Note_on_c, 1, 69, 70
3, 1680, Note_on_c, 1, 69, 0
3, 1680, Note_on_c, 1, 68, 70
3, 1710, Note_on_c, 1, 68, 0
3, 1710, Note_on_c, 1, 64, 70
3, 1740, Note_on_c, 1, 64, 0
3, 1740, Note_on_c, 1, 69, 70
3, 1860, Note_on_c, 1, 69, 0
3, 1860, Note_on_c, 1, 67, 70
3, 1940, Note_on_c, 1, 67, 0
3, 1940, Note_on_c, 1, 65, 70
3, 1959, Note_on_c, 1, 65, 0
3, 1959, Note_on_c, 1, 64, 70
3, 1980, Note_on_c, 1, 64, 0
3, 1980, Note_on_c, 1, 62, 70
3, 2000, Note_on_c, 1, 62, 0
3, 2000, Note_on_c, 1, 64, 70
3, 2019, Note_on_c, 1, 64, 0
3, 2019, Note_on_c, 1, 65, 70
3, 2040, Note_on_c, 1, 65, 0
3, 2040, Note_on_c, 1, 64, 70
3, 2060, Note_on_c, 1, 64, 0
3, 2060, Note_on_c, 1, 62, 70
3, 2079, Note_on_c, 1, 62, 0
3, 2079, Note_on_c, 1, 60, 70
3, 2100, Note_on_c, 1, 60, 0
3, 2100, Note_on_c, 1, 59, 70
3, 2120, Note_on_c, 1, 59, 0
3, 2120, Note_on_c, 1, 60, 70
3, 2139, Note_on_c, 1, 60, 0
3, 2139, Note_on_c, 1, 62, 70
3, 2160, Note_on_c, 1, 62, 0
3, 2160, Note_on_c, 1, 60, 70
3, 2220, Note_on_c, 1, 60, 0
3, 2220, Note_on_c, 1, 61, 70
3, 2280, Note_on_c, 1, 61, 0
3, 2280, Note_on_c, 1, 62, 70
3, 2340, Note_on_c, 1, 62, 0
3, 2340, Note_on_c, 1, 55, 70
3, 2400, Note_on_c, 1, 55, 0
3, 2400, Note_on_c, 1, 53, 70
3, 2460, Note_on_c, 1, 53, 0
3, 2460, Note_on_c, 1, 58, 70
3, 2520, Note_on_c, 1, 58, 0
3, 2520, Note_on_c, 1, 57, 70
3, 2580, Note_on_c, 1, 57, 0
3, 2580, Note_on_c, 1, 62, 70
3, 2640, Note_on_c, 1, 62, 0
3, 2640, Note_on_c, 1, 61, 70
3, 2700, Note_on_c, 1, 61, 0
3, 2700, Note_on_c, 1, 62, 70
3, 2760, Note_on_c, 1, 62, 0
3, 2760, Note_on_c, 1, 64, 70
3, 2880, Note_on_c, 1, 64, 0
3, 2880, Note_on_c, 1, 62, 70
3, 3000, Note_on_c, 1, 62, 0
3, 3150, Note_on_c, 1, 69, 70
3, 3180, Note_on_c, 1, 69, 0
3, 3180, Note_on_c, 1, 70, 70
3, 3210, Note_on_c, 1, 70, 0
3, 3210, Note_on_c, 1, 69, 70
3, 3240, Note_on_c, 1, 69, 0
3, 3240, Note_on_c, 1, 67, 70
3, 3270, Note_on_c, 1, 67, 0
3, 3270, Note_on_c, 1, 70, 70
3, 3300, Note_on_c, 1, 70, 0
3, 3300, Note_on_c, 1, 69, 70
3, 3330, Note_on_c, 1, 69, 0
3, 3330, Note_on_c, 1, 67, 70
3, 3360, Note_on_c, 1, 67, 0
3, 3360, Note_on_c, 1, 66, 70
3, 3420, Note_on_c, 1, 66, 0
3, 3420, Note_on_c, 1, 67, 70
3, 3540, Note_on_c, 1, 67, 0
3, 3540, Note_on_c, 1, 65, 70
3, 3660, Note_on_c, 1, 65, 0
3, 3660, Note_on_c, 1, 64, 70
3, 3720, Note_on_c, 1, 64, 0
3, 3720, Note_on_c, 1, 62, 70
3, 3840, Note_on_c, 1, 62, 0
3, 3840, Note_on_c, 1, 60, 70
3, 3870, Note_on_c, 1, 60, 0
3, 3870, Note_on_c, 1, 72, 70
3, 3900, Note_on_c, 1, 72, 0
3, 3900, Note_on_c, 1, 74, 70
3, 3930, Note_on_c, 1, 74, 0
3, 3930, Note_on_c, 1, 72, 70
3, 3960, Note_on_c, 1, 72, 0
3, 3960, Note_on_c, 1, 70, 70
3, 3990, Note_on_c, 1, 70, 0
3, 3990, Note_on_c, 1, 74, 70
3, 4020, Note_on_c, 1, 74, 0
3, 4020, Note_on_c, 1, 72, 70
3, 4050, Note_on_c, 1, 72, 0
3, 4050, Note_on_c, 1, 70, 70
3, 4080, Note_on_c, 1, 70, 0
3, 4080, Note_on_c, 1, 69, 70
3, 4140, Note_on_c, 1, 69, 0
3, 4140, Note_on_c, 1, 67, 70
3, 4200, Note_on_c, 1, 67, 0
3, 4200, Note_on_c, 1, 65, 70
3, 4260, Note_on_c, 1, 65, 0
3, 4260, Note_on_c, 1, 64, 70
3, 4320, Note_on_c, 1, 64, 0
3, 4320, Note_on_c, 1, 65, 70
3, 4380, Note_on_c, 1, 65, 0
3, 4380, Note_on_c, 1, 61, 70
3, 4440, Note_on_c, 1, 61, 0
3, 4440, Note_on_c, 1, 62, 70
3, 4620, Note_on_c, 1, 62, 0
3, 4620, Note_on_c, 1, 58, 70
3, 4680, Note_on_c, 1, 58, 0
3, 4680, Note_on_c, 1, 57, 70
3, 4820, Note_on_c, 1, 57, 0
3, 4820, Note_on_c, 1, 55, 70
3, 4839, Note_on_c, 1, 55, 0
3, 4839, Note_on_c, 1, 53, 70
3, 4860, Note_on_c, 1, 53, 0
3, 4860, Note_on_c, 1, 52, 70
3, 4880, Note_on_c, 1, 52, 0
3, 4880, Note_on_c, 1, 53, 70
3, 4899, Note_on_c, 1, 53, 0
3, 4899, Note_on_c, 1, 55, 70
3, 4920, Note_on_c, 1, 55, 0
3, 4920, Note_on_c, 1, 53, 70
3, 5010, Note_on_c, 1, 53, 0
3, 5010, Note_on_c, 1, 55, 70
3, 5040, Note_on_c, 1, 55, 0
3, 5070, Note_on_c, 1, 55, 70
3, 5100, Note_on_c, 1, 55, 0
3, 5100, Note_on_c, 1, 54, 70
3, 5160, Note_on_c, 1, 54, 0
3, 5190, Note_on_c, 1, 53, 70
3, 5220, Note_on_c, 1, 53, 0
3, 5220, Note_on_c, 1, 52, 70
3, 5280, Note_on_c, 1, 52, 0
3, 5310, Note_on_c, 1, 51, 70
3, 5340, Note_on_c, 1, 51, 0
3, 5340, Note_on_c, 1, 50, 70
3, 5400, Note_on_c, 1, 50, 0
3, 5430, Note_on_c, 1, 50, 70
3, 5460, Note_on_c, 1, 50, 0
3, 5460, Note_on_c, 1, 49, 70
3, 5520, Note_on_c, 1, 49, 0
3, 5520, Note_on_c, 1, 50, 70
3, 5550, Note_on_c, 1, 50, 0
3, 5550, Note_on_c, 1, 69, 70
3, 5580, Note_on_c, 1, 69, 0
3, 5580, Note_on_c, 1, 70, 70
3, 5610, Note_on_c, 1, 70, 0
3, 5610, Note_on_c, 1, 69, 70
3, 5640, Note_on_c, 1, 69, 0
3, 5640, Note_on_c, 1, 67, 70
3, 5670, Note_on_c, 1, 67, 0
3, 5670, Note_on_c, 1, 70, 70
3, 5700, Note_on_c, 1, 70, 0
3, 5700, Note_on_c, 1, 69, 70
3, 5730, Note_on_c, 1, 69, 0
3, 5730, Note_on_c, 1, 67, 70
3, 5760, Note_on_c, 1, 67, 0
3, 5760, Note_on_c, 1, 65, 70
3, 5880, Note_on_c, 1, 65, 0
3, 5880, Note_on_c, 1, 64, 70
3, 6060, Note_on_c, 1, 64, 0
3, 6060, Note_on_c, 1, 62, 70
3, 6180, Note_on_c, 1, 62, 0
3, 6180, Note_on_c, 1, 61, 70
3, 6240, Note_on_c, 1, 61, 0
3, 6240, Note_on_c, 1, 62, 70
3, 6260, Note_on_c, 1, 62, 0
3, 6260, Note_on_c, 1, 64, 70
3, 6279, Note_on_c, 1, 64, 0
3, 6279, Note_on_c, 1, 65, 70
3, 6300, Note_on_c, 1, 65, 0
3, 6300, Note_on_c, 1, 67, 70
3, 6320, Note_on_c, 1, 67, 0
3, 6320, Note_on_c, 1, 65, 70
3, 6339, Note_on_c, 1, 65, 0
3, 6339, Note_on_c, 1, 64, 70
3, 6360, Note_on_c, 1, 64, 0
3, 6360, Note_on_c, 1, 65, 70
3, 6380, Note_on_c, 1, 65, 0
3, 6380, Note_on_c, 1, 67, 70
3, 6399, Note_on_c, 1, 67, 0
3, 6399, Note_on_c, 1, 69, 70
3, 6420, Note_on_c, 1, 69, 0
3, 6420, Note_on_c, 1, 70, 70
3, 6440, Note_on_c, 1, 70, 0
3, 6440, Note_on_c, 1, 69, 70
3, 6459, Note_on_c, 1, 69, 0
3, 6459, Note_on_c, 1, 67, 70
3, 6480, Note_on_c, 1, 67, 0
3, 6480, Note_on_c, 1, 69, 70
3, 6540, Note_on_c, 1, 69, 0
3, 6540, Note_on_c, 1, 74, 70
3, 6600, Note_on_c, 1, 74, 0
3, 6600, Note_on_c, 1, 73, 70
3, 6660, Note_on_c, 1, 73, 0
3, 6660, Note_on_c, 1, 72, 70
3, 6720, Note_on_c, 1, 72, 0
3, 6720, Note_on_c, 1, 71, 70
3, 6780, Note_on_c, 1, 71, 0
3, 6780, Note_on_c, 1, 70, 70
3, 6840, Note_on_c, 1, 70, 0
3, 6840, Note_on_c, 1, 69, 70
3, 7020, Note_on_c, 1, 69, 0
3, 7050, Note_on_c, 1, 65, 70
3, 7080, Note_on_c, 1, 65, 0
3, 7080, Note_on_c, 1, 64, 70
3, 7170, Note_on_c, 1, 64, 0
3, 7170, Note_on_c, 1, 64, 70
3, 7200, Note_on_c, 1, 64, 0
3, 7200, Note_on_c, 1, 62, 70
3, 7290, Note_on_c, 1, 62, 0
3, 7290, Note_on_c, 1, 62, 70
3, 7320, Note_on_c, 1, 62, 0
3, 7320, Note_on_c, 1, 60, 70
3, 7410, Note_on_c, 1, 60, 0
3, 7410, Note_on_c, 1, 60, 70
3, 7440, Note_on_c, 1, 60, 0
3, 7440, Note_on_c, 1, 59, 70
3, 7530, Note_on_c, 1, 59, 0
3, 7530, Note_on_c, 1, 58, 70
3, 7560, Note_on_c, 1, 58, 0
3, 7560, Note_on_c, 1, 57, 70
3, 7620, Note_on_c, 1, 57, 0
3, 7680, Note_on_c, 1, 69, 70
3, 7700, Note_on_c, 1, 69, 0
3, 7700, Note_on_c, 1, 67, 70
3, 7719, Note_on_c, 1, 67, 0
3, 7719, Note_on_c, 1, 65, 70
3, 7740, Note_on_c, 1, 65, 0
3, 7740, Note_on_c, 1, 64, 70
3, 7760, Note_on_c, 1, 64, 0
3, 7760, Note_on_c, 1, 65, 70
3, 7779, Note_on_c, 1, 65, 0
3, 7779, Note_on_c, 1, 67, 70
3, 7800, Note_on_c, 1, 67, 0
3, 7800, Note_on_c, 1, 65, 70
3, 7820, Note_on_c, 1, 65, 0
3, 7820, Note_on_c, 1, 64, 70
3, 7839, Note_on_c, 1, 64, 0
3, 7839, Note_on_c, 1, 62, 70
3, 7860, Note_on_c, 1, 62, 0
3, 7860, Note_on_c, 1, 61, 70
3, 7880, Note_on_c, 1, 61, 0
3, 7880, Note_on_c, 1, 62, 70
3, 7899, Note_on_c, 1, 62, 0
3, 7899, Note_on_c, 1, 64, 70
3, 7920, Note_on_c, 1, 64, 0
3, 7920, Note_on_c, 1, 62, 70
3, 7980, Note_on_c, 1, 62, 0
3, 7980, Note_on_c, 1, 57, 70
3, 8040, Note_on_c, 1, 57, 0
3, 8040, Note_on_c, 1, 58, 70
3, 8100, Note_on_c, 1, 58, 0
3, 8100, Note_on_c, 1, 59, 70
3, 8160, Note_on_c, 1, 59, 0
3, 8160, Note_on_c, 1, 60, 70
3, 8220, Note_on_c, 1, 60, 0
3, 8220, Note_on_c, 1, 61, 70
3, 8280, Note_on_c, 1, 61, 0
3, 8280, Note_on_c, 1, 62, 70
3, 8580, Note_on_c, 1, 62, 0
3, 8760, Note_on_c, 1, 74, 70
3, 8780, Note_on_c, 1, 74, 0
3, 8780, Note_on_c, 1, 72, 70
3, 8799, Note_on_c, 1, 72, 0
3, 8799, Note_on_c, 1, 70, 70
3, 8820, Note_on_c, 1, 70, 0
3, 8820, Note_on_c, 1, 69, 70
3, 8840, Note_on_c, 1, 69, 0
3, 8840, Note_on_c, 1, 70, 70
3, 8859, Note_on_c, 1, 70, 0
3, 8859, Note_on_c, 1, 72, 70
3, 8880, Note_on_c, 1, 72, 0
3, 8880, Note_on_c, 1, 70, 70
3, 8919, Note_on_c, 1, 70, 0
3, 8940, Note_on_c, 1, 74, 70
3, 8979, Note_on_c, 1, 74, 0
3, 9000, Note_on_c, 1, 67, 70
3, 9039, Note_on_c, 1, 67, 0
3, 9060, Note_on_c, 1, 71, 70
3, 9120, Note_on_c, 1, 71, 0
3, 9120, Note_on_c, 1, 72, 70
3, 9180, Note_on_c, 1, 72, 0
3, 9240, Note_on_c, 1, 72, 70
3, 9260, Note_on_c, 1, 72, 0
3, 9260, Note_on_c, 1, 70, 70
3, 9279, Note_on_c, 1, 70, 0
3, 9279, Note_on_c, 1, 69, 70
3, 9300, Note_on_c, 1, 69, 0
3, 9300, Note_on_c, 1, 67, 70
3, 9320, Note_on_c, 1, 67, 0
3, 9320, Note_on_c, 1, 69, 70
3, 9339, Note_on_c, 1, 69, 0
3, 9339, Note_on_c, 1, 70, 70
3, 9360, Note_on_c, 1, 70, 0
3, 9360, Note_on_c, 1, 69, 70
3, 9399, Note_on_c, 1, 69, 0
3, 9420, Note_on_c, 1, 72, 70
3, 9459, Note_on_c, 1, 72, 0
3, 9480, Note_on_c, 1, 65, 70
3, 9519, Note_on_c, 1, 65, 0
3, 9540, Note_on_c, 1, 69, 70
3, 9600, Note_on_c, 1, 69, 0
3, 9600, Note_on_c, 1, 70, 70
3, 9660, Note_on_c, 1, 70, 0
3, 9660, Note_on_c, 1, 69, 70
3, 9990, Note_on_c, 1, 69, 0
3, 9990, Note_on_c, 1, 69, 70
3, 10020, Note_on_c, 1, 69, 0
3, 10020, Note_on_c, 1, 70, 70
3, 10050, Note_on_c, 1, 70, 0
3, 10050, Note_on_c, 1, 69, 70
3, 10080, Note_on_c, 1, 69, 0
3, 10080, Note_on_c, 1, 67, 70
3, 10110, Note_on_c, 1, 67, 0
3, 10110, Note_on_c, 1, 70, 70
3, 10140, Note_on_c, 1, 70, 0
3, 10140, Note_on_c, 1, 69, 70
3, 10170, Note_on_c, 1, 69, 0
3, 10170, Note_on_c, 1, 67, 70
3, 10200, Note_on_c, 1, 67, 0
3, 10200, Note_on_c, 1, 65, 70
3, 10239, Note_on_c, 1, 65, 0
3, 10260, Note_on_c, 1, 58, 70
3, 10320, Note_on_c, 1, 58, 0
3, 10320, Note_on_c, 1, 57, 70
3, 10440, Note_on_c, 1, 57, 0
3, 10440, Note_on_c, 1, 55, 70
3, 10479, Note_on_c, 1, 55, 0
3, 10500, Note_on_c, 1, 67, 70
3, 10620, Note_on_c, 1, 67, 0
3, 10620, Note_on_c, 1, 65, 70
3, 10650, Note_on_c, 1, 65, 0
3, 10650, Note_on_c, 1, 64, 70
3, 10680, Note_on_c, 1, 64, 0
3, 10680, Note_on_c, 1, 62, 70
3, 10710, Note_on_c, 1, 62, 0
3, 10710, Note_on_c, 1, 65, 70
3, 10740, Note_on_c, 1, 65, 0
3, 10740, Note_on_c, 1, 64, 70
3, 10770, Note_on_c, 1, 64, 0
3, 10770, Note_on_c, 1, 62, 70
3, 10800, Note_on_c, 1, 62, 0
3, 10800, Note_on_c, 1, 61, 70
3, 10860, Note_on_c, 1, 61, 0
3, 10860, Note_on_c, 1, 62, 70
3, 10980, Note_on_c, 1, 62, 0
3, 10980, Note_on_c, 1, 61, 70
3, 11040, Note_on_c, 1, 61, 0
3, 11070, Note_on_c, 1, 60, 70
3, 11100, Note_on_c, 1, 60, 0
3, 11100, Note_on_c, 1, 58, 70
3, 11130, Note_on_c, 1, 58, 0
3, 11130, Note_on_c, 1, 57, 70
3, 11160, Note_on_c, 1, 57, 0
3, 11160, Note_on_c, 1, 55, 70
3, 11190, Note_on_c, 1, 55, 0
3, 11190, Note_on_c, 1, 58, 70
3, 11220, Note_on_c, 1, 58, 0
3, 11220, Note_on_c, 1, 57, 70
3, 11250, Note_on_c, 1, 57, 0
3, 11250, Note_on_c, 1, 55, 70
3, 11280, Note_on_c, 1, 55, 0
3, 11280, Note_on_c, 1, 53, 70
3, 11310, Note_on_c, 1, 53, 0
3, 11310, Note_on_c, 1, 57, 70
3, 11340, Note_on_c, 1, 57, 0
3, 11340, Note_on_c, 1, 55, 70
3, 11370, Note_on_c, 1, 55, 0
3, 11370, Note_on_c, 1, 53, 70
3, 11400, Note_on_c, 1, 53, 0
3, 11400, Note_on_c, 1, 52, 70
3, 11430, Note_on_c, 1, 52, 0
3, 11430, Note_on_c, 1, 50, 70
3, 11460, Note_on_c, 1, 50, 0
3, 11460, Note_on_c, 1, 49, 70
3, 11490, Note_on_c, 1, 49, 0
3, 11490, Note_on_c, 1, 52, 70
3, 11520, Note_on_c, 1, 52, 0
3, 11520, Note_on_c, 1, 50, 70
3, 11540, Note_on_c, 1, 50, 0
3, 11540, Note_on_c, 1, 52, 70
3, 11559, Note_on_c, 1, 52, 0
3, 11559, Note_on_c, 1, 53, 70
3, 11580, Note_on_c, 1, 53, 0
3, 11580, Note_on_c, 1, 55, 70
3, 11600, Note_on_c, 1, 55, 0
3, 11600, Note_on_c, 1, 53, 70
3, 11619, Note_on_c, 1, 53, 0
3, 11619, Note_on_c, 1, 52, 70
3, 11640, Note_on_c, 1, 52, 0
3, 11640, Note_on_c, 1, 53, 70
3, 11660, Note_on_c, 1, 53, 0
3, 11660, Note_on_c, 1, 55, 70
3, 11679, Note_on_c, 1, 55, 0
3, 11679, Note_on_c, 1, 57, 70
3, 11700, Note_on_c, 1, 57, 0
3, 11700, Note_on_c, 1, 58, 70
3, 11720, Note_on_c, 1, 58, 0
3, 11720, Note_on_c, 1, 57, 70
3, 11739, Note_on_c, 1, 57, 0
3, 11739, Note_on_c, 1, 55, 70
3, 11760, Note_on_c, 1, 55, 0
3, 11760, Note_on_c, 1, 57, 70
3, 11900, Note_on_c, 1, 57, 0
3, 11900, Note_on_c, 1, 55, 70
3, 11919, Note_on_c, 1, 55, 0
3, 11919, Note_on_c, 1, 53, 70
3, 11940, Note_on_c, 1, 53, 0
3, 11940, Note_on_c, 1, 52, 70
3, 11960, Note_on_c, 1, 52, 0
3, 11960, Note_on_c, 1, 53, 70
3, 11979, Note_on_c, 1, 53, 0
3, 11979, Note_on_c, 1, 55, 70
3, 12000, Note_on_c, 1, 55, 0
3, 12000, Note_on_c, 1, 53, 70
3, 12060, Note_on_c, 1, 53, 0
3, 12060, Note_on_c, 1, 65, 70
3, 12120, Note_on_c, 1, 65, 0
3, 12120, Note_on_c, 1, 64, 70
3, 12180, Note_on_c, 1, 64, 0
3, 12180, Note_on_c, 1, 69, 70
3, 12330, Note_on_c, 1, 69, 0
3, 12330, Note_on_c, 1, 67, 70
3, 12390, Note_on_c, 1, 67, 0
3, 12390, Note_on_c, 1, 65, 70
3, 12450, Note_on_c, 1, 65, 0
3, 12450, Note_on_c, 1, 65, 70
3, 12480, Note_on_c, 1, 65, 0
3, 12480, Note_on_c, 1, 64, 70
3, 12540, Note_on_c, 1, 64, 0
3, 12540, Note_on_c, 1, 62, 70
3, 12660, Note_on_c, 1, 62, 0
3, 12660, Note_on_c, 1, 61, 70
3, 12720, Note_on_c, 1, 61, 0
3, 12720, End_track
4, 0, Start_track
4, 0, MIDI_port, 0
4, 0, Title_t, "Yo Tomita"
4, 2400, Note_on_c, 2, 50, 70
4, 2420, Note_on_c, 2, 50, 0
4, 2420, Note_on_c, 2, 52, 70
4, 2439, Note_on_c, 2, 52, 0
4, 2439, Note_on_c, 2, 53, 70
4, 2460, Note_on_c, 2, 53, 0
4, 2460, Note_on_c, 2, 55, 70
4, 2480, Note_on_c, 2, 55, 0
4, 2480, Note_on_c, 2, 53, 70
4, 2499, Note_on_c, 2, 53, 0
4, 2499, Note_on_c, 2, 52, 70
4, 2520, Note_on_c, 2, 52, 0
4, 2520, Note_on_c, 2, 53, 70
4, 2540, Note_on_c, 2, 53, 0
4, 2540, Note_on_c, 2, 55, 70
4, 2559, Note_on_c, 2, 55, 0
4, 2559, Note_on_c, 2, 57, 70
4, 2580, Note_on_c, 2, 57, 0
4, 2580, Note_on_c, 2, 58, 70
4, 2600, Note_on_c, 2, 58, 0
4, 2600, Note_on_c, 2, 57, 70
4, 2619, Note_on_c, 2, 57, 0
4, 2619, Note_on_c, 2, 55, 70
4, 2640, Note_on_c, 2, 55, 0
4, 2640, Note_on_c, 2, 57, 70
4, 2700, Note_on_c, 2, 57, 0
4, 2760, Note_on_c, 2, 61, 70
4, 2820, Note_on_c, 2, 61, 0
4, 2820, Note_on_c, 2, 60, 70
4, 2880, Note_on_c, 2, 60, 0
4, 2880, Note_on_c, 2, 59, 70
4, 2940, Note_on_c, 2, 59, 0
4, 2940, Note_on_c, 2, 58, 70
4, 3000, Note_on_c, 2, 58, 0
4, 3000, Note_on_c, 2, 57, 70
4, 3060, Note_on_c, 2, 57, 0
4, 3060, Note_on_c, 2, 55, 70
4, 3180, Note_on_c, 2, 55, 0
4, 3180, Note_on_c, 2, 53, 70
4, 3240, Note_on_c, 2, 53, 0
4, 3240, Note_on_c, 2, 52, 70
4, 3300, Note_on_c, 2, 52, 0
4, 3300, Note_on_c, 2, 57, 70
4, 3360, Note_on_c, 2, 57, 0
4, 3360, Note_on_c, 2, 50, 70
4, 3390, Note_on_c, 2, 50, 0
4, 3390, Note_on_c, 2, 62, 70
4, 3420, Note_on_c, 2, 62, 0
4, 3420, Note_on_c, 2, 63, 70
4, 3450, Note_on_c, 2, 63, 0
4, 3450, Note_on_c, 2, 62, 70
4, 3480, Note_on_c, 2, 62, 0
4, 3480, Note_on_c, 2, 60, 70
4, 3510, Note_on_c, 2, 60, 0
4, 3510, Note_on_c, 2, 63, 70
4, 3540, Note_on_c, 2, 63, 0
4, 3540, Note_on_c, 2, 62, 70
4, 3570, Note_on_c, 2, 62, 0
4, 3570, Note_on_c, 2, 60, 70
4, 3600, Note_on_c, 2, 60, 0
4, 3600, Note_on_c, 2, 59, 70
4, 3630, Note_on_c, 2, 59, 0
4, 3630, Note_on_c, 2, 55, 70
4, 3660, Note_on_c, 2, 55, 0
4, 3660, Note_on_c, 2, 60, 70
4, 3780, Note_on_c, 2, 60, 0
4, 3780, Note_on_c, 2, 58, 70
4, 3900, Note_on_c, 2, 58, 0
4, 3900, Note_on_c, 2, 57, 70
4, 3960, Note_on_c, 2, 57, 0
4, 3960, Note_on_c, 2, 55, 70
4, 4020, Note_on_c, 2, 55, 0
4, 4020, Note_on_c, 2, 60, 70
4, 4080, Note_on_c, 2, 60, 0
4, 4080, Note_on_c, 2, 53, 70
4, 4100, Note_on_c, 2, 53, 0
4, 4100, Note_on_c, 2, 55, 70
4, 4119, Note_on_c, 2, 55, 0
4, 4119, Note_on_c, 2, 57, 70
4, 4140, Note_on_c, 2, 57, 0
4, 4140, Note_on_c, 2, 58, 70
4, 4160, Note_on_c, 2, 58, 0
4, 4160, Note_on_c, 2, 57, 70
4, 4179, Note_on_c, 2, 57, 0
4, 4179, Note_on_c, 2, 55, 70
4, 4200, Note_on_c, 2, 55, 0
4, 4200, Note_on_c, 2, 57, 70
4, 4239, Note_on_c, 2, 57, 0
4, 4260, Note_on_c, 2, 45, 70
4, 4299, Note_on_c, 2, 45, 0
4, 4320, Note_on_c, 2, 50, 70
4, 4340, Note_on_c, 2, 50, 0
4, 4340, Note_on_c, 2, 52, 70
4, 4359, Note_on_c, 2, 52, 0
4, 4359, Note_on_c, 2, 53, 70
4, 4380, Note_on_c, 2, 53, 0
4, 4380, Note_on_c, 2, 55, 70
4, 4400, Note_on_c, 2, 55, 0
4, 4400, Note_on_c, 2, 53, 70
4, 4419, Note_on_c, 2, 53, 0
4, 4419, Note_on_c, 2, 52, 70
4, 4440, Note_on_c, 2, 52, 0
4, 4440, Note_on_c, 2, 53, 70
4, 4460, Note_on_c, 2, 53, 0
4, 4460, Note_on_c, 2, 55, 70
4, 4479, Note_on_c, 2, 55, 0
4, 4479, Note_on_c, 2, 57, 70
4, 4500, Note_on_c, 2, 57, 0
4, 4500, Note_on_c, 2, 58, 70
4, 4520, Note_on_c, 2, 58, 0
4, 4520, Note_on_c, 2, 57, 70
4, 4539, Note_on_c, 2, 57, 0
4, 4539, Note_on_c, 2, 55, 70
4, 4560, Note_on_c, 2, 55, 0
4, 4560, Note_on_c, 2, 57, 70
4, 4620, Note_on_c, 2, 57, 0
4, 4620, Note_on_c, 2, 55, 70
4, 4680, Note_on_c, 2, 55, 0
4, 4680, Note_on_c, 2, 53, 70
4, 4700, Note_on_c, 2, 53, 0
4, 4700, Note_on_c, 2, 52, 70
4, 4719, Note_on_c, 2, 52, 0
4, 4719, Note_on_c, 2, 50, 70
4, 4740, Note_on_c, 2, 50, 0
4, 4740, Note_on_c, 2, 49, 70
4, 4760, Note_on_c, 2, 49, 0
4, 4760, Note_on_c, 2, 50, 70
4, 4779, Note_on_c, 2, 50, 0
4, 4779, Note_on_c, 2, 52, 70
4, 4800, Note_on_c, 2, 52, 0
4, 4800, Note_on_c, 2, 50, 70
4, 4950, Note_on_c, 2, 50, 0
4, 4950, Note_on_c, 2, 48, 70
4, 4980, Note_on_c, 2, 48, 0
4, 4980, Note_on_c, 2, 46, 70
4, 5040, Note_on_c, 2, 46, 0
4, 5040, Note_on_c, 2, 45, 70
4, 5130, Note_on_c, 2, 45, 0
4, 5130, Note_on_c, 2, 50, 70
4, 5160, Note_on_c, 2, 50, 0
4, 5160, Note_on_c, 2, 43, 70
4, 5250, Note_on_c, 2, 43, 0
4, 5250, Note_on_c, 2, 48, 70
4, 5280, Note_on_c, 2, 48, 0
4, 5280, Note_on_c, 2, 41, 70
4, 5370, Note_on_c, 2, 41, 0
4, 5370, Note_on_c, 2, 46, 70
4, 5400, Note_on_c, 2, 46, 0
4, 5400, Note_on_c, 2, 40, 70
4, 5490, Note_on_c, 2, 40, 0
4, 5490, Note_on_c, 2, 45, 70
4, 5520, Note_on_c, 2, 45, 0
4, 5520, Note_on_c, 2, 38, 70
4, 5580, Note_on_c, 2, 38, 0
4, 5580, Note_on_c, 2, 50, 70
4, 5700, Note_on_c, 2, 50, 0
4, 5700, Note_on_c, 2, 49, 70
4, 5760, Note_on_c, 2, 49, 0
4, 5760, Note_on_c, 2, 50, 70
4, 5790, Note_on_c, 2, 50, 0
4, 5790, Note_on_c, 2, 57, 70
4, 5820, Note_on_c, 2, 57, 0
4, 5820, Note_on_c, 2, 58, 70
4, 5850, Note_on_c, 2, 58, 0
4, 5850, Note_on_c, 2, 57, 70
4, 5880, Note_on_c, 2, 57, 0
4, 5880, Note_on_c, 2, 55, 70
4, 5910, Note_on_c, 2, 55, 0
4, 5910, Note_on_c, 2, 58, 70
4, 5940, Note_on_c, 2, 58, 0
4, 5940, Note_on_c, 2, 57, 70
4, 5970, Note_on_c, 2, 57, 0
4, 5970, Note_on_c, 2, 55, 70
4, 6000, Note_on_c, 2, 55, 0
4, 6000, Note_on_c, 2, 53, 70
4, 6120, Note_on_c, 2, 53, 0
4, 6120, Note_on_c, 2, 52, 70
4, 6240, Note_on_c, 2, 52, 0
4, 6240, Note_on_c, 2, 50, 70
4, 6300, Note_on_c, 2, 50, 0
4, 6630, Note_on_c, 2, 47, 70
4, 6660, Note_on_c, 2, 47, 0
4, 6660, Note_on_c, 2, 48, 70
4, 6690, Note_on_c, 2, 48, 0
4, 6690, Note_on_c, 2, 50, 70
4, 6720, Note_on_c, 2, 50, 0
4, 6720, Note_on_c, 2, 52, 70
4, 6750, Note_on_c, 2, 52, 0
4, 6750, Note_on_c, 2, 54, 70
4, 6780, Note_on_c, 2, 54, 0
4, 6780, Note_on_c, 2, 55, 70
4, 6810, Note_on_c, 2, 55, 0
4, 6810, Note_on_c, 2, 52, 70
4, 6840, Note_on_c, 2, 52, 0
4, 6840, Note_on_c, 2, 57, 70
4, 6870, Note_on_c, 2, 57, 0
4, 6870, Note_on_c, 2, 56, 70
4, 6900, Note_on_c, 2, 56, 0
4, 6900, Note_on_c, 2, 57, 70
4, 6930, Note_on_c, 2, 57, 0
4, 6930, Note_on_c, 2, 59, 70
4, 6960, Note_on_c, 2, 59, 0
4, 6960, Note_on_c, 2, 60, 70
4, 6990, Note_on_c, 2, 60, 0
4, 6990, Note_on_c, 2, 54, 70
4, 7020, Note_on_c, 2, 54, 0
4, 7020, Note_on_c, 2, 59, 70
4, 7050, Note_on_c, 2, 59, 0
4, 7050, Note_on_c, 2, 57, 70
4, 7080, Note_on_c, 2, 57, 0
4, 7080, Note_on_c, 2, 56, 70
4, 7110, Note_on_c, 2, 56, 0
4, 7110, Note_on_c, 2, 52, 70
4, 7140, Note_on_c, 2, 52, 0
4, 7140, Note_on_c, 2, 57, 70
4, 7230, Note_on_c, 2, 57, 0
4, 7230, Note_on_c, 2, 50, 70
4, 7260, Note_on_c, 2, 50, 0
4, 7260, Note_on_c, 2, 55, 70
4, 7290, Note_on_c, 2, 55, 0
4, 7290, Note_on_c, 2, 53, 70
4, 7320, Note_on_c, 2, 53, 0
4, 7320, Note_on_c, 2, 52, 70
4, 7350, Note_on_c, 2, 52, 0
4, 7350, Note_on_c, 2, 48, 70
4, 7380, Note_on_c, 2, 48, 0
4, 7380, Note_on_c, 2, 53, 70
4, 7470, Note_on_c, 2, 53, 0
4, 7470, Note_on_c, 2, 47, 70
4, 7500, Note_on_c, 2, 47, 0
4, 7500, Note_on_c, 2, 52, 70
4, 7530, Note_on_c, 2, 52, 0
4, 7530, Note_on_c, 2, 50, 70
4, 7560, Note_on_c, 2, 50, 0
4, 7560, Note_on_c, 2, 49, 70
4, 7590, Note_on_c, 2, 49, 0
4, 7590, Note_on_c, 2, 45, 70
4, 7620, Note_on_c, 2, 45, 0
4, 7620, Note_on_c, 2, 50, 70
4, 7740, Note_on_c, 2, 50, 0
4, 7740, Note_on_c, 2, 49, 70
4, 7800, Note_on_c, 2, 49, 0
4, 7800, Note_on_c, 2, 50, 70
4, 7820, Note_on_c, 2, 50, 0
4, 7820, Note_on_c, 2, 48, 70
4, 7839, Note_on_c, 2, 48, 0
4, 7839, Note_on_c, 2, 46, 70
4, 7860, Note_on_c, 2, 46, 0
4, 7860, Note_on_c, 2, 45, 70
4, 7880, Note_on_c, 2, 45, 0
4, 7880, Note_on_c, 2, 46, 70
4, 7899, Note_on_c, 2, 46, 0
4, 7899, Note_on_c, 2, 48, 70
4, 7920, Note_on_c, 2, 48, 0
4, 7920, Note_on_c, 2, 46, 70
4, 7940, Note_on_c, 2, 46, 0
4, 7940, Note_on_c, 2, 45, 70
4, 7959, Note_on_c, 2, 45, 0
4, 7959, Note_on_c, 2, 43, 70
4, 7980, Note_on_c, 2, 43, 0
4, 7980, Note_on_c, 2, 42, 70
4, 8000, Note_on_c, 2, 42, 0
4, 8000, Note_on_c, 2, 43, 70
4, 8019, Note_on_c, 2, 43, 0
4, 8019, Note_on_c, 2, 45, 70
4, 8040, Note_on_c, 2, 45, 0
4, 8040, Note_on_c, 2, 43, 70
4, 8100, Note_on_c, 2, 43, 0
4, 8100, Note_on_c, 2, 38, 70
4, 8160, Note_on_c, 2, 38, 0
4, 8160, Note_on_c, 2, 39, 70
4, 8220, Note_on_c, 2, 39, 0
4, 8220, Note_on_c, 2, 40, 70
4, 8280, Note_on_c, 2, 40, 0
4, 8280, Note_on_c, 2, 41, 70
4, 8340, Note_on_c, 2, 41, 0
4, 8340, Note_on_c, 2, 42, 70
4, 8400, Note_on_c, 2, 42, 0
4, 8400, Note_on_c, 2, 43, 70
4, 8420, Note_on_c, 2, 43, 0
4, 8420, Note_on_c, 2, 45, 70
4, 8439, Note_on_c, 2, 45, 0
4, 8439, Note_on_c, 2, 46, 70
4, 8460, Note_on_c, 2, 46, 0
4, 8460, Note_on_c, 2, 48, 70
4, 8480, Note_on_c, 2, 48, 0
4, 8480, Note_on_c, 2, 46, 70
4, 8499, Note_on_c, 2, 46, 0
4, 8499, Note_on_c, 2, 45, 70
4, 8520, Note_on_c, 2, 45, 0
4, 8520, Note_on_c, 2, 46, 70
4, 8540, Note_on_c, 2, 46, 0
4, 8540, Note_on_c, 2, 48, 70
4, 8559, Note_on_c, 2, 48, 0
4, 8559, Note_on_c, 2, 50, 70
4, 8580, Note_on_c, 2, 50, 0
4, 8580, Note_on_c, 2, 51, 70
4, 8600, Note_on_c, 2, 51, 0
4, 8600, Note_on_c, 2, 50, 70
4, 8619, Note_on_c, 2, 50, 0
4, 8619, Note_on_c, 2, 48, 70
4, 8640, Note_on_c, 2, 48, 0
4, 8640, Note_on_c, 2, 50, 70
4, 8700, Note_on_c, 2, 50, 0
4, 8700, Note_on_c, 2, 55, 70
4, 8820, Note_on_c, 2, 55, 0
4, 8820, Note_on_c, 2, 54, 70
4, 8880, Note_on_c, 2, 54, 0
4, 8880, Note_on_c, 2, 55, 70
4, 8900, Note_on_c, 2, 55, 0
4, 8900, Note_on_c, 2, 53, 70
4, 8919, Note_on_c, 2, 53, 0
4, 8919, Note_on_c, 2, 52, 70
4, 8940, Note_on_c, 2, 52, 0
4, 8940, Note_on_c, 2, 50, 70
4, 8960, Note_on_c, 2, 50, 0
4, 8960, Note_on_c, 2, 52, 70
4, 8979, Note_on_c, 2, 52, 0
4, 8979, Note_on_c, 2, 53, 70
4, 9000, Note_on_c, 2, 53, 0
4, 9000, Note_on_c, 2, 52, 70
4, 9039, Note_on_c, 2, 52, 0
4, 9060, Note_on_c, 2, 55, 70
4, 9099, Note_on_c, 2, 55, 0
4, 9120, Note_on_c, 2, 60, 70
4, 9140, Note_on_c, 2, 60, 0
4, 9140, Note_on_c, 2, 58, 70
4, 9159, Note_on_c, 2, 58, 0
4, 9159, Note_on_c, 2, 57, 70
4, 9180, Note_on_c, 2, 57, 0
4, 9180, Note_on_c, 2, 55, 70
4, 9200, Note_on_c, 2, 55, 0
4, 9200, Note_on_c, 2, 57, 70
4, 9219, Note_on_c, 2, 57, 0
4, 9219, Note_on_c, 2, 58, 70
4, 9240, Note_on_c, 2, 58, 0
4, 9240, Note_on_c, 2, 57, 70
4, 9279, Note_on_c, 2, 57, 0
4, 9300, Note_on_c, 2, 60, 70
4, 9339, Note_on_c, 2, 60, 0
4, 9360, Note_on_c, 2, 53, 70
4, 9380, Note_on_c, 2, 53, 0
4, 9380, Note_on_c, 2, 51, 70
4, 9399, Note_on_c, 2, 51, 0
4, 9399, Note_on_c, 2, 50, 70
4, 9420, Note_on_c, 2, 50, 0
4, 9420, Note_on_c, 2, 48, 70
4, 9440, Note_on_c, 2, 48, 0
4, 9440, Note_on_c, 2, 50, 70
4, 9459, Note_on_c, 2, 50, 0
4, 9459, Note_on_c, 2, 51, 70
4, 9480, Note_on_c, 2, 51, 0
4, 9480, Note_on_c, 2, 50, 70
4, 9519, Note_on_c, 2, 50, 0
4, 9540, Note_on_c, 2, 53, 70
4, 9579, Note_on_c, 2, 53, 0
4, 9600, Note_on_c, 2, 58, 70
4, 9620, Note_on_c, 2, 58, 0
4, 9620, Note_on_c, 2, 57, 70
4, 9639, Note_on_c, 2, 57, 0
4, 9639, Note_on_c, 2, 55, 70
4, 9660, Note_on_c, 2, 55, 0
4, 9660, Note_on_c, 2, 54, 70
4, 9680, Note_on_c, 2, 54, 0
4, 9680, Note_on_c, 2, 55, 70
4, 9699, Note_on_c, 2, 55, 0
4, 9699, Note_on_c, 2, 57, 70
4, 9720, Note_on_c, 2, 57, 0
4, 9720, Note_on_c, 2, 55, 70
4, 9740, Note_on_c, 2, 55, 0
4, 9740, Note_on_c, 2, 53, 70
4, 9759, Note_on_c, 2, 53, 0
4, 9759, Note_on_c, 2, 52, 70
4, 9780, Note_on_c, 2, 52, 0
4, 9780, Note_on_c, 2, 50, 70
4, 9800, Note_on_c, 2, 50, 0
4, 9800, Note_on_c, 2, 52, 70
4, 9819, Note_on_c, 2, 52, 0
4, 9819, Note_on_c, 2, 53, 70
4, 9840, Note_on_c, 2, 53, 0
4, 9840, Note_on_c, 2, 52, 70
4, 9860, Note_on_c, 2, 52, 0
4, 9860, Note_on_c, 2, 50, 70
4, 9879, Note_on_c, 2, 50, 0
4, 9879, Note_on_c, 2, 48, 70
4, 9900, Note_on_c, 2, 48, 0
4, 9900, Note_on_c, 2, 47, 70
4, 9920, Note_on_c, 2, 47, 0
4, 9920, Note_on_c, 2, 49, 70
4, 9939, Note_on_c, 2, 49, 0
4, 9939, Note_on_c, 2, 50, 70
4, 9960, Note_on_c, 2, 50, 0
4, 9960, Note_on_c, 2, 49, 70
4, 9990, Note_on_c, 2, 49, 0
4, 9990, Note_on_c, 2, 45, 70
4, 10020, Note_on_c, 2, 45, 0
4, 10020, Note_on_c, 2, 50, 70
4, 10140, Note_on_c, 2, 50, 0
4, 10140, Note_on_c, 2, 49, 70
4, 10200, Note_on_c, 2, 49, 0
4, 10200, Note_on_c, 2, 50, 70
4, 10239, Note_on_c, 2, 50, 0
4, 10260, Note_on_c, 2, 55, 70
4, 10380, Note_on_c, 2, 55, 0
4, 10380, Note_on_c, 2, 54, 70
4, 10440, Note_on_c, 2, 54, 0
4, 10440, Note_on_c, 2, 55, 70
4, 10470, Note_on_c, 2, 55, 0
4, 10470, Note_on_c, 2, 53, 70
4, 10500, Note_on_c, 2, 53, 0
4, 10500, Note_on_c, 2, 52, 70
4, 10530, Note_on_c, 2, 52, 0
4, 10530, Note_on_c, 2, 50, 70
4, 10560, Note_on_c, 2, 50, 0
4, 10560, Note_on_c, 2, 49, 70
4, 10590, Note_on_c, 2, 49, 0
4, 10590, Note_on_c, 2, 52, 70
4, 10620, Note_on_c, 2, 52, 0
4, 10620, Note_on_c, 2, 50, 70
4, 10650, Note_on_c, 2, 50, 0
4, 10650, Note_on_c, 2, 48, 70
4, 10680, Note_on_c, 2, 48, 0
4, 10680, Note_on_c, 2, 47, 70
4, 10740, Note_on_c, 2, 47, 0
4, 10740, Note_on_c, 2, 46, 70
4, 10800, Note_on_c, 2, 46, 0
4, 10800, Note_on_c, 2, 45, 70
4, 10830, Note_on_c, 2, 45, 0
4, 10830, Note_on_c, 2, 57, 70
4, 10860, Note_on_c, 2, 57, 0
4, 10860, Note_on_c, 2, 58, 70
4, 10890, Note_on_c, 2, 58, 0
4, 10890, Note_on_c, 2, 57, 70
4, 10920, Note_on_c, 2, 57, 0
4, 10920, Note_on_c, 2, 55, 70
4, 10950, Note_on_c, 2, 55, 0
4, 10950, Note_on_c, 2, 58, 70
4, 10980, Note_on_c, 2, 58, 0
4, 10980, Note_on_c, 2, 57, 70
4, 11010, Note_on_c, 2, 57, 0
4, 11010, Note_on_c, 2, 55, 70
4, 11040, Note_on_c, 2, 55, 0
4, 11040, Note_on_c, 2, 53, 70
4, 11070, Note_on_c, 2, 53, 0
4, 11070, Note_on_c, 2, 57, 70
4, 11100, Note_on_c, 2, 57, 0
4, 11100, Note_on_c, 2, 55, 70
4, 11130, Note_on_c, 2, 55, 0
4, 11130, Note_on_c, 2, 53, 70
4, 11160, Note_on_c, 2, 53, 0
4, 11160, Note_on_c, 2, 52, 70
4, 11190, Note_on_c, 2, 52, 0
4, 11190, Note_on_c, 2, 50, 70
4, 11220, Note_on_c, 2, 50, 0
4, 11220, Note_on_c, 2, 49, 70
4, 11250, Note_on_c, 2, 49, 0
4, 11250, Note_on_c, 2, 52, 70
4, 11280, Note_on_c, 2, 52, 0
4, 11280, Note_on_c, 2, 50, 70
4, 11310, Note_on_c, 2, 50, 0
4, 11310, Note_on_c, 2, 48, 70
4, 11340, Note_on_c, 2, 48, 0
4, 11340, Note_on_c, 2, 46, 70
4, 11370, Note_on_c, 2, 46, 0
4, 11370, Note_on_c, 2, 45, 70
4, 11400, Note_on_c, 2, 45, 0
4, 11400, Note_on_c, 2, 43, 70
4, 11430, Note_on_c, 2, 43, 0
4, 11430, Note_on_c, 2, 46, 70
4, 11460, Note_on_c, 2, 46, 0
4, 11460, Note_on_c, 2, 45, 70
4, 11490, Note_on_c, 2, 45, 0
4, 11490, Note_on_c, 2, 43, 70
4, 11520, Note_on_c, 2, 43, 0
4, 11520, Note_on_c, 2, 41, 70
4, 11580, Note_on_c, 2, 41, 0
4, 11580, Note_on_c, 2, 46, 70
4, 11640, Note_on_c, 2, 46, 0
4, 11640, Note_on_c, 2, 45, 70
4, 11660, Note_on_c, 2, 45, 0
4, 11660, Note_on_c, 2, 43, 70
4, 11679, Note_on_c, 2, 43, 0
4, 11679, Note_on_c, 2, 41, 70
4, 11700, Note_on_c, 2, 41, 0
4, 11700, Note_on_c, 2, 40, 70
4, 11720, Note_on_c, 2, 40, 0
4, 11720, Note_on_c, 2, 41, 70
4, 11739, Note_on_c, 2, 41, 0
4, 11739, Note_on_c, 2, 43, 70
4, 11760, Note_on_c, 2, 43, 0
4, 11760, Note_on_c, 2, 41, 70
4, 11780, Note_on_c, 2, 41, 0
4, 11780, Note_on_c, 2, 40, 70
4, 11799, Note_on_c, 2, 40, 0
4, 11799, Note_on_c, 2, 38, 70
4, 11820, Note_on_c, 2, 38, 0
4, 11820, Note_on_c, 2, 37, 70
4, 11840, Note_on_c, 2, 37, 0
4, 11840, Note_on_c, 2, 38, 70
4, 11859, Note_on_c, 2, 38, 0
4, 11859, Note_on_c, 2, 40, 70
4, 11880, Note_on_c, 2, 40, 0
4, 11880, Note_on_c, 2, 38, 70
4, 11940, Note_on_c, 2, 38, 0
4, 12030, Note_on_c, 2, 40, 70
4, 12060, Note_on_c, 2, 40, 0
4, 12060, Note_on_c, 2, 41, 70
4, 12090, Note_on_c, 2, 41, 0
4, 12090, Note_on_c, 2, 43, 70
4, 12120, Note_on_c, 2, 43, 0
4, 12120, Note_on_c, 2, 45, 70
4, 12150, Note_on_c, 2, 45, 0
4, 12150, Note_on_c, 2, 47, 70
4, 12180, Note_on_c, 2, 47, 0
4, 12180, Note_on_c, 2, 48, 70
4, 12210, Note_on_c, 2, 48, 0
4, 12210, Note_on_c, 2, 45, 70
4, 12240, Note_on_c, 2, 45, 0
4, 12240, Note_on_c, 2, 50, 70
4, 12270, Note_on_c, 2, 50, 0
4, 12270, Note_on_c, 2, 49, 70
4, 12300, Note_on_c, 2, 49, 0
4, 12300, Note_on_c, 2, 50, 70
4, 12330, Note_on_c, 2, 50, 0
4, 12330, Note_on_c, 2, 52, 70
4, 12360, Note_on_c, 2, 52, 0
4, 12360, Note_on_c, 2, 53, 70
4, 12390, Note_on_c, 2, 53, 0
4, 12390, Note_on_c, 2, 47, 70
4, 12420, Note_on_c, 2, 47, 0
4, 12420, Note_on_c, 2, 52, 70
4, 12450, Note_on_c, 2, 52, 0
4, 12450, Note_on_c, 2, 50, 70
4, 12480, Note_on_c, 2, 50, 0
4, 12480, Note_on_c, 2, 49, 70
4, 12510, Note_on_c, 2, 49, 0
4, 12510, Note_on_c, 2, 45, 70
4, 12540, Note_on_c, 2, 45, 0
4, 12540, Note_on_c, 2, 50, 70
4, 12570, Note_on_c, 2, 50, 0
4, 12570, Note_on_c, 2, 55, 70
4, 12600, Note_on_c, 2, 55, 0
4, 12600, Note_on_c, 2, 57, 70
4, 12660, Note_on_c, 2, 57, 0
4, 12660, Note_on_c, 2, 45, 70
4, 12720, Note_on_c, 2, 45, 0
4, 12720, Note_on_c, 2, 38, 70
4, 12960, Note_on_c, 2, 38, 0
4, 12960, End_track
0, 0, End_of_file
