0, 0, Header, 1, 5, 120
1, 0, Start_track
1, 0, Time_signature, 2, 1, 48, 8
1, 0, Key_signature, -3, "major"
1, 0, Tempo, 400000
1, 0, Marker_t, "(c) Yo Tomita, 1997"
1, 0, End_track
2, 0, Start_track
2, 0, MIDI_port, 0
2, 0, Title_t, "BWV 876/2"
2, 0, Program_c, 0, 6
2, 9600, Note_on_c, 0, 70, 64
2, 10080, Note_on_c, 0, 70, 0
2, 10080, Note_on_c, 0, 75, 64
2, 10320, Note_on_c, 0, 75, 0
2, 10440, Note_on_c, 0, 75, 64
2, 10560, Note_on_c, 0, 75, 0
2, 10560, Note_on_c, 0, 74, 64
2, 10680, Note_on_c, 0, 74, 0
2, 10680, Note_on_c, 0, 79, 64
2, 10920, Note_on_c, 0, 79, 0
2, 10920, Note_on_c, 0, 77, 64
2, 11040, Note_on_c, 0, 77, 0
2, 11040, Note_on_c, 0, 75, 64
2, 11160, Note_on_c, 0, 75, 0
2, 11160, Note_on_c, 0, 75, 64
2, 11220, Note_on_c, 0, 75, 0
2, 11220, Note_on_c, 0, 74, 64
2, 11280, Note_on_c, 0, 74, 0
2, 11280, Note_on_c, 0, 75, 64
2, 11400, Note_on_c, 0, 75, 0
2, 11400, Note_on_c, 0, 79, 64
2, 11520, Note_on_c, 0, 79, 0
2, 11520, Note_on_c, 0, 72, 64
2, 11640, Note_on_c, 0, 72, 0
2, 11640, Note_on_c, 0, 77, 64
2, 11880, Note_on_c, 0, 77, 0
2, 11880, Note_on_c, 0, 75, 64
2, 12000, Note_on_c, 0, 75, 0
2, 12000, Note_on_c, 0, 74, 64
2, 12120, Note_on_c, 0, 74, 0
2, 12120, Note_on_c, 0, 74, 64
2, 12180, Note_on_c, 0, 74, 0
2, 12180, Note_on_c, 0, 72, 64
2, 12240, Note_on_c, 0, 72, 0
2, 12240, Note_on_c, 0, 74, 64
2, 12360, Note_on_c, 0, 74, 0
2, 12360, Note_on_c, 0, 77, 64
2, 12480, Note_on_c, 0, 77, 0
2, 12480, Note_on_c, 0, 70, 64
2, 12600, Note_on_c, 0, 70, 0
2, 12600, Note_on_c, 0, 70, 64
2, 12660, Note_on_c, 0, 70, 0
2, 12660, Note_on_c, 0, 69, 64
2, 12720, Note_on_c, 0, 69, 0
2, 12720, Note_on_c, 0, 70, 64
2, 12840, Note_on_c, 0, 70, 0
2, 12840, Note_on_c, 0, 74, 64
2, 12960, Note_on_c, 0, 74, 0
2, 12960, Note_on_c, 0, 67, 64
2, 13080, Note_on_c, 0, 67, 0
2, 13080, Note_on_c, 0, 69, 64
2, 13200, Note_on_c, 0, 69, 0
2, 13200, Note_on_c, 0, 70, 64
2, 13680, Note_on_c, 0, 70, 0
2, 13680, Note_on_c, 0, 69, 64
2, 13920, Note_on_c, 0, 69, 0
2, 13920, Note_on_c, 0, 70, 64
2, 14040, Note_on_c, 0, 70, 0
2, 14040, Note_on_c, 0, 74, 64
2, 14100, Note_on_c, 0, 74, 0
2, 14100, Note_on_c, 0, 75, 64
2, 14160, Note_on_c, 0, 75, 0
2, 14160, Note_on_c, 0, 77, 64
2, 14280, Note_on_c, 0, 77, 0
2, 14280, Note_on_c, 0, 74, 64
2, 14400, Note_on_c, 0, 74, 0
2, 14400, Note_on_c, 0, 70, 64
2, 14520, Note_on_c, 0, 70, 0
2, 14520, Note_on_c, 0, 75, 64
2, 14580, Note_on_c, 0, 75, 0
2, 14580, Note_on_c, 0, 77, 64
2, 14640, Note_on_c, 0, 77, 0
2, 14640, Note_on_c, 0, 79, 64
2, 14760, Note_on_c, 0, 79, 0
2, 14760, Note_on_c, 0, 75, 64
2, 14880, Note_on_c, 0, 75, 0
2, 14880, Note_on_c, 0, 77, 64
2, 15000, Note_on_c, 0, 77, 0
2, 15000, Note_on_c, 0, 75, 64
2, 15060, Note_on_c, 0, 75, 0
2, 15060, Note_on_c, 0, 74, 64
2, 15120, Note_on_c, 0, 74, 0
2, 15120, Note_on_c, 0, 72, 64
2, 15240, Note_on_c, 0, 72, 0
2, 15240, Note_on_c, 0, 74, 64
2, 15360, Note_on_c, 0, 74, 0
2, 15360, Note_on_c, 0, 75, 64
2, 15480, Note_on_c, 0, 75, 0
2, 17760, Note_on_c, 0, 75, 64
2, 18240, Note_on_c, 0, 75, 0
2, 18240, Note_on_c, 0, 82, 64
2, 18480, Note_on_c, 0, 82, 0
2, 18600, Note_on_c, 0, 80, 64
2, 18720, Note_on_c, 0, 80, 0
2, 18720, Note_on_c, 0, 79, 64
2, 18840, Note_on_c, 0, 79, 0
2, 18840, Note_on_c, 0, 84, 64
2, 19080, Note_on_c, 0, 84, 0
2, 19080, Note_on_c, 0, 82, 64
2, 19200, Note_on_c, 0, 82, 0
2, 19200, Note_on_c, 0, 80, 64
2, 19320, Note_on_c, 0, 80, 0
2, 19320, Note_on_c, 0, 80, 64
2, 19380, Note_on_c, 0, 80, 0
2, 19380, Note_on_c, 0, 79, 64
2, 19440, Note_on_c, 0, 79, 0
2, 19440, Note_on_c, 0, 80, 64
2, 19560, Note_on_c, 0, 80, 0
2, 19560, Note_on_c, 0, 84, 64
2, 19680, Note_on_c, 0, 84, 0
2, 19680, Note_on_c, 0, 77, 64
2, 19800, Note_on_c, 0, 77, 0
2, 19800, Note_on_c, 0, 82, 64
2, 20040, Note_on_c, 0, 82, 0
2, 20040, Note_on_c, 0, 80, 64
2, 20160, Note_on_c, 0, 80, 0
2, 20160, Note_on_c, 0, 79, 64
2, 20280, Note_on_c, 0, 79, 0
2, 20280, Note_on_c, 0, 79, 64
2, 20340, Note_on_c, 0, 79, 0
2, 20340, Note_on_c, 0, 77, 64
2, 20400, Note_on_c, 0, 77, 0
2, 20400, Note_on_c, 0, 79, 64
2, 20520, Note_on_c, 0, 79, 0
2, 20520, Note_on_c, 0, 82, 64
2, 20640, Note_on_c, 0, 82, 0
2, 20640, Note_on_c, 0, 75, 64
2, 20760, Note_on_c, 0, 75, 0
2, 20760, Note_on_c, 0, 75, 64
2, 20820, Note_on_c, 0, 75, 0
2, 20820, Note_on_c, 0, 74, 64
2, 20880, Note_on_c, 0, 74, 0
2, 20880, Note_on_c, 0, 75, 64
2, 21000, Note_on_c, 0, 75, 0
2, 21000, Note_on_c, 0, 79, 64
2, 21120, Note_on_c, 0, 79, 0
2, 21120, Note_on_c, 0, 72, 64
2, 21240, Note_on_c, 0, 72, 0
2, 21240, Note_on_c, 0, 74, 64
2, 21300, Note_on_c, 0, 74, 0
2, 21300, Note_on_c, 0, 75, 64
2, 21360, Note_on_c, 0, 75, 0
2, 21360, Note_on_c, 0, 77, 64
2, 21840, Note_on_c, 0, 77, 0
2, 21840, Note_on_c, 0, 75, 64
2, 21900, Note_on_c, 0, 75, 0
2, 21900, Note_on_c, 0, 74, 64
2, 21960, Note_on_c, 0, 74, 0
2, 21960, Note_on_c, 0, 75, 64
2, 22020, Note_on_c, 0, 75, 0
2, 22020, Note_on_c, 0, 77, 64
2, 22080, Note_on_c, 0, 77, 0
2, 22080, Note_on_c, 0, 74, 64
2, 22200, Note_on_c, 0, 74, 0
2, 22200, Note_on_c, 0, 79, 64
2, 22440, Note_on_c, 0, 79, 0
2, 22440, Note_on_c, 0, 77, 64
2, 22560, Note_on_c, 0, 77, 0
2, 22560, Note_on_c, 0, 76, 64
2, 22680, Note_on_c, 0, 76, 0
2, 22680, Note_on_c, 0, 72, 64
2, 22800, Note_on_c, 0, 72, 0
2, 22800, Note_on_c, 0, 77, 64
2, 23280, Note_on_c, 0, 77, 0
2, 23280, Note_on_c, 0, 75, 64
2, 23760, Note_on_c, 0, 75, 0
2, 23760, Note_on_c, 0, 74, 64
2, 23820, Note_on_c, 0, 74, 0
2, 23820, Note_on_c, 0, 72, 64
2, 23880, Note_on_c, 0, 72, 0
2, 23880, Note_on_c, 0, 74, 64
2, 23940, Note_on_c, 0, 74, 0
2, 23940, Note_on_c, 0, 75, 64
2, 24000, Note_on_c, 0, 75, 0
2, 24000, Note_on_c, 0, 72, 64
2, 24120, Note_on_c, 0, 72, 0
2, 24120, Note_on_c, 0, 77, 64
2, 24360, Note_on_c, 0, 77, 0
2, 24360, Note_on_c, 0, 75, 64
2, 24480, Note_on_c, 0, 75, 0
2, 24480, Note_on_c, 0, 74, 64
2, 24600, Note_on_c, 0, 74, 0
2, 24600, Note_on_c, 0, 70, 64
2, 24720, Note_on_c, 0, 70, 0
2, 24720, Note_on_c, 0, 75, 64
2, 25200, Note_on_c, 0, 75, 0
2, 25200, Note_on_c, 0, 73, 64
2, 25560, Note_on_c, 0, 73, 0
2, 25560, Note_on_c, 0, 72, 64
2, 25680, Note_on_c, 0, 72, 0
2, 25680, Note_on_c, 0, 70, 64
2, 25920, Note_on_c, 0, 70, 0
2, 25920, Note_on_c, 0, 68, 64
2, 26160, Note_on_c, 0, 68, 0
2, 27840, Note_on_c, 0, 70, 64
2, 28320, Note_on_c, 0, 70, 0
2, 28320, Note_on_c, 0, 75, 64
2, 28560, Note_on_c, 0, 75, 0
2, 28680, Note_on_c, 0, 75, 64
2, 28800, Note_on_c, 0, 75, 0
2, 28800, Note_on_c, 0, 74, 64
2, 28920, Note_on_c, 0, 74, 0
2, 28920, Note_on_c, 0, 79, 64
2, 29160, Note_on_c, 0, 79, 0
2, 29160, Note_on_c, 0, 77, 64
2, 29280, Note_on_c, 0, 77, 0
2, 29280, Note_on_c, 0, 75, 64
2, 29400, Note_on_c, 0, 75, 0
2, 29400, Note_on_c, 0, 75, 64
2, 29460, Note_on_c, 0, 75, 0
2, 29460, Note_on_c, 0, 74, 64
2, 29520, Note_on_c, 0, 74, 0
2, 29520, Note_on_c, 0, 75, 64
2, 29640, Note_on_c, 0, 75, 0
2, 29640, Note_on_c, 0, 79, 64
2, 29760, Note_on_c, 0, 79, 0
2, 29760, Note_on_c, 0, 72, 64
2, 29880, Note_on_c, 0, 72, 0
2, 29880, Note_on_c, 0, 77, 64
2, 30120, Note_on_c, 0, 77, 0
2, 30120, Note_on_c, 0, 75, 64
2, 30240, Note_on_c, 0, 75, 0
2, 30240, Note_on_c, 0, 74, 64
2, 30360, Note_on_c, 0, 74, 0
2, 30360, Note_on_c, 0, 74, 64
2, 30420, Note_on_c, 0, 74, 0
2, 30420, Note_on_c, 0, 72, 64
2, 30480, Note_on_c, 0, 72, 0
2, 30480, Note_on_c, 0, 74, 64
2, 30600, Note_on_c, 0, 74, 0
2, 30600, Note_on_c, 0, 77, 64
2, 30720, Note_on_c, 0, 77, 0
2, 30720, Note_on_c, 0, 70, 64
2, 30840, Note_on_c, 0, 70, 0
2, 30840, Note_on_c, 0, 75, 64
2, 30960, Note_on_c, 0, 75, 0
2, 30960, Note_on_c, 0, 73, 64
2, 31320, Note_on_c, 0, 73, 0
2, 31320, Note_on_c, 0, 72, 64
2, 31440, Note_on_c, 0, 72, 0
2, 31440, Note_on_c, 0, 70, 64
2, 31800, Note_on_c, 0, 70, 0
2, 31800, Note_on_c, 0, 68, 64
2, 31860, Note_on_c, 0, 68, 0
2, 31860, Note_on_c, 0, 67, 64
2, 31920, Note_on_c, 0, 67, 0
2, 31920, Note_on_c, 0, 68, 64
2, 32400, Note_on_c, 0, 68, 0
2, 32400, Note_on_c, 0, 66, 64
2, 32640, Note_on_c, 0, 66, 0
2, 32640, Note_on_c, 0, 65, 64
2, 33120, Note_on_c, 0, 65, 0
2, 33120, Note_on_c, 0, 63, 64
2, 33600, Note_on_c, 0, 63, 0
2, 33600, End_track
3, 0, Start_track
3, 0, MIDI_port, 0
3, 0, Title_t, "Sequenced"
3, 0, Program_c, 1, 6
3, 6240, Note_on_c, 1, 63, 64
3, 6720, Note_on_c, 1, 63, 0
3, 6720, Note_on_c, 1, 70, 64
3, 6960, Note_on_c, 1, 70, 0
3, 7080, Note_on_c, 1, 68, 64
3, 7200, Note_on_c, 1, 68, 0
3, 7200, Note_on_c, 1, 67, 64
3, 7320, Note_on_c, 1, 67, 0
3, 7320, Note_on_c, 1, 72, 64
3, 7560, Note_on_c, 1, 72, 0
3, 7560, Note_on_c, 1, 70, 64
3, 7680, Note_on_c, 1, 70, 0
3, 7680, Note_on_c, 1, 68, 64
3, 7800, Note_on_c, 1, 68, 0
3, 7800, Note_on_c, 1, 68, 64
3, 7860, Note_on_c, 1, 68, 0
3, 7860, Note_on_c, 1, 67, 64
3, 7920, Note_on_c, 1, 67, 0
3, 7920, Note_on_c, 1, 68, 64
3, 8040, Note_on_c, 1, 68, 0
3, 8040, Note_on_c, 1, 72, 64
3, 8160, Note_on_c, 1, 72, 0
3, 8160, Note_on_c, 1, 65, 64
3, 8280, Note_on_c, 1, 65, 0
3, 8280, Note_on_c, 1, 70, 64
3, 8520, Note_on_c, 1, 70, 0
3, 8520, Note_on_c, 1, 68, 64
3, 8640, Note_on_c, 1, 68, 0
3, 8640, Note_on_c, 1, 67, 64
3, 8760, Note_on_c, 1, 67, 0
3, 8760, Note_on_c, 1, 67, 64
3, 8820, Note_on_c, 1, 67, 0
3, 8820, Note_on_c, 1, 65, 64
3, 8880, Note_on_c, 1, 65, 0
3, 8880, Note_on_c, 1, 67, 64
3, 9000, Note_on_c, 1, 67, 0
3, 9000, Note_on_c, 1, 70, 64
3, 9120, Note_on_c, 1, 70, 0
3, 9120, Note_on_c, 1, 63, 64
3, 9240, Note_on_c, 1, 63, 0
3, 9240, Note_on_c, 1, 65, 64
3, 9300, Note_on_c, 1, 65, 0
3, 9300, Note_on_c, 1, 63, 64
3, 9360, Note_on_c, 1, 63, 0
3, 9360, Note_on_c, 1, 65, 64
3, 9480, Note_on_c, 1, 65, 0
3, 9480, Note_on_c, 1, 68, 64
3, 9600, Note_on_c, 1, 68, 0
3, 9600, Note_on_c, 1, 62, 64
3, 9720, Note_on_c, 1, 62, 0
3, 9720, Note_on_c, 1, 63, 64
3, 9960, Note_on_c, 1, 63, 0
3, 9960, Note_on_c, 1, 62, 64
3, 10080, Note_on_c, 1, 62, 0
3, 10080, Note_on_c, 1, 60, 64
3, 10200, Note_on_c, 1, 60, 0
3, 10200, Note_on_c, 1, 67, 64
3, 10320, Note_on_c, 1, 67, 0
3, 10320, Note_on_c, 1, 72, 64
3, 10680, Note_on_c, 1, 72, 0
3, 10680, Note_on_c, 1, 70, 64
3, 10740, Note_on_c, 1, 70, 0
3, 10740, Note_on_c, 1, 69, 64
3, 10800, Note_on_c, 1, 69, 0
3, 10800, Note_on_c, 1, 70, 64
3, 11280, Note_on_c, 1, 70, 0
3, 11280, Note_on_c, 1, 69, 64
3, 11400, Note_on_c, 1, 69, 0
3, 11400, Note_on_c, 1, 67, 64
3, 11520, Note_on_c, 1, 67, 0
3, 11520, Note_on_c, 1, 69, 64
3, 11700, Note_on_c, 1, 69, 0
3, 11700, Note_on_c, 1, 70, 64
3, 11730, Note_on_c, 1, 70, 0
3, 11730, Note_on_c, 1, 69, 64
3, 11760, Note_on_c, 1, 69, 0
3, 11760, Note_on_c, 1, 67, 64
3, 11880, Note_on_c, 1, 67, 0
3, 11880, Note_on_c, 1, 69, 64
3, 12000, Note_on_c, 1, 69, 0
3, 12000, Note_on_c, 1, 70, 64
3, 12240, Note_on_c, 1, 70, 0
3, 12360, Note_on_c, 1, 65, 64
3, 12480, Note_on_c, 1, 65, 0
3, 12480, Note_on_c, 1, 67, 64
3, 12720, Note_on_c, 1, 67, 0
3, 12840, Note_on_c, 1, 62, 64
3, 12960, Note_on_c, 1, 62, 0
3, 12960, Note_on_c, 1, 63, 64
3, 13080, Note_on_c, 1, 63, 0
3, 13080, Note_on_c, 1, 65, 64
3, 13200, Note_on_c, 1, 65, 0
3, 13200, Note_on_c, 1, 67, 64
3, 13440, Note_on_c, 1, 67, 0
3, 13440, Note_on_c, 1, 65, 64
3, 13800, Note_on_c, 1, 65, 0
3, 13800, Note_on_c, 1, 63, 64
3, 13920, Note_on_c, 1, 63, 0
3, 13920, Note_on_c, 1, 62, 64
3, 14040, Note_on_c, 1, 62, 0
3, 14040, Note_on_c, 1, 65, 64
3, 14100, Note_on_c, 1, 65, 0
3, 14100, Note_on_c, 1, 67, 64
3, 14160, Note_on_c, 1, 67, 0
3, 14160, Note_on_c, 1, 68, 64
3, 14520, Note_on_c, 1, 68, 0
3, 14520, Note_on_c, 1, 67, 64
3, 14580, Note_on_c, 1, 67, 0
3, 14580, Note_on_c, 1, 68, 64
3, 14640, Note_on_c, 1, 68, 0
3, 14640, Note_on_c, 1, 70, 64
3, 14760, Note_on_c, 1, 70, 0
3, 14760, Note_on_c, 1, 67, 64
3, 14880, Note_on_c, 1, 67, 0
3, 14880, Note_on_c, 1, 65, 64
3, 15000, Note_on_c, 1, 65, 0
3, 15000, Note_on_c, 1, 70, 64
3, 15120, Note_on_c, 1, 70, 0
3, 15120, Note_on_c, 1, 68, 64
3, 15240, Note_on_c, 1, 68, 0
3, 15240, Note_on_c, 1, 70, 64
3, 15360, Note_on_c, 1, 70, 0
3, 15360, Note_on_c, 1, 58, 64
3, 15480, Note_on_c, 1, 58, 0
3, 17280, Note_on_c, 1, 70, 64
3, 17760, Note_on_c, 1, 70, 0
3, 17760, Note_on_c, 1, 75, 64
3, 18000, Note_on_c, 1, 75, 0
3, 18120, Note_on_c, 1, 75, 64
3, 18240, Note_on_c, 1, 75, 0
3, 18240, Note_on_c, 1, 74, 64
3, 18360, Note_on_c, 1, 74, 0
3, 18360, Note_on_c, 1, 79, 64
3, 18600, Note_on_c, 1, 79, 0
3, 18600, Note_on_c, 1, 77, 64
3, 18720, Note_on_c, 1, 77, 0
3, 18720, Note_on_c, 1, 75, 64
3, 18840, Note_on_c, 1, 75, 0
3, 18840, Note_on_c, 1, 75, 64
3, 18900, Note_on_c, 1, 75, 0
3, 18900, Note_on_c, 1, 74, 64
3, 18960, Note_on_c, 1, 74, 0
3, 18960, Note_on_c, 1, 75, 64
3, 19080, Note_on_c, 1, 75, 0
3, 19080, Note_on_c, 1, 79, 64
3, 19200, Note_on_c, 1, 79, 0
3, 19200, Note_on_c, 1, 72, 64
3, 19320, Note_on_c, 1, 72, 0
3, 19320, Note_on_c, 1, 77, 64
3, 19560, Note_on_c, 1, 77, 0
3, 19560, Note_on_c, 1, 75, 64
3, 19680, Note_on_c, 1, 75, 0
3, 19680, Note_on_c, 1, 74, 64
3, 19800, Note_on_c, 1, 74, 0
3, 19800, Note_on_c, 1, 74, 64
3, 19860, Note_on_c, 1, 74, 0
3, 19860, Note_on_c, 1, 72, 64
3, 19920, Note_on_c, 1, 72, 0
3, 19920, Note_on_c, 1, 74, 64
3, 20040, Note_on_c, 1, 74, 0
3, 20040, Note_on_c, 1, 77, 64
3, 20160, Note_on_c, 1, 77, 0
3, 20160, Note_on_c, 1, 70, 64
3, 20280, Note_on_c, 1, 70, 0
3, 20280, Note_on_c, 1, 70, 64
3, 20340, Note_on_c, 1, 70, 0
3, 20340, Note_on_c, 1, 68, 64
3, 20400, Note_on_c, 1, 68, 0
3, 20400, Note_on_c, 1, 70, 64
3, 20520, Note_on_c, 1, 70, 0
3, 20520, Note_on_c, 1, 74, 64
3, 20640, Note_on_c, 1, 74, 0
3, 20640, Note_on_c, 1, 67, 64
3, 20760, Note_on_c, 1, 67, 0
3, 20760, Note_on_c, 1, 69, 64
3, 20820, Note_on_c, 1, 69, 0
3, 20820, Note_on_c, 1, 71, 64
3, 20880, Note_on_c, 1, 71, 0
3, 20880, Note_on_c, 1, 72, 64
3, 21000, Note_on_c, 1, 72, 0
3, 21000, Note_on_c, 1, 71, 64
3, 21120, Note_on_c, 1, 71, 0
3, 21120, Note_on_c, 1, 72, 64
3, 21420, Note_on_c, 1, 72, 0
3, 21420, Note_on_c, 1, 71, 64
3, 21480, Note_on_c, 1, 71, 0
3, 21480, Note_on_c, 1, 72, 64
3, 21540, Note_on_c, 1, 72, 0
3, 21540, Note_on_c, 1, 74, 64
3, 21600, Note_on_c, 1, 74, 0
3, 21600, Note_on_c, 1, 71, 64
3, 21720, Note_on_c, 1, 71, 0
3, 21720, Note_on_c, 1, 67, 64
3, 21840, Note_on_c, 1, 67, 0
3, 21840, Note_on_c, 1, 72, 64
3, 22320, Note_on_c, 1, 72, 0
3, 22320, Note_on_c, 1, 70, 64
3, 22800, Note_on_c, 1, 70, 0
3, 22800, Note_on_c, 1, 68, 64
3, 22860, Note_on_c, 1, 68, 0
3, 22860, Note_on_c, 1, 67, 64
3, 22920, Note_on_c, 1, 67, 0
3, 22920, Note_on_c, 1, 68, 64
3, 22980, Note_on_c, 1, 68, 0
3, 22980, Note_on_c, 1, 70, 64
3, 23040, Note_on_c, 1, 70, 0
3, 23040, Note_on_c, 1, 67, 64
3, 23160, Note_on_c, 1, 67, 0
3, 23160, Note_on_c, 1, 72, 64
3, 23400, Note_on_c, 1, 72, 0
3, 23400, Note_on_c, 1, 70, 64
3, 23520, Note_on_c, 1, 70, 0
3, 23520, Note_on_c, 1, 69, 64
3, 23640, Note_on_c, 1, 69, 0
3, 23640, Note_on_c, 1, 65, 64
3, 23760, Note_on_c, 1, 65, 0
3, 23760, Note_on_c, 1, 70, 64
3, 24240, Note_on_c, 1, 70, 0
3, 24240, Note_on_c, 1, 68, 64
3, 24720, Note_on_c, 1, 68, 0
3, 24720, Note_on_c, 1, 67, 64
3, 24780, Note_on_c, 1, 67, 0
3, 24780, Note_on_c, 1, 65, 64
3, 24840, Note_on_c, 1, 65, 0
3, 24840, Note_on_c, 1, 67, 64
3, 24900, Note_on_c, 1, 67, 0
3, 24900, Note_on_c, 1, 68, 64
3, 24960, Note_on_c, 1, 68, 0
3, 24960, Note_on_c, 1, 65, 64
3, 25080, Note_on_c, 1, 65, 0
3, 25080, Note_on_c, 1, 70, 64
3, 25320, Note_on_c, 1, 70, 0
3, 25320, Note_on_c, 1, 68, 64
3, 25440, Note_on_c, 1, 68, 0
3, 25440, Note_on_c, 1, 70, 64
3, 25560, Note_on_c, 1, 70, 0
3, 25560, Note_on_c, 1, 68, 64
3, 25800, Note_on_c, 1, 68, 0
3, 25800, Note_on_c, 1, 67, 64
3, 26040, Note_on_c, 1, 67, 0
3, 26040, Note_on_c, 1, 65, 64
3, 26100, Note_on_c, 1, 65, 0
3, 26100, Note_on_c, 1, 67, 64
3, 26160, Note_on_c, 1, 67, 0
3, 26160, Note_on_c, 1, 68, 64
3, 26520, Note_on_c, 1, 68, 0
3, 26520, Note_on_c, 1, 65, 64
3, 26640, Note_on_c, 1, 65, 0
3, 26640, Note_on_c, 1, 70, 64
3, 26760, Note_on_c, 1, 70, 0
3, 26760, Note_on_c, 1, 68, 64
3, 26880, Note_on_c, 1, 68, 0
3, 26880, Note_on_c, 1, 67, 64
3, 27000, Note_on_c, 1, 67, 0
3, 27000, Note_on_c, 1, 67, 64
3, 27060, Note_on_c, 1, 67, 0
3, 27060, Note_on_c, 1, 65, 64
3, 27120, Note_on_c, 1, 65, 0
3, 27120, Note_on_c, 1, 67, 64
3, 27240, Note_on_c, 1, 67, 0
3, 27240, Note_on_c, 1, 70, 64
3, 27360, Note_on_c, 1, 70, 0
3, 27360, Note_on_c, 1, 63, 64
3, 27480, Note_on_c, 1, 63, 0
3, 27480, Note_on_c, 1, 68, 64
3, 27720, Note_on_c, 1, 68, 0
3, 27720, Note_on_c, 1, 67, 64
3, 27840, Note_on_c, 1, 67, 0
3, 27840, Note_on_c, 1, 65, 64
3, 27960, Note_on_c, 1, 65, 0
3, 27960, Note_on_c, 1, 65, 64
3, 28020, Note_on_c, 1, 65, 0
3, 28020, Note_on_c, 1, 63, 64
3, 28080, Note_on_c, 1, 63, 0
3, 28080, Note_on_c, 1, 65, 64
3, 28200, Note_on_c, 1, 65, 0
3, 28200, Note_on_c, 1, 67, 64
3, 28260, Note_on_c, 1, 67, 0
3, 28260, Note_on_c, 1, 65, 64
3, 28320, Note_on_c, 1, 65, 0
3, 28320, Note_on_c, 1, 63, 64
3, 28440, Note_on_c, 1, 63, 0
3, 28440, Note_on_c, 1, 67, 64
3, 28500, Note_on_c, 1, 67, 0
3, 28500, Note_on_c, 1, 65, 64
3, 28560, Note_on_c, 1, 65, 0
3, 28560, Note_on_c, 1, 67, 64
3, 28680, Note_on_c, 1, 67, 0
3, 28680, Note_on_c, 1, 69, 64
3, 28740, Note_on_c, 1, 69, 0
3, 28740, Note_on_c, 1, 67, 64
3, 28800, Note_on_c, 1, 67, 0
3, 28800, Note_on_c, 1, 65, 64
3, 28920, Note_on_c, 1, 65, 0
3, 28920, Note_on_c, 1, 70, 64
3, 28980, Note_on_c, 1, 70, 0
3, 28980, Note_on_c, 1, 68, 64
3, 29040, Note_on_c, 1, 68, 0
3, 29040, Note_on_c, 1, 70, 64
3, 29160, Note_on_c, 1, 70, 0
3, 29160, Note_on_c, 1, 74, 64
3, 29280, Note_on_c, 1, 74, 0
3, 29280, Note_on_c, 1, 75, 64
3, 29400, Note_on_c, 1, 75, 0
3, 29400, Note_on_c, 1, 72, 64
3, 29520, Note_on_c, 1, 72, 0
3, 29520, Note_on_c, 1, 67, 64
3, 29760, Note_on_c, 1, 67, 0
3, 29760, Note_on_c, 1, 68, 64
3, 30120, Note_on_c, 1, 68, 0
3, 30120, Note_on_c, 1, 67, 64
3, 30240, Note_on_c, 1, 67, 0
3, 30240, Note_on_c, 1, 68, 64
3, 30360, Note_on_c, 1, 68, 0
3, 30360, Note_on_c, 1, 65, 64
3, 30480, Note_on_c, 1, 65, 0
3, 30480, Note_on_c, 1, 70, 64
3, 30840, Note_on_c, 1, 70, 0
3, 31080, Note_on_c, 1, 68, 64
3, 31200, Note_on_c, 1, 68, 0
3, 31200, Note_on_c, 1, 67, 64
3, 31440, Note_on_c, 1, 67, 0
3, 31560, Note_on_c, 1, 65, 64
3, 31680, Note_on_c, 1, 65, 0
3, 31680, Note_on_c, 1, 63, 64
3, 32040, Note_on_c, 1, 63, 0
3, 32040, Note_on_c, 1, 62, 64
3, 32100, Note_on_c, 1, 62, 0
3, 32100, Note_on_c, 1, 60, 64
3, 32160, Note_on_c, 1, 60, 0
3, 32160, Note_on_c, 1, 62, 64
3, 32280, Note_on_c, 1, 62, 0
3, 32280, Note_on_c, 1, 58, 64
3, 32400, Note_on_c, 1, 58, 0
3, 32400, Note_on_c, 1, 63, 64
3, 32880, Note_on_c, 1, 62, 64
3, 32885, Note_on_c, 1, 63, 0
3, 33120, Note_on_c, 1, 58, 64
3, 33129, Note_on_c, 1, 62, 0
3, 33600, Note_on_c, 1, 58, 0
3, 33600, End_track
4, 0, Start_track
4, 0, MIDI_port, 0
4, 0, Title_t, "by"
4, 0, Program_c, 2, 6
4, 2880, Note_on_c, 2, 58, 64
4, 3360, Note_on_c, 2, 58, 0
4, 3360, Note_on_c, 2, 63, 64
4, 3600, Note_on_c, 2, 63, 0
4, 3720, Note_on_c, 2, 63, 64
4, 3840, Note_on_c, 2, 63, 0
4, 3840, Note_on_c, 2, 62, 64
4, 3960, Note_on_c, 2, 62, 0
4, 3960, Note_on_c, 2, 67, 64
4, 4200, Note_on_c, 2, 67, 0
4, 4200, Note_on_c, 2, 65, 64
4, 4320, Note_on_c, 2, 65, 0
4, 4320, Note_on_c, 2, 63, 64
4, 4440, Note_on_c, 2, 63, 0
4, 4440, Note_on_c, 2, 63, 64
4, 4500, Note_on_c, 2, 63, 0
4, 4500, Note_on_c, 2, 62, 64
4, 4560, Note_on_c, 2, 62, 0
4, 4560, Note_on_c, 2, 63, 64
4, 4680, Note_on_c, 2, 63, 0
4, 4680, Note_on_c, 2, 67, 64
4, 4800, Note_on_c, 2, 67, 0
4, 4800, Note_on_c, 2, 60, 64
4, 4920, Note_on_c, 2, 60, 0
4, 4920, Note_on_c, 2, 65, 64
4, 5160, Note_on_c, 2, 65, 0
4, 5160, Note_on_c, 2, 63, 64
4, 5280, Note_on_c, 2, 63, 0
4, 5280, Note_on_c, 2, 62, 64
4, 5400, Note_on_c, 2, 62, 0
4, 5400, Note_on_c, 2, 62, 64
4, 5460, Note_on_c, 2, 62, 0
4, 5460, Note_on_c, 2, 60, 64
4, 5520, Note_on_c, 2, 60, 0
4, 5520, Note_on_c, 2, 62, 64
4, 5640, Note_on_c, 2, 62, 0
4, 5640, Note_on_c, 2, 65, 64
4, 5760, Note_on_c, 2, 65, 0
4, 5760, Note_on_c, 2, 58, 64
4, 5880, Note_on_c, 2, 58, 0
4, 5880, Note_on_c, 2, 58, 64
4, 5940, Note_on_c, 2, 58, 0
4, 5940, Note_on_c, 2, 56, 64
4, 6000, Note_on_c, 2, 56, 0
4, 6000, Note_on_c, 2, 58, 64
4, 6120, Note_on_c, 2, 58, 0
4, 6120, Note_on_c, 2, 62, 64
4, 6240, Note_on_c, 2, 62, 0
4, 6240, Note_on_c, 2, 55, 64
4, 6360, Note_on_c, 2, 55, 0
4, 6360, Note_on_c, 2, 56, 64
4, 6420, Note_on_c, 2, 56, 0
4, 6420, Note_on_c, 2, 58, 64
4, 6480, Note_on_c, 2, 58, 0
4, 6480, Note_on_c, 2, 60, 64
4, 6600, Note_on_c, 2, 60, 0
4, 6600, Note_on_c, 2, 58, 64
4, 6660, Note_on_c, 2, 58, 0
4, 6660, Note_on_c, 2, 60, 64
4, 6720, Note_on_c, 2, 60, 0
4, 6720, Note_on_c, 2, 62, 64
4, 6840, Note_on_c, 2, 62, 0
4, 6840, Note_on_c, 2, 65, 64
4, 6960, Note_on_c, 2, 65, 0
4, 6960, Note_on_c, 2, 58, 64
4, 7080, Note_on_c, 2, 58, 0
4, 7080, Note_on_c, 2, 62, 64
4, 7200, Note_on_c, 2, 62, 0
4, 7200, Note_on_c, 2, 63, 64
4, 7920, Note_on_c, 2, 63, 0
4, 7920, Note_on_c, 2, 62, 64
4, 8040, Note_on_c, 2, 62, 0
4, 8040, Note_on_c, 2, 60, 64
4, 8160, Note_on_c, 2, 60, 0
4, 8160, Note_on_c, 2, 62, 64
4, 8340, Note_on_c, 2, 62, 0
4, 8340, Note_on_c, 2, 63, 64
4, 8370, Note_on_c, 2, 63, 0
4, 8370, Note_on_c, 2, 62, 64
4, 8400, Note_on_c, 2, 62, 0
4, 8400, Note_on_c, 2, 60, 64
4, 8520, Note_on_c, 2, 60, 0
4, 8520, Note_on_c, 2, 62, 64
4, 8640, Note_on_c, 2, 62, 0
4, 8640, Note_on_c, 2, 63, 64
4, 8760, Note_on_c, 2, 63, 0
4, 8760, Note_on_c, 2, 58, 64
4, 8820, Note_on_c, 2, 58, 0
4, 8820, Note_on_c, 2, 56, 64
4, 8880, Note_on_c, 2, 56, 0
4, 8880, Note_on_c, 2, 58, 64
4, 9240, Note_on_c, 2, 58, 0
4, 9240, Note_on_c, 2, 56, 64
4, 9300, Note_on_c, 2, 56, 0
4, 9300, Note_on_c, 2, 55, 64
4, 9360, Note_on_c, 2, 55, 0
4, 9360, Note_on_c, 2, 56, 64
4, 9720, Note_on_c, 2, 56, 0
4, 9720, Note_on_c, 2, 55, 64
4, 9840, Note_on_c, 2, 55, 0
4, 9840, Note_on_c, 2, 53, 64
4, 9960, Note_on_c, 2, 53, 0
4, 9960, Note_on_c, 2, 58, 64
4, 10080, Note_on_c, 2, 58, 0
4, 10080, Note_on_c, 2, 55, 64
4, 10320, Note_on_c, 2, 55, 0
4, 10320, Note_on_c, 2, 53, 64
4, 10680, Note_on_c, 2, 53, 0
4, 10680, Note_on_c, 2, 50, 64
4, 10800, Note_on_c, 2, 50, 0
4, 10800, Note_on_c, 2, 55, 64
4, 11160, Note_on_c, 2, 55, 0
4, 11160, Note_on_c, 2, 60, 64
4, 11220, Note_on_c, 2, 60, 0
4, 11220, Note_on_c, 2, 58, 64
4, 11280, Note_on_c, 2, 58, 0
4, 11280, Note_on_c, 2, 60, 64
4, 11700, Note_on_c, 2, 60, 0
4, 11700, Note_on_c, 2, 62, 64
4, 11730, Note_on_c, 2, 62, 0
4, 11730, Note_on_c, 2, 60, 64
4, 11760, Note_on_c, 2, 60, 0
4, 11760, Note_on_c, 2, 58, 64
4, 11880, Note_on_c, 2, 58, 0
4, 11880, Note_on_c, 2, 60, 64
4, 12000, Note_on_c, 2, 60, 0
4, 12000, Note_on_c, 2, 62, 64
4, 12240, Note_on_c, 2, 62, 0
4, 12360, Note_on_c, 2, 60, 64
4, 12480, Note_on_c, 2, 60, 0
4, 12480, Note_on_c, 2, 62, 64
4, 12720, Note_on_c, 2, 62, 0
4, 12840, Note_on_c, 2, 56, 64
4, 12960, Note_on_c, 2, 56, 0
4, 12960, Note_on_c, 2, 58, 64
4, 13080, Note_on_c, 2, 58, 0
4, 13080, Note_on_c, 2, 60, 64
4, 13200, Note_on_c, 2, 60, 0
4, 13200, Note_on_c, 2, 61, 64
4, 13440, Note_on_c, 2, 61, 0
4, 13440, Note_on_c, 2, 60, 64
4, 13560, Note_on_c, 2, 60, 0
4, 13560, Note_on_c, 2, 58, 64
4, 13680, Note_on_c, 2, 58, 0
4, 13680, Note_on_c, 2, 60, 64
4, 13920, Note_on_c, 2, 60, 0
4, 13920, Note_on_c, 2, 58, 64
4, 14160, Note_on_c, 2, 58, 0
4, 14160, Note_on_c, 2, 58, 64
4, 14400, Note_on_c, 2, 58, 0
4, 14400, Note_on_c, 2, 63, 64
4, 14640, Note_on_c, 2, 63, 0
4, 14760, Note_on_c, 2, 63, 64
4, 14880, Note_on_c, 2, 63, 0
4, 14880, Note_on_c, 2, 62, 64
4, 15000, Note_on_c, 2, 62, 0
4, 15000, Note_on_c, 2, 67, 64
4, 15240, Note_on_c, 2, 67, 0
4, 15240, Note_on_c, 2, 65, 64
4, 15360, Note_on_c, 2, 65, 0
4, 15360, Note_on_c, 2, 63, 64
4, 15480, Note_on_c, 2, 63, 0
4, 15480, Note_on_c, 2, 63, 64
4, 15540, Note_on_c, 2, 63, 0
4, 15540, Note_on_c, 2, 62, 64
4, 15600, Note_on_c, 2, 62, 0
4, 15600, Note_on_c, 2, 63, 64
4, 15720, Note_on_c, 2, 63, 0
4, 15720, Note_on_c, 2, 67, 64
4, 15840, Note_on_c, 2, 67, 0
4, 15840, Note_on_c, 2, 60, 64
4, 15960, Note_on_c, 2, 60, 0
4, 15960, Note_on_c, 2, 65, 64
4, 16200, Note_on_c, 2, 65, 0
4, 16200, Note_on_c, 2, 63, 64
4, 16320, Note_on_c, 2, 63, 0
4, 16320, Note_on_c, 2, 62, 64
4, 16440, Note_on_c, 2, 62, 0
4, 16440, Note_on_c, 2, 62, 64
4, 16500, Note_on_c, 2, 62, 0
4, 16500, Note_on_c, 2, 60, 64
4, 16560, Note_on_c, 2, 60, 0
4, 16560, Note_on_c, 2, 62, 64
4, 16680, Note_on_c, 2, 62, 0
4, 16680, Note_on_c, 2, 65, 64
4, 16800, Note_on_c, 2, 65, 0
4, 16800, Note_on_c, 2, 58, 64
4, 16920, Note_on_c, 2, 58, 0
4, 16920, Note_on_c, 2, 58, 64
4, 16980, Note_on_c, 2, 58, 0
4, 16980, Note_on_c, 2, 56, 64
4, 17040, Note_on_c, 2, 56, 0
4, 17040, Note_on_c, 2, 58, 64
4, 17160, Note_on_c, 2, 58, 0
4, 17160, Note_on_c, 2, 62, 64
4, 17280, Note_on_c, 2, 62, 0
4, 17280, Note_on_c, 2, 55, 64
4, 17520, Note_on_c, 2, 55, 0
4, 17520, Note_on_c, 2, 67, 64
4, 17880, Note_on_c, 2, 67, 0
4, 17880, Note_on_c, 2, 67, 64
4, 17940, Note_on_c, 2, 67, 0
4, 17940, Note_on_c, 2, 65, 64
4, 18000, Note_on_c, 2, 65, 0
4, 18000, Note_on_c, 2, 67, 64
4, 18120, Note_on_c, 2, 67, 0
4, 18120, Note_on_c, 2, 69, 64
4, 18240, Note_on_c, 2, 69, 0
4, 18240, Note_on_c, 2, 70, 64
4, 18360, Note_on_c, 2, 70, 0
4, 18360, Note_on_c, 2, 62, 64
4, 18420, Note_on_c, 2, 62, 0
4, 18420, Note_on_c, 2, 60, 64
4, 18480, Note_on_c, 2, 60, 0
4, 18480, Note_on_c, 2, 62, 64
4, 18600, Note_on_c, 2, 62, 0
4, 18600, Note_on_c, 2, 65, 64
4, 18720, Note_on_c, 2, 65, 0
4, 18720, Note_on_c, 2, 67, 64
4, 18840, Note_on_c, 2, 67, 0
4, 18840, Note_on_c, 2, 67, 64
4, 18900, Note_on_c, 2, 67, 0
4, 18900, Note_on_c, 2, 65, 64
4, 18960, Note_on_c, 2, 65, 0
4, 18960, Note_on_c, 2, 67, 64
4, 19320, Note_on_c, 2, 67, 0
4, 19320, Note_on_c, 2, 60, 64
4, 19440, Note_on_c, 2, 60, 0
4, 19440, Note_on_c, 2, 65, 64
4, 19800, Note_on_c, 2, 65, 0
4, 19800, Note_on_c, 2, 65, 64
4, 19860, Note_on_c, 2, 65, 0
4, 19860, Note_on_c, 2, 63, 64
4, 19920, Note_on_c, 2, 63, 0
4, 19920, Note_on_c, 2, 65, 64
4, 20280, Note_on_c, 2, 65, 0
4, 20280, Note_on_c, 2, 58, 64
4, 20400, Note_on_c, 2, 58, 0
4, 20400, Note_on_c, 2, 63, 64
4, 20520, Note_on_c, 2, 63, 0
4, 25200, Note_on_c, 2, 58, 64
4, 25440, Note_on_c, 2, 58, 0
4, 25440, Note_on_c, 2, 63, 64
4, 25680, Note_on_c, 2, 63, 0
4, 25800, Note_on_c, 2, 61, 64
4, 25920, Note_on_c, 2, 61, 0
4, 25920, Note_on_c, 2, 60, 64
4, 26040, Note_on_c, 2, 60, 0
4, 26040, Note_on_c, 2, 65, 64
4, 26280, Note_on_c, 2, 65, 0
4, 26280, Note_on_c, 2, 63, 64
4, 26400, Note_on_c, 2, 63, 0
4, 26400, Note_on_c, 2, 61, 64
4, 26520, Note_on_c, 2, 61, 0
4, 26520, Note_on_c, 2, 61, 64
4, 26580, Note_on_c, 2, 61, 0
4, 26580, Note_on_c, 2, 60, 64
4, 26640, Note_on_c, 2, 60, 0
4, 26640, Note_on_c, 2, 61, 64
4, 26760, Note_on_c, 2, 61, 0
4, 26760, Note_on_c, 2, 65, 64
4, 26880, Note_on_c, 2, 65, 0
4, 26880, Note_on_c, 2, 58, 64
4, 27000, Note_on_c, 2, 58, 0
4, 27000, Note_on_c, 2, 63, 64
4, 27240, Note_on_c, 2, 63, 0
4, 27240, Note_on_c, 2, 61, 64
4, 27360, Note_on_c, 2, 61, 0
4, 27360, Note_on_c, 2, 60, 64
4, 27480, Note_on_c, 2, 60, 0
4, 27480, Note_on_c, 2, 60, 64
4, 27540, Note_on_c, 2, 60, 0
4, 27540, Note_on_c, 2, 58, 64
4, 27600, Note_on_c, 2, 58, 0
4, 27600, Note_on_c, 2, 60, 64
4, 27720, Note_on_c, 2, 60, 0
4, 27720, Note_on_c, 2, 63, 64
4, 27840, Note_on_c, 2, 63, 0
4, 27840, Note_on_c, 2, 56, 64
4, 27960, Note_on_c, 2, 56, 0
4, 27960, Note_on_c, 2, 56, 64
4, 28020, Note_on_c, 2, 56, 0
4, 28020, Note_on_c, 2, 55, 64
4, 28080, Note_on_c, 2, 55, 0
4, 28080, Note_on_c, 2, 56, 64
4, 28200, Note_on_c, 2, 56, 0
4, 28200, Note_on_c, 2, 58, 64
4, 28260, Note_on_c, 2, 58, 0
4, 28260, Note_on_c, 2, 56, 64
4, 28320, Note_on_c, 2, 56, 0
4, 28320, Note_on_c, 2, 55, 64
4, 28440, Note_on_c, 2, 55, 0
4, 28440, Note_on_c, 2, 58, 64
4, 28500, Note_on_c, 2, 58, 0
4, 28500, Note_on_c, 2, 56, 64
4, 28560, Note_on_c, 2, 56, 0
4, 28560, Note_on_c, 2, 58, 64
4, 28680, Note_on_c, 2, 58, 0
4, 28680, Note_on_c, 2, 60, 64
4, 28800, Note_on_c, 2, 60, 0
4, 28800, Note_on_c, 2, 62, 64
4, 28920, Note_on_c, 2, 62, 0
4, 28920, Note_on_c, 2, 62, 64
4, 28980, Note_on_c, 2, 62, 0
4, 28980, Note_on_c, 2, 60, 64
4, 29040, Note_on_c, 2, 60, 0
4, 29040, Note_on_c, 2, 62, 64
4, 29160, Note_on_c, 2, 62, 0
4, 29160, Note_on_c, 2, 65, 64
4, 29280, Note_on_c, 2, 65, 0
4, 29280, Note_on_c, 2, 70, 64
4, 29400, Note_on_c, 2, 70, 0
4, 29400, Note_on_c, 2, 67, 64
4, 29520, Note_on_c, 2, 67, 0
4, 29520, Note_on_c, 2, 63, 64
4, 29880, Note_on_c, 2, 63, 0
4, 29880, Note_on_c, 2, 60, 64
4, 29940, Note_on_c, 2, 60, 0
4, 29940, Note_on_c, 2, 58, 64
4, 30000, Note_on_c, 2, 58, 0
4, 30000, Note_on_c, 2, 60, 64
4, 30120, Note_on_c, 2, 60, 0
4, 30120, Note_on_c, 2, 63, 64
4, 30240, Note_on_c, 2, 63, 0
4, 30240, Note_on_c, 2, 65, 64
4, 30360, Note_on_c, 2, 65, 0
4, 30360, Note_on_c, 2, 62, 64
4, 30480, Note_on_c, 2, 62, 0
4, 30480, Note_on_c, 2, 67, 64
4, 30600, Note_on_c, 2, 67, 0
4, 30600, Note_on_c, 2, 62, 64
4, 30720, Note_on_c, 2, 62, 0
4, 30720, Note_on_c, 2, 63, 64
4, 30840, Note_on_c, 2, 63, 0
4, 31080, Note_on_c, 2, 65, 64
4, 31200, Note_on_c, 2, 65, 0
4, 31200, Note_on_c, 2, 63, 64
4, 31440, Note_on_c, 2, 63, 0
4, 31560, Note_on_c, 2, 62, 64
4, 31680, Note_on_c, 2, 62, 0
4, 31680, Note_on_c, 2, 60, 64
4, 32040, Note_on_c, 2, 60, 0
4, 32040, Note_on_c, 2, 56, 64
4, 32160, Note_on_c, 2, 56, 0
4, 32160, Note_on_c, 2, 53, 64
4, 32400, Note_on_c, 2, 53, 0
4, 32520, Note_on_c, 2, 60, 64
4, 32640, Note_on_c, 2, 60, 0
4, 32640, Note_on_c, 2, 53, 64
4, 32760, Note_on_c, 2, 53, 0
4, 32760, Note_on_c, 2, 53, 64
4, 32820, Note_on_c, 2, 53, 0
4, 32820, Note_on_c, 2, 51, 64
4, 32880, Note_on_c, 2, 51, 0
4, 32880, Note_on_c, 2, 53, 64
4, 33000, Note_on_c, 2, 53, 0
4, 33000, Note_on_c, 2, 58, 64
4, 33120, Note_on_c, 2, 58, 0
4, 33120, Note_on_c, 2, 55, 64
4, 33600, Note_on_c, 2, 55, 0
4, 33600, End_track
5, 0, Start_track
5, 0, MIDI_port, 0
5, 0, Title_t, "Yo Tomita"
5, 0, Program_c, 3, 6
5, 0, Note_on_c, 3, 51, 64
5, 480, Note_on_c, 3, 51, 0
5, 480, Note_on_c, 3, 58, 64
5, 720, Note_on_c, 3, 58, 0
5, 840, Note_on_c, 3, 56, 64
5, 960, Note_on_c, 3, 56, 0
5, 960, Note_on_c, 3, 55, 64
5, 1080, Note_on_c, 3, 55, 0
5, 1080, Note_on_c, 3, 60, 64
5, 1320, Note_on_c, 3, 60, 0
5, 1320, Note_on_c, 3, 58, 64
5, 1440, Note_on_c, 3, 58, 0
5, 1440, Note_on_c, 3, 56, 64
5, 1560, Note_on_c, 3, 56, 0
5, 1560, Note_on_c, 3, 56, 64
5, 1620, Note_on_c, 3, 56, 0
5, 1620, Note_on_c, 3, 55, 64
5, 1680, Note_on_c, 3, 55, 0
5, 1680, Note_on_c, 3, 56, 64
5, 1800, Note_on_c, 3, 56, 0
5, 1800, Note_on_c, 3, 60, 64
5, 1920, Note_on_c, 3, 60, 0
5, 1920, Note_on_c, 3, 53, 64
5, 2040, Note_on_c, 3, 53, 0
5, 2040, Note_on_c, 3, 58, 64
5, 2280, Note_on_c, 3, 58, 0
5, 2280, Note_on_c, 3, 56, 64
5, 2400, Note_on_c, 3, 56, 0
5, 2400, Note_on_c, 3, 55, 64
5, 2520, Note_on_c, 3, 55, 0
5, 2520, Note_on_c, 3, 55, 64
5, 2580, Note_on_c, 3, 55, 0
5, 2580, Note_on_c, 3, 53, 64
5, 2640, Note_on_c, 3, 53, 0
5, 2640, Note_on_c, 3, 55, 64
5, 2760, Note_on_c, 3, 55, 0
5, 2760, Note_on_c, 3, 58, 64
5, 2880, Note_on_c, 3, 58, 0
5, 2880, Note_on_c, 3, 51, 64
5, 3000, Note_on_c, 3, 51, 0
5, 3000, Note_on_c, 3, 51, 64
5, 3060, Note_on_c, 3, 51, 0
5, 3060, Note_on_c, 3, 50, 64
5, 3120, Note_on_c, 3, 50, 0
5, 3120, Note_on_c, 3, 51, 64
5, 3240, Note_on_c, 3, 51, 0
5, 3240, Note_on_c, 3, 55, 64
5, 3360, Note_on_c, 3, 55, 0
5, 3360, Note_on_c, 3, 48, 64
5, 3480, Note_on_c, 3, 48, 0
5, 3480, Note_on_c, 3, 50, 64
5, 3540, Note_on_c, 3, 50, 0
5, 3540, Note_on_c, 3, 51, 64
5, 3600, Note_on_c, 3, 51, 0
5, 3600, Note_on_c, 3, 53, 64
5, 3840, Note_on_c, 3, 53, 0
5, 3840, Note_on_c, 3, 46, 64
5, 4080, Note_on_c, 3, 46, 0
5, 4080, Note_on_c, 3, 58, 64
5, 4560, Note_on_c, 3, 58, 0
5, 4560, Note_on_c, 3, 57, 64
5, 4680, Note_on_c, 3, 57, 0
5, 4680, Note_on_c, 3, 55, 64
5, 4800, Note_on_c, 3, 55, 0
5, 4800, Note_on_c, 3, 57, 64
5, 4980, Note_on_c, 3, 57, 0
5, 4980, Note_on_c, 3, 58, 64
5, 5010, Note_on_c, 3, 58, 0
5, 5010, Note_on_c, 3, 57, 64
5, 5040, Note_on_c, 3, 57, 0
5, 5040, Note_on_c, 3, 55, 64
5, 5160, Note_on_c, 3, 55, 0
5, 5160, Note_on_c, 3, 57, 64
5, 5280, Note_on_c, 3, 57, 0
5, 5280, Note_on_c, 3, 58, 64
5, 5400, Note_on_c, 3, 58, 0
5, 5400, Note_on_c, 3, 46, 64
5, 5520, Note_on_c, 3, 46, 0
5, 5520, Note_on_c, 3, 58, 64
5, 5640, Note_on_c, 3, 58, 0
5, 5640, Note_on_c, 3, 56, 64
5, 5760, Note_on_c, 3, 56, 0
5, 5760, Note_on_c, 3, 55, 64
5, 5880, Note_on_c, 3, 55, 0
5, 5880, Note_on_c, 3, 43, 64
5, 6000, Note_on_c, 3, 43, 0
5, 6000, Note_on_c, 3, 55, 64
5, 6120, Note_on_c, 3, 55, 0
5, 6120, Note_on_c, 3, 53, 64
5, 6240, Note_on_c, 3, 53, 0
5, 6240, Note_on_c, 3, 51, 64
5, 6360, Note_on_c, 3, 51, 0
5, 6360, Note_on_c, 3, 53, 64
5, 6420, Note_on_c, 3, 53, 0
5, 6420, Note_on_c, 3, 55, 64
5, 6480, Note_on_c, 3, 55, 0
5, 6480, Note_on_c, 3, 56, 64
5, 6840, Note_on_c, 3, 56, 0
5, 6840, Note_on_c, 3, 55, 64
5, 6900, Note_on_c, 3, 55, 0
5, 6900, Note_on_c, 3, 53, 64
5, 6960, Note_on_c, 3, 53, 0
5, 6960, Note_on_c, 3, 55, 64
5, 7080, Note_on_c, 3, 55, 0
5, 7080, Note_on_c, 3, 58, 64
5, 7200, Note_on_c, 3, 58, 0
5, 7200, Note_on_c, 3, 51, 64
5, 7320, Note_on_c, 3, 51, 0
5, 7320, Note_on_c, 3, 56, 64
5, 7380, Note_on_c, 3, 56, 0
5, 7380, Note_on_c, 3, 55, 64
5, 7440, Note_on_c, 3, 55, 0
5, 7440, Note_on_c, 3, 56, 64
5, 7560, Note_on_c, 3, 56, 0
5, 7560, Note_on_c, 3, 60, 64
5, 7680, Note_on_c, 3, 60, 0
5, 7680, Note_on_c, 3, 53, 64
5, 8040, Note_on_c, 3, 53, 0
5, 8040, Note_on_c, 3, 55, 64
5, 8100, Note_on_c, 3, 55, 0
5, 8100, Note_on_c, 3, 56, 64
5, 8160, Note_on_c, 3, 56, 0
5, 8160, Note_on_c, 3, 58, 64
5, 8640, Note_on_c, 3, 58, 0
5, 8640, Note_on_c, 3, 51, 64
5, 9000, Note_on_c, 3, 51, 0
5, 9000, Note_on_c, 3, 50, 64
5, 9120, Note_on_c, 3, 50, 0
5, 9120, Note_on_c, 3, 48, 64
5, 9360, Note_on_c, 3, 48, 0
5, 9480, Note_on_c, 3, 53, 64
5, 9600, Note_on_c, 3, 53, 0
5, 9600, Note_on_c, 3, 46, 64
5, 10320, Note_on_c, 3, 46, 0
5, 10320, Note_on_c, 3, 45, 64
5, 10560, Note_on_c, 3, 45, 0
5, 10560, Note_on_c, 3, 46, 64
5, 10800, Note_on_c, 3, 46, 0
5, 10920, Note_on_c, 3, 43, 64
5, 11040, Note_on_c, 3, 43, 0
5, 11040, Note_on_c, 3, 48, 64
5, 11280, Note_on_c, 3, 48, 0
5, 11400, Note_on_c, 3, 51, 64
5, 11520, Note_on_c, 3, 51, 0
5, 11520, Note_on_c, 3, 53, 64
5, 11760, Note_on_c, 3, 53, 0
5, 11880, Note_on_c, 3, 53, 64
5, 12000, Note_on_c, 3, 53, 0
5, 12000, Note_on_c, 3, 58, 64
5, 12120, Note_on_c, 3, 58, 0
5, 12120, Note_on_c, 3, 53, 64
5, 12240, Note_on_c, 3, 53, 0
5, 12240, Note_on_c, 3, 58, 64
5, 12360, Note_on_c, 3, 58, 0
5, 12360, Note_on_c, 3, 57, 64
5, 12480, Note_on_c, 3, 57, 0
5, 12480, Note_on_c, 3, 55, 64
5, 12600, Note_on_c, 3, 55, 0
5, 12600, Note_on_c, 3, 50, 64
5, 12720, Note_on_c, 3, 50, 0
5, 12720, Note_on_c, 3, 55, 64
5, 12840, Note_on_c, 3, 55, 0
5, 12840, Note_on_c, 3, 53, 64
5, 12960, Note_on_c, 3, 53, 0
5, 12960, Note_on_c, 3, 51, 64
5, 13320, Note_on_c, 3, 51, 0
5, 13320, Note_on_c, 3, 52, 64
5, 13440, Note_on_c, 3, 52, 0
5, 13440, Note_on_c, 3, 53, 64
5, 13920, Note_on_c, 3, 53, 0
5, 13920, Note_on_c, 3, 46, 64
5, 14160, Note_on_c, 3, 46, 0
5, 14640, Note_on_c, 3, 51, 64
5, 14880, Note_on_c, 3, 51, 0
5, 14880, Note_on_c, 3, 58, 64
5, 15120, Note_on_c, 3, 58, 0
5, 15240, Note_on_c, 3, 56, 64
5, 15360, Note_on_c, 3, 56, 0
5, 15360, Note_on_c, 3, 55, 64
5, 15480, Note_on_c, 3, 55, 0
5, 15480, Note_on_c, 3, 60, 64
5, 15720, Note_on_c, 3, 60, 0
5, 15720, Note_on_c, 3, 58, 64
5, 15840, Note_on_c, 3, 58, 0
5, 15840, Note_on_c, 3, 56, 64
5, 15960, Note_on_c, 3, 56, 0
5, 15960, Note_on_c, 3, 56, 64
5, 16020, Note_on_c, 3, 56, 0
5, 16020, Note_on_c, 3, 55, 64
5, 16080, Note_on_c, 3, 55, 0
5, 16080, Note_on_c, 3, 56, 64
5, 16200, Note_on_c, 3, 56, 0
5, 16200, Note_on_c, 3, 60, 64
5, 16320, Note_on_c, 3, 60, 0
5, 16320, Note_on_c, 3, 53, 64
5, 16440, Note_on_c, 3, 53, 0
5, 16440, Note_on_c, 3, 58, 64
5, 16680, Note_on_c, 3, 58, 0
5, 16680, Note_on_c, 3, 56, 64
5, 16800, Note_on_c, 3, 56, 0
5, 16800, Note_on_c, 3, 55, 64
5, 16920, Note_on_c, 3, 55, 0
5, 16920, Note_on_c, 3, 55, 64
5, 16980, Note_on_c, 3, 55, 0
5, 16980, Note_on_c, 3, 53, 64
5, 17040, Note_on_c, 3, 53, 0
5, 17040, Note_on_c, 3, 55, 64
5, 17160, Note_on_c, 3, 55, 0
5, 17160, Note_on_c, 3, 58, 64
5, 17280, Note_on_c, 3, 58, 0
5, 17280, Note_on_c, 3, 51, 64
5, 17400, Note_on_c, 3, 51, 0
5, 17400, Note_on_c, 3, 51, 64
5, 17460, Note_on_c, 3, 51, 0
5, 17460, Note_on_c, 3, 50, 64
5, 17520, Note_on_c, 3, 50, 0
5, 17520, Note_on_c, 3, 51, 64
5, 17640, Note_on_c, 3, 51, 0
5, 17640, Note_on_c, 3, 55, 64
5, 17760, Note_on_c, 3, 55, 0
5, 17760, Note_on_c, 3, 48, 64
5, 18000, Note_on_c, 3, 48, 0
5, 18000, Note_on_c, 3, 60, 64
5, 18240, Note_on_c, 3, 60, 0
5, 18240, Note_on_c, 3, 58, 64
5, 18360, Note_on_c, 3, 58, 0
5, 18360, Note_on_c, 3, 58, 64
5, 18420, Note_on_c, 3, 58, 0
5, 18420, Note_on_c, 3, 56, 64
5, 18480, Note_on_c, 3, 56, 0
5, 18480, Note_on_c, 3, 58, 64
5, 18600, Note_on_c, 3, 58, 0
5, 18600, Note_on_c, 3, 62, 64
5, 18720, Note_on_c, 3, 62, 0
5, 18720, Note_on_c, 3, 63, 64
5, 18960, Note_on_c, 3, 63, 0
5, 19080, Note_on_c, 3, 64, 64
5, 19200, Note_on_c, 3, 64, 0
5, 19200, Note_on_c, 3, 65, 64
5, 19320, Note_on_c, 3, 65, 0
5, 19320, Note_on_c, 3, 53, 64
5, 19380, Note_on_c, 3, 53, 0
5, 19380, Note_on_c, 3, 52, 64
5, 19440, Note_on_c, 3, 52, 0
5, 19440, Note_on_c, 3, 53, 64
5, 19560, Note_on_c, 3, 53, 0
5, 19560, Note_on_c, 3, 57, 64
5, 19680, Note_on_c, 3, 57, 0
5, 19680, Note_on_c, 3, 58, 64
5, 19920, Note_on_c, 3, 58, 0
5, 20040, Note_on_c, 3, 62, 64
5, 20160, Note_on_c, 3, 62, 0
5, 20160, Note_on_c, 3, 63, 64
5, 20280, Note_on_c, 3, 63, 0
5, 20280, Note_on_c, 3, 51, 64
5, 20400, Note_on_c, 3, 51, 0
5, 20400, Note_on_c, 3, 63, 64
5, 20460, Note_on_c, 3, 63, 0
5, 20460, Note_on_c, 3, 62, 64
5, 20520, Note_on_c, 3, 62, 0
5, 20520, Note_on_c, 3, 60, 64
5, 20580, Note_on_c, 3, 60, 0
5, 20580, Note_on_c, 3, 58, 64
5, 20640, Note_on_c, 3, 58, 0
5, 20640, Note_on_c, 3, 60, 64
5, 20760, Note_on_c, 3, 60, 0
5, 20760, Note_on_c, 3, 48, 64
5, 20880, Note_on_c, 3, 48, 0
5, 20880, Note_on_c, 3, 60, 64
5, 20940, Note_on_c, 3, 60, 0
5, 20940, Note_on_c, 3, 58, 64
5, 21000, Note_on_c, 3, 58, 0
5, 21000, Note_on_c, 3, 56, 64
5, 21060, Note_on_c, 3, 56, 0
5, 21060, Note_on_c, 3, 55, 64
5, 21120, Note_on_c, 3, 55, 0
5, 21120, Note_on_c, 3, 56, 64
5, 21240, Note_on_c, 3, 56, 0
5, 21240, Note_on_c, 3, 44, 64
5, 21360, Note_on_c, 3, 44, 0
5, 21360, Note_on_c, 3, 56, 64
5, 21480, Note_on_c, 3, 56, 0
5, 21480, Note_on_c, 3, 55, 64
5, 21540, Note_on_c, 3, 55, 0
5, 21540, Note_on_c, 3, 53, 64
5, 21600, Note_on_c, 3, 53, 0
5, 21600, Note_on_c, 3, 55, 64
5, 22140, Note_on_c, 3, 55, 0
5, 22140, Note_on_c, 3, 53, 64
5, 22200, Note_on_c, 3, 53, 0
5, 22200, Note_on_c, 3, 55, 64
5, 22260, Note_on_c, 3, 55, 0
5, 22260, Note_on_c, 3, 56, 64
5, 22320, Note_on_c, 3, 56, 0
5, 22320, Note_on_c, 3, 55, 64
5, 22380, Note_on_c, 3, 55, 0
5, 22380, Note_on_c, 3, 53, 64
5, 22440, Note_on_c, 3, 53, 0
5, 22440, Note_on_c, 3, 52, 64
5, 22500, Note_on_c, 3, 52, 0
5, 22500, Note_on_c, 3, 50, 64
5, 22560, Note_on_c, 3, 50, 0
5, 22560, Note_on_c, 3, 48, 64
5, 23100, Note_on_c, 3, 48, 0
5, 23100, Note_on_c, 3, 46, 64
5, 23160, Note_on_c, 3, 46, 0
5, 23160, Note_on_c, 3, 48, 64
5, 23220, Note_on_c, 3, 48, 0
5, 23220, Note_on_c, 3, 50, 64
5, 23280, Note_on_c, 3, 50, 0
5, 23280, Note_on_c, 3, 48, 64
5, 23340, Note_on_c, 3, 48, 0
5, 23340, Note_on_c, 3, 46, 64
5, 23400, Note_on_c, 3, 46, 0
5, 23400, Note_on_c, 3, 45, 64
5, 23460, Note_on_c, 3, 45, 0
5, 23460, Note_on_c, 3, 43, 64
5, 23520, Note_on_c, 3, 43, 0
5, 23520, Note_on_c, 3, 41, 64
5, 24060, Note_on_c, 3, 41, 0
5, 24060, Note_on_c, 3, 51, 64
5, 24120, Note_on_c, 3, 51, 0
5, 24120, Note_on_c, 3, 53, 64
5, 24180, Note_on_c, 3, 53, 0
5, 24180, Note_on_c, 3, 55, 64
5, 24240, Note_on_c, 3, 55, 0
5, 24240, Note_on_c, 3, 53, 64
5, 24300, Note_on_c, 3, 53, 0
5, 24300, Note_on_c, 3, 51, 64
5, 24360, Note_on_c, 3, 51, 0
5, 24360, Note_on_c, 3, 50, 64
5, 24420, Note_on_c, 3, 50, 0
5, 24420, Note_on_c, 3, 48, 64
5, 24480, Note_on_c, 3, 48, 0
5, 24480, Note_on_c, 3, 46, 64
5, 25020, Note_on_c, 3, 46, 0
5, 25020, Note_on_c, 3, 56, 64
5, 25080, Note_on_c, 3, 56, 0
5, 25080, Note_on_c, 3, 58, 64
5, 25140, Note_on_c, 3, 58, 0
5, 25140, Note_on_c, 3, 60, 64
5, 25200, Note_on_c, 3, 60, 0
5, 25200, Note_on_c, 3, 58, 64
5, 25260, Note_on_c, 3, 58, 0
5, 25260, Note_on_c, 3, 56, 64
5, 25320, Note_on_c, 3, 56, 0
5, 25320, Note_on_c, 3, 55, 64
5, 25380, Note_on_c, 3, 55, 0
5, 25380, Note_on_c, 3, 53, 64
5, 25440, Note_on_c, 3, 53, 0
5, 25440, Note_on_c, 3, 55, 64
5, 25560, Note_on_c, 3, 55, 0
5, 25560, Note_on_c, 3, 56, 64
5, 25680, Note_on_c, 3, 56, 0
5, 25680, Note_on_c, 3, 50, 64
5, 25800, Note_on_c, 3, 50, 0
5, 25800, Note_on_c, 3, 52, 64
5, 25920, Note_on_c, 3, 52, 0
5, 25920, Note_on_c, 3, 53, 64
5, 26220, Note_on_c, 3, 53, 0
5, 26220, Note_on_c, 3, 51, 64
5, 26280, Note_on_c, 3, 51, 0
5, 26280, Note_on_c, 3, 49, 64
5, 26340, Note_on_c, 3, 49, 0
5, 26340, Note_on_c, 3, 48, 64
5, 26400, Note_on_c, 3, 48, 0
5, 26400, Note_on_c, 3, 46, 64
5, 26700, Note_on_c, 3, 46, 0
5, 26700, Note_on_c, 3, 46, 64
5, 26760, Note_on_c, 3, 46, 0
5, 26760, Note_on_c, 3, 48, 64
5, 26820, Note_on_c, 3, 48, 0
5, 26820, Note_on_c, 3, 49, 64
5, 26880, Note_on_c, 3, 49, 0
5, 26880, Note_on_c, 3, 51, 64
5, 27180, Note_on_c, 3, 51, 0
5, 27180, Note_on_c, 3, 39, 64
5, 27240, Note_on_c, 3, 39, 0
5, 27240, Note_on_c, 3, 41, 64
5, 27300, Note_on_c, 3, 41, 0
5, 27300, Note_on_c, 3, 43, 64
5, 27360, Note_on_c, 3, 43, 0
5, 27360, Note_on_c, 3, 44, 64
5, 27420, Note_on_c, 3, 44, 0
5, 27420, Note_on_c, 3, 46, 64
5, 27480, Note_on_c, 3, 46, 0
5, 27480, Note_on_c, 3, 48, 64
5, 27540, Note_on_c, 3, 48, 0
5, 27540, Note_on_c, 3, 49, 64
5, 27600, Note_on_c, 3, 49, 0
5, 27600, Note_on_c, 3, 51, 64
5, 28080, Note_on_c, 3, 51, 0
5, 28080, Note_on_c, 3, 50, 64
5, 28320, Note_on_c, 3, 50, 0
5, 28320, Note_on_c, 3, 51, 64
5, 28800, Note_on_c, 3, 51, 0
5, 28800, Note_on_c, 3, 58, 64
5, 29040, Note_on_c, 3, 58, 0
5, 29160, Note_on_c, 3, 56, 64
5, 29280, Note_on_c, 3, 56, 0
5, 29280, Note_on_c, 3, 55, 64
5, 29400, Note_on_c, 3, 55, 0
5, 29400, Note_on_c, 3, 60, 64
5, 29640, Note_on_c, 3, 60, 0
5, 29640, Note_on_c, 3, 58, 64
5, 29760, Note_on_c, 3, 58, 0
5, 29760, Note_on_c, 3, 56, 64
5, 29880, Note_on_c, 3, 56, 0
5, 29880, Note_on_c, 3, 56, 64
5, 29940, Note_on_c, 3, 56, 0
5, 29940, Note_on_c, 3, 55, 64
5, 30000, Note_on_c, 3, 55, 0
5, 30000, Note_on_c, 3, 56, 64
5, 30120, Note_on_c, 3, 56, 0
5, 30120, Note_on_c, 3, 60, 64
5, 30240, Note_on_c, 3, 60, 0
5, 30240, Note_on_c, 3, 53, 64
5, 30360, Note_on_c, 3, 53, 0
5, 30360, Note_on_c, 3, 58, 64
5, 30600, Note_on_c, 3, 58, 0
5, 30600, Note_on_c, 3, 56, 64
5, 30720, Note_on_c, 3, 56, 0
5, 30720, Note_on_c, 3, 55, 64
5, 30840, Note_on_c, 3, 55, 0
5, 30840, Note_on_c, 3, 55, 64
5, 30900, Note_on_c, 3, 55, 0
5, 30900, Note_on_c, 3, 53, 64
5, 30960, Note_on_c, 3, 53, 0
5, 30960, Note_on_c, 3, 55, 64
5, 31080, Note_on_c, 3, 55, 0
5, 31080, Note_on_c, 3, 58, 64
5, 31200, Note_on_c, 3, 58, 0
5, 31200, Note_on_c, 3, 51, 64
5, 31320, Note_on_c, 3, 51, 0
5, 31320, Note_on_c, 3, 51, 64
5, 31380, Note_on_c, 3, 51, 0
5, 31380, Note_on_c, 3, 50, 64
5, 31440, Note_on_c, 3, 50, 0
5, 31440, Note_on_c, 3, 51, 64
5, 31560, Note_on_c, 3, 51, 0
5, 31560, Note_on_c, 3, 55, 64
5, 31680, Note_on_c, 3, 55, 0
5, 31680, Note_on_c, 3, 48, 64
5, 31800, Note_on_c, 3, 48, 0
5, 31800, Note_on_c, 3, 50, 64
5, 31860, Note_on_c, 3, 50, 0
5, 31860, Note_on_c, 3, 51, 64
5, 31920, Note_on_c, 3, 51, 0
5, 31920, Note_on_c, 3, 53, 64
5, 32160, Note_on_c, 3, 53, 0
5, 32160, Note_on_c, 3, 46, 64
5, 32400, Note_on_c, 3, 46, 0
5, 32400, Note_on_c, 3, 45, 64
5, 32640, Note_on_c, 3, 45, 0
5, 32640, Note_on_c, 3, 46, 64
5, 33120, Note_on_c, 3, 46, 0
5, 33120, Note_on_c, 3, 39, 64
5, 33600, Note_on_c, 3, 39, 0
5, 33600, End_track
0, 0, End_of_file
