0, 0, Header, 1, 2, 240
1, 0, Start_track
1, 0, Time_signature, 4, 2, 24, 8
1, 0, Key_signature, 6, "major"
1, 0, Tempo, 1132075
1, 0, Marker_t, "(c) Y.Tomita 1996"
1, 40670, Tempo, 1176471
1, 40730, Tempo, 1333333
1, 40770, Tempo, 1538462
1, 40852, Tempo, 1153846
1, 41957, Tempo, 1188119
1, 41972, Tempo, 1200000
1, 41985, Tempo, 1212121
1, 41997, Tempo, 1224490
1, 42002, Tempo, 1263158
1, 42012, Tempo, 1250000
1, 42020, Tempo, 1237113
1, 42030, Tempo, 1224490
1, 42037, Tempo, 1212121
1, 42045, Tempo, 1200000
1, 42055, Tempo, 1188119
1, 42062, Tempo, 1176471
1, 42070, Tempo, 1165049
1, 42440, Tempo, 1212121
1, 42450, Tempo, 1224490
1, 42460, Tempo, 1237113
1, 42467, Tempo, 1250000
1, 42477, Tempo, 1263158
1, 42485, Tempo, 1276596
1, 42497, Tempo, 1237113
1, 42500, Tempo, 1200000
1, 42502, Tempo, 1165049
1, 42712, Tempo, 1165049
1, 42740, Tempo, 1176471
1, 42765, Tempo, 1188119
1, 42790, Tempo, 1200000
1, 42815, Tempo, 1212121
1, 42840, Tempo, 1224490
1, 42865, Tempo, 1237113
1, 42890, Tempo, 1250000
1, 42915, Tempo, 1263158
1, 42940, Tempo, 1276596
1, 42965, Tempo, 1290323
1, 42990, Tempo, 1304348
1, 43015, Tempo, 1318681
1, 43040, Tempo, 1333333
1, 43067, Tempo, 1348315
1, 43092, Tempo, 1363636
1, 43117, Tempo, 1379310
1, 43142, Tempo, 1395349
1, 43167, Tempo, 1411765
1, 43192, Tempo, 1428571
1, 43217, Tempo, 1445783
1, 43242, Tempo, 1463415
1, 43267, Tempo, 1481481
1, 43292, Tempo, 1500000
1, 43317, Tempo, 1518987
1, 43342, Tempo, 1538462
1, 43367, Tempo, 1558442
1, 43377, Tempo, 1578947
1, 43385, Tempo, 1600000
1, 43395, Tempo, 1621622
1, 43402, Tempo, 1643836
1, 43410, Tempo, 1666667
1, 43420, Tempo, 1690141
1, 43427, Tempo, 1714286
1, 43437, Tempo, 1739130
1, 43445, Tempo, 1764706
1, 43452, Tempo, 1791045
1, 43462, Tempo, 1818182
1, 43470, Tempo, 1846154
1, 43477, Tempo, 1875000
1, 43487, Tempo, 1904762
1, 43495, Tempo, 1935484
1, 43505, Tempo, 1967213
1, 43512, Tempo, 2000000
1, 43520, Tempo, 2033898
1, 43530, Tempo, 2068966
1, 43537, Tempo, 2105263
1, 43545, Tempo, 2142857
1, 43555, Tempo, 2181818
1, 43562, Tempo, 2222222
1, 43572, Tempo, 2264151
1, 43580, Tempo, 2307692
1, 43587, Tempo, 2352941
1, 43597, Tempo, 2400000
1, 43605, Tempo, 2448980
1, 43612, Tempo, 2500000
1, 43622, Tempo, 2553191
1, 43630, Tempo, 2608696
1, 43640, Tempo, 2666667
1, 43647, Tempo, 2727273
1, 43655, Tempo, 2790698
1, 43665, Tempo, 2857143
1, 43672, Tempo, 2926829
1, 43680, Tempo, 3000000
1, 44160, Tempo, 1153846
1, 44160, End_track
2, 0, Start_track
2, 0, MIDI_port, 0
2, 0, Title_t, "BWV 877/2"
2, 0, Program_c, 0, 6
2, 120, Note_on_c, 0, 63, 64
2, 240, Note_on_c, 0, 63, 0
2, 240, Note_on_c, 0, 63, 64
2, 360, Note_on_c, 0, 63, 0
2, 360, Note_on_c, 0, 63, 64
2, 480, Note_on_c, 0, 63, 0
2, 480, Note_on_c, 0, 62, 64
2, 600, Note_on_c, 0, 62, 0
2, 600, Note_on_c, 0, 63, 64
2, 720, Note_on_c, 0, 63, 0
2, 720, Note_on_c, 0, 65, 64
2, 1080, Note_on_c, 0, 65, 0
2, 1080, Note_on_c, 0, 63, 64
2, 1200, Note_on_c, 0, 63, 0
2, 1200, Note_on_c, 0, 68, 64
2, 1560, Note_on_c, 0, 68, 0
2, 1560, Note_on_c, 0, 66, 64
2, 1620, Note_on_c, 0, 66, 0
2, 1620, Note_on_c, 0, 65, 64
2, 1680, Note_on_c, 0, 65, 0
2, 1680, Note_on_c, 0, 70, 64
2, 1800, Note_on_c, 0, 70, 0
2, 1800, Note_on_c, 0, 68, 64
2, 1920, Note_on_c, 0, 68, 0
2, 1920, Note_on_c, 0, 66, 64
2, 2040, Note_on_c, 0, 66, 0
2, 2040, Note_on_c, 0, 65, 64
2, 2040, Note_on_c, 0, 58, 64
2, 2160, Note_on_c, 0, 58, 0
2, 2160, Note_on_c, 0, 65, 0
2, 2160, Note_on_c, 0, 63, 64
2, 2160, Note_on_c, 0, 58, 64
2, 2280, Note_on_c, 0, 58, 0
2, 2280, Note_on_c, 0, 63, 0
2, 2280, Note_on_c, 0, 61, 64
2, 2280, Note_on_c, 0, 58, 64
2, 2340, Note_on_c, 0, 61, 0
2, 2340, Note_on_c, 0, 63, 64
2, 2400, Note_on_c, 0, 63, 0
2, 2400, Note_on_c, 0, 58, 0
2, 2400, Note_on_c, 0, 65, 64
2, 2400, Note_on_c, 0, 57, 64
2, 2520, Note_on_c, 0, 57, 0
2, 2520, Note_on_c, 0, 58, 64
2, 2640, Note_on_c, 0, 58, 0
2, 2640, Note_on_c, 0, 60, 64
2, 2760, Note_on_c, 0, 65, 0
2, 2760, Note_on_c, 0, 63, 64
2, 2820, Note_on_c, 0, 63, 0
2, 2820, Note_on_c, 0, 65, 64
2, 2880, Note_on_c, 0, 65, 0
2, 2880, Note_on_c, 0, 66, 64
2, 3000, Note_on_c, 0, 60, 0
2, 3000, Note_on_c, 0, 58, 64
2, 3120, Note_on_c, 0, 58, 0
2, 3120, Note_on_c, 0, 63, 64
2, 3240, Note_on_c, 0, 66, 0
2, 3240, Note_on_c, 0, 65, 64
2, 3300, Note_on_c, 0, 65, 0
2, 3300, Note_on_c, 0, 67, 64
2, 3360, Note_on_c, 0, 67, 0
2, 3360, Note_on_c, 0, 68, 64
2, 3480, Note_on_c, 0, 63, 0
2, 3480, Note_on_c, 0, 61, 64
2, 3540, Note_on_c, 0, 61, 0
2, 3540, Note_on_c, 0, 60, 64
2, 3600, Note_on_c, 0, 60, 0
2, 3600, Note_on_c, 0, 65, 64
2, 3720, Note_on_c, 0, 65, 0
2, 3720, Note_on_c, 0, 68, 0
2, 3720, Note_on_c, 0, 63, 64
2, 3720, Note_on_c, 0, 67, 64
2, 3780, Note_on_c, 0, 67, 0
2, 3780, Note_on_c, 0, 69, 64
2, 3840, Note_on_c, 0, 69, 0
2, 3840, Note_on_c, 0, 63, 0
2, 3840, Note_on_c, 0, 70, 64
2, 3840, Note_on_c, 0, 61, 64
2, 3960, Note_on_c, 0, 61, 0
2, 3960, Note_on_c, 0, 70, 0
2, 3960, Note_on_c, 0, 72, 64
2, 3960, Note_on_c, 0, 60, 64
2, 4080, Note_on_c, 0, 60, 0
2, 4080, Note_on_c, 0, 72, 0
2, 4080, Note_on_c, 0, 73, 64
2, 4080, Note_on_c, 0, 58, 64
2, 4200, Note_on_c, 0, 58, 0
2, 4200, Note_on_c, 0, 70, 64
2, 4320, Note_on_c, 0, 70, 0
2, 4320, Note_on_c, 0, 63, 64
2, 4440, Note_on_c, 0, 73, 0
2, 4440, Note_on_c, 0, 67, 64
2, 4560, Note_on_c, 0, 67, 0
2, 4560, Note_on_c, 0, 68, 64
2, 4680, Note_on_c, 0, 68, 0
2, 4680, Note_on_c, 0, 63, 0
2, 4680, Note_on_c, 0, 61, 64
2, 4680, Note_on_c, 0, 70, 64
2, 4800, Note_on_c, 0, 70, 0
2, 4800, Note_on_c, 0, 61, 0
2, 4800, Note_on_c, 0, 63, 64
2, 4800, Note_on_c, 0, 59, 64
2, 4920, Note_on_c, 0, 63, 0
2, 4920, Note_on_c, 0, 68, 64
2, 5040, Note_on_c, 0, 59, 0
2, 5040, Note_on_c, 0, 58, 64
2, 5160, Note_on_c, 0, 68, 0
2, 5160, Note_on_c, 0, 67, 64
2, 5280, Note_on_c, 0, 67, 0
2, 5280, Note_on_c, 0, 58, 0
2, 5280, Note_on_c, 0, 71, 64
2, 5280, Note_on_c, 0, 56, 64
2, 5400, Note_on_c, 0, 56, 0
2, 5400, Note_on_c, 0, 68, 64
2, 5520, Note_on_c, 0, 68, 0
2, 5520, Note_on_c, 0, 62, 64
2, 5640, Note_on_c, 0, 71, 0
2, 5640, Note_on_c, 0, 70, 64
2, 5700, Note_on_c, 0, 70, 0
2, 5700, Note_on_c, 0, 68, 64
2, 5760, Note_on_c, 0, 68, 0
2, 5760, Note_on_c, 0, 62, 0
2, 5760, Note_on_c, 0, 66, 64
2, 5760, Note_on_c, 0, 63, 64
2, 5880, Note_on_c, 0, 63, 0
2, 5880, Note_on_c, 0, 66, 0
2, 5880, Note_on_c, 0, 68, 64
2, 5880, Note_on_c, 0, 53, 64
2, 5880, Note_on_c, 0, 51, 64
2, 6000, Note_on_c, 0, 51, 0
2, 6000, Note_on_c, 0, 53, 0
2, 6000, Note_on_c, 0, 68, 0
2, 6000, Note_on_c, 0, 70, 64
2, 6000, Note_on_c, 0, 54, 64
2, 6000, Note_on_c, 0, 51, 64
2, 6120, Note_on_c, 0, 51, 0
2, 6120, Note_on_c, 0, 54, 0
2, 6120, Note_on_c, 0, 70, 0
2, 6120, Note_on_c, 0, 71, 64
2, 6120, Note_on_c, 0, 56, 64
2, 6120, Note_on_c, 0, 51, 64
2, 6240, Note_on_c, 0, 51, 0
2, 6240, Note_on_c, 0, 56, 0
2, 6240, Note_on_c, 0, 71, 0
2, 6240, Note_on_c, 0, 65, 64
2, 6240, Note_on_c, 0, 58, 64
2, 6240, Note_on_c, 0, 50, 64
2, 6300, Note_on_c, 0, 65, 0
2, 6300, Note_on_c, 0, 66, 64
2, 6360, Note_on_c, 0, 66, 0
2, 6360, Note_on_c, 0, 50, 0
2, 6360, Note_on_c, 0, 65, 64
2, 6360, Note_on_c, 0, 51, 64
2, 6420, Note_on_c, 0, 65, 0
2, 6420, Note_on_c, 0, 63, 64
2, 6480, Note_on_c, 0, 63, 0
2, 6480, Note_on_c, 0, 51, 0
2, 6480, Note_on_c, 0, 53, 64
2, 6480, Note_on_c, 0, 62, 64
2, 6540, Note_on_c, 0, 62, 0
2, 6540, Note_on_c, 0, 63, 64
2, 6600, Note_on_c, 0, 63, 0
2, 6600, Note_on_c, 0, 58, 0
2, 6600, Note_on_c, 0, 65, 64
2, 6600, Note_on_c, 0, 56, 64
2, 6660, Note_on_c, 0, 56, 0
2, 6660, Note_on_c, 0, 65, 0
2, 6660, Note_on_c, 0, 58, 64
2, 6660, Note_on_c, 0, 66, 64
2, 6720, Note_on_c, 0, 66, 0
2, 6720, Note_on_c, 0, 58, 0
2, 6720, Note_on_c, 0, 68, 64
2, 6720, Note_on_c, 0, 59, 64
2, 6780, Note_on_c, 0, 68, 0
2, 6780, Note_on_c, 0, 70, 64
2, 6840, Note_on_c, 0, 70, 0
2, 6840, Note_on_c, 0, 53, 0
2, 6840, Note_on_c, 0, 68, 64
2, 6840, Note_on_c, 0, 51, 64
2, 6900, Note_on_c, 0, 68, 0
2, 6900, Note_on_c, 0, 66, 64
2, 6960, Note_on_c, 0, 66, 0
2, 6960, Note_on_c, 0, 51, 0
2, 6960, Note_on_c, 0, 65, 64
2, 6960, Note_on_c, 0, 56, 64
2, 7080, Note_on_c, 0, 59, 0
2, 7080, Note_on_c, 0, 58, 64
2, 7140, Note_on_c, 0, 58, 0
2, 7140, Note_on_c, 0, 60, 64
2, 7200, Note_on_c, 0, 60, 0
2, 7200, Note_on_c, 0, 61, 64
2, 7320, Note_on_c, 0, 56, 0
2, 7320, Note_on_c, 0, 65, 0
2, 7320, Note_on_c, 0, 66, 64
2, 7320, Note_on_c, 0, 54, 64
2, 7380, Note_on_c, 0, 54, 0
2, 7380, Note_on_c, 0, 66, 0
2, 7380, Note_on_c, 0, 68, 64
2, 7380, Note_on_c, 0, 53, 64
2, 7440, Note_on_c, 0, 53, 0
2, 7440, Note_on_c, 0, 68, 0
2, 7440, Note_on_c, 0, 66, 64
2, 7440, Note_on_c, 0, 58, 64
2, 7560, Note_on_c, 0, 58, 0
2, 7560, Note_on_c, 0, 66, 0
2, 7560, Note_on_c, 0, 61, 0
2, 7560, Note_on_c, 0, 56, 64
2, 7560, Note_on_c, 0, 65, 64
2, 7560, Note_on_c, 0, 60, 64
2, 7620, Note_on_c, 0, 60, 0
2, 7620, Note_on_c, 0, 62, 64
2, 7680, Note_on_c, 0, 62, 0
2, 7680, Note_on_c, 0, 65, 0
2, 7680, Note_on_c, 0, 56, 0
2, 7680, Note_on_c, 0, 63, 64
2, 7680, Note_on_c, 0, 54, 64
2, 7800, Note_on_c, 0, 54, 0
2, 7800, Note_on_c, 0, 63, 0
2, 7800, Note_on_c, 0, 70, 64
2, 7800, Note_on_c, 0, 62, 64
2, 7800, Note_on_c, 0, 56, 64
2, 7800, Note_on_c, 0, 53, 64
2, 7920, Note_on_c, 0, 53, 0
2, 7920, Note_on_c, 0, 70, 0
2, 7920, Note_on_c, 0, 62, 0
2, 7920, Note_on_c, 0, 56, 0
2, 7920, Note_on_c, 0, 70, 64
2, 7920, Note_on_c, 0, 63, 64
2, 7920, Note_on_c, 0, 54, 64
2, 7920, Note_on_c, 0, 51, 64
2, 7980, Note_on_c, 0, 54, 0
2, 7980, Note_on_c, 0, 63, 0
2, 7980, Note_on_c, 0, 65, 64
2, 7980, Note_on_c, 0, 56, 64
2, 8040, Note_on_c, 0, 56, 0
2, 8040, Note_on_c, 0, 51, 0
2, 8040, Note_on_c, 0, 70, 0
2, 8040, Note_on_c, 0, 65, 0
2, 8040, Note_on_c, 0, 70, 64
2, 8040, Note_on_c, 0, 66, 64
2, 8040, Note_on_c, 0, 58, 64
2, 8040, Note_on_c, 0, 49, 64
2, 8100, Note_on_c, 0, 49, 0
2, 8100, Note_on_c, 0, 58, 0
2, 8100, Note_on_c, 0, 60, 64
2, 8100, Note_on_c, 0, 51, 64
2, 8160, Note_on_c, 0, 51, 0
2, 8160, Note_on_c, 0, 70, 0
2, 8160, Note_on_c, 0, 66, 0
2, 8160, Note_on_c, 0, 60, 0
2, 8160, Note_on_c, 0, 69, 64
2, 8160, Note_on_c, 0, 65, 64
2, 8160, Note_on_c, 0, 61, 64
2, 8160, Note_on_c, 0, 53, 64
2, 8280, Note_on_c, 0, 61, 0
2, 8280, Note_on_c, 0, 69, 0
2, 8280, Note_on_c, 0, 70, 64
2, 8280, Note_on_c, 0, 60, 64
2, 8340, Note_on_c, 0, 60, 0
2, 8340, Note_on_c, 0, 58, 64
2, 8400, Note_on_c, 0, 58, 0
2, 8400, Note_on_c, 0, 70, 0
2, 8400, Note_on_c, 0, 72, 64
2, 8400, Note_on_c, 0, 57, 64
2, 8520, Note_on_c, 0, 65, 0
2, 8520, Note_on_c, 0, 53, 0
2, 8520, Note_on_c, 0, 66, 64
2, 8520, Note_on_c, 0, 51, 64
2, 8580, Note_on_c, 0, 51, 0
2, 8580, Note_on_c, 0, 66, 0
2, 8580, Note_on_c, 0, 65, 64
2, 8580, Note_on_c, 0, 53, 64
2, 8640, Note_on_c, 0, 53, 0
2, 8640, Note_on_c, 0, 65, 0
2, 8640, Note_on_c, 0, 63, 64
2, 8640, Note_on_c, 0, 54, 64
2, 8760, Note_on_c, 0, 63, 0
2, 8760, Note_on_c, 0, 57, 0
2, 8760, Note_on_c, 0, 72, 0
2, 8760, Note_on_c, 0, 70, 64
2, 8760, Note_on_c, 0, 61, 64
2, 8760, Note_on_c, 0, 58, 64
2, 8820, Note_on_c, 0, 58, 0
2, 8820, Note_on_c, 0, 57, 64
2, 8880, Note_on_c, 0, 57, 0
2, 8880, Note_on_c, 0, 61, 0
2, 8880, Note_on_c, 0, 70, 0
2, 8880, Note_on_c, 0, 75, 64
2, 8880, Note_on_c, 0, 58, 64
2, 9000, Note_on_c, 0, 58, 0
2, 9000, Note_on_c, 0, 54, 0
2, 9000, Note_on_c, 0, 73, 64
2, 9000, Note_on_c, 0, 53, 64
2, 9060, Note_on_c, 0, 53, 0
2, 9060, Note_on_c, 0, 55, 64
2, 9120, Note_on_c, 0, 55, 0
2, 9120, Note_on_c, 0, 73, 0
2, 9120, Note_on_c, 0, 72, 64
2, 9120, Note_on_c, 0, 56, 64
2, 9240, Note_on_c, 0, 72, 0
2, 9240, Note_on_c, 0, 75, 0
2, 9240, Note_on_c, 0, 73, 64
2, 9240, Note_on_c, 0, 70, 64
2, 9240, Note_on_c, 0, 63, 64
2, 9300, Note_on_c, 0, 73, 0
2, 9300, Note_on_c, 0, 72, 64
2, 9360, Note_on_c, 0, 72, 0
2, 9360, Note_on_c, 0, 63, 0
2, 9360, Note_on_c, 0, 70, 0
2, 9360, Note_on_c, 0, 77, 64
2, 9360, Note_on_c, 0, 68, 64
2, 9360, Note_on_c, 0, 60, 64
2, 9420, Note_on_c, 0, 68, 0
2, 9420, Note_on_c, 0, 70, 64
2, 9480, Note_on_c, 0, 70, 0
2, 9480, Note_on_c, 0, 60, 0
2, 9480, Note_on_c, 0, 77, 0
2, 9480, Note_on_c, 0, 56, 0
2, 9480, Note_on_c, 0, 65, 64
2, 9480, Note_on_c, 0, 75, 64
2, 9480, Note_on_c, 0, 72, 64
2, 9480, Note_on_c, 0, 55, 64
2, 9540, Note_on_c, 0, 55, 0
2, 9540, Note_on_c, 0, 57, 64
2, 9600, Note_on_c, 0, 57, 0
2, 9600, Note_on_c, 0, 75, 0
2, 9600, Note_on_c, 0, 65, 0
2, 9600, Note_on_c, 0, 73, 64
2, 9600, Note_on_c, 0, 65, 64
2, 9600, Note_on_c, 0, 58, 64
2, 9720, Note_on_c, 0, 58, 0
2, 9720, Note_on_c, 0, 72, 0
2, 9720, Note_on_c, 0, 70, 64
2, 9720, Note_on_c, 0, 60, 64
2, 9780, Note_on_c, 0, 70, 0
2, 9780, Note_on_c, 0, 69, 64
2, 9840, Note_on_c, 0, 69, 0
2, 9840, Note_on_c, 0, 60, 0
2, 9840, Note_on_c, 0, 65, 0
2, 9840, Note_on_c, 0, 70, 64
2, 9840, Note_on_c, 0, 61, 64
2, 9960, Note_on_c, 0, 70, 0
2, 9960, Note_on_c, 0, 73, 0
2, 9960, Note_on_c, 0, 75, 64
2, 9960, Note_on_c, 0, 68, 64
2, 10020, Note_on_c, 0, 75, 0
2, 10020, Note_on_c, 0, 76, 64
2, 10080, Note_on_c, 0, 76, 0
2, 10080, Note_on_c, 0, 68, 0
2, 10080, Note_on_c, 0, 70, 64
2, 10080, Note_on_c, 0, 67, 64
2, 10200, Note_on_c, 0, 67, 0
2, 10200, Note_on_c, 0, 70, 0
2, 10200, Note_on_c, 0, 61, 0
2, 10200, Note_on_c, 0, 75, 64
2, 10200, Note_on_c, 0, 70, 64
2, 10200, Note_on_c, 0, 61, 64
2, 10200, Note_on_c, 0, 55, 64
2, 10320, Note_on_c, 0, 55, 0
2, 10320, Note_on_c, 0, 61, 0
2, 10320, Note_on_c, 0, 70, 0
2, 10320, Note_on_c, 0, 63, 64
2, 10320, Note_on_c, 0, 59, 64
2, 10320, Note_on_c, 0, 56, 64
2, 10380, Note_on_c, 0, 63, 0
2, 10380, Note_on_c, 0, 65, 64
2, 10440, Note_on_c, 0, 65, 0
2, 10440, Note_on_c, 0, 56, 0
2, 10440, Note_on_c, 0, 59, 0
2, 10440, Note_on_c, 0, 75, 0
2, 10440, Note_on_c, 0, 61, 64
2, 10440, Note_on_c, 0, 58, 64
2, 10440, Note_on_c, 0, 73, 64
2, 10440, Note_on_c, 0, 67, 64
2, 10500, Note_on_c, 0, 67, 0
2, 10500, Note_on_c, 0, 68, 64
2, 10560, Note_on_c, 0, 68, 0
2, 10560, Note_on_c, 0, 58, 0
2, 10560, Note_on_c, 0, 61, 0
2, 10560, Note_on_c, 0, 70, 64
2, 10560, Note_on_c, 0, 55, 64
2, 10560, Note_on_c, 0, 51, 64
2, 10680, Note_on_c, 0, 51, 0
2, 10680, Note_on_c, 0, 73, 0
2, 10680, Note_on_c, 0, 70, 0
2, 10680, Note_on_c, 0, 55, 0
2, 10680, Note_on_c, 0, 71, 64
2, 10680, Note_on_c, 0, 68, 64
2, 10680, Note_on_c, 0, 64, 64
2, 10680, Note_on_c, 0, 56, 64
2, 10800, Note_on_c, 0, 68, 0
2, 10800, Note_on_c, 0, 71, 0
2, 10800, Note_on_c, 0, 70, 64
2, 10920, Note_on_c, 0, 64, 0
2, 10920, Note_on_c, 0, 56, 0
2, 10920, Note_on_c, 0, 63, 64
2, 10920, Note_on_c, 0, 55, 64
2, 10980, Note_on_c, 0, 63, 0
2, 10980, Note_on_c, 0, 62, 64
2, 11040, Note_on_c, 0, 62, 0
2, 11040, Note_on_c, 0, 55, 0
2, 11040, Note_on_c, 0, 63, 64
2, 11040, Note_on_c, 0, 59, 64
2, 11160, Note_on_c, 0, 70, 0
2, 11160, Note_on_c, 0, 68, 64
2, 11280, Note_on_c, 0, 68, 0
2, 11280, Note_on_c, 0, 80, 64
2, 11400, Note_on_c, 0, 59, 0
2, 11400, Note_on_c, 0, 63, 0
2, 11400, Note_on_c, 0, 71, 64
2, 11400, Note_on_c, 0, 58, 64
2, 11460, Note_on_c, 0, 58, 0
2, 11460, Note_on_c, 0, 56, 64
2, 11520, Note_on_c, 0, 56, 0
2, 11520, Note_on_c, 0, 71, 0
2, 11520, Note_on_c, 0, 70, 64
2, 11520, Note_on_c, 0, 63, 64
2, 11640, Note_on_c, 0, 70, 0
2, 11640, Note_on_c, 0, 80, 0
2, 11640, Note_on_c, 0, 78, 64
2, 11640, Note_on_c, 0, 63, 64
2, 11640, Note_on_c, 0, 61, 64
2, 11641, Note_on_c, 0, 63, 0
2, 11760, Note_on_c, 0, 61, 0
2, 11760, Note_on_c, 0, 63, 0
2, 11760, Note_on_c, 0, 68, 64
2, 11760, Note_on_c, 0, 59, 64
2, 11880, Note_on_c, 0, 78, 0
2, 11880, Note_on_c, 0, 77, 64
2, 11940, Note_on_c, 0, 77, 0
2, 11940, Note_on_c, 0, 75, 64
2, 12000, Note_on_c, 0, 75, 0
2, 12000, Note_on_c, 0, 59, 0
2, 12000, Note_on_c, 0, 74, 64
2, 12000, Note_on_c, 0, 58, 64
2, 12120, Note_on_c, 0, 74, 0
2, 12120, Note_on_c, 0, 68, 0
2, 12120, Note_on_c, 0, 77, 64
2, 12120, Note_on_c, 0, 62, 64
2, 12240, Note_on_c, 0, 62, 0
2, 12240, Note_on_c, 0, 77, 0
2, 12240, Note_on_c, 0, 78, 64
2, 12240, Note_on_c, 0, 63, 64
2, 12360, Note_on_c, 0, 63, 0
2, 12360, Note_on_c, 0, 78, 0
2, 12360, Note_on_c, 0, 58, 0
2, 12360, Note_on_c, 0, 74, 64
2, 12360, Note_on_c, 0, 65, 64
2, 12360, Note_on_c, 0, 56, 64
2, 12480, Note_on_c, 0, 56, 0
2, 12480, Note_on_c, 0, 65, 0
2, 12480, Note_on_c, 0, 74, 0
2, 12480, Note_on_c, 0, 75, 64
2, 12480, Note_on_c, 0, 58, 64
2, 12480, Note_on_c, 0, 54, 64
2, 12540, Note_on_c, 0, 75, 0
2, 12540, Note_on_c, 0, 73, 64
2, 12600, Note_on_c, 0, 73, 0
2, 12600, Note_on_c, 0, 58, 0
2, 12600, Note_on_c, 0, 71, 64
2, 12600, Note_on_c, 0, 63, 64
2, 12660, Note_on_c, 0, 71, 0
2, 12660, Note_on_c, 0, 70, 64
2, 12720, Note_on_c, 0, 70, 0
2, 12720, Note_on_c, 0, 54, 0
2, 12720, Note_on_c, 0, 68, 64
2, 12720, Note_on_c, 0, 53, 64
2, 12840, Note_on_c, 0, 68, 0
2, 12840, Note_on_c, 0, 63, 0
2, 12840, Note_on_c, 0, 71, 64
2, 12840, Note_on_c, 0, 62, 64
2, 12896, Note_on_c, 0, 70, 64
2, 12911, Note_on_c, 0, 71, 0
2, 12960, Note_on_c, 0, 53, 0
2, 12960, Note_on_c, 0, 62, 0
2, 12960, Note_on_c, 0, 71, 64
2, 12960, Note_on_c, 0, 66, 64
2, 12960, Note_on_c, 0, 51, 64
2, 12967, Note_on_c, 0, 70, 0
2, 13080, Note_on_c, 0, 71, 0
2, 13080, Note_on_c, 0, 51, 0
2, 13080, Note_on_c, 0, 70, 64
2, 13080, Note_on_c, 0, 49, 64
2, 13200, Note_on_c, 0, 49, 0
2, 13200, Note_on_c, 0, 70, 0
2, 13200, Note_on_c, 0, 68, 64
2, 13200, Note_on_c, 0, 47, 64
2, 13320, Note_on_c, 0, 47, 0
2, 13320, Note_on_c, 0, 66, 0
2, 13320, Note_on_c, 0, 59, 64
2, 13320, Note_on_c, 0, 65, 64
2, 13380, Note_on_c, 0, 65, 0
2, 13380, Note_on_c, 0, 63, 64
2, 13440, Note_on_c, 0, 63, 0
2, 13440, Note_on_c, 0, 59, 0
2, 13440, Note_on_c, 0, 62, 64
2, 13440, Note_on_c, 0, 58, 64
2, 13560, Note_on_c, 0, 58, 0
2, 13560, Note_on_c, 0, 62, 0
2, 13560, Note_on_c, 0, 68, 0
2, 13560, Note_on_c, 0, 66, 64
2, 13560, Note_on_c, 0, 63, 64
2, 13560, Note_on_c, 0, 46, 64
2, 13680, Note_on_c, 0, 46, 0
2, 13680, Note_on_c, 0, 66, 0
2, 13680, Note_on_c, 0, 65, 64
2, 13680, Note_on_c, 0, 46, 64
2, 13800, Note_on_c, 0, 46, 0
2, 13800, Note_on_c, 0, 65, 0
2, 13800, Note_on_c, 0, 63, 0
2, 13800, Note_on_c, 0, 64, 64
2, 13800, Note_on_c, 0, 61, 64
2, 13800, Note_on_c, 0, 46, 64
2, 13920, Note_on_c, 0, 46, 0
2, 13920, Note_on_c, 0, 64, 0
2, 13920, Note_on_c, 0, 63, 64
2, 13920, Note_on_c, 0, 43, 64
2, 13980, Note_on_c, 0, 61, 0
2, 13980, Note_on_c, 0, 59, 64
2, 14040, Note_on_c, 0, 59, 0
2, 14040, Note_on_c, 0, 43, 0
2, 14040, Note_on_c, 0, 58, 64
2, 14040, Note_on_c, 0, 44, 64
2, 14100, Note_on_c, 0, 58, 0
2, 14100, Note_on_c, 0, 56, 64
2, 14160, Note_on_c, 0, 56, 0
2, 14160, Note_on_c, 0, 44, 0
2, 14160, Note_on_c, 0, 46, 64
2, 14160, Note_on_c, 0, 55, 64
2, 14220, Note_on_c, 0, 55, 0
2, 14220, Note_on_c, 0, 56, 64
2, 14280, Note_on_c, 0, 56, 0
2, 14280, Note_on_c, 0, 63, 0
2, 14280, Note_on_c, 0, 61, 64
2, 14280, Note_on_c, 0, 58, 64
2, 14340, Note_on_c, 0, 58, 0
2, 14340, Note_on_c, 0, 61, 0
2, 14340, Note_on_c, 0, 63, 64
2, 14340, Note_on_c, 0, 59, 64
2, 14400, Note_on_c, 0, 59, 0
2, 14400, Note_on_c, 0, 63, 0
2, 14400, Note_on_c, 0, 64, 64
2, 14400, Note_on_c, 0, 61, 64
2, 14460, Note_on_c, 0, 61, 0
2, 14460, Note_on_c, 0, 63, 64
2, 14520, Note_on_c, 0, 63, 0
2, 14520, Note_on_c, 0, 46, 0
2, 14520, Note_on_c, 0, 61, 64
2, 14520, Note_on_c, 0, 44, 64
2, 14580, Note_on_c, 0, 61, 0
2, 14580, Note_on_c, 0, 59, 64
2, 14640, Note_on_c, 0, 59, 0
2, 14640, Note_on_c, 0, 44, 0
2, 14640, Note_on_c, 0, 58, 64
2, 14640, Note_on_c, 0, 49, 64
2, 14700, Note_on_c, 0, 58, 0
2, 14700, Note_on_c, 0, 56, 64
2, 14760, Note_on_c, 0, 56, 0
2, 14760, Note_on_c, 0, 64, 0
2, 14760, Note_on_c, 0, 63, 64
2, 14760, Note_on_c, 0, 54, 64
2, 14820, Note_on_c, 0, 54, 0
2, 14820, Note_on_c, 0, 63, 0
2, 14820, Note_on_c, 0, 65, 64
2, 14820, Note_on_c, 0, 53, 64
2, 14880, Note_on_c, 0, 53, 0
2, 14880, Note_on_c, 0, 65, 0
2, 14880, Note_on_c, 0, 66, 64
2, 14880, Note_on_c, 0, 51, 64
2, 15000, Note_on_c, 0, 49, 0
2, 15000, Note_on_c, 0, 47, 64
2, 15060, Note_on_c, 0, 47, 0
2, 15060, Note_on_c, 0, 46, 64
2, 15120, Note_on_c, 0, 46, 0
2, 15120, Note_on_c, 0, 51, 0
2, 15120, Note_on_c, 0, 51, 64
2, 15240, Note_on_c, 0, 51, 0
2, 15240, Note_on_c, 0, 66, 0
2, 15240, Note_on_c, 0, 58, 64
2, 15240, Note_on_c, 0, 49, 64
2, 15240, Note_on_c, 0, 65, 64
2, 15300, Note_on_c, 0, 65, 0
2, 15300, Note_on_c, 0, 67, 64
2, 15360, Note_on_c, 0, 67, 0
2, 15360, Note_on_c, 0, 49, 0
2, 15360, Note_on_c, 0, 58, 0
2, 15360, Note_on_c, 0, 68, 64
2, 15360, Note_on_c, 0, 63, 64
2, 15360, Note_on_c, 0, 47, 64
2, 15420, Note_on_c, 0, 63, 0
2, 15420, Note_on_c, 0, 64, 64
2, 15480, Note_on_c, 0, 64, 0
2, 15480, Note_on_c, 0, 68, 0
2, 15480, Note_on_c, 0, 68, 64
2, 15480, Note_on_c, 0, 63, 64
2, 15540, Note_on_c, 0, 63, 0
2, 15540, Note_on_c, 0, 47, 0
2, 15540, Note_on_c, 0, 61, 64
2, 15540, Note_on_c, 0, 46, 64
2, 15600, Note_on_c, 0, 46, 0
2, 15600, Note_on_c, 0, 61, 0
2, 15600, Note_on_c, 0, 68, 0
2, 15600, Note_on_c, 0, 68, 64
2, 15600, Note_on_c, 0, 59, 64
2, 15600, Note_on_c, 0, 44, 64
2, 15660, Note_on_c, 0, 44, 0
2, 15660, Note_on_c, 0, 59, 0
2, 15660, Note_on_c, 0, 61, 64
2, 15660, Note_on_c, 0, 46, 64
2, 15720, Note_on_c, 0, 46, 0
2, 15720, Note_on_c, 0, 61, 0
2, 15720, Note_on_c, 0, 68, 0
2, 15720, Note_on_c, 0, 68, 64
2, 15720, Note_on_c, 0, 63, 64
2, 15720, Note_on_c, 0, 47, 64
2, 15780, Note_on_c, 0, 47, 0
2, 15780, Note_on_c, 0, 44, 64
2, 15840, Note_on_c, 0, 44, 0
2, 15840, Note_on_c, 0, 68, 0
2, 15840, Note_on_c, 0, 65, 64
2, 15840, Note_on_c, 0, 49, 64
2, 15900, Note_on_c, 0, 63, 0
2, 15900, Note_on_c, 0, 61, 64
2, 15960, Note_on_c, 0, 61, 0
2, 15960, Note_on_c, 0, 49, 0
2, 15960, Note_on_c, 0, 65, 0
2, 15960, Note_on_c, 0, 66, 64
2, 15960, Note_on_c, 0, 59, 64
2, 15960, Note_on_c, 0, 51, 64
2, 16020, Note_on_c, 0, 59, 0
2, 16020, Note_on_c, 0, 58, 64
2, 16080, Note_on_c, 0, 58, 0
2, 16080, Note_on_c, 0, 51, 0
2, 16080, Note_on_c, 0, 66, 0
2, 16080, Note_on_c, 0, 68, 64
2, 16080, Note_on_c, 0, 56, 64
2, 16080, Note_on_c, 0, 53, 64
2, 16140, Note_on_c, 0, 56, 0
2, 16140, Note_on_c, 0, 58, 64
2, 16200, Note_on_c, 0, 58, 0
2, 16200, Note_on_c, 0, 53, 0
2, 16200, Note_on_c, 0, 49, 64
2, 16200, Note_on_c, 0, 59, 64
2, 16260, Note_on_c, 0, 59, 0
2, 16260, Note_on_c, 0, 56, 64
2, 16320, Note_on_c, 0, 56, 0
2, 16320, Note_on_c, 0, 49, 0
2, 16320, Note_on_c, 0, 58, 64
2, 16320, Note_on_c, 0, 54, 64
2, 16440, Note_on_c, 0, 58, 0
2, 16440, Note_on_c, 0, 68, 0
2, 16440, Note_on_c, 0, 66, 64
2, 16440, Note_on_c, 0, 63, 64
2, 16560, Note_on_c, 0, 63, 0
2, 16560, Note_on_c, 0, 66, 0
2, 16560, Note_on_c, 0, 71, 64
2, 16560, Note_on_c, 0, 56, 64
2, 16680, Note_on_c, 0, 56, 0
2, 16680, Note_on_c, 0, 54, 0
2, 16680, Note_on_c, 0, 68, 64
2, 16680, Note_on_c, 0, 53, 64
2, 16740, Note_on_c, 0, 53, 0
2, 16740, Note_on_c, 0, 51, 64
2, 16800, Note_on_c, 0, 51, 0
2, 16800, Note_on_c, 0, 68, 0
2, 16800, Note_on_c, 0, 61, 64
2, 16800, Note_on_c, 0, 53, 64
2, 16860, Note_on_c, 0, 53, 0
2, 16860, Note_on_c, 0, 56, 64
2, 16920, Note_on_c, 0, 56, 0
2, 16920, Note_on_c, 0, 71, 0
2, 16920, Note_on_c, 0, 70, 64
2, 16920, Note_on_c, 0, 49, 64
2, 16980, Note_on_c, 0, 49, 0
2, 16980, Note_on_c, 0, 70, 0
2, 16980, Note_on_c, 0, 68, 64
2, 16980, Note_on_c, 0, 51, 64
2, 17040, Note_on_c, 0, 51, 0
2, 17040, Note_on_c, 0, 68, 0
2, 17040, Note_on_c, 0, 73, 64
2, 17040, Note_on_c, 0, 53, 64
2, 17100, Note_on_c, 0, 53, 0
2, 17100, Note_on_c, 0, 54, 64
2, 17160, Note_on_c, 0, 54, 0
2, 17160, Note_on_c, 0, 73, 0
2, 17160, Note_on_c, 0, 71, 64
2, 17160, Note_on_c, 0, 56, 64
2, 17220, Note_on_c, 0, 56, 0
2, 17220, Note_on_c, 0, 53, 64
2, 17280, Note_on_c, 0, 53, 0
2, 17280, Note_on_c, 0, 71, 0
2, 17280, Note_on_c, 0, 70, 64
2, 17280, Note_on_c, 0, 54, 64
2, 17400, Note_on_c, 0, 54, 0
2, 17400, Note_on_c, 0, 70, 0
2, 17400, Note_on_c, 0, 61, 0
2, 17400, Note_on_c, 0, 68, 64
2, 17400, Note_on_c, 0, 61, 64
2, 17400, Note_on_c, 0, 53, 64
2, 17460, Note_on_c, 0, 53, 0
2, 17460, Note_on_c, 0, 68, 0
2, 17460, Note_on_c, 0, 66, 64
2, 17460, Note_on_c, 0, 51, 64
2, 17520, Note_on_c, 0, 51, 0
2, 17520, Note_on_c, 0, 66, 0
2, 17520, Note_on_c, 0, 61, 0
2, 17520, Note_on_c, 0, 65, 64
2, 17520, Note_on_c, 0, 61, 64
2, 17520, Note_on_c, 0, 49, 64
2, 17580, Note_on_c, 0, 49, 0
2, 17580, Note_on_c, 0, 65, 0
2, 17580, Note_on_c, 0, 67, 64
2, 17580, Note_on_c, 0, 51, 64
2, 17640, Note_on_c, 0, 51, 0
2, 17640, Note_on_c, 0, 67, 0
2, 17640, Note_on_c, 0, 61, 0
2, 17640, Note_on_c, 0, 68, 64
2, 17640, Note_on_c, 0, 61, 64
2, 17640, Note_on_c, 0, 52, 64
2, 17700, Note_on_c, 0, 52, 0
2, 17700, Note_on_c, 0, 49, 64
2, 17760, Note_on_c, 0, 49, 0
2, 17760, Note_on_c, 0, 61, 0
2, 17760, Note_on_c, 0, 58, 64
2, 17760, Note_on_c, 0, 51, 64
2, 17880, Note_on_c, 0, 58, 0
2, 17880, Note_on_c, 0, 68, 0
2, 17880, Note_on_c, 0, 67, 64
2, 17880, Note_on_c, 0, 59, 64
2, 17940, Note_on_c, 0, 67, 0
2, 17940, Note_on_c, 0, 68, 64
2, 18000, Note_on_c, 0, 68, 0
2, 18000, Note_on_c, 0, 59, 0
2, 18000, Note_on_c, 0, 61, 64
2, 18000, Note_on_c, 0, 70, 64
2, 18060, Note_on_c, 0, 51, 0
2, 18060, Note_on_c, 0, 39, 64
2, 18120, Note_on_c, 0, 39, 0
2, 18120, Note_on_c, 0, 41, 64
2, 18180, Note_on_c, 0, 41, 0
2, 18180, Note_on_c, 0, 43, 64
2, 18240, Note_on_c, 0, 43, 0
2, 18240, Note_on_c, 0, 44, 64
2, 18360, Note_on_c, 0, 70, 0
2, 18360, Note_on_c, 0, 61, 0
2, 18360, Note_on_c, 0, 68, 64
2, 18360, Note_on_c, 0, 59, 64
2, 18420, Note_on_c, 0, 68, 0
2, 18420, Note_on_c, 0, 67, 64
2, 18480, Note_on_c, 0, 67, 0
2, 18480, Note_on_c, 0, 59, 0
2, 18480, Note_on_c, 0, 68, 64
2, 18480, Note_on_c, 0, 64, 64
2, 18600, Note_on_c, 0, 68, 0
2, 18600, Note_on_c, 0, 44, 0
2, 18600, Note_on_c, 0, 70, 64
2, 18600, Note_on_c, 0, 43, 64
2, 18660, Note_on_c, 0, 43, 0
2, 18660, Note_on_c, 0, 70, 0
2, 18660, Note_on_c, 0, 71, 64
2, 18660, Note_on_c, 0, 44, 64
2, 18720, Note_on_c, 0, 44, 0
2, 18720, Note_on_c, 0, 71, 0
2, 18720, Note_on_c, 0, 73, 64
2, 18720, Note_on_c, 0, 46, 64
2, 18840, Note_on_c, 0, 64, 0
2, 18840, Note_on_c, 0, 63, 64
2, 18900, Note_on_c, 0, 63, 0
2, 18900, Note_on_c, 0, 61, 64
2, 18960, Note_on_c, 0, 61, 0
2, 18960, Note_on_c, 0, 66, 64
2, 19080, Note_on_c, 0, 66, 0
2, 19080, Note_on_c, 0, 46, 0
2, 19080, Note_on_c, 0, 64, 64
2, 19080, Note_on_c, 0, 44, 64
2, 19140, Note_on_c, 0, 44, 0
2, 19140, Note_on_c, 0, 46, 64
2, 19200, Note_on_c, 0, 46, 0
2, 19200, Note_on_c, 0, 64, 0
2, 19200, Note_on_c, 0, 63, 64
2, 19200, Note_on_c, 0, 47, 64
2, 19320, Note_on_c, 0, 63, 0
2, 19320, Note_on_c, 0, 73, 0
2, 19320, Note_on_c, 0, 75, 64
2, 19320, Note_on_c, 0, 71, 64
2, 19320, Note_on_c, 0, 55, 64
2, 19380, Note_on_c, 0, 71, 0
2, 19380, Note_on_c, 0, 70, 64
2, 19440, Note_on_c, 0, 70, 0
2, 19440, Note_on_c, 0, 55, 0
2, 19440, Note_on_c, 0, 75, 0
2, 19440, Note_on_c, 0, 75, 64
2, 19440, Note_on_c, 0, 71, 64
2, 19440, Note_on_c, 0, 56, 64
2, 19500, Note_on_c, 0, 71, 0
2, 19500, Note_on_c, 0, 68, 64
2, 19560, Note_on_c, 0, 68, 0
2, 19560, Note_on_c, 0, 56, 0
2, 19560, Note_on_c, 0, 75, 0
2, 19560, Note_on_c, 0, 75, 64
2, 19560, Note_on_c, 0, 66, 64
2, 19560, Note_on_c, 0, 57, 64
2, 19620, Note_on_c, 0, 66, 0
2, 19620, Note_on_c, 0, 65, 64
2, 19680, Note_on_c, 0, 65, 0
2, 19680, Note_on_c, 0, 57, 0
2, 19680, Note_on_c, 0, 75, 0
2, 19680, Note_on_c, 0, 47, 0
2, 19680, Note_on_c, 0, 74, 64
2, 19680, Note_on_c, 0, 66, 64
2, 19680, Note_on_c, 0, 58, 64
2, 19680, Note_on_c, 0, 46, 64
2, 19800, Note_on_c, 0, 46, 0
2, 19800, Note_on_c, 0, 74, 0
2, 19800, Note_on_c, 0, 75, 64
2, 19800, Note_on_c, 0, 48, 64
2, 19860, Note_on_c, 0, 66, 0
2, 19860, Note_on_c, 0, 66, 64
2, 19920, Note_on_c, 0, 66, 0
2, 19920, Note_on_c, 0, 48, 0
2, 19920, Note_on_c, 0, 75, 0
2, 19920, Note_on_c, 0, 77, 64
2, 19920, Note_on_c, 0, 65, 64
2, 19920, Note_on_c, 0, 50, 64
2, 19980, Note_on_c, 0, 65, 0
2, 19980, Note_on_c, 0, 66, 64
2, 20040, Note_on_c, 0, 66, 0
2, 20040, Note_on_c, 0, 50, 0
2, 20040, Note_on_c, 0, 58, 0
2, 20040, Note_on_c, 0, 68, 64
2, 20040, Note_on_c, 0, 56, 64
2, 20040, Note_on_c, 0, 48, 64
2, 20100, Note_on_c, 0, 48, 0
2, 20100, Note_on_c, 0, 56, 0
2, 20100, Note_on_c, 0, 50, 64
2, 20100, Note_on_c, 0, 58, 64
2, 20160, Note_on_c, 0, 58, 0
2, 20160, Note_on_c, 0, 50, 0
2, 20160, Note_on_c, 0, 59, 64
2, 20160, Note_on_c, 0, 51, 64
2, 20280, Note_on_c, 0, 51, 0
2, 20280, Note_on_c, 0, 77, 0
2, 20280, Note_on_c, 0, 68, 0
2, 20280, Note_on_c, 0, 66, 64
2, 20280, Note_on_c, 0, 75, 64
2, 20280, Note_on_c, 0, 50, 64
2, 20340, Note_on_c, 0, 50, 0
2, 20340, Note_on_c, 0, 51, 64
2, 20400, Note_on_c, 0, 51, 0
2, 20400, Note_on_c, 0, 75, 0
2, 20400, Note_on_c, 0, 66, 0
2, 20400, Note_on_c, 0, 80, 64
2, 20400, Note_on_c, 0, 53, 64
2, 20520, Note_on_c, 0, 59, 0
2, 20520, Note_on_c, 0, 78, 64
2, 20520, Note_on_c, 0, 58, 64
2, 20580, Note_on_c, 0, 58, 0
2, 20580, Note_on_c, 0, 60, 64
2, 20640, Note_on_c, 0, 60, 0
2, 20640, Note_on_c, 0, 78, 0
2, 20640, Note_on_c, 0, 77, 64
2, 20640, Note_on_c, 0, 61, 64
2, 20760, Note_on_c, 0, 53, 0
2, 20760, Note_on_c, 0, 80, 0
2, 20760, Note_on_c, 0, 78, 64
2, 20760, Note_on_c, 0, 51, 64
2, 20820, Note_on_c, 0, 51, 0
2, 20820, Note_on_c, 0, 78, 0
2, 20820, Note_on_c, 0, 77, 64
2, 20820, Note_on_c, 0, 53, 64
2, 20880, Note_on_c, 0, 53, 0
2, 20880, Note_on_c, 0, 77, 0
2, 20880, Note_on_c, 0, 77, 0
2, 20880, Note_on_c, 0, 54, 64
2, 20880, Note_on_c, 0, 82, 64
2, 21000, Note_on_c, 0, 82, 0
2, 21000, Note_on_c, 0, 61, 0
2, 21000, Note_on_c, 0, 77, 64
2, 21000, Note_on_c, 0, 80, 64
2, 21000, Note_on_c, 0, 60, 64
2, 21060, Note_on_c, 0, 60, 0
2, 21060, Note_on_c, 0, 62, 64
2, 21120, Note_on_c, 0, 62, 0
2, 21120, Note_on_c, 0, 80, 0
2, 21120, Note_on_c, 0, 77, 0
2, 21120, Note_on_c, 0, 78, 64
2, 21120, Note_on_c, 0, 75, 64
2, 21120, Note_on_c, 0, 63, 64
2, 21240, Note_on_c, 0, 75, 0
2, 21240, Note_on_c, 0, 54, 0
2, 21240, Note_on_c, 0, 78, 0
2, 21240, Note_on_c, 0, 82, 64
2, 21240, Note_on_c, 0, 73, 64
2, 21240, Note_on_c, 0, 53, 64
2, 21300, Note_on_c, 0, 53, 0
2, 21300, Note_on_c, 0, 55, 64
2, 21360, Note_on_c, 0, 55, 0
2, 21360, Note_on_c, 0, 82, 0
2, 21360, Note_on_c, 0, 75, 64
2, 21360, Note_on_c, 0, 56, 64
2, 21420, Note_on_c, 0, 63, 0
2, 21420, Note_on_c, 0, 64, 64
2, 21480, Note_on_c, 0, 64, 0
2, 21480, Note_on_c, 0, 73, 0
2, 21480, Note_on_c, 0, 71, 64
2, 21480, Note_on_c, 0, 63, 64
2, 21540, Note_on_c, 0, 63, 0
2, 21540, Note_on_c, 0, 71, 0
2, 21540, Note_on_c, 0, 70, 64
2, 21540, Note_on_c, 0, 61, 64
2, 21600, Note_on_c, 0, 61, 0
2, 21600, Note_on_c, 0, 70, 0
2, 21600, Note_on_c, 0, 68, 64
2, 21600, Note_on_c, 0, 59, 64
2, 21660, Note_on_c, 0, 68, 0
2, 21660, Note_on_c, 0, 63, 64
2, 21720, Note_on_c, 0, 63, 0
2, 21720, Note_on_c, 0, 56, 0
2, 21720, Note_on_c, 0, 68, 64
2, 21720, Note_on_c, 0, 54, 64
2, 21840, Note_on_c, 0, 54, 0
2, 21840, Note_on_c, 0, 68, 0
2, 21840, Note_on_c, 0, 52, 64
2, 21840, Note_on_c, 0, 68, 64
2, 21960, Note_on_c, 0, 68, 0
2, 21960, Note_on_c, 0, 59, 0
2, 21960, Note_on_c, 0, 75, 0
2, 21960, Note_on_c, 0, 68, 64
2, 21960, Note_on_c, 0, 74, 64
2, 21960, Note_on_c, 0, 58, 64
2, 22020, Note_on_c, 0, 58, 0
2, 22020, Note_on_c, 0, 56, 64
2, 22080, Note_on_c, 0, 56, 0
2, 22080, Note_on_c, 0, 74, 0
2, 22080, Note_on_c, 0, 68, 0
2, 22080, Note_on_c, 0, 52, 0
2, 22080, Note_on_c, 0, 75, 64
2, 22080, Note_on_c, 0, 67, 64
2, 22080, Note_on_c, 0, 58, 64
2, 22080, Note_on_c, 0, 51, 64
2, 22200, Note_on_c, 0, 58, 0
2, 22200, Note_on_c, 0, 75, 0
2, 22200, Note_on_c, 0, 67, 0
2, 22200, Note_on_c, 0, 68, 64
2, 22200, Note_on_c, 0, 64, 64
2, 22320, Note_on_c, 0, 64, 0
2, 22320, Note_on_c, 0, 68, 0
2, 22320, Note_on_c, 0, 51, 0
2, 22320, Note_on_c, 0, 70, 64
2, 22320, Note_on_c, 0, 64, 64
2, 22320, Note_on_c, 0, 49, 64
2, 22440, Note_on_c, 0, 64, 0
2, 22440, Note_on_c, 0, 64, 64
2, 22560, Note_on_c, 0, 64, 0
2, 22560, Note_on_c, 0, 49, 0
2, 22560, Note_on_c, 0, 63, 64
2, 22560, Note_on_c, 0, 47, 64
2, 22680, Note_on_c, 0, 63, 0
2, 22680, Note_on_c, 0, 70, 0
2, 22680, Note_on_c, 0, 68, 64
2, 22680, Note_on_c, 0, 65, 64
2, 22800, Note_on_c, 0, 65, 0
2, 22800, Note_on_c, 0, 68, 0
2, 22800, Note_on_c, 0, 73, 64
2, 22800, Note_on_c, 0, 67, 64
2, 22920, Note_on_c, 0, 67, 0
2, 22920, Note_on_c, 0, 47, 0
2, 22920, Note_on_c, 0, 68, 64
2, 22920, Note_on_c, 0, 46, 64
2, 22980, Note_on_c, 0, 46, 0
2, 22980, Note_on_c, 0, 44, 64
2, 23040, Note_on_c, 0, 44, 0
2, 23040, Note_on_c, 0, 68, 0
2, 23040, Note_on_c, 0, 70, 64
2, 23040, Note_on_c, 0, 43, 64
2, 23160, Note_on_c, 0, 43, 0
2, 23160, Note_on_c, 0, 70, 0
2, 23160, Note_on_c, 0, 73, 0
2, 23160, Note_on_c, 0, 71, 64
2, 23160, Note_on_c, 0, 68, 64
2, 23160, Note_on_c, 0, 51, 64
2, 23220, Note_on_c, 0, 71, 0
2, 23220, Note_on_c, 0, 70, 64
2, 23280, Note_on_c, 0, 70, 0
2, 23280, Note_on_c, 0, 51, 0
2, 23280, Note_on_c, 0, 68, 0
2, 23280, Note_on_c, 0, 75, 64
2, 23280, Note_on_c, 0, 67, 64
2, 23280, Note_on_c, 0, 51, 64
2, 23400, Note_on_c, 0, 51, 0
2, 23400, Note_on_c, 0, 75, 0
2, 23400, Note_on_c, 0, 73, 64
2, 23400, Note_on_c, 0, 51, 64
2, 23520, Note_on_c, 0, 51, 0
2, 23520, Note_on_c, 0, 73, 0
2, 23520, Note_on_c, 0, 67, 0
2, 23520, Note_on_c, 0, 71, 64
2, 23520, Note_on_c, 0, 68, 64
2, 23520, Note_on_c, 0, 50, 64
2, 23640, Note_on_c, 0, 50, 0
2, 23640, Note_on_c, 0, 68, 0
2, 23640, Note_on_c, 0, 71, 0
2, 23640, Note_on_c, 0, 70, 64
2, 23640, Note_on_c, 0, 66, 64
2, 23640, Note_on_c, 0, 51, 64
2, 23760, Note_on_c, 0, 51, 0
2, 23760, Note_on_c, 0, 70, 0
2, 23760, Note_on_c, 0, 68, 64
2, 23760, Note_on_c, 0, 53, 64
2, 23880, Note_on_c, 0, 66, 0
2, 23880, Note_on_c, 0, 65, 64
2, 23940, Note_on_c, 0, 65, 0
2, 23940, Note_on_c, 0, 63, 64
2, 24000, Note_on_c, 0, 63, 0
2, 24000, Note_on_c, 0, 62, 64
2, 24120, Note_on_c, 0, 62, 0
2, 24120, Note_on_c, 0, 53, 0
2, 24120, Note_on_c, 0, 68, 0
2, 24120, Note_on_c, 0, 66, 64
2, 24120, Note_on_c, 0, 63, 64
2, 24120, Note_on_c, 0, 51, 64
2, 24240, Note_on_c, 0, 51, 0
2, 24240, Note_on_c, 0, 66, 0
2, 24240, Note_on_c, 0, 65, 64
2, 24240, Note_on_c, 0, 56, 64
2, 24360, Note_on_c, 0, 63, 0
2, 24360, Note_on_c, 0, 62, 64
2, 24420, Note_on_c, 0, 62, 0
2, 24420, Note_on_c, 0, 60, 64
2, 24480, Note_on_c, 0, 60, 0
2, 24480, Note_on_c, 0, 62, 64
2, 24600, Note_on_c, 0, 56, 0
2, 24600, Note_on_c, 0, 65, 0
2, 24600, Note_on_c, 0, 70, 64
2, 24600, Note_on_c, 0, 54, 64
2, 24660, Note_on_c, 0, 54, 0
2, 24660, Note_on_c, 0, 70, 0
2, 24660, Note_on_c, 0, 68, 64
2, 24660, Note_on_c, 0, 53, 64
2, 24720, Note_on_c, 0, 53, 0
2, 24720, Note_on_c, 0, 68, 0
2, 24720, Note_on_c, 0, 62, 0
2, 24720, Note_on_c, 0, 61, 64
2, 24720, Note_on_c, 0, 66, 64
2, 24720, Note_on_c, 0, 58, 64
2, 24840, Note_on_c, 0, 58, 0
2, 24840, Note_on_c, 0, 66, 0
2, 24840, Note_on_c, 0, 56, 64
2, 24840, Note_on_c, 0, 64, 64
2, 24960, Note_on_c, 0, 64, 0
2, 24960, Note_on_c, 0, 56, 0
2, 24960, Note_on_c, 0, 63, 64
2, 24960, Note_on_c, 0, 55, 64
2, 25080, Note_on_c, 0, 55, 0
2, 25080, Note_on_c, 0, 63, 0
2, 25080, Note_on_c, 0, 61, 0
2, 25080, Note_on_c, 0, 75, 64
2, 25080, Note_on_c, 0, 59, 64
2, 25080, Note_on_c, 0, 51, 64
2, 25140, Note_on_c, 0, 59, 0
2, 25140, Note_on_c, 0, 58, 64
2, 25200, Note_on_c, 0, 58, 0
2, 25200, Note_on_c, 0, 51, 0
2, 25200, Note_on_c, 0, 59, 64
2, 25200, Note_on_c, 0, 56, 64
2, 25260, Note_on_c, 0, 75, 0
2, 25260, Note_on_c, 0, 71, 64
2, 25320, Note_on_c, 0, 71, 0
2, 25320, Note_on_c, 0, 59, 0
2, 25320, Note_on_c, 0, 70, 64
2, 25320, Note_on_c, 0, 64, 64
2, 25380, Note_on_c, 0, 70, 0
2, 25380, Note_on_c, 0, 68, 64
2, 25440, Note_on_c, 0, 68, 0
2, 25440, Note_on_c, 0, 64, 0
2, 25440, Note_on_c, 0, 70, 64
2, 25440, Note_on_c, 0, 61, 64
2, 25560, Note_on_c, 0, 61, 0
2, 25560, Note_on_c, 0, 56, 0
2, 25560, Note_on_c, 0, 73, 64
2, 25560, Note_on_c, 0, 58, 64
2, 25560, Note_on_c, 0, 55, 64
2, 25620, Note_on_c, 0, 55, 0
2, 25620, Note_on_c, 0, 53, 64
2, 25680, Note_on_c, 0, 53, 0
2, 25680, Note_on_c, 0, 58, 0
2, 25680, Note_on_c, 0, 73, 0
2, 25680, Note_on_c, 0, 73, 64
2, 25680, Note_on_c, 0, 63, 64
2, 25680, Note_on_c, 0, 55, 64
2, 25800, Note_on_c, 0, 55, 0
2, 25800, Note_on_c, 0, 70, 0
2, 25800, Note_on_c, 0, 73, 0
2, 25800, Note_on_c, 0, 63, 0
2, 25800, Note_on_c, 0, 73, 64
2, 25800, Note_on_c, 0, 64, 64
2, 25800, Note_on_c, 0, 54, 64
2, 25800, Note_on_c, 0, 69, 64
2, 25920, Note_on_c, 0, 69, 0
2, 25920, Note_on_c, 0, 73, 0
2, 25920, Note_on_c, 0, 64, 0
2, 25920, Note_on_c, 0, 72, 64
2, 25920, Note_on_c, 0, 68, 64
2, 25920, Note_on_c, 0, 63, 64
2, 26040, Note_on_c, 0, 63, 0
2, 26040, Note_on_c, 0, 54, 0
2, 26040, Note_on_c, 0, 72, 0
2, 26040, Note_on_c, 0, 73, 64
2, 26040, Note_on_c, 0, 61, 64
2, 26040, Note_on_c, 0, 52, 64
2, 26160, Note_on_c, 0, 52, 0
2, 26160, Note_on_c, 0, 68, 0
2, 26160, Note_on_c, 0, 73, 0
2, 26160, Note_on_c, 0, 75, 64
2, 26160, Note_on_c, 0, 69, 64
2, 26160, Note_on_c, 0, 54, 64
2, 26280, Note_on_c, 0, 54, 0
2, 26280, Note_on_c, 0, 69, 0
2, 26280, Note_on_c, 0, 61, 0
2, 26280, Note_on_c, 0, 68, 64
2, 26280, Note_on_c, 0, 60, 64
2, 26280, Note_on_c, 0, 56, 64
2, 26340, Note_on_c, 0, 68, 0
2, 26340, Note_on_c, 0, 66, 64
2, 26400, Note_on_c, 0, 66, 0
2, 26400, Note_on_c, 0, 56, 0
2, 26400, Note_on_c, 0, 60, 0
2, 26400, Note_on_c, 0, 64, 64
2, 26400, Note_on_c, 0, 61, 64
2, 26400, Note_on_c, 0, 57, 64
2, 26520, Note_on_c, 0, 64, 0
2, 26520, Note_on_c, 0, 75, 0
2, 26520, Note_on_c, 0, 73, 64
2, 26520, Note_on_c, 0, 66, 64
2, 26580, Note_on_c, 0, 66, 0
2, 26580, Note_on_c, 0, 68, 64
2, 26640, Note_on_c, 0, 68, 0
2, 26640, Note_on_c, 0, 73, 0
2, 26640, Note_on_c, 0, 69, 64
2, 26640, Note_on_c, 0, 78, 64
2, 26760, Note_on_c, 0, 61, 0
2, 26760, Note_on_c, 0, 57, 0
2, 26760, Note_on_c, 0, 63, 64
2, 26760, Note_on_c, 0, 56, 64
2, 26820, Note_on_c, 0, 56, 0
2, 26820, Note_on_c, 0, 54, 64
2, 26880, Note_on_c, 0, 54, 0
2, 26880, Note_on_c, 0, 63, 0
2, 26880, Note_on_c, 0, 69, 0
2, 26880, Note_on_c, 0, 68, 64
2, 26880, Note_on_c, 0, 60, 64
2, 26880, Note_on_c, 0, 56, 64
2, 27000, Note_on_c, 0, 56, 0
2, 27000, Note_on_c, 0, 60, 0
2, 27000, Note_on_c, 0, 78, 0
2, 27000, Note_on_c, 0, 76, 64
2, 27000, Note_on_c, 0, 61, 64
2, 27000, Note_on_c, 0, 58, 64
2, 27060, Note_on_c, 0, 76, 0
2, 27060, Note_on_c, 0, 75, 64
2, 27120, Note_on_c, 0, 75, 0
2, 27120, Note_on_c, 0, 58, 0
2, 27120, Note_on_c, 0, 61, 0
2, 27120, Note_on_c, 0, 80, 64
2, 27120, Note_on_c, 0, 62, 64
2, 27120, Note_on_c, 0, 59, 64
2, 27240, Note_on_c, 0, 80, 0
2, 27240, Note_on_c, 0, 68, 0
2, 27240, Note_on_c, 0, 78, 64
2, 27240, Note_on_c, 0, 69, 64
2, 27300, Note_on_c, 0, 69, 0
2, 27300, Note_on_c, 0, 71, 64
2, 27360, Note_on_c, 0, 71, 0
2, 27360, Note_on_c, 0, 78, 0
2, 27360, Note_on_c, 0, 62, 0
2, 27360, Note_on_c, 0, 77, 64
2, 27360, Note_on_c, 0, 73, 64
2, 27360, Note_on_c, 0, 61, 64
2, 27480, Note_on_c, 0, 61, 0
2, 27480, Note_on_c, 0, 59, 0
2, 27480, Note_on_c, 0, 77, 0
2, 27480, Note_on_c, 0, 73, 64
2, 27480, Note_on_c, 0, 63, 64
2, 27480, Note_on_c, 0, 58, 64
2, 27540, Note_on_c, 0, 58, 0
2, 27540, Note_on_c, 0, 63, 0
2, 27540, Note_on_c, 0, 65, 64
2, 27540, Note_on_c, 0, 56, 64
2, 27600, Note_on_c, 0, 56, 0
2, 27600, Note_on_c, 0, 65, 0
2, 27600, Note_on_c, 0, 73, 0
2, 27600, Note_on_c, 0, 78, 64
2, 27600, Note_on_c, 0, 66, 64
2, 27600, Note_on_c, 0, 58, 64
2, 27660, Note_on_c, 0, 66, 0
2, 27660, Note_on_c, 0, 68, 64
2, 27720, Note_on_c, 0, 68, 0
2, 27720, Note_on_c, 0, 58, 0
2, 27720, Note_on_c, 0, 73, 0
2, 27720, Note_on_c, 0, 75, 64
2, 27720, Note_on_c, 0, 60, 64
2, 27720, Note_on_c, 0, 69, 64
2, 27840, Note_on_c, 0, 60, 0
2, 27840, Note_on_c, 0, 75, 0
2, 27840, Note_on_c, 0, 73, 64
2, 27840, Note_on_c, 0, 61, 64
2, 27960, Note_on_c, 0, 73, 0
2, 27960, Note_on_c, 0, 69, 0
2, 27960, Note_on_c, 0, 71, 64
2, 27960, Note_on_c, 0, 68, 64
2, 28020, Note_on_c, 0, 68, 0
2, 28020, Note_on_c, 0, 66, 64
2, 28080, Note_on_c, 0, 66, 0
2, 28080, Note_on_c, 0, 71, 0
2, 28080, Note_on_c, 0, 78, 0
2, 28080, Note_on_c, 0, 61, 0
2, 28080, Note_on_c, 0, 77, 64
2, 28080, Note_on_c, 0, 71, 64
2, 28080, Note_on_c, 0, 68, 64
2, 28080, Note_on_c, 0, 49, 64
2, 28200, Note_on_c, 0, 71, 0
2, 28200, Note_on_c, 0, 71, 64
2, 28320, Note_on_c, 0, 71, 0
2, 28320, Note_on_c, 0, 49, 0
2, 28320, Note_on_c, 0, 68, 0
2, 28320, Note_on_c, 0, 77, 0
2, 28320, Note_on_c, 0, 78, 64
2, 28320, Note_on_c, 0, 70, 64
2, 28320, Note_on_c, 0, 66, 64
2, 28320, Note_on_c, 0, 54, 64
2, 28380, Note_on_c, 0, 54, 0
2, 28380, Note_on_c, 0, 53, 64
2, 28440, Note_on_c, 0, 53, 0
2, 28440, Note_on_c, 0, 66, 0
2, 28440, Note_on_c, 0, 70, 0
2, 28440, Note_on_c, 0, 71, 64
2, 28440, Note_on_c, 0, 54, 64
2, 28500, Note_on_c, 0, 54, 0
2, 28500, Note_on_c, 0, 56, 64
2, 28560, Note_on_c, 0, 56, 0
2, 28560, Note_on_c, 0, 71, 0
2, 28560, Note_on_c, 0, 73, 64
2, 28560, Note_on_c, 0, 58, 64
2, 28620, Note_on_c, 0, 58, 0
2, 28620, Note_on_c, 0, 54, 64
2, 28680, Note_on_c, 0, 54, 0
2, 28680, Note_on_c, 0, 78, 0
2, 28680, Note_on_c, 0, 76, 64
2, 28680, Note_on_c, 0, 56, 64
2, 28740, Note_on_c, 0, 56, 0
2, 28740, Note_on_c, 0, 58, 64
2, 28800, Note_on_c, 0, 58, 0
2, 28800, Note_on_c, 0, 76, 0
2, 28800, Note_on_c, 0, 75, 64
2, 28800, Note_on_c, 0, 59, 64
2, 28860, Note_on_c, 0, 59, 0
2, 28860, Note_on_c, 0, 61, 64
2, 28920, Note_on_c, 0, 61, 0
2, 28920, Note_on_c, 0, 73, 0
2, 28920, Note_on_c, 0, 71, 64
2, 28920, Note_on_c, 0, 63, 64
2, 28980, Note_on_c, 0, 63, 0
2, 28980, Note_on_c, 0, 59, 64
2, 29040, Note_on_c, 0, 59, 0
2, 29040, Note_on_c, 0, 71, 0
2, 29040, Note_on_c, 0, 76, 64
2, 29040, Note_on_c, 0, 61, 64
2, 29100, Note_on_c, 0, 61, 0
2, 29100, Note_on_c, 0, 59, 64
2, 29160, Note_on_c, 0, 59, 0
2, 29160, Note_on_c, 0, 75, 0
2, 29160, Note_on_c, 0, 73, 64
2, 29160, Note_on_c, 0, 58, 64
2, 29220, Note_on_c, 0, 58, 0
2, 29220, Note_on_c, 0, 73, 0
2, 29220, Note_on_c, 0, 71, 64
2, 29220, Note_on_c, 0, 56, 64
2, 29280, Note_on_c, 0, 56, 0
2, 29280, Note_on_c, 0, 71, 0
2, 29280, Note_on_c, 0, 70, 64
2, 29280, Note_on_c, 0, 54, 64
2, 29340, Note_on_c, 0, 54, 0
2, 29340, Note_on_c, 0, 56, 64
2, 29400, Note_on_c, 0, 56, 0
2, 29400, Note_on_c, 0, 76, 0
2, 29400, Note_on_c, 0, 75, 64
2, 29400, Note_on_c, 0, 54, 64
2, 29460, Note_on_c, 0, 54, 0
2, 29460, Note_on_c, 0, 75, 0
2, 29460, Note_on_c, 0, 73, 64
2, 29460, Note_on_c, 0, 52, 64
2, 29520, Note_on_c, 0, 52, 0
2, 29520, Note_on_c, 0, 73, 0
2, 29520, Note_on_c, 0, 70, 0
2, 29520, Note_on_c, 0, 78, 64
2, 29520, Note_on_c, 0, 82, 64
2, 29520, Note_on_c, 0, 51, 64
2, 29580, Note_on_c, 0, 51, 0
2, 29580, Note_on_c, 0, 49, 64
2, 29640, Note_on_c, 0, 49, 0
2, 29640, Note_on_c, 0, 78, 0
2, 29640, Note_on_c, 0, 76, 64
2, 29640, Note_on_c, 0, 47, 64
2, 29700, Note_on_c, 0, 47, 0
2, 29700, Note_on_c, 0, 46, 64
2, 29760, Note_on_c, 0, 46, 0
2, 29760, Note_on_c, 0, 76, 0
2, 29760, Note_on_c, 0, 75, 64
2, 29760, Note_on_c, 0, 47, 64
2, 29880, Note_on_c, 0, 47, 0
2, 29880, Note_on_c, 0, 82, 0
2, 29880, Note_on_c, 0, 80, 64
2, 29880, Note_on_c, 0, 63, 64
2, 29880, Note_on_c, 0, 59, 64
2, 29940, Note_on_c, 0, 59, 0
2, 29940, Note_on_c, 0, 80, 0
2, 29940, Note_on_c, 0, 79, 64
2, 29940, Note_on_c, 0, 58, 64
2, 30000, Note_on_c, 0, 58, 0
2, 30000, Note_on_c, 0, 75, 0
2, 30000, Note_on_c, 0, 63, 0
2, 30000, Note_on_c, 0, 79, 0
2, 30000, Note_on_c, 0, 80, 64
2, 30000, Note_on_c, 0, 63, 64
2, 30000, Note_on_c, 0, 59, 64
2, 30120, Note_on_c, 0, 59, 0
2, 30120, Note_on_c, 0, 63, 0
2, 30120, Note_on_c, 0, 68, 64
2, 30120, Note_on_c, 0, 63, 64
2, 30120, Note_on_c, 0, 61, 64
2, 30180, Note_on_c, 0, 61, 0
2, 30180, Note_on_c, 0, 59, 64
2, 30240, Note_on_c, 0, 59, 0
2, 30240, Note_on_c, 0, 63, 0
2, 30240, Note_on_c, 0, 68, 0
2, 30240, Note_on_c, 0, 70, 64
2, 30240, Note_on_c, 0, 61, 64
2, 30240, Note_on_c, 0, 58, 64
2, 30360, Note_on_c, 0, 61, 0
2, 30360, Note_on_c, 0, 70, 0
2, 30360, Note_on_c, 0, 71, 64
2, 30360, Note_on_c, 0, 63, 64
2, 30480, Note_on_c, 0, 63, 0
2, 30480, Note_on_c, 0, 71, 0
2, 30480, Note_on_c, 0, 58, 0
2, 30480, Note_on_c, 0, 73, 64
2, 30480, Note_on_c, 0, 57, 64
2, 30480, Note_on_c, 0, 64, 64
2, 30600, Note_on_c, 0, 80, 0
2, 30600, Note_on_c, 0, 79, 64
2, 30720, Note_on_c, 0, 79, 0
2, 30720, Note_on_c, 0, 57, 0
2, 30720, Note_on_c, 0, 80, 64
2, 30720, Note_on_c, 0, 56, 64
2, 30840, Note_on_c, 0, 73, 0
2, 30840, Note_on_c, 0, 64, 0
2, 30840, Note_on_c, 0, 71, 64
2, 30840, Note_on_c, 0, 63, 64
2, 30900, Note_on_c, 0, 71, 0
2, 30900, Note_on_c, 0, 70, 64
2, 30960, Note_on_c, 0, 70, 0
2, 30960, Note_on_c, 0, 63, 0
2, 30960, Note_on_c, 0, 71, 64
2, 30960, Note_on_c, 0, 68, 64
2, 31020, Note_on_c, 0, 56, 0
2, 31020, Note_on_c, 0, 54, 64
2, 31080, Note_on_c, 0, 54, 0
2, 31080, Note_on_c, 0, 80, 0
2, 31080, Note_on_c, 0, 78, 64
2, 31080, Note_on_c, 0, 53, 64
2, 31140, Note_on_c, 0, 53, 0
2, 31140, Note_on_c, 0, 51, 64
2, 31200, Note_on_c, 0, 51, 0
2, 31200, Note_on_c, 0, 78, 0
2, 31200, Note_on_c, 0, 77, 64
2, 31200, Note_on_c, 0, 50, 64
2, 31320, Note_on_c, 0, 71, 0
2, 31320, Note_on_c, 0, 68, 0
2, 31320, Note_on_c, 0, 70, 64
2, 31320, Note_on_c, 0, 66, 64
2, 31380, Note_on_c, 0, 66, 0
2, 31380, Note_on_c, 0, 70, 0
2, 31380, Note_on_c, 0, 68, 64
2, 31380, Note_on_c, 0, 65, 64
2, 31440, Note_on_c, 0, 65, 0
2, 31440, Note_on_c, 0, 68, 0
2, 31440, Note_on_c, 0, 70, 64
2, 31560, Note_on_c, 0, 50, 0
2, 31560, Note_on_c, 0, 68, 64
2, 31560, Note_on_c, 0, 48, 64
2, 31620, Note_on_c, 0, 48, 0
2, 31620, Note_on_c, 0, 46, 64
2, 31680, Note_on_c, 0, 46, 0
2, 31680, Note_on_c, 0, 68, 0
2, 31680, Note_on_c, 0, 66, 64
2, 31680, Note_on_c, 0, 51, 64
2, 31800, Note_on_c, 0, 51, 0
2, 31800, Note_on_c, 0, 77, 0
2, 31800, Note_on_c, 0, 75, 64
2, 31800, Note_on_c, 0, 39, 64
2, 31860, Note_on_c, 0, 75, 0
2, 31860, Note_on_c, 0, 70, 0
2, 31860, Note_on_c, 0, 66, 0
2, 31860, Note_on_c, 0, 73, 64
2, 31860, Note_on_c, 0, 68, 64
2, 31860, Note_on_c, 0, 65, 64
2, 31920, Note_on_c, 0, 65, 0
2, 31920, Note_on_c, 0, 39, 0
2, 31920, Note_on_c, 0, 73, 0
2, 31920, Note_on_c, 0, 68, 0
2, 31920, Note_on_c, 0, 71, 64
2, 31920, Note_on_c, 0, 66, 64
2, 31920, Note_on_c, 0, 63, 64
2, 31920, Note_on_c, 0, 51, 64
2, 32040, Note_on_c, 0, 51, 0
2, 32040, Note_on_c, 0, 71, 0
2, 32040, Note_on_c, 0, 66, 0
2, 32040, Note_on_c, 0, 63, 0
2, 32040, Note_on_c, 0, 70, 64
2, 32040, Note_on_c, 0, 65, 64
2, 32040, Note_on_c, 0, 61, 64
2, 32040, Note_on_c, 0, 53, 64
2, 32160, Note_on_c, 0, 53, 0
2, 32160, Note_on_c, 0, 70, 0
2, 32160, Note_on_c, 0, 65, 0
2, 32160, Note_on_c, 0, 61, 0
2, 32160, Note_on_c, 0, 69, 64
2, 32160, Note_on_c, 0, 63, 64
2, 32160, Note_on_c, 0, 60, 64
2, 32160, Note_on_c, 0, 54, 64
2, 32220, Note_on_c, 0, 63, 0
2, 32220, Note_on_c, 0, 65, 64
2, 32280, Note_on_c, 0, 65, 0
2, 32280, Note_on_c, 0, 54, 0
2, 32280, Note_on_c, 0, 66, 64
2, 32280, Note_on_c, 0, 53, 64
2, 32340, Note_on_c, 0, 53, 0
2, 32340, Note_on_c, 0, 51, 64
2, 32400, Note_on_c, 0, 51, 0
2, 32400, Note_on_c, 0, 66, 0
2, 32400, Note_on_c, 0, 60, 0
2, 32400, Note_on_c, 0, 69, 0
2, 32400, Note_on_c, 0, 70, 64
2, 32400, Note_on_c, 0, 61, 64
2, 32400, Note_on_c, 0, 65, 64
2, 32400, Note_on_c, 0, 49, 64
2, 32460, Note_on_c, 0, 49, 0
2, 32460, Note_on_c, 0, 48, 64
2, 32520, Note_on_c, 0, 48, 0
2, 32520, Note_on_c, 0, 65, 0
2, 32520, Note_on_c, 0, 66, 64
2, 32520, Note_on_c, 0, 46, 64
2, 32580, Note_on_c, 0, 46, 0
2, 32580, Note_on_c, 0, 66, 0
2, 32580, Note_on_c, 0, 64, 64
2, 32580, Note_on_c, 0, 49, 64
2, 32640, Note_on_c, 0, 49, 0
2, 32640, Note_on_c, 0, 64, 0
2, 32640, Note_on_c, 0, 61, 0
2, 32640, Note_on_c, 0, 65, 64
2, 32640, Note_on_c, 0, 60, 64
2, 32640, Note_on_c, 0, 41, 64
2, 32760, Note_on_c, 0, 60, 0
2, 32760, Note_on_c, 0, 61, 64
2, 32820, Note_on_c, 0, 61, 0
2, 32820, Note_on_c, 0, 58, 64
2, 32880, Note_on_c, 0, 58, 0
2, 32880, Note_on_c, 0, 70, 0
2, 32880, Note_on_c, 0, 69, 64
2, 32880, Note_on_c, 0, 60, 64
2, 33000, Note_on_c, 0, 65, 0
2, 33000, Note_on_c, 0, 63, 64
2, 33120, Note_on_c, 0, 63, 0
2, 33120, Note_on_c, 0, 60, 0
2, 33120, Note_on_c, 0, 69, 0
2, 33120, Note_on_c, 0, 41, 0
2, 33120, Note_on_c, 0, 70, 64
2, 33120, Note_on_c, 0, 61, 64
2, 33120, Note_on_c, 0, 58, 64
2, 33120, Note_on_c, 0, 46, 64
2, 33240, Note_on_c, 0, 46, 0
2, 33240, Note_on_c, 0, 58, 0
2, 33240, Note_on_c, 0, 61, 0
2, 33240, Note_on_c, 0, 63, 64
2, 33240, Note_on_c, 0, 60, 64
2, 33360, Note_on_c, 0, 60, 0
2, 33360, Note_on_c, 0, 63, 0
2, 33360, Note_on_c, 0, 61, 64
2, 33360, Note_on_c, 0, 65, 64
2, 33480, Note_on_c, 0, 65, 0
2, 33480, Note_on_c, 0, 70, 0
2, 33480, Note_on_c, 0, 68, 64
2, 33480, Note_on_c, 0, 64, 64
2, 33600, Note_on_c, 0, 64, 0
2, 33600, Note_on_c, 0, 68, 0
2, 33600, Note_on_c, 0, 67, 64
2, 33600, Note_on_c, 0, 63, 64
2, 33720, Note_on_c, 0, 67, 0
2, 33720, Note_on_c, 0, 61, 0
2, 33720, Note_on_c, 0, 73, 64
2, 33720, Note_on_c, 0, 55, 64
2, 33840, Note_on_c, 0, 55, 0
2, 33840, Note_on_c, 0, 73, 0
2, 33840, Note_on_c, 0, 71, 64
2, 33840, Note_on_c, 0, 56, 64
2, 33960, Note_on_c, 0, 56, 0
2, 33960, Note_on_c, 0, 71, 0
2, 33960, Note_on_c, 0, 63, 0
2, 33960, Note_on_c, 0, 70, 64
2, 33960, Note_on_c, 0, 61, 64
2, 33960, Note_on_c, 0, 58, 64
2, 34080, Note_on_c, 0, 58, 0
2, 34080, Note_on_c, 0, 61, 0
2, 34080, Note_on_c, 0, 59, 64
2, 34080, Note_on_c, 0, 51, 64
2, 34200, Note_on_c, 0, 51, 0
2, 34200, Note_on_c, 0, 70, 0
2, 34200, Note_on_c, 0, 68, 64
2, 34200, Note_on_c, 0, 56, 64
2, 34320, Note_on_c, 0, 68, 0
2, 34320, Note_on_c, 0, 59, 0
2, 34320, Note_on_c, 0, 73, 64
2, 34320, Note_on_c, 0, 58, 64
2, 34440, Note_on_c, 0, 58, 0
2, 34440, Note_on_c, 0, 56, 0
2, 34440, Note_on_c, 0, 55, 64
2, 34440, Note_on_c, 0, 70, 64
2, 34560, Note_on_c, 0, 70, 0
2, 34560, Note_on_c, 0, 55, 0
2, 34560, Note_on_c, 0, 63, 64
2, 34560, Note_on_c, 0, 59, 64
2, 34680, Note_on_c, 0, 63, 0
2, 34680, Note_on_c, 0, 73, 0
2, 34680, Note_on_c, 0, 71, 64
2, 34680, Note_on_c, 0, 68, 64
2, 34740, Note_on_c, 0, 68, 0
2, 34740, Note_on_c, 0, 71, 0
2, 34740, Note_on_c, 0, 70, 64
2, 34740, Note_on_c, 0, 67, 64
2, 34800, Note_on_c, 0, 67, 0
2, 34800, Note_on_c, 0, 70, 0
2, 34800, Note_on_c, 0, 71, 64
2, 34800, Note_on_c, 0, 68, 64
2, 34920, Note_on_c, 0, 71, 0
2, 34920, Note_on_c, 0, 59, 0
2, 34920, Note_on_c, 0, 76, 64
2, 34920, Note_on_c, 0, 58, 64
2, 34980, Note_on_c, 0, 58, 0
2, 34980, Note_on_c, 0, 56, 64
2, 35040, Note_on_c, 0, 56, 0
2, 35040, Note_on_c, 0, 76, 0
2, 35040, Note_on_c, 0, 74, 64
2, 35040, Note_on_c, 0, 58, 64
2, 35160, Note_on_c, 0, 58, 0
2, 35160, Note_on_c, 0, 74, 0
2, 35160, Note_on_c, 0, 68, 0
2, 35160, Note_on_c, 0, 70, 64
2, 35160, Note_on_c, 0, 66, 64
2, 35160, Note_on_c, 0, 63, 64
2, 35280, Note_on_c, 0, 66, 0
2, 35280, Note_on_c, 0, 70, 0
2, 35280, Note_on_c, 0, 80, 64
2, 35280, Note_on_c, 0, 65, 64
2, 35400, Note_on_c, 0, 65, 0
2, 35400, Note_on_c, 0, 63, 0
2, 35400, Note_on_c, 0, 62, 64
2, 35400, Note_on_c, 0, 77, 64
2, 35520, Note_on_c, 0, 77, 0
2, 35520, Note_on_c, 0, 62, 0
2, 35520, Note_on_c, 0, 70, 64
2, 35520, Note_on_c, 0, 66, 64
2, 35640, Note_on_c, 0, 70, 0
2, 35640, Note_on_c, 0, 80, 0
2, 35640, Note_on_c, 0, 78, 64
2, 35640, Note_on_c, 0, 75, 64
2, 35700, Note_on_c, 0, 75, 0
2, 35700, Note_on_c, 0, 78, 0
2, 35700, Note_on_c, 0, 77, 64
2, 35700, Note_on_c, 0, 74, 64
2, 35760, Note_on_c, 0, 74, 0
2, 35760, Note_on_c, 0, 77, 0
2, 35760, Note_on_c, 0, 78, 64
2, 35760, Note_on_c, 0, 75, 64
2, 35880, Note_on_c, 0, 78, 0
2, 35880, Note_on_c, 0, 66, 0
2, 35880, Note_on_c, 0, 83, 64
2, 35880, Note_on_c, 0, 65, 64
2, 35940, Note_on_c, 0, 65, 0
2, 35940, Note_on_c, 0, 63, 64
2, 36000, Note_on_c, 0, 63, 0
2, 36000, Note_on_c, 0, 83, 0
2, 36000, Note_on_c, 0, 81, 64
2, 36000, Note_on_c, 0, 65, 64
2, 36120, Note_on_c, 0, 65, 0
2, 36120, Note_on_c, 0, 81, 0
2, 36120, Note_on_c, 0, 75, 0
2, 36120, Note_on_c, 0, 77, 64
2, 36120, Note_on_c, 0, 73, 64
2, 36120, Note_on_c, 0, 70, 64
2, 36180, Note_on_c, 0, 73, 0
2, 36180, Note_on_c, 0, 72, 64
2, 36240, Note_on_c, 0, 72, 0
2, 36240, Note_on_c, 0, 77, 0
2, 36240, Note_on_c, 0, 73, 64
2, 36240, Note_on_c, 0, 82, 64
2, 36300, Note_on_c, 0, 82, 0
2, 36300, Note_on_c, 0, 80, 64
2, 36360, Note_on_c, 0, 80, 0
2, 36360, Note_on_c, 0, 70, 0
2, 36360, Note_on_c, 0, 68, 64
2, 36360, Note_on_c, 0, 79, 64
2, 36420, Note_on_c, 0, 79, 0
2, 36420, Note_on_c, 0, 77, 64
2, 36480, Note_on_c, 0, 77, 0
2, 36480, Note_on_c, 0, 68, 0
2, 36480, Note_on_c, 0, 75, 64
2, 36480, Note_on_c, 0, 67, 64
2, 36540, Note_on_c, 0, 73, 0
2, 36540, Note_on_c, 0, 73, 64
2, 36600, Note_on_c, 0, 73, 0
2, 36600, Note_on_c, 0, 67, 0
2, 36600, Note_on_c, 0, 71, 64
2, 36600, Note_on_c, 0, 63, 64
2, 36660, Note_on_c, 0, 71, 0
2, 36660, Note_on_c, 0, 70, 64
2, 36720, Note_on_c, 0, 70, 0
2, 36720, Note_on_c, 0, 63, 0
2, 36720, Note_on_c, 0, 71, 64
2, 36720, Note_on_c, 0, 68, 64
2, 36780, Note_on_c, 0, 75, 0
2, 36780, Note_on_c, 0, 78, 64
2, 36840, Note_on_c, 0, 78, 0
2, 36840, Note_on_c, 0, 77, 64
2, 36900, Note_on_c, 0, 77, 0
2, 36900, Note_on_c, 0, 75, 64
2, 36960, Note_on_c, 0, 75, 0
2, 36960, Note_on_c, 0, 71, 0
2, 36960, Note_on_c, 0, 74, 64
2, 36960, Note_on_c, 0, 70, 64
2, 37020, Note_on_c, 0, 74, 0
2, 37020, Note_on_c, 0, 77, 64
2, 37080, Note_on_c, 0, 77, 0
2, 37080, Note_on_c, 0, 68, 0
2, 37080, Note_on_c, 0, 75, 64
2, 37080, Note_on_c, 0, 66, 64
2, 37140, Note_on_c, 0, 75, 0
2, 37140, Note_on_c, 0, 73, 64
2, 37200, Note_on_c, 0, 73, 0
2, 37200, Note_on_c, 0, 70, 0
2, 37200, Note_on_c, 0, 68, 64
2, 37200, Note_on_c, 0, 72, 64
2, 37260, Note_on_c, 0, 72, 0
2, 37260, Note_on_c, 0, 66, 0
2, 37260, Note_on_c, 0, 75, 64
2, 37260, Note_on_c, 0, 66, 64
2, 37320, Note_on_c, 0, 66, 0
2, 37320, Note_on_c, 0, 75, 0
2, 37320, Note_on_c, 0, 73, 64
2, 37320, Note_on_c, 0, 65, 64
2, 37380, Note_on_c, 0, 65, 0
2, 37380, Note_on_c, 0, 73, 0
2, 37380, Note_on_c, 0, 63, 64
2, 37380, Note_on_c, 0, 71, 64
2, 37440, Note_on_c, 0, 71, 0
2, 37440, Note_on_c, 0, 63, 0
2, 37440, Note_on_c, 0, 70, 64
2, 37440, Note_on_c, 0, 62, 64
2, 37500, Note_on_c, 0, 62, 0
2, 37500, Note_on_c, 0, 68, 0
2, 37500, Note_on_c, 0, 68, 64
2, 37500, Note_on_c, 0, 65, 64
2, 37560, Note_on_c, 0, 65, 0
2, 37560, Note_on_c, 0, 68, 0
2, 37560, Note_on_c, 0, 66, 64
2, 37560, Note_on_c, 0, 63, 64
2, 37620, Note_on_c, 0, 63, 0
2, 37620, Note_on_c, 0, 66, 0
2, 37620, Note_on_c, 0, 65, 64
2, 37620, Note_on_c, 0, 61, 64
2, 37680, Note_on_c, 0, 61, 0
2, 37680, Note_on_c, 0, 65, 0
2, 37680, Note_on_c, 0, 63, 64
2, 37680, Note_on_c, 0, 60, 64
2, 37740, Note_on_c, 0, 63, 0
2, 37740, Note_on_c, 0, 66, 64
2, 37800, Note_on_c, 0, 66, 0
2, 37800, Note_on_c, 0, 60, 0
2, 37800, Note_on_c, 0, 70, 0
2, 37800, Note_on_c, 0, 68, 64
2, 37800, Note_on_c, 0, 65, 64
2, 37800, Note_on_c, 0, 59, 64
2, 37860, Note_on_c, 0, 65, 0
2, 37860, Note_on_c, 0, 63, 64
2, 37920, Note_on_c, 0, 63, 0
2, 37920, Note_on_c, 0, 59, 0
2, 37920, Note_on_c, 0, 62, 64
2, 37920, Note_on_c, 0, 58, 64
2, 37980, Note_on_c, 0, 68, 0
2, 37980, Note_on_c, 0, 65, 64
2, 38040, Note_on_c, 0, 65, 0
2, 38040, Note_on_c, 0, 62, 0
2, 38040, Note_on_c, 0, 66, 64
2, 38040, Note_on_c, 0, 63, 64
2, 38040, Note_on_c, 0, 51, 64
2, 38100, Note_on_c, 0, 66, 0
2, 38100, Note_on_c, 0, 70, 64
2, 38160, Note_on_c, 0, 70, 0
2, 38160, Note_on_c, 0, 51, 0
2, 38160, Note_on_c, 0, 63, 0
2, 38160, Note_on_c, 0, 58, 0
2, 38160, Note_on_c, 0, 75, 64
2, 38160, Note_on_c, 0, 51, 64
2, 38220, Note_on_c, 0, 75, 0
2, 38220, Note_on_c, 0, 70, 64
2, 38280, Note_on_c, 0, 70, 0
2, 38280, Note_on_c, 0, 51, 0
2, 38280, Note_on_c, 0, 60, 64
2, 38280, Note_on_c, 0, 69, 64
2, 38280, Note_on_c, 0, 51, 64
2, 38280, Note_on_c, 0, 78, 64
2, 38400, Note_on_c, 0, 78, 0
2, 38400, Note_on_c, 0, 60, 0
2, 38400, Note_on_c, 0, 69, 0
2, 38400, Note_on_c, 0, 51, 0
2, 38400, Note_on_c, 0, 70, 64
2, 38400, Note_on_c, 0, 65, 64
2, 38400, Note_on_c, 0, 50, 64
2, 38400, Note_on_c, 0, 77, 64
2, 38520, Note_on_c, 0, 77, 0
2, 38520, Note_on_c, 0, 70, 0
2, 38520, Note_on_c, 0, 65, 0
2, 38520, Note_on_c, 0, 50, 0
2, 38520, Note_on_c, 0, 51, 64
2, 38640, Note_on_c, 0, 51, 0
2, 38640, Note_on_c, 0, 53, 64
2, 38760, Note_on_c, 0, 83, 64
2, 38760, Note_on_c, 0, 74, 64
2, 38760, Note_on_c, 0, 65, 64
2, 38880, Note_on_c, 0, 65, 0
2, 38880, Note_on_c, 0, 74, 0
2, 38880, Note_on_c, 0, 83, 0
2, 38880, Note_on_c, 0, 82, 64
2, 38880, Note_on_c, 0, 78, 64
2, 38880, Note_on_c, 0, 58, 64
2, 39000, Note_on_c, 0, 58, 0
2, 39000, Note_on_c, 0, 53, 0
2, 39000, Note_on_c, 0, 82, 0
2, 39000, Note_on_c, 0, 78, 0
2, 39000, Note_on_c, 0, 51, 64
2, 39120, Note_on_c, 0, 51, 0
2, 39120, Note_on_c, 0, 56, 64
2, 39240, Note_on_c, 0, 63, 64
2, 39240, Note_on_c, 0, 71, 64
2, 39240, Note_on_c, 0, 80, 64
2, 39360, Note_on_c, 0, 80, 0
2, 39360, Note_on_c, 0, 71, 0
2, 39360, Note_on_c, 0, 63, 0
2, 39360, Note_on_c, 0, 74, 64
2, 39360, Note_on_c, 0, 70, 64
2, 39360, Note_on_c, 0, 65, 64
2, 39480, Note_on_c, 0, 65, 0
2, 39480, Note_on_c, 0, 56, 0
2, 39480, Note_on_c, 0, 74, 0
2, 39480, Note_on_c, 0, 54, 64
2, 39540, Note_on_c, 0, 54, 0
2, 39540, Note_on_c, 0, 53, 64
2, 39600, Note_on_c, 0, 53, 0
2, 39600, Note_on_c, 0, 70, 0
2, 39600, Note_on_c, 0, 58, 64
2, 39720, Note_on_c, 0, 58, 0
2, 39720, Note_on_c, 0, 77, 64
2, 39720, Note_on_c, 0, 65, 64
2, 39720, Note_on_c, 0, 62, 64
2, 39720, Note_on_c, 0, 56, 64
2, 39840, Note_on_c, 0, 56, 0
2, 39840, Note_on_c, 0, 77, 0
2, 39840, Note_on_c, 0, 65, 0
2, 39840, Note_on_c, 0, 62, 0
2, 39840, Note_on_c, 0, 70, 64
2, 39840, Note_on_c, 0, 66, 64
2, 39840, Note_on_c, 0, 63, 64
2, 39840, Note_on_c, 0, 54, 64
2, 39960, Note_on_c, 0, 54, 0
2, 39960, Note_on_c, 0, 70, 0
2, 39960, Note_on_c, 0, 66, 0
2, 39960, Note_on_c, 0, 63, 0
2, 39960, Note_on_c, 0, 75, 64
2, 39960, Note_on_c, 0, 66, 64
2, 39960, Note_on_c, 0, 58, 64
2, 39960, Note_on_c, 0, 51, 64
2, 40020, Note_on_c, 0, 51, 0
2, 40020, Note_on_c, 0, 75, 0
2, 40020, Note_on_c, 0, 66, 0
2, 40020, Note_on_c, 0, 58, 0
2, 40020, Note_on_c, 0, 74, 64
2, 40020, Note_on_c, 0, 65, 64
2, 40020, Note_on_c, 0, 56, 64
2, 40020, Note_on_c, 0, 53, 64
2, 40080, Note_on_c, 0, 53, 0
2, 40080, Note_on_c, 0, 74, 0
2, 40080, Note_on_c, 0, 65, 0
2, 40080, Note_on_c, 0, 56, 0
2, 40080, Note_on_c, 0, 75, 64
2, 40080, Note_on_c, 0, 63, 64
2, 40080, Note_on_c, 0, 58, 64
2, 40080, Note_on_c, 0, 54, 64
2, 40200, Note_on_c, 0, 54, 0
2, 40200, Note_on_c, 0, 75, 0
2, 40200, Note_on_c, 0, 63, 0
2, 40200, Note_on_c, 0, 58, 0
2, 40200, Note_on_c, 0, 59, 64
2, 40200, Note_on_c, 0, 65, 64
2, 40200, Note_on_c, 0, 68, 64
2, 40200, Note_on_c, 0, 56, 64
2, 40320, Note_on_c, 0, 56, 0
2, 40320, Note_on_c, 0, 68, 0
2, 40320, Note_on_c, 0, 59, 0
2, 40320, Note_on_c, 0, 66, 64
2, 40320, Note_on_c, 0, 58, 64
2, 40440, Note_on_c, 0, 65, 0
2, 40440, Note_on_c, 0, 63, 64
2, 40560, Note_on_c, 0, 66, 0
2, 40560, Note_on_c, 0, 65, 64
2, 40560, Note_on_c, 0, 46, 64
2, 40680, Note_on_c, 0, 63, 0
2, 40680, Note_on_c, 0, 62, 64
2, 40740, Note_on_c, 0, 58, 0
2, 40740, Note_on_c, 0, 56, 64
2, 40800, Note_on_c, 0, 56, 0
2, 40800, Note_on_c, 0, 62, 0
2, 40800, Note_on_c, 0, 65, 0
2, 40800, Note_on_c, 0, 46, 0
2, 40800, Note_on_c, 0, 51, 64
2, 40800, Note_on_c, 0, 63, 64
2, 40800, Note_on_c, 0, 54, 64
2, 40920, Note_on_c, 0, 54, 0
2, 40920, Note_on_c, 0, 63, 0
2, 40920, Note_on_c, 0, 75, 64
2, 40920, Note_on_c, 0, 66, 64
2, 40920, Note_on_c, 0, 58, 64
2, 40980, Note_on_c, 0, 66, 0
2, 40980, Note_on_c, 0, 65, 64
2, 41040, Note_on_c, 0, 65, 0
2, 41040, Note_on_c, 0, 58, 0
2, 41040, Note_on_c, 0, 75, 0
2, 41040, Note_on_c, 0, 75, 64
2, 41040, Note_on_c, 0, 66, 64
2, 41040, Note_on_c, 0, 58, 64
2, 41100, Note_on_c, 0, 66, 0
2, 41100, Note_on_c, 0, 70, 64
2, 41160, Note_on_c, 0, 70, 0
2, 41160, Note_on_c, 0, 58, 0
2, 41160, Note_on_c, 0, 75, 0
2, 41160, Note_on_c, 0, 58, 64
2, 41160, Note_on_c, 0, 75, 64
2, 41160, Note_on_c, 0, 68, 64
2, 41220, Note_on_c, 0, 68, 0
2, 41220, Note_on_c, 0, 66, 64
2, 41280, Note_on_c, 0, 66, 0
2, 41280, Note_on_c, 0, 75, 0
2, 41280, Note_on_c, 0, 58, 0
2, 41280, Note_on_c, 0, 74, 64
2, 41280, Note_on_c, 0, 65, 64
2, 41280, Note_on_c, 0, 59, 64
2, 41340, Note_on_c, 0, 65, 0
2, 41340, Note_on_c, 0, 68, 64
2, 41400, Note_on_c, 0, 68, 0
2, 41400, Note_on_c, 0, 59, 0
2, 41400, Note_on_c, 0, 74, 0
2, 41400, Note_on_c, 0, 51, 0
2, 41400, Note_on_c, 0, 75, 64
2, 41400, Note_on_c, 0, 66, 64
2, 41400, Note_on_c, 0, 58, 64
2, 41400, Note_on_c, 0, 51, 64
2, 41460, Note_on_c, 0, 51, 0
2, 41460, Note_on_c, 0, 66, 0
2, 41460, Note_on_c, 0, 70, 64
2, 41460, Note_on_c, 0, 50, 64
2, 41520, Note_on_c, 0, 50, 0
2, 41520, Note_on_c, 0, 75, 0
2, 41520, Note_on_c, 0, 58, 0
2, 41520, Note_on_c, 0, 70, 0
2, 41520, Note_on_c, 0, 77, 64
2, 41520, Note_on_c, 0, 71, 64
2, 41520, Note_on_c, 0, 56, 64
2, 41520, Note_on_c, 0, 51, 64
2, 41580, Note_on_c, 0, 51, 0
2, 41580, Note_on_c, 0, 71, 0
2, 41580, Note_on_c, 0, 70, 64
2, 41580, Note_on_c, 0, 54, 64
2, 41640, Note_on_c, 0, 54, 0
2, 41640, Note_on_c, 0, 70, 0
2, 41640, Note_on_c, 0, 71, 64
2, 41640, Note_on_c, 0, 53, 64
2, 41700, Note_on_c, 0, 53, 0
2, 41700, Note_on_c, 0, 51, 64
2, 41760, Note_on_c, 0, 51, 0
2, 41760, Note_on_c, 0, 50, 64
2, 41880, Note_on_c, 0, 50, 0
2, 41880, Note_on_c, 0, 77, 0
2, 41880, Note_on_c, 0, 56, 0
2, 41880, Note_on_c, 0, 71, 0
2, 41880, Note_on_c, 0, 75, 64
2, 41880, Note_on_c, 0, 70, 64
2, 41880, Note_on_c, 0, 58, 64
2, 41880, Note_on_c, 0, 54, 64
2, 42000, Note_on_c, 0, 54, 0
2, 42000, Note_on_c, 0, 75, 0
2, 42000, Note_on_c, 0, 70, 0
2, 42000, Note_on_c, 0, 58, 0
2, 42000, Note_on_c, 0, 53, 64
2, 42000, Note_on_c, 0, 80, 64
2, 42060, Note_on_c, 0, 75, 64
2, 42060, Note_on_c, 0, 47, 64
2, 42120, Note_on_c, 0, 47, 0
2, 42120, Note_on_c, 0, 75, 0
2, 42120, Note_on_c, 0, 74, 64
2, 42120, Note_on_c, 0, 46, 64
2, 42180, Note_on_c, 0, 46, 0
2, 42180, Note_on_c, 0, 74, 0
2, 42180, Note_on_c, 0, 44, 64
2, 42180, Note_on_c, 0, 72, 64
2, 42240, Note_on_c, 0, 72, 0
2, 42240, Note_on_c, 0, 44, 0
2, 42240, Note_on_c, 0, 74, 64
2, 42240, Note_on_c, 0, 46, 64
2, 42360, Note_on_c, 0, 74, 0
2, 42360, Note_on_c, 0, 53, 0
2, 42360, Note_on_c, 0, 80, 0
2, 42360, Note_on_c, 0, 78, 64
2, 42360, Note_on_c, 0, 75, 64
2, 42360, Note_on_c, 0, 54, 64
2, 42420, Note_on_c, 0, 54, 0
2, 42420, Note_on_c, 0, 46, 0
2, 42420, Note_on_c, 0, 78, 0
2, 42420, Note_on_c, 0, 75, 0
2, 42420, Note_on_c, 0, 77, 64
2, 42420, Note_on_c, 0, 56, 64
2, 42420, Note_on_c, 0, 44, 64
2, 42480, Note_on_c, 0, 44, 0
2, 42480, Note_on_c, 0, 56, 0
2, 42480, Note_on_c, 0, 77, 0
2, 42480, Note_on_c, 0, 82, 64
2, 42480, Note_on_c, 0, 78, 64
2, 42480, Note_on_c, 0, 51, 64
2, 42480, Note_on_c, 0, 42, 64
2, 42600, Note_on_c, 0, 42, 0
2, 42600, Note_on_c, 0, 82, 0
2, 42600, Note_on_c, 0, 78, 0
2, 42600, Note_on_c, 0, 51, 0
2, 42600, Note_on_c, 0, 80, 64
2, 42600, Note_on_c, 0, 74, 64
2, 42600, Note_on_c, 0, 53, 64
2, 42600, Note_on_c, 0, 46, 64
2, 42720, Note_on_c, 0, 46, 0
2, 42720, Note_on_c, 0, 80, 0
2, 42720, Note_on_c, 0, 74, 0
2, 42720, Note_on_c, 0, 53, 0
2, 42720, Note_on_c, 0, 78, 64
2, 42720, Note_on_c, 0, 75, 64
2, 42720, Note_on_c, 0, 54, 64
2, 42720, Note_on_c, 0, 51, 64
2, 42840, Note_on_c, 0, 51, 0
2, 42840, Note_on_c, 0, 78, 0
2, 42840, Note_on_c, 0, 75, 0
2, 42840, Note_on_c, 0, 54, 0
2, 42840, Note_on_c, 0, 74, 64
2, 42840, Note_on_c, 0, 68, 64
2, 42840, Note_on_c, 0, 59, 64
2, 42840, Note_on_c, 0, 53, 64
2, 42960, Note_on_c, 0, 53, 0
2, 42960, Note_on_c, 0, 74, 0
2, 42960, Note_on_c, 0, 68, 0
2, 42960, Note_on_c, 0, 59, 0
2, 42960, Note_on_c, 0, 75, 64
2, 42960, Note_on_c, 0, 66, 64
2, 42960, Note_on_c, 0, 58, 64
2, 42960, Note_on_c, 0, 54, 64
2, 43020, Note_on_c, 0, 66, 0
2, 43020, Note_on_c, 0, 65, 64
2, 43080, Note_on_c, 0, 65, 0
2, 43080, Note_on_c, 0, 54, 0
2, 43080, Note_on_c, 0, 58, 0
2, 43080, Note_on_c, 0, 66, 64
2, 43080, Note_on_c, 0, 45, 64
2, 43080, Note_on_c, 0, 51, 64
2, 43140, Note_on_c, 0, 51, 0
2, 43140, Note_on_c, 0, 53, 64
2, 43200, Note_on_c, 0, 53, 0
2, 43200, Note_on_c, 0, 45, 0
2, 43200, Note_on_c, 0, 70, 64
2, 43200, Note_on_c, 0, 54, 64
2, 43200, Note_on_c, 0, 46, 64
2, 43320, Note_on_c, 0, 54, 0
2, 43320, Note_on_c, 0, 66, 0
2, 43320, Note_on_c, 0, 68, 64
2, 43320, Note_on_c, 0, 53, 64
2, 43380, Note_on_c, 0, 53, 0
2, 43380, Note_on_c, 0, 68, 0
2, 43380, Note_on_c, 0, 66, 64
2, 43380, Note_on_c, 0, 51, 64
2, 43440, Note_on_c, 0, 51, 0
2, 43440, Note_on_c, 0, 75, 0
2, 43440, Note_on_c, 0, 66, 0
2, 43440, Note_on_c, 0, 74, 64
2, 43440, Note_on_c, 0, 65, 64
2, 43440, Note_on_c, 0, 58, 64
2, 43500, Note_on_c, 0, 65, 0
2, 43500, Note_on_c, 0, 66, 64
2, 43560, Note_on_c, 0, 66, 0
2, 43560, Note_on_c, 0, 58, 0
2, 43560, Note_on_c, 0, 68, 64
2, 43560, Note_on_c, 0, 65, 64
2, 43680, Note_on_c, 0, 65, 0
2, 43680, Note_on_c, 0, 46, 0
2, 43680, Note_on_c, 0, 74, 0
2, 43680, Note_on_c, 0, 70, 0
2, 43680, Note_on_c, 0, 68, 0
2, 43680, Note_on_c, 0, 70, 64
2, 43680, Note_on_c, 0, 75, 64
2, 43680, Note_on_c, 0, 67, 64
2, 43680, Note_on_c, 0, 39, 64
2, 43680, Note_on_c, 0, 63, 64
2, 44160, Note_on_c, 0, 63, 0
2, 44160, Note_on_c, 0, 67, 0
2, 44160, Note_on_c, 0, 70, 0
2, 44160, Note_on_c, 0, 75, 0
2, 44160, Note_on_c, 0, 39, 0
2, 44160, End_track
0, 0, End_of_file
