0, 0, Header, 1, 2, 240
1, 0, Start_track
1, 0, Time_signature, 4, 1, 48, 8
1, 0, Key_signature, 4, "major"
1, 0, Tempo, 476190
1, 0, Marker_t, "(c) Yo Tomita, 1997"
1, 79180, Tempo, 483871
1, 79252, Tempo, 485830
1, 79320, Tempo, 487805
1, 79392, Tempo, 489796
1, 79460, Tempo, 491803
1, 79526, Tempo, 493827
1, 79600, Tempo, 495868
1, 79666, Tempo, 497925
1, 79732, Tempo, 500000
1, 79806, Tempo, 502092
1, 79872, Tempo, 504202
1, 79940, Tempo, 506329
1, 80012, Tempo, 508475
1, 80080, Tempo, 510638
1, 80146, Tempo, 512821
1, 80220, Tempo, 515021
1, 80286, Tempo, 517241
1, 80352, Tempo, 519481
1, 80366, Tempo, 526316
1, 80400, Tempo, 528634
1, 80426, Tempo, 530973
1, 80452, Tempo, 533333
1, 80480, Tempo, 535714
1, 80512, Tempo, 538117
1, 80540, Tempo, 540541
1, 80566, Tempo, 542986
1, 80592, Tempo, 545455
1, 80620, Tempo, 547945
1, 80652, Tempo, 550459
1, 80680, Tempo, 552995
1, 80706, Tempo, 555556
1, 80732, Tempo, 558140
1, 80766, Tempo, 560748
1, 80792, Tempo, 563380
1, 80820, Tempo, 566038
1, 80846, Tempo, 568720
1, 80872, Tempo, 571429
1, 80906, Tempo, 574163
1, 80932, Tempo, 576923
1, 80960, Tempo, 579710
1, 80986, Tempo, 582524
1, 81012, Tempo, 585366
1, 81020, Tempo, 585366
1, 81040, Tempo, 588235
1, 81052, Tempo, 591133
1, 81066, Tempo, 594059
1, 81080, Tempo, 597015
1, 81092, Tempo, 600000
1, 81106, Tempo, 603015
1, 81120, Tempo, 606061
1, 81132, Tempo, 609137
1, 81146, Tempo, 612245
1, 81160, Tempo, 615385
1, 81172, Tempo, 618557
1, 81186, Tempo, 621762
1, 81200, Tempo, 625000
1, 81212, Tempo, 628272
1, 81226, Tempo, 631579
1, 81240, Tempo, 634921
1, 81252, Tempo, 638298
1, 81266, Tempo, 641711
1, 81280, Tempo, 645161
1, 81292, Tempo, 648649
1, 81306, Tempo, 652174
1, 81320, Tempo, 655738
1, 81332, Tempo, 659341
1, 81346, Tempo, 662983
1, 81360, Tempo, 666667
1, 81372, Tempo, 670391
1, 81386, Tempo, 674157
1, 81400, Tempo, 677966
1, 81412, Tempo, 681818
1, 81426, Tempo, 685714
1, 81440, Tempo, 689655
1, 81452, Tempo, 693642
1, 81466, Tempo, 697674
1, 81480, Tempo, 701754
1, 81492, Tempo, 705882
1, 81506, Tempo, 710059
1, 81520, Tempo, 714286
1, 81526, Tempo, 718563
1, 81532, Tempo, 722892
1, 81540, Tempo, 727273
1, 81546, Tempo, 731707
1, 81552, Tempo, 736196
1, 81560, Tempo, 740741
1, 81566, Tempo, 745342
1, 81572, Tempo, 750000
1, 81580, Tempo, 754717
1, 81586, Tempo, 759494
1, 81592, Tempo, 764331
1, 81600, Tempo, 769231
1, 81606, Tempo, 774194
1, 81612, Tempo, 779221
1, 81620, Tempo, 784314
1, 81626, Tempo, 789474
1, 81632, Tempo, 794702
1, 81640, Tempo, 800000
1, 81646, Tempo, 805369
1, 81652, Tempo, 810811
1, 81660, Tempo, 821918
1, 81660, End_track
2, 0, Start_track
2, 0, MIDI_port, 0
2, 0, Title_t, "BWV 878/2"
2, 0, Program_c, 0, 6
2, 0, Note_on_c, 0, 52, 64
2, 960, Note_on_c, 0, 52, 0
2, 960, Note_on_c, 0, 54, 64
2, 1440, Note_on_c, 0, 54, 0
2, 1440, Note_on_c, 0, 57, 64
2, 1920, Note_on_c, 0, 57, 0
2, 1920, Note_on_c, 0, 56, 64
2, 2400, Note_on_c, 0, 56, 0
2, 2400, Note_on_c, 0, 54, 64
2, 2880, Note_on_c, 0, 54, 0
2, 2880, Note_on_c, 0, 59, 64
2, 2880, Note_on_c, 0, 52, 64
2, 3120, Note_on_c, 0, 52, 0
2, 3120, Note_on_c, 0, 51, 64
2, 3240, Note_on_c, 0, 51, 0
2, 3240, Note_on_c, 0, 49, 64
2, 3360, Note_on_c, 0, 49, 0
2, 3360, Note_on_c, 0, 51, 64
2, 3600, Note_on_c, 0, 51, 0
2, 3600, Note_on_c, 0, 47, 64
2, 3840, Note_on_c, 0, 47, 0
2, 3840, Note_on_c, 0, 59, 0
2, 3840, Note_on_c, 0, 61, 64
2, 3840, Note_on_c, 0, 52, 64
2, 4080, Note_on_c, 0, 52, 0
2, 4080, Note_on_c, 0, 54, 64
2, 4320, Note_on_c, 0, 54, 0
2, 4320, Note_on_c, 0, 61, 0
2, 4320, Note_on_c, 0, 64, 64
2, 4320, Note_on_c, 0, 56, 64
2, 4560, Note_on_c, 0, 56, 0
2, 4560, Note_on_c, 0, 58, 64
2, 4800, Note_on_c, 0, 58, 0
2, 4800, Note_on_c, 0, 64, 0
2, 4800, Note_on_c, 0, 63, 64
2, 4800, Note_on_c, 0, 59, 64
2, 4920, Note_on_c, 0, 59, 0
2, 4920, Note_on_c, 0, 54, 64
2, 5040, Note_on_c, 0, 54, 0
2, 5040, Note_on_c, 0, 59, 64
2, 5280, Note_on_c, 0, 63, 0
2, 5280, Note_on_c, 0, 61, 64
2, 5520, Note_on_c, 0, 59, 0
2, 5520, Note_on_c, 0, 57, 64
2, 5760, Note_on_c, 0, 61, 0
2, 5760, Note_on_c, 0, 64, 64
2, 5760, Note_on_c, 0, 59, 64
2, 6000, Note_on_c, 0, 57, 0
2, 6000, Note_on_c, 0, 56, 64
2, 6120, Note_on_c, 0, 56, 0
2, 6120, Note_on_c, 0, 54, 64
2, 6240, Note_on_c, 0, 54, 0
2, 6240, Note_on_c, 0, 56, 64
2, 6480, Note_on_c, 0, 59, 0
2, 6480, Note_on_c, 0, 59, 64
2, 6720, Note_on_c, 0, 59, 0
2, 6720, Note_on_c, 0, 64, 0
2, 6720, Note_on_c, 0, 66, 64
2, 6720, Note_on_c, 0, 57, 64
2, 6960, Note_on_c, 0, 57, 0
2, 6960, Note_on_c, 0, 59, 64
2, 7200, Note_on_c, 0, 59, 0
2, 7200, Note_on_c, 0, 66, 0
2, 7200, Note_on_c, 0, 56, 0
2, 7200, Note_on_c, 0, 54, 64
2, 7200, Note_on_c, 0, 69, 64
2, 7200, Note_on_c, 0, 61, 64
2, 7440, Note_on_c, 0, 61, 0
2, 7440, Note_on_c, 0, 63, 64
2, 7680, Note_on_c, 0, 63, 0
2, 7680, Note_on_c, 0, 69, 0
2, 7680, Note_on_c, 0, 54, 0
2, 7680, Note_on_c, 0, 68, 64
2, 7680, Note_on_c, 0, 64, 64
2, 7680, Note_on_c, 0, 56, 64
2, 7800, Note_on_c, 0, 64, 0
2, 7800, Note_on_c, 0, 59, 64
2, 7920, Note_on_c, 0, 59, 0
2, 7920, Note_on_c, 0, 64, 64
2, 8160, Note_on_c, 0, 56, 0
2, 8160, Note_on_c, 0, 68, 0
2, 8160, Note_on_c, 0, 66, 64
2, 8160, Note_on_c, 0, 57, 64
2, 8400, Note_on_c, 0, 57, 0
2, 8400, Note_on_c, 0, 64, 0
2, 8400, Note_on_c, 0, 63, 64
2, 8400, Note_on_c, 0, 59, 64
2, 8520, Note_on_c, 0, 59, 0
2, 8520, Note_on_c, 0, 57, 64
2, 8640, Note_on_c, 0, 57, 0
2, 8640, Note_on_c, 0, 63, 0
2, 8640, Note_on_c, 0, 66, 0
2, 8640, Note_on_c, 0, 71, 64
2, 8640, Note_on_c, 0, 64, 64
2, 8640, Note_on_c, 0, 64, 64
2, 8640, Note_on_c, 0, 56, 64
2, 8880, Note_on_c, 0, 56, 0
2, 8880, Note_on_c, 0, 54, 64
2, 9120, Note_on_c, 0, 54, 0
2, 9120, Note_on_c, 0, 64, 0
2, 9120, Note_on_c, 0, 64, 0
2, 9120, Note_on_c, 0, 56, 64
2, 9120, Note_on_c, 0, 52, 64
2, 9360, Note_on_c, 0, 52, 0
2, 9360, Note_on_c, 0, 56, 0
2, 9360, Note_on_c, 0, 59, 64
2, 9360, Note_on_c, 0, 51, 64
2, 9360, Note_on_c, 0, 54, 64
2, 9600, Note_on_c, 0, 54, 0
2, 9600, Note_on_c, 0, 71, 0
2, 9600, Note_on_c, 0, 59, 0
2, 9600, Note_on_c, 0, 51, 0
2, 9600, Note_on_c, 0, 73, 64
2, 9600, Note_on_c, 0, 64, 64
2, 9600, Note_on_c, 0, 56, 64
2, 9600, Note_on_c, 0, 49, 64
2, 9840, Note_on_c, 0, 64, 0
2, 9840, Note_on_c, 0, 66, 64
2, 10080, Note_on_c, 0, 66, 0
2, 10080, Note_on_c, 0, 73, 0
2, 10080, Note_on_c, 0, 56, 0
2, 10080, Note_on_c, 0, 76, 64
2, 10080, Note_on_c, 0, 68, 64
2, 10080, Note_on_c, 0, 52, 64
2, 10320, Note_on_c, 0, 68, 0
2, 10320, Note_on_c, 0, 70, 64
2, 10560, Note_on_c, 0, 70, 0
2, 10560, Note_on_c, 0, 52, 0
2, 10560, Note_on_c, 0, 76, 0
2, 10560, Note_on_c, 0, 49, 0
2, 10560, Note_on_c, 0, 54, 64
2, 10560, Note_on_c, 0, 75, 64
2, 10560, Note_on_c, 0, 71, 64
2, 10560, Note_on_c, 0, 47, 64
2, 10680, Note_on_c, 0, 71, 0
2, 10680, Note_on_c, 0, 66, 64
2, 10800, Note_on_c, 0, 66, 0
2, 10800, Note_on_c, 0, 71, 64
2, 11040, Note_on_c, 0, 47, 0
2, 11040, Note_on_c, 0, 75, 0
2, 11040, Note_on_c, 0, 42, 64
2, 11040, Note_on_c, 0, 73, 64
2, 11280, Note_on_c, 0, 71, 0
2, 11280, Note_on_c, 0, 69, 64
2, 11520, Note_on_c, 0, 73, 0
2, 11520, Note_on_c, 0, 42, 0
2, 11520, Note_on_c, 0, 71, 64
2, 11520, Note_on_c, 0, 44, 64
2, 11760, Note_on_c, 0, 54, 0
2, 11760, Note_on_c, 0, 69, 0
2, 11760, Note_on_c, 0, 68, 64
2, 11760, Note_on_c, 0, 47, 64
2, 11880, Note_on_c, 0, 68, 0
2, 11880, Note_on_c, 0, 66, 64
2, 12000, Note_on_c, 0, 66, 0
2, 12000, Note_on_c, 0, 47, 0
2, 12000, Note_on_c, 0, 68, 64
2, 12000, Note_on_c, 0, 52, 64
2, 12240, Note_on_c, 0, 44, 0
2, 12240, Note_on_c, 0, 40, 64
2, 12480, Note_on_c, 0, 40, 0
2, 12480, Note_on_c, 0, 68, 0
2, 12480, Note_on_c, 0, 61, 64
2, 12480, Note_on_c, 0, 45, 64
2, 12720, Note_on_c, 0, 71, 0
2, 12720, Note_on_c, 0, 52, 0
2, 12720, Note_on_c, 0, 69, 64
2, 12720, Note_on_c, 0, 49, 64
2, 12840, Note_on_c, 0, 69, 0
2, 12840, Note_on_c, 0, 68, 64
2, 12960, Note_on_c, 0, 68, 0
2, 12960, Note_on_c, 0, 49, 0
2, 12960, Note_on_c, 0, 54, 64
2, 12960, Note_on_c, 0, 69, 64
2, 13200, Note_on_c, 0, 61, 0
2, 13200, Note_on_c, 0, 45, 0
2, 13200, Note_on_c, 0, 42, 64
2, 13200, Note_on_c, 0, 63, 64
2, 13320, Note_on_c, 0, 63, 0
2, 13320, Note_on_c, 0, 64, 64
2, 13440, Note_on_c, 0, 64, 0
2, 13440, Note_on_c, 0, 42, 0
2, 13440, Note_on_c, 0, 47, 64
2, 13440, Note_on_c, 0, 63, 64
2, 13680, Note_on_c, 0, 54, 0
2, 13680, Note_on_c, 0, 52, 64
2, 13800, Note_on_c, 0, 52, 0
2, 13800, Note_on_c, 0, 54, 64
2, 13920, Note_on_c, 0, 54, 0
2, 13920, Note_on_c, 0, 69, 0
2, 13920, Note_on_c, 0, 63, 0
2, 13920, Note_on_c, 0, 68, 64
2, 13920, Note_on_c, 0, 64, 64
2, 13920, Note_on_c, 0, 56, 64
2, 14160, Note_on_c, 0, 56, 0
2, 14160, Note_on_c, 0, 57, 64
2, 14400, Note_on_c, 0, 57, 0
2, 14400, Note_on_c, 0, 68, 0
2, 14400, Note_on_c, 0, 66, 64
2, 14400, Note_on_c, 0, 59, 64
2, 14520, Note_on_c, 0, 59, 0
2, 14520, Note_on_c, 0, 54, 64
2, 14640, Note_on_c, 0, 54, 0
2, 14640, Note_on_c, 0, 64, 0
2, 14640, Note_on_c, 0, 63, 64
2, 14640, Note_on_c, 0, 59, 64
2, 14880, Note_on_c, 0, 63, 0
2, 14880, Note_on_c, 0, 66, 0
2, 14880, Note_on_c, 0, 64, 64
2, 14880, Note_on_c, 0, 61, 64
2, 15120, Note_on_c, 0, 59, 0
2, 15120, Note_on_c, 0, 58, 64
2, 15360, Note_on_c, 0, 58, 0
2, 15360, Note_on_c, 0, 61, 0
2, 15360, Note_on_c, 0, 64, 0
2, 15360, Note_on_c, 0, 59, 64
2, 15360, Note_on_c, 0, 63, 64
2, 15360, Note_on_c, 0, 54, 64
2, 15840, Note_on_c, 0, 54, 0
2, 15840, Note_on_c, 0, 47, 0
2, 15840, Note_on_c, 0, 59, 0
2, 15840, Note_on_c, 0, 63, 0
2, 15840, Note_on_c, 0, 59, 64
2, 16320, Note_on_c, 0, 59, 0
2, 16320, Note_on_c, 0, 52, 64
2, 16320, Note_on_c, 0, 61, 64
2, 16800, Note_on_c, 0, 61, 0
2, 16800, Note_on_c, 0, 64, 64
2, 17280, Note_on_c, 0, 64, 0
2, 17280, Note_on_c, 0, 52, 0
2, 17280, Note_on_c, 0, 63, 64
2, 17280, Note_on_c, 0, 54, 64
2, 17760, Note_on_c, 0, 54, 0
2, 17760, Note_on_c, 0, 63, 0
2, 17760, Note_on_c, 0, 61, 64
2, 17760, Note_on_c, 0, 57, 64
2, 18240, Note_on_c, 0, 57, 0
2, 18240, Note_on_c, 0, 61, 0
2, 18240, Note_on_c, 0, 47, 64
2, 18240, Note_on_c, 0, 59, 64
2, 18240, Note_on_c, 0, 56, 64
2, 18480, Note_on_c, 0, 59, 0
2, 18480, Note_on_c, 0, 64, 64
2, 18720, Note_on_c, 0, 56, 0
2, 18720, Note_on_c, 0, 54, 64
2, 18960, Note_on_c, 0, 64, 0
2, 18960, Note_on_c, 0, 63, 64
2, 19200, Note_on_c, 0, 54, 0
2, 19200, Note_on_c, 0, 47, 0
2, 19200, Note_on_c, 0, 64, 64
2, 19200, Note_on_c, 0, 52, 64
2, 19200, Note_on_c, 0, 49, 64
2, 19440, Note_on_c, 0, 52, 0
2, 19440, Note_on_c, 0, 63, 0
2, 19440, Note_on_c, 0, 61, 64
2, 19440, Note_on_c, 0, 57, 64
2, 19680, Note_on_c, 0, 49, 0
2, 19680, Note_on_c, 0, 52, 64
2, 19920, Note_on_c, 0, 57, 0
2, 19920, Note_on_c, 0, 61, 0
2, 19920, Note_on_c, 0, 59, 64
2, 19920, Note_on_c, 0, 56, 64
2, 20040, Note_on_c, 0, 59, 0
2, 20040, Note_on_c, 0, 58, 64
2, 20160, Note_on_c, 0, 58, 0
2, 20160, Note_on_c, 0, 56, 0
2, 20160, Note_on_c, 0, 64, 0
2, 20160, Note_on_c, 0, 52, 0
2, 20160, Note_on_c, 0, 66, 64
2, 20160, Note_on_c, 0, 59, 64
2, 20160, Note_on_c, 0, 54, 64
2, 20160, Note_on_c, 0, 51, 64
2, 20400, Note_on_c, 0, 54, 0
2, 20400, Note_on_c, 0, 59, 0
2, 20400, Note_on_c, 0, 66, 64
2, 20400, Note_on_c, 0, 52, 64
2, 20520, Note_on_c, 0, 52, 0
2, 20520, Note_on_c, 0, 51, 64
2, 20640, Note_on_c, 0, 51, 0
2, 20640, Note_on_c, 0, 66, 0
2, 20640, Note_on_c, 0, 51, 0
2, 20640, Note_on_c, 0, 69, 64
2, 20640, Note_on_c, 0, 49, 64
2, 20640, Note_on_c, 0, 52, 64
2, 20880, Note_on_c, 0, 52, 0
2, 20880, Note_on_c, 0, 66, 0
2, 20880, Note_on_c, 0, 54, 64
2, 20880, Note_on_c, 0, 64, 64
2, 21000, Note_on_c, 0, 64, 0
2, 21000, Note_on_c, 0, 63, 64
2, 21120, Note_on_c, 0, 63, 0
2, 21120, Note_on_c, 0, 54, 0
2, 21120, Note_on_c, 0, 49, 0
2, 21120, Note_on_c, 0, 69, 0
2, 21120, Note_on_c, 0, 68, 64
2, 21120, Note_on_c, 0, 64, 64
2, 21120, Note_on_c, 0, 56, 64
2, 21120, Note_on_c, 0, 47, 64
2, 21360, Note_on_c, 0, 56, 0
2, 21360, Note_on_c, 0, 57, 64
2, 21600, Note_on_c, 0, 57, 0
2, 21600, Note_on_c, 0, 68, 0
2, 21600, Note_on_c, 0, 66, 64
2, 21600, Note_on_c, 0, 59, 64
2, 21720, Note_on_c, 0, 59, 0
2, 21720, Note_on_c, 0, 54, 64
2, 21840, Note_on_c, 0, 54, 0
2, 21840, Note_on_c, 0, 64, 0
2, 21840, Note_on_c, 0, 63, 64
2, 21840, Note_on_c, 0, 57, 64
2, 22080, Note_on_c, 0, 57, 0
2, 22080, Note_on_c, 0, 47, 0
2, 22080, Note_on_c, 0, 66, 0
2, 22080, Note_on_c, 0, 63, 0
2, 22080, Note_on_c, 0, 61, 64
2, 22080, Note_on_c, 0, 65, 64
2, 22080, Note_on_c, 0, 56, 64
2, 22080, Note_on_c, 0, 47, 64
2, 22320, Note_on_c, 0, 65, 0
2, 22320, Note_on_c, 0, 66, 64
2, 22560, Note_on_c, 0, 66, 0
2, 22560, Note_on_c, 0, 47, 0
2, 22560, Note_on_c, 0, 56, 0
2, 22560, Note_on_c, 0, 45, 64
2, 22560, Note_on_c, 0, 54, 64
2, 22560, Note_on_c, 0, 68, 64
2, 22800, Note_on_c, 0, 68, 0
2, 22800, Note_on_c, 0, 69, 64
2, 23040, Note_on_c, 0, 69, 0
2, 23040, Note_on_c, 0, 45, 0
2, 23040, Note_on_c, 0, 61, 0
2, 23040, Note_on_c, 0, 71, 64
2, 23040, Note_on_c, 0, 59, 64
2, 23040, Note_on_c, 0, 44, 64
2, 23280, Note_on_c, 0, 59, 0
2, 23280, Note_on_c, 0, 71, 0
2, 23280, Note_on_c, 0, 66, 64
2, 23280, Note_on_c, 0, 61, 64
2, 23520, Note_on_c, 0, 61, 0
2, 23520, Note_on_c, 0, 66, 0
2, 23520, Note_on_c, 0, 54, 0
2, 23520, Note_on_c, 0, 71, 64
2, 23520, Note_on_c, 0, 63, 64
2, 23520, Note_on_c, 0, 52, 64
2, 23760, Note_on_c, 0, 63, 0
2, 23760, Note_on_c, 0, 64, 64
2, 24000, Note_on_c, 0, 64, 0
2, 24000, Note_on_c, 0, 52, 0
2, 24000, Note_on_c, 0, 44, 0
2, 24000, Note_on_c, 0, 42, 64
2, 24000, Note_on_c, 0, 66, 64
2, 24000, Note_on_c, 0, 51, 64
2, 24240, Note_on_c, 0, 51, 0
2, 24240, Note_on_c, 0, 66, 0
2, 24240, Note_on_c, 0, 42, 0
2, 24240, Note_on_c, 0, 61, 64
2, 24240, Note_on_c, 0, 53, 64
2, 24240, Note_on_c, 0, 44, 64
2, 24480, Note_on_c, 0, 44, 0
2, 24480, Note_on_c, 0, 71, 0
2, 24480, Note_on_c, 0, 61, 0
2, 24480, Note_on_c, 0, 53, 0
2, 24480, Note_on_c, 0, 54, 64
2, 24480, Note_on_c, 0, 66, 64
2, 24480, Note_on_c, 0, 69, 64
2, 24480, Note_on_c, 0, 45, 64
2, 24720, Note_on_c, 0, 45, 0
2, 24720, Note_on_c, 0, 47, 64
2, 24960, Note_on_c, 0, 47, 0
2, 24960, Note_on_c, 0, 69, 0
2, 24960, Note_on_c, 0, 54, 0
2, 24960, Note_on_c, 0, 49, 64
2, 24960, Note_on_c, 0, 68, 64
2, 25200, Note_on_c, 0, 49, 0
2, 25200, Note_on_c, 0, 51, 64
2, 25200, Note_on_c, 0, 44, 64
2, 25440, Note_on_c, 0, 44, 0
2, 25440, Note_on_c, 0, 51, 0
2, 25440, Note_on_c, 0, 66, 0
2, 25440, Note_on_c, 0, 64, 64
2, 25440, Note_on_c, 0, 52, 64
2, 25440, Note_on_c, 0, 49, 64
2, 25680, Note_on_c, 0, 52, 0
2, 25680, Note_on_c, 0, 54, 64
2, 25920, Note_on_c, 0, 54, 0
2, 25920, Note_on_c, 0, 64, 0
2, 25920, Note_on_c, 0, 63, 64
2, 25920, Note_on_c, 0, 56, 64
2, 26160, Note_on_c, 0, 56, 0
2, 26160, Note_on_c, 0, 51, 64
2, 26400, Note_on_c, 0, 51, 0
2, 26400, Note_on_c, 0, 49, 0
2, 26400, Note_on_c, 0, 56, 64
2, 26400, Note_on_c, 0, 47, 64
2, 26640, Note_on_c, 0, 68, 0
2, 26640, Note_on_c, 0, 69, 64
2, 26760, Note_on_c, 0, 69, 0
2, 26760, Note_on_c, 0, 71, 64
2, 26880, Note_on_c, 0, 71, 0
2, 26880, Note_on_c, 0, 63, 0
2, 26880, Note_on_c, 0, 47, 0
2, 26880, Note_on_c, 0, 73, 64
2, 26880, Note_on_c, 0, 61, 64
2, 26880, Note_on_c, 0, 45, 64
2, 27120, Note_on_c, 0, 61, 0
2, 27120, Note_on_c, 0, 73, 0
2, 27120, Note_on_c, 0, 72, 64
2, 27120, Note_on_c, 0, 63, 64
2, 27360, Note_on_c, 0, 63, 0
2, 27360, Note_on_c, 0, 72, 0
2, 27360, Note_on_c, 0, 56, 0
2, 27360, Note_on_c, 0, 73, 64
2, 27360, Note_on_c, 0, 64, 64
2, 27360, Note_on_c, 0, 54, 64
2, 27600, Note_on_c, 0, 64, 0
2, 27600, Note_on_c, 0, 73, 0
2, 27600, Note_on_c, 0, 75, 64
2, 27600, Note_on_c, 0, 66, 64
2, 27840, Note_on_c, 0, 66, 0
2, 27840, Note_on_c, 0, 75, 0
2, 27840, Note_on_c, 0, 45, 0
2, 27840, Note_on_c, 0, 44, 64
2, 27840, Note_on_c, 0, 72, 64
2, 27840, Note_on_c, 0, 68, 64
2, 28080, Note_on_c, 0, 72, 0
2, 28080, Note_on_c, 0, 54, 0
2, 28080, Note_on_c, 0, 73, 64
2, 28080, Note_on_c, 0, 52, 64
2, 28320, Note_on_c, 0, 52, 0
2, 28320, Note_on_c, 0, 68, 0
2, 28320, Note_on_c, 0, 52, 64
2, 28320, Note_on_c, 0, 66, 64
2, 28416, Note_on_c, 0, 51, 64
2, 28447, Note_on_c, 0, 52, 0
2, 28456, Note_on_c, 0, 52, 64
2, 28495, Note_on_c, 0, 51, 0
2, 28504, Note_on_c, 0, 51, 64
2, 28535, Note_on_c, 0, 52, 0
2, 28544, Note_on_c, 0, 52, 64
2, 28560, Note_on_c, 0, 73, 0
2, 28560, Note_on_c, 0, 72, 64
2, 28583, Note_on_c, 0, 51, 0
2, 28584, Note_on_c, 0, 51, 64
2, 28623, Note_on_c, 0, 52, 0
2, 28800, Note_on_c, 0, 72, 0
2, 28800, Note_on_c, 0, 44, 0
2, 28800, Note_on_c, 0, 66, 0
2, 28800, Note_on_c, 0, 73, 64
2, 28800, Note_on_c, 0, 64, 64
2, 28800, Note_on_c, 0, 49, 64
2, 28807, Note_on_c, 0, 51, 0
2, 29040, Note_on_c, 0, 56, 64
2, 29167, Note_on_c, 0, 56, 0
2, 29280, Note_on_c, 0, 49, 0
2, 29280, Note_on_c, 0, 61, 64
2, 29520, Note_on_c, 0, 49, 64
2, 29760, Note_on_c, 0, 49, 0
2, 29760, Note_on_c, 0, 73, 0
2, 29760, Note_on_c, 0, 64, 0
2, 29760, Note_on_c, 0, 66, 64
2, 29760, Note_on_c, 0, 50, 64
2, 30000, Note_on_c, 0, 61, 0
2, 30000, Note_on_c, 0, 59, 64
2, 30120, Note_on_c, 0, 59, 0
2, 30120, Note_on_c, 0, 58, 64
2, 30240, Note_on_c, 0, 58, 0
2, 30240, Note_on_c, 0, 66, 0
2, 30240, Note_on_c, 0, 59, 64
2, 30240, Note_on_c, 0, 69, 64
2, 30480, Note_on_c, 0, 50, 0
2, 30480, Note_on_c, 0, 51, 64
2, 30720, Note_on_c, 0, 51, 0
2, 30720, Note_on_c, 0, 69, 0
2, 30720, Note_on_c, 0, 71, 64
2, 30720, Note_on_c, 0, 68, 64
2, 30720, Note_on_c, 0, 52, 64
2, 30960, Note_on_c, 0, 59, 0
2, 30960, Note_on_c, 0, 57, 64
2, 31080, Note_on_c, 0, 57, 0
2, 31080, Note_on_c, 0, 56, 64
2, 31200, Note_on_c, 0, 56, 0
2, 31200, Note_on_c, 0, 68, 0
2, 31200, Note_on_c, 0, 66, 64
2, 31200, Note_on_c, 0, 57, 64
2, 31440, Note_on_c, 0, 57, 0
2, 31440, Note_on_c, 0, 52, 0
2, 31440, Note_on_c, 0, 59, 64
2, 31440, Note_on_c, 0, 51, 64
2, 31560, Note_on_c, 0, 59, 0
2, 31560, Note_on_c, 0, 57, 64
2, 31680, Note_on_c, 0, 57, 0
2, 31680, Note_on_c, 0, 51, 0
2, 31680, Note_on_c, 0, 66, 0
2, 31680, Note_on_c, 0, 71, 0
2, 31680, Note_on_c, 0, 73, 64
2, 31680, Note_on_c, 0, 64, 64
2, 31680, Note_on_c, 0, 56, 64
2, 31680, Note_on_c, 0, 52, 64
2, 31920, Note_on_c, 0, 64, 0
2, 31920, Note_on_c, 0, 61, 64
2, 32160, Note_on_c, 0, 61, 0
2, 32160, Note_on_c, 0, 52, 0
2, 32160, Note_on_c, 0, 73, 0
2, 32160, Note_on_c, 0, 49, 64
2, 32160, Note_on_c, 0, 68, 64
2, 32160, Note_on_c, 0, 76, 64
2, 32400, Note_on_c, 0, 56, 0
2, 32400, Note_on_c, 0, 56, 64
2, 32640, Note_on_c, 0, 56, 0
2, 32640, Note_on_c, 0, 76, 0
2, 32640, Note_on_c, 0, 49, 0
2, 32640, Note_on_c, 0, 75, 64
2, 32640, Note_on_c, 0, 57, 64
2, 32640, Note_on_c, 0, 54, 64
2, 32880, Note_on_c, 0, 68, 0
2, 32880, Note_on_c, 0, 66, 64
2, 33000, Note_on_c, 0, 66, 0
2, 33000, Note_on_c, 0, 65, 64
2, 33120, Note_on_c, 0, 65, 0
2, 33120, Note_on_c, 0, 75, 0
2, 33120, Note_on_c, 0, 54, 0
2, 33120, Note_on_c, 0, 73, 64
2, 33120, Note_on_c, 0, 66, 64
2, 33120, Note_on_c, 0, 52, 64
2, 33360, Note_on_c, 0, 57, 0
2, 33360, Note_on_c, 0, 58, 64
2, 33600, Note_on_c, 0, 58, 0
2, 33600, Note_on_c, 0, 52, 0
2, 33600, Note_on_c, 0, 73, 0
2, 33600, Note_on_c, 0, 71, 64
2, 33600, Note_on_c, 0, 59, 64
2, 33600, Note_on_c, 0, 51, 64
2, 33840, Note_on_c, 0, 66, 0
2, 33840, Note_on_c, 0, 64, 64
2, 33960, Note_on_c, 0, 64, 0
2, 33960, Note_on_c, 0, 63, 64
2, 34080, Note_on_c, 0, 63, 0
2, 34080, Note_on_c, 0, 71, 0
2, 34080, Note_on_c, 0, 51, 0
2, 34080, Note_on_c, 0, 49, 64
2, 34080, Note_on_c, 0, 73, 64
2, 34080, Note_on_c, 0, 64, 64
2, 34320, Note_on_c, 0, 64, 0
2, 34320, Note_on_c, 0, 59, 0
2, 34320, Note_on_c, 0, 58, 64
2, 34320, Note_on_c, 0, 66, 64
2, 34440, Note_on_c, 0, 66, 0
2, 34440, Note_on_c, 0, 64, 64
2, 34560, Note_on_c, 0, 64, 0
2, 34560, Note_on_c, 0, 58, 0
2, 34560, Note_on_c, 0, 73, 0
2, 34560, Note_on_c, 0, 49, 0
2, 34560, Note_on_c, 0, 66, 64
2, 34560, Note_on_c, 0, 63, 64
2, 34560, Note_on_c, 0, 59, 64
2, 34560, Note_on_c, 0, 47, 64
2, 34800, Note_on_c, 0, 66, 0
2, 34800, Note_on_c, 0, 63, 64
2, 34920, Note_on_c, 0, 59, 0
2, 34920, Note_on_c, 0, 57, 64
2, 35040, Note_on_c, 0, 57, 0
2, 35040, Note_on_c, 0, 63, 0
2, 35040, Note_on_c, 0, 68, 64
2, 35040, Note_on_c, 0, 56, 64
2, 35160, Note_on_c, 0, 56, 0
2, 35160, Note_on_c, 0, 54, 64
2, 35280, Note_on_c, 0, 54, 0
2, 35280, Note_on_c, 0, 63, 0
2, 35280, Note_on_c, 0, 56, 64
2, 35280, Note_on_c, 0, 52, 64
2, 35400, Note_on_c, 0, 52, 0
2, 35400, Note_on_c, 0, 51, 64
2, 35520, Note_on_c, 0, 51, 0
2, 35520, Note_on_c, 0, 56, 0
2, 35520, Note_on_c, 0, 47, 0
2, 35520, Note_on_c, 0, 57, 64
2, 35520, Note_on_c, 0, 52, 64
2, 35520, Note_on_c, 0, 49, 64
2, 35760, Note_on_c, 0, 68, 0
2, 35760, Note_on_c, 0, 66, 64
2, 35880, Note_on_c, 0, 66, 0
2, 35880, Note_on_c, 0, 65, 64
2, 36000, Note_on_c, 0, 65, 0
2, 36000, Note_on_c, 0, 49, 0
2, 36000, Note_on_c, 0, 52, 0
2, 36000, Note_on_c, 0, 52, 64
2, 36000, Note_on_c, 0, 66, 64
2, 36240, Note_on_c, 0, 57, 0
2, 36240, Note_on_c, 0, 58, 64
2, 36480, Note_on_c, 0, 58, 0
2, 36480, Note_on_c, 0, 52, 0
2, 36480, Note_on_c, 0, 59, 64
2, 36480, Note_on_c, 0, 54, 64
2, 36480, Note_on_c, 0, 51, 64
2, 36720, Note_on_c, 0, 66, 0
2, 36720, Note_on_c, 0, 64, 64
2, 36840, Note_on_c, 0, 64, 0
2, 36840, Note_on_c, 0, 63, 64
2, 36960, Note_on_c, 0, 63, 0
2, 36960, Note_on_c, 0, 51, 0
2, 36960, Note_on_c, 0, 64, 64
2, 36960, Note_on_c, 0, 49, 64
2, 37200, Note_on_c, 0, 64, 0
2, 37200, Note_on_c, 0, 59, 0
2, 37200, Note_on_c, 0, 66, 64
2, 37200, Note_on_c, 0, 58, 64
2, 37320, Note_on_c, 0, 66, 0
2, 37320, Note_on_c, 0, 64, 64
2, 37440, Note_on_c, 0, 64, 0
2, 37440, Note_on_c, 0, 58, 0
2, 37440, Note_on_c, 0, 54, 0
2, 37440, Note_on_c, 0, 49, 0
2, 37440, Note_on_c, 0, 63, 64
2, 37440, Note_on_c, 0, 59, 64
2, 37440, Note_on_c, 0, 56, 64
2, 37440, Note_on_c, 0, 47, 64
2, 37583, Note_on_c, 0, 47, 0
2, 37680, Note_on_c, 0, 63, 0
2, 37680, Note_on_c, 0, 71, 64
2, 37680, Note_on_c, 0, 44, 64
2, 37920, Note_on_c, 0, 71, 0
2, 37920, Note_on_c, 0, 59, 0
2, 37920, Note_on_c, 0, 56, 0
2, 37920, Note_on_c, 0, 62, 64
2, 37920, Note_on_c, 0, 65, 64
2, 37920, Note_on_c, 0, 59, 64
2, 38160, Note_on_c, 0, 44, 0
2, 38160, Note_on_c, 0, 45, 64
2, 38280, Note_on_c, 0, 45, 0
2, 38280, Note_on_c, 0, 47, 64
2, 38400, Note_on_c, 0, 47, 0
2, 38400, Note_on_c, 0, 62, 0
2, 38400, Note_on_c, 0, 59, 0
2, 38400, Note_on_c, 0, 61, 64
2, 38400, Note_on_c, 0, 57, 64
2, 38400, Note_on_c, 0, 49, 64
2, 38640, Note_on_c, 0, 65, 0
2, 38640, Note_on_c, 0, 66, 64
2, 38880, Note_on_c, 0, 49, 0
2, 38880, Note_on_c, 0, 57, 0
2, 38880, Note_on_c, 0, 56, 64
2, 38880, Note_on_c, 0, 47, 64
2, 39120, Note_on_c, 0, 66, 0
2, 39120, Note_on_c, 0, 65, 64
2, 39360, Note_on_c, 0, 65, 0
2, 39360, Note_on_c, 0, 47, 0
2, 39360, Note_on_c, 0, 73, 64
2, 39360, Note_on_c, 0, 45, 64
2, 39600, Note_on_c, 0, 56, 0
2, 39600, Note_on_c, 0, 54, 64
2, 39840, Note_on_c, 0, 61, 0
2, 39840, Note_on_c, 0, 45, 0
2, 39840, Note_on_c, 0, 73, 0
2, 39840, Note_on_c, 0, 71, 64
2, 39840, Note_on_c, 0, 44, 64
2, 39840, Note_on_c, 0, 68, 64
2, 40080, Note_on_c, 0, 54, 0
2, 40080, Note_on_c, 0, 53, 64
2, 40320, Note_on_c, 0, 53, 0
2, 40320, Note_on_c, 0, 68, 0
2, 40320, Note_on_c, 0, 44, 0
2, 40320, Note_on_c, 0, 61, 64
2, 40320, Note_on_c, 0, 54, 64
2, 40320, Note_on_c, 0, 42, 64
2, 40560, Note_on_c, 0, 71, 0
2, 40560, Note_on_c, 0, 69, 64
2, 40800, Note_on_c, 0, 61, 0
2, 40800, Note_on_c, 0, 42, 0
2, 40800, Note_on_c, 0, 54, 0
2, 40800, Note_on_c, 0, 59, 64
2, 40800, Note_on_c, 0, 50, 64
2, 40800, Note_on_c, 0, 47, 64
2, 41040, Note_on_c, 0, 69, 0
2, 41040, Note_on_c, 0, 68, 64
2, 41280, Note_on_c, 0, 59, 0
2, 41280, Note_on_c, 0, 47, 0
2, 41280, Note_on_c, 0, 50, 0
2, 41280, Note_on_c, 0, 49, 64
2, 41280, Note_on_c, 0, 57, 64
2, 41520, Note_on_c, 0, 68, 0
2, 41520, Note_on_c, 0, 66, 64
2, 41760, Note_on_c, 0, 57, 0
2, 41760, Note_on_c, 0, 37, 64
2, 41760, Note_on_c, 0, 56, 64
2, 42000, Note_on_c, 0, 66, 0
2, 42000, Note_on_c, 0, 65, 64
2, 42240, Note_on_c, 0, 65, 0
2, 42240, Note_on_c, 0, 56, 0
2, 42240, Note_on_c, 0, 37, 0
2, 42240, Note_on_c, 0, 66, 64
2, 42240, Note_on_c, 0, 57, 64
2, 42240, Note_on_c, 0, 42, 64
2, 42480, Note_on_c, 0, 42, 0
2, 42480, Note_on_c, 0, 57, 0
2, 42480, Note_on_c, 0, 59, 64
2, 42480, Note_on_c, 0, 44, 64
2, 42720, Note_on_c, 0, 44, 0
2, 42720, Note_on_c, 0, 59, 0
2, 42720, Note_on_c, 0, 61, 64
2, 42720, Note_on_c, 0, 45, 64
2, 42960, Note_on_c, 0, 45, 0
2, 42960, Note_on_c, 0, 49, 0
2, 42960, Note_on_c, 0, 51, 64
2, 42960, Note_on_c, 0, 42, 64
2, 43200, Note_on_c, 0, 42, 0
2, 43200, Note_on_c, 0, 51, 0
2, 43200, Note_on_c, 0, 66, 0
2, 43200, Note_on_c, 0, 68, 64
2, 43200, Note_on_c, 0, 53, 64
2, 43200, Note_on_c, 0, 49, 64
2, 43440, Note_on_c, 0, 53, 0
2, 43440, Note_on_c, 0, 68, 0
2, 43440, Note_on_c, 0, 69, 64
2, 43440, Note_on_c, 0, 49, 64
2, 43680, Note_on_c, 0, 49, 0
2, 43680, Note_on_c, 0, 49, 0
2, 43680, Note_on_c, 0, 61, 0
2, 43680, Note_on_c, 0, 69, 0
2, 43680, Note_on_c, 0, 56, 64
2, 43680, Note_on_c, 0, 71, 64
2, 43680, Note_on_c, 0, 63, 64
2, 43680, Note_on_c, 0, 47, 64
2, 43920, Note_on_c, 0, 47, 0
2, 43920, Note_on_c, 0, 63, 0
2, 43920, Note_on_c, 0, 49, 64
2, 43920, Note_on_c, 0, 65, 64
2, 44160, Note_on_c, 0, 65, 0
2, 44160, Note_on_c, 0, 49, 0
2, 44160, Note_on_c, 0, 56, 0
2, 44160, Note_on_c, 0, 66, 64
2, 44160, Note_on_c, 0, 54, 64
2, 44160, Note_on_c, 0, 50, 64
2, 44400, Note_on_c, 0, 50, 0
2, 44400, Note_on_c, 0, 71, 0
2, 44400, Note_on_c, 0, 69, 64
2, 44400, Note_on_c, 0, 49, 64
2, 44640, Note_on_c, 0, 49, 0
2, 44640, Note_on_c, 0, 69, 0
2, 44640, Note_on_c, 0, 54, 0
2, 44640, Note_on_c, 0, 68, 64
2, 44640, Note_on_c, 0, 56, 64
2, 44640, Note_on_c, 0, 48, 64
2, 44880, Note_on_c, 0, 48, 0
2, 44880, Note_on_c, 0, 56, 0
2, 44880, Note_on_c, 0, 66, 0
2, 44880, Note_on_c, 0, 64, 64
2, 44880, Note_on_c, 0, 49, 64
2, 45120, Note_on_c, 0, 64, 0
2, 45120, Note_on_c, 0, 68, 0
2, 45120, Note_on_c, 0, 66, 64
2, 45120, Note_on_c, 0, 63, 64
2, 45120, Note_on_c, 0, 42, 64
2, 45360, Note_on_c, 0, 42, 0
2, 45360, Note_on_c, 0, 49, 0
2, 45360, Note_on_c, 0, 48, 64
2, 45360, Note_on_c, 0, 44, 64
2, 45600, Note_on_c, 0, 44, 0
2, 45600, Note_on_c, 0, 66, 0
2, 45600, Note_on_c, 0, 63, 0
2, 45600, Note_on_c, 0, 48, 0
2, 45600, Note_on_c, 0, 45, 64
2, 45600, Note_on_c, 0, 61, 64
2, 45600, Note_on_c, 0, 64, 64
2, 45600, Note_on_c, 0, 49, 64
2, 45840, Note_on_c, 0, 49, 0
2, 45840, Note_on_c, 0, 64, 0
2, 45840, Note_on_c, 0, 66, 64
2, 45840, Note_on_c, 0, 51, 64
2, 46080, Note_on_c, 0, 51, 0
2, 46080, Note_on_c, 0, 66, 0
2, 46080, Note_on_c, 0, 45, 0
2, 46080, Note_on_c, 0, 68, 64
2, 46080, Note_on_c, 0, 52, 64
2, 46080, Note_on_c, 0, 44, 64
2, 46320, Note_on_c, 0, 52, 0
2, 46320, Note_on_c, 0, 61, 0
2, 46320, Note_on_c, 0, 63, 64
2, 46320, Note_on_c, 0, 54, 64
2, 46440, Note_on_c, 0, 54, 0
2, 46440, Note_on_c, 0, 63, 0
2, 46440, Note_on_c, 0, 61, 64
2, 46440, Note_on_c, 0, 52, 64
2, 46560, Note_on_c, 0, 52, 0
2, 46560, Note_on_c, 0, 61, 0
2, 46560, Note_on_c, 0, 60, 64
2, 46560, Note_on_c, 0, 51, 64
2, 46800, Note_on_c, 0, 68, 0
2, 46800, Note_on_c, 0, 69, 64
2, 47040, Note_on_c, 0, 69, 0
2, 47040, Note_on_c, 0, 44, 0
2, 47040, Note_on_c, 0, 60, 0
2, 47040, Note_on_c, 0, 68, 64
2, 47040, Note_on_c, 0, 61, 64
2, 47040, Note_on_c, 0, 46, 64
2, 47280, Note_on_c, 0, 46, 0
2, 47280, Note_on_c, 0, 61, 0
2, 47280, Note_on_c, 0, 68, 0
2, 47280, Note_on_c, 0, 66, 64
2, 47280, Note_on_c, 0, 63, 64
2, 47280, Note_on_c, 0, 48, 64
2, 47520, Note_on_c, 0, 48, 0
2, 47520, Note_on_c, 0, 51, 0
2, 47520, Note_on_c, 0, 66, 0
2, 47520, Note_on_c, 0, 63, 0
2, 47520, Note_on_c, 0, 56, 64
2, 47520, Note_on_c, 0, 49, 64
2, 47520, Note_on_c, 0, 64, 64
2, 47520, Note_on_c, 0, 52, 64
2, 47760, Note_on_c, 0, 52, 0
2, 47760, Note_on_c, 0, 54, 64
2, 48000, Note_on_c, 0, 54, 0
2, 48000, Note_on_c, 0, 64, 0
2, 48000, Note_on_c, 0, 56, 0
2, 48000, Note_on_c, 0, 63, 64
2, 48000, Note_on_c, 0, 56, 64
2, 48240, Note_on_c, 0, 63, 0
2, 48240, Note_on_c, 0, 49, 0
2, 48240, Note_on_c, 0, 64, 64
2, 48240, Note_on_c, 0, 47, 64
2, 48360, Note_on_c, 0, 64, 0
2, 48360, Note_on_c, 0, 63, 64
2, 48480, Note_on_c, 0, 63, 0
2, 48480, Note_on_c, 0, 47, 0
2, 48480, Note_on_c, 0, 61, 64
2, 48480, Note_on_c, 0, 45, 64
2, 48720, Note_on_c, 0, 61, 0
2, 48720, Note_on_c, 0, 56, 0
2, 48720, Note_on_c, 0, 69, 64
2, 48720, Note_on_c, 0, 54, 64
2, 48960, Note_on_c, 0, 54, 0
2, 48960, Note_on_c, 0, 69, 0
2, 48960, Note_on_c, 0, 45, 0
2, 48960, Note_on_c, 0, 44, 64
2, 48960, Note_on_c, 0, 60, 64
2, 48960, Note_on_c, 0, 52, 64
2, 49200, Note_on_c, 0, 60, 0
2, 49200, Note_on_c, 0, 61, 64
2, 49440, Note_on_c, 0, 52, 0
2, 49440, Note_on_c, 0, 68, 64
2, 49440, Note_on_c, 0, 51, 64
2, 49680, Note_on_c, 0, 61, 0
2, 49680, Note_on_c, 0, 60, 64
2, 49920, Note_on_c, 0, 60, 0
2, 49920, Note_on_c, 0, 51, 0
2, 49920, Note_on_c, 0, 68, 0
2, 49920, Note_on_c, 0, 69, 64
2, 49920, Note_on_c, 0, 61, 64
2, 49920, Note_on_c, 0, 52, 64
2, 50160, Note_on_c, 0, 69, 0
2, 50160, Note_on_c, 0, 73, 64
2, 50400, Note_on_c, 0, 73, 0
2, 50400, Note_on_c, 0, 52, 0
2, 50400, Note_on_c, 0, 61, 0
2, 50400, Note_on_c, 0, 44, 0
2, 50400, Note_on_c, 0, 71, 64
2, 50400, Note_on_c, 0, 63, 64
2, 50400, Note_on_c, 0, 42, 64
2, 50640, Note_on_c, 0, 71, 0
2, 50640, Note_on_c, 0, 69, 64
2, 50880, Note_on_c, 0, 69, 0
2, 50880, Note_on_c, 0, 42, 0
2, 50880, Note_on_c, 0, 63, 0
2, 50880, Note_on_c, 0, 68, 64
2, 50880, Note_on_c, 0, 64, 64
2, 50880, Note_on_c, 0, 40, 64
2, 51120, Note_on_c, 0, 40, 0
2, 51120, Note_on_c, 0, 64, 0
2, 51120, Note_on_c, 0, 68, 64
2, 51120, Note_on_c, 0, 37, 64
2, 51360, Note_on_c, 0, 37, 0
2, 51360, Note_on_c, 0, 68, 0
2, 51360, Note_on_c, 0, 68, 0
2, 51360, Note_on_c, 0, 42, 64
2, 51360, Note_on_c, 0, 70, 64
2, 51360, Note_on_c, 0, 66, 64
2, 51600, Note_on_c, 0, 66, 0
2, 51600, Note_on_c, 0, 64, 64
2, 51840, Note_on_c, 0, 64, 0
2, 51840, Note_on_c, 0, 70, 0
2, 51840, Note_on_c, 0, 42, 0
2, 51840, Note_on_c, 0, 71, 64
2, 51840, Note_on_c, 0, 63, 64
2, 51840, Note_on_c, 0, 47, 64
2, 52080, Note_on_c, 0, 63, 0
2, 52080, Note_on_c, 0, 69, 64
2, 52320, Note_on_c, 0, 69, 0
2, 52320, Note_on_c, 0, 47, 0
2, 52320, Note_on_c, 0, 68, 64
2, 52320, Note_on_c, 0, 59, 64
2, 52560, Note_on_c, 0, 68, 0
2, 52560, Note_on_c, 0, 66, 64
2, 52800, Note_on_c, 0, 66, 0
2, 52800, Note_on_c, 0, 59, 0
2, 52800, Note_on_c, 0, 64, 64
2, 52800, Note_on_c, 0, 61, 64
2, 53040, Note_on_c, 0, 61, 0
2, 53040, Note_on_c, 0, 64, 0
2, 53040, Note_on_c, 0, 68, 64
2, 53040, Note_on_c, 0, 64, 64
2, 53280, Note_on_c, 0, 64, 0
2, 53280, Note_on_c, 0, 68, 0
2, 53280, Note_on_c, 0, 54, 64
2, 53280, Note_on_c, 0, 66, 64
2, 53280, Note_on_c, 0, 63, 64
2, 53520, Note_on_c, 0, 63, 0
2, 53520, Note_on_c, 0, 66, 0
2, 53520, Note_on_c, 0, 71, 0
2, 53520, Note_on_c, 0, 61, 64
2, 53520, Note_on_c, 0, 64, 64
2, 53520, Note_on_c, 0, 70, 64
2, 53760, Note_on_c, 0, 70, 0
2, 53760, Note_on_c, 0, 54, 0
2, 53760, Note_on_c, 0, 61, 0
2, 53760, Note_on_c, 0, 64, 0
2, 53760, Note_on_c, 0, 71, 64
2, 53760, Note_on_c, 0, 63, 64
2, 53760, Note_on_c, 0, 59, 64
2, 53760, Note_on_c, 0, 56, 64
2, 54000, Note_on_c, 0, 56, 0
2, 54000, Note_on_c, 0, 71, 0
2, 54000, Note_on_c, 0, 63, 0
2, 54000, Note_on_c, 0, 59, 0
2, 54000, Note_on_c, 0, 68, 64
2, 54000, Note_on_c, 0, 64, 64
2, 54000, Note_on_c, 0, 62, 64
2, 54000, Note_on_c, 0, 59, 64
2, 54240, Note_on_c, 0, 59, 0
2, 54240, Note_on_c, 0, 68, 0
2, 54240, Note_on_c, 0, 64, 0
2, 54240, Note_on_c, 0, 62, 0
2, 54240, Note_on_c, 0, 69, 64
2, 54240, Note_on_c, 0, 66, 64
2, 54240, Note_on_c, 0, 61, 64
2, 54240, Note_on_c, 0, 57, 64
2, 54480, Note_on_c, 0, 57, 0
2, 54480, Note_on_c, 0, 69, 0
2, 54480, Note_on_c, 0, 66, 0
2, 54480, Note_on_c, 0, 61, 0
2, 54480, Note_on_c, 0, 71, 64
2, 54480, Note_on_c, 0, 68, 64
2, 54480, Note_on_c, 0, 59, 64
2, 54480, Note_on_c, 0, 56, 64
2, 54720, Note_on_c, 0, 56, 0
2, 54720, Note_on_c, 0, 71, 0
2, 54720, Note_on_c, 0, 68, 0
2, 54720, Note_on_c, 0, 59, 0
2, 54720, Note_on_c, 0, 73, 64
2, 54720, Note_on_c, 0, 69, 64
2, 54720, Note_on_c, 0, 57, 64
2, 54720, Note_on_c, 0, 54, 64
2, 54960, Note_on_c, 0, 73, 0
2, 54960, Note_on_c, 0, 75, 64
2, 55200, Note_on_c, 0, 75, 0
2, 55200, Note_on_c, 0, 54, 0
2, 55200, Note_on_c, 0, 57, 0
2, 55200, Note_on_c, 0, 52, 64
2, 55200, Note_on_c, 0, 59, 64
2, 55200, Note_on_c, 0, 76, 64
2, 55440, Note_on_c, 0, 69, 0
2, 55440, Note_on_c, 0, 68, 64
2, 55680, Note_on_c, 0, 68, 0
2, 55680, Note_on_c, 0, 52, 0
2, 55680, Note_on_c, 0, 59, 0
2, 55680, Note_on_c, 0, 66, 64
2, 55680, Note_on_c, 0, 59, 64
2, 55920, Note_on_c, 0, 66, 0
2, 55920, Note_on_c, 0, 64, 64
2, 56160, Note_on_c, 0, 64, 0
2, 56160, Note_on_c, 0, 66, 64
2, 56160, Note_on_c, 0, 47, 64
2, 56400, Note_on_c, 0, 59, 0
2, 56400, Note_on_c, 0, 76, 0
2, 56400, Note_on_c, 0, 75, 64
2, 56400, Note_on_c, 0, 57, 64
2, 56640, Note_on_c, 0, 57, 0
2, 56640, Note_on_c, 0, 47, 0
2, 56640, Note_on_c, 0, 66, 0
2, 56640, Note_on_c, 0, 75, 0
2, 56640, Note_on_c, 0, 64, 64
2, 56640, Note_on_c, 0, 76, 64
2, 56640, Note_on_c, 0, 56, 64
2, 56640, Note_on_c, 0, 49, 64
2, 56880, Note_on_c, 0, 49, 0
2, 56880, Note_on_c, 0, 76, 0
2, 56880, Note_on_c, 0, 71, 64
2, 56880, Note_on_c, 0, 52, 64
2, 57120, Note_on_c, 0, 52, 0
2, 57120, Note_on_c, 0, 51, 64
2, 57360, Note_on_c, 0, 51, 0
2, 57360, Note_on_c, 0, 71, 0
2, 57360, Note_on_c, 0, 56, 0
2, 57360, Note_on_c, 0, 70, 64
2, 57360, Note_on_c, 0, 49, 64
2, 57360, Note_on_c, 0, 61, 64
2, 57600, Note_on_c, 0, 61, 0
2, 57600, Note_on_c, 0, 64, 0
2, 57600, Note_on_c, 0, 70, 0
2, 57600, Note_on_c, 0, 49, 0
2, 57600, Note_on_c, 0, 51, 64
2, 57600, Note_on_c, 0, 71, 64
2, 57600, Note_on_c, 0, 66, 64
2, 57600, Note_on_c, 0, 54, 64
2, 57840, Note_on_c, 0, 54, 0
2, 57840, Note_on_c, 0, 51, 0
2, 57840, Note_on_c, 0, 51, 64
2, 57840, Note_on_c, 0, 47, 64
2, 58080, Note_on_c, 0, 47, 0
2, 58080, Note_on_c, 0, 71, 0
2, 58080, Note_on_c, 0, 66, 0
2, 58080, Note_on_c, 0, 51, 0
2, 58080, Note_on_c, 0, 69, 64
2, 58080, Note_on_c, 0, 52, 64
2, 58080, Note_on_c, 0, 49, 64
2, 58320, Note_on_c, 0, 49, 0
2, 58320, Note_on_c, 0, 52, 0
2, 58320, Note_on_c, 0, 78, 64
2, 58320, Note_on_c, 0, 54, 64
2, 58320, Note_on_c, 0, 51, 64
2, 58560, Note_on_c, 0, 51, 0
2, 58560, Note_on_c, 0, 69, 0
2, 58560, Note_on_c, 0, 78, 0
2, 58560, Note_on_c, 0, 54, 0
2, 58560, Note_on_c, 0, 71, 64
2, 58560, Note_on_c, 0, 68, 64
2, 58560, Note_on_c, 0, 56, 64
2, 58560, Note_on_c, 0, 52, 64
2, 58800, Note_on_c, 0, 56, 0
2, 58800, Note_on_c, 0, 71, 0
2, 58800, Note_on_c, 0, 68, 64
2, 58800, Note_on_c, 0, 59, 64
2, 59040, Note_on_c, 0, 59, 0
2, 59040, Note_on_c, 0, 68, 0
2, 59040, Note_on_c, 0, 68, 0
2, 59040, Note_on_c, 0, 66, 64
2, 59040, Note_on_c, 0, 69, 64
2, 59040, Note_on_c, 0, 61, 64
2, 59280, Note_on_c, 0, 61, 0
2, 59280, Note_on_c, 0, 69, 0
2, 59280, Note_on_c, 0, 52, 0
2, 59280, Note_on_c, 0, 51, 64
2, 59280, Note_on_c, 0, 63, 64
2, 59280, Note_on_c, 0, 71, 64
2, 59520, Note_on_c, 0, 71, 0
2, 59520, Note_on_c, 0, 66, 0
2, 59520, Note_on_c, 0, 51, 0
2, 59520, Note_on_c, 0, 63, 0
2, 59520, Note_on_c, 0, 52, 64
2, 59520, Note_on_c, 0, 73, 64
2, 59520, Note_on_c, 0, 64, 64
2, 59520, Note_on_c, 0, 56, 64
2, 59760, Note_on_c, 0, 56, 0
2, 59760, Note_on_c, 0, 64, 0
2, 59760, Note_on_c, 0, 52, 0
2, 59760, Note_on_c, 0, 52, 64
2, 59760, Note_on_c, 0, 69, 64
2, 59760, Note_on_c, 0, 49, 64
2, 60000, Note_on_c, 0, 49, 0
2, 60000, Note_on_c, 0, 73, 0
2, 60000, Note_on_c, 0, 52, 0
2, 60000, Note_on_c, 0, 71, 64
2, 60000, Note_on_c, 0, 54, 64
2, 60000, Note_on_c, 0, 51, 64
2, 60240, Note_on_c, 0, 51, 0
2, 60240, Note_on_c, 0, 54, 0
2, 60240, Note_on_c, 0, 69, 0
2, 60240, Note_on_c, 0, 68, 64
2, 60240, Note_on_c, 0, 56, 64
2, 60240, Note_on_c, 0, 53, 64
2, 60480, Note_on_c, 0, 53, 0
2, 60480, Note_on_c, 0, 71, 0
2, 60480, Note_on_c, 0, 68, 0
2, 60480, Note_on_c, 0, 56, 0
2, 60480, Note_on_c, 0, 69, 64
2, 60480, Note_on_c, 0, 66, 64
2, 60480, Note_on_c, 0, 57, 64
2, 60480, Note_on_c, 0, 54, 64
2, 60720, Note_on_c, 0, 57, 0
2, 60720, Note_on_c, 0, 66, 0
2, 60720, Note_on_c, 0, 74, 64
2, 60720, Note_on_c, 0, 59, 64
2, 60960, Note_on_c, 0, 59, 0
2, 60960, Note_on_c, 0, 74, 0
2, 60960, Note_on_c, 0, 69, 0
2, 60960, Note_on_c, 0, 61, 64
2, 60960, Note_on_c, 0, 68, 64
2, 60960, Note_on_c, 0, 73, 64
2, 61200, Note_on_c, 0, 73, 0
2, 61200, Note_on_c, 0, 54, 0
2, 61200, Note_on_c, 0, 53, 64
2, 61200, Note_on_c, 0, 71, 64
2, 61440, Note_on_c, 0, 71, 0
2, 61440, Note_on_c, 0, 53, 0
2, 61440, Note_on_c, 0, 68, 0
2, 61440, Note_on_c, 0, 66, 64
2, 61440, Note_on_c, 0, 69, 64
2, 61440, Note_on_c, 0, 54, 64
2, 61680, Note_on_c, 0, 54, 0
2, 61680, Note_on_c, 0, 61, 0
2, 61680, Note_on_c, 0, 66, 0
2, 61680, Note_on_c, 0, 69, 0
2, 61680, Note_on_c, 0, 76, 64
2, 61680, Note_on_c, 0, 67, 64
2, 61680, Note_on_c, 0, 61, 64
2, 61680, Note_on_c, 0, 51, 64
2, 61920, Note_on_c, 0, 51, 0
2, 61920, Note_on_c, 0, 76, 0
2, 61920, Note_on_c, 0, 67, 0
2, 61920, Note_on_c, 0, 61, 0
2, 61920, Note_on_c, 0, 75, 64
2, 61920, Note_on_c, 0, 68, 64
2, 61920, Note_on_c, 0, 59, 64
2, 61920, Note_on_c, 0, 53, 64
2, 62160, Note_on_c, 0, 53, 0
2, 62160, Note_on_c, 0, 75, 0
2, 62160, Note_on_c, 0, 68, 0
2, 62160, Note_on_c, 0, 59, 0
2, 62160, Note_on_c, 0, 73, 64
2, 62160, Note_on_c, 0, 70, 64
2, 62160, Note_on_c, 0, 58, 64
2, 62160, Note_on_c, 0, 55, 64
2, 62400, Note_on_c, 0, 55, 0
2, 62400, Note_on_c, 0, 73, 0
2, 62400, Note_on_c, 0, 70, 0
2, 62400, Note_on_c, 0, 58, 0
2, 62400, Note_on_c, 0, 71, 64
2, 62400, Note_on_c, 0, 68, 64
2, 62400, Note_on_c, 0, 59, 64
2, 62400, Note_on_c, 0, 56, 64
2, 62640, Note_on_c, 0, 59, 0
2, 62640, Note_on_c, 0, 68, 0
2, 62640, Note_on_c, 0, 66, 64
2, 62640, Note_on_c, 0, 63, 64
2, 62880, Note_on_c, 0, 63, 0
2, 62880, Note_on_c, 0, 66, 0
2, 62880, Note_on_c, 0, 71, 0
2, 62880, Note_on_c, 0, 61, 64
2, 62880, Note_on_c, 0, 64, 64
2, 62880, Note_on_c, 0, 70, 64
2, 63120, Note_on_c, 0, 56, 0
2, 63120, Note_on_c, 0, 55, 64
2, 63360, Note_on_c, 0, 55, 0
2, 63360, Note_on_c, 0, 61, 0
2, 63360, Note_on_c, 0, 64, 0
2, 63360, Note_on_c, 0, 63, 64
2, 63360, Note_on_c, 0, 59, 64
2, 63360, Note_on_c, 0, 56, 64
2, 63600, Note_on_c, 0, 70, 0
2, 63600, Note_on_c, 0, 68, 64
2, 63720, Note_on_c, 0, 68, 0
2, 63720, Note_on_c, 0, 67, 64
2, 63840, Note_on_c, 0, 67, 0
2, 63840, Note_on_c, 0, 63, 0
2, 63840, Note_on_c, 0, 56, 0
2, 63840, Note_on_c, 0, 68, 64
2, 63840, Note_on_c, 0, 62, 64
2, 63840, Note_on_c, 0, 53, 64
2, 64080, Note_on_c, 0, 59, 0
2, 64080, Note_on_c, 0, 58, 64
2, 64200, Note_on_c, 0, 58, 0
2, 64200, Note_on_c, 0, 56, 64
2, 64320, Note_on_c, 0, 56, 0
2, 64320, Note_on_c, 0, 53, 0
2, 64320, Note_on_c, 0, 62, 0
2, 64320, Note_on_c, 0, 63, 64
2, 64320, Note_on_c, 0, 58, 64
2, 64320, Note_on_c, 0, 51, 64
2, 64560, Note_on_c, 0, 58, 0
2, 64560, Note_on_c, 0, 59, 64
2, 64800, Note_on_c, 0, 59, 0
2, 64800, Note_on_c, 0, 51, 0
2, 64800, Note_on_c, 0, 39, 64
2, 64800, Note_on_c, 0, 61, 64
2, 65040, Note_on_c, 0, 68, 0
2, 65040, Note_on_c, 0, 67, 64
2, 65280, Note_on_c, 0, 67, 0
2, 65280, Note_on_c, 0, 61, 0
2, 65280, Note_on_c, 0, 39, 0
2, 65280, Note_on_c, 0, 63, 0
2, 65280, Note_on_c, 0, 59, 64
2, 65280, Note_on_c, 0, 68, 64
2, 65280, Note_on_c, 0, 63, 64
2, 65280, Note_on_c, 0, 44, 64
2, 65760, Note_on_c, 0, 44, 0
2, 65760, Note_on_c, 0, 59, 0
2, 65760, Note_on_c, 0, 68, 0
2, 65760, Note_on_c, 0, 63, 0
2, 65760, Note_on_c, 0, 59, 64
2, 66000, Note_on_c, 0, 71, 64
2, 66240, Note_on_c, 0, 71, 0
2, 66240, Note_on_c, 0, 59, 0
2, 66240, Note_on_c, 0, 52, 64
2, 66240, Note_on_c, 0, 68, 64
2, 66240, Note_on_c, 0, 61, 64
2, 66480, Note_on_c, 0, 68, 0
2, 66480, Note_on_c, 0, 64, 64
2, 66720, Note_on_c, 0, 64, 0
2, 66720, Note_on_c, 0, 61, 0
2, 66720, Note_on_c, 0, 64, 64
2, 66720, Note_on_c, 0, 66, 64
2, 66960, Note_on_c, 0, 66, 0
2, 66960, Note_on_c, 0, 68, 64
2, 67200, Note_on_c, 0, 68, 0
2, 67200, Note_on_c, 0, 64, 0
2, 67200, Note_on_c, 0, 52, 0
2, 67200, Note_on_c, 0, 69, 64
2, 67200, Note_on_c, 0, 63, 64
2, 67200, Note_on_c, 0, 54, 64
2, 67440, Note_on_c, 0, 69, 0
2, 67440, Note_on_c, 0, 71, 64
2, 67680, Note_on_c, 0, 71, 0
2, 67680, Note_on_c, 0, 54, 0
2, 67680, Note_on_c, 0, 63, 0
2, 67680, Note_on_c, 0, 73, 64
2, 67680, Note_on_c, 0, 61, 64
2, 67680, Note_on_c, 0, 57, 64
2, 67920, Note_on_c, 0, 73, 0
2, 67920, Note_on_c, 0, 75, 64
2, 68160, Note_on_c, 0, 75, 0
2, 68160, Note_on_c, 0, 57, 0
2, 68160, Note_on_c, 0, 61, 0
2, 68160, Note_on_c, 0, 47, 64
2, 68160, Note_on_c, 0, 76, 64
2, 68160, Note_on_c, 0, 59, 64
2, 68160, Note_on_c, 0, 56, 64
2, 68280, Note_on_c, 0, 76, 0
2, 68280, Note_on_c, 0, 71, 64
2, 68400, Note_on_c, 0, 71, 0
2, 68400, Note_on_c, 0, 76, 64
2, 68640, Note_on_c, 0, 56, 0
2, 68640, Note_on_c, 0, 59, 0
2, 68640, Note_on_c, 0, 54, 64
2, 68640, Note_on_c, 0, 71, 64
2, 68880, Note_on_c, 0, 76, 0
2, 68880, Note_on_c, 0, 75, 64
2, 69120, Note_on_c, 0, 47, 0
2, 69120, Note_on_c, 0, 71, 0
2, 69120, Note_on_c, 0, 54, 0
2, 69120, Note_on_c, 0, 68, 64
2, 69120, Note_on_c, 0, 52, 64
2, 69120, Note_on_c, 0, 49, 64
2, 69360, Note_on_c, 0, 68, 0
2, 69360, Note_on_c, 0, 75, 0
2, 69360, Note_on_c, 0, 73, 64
2, 69360, Note_on_c, 0, 64, 64
2, 69480, Note_on_c, 0, 73, 0
2, 69480, Note_on_c, 0, 71, 64
2, 69600, Note_on_c, 0, 71, 0
2, 69600, Note_on_c, 0, 64, 0
2, 69600, Note_on_c, 0, 52, 0
2, 69600, Note_on_c, 0, 49, 0
2, 69600, Note_on_c, 0, 73, 64
2, 69600, Note_on_c, 0, 68, 64
2, 69600, Note_on_c, 0, 52, 64
2, 69840, Note_on_c, 0, 68, 0
2, 69840, Note_on_c, 0, 70, 64
2, 70080, Note_on_c, 0, 70, 0
2, 70080, Note_on_c, 0, 52, 0
2, 70080, Note_on_c, 0, 73, 0
2, 70080, Note_on_c, 0, 71, 64
2, 70080, Note_on_c, 0, 51, 64
2, 70200, Note_on_c, 0, 66, 64
2, 70320, Note_on_c, 0, 66, 0
2, 70320, Note_on_c, 0, 71, 0
2, 70320, Note_on_c, 0, 71, 64
2, 70560, Note_on_c, 0, 51, 0
2, 70560, Note_on_c, 0, 76, 64
2, 70560, Note_on_c, 0, 49, 64
2, 70800, Note_on_c, 0, 71, 0
2, 70800, Note_on_c, 0, 52, 64
2, 70800, Note_on_c, 0, 69, 64
2, 71040, Note_on_c, 0, 52, 0
2, 71040, Note_on_c, 0, 76, 0
2, 71040, Note_on_c, 0, 49, 0
2, 71040, Note_on_c, 0, 78, 64
2, 71040, Note_on_c, 0, 51, 64
2, 71040, Note_on_c, 0, 47, 64
2, 71280, Note_on_c, 0, 51, 0
2, 71280, Note_on_c, 0, 69, 0
2, 71280, Note_on_c, 0, 63, 64
2, 71280, Note_on_c, 0, 59, 64
2, 71520, Note_on_c, 0, 59, 0
2, 71520, Note_on_c, 0, 47, 0
2, 71520, Note_on_c, 0, 78, 0
2, 71520, Note_on_c, 0, 63, 0
2, 71520, Note_on_c, 0, 81, 64
2, 71520, Note_on_c, 0, 64, 64
2, 71520, Note_on_c, 0, 61, 64
2, 71760, Note_on_c, 0, 61, 0
2, 71760, Note_on_c, 0, 64, 0
2, 71760, Note_on_c, 0, 66, 64
2, 71760, Note_on_c, 0, 63, 64
2, 72000, Note_on_c, 0, 63, 0
2, 72000, Note_on_c, 0, 66, 0
2, 72000, Note_on_c, 0, 81, 0
2, 72000, Note_on_c, 0, 80, 64
2, 72000, Note_on_c, 0, 68, 64
2, 72000, Note_on_c, 0, 64, 64
2, 72120, Note_on_c, 0, 64, 0
2, 72120, Note_on_c, 0, 59, 64
2, 72240, Note_on_c, 0, 59, 0
2, 72240, Note_on_c, 0, 68, 0
2, 72240, Note_on_c, 0, 73, 64
2, 72240, Note_on_c, 0, 64, 64
2, 72480, Note_on_c, 0, 73, 0
2, 72480, Note_on_c, 0, 80, 0
2, 72480, Note_on_c, 0, 78, 64
2, 72480, Note_on_c, 0, 69, 64
2, 72720, Note_on_c, 0, 69, 0
2, 72720, Note_on_c, 0, 64, 0
2, 72720, Note_on_c, 0, 71, 64
2, 72720, Note_on_c, 0, 63, 64
2, 72960, Note_on_c, 0, 71, 0
2, 72960, Note_on_c, 0, 78, 0
2, 72960, Note_on_c, 0, 76, 64
2, 72960, Note_on_c, 0, 68, 64
2, 73080, Note_on_c, 0, 63, 0
2, 73080, Note_on_c, 0, 56, 64
2, 73200, Note_on_c, 0, 56, 0
2, 73200, Note_on_c, 0, 68, 0
2, 73200, Note_on_c, 0, 69, 64
2, 73200, Note_on_c, 0, 61, 64
2, 73440, Note_on_c, 0, 69, 0
2, 73440, Note_on_c, 0, 76, 0
2, 73440, Note_on_c, 0, 75, 64
2, 73440, Note_on_c, 0, 66, 64
2, 73680, Note_on_c, 0, 66, 0
2, 73680, Note_on_c, 0, 61, 0
2, 73680, Note_on_c, 0, 68, 64
2, 73680, Note_on_c, 0, 59, 64
2, 73920, Note_on_c, 0, 68, 0
2, 73920, Note_on_c, 0, 75, 0
2, 73920, Note_on_c, 0, 73, 64
2, 73920, Note_on_c, 0, 64, 64
2, 74040, Note_on_c, 0, 59, 0
2, 74040, Note_on_c, 0, 52, 64
2, 74160, Note_on_c, 0, 52, 0
2, 74160, Note_on_c, 0, 64, 0
2, 74160, Note_on_c, 0, 66, 64
2, 74160, Note_on_c, 0, 57, 64
2, 74400, Note_on_c, 0, 66, 0
2, 74400, Note_on_c, 0, 73, 0
2, 74400, Note_on_c, 0, 71, 64
2, 74400, Note_on_c, 0, 63, 64
2, 74640, Note_on_c, 0, 63, 0
2, 74640, Note_on_c, 0, 57, 0
2, 74640, Note_on_c, 0, 56, 64
2, 74640, Note_on_c, 0, 64, 64
2, 74880, Note_on_c, 0, 56, 0
2, 74880, Note_on_c, 0, 54, 64
2, 74880, Note_on_c, 0, 47, 64
2, 75120, Note_on_c, 0, 64, 0
2, 75120, Note_on_c, 0, 71, 0
2, 75120, Note_on_c, 0, 73, 64
2, 75120, Note_on_c, 0, 63, 64
2, 75240, Note_on_c, 0, 63, 0
2, 75240, Note_on_c, 0, 61, 64
2, 75360, Note_on_c, 0, 61, 0
2, 75360, Note_on_c, 0, 73, 0
2, 75360, Note_on_c, 0, 71, 64
2, 75360, Note_on_c, 0, 63, 64
2, 75600, Note_on_c, 0, 71, 0
2, 75600, Note_on_c, 0, 69, 64
2, 75840, Note_on_c, 0, 69, 0
2, 75840, Note_on_c, 0, 63, 0
2, 75840, Note_on_c, 0, 54, 0
2, 75840, Note_on_c, 0, 47, 0
2, 75840, Note_on_c, 0, 68, 64
2, 75840, Note_on_c, 0, 52, 64
2, 75840, Note_on_c, 0, 49, 64
2, 76080, Note_on_c, 0, 52, 0
2, 76080, Note_on_c, 0, 64, 64
2, 76080, Note_on_c, 0, 56, 64
2, 76200, Note_on_c, 0, 64, 0
2, 76200, Note_on_c, 0, 66, 64
2, 76320, Note_on_c, 0, 66, 0
2, 76320, Note_on_c, 0, 56, 0
2, 76320, Note_on_c, 0, 49, 0
2, 76320, Note_on_c, 0, 68, 0
2, 76320, Note_on_c, 0, 52, 64
2, 76320, Note_on_c, 0, 68, 64
2, 76320, Note_on_c, 0, 61, 64
2, 76560, Note_on_c, 0, 61, 0
2, 76560, Note_on_c, 0, 68, 0
2, 76560, Note_on_c, 0, 70, 64
2, 76560, Note_on_c, 0, 54, 64
2, 76800, Note_on_c, 0, 70, 0
2, 76800, Note_on_c, 0, 52, 0
2, 76800, Note_on_c, 0, 71, 64
2, 76800, Note_on_c, 0, 51, 64
2, 76920, Note_on_c, 0, 71, 0
2, 76920, Note_on_c, 0, 66, 64
2, 77040, Note_on_c, 0, 66, 0
2, 77040, Note_on_c, 0, 54, 0
2, 77040, Note_on_c, 0, 71, 64
2, 77040, Note_on_c, 0, 54, 64
2, 77280, Note_on_c, 0, 54, 0
2, 77280, Note_on_c, 0, 51, 0
2, 77280, Note_on_c, 0, 76, 64
2, 77280, Note_on_c, 0, 56, 64
2, 77280, Note_on_c, 0, 49, 64
2, 77520, Note_on_c, 0, 56, 0
2, 77520, Note_on_c, 0, 71, 0
2, 77520, Note_on_c, 0, 69, 64
2, 77520, Note_on_c, 0, 57, 64
2, 77760, Note_on_c, 0, 57, 0
2, 77760, Note_on_c, 0, 49, 0
2, 77760, Note_on_c, 0, 76, 0
2, 77760, Note_on_c, 0, 75, 64
2, 77760, Note_on_c, 0, 59, 64
2, 77760, Note_on_c, 0, 47, 64
2, 77880, Note_on_c, 0, 69, 0
2, 77880, Note_on_c, 0, 63, 64
2, 78000, Note_on_c, 0, 63, 0
2, 78000, Note_on_c, 0, 59, 0
2, 78000, Note_on_c, 0, 68, 64
2, 78000, Note_on_c, 0, 51, 64
2, 78240, Note_on_c, 0, 51, 0
2, 78240, Note_on_c, 0, 47, 0
2, 78240, Note_on_c, 0, 75, 0
2, 78240, Note_on_c, 0, 73, 64
2, 78240, Note_on_c, 0, 45, 64
2, 78240, Note_on_c, 0, 52, 64
2, 78480, Note_on_c, 0, 52, 0
2, 78480, Note_on_c, 0, 68, 0
2, 78480, Note_on_c, 0, 54, 64
2, 78480, Note_on_c, 0, 66, 64
2, 78720, Note_on_c, 0, 54, 0
2, 78720, Note_on_c, 0, 73, 0
2, 78720, Note_on_c, 0, 45, 0
2, 78720, Note_on_c, 0, 71, 64
2, 78720, Note_on_c, 0, 56, 64
2, 78720, Note_on_c, 0, 44, 64
2, 78840, Note_on_c, 0, 66, 0
2, 78840, Note_on_c, 0, 59, 64
2, 78960, Note_on_c, 0, 59, 0
2, 78960, Note_on_c, 0, 64, 64
2, 79200, Note_on_c, 0, 44, 0
2, 79200, Note_on_c, 0, 71, 0
2, 79200, Note_on_c, 0, 56, 0
2, 79200, Note_on_c, 0, 69, 64
2, 79200, Note_on_c, 0, 57, 64
2, 79200, Note_on_c, 0, 42, 64
2, 79440, Note_on_c, 0, 64, 0
2, 79440, Note_on_c, 0, 63, 64
2, 79680, Note_on_c, 0, 63, 0
2, 79680, Note_on_c, 0, 42, 0
2, 79680, Note_on_c, 0, 57, 0
2, 79680, Note_on_c, 0, 69, 0
2, 79680, Note_on_c, 0, 68, 64
2, 79680, Note_on_c, 0, 64, 64
2, 79680, Note_on_c, 0, 59, 64
2, 79680, Note_on_c, 0, 40, 64
2, 79800, Note_on_c, 0, 68, 0
2, 79800, Note_on_c, 0, 66, 64
2, 79920, Note_on_c, 0, 66, 0
2, 79920, Note_on_c, 0, 40, 0
2, 79920, Note_on_c, 0, 59, 0
2, 79920, Note_on_c, 0, 64, 0
2, 79920, Note_on_c, 0, 68, 64
2, 79920, Note_on_c, 0, 42, 64
2, 80040, Note_on_c, 0, 68, 0
2, 80040, Note_on_c, 0, 69, 64
2, 80160, Note_on_c, 0, 69, 0
2, 80160, Note_on_c, 0, 42, 0
2, 80160, Note_on_c, 0, 71, 64
2, 80160, Note_on_c, 0, 44, 64
2, 80400, Note_on_c, 0, 44, 0
2, 80400, Note_on_c, 0, 71, 0
2, 80400, Note_on_c, 0, 61, 64
2, 80400, Note_on_c, 0, 64, 64
2, 80400, Note_on_c, 0, 45, 64
2, 80400, Note_on_c, 0, 69, 64
2, 80640, Note_on_c, 0, 69, 0
2, 80640, Note_on_c, 0, 61, 0
2, 80640, Note_on_c, 0, 64, 0
2, 80640, Note_on_c, 0, 45, 0
2, 80640, Note_on_c, 0, 68, 64
2, 80640, Note_on_c, 0, 64, 64
2, 80640, Note_on_c, 0, 59, 64
2, 80640, Note_on_c, 0, 47, 64
2, 81120, Note_on_c, 0, 64, 0
2, 81120, Note_on_c, 0, 68, 0
2, 81120, Note_on_c, 0, 66, 64
2, 81120, Note_on_c, 0, 63, 64
2, 81360, Note_on_c, 0, 59, 0
2, 81360, Note_on_c, 0, 57, 64
2, 81600, Note_on_c, 0, 57, 0
2, 81600, Note_on_c, 0, 63, 0
2, 81600, Note_on_c, 0, 66, 0
2, 81600, Note_on_c, 0, 47, 0
2, 81600, Note_on_c, 0, 40, 64
2, 81600, Note_on_c, 0, 56, 64
2, 81600, Note_on_c, 0, 59, 64
2, 81600, Note_on_c, 0, 64, 64
2, 82560, Note_on_c, 0, 64, 0
2, 82560, Note_on_c, 0, 40, 0
2, 82560, Note_on_c, 0, 56, 0
2, 82560, Note_on_c, 0, 59, 0
2, 82560, End_track
0, 0, End_of_file
