0, 0, Header, 1, 2, 240
1, 0, Start_track
1, 0, Time_signature, 12, 3, 12, 8
1, 0, Key_signature, 1, "major"
1, 0, Tempo, 317460
1, 0, Marker_t, "(c) Y.Tomita 1996"
1, 99855, Tempo, 318302
1, 99875, Tempo, 319149
1, 99885, Tempo, 320000
1, 99905, Tempo, 320856
1, 99915, Tempo, 321716
1, 99935, Tempo, 322581
1, 99945, Tempo, 323450
1, 99965, Tempo, 324324
1, 99975, Tempo, 325203
1, 99995, Tempo, 326087
1, 100005, Tempo, 326975
1, 100025, Tempo, 327869
1, 100035, Tempo, 328767
1, 100055, Tempo, 329670
1, 100065, Tempo, 330579
1, 100085, Tempo, 331492
1, 100095, Tempo, 332410
1, 100115, Tempo, 333333
1, 100125, Tempo, 334262
1, 100145, Tempo, 335196
1, 100155, Tempo, 336134
1, 100175, Tempo, 337079
1, 100185, Tempo, 338028
1, 100205, Tempo, 338983
1, 100215, Tempo, 339943
1, 100235, Tempo, 340909
1, 100245, Tempo, 341880
1, 100265, Tempo, 342857
1, 100275, Tempo, 343840
1, 100295, Tempo, 344828
1, 100305, Tempo, 345821
1, 100325, Tempo, 346821
1, 100335, Tempo, 347826
1, 100355, Tempo, 348837
1, 100365, Tempo, 349854
1, 100385, Tempo, 350877
1, 100395, Tempo, 351906
1, 100415, Tempo, 352941
1, 100425, Tempo, 353982
1, 100430, Tempo, 356083
1, 100440, Tempo, 357143
1, 100447, Tempo, 358209
1, 100455, Tempo, 359281
1, 100462, Tempo, 360360
1, 100470, Tempo, 361446
1, 100480, Tempo, 362538
1, 100487, Tempo, 363636
1, 100495, Tempo, 364742
1, 100502, Tempo, 365854
1, 100510, Tempo, 366972
1, 100517, Tempo, 368098
1, 100527, Tempo, 369231
1, 100535, Tempo, 370370
1, 100542, Tempo, 371517
1, 100550, Tempo, 372671
1, 100557, Tempo, 373832
1, 100567, Tempo, 375000
1, 100575, Tempo, 376176
1, 100582, Tempo, 377358
1, 100590, Tempo, 378549
1, 100597, Tempo, 379747
1, 100607, Tempo, 380952
1, 100615, Tempo, 382166
1, 100622, Tempo, 383387
1, 100630, Tempo, 384615
1, 100637, Tempo, 385852
1, 100645, Tempo, 387097
1, 100655, Tempo, 388350
1, 100662, Tempo, 389610
1, 100670, Tempo, 390879
1, 100677, Tempo, 392157
1, 100685, Tempo, 393443
1, 100695, Tempo, 394737
1, 100702, Tempo, 396040
1, 100710, Tempo, 397351
1, 100717, Tempo, 398671
1, 100725, Tempo, 400000
1, 100735, Tempo, 401338
1, 100742, Tempo, 402685
1, 100750, Tempo, 404040
1, 100755, Tempo, 412371
1, 100765, Tempo, 413793
1, 100775, Tempo, 416667
1, 100785, Tempo, 419580
1, 100795, Tempo, 422535
1, 100805, Tempo, 424028
1, 100815, Tempo, 427046
1, 100825, Tempo, 430108
1, 100835, Tempo, 433213
1, 100845, Tempo, 434783
1, 100855, Tempo, 437956
1, 100865, Tempo, 441176
1, 100875, Tempo, 444444
1, 100885, Tempo, 446097
1, 100895, Tempo, 449438
1, 100905, Tempo, 452830
1, 100915, Tempo, 456274
1, 100925, Tempo, 459770
1, 100935, Tempo, 461538
1, 100945, Tempo, 465116
1, 100955, Tempo, 468750
1, 100965, Tempo, 472441
1, 100975, Tempo, 474308
1, 100985, Tempo, 478088
1, 100995, Tempo, 481928
1, 101005, Tempo, 485830
1, 101015, Tempo, 487805
1, 101025, Tempo, 491803
1, 101035, Tempo, 495868
1, 101045, Tempo, 500000
1, 101055, Tempo, 504202
1, 101065, Tempo, 506329
1, 101075, Tempo, 510638
1, 101085, Tempo, 515021
1, 101095, Tempo, 519481
1, 101105, Tempo, 521739
1, 101115, Tempo, 526316
1, 101125, Tempo, 530973
1, 101135, Tempo, 535714
1, 101145, Tempo, 538117
1, 101155, Tempo, 542986
1, 101165, Tempo, 547945
1, 101175, Tempo, 552995
1, 101185, Tempo, 558140
1, 101195, Tempo, 560748
1, 101205, Tempo, 566038
1, 101215, Tempo, 571429
1, 101225, Tempo, 576923
1, 101235, Tempo, 579710
1, 101245, Tempo, 585366
1, 101255, Tempo, 591133
1, 101265, Tempo, 597015
1, 101275, Tempo, 600000
1, 101285, Tempo, 612245
1, 101295, Tempo, 615385
1, 101305, Tempo, 621762
1, 101315, Tempo, 625000
1, 101325, Tempo, 631579
1, 101335, Tempo, 634921
1, 101345, Tempo, 641711
1, 101355, Tempo, 645161
1, 101365, Tempo, 652174
1, 101375, Tempo, 655738
1, 101385, Tempo, 662983
1, 101395, Tempo, 666667
1, 101405, Tempo, 674157
1, 101415, Tempo, 677966
1, 101425, Tempo, 685714
1, 101435, Tempo, 689655
1, 101445, Tempo, 697674
1, 101455, Tempo, 701754
1, 101465, Tempo, 1690141
1, 101628, Tempo, 413793
1, 101630, Tempo, 317460
1, 119630, Tempo, 316623
1, 119650, Tempo, 317460
1, 119660, Tempo, 318302
1, 119670, Tempo, 319149
1, 119690, Tempo, 320000
1, 119700, Tempo, 320856
1, 119710, Tempo, 321716
1, 119720, Tempo, 322581
1, 119740, Tempo, 323450
1, 119750, Tempo, 324324
1, 119760, Tempo, 325203
1, 119770, Tempo, 326087
1, 119790, Tempo, 326975
1, 119800, Tempo, 327869
1, 119810, Tempo, 328767
1, 119830, Tempo, 329670
1, 119840, Tempo, 330579
1, 119850, Tempo, 331492
1, 119860, Tempo, 332410
1, 119880, Tempo, 333333
1, 119890, Tempo, 334262
1, 119900, Tempo, 335196
1, 119910, Tempo, 336134
1, 119930, Tempo, 337079
1, 119940, Tempo, 338028
1, 119950, Tempo, 338983
1, 119970, Tempo, 339943
1, 119980, Tempo, 340909
1, 119990, Tempo, 341880
1, 120000, Tempo, 342857
1, 120020, Tempo, 343840
1, 120030, Tempo, 344828
1, 120040, Tempo, 342857
1, 120050, Tempo, 347826
1, 120060, Tempo, 353982
1, 120070, Tempo, 360360
1, 120080, Tempo, 366972
1, 120090, Tempo, 372671
1, 120100, Tempo, 379747
1, 120110, Tempo, 387097
1, 120120, Tempo, 394737
1, 120130, Tempo, 401338
1, 120140, Tempo, 409556
1, 120150, Tempo, 418118
1, 120160, Tempo, 427046
1, 120170, Tempo, 434783
1, 120180, Tempo, 444444
1, 120190, Tempo, 454545
1, 120200, Tempo, 461538
1, 120210, Tempo, 470588
1, 120220, Tempo, 481928
1, 120230, Tempo, 491803
1, 120240, Tempo, 504202
1, 120250, Tempo, 515021
1, 120260, Tempo, 528634
1, 120270, Tempo, 540541
1, 120280, Tempo, 555556
1, 120290, Tempo, 568720
1, 120300, Tempo, 585366
1, 120310, Tempo, 615385
1, 120320, Tempo, 634921
1, 120330, Tempo, 652174
1, 120340, Tempo, 1518987
1, 120420, Tempo, 3636364
1, 120480, Tempo, 810811
1, 120500, Tempo, 805369
1, 120530, Tempo, 800000
1, 120640, Tempo, 365854
1, 120650, Tempo, 364742
1, 120660, Tempo, 363636
1, 120670, Tempo, 362538
1, 120680, Tempo, 361446
1, 120700, Tempo, 344828
1, 120730, Tempo, 343840
1, 120760, Tempo, 342857
1, 120790, Tempo, 341880
1, 120810, Tempo, 339943
1, 120830, Tempo, 338983
1, 120840, Tempo, 338028
1, 120850, Tempo, 337079
1, 120870, Tempo, 336134
1, 120880, Tempo, 335196
1, 120900, Tempo, 333333
1, 120920, Tempo, 332410
1, 120930, Tempo, 330579
1, 120950, Tempo, 329670
1, 120960, Tempo, 327869
1, 120980, Tempo, 326087
1, 121000, Tempo, 325203
1, 121010, Tempo, 323450
1, 121040, Tempo, 321716
1, 121060, Tempo, 320856
1, 121080, Tempo, 320000
1, 121090, Tempo, 319149
1, 121110, Tempo, 318302
1, 121130, Tempo, 317460
1, 121190, Tempo, 317460
1, 121230, Tempo, 315789
1, 121260, Tempo, 314961
1, 122790, Tempo, 314961
1, 122830, Tempo, 315789
1, 122860, Tempo, 316623
1, 122890, Tempo, 317460
1, 122920, Tempo, 318302
1, 122950, Tempo, 319149
1, 122980, Tempo, 320000
1, 123010, Tempo, 320856
1, 123040, Tempo, 321716
1, 123070, Tempo, 322581
1, 123100, Tempo, 323450
1, 123130, Tempo, 324324
1, 123160, Tempo, 325203
1, 123190, Tempo, 326087
1, 123220, Tempo, 326975
1, 123250, Tempo, 327869
1, 123280, Tempo, 328767
1, 123310, Tempo, 329670
1, 123340, Tempo, 330579
1, 123370, Tempo, 331492
1, 123400, Tempo, 332410
1, 123430, Tempo, 333333
1, 123460, Tempo, 334262
1, 123490, Tempo, 335196
1, 123520, Tempo, 336134
1, 123550, Tempo, 337079
1, 123580, Tempo, 338028
1, 123610, Tempo, 338983
1, 123640, Tempo, 339943
1, 123670, Tempo, 340909
1, 123700, Tempo, 341880
1, 123720, Tempo, 342857
1, 123730, Tempo, 343840
1, 123750, Tempo, 344828
1, 123760, Tempo, 345821
1, 123780, Tempo, 346821
1, 123790, Tempo, 347826
1, 123810, Tempo, 348837
1, 123820, Tempo, 349854
1, 123830, Tempo, 350877
1, 123850, Tempo, 351906
1, 123860, Tempo, 352941
1, 123880, Tempo, 353982
1, 123890, Tempo, 355030
1, 123910, Tempo, 356083
1, 123920, Tempo, 357143
1, 123930, Tempo, 358209
1, 123950, Tempo, 359281
1, 123960, Tempo, 360360
1, 123980, Tempo, 361446
1, 123990, Tempo, 362538
1, 124010, Tempo, 363636
1, 124020, Tempo, 364742
1, 124040, Tempo, 365854
1, 124050, Tempo, 366972
1, 124060, Tempo, 368098
1, 124080, Tempo, 369231
1, 124090, Tempo, 370370
1, 124110, Tempo, 371517
1, 124120, Tempo, 372671
1, 124140, Tempo, 373832
1, 124150, Tempo, 375000
1, 124160, Tempo, 376176
1, 124170, Tempo, 378549
1, 124180, Tempo, 380952
1, 124190, Tempo, 382166
1, 124200, Tempo, 384615
1, 124210, Tempo, 385852
1, 124220, Tempo, 388350
1, 124230, Tempo, 389610
1, 124240, Tempo, 392157
1, 124250, Tempo, 393443
1, 124260, Tempo, 396040
1, 124270, Tempo, 397351
1, 124280, Tempo, 400000
1, 124290, Tempo, 401338
1, 124300, Tempo, 404040
1, 124310, Tempo, 405405
1, 124320, Tempo, 408163
1, 124330, Tempo, 409556
1, 124340, Tempo, 412371
1, 124350, Tempo, 413793
1, 124360, Tempo, 416667
1, 124370, Tempo, 418118
1, 124380, Tempo, 421053
1, 124390, Tempo, 422535
1, 124400, Tempo, 425532
1, 124410, Tempo, 427046
1, 124420, Tempo, 430108
1, 124430, Tempo, 431655
1, 124440, Tempo, 434783
1, 124450, Tempo, 436364
1, 124460, Tempo, 439560
1, 124470, Tempo, 441176
1, 124480, Tempo, 444444
1, 124490, Tempo, 446097
1, 124500, Tempo, 449438
1, 124510, Tempo, 459770
1, 124520, Tempo, 463320
1, 124530, Tempo, 468750
1, 124540, Tempo, 474308
1, 124550, Tempo, 480000
1, 124560, Tempo, 485830
1, 124570, Tempo, 491803
1, 124580, Tempo, 497925
1, 124590, Tempo, 502092
1, 124600, Tempo, 508475
1, 124610, Tempo, 515021
1, 124620, Tempo, 521739
1, 124630, Tempo, 528634
1, 124640, Tempo, 535714
1, 124650, Tempo, 542986
1, 124660, Tempo, 547945
1, 124670, Tempo, 555556
1, 124680, Tempo, 563380
1, 124690, Tempo, 571429
1, 124700, Tempo, 579710
1, 124710, Tempo, 588235
1, 124720, Tempo, 597015
1, 124730, Tempo, 603015
1, 124740, Tempo, 612245
1, 124750, Tempo, 621762
1, 124760, Tempo, 631579
1, 124770, Tempo, 641711
1, 124780, Tempo, 652174
1, 124790, Tempo, 662983
1, 124800, Tempo, 674157
1, 124810, Tempo, 681818
1, 124820, Tempo, 693642
1, 124830, Tempo, 705882
1, 124840, Tempo, 718563
1, 124850, Tempo, 731707
1, 124860, Tempo, 745342
1, 124870, Tempo, 759494
1, 124880, Tempo, 769231
1, 124890, Tempo, 784314
1, 124900, Tempo, 800000
1, 124910, Tempo, 816327
1, 124920, Tempo, 833333
1, 124930, Tempo, 851064
1, 124940, Tempo, 869565
1, 124950, Tempo, 882353
1, 124960, Tempo, 902256
1, 124970, Tempo, 923077
1, 124980, Tempo, 944882
1, 124990, Tempo, 967742
1, 125000, Tempo, 991736
1, 125010, Tempo, 1016949
1, 125020, Tempo, 1043478
1, 125280, Tempo, 317460
1, 125280, End_track
2, 0, Start_track
2, 0, MIDI_port, 0
2, 0, Title_t, "BWV 879/2"
2, 0, Program_c, 0, 6
2, 1200, Note_on_c, 0, 64, 64
2, 1320, Note_on_c, 0, 64, 0
2, 1320, Note_on_c, 0, 66, 64
2, 1440, Note_on_c, 0, 66, 0
2, 1440, Note_on_c, 0, 67, 64
2, 1504, Note_on_c, 0, 66, 64
2, 1551, Note_on_c, 0, 67, 0
2, 1552, Note_on_c, 0, 67, 64
2, 1615, Note_on_c, 0, 66, 0
2, 1727, Note_on_c, 0, 67, 0
2, 1800, Note_on_c, 0, 69, 64
2, 1890, Note_on_c, 0, 69, 0
2, 1890, Note_on_c, 0, 67, 64
2, 1980, Note_on_c, 0, 67, 0
2, 1980, Note_on_c, 0, 66, 64
2, 2070, Note_on_c, 0, 66, 0
2, 2070, Note_on_c, 0, 67, 64
2, 2160, Note_on_c, 0, 67, 0
2, 2160, Note_on_c, 0, 69, 64
2, 2471, Note_on_c, 0, 69, 0
2, 2520, Note_on_c, 0, 71, 64
2, 2610, Note_on_c, 0, 71, 0
2, 2610, Note_on_c, 0, 69, 64
2, 2700, Note_on_c, 0, 69, 0
2, 2700, Note_on_c, 0, 67, 64
2, 2790, Note_on_c, 0, 67, 0
2, 2790, Note_on_c, 0, 69, 64
2, 2880, Note_on_c, 0, 69, 0
2, 2880, Note_on_c, 0, 71, 64
2, 3127, Note_on_c, 0, 71, 0
2, 3240, Note_on_c, 0, 67, 64
2, 3487, Note_on_c, 0, 67, 0
2, 3600, Note_on_c, 0, 64, 64
2, 3863, Note_on_c, 0, 64, 0
2, 3960, Note_on_c, 0, 72, 64
2, 4680, Note_on_c, 0, 72, 0
2, 4680, Note_on_c, 0, 71, 64
2, 4950, Note_on_c, 0, 71, 0
2, 4950, Note_on_c, 0, 75, 64
2, 5040, Note_on_c, 0, 75, 0
2, 5040, Note_on_c, 0, 76, 64
2, 5175, Note_on_c, 0, 76, 0
2, 5400, Note_on_c, 0, 69, 64
2, 6120, Note_on_c, 0, 69, 0
2, 6120, Note_on_c, 0, 67, 64
2, 6390, Note_on_c, 0, 67, 0
2, 6390, Note_on_c, 0, 75, 64
2, 6480, Note_on_c, 0, 75, 0
2, 6480, Note_on_c, 0, 76, 64
2, 6623, Note_on_c, 0, 76, 0
2, 6840, Note_on_c, 0, 66, 64
2, 7320, Note_on_c, 0, 66, 0
2, 7320, Note_on_c, 0, 67, 64
2, 7440, Note_on_c, 0, 67, 0
2, 7440, Note_on_c, 0, 69, 64
2, 7560, Note_on_c, 0, 69, 0
2, 7560, Note_on_c, 0, 67, 64
2, 7680, Note_on_c, 0, 67, 0
2, 7680, Note_on_c, 0, 66, 64
2, 7800, Note_on_c, 0, 66, 0
2, 7800, Note_on_c, 0, 64, 64
2, 7920, Note_on_c, 0, 64, 0
2, 7920, Note_on_c, 0, 63, 64
2, 8040, Note_on_c, 0, 63, 0
2, 8040, Note_on_c, 0, 72, 64
2, 8160, Note_on_c, 0, 72, 0
2, 8160, Note_on_c, 0, 71, 64
2, 8280, Note_on_c, 0, 71, 0
2, 8280, Note_on_c, 0, 69, 64
2, 8400, Note_on_c, 0, 69, 0
2, 8400, Note_on_c, 0, 67, 64
2, 8520, Note_on_c, 0, 67, 0
2, 8520, Note_on_c, 0, 66, 64
2, 8640, Note_on_c, 0, 66, 0
2, 8640, Note_on_c, 0, 67, 64
2, 8760, Note_on_c, 0, 67, 0
2, 8760, Note_on_c, 0, 69, 64
2, 8880, Note_on_c, 0, 69, 0
2, 8880, Note_on_c, 0, 71, 64
2, 9000, Note_on_c, 0, 71, 0
2, 9000, Note_on_c, 0, 69, 64
2, 9120, Note_on_c, 0, 69, 0
2, 9120, Note_on_c, 0, 67, 64
2, 9240, Note_on_c, 0, 67, 0
2, 9240, Note_on_c, 0, 66, 64
2, 9360, Note_on_c, 0, 66, 0
2, 9360, Note_on_c, 0, 64, 64
2, 9480, Note_on_c, 0, 64, 0
2, 9480, Note_on_c, 0, 76, 64
2, 9600, Note_on_c, 0, 76, 0
2, 9600, Note_on_c, 0, 74, 64
2, 9720, Note_on_c, 0, 74, 0
2, 9720, Note_on_c, 0, 73, 64
2, 9840, Note_on_c, 0, 73, 0
2, 9840, Note_on_c, 0, 71, 64
2, 9840, Note_on_c, 0, 59, 64
2, 9960, Note_on_c, 0, 59, 0
2, 9960, Note_on_c, 0, 71, 0
2, 9960, Note_on_c, 0, 70, 64
2, 9960, Note_on_c, 0, 61, 64
2, 10080, Note_on_c, 0, 61, 0
2, 10080, Note_on_c, 0, 70, 0
2, 10080, Note_on_c, 0, 62, 64
2, 10080, Note_on_c, 0, 71, 64
2, 10144, Note_on_c, 0, 61, 64
2, 10183, Note_on_c, 0, 62, 0
2, 10184, Note_on_c, 0, 62, 64
2, 10200, Note_on_c, 0, 71, 0
2, 10200, Note_on_c, 0, 74, 64
2, 10223, Note_on_c, 0, 61, 0
2, 10320, Note_on_c, 0, 74, 0
2, 10320, Note_on_c, 0, 78, 64
2, 10351, Note_on_c, 0, 62, 0
2, 10440, Note_on_c, 0, 78, 0
2, 10440, Note_on_c, 0, 80, 64
2, 10440, Note_on_c, 0, 64, 64
2, 10530, Note_on_c, 0, 64, 0
2, 10530, Note_on_c, 0, 62, 64
2, 10583, Note_on_c, 0, 80, 0
2, 10620, Note_on_c, 0, 62, 0
2, 10620, Note_on_c, 0, 61, 64
2, 10710, Note_on_c, 0, 61, 0
2, 10710, Note_on_c, 0, 62, 64
2, 10800, Note_on_c, 0, 62, 0
2, 10800, Note_on_c, 0, 73, 64
2, 10800, Note_on_c, 0, 64, 64
2, 10920, Note_on_c, 0, 73, 0
2, 10920, Note_on_c, 0, 76, 64
2, 11040, Note_on_c, 0, 76, 0
2, 11040, Note_on_c, 0, 79, 64
2, 11063, Note_on_c, 0, 64, 0
2, 11160, Note_on_c, 0, 79, 0
2, 11160, Note_on_c, 0, 82, 64
2, 11160, Note_on_c, 0, 66, 64
2, 11250, Note_on_c, 0, 66, 0
2, 11250, Note_on_c, 0, 64, 64
2, 11303, Note_on_c, 0, 82, 0
2, 11340, Note_on_c, 0, 64, 0
2, 11340, Note_on_c, 0, 62, 64
2, 11430, Note_on_c, 0, 62, 0
2, 11430, Note_on_c, 0, 64, 64
2, 11520, Note_on_c, 0, 64, 0
2, 11520, Note_on_c, 0, 74, 64
2, 11520, Note_on_c, 0, 66, 64
2, 11640, Note_on_c, 0, 74, 0
2, 11640, Note_on_c, 0, 78, 64
2, 11655, Note_on_c, 0, 66, 0
2, 11760, Note_on_c, 0, 78, 0
2, 11760, Note_on_c, 0, 82, 64
2, 11880, Note_on_c, 0, 82, 0
2, 11880, Note_on_c, 0, 83, 64
2, 11880, Note_on_c, 0, 62, 64
2, 12023, Note_on_c, 0, 62, 0
2, 12240, Note_on_c, 0, 59, 64
2, 12360, Note_on_c, 0, 83, 0
2, 12360, Note_on_c, 0, 81, 64
2, 12383, Note_on_c, 0, 59, 0
2, 12480, Note_on_c, 0, 81, 0
2, 12480, Note_on_c, 0, 79, 64
2, 12600, Note_on_c, 0, 79, 0
2, 12600, Note_on_c, 0, 67, 64
2, 12600, Note_on_c, 0, 78, 64
2, 12720, Note_on_c, 0, 78, 0
2, 12720, Note_on_c, 0, 76, 64
2, 12840, Note_on_c, 0, 76, 0
2, 12840, Note_on_c, 0, 75, 64
2, 12960, Note_on_c, 0, 75, 0
2, 12960, Note_on_c, 0, 76, 64
2, 13320, Note_on_c, 0, 67, 0
2, 13320, Note_on_c, 0, 66, 64
2, 13590, Note_on_c, 0, 66, 0
2, 13590, Note_on_c, 0, 70, 64
2, 13680, Note_on_c, 0, 70, 0
2, 13680, Note_on_c, 0, 76, 0
2, 13680, Note_on_c, 0, 74, 64
2, 13680, Note_on_c, 0, 71, 64
2, 13823, Note_on_c, 0, 71, 0
2, 14040, Note_on_c, 0, 64, 64
2, 14400, Note_on_c, 0, 74, 0
2, 14400, Note_on_c, 0, 74, 64
2, 14552, Note_on_c, 0, 73, 64
2, 14567, Note_on_c, 0, 74, 0
2, 14592, Note_on_c, 0, 74, 64
2, 14623, Note_on_c, 0, 73, 0
2, 14648, Note_on_c, 0, 73, 64
2, 14655, Note_on_c, 0, 74, 0
2, 14696, Note_on_c, 0, 74, 64
2, 14711, Note_on_c, 0, 73, 0
2, 14752, Note_on_c, 0, 73, 64
2, 14760, Note_on_c, 0, 64, 0
2, 14760, Note_on_c, 0, 62, 64
2, 14767, Note_on_c, 0, 74, 0
2, 14903, Note_on_c, 0, 62, 0
2, 15030, Note_on_c, 0, 70, 64
2, 15120, Note_on_c, 0, 70, 0
2, 15120, Note_on_c, 0, 71, 64
2, 15127, Note_on_c, 0, 73, 0
2, 15480, Note_on_c, 0, 61, 64
2, 15840, Note_on_c, 0, 71, 0
2, 15840, Note_on_c, 0, 70, 64
2, 15960, Note_on_c, 0, 61, 0
2, 15960, Note_on_c, 0, 62, 64
2, 16080, Note_on_c, 0, 62, 0
2, 16080, Note_on_c, 0, 64, 64
2, 16200, Note_on_c, 0, 64, 0
2, 16200, Note_on_c, 0, 70, 0
2, 16200, Note_on_c, 0, 71, 64
2, 16200, Note_on_c, 0, 62, 64
2, 16320, Note_on_c, 0, 62, 0
2, 16320, Note_on_c, 0, 61, 64
2, 16440, Note_on_c, 0, 61, 0
2, 16440, Note_on_c, 0, 59, 64
2, 16560, Note_on_c, 0, 59, 0
2, 16560, Note_on_c, 0, 71, 0
2, 16560, Note_on_c, 0, 73, 64
2, 16560, Note_on_c, 0, 58, 64
2, 16680, Note_on_c, 0, 58, 0
2, 16680, Note_on_c, 0, 67, 64
2, 16800, Note_on_c, 0, 67, 0
2, 16800, Note_on_c, 0, 66, 64
2, 16920, Note_on_c, 0, 66, 0
2, 16920, Note_on_c, 0, 64, 64
2, 17040, Note_on_c, 0, 64, 0
2, 17040, Note_on_c, 0, 62, 64
2, 17160, Note_on_c, 0, 62, 0
2, 17160, Note_on_c, 0, 61, 64
2, 17280, Note_on_c, 0, 61, 0
2, 17280, Note_on_c, 0, 62, 64
2, 17400, Note_on_c, 0, 62, 0
2, 17400, Note_on_c, 0, 64, 64
2, 17520, Note_on_c, 0, 64, 0
2, 17520, Note_on_c, 0, 66, 64
2, 17640, Note_on_c, 0, 66, 0
2, 17640, Note_on_c, 0, 73, 0
2, 17640, Note_on_c, 0, 78, 64
2, 17640, Note_on_c, 0, 64, 64
2, 17760, Note_on_c, 0, 64, 0
2, 17760, Note_on_c, 0, 62, 64
2, 17880, Note_on_c, 0, 62, 0
2, 17880, Note_on_c, 0, 78, 0
2, 17880, Note_on_c, 0, 70, 64
2, 17880, Note_on_c, 0, 61, 64
2, 18000, Note_on_c, 0, 61, 0
2, 18000, Note_on_c, 0, 70, 0
2, 18000, Note_on_c, 0, 71, 64
2, 18000, Note_on_c, 0, 59, 64
2, 18120, Note_on_c, 0, 59, 0
2, 18120, Note_on_c, 0, 69, 64
2, 18240, Note_on_c, 0, 69, 0
2, 18240, Note_on_c, 0, 67, 64
2, 18360, Note_on_c, 0, 67, 0
2, 18360, Note_on_c, 0, 66, 64
2, 18480, Note_on_c, 0, 66, 0
2, 18480, Note_on_c, 0, 64, 64
2, 18480, Note_on_c, 0, 52, 64
2, 18600, Note_on_c, 0, 52, 0
2, 18600, Note_on_c, 0, 64, 0
2, 18600, Note_on_c, 0, 54, 64
2, 18600, Note_on_c, 0, 63, 64
2, 18720, Note_on_c, 0, 63, 0
2, 18720, Note_on_c, 0, 54, 0
2, 18720, Note_on_c, 0, 55, 64
2, 18720, Note_on_c, 0, 64, 64
2, 18760, Note_on_c, 0, 54, 64
2, 18799, Note_on_c, 0, 55, 0
2, 18800, Note_on_c, 0, 55, 64
2, 18839, Note_on_c, 0, 54, 0
2, 18840, Note_on_c, 0, 71, 0
2, 18840, Note_on_c, 0, 67, 64
2, 18895, Note_on_c, 0, 55, 0
2, 18960, Note_on_c, 0, 67, 0
2, 18960, Note_on_c, 0, 71, 64
2, 19080, Note_on_c, 0, 71, 0
2, 19080, Note_on_c, 0, 73, 64
2, 19080, Note_on_c, 0, 57, 64
2, 19170, Note_on_c, 0, 57, 0
2, 19170, Note_on_c, 0, 55, 64
2, 19207, Note_on_c, 0, 73, 0
2, 19260, Note_on_c, 0, 55, 0
2, 19260, Note_on_c, 0, 54, 64
2, 19350, Note_on_c, 0, 54, 0
2, 19350, Note_on_c, 0, 55, 64
2, 19440, Note_on_c, 0, 55, 0
2, 19440, Note_on_c, 0, 64, 0
2, 19440, Note_on_c, 0, 66, 64
2, 19440, Note_on_c, 0, 57, 64
2, 19560, Note_on_c, 0, 69, 64
2, 19583, Note_on_c, 0, 57, 0
2, 19680, Note_on_c, 0, 69, 0
2, 19680, Note_on_c, 0, 72, 64
2, 19800, Note_on_c, 0, 72, 0
2, 19800, Note_on_c, 0, 75, 64
2, 19800, Note_on_c, 0, 59, 64
2, 19890, Note_on_c, 0, 59, 0
2, 19890, Note_on_c, 0, 57, 64
2, 19927, Note_on_c, 0, 75, 0
2, 19980, Note_on_c, 0, 57, 0
2, 19980, Note_on_c, 0, 55, 64
2, 20070, Note_on_c, 0, 55, 0
2, 20070, Note_on_c, 0, 57, 64
2, 20160, Note_on_c, 0, 57, 0
2, 20160, Note_on_c, 0, 66, 0
2, 20160, Note_on_c, 0, 67, 64
2, 20160, Note_on_c, 0, 59, 64
2, 20280, Note_on_c, 0, 71, 64
2, 20303, Note_on_c, 0, 59, 0
2, 20400, Note_on_c, 0, 71, 0
2, 20400, Note_on_c, 0, 75, 64
2, 20520, Note_on_c, 0, 75, 0
2, 20520, Note_on_c, 0, 76, 64
2, 20520, Note_on_c, 0, 55, 64
2, 20663, Note_on_c, 0, 55, 0
2, 20880, Note_on_c, 0, 67, 0
2, 20880, Note_on_c, 0, 68, 64
2, 20880, Note_on_c, 0, 52, 64
2, 21000, Note_on_c, 0, 68, 0
2, 21000, Note_on_c, 0, 74, 64
2, 21023, Note_on_c, 0, 52, 0
2, 21120, Note_on_c, 0, 74, 0
2, 21120, Note_on_c, 0, 72, 64
2, 21240, Note_on_c, 0, 72, 0
2, 21240, Note_on_c, 0, 60, 64
2, 21240, Note_on_c, 0, 71, 64
2, 21360, Note_on_c, 0, 71, 0
2, 21360, Note_on_c, 0, 69, 64
2, 21480, Note_on_c, 0, 69, 0
2, 21480, Note_on_c, 0, 68, 64
2, 21600, Note_on_c, 0, 68, 0
2, 21600, Note_on_c, 0, 69, 64
2, 21720, Note_on_c, 0, 76, 0
2, 21720, Note_on_c, 0, 75, 64
2, 21840, Note_on_c, 0, 75, 0
2, 21840, Note_on_c, 0, 76, 64
2, 21960, Note_on_c, 0, 76, 0
2, 21960, Note_on_c, 0, 60, 0
2, 21960, Note_on_c, 0, 78, 64
2, 21960, Note_on_c, 0, 59, 64
2, 22087, Note_on_c, 0, 59, 0
2, 22230, Note_on_c, 0, 63, 64
2, 22320, Note_on_c, 0, 63, 0
2, 22320, Note_on_c, 0, 69, 0
2, 22320, Note_on_c, 0, 67, 64
2, 22320, Note_on_c, 0, 64, 64
2, 22440, Note_on_c, 0, 78, 0
2, 22440, Note_on_c, 0, 76, 64
2, 22455, Note_on_c, 0, 64, 0
2, 22560, Note_on_c, 0, 76, 0
2, 22560, Note_on_c, 0, 74, 64
2, 22680, Note_on_c, 0, 74, 0
2, 22680, Note_on_c, 0, 57, 64
2, 22680, Note_on_c, 0, 73, 64
2, 22800, Note_on_c, 0, 73, 0
2, 22800, Note_on_c, 0, 75, 64
2, 22920, Note_on_c, 0, 75, 0
2, 22920, Note_on_c, 0, 76, 64
2, 23040, Note_on_c, 0, 76, 0
2, 23040, Note_on_c, 0, 67, 0
2, 23040, Note_on_c, 0, 75, 64
2, 23040, Note_on_c, 0, 66, 64
2, 23160, Note_on_c, 0, 75, 0
2, 23160, Note_on_c, 0, 76, 64
2, 23280, Note_on_c, 0, 76, 0
2, 23280, Note_on_c, 0, 78, 64
2, 23400, Note_on_c, 0, 78, 0
2, 23400, Note_on_c, 0, 57, 0
2, 23400, Note_on_c, 0, 71, 64
2, 23400, Note_on_c, 0, 55, 64
2, 23543, Note_on_c, 0, 55, 0
2, 23670, Note_on_c, 0, 63, 64
2, 23760, Note_on_c, 0, 63, 0
2, 23760, Note_on_c, 0, 66, 0
2, 23760, Note_on_c, 0, 64, 64
2, 23880, Note_on_c, 0, 71, 0
2, 23880, Note_on_c, 0, 69, 64
2, 24000, Note_on_c, 0, 69, 0
2, 24000, Note_on_c, 0, 67, 64
2, 24120, Note_on_c, 0, 67, 0
2, 24120, Note_on_c, 0, 54, 64
2, 24120, Note_on_c, 0, 69, 64
2, 24240, Note_on_c, 0, 69, 0
2, 24240, Note_on_c, 0, 71, 64
2, 24360, Note_on_c, 0, 71, 0
2, 24360, Note_on_c, 0, 72, 64
2, 24480, Note_on_c, 0, 64, 0
2, 24480, Note_on_c, 0, 63, 64
2, 24600, Note_on_c, 0, 54, 0
2, 24600, Note_on_c, 0, 55, 64
2, 24720, Note_on_c, 0, 55, 0
2, 24720, Note_on_c, 0, 57, 64
2, 24840, Note_on_c, 0, 57, 0
2, 24840, Note_on_c, 0, 63, 0
2, 24840, Note_on_c, 0, 72, 0
2, 24840, Note_on_c, 0, 71, 64
2, 24840, Note_on_c, 0, 64, 64
2, 24840, Note_on_c, 0, 55, 64
2, 24960, Note_on_c, 0, 55, 0
2, 24960, Note_on_c, 0, 71, 0
2, 24960, Note_on_c, 0, 69, 64
2, 24960, Note_on_c, 0, 54, 64
2, 25080, Note_on_c, 0, 54, 0
2, 25080, Note_on_c, 0, 69, 0
2, 25080, Note_on_c, 0, 67, 64
2, 25080, Note_on_c, 0, 52, 64
2, 25200, Note_on_c, 0, 52, 0
2, 25200, Note_on_c, 0, 67, 0
2, 25200, Note_on_c, 0, 64, 0
2, 25200, Note_on_c, 0, 66, 64
2, 25200, Note_on_c, 0, 69, 64
2, 25200, Note_on_c, 0, 51, 64
2, 25320, Note_on_c, 0, 51, 0
2, 25320, Note_on_c, 0, 60, 64
2, 25440, Note_on_c, 0, 60, 0
2, 25440, Note_on_c, 0, 59, 64
2, 25560, Note_on_c, 0, 59, 0
2, 25560, Note_on_c, 0, 69, 0
2, 25560, Note_on_c, 0, 63, 64
2, 25560, Note_on_c, 0, 57, 64
2, 25680, Note_on_c, 0, 57, 0
2, 25680, Note_on_c, 0, 55, 64
2, 25800, Note_on_c, 0, 55, 0
2, 25800, Note_on_c, 0, 54, 64
2, 25920, Note_on_c, 0, 54, 0
2, 25920, Note_on_c, 0, 63, 0
2, 25920, Note_on_c, 0, 71, 64
2, 25920, Note_on_c, 0, 55, 64
2, 26040, Note_on_c, 0, 55, 0
2, 26040, Note_on_c, 0, 57, 64
2, 26160, Note_on_c, 0, 57, 0
2, 26160, Note_on_c, 0, 66, 0
2, 26160, Note_on_c, 0, 63, 64
2, 26160, Note_on_c, 0, 59, 64
2, 26280, Note_on_c, 0, 59, 0
2, 26280, Note_on_c, 0, 63, 0
2, 26280, Note_on_c, 0, 64, 64
2, 26280, Note_on_c, 0, 57, 64
2, 26400, Note_on_c, 0, 57, 0
2, 26400, Note_on_c, 0, 55, 64
2, 26520, Note_on_c, 0, 55, 0
2, 26520, Note_on_c, 0, 64, 0
2, 26520, Note_on_c, 0, 66, 64
2, 26520, Note_on_c, 0, 54, 64
2, 26640, Note_on_c, 0, 54, 0
2, 26640, Note_on_c, 0, 66, 0
2, 26640, Note_on_c, 0, 67, 64
2, 26640, Note_on_c, 0, 52, 64
2, 26760, Note_on_c, 0, 52, 0
2, 26760, Note_on_c, 0, 62, 64
2, 26880, Note_on_c, 0, 62, 0
2, 26880, Note_on_c, 0, 71, 0
2, 26880, Note_on_c, 0, 64, 64
2, 26880, Note_on_c, 0, 60, 64
2, 27000, Note_on_c, 0, 60, 0
2, 27000, Note_on_c, 0, 64, 0
2, 27000, Note_on_c, 0, 63, 64
2, 27000, Note_on_c, 0, 59, 64
2, 27120, Note_on_c, 0, 59, 0
2, 27120, Note_on_c, 0, 57, 64
2, 27240, Note_on_c, 0, 57, 0
2, 27240, Note_on_c, 0, 63, 0
2, 27240, Note_on_c, 0, 55, 64
2, 27240, Note_on_c, 0, 64, 64
2, 27360, Note_on_c, 0, 64, 0
2, 27360, Note_on_c, 0, 55, 0
2, 27360, Note_on_c, 0, 72, 64
2, 27360, Note_on_c, 0, 57, 64
2, 27480, Note_on_c, 0, 57, 0
2, 27480, Note_on_c, 0, 59, 64
2, 27600, Note_on_c, 0, 59, 0
2, 27600, Note_on_c, 0, 67, 0
2, 27600, Note_on_c, 0, 64, 64
2, 27600, Note_on_c, 0, 60, 64
2, 27720, Note_on_c, 0, 60, 0
2, 27720, Note_on_c, 0, 64, 0
2, 27720, Note_on_c, 0, 66, 64
2, 27720, Note_on_c, 0, 59, 64
2, 27840, Note_on_c, 0, 59, 0
2, 27840, Note_on_c, 0, 57, 64
2, 27960, Note_on_c, 0, 57, 0
2, 27960, Note_on_c, 0, 66, 0
2, 27960, Note_on_c, 0, 67, 64
2, 27960, Note_on_c, 0, 55, 64
2, 28080, Note_on_c, 0, 55, 0
2, 28080, Note_on_c, 0, 67, 0
2, 28080, Note_on_c, 0, 69, 64
2, 28080, Note_on_c, 0, 54, 64
2, 28200, Note_on_c, 0, 54, 0
2, 28200, Note_on_c, 0, 64, 64
2, 28320, Note_on_c, 0, 64, 0
2, 28320, Note_on_c, 0, 72, 0
2, 28320, Note_on_c, 0, 66, 64
2, 28320, Note_on_c, 0, 62, 64
2, 28440, Note_on_c, 0, 62, 0
2, 28440, Note_on_c, 0, 66, 0
2, 28440, Note_on_c, 0, 64, 64
2, 28440, Note_on_c, 0, 60, 64
2, 28560, Note_on_c, 0, 60, 0
2, 28560, Note_on_c, 0, 59, 64
2, 28680, Note_on_c, 0, 59, 0
2, 28680, Note_on_c, 0, 64, 0
2, 28680, Note_on_c, 0, 57, 64
2, 28680, Note_on_c, 0, 66, 64
2, 28800, Note_on_c, 0, 66, 0
2, 28800, Note_on_c, 0, 57, 0
2, 28800, Note_on_c, 0, 74, 64
2, 28800, Note_on_c, 0, 59, 64
2, 28920, Note_on_c, 0, 59, 0
2, 28920, Note_on_c, 0, 60, 64
2, 29040, Note_on_c, 0, 60, 0
2, 29040, Note_on_c, 0, 69, 0
2, 29040, Note_on_c, 0, 66, 64
2, 29040, Note_on_c, 0, 62, 64
2, 29160, Note_on_c, 0, 62, 0
2, 29160, Note_on_c, 0, 66, 0
2, 29160, Note_on_c, 0, 67, 64
2, 29160, Note_on_c, 0, 60, 64
2, 29280, Note_on_c, 0, 60, 0
2, 29280, Note_on_c, 0, 59, 64
2, 29400, Note_on_c, 0, 59, 0
2, 29400, Note_on_c, 0, 67, 0
2, 29400, Note_on_c, 0, 69, 64
2, 29400, Note_on_c, 0, 57, 64
2, 29520, Note_on_c, 0, 57, 0
2, 29520, Note_on_c, 0, 69, 0
2, 29520, Note_on_c, 0, 71, 64
2, 29520, Note_on_c, 0, 55, 64
2, 29640, Note_on_c, 0, 55, 0
2, 29640, Note_on_c, 0, 74, 0
2, 29640, Note_on_c, 0, 67, 64
2, 29640, Note_on_c, 0, 59, 64
2, 29760, Note_on_c, 0, 59, 0
2, 29760, Note_on_c, 0, 67, 0
2, 29760, Note_on_c, 0, 69, 64
2, 29760, Note_on_c, 0, 62, 64
2, 29863, Note_on_c, 0, 71, 0
2, 29880, Note_on_c, 0, 62, 0
2, 29880, Note_on_c, 0, 69, 0
2, 29880, Note_on_c, 0, 67, 64
2, 29880, Note_on_c, 0, 71, 64
2, 30000, Note_on_c, 0, 72, 64
2, 30007, Note_on_c, 0, 71, 0
2, 30007, Note_on_c, 0, 67, 0
2, 30120, Note_on_c, 0, 72, 0
2, 30120, Note_on_c, 0, 74, 64
2, 30240, Note_on_c, 0, 74, 0
2, 30240, Note_on_c, 0, 76, 64
2, 30240, Note_on_c, 0, 60, 64
2, 30360, Note_on_c, 0, 74, 64
2, 30480, Note_on_c, 0, 74, 0
2, 30480, Note_on_c, 0, 72, 64
2, 30495, Note_on_c, 0, 60, 0
2, 30600, Note_on_c, 0, 72, 0
2, 30600, Note_on_c, 0, 71, 64
2, 30600, Note_on_c, 0, 64, 64
2, 30720, Note_on_c, 0, 71, 0
2, 30720, Note_on_c, 0, 69, 64
2, 30840, Note_on_c, 0, 69, 0
2, 30840, Note_on_c, 0, 67, 64
2, 30847, Note_on_c, 0, 64, 0
2, 30960, Note_on_c, 0, 67, 0
2, 30960, Note_on_c, 0, 69, 64
2, 30960, Note_on_c, 0, 54, 64
2, 31080, Note_on_c, 0, 54, 0
2, 31080, Note_on_c, 0, 76, 0
2, 31080, Note_on_c, 0, 66, 64
2, 31080, Note_on_c, 0, 57, 64
2, 31200, Note_on_c, 0, 57, 0
2, 31200, Note_on_c, 0, 66, 0
2, 31200, Note_on_c, 0, 67, 64
2, 31200, Note_on_c, 0, 60, 64
2, 31320, Note_on_c, 0, 60, 0
2, 31320, Note_on_c, 0, 67, 0
2, 31320, Note_on_c, 0, 66, 64
2, 31320, Note_on_c, 0, 69, 64
2, 31321, Note_on_c, 0, 69, 0
2, 31440, Note_on_c, 0, 69, 0
2, 31440, Note_on_c, 0, 71, 64
2, 31447, Note_on_c, 0, 66, 0
2, 31560, Note_on_c, 0, 71, 0
2, 31560, Note_on_c, 0, 72, 64
2, 31680, Note_on_c, 0, 72, 0
2, 31680, Note_on_c, 0, 74, 64
2, 31680, Note_on_c, 0, 59, 64
2, 31800, Note_on_c, 0, 72, 64
2, 31920, Note_on_c, 0, 72, 0
2, 31920, Note_on_c, 0, 71, 64
2, 31935, Note_on_c, 0, 59, 0
2, 32040, Note_on_c, 0, 71, 0
2, 32040, Note_on_c, 0, 69, 64
2, 32040, Note_on_c, 0, 62, 64
2, 32160, Note_on_c, 0, 69, 0
2, 32160, Note_on_c, 0, 67, 64
2, 32280, Note_on_c, 0, 67, 0
2, 32280, Note_on_c, 0, 66, 64
2, 32287, Note_on_c, 0, 62, 0
2, 32400, Note_on_c, 0, 66, 0
2, 32400, Note_on_c, 0, 67, 64
2, 32400, Note_on_c, 0, 52, 64
2, 32520, Note_on_c, 0, 52, 0
2, 32520, Note_on_c, 0, 74, 0
2, 32520, Note_on_c, 0, 64, 64
2, 32520, Note_on_c, 0, 55, 64
2, 32640, Note_on_c, 0, 55, 0
2, 32640, Note_on_c, 0, 64, 0
2, 32640, Note_on_c, 0, 66, 64
2, 32640, Note_on_c, 0, 59, 64
2, 32743, Note_on_c, 0, 67, 0
2, 32760, Note_on_c, 0, 59, 0
2, 32760, Note_on_c, 0, 66, 0
2, 32760, Note_on_c, 0, 64, 64
2, 32760, Note_on_c, 0, 67, 64
2, 32880, Note_on_c, 0, 69, 64
2, 32887, Note_on_c, 0, 67, 0
2, 32903, Note_on_c, 0, 64, 0
2, 33000, Note_on_c, 0, 69, 0
2, 33000, Note_on_c, 0, 71, 64
2, 33120, Note_on_c, 0, 71, 0
2, 33120, Note_on_c, 0, 72, 64
2, 33120, Note_on_c, 0, 57, 64
2, 33240, Note_on_c, 0, 71, 64
2, 33360, Note_on_c, 0, 71, 0
2, 33360, Note_on_c, 0, 69, 64
2, 33367, Note_on_c, 0, 57, 0
2, 33480, Note_on_c, 0, 69, 0
2, 33480, Note_on_c, 0, 67, 64
2, 33480, Note_on_c, 0, 60, 64
2, 33600, Note_on_c, 0, 67, 0
2, 33600, Note_on_c, 0, 66, 64
2, 33720, Note_on_c, 0, 66, 0
2, 33720, Note_on_c, 0, 64, 64
2, 33735, Note_on_c, 0, 60, 0
2, 33840, Note_on_c, 0, 64, 0
2, 33840, Note_on_c, 0, 66, 64
2, 33840, Note_on_c, 0, 50, 64
2, 33960, Note_on_c, 0, 50, 0
2, 33960, Note_on_c, 0, 72, 0
2, 33960, Note_on_c, 0, 62, 64
2, 33960, Note_on_c, 0, 54, 64
2, 34080, Note_on_c, 0, 54, 0
2, 34080, Note_on_c, 0, 62, 0
2, 34080, Note_on_c, 0, 64, 64
2, 34080, Note_on_c, 0, 57, 64
2, 34151, Note_on_c, 0, 66, 0
2, 34200, Note_on_c, 0, 57, 0
2, 34200, Note_on_c, 0, 64, 0
2, 34200, Note_on_c, 0, 66, 64
2, 34200, Note_on_c, 0, 62, 64
2, 34320, Note_on_c, 0, 67, 64
2, 34327, Note_on_c, 0, 66, 0
2, 34359, Note_on_c, 0, 62, 0
2, 34440, Note_on_c, 0, 67, 0
2, 34440, Note_on_c, 0, 69, 64
2, 34560, Note_on_c, 0, 69, 0
2, 34560, Note_on_c, 0, 71, 64
2, 34560, Note_on_c, 0, 55, 64
2, 34680, Note_on_c, 0, 59, 64
2, 34800, Note_on_c, 0, 59, 0
2, 34800, Note_on_c, 0, 62, 64
2, 34920, Note_on_c, 0, 62, 0
2, 34920, Note_on_c, 0, 71, 0
2, 34920, Note_on_c, 0, 72, 64
2, 34920, Note_on_c, 0, 64, 64
2, 35010, Note_on_c, 0, 72, 0
2, 35010, Note_on_c, 0, 71, 64
2, 35100, Note_on_c, 0, 71, 0
2, 35100, Note_on_c, 0, 69, 64
2, 35190, Note_on_c, 0, 69, 0
2, 35190, Note_on_c, 0, 71, 64
2, 35280, Note_on_c, 0, 71, 0
2, 35280, Note_on_c, 0, 55, 0
2, 35280, Note_on_c, 0, 57, 64
2, 35280, Note_on_c, 0, 72, 64
2, 35400, Note_on_c, 0, 64, 0
2, 35400, Note_on_c, 0, 60, 64
2, 35520, Note_on_c, 0, 60, 0
2, 35520, Note_on_c, 0, 64, 64
2, 35640, Note_on_c, 0, 64, 0
2, 35640, Note_on_c, 0, 72, 0
2, 35640, Note_on_c, 0, 66, 64
2, 35640, Note_on_c, 0, 74, 64
2, 35730, Note_on_c, 0, 74, 0
2, 35730, Note_on_c, 0, 72, 64
2, 35820, Note_on_c, 0, 72, 0
2, 35820, Note_on_c, 0, 71, 64
2, 35910, Note_on_c, 0, 71, 0
2, 35910, Note_on_c, 0, 72, 64
2, 36000, Note_on_c, 0, 72, 0
2, 36000, Note_on_c, 0, 57, 0
2, 36000, Note_on_c, 0, 74, 64
2, 36000, Note_on_c, 0, 59, 64
2, 36120, Note_on_c, 0, 66, 0
2, 36120, Note_on_c, 0, 62, 64
2, 36151, Note_on_c, 0, 74, 0
2, 36240, Note_on_c, 0, 62, 0
2, 36240, Note_on_c, 0, 66, 64
2, 36360, Note_on_c, 0, 66, 0
2, 36360, Note_on_c, 0, 59, 0
2, 36360, Note_on_c, 0, 71, 64
2, 36360, Note_on_c, 0, 67, 64
2, 36480, Note_on_c, 0, 67, 0
2, 36480, Note_on_c, 0, 55, 64
2, 36511, Note_on_c, 0, 71, 0
2, 36600, Note_on_c, 0, 55, 0
2, 36600, Note_on_c, 0, 59, 64
2, 36720, Note_on_c, 0, 59, 0
2, 36720, Note_on_c, 0, 67, 64
2, 36720, Note_on_c, 0, 64, 64
2, 36840, Note_on_c, 0, 64, 0
2, 36840, Note_on_c, 0, 52, 64
2, 36887, Note_on_c, 0, 67, 0
2, 36960, Note_on_c, 0, 52, 0
2, 36960, Note_on_c, 0, 54, 64
2, 37080, Note_on_c, 0, 54, 0
2, 37080, Note_on_c, 0, 76, 64
2, 37080, Note_on_c, 0, 55, 64
2, 37200, Note_on_c, 0, 55, 0
2, 37200, Note_on_c, 0, 57, 64
2, 37320, Note_on_c, 0, 57, 0
2, 37320, Note_on_c, 0, 59, 64
2, 37440, Note_on_c, 0, 59, 0
2, 37440, Note_on_c, 0, 60, 64
2, 37560, Note_on_c, 0, 57, 64
2, 37680, Note_on_c, 0, 57, 0
2, 37680, Note_on_c, 0, 55, 64
2, 37800, Note_on_c, 0, 55, 0
2, 37800, Note_on_c, 0, 76, 0
2, 37800, Note_on_c, 0, 74, 64
2, 37800, Note_on_c, 0, 54, 64
2, 37920, Note_on_c, 0, 54, 0
2, 37920, Note_on_c, 0, 55, 64
2, 37935, Note_on_c, 0, 74, 0
2, 38040, Note_on_c, 0, 55, 0
2, 38040, Note_on_c, 0, 57, 64
2, 38070, Note_on_c, 0, 78, 64
2, 38160, Note_on_c, 0, 78, 0
2, 38160, Note_on_c, 0, 57, 0
2, 38160, Note_on_c, 0, 60, 0
2, 38160, Note_on_c, 0, 59, 64
2, 38160, Note_on_c, 0, 79, 64
2, 38280, Note_on_c, 0, 55, 64
2, 38311, Note_on_c, 0, 79, 0
2, 38400, Note_on_c, 0, 55, 0
2, 38400, Note_on_c, 0, 54, 64
2, 38520, Note_on_c, 0, 54, 0
2, 38520, Note_on_c, 0, 72, 64
2, 38520, Note_on_c, 0, 52, 64
2, 38640, Note_on_c, 0, 52, 0
2, 38640, Note_on_c, 0, 54, 64
2, 38760, Note_on_c, 0, 54, 0
2, 38760, Note_on_c, 0, 55, 64
2, 38880, Note_on_c, 0, 55, 0
2, 38880, Note_on_c, 0, 59, 0
2, 38880, Note_on_c, 0, 57, 64
2, 39000, Note_on_c, 0, 54, 64
2, 39120, Note_on_c, 0, 54, 0
2, 39120, Note_on_c, 0, 52, 64
2, 39240, Note_on_c, 0, 52, 0
2, 39240, Note_on_c, 0, 72, 0
2, 39240, Note_on_c, 0, 71, 64
2, 39240, Note_on_c, 0, 50, 64
2, 39360, Note_on_c, 0, 50, 0
2, 39360, Note_on_c, 0, 52, 64
2, 39383, Note_on_c, 0, 71, 0
2, 39480, Note_on_c, 0, 52, 0
2, 39480, Note_on_c, 0, 48, 64
2, 39510, Note_on_c, 0, 78, 64
2, 39600, Note_on_c, 0, 78, 0
2, 39600, Note_on_c, 0, 48, 0
2, 39600, Note_on_c, 0, 57, 0
2, 39600, Note_on_c, 0, 79, 64
2, 39600, Note_on_c, 0, 47, 64
2, 39720, Note_on_c, 0, 50, 64
2, 39743, Note_on_c, 0, 79, 0
2, 39840, Note_on_c, 0, 50, 0
2, 39840, Note_on_c, 0, 55, 64
2, 39960, Note_on_c, 0, 47, 0
2, 39960, Note_on_c, 0, 69, 64
2, 39960, Note_on_c, 0, 49, 64
2, 40080, Note_on_c, 0, 55, 0
2, 40080, Note_on_c, 0, 54, 64
2, 40200, Note_on_c, 0, 54, 0
2, 40200, Note_on_c, 0, 55, 64
2, 40320, Note_on_c, 0, 55, 0
2, 40320, Note_on_c, 0, 49, 0
2, 40320, Note_on_c, 0, 54, 64
2, 40320, Note_on_c, 0, 50, 64
2, 40440, Note_on_c, 0, 69, 0
2, 40440, Note_on_c, 0, 71, 64
2, 40560, Note_on_c, 0, 71, 0
2, 40560, Note_on_c, 0, 72, 64
2, 40680, Note_on_c, 0, 72, 0
2, 40680, Note_on_c, 0, 54, 0
2, 40680, Note_on_c, 0, 71, 64
2, 40680, Note_on_c, 0, 55, 64
2, 40800, Note_on_c, 0, 71, 0
2, 40800, Note_on_c, 0, 69, 64
2, 40920, Note_on_c, 0, 69, 0
2, 40920, Note_on_c, 0, 67, 64
2, 41040, Note_on_c, 0, 67, 0
2, 41040, Note_on_c, 0, 55, 0
2, 41040, Note_on_c, 0, 50, 0
2, 41040, Note_on_c, 0, 66, 64
2, 41040, Note_on_c, 0, 57, 64
2, 41160, Note_on_c, 0, 66, 0
2, 41160, Note_on_c, 0, 76, 64
2, 41280, Note_on_c, 0, 76, 0
2, 41280, Note_on_c, 0, 74, 64
2, 41400, Note_on_c, 0, 74, 0
2, 41400, Note_on_c, 0, 57, 0
2, 41400, Note_on_c, 0, 50, 64
2, 41400, Note_on_c, 0, 54, 64
2, 41400, Note_on_c, 0, 72, 64
2, 41520, Note_on_c, 0, 72, 0
2, 41520, Note_on_c, 0, 71, 64
2, 41640, Note_on_c, 0, 71, 0
2, 41640, Note_on_c, 0, 69, 64
2, 41647, Note_on_c, 0, 54, 0
2, 41647, Note_on_c, 0, 50, 0
2, 41760, Note_on_c, 0, 69, 0
2, 41760, Note_on_c, 0, 71, 64
2, 41760, Note_on_c, 0, 55, 64
2, 41880, Note_on_c, 0, 71, 0
2, 41880, Note_on_c, 0, 72, 64
2, 42000, Note_on_c, 0, 72, 0
2, 42000, Note_on_c, 0, 74, 64
2, 42000, Note_on_c, 0, 59, 64
2, 42120, Note_on_c, 0, 59, 0
2, 42120, Note_on_c, 0, 74, 0
2, 42120, Note_on_c, 0, 72, 64
2, 42120, Note_on_c, 0, 62, 64
2, 42240, Note_on_c, 0, 72, 0
2, 42240, Note_on_c, 0, 71, 64
2, 42360, Note_on_c, 0, 71, 0
2, 42360, Note_on_c, 0, 55, 0
2, 42360, Note_on_c, 0, 69, 64
2, 42360, Note_on_c, 0, 54, 64
2, 42480, Note_on_c, 0, 54, 0
2, 42480, Note_on_c, 0, 69, 0
2, 42480, Note_on_c, 0, 67, 64
2, 42480, Note_on_c, 0, 52, 64
2, 42600, Note_on_c, 0, 67, 0
2, 42600, Note_on_c, 0, 79, 64
2, 42720, Note_on_c, 0, 79, 0
2, 42720, Note_on_c, 0, 78, 64
2, 42727, Note_on_c, 0, 52, 0
2, 42840, Note_on_c, 0, 78, 0
2, 42840, Note_on_c, 0, 62, 0
2, 42840, Note_on_c, 0, 57, 64
2, 42840, Note_on_c, 0, 76, 64
2, 42840, Note_on_c, 0, 61, 64
2, 42960, Note_on_c, 0, 61, 0
2, 42960, Note_on_c, 0, 76, 0
2, 42960, Note_on_c, 0, 74, 64
2, 42960, Note_on_c, 0, 62, 64
2, 43080, Note_on_c, 0, 62, 0
2, 43080, Note_on_c, 0, 74, 0
2, 43080, Note_on_c, 0, 64, 64
2, 43080, Note_on_c, 0, 73, 64
2, 43087, Note_on_c, 0, 57, 0
2, 43200, Note_on_c, 0, 73, 0
2, 43200, Note_on_c, 0, 64, 0
2, 43200, Note_on_c, 0, 74, 64
2, 43200, Note_on_c, 0, 66, 64
2, 43200, Note_on_c, 0, 50, 64
2, 43320, Note_on_c, 0, 50, 0
2, 43320, Note_on_c, 0, 54, 64
2, 43343, Note_on_c, 0, 66, 0
2, 43440, Note_on_c, 0, 54, 0
2, 43440, Note_on_c, 0, 57, 64
2, 43455, Note_on_c, 0, 74, 0
2, 43560, Note_on_c, 0, 57, 0
2, 43560, Note_on_c, 0, 67, 64
2, 43560, Note_on_c, 0, 59, 64
2, 43650, Note_on_c, 0, 67, 0
2, 43650, Note_on_c, 0, 66, 64
2, 43703, Note_on_c, 0, 59, 0
2, 43740, Note_on_c, 0, 66, 0
2, 43740, Note_on_c, 0, 64, 64
2, 43830, Note_on_c, 0, 64, 0
2, 43830, Note_on_c, 0, 66, 64
2, 43920, Note_on_c, 0, 66, 0
2, 43920, Note_on_c, 0, 73, 64
2, 43920, Note_on_c, 0, 67, 64
2, 43920, Note_on_c, 0, 52, 64
2, 44040, Note_on_c, 0, 52, 0
2, 44040, Note_on_c, 0, 55, 64
2, 44047, Note_on_c, 0, 67, 0
2, 44160, Note_on_c, 0, 55, 0
2, 44160, Note_on_c, 0, 57, 64
2, 44183, Note_on_c, 0, 73, 0
2, 44280, Note_on_c, 0, 57, 0
2, 44280, Note_on_c, 0, 61, 64
2, 44280, Note_on_c, 0, 69, 64
2, 44370, Note_on_c, 0, 69, 0
2, 44370, Note_on_c, 0, 67, 64
2, 44407, Note_on_c, 0, 61, 0
2, 44460, Note_on_c, 0, 67, 0
2, 44460, Note_on_c, 0, 66, 64
2, 44550, Note_on_c, 0, 66, 0
2, 44550, Note_on_c, 0, 67, 64
2, 44640, Note_on_c, 0, 67, 0
2, 44640, Note_on_c, 0, 72, 64
2, 44640, Note_on_c, 0, 69, 64
2, 44640, Note_on_c, 0, 54, 64
2, 44760, Note_on_c, 0, 54, 0
2, 44760, Note_on_c, 0, 55, 64
2, 44775, Note_on_c, 0, 69, 0
2, 44880, Note_on_c, 0, 55, 0
2, 44880, Note_on_c, 0, 57, 64
2, 44887, Note_on_c, 0, 72, 0
2, 45000, Note_on_c, 0, 57, 0
2, 45000, Note_on_c, 0, 66, 64
2, 45000, Note_on_c, 0, 62, 64
2, 45151, Note_on_c, 0, 66, 0
2, 45311, Note_on_c, 0, 62, 0
2, 45360, Note_on_c, 0, 71, 64
2, 45360, Note_on_c, 0, 62, 64
2, 45480, Note_on_c, 0, 60, 64
2, 45527, Note_on_c, 0, 62, 0
2, 45600, Note_on_c, 0, 60, 0
2, 45600, Note_on_c, 0, 59, 64
2, 45631, Note_on_c, 0, 71, 0
2, 45720, Note_on_c, 0, 59, 0
2, 45720, Note_on_c, 0, 74, 64
2, 45720, Note_on_c, 0, 71, 64
2, 45720, Note_on_c, 0, 57, 64
2, 45840, Note_on_c, 0, 57, 0
2, 45840, Note_on_c, 0, 55, 64
2, 45847, Note_on_c, 0, 74, 0
2, 45960, Note_on_c, 0, 55, 0
2, 45960, Note_on_c, 0, 54, 64
2, 46080, Note_on_c, 0, 54, 0
2, 46080, Note_on_c, 0, 79, 64
2, 46080, Note_on_c, 0, 52, 64
2, 46200, Note_on_c, 0, 52, 0
2, 46200, Note_on_c, 0, 55, 64
2, 46320, Note_on_c, 0, 55, 0
2, 46320, Note_on_c, 0, 59, 64
2, 46440, Note_on_c, 0, 59, 0
2, 46440, Note_on_c, 0, 71, 0
2, 46440, Note_on_c, 0, 69, 64
2, 46440, Note_on_c, 0, 61, 64
2, 46560, Note_on_c, 0, 61, 0
2, 46560, Note_on_c, 0, 64, 64
2, 46680, Note_on_c, 0, 64, 0
2, 46680, Note_on_c, 0, 57, 64
2, 46710, Note_on_c, 0, 69, 0
2, 46710, Note_on_c, 0, 73, 64
2, 46800, Note_on_c, 0, 73, 0
2, 46800, Note_on_c, 0, 57, 0
2, 46800, Note_on_c, 0, 79, 0
2, 46800, Note_on_c, 0, 78, 64
2, 46800, Note_on_c, 0, 74, 64
2, 46800, Note_on_c, 0, 50, 64
2, 46920, Note_on_c, 0, 50, 0
2, 46920, Note_on_c, 0, 62, 64
2, 47040, Note_on_c, 0, 62, 0
2, 47040, Note_on_c, 0, 61, 64
2, 47160, Note_on_c, 0, 61, 0
2, 47160, Note_on_c, 0, 74, 0
2, 47160, Note_on_c, 0, 67, 64
2, 47160, Note_on_c, 0, 59, 64
2, 47280, Note_on_c, 0, 59, 0
2, 47280, Note_on_c, 0, 57, 64
2, 47400, Note_on_c, 0, 57, 0
2, 47400, Note_on_c, 0, 55, 64
2, 47520, Note_on_c, 0, 55, 0
2, 47520, Note_on_c, 0, 78, 0
2, 47520, Note_on_c, 0, 76, 64
2, 47520, Note_on_c, 0, 49, 64
2, 47640, Note_on_c, 0, 49, 0
2, 47640, Note_on_c, 0, 52, 64
2, 47760, Note_on_c, 0, 52, 0
2, 47760, Note_on_c, 0, 55, 64
2, 47880, Note_on_c, 0, 55, 0
2, 47880, Note_on_c, 0, 67, 0
2, 47880, Note_on_c, 0, 66, 64
2, 47880, Note_on_c, 0, 57, 64
2, 48000, Note_on_c, 0, 57, 0
2, 48000, Note_on_c, 0, 61, 64
2, 48120, Note_on_c, 0, 61, 0
2, 48120, Note_on_c, 0, 54, 64
2, 48150, Note_on_c, 0, 66, 0
2, 48150, Note_on_c, 0, 73, 64
2, 48240, Note_on_c, 0, 73, 0
2, 48240, Note_on_c, 0, 54, 0
2, 48240, Note_on_c, 0, 76, 0
2, 48240, Note_on_c, 0, 74, 64
2, 48240, Note_on_c, 0, 47, 64
2, 48360, Note_on_c, 0, 47, 0
2, 48360, Note_on_c, 0, 59, 64
2, 48480, Note_on_c, 0, 59, 0
2, 48480, Note_on_c, 0, 57, 64
2, 48600, Note_on_c, 0, 57, 0
2, 48600, Note_on_c, 0, 64, 64
2, 48600, Note_on_c, 0, 55, 64
2, 48720, Note_on_c, 0, 55, 0
2, 48720, Note_on_c, 0, 54, 64
2, 48840, Note_on_c, 0, 54, 0
2, 48840, Note_on_c, 0, 52, 64
2, 48960, Note_on_c, 0, 52, 0
2, 48960, Note_on_c, 0, 74, 0
2, 48960, Note_on_c, 0, 73, 64
2, 48960, Note_on_c, 0, 57, 64
2, 49080, Note_on_c, 0, 64, 0
2, 49080, Note_on_c, 0, 66, 64
2, 49200, Note_on_c, 0, 66, 0
2, 49200, Note_on_c, 0, 67, 64
2, 49320, Note_on_c, 0, 67, 0
2, 49320, Note_on_c, 0, 73, 0
2, 49320, Note_on_c, 0, 74, 64
2, 49320, Note_on_c, 0, 66, 64
2, 49440, Note_on_c, 0, 66, 0
2, 49440, Note_on_c, 0, 64, 64
2, 49560, Note_on_c, 0, 64, 0
2, 49560, Note_on_c, 0, 62, 64
2, 49680, Note_on_c, 0, 62, 0
2, 49680, Note_on_c, 0, 74, 0
2, 49680, Note_on_c, 0, 57, 0
2, 49680, Note_on_c, 0, 76, 64
2, 49680, Note_on_c, 0, 61, 64
2, 49800, Note_on_c, 0, 61, 0
2, 49800, Note_on_c, 0, 71, 64
2, 49920, Note_on_c, 0, 71, 0
2, 49920, Note_on_c, 0, 69, 64
2, 50040, Note_on_c, 0, 69, 0
2, 50040, Note_on_c, 0, 61, 64
2, 50040, Note_on_c, 0, 67, 64
2, 50160, Note_on_c, 0, 67, 0
2, 50160, Note_on_c, 0, 66, 64
2, 50279, Note_on_c, 0, 61, 0
2, 50280, Note_on_c, 0, 66, 0
2, 50280, Note_on_c, 0, 64, 64
2, 50400, Note_on_c, 0, 64, 0
2, 50400, Note_on_c, 0, 66, 64
2, 50400, Note_on_c, 0, 62, 64
2, 50520, Note_on_c, 0, 66, 0
2, 50520, Note_on_c, 0, 67, 64
2, 50640, Note_on_c, 0, 67, 0
2, 50640, Note_on_c, 0, 76, 0
2, 50640, Note_on_c, 0, 73, 64
2, 50640, Note_on_c, 0, 69, 64
2, 50760, Note_on_c, 0, 69, 0
2, 50760, Note_on_c, 0, 73, 0
2, 50760, Note_on_c, 0, 74, 64
2, 50760, Note_on_c, 0, 67, 64
2, 50880, Note_on_c, 0, 67, 0
2, 50880, Note_on_c, 0, 66, 64
2, 50887, Note_on_c, 0, 62, 0
2, 51000, Note_on_c, 0, 66, 0
2, 51000, Note_on_c, 0, 74, 0
2, 51000, Note_on_c, 0, 76, 64
2, 51000, Note_on_c, 0, 64, 64
2, 51120, Note_on_c, 0, 64, 0
2, 51120, Note_on_c, 0, 76, 0
2, 51120, Note_on_c, 0, 78, 64
2, 51120, Note_on_c, 0, 62, 64
2, 51240, Note_on_c, 0, 72, 64
2, 51287, Note_on_c, 0, 62, 0
2, 51360, Note_on_c, 0, 72, 0
2, 51360, Note_on_c, 0, 71, 64
2, 51480, Note_on_c, 0, 71, 0
2, 51480, Note_on_c, 0, 63, 64
2, 51480, Note_on_c, 0, 69, 64
2, 51600, Note_on_c, 0, 69, 0
2, 51600, Note_on_c, 0, 67, 64
2, 51720, Note_on_c, 0, 67, 0
2, 51720, Note_on_c, 0, 66, 64
2, 51727, Note_on_c, 0, 63, 0
2, 51840, Note_on_c, 0, 66, 0
2, 51840, Note_on_c, 0, 67, 64
2, 51840, Note_on_c, 0, 64, 64
2, 51960, Note_on_c, 0, 67, 0
2, 51960, Note_on_c, 0, 69, 64
2, 52080, Note_on_c, 0, 69, 0
2, 52080, Note_on_c, 0, 78, 0
2, 52080, Note_on_c, 0, 75, 64
2, 52080, Note_on_c, 0, 71, 64
2, 52200, Note_on_c, 0, 71, 0
2, 52200, Note_on_c, 0, 75, 0
2, 52200, Note_on_c, 0, 76, 64
2, 52200, Note_on_c, 0, 69, 64
2, 52320, Note_on_c, 0, 69, 0
2, 52320, Note_on_c, 0, 67, 64
2, 52439, Note_on_c, 0, 64, 0
2, 52440, Note_on_c, 0, 67, 0
2, 52440, Note_on_c, 0, 76, 0
2, 52440, Note_on_c, 0, 78, 64
2, 52440, Note_on_c, 0, 66, 64
2, 52560, Note_on_c, 0, 66, 0
2, 52560, Note_on_c, 0, 78, 0
2, 52560, Note_on_c, 0, 64, 64
2, 52560, Note_on_c, 0, 79, 64
2, 52680, Note_on_c, 0, 74, 64
2, 52727, Note_on_c, 0, 64, 0
2, 52800, Note_on_c, 0, 74, 0
2, 52800, Note_on_c, 0, 79, 0
2, 52800, Note_on_c, 0, 73, 64
2, 52920, Note_on_c, 0, 65, 64
2, 52920, Note_on_c, 0, 71, 64
2, 53040, Note_on_c, 0, 71, 0
2, 53040, Note_on_c, 0, 70, 64
2, 53160, Note_on_c, 0, 70, 0
2, 53160, Note_on_c, 0, 68, 64
2, 53183, Note_on_c, 0, 65, 0
2, 53280, Note_on_c, 0, 68, 0
2, 53280, Note_on_c, 0, 70, 64
2, 53280, Note_on_c, 0, 66, 64
2, 53400, Note_on_c, 0, 73, 0
2, 53400, Note_on_c, 0, 74, 64
2, 53520, Note_on_c, 0, 74, 0
2, 53520, Note_on_c, 0, 76, 64
2, 53640, Note_on_c, 0, 76, 0
2, 53640, Note_on_c, 0, 70, 0
2, 53640, Note_on_c, 0, 74, 64
2, 53640, Note_on_c, 0, 71, 64
2, 53760, Note_on_c, 0, 74, 0
2, 53760, Note_on_c, 0, 73, 64
2, 53880, Note_on_c, 0, 73, 0
2, 53880, Note_on_c, 0, 71, 64
2, 54000, Note_on_c, 0, 71, 0
2, 54000, Note_on_c, 0, 71, 0
2, 54000, Note_on_c, 0, 82, 64
2, 54000, Note_on_c, 0, 73, 64
2, 54120, Note_on_c, 0, 66, 0
2, 54120, Note_on_c, 0, 67, 64
2, 54240, Note_on_c, 0, 67, 0
2, 54240, Note_on_c, 0, 66, 64
2, 54360, Note_on_c, 0, 66, 0
2, 54360, Note_on_c, 0, 73, 0
2, 54360, Note_on_c, 0, 82, 0
2, 54360, Note_on_c, 0, 73, 64
2, 54360, Note_on_c, 0, 64, 64
2, 54448, Note_on_c, 0, 74, 64
2, 54480, Note_on_c, 0, 64, 0
2, 54480, Note_on_c, 0, 62, 64
2, 54487, Note_on_c, 0, 73, 0
2, 54488, Note_on_c, 0, 73, 64
2, 54519, Note_on_c, 0, 74, 0
2, 54528, Note_on_c, 0, 71, 64
2, 54559, Note_on_c, 0, 73, 0
2, 54560, Note_on_c, 0, 73, 64
2, 54599, Note_on_c, 0, 71, 0
2, 54600, Note_on_c, 0, 62, 0
2, 54600, Note_on_c, 0, 61, 64
2, 54720, Note_on_c, 0, 61, 0
2, 54720, Note_on_c, 0, 78, 64
2, 54720, Note_on_c, 0, 62, 64
2, 54840, Note_on_c, 0, 76, 64
2, 54847, Note_on_c, 0, 73, 0
2, 54960, Note_on_c, 0, 76, 0
2, 54960, Note_on_c, 0, 74, 64
2, 55080, Note_on_c, 0, 74, 0
2, 55080, Note_on_c, 0, 73, 64
2, 55200, Note_on_c, 0, 73, 0
2, 55200, Note_on_c, 0, 71, 64
2, 55320, Note_on_c, 0, 71, 0
2, 55320, Note_on_c, 0, 70, 64
2, 55440, Note_on_c, 0, 70, 0
2, 55440, Note_on_c, 0, 71, 64
2, 55560, Note_on_c, 0, 62, 0
2, 55560, Note_on_c, 0, 64, 64
2, 55567, Note_on_c, 0, 71, 0
2, 55680, Note_on_c, 0, 64, 0
2, 55680, Note_on_c, 0, 62, 64
2, 55800, Note_on_c, 0, 62, 0
2, 55800, Note_on_c, 0, 78, 0
2, 55800, Note_on_c, 0, 73, 64
2, 55800, Note_on_c, 0, 76, 64
2, 55800, Note_on_c, 0, 61, 64
2, 55920, Note_on_c, 0, 61, 0
2, 55920, Note_on_c, 0, 59, 64
2, 56040, Note_on_c, 0, 59, 0
2, 56040, Note_on_c, 0, 58, 64
2, 56160, Note_on_c, 0, 58, 0
2, 56160, Note_on_c, 0, 73, 0
2, 56160, Note_on_c, 0, 66, 64
2, 56160, Note_on_c, 0, 59, 64
2, 56280, Note_on_c, 0, 76, 0
2, 56280, Note_on_c, 0, 78, 64
2, 56400, Note_on_c, 0, 78, 0
2, 56400, Note_on_c, 0, 76, 64
2, 56520, Note_on_c, 0, 76, 0
2, 56520, Note_on_c, 0, 74, 64
2, 56640, Note_on_c, 0, 74, 0
2, 56640, Note_on_c, 0, 73, 64
2, 56760, Note_on_c, 0, 73, 0
2, 56760, Note_on_c, 0, 71, 64
2, 56880, Note_on_c, 0, 71, 0
2, 56880, Note_on_c, 0, 66, 0
2, 56880, Note_on_c, 0, 78, 64
2, 57000, Note_on_c, 0, 59, 0
2, 57000, Note_on_c, 0, 60, 64
2, 57120, Note_on_c, 0, 60, 0
2, 57120, Note_on_c, 0, 59, 64
2, 57240, Note_on_c, 0, 59, 0
2, 57240, Note_on_c, 0, 66, 64
2, 57240, Note_on_c, 0, 57, 64
2, 57360, Note_on_c, 0, 57, 0
2, 57360, Note_on_c, 0, 55, 64
2, 57367, Note_on_c, 0, 66, 0
2, 57480, Note_on_c, 0, 55, 0
2, 57480, Note_on_c, 0, 54, 64
2, 57600, Note_on_c, 0, 54, 0
2, 57600, Note_on_c, 0, 71, 64
2, 57600, Note_on_c, 0, 55, 64
2, 57720, Note_on_c, 0, 78, 0
2, 57720, Note_on_c, 0, 79, 64
2, 57840, Note_on_c, 0, 79, 0
2, 57840, Note_on_c, 0, 78, 64
2, 57960, Note_on_c, 0, 78, 0
2, 57960, Note_on_c, 0, 76, 64
2, 58080, Note_on_c, 0, 76, 0
2, 58080, Note_on_c, 0, 75, 64
2, 58200, Note_on_c, 0, 75, 0
2, 58200, Note_on_c, 0, 73, 64
2, 58320, Note_on_c, 0, 71, 0
2, 58320, Note_on_c, 0, 81, 64
2, 58440, Note_on_c, 0, 55, 0
2, 58440, Note_on_c, 0, 57, 64
2, 58560, Note_on_c, 0, 57, 0
2, 58560, Note_on_c, 0, 55, 64
2, 58671, Note_on_c, 0, 73, 0
2, 58680, Note_on_c, 0, 55, 0
2, 58680, Note_on_c, 0, 75, 64
2, 58680, Note_on_c, 0, 54, 64
2, 58800, Note_on_c, 0, 54, 0
2, 58800, Note_on_c, 0, 75, 0
2, 58800, Note_on_c, 0, 76, 64
2, 58800, Note_on_c, 0, 52, 64
2, 58920, Note_on_c, 0, 52, 0
2, 58920, Note_on_c, 0, 76, 0
2, 58920, Note_on_c, 0, 51, 64
2, 58920, Note_on_c, 0, 78, 64
2, 59040, Note_on_c, 0, 78, 0
2, 59040, Note_on_c, 0, 51, 0
2, 59040, Note_on_c, 0, 71, 64
2, 59040, Note_on_c, 0, 52, 64
2, 59160, Note_on_c, 0, 52, 0
2, 59160, Note_on_c, 0, 54, 64
2, 59175, Note_on_c, 0, 71, 0
2, 59280, Note_on_c, 0, 54, 0
2, 59280, Note_on_c, 0, 52, 64
2, 59400, Note_on_c, 0, 52, 0
2, 59400, Note_on_c, 0, 81, 0
2, 59400, Note_on_c, 0, 79, 64
2, 59400, Note_on_c, 0, 76, 64
2, 59400, Note_on_c, 0, 50, 64
2, 59520, Note_on_c, 0, 50, 0
2, 59520, Note_on_c, 0, 49, 64
2, 59640, Note_on_c, 0, 49, 0
2, 59640, Note_on_c, 0, 47, 64
2, 59760, Note_on_c, 0, 47, 0
2, 59760, Note_on_c, 0, 79, 0
2, 59760, Note_on_c, 0, 78, 64
2, 59760, Note_on_c, 0, 46, 64
2, 59880, Note_on_c, 0, 46, 0
2, 59880, Note_on_c, 0, 76, 0
2, 59880, Note_on_c, 0, 76, 64
2, 59880, Note_on_c, 0, 42, 64
2, 60000, Note_on_c, 0, 42, 0
2, 60000, Note_on_c, 0, 76, 0
2, 60000, Note_on_c, 0, 74, 64
2, 60000, Note_on_c, 0, 44, 64
2, 60120, Note_on_c, 0, 44, 0
2, 60120, Note_on_c, 0, 74, 0
2, 60120, Note_on_c, 0, 73, 64
2, 60120, Note_on_c, 0, 46, 64
2, 60240, Note_on_c, 0, 46, 0
2, 60240, Note_on_c, 0, 73, 0
2, 60240, Note_on_c, 0, 71, 64
2, 60240, Note_on_c, 0, 47, 64
2, 60360, Note_on_c, 0, 47, 0
2, 60360, Note_on_c, 0, 71, 0
2, 60360, Note_on_c, 0, 49, 64
2, 60360, Note_on_c, 0, 70, 64
2, 60480, Note_on_c, 0, 70, 0
2, 60480, Note_on_c, 0, 49, 0
2, 60480, Note_on_c, 0, 71, 64
2, 60480, Note_on_c, 0, 50, 64
2, 60600, Note_on_c, 0, 71, 0
2, 60600, Note_on_c, 0, 74, 64
2, 60615, Note_on_c, 0, 50, 0
2, 60720, Note_on_c, 0, 74, 0
2, 60720, Note_on_c, 0, 71, 64
2, 60840, Note_on_c, 0, 71, 0
2, 60840, Note_on_c, 0, 68, 64
2, 60840, Note_on_c, 0, 52, 64
2, 60930, Note_on_c, 0, 52, 0
2, 60930, Note_on_c, 0, 50, 64
2, 61020, Note_on_c, 0, 50, 0
2, 61020, Note_on_c, 0, 49, 64
2, 61095, Note_on_c, 0, 68, 0
2, 61110, Note_on_c, 0, 49, 0
2, 61110, Note_on_c, 0, 50, 64
2, 61200, Note_on_c, 0, 50, 0
2, 61200, Note_on_c, 0, 78, 0
2, 61200, Note_on_c, 0, 73, 64
2, 61200, Note_on_c, 0, 52, 64
2, 61320, Note_on_c, 0, 76, 64
2, 61327, Note_on_c, 0, 52, 0
2, 61440, Note_on_c, 0, 76, 0
2, 61440, Note_on_c, 0, 68, 64
2, 61560, Note_on_c, 0, 68, 0
2, 61560, Note_on_c, 0, 70, 64
2, 61560, Note_on_c, 0, 54, 64
2, 61650, Note_on_c, 0, 54, 0
2, 61650, Note_on_c, 0, 52, 64
2, 61740, Note_on_c, 0, 52, 0
2, 61740, Note_on_c, 0, 50, 64
2, 61823, Note_on_c, 0, 70, 0
2, 61830, Note_on_c, 0, 50, 0
2, 61830, Note_on_c, 0, 52, 64
2, 61920, Note_on_c, 0, 52, 0
2, 61920, Note_on_c, 0, 74, 64
2, 61920, Note_on_c, 0, 54, 64
2, 62040, Note_on_c, 0, 74, 0
2, 62040, Note_on_c, 0, 78, 64
2, 62063, Note_on_c, 0, 54, 0
2, 62160, Note_on_c, 0, 78, 0
2, 62160, Note_on_c, 0, 70, 64
2, 62280, Note_on_c, 0, 70, 0
2, 62280, Note_on_c, 0, 73, 0
2, 62280, Note_on_c, 0, 71, 64
2, 62280, Note_on_c, 0, 50, 64
2, 62423, Note_on_c, 0, 50, 0
2, 62640, Note_on_c, 0, 47, 64
2, 62760, Note_on_c, 0, 69, 64
2, 62767, Note_on_c, 0, 47, 0
2, 62880, Note_on_c, 0, 69, 0
2, 62880, Note_on_c, 0, 67, 64
2, 63000, Note_on_c, 0, 67, 0
2, 63000, Note_on_c, 0, 55, 64
2, 63000, Note_on_c, 0, 66, 64
2, 63064, Note_on_c, 0, 54, 64
2, 63103, Note_on_c, 0, 55, 0
2, 63104, Note_on_c, 0, 55, 64
2, 63120, Note_on_c, 0, 66, 0
2, 63120, Note_on_c, 0, 64, 64
2, 63167, Note_on_c, 0, 54, 0
2, 63240, Note_on_c, 0, 64, 0
2, 63240, Note_on_c, 0, 63, 64
2, 63360, Note_on_c, 0, 63, 0
2, 63360, Note_on_c, 0, 64, 64
2, 63480, Note_on_c, 0, 71, 0
2, 63480, Note_on_c, 0, 73, 64
2, 63600, Note_on_c, 0, 73, 0
2, 63600, Note_on_c, 0, 71, 64
2, 63720, Note_on_c, 0, 71, 0
2, 63720, Note_on_c, 0, 70, 64
2, 63720, Note_on_c, 0, 54, 64
2, 63727, Note_on_c, 0, 55, 0
2, 63840, Note_on_c, 0, 70, 0
2, 63840, Note_on_c, 0, 68, 64
2, 63871, Note_on_c, 0, 54, 0
2, 63960, Note_on_c, 0, 68, 0
2, 63960, Note_on_c, 0, 66, 64
2, 63990, Note_on_c, 0, 58, 64
2, 64080, Note_on_c, 0, 58, 0
2, 64080, Note_on_c, 0, 66, 0
2, 64080, Note_on_c, 0, 64, 0
2, 64080, Note_on_c, 0, 62, 64
2, 64080, Note_on_c, 0, 59, 64
2, 64200, Note_on_c, 0, 71, 64
2, 64223, Note_on_c, 0, 59, 0
2, 64320, Note_on_c, 0, 71, 0
2, 64320, Note_on_c, 0, 69, 64
2, 64440, Note_on_c, 0, 69, 0
2, 64440, Note_on_c, 0, 52, 64
2, 64440, Note_on_c, 0, 67, 64
2, 64560, Note_on_c, 0, 67, 0
2, 64560, Note_on_c, 0, 66, 64
2, 64680, Note_on_c, 0, 66, 0
2, 64680, Note_on_c, 0, 64, 64
2, 64800, Note_on_c, 0, 64, 0
2, 64800, Note_on_c, 0, 62, 0
2, 64800, Note_on_c, 0, 70, 64
2, 64800, Note_on_c, 0, 61, 64
2, 64920, Note_on_c, 0, 70, 0
2, 64920, Note_on_c, 0, 66, 64
2, 65040, Note_on_c, 0, 66, 0
2, 65040, Note_on_c, 0, 68, 64
2, 65160, Note_on_c, 0, 68, 0
2, 65160, Note_on_c, 0, 52, 0
2, 65160, Note_on_c, 0, 70, 64
2, 65160, Note_on_c, 0, 50, 64
2, 65280, Note_on_c, 0, 70, 0
2, 65280, Note_on_c, 0, 71, 64
2, 65311, Note_on_c, 0, 50, 0
2, 65400, Note_on_c, 0, 71, 0
2, 65400, Note_on_c, 0, 73, 64
2, 65430, Note_on_c, 0, 58, 64
2, 65520, Note_on_c, 0, 58, 0
2, 65520, Note_on_c, 0, 73, 0
2, 65520, Note_on_c, 0, 61, 0
2, 65520, Note_on_c, 0, 59, 64
2, 65520, Note_on_c, 0, 74, 64
2, 65640, Note_on_c, 0, 74, 0
2, 65640, Note_on_c, 0, 61, 64
2, 65760, Note_on_c, 0, 61, 0
2, 65760, Note_on_c, 0, 62, 64
2, 65880, Note_on_c, 0, 62, 0
2, 65880, Note_on_c, 0, 49, 64
2, 65880, Note_on_c, 0, 64, 64
2, 66000, Note_on_c, 0, 64, 0
2, 66000, Note_on_c, 0, 66, 64
2, 66120, Note_on_c, 0, 66, 0
2, 66120, Note_on_c, 0, 67, 64
2, 66240, Note_on_c, 0, 59, 0
2, 66240, Note_on_c, 0, 58, 64
2, 66360, Note_on_c, 0, 49, 0
2, 66360, Note_on_c, 0, 50, 64
2, 66480, Note_on_c, 0, 50, 0
2, 66480, Note_on_c, 0, 52, 64
2, 66600, Note_on_c, 0, 52, 0
2, 66600, Note_on_c, 0, 58, 0
2, 66600, Note_on_c, 0, 67, 0
2, 66600, Note_on_c, 0, 66, 64
2, 66600, Note_on_c, 0, 59, 64
2, 66600, Note_on_c, 0, 50, 64
2, 66720, Note_on_c, 0, 50, 0
2, 66720, Note_on_c, 0, 66, 0
2, 66720, Note_on_c, 0, 64, 64
2, 66720, Note_on_c, 0, 49, 64
2, 66840, Note_on_c, 0, 49, 0
2, 66840, Note_on_c, 0, 64, 0
2, 66840, Note_on_c, 0, 62, 64
2, 66840, Note_on_c, 0, 47, 64
2, 66960, Note_on_c, 0, 47, 0
2, 66960, Note_on_c, 0, 62, 0
2, 66960, Note_on_c, 0, 59, 0
2, 66960, Note_on_c, 0, 61, 64
2, 66960, Note_on_c, 0, 64, 64
2, 66960, Note_on_c, 0, 46, 64
2, 67080, Note_on_c, 0, 46, 0
2, 67080, Note_on_c, 0, 55, 64
2, 67200, Note_on_c, 0, 55, 0
2, 67200, Note_on_c, 0, 54, 64
2, 67320, Note_on_c, 0, 54, 0
2, 67320, Note_on_c, 0, 64, 0
2, 67320, Note_on_c, 0, 58, 64
2, 67320, Note_on_c, 0, 52, 64
2, 67440, Note_on_c, 0, 52, 0
2, 67440, Note_on_c, 0, 50, 64
2, 67560, Note_on_c, 0, 50, 0
2, 67560, Note_on_c, 0, 49, 64
2, 67680, Note_on_c, 0, 49, 0
2, 67680, Note_on_c, 0, 58, 0
2, 67680, Note_on_c, 0, 66, 64
2, 67680, Note_on_c, 0, 50, 64
2, 67800, Note_on_c, 0, 50, 0
2, 67800, Note_on_c, 0, 52, 64
2, 67920, Note_on_c, 0, 52, 0
2, 67920, Note_on_c, 0, 61, 0
2, 67920, Note_on_c, 0, 58, 64
2, 67920, Note_on_c, 0, 54, 64
2, 68040, Note_on_c, 0, 54, 0
2, 68040, Note_on_c, 0, 58, 0
2, 68040, Note_on_c, 0, 59, 64
2, 68040, Note_on_c, 0, 52, 64
2, 68160, Note_on_c, 0, 52, 0
2, 68160, Note_on_c, 0, 50, 64
2, 68167, Note_on_c, 0, 59, 0
2, 68280, Note_on_c, 0, 50, 0
2, 68280, Note_on_c, 0, 61, 64
2, 68280, Note_on_c, 0, 49, 64
2, 68400, Note_on_c, 0, 49, 0
2, 68400, Note_on_c, 0, 61, 0
2, 68400, Note_on_c, 0, 62, 64
2, 68400, Note_on_c, 0, 47, 64
2, 68520, Note_on_c, 0, 47, 0
2, 68520, Note_on_c, 0, 57, 64
2, 68640, Note_on_c, 0, 57, 0
2, 68640, Note_on_c, 0, 66, 0
2, 68640, Note_on_c, 0, 59, 64
2, 68640, Note_on_c, 0, 55, 64
2, 68760, Note_on_c, 0, 55, 0
2, 68760, Note_on_c, 0, 59, 0
2, 68760, Note_on_c, 0, 58, 64
2, 68760, Note_on_c, 0, 54, 64
2, 68880, Note_on_c, 0, 54, 0
2, 68880, Note_on_c, 0, 52, 64
2, 69000, Note_on_c, 0, 52, 0
2, 69000, Note_on_c, 0, 58, 0
2, 69000, Note_on_c, 0, 50, 64
2, 69000, Note_on_c, 0, 59, 64
2, 69120, Note_on_c, 0, 59, 0
2, 69120, Note_on_c, 0, 50, 0
2, 69120, Note_on_c, 0, 67, 64
2, 69120, Note_on_c, 0, 52, 64
2, 69240, Note_on_c, 0, 52, 0
2, 69240, Note_on_c, 0, 54, 64
2, 69360, Note_on_c, 0, 54, 0
2, 69360, Note_on_c, 0, 62, 0
2, 69360, Note_on_c, 0, 59, 64
2, 69360, Note_on_c, 0, 55, 64
2, 69480, Note_on_c, 0, 55, 0
2, 69480, Note_on_c, 0, 59, 0
2, 69480, Note_on_c, 0, 61, 64
2, 69480, Note_on_c, 0, 54, 64
2, 69600, Note_on_c, 0, 54, 0
2, 69600, Note_on_c, 0, 52, 64
2, 69607, Note_on_c, 0, 61, 0
2, 69720, Note_on_c, 0, 52, 0
2, 69720, Note_on_c, 0, 62, 64
2, 69720, Note_on_c, 0, 50, 64
2, 69840, Note_on_c, 0, 50, 0
2, 69840, Note_on_c, 0, 62, 0
2, 69840, Note_on_c, 0, 64, 64
2, 69840, Note_on_c, 0, 49, 64
2, 69960, Note_on_c, 0, 49, 0
2, 69960, Note_on_c, 0, 59, 64
2, 70080, Note_on_c, 0, 59, 0
2, 70080, Note_on_c, 0, 67, 0
2, 70080, Note_on_c, 0, 61, 64
2, 70080, Note_on_c, 0, 57, 64
2, 70200, Note_on_c, 0, 57, 0
2, 70200, Note_on_c, 0, 61, 0
2, 70200, Note_on_c, 0, 59, 64
2, 70200, Note_on_c, 0, 55, 64
2, 70320, Note_on_c, 0, 55, 0
2, 70320, Note_on_c, 0, 54, 64
2, 70351, Note_on_c, 0, 59, 0
2, 70440, Note_on_c, 0, 54, 0
2, 70440, Note_on_c, 0, 52, 64
2, 70440, Note_on_c, 0, 61, 64
2, 70560, Note_on_c, 0, 61, 0
2, 70560, Note_on_c, 0, 52, 0
2, 70560, Note_on_c, 0, 69, 64
2, 70560, Note_on_c, 0, 54, 64
2, 70680, Note_on_c, 0, 54, 0
2, 70680, Note_on_c, 0, 55, 64
2, 70800, Note_on_c, 0, 55, 0
2, 70800, Note_on_c, 0, 64, 0
2, 70800, Note_on_c, 0, 61, 64
2, 70800, Note_on_c, 0, 57, 64
2, 70920, Note_on_c, 0, 57, 0
2, 70920, Note_on_c, 0, 61, 0
2, 70920, Note_on_c, 0, 63, 64
2, 70920, Note_on_c, 0, 55, 64
2, 71040, Note_on_c, 0, 55, 0
2, 71040, Note_on_c, 0, 54, 64
2, 71079, Note_on_c, 0, 63, 0
2, 71160, Note_on_c, 0, 54, 0
2, 71160, Note_on_c, 0, 64, 64
2, 71160, Note_on_c, 0, 52, 64
2, 71280, Note_on_c, 0, 52, 0
2, 71280, Note_on_c, 0, 64, 0
2, 71280, Note_on_c, 0, 66, 64
2, 71280, Note_on_c, 0, 51, 64
2, 71400, Note_on_c, 0, 51, 0
2, 71400, Note_on_c, 0, 60, 64
2, 71520, Note_on_c, 0, 60, 0
2, 71520, Note_on_c, 0, 69, 0
2, 71520, Note_on_c, 0, 64, 64
2, 71520, Note_on_c, 0, 59, 64
2, 71640, Note_on_c, 0, 59, 0
2, 71640, Note_on_c, 0, 64, 0
2, 71640, Note_on_c, 0, 63, 64
2, 71640, Note_on_c, 0, 57, 64
2, 71760, Note_on_c, 0, 57, 0
2, 71760, Note_on_c, 0, 66, 0
2, 71760, Note_on_c, 0, 64, 64
2, 71760, Note_on_c, 0, 55, 64
2, 71880, Note_on_c, 0, 55, 0
2, 71880, Note_on_c, 0, 64, 0
2, 71880, Note_on_c, 0, 66, 64
2, 71880, Note_on_c, 0, 54, 64
2, 72000, Note_on_c, 0, 54, 0
2, 72000, Note_on_c, 0, 66, 0
2, 72000, Note_on_c, 0, 63, 0
2, 72000, Note_on_c, 0, 64, 64
2, 72000, Note_on_c, 0, 67, 64
2, 72000, Note_on_c, 0, 52, 64
2, 72120, Note_on_c, 0, 52, 0
2, 72120, Note_on_c, 0, 55, 64
2, 72143, Note_on_c, 0, 67, 0
2, 72240, Note_on_c, 0, 55, 0
2, 72240, Note_on_c, 0, 59, 64
2, 72360, Note_on_c, 0, 59, 0
2, 72360, Note_on_c, 0, 64, 0
2, 72360, Note_on_c, 0, 69, 64
2, 72360, Note_on_c, 0, 61, 64
2, 72450, Note_on_c, 0, 69, 0
2, 72450, Note_on_c, 0, 67, 64
2, 72487, Note_on_c, 0, 61, 0
2, 72540, Note_on_c, 0, 67, 0
2, 72540, Note_on_c, 0, 66, 64
2, 72630, Note_on_c, 0, 66, 0
2, 72630, Note_on_c, 0, 67, 64
2, 72720, Note_on_c, 0, 67, 0
2, 72720, Note_on_c, 0, 72, 64
2, 72720, Note_on_c, 0, 69, 64
2, 72720, Note_on_c, 0, 54, 64
2, 72831, Note_on_c, 0, 69, 0
2, 72840, Note_on_c, 0, 54, 0
2, 72840, Note_on_c, 0, 57, 64
2, 72960, Note_on_c, 0, 57, 0
2, 72960, Note_on_c, 0, 60, 64
2, 72967, Note_on_c, 0, 72, 0
2, 73080, Note_on_c, 0, 60, 0
2, 73080, Note_on_c, 0, 63, 64
2, 73080, Note_on_c, 0, 71, 64
2, 73170, Note_on_c, 0, 71, 0
2, 73170, Note_on_c, 0, 69, 64
2, 73215, Note_on_c, 0, 63, 0
2, 73260, Note_on_c, 0, 69, 0
2, 73260, Note_on_c, 0, 67, 64
2, 73350, Note_on_c, 0, 67, 0
2, 73350, Note_on_c, 0, 69, 64
2, 73440, Note_on_c, 0, 69, 0
2, 73440, Note_on_c, 0, 71, 64
2, 73440, Note_on_c, 0, 55, 64
2, 73560, Note_on_c, 0, 55, 0
2, 73560, Note_on_c, 0, 59, 64
2, 73680, Note_on_c, 0, 59, 0
2, 73680, Note_on_c, 0, 63, 64
2, 73800, Note_on_c, 0, 63, 0
2, 73800, Note_on_c, 0, 71, 0
2, 73800, Note_on_c, 0, 64, 64
2, 73800, Note_on_c, 0, 67, 64
2, 73920, Note_on_c, 0, 76, 64
2, 74040, Note_on_c, 0, 76, 0
2, 74040, Note_on_c, 0, 74, 64
2, 74160, Note_on_c, 0, 74, 0
2, 74160, Note_on_c, 0, 67, 0
2, 74160, Note_on_c, 0, 72, 64
2, 74160, Note_on_c, 0, 52, 64
2, 74280, Note_on_c, 0, 52, 0
2, 74280, Note_on_c, 0, 72, 0
2, 74280, Note_on_c, 0, 71, 64
2, 74280, Note_on_c, 0, 62, 64
2, 74400, Note_on_c, 0, 62, 0
2, 74400, Note_on_c, 0, 71, 0
2, 74400, Note_on_c, 0, 69, 64
2, 74400, Note_on_c, 0, 60, 64
2, 74520, Note_on_c, 0, 60, 0
2, 74520, Note_on_c, 0, 69, 0
2, 74520, Note_on_c, 0, 64, 0
2, 74520, Note_on_c, 0, 72, 64
2, 74520, Note_on_c, 0, 68, 64
2, 74520, Note_on_c, 0, 59, 64
2, 74640, Note_on_c, 0, 59, 0
2, 74640, Note_on_c, 0, 68, 0
2, 74640, Note_on_c, 0, 69, 64
2, 74640, Note_on_c, 0, 57, 64
2, 74760, Note_on_c, 0, 57, 0
2, 74760, Note_on_c, 0, 69, 0
2, 74760, Note_on_c, 0, 71, 64
2, 74760, Note_on_c, 0, 56, 64
2, 74880, Note_on_c, 0, 56, 0
2, 74880, Note_on_c, 0, 71, 0
2, 74880, Note_on_c, 0, 64, 64
2, 74880, Note_on_c, 0, 57, 64
2, 75000, Note_on_c, 0, 64, 0
2, 75000, Note_on_c, 0, 66, 64
2, 75120, Note_on_c, 0, 66, 0
2, 75120, Note_on_c, 0, 64, 64
2, 75240, Note_on_c, 0, 64, 0
2, 75240, Note_on_c, 0, 72, 0
2, 75240, Note_on_c, 0, 71, 64
2, 75240, Note_on_c, 0, 63, 64
2, 75360, Note_on_c, 0, 63, 0
2, 75360, Note_on_c, 0, 64, 64
2, 75480, Note_on_c, 0, 64, 0
2, 75480, Note_on_c, 0, 66, 64
2, 75510, Note_on_c, 0, 71, 0
2, 75510, Note_on_c, 0, 75, 64
2, 75600, Note_on_c, 0, 75, 0
2, 75600, Note_on_c, 0, 66, 0
2, 75600, Note_on_c, 0, 57, 0
2, 75600, Note_on_c, 0, 55, 64
2, 75600, Note_on_c, 0, 59, 64
2, 75600, Note_on_c, 0, 76, 64
2, 75720, Note_on_c, 0, 59, 0
2, 75720, Note_on_c, 0, 64, 64
2, 75735, Note_on_c, 0, 76, 0
2, 75840, Note_on_c, 0, 64, 0
2, 75840, Note_on_c, 0, 62, 64
2, 75960, Note_on_c, 0, 62, 0
2, 75960, Note_on_c, 0, 61, 64
2, 75960, Note_on_c, 0, 69, 64
2, 76080, Note_on_c, 0, 61, 0
2, 76080, Note_on_c, 0, 63, 64
2, 76200, Note_on_c, 0, 63, 0
2, 76200, Note_on_c, 0, 64, 64
2, 76320, Note_on_c, 0, 64, 0
2, 76320, Note_on_c, 0, 55, 0
2, 76320, Note_on_c, 0, 63, 64
2, 76320, Note_on_c, 0, 54, 64
2, 76440, Note_on_c, 0, 63, 0
2, 76440, Note_on_c, 0, 64, 64
2, 76560, Note_on_c, 0, 64, 0
2, 76560, Note_on_c, 0, 66, 64
2, 76680, Note_on_c, 0, 66, 0
2, 76680, Note_on_c, 0, 69, 0
2, 76680, Note_on_c, 0, 67, 64
2, 76680, Note_on_c, 0, 59, 64
2, 76800, Note_on_c, 0, 59, 0
2, 76800, Note_on_c, 0, 60, 64
2, 76823, Note_on_c, 0, 67, 0
2, 76920, Note_on_c, 0, 60, 0
2, 76920, Note_on_c, 0, 57, 64
2, 76950, Note_on_c, 0, 75, 64
2, 77040, Note_on_c, 0, 75, 0
2, 77040, Note_on_c, 0, 57, 0
2, 77040, Note_on_c, 0, 54, 0
2, 77040, Note_on_c, 0, 52, 64
2, 77040, Note_on_c, 0, 55, 64
2, 77040, Note_on_c, 0, 76, 64
2, 77160, Note_on_c, 0, 55, 0
2, 77160, Note_on_c, 0, 57, 64
2, 77167, Note_on_c, 0, 76, 0
2, 77280, Note_on_c, 0, 57, 0
2, 77280, Note_on_c, 0, 59, 64
2, 77400, Note_on_c, 0, 59, 0
2, 77400, Note_on_c, 0, 66, 64
2, 77400, Note_on_c, 0, 60, 64
2, 77520, Note_on_c, 0, 60, 0
2, 77520, Note_on_c, 0, 59, 64
2, 77640, Note_on_c, 0, 59, 0
2, 77640, Note_on_c, 0, 57, 64
2, 77760, Note_on_c, 0, 57, 0
2, 77760, Note_on_c, 0, 52, 0
2, 77760, Note_on_c, 0, 59, 64
2, 77760, Note_on_c, 0, 51, 64
2, 77880, Note_on_c, 0, 66, 0
2, 77880, Note_on_c, 0, 67, 64
2, 77999, Note_on_c, 0, 51, 0
2, 78000, Note_on_c, 0, 67, 0
2, 78000, Note_on_c, 0, 69, 64
2, 78120, Note_on_c, 0, 69, 0
2, 78120, Note_on_c, 0, 67, 64
2, 78120, Note_on_c, 0, 52, 64
2, 78240, Note_on_c, 0, 67, 0
2, 78240, Note_on_c, 0, 66, 64
2, 78360, Note_on_c, 0, 66, 0
2, 78360, Note_on_c, 0, 64, 64
2, 78375, Note_on_c, 0, 52, 0
2, 78480, Note_on_c, 0, 64, 0
2, 78480, Note_on_c, 0, 59, 0
2, 78480, Note_on_c, 0, 63, 64
2, 78480, Note_on_c, 0, 54, 64
2, 78600, Note_on_c, 0, 63, 0
2, 78600, Note_on_c, 0, 72, 64
2, 78720, Note_on_c, 0, 72, 0
2, 78720, Note_on_c, 0, 71, 64
2, 78727, Note_on_c, 0, 54, 0
2, 78840, Note_on_c, 0, 71, 0
2, 78840, Note_on_c, 0, 75, 64
2, 78840, Note_on_c, 0, 47, 64
2, 78840, Note_on_c, 0, 69, 64
2, 78960, Note_on_c, 0, 69, 0
2, 78960, Note_on_c, 0, 67, 64
2, 78991, Note_on_c, 0, 47, 0
2, 79080, Note_on_c, 0, 67, 0
2, 79080, Note_on_c, 0, 66, 64
2, 79103, Note_on_c, 0, 75, 0
2, 79200, Note_on_c, 0, 66, 0
2, 79200, Note_on_c, 0, 76, 64
2, 79200, Note_on_c, 0, 67, 64
2, 79200, Note_on_c, 0, 52, 64
2, 79320, Note_on_c, 0, 67, 0
2, 79320, Note_on_c, 0, 69, 64
2, 79440, Note_on_c, 0, 69, 0
2, 79440, Note_on_c, 0, 71, 64
2, 79463, Note_on_c, 0, 52, 0
2, 79560, Note_on_c, 0, 71, 0
2, 79560, Note_on_c, 0, 69, 64
2, 79560, Note_on_c, 0, 54, 64
2, 79680, Note_on_c, 0, 69, 0
2, 79680, Note_on_c, 0, 67, 64
2, 79800, Note_on_c, 0, 67, 0
2, 79800, Note_on_c, 0, 66, 64
2, 79823, Note_on_c, 0, 54, 0
2, 79920, Note_on_c, 0, 66, 0
2, 79920, Note_on_c, 0, 76, 0
2, 79920, Note_on_c, 0, 64, 64
2, 79920, Note_on_c, 0, 55, 64
2, 80040, Note_on_c, 0, 77, 64
2, 80160, Note_on_c, 0, 77, 0
2, 80160, Note_on_c, 0, 76, 64
2, 80175, Note_on_c, 0, 55, 0
2, 80280, Note_on_c, 0, 76, 0
2, 80280, Note_on_c, 0, 56, 64
2, 80280, Note_on_c, 0, 74, 64
2, 80400, Note_on_c, 0, 74, 0
2, 80400, Note_on_c, 0, 72, 64
2, 80520, Note_on_c, 0, 72, 0
2, 80520, Note_on_c, 0, 71, 64
2, 80551, Note_on_c, 0, 56, 0
2, 80640, Note_on_c, 0, 71, 0
2, 80640, Note_on_c, 0, 72, 64
2, 80640, Note_on_c, 0, 57, 64
2, 80760, Note_on_c, 0, 72, 0
2, 80760, Note_on_c, 0, 74, 64
2, 80880, Note_on_c, 0, 74, 0
2, 80880, Note_on_c, 0, 64, 0
2, 80880, Note_on_c, 0, 76, 64
2, 80880, Note_on_c, 0, 66, 64
2, 80903, Note_on_c, 0, 57, 0
2, 81000, Note_on_c, 0, 76, 0
2, 81000, Note_on_c, 0, 74, 64
2, 81000, Note_on_c, 0, 59, 64
2, 81120, Note_on_c, 0, 74, 0
2, 81120, Note_on_c, 0, 72, 64
2, 81240, Note_on_c, 0, 72, 0
2, 81240, Note_on_c, 0, 66, 0
2, 81240, Note_on_c, 0, 68, 64
2, 81240, Note_on_c, 0, 71, 64
2, 81255, Note_on_c, 0, 59, 0
2, 81360, Note_on_c, 0, 71, 0
2, 81360, Note_on_c, 0, 68, 0
2, 81360, Note_on_c, 0, 69, 64
2, 81360, Note_on_c, 0, 60, 64
2, 81480, Note_on_c, 0, 69, 0
2, 81480, Note_on_c, 0, 83, 64
2, 81600, Note_on_c, 0, 83, 0
2, 81600, Note_on_c, 0, 81, 64
2, 81623, Note_on_c, 0, 60, 0
2, 81720, Note_on_c, 0, 81, 0
2, 81720, Note_on_c, 0, 64, 64
2, 81720, Note_on_c, 0, 61, 64
2, 81720, Note_on_c, 0, 79, 64
2, 81840, Note_on_c, 0, 79, 0
2, 81840, Note_on_c, 0, 78, 64
2, 81960, Note_on_c, 0, 78, 0
2, 81960, Note_on_c, 0, 76, 64
2, 81983, Note_on_c, 0, 61, 0
2, 82080, Note_on_c, 0, 76, 0
2, 82080, Note_on_c, 0, 78, 64
2, 82080, Note_on_c, 0, 50, 64
2, 82200, Note_on_c, 0, 78, 0
2, 82200, Note_on_c, 0, 79, 64
2, 82320, Note_on_c, 0, 79, 0
2, 82320, Note_on_c, 0, 64, 0
2, 82320, Note_on_c, 0, 81, 64
2, 82320, Note_on_c, 0, 62, 64
2, 82343, Note_on_c, 0, 50, 0
2, 82440, Note_on_c, 0, 81, 0
2, 82440, Note_on_c, 0, 79, 64
2, 82440, Note_on_c, 0, 52, 64
2, 82560, Note_on_c, 0, 79, 0
2, 82560, Note_on_c, 0, 78, 64
2, 82680, Note_on_c, 0, 78, 0
2, 82680, Note_on_c, 0, 62, 0
2, 82680, Note_on_c, 0, 76, 64
2, 82680, Note_on_c, 0, 61, 64
2, 82703, Note_on_c, 0, 52, 0
2, 82800, Note_on_c, 0, 61, 0
2, 82800, Note_on_c, 0, 76, 0
2, 82800, Note_on_c, 0, 62, 64
2, 82800, Note_on_c, 0, 74, 64
2, 82800, Note_on_c, 0, 54, 64
2, 82920, Note_on_c, 0, 74, 0
2, 82920, Note_on_c, 0, 76, 64
2, 83040, Note_on_c, 0, 76, 0
2, 83040, Note_on_c, 0, 74, 64
2, 83047, Note_on_c, 0, 54, 0
2, 83160, Note_on_c, 0, 74, 0
2, 83160, Note_on_c, 0, 50, 64
2, 83160, Note_on_c, 0, 72, 64
2, 83280, Note_on_c, 0, 72, 0
2, 83280, Note_on_c, 0, 71, 64
2, 83400, Note_on_c, 0, 71, 0
2, 83400, Note_on_c, 0, 69, 64
2, 83407, Note_on_c, 0, 50, 0
2, 83520, Note_on_c, 0, 69, 0
2, 83520, Note_on_c, 0, 71, 64
2, 83520, Note_on_c, 0, 55, 64
2, 83640, Note_on_c, 0, 71, 0
2, 83640, Note_on_c, 0, 72, 64
2, 83760, Note_on_c, 0, 72, 0
2, 83760, Note_on_c, 0, 62, 0
2, 83760, Note_on_c, 0, 74, 64
2, 83760, Note_on_c, 0, 64, 64
2, 83767, Note_on_c, 0, 55, 0
2, 83880, Note_on_c, 0, 74, 0
2, 83880, Note_on_c, 0, 72, 64
2, 83880, Note_on_c, 0, 57, 64
2, 84000, Note_on_c, 0, 72, 0
2, 84000, Note_on_c, 0, 71, 64
2, 84120, Note_on_c, 0, 71, 0
2, 84120, Note_on_c, 0, 64, 0
2, 84120, Note_on_c, 0, 69, 64
2, 84120, Note_on_c, 0, 66, 64
2, 84135, Note_on_c, 0, 57, 0
2, 84240, Note_on_c, 0, 66, 0
2, 84240, Note_on_c, 0, 69, 0
2, 84240, Note_on_c, 0, 67, 64
2, 84240, Note_on_c, 0, 59, 64
2, 84360, Note_on_c, 0, 67, 0
2, 84360, Note_on_c, 0, 69, 64
2, 84479, Note_on_c, 0, 59, 0
2, 84480, Note_on_c, 0, 69, 0
2, 84480, Note_on_c, 0, 67, 64
2, 84600, Note_on_c, 0, 67, 0
2, 84600, Note_on_c, 0, 55, 64
2, 84600, Note_on_c, 0, 65, 64
2, 84720, Note_on_c, 0, 65, 0
2, 84720, Note_on_c, 0, 64, 64
2, 84840, Note_on_c, 0, 64, 0
2, 84840, Note_on_c, 0, 62, 64
2, 84847, Note_on_c, 0, 55, 0
2, 84960, Note_on_c, 0, 62, 0
2, 84960, Note_on_c, 0, 64, 64
2, 84960, Note_on_c, 0, 48, 64
2, 85080, Note_on_c, 0, 48, 0
2, 85080, Note_on_c, 0, 64, 0
2, 85080, Note_on_c, 0, 65, 64
2, 85080, Note_on_c, 0, 50, 64
2, 85200, Note_on_c, 0, 50, 0
2, 85200, Note_on_c, 0, 65, 0
2, 85200, Note_on_c, 0, 67, 64
2, 85200, Note_on_c, 0, 52, 64
2, 85320, Note_on_c, 0, 52, 0
2, 85320, Note_on_c, 0, 67, 0
2, 85320, Note_on_c, 0, 65, 64
2, 85320, Note_on_c, 0, 50, 64
2, 85440, Note_on_c, 0, 50, 0
2, 85440, Note_on_c, 0, 65, 0
2, 85440, Note_on_c, 0, 64, 64
2, 85440, Note_on_c, 0, 52, 64
2, 85560, Note_on_c, 0, 52, 0
2, 85560, Note_on_c, 0, 64, 0
2, 85560, Note_on_c, 0, 62, 64
2, 85560, Note_on_c, 0, 53, 64
2, 85680, Note_on_c, 0, 53, 0
2, 85680, Note_on_c, 0, 62, 0
2, 85680, Note_on_c, 0, 60, 64
2, 85680, Note_on_c, 0, 52, 64
2, 85800, Note_on_c, 0, 52, 0
2, 85800, Note_on_c, 0, 60, 0
2, 85800, Note_on_c, 0, 62, 64
2, 85800, Note_on_c, 0, 56, 64
2, 85920, Note_on_c, 0, 56, 0
2, 85920, Note_on_c, 0, 62, 0
2, 85920, Note_on_c, 0, 60, 64
2, 85920, Note_on_c, 0, 57, 64
2, 86040, Note_on_c, 0, 57, 0
2, 86040, Note_on_c, 0, 60, 0
2, 86040, Note_on_c, 0, 50, 64
2, 86040, Note_on_c, 0, 59, 64
2, 86160, Note_on_c, 0, 59, 0
2, 86160, Note_on_c, 0, 69, 64
2, 86160, Note_on_c, 0, 57, 64
2, 86280, Note_on_c, 0, 57, 0
2, 86280, Note_on_c, 0, 69, 0
2, 86280, Note_on_c, 0, 71, 64
2, 86280, Note_on_c, 0, 56, 64
2, 86400, Note_on_c, 0, 56, 0
2, 86400, Note_on_c, 0, 71, 0
2, 86400, Note_on_c, 0, 50, 0
2, 86400, Note_on_c, 0, 72, 64
2, 86400, Note_on_c, 0, 57, 64
2, 86400, Note_on_c, 0, 48, 64
2, 86520, Note_on_c, 0, 48, 0
2, 86520, Note_on_c, 0, 50, 64
2, 86543, Note_on_c, 0, 72, 0
2, 86640, Note_on_c, 0, 50, 0
2, 86640, Note_on_c, 0, 52, 64
2, 86760, Note_on_c, 0, 52, 0
2, 86760, Note_on_c, 0, 74, 64
2, 86760, Note_on_c, 0, 53, 64
2, 86850, Note_on_c, 0, 74, 0
2, 86850, Note_on_c, 0, 72, 64
2, 86940, Note_on_c, 0, 72, 0
2, 86940, Note_on_c, 0, 71, 64
2, 87030, Note_on_c, 0, 71, 0
2, 87030, Note_on_c, 0, 72, 64
2, 87120, Note_on_c, 0, 72, 0
2, 87120, Note_on_c, 0, 53, 0
2, 87120, Note_on_c, 0, 47, 64
2, 87120, Note_on_c, 0, 74, 64
2, 87240, Note_on_c, 0, 57, 0
2, 87240, Note_on_c, 0, 50, 64
2, 87255, Note_on_c, 0, 74, 0
2, 87360, Note_on_c, 0, 50, 0
2, 87360, Note_on_c, 0, 53, 64
2, 87480, Note_on_c, 0, 53, 0
2, 87480, Note_on_c, 0, 56, 64
2, 87480, Note_on_c, 0, 76, 64
2, 87570, Note_on_c, 0, 76, 0
2, 87570, Note_on_c, 0, 74, 64
2, 87660, Note_on_c, 0, 74, 0
2, 87660, Note_on_c, 0, 72, 64
2, 87750, Note_on_c, 0, 72, 0
2, 87750, Note_on_c, 0, 74, 64
2, 87840, Note_on_c, 0, 74, 0
2, 87840, Note_on_c, 0, 56, 0
2, 87840, Note_on_c, 0, 47, 0
2, 87840, Note_on_c, 0, 76, 64
2, 87840, Note_on_c, 0, 45, 64
2, 87960, Note_on_c, 0, 48, 64
2, 87975, Note_on_c, 0, 76, 0
2, 88080, Note_on_c, 0, 48, 0
2, 88080, Note_on_c, 0, 50, 64
2, 88200, Note_on_c, 0, 50, 0
2, 88200, Note_on_c, 0, 45, 0
2, 88200, Note_on_c, 0, 72, 64
2, 88200, Note_on_c, 0, 52, 64
2, 88320, Note_on_c, 0, 52, 0
2, 88320, Note_on_c, 0, 54, 64
2, 88335, Note_on_c, 0, 72, 0
2, 88440, Note_on_c, 0, 54, 0
2, 88440, Note_on_c, 0, 56, 64
2, 88560, Note_on_c, 0, 56, 0
2, 88560, Note_on_c, 0, 69, 64
2, 88560, Note_on_c, 0, 57, 64
2, 88680, Note_on_c, 0, 57, 0
2, 88680, Note_on_c, 0, 59, 64
2, 88711, Note_on_c, 0, 69, 0
2, 88800, Note_on_c, 0, 59, 0
2, 88800, Note_on_c, 0, 60, 64
2, 88920, Note_on_c, 0, 60, 0
2, 88920, Note_on_c, 0, 77, 64
2, 88920, Note_on_c, 0, 62, 64
2, 89040, Note_on_c, 0, 62, 0
2, 89040, Note_on_c, 0, 64, 64
2, 89160, Note_on_c, 0, 64, 0
2, 89160, Note_on_c, 0, 65, 64
2, 89280, Note_on_c, 0, 65, 0
2, 89280, Note_on_c, 0, 74, 64
2, 89280, Note_on_c, 0, 56, 64
2, 89400, Note_on_c, 0, 56, 0
2, 89400, Note_on_c, 0, 57, 64
2, 89520, Note_on_c, 0, 57, 0
2, 89520, Note_on_c, 0, 59, 64
2, 89640, Note_on_c, 0, 59, 0
2, 89640, Note_on_c, 0, 77, 0
2, 89640, Note_on_c, 0, 76, 64
2, 89640, Note_on_c, 0, 60, 64
2, 89760, Note_on_c, 0, 60, 0
2, 89760, Note_on_c, 0, 62, 64
2, 89767, Note_on_c, 0, 76, 0
2, 89880, Note_on_c, 0, 62, 0
2, 89880, Note_on_c, 0, 64, 64
2, 89910, Note_on_c, 0, 80, 64
2, 90000, Note_on_c, 0, 80, 0
2, 90000, Note_on_c, 0, 64, 0
2, 90000, Note_on_c, 0, 74, 0
2, 90000, Note_on_c, 0, 72, 64
2, 90000, Note_on_c, 0, 81, 64
2, 90000, Note_on_c, 0, 54, 64
2, 90119, Note_on_c, 0, 81, 0
2, 90120, Note_on_c, 0, 54, 0
2, 90120, Note_on_c, 0, 56, 64
2, 90240, Note_on_c, 0, 56, 0
2, 90240, Note_on_c, 0, 57, 64
2, 90360, Note_on_c, 0, 57, 0
2, 90360, Note_on_c, 0, 74, 64
2, 90360, Note_on_c, 0, 59, 64
2, 90480, Note_on_c, 0, 59, 0
2, 90480, Note_on_c, 0, 60, 64
2, 90600, Note_on_c, 0, 60, 0
2, 90600, Note_on_c, 0, 57, 64
2, 90720, Note_on_c, 0, 57, 0
2, 90720, Note_on_c, 0, 72, 0
2, 90720, Note_on_c, 0, 71, 64
2, 90720, Note_on_c, 0, 56, 64
2, 90840, Note_on_c, 0, 56, 0
2, 90840, Note_on_c, 0, 54, 64
2, 90960, Note_on_c, 0, 54, 0
2, 90960, Note_on_c, 0, 52, 64
2, 91080, Note_on_c, 0, 52, 0
2, 91080, Note_on_c, 0, 74, 0
2, 91080, Note_on_c, 0, 72, 64
2, 91080, Note_on_c, 0, 57, 64
2, 91200, Note_on_c, 0, 57, 0
2, 91200, Note_on_c, 0, 59, 64
2, 91320, Note_on_c, 0, 59, 0
2, 91320, Note_on_c, 0, 60, 64
2, 91350, Note_on_c, 0, 72, 0
2, 91350, Note_on_c, 0, 80, 64
2, 91440, Note_on_c, 0, 80, 0
2, 91440, Note_on_c, 0, 60, 0
2, 91440, Note_on_c, 0, 71, 0
2, 91440, Note_on_c, 0, 69, 64
2, 91440, Note_on_c, 0, 81, 64
2, 91440, Note_on_c, 0, 53, 64
2, 91560, Note_on_c, 0, 53, 0
2, 91560, Note_on_c, 0, 57, 64
2, 91583, Note_on_c, 0, 81, 0
2, 91680, Note_on_c, 0, 57, 0
2, 91680, Note_on_c, 0, 55, 64
2, 91800, Note_on_c, 0, 55, 0
2, 91800, Note_on_c, 0, 71, 64
2, 91800, Note_on_c, 0, 53, 64
2, 91920, Note_on_c, 0, 53, 0
2, 91920, Note_on_c, 0, 55, 64
2, 92040, Note_on_c, 0, 55, 0
2, 92040, Note_on_c, 0, 52, 64
2, 92160, Note_on_c, 0, 52, 0
2, 92160, Note_on_c, 0, 69, 0
2, 92160, Note_on_c, 0, 68, 64
2, 92160, Note_on_c, 0, 50, 64
2, 92280, Note_on_c, 0, 71, 0
2, 92280, Note_on_c, 0, 72, 64
2, 92400, Note_on_c, 0, 72, 0
2, 92400, Note_on_c, 0, 50, 0
2, 92400, Note_on_c, 0, 68, 0
2, 92400, Note_on_c, 0, 53, 64
2, 92400, Note_on_c, 0, 74, 64
2, 92400, Note_on_c, 0, 56, 64
2, 92520, Note_on_c, 0, 56, 0
2, 92520, Note_on_c, 0, 74, 0
2, 92520, Note_on_c, 0, 53, 0
2, 92520, Note_on_c, 0, 72, 64
2, 92520, Note_on_c, 0, 57, 64
2, 92520, Note_on_c, 0, 52, 64
2, 92640, Note_on_c, 0, 72, 0
2, 92640, Note_on_c, 0, 71, 64
2, 92760, Note_on_c, 0, 71, 0
2, 92760, Note_on_c, 0, 52, 0
2, 92760, Note_on_c, 0, 57, 0
2, 92760, Note_on_c, 0, 69, 64
2, 92760, Note_on_c, 0, 60, 64
2, 92760, Note_on_c, 0, 51, 64
2, 92880, Note_on_c, 0, 51, 0
2, 92880, Note_on_c, 0, 60, 0
2, 92880, Note_on_c, 0, 69, 0
2, 92880, Note_on_c, 0, 52, 64
2, 92880, Note_on_c, 0, 68, 64
2, 92880, Note_on_c, 0, 59, 64
2, 93000, Note_on_c, 0, 59, 0
2, 93000, Note_on_c, 0, 68, 0
2, 93000, Note_on_c, 0, 77, 64
2, 93000, Note_on_c, 0, 62, 64
2, 93120, Note_on_c, 0, 62, 0
2, 93120, Note_on_c, 0, 77, 0
2, 93120, Note_on_c, 0, 76, 64
2, 93120, Note_on_c, 0, 60, 64
2, 93240, Note_on_c, 0, 60, 0
2, 93240, Note_on_c, 0, 76, 0
2, 93240, Note_on_c, 0, 74, 64
2, 93240, Note_on_c, 0, 59, 64
2, 93360, Note_on_c, 0, 59, 0
2, 93360, Note_on_c, 0, 74, 0
2, 93360, Note_on_c, 0, 72, 64
2, 93360, Note_on_c, 0, 57, 64
2, 93480, Note_on_c, 0, 57, 0
2, 93480, Note_on_c, 0, 72, 0
2, 93480, Note_on_c, 0, 71, 64
2, 93480, Note_on_c, 0, 56, 64
2, 93600, Note_on_c, 0, 56, 0
2, 93600, Note_on_c, 0, 71, 0
2, 93600, Note_on_c, 0, 52, 0
2, 93600, Note_on_c, 0, 72, 64
2, 93600, Note_on_c, 0, 57, 64
2, 93600, Note_on_c, 0, 45, 64
2, 93720, Note_on_c, 0, 57, 0
2, 93720, Note_on_c, 0, 72, 0
2, 93720, Note_on_c, 0, 74, 64
2, 93840, Note_on_c, 0, 74, 0
2, 93840, Note_on_c, 0, 45, 0
2, 93840, Note_on_c, 0, 76, 64
2, 93840, Note_on_c, 0, 52, 64
2, 93960, Note_on_c, 0, 52, 0
2, 93960, Note_on_c, 0, 76, 0
2, 93960, Note_on_c, 0, 74, 64
2, 93960, Note_on_c, 0, 57, 64
2, 94080, Note_on_c, 0, 74, 0
2, 94080, Note_on_c, 0, 72, 64
2, 94200, Note_on_c, 0, 72, 0
2, 94200, Note_on_c, 0, 57, 0
2, 94200, Note_on_c, 0, 71, 64
2, 94200, Note_on_c, 0, 59, 64
2, 94320, Note_on_c, 0, 59, 0
2, 94320, Note_on_c, 0, 71, 0
2, 94320, Note_on_c, 0, 69, 64
2, 94320, Note_on_c, 0, 60, 64
2, 94440, Note_on_c, 0, 67, 64
2, 94560, Note_on_c, 0, 67, 0
2, 94560, Note_on_c, 0, 60, 0
2, 94560, Note_on_c, 0, 66, 64
2, 94560, Note_on_c, 0, 57, 64
2, 94680, Note_on_c, 0, 57, 0
2, 94680, Note_on_c, 0, 66, 0
2, 94680, Note_on_c, 0, 64, 64
2, 94680, Note_on_c, 0, 54, 64
2, 94800, Note_on_c, 0, 64, 0
2, 94800, Note_on_c, 0, 63, 64
2, 94920, Note_on_c, 0, 63, 0
2, 94920, Note_on_c, 0, 54, 0
2, 94920, Note_on_c, 0, 61, 64
2, 94920, Note_on_c, 0, 57, 64
2, 95040, Note_on_c, 0, 57, 0
2, 95040, Note_on_c, 0, 61, 0
2, 95040, Note_on_c, 0, 63, 64
2, 95040, Note_on_c, 0, 47, 64
2, 95160, Note_on_c, 0, 47, 0
2, 95160, Note_on_c, 0, 63, 0
2, 95160, Note_on_c, 0, 64, 64
2, 95160, Note_on_c, 0, 49, 64
2, 95280, Note_on_c, 0, 49, 0
2, 95280, Note_on_c, 0, 64, 0
2, 95280, Note_on_c, 0, 66, 64
2, 95280, Note_on_c, 0, 51, 64
2, 95400, Note_on_c, 0, 51, 0
2, 95400, Note_on_c, 0, 66, 0
2, 95400, Note_on_c, 0, 64, 64
2, 95400, Note_on_c, 0, 49, 64
2, 95520, Note_on_c, 0, 49, 0
2, 95520, Note_on_c, 0, 64, 0
2, 95520, Note_on_c, 0, 63, 64
2, 95520, Note_on_c, 0, 54, 64
2, 95640, Note_on_c, 0, 54, 0
2, 95640, Note_on_c, 0, 63, 0
2, 95640, Note_on_c, 0, 61, 64
2, 95640, Note_on_c, 0, 52, 64
2, 95760, Note_on_c, 0, 52, 0
2, 95760, Note_on_c, 0, 61, 0
2, 95760, Note_on_c, 0, 59, 64
2, 95760, Note_on_c, 0, 51, 64
2, 95880, Note_on_c, 0, 51, 0
2, 95880, Note_on_c, 0, 69, 0
2, 95880, Note_on_c, 0, 63, 64
2, 95880, Note_on_c, 0, 57, 64
2, 96000, Note_on_c, 0, 57, 0
2, 96000, Note_on_c, 0, 63, 0
2, 96000, Note_on_c, 0, 64, 64
2, 96000, Note_on_c, 0, 55, 64
2, 96120, Note_on_c, 0, 55, 0
2, 96120, Note_on_c, 0, 64, 0
2, 96120, Note_on_c, 0, 66, 64
2, 96120, Note_on_c, 0, 54, 64
2, 96240, Note_on_c, 0, 54, 0
2, 96240, Note_on_c, 0, 66, 0
2, 96240, Note_on_c, 0, 67, 64
2, 96240, Note_on_c, 0, 52, 64
2, 96360, Note_on_c, 0, 52, 0
2, 96360, Note_on_c, 0, 67, 0
2, 96360, Note_on_c, 0, 69, 64
2, 96360, Note_on_c, 0, 51, 64
2, 96480, Note_on_c, 0, 51, 0
2, 96480, Note_on_c, 0, 69, 0
2, 96480, Note_on_c, 0, 67, 64
2, 96480, Note_on_c, 0, 52, 64
2, 96600, Note_on_c, 0, 52, 0
2, 96600, Note_on_c, 0, 54, 64
2, 96720, Note_on_c, 0, 54, 0
2, 96720, Note_on_c, 0, 59, 0
2, 96720, Note_on_c, 0, 59, 64
2, 96720, Note_on_c, 0, 55, 64
2, 96840, Note_on_c, 0, 55, 0
2, 96840, Note_on_c, 0, 59, 0
2, 96840, Note_on_c, 0, 60, 64
2, 96840, Note_on_c, 0, 54, 64
2, 96960, Note_on_c, 0, 54, 0
2, 96960, Note_on_c, 0, 52, 64
2, 97080, Note_on_c, 0, 52, 0
2, 97080, Note_on_c, 0, 60, 0
2, 97080, Note_on_c, 0, 59, 64
2, 97080, Note_on_c, 0, 50, 64
2, 97200, Note_on_c, 0, 50, 0
2, 97200, Note_on_c, 0, 59, 0
2, 97200, Note_on_c, 0, 58, 64
2, 97200, Note_on_c, 0, 49, 64
2, 97320, Note_on_c, 0, 67, 0
2, 97320, Note_on_c, 0, 63, 64
2, 97440, Note_on_c, 0, 63, 0
2, 97440, Note_on_c, 0, 64, 64
2, 97560, Note_on_c, 0, 64, 0
2, 97560, Note_on_c, 0, 49, 0
2, 97560, Note_on_c, 0, 58, 0
2, 97560, Note_on_c, 0, 57, 64
2, 97560, Note_on_c, 0, 48, 64
2, 97560, Note_on_c, 0, 67, 64
2, 97680, Note_on_c, 0, 67, 0
2, 97680, Note_on_c, 0, 66, 64
2, 97800, Note_on_c, 0, 66, 0
2, 97800, Note_on_c, 0, 69, 64
2, 97920, Note_on_c, 0, 69, 0
2, 97920, Note_on_c, 0, 48, 0
2, 97920, Note_on_c, 0, 47, 64
2, 97920, Note_on_c, 0, 63, 64
2, 98040, Note_on_c, 0, 57, 0
2, 98040, Note_on_c, 0, 60, 64
2, 98160, Note_on_c, 0, 60, 0
2, 98160, Note_on_c, 0, 63, 0
2, 98160, Note_on_c, 0, 64, 64
2, 98160, Note_on_c, 0, 59, 64
2, 98280, Note_on_c, 0, 59, 0
2, 98280, Note_on_c, 0, 64, 0
2, 98280, Note_on_c, 0, 66, 64
2, 98280, Note_on_c, 0, 57, 64
2, 98400, Note_on_c, 0, 57, 0
2, 98400, Note_on_c, 0, 55, 64
2, 98520, Note_on_c, 0, 55, 0
2, 98520, Note_on_c, 0, 54, 64
2, 98640, Note_on_c, 0, 54, 0
2, 98640, Note_on_c, 0, 55, 64
2, 98760, Note_on_c, 0, 66, 0
2, 98760, Note_on_c, 0, 59, 64
2, 98880, Note_on_c, 0, 59, 0
2, 98880, Note_on_c, 0, 63, 64
2, 99000, Note_on_c, 0, 63, 0
2, 99000, Note_on_c, 0, 66, 64
2, 99120, Note_on_c, 0, 66, 0
2, 99120, Note_on_c, 0, 71, 64
2, 99240, Note_on_c, 0, 71, 0
2, 99240, Note_on_c, 0, 63, 64
2, 99360, Note_on_c, 0, 63, 0
2, 99360, Note_on_c, 0, 64, 64
2, 99480, Note_on_c, 0, 47, 0
2, 99480, Note_on_c, 0, 49, 64
2, 99600, Note_on_c, 0, 49, 0
2, 99600, Note_on_c, 0, 51, 64
2, 99720, Note_on_c, 0, 51, 0
2, 99720, Note_on_c, 0, 55, 0
2, 99720, Note_on_c, 0, 52, 64
2, 99840, Note_on_c, 0, 52, 0
2, 99840, Note_on_c, 0, 54, 64
2, 99960, Note_on_c, 0, 54, 0
2, 99960, Note_on_c, 0, 55, 64
2, 100080, Note_on_c, 0, 46, 64
2, 100200, Note_on_c, 0, 64, 0
2, 100200, Note_on_c, 0, 67, 64
2, 100320, Note_on_c, 0, 67, 0
2, 100320, Note_on_c, 0, 70, 64
2, 100440, Note_on_c, 0, 70, 0
2, 100440, Note_on_c, 0, 73, 64
2, 100560, Note_on_c, 0, 73, 0
2, 100560, Note_on_c, 0, 55, 0
2, 100560, Note_on_c, 0, 75, 64
2, 100560, Note_on_c, 0, 54, 64
2, 100680, Note_on_c, 0, 54, 0
2, 100680, Note_on_c, 0, 75, 0
2, 100680, Note_on_c, 0, 55, 64
2, 100680, Note_on_c, 0, 76, 64
2, 100800, Note_on_c, 0, 76, 0
2, 100800, Note_on_c, 0, 55, 0
2, 100800, Note_on_c, 0, 46, 0
2, 100800, Note_on_c, 0, 64, 64
2, 100800, Note_on_c, 0, 55, 64
2, 100800, Note_on_c, 0, 47, 64
2, 101160, Note_on_c, 0, 55, 0
2, 101160, Note_on_c, 0, 64, 0
2, 101160, Note_on_c, 0, 63, 64
2, 101160, Note_on_c, 0, 54, 64
2, 101208, Note_on_c, 0, 64, 64
2, 101208, Note_on_c, 0, 55, 64
2, 101247, Note_on_c, 0, 54, 0
2, 101247, Note_on_c, 0, 63, 0
2, 101248, Note_on_c, 0, 54, 64
2, 101248, Note_on_c, 0, 63, 64
2, 101279, Note_on_c, 0, 55, 0
2, 101279, Note_on_c, 0, 64, 0
2, 101280, Note_on_c, 0, 55, 64
2, 101280, Note_on_c, 0, 64, 64
2, 101311, Note_on_c, 0, 63, 0
2, 101311, Note_on_c, 0, 54, 0
2, 101312, Note_on_c, 0, 63, 64
2, 101312, Note_on_c, 0, 54, 64
2, 101343, Note_on_c, 0, 64, 0
2, 101343, Note_on_c, 0, 55, 0
2, 101344, Note_on_c, 0, 64, 64
2, 101344, Note_on_c, 0, 55, 64
2, 101375, Note_on_c, 0, 54, 0
2, 101375, Note_on_c, 0, 63, 0
2, 101376, Note_on_c, 0, 63, 64
2, 101376, Note_on_c, 0, 54, 64
2, 101407, Note_on_c, 0, 55, 0
2, 101407, Note_on_c, 0, 64, 0
2, 101416, Note_on_c, 0, 52, 64
2, 101416, Note_on_c, 0, 61, 64
2, 101431, Note_on_c, 0, 54, 0
2, 101431, Note_on_c, 0, 63, 0
2, 101448, Note_on_c, 0, 54, 64
2, 101448, Note_on_c, 0, 63, 64
2, 101479, Note_on_c, 0, 61, 0
2, 101479, Note_on_c, 0, 52, 0
2, 101520, Note_on_c, 0, 47, 0
2, 101527, Note_on_c, 0, 63, 0
2, 101527, Note_on_c, 0, 54, 0
2, 101640, Note_on_c, 0, 48, 64
2, 101760, Note_on_c, 0, 48, 0
2, 101760, Note_on_c, 0, 47, 64
2, 101880, Note_on_c, 0, 47, 0
2, 101880, Note_on_c, 0, 45, 64
2, 102000, Note_on_c, 0, 45, 0
2, 102000, Note_on_c, 0, 43, 64
2, 102120, Note_on_c, 0, 43, 0
2, 102120, Note_on_c, 0, 42, 64
2, 102240, Note_on_c, 0, 42, 0
2, 102240, Note_on_c, 0, 43, 64
2, 102360, Note_on_c, 0, 43, 0
2, 102360, Note_on_c, 0, 59, 64
2, 102360, Note_on_c, 0, 45, 64
2, 102480, Note_on_c, 0, 45, 0
2, 102480, Note_on_c, 0, 59, 0
2, 102480, Note_on_c, 0, 61, 64
2, 102480, Note_on_c, 0, 43, 64
2, 102600, Note_on_c, 0, 43, 0
2, 102600, Note_on_c, 0, 61, 0
2, 102600, Note_on_c, 0, 63, 64
2, 102600, Note_on_c, 0, 42, 64
2, 102720, Note_on_c, 0, 42, 0
2, 102720, Note_on_c, 0, 63, 0
2, 102720, Note_on_c, 0, 64, 64
2, 102720, Note_on_c, 0, 40, 64
2, 102840, Note_on_c, 0, 40, 0
2, 102840, Note_on_c, 0, 64, 0
2, 102840, Note_on_c, 0, 66, 64
2, 102840, Note_on_c, 0, 39, 64
2, 102960, Note_on_c, 0, 39, 0
2, 102960, Note_on_c, 0, 66, 0
2, 102960, Note_on_c, 0, 67, 64
2, 102960, Note_on_c, 0, 40, 64
2, 103080, Note_on_c, 0, 67, 0
2, 103080, Note_on_c, 0, 72, 64
2, 103200, Note_on_c, 0, 72, 0
2, 103200, Note_on_c, 0, 71, 64
2, 103320, Note_on_c, 0, 71, 0
2, 103320, Note_on_c, 0, 40, 0
2, 103320, Note_on_c, 0, 69, 64
2, 103440, Note_on_c, 0, 69, 0
2, 103440, Note_on_c, 0, 67, 64
2, 103440, Note_on_c, 0, 40, 64
2, 103560, Note_on_c, 0, 40, 0
2, 103560, Note_on_c, 0, 67, 0
2, 103560, Note_on_c, 0, 42, 64
2, 103560, Note_on_c, 0, 66, 64
2, 103680, Note_on_c, 0, 66, 0
2, 103680, Note_on_c, 0, 42, 0
2, 103680, Note_on_c, 0, 64, 64
2, 103680, Note_on_c, 0, 43, 64
2, 103800, Note_on_c, 0, 64, 0
2, 103800, Note_on_c, 0, 79, 64
2, 103823, Note_on_c, 0, 43, 0
2, 103920, Note_on_c, 0, 79, 0
2, 103920, Note_on_c, 0, 76, 64
2, 104040, Note_on_c, 0, 76, 0
2, 104040, Note_on_c, 0, 73, 64
2, 104040, Note_on_c, 0, 45, 64
2, 104130, Note_on_c, 0, 45, 0
2, 104130, Note_on_c, 0, 43, 64
2, 104220, Note_on_c, 0, 43, 0
2, 104220, Note_on_c, 0, 42, 64
2, 104287, Note_on_c, 0, 73, 0
2, 104310, Note_on_c, 0, 42, 0
2, 104310, Note_on_c, 0, 43, 64
2, 104400, Note_on_c, 0, 43, 0
2, 104400, Note_on_c, 0, 66, 64
2, 104400, Note_on_c, 0, 45, 64
2, 104520, Note_on_c, 0, 66, 0
2, 104520, Note_on_c, 0, 81, 64
2, 104535, Note_on_c, 0, 45, 0
2, 104640, Note_on_c, 0, 81, 0
2, 104640, Note_on_c, 0, 78, 64
2, 104760, Note_on_c, 0, 78, 0
2, 104760, Note_on_c, 0, 75, 64
2, 104760, Note_on_c, 0, 47, 64
2, 104850, Note_on_c, 0, 47, 0
2, 104850, Note_on_c, 0, 45, 64
2, 104940, Note_on_c, 0, 45, 0
2, 104940, Note_on_c, 0, 43, 64
2, 105007, Note_on_c, 0, 75, 0
2, 105030, Note_on_c, 0, 43, 0
2, 105030, Note_on_c, 0, 45, 64
2, 105120, Note_on_c, 0, 45, 0
2, 105120, Note_on_c, 0, 67, 64
2, 105120, Note_on_c, 0, 47, 64
2, 105239, Note_on_c, 0, 47, 0
2, 105240, Note_on_c, 0, 67, 0
2, 105240, Note_on_c, 0, 83, 64
2, 105360, Note_on_c, 0, 83, 0
2, 105360, Note_on_c, 0, 79, 64
2, 105480, Note_on_c, 0, 79, 0
2, 105480, Note_on_c, 0, 76, 64
2, 105480, Note_on_c, 0, 43, 64
2, 105600, Note_on_c, 0, 76, 0
2, 105600, Note_on_c, 0, 74, 64
2, 105607, Note_on_c, 0, 43, 0
2, 105720, Note_on_c, 0, 74, 0
2, 105720, Note_on_c, 0, 73, 64
2, 105840, Note_on_c, 0, 73, 0
2, 105840, Note_on_c, 0, 74, 64
2, 105840, Note_on_c, 0, 40, 64
2, 105960, Note_on_c, 0, 71, 64
2, 105967, Note_on_c, 0, 40, 0
2, 106080, Note_on_c, 0, 71, 0
2, 106080, Note_on_c, 0, 68, 64
2, 106200, Note_on_c, 0, 68, 0
2, 106200, Note_on_c, 0, 48, 64
2, 106200, Note_on_c, 0, 64, 64
2, 106320, Note_on_c, 0, 64, 0
2, 106320, Note_on_c, 0, 66, 64
2, 106440, Note_on_c, 0, 66, 0
2, 106440, Note_on_c, 0, 68, 64
2, 106560, Note_on_c, 0, 68, 0
2, 106560, Note_on_c, 0, 74, 0
2, 106560, Note_on_c, 0, 72, 64
2, 106560, Note_on_c, 0, 69, 64
2, 106680, Note_on_c, 0, 72, 0
2, 106680, Note_on_c, 0, 66, 64
2, 106800, Note_on_c, 0, 66, 0
2, 106800, Note_on_c, 0, 64, 64
2, 106920, Note_on_c, 0, 64, 0
2, 106920, Note_on_c, 0, 48, 0
2, 106920, Note_on_c, 0, 63, 64
2, 106920, Note_on_c, 0, 47, 64
2, 107040, Note_on_c, 0, 63, 0
2, 107040, Note_on_c, 0, 64, 64
2, 107047, Note_on_c, 0, 47, 0
2, 107160, Note_on_c, 0, 64, 0
2, 107160, Note_on_c, 0, 66, 64
2, 107190, Note_on_c, 0, 51, 64
2, 107280, Note_on_c, 0, 51, 0
2, 107280, Note_on_c, 0, 66, 0
2, 107280, Note_on_c, 0, 69, 0
2, 107280, Note_on_c, 0, 67, 64
2, 107280, Note_on_c, 0, 67, 64
2, 107280, Note_on_c, 0, 52, 64
2, 107400, Note_on_c, 0, 67, 0
2, 107400, Note_on_c, 0, 69, 64
2, 107415, Note_on_c, 0, 52, 0
2, 107520, Note_on_c, 0, 69, 0
2, 107520, Note_on_c, 0, 71, 64
2, 107640, Note_on_c, 0, 71, 0
2, 107640, Note_on_c, 0, 45, 64
2, 107640, Note_on_c, 0, 72, 64
2, 107760, Note_on_c, 0, 72, 0
2, 107760, Note_on_c, 0, 71, 64
2, 107880, Note_on_c, 0, 71, 0
2, 107880, Note_on_c, 0, 69, 64
2, 108000, Note_on_c, 0, 69, 0
2, 108000, Note_on_c, 0, 67, 0
2, 108000, Note_on_c, 0, 75, 64
2, 108000, Note_on_c, 0, 66, 64
2, 108120, Note_on_c, 0, 75, 0
2, 108120, Note_on_c, 0, 76, 64
2, 108240, Note_on_c, 0, 76, 0
2, 108240, Note_on_c, 0, 78, 64
2, 108360, Note_on_c, 0, 78, 0
2, 108360, Note_on_c, 0, 45, 0
2, 108360, Note_on_c, 0, 71, 64
2, 108360, Note_on_c, 0, 43, 64
2, 108479, Note_on_c, 0, 43, 0
2, 108480, Note_on_c, 0, 71, 0
2, 108480, Note_on_c, 0, 72, 64
2, 108600, Note_on_c, 0, 72, 0
2, 108600, Note_on_c, 0, 69, 64
2, 108630, Note_on_c, 0, 51, 64
2, 108720, Note_on_c, 0, 51, 0
2, 108720, Note_on_c, 0, 69, 0
2, 108720, Note_on_c, 0, 66, 0
2, 108720, Note_on_c, 0, 64, 64
2, 108720, Note_on_c, 0, 67, 64
2, 108720, Note_on_c, 0, 52, 64
2, 108840, Note_on_c, 0, 67, 0
2, 108840, Note_on_c, 0, 66, 64
2, 108855, Note_on_c, 0, 52, 0
2, 108960, Note_on_c, 0, 66, 0
2, 108960, Note_on_c, 0, 67, 64
2, 109080, Note_on_c, 0, 67, 0
2, 109080, Note_on_c, 0, 42, 64
2, 109080, Note_on_c, 0, 69, 64
2, 109200, Note_on_c, 0, 69, 0
2, 109200, Note_on_c, 0, 71, 64
2, 109320, Note_on_c, 0, 71, 0
2, 109320, Note_on_c, 0, 72, 64
2, 109440, Note_on_c, 0, 64, 0
2, 109440, Note_on_c, 0, 63, 64
2, 109560, Note_on_c, 0, 42, 0
2, 109560, Note_on_c, 0, 43, 64
2, 109680, Note_on_c, 0, 43, 0
2, 109680, Note_on_c, 0, 45, 64
2, 109800, Note_on_c, 0, 45, 0
2, 109800, Note_on_c, 0, 63, 0
2, 109800, Note_on_c, 0, 72, 0
2, 109800, Note_on_c, 0, 71, 64
2, 109800, Note_on_c, 0, 64, 64
2, 109800, Note_on_c, 0, 43, 64
2, 109920, Note_on_c, 0, 43, 0
2, 109920, Note_on_c, 0, 71, 0
2, 109920, Note_on_c, 0, 69, 64
2, 109920, Note_on_c, 0, 42, 64
2, 110040, Note_on_c, 0, 42, 0
2, 110040, Note_on_c, 0, 69, 0
2, 110040, Note_on_c, 0, 67, 64
2, 110040, Note_on_c, 0, 40, 64
2, 110160, Note_on_c, 0, 40, 0
2, 110160, Note_on_c, 0, 67, 0
2, 110160, Note_on_c, 0, 64, 0
2, 110160, Note_on_c, 0, 69, 64
2, 110160, Note_on_c, 0, 66, 64
2, 110160, Note_on_c, 0, 39, 64
2, 110280, Note_on_c, 0, 39, 0
2, 110280, Note_on_c, 0, 48, 64
2, 110400, Note_on_c, 0, 48, 0
2, 110400, Note_on_c, 0, 47, 64
2, 110520, Note_on_c, 0, 47, 0
2, 110520, Note_on_c, 0, 45, 64
2, 110640, Note_on_c, 0, 45, 0
2, 110640, Note_on_c, 0, 43, 64
2, 110760, Note_on_c, 0, 43, 0
2, 110760, Note_on_c, 0, 42, 64
2, 110880, Note_on_c, 0, 42, 0
2, 110880, Note_on_c, 0, 43, 64
2, 111000, Note_on_c, 0, 43, 0
2, 111000, Note_on_c, 0, 45, 64
2, 111120, Note_on_c, 0, 45, 0
2, 111120, Note_on_c, 0, 66, 0
2, 111120, Note_on_c, 0, 69, 0
2, 111120, Note_on_c, 0, 63, 64
2, 111120, Note_on_c, 0, 66, 64
2, 111120, Note_on_c, 0, 47, 64
2, 111240, Note_on_c, 0, 47, 0
2, 111240, Note_on_c, 0, 66, 0
2, 111240, Note_on_c, 0, 63, 0
2, 111240, Note_on_c, 0, 71, 64
2, 111240, Note_on_c, 0, 59, 64
2, 111240, Note_on_c, 0, 45, 64
2, 111360, Note_on_c, 0, 45, 0
2, 111360, Note_on_c, 0, 43, 64
2, 111367, Note_on_c, 0, 59, 0
2, 111367, Note_on_c, 0, 71, 0
2, 111480, Note_on_c, 0, 43, 0
2, 111480, Note_on_c, 0, 69, 64
2, 111480, Note_on_c, 0, 63, 64
2, 111480, Note_on_c, 0, 42, 64
2, 111600, Note_on_c, 0, 42, 0
2, 111600, Note_on_c, 0, 63, 0
2, 111600, Note_on_c, 0, 69, 0
2, 111600, Note_on_c, 0, 64, 64
2, 111600, Note_on_c, 0, 67, 64
2, 111600, Note_on_c, 0, 40, 64
2, 111720, Note_on_c, 0, 40, 0
2, 111720, Note_on_c, 0, 52, 64
2, 111840, Note_on_c, 0, 52, 0
2, 111840, Note_on_c, 0, 50, 64
2, 111960, Note_on_c, 0, 50, 0
2, 111960, Note_on_c, 0, 48, 64
2, 112080, Note_on_c, 0, 48, 0
2, 112080, Note_on_c, 0, 47, 64
2, 112200, Note_on_c, 0, 47, 0
2, 112200, Note_on_c, 0, 46, 64
2, 112320, Note_on_c, 0, 46, 0
2, 112320, Note_on_c, 0, 47, 64
2, 112440, Note_on_c, 0, 67, 0
2, 112440, Note_on_c, 0, 71, 64
2, 112560, Note_on_c, 0, 71, 0
2, 112560, Note_on_c, 0, 69, 64
2, 112680, Note_on_c, 0, 69, 0
2, 112680, Note_on_c, 0, 67, 64
2, 112800, Note_on_c, 0, 67, 0
2, 112800, Note_on_c, 0, 66, 64
2, 112920, Note_on_c, 0, 66, 0
2, 112920, Note_on_c, 0, 64, 64
2, 113040, Note_on_c, 0, 64, 0
2, 113040, Note_on_c, 0, 64, 0
2, 113040, Note_on_c, 0, 63, 64
2, 113160, Note_on_c, 0, 63, 0
2, 113160, Note_on_c, 0, 72, 64
2, 113160, Note_on_c, 0, 51, 64
2, 113280, Note_on_c, 0, 51, 0
2, 113280, Note_on_c, 0, 52, 64
2, 113400, Note_on_c, 0, 52, 0
2, 113400, Note_on_c, 0, 54, 64
2, 113520, Note_on_c, 0, 54, 0
2, 113520, Note_on_c, 0, 72, 0
2, 113520, Note_on_c, 0, 64, 64
2, 113520, Note_on_c, 0, 55, 64
2, 113640, Note_on_c, 0, 55, 0
2, 113640, Note_on_c, 0, 64, 0
2, 113640, Note_on_c, 0, 57, 64
2, 113640, Note_on_c, 0, 63, 64
2, 113760, Note_on_c, 0, 63, 0
2, 113760, Note_on_c, 0, 57, 0
2, 113760, Note_on_c, 0, 71, 64
2, 113760, Note_on_c, 0, 55, 64
2, 113880, Note_on_c, 0, 55, 0
2, 113880, Note_on_c, 0, 71, 0
2, 113880, Note_on_c, 0, 64, 64
2, 114000, Note_on_c, 0, 67, 64
2, 114120, Note_on_c, 0, 67, 0
2, 114120, Note_on_c, 0, 73, 64
2, 114240, Note_on_c, 0, 47, 0
2, 114240, Note_on_c, 0, 58, 64
2, 114360, Note_on_c, 0, 58, 0
2, 114360, Note_on_c, 0, 59, 64
2, 114480, Note_on_c, 0, 59, 0
2, 114480, Note_on_c, 0, 47, 64
2, 114600, Note_on_c, 0, 64, 0
2, 114600, Note_on_c, 0, 66, 64
2, 114720, Note_on_c, 0, 73, 0
2, 114720, Note_on_c, 0, 69, 64
2, 114840, Note_on_c, 0, 69, 0
2, 114840, Note_on_c, 0, 75, 64
2, 114960, Note_on_c, 0, 47, 0
2, 114960, Note_on_c, 0, 58, 64
2, 115080, Note_on_c, 0, 58, 0
2, 115080, Note_on_c, 0, 59, 64
2, 115200, Note_on_c, 0, 59, 0
2, 115200, Note_on_c, 0, 47, 64
2, 115320, Note_on_c, 0, 66, 0
2, 115320, Note_on_c, 0, 67, 64
2, 115440, Note_on_c, 0, 75, 0
2, 115440, Note_on_c, 0, 71, 64
2, 115560, Note_on_c, 0, 71, 0
2, 115560, Note_on_c, 0, 76, 64
2, 115680, Note_on_c, 0, 47, 0
2, 115680, Note_on_c, 0, 58, 64
2, 115800, Note_on_c, 0, 58, 0
2, 115800, Note_on_c, 0, 59, 64
2, 115920, Note_on_c, 0, 59, 0
2, 115920, Note_on_c, 0, 47, 64
2, 116040, Note_on_c, 0, 67, 0
2, 116040, Note_on_c, 0, 69, 64
2, 116160, Note_on_c, 0, 76, 0
2, 116160, Note_on_c, 0, 75, 64
2, 116280, Note_on_c, 0, 75, 0
2, 116280, Note_on_c, 0, 78, 64
2, 116400, Note_on_c, 0, 47, 0
2, 116400, Note_on_c, 0, 58, 64
2, 116520, Note_on_c, 0, 58, 0
2, 116520, Note_on_c, 0, 59, 64
2, 116640, Note_on_c, 0, 59, 0
2, 116640, Note_on_c, 0, 47, 64
2, 116760, Note_on_c, 0, 69, 0
2, 116760, Note_on_c, 0, 71, 64
2, 116880, Note_on_c, 0, 78, 0
2, 116880, Note_on_c, 0, 76, 64
2, 117000, Note_on_c, 0, 76, 0
2, 117000, Note_on_c, 0, 79, 64
2, 117120, Note_on_c, 0, 47, 0
2, 117120, Note_on_c, 0, 58, 64
2, 117240, Note_on_c, 0, 58, 0
2, 117240, Note_on_c, 0, 59, 64
2, 117360, Note_on_c, 0, 59, 0
2, 117360, Note_on_c, 0, 79, 0
2, 117360, Note_on_c, 0, 71, 0
2, 117360, Note_on_c, 0, 54, 64
2, 117480, Note_on_c, 0, 54, 0
2, 117480, Note_on_c, 0, 55, 64
2, 117600, Note_on_c, 0, 55, 0
2, 117600, Note_on_c, 0, 51, 64
2, 117720, Note_on_c, 0, 51, 0
2, 117720, Note_on_c, 0, 52, 64
2, 117840, Note_on_c, 0, 52, 0
2, 117840, Note_on_c, 0, 47, 64
2, 117960, Note_on_c, 0, 47, 0
2, 117960, Note_on_c, 0, 48, 64
2, 118080, Note_on_c, 0, 48, 0
2, 118080, Note_on_c, 0, 39, 64
2, 118200, Note_on_c, 0, 72, 64
2, 118320, Note_on_c, 0, 72, 0
2, 118320, Note_on_c, 0, 78, 64
2, 118440, Note_on_c, 0, 78, 0
2, 118440, Note_on_c, 0, 39, 0
2, 118440, Note_on_c, 0, 81, 64
2, 118560, Note_on_c, 0, 81, 0
2, 118560, Note_on_c, 0, 75, 64
2, 118680, Note_on_c, 0, 75, 0
2, 118680, Note_on_c, 0, 78, 64
2, 118800, Note_on_c, 0, 78, 0
2, 118800, Note_on_c, 0, 72, 64
2, 118920, Note_on_c, 0, 72, 0
2, 118920, Note_on_c, 0, 71, 64
2, 119040, Note_on_c, 0, 71, 0
2, 119040, Note_on_c, 0, 75, 64
2, 119160, Note_on_c, 0, 75, 0
2, 119160, Note_on_c, 0, 78, 64
2, 119280, Note_on_c, 0, 78, 0
2, 119280, Note_on_c, 0, 69, 64
2, 119400, Note_on_c, 0, 69, 0
2, 119400, Note_on_c, 0, 72, 64
2, 119520, Note_on_c, 0, 72, 0
2, 119520, Note_on_c, 0, 67, 64
2, 119640, Note_on_c, 0, 67, 0
2, 119640, Note_on_c, 0, 66, 64
2, 119760, Note_on_c, 0, 66, 0
2, 119760, Note_on_c, 0, 69, 64
2, 119880, Note_on_c, 0, 69, 0
2, 119880, Note_on_c, 0, 72, 64
2, 120000, Note_on_c, 0, 72, 0
2, 120000, Note_on_c, 0, 66, 64
2, 120120, Note_on_c, 0, 66, 0
2, 120120, Note_on_c, 0, 69, 64
2, 120240, Note_on_c, 0, 69, 0
2, 120240, Note_on_c, 0, 64, 64
2, 120240, Note_on_c, 0, 45, 64
2, 120240, Note_on_c, 0, 54, 64
2, 120240, Note_on_c, 0, 59, 64
2, 120360, Note_on_c, 0, 64, 0
2, 120360, Note_on_c, 0, 64, 64
2, 120384, Note_on_c, 0, 63, 64
2, 120399, Note_on_c, 0, 64, 0
2, 120400, Note_on_c, 0, 64, 64
2, 120415, Note_on_c, 0, 63, 0
2, 120416, Note_on_c, 0, 63, 64
2, 120431, Note_on_c, 0, 64, 0
2, 120480, Note_on_c, 0, 75, 64
2, 120487, Note_on_c, 0, 63, 0
2, 120512, Note_on_c, 0, 76, 64
2, 120527, Note_on_c, 0, 75, 0
2, 120534, Note_on_c, 0, 75, 64
2, 120551, Note_on_c, 0, 76, 0
2, 120558, Note_on_c, 0, 73, 64
2, 120573, Note_on_c, 0, 75, 0
2, 120580, Note_on_c, 0, 75, 64
2, 120597, Note_on_c, 0, 73, 0
2, 120600, Note_on_c, 0, 45, 0
2, 120600, Note_on_c, 0, 59, 0
2, 120600, Note_on_c, 0, 54, 0
2, 120600, Note_on_c, 0, 75, 0
2, 120600, Note_on_c, 0, 76, 64
2, 120870, Note_on_c, 0, 66, 64
2, 120870, Note_on_c, 0, 58, 64
2, 120960, Note_on_c, 0, 58, 0
2, 120960, Note_on_c, 0, 66, 0
2, 120960, Note_on_c, 0, 59, 64
2, 120960, Note_on_c, 0, 67, 64
2, 121080, Note_on_c, 0, 76, 0
2, 121080, Note_on_c, 0, 74, 64
2, 121200, Note_on_c, 0, 74, 0
2, 121200, Note_on_c, 0, 72, 64
2, 121320, Note_on_c, 0, 72, 0
2, 121320, Note_on_c, 0, 71, 64
2, 121440, Note_on_c, 0, 71, 0
2, 121440, Note_on_c, 0, 67, 0
2, 121440, Note_on_c, 0, 69, 64
2, 121440, Note_on_c, 0, 66, 64
2, 121560, Note_on_c, 0, 66, 0
2, 121560, Note_on_c, 0, 69, 0
2, 121560, Note_on_c, 0, 67, 64
2, 121560, Note_on_c, 0, 64, 64
2, 121680, Note_on_c, 0, 64, 0
2, 121680, Note_on_c, 0, 67, 0
2, 121680, Note_on_c, 0, 69, 64
2, 121680, Note_on_c, 0, 63, 64
2, 121800, Note_on_c, 0, 69, 0
2, 121800, Note_on_c, 0, 66, 64
2, 121920, Note_on_c, 0, 66, 0
2, 121920, Note_on_c, 0, 63, 0
2, 121920, Note_on_c, 0, 67, 64
2, 121920, Note_on_c, 0, 64, 64
2, 122040, Note_on_c, 0, 64, 0
2, 122040, Note_on_c, 0, 67, 0
2, 122040, Note_on_c, 0, 69, 64
2, 122040, Note_on_c, 0, 66, 64
2, 122160, Note_on_c, 0, 69, 0
2, 122160, Note_on_c, 0, 71, 64
2, 122280, Note_on_c, 0, 71, 0
2, 122280, Note_on_c, 0, 66, 0
2, 122280, Note_on_c, 0, 72, 64
2, 122280, Note_on_c, 0, 64, 64
2, 122400, Note_on_c, 0, 64, 0
2, 122400, Note_on_c, 0, 63, 64
2, 122520, Note_on_c, 0, 63, 0
2, 122520, Note_on_c, 0, 72, 0
2, 122520, Note_on_c, 0, 59, 0
2, 122520, Note_on_c, 0, 71, 64
2, 122520, Note_on_c, 0, 61, 64
2, 122640, Note_on_c, 0, 61, 0
2, 122640, Note_on_c, 0, 71, 0
2, 122640, Note_on_c, 0, 69, 64
2, 122640, Note_on_c, 0, 63, 64
2, 122760, Note_on_c, 0, 63, 0
2, 122760, Note_on_c, 0, 69, 0
2, 122760, Note_on_c, 0, 67, 64
2, 122760, Note_on_c, 0, 64, 64
2, 122880, Note_on_c, 0, 64, 0
2, 122880, Note_on_c, 0, 67, 0
2, 122880, Note_on_c, 0, 63, 64
2, 122880, Note_on_c, 0, 54, 64
2, 123000, Note_on_c, 0, 54, 0
2, 123000, Note_on_c, 0, 63, 0
2, 123000, Note_on_c, 0, 64, 64
2, 123000, Note_on_c, 0, 55, 64
2, 123000, Note_on_c, 0, 46, 64
2, 123120, Note_on_c, 0, 46, 0
2, 123120, Note_on_c, 0, 55, 0
2, 123120, Note_on_c, 0, 47, 64
2, 123120, Note_on_c, 0, 54, 64
2, 123240, Note_on_c, 0, 64, 0
2, 123240, Note_on_c, 0, 66, 64
2, 123300, Note_on_c, 0, 66, 0
2, 123300, Note_on_c, 0, 69, 64
2, 123360, Note_on_c, 0, 69, 0
2, 123360, Note_on_c, 0, 72, 64
2, 123480, Note_on_c, 0, 72, 0
2, 123480, Note_on_c, 0, 64, 64
2, 123520, Note_on_c, 0, 63, 64
2, 123535, Note_on_c, 0, 64, 0
2, 123552, Note_on_c, 0, 64, 64
2, 123575, Note_on_c, 0, 63, 0
2, 123584, Note_on_c, 0, 63, 64
2, 123599, Note_on_c, 0, 64, 0
2, 123600, Note_on_c, 0, 54, 0
2, 123600, Note_on_c, 0, 55, 64
2, 123720, Note_on_c, 0, 55, 0
2, 123720, Note_on_c, 0, 57, 64
2, 123720, Note_on_c, 0, 64, 64
2, 123727, Note_on_c, 0, 63, 0
2, 123823, Note_on_c, 0, 64, 0
2, 123840, Note_on_c, 0, 47, 0
2, 123840, Note_on_c, 0, 64, 64
2, 123840, Note_on_c, 0, 52, 64
2, 123960, Note_on_c, 0, 57, 0
2, 123960, Note_on_c, 0, 59, 64
2, 123960, Note_on_c, 0, 56, 64
2, 124080, Note_on_c, 0, 59, 0
2, 124080, Note_on_c, 0, 62, 64
2, 124200, Note_on_c, 0, 62, 0
2, 124200, Note_on_c, 0, 60, 64
2, 124320, Note_on_c, 0, 56, 0
2, 124320, Note_on_c, 0, 56, 64
2, 124440, Note_on_c, 0, 56, 0
2, 124440, Note_on_c, 0, 60, 0
2, 124440, Note_on_c, 0, 57, 64
2, 124560, Note_on_c, 0, 59, 64
2, 124680, Note_on_c, 0, 52, 0
2, 124680, Note_on_c, 0, 51, 64
2, 124800, Note_on_c, 0, 51, 0
2, 124800, Note_on_c, 0, 52, 64
2, 124920, Note_on_c, 0, 52, 0
2, 124920, Note_on_c, 0, 57, 0
2, 124920, Note_on_c, 0, 56, 64
2, 124920, Note_on_c, 0, 40, 64
2, 125280, Note_on_c, 0, 40, 0
2, 125280, Note_on_c, 0, 59, 0
2, 125280, Note_on_c, 0, 64, 0
2, 125280, Note_on_c, 0, 56, 0
2, 125280, End_track
0, 0, End_of_file
