0, 0, Header, 1, 2, 120
1, 0, Start_track
1, 0, Time_signature, 3, 2, 24, 8
1, 0, Key_signature, 6, "major"
1, 0, Tempo, 666667
1, 0, Marker_t, "(c) Yo Tomita, 1997"
1, 25744, Tempo, 774194
1, 25802, Tempo, 800000
1, 25866, Tempo, 816327
1, 25922, Tempo, 833333
1, 25982, Tempo, 851064
1, 26040, Tempo, 882353
1, 26224, Tempo, 909091
1, 26278, Tempo, 930233
1, 26340, Tempo, 967742
1, 26402, Tempo, 1008403
1, 26464, Tempo, 1061947
1, 26524, Tempo, 1111111
1, 26586, Tempo, 1153846
1, 26586, End_track
2, 0, Start_track
2, 0, MIDI_port, 0
2, 0, Title_t, "BWV 882/1"
2, 0, Program_c, 0, 6
2, 3, Note_on_c, 0, 73, 64
2, 3, Note_on_c, 0, 54, 64
2, 76, Note_on_c, 0, 73, 0
2, 78, Note_on_c, 0, 71, 64
2, 81, Note_on_c, 0, 54, 0
2, 91, Note_on_c, 0, 71, 0
2, 93, Note_on_c, 0, 70, 64
2, 93, Note_on_c, 0, 56, 64
2, 106, Note_on_c, 0, 70, 0
2, 108, Note_on_c, 0, 68, 64
2, 119, Note_on_c, 0, 56, 0
2, 121, Note_on_c, 0, 68, 0
2, 123, Note_on_c, 0, 66, 64
2, 123, Note_on_c, 0, 58, 64
2, 201, Note_on_c, 0, 58, 0
2, 213, Note_on_c, 0, 56, 64
2, 239, Note_on_c, 0, 56, 0
2, 243, Note_on_c, 0, 58, 64
2, 288, Note_on_c, 0, 66, 0
2, 321, Note_on_c, 0, 58, 0
2, 333, Note_on_c, 0, 78, 64
2, 333, Note_on_c, 0, 54, 64
2, 359, Note_on_c, 0, 54, 0
2, 359, Note_on_c, 0, 78, 0
2, 363, Note_on_c, 0, 77, 64
2, 363, Note_on_c, 0, 61, 64
2, 441, Note_on_c, 0, 61, 0
2, 441, Note_on_c, 0, 77, 0
2, 453, Note_on_c, 0, 78, 64
2, 453, Note_on_c, 0, 59, 64
2, 466, Note_on_c, 0, 78, 0
2, 468, Note_on_c, 0, 80, 64
2, 479, Note_on_c, 0, 59, 0
2, 481, Note_on_c, 0, 80, 0
2, 483, Note_on_c, 0, 73, 64
2, 483, Note_on_c, 0, 58, 64
2, 561, Note_on_c, 0, 58, 0
2, 573, Note_on_c, 0, 63, 64
2, 599, Note_on_c, 0, 63, 0
2, 603, Note_on_c, 0, 61, 64
2, 648, Note_on_c, 0, 73, 0
2, 681, Note_on_c, 0, 61, 0
2, 693, Note_on_c, 0, 78, 64
2, 693, Note_on_c, 0, 63, 64
2, 719, Note_on_c, 0, 63, 0
2, 719, Note_on_c, 0, 78, 0
2, 723, Note_on_c, 0, 71, 64
2, 723, Note_on_c, 0, 56, 64
2, 801, Note_on_c, 0, 56, 0
2, 801, Note_on_c, 0, 71, 0
2, 813, Note_on_c, 0, 75, 64
2, 813, Note_on_c, 0, 58, 64
2, 839, Note_on_c, 0, 58, 0
2, 839, Note_on_c, 0, 75, 0
2, 843, Note_on_c, 0, 68, 64
2, 843, Note_on_c, 0, 59, 64
2, 921, Note_on_c, 0, 59, 0
2, 921, Note_on_c, 0, 68, 0
2, 933, Note_on_c, 0, 71, 64
2, 933, Note_on_c, 0, 56, 64
2, 959, Note_on_c, 0, 56, 0
2, 959, Note_on_c, 0, 71, 0
2, 963, Note_on_c, 0, 65, 64
2, 963, Note_on_c, 0, 61, 64
2, 1041, Note_on_c, 0, 61, 0
2, 1041, Note_on_c, 0, 65, 0
2, 1053, Note_on_c, 0, 73, 64
2, 1053, Note_on_c, 0, 49, 64
2, 1079, Note_on_c, 0, 49, 0
2, 1079, Note_on_c, 0, 73, 0
2, 1083, Note_on_c, 0, 70, 64
2, 1083, Note_on_c, 0, 54, 64
2, 1109, Note_on_c, 0, 70, 0
2, 1113, Note_on_c, 0, 73, 64
2, 1139, Note_on_c, 0, 73, 0
2, 1143, Note_on_c, 0, 66, 64
2, 1161, Note_on_c, 0, 54, 0
2, 1169, Note_on_c, 0, 66, 0
2, 1173, Note_on_c, 0, 68, 64
2, 1173, Note_on_c, 0, 61, 64
2, 1199, Note_on_c, 0, 61, 0
2, 1199, Note_on_c, 0, 68, 0
2, 1203, Note_on_c, 0, 70, 64
2, 1203, Note_on_c, 0, 61, 64
2, 1229, Note_on_c, 0, 70, 0
2, 1233, Note_on_c, 0, 66, 64
2, 1259, Note_on_c, 0, 66, 0
2, 1263, Note_on_c, 0, 73, 64
2, 1281, Note_on_c, 0, 61, 0
2, 1289, Note_on_c, 0, 73, 0
2, 1293, Note_on_c, 0, 70, 64
2, 1293, Note_on_c, 0, 61, 64
2, 1319, Note_on_c, 0, 61, 0
2, 1319, Note_on_c, 0, 70, 0
2, 1323, Note_on_c, 0, 66, 64
2, 1323, Note_on_c, 0, 58, 64
2, 1349, Note_on_c, 0, 66, 0
2, 1353, Note_on_c, 0, 70, 64
2, 1379, Note_on_c, 0, 70, 0
2, 1383, Note_on_c, 0, 68, 64
2, 1401, Note_on_c, 0, 58, 0
2, 1409, Note_on_c, 0, 68, 0
2, 1413, Note_on_c, 0, 66, 64
2, 1413, Note_on_c, 0, 61, 64
2, 1439, Note_on_c, 0, 61, 0
2, 1439, Note_on_c, 0, 66, 0
2, 1443, Note_on_c, 0, 68, 64
2, 1443, Note_on_c, 0, 53, 64
2, 1469, Note_on_c, 0, 68, 0
2, 1473, Note_on_c, 0, 73, 64
2, 1499, Note_on_c, 0, 73, 0
2, 1503, Note_on_c, 0, 65, 64
2, 1521, Note_on_c, 0, 53, 0
2, 1529, Note_on_c, 0, 65, 0
2, 1533, Note_on_c, 0, 66, 64
2, 1533, Note_on_c, 0, 61, 64
2, 1559, Note_on_c, 0, 61, 0
2, 1559, Note_on_c, 0, 66, 0
2, 1563, Note_on_c, 0, 68, 64
2, 1563, Note_on_c, 0, 61, 64
2, 1589, Note_on_c, 0, 68, 0
2, 1593, Note_on_c, 0, 65, 64
2, 1619, Note_on_c, 0, 65, 0
2, 1623, Note_on_c, 0, 73, 64
2, 1641, Note_on_c, 0, 61, 0
2, 1649, Note_on_c, 0, 73, 0
2, 1653, Note_on_c, 0, 68, 64
2, 1653, Note_on_c, 0, 61, 64
2, 1679, Note_on_c, 0, 61, 0
2, 1679, Note_on_c, 0, 68, 0
2, 1683, Note_on_c, 0, 65, 64
2, 1683, Note_on_c, 0, 56, 64
2, 1709, Note_on_c, 0, 65, 0
2, 1713, Note_on_c, 0, 68, 64
2, 1739, Note_on_c, 0, 68, 0
2, 1743, Note_on_c, 0, 66, 64
2, 1761, Note_on_c, 0, 56, 0
2, 1769, Note_on_c, 0, 66, 0
2, 1773, Note_on_c, 0, 65, 64
2, 1773, Note_on_c, 0, 61, 64
2, 1799, Note_on_c, 0, 61, 0
2, 1799, Note_on_c, 0, 65, 0
2, 1803, Note_on_c, 0, 66, 64
2, 1803, Note_on_c, 0, 51, 64
2, 1829, Note_on_c, 0, 66, 0
2, 1833, Note_on_c, 0, 70, 64
2, 1859, Note_on_c, 0, 70, 0
2, 1863, Note_on_c, 0, 63, 64
2, 1881, Note_on_c, 0, 51, 0
2, 1889, Note_on_c, 0, 63, 0
2, 1893, Note_on_c, 0, 65, 64
2, 1893, Note_on_c, 0, 61, 64
2, 1919, Note_on_c, 0, 61, 0
2, 1919, Note_on_c, 0, 65, 0
2, 1923, Note_on_c, 0, 66, 64
2, 1923, Note_on_c, 0, 61, 64
2, 1949, Note_on_c, 0, 66, 0
2, 1953, Note_on_c, 0, 63, 64
2, 1979, Note_on_c, 0, 63, 0
2, 1983, Note_on_c, 0, 70, 64
2, 2001, Note_on_c, 0, 61, 0
2, 2009, Note_on_c, 0, 70, 0
2, 2013, Note_on_c, 0, 66, 64
2, 2013, Note_on_c, 0, 61, 64
2, 2039, Note_on_c, 0, 61, 0
2, 2039, Note_on_c, 0, 66, 0
2, 2043, Note_on_c, 0, 63, 64
2, 2043, Note_on_c, 0, 54, 64
2, 2069, Note_on_c, 0, 63, 0
2, 2073, Note_on_c, 0, 66, 64
2, 2099, Note_on_c, 0, 66, 0
2, 2103, Note_on_c, 0, 65, 64
2, 2121, Note_on_c, 0, 54, 0
2, 2129, Note_on_c, 0, 65, 0
2, 2133, Note_on_c, 0, 63, 64
2, 2133, Note_on_c, 0, 60, 64
2, 2159, Note_on_c, 0, 60, 0
2, 2159, Note_on_c, 0, 63, 0
2, 2163, Note_on_c, 0, 65, 64
2, 2163, Note_on_c, 0, 49, 64
2, 2189, Note_on_c, 0, 65, 0
2, 2193, Note_on_c, 0, 68, 64
2, 2219, Note_on_c, 0, 68, 0
2, 2223, Note_on_c, 0, 61, 64
2, 2241, Note_on_c, 0, 49, 0
2, 2249, Note_on_c, 0, 61, 0
2, 2253, Note_on_c, 0, 63, 64
2, 2253, Note_on_c, 0, 56, 64
2, 2266, Note_on_c, 0, 56, 0
2, 2268, Note_on_c, 0, 58, 64
2, 2279, Note_on_c, 0, 63, 0
2, 2281, Note_on_c, 0, 58, 0
2, 2283, Note_on_c, 0, 65, 64
2, 2283, Note_on_c, 0, 59, 64
2, 2309, Note_on_c, 0, 65, 0
2, 2313, Note_on_c, 0, 61, 64
2, 2339, Note_on_c, 0, 61, 0
2, 2343, Note_on_c, 0, 68, 64
2, 2361, Note_on_c, 0, 59, 0
2, 2369, Note_on_c, 0, 68, 0
2, 2373, Note_on_c, 0, 65, 64
2, 2373, Note_on_c, 0, 56, 64
2, 2399, Note_on_c, 0, 56, 0
2, 2399, Note_on_c, 0, 65, 0
2, 2403, Note_on_c, 0, 61, 64
2, 2403, Note_on_c, 0, 53, 64
2, 2429, Note_on_c, 0, 61, 0
2, 2433, Note_on_c, 0, 71, 64
2, 2459, Note_on_c, 0, 71, 0
2, 2463, Note_on_c, 0, 70, 64
2, 2481, Note_on_c, 0, 53, 0
2, 2489, Note_on_c, 0, 70, 0
2, 2493, Note_on_c, 0, 68, 64
2, 2493, Note_on_c, 0, 49, 64
2, 2519, Note_on_c, 0, 49, 0
2, 2519, Note_on_c, 0, 68, 0
2, 2523, Note_on_c, 0, 70, 64
2, 2523, Note_on_c, 0, 54, 64
2, 2549, Note_on_c, 0, 70, 0
2, 2553, Note_on_c, 0, 73, 64
2, 2579, Note_on_c, 0, 73, 0
2, 2583, Note_on_c, 0, 66, 64
2, 2601, Note_on_c, 0, 54, 0
2, 2609, Note_on_c, 0, 66, 0
2, 2613, Note_on_c, 0, 68, 64
2, 2613, Note_on_c, 0, 49, 64
2, 2639, Note_on_c, 0, 49, 0
2, 2639, Note_on_c, 0, 68, 0
2, 2643, Note_on_c, 0, 70, 64
2, 2643, Note_on_c, 0, 42, 64
2, 2669, Note_on_c, 0, 70, 0
2, 2673, Note_on_c, 0, 66, 64
2, 2699, Note_on_c, 0, 66, 0
2, 2703, Note_on_c, 0, 73, 64
2, 2729, Note_on_c, 0, 73, 0
2, 2733, Note_on_c, 0, 70, 64
2, 2748, Note_on_c, 0, 42, 0
2, 2759, Note_on_c, 0, 70, 0
2, 2763, Note_on_c, 0, 66, 64
2, 2789, Note_on_c, 0, 66, 0
2, 2793, Note_on_c, 0, 68, 64
2, 2819, Note_on_c, 0, 68, 0
2, 2823, Note_on_c, 0, 66, 64
2, 2849, Note_on_c, 0, 66, 0
2, 2853, Note_on_c, 0, 65, 64
2, 2879, Note_on_c, 0, 65, 0
2, 2883, Note_on_c, 0, 63, 64
2, 2883, Note_on_c, 0, 55, 64
2, 2909, Note_on_c, 0, 63, 0
2, 2913, Note_on_c, 0, 70, 64
2, 2939, Note_on_c, 0, 70, 0
2, 2943, Note_on_c, 0, 63, 64
2, 2961, Note_on_c, 0, 55, 0
2, 2969, Note_on_c, 0, 63, 0
2, 2973, Note_on_c, 0, 65, 64
2, 2973, Note_on_c, 0, 58, 64
2, 2986, Note_on_c, 0, 58, 0
2, 2988, Note_on_c, 0, 59, 64
2, 2999, Note_on_c, 0, 65, 0
2, 3001, Note_on_c, 0, 59, 0
2, 3003, Note_on_c, 0, 67, 64
2, 3003, Note_on_c, 0, 61, 64
2, 3029, Note_on_c, 0, 67, 0
2, 3033, Note_on_c, 0, 63, 64
2, 3059, Note_on_c, 0, 63, 0
2, 3063, Note_on_c, 0, 70, 64
2, 3081, Note_on_c, 0, 61, 0
2, 3089, Note_on_c, 0, 70, 0
2, 3093, Note_on_c, 0, 67, 64
2, 3093, Note_on_c, 0, 58, 64
2, 3119, Note_on_c, 0, 58, 0
2, 3119, Note_on_c, 0, 67, 0
2, 3123, Note_on_c, 0, 63, 64
2, 3123, Note_on_c, 0, 55, 64
2, 3149, Note_on_c, 0, 63, 0
2, 3153, Note_on_c, 0, 73, 64
2, 3179, Note_on_c, 0, 73, 0
2, 3183, Note_on_c, 0, 72, 64
2, 3201, Note_on_c, 0, 55, 0
2, 3209, Note_on_c, 0, 72, 0
2, 3213, Note_on_c, 0, 70, 64
2, 3213, Note_on_c, 0, 51, 64
2, 3239, Note_on_c, 0, 51, 0
2, 3239, Note_on_c, 0, 70, 0
2, 3243, Note_on_c, 0, 72, 64
2, 3243, Note_on_c, 0, 56, 64
2, 3269, Note_on_c, 0, 72, 0
2, 3273, Note_on_c, 0, 75, 64
2, 3299, Note_on_c, 0, 75, 0
2, 3303, Note_on_c, 0, 68, 64
2, 3321, Note_on_c, 0, 56, 0
2, 3329, Note_on_c, 0, 68, 0
2, 3333, Note_on_c, 0, 70, 64
2, 3333, Note_on_c, 0, 51, 64
2, 3359, Note_on_c, 0, 51, 0
2, 3359, Note_on_c, 0, 70, 0
2, 3363, Note_on_c, 0, 72, 64
2, 3363, Note_on_c, 0, 44, 64
2, 3389, Note_on_c, 0, 72, 0
2, 3393, Note_on_c, 0, 68, 64
2, 3419, Note_on_c, 0, 68, 0
2, 3423, Note_on_c, 0, 75, 64
2, 3449, Note_on_c, 0, 75, 0
2, 3453, Note_on_c, 0, 72, 64
2, 3468, Note_on_c, 0, 44, 0
2, 3479, Note_on_c, 0, 72, 0
2, 3483, Note_on_c, 0, 68, 64
2, 3509, Note_on_c, 0, 68, 0
2, 3513, Note_on_c, 0, 70, 64
2, 3539, Note_on_c, 0, 70, 0
2, 3543, Note_on_c, 0, 68, 64
2, 3569, Note_on_c, 0, 68, 0
2, 3573, Note_on_c, 0, 66, 64
2, 3599, Note_on_c, 0, 66, 0
2, 3603, Note_on_c, 0, 65, 64
2, 3603, Note_on_c, 0, 57, 64
2, 3629, Note_on_c, 0, 65, 0
2, 3633, Note_on_c, 0, 72, 64
2, 3659, Note_on_c, 0, 72, 0
2, 3663, Note_on_c, 0, 65, 64
2, 3681, Note_on_c, 0, 57, 0
2, 3689, Note_on_c, 0, 65, 0
2, 3693, Note_on_c, 0, 67, 64
2, 3693, Note_on_c, 0, 60, 64
2, 3706, Note_on_c, 0, 60, 0
2, 3708, Note_on_c, 0, 61, 64
2, 3719, Note_on_c, 0, 67, 0
2, 3721, Note_on_c, 0, 61, 0
2, 3723, Note_on_c, 0, 69, 64
2, 3723, Note_on_c, 0, 63, 64
2, 3749, Note_on_c, 0, 69, 0
2, 3753, Note_on_c, 0, 65, 64
2, 3779, Note_on_c, 0, 65, 0
2, 3783, Note_on_c, 0, 72, 64
2, 3801, Note_on_c, 0, 63, 0
2, 3809, Note_on_c, 0, 72, 0
2, 3813, Note_on_c, 0, 69, 64
2, 3813, Note_on_c, 0, 60, 64
2, 3839, Note_on_c, 0, 60, 0
2, 3839, Note_on_c, 0, 69, 0
2, 3843, Note_on_c, 0, 65, 64
2, 3843, Note_on_c, 0, 57, 64
2, 3869, Note_on_c, 0, 65, 0
2, 3873, Note_on_c, 0, 75, 64
2, 3899, Note_on_c, 0, 75, 0
2, 3903, Note_on_c, 0, 73, 64
2, 3921, Note_on_c, 0, 57, 0
2, 3929, Note_on_c, 0, 73, 0
2, 3933, Note_on_c, 0, 72, 64
2, 3933, Note_on_c, 0, 53, 64
2, 3959, Note_on_c, 0, 53, 0
2, 3959, Note_on_c, 0, 72, 0
2, 3963, Note_on_c, 0, 73, 64
2, 3963, Note_on_c, 0, 58, 64
2, 4041, Note_on_c, 0, 73, 0
2, 4053, Note_on_c, 0, 70, 64
2, 4079, Note_on_c, 0, 70, 0
2, 4083, Note_on_c, 0, 78, 64
2, 4156, Note_on_c, 0, 58, 0
2, 4158, Note_on_c, 0, 58, 64
2, 4171, Note_on_c, 0, 58, 0
2, 4173, Note_on_c, 0, 60, 64
2, 4186, Note_on_c, 0, 60, 0
2, 4188, Note_on_c, 0, 61, 64
2, 4201, Note_on_c, 0, 61, 0
2, 4203, Note_on_c, 0, 63, 64
2, 4276, Note_on_c, 0, 78, 0
2, 4278, Note_on_c, 0, 77, 64
2, 4281, Note_on_c, 0, 63, 0
2, 4291, Note_on_c, 0, 77, 0
2, 4293, Note_on_c, 0, 75, 64
2, 4293, Note_on_c, 0, 66, 64
2, 4306, Note_on_c, 0, 75, 0
2, 4308, Note_on_c, 0, 73, 64
2, 4319, Note_on_c, 0, 66, 0
2, 4321, Note_on_c, 0, 73, 0
2, 4323, Note_on_c, 0, 75, 64
2, 4323, Note_on_c, 0, 60, 64
2, 4401, Note_on_c, 0, 75, 0
2, 4413, Note_on_c, 0, 72, 64
2, 4439, Note_on_c, 0, 72, 0
2, 4443, Note_on_c, 0, 80, 64
2, 4516, Note_on_c, 0, 60, 0
2, 4518, Note_on_c, 0, 61, 64
2, 4531, Note_on_c, 0, 61, 0
2, 4533, Note_on_c, 0, 60, 64
2, 4546, Note_on_c, 0, 60, 0
2, 4548, Note_on_c, 0, 58, 64
2, 4561, Note_on_c, 0, 58, 0
2, 4563, Note_on_c, 0, 60, 64
2, 4636, Note_on_c, 0, 80, 0
2, 4638, Note_on_c, 0, 78, 64
2, 4641, Note_on_c, 0, 60, 0
2, 4651, Note_on_c, 0, 78, 0
2, 4653, Note_on_c, 0, 77, 64
2, 4653, Note_on_c, 0, 56, 64
2, 4666, Note_on_c, 0, 77, 0
2, 4668, Note_on_c, 0, 75, 64
2, 4679, Note_on_c, 0, 56, 0
2, 4681, Note_on_c, 0, 75, 0
2, 4683, Note_on_c, 0, 77, 64
2, 4683, Note_on_c, 0, 61, 64
2, 4709, Note_on_c, 0, 61, 0
2, 4713, Note_on_c, 0, 49, 64
2, 4739, Note_on_c, 0, 49, 0
2, 4743, Note_on_c, 0, 51, 64
2, 4761, Note_on_c, 0, 77, 0
2, 4769, Note_on_c, 0, 51, 0
2, 4773, Note_on_c, 0, 73, 64
2, 4773, Note_on_c, 0, 53, 64
2, 4799, Note_on_c, 0, 53, 0
2, 4799, Note_on_c, 0, 73, 0
2, 4803, Note_on_c, 0, 82, 64
2, 4803, Note_on_c, 0, 54, 64
2, 4829, Note_on_c, 0, 54, 0
2, 4833, Note_on_c, 0, 42, 64
2, 4859, Note_on_c, 0, 42, 0
2, 4863, Note_on_c, 0, 54, 64
2, 4876, Note_on_c, 0, 82, 0
2, 4878, Note_on_c, 0, 80, 64
2, 4889, Note_on_c, 0, 54, 0
2, 4891, Note_on_c, 0, 80, 0
2, 4893, Note_on_c, 0, 78, 64
2, 4893, Note_on_c, 0, 53, 64
2, 4906, Note_on_c, 0, 78, 0
2, 4908, Note_on_c, 0, 77, 64
2, 4919, Note_on_c, 0, 53, 0
2, 4921, Note_on_c, 0, 77, 0
2, 4923, Note_on_c, 0, 75, 64
2, 4923, Note_on_c, 0, 54, 64
2, 4949, Note_on_c, 0, 54, 0
2, 4953, Note_on_c, 0, 42, 64
2, 4979, Note_on_c, 0, 42, 0
2, 4983, Note_on_c, 0, 54, 64
2, 5001, Note_on_c, 0, 75, 0
2, 5009, Note_on_c, 0, 54, 0
2, 5013, Note_on_c, 0, 78, 64
2, 5013, Note_on_c, 0, 53, 64
2, 5039, Note_on_c, 0, 53, 0
2, 5039, Note_on_c, 0, 78, 0
2, 5043, Note_on_c, 0, 72, 64
2, 5043, Note_on_c, 0, 54, 64
2, 5043, Note_on_c, 0, 54, 64
2, 5116, Note_on_c, 0, 72, 0
2, 5118, Note_on_c, 0, 75, 64
2, 5131, Note_on_c, 0, 75, 0
2, 5133, Note_on_c, 0, 77, 64
2, 5146, Note_on_c, 0, 77, 0
2, 5148, Note_on_c, 0, 54, 0
2, 5148, Note_on_c, 0, 78, 64
2, 5161, Note_on_c, 0, 78, 0
2, 5163, Note_on_c, 0, 80, 64
2, 5236, Note_on_c, 0, 54, 0
2, 5238, Note_on_c, 0, 51, 64
2, 5241, Note_on_c, 0, 80, 0
2, 5251, Note_on_c, 0, 51, 0
2, 5253, Note_on_c, 0, 72, 64
2, 5253, Note_on_c, 0, 53, 64
2, 5266, Note_on_c, 0, 53, 0
2, 5268, Note_on_c, 0, 54, 64
2, 5279, Note_on_c, 0, 72, 0
2, 5281, Note_on_c, 0, 54, 0
2, 5283, Note_on_c, 0, 73, 64
2, 5283, Note_on_c, 0, 53, 64
2, 5356, Note_on_c, 0, 53, 0
2, 5358, Note_on_c, 0, 49, 64
2, 5361, Note_on_c, 0, 73, 0
2, 5371, Note_on_c, 0, 49, 0
2, 5373, Note_on_c, 0, 68, 64
2, 5373, Note_on_c, 0, 51, 64
2, 5386, Note_on_c, 0, 51, 0
2, 5388, Note_on_c, 0, 53, 64
2, 5399, Note_on_c, 0, 68, 0
2, 5401, Note_on_c, 0, 53, 0
2, 5403, Note_on_c, 0, 70, 64
2, 5403, Note_on_c, 0, 54, 64
2, 5476, Note_on_c, 0, 70, 0
2, 5478, Note_on_c, 0, 68, 64
2, 5481, Note_on_c, 0, 54, 0
2, 5491, Note_on_c, 0, 68, 0
2, 5493, Note_on_c, 0, 66, 64
2, 5493, Note_on_c, 0, 51, 64
2, 5506, Note_on_c, 0, 66, 0
2, 5508, Note_on_c, 0, 65, 64
2, 5519, Note_on_c, 0, 51, 0
2, 5521, Note_on_c, 0, 65, 0
2, 5523, Note_on_c, 0, 63, 64
2, 5523, Note_on_c, 0, 56, 64
2, 5596, Note_on_c, 0, 56, 0
2, 5598, Note_on_c, 0, 58, 64
2, 5601, Note_on_c, 0, 63, 0
2, 5611, Note_on_c, 0, 58, 0
2, 5613, Note_on_c, 0, 73, 64
2, 5613, Note_on_c, 0, 56, 64
2, 5626, Note_on_c, 0, 56, 0
2, 5628, Note_on_c, 0, 54, 64
2, 5639, Note_on_c, 0, 73, 0
2, 5641, Note_on_c, 0, 54, 0
2, 5643, Note_on_c, 0, 68, 64
2, 5643, Note_on_c, 0, 56, 64
2, 5721, Note_on_c, 0, 56, 0
2, 5721, Note_on_c, 0, 68, 0
2, 5733, Note_on_c, 0, 72, 64
2, 5733, Note_on_c, 0, 44, 64
2, 5759, Note_on_c, 0, 44, 0
2, 5759, Note_on_c, 0, 72, 0
2, 5763, Note_on_c, 0, 73, 64
2, 5763, Note_on_c, 0, 49, 64
2, 5789, Note_on_c, 0, 73, 0
2, 5793, Note_on_c, 0, 68, 64
2, 5819, Note_on_c, 0, 68, 0
2, 5823, Note_on_c, 0, 73, 64
2, 5836, Note_on_c, 0, 49, 0
2, 5838, Note_on_c, 0, 53, 64
2, 5849, Note_on_c, 0, 73, 0
2, 5851, Note_on_c, 0, 53, 0
2, 5853, Note_on_c, 0, 75, 64
2, 5853, Note_on_c, 0, 51, 64
2, 5866, Note_on_c, 0, 51, 0
2, 5868, Note_on_c, 0, 49, 64
2, 5879, Note_on_c, 0, 75, 0
2, 5881, Note_on_c, 0, 49, 0
2, 5883, Note_on_c, 0, 77, 64
2, 5883, Note_on_c, 0, 56, 64
2, 5909, Note_on_c, 0, 77, 0
2, 5913, Note_on_c, 0, 73, 64
2, 5939, Note_on_c, 0, 73, 0
2, 5943, Note_on_c, 0, 80, 64
2, 5969, Note_on_c, 0, 80, 0
2, 5973, Note_on_c, 0, 77, 64
2, 5999, Note_on_c, 0, 77, 0
2, 6003, Note_on_c, 0, 73, 64
2, 6029, Note_on_c, 0, 73, 0
2, 6033, Note_on_c, 0, 77, 64
2, 6048, Note_on_c, 0, 56, 0
2, 6059, Note_on_c, 0, 77, 0
2, 6063, Note_on_c, 0, 75, 64
2, 6089, Note_on_c, 0, 75, 0
2, 6093, Note_on_c, 0, 73, 64
2, 6093, Note_on_c, 0, 61, 64
2, 6119, Note_on_c, 0, 61, 0
2, 6119, Note_on_c, 0, 73, 0
2, 6123, Note_on_c, 0, 75, 64
2, 6123, Note_on_c, 0, 60, 64
2, 6149, Note_on_c, 0, 75, 0
2, 6153, Note_on_c, 0, 80, 64
2, 6179, Note_on_c, 0, 80, 0
2, 6183, Note_on_c, 0, 68, 64
2, 6201, Note_on_c, 0, 60, 0
2, 6209, Note_on_c, 0, 68, 0
2, 6213, Note_on_c, 0, 70, 64
2, 6213, Note_on_c, 0, 61, 64
2, 6226, Note_on_c, 0, 61, 0
2, 6228, Note_on_c, 0, 63, 64
2, 6239, Note_on_c, 0, 70, 0
2, 6241, Note_on_c, 0, 63, 0
2, 6243, Note_on_c, 0, 72, 64
2, 6243, Note_on_c, 0, 56, 64
2, 6269, Note_on_c, 0, 72, 0
2, 6273, Note_on_c, 0, 68, 64
2, 6299, Note_on_c, 0, 68, 0
2, 6303, Note_on_c, 0, 75, 64
2, 6329, Note_on_c, 0, 75, 0
2, 6333, Note_on_c, 0, 72, 64
2, 6359, Note_on_c, 0, 72, 0
2, 6363, Note_on_c, 0, 68, 64
2, 6389, Note_on_c, 0, 68, 0
2, 6389, Note_on_c, 0, 56, 0
2, 6393, Note_on_c, 0, 78, 64
2, 6393, Note_on_c, 0, 58, 64
2, 6419, Note_on_c, 0, 58, 0
2, 6419, Note_on_c, 0, 78, 0
2, 6423, Note_on_c, 0, 77, 64
2, 6423, Note_on_c, 0, 56, 64
2, 6449, Note_on_c, 0, 56, 0
2, 6449, Note_on_c, 0, 77, 0
2, 6453, Note_on_c, 0, 75, 64
2, 6453, Note_on_c, 0, 54, 64
2, 6479, Note_on_c, 0, 54, 0
2, 6479, Note_on_c, 0, 75, 0
2, 6483, Note_on_c, 0, 73, 64
2, 6483, Note_on_c, 0, 53, 64
2, 6509, Note_on_c, 0, 73, 0
2, 6513, Note_on_c, 0, 68, 64
2, 6539, Note_on_c, 0, 68, 0
2, 6543, Note_on_c, 0, 73, 64
2, 6561, Note_on_c, 0, 53, 0
2, 6569, Note_on_c, 0, 73, 0
2, 6573, Note_on_c, 0, 75, 64
2, 6573, Note_on_c, 0, 51, 64
2, 6586, Note_on_c, 0, 51, 0
2, 6588, Note_on_c, 0, 49, 64
2, 6599, Note_on_c, 0, 75, 0
2, 6601, Note_on_c, 0, 49, 0
2, 6603, Note_on_c, 0, 77, 64
2, 6603, Note_on_c, 0, 59, 64
2, 6629, Note_on_c, 0, 77, 0
2, 6633, Note_on_c, 0, 73, 64
2, 6659, Note_on_c, 0, 73, 0
2, 6663, Note_on_c, 0, 80, 64
2, 6681, Note_on_c, 0, 59, 0
2, 6689, Note_on_c, 0, 80, 0
2, 6693, Note_on_c, 0, 77, 64
2, 6693, Note_on_c, 0, 56, 64
2, 6719, Note_on_c, 0, 56, 0
2, 6719, Note_on_c, 0, 77, 0
2, 6723, Note_on_c, 0, 73, 64
2, 6723, Note_on_c, 0, 53, 64
2, 6749, Note_on_c, 0, 73, 0
2, 6753, Note_on_c, 0, 83, 64
2, 6779, Note_on_c, 0, 83, 0
2, 6783, Note_on_c, 0, 82, 64
2, 6801, Note_on_c, 0, 53, 0
2, 6809, Note_on_c, 0, 82, 0
2, 6813, Note_on_c, 0, 80, 64
2, 6813, Note_on_c, 0, 59, 64
2, 6839, Note_on_c, 0, 59, 0
2, 6839, Note_on_c, 0, 80, 0
2, 6843, Note_on_c, 0, 78, 64
2, 6843, Note_on_c, 0, 58, 64
2, 6869, Note_on_c, 0, 58, 0
2, 6873, Note_on_c, 0, 61, 64
2, 6899, Note_on_c, 0, 61, 0
2, 6903, Note_on_c, 0, 54, 64
2, 6916, Note_on_c, 0, 78, 0
2, 6918, Note_on_c, 0, 71, 64
2, 6929, Note_on_c, 0, 54, 0
2, 6931, Note_on_c, 0, 71, 0
2, 6933, Note_on_c, 0, 70, 64
2, 6933, Note_on_c, 0, 56, 64
2, 6946, Note_on_c, 0, 70, 0
2, 6948, Note_on_c, 0, 68, 64
2, 6959, Note_on_c, 0, 56, 0
2, 6961, Note_on_c, 0, 68, 0
2, 6963, Note_on_c, 0, 66, 64
2, 6963, Note_on_c, 0, 58, 64
2, 6989, Note_on_c, 0, 58, 0
2, 6993, Note_on_c, 0, 54, 64
2, 7019, Note_on_c, 0, 54, 0
2, 7023, Note_on_c, 0, 61, 64
2, 7049, Note_on_c, 0, 61, 0
2, 7053, Note_on_c, 0, 58, 64
2, 7079, Note_on_c, 0, 58, 0
2, 7083, Note_on_c, 0, 54, 64
2, 7109, Note_on_c, 0, 54, 0
2, 7113, Note_on_c, 0, 58, 64
2, 7128, Note_on_c, 0, 66, 0
2, 7139, Note_on_c, 0, 58, 0
2, 7143, Note_on_c, 0, 56, 64
2, 7169, Note_on_c, 0, 56, 0
2, 7173, Note_on_c, 0, 78, 64
2, 7173, Note_on_c, 0, 54, 64
2, 7199, Note_on_c, 0, 54, 0
2, 7199, Note_on_c, 0, 78, 0
2, 7203, Note_on_c, 0, 77, 64
2, 7203, Note_on_c, 0, 56, 64
2, 7229, Note_on_c, 0, 56, 0
2, 7233, Note_on_c, 0, 61, 64
2, 7259, Note_on_c, 0, 61, 0
2, 7263, Note_on_c, 0, 49, 64
2, 7281, Note_on_c, 0, 77, 0
2, 7289, Note_on_c, 0, 49, 0
2, 7293, Note_on_c, 0, 78, 64
2, 7293, Note_on_c, 0, 51, 64
2, 7306, Note_on_c, 0, 78, 0
2, 7308, Note_on_c, 0, 80, 64
2, 7319, Note_on_c, 0, 51, 0
2, 7321, Note_on_c, 0, 80, 0
2, 7323, Note_on_c, 0, 73, 64
2, 7323, Note_on_c, 0, 53, 64
2, 7349, Note_on_c, 0, 53, 0
2, 7353, Note_on_c, 0, 49, 64
2, 7379, Note_on_c, 0, 49, 0
2, 7383, Note_on_c, 0, 56, 64
2, 7409, Note_on_c, 0, 56, 0
2, 7413, Note_on_c, 0, 53, 64
2, 7439, Note_on_c, 0, 53, 0
2, 7443, Note_on_c, 0, 49, 64
2, 7469, Note_on_c, 0, 49, 0
2, 7469, Note_on_c, 0, 73, 0
2, 7473, Note_on_c, 0, 75, 64
2, 7473, Note_on_c, 0, 59, 64
2, 7499, Note_on_c, 0, 59, 0
2, 7499, Note_on_c, 0, 75, 0
2, 7503, Note_on_c, 0, 73, 64
2, 7503, Note_on_c, 0, 58, 64
2, 7529, Note_on_c, 0, 58, 0
2, 7529, Note_on_c, 0, 73, 0
2, 7533, Note_on_c, 0, 71, 64
2, 7533, Note_on_c, 0, 56, 64
2, 7559, Note_on_c, 0, 56, 0
2, 7559, Note_on_c, 0, 71, 0
2, 7563, Note_on_c, 0, 70, 64
2, 7563, Note_on_c, 0, 54, 64
2, 7589, Note_on_c, 0, 54, 0
2, 7593, Note_on_c, 0, 49, 64
2, 7619, Note_on_c, 0, 49, 0
2, 7623, Note_on_c, 0, 54, 64
2, 7641, Note_on_c, 0, 70, 0
2, 7649, Note_on_c, 0, 54, 0
2, 7653, Note_on_c, 0, 68, 64
2, 7653, Note_on_c, 0, 56, 64
2, 7666, Note_on_c, 0, 68, 0
2, 7668, Note_on_c, 0, 66, 64
2, 7679, Note_on_c, 0, 56, 0
2, 7681, Note_on_c, 0, 66, 0
2, 7683, Note_on_c, 0, 76, 64
2, 7683, Note_on_c, 0, 58, 64
2, 7709, Note_on_c, 0, 58, 0
2, 7713, Note_on_c, 0, 54, 64
2, 7739, Note_on_c, 0, 54, 0
2, 7743, Note_on_c, 0, 61, 64
2, 7761, Note_on_c, 0, 76, 0
2, 7769, Note_on_c, 0, 61, 0
2, 7773, Note_on_c, 0, 73, 64
2, 7773, Note_on_c, 0, 58, 64
2, 7799, Note_on_c, 0, 58, 0
2, 7799, Note_on_c, 0, 73, 0
2, 7803, Note_on_c, 0, 70, 64
2, 7803, Note_on_c, 0, 54, 64
2, 7829, Note_on_c, 0, 54, 0
2, 7833, Note_on_c, 0, 64, 64
2, 7859, Note_on_c, 0, 64, 0
2, 7863, Note_on_c, 0, 63, 64
2, 7881, Note_on_c, 0, 70, 0
2, 7889, Note_on_c, 0, 63, 0
2, 7893, Note_on_c, 0, 76, 64
2, 7893, Note_on_c, 0, 61, 64
2, 7919, Note_on_c, 0, 61, 0
2, 7919, Note_on_c, 0, 76, 0
2, 7923, Note_on_c, 0, 75, 64
2, 7923, Note_on_c, 0, 59, 64
2, 7949, Note_on_c, 0, 75, 0
2, 7953, Note_on_c, 0, 78, 64
2, 7979, Note_on_c, 0, 78, 0
2, 7983, Note_on_c, 0, 71, 64
2, 8001, Note_on_c, 0, 59, 0
2, 8009, Note_on_c, 0, 71, 0
2, 8013, Note_on_c, 0, 73, 64
2, 8013, Note_on_c, 0, 54, 64
2, 8039, Note_on_c, 0, 54, 0
2, 8039, Note_on_c, 0, 73, 0
2, 8043, Note_on_c, 0, 75, 64
2, 8043, Note_on_c, 0, 54, 64
2, 8069, Note_on_c, 0, 75, 0
2, 8073, Note_on_c, 0, 71, 64
2, 8099, Note_on_c, 0, 71, 0
2, 8103, Note_on_c, 0, 78, 64
2, 8121, Note_on_c, 0, 54, 0
2, 8129, Note_on_c, 0, 78, 0
2, 8133, Note_on_c, 0, 75, 64
2, 8133, Note_on_c, 0, 59, 64
2, 8159, Note_on_c, 0, 59, 0
2, 8159, Note_on_c, 0, 75, 0
2, 8163, Note_on_c, 0, 71, 64
2, 8163, Note_on_c, 0, 63, 64
2, 8189, Note_on_c, 0, 71, 0
2, 8193, Note_on_c, 0, 75, 64
2, 8219, Note_on_c, 0, 75, 0
2, 8223, Note_on_c, 0, 73, 64
2, 8241, Note_on_c, 0, 63, 0
2, 8249, Note_on_c, 0, 73, 0
2, 8253, Note_on_c, 0, 71, 64
2, 8253, Note_on_c, 0, 54, 64
2, 8279, Note_on_c, 0, 54, 0
2, 8279, Note_on_c, 0, 71, 0
2, 8283, Note_on_c, 0, 73, 64
2, 8283, Note_on_c, 0, 58, 64
2, 8309, Note_on_c, 0, 73, 0
2, 8313, Note_on_c, 0, 78, 64
2, 8339, Note_on_c, 0, 78, 0
2, 8343, Note_on_c, 0, 70, 64
2, 8361, Note_on_c, 0, 58, 0
2, 8369, Note_on_c, 0, 70, 0
2, 8373, Note_on_c, 0, 71, 64
2, 8373, Note_on_c, 0, 54, 64
2, 8399, Note_on_c, 0, 54, 0
2, 8399, Note_on_c, 0, 71, 0
2, 8403, Note_on_c, 0, 73, 64
2, 8403, Note_on_c, 0, 54, 64
2, 8429, Note_on_c, 0, 73, 0
2, 8433, Note_on_c, 0, 70, 64
2, 8459, Note_on_c, 0, 70, 0
2, 8463, Note_on_c, 0, 78, 64
2, 8481, Note_on_c, 0, 54, 0
2, 8489, Note_on_c, 0, 78, 0
2, 8493, Note_on_c, 0, 73, 64
2, 8493, Note_on_c, 0, 58, 64
2, 8519, Note_on_c, 0, 58, 0
2, 8519, Note_on_c, 0, 73, 0
2, 8523, Note_on_c, 0, 70, 64
2, 8523, Note_on_c, 0, 61, 64
2, 8549, Note_on_c, 0, 70, 0
2, 8553, Note_on_c, 0, 73, 64
2, 8579, Note_on_c, 0, 73, 0
2, 8583, Note_on_c, 0, 71, 64
2, 8601, Note_on_c, 0, 61, 0
2, 8609, Note_on_c, 0, 71, 0
2, 8613, Note_on_c, 0, 70, 64
2, 8613, Note_on_c, 0, 54, 64
2, 8639, Note_on_c, 0, 54, 0
2, 8639, Note_on_c, 0, 70, 0
2, 8643, Note_on_c, 0, 71, 64
2, 8643, Note_on_c, 0, 56, 64
2, 8669, Note_on_c, 0, 71, 0
2, 8673, Note_on_c, 0, 75, 64
2, 8699, Note_on_c, 0, 75, 0
2, 8703, Note_on_c, 0, 68, 64
2, 8721, Note_on_c, 0, 56, 0
2, 8729, Note_on_c, 0, 68, 0
2, 8733, Note_on_c, 0, 70, 64
2, 8733, Note_on_c, 0, 54, 64
2, 8759, Note_on_c, 0, 54, 0
2, 8759, Note_on_c, 0, 70, 0
2, 8763, Note_on_c, 0, 71, 64
2, 8763, Note_on_c, 0, 54, 64
2, 8789, Note_on_c, 0, 71, 0
2, 8793, Note_on_c, 0, 68, 64
2, 8819, Note_on_c, 0, 68, 0
2, 8823, Note_on_c, 0, 75, 64
2, 8841, Note_on_c, 0, 54, 0
2, 8849, Note_on_c, 0, 75, 0
2, 8853, Note_on_c, 0, 71, 64
2, 8853, Note_on_c, 0, 56, 64
2, 8879, Note_on_c, 0, 56, 0
2, 8879, Note_on_c, 0, 71, 0
2, 8883, Note_on_c, 0, 68, 64
2, 8883, Note_on_c, 0, 59, 64
2, 8909, Note_on_c, 0, 68, 0
2, 8913, Note_on_c, 0, 71, 64
2, 8939, Note_on_c, 0, 71, 0
2, 8943, Note_on_c, 0, 70, 64
2, 8961, Note_on_c, 0, 59, 0
2, 8969, Note_on_c, 0, 70, 0
2, 8973, Note_on_c, 0, 68, 64
2, 8973, Note_on_c, 0, 53, 64
2, 8999, Note_on_c, 0, 53, 0
2, 8999, Note_on_c, 0, 68, 0
2, 9003, Note_on_c, 0, 70, 64
2, 9003, Note_on_c, 0, 54, 64
2, 9029, Note_on_c, 0, 54, 0
2, 9033, Note_on_c, 0, 61, 64
2, 9059, Note_on_c, 0, 61, 0
2, 9063, Note_on_c, 0, 54, 64
2, 9081, Note_on_c, 0, 70, 0
2, 9089, Note_on_c, 0, 54, 0
2, 9093, Note_on_c, 0, 73, 64
2, 9093, Note_on_c, 0, 56, 64
2, 9119, Note_on_c, 0, 56, 0
2, 9119, Note_on_c, 0, 73, 0
2, 9123, Note_on_c, 0, 73, 64
2, 9123, Note_on_c, 0, 58, 64
2, 9149, Note_on_c, 0, 58, 0
2, 9153, Note_on_c, 0, 54, 64
2, 9179, Note_on_c, 0, 54, 0
2, 9183, Note_on_c, 0, 61, 64
2, 9201, Note_on_c, 0, 73, 0
2, 9209, Note_on_c, 0, 61, 0
2, 9213, Note_on_c, 0, 72, 64
2, 9213, Note_on_c, 0, 58, 64
2, 9226, Note_on_c, 0, 72, 0
2, 9228, Note_on_c, 0, 73, 64
2, 9239, Note_on_c, 0, 58, 0
2, 9241, Note_on_c, 0, 73, 0
2, 9243, Note_on_c, 0, 73, 64
2, 9243, Note_on_c, 0, 54, 64
2, 9269, Note_on_c, 0, 54, 0
2, 9273, Note_on_c, 0, 58, 64
2, 9299, Note_on_c, 0, 58, 0
2, 9303, Note_on_c, 0, 56, 64
2, 9321, Note_on_c, 0, 73, 0
2, 9329, Note_on_c, 0, 56, 0
2, 9333, Note_on_c, 0, 72, 64
2, 9333, Note_on_c, 0, 54, 64
2, 9346, Note_on_c, 0, 72, 0
2, 9348, Note_on_c, 0, 73, 64
2, 9359, Note_on_c, 0, 54, 0
2, 9361, Note_on_c, 0, 73, 0
2, 9363, Note_on_c, 0, 68, 64
2, 9363, Note_on_c, 0, 53, 64
2, 9389, Note_on_c, 0, 53, 0
2, 9393, Note_on_c, 0, 61, 64
2, 9419, Note_on_c, 0, 61, 0
2, 9423, Note_on_c, 0, 53, 64
2, 9441, Note_on_c, 0, 68, 0
2, 9449, Note_on_c, 0, 53, 0
2, 9453, Note_on_c, 0, 73, 64
2, 9453, Note_on_c, 0, 54, 64
2, 9479, Note_on_c, 0, 54, 0
2, 9479, Note_on_c, 0, 73, 0
2, 9483, Note_on_c, 0, 73, 64
2, 9483, Note_on_c, 0, 56, 64
2, 9509, Note_on_c, 0, 56, 0
2, 9513, Note_on_c, 0, 53, 64
2, 9539, Note_on_c, 0, 53, 0
2, 9543, Note_on_c, 0, 61, 64
2, 9561, Note_on_c, 0, 73, 0
2, 9569, Note_on_c, 0, 61, 0
2, 9573, Note_on_c, 0, 72, 64
2, 9573, Note_on_c, 0, 56, 64
2, 9586, Note_on_c, 0, 72, 0
2, 9588, Note_on_c, 0, 73, 64
2, 9599, Note_on_c, 0, 56, 0
2, 9601, Note_on_c, 0, 73, 0
2, 9603, Note_on_c, 0, 73, 64
2, 9603, Note_on_c, 0, 53, 64
2, 9629, Note_on_c, 0, 53, 0
2, 9633, Note_on_c, 0, 56, 64
2, 9659, Note_on_c, 0, 56, 0
2, 9663, Note_on_c, 0, 54, 64
2, 9681, Note_on_c, 0, 73, 0
2, 9689, Note_on_c, 0, 54, 0
2, 9693, Note_on_c, 0, 72, 64
2, 9693, Note_on_c, 0, 53, 64
2, 9706, Note_on_c, 0, 72, 0
2, 9708, Note_on_c, 0, 73, 64
2, 9719, Note_on_c, 0, 53, 0
2, 9721, Note_on_c, 0, 73, 0
2, 9723, Note_on_c, 0, 66, 64
2, 9723, Note_on_c, 0, 51, 64
2, 9749, Note_on_c, 0, 51, 0
2, 9753, Note_on_c, 0, 61, 64
2, 9779, Note_on_c, 0, 61, 0
2, 9783, Note_on_c, 0, 51, 64
2, 9801, Note_on_c, 0, 66, 0
2, 9809, Note_on_c, 0, 51, 0
2, 9813, Note_on_c, 0, 73, 64
2, 9813, Note_on_c, 0, 53, 64
2, 9839, Note_on_c, 0, 53, 0
2, 9839, Note_on_c, 0, 73, 0
2, 9843, Note_on_c, 0, 82, 64
2, 9843, Note_on_c, 0, 54, 64
2, 9869, Note_on_c, 0, 54, 0
2, 9873, Note_on_c, 0, 51, 64
2, 9899, Note_on_c, 0, 51, 0
2, 9903, Note_on_c, 0, 61, 64
2, 9921, Note_on_c, 0, 82, 0
2, 9929, Note_on_c, 0, 61, 0
2, 9933, Note_on_c, 0, 73, 64
2, 9933, Note_on_c, 0, 54, 64
2, 9959, Note_on_c, 0, 54, 0
2, 9959, Note_on_c, 0, 73, 0
2, 9963, Note_on_c, 0, 72, 64
2, 9963, Note_on_c, 0, 51, 64
2, 9989, Note_on_c, 0, 51, 0
2, 9993, Note_on_c, 0, 54, 64
2, 10019, Note_on_c, 0, 54, 0
2, 10023, Note_on_c, 0, 53, 64
2, 10041, Note_on_c, 0, 72, 0
2, 10049, Note_on_c, 0, 53, 0
2, 10053, Note_on_c, 0, 73, 64
2, 10053, Note_on_c, 0, 51, 64
2, 10079, Note_on_c, 0, 51, 0
2, 10079, Note_on_c, 0, 73, 0
2, 10083, Note_on_c, 0, 73, 64
2, 10083, Note_on_c, 0, 49, 64
2, 10109, Note_on_c, 0, 49, 0
2, 10113, Note_on_c, 0, 61, 64
2, 10139, Note_on_c, 0, 61, 0
2, 10143, Note_on_c, 0, 49, 64
2, 10169, Note_on_c, 0, 49, 0
2, 10173, Note_on_c, 0, 51, 64
2, 10199, Note_on_c, 0, 51, 0
2, 10203, Note_on_c, 0, 53, 64
2, 10229, Note_on_c, 0, 53, 0
2, 10233, Note_on_c, 0, 49, 64
2, 10248, Note_on_c, 0, 73, 0
2, 10259, Note_on_c, 0, 49, 0
2, 10263, Note_on_c, 0, 56, 64
2, 10278, Note_on_c, 0, 73, 64
2, 10289, Note_on_c, 0, 56, 0
2, 10291, Note_on_c, 0, 73, 0
2, 10293, Note_on_c, 0, 75, 64
2, 10293, Note_on_c, 0, 53, 64
2, 10306, Note_on_c, 0, 75, 0
2, 10308, Note_on_c, 0, 77, 64
2, 10319, Note_on_c, 0, 53, 0
2, 10321, Note_on_c, 0, 77, 0
2, 10323, Note_on_c, 0, 77, 64
2, 10323, Note_on_c, 0, 47, 64
2, 10349, Note_on_c, 0, 47, 0
2, 10353, Note_on_c, 0, 51, 64
2, 10379, Note_on_c, 0, 51, 0
2, 10383, Note_on_c, 0, 49, 64
2, 10401, Note_on_c, 0, 77, 0
2, 10409, Note_on_c, 0, 49, 0
2, 10413, Note_on_c, 0, 75, 64
2, 10413, Note_on_c, 0, 47, 64
2, 10426, Note_on_c, 0, 75, 0
2, 10428, Note_on_c, 0, 77, 64
2, 10439, Note_on_c, 0, 47, 0
2, 10441, Note_on_c, 0, 77, 0
2, 10443, Note_on_c, 0, 78, 64
2, 10443, Note_on_c, 0, 46, 64
2, 10469, Note_on_c, 0, 78, 0
2, 10473, Note_on_c, 0, 73, 64
2, 10499, Note_on_c, 0, 73, 0
2, 10503, Note_on_c, 0, 66, 64
2, 10529, Note_on_c, 0, 66, 0
2, 10533, Note_on_c, 0, 68, 64
2, 10559, Note_on_c, 0, 68, 0
2, 10563, Note_on_c, 0, 70, 64
2, 10589, Note_on_c, 0, 70, 0
2, 10593, Note_on_c, 0, 66, 64
2, 10608, Note_on_c, 0, 46, 0
2, 10619, Note_on_c, 0, 66, 0
2, 10623, Note_on_c, 0, 73, 64
2, 10638, Note_on_c, 0, 54, 64
2, 10649, Note_on_c, 0, 73, 0
2, 10651, Note_on_c, 0, 54, 0
2, 10653, Note_on_c, 0, 70, 64
2, 10653, Note_on_c, 0, 56, 64
2, 10666, Note_on_c, 0, 56, 0
2, 10668, Note_on_c, 0, 58, 64
2, 10679, Note_on_c, 0, 70, 0
2, 10683, Note_on_c, 0, 64, 64
2, 10709, Note_on_c, 0, 64, 0
2, 10713, Note_on_c, 0, 68, 64
2, 10739, Note_on_c, 0, 68, 0
2, 10743, Note_on_c, 0, 66, 64
2, 10761, Note_on_c, 0, 58, 0
2, 10769, Note_on_c, 0, 66, 0
2, 10773, Note_on_c, 0, 64, 64
2, 10773, Note_on_c, 0, 56, 64
2, 10786, Note_on_c, 0, 56, 0
2, 10788, Note_on_c, 0, 58, 64
2, 10799, Note_on_c, 0, 64, 0
2, 10801, Note_on_c, 0, 58, 0
2, 10803, Note_on_c, 0, 63, 64
2, 10803, Note_on_c, 0, 59, 64
2, 10829, Note_on_c, 0, 59, 0
2, 10833, Note_on_c, 0, 54, 64
2, 10859, Note_on_c, 0, 54, 0
2, 10863, Note_on_c, 0, 47, 64
2, 10889, Note_on_c, 0, 47, 0
2, 10893, Note_on_c, 0, 49, 64
2, 10919, Note_on_c, 0, 49, 0
2, 10923, Note_on_c, 0, 51, 64
2, 10949, Note_on_c, 0, 51, 0
2, 10953, Note_on_c, 0, 47, 64
2, 10968, Note_on_c, 0, 63, 0
2, 10979, Note_on_c, 0, 47, 0
2, 10983, Note_on_c, 0, 54, 64
2, 10998, Note_on_c, 0, 75, 64
2, 11009, Note_on_c, 0, 54, 0
2, 11011, Note_on_c, 0, 75, 0
2, 11013, Note_on_c, 0, 74, 64
2, 11013, Note_on_c, 0, 51, 64
2, 11026, Note_on_c, 0, 74, 0
2, 11028, Note_on_c, 0, 75, 64
2, 11039, Note_on_c, 0, 51, 0
2, 11041, Note_on_c, 0, 75, 0
2, 11043, Note_on_c, 0, 75, 64
2, 11043, Note_on_c, 0, 46, 64
2, 11069, Note_on_c, 0, 46, 0
2, 11073, Note_on_c, 0, 49, 64
2, 11099, Note_on_c, 0, 49, 0
2, 11103, Note_on_c, 0, 47, 64
2, 11121, Note_on_c, 0, 75, 0
2, 11129, Note_on_c, 0, 47, 0
2, 11133, Note_on_c, 0, 74, 64
2, 11133, Note_on_c, 0, 46, 64
2, 11146, Note_on_c, 0, 74, 0
2, 11148, Note_on_c, 0, 75, 64
2, 11159, Note_on_c, 0, 46, 0
2, 11161, Note_on_c, 0, 75, 0
2, 11163, Note_on_c, 0, 77, 64
2, 11163, Note_on_c, 0, 44, 64
2, 11189, Note_on_c, 0, 77, 0
2, 11193, Note_on_c, 0, 71, 64
2, 11219, Note_on_c, 0, 71, 0
2, 11223, Note_on_c, 0, 65, 64
2, 11249, Note_on_c, 0, 65, 0
2, 11253, Note_on_c, 0, 66, 64
2, 11279, Note_on_c, 0, 66, 0
2, 11283, Note_on_c, 0, 68, 64
2, 11309, Note_on_c, 0, 68, 0
2, 11313, Note_on_c, 0, 65, 64
2, 11328, Note_on_c, 0, 44, 0
2, 11339, Note_on_c, 0, 65, 0
2, 11343, Note_on_c, 0, 71, 64
2, 11358, Note_on_c, 0, 56, 64
2, 11369, Note_on_c, 0, 71, 0
2, 11371, Note_on_c, 0, 56, 0
2, 11373, Note_on_c, 0, 68, 64
2, 11373, Note_on_c, 0, 55, 64
2, 11386, Note_on_c, 0, 55, 0
2, 11388, Note_on_c, 0, 56, 64
2, 11399, Note_on_c, 0, 68, 0
2, 11401, Note_on_c, 0, 56, 0
2, 11403, Note_on_c, 0, 63, 64
2, 11403, Note_on_c, 0, 57, 64
2, 11429, Note_on_c, 0, 63, 0
2, 11433, Note_on_c, 0, 66, 64
2, 11459, Note_on_c, 0, 66, 0
2, 11463, Note_on_c, 0, 65, 64
2, 11481, Note_on_c, 0, 57, 0
2, 11489, Note_on_c, 0, 65, 0
2, 11493, Note_on_c, 0, 63, 64
2, 11493, Note_on_c, 0, 55, 64
2, 11506, Note_on_c, 0, 55, 0
2, 11508, Note_on_c, 0, 57, 64
2, 11519, Note_on_c, 0, 63, 0
2, 11521, Note_on_c, 0, 57, 0
2, 11523, Note_on_c, 0, 62, 64
2, 11523, Note_on_c, 0, 58, 64
2, 11549, Note_on_c, 0, 58, 0
2, 11553, Note_on_c, 0, 53, 64
2, 11579, Note_on_c, 0, 53, 0
2, 11583, Note_on_c, 0, 46, 64
2, 11601, Note_on_c, 0, 62, 0
2, 11609, Note_on_c, 0, 46, 0
2, 11613, Note_on_c, 0, 63, 64
2, 11613, Note_on_c, 0, 48, 64
2, 11626, Note_on_c, 0, 63, 0
2, 11628, Note_on_c, 0, 65, 64
2, 11639, Note_on_c, 0, 48, 0
2, 11641, Note_on_c, 0, 65, 0
2, 11643, Note_on_c, 0, 58, 64
2, 11643, Note_on_c, 0, 50, 64
2, 11669, Note_on_c, 0, 50, 0
2, 11673, Note_on_c, 0, 46, 64
2, 11699, Note_on_c, 0, 46, 0
2, 11703, Note_on_c, 0, 53, 64
2, 11729, Note_on_c, 0, 53, 0
2, 11733, Note_on_c, 0, 50, 64
2, 11759, Note_on_c, 0, 50, 0
2, 11763, Note_on_c, 0, 44, 64
2, 11789, Note_on_c, 0, 44, 0
2, 11789, Note_on_c, 0, 58, 0
2, 11793, Note_on_c, 0, 68, 64
2, 11793, Note_on_c, 0, 47, 64
2, 11819, Note_on_c, 0, 47, 0
2, 11819, Note_on_c, 0, 68, 0
2, 11823, Note_on_c, 0, 66, 64
2, 11823, Note_on_c, 0, 46, 64
2, 11849, Note_on_c, 0, 46, 0
2, 11849, Note_on_c, 0, 66, 0
2, 11853, Note_on_c, 0, 65, 64
2, 11853, Note_on_c, 0, 44, 64
2, 11879, Note_on_c, 0, 44, 0
2, 11879, Note_on_c, 0, 65, 0
2, 11883, Note_on_c, 0, 63, 64
2, 11883, Note_on_c, 0, 42, 64
2, 11909, Note_on_c, 0, 63, 0
2, 11913, Note_on_c, 0, 66, 64
2, 11939, Note_on_c, 0, 66, 0
2, 11943, Note_on_c, 0, 70, 64
2, 11961, Note_on_c, 0, 42, 0
2, 11969, Note_on_c, 0, 70, 0
2, 11973, Note_on_c, 0, 66, 64
2, 11973, Note_on_c, 0, 58, 64
2, 11999, Note_on_c, 0, 58, 0
2, 11999, Note_on_c, 0, 66, 0
2, 12003, Note_on_c, 0, 75, 64
2, 12003, Note_on_c, 0, 58, 64
2, 12029, Note_on_c, 0, 75, 0
2, 12033, Note_on_c, 0, 70, 64
2, 12059, Note_on_c, 0, 70, 0
2, 12063, Note_on_c, 0, 78, 64
2, 12081, Note_on_c, 0, 58, 0
2, 12089, Note_on_c, 0, 78, 0
2, 12093, Note_on_c, 0, 75, 64
2, 12093, Note_on_c, 0, 54, 64
2, 12119, Note_on_c, 0, 54, 0
2, 12119, Note_on_c, 0, 75, 0
2, 12123, Note_on_c, 0, 70, 64
2, 12123, Note_on_c, 0, 54, 64
2, 12149, Note_on_c, 0, 70, 0
2, 12153, Note_on_c, 0, 75, 64
2, 12179, Note_on_c, 0, 75, 0
2, 12183, Note_on_c, 0, 74, 64
2, 12201, Note_on_c, 0, 54, 0
2, 12209, Note_on_c, 0, 74, 0
2, 12213, Note_on_c, 0, 72, 64
2, 12213, Note_on_c, 0, 51, 64
2, 12239, Note_on_c, 0, 51, 0
2, 12239, Note_on_c, 0, 72, 0
2, 12243, Note_on_c, 0, 74, 64
2, 12243, Note_on_c, 0, 41, 64
2, 12269, Note_on_c, 0, 74, 0
2, 12273, Note_on_c, 0, 77, 64
2, 12299, Note_on_c, 0, 77, 0
2, 12303, Note_on_c, 0, 70, 64
2, 12321, Note_on_c, 0, 41, 0
2, 12329, Note_on_c, 0, 70, 0
2, 12333, Note_on_c, 0, 72, 64
2, 12333, Note_on_c, 0, 58, 64
2, 12359, Note_on_c, 0, 58, 0
2, 12359, Note_on_c, 0, 72, 0
2, 12363, Note_on_c, 0, 74, 64
2, 12363, Note_on_c, 0, 58, 64
2, 12389, Note_on_c, 0, 74, 0
2, 12393, Note_on_c, 0, 70, 64
2, 12419, Note_on_c, 0, 70, 0
2, 12423, Note_on_c, 0, 80, 64
2, 12441, Note_on_c, 0, 58, 0
2, 12449, Note_on_c, 0, 80, 0
2, 12453, Note_on_c, 0, 77, 64
2, 12453, Note_on_c, 0, 53, 64
2, 12479, Note_on_c, 0, 53, 0
2, 12479, Note_on_c, 0, 77, 0
2, 12483, Note_on_c, 0, 74, 64
2, 12483, Note_on_c, 0, 53, 64
2, 12509, Note_on_c, 0, 74, 0
2, 12513, Note_on_c, 0, 83, 64
2, 12539, Note_on_c, 0, 83, 0
2, 12543, Note_on_c, 0, 82, 64
2, 12561, Note_on_c, 0, 53, 0
2, 12569, Note_on_c, 0, 82, 0
2, 12573, Note_on_c, 0, 80, 64
2, 12573, Note_on_c, 0, 50, 64
2, 12599, Note_on_c, 0, 50, 0
2, 12599, Note_on_c, 0, 80, 0
2, 12603, Note_on_c, 0, 78, 64
2, 12603, Note_on_c, 0, 39, 64
2, 12629, Note_on_c, 0, 78, 0
2, 12633, Note_on_c, 0, 82, 64
2, 12659, Note_on_c, 0, 82, 0
2, 12663, Note_on_c, 0, 75, 64
2, 12681, Note_on_c, 0, 39, 0
2, 12689, Note_on_c, 0, 75, 0
2, 12693, Note_on_c, 0, 77, 64
2, 12693, Note_on_c, 0, 58, 64
2, 12719, Note_on_c, 0, 58, 0
2, 12719, Note_on_c, 0, 77, 0
2, 12723, Note_on_c, 0, 78, 64
2, 12723, Note_on_c, 0, 58, 64
2, 12749, Note_on_c, 0, 78, 0
2, 12753, Note_on_c, 0, 75, 64
2, 12779, Note_on_c, 0, 75, 0
2, 12783, Note_on_c, 0, 82, 64
2, 12801, Note_on_c, 0, 58, 0
2, 12809, Note_on_c, 0, 82, 0
2, 12813, Note_on_c, 0, 78, 64
2, 12813, Note_on_c, 0, 51, 64
2, 12839, Note_on_c, 0, 51, 0
2, 12839, Note_on_c, 0, 78, 0
2, 12843, Note_on_c, 0, 75, 64
2, 12843, Note_on_c, 0, 51, 64
2, 12869, Note_on_c, 0, 75, 0
2, 12873, Note_on_c, 0, 78, 64
2, 12899, Note_on_c, 0, 78, 0
2, 12903, Note_on_c, 0, 77, 64
2, 12921, Note_on_c, 0, 51, 0
2, 12929, Note_on_c, 0, 77, 0
2, 12933, Note_on_c, 0, 75, 64
2, 12933, Note_on_c, 0, 48, 64
2, 12959, Note_on_c, 0, 48, 0
2, 12959, Note_on_c, 0, 75, 0
2, 12963, Note_on_c, 0, 77, 64
2, 12963, Note_on_c, 0, 38, 64
2, 12989, Note_on_c, 0, 77, 0
2, 12993, Note_on_c, 0, 82, 64
2, 13019, Note_on_c, 0, 82, 0
2, 13023, Note_on_c, 0, 70, 64
2, 13041, Note_on_c, 0, 38, 0
2, 13049, Note_on_c, 0, 70, 0
2, 13053, Note_on_c, 0, 72, 64
2, 13053, Note_on_c, 0, 58, 64
2, 13079, Note_on_c, 0, 58, 0
2, 13079, Note_on_c, 0, 72, 0
2, 13083, Note_on_c, 0, 74, 64
2, 13083, Note_on_c, 0, 58, 64
2, 13109, Note_on_c, 0, 74, 0
2, 13113, Note_on_c, 0, 70, 64
2, 13139, Note_on_c, 0, 70, 0
2, 13143, Note_on_c, 0, 77, 64
2, 13161, Note_on_c, 0, 58, 0
2, 13169, Note_on_c, 0, 77, 0
2, 13173, Note_on_c, 0, 74, 64
2, 13173, Note_on_c, 0, 50, 64
2, 13199, Note_on_c, 0, 50, 0
2, 13199, Note_on_c, 0, 74, 0
2, 13203, Note_on_c, 0, 70, 64
2, 13203, Note_on_c, 0, 50, 64
2, 13229, Note_on_c, 0, 70, 0
2, 13233, Note_on_c, 0, 80, 64
2, 13259, Note_on_c, 0, 80, 0
2, 13263, Note_on_c, 0, 78, 64
2, 13281, Note_on_c, 0, 50, 0
2, 13289, Note_on_c, 0, 78, 0
2, 13293, Note_on_c, 0, 77, 64
2, 13293, Note_on_c, 0, 46, 64
2, 13319, Note_on_c, 0, 46, 0
2, 13319, Note_on_c, 0, 77, 0
2, 13323, Note_on_c, 0, 78, 64
2, 13323, Note_on_c, 0, 51, 64
2, 13349, Note_on_c, 0, 51, 0
2, 13353, Note_on_c, 0, 58, 64
2, 13379, Note_on_c, 0, 58, 0
2, 13383, Note_on_c, 0, 51, 64
2, 13401, Note_on_c, 0, 78, 0
2, 13409, Note_on_c, 0, 51, 0
2, 13413, Note_on_c, 0, 74, 64
2, 13413, Note_on_c, 0, 53, 64
2, 13439, Note_on_c, 0, 53, 0
2, 13439, Note_on_c, 0, 74, 0
2, 13443, Note_on_c, 0, 75, 64
2, 13443, Note_on_c, 0, 54, 64
2, 13469, Note_on_c, 0, 54, 0
2, 13473, Note_on_c, 0, 51, 64
2, 13499, Note_on_c, 0, 51, 0
2, 13503, Note_on_c, 0, 58, 64
2, 13516, Note_on_c, 0, 75, 0
2, 13518, Note_on_c, 0, 66, 64
2, 13529, Note_on_c, 0, 58, 0
2, 13531, Note_on_c, 0, 66, 0
2, 13533, Note_on_c, 0, 65, 64
2, 13533, Note_on_c, 0, 54, 64
2, 13546, Note_on_c, 0, 65, 0
2, 13548, Note_on_c, 0, 63, 64
2, 13559, Note_on_c, 0, 54, 0
2, 13561, Note_on_c, 0, 63, 0
2, 13563, Note_on_c, 0, 69, 64
2, 13563, Note_on_c, 0, 51, 64
2, 13589, Note_on_c, 0, 51, 0
2, 13593, Note_on_c, 0, 54, 64
2, 13619, Note_on_c, 0, 54, 0
2, 13623, Note_on_c, 0, 53, 64
2, 13641, Note_on_c, 0, 69, 0
2, 13649, Note_on_c, 0, 53, 0
2, 13653, Note_on_c, 0, 67, 64
2, 13653, Note_on_c, 0, 51, 64
2, 13666, Note_on_c, 0, 67, 0
2, 13668, Note_on_c, 0, 69, 64
2, 13679, Note_on_c, 0, 51, 0
2, 13681, Note_on_c, 0, 69, 0
2, 13683, Note_on_c, 0, 70, 64
2, 13683, Note_on_c, 0, 49, 64
2, 13709, Note_on_c, 0, 49, 0
2, 13709, Note_on_c, 0, 70, 0
2, 13713, Note_on_c, 0, 65, 64
2, 13713, Note_on_c, 0, 58, 64
2, 13739, Note_on_c, 0, 58, 0
2, 13739, Note_on_c, 0, 65, 0
2, 13743, Note_on_c, 0, 70, 64
2, 13743, Note_on_c, 0, 49, 64
2, 13769, Note_on_c, 0, 49, 0
2, 13769, Note_on_c, 0, 70, 0
2, 13773, Note_on_c, 0, 72, 64
2, 13773, Note_on_c, 0, 51, 64
2, 13799, Note_on_c, 0, 51, 0
2, 13799, Note_on_c, 0, 72, 0
2, 13803, Note_on_c, 0, 73, 64
2, 13803, Note_on_c, 0, 53, 64
2, 13829, Note_on_c, 0, 53, 0
2, 13829, Note_on_c, 0, 73, 0
2, 13833, Note_on_c, 0, 70, 64
2, 13833, Note_on_c, 0, 49, 64
2, 13859, Note_on_c, 0, 49, 0
2, 13859, Note_on_c, 0, 70, 0
2, 13863, Note_on_c, 0, 77, 64
2, 13863, Note_on_c, 0, 58, 64
2, 13889, Note_on_c, 0, 58, 0
2, 13889, Note_on_c, 0, 77, 0
2, 13893, Note_on_c, 0, 73, 64
2, 13893, Note_on_c, 0, 53, 64
2, 13919, Note_on_c, 0, 53, 0
2, 13919, Note_on_c, 0, 73, 0
2, 13923, Note_on_c, 0, 82, 64
2, 13923, Note_on_c, 0, 49, 64
2, 13949, Note_on_c, 0, 49, 0
2, 13949, Note_on_c, 0, 82, 0
2, 13953, Note_on_c, 0, 80, 64
2, 13953, Note_on_c, 0, 53, 64
2, 13979, Note_on_c, 0, 53, 0
2, 13979, Note_on_c, 0, 80, 0
2, 13983, Note_on_c, 0, 78, 64
2, 13983, Note_on_c, 0, 51, 64
2, 14009, Note_on_c, 0, 51, 0
2, 14009, Note_on_c, 0, 78, 0
2, 14013, Note_on_c, 0, 77, 64
2, 14013, Note_on_c, 0, 49, 64
2, 14039, Note_on_c, 0, 49, 0
2, 14039, Note_on_c, 0, 77, 0
2, 14043, Note_on_c, 0, 75, 64
2, 14043, Note_on_c, 0, 47, 64
2, 14069, Note_on_c, 0, 47, 0
2, 14069, Note_on_c, 0, 75, 0
2, 14073, Note_on_c, 0, 74, 64
2, 14073, Note_on_c, 0, 58, 64
2, 14099, Note_on_c, 0, 58, 0
2, 14099, Note_on_c, 0, 74, 0
2, 14103, Note_on_c, 0, 75, 64
2, 14103, Note_on_c, 0, 47, 64
2, 14129, Note_on_c, 0, 47, 0
2, 14133, Note_on_c, 0, 49, 64
2, 14155, Note_on_c, 0, 75, 0
2, 14159, Note_on_c, 0, 49, 0
2, 14163, Note_on_c, 0, 51, 64
2, 14189, Note_on_c, 0, 51, 0
2, 14193, Note_on_c, 0, 47, 64
2, 14219, Note_on_c, 0, 47, 0
2, 14223, Note_on_c, 0, 56, 64
2, 14238, Note_on_c, 0, 75, 64
2, 14249, Note_on_c, 0, 56, 0
2, 14251, Note_on_c, 0, 75, 0
2, 14253, Note_on_c, 0, 77, 64
2, 14253, Note_on_c, 0, 51, 64
2, 14266, Note_on_c, 0, 77, 0
2, 14268, Note_on_c, 0, 79, 64
2, 14279, Note_on_c, 0, 51, 0
2, 14281, Note_on_c, 0, 79, 0
2, 14283, Note_on_c, 0, 80, 64
2, 14283, Note_on_c, 0, 47, 64
2, 14309, Note_on_c, 0, 47, 0
2, 14313, Note_on_c, 0, 51, 64
2, 14339, Note_on_c, 0, 51, 0
2, 14343, Note_on_c, 0, 49, 64
2, 14361, Note_on_c, 0, 80, 0
2, 14369, Note_on_c, 0, 49, 0
2, 14373, Note_on_c, 0, 80, 64
2, 14373, Note_on_c, 0, 47, 64
2, 14399, Note_on_c, 0, 47, 0
2, 14399, Note_on_c, 0, 80, 0
2, 14403, Note_on_c, 0, 80, 64
2, 14403, Note_on_c, 0, 46, 64
2, 14429, Note_on_c, 0, 46, 0
2, 14429, Note_on_c, 0, 80, 0
2, 14433, Note_on_c, 0, 77, 64
2, 14433, Note_on_c, 0, 58, 64
2, 14459, Note_on_c, 0, 58, 0
2, 14459, Note_on_c, 0, 77, 0
2, 14463, Note_on_c, 0, 74, 64
2, 14463, Note_on_c, 0, 46, 64
2, 14489, Note_on_c, 0, 46, 0
2, 14489, Note_on_c, 0, 74, 0
2, 14493, Note_on_c, 0, 75, 64
2, 14493, Note_on_c, 0, 48, 64
2, 14519, Note_on_c, 0, 48, 0
2, 14519, Note_on_c, 0, 75, 0
2, 14523, Note_on_c, 0, 77, 64
2, 14523, Note_on_c, 0, 50, 64
2, 14549, Note_on_c, 0, 50, 0
2, 14549, Note_on_c, 0, 77, 0
2, 14553, Note_on_c, 0, 74, 64
2, 14553, Note_on_c, 0, 46, 64
2, 14579, Note_on_c, 0, 46, 0
2, 14579, Note_on_c, 0, 74, 0
2, 14583, Note_on_c, 0, 68, 64
2, 14583, Note_on_c, 0, 53, 64
2, 14609, Note_on_c, 0, 53, 0
2, 14609, Note_on_c, 0, 68, 0
2, 14613, Note_on_c, 0, 71, 64
2, 14613, Note_on_c, 0, 50, 64
2, 14639, Note_on_c, 0, 50, 0
2, 14639, Note_on_c, 0, 71, 0
2, 14643, Note_on_c, 0, 62, 64
2, 14643, Note_on_c, 0, 44, 64
2, 14669, Note_on_c, 0, 44, 0
2, 14673, Note_on_c, 0, 47, 64
2, 14699, Note_on_c, 0, 47, 0
2, 14703, Note_on_c, 0, 46, 64
2, 14721, Note_on_c, 0, 62, 0
2, 14729, Note_on_c, 0, 46, 0
2, 14733, Note_on_c, 0, 71, 64
2, 14733, Note_on_c, 0, 44, 64
2, 14759, Note_on_c, 0, 44, 0
2, 14759, Note_on_c, 0, 71, 0
2, 14763, Note_on_c, 0, 70, 64
2, 14763, Note_on_c, 0, 42, 64
2, 14789, Note_on_c, 0, 42, 0
2, 14793, Note_on_c, 0, 46, 64
2, 14819, Note_on_c, 0, 46, 0
2, 14823, Note_on_c, 0, 51, 64
2, 14836, Note_on_c, 0, 70, 0
2, 14838, Note_on_c, 0, 68, 64
2, 14849, Note_on_c, 0, 51, 0
2, 14851, Note_on_c, 0, 68, 0
2, 14853, Note_on_c, 0, 66, 64
2, 14853, Note_on_c, 0, 53, 64
2, 14866, Note_on_c, 0, 66, 0
2, 14868, Note_on_c, 0, 65, 64
2, 14879, Note_on_c, 0, 53, 0
2, 14881, Note_on_c, 0, 65, 0
2, 14883, Note_on_c, 0, 63, 64
2, 14883, Note_on_c, 0, 54, 64
2, 14909, Note_on_c, 0, 54, 0
2, 14913, Note_on_c, 0, 51, 64
2, 14939, Note_on_c, 0, 51, 0
2, 14943, Note_on_c, 0, 54, 64
2, 14969, Note_on_c, 0, 54, 0
2, 14973, Note_on_c, 0, 56, 64
2, 14999, Note_on_c, 0, 56, 0
2, 15003, Note_on_c, 0, 58, 64
2, 15029, Note_on_c, 0, 58, 0
2, 15033, Note_on_c, 0, 54, 64
2, 15048, Note_on_c, 0, 63, 0
2, 15059, Note_on_c, 0, 54, 0
2, 15063, Note_on_c, 0, 59, 64
2, 15089, Note_on_c, 0, 59, 0
2, 15093, Note_on_c, 0, 75, 64
2, 15093, Note_on_c, 0, 59, 64
2, 15119, Note_on_c, 0, 59, 0
2, 15119, Note_on_c, 0, 75, 0
2, 15123, Note_on_c, 0, 74, 64
2, 15123, Note_on_c, 0, 59, 64
2, 15196, Note_on_c, 0, 74, 0
2, 15198, Note_on_c, 0, 75, 64
2, 15211, Note_on_c, 0, 75, 0
2, 15213, Note_on_c, 0, 77, 64
2, 15226, Note_on_c, 0, 77, 0
2, 15228, Note_on_c, 0, 78, 64
2, 15241, Note_on_c, 0, 78, 0
2, 15243, Note_on_c, 0, 80, 64
2, 15316, Note_on_c, 0, 59, 0
2, 15318, Note_on_c, 0, 58, 64
2, 15331, Note_on_c, 0, 58, 0
2, 15333, Note_on_c, 0, 56, 64
2, 15346, Note_on_c, 0, 56, 0
2, 15348, Note_on_c, 0, 54, 64
2, 15361, Note_on_c, 0, 54, 0
2, 15363, Note_on_c, 0, 53, 64
2, 15408, Note_on_c, 0, 80, 0
2, 15441, Note_on_c, 0, 53, 0
2, 15453, Note_on_c, 0, 82, 64
2, 15453, Note_on_c, 0, 62, 64
2, 15479, Note_on_c, 0, 62, 0
2, 15479, Note_on_c, 0, 82, 0
2, 15483, Note_on_c, 0, 78, 64
2, 15483, Note_on_c, 0, 63, 64
2, 15561, Note_on_c, 0, 63, 0
2, 15561, Note_on_c, 0, 78, 0
2, 15573, Note_on_c, 0, 77, 64
2, 15573, Note_on_c, 0, 56, 64
2, 15599, Note_on_c, 0, 56, 0
2, 15599, Note_on_c, 0, 77, 0
2, 15603, Note_on_c, 0, 74, 64
2, 15603, Note_on_c, 0, 58, 64
2, 15676, Note_on_c, 0, 58, 0
2, 15678, Note_on_c, 0, 59, 64
2, 15691, Note_on_c, 0, 59, 0
2, 15693, Note_on_c, 0, 58, 64
2, 15706, Note_on_c, 0, 58, 0
2, 15708, Note_on_c, 0, 56, 64
2, 15721, Note_on_c, 0, 56, 0
2, 15723, Note_on_c, 0, 58, 64
2, 15768, Note_on_c, 0, 74, 0
2, 15783, Note_on_c, 0, 75, 64
2, 15801, Note_on_c, 0, 58, 0
2, 15813, Note_on_c, 0, 46, 64
2, 15835, Note_on_c, 0, 75, 0
2, 15839, Note_on_c, 0, 46, 0
2, 15843, Note_on_c, 0, 75, 64
2, 15843, Note_on_c, 0, 51, 64
2, 15869, Note_on_c, 0, 75, 0
2, 15873, Note_on_c, 0, 70, 64
2, 15899, Note_on_c, 0, 70, 0
2, 15903, Note_on_c, 0, 66, 64
2, 15921, Note_on_c, 0, 51, 0
2, 15929, Note_on_c, 0, 66, 0
2, 15933, Note_on_c, 0, 68, 64
2, 15933, Note_on_c, 0, 63, 64
2, 15959, Note_on_c, 0, 63, 0
2, 15959, Note_on_c, 0, 68, 0
2, 15963, Note_on_c, 0, 70, 64
2, 15963, Note_on_c, 0, 63, 64
2, 15989, Note_on_c, 0, 70, 0
2, 15993, Note_on_c, 0, 66, 64
2, 16019, Note_on_c, 0, 66, 0
2, 16023, Note_on_c, 0, 75, 64
2, 16041, Note_on_c, 0, 63, 0
2, 16049, Note_on_c, 0, 75, 0
2, 16053, Note_on_c, 0, 70, 64
2, 16053, Note_on_c, 0, 63, 64
2, 16079, Note_on_c, 0, 63, 0
2, 16079, Note_on_c, 0, 70, 0
2, 16083, Note_on_c, 0, 66, 64
2, 16083, Note_on_c, 0, 58, 64
2, 16109, Note_on_c, 0, 66, 0
2, 16113, Note_on_c, 0, 68, 64
2, 16139, Note_on_c, 0, 68, 0
2, 16143, Note_on_c, 0, 66, 64
2, 16161, Note_on_c, 0, 58, 0
2, 16169, Note_on_c, 0, 66, 0
2, 16173, Note_on_c, 0, 65, 64
2, 16173, Note_on_c, 0, 63, 64
2, 16199, Note_on_c, 0, 63, 0
2, 16199, Note_on_c, 0, 65, 0
2, 16203, Note_on_c, 0, 67, 64
2, 16203, Note_on_c, 0, 49, 64
2, 16229, Note_on_c, 0, 67, 0
2, 16233, Note_on_c, 0, 75, 64
2, 16259, Note_on_c, 0, 75, 0
2, 16263, Note_on_c, 0, 67, 64
2, 16281, Note_on_c, 0, 49, 0
2, 16289, Note_on_c, 0, 67, 0
2, 16293, Note_on_c, 0, 68, 64
2, 16293, Note_on_c, 0, 63, 64
2, 16319, Note_on_c, 0, 63, 0
2, 16319, Note_on_c, 0, 68, 0
2, 16323, Note_on_c, 0, 70, 64
2, 16323, Note_on_c, 0, 63, 64
2, 16349, Note_on_c, 0, 70, 0
2, 16353, Note_on_c, 0, 67, 64
2, 16379, Note_on_c, 0, 67, 0
2, 16383, Note_on_c, 0, 75, 64
2, 16401, Note_on_c, 0, 63, 0
2, 16409, Note_on_c, 0, 75, 0
2, 16413, Note_on_c, 0, 70, 64
2, 16413, Note_on_c, 0, 63, 64
2, 16439, Note_on_c, 0, 63, 0
2, 16439, Note_on_c, 0, 70, 0
2, 16443, Note_on_c, 0, 67, 64
2, 16443, Note_on_c, 0, 58, 64
2, 16469, Note_on_c, 0, 67, 0
2, 16473, Note_on_c, 0, 70, 64
2, 16499, Note_on_c, 0, 70, 0
2, 16503, Note_on_c, 0, 68, 64
2, 16521, Note_on_c, 0, 58, 0
2, 16529, Note_on_c, 0, 68, 0
2, 16533, Note_on_c, 0, 67, 64
2, 16533, Note_on_c, 0, 63, 64
2, 16559, Note_on_c, 0, 63, 0
2, 16559, Note_on_c, 0, 67, 0
2, 16563, Note_on_c, 0, 68, 64
2, 16563, Note_on_c, 0, 47, 64
2, 16589, Note_on_c, 0, 68, 0
2, 16593, Note_on_c, 0, 75, 64
2, 16619, Note_on_c, 0, 75, 0
2, 16623, Note_on_c, 0, 68, 64
2, 16641, Note_on_c, 0, 47, 0
2, 16649, Note_on_c, 0, 68, 0
2, 16653, Note_on_c, 0, 70, 64
2, 16653, Note_on_c, 0, 63, 64
2, 16679, Note_on_c, 0, 63, 0
2, 16679, Note_on_c, 0, 70, 0
2, 16683, Note_on_c, 0, 71, 64
2, 16683, Note_on_c, 0, 63, 64
2, 16709, Note_on_c, 0, 71, 0
2, 16713, Note_on_c, 0, 68, 64
2, 16739, Note_on_c, 0, 68, 0
2, 16743, Note_on_c, 0, 75, 64
2, 16761, Note_on_c, 0, 63, 0
2, 16769, Note_on_c, 0, 75, 0
2, 16773, Note_on_c, 0, 71, 64
2, 16773, Note_on_c, 0, 63, 64
2, 16799, Note_on_c, 0, 63, 0
2, 16799, Note_on_c, 0, 71, 0
2, 16803, Note_on_c, 0, 68, 64
2, 16803, Note_on_c, 0, 59, 64
2, 16829, Note_on_c, 0, 68, 0
2, 16833, Note_on_c, 0, 71, 64
2, 16859, Note_on_c, 0, 71, 0
2, 16863, Note_on_c, 0, 70, 64
2, 16881, Note_on_c, 0, 59, 0
2, 16889, Note_on_c, 0, 70, 0
2, 16893, Note_on_c, 0, 68, 64
2, 16893, Note_on_c, 0, 63, 64
2, 16919, Note_on_c, 0, 63, 0
2, 16919, Note_on_c, 0, 68, 0
2, 16923, Note_on_c, 0, 70, 64
2, 16923, Note_on_c, 0, 55, 64
2, 16949, Note_on_c, 0, 70, 0
2, 16953, Note_on_c, 0, 75, 64
2, 16979, Note_on_c, 0, 75, 0
2, 16983, Note_on_c, 0, 70, 64
2, 17001, Note_on_c, 0, 55, 0
2, 17009, Note_on_c, 0, 70, 0
2, 17013, Note_on_c, 0, 71, 64
2, 17013, Note_on_c, 0, 63, 64
2, 17039, Note_on_c, 0, 63, 0
2, 17039, Note_on_c, 0, 71, 0
2, 17043, Note_on_c, 0, 73, 64
2, 17043, Note_on_c, 0, 63, 64
2, 17069, Note_on_c, 0, 73, 0
2, 17073, Note_on_c, 0, 70, 64
2, 17099, Note_on_c, 0, 70, 0
2, 17103, Note_on_c, 0, 76, 64
2, 17121, Note_on_c, 0, 63, 0
2, 17129, Note_on_c, 0, 76, 0
2, 17133, Note_on_c, 0, 73, 64
2, 17133, Note_on_c, 0, 63, 64
2, 17159, Note_on_c, 0, 63, 0
2, 17159, Note_on_c, 0, 73, 0
2, 17163, Note_on_c, 0, 70, 64
2, 17163, Note_on_c, 0, 61, 64
2, 17189, Note_on_c, 0, 70, 0
2, 17193, Note_on_c, 0, 73, 64
2, 17219, Note_on_c, 0, 73, 0
2, 17223, Note_on_c, 0, 71, 64
2, 17241, Note_on_c, 0, 61, 0
2, 17249, Note_on_c, 0, 71, 0
2, 17253, Note_on_c, 0, 70, 64
2, 17253, Note_on_c, 0, 63, 64
2, 17279, Note_on_c, 0, 63, 0
2, 17279, Note_on_c, 0, 70, 0
2, 17283, Note_on_c, 0, 71, 64
2, 17283, Note_on_c, 0, 56, 64
2, 17309, Note_on_c, 0, 56, 0
2, 17313, Note_on_c, 0, 51, 64
2, 17339, Note_on_c, 0, 51, 0
2, 17343, Note_on_c, 0, 44, 64
2, 17361, Note_on_c, 0, 71, 0
2, 17369, Note_on_c, 0, 44, 0
2, 17373, Note_on_c, 0, 67, 64
2, 17373, Note_on_c, 0, 46, 64
2, 17399, Note_on_c, 0, 46, 0
2, 17399, Note_on_c, 0, 67, 0
2, 17403, Note_on_c, 0, 68, 64
2, 17403, Note_on_c, 0, 47, 64
2, 17429, Note_on_c, 0, 47, 0
2, 17433, Note_on_c, 0, 44, 64
2, 17459, Note_on_c, 0, 44, 0
2, 17463, Note_on_c, 0, 51, 64
2, 17481, Note_on_c, 0, 68, 0
2, 17489, Note_on_c, 0, 51, 0
2, 17493, Note_on_c, 0, 71, 64
2, 17493, Note_on_c, 0, 47, 64
2, 17519, Note_on_c, 0, 47, 0
2, 17519, Note_on_c, 0, 71, 0
2, 17523, Note_on_c, 0, 75, 64
2, 17523, Note_on_c, 0, 44, 64
2, 17549, Note_on_c, 0, 44, 0
2, 17553, Note_on_c, 0, 49, 64
2, 17579, Note_on_c, 0, 49, 0
2, 17583, Note_on_c, 0, 47, 64
2, 17596, Note_on_c, 0, 75, 0
2, 17598, Note_on_c, 0, 80, 64
2, 17609, Note_on_c, 0, 47, 0
2, 17611, Note_on_c, 0, 80, 0
2, 17613, Note_on_c, 0, 78, 64
2, 17613, Note_on_c, 0, 46, 64
2, 17626, Note_on_c, 0, 78, 0
2, 17628, Note_on_c, 0, 77, 64
2, 17639, Note_on_c, 0, 46, 0
2, 17641, Note_on_c, 0, 77, 0
2, 17643, Note_on_c, 0, 78, 64
2, 17643, Note_on_c, 0, 48, 64
2, 17669, Note_on_c, 0, 48, 0
2, 17673, Note_on_c, 0, 56, 64
2, 17699, Note_on_c, 0, 56, 0
2, 17703, Note_on_c, 0, 48, 64
2, 17721, Note_on_c, 0, 78, 0
2, 17729, Note_on_c, 0, 48, 0
2, 17733, Note_on_c, 0, 67, 64
2, 17733, Note_on_c, 0, 49, 64
2, 17759, Note_on_c, 0, 49, 0
2, 17759, Note_on_c, 0, 67, 0
2, 17763, Note_on_c, 0, 68, 64
2, 17763, Note_on_c, 0, 51, 64
2, 17789, Note_on_c, 0, 51, 0
2, 17793, Note_on_c, 0, 48, 64
2, 17819, Note_on_c, 0, 48, 0
2, 17823, Note_on_c, 0, 56, 64
2, 17841, Note_on_c, 0, 68, 0
2, 17849, Note_on_c, 0, 56, 0
2, 17853, Note_on_c, 0, 72, 64
2, 17853, Note_on_c, 0, 51, 64
2, 17879, Note_on_c, 0, 51, 0
2, 17879, Note_on_c, 0, 72, 0
2, 17883, Note_on_c, 0, 75, 64
2, 17883, Note_on_c, 0, 48, 64
2, 17909, Note_on_c, 0, 48, 0
2, 17913, Note_on_c, 0, 51, 64
2, 17939, Note_on_c, 0, 51, 0
2, 17943, Note_on_c, 0, 49, 64
2, 17956, Note_on_c, 0, 75, 0
2, 17958, Note_on_c, 0, 78, 64
2, 17969, Note_on_c, 0, 49, 0
2, 17971, Note_on_c, 0, 78, 0
2, 17973, Note_on_c, 0, 77, 64
2, 17973, Note_on_c, 0, 48, 64
2, 17986, Note_on_c, 0, 77, 0
2, 17988, Note_on_c, 0, 75, 64
2, 17999, Note_on_c, 0, 48, 0
2, 18001, Note_on_c, 0, 75, 0
2, 18003, Note_on_c, 0, 77, 64
2, 18003, Note_on_c, 0, 49, 64
2, 18029, Note_on_c, 0, 49, 0
2, 18033, Note_on_c, 0, 56, 64
2, 18059, Note_on_c, 0, 56, 0
2, 18063, Note_on_c, 0, 49, 64
2, 18081, Note_on_c, 0, 77, 0
2, 18089, Note_on_c, 0, 49, 0
2, 18093, Note_on_c, 0, 67, 64
2, 18093, Note_on_c, 0, 51, 64
2, 18119, Note_on_c, 0, 51, 0
2, 18119, Note_on_c, 0, 67, 0
2, 18123, Note_on_c, 0, 68, 64
2, 18123, Note_on_c, 0, 53, 64
2, 18149, Note_on_c, 0, 53, 0
2, 18153, Note_on_c, 0, 49, 64
2, 18179, Note_on_c, 0, 49, 0
2, 18183, Note_on_c, 0, 56, 64
2, 18201, Note_on_c, 0, 68, 0
2, 18209, Note_on_c, 0, 56, 0
2, 18213, Note_on_c, 0, 73, 64
2, 18213, Note_on_c, 0, 53, 64
2, 18239, Note_on_c, 0, 53, 0
2, 18239, Note_on_c, 0, 73, 0
2, 18243, Note_on_c, 0, 77, 64
2, 18243, Note_on_c, 0, 49, 64
2, 18269, Note_on_c, 0, 49, 0
2, 18273, Note_on_c, 0, 53, 64
2, 18299, Note_on_c, 0, 53, 0
2, 18303, Note_on_c, 0, 51, 64
2, 18316, Note_on_c, 0, 77, 0
2, 18318, Note_on_c, 0, 68, 64
2, 18329, Note_on_c, 0, 51, 0
2, 18331, Note_on_c, 0, 68, 0
2, 18333, Note_on_c, 0, 66, 64
2, 18333, Note_on_c, 0, 49, 64
2, 18346, Note_on_c, 0, 66, 0
2, 18348, Note_on_c, 0, 65, 64
2, 18359, Note_on_c, 0, 49, 0
2, 18361, Note_on_c, 0, 65, 0
2, 18363, Note_on_c, 0, 66, 64
2, 18363, Note_on_c, 0, 51, 64
2, 18389, Note_on_c, 0, 51, 0
2, 18393, Note_on_c, 0, 56, 64
2, 18419, Note_on_c, 0, 56, 0
2, 18423, Note_on_c, 0, 51, 64
2, 18441, Note_on_c, 0, 66, 0
2, 18449, Note_on_c, 0, 51, 0
2, 18453, Note_on_c, 0, 70, 64
2, 18453, Note_on_c, 0, 53, 64
2, 18479, Note_on_c, 0, 53, 0
2, 18479, Note_on_c, 0, 70, 0
2, 18483, Note_on_c, 0, 63, 64
2, 18483, Note_on_c, 0, 54, 64
2, 18509, Note_on_c, 0, 54, 0
2, 18513, Note_on_c, 0, 51, 64
2, 18539, Note_on_c, 0, 51, 0
2, 18543, Note_on_c, 0, 58, 64
2, 18561, Note_on_c, 0, 63, 0
2, 18569, Note_on_c, 0, 58, 0
2, 18573, Note_on_c, 0, 73, 64
2, 18573, Note_on_c, 0, 54, 64
2, 18599, Note_on_c, 0, 54, 0
2, 18599, Note_on_c, 0, 73, 0
2, 18603, Note_on_c, 0, 72, 64
2, 18603, Note_on_c, 0, 51, 64
2, 18629, Note_on_c, 0, 51, 0
2, 18633, Note_on_c, 0, 54, 64
2, 18659, Note_on_c, 0, 54, 0
2, 18663, Note_on_c, 0, 53, 64
2, 18681, Note_on_c, 0, 72, 0
2, 18689, Note_on_c, 0, 53, 0
2, 18693, Note_on_c, 0, 70, 64
2, 18693, Note_on_c, 0, 51, 64
2, 18706, Note_on_c, 0, 70, 0
2, 18708, Note_on_c, 0, 72, 64
2, 18719, Note_on_c, 0, 51, 0
2, 18721, Note_on_c, 0, 72, 0
2, 18723, Note_on_c, 0, 73, 64
2, 18723, Note_on_c, 0, 53, 64
2, 18749, Note_on_c, 0, 53, 0
2, 18749, Note_on_c, 0, 73, 0
2, 18753, Note_on_c, 0, 68, 64
2, 18753, Note_on_c, 0, 56, 64
2, 18779, Note_on_c, 0, 56, 0
2, 18779, Note_on_c, 0, 68, 0
2, 18783, Note_on_c, 0, 65, 64
2, 18783, Note_on_c, 0, 61, 64
2, 18809, Note_on_c, 0, 61, 0
2, 18809, Note_on_c, 0, 65, 0
2, 18813, Note_on_c, 0, 66, 64
2, 18813, Note_on_c, 0, 56, 64
2, 18839, Note_on_c, 0, 56, 0
2, 18839, Note_on_c, 0, 66, 0
2, 18843, Note_on_c, 0, 68, 64
2, 18843, Note_on_c, 0, 53, 64
2, 18869, Note_on_c, 0, 53, 0
2, 18869, Note_on_c, 0, 68, 0
2, 18873, Note_on_c, 0, 65, 64
2, 18873, Note_on_c, 0, 56, 64
2, 18899, Note_on_c, 0, 56, 0
2, 18899, Note_on_c, 0, 65, 0
2, 18903, Note_on_c, 0, 73, 64
2, 18903, Note_on_c, 0, 49, 64
2, 18929, Note_on_c, 0, 49, 0
2, 18929, Note_on_c, 0, 73, 0
2, 18933, Note_on_c, 0, 68, 64
2, 18933, Note_on_c, 0, 53, 64
2, 18959, Note_on_c, 0, 53, 0
2, 18959, Note_on_c, 0, 68, 0
2, 18963, Note_on_c, 0, 65, 64
2, 18963, Note_on_c, 0, 56, 64
2, 18989, Note_on_c, 0, 56, 0
2, 18989, Note_on_c, 0, 65, 0
2, 18993, Note_on_c, 0, 66, 64
2, 18993, Note_on_c, 0, 49, 64
2, 19019, Note_on_c, 0, 49, 0
2, 19019, Note_on_c, 0, 66, 0
2, 19023, Note_on_c, 0, 65, 64
2, 19023, Note_on_c, 0, 56, 64
2, 19049, Note_on_c, 0, 56, 0
2, 19049, Note_on_c, 0, 65, 0
2, 19053, Note_on_c, 0, 63, 64
2, 19053, Note_on_c, 0, 58, 64
2, 19079, Note_on_c, 0, 58, 0
2, 19079, Note_on_c, 0, 63, 0
2, 19083, Note_on_c, 0, 61, 64
2, 19083, Note_on_c, 0, 59, 64
2, 19109, Note_on_c, 0, 61, 0
2, 19113, Note_on_c, 0, 68, 64
2, 19139, Note_on_c, 0, 68, 0
2, 19143, Note_on_c, 0, 65, 64
2, 19156, Note_on_c, 0, 59, 0
2, 19158, Note_on_c, 0, 61, 64
2, 19169, Note_on_c, 0, 65, 0
2, 19171, Note_on_c, 0, 61, 0
2, 19173, Note_on_c, 0, 66, 64
2, 19173, Note_on_c, 0, 59, 64
2, 19186, Note_on_c, 0, 59, 0
2, 19188, Note_on_c, 0, 58, 64
2, 19199, Note_on_c, 0, 66, 0
2, 19201, Note_on_c, 0, 58, 0
2, 19203, Note_on_c, 0, 68, 64
2, 19203, Note_on_c, 0, 59, 64
2, 19229, Note_on_c, 0, 68, 0
2, 19233, Note_on_c, 0, 65, 64
2, 19259, Note_on_c, 0, 65, 0
2, 19263, Note_on_c, 0, 73, 64
2, 19289, Note_on_c, 0, 73, 0
2, 19293, Note_on_c, 0, 68, 64
2, 19319, Note_on_c, 0, 68, 0
2, 19323, Note_on_c, 0, 65, 64
2, 19349, Note_on_c, 0, 65, 0
2, 19353, Note_on_c, 0, 68, 64
2, 19379, Note_on_c, 0, 68, 0
2, 19383, Note_on_c, 0, 66, 64
2, 19396, Note_on_c, 0, 59, 0
2, 19398, Note_on_c, 0, 56, 64
2, 19409, Note_on_c, 0, 66, 0
2, 19411, Note_on_c, 0, 56, 0
2, 19413, Note_on_c, 0, 65, 64
2, 19413, Note_on_c, 0, 58, 64
2, 19426, Note_on_c, 0, 58, 0
2, 19428, Note_on_c, 0, 59, 64
2, 19439, Note_on_c, 0, 65, 0
2, 19441, Note_on_c, 0, 59, 0
2, 19443, Note_on_c, 0, 66, 64
2, 19443, Note_on_c, 0, 58, 64
2, 19469, Note_on_c, 0, 58, 0
2, 19469, Note_on_c, 0, 66, 0
2, 19473, Note_on_c, 0, 73, 64
2, 19473, Note_on_c, 0, 54, 64
2, 19499, Note_on_c, 0, 54, 0
2, 19499, Note_on_c, 0, 73, 0
2, 19503, Note_on_c, 0, 66, 64
2, 19503, Note_on_c, 0, 58, 64
2, 19529, Note_on_c, 0, 58, 0
2, 19529, Note_on_c, 0, 66, 0
2, 19533, Note_on_c, 0, 68, 64
2, 19533, Note_on_c, 0, 56, 64
2, 19559, Note_on_c, 0, 56, 0
2, 19559, Note_on_c, 0, 68, 0
2, 19563, Note_on_c, 0, 70, 64
2, 19563, Note_on_c, 0, 54, 64
2, 19589, Note_on_c, 0, 54, 0
2, 19589, Note_on_c, 0, 70, 0
2, 19593, Note_on_c, 0, 66, 64
2, 19593, Note_on_c, 0, 58, 64
2, 19619, Note_on_c, 0, 58, 0
2, 19619, Note_on_c, 0, 66, 0
2, 19623, Note_on_c, 0, 73, 64
2, 19623, Note_on_c, 0, 49, 64
2, 19649, Note_on_c, 0, 49, 0
2, 19649, Note_on_c, 0, 73, 0
2, 19653, Note_on_c, 0, 70, 64
2, 19653, Note_on_c, 0, 54, 64
2, 19679, Note_on_c, 0, 54, 0
2, 19679, Note_on_c, 0, 70, 0
2, 19683, Note_on_c, 0, 66, 64
2, 19683, Note_on_c, 0, 58, 64
2, 19709, Note_on_c, 0, 58, 0
2, 19709, Note_on_c, 0, 66, 0
2, 19713, Note_on_c, 0, 70, 64
2, 19713, Note_on_c, 0, 54, 64
2, 19739, Note_on_c, 0, 54, 0
2, 19739, Note_on_c, 0, 70, 0
2, 19743, Note_on_c, 0, 68, 64
2, 19743, Note_on_c, 0, 56, 64
2, 19769, Note_on_c, 0, 56, 0
2, 19769, Note_on_c, 0, 68, 0
2, 19773, Note_on_c, 0, 66, 64
2, 19773, Note_on_c, 0, 58, 64
2, 19799, Note_on_c, 0, 58, 0
2, 19799, Note_on_c, 0, 66, 0
2, 19803, Note_on_c, 0, 68, 64
2, 19803, Note_on_c, 0, 53, 64
2, 19829, Note_on_c, 0, 68, 0
2, 19833, Note_on_c, 0, 73, 64
2, 19859, Note_on_c, 0, 73, 0
2, 19863, Note_on_c, 0, 68, 64
2, 19881, Note_on_c, 0, 53, 0
2, 19889, Note_on_c, 0, 68, 0
2, 19893, Note_on_c, 0, 70, 64
2, 19893, Note_on_c, 0, 61, 64
2, 19919, Note_on_c, 0, 61, 0
2, 19919, Note_on_c, 0, 70, 0
2, 19923, Note_on_c, 0, 71, 64
2, 19923, Note_on_c, 0, 49, 64
2, 19949, Note_on_c, 0, 71, 0
2, 19953, Note_on_c, 0, 68, 64
2, 19979, Note_on_c, 0, 68, 0
2, 19983, Note_on_c, 0, 75, 64
2, 19996, Note_on_c, 0, 49, 0
2, 19998, Note_on_c, 0, 49, 64
2, 20009, Note_on_c, 0, 75, 0
2, 20011, Note_on_c, 0, 49, 0
2, 20013, Note_on_c, 0, 71, 64
2, 20013, Note_on_c, 0, 51, 64
2, 20026, Note_on_c, 0, 51, 0
2, 20028, Note_on_c, 0, 53, 64
2, 20039, Note_on_c, 0, 71, 0
2, 20041, Note_on_c, 0, 53, 0
2, 20043, Note_on_c, 0, 68, 64
2, 20043, Note_on_c, 0, 53, 64
2, 20069, Note_on_c, 0, 68, 0
2, 20073, Note_on_c, 0, 71, 64
2, 20099, Note_on_c, 0, 71, 0
2, 20103, Note_on_c, 0, 70, 64
2, 20121, Note_on_c, 0, 53, 0
2, 20129, Note_on_c, 0, 70, 0
2, 20133, Note_on_c, 0, 68, 64
2, 20133, Note_on_c, 0, 51, 64
2, 20146, Note_on_c, 0, 51, 0
2, 20148, Note_on_c, 0, 53, 64
2, 20159, Note_on_c, 0, 68, 0
2, 20161, Note_on_c, 0, 53, 0
2, 20163, Note_on_c, 0, 70, 64
2, 20163, Note_on_c, 0, 54, 64
2, 20189, Note_on_c, 0, 70, 0
2, 20193, Note_on_c, 0, 73, 64
2, 20206, Note_on_c, 0, 73, 0
2, 20208, Note_on_c, 0, 71, 64
2, 20221, Note_on_c, 0, 71, 0
2, 20223, Note_on_c, 0, 70, 64
2, 20236, Note_on_c, 0, 70, 0
2, 20238, Note_on_c, 0, 68, 64
2, 20241, Note_on_c, 0, 54, 0
2, 20251, Note_on_c, 0, 68, 0
2, 20253, Note_on_c, 0, 66, 64
2, 20253, Note_on_c, 0, 56, 64
2, 20266, Note_on_c, 0, 66, 0
2, 20268, Note_on_c, 0, 65, 64
2, 20279, Note_on_c, 0, 56, 0
2, 20281, Note_on_c, 0, 65, 0
2, 20283, Note_on_c, 0, 66, 64
2, 20283, Note_on_c, 0, 58, 64
2, 20361, Note_on_c, 0, 58, 0
2, 20373, Note_on_c, 0, 56, 64
2, 20399, Note_on_c, 0, 56, 0
2, 20403, Note_on_c, 0, 58, 64
2, 20448, Note_on_c, 0, 66, 0
2, 20481, Note_on_c, 0, 58, 0
2, 20493, Note_on_c, 0, 78, 64
2, 20493, Note_on_c, 0, 54, 64
2, 20519, Note_on_c, 0, 54, 0
2, 20519, Note_on_c, 0, 78, 0
2, 20523, Note_on_c, 0, 77, 64
2, 20523, Note_on_c, 0, 61, 64
2, 20601, Note_on_c, 0, 61, 0
2, 20601, Note_on_c, 0, 77, 0
2, 20613, Note_on_c, 0, 78, 64
2, 20613, Note_on_c, 0, 59, 64
2, 20626, Note_on_c, 0, 78, 0
2, 20628, Note_on_c, 0, 80, 64
2, 20639, Note_on_c, 0, 59, 0
2, 20641, Note_on_c, 0, 80, 0
2, 20643, Note_on_c, 0, 73, 64
2, 20643, Note_on_c, 0, 58, 64
2, 20721, Note_on_c, 0, 58, 0
2, 20733, Note_on_c, 0, 63, 64
2, 20759, Note_on_c, 0, 63, 0
2, 20763, Note_on_c, 0, 61, 64
2, 20808, Note_on_c, 0, 73, 0
2, 20841, Note_on_c, 0, 61, 0
2, 20853, Note_on_c, 0, 78, 64
2, 20853, Note_on_c, 0, 63, 64
2, 20879, Note_on_c, 0, 63, 0
2, 20879, Note_on_c, 0, 78, 0
2, 20883, Note_on_c, 0, 71, 64
2, 20883, Note_on_c, 0, 56, 64
2, 20961, Note_on_c, 0, 56, 0
2, 20961, Note_on_c, 0, 71, 0
2, 20973, Note_on_c, 0, 75, 64
2, 20973, Note_on_c, 0, 58, 64
2, 20999, Note_on_c, 0, 58, 0
2, 20999, Note_on_c, 0, 75, 0
2, 21003, Note_on_c, 0, 68, 64
2, 21003, Note_on_c, 0, 59, 64
2, 21081, Note_on_c, 0, 59, 0
2, 21081, Note_on_c, 0, 68, 0
2, 21093, Note_on_c, 0, 71, 64
2, 21093, Note_on_c, 0, 56, 64
2, 21119, Note_on_c, 0, 56, 0
2, 21119, Note_on_c, 0, 71, 0
2, 21123, Note_on_c, 0, 65, 64
2, 21123, Note_on_c, 0, 61, 64
2, 21201, Note_on_c, 0, 61, 0
2, 21201, Note_on_c, 0, 65, 0
2, 21213, Note_on_c, 0, 73, 64
2, 21213, Note_on_c, 0, 49, 64
2, 21239, Note_on_c, 0, 49, 0
2, 21239, Note_on_c, 0, 73, 0
2, 21243, Note_on_c, 0, 70, 64
2, 21243, Note_on_c, 0, 54, 64
2, 21269, Note_on_c, 0, 70, 0
2, 21273, Note_on_c, 0, 73, 64
2, 21299, Note_on_c, 0, 73, 0
2, 21303, Note_on_c, 0, 66, 64
2, 21321, Note_on_c, 0, 54, 0
2, 21329, Note_on_c, 0, 66, 0
2, 21333, Note_on_c, 0, 68, 64
2, 21333, Note_on_c, 0, 52, 64
2, 21346, Note_on_c, 0, 52, 0
2, 21348, Note_on_c, 0, 51, 64
2, 21359, Note_on_c, 0, 68, 0
2, 21361, Note_on_c, 0, 51, 0
2, 21363, Note_on_c, 0, 70, 64
2, 21363, Note_on_c, 0, 52, 64
2, 21389, Note_on_c, 0, 70, 0
2, 21393, Note_on_c, 0, 66, 64
2, 21419, Note_on_c, 0, 66, 0
2, 21423, Note_on_c, 0, 73, 64
2, 21441, Note_on_c, 0, 52, 0
2, 21449, Note_on_c, 0, 73, 0
2, 21453, Note_on_c, 0, 70, 64
2, 21453, Note_on_c, 0, 49, 64
2, 21479, Note_on_c, 0, 49, 0
2, 21479, Note_on_c, 0, 70, 0
2, 21483, Note_on_c, 0, 66, 64
2, 21483, Note_on_c, 0, 46, 64
2, 21509, Note_on_c, 0, 66, 0
2, 21513, Note_on_c, 0, 76, 64
2, 21539, Note_on_c, 0, 76, 0
2, 21543, Note_on_c, 0, 75, 64
2, 21561, Note_on_c, 0, 46, 0
2, 21569, Note_on_c, 0, 75, 0
2, 21573, Note_on_c, 0, 73, 64
2, 21573, Note_on_c, 0, 42, 64
2, 21599, Note_on_c, 0, 42, 0
2, 21599, Note_on_c, 0, 73, 0
2, 21603, Note_on_c, 0, 75, 64
2, 21603, Note_on_c, 0, 47, 64
2, 21629, Note_on_c, 0, 75, 0
2, 21633, Note_on_c, 0, 78, 64
2, 21659, Note_on_c, 0, 78, 0
2, 21663, Note_on_c, 0, 71, 64
2, 21681, Note_on_c, 0, 47, 0
2, 21689, Note_on_c, 0, 71, 0
2, 21693, Note_on_c, 0, 73, 64
2, 21693, Note_on_c, 0, 54, 64
2, 21719, Note_on_c, 0, 54, 0
2, 21719, Note_on_c, 0, 73, 0
2, 21723, Note_on_c, 0, 75, 64
2, 21723, Note_on_c, 0, 59, 64
2, 21749, Note_on_c, 0, 75, 0
2, 21753, Note_on_c, 0, 71, 64
2, 21779, Note_on_c, 0, 71, 0
2, 21783, Note_on_c, 0, 78, 64
2, 21809, Note_on_c, 0, 78, 0
2, 21813, Note_on_c, 0, 75, 64
2, 21828, Note_on_c, 0, 59, 0
2, 21839, Note_on_c, 0, 75, 0
2, 21843, Note_on_c, 0, 70, 64
2, 21869, Note_on_c, 0, 70, 0
2, 21873, Note_on_c, 0, 73, 64
2, 21899, Note_on_c, 0, 73, 0
2, 21903, Note_on_c, 0, 71, 64
2, 21929, Note_on_c, 0, 71, 0
2, 21933, Note_on_c, 0, 70, 64
2, 21959, Note_on_c, 0, 70, 0
2, 21963, Note_on_c, 0, 68, 64
2, 21963, Note_on_c, 0, 48, 64
2, 21989, Note_on_c, 0, 68, 0
2, 21993, Note_on_c, 0, 75, 64
2, 22019, Note_on_c, 0, 75, 0
2, 22023, Note_on_c, 0, 68, 64
2, 22041, Note_on_c, 0, 48, 0
2, 22049, Note_on_c, 0, 68, 0
2, 22053, Note_on_c, 0, 70, 64
2, 22053, Note_on_c, 0, 51, 64
2, 22066, Note_on_c, 0, 51, 0
2, 22068, Note_on_c, 0, 53, 64
2, 22079, Note_on_c, 0, 70, 0
2, 22081, Note_on_c, 0, 53, 0
2, 22083, Note_on_c, 0, 72, 64
2, 22083, Note_on_c, 0, 54, 64
2, 22109, Note_on_c, 0, 72, 0
2, 22113, Note_on_c, 0, 68, 64
2, 22139, Note_on_c, 0, 68, 0
2, 22143, Note_on_c, 0, 75, 64
2, 22161, Note_on_c, 0, 54, 0
2, 22169, Note_on_c, 0, 75, 0
2, 22173, Note_on_c, 0, 72, 64
2, 22173, Note_on_c, 0, 51, 64
2, 22199, Note_on_c, 0, 51, 0
2, 22199, Note_on_c, 0, 72, 0
2, 22203, Note_on_c, 0, 68, 64
2, 22203, Note_on_c, 0, 48, 64
2, 22229, Note_on_c, 0, 68, 0
2, 22233, Note_on_c, 0, 78, 64
2, 22259, Note_on_c, 0, 78, 0
2, 22263, Note_on_c, 0, 77, 64
2, 22281, Note_on_c, 0, 48, 0
2, 22289, Note_on_c, 0, 77, 0
2, 22293, Note_on_c, 0, 75, 64
2, 22293, Note_on_c, 0, 44, 64
2, 22319, Note_on_c, 0, 44, 0
2, 22319, Note_on_c, 0, 75, 0
2, 22323, Note_on_c, 0, 77, 64
2, 22323, Note_on_c, 0, 49, 64
2, 22349, Note_on_c, 0, 77, 0
2, 22353, Note_on_c, 0, 80, 64
2, 22379, Note_on_c, 0, 80, 0
2, 22383, Note_on_c, 0, 73, 64
2, 22401, Note_on_c, 0, 49, 0
2, 22409, Note_on_c, 0, 73, 0
2, 22413, Note_on_c, 0, 75, 64
2, 22413, Note_on_c, 0, 56, 64
2, 22439, Note_on_c, 0, 56, 0
2, 22439, Note_on_c, 0, 75, 0
2, 22443, Note_on_c, 0, 77, 64
2, 22443, Note_on_c, 0, 61, 64
2, 22469, Note_on_c, 0, 77, 0
2, 22473, Note_on_c, 0, 73, 64
2, 22499, Note_on_c, 0, 73, 0
2, 22503, Note_on_c, 0, 80, 64
2, 22529, Note_on_c, 0, 80, 0
2, 22533, Note_on_c, 0, 77, 64
2, 22548, Note_on_c, 0, 61, 0
2, 22559, Note_on_c, 0, 77, 0
2, 22563, Note_on_c, 0, 71, 64
2, 22589, Note_on_c, 0, 71, 0
2, 22593, Note_on_c, 0, 75, 64
2, 22619, Note_on_c, 0, 75, 0
2, 22623, Note_on_c, 0, 73, 64
2, 22649, Note_on_c, 0, 73, 0
2, 22653, Note_on_c, 0, 71, 64
2, 22679, Note_on_c, 0, 71, 0
2, 22683, Note_on_c, 0, 70, 64
2, 22683, Note_on_c, 0, 50, 64
2, 22709, Note_on_c, 0, 70, 0
2, 22713, Note_on_c, 0, 77, 64
2, 22739, Note_on_c, 0, 77, 0
2, 22743, Note_on_c, 0, 70, 64
2, 22761, Note_on_c, 0, 50, 0
2, 22769, Note_on_c, 0, 70, 0
2, 22773, Note_on_c, 0, 72, 64
2, 22773, Note_on_c, 0, 53, 64
2, 22786, Note_on_c, 0, 53, 0
2, 22788, Note_on_c, 0, 54, 64
2, 22799, Note_on_c, 0, 72, 0
2, 22801, Note_on_c, 0, 54, 0
2, 22803, Note_on_c, 0, 74, 64
2, 22803, Note_on_c, 0, 56, 64
2, 22829, Note_on_c, 0, 74, 0
2, 22833, Note_on_c, 0, 70, 64
2, 22859, Note_on_c, 0, 70, 0
2, 22863, Note_on_c, 0, 77, 64
2, 22881, Note_on_c, 0, 56, 0
2, 22889, Note_on_c, 0, 77, 0
2, 22893, Note_on_c, 0, 74, 64
2, 22893, Note_on_c, 0, 53, 64
2, 22919, Note_on_c, 0, 53, 0
2, 22919, Note_on_c, 0, 74, 0
2, 22923, Note_on_c, 0, 70, 64
2, 22923, Note_on_c, 0, 50, 64
2, 22949, Note_on_c, 0, 70, 0
2, 22953, Note_on_c, 0, 80, 64
2, 22979, Note_on_c, 0, 80, 0
2, 22983, Note_on_c, 0, 78, 64
2, 23001, Note_on_c, 0, 50, 0
2, 23009, Note_on_c, 0, 78, 0
2, 23013, Note_on_c, 0, 77, 64
2, 23013, Note_on_c, 0, 46, 64
2, 23039, Note_on_c, 0, 46, 0
2, 23039, Note_on_c, 0, 77, 0
2, 23043, Note_on_c, 0, 78, 64
2, 23043, Note_on_c, 0, 51, 64
2, 23121, Note_on_c, 0, 78, 0
2, 23133, Note_on_c, 0, 75, 64
2, 23159, Note_on_c, 0, 75, 0
2, 23163, Note_on_c, 0, 83, 64
2, 23236, Note_on_c, 0, 51, 0
2, 23238, Note_on_c, 0, 51, 64
2, 23251, Note_on_c, 0, 51, 0
2, 23253, Note_on_c, 0, 53, 64
2, 23266, Note_on_c, 0, 53, 0
2, 23268, Note_on_c, 0, 54, 64
2, 23281, Note_on_c, 0, 54, 0
2, 23283, Note_on_c, 0, 56, 64
2, 23356, Note_on_c, 0, 83, 0
2, 23358, Note_on_c, 0, 82, 64
2, 23361, Note_on_c, 0, 56, 0
2, 23371, Note_on_c, 0, 82, 0
2, 23373, Note_on_c, 0, 80, 64
2, 23373, Note_on_c, 0, 59, 64
2, 23386, Note_on_c, 0, 80, 0
2, 23388, Note_on_c, 0, 78, 64
2, 23399, Note_on_c, 0, 59, 0
2, 23401, Note_on_c, 0, 78, 0
2, 23403, Note_on_c, 0, 80, 64
2, 23403, Note_on_c, 0, 53, 64
2, 23481, Note_on_c, 0, 80, 0
2, 23493, Note_on_c, 0, 83, 64
2, 23519, Note_on_c, 0, 83, 0
2, 23523, Note_on_c, 0, 73, 64
2, 23596, Note_on_c, 0, 53, 0
2, 23598, Note_on_c, 0, 54, 64
2, 23611, Note_on_c, 0, 54, 0
2, 23613, Note_on_c, 0, 53, 64
2, 23626, Note_on_c, 0, 53, 0
2, 23628, Note_on_c, 0, 51, 64
2, 23641, Note_on_c, 0, 51, 0
2, 23643, Note_on_c, 0, 53, 64
2, 23669, Note_on_c, 0, 73, 0
2, 23673, Note_on_c, 0, 75, 64
2, 23686, Note_on_c, 0, 75, 0
2, 23688, Note_on_c, 0, 77, 64
2, 23701, Note_on_c, 0, 77, 0
2, 23703, Note_on_c, 0, 78, 64
2, 23721, Note_on_c, 0, 53, 0
2, 23729, Note_on_c, 0, 78, 0
2, 23733, Note_on_c, 0, 80, 64
2, 23733, Note_on_c, 0, 49, 64
2, 23759, Note_on_c, 0, 49, 0
2, 23759, Note_on_c, 0, 80, 0
2, 23763, Note_on_c, 0, 82, 64
2, 23763, Note_on_c, 0, 54, 64
2, 23841, Note_on_c, 0, 54, 0
2, 23841, Note_on_c, 0, 82, 0
2, 23853, Note_on_c, 0, 80, 64
2, 23853, Note_on_c, 0, 59, 64
2, 23879, Note_on_c, 0, 59, 0
2, 23879, Note_on_c, 0, 80, 0
2, 23883, Note_on_c, 0, 77, 64
2, 23883, Note_on_c, 0, 61, 64
2, 23956, Note_on_c, 0, 61, 0
2, 23958, Note_on_c, 0, 56, 64
2, 23971, Note_on_c, 0, 56, 0
2, 23973, Note_on_c, 0, 58, 64
2, 23986, Note_on_c, 0, 58, 0
2, 23988, Note_on_c, 0, 59, 64
2, 24001, Note_on_c, 0, 59, 0
2, 24003, Note_on_c, 0, 49, 64
2, 24003, Note_on_c, 0, 49, 64
2, 24048, Note_on_c, 0, 77, 0
2, 24063, Note_on_c, 0, 78, 64
2, 24081, Note_on_c, 0, 49, 0
2, 24093, Note_on_c, 0, 59, 64
2, 24108, Note_on_c, 0, 49, 0
2, 24115, Note_on_c, 0, 78, 0
2, 24119, Note_on_c, 0, 59, 0
2, 24123, Note_on_c, 0, 78, 64
2, 24123, Note_on_c, 0, 54, 64
2, 24123, Note_on_c, 0, 58, 64
2, 24149, Note_on_c, 0, 78, 0
2, 24153, Note_on_c, 0, 82, 64
2, 24175, Note_on_c, 0, 58, 0
2, 24179, Note_on_c, 0, 82, 0
2, 24183, Note_on_c, 0, 73, 64
2, 24201, Note_on_c, 0, 54, 0
2, 24209, Note_on_c, 0, 73, 0
2, 24213, Note_on_c, 0, 77, 64
2, 24213, Note_on_c, 0, 61, 64
2, 24239, Note_on_c, 0, 61, 0
2, 24239, Note_on_c, 0, 77, 0
2, 24243, Note_on_c, 0, 78, 64
2, 24243, Note_on_c, 0, 61, 64
2, 24269, Note_on_c, 0, 78, 0
2, 24273, Note_on_c, 0, 73, 64
2, 24299, Note_on_c, 0, 73, 0
2, 24303, Note_on_c, 0, 82, 64
2, 24321, Note_on_c, 0, 61, 0
2, 24329, Note_on_c, 0, 82, 0
2, 24333, Note_on_c, 0, 78, 64
2, 24333, Note_on_c, 0, 61, 64
2, 24359, Note_on_c, 0, 61, 0
2, 24359, Note_on_c, 0, 78, 0
2, 24363, Note_on_c, 0, 73, 64
2, 24363, Note_on_c, 0, 58, 64
2, 24389, Note_on_c, 0, 73, 0
2, 24393, Note_on_c, 0, 80, 64
2, 24419, Note_on_c, 0, 80, 0
2, 24423, Note_on_c, 0, 78, 64
2, 24441, Note_on_c, 0, 58, 0
2, 24449, Note_on_c, 0, 78, 0
2, 24453, Note_on_c, 0, 77, 64
2, 24453, Note_on_c, 0, 61, 64
2, 24479, Note_on_c, 0, 61, 0
2, 24479, Note_on_c, 0, 77, 0
2, 24483, Note_on_c, 0, 78, 64
2, 24483, Note_on_c, 0, 52, 64
2, 24509, Note_on_c, 0, 78, 0
2, 24513, Note_on_c, 0, 73, 64
2, 24539, Note_on_c, 0, 73, 0
2, 24543, Note_on_c, 0, 70, 64
2, 24561, Note_on_c, 0, 52, 0
2, 24569, Note_on_c, 0, 70, 0
2, 24573, Note_on_c, 0, 71, 64
2, 24573, Note_on_c, 0, 61, 64
2, 24599, Note_on_c, 0, 61, 0
2, 24599, Note_on_c, 0, 71, 0
2, 24603, Note_on_c, 0, 73, 64
2, 24603, Note_on_c, 0, 58, 64
2, 24629, Note_on_c, 0, 73, 0
2, 24633, Note_on_c, 0, 70, 64
2, 24659, Note_on_c, 0, 70, 0
2, 24663, Note_on_c, 0, 78, 64
2, 24681, Note_on_c, 0, 58, 0
2, 24689, Note_on_c, 0, 78, 0
2, 24693, Note_on_c, 0, 73, 64
2, 24693, Note_on_c, 0, 52, 64
2, 24719, Note_on_c, 0, 52, 0
2, 24719, Note_on_c, 0, 73, 0
2, 24723, Note_on_c, 0, 70, 64
2, 24723, Note_on_c, 0, 52, 64
2, 24749, Note_on_c, 0, 70, 0
2, 24753, Note_on_c, 0, 71, 64
2, 24779, Note_on_c, 0, 71, 0
2, 24783, Note_on_c, 0, 70, 64
2, 24801, Note_on_c, 0, 52, 0
2, 24809, Note_on_c, 0, 70, 0
2, 24813, Note_on_c, 0, 68, 64
2, 24813, Note_on_c, 0, 51, 64
2, 24839, Note_on_c, 0, 51, 0
2, 24839, Note_on_c, 0, 68, 0
2, 24843, Note_on_c, 0, 66, 64
2, 24843, Note_on_c, 0, 51, 64
2, 24869, Note_on_c, 0, 66, 0
2, 24873, Note_on_c, 0, 69, 64
2, 24899, Note_on_c, 0, 69, 0
2, 24903, Note_on_c, 0, 60, 64
2, 24921, Note_on_c, 0, 51, 0
2, 24929, Note_on_c, 0, 60, 0
2, 24933, Note_on_c, 0, 65, 64
2, 24933, Note_on_c, 0, 57, 64
2, 24959, Note_on_c, 0, 57, 0
2, 24959, Note_on_c, 0, 65, 0
2, 24963, Note_on_c, 0, 66, 64
2, 24963, Note_on_c, 0, 57, 64
2, 24989, Note_on_c, 0, 66, 0
2, 24993, Note_on_c, 0, 60, 64
2, 25019, Note_on_c, 0, 60, 0
2, 25023, Note_on_c, 0, 69, 64
2, 25041, Note_on_c, 0, 57, 0
2, 25049, Note_on_c, 0, 69, 0
2, 25053, Note_on_c, 0, 66, 64
2, 25053, Note_on_c, 0, 57, 64
2, 25079, Note_on_c, 0, 57, 0
2, 25079, Note_on_c, 0, 66, 0
2, 25083, Note_on_c, 0, 60, 64
2, 25083, Note_on_c, 0, 54, 64
2, 25109, Note_on_c, 0, 60, 0
2, 25113, Note_on_c, 0, 68, 64
2, 25139, Note_on_c, 0, 68, 0
2, 25143, Note_on_c, 0, 66, 64
2, 25161, Note_on_c, 0, 54, 0
2, 25169, Note_on_c, 0, 66, 0
2, 25173, Note_on_c, 0, 65, 64
2, 25173, Note_on_c, 0, 57, 64
2, 25199, Note_on_c, 0, 57, 0
2, 25199, Note_on_c, 0, 65, 0
2, 25203, Note_on_c, 0, 66, 64
2, 25203, Note_on_c, 0, 49, 64
2, 25229, Note_on_c, 0, 66, 0
2, 25233, Note_on_c, 0, 69, 64
2, 25259, Note_on_c, 0, 69, 0
2, 25263, Note_on_c, 0, 73, 64
2, 25281, Note_on_c, 0, 49, 0
2, 25289, Note_on_c, 0, 73, 0
2, 25293, Note_on_c, 0, 71, 64
2, 25293, Note_on_c, 0, 53, 64
2, 25319, Note_on_c, 0, 53, 0
2, 25319, Note_on_c, 0, 71, 0
2, 25323, Note_on_c, 0, 69, 64
2, 25323, Note_on_c, 0, 54, 64
2, 25349, Note_on_c, 0, 69, 0
2, 25353, Note_on_c, 0, 73, 64
2, 25379, Note_on_c, 0, 73, 0
2, 25383, Note_on_c, 0, 66, 64
2, 25401, Note_on_c, 0, 54, 0
2, 25409, Note_on_c, 0, 66, 0
2, 25413, Note_on_c, 0, 69, 64
2, 25413, Note_on_c, 0, 49, 64
2, 25439, Note_on_c, 0, 49, 0
2, 25439, Note_on_c, 0, 69, 0
2, 25443, Note_on_c, 0, 73, 64
2, 25443, Note_on_c, 0, 49, 64
2, 25469, Note_on_c, 0, 73, 0
2, 25473, Note_on_c, 0, 69, 64
2, 25499, Note_on_c, 0, 69, 0
2, 25503, Note_on_c, 0, 73, 64
2, 25521, Note_on_c, 0, 49, 0
2, 25529, Note_on_c, 0, 73, 0
2, 25533, Note_on_c, 0, 77, 64
2, 25533, Note_on_c, 0, 48, 64
2, 25559, Note_on_c, 0, 48, 0
2, 25559, Note_on_c, 0, 77, 0
2, 25563, Note_on_c, 0, 78, 64
2, 25563, Note_on_c, 0, 48, 64
2, 25589, Note_on_c, 0, 78, 0
2, 25593, Note_on_c, 0, 81, 64
2, 25619, Note_on_c, 0, 81, 0
2, 25623, Note_on_c, 0, 75, 64
2, 25641, Note_on_c, 0, 48, 0
2, 25649, Note_on_c, 0, 75, 0
2, 25653, Note_on_c, 0, 77, 64
2, 25653, Note_on_c, 0, 60, 64
2, 25679, Note_on_c, 0, 60, 0
2, 25679, Note_on_c, 0, 77, 0
2, 25683, Note_on_c, 0, 78, 64
2, 25683, Note_on_c, 0, 60, 64
2, 25709, Note_on_c, 0, 78, 0
2, 25713, Note_on_c, 0, 75, 64
2, 25739, Note_on_c, 0, 75, 0
2, 25743, Note_on_c, 0, 81, 64
2, 25761, Note_on_c, 0, 60, 0
2, 25769, Note_on_c, 0, 81, 0
2, 25773, Note_on_c, 0, 78, 64
2, 25773, Note_on_c, 0, 63, 64
2, 25799, Note_on_c, 0, 63, 0
2, 25799, Note_on_c, 0, 78, 0
2, 25803, Note_on_c, 0, 75, 64
2, 25803, Note_on_c, 0, 56, 64
2, 25829, Note_on_c, 0, 75, 0
2, 25833, Note_on_c, 0, 78, 64
2, 25859, Note_on_c, 0, 78, 0
2, 25863, Note_on_c, 0, 77, 64
2, 25881, Note_on_c, 0, 56, 0
2, 25889, Note_on_c, 0, 77, 0
2, 25893, Note_on_c, 0, 75, 64
2, 25893, Note_on_c, 0, 54, 64
2, 25919, Note_on_c, 0, 54, 0
2, 25919, Note_on_c, 0, 75, 0
2, 25923, Note_on_c, 0, 68, 64
2, 25923, Note_on_c, 0, 73, 64
2, 25923, Note_on_c, 0, 77, 64
2, 25923, Note_on_c, 0, 80, 64
2, 25923, Note_on_c, 0, 53, 64
2, 25923, Note_on_c, 0, 47, 64
2, 26028, Note_on_c, 0, 47, 0
2, 26028, Note_on_c, 0, 73, 0
2, 26028, Note_on_c, 0, 77, 0
2, 26028, Note_on_c, 0, 68, 0
2, 26028, Note_on_c, 0, 53, 0
2, 26028, Note_on_c, 0, 80, 0
2, 26133, Note_on_c, 0, 68, 64
2, 26133, Note_on_c, 0, 77, 64
2, 26133, Note_on_c, 0, 73, 64
2, 26133, Note_on_c, 0, 59, 64
2, 26159, Note_on_c, 0, 59, 0
2, 26159, Note_on_c, 0, 68, 0
2, 26159, Note_on_c, 0, 77, 0
2, 26159, Note_on_c, 0, 73, 0
2, 26163, Note_on_c, 0, 66, 64
2, 26163, Note_on_c, 0, 73, 64
2, 26163, Note_on_c, 0, 78, 64
2, 26163, Note_on_c, 0, 58, 64
2, 26189, Note_on_c, 0, 73, 0
2, 26189, Note_on_c, 0, 66, 0
2, 26202, Note_on_c, 0, 78, 0
2, 26208, Note_on_c, 0, 77, 64
2, 26214, Note_on_c, 0, 77, 0
2, 26215, Note_on_c, 0, 58, 0
2, 26215, Note_on_c, 0, 75, 64
2, 26222, Note_on_c, 0, 75, 0
2, 26223, Note_on_c, 0, 73, 64
2, 26236, Note_on_c, 0, 73, 0
2, 26238, Note_on_c, 0, 71, 64
2, 26251, Note_on_c, 0, 71, 0
2, 26253, Note_on_c, 0, 70, 64
2, 26266, Note_on_c, 0, 70, 0
2, 26268, Note_on_c, 0, 68, 64
2, 26281, Note_on_c, 0, 68, 0
2, 26283, Note_on_c, 0, 66, 64
2, 26361, Note_on_c, 0, 66, 0
2, 26373, Note_on_c, 0, 66, 64
2, 26373, Note_on_c, 0, 75, 64
2, 26373, Note_on_c, 0, 48, 64
2, 26373, Note_on_c, 0, 57, 64
2, 26399, Note_on_c, 0, 57, 0
2, 26399, Note_on_c, 0, 66, 0
2, 26399, Note_on_c, 0, 75, 0
2, 26399, Note_on_c, 0, 48, 0
2, 26403, Note_on_c, 0, 61, 64
2, 26403, Note_on_c, 0, 66, 64
2, 26403, Note_on_c, 0, 49, 64
2, 26403, Note_on_c, 0, 56, 64
2, 26481, Note_on_c, 0, 56, 0
2, 26493, Note_on_c, 0, 58, 64
2, 26508, Note_on_c, 0, 66, 0
2, 26519, Note_on_c, 0, 58, 0
2, 26523, Note_on_c, 0, 65, 64
2, 26523, Note_on_c, 0, 59, 64
2, 26601, Note_on_c, 0, 65, 0
2, 26613, Note_on_c, 0, 66, 64
2, 26628, Note_on_c, 0, 61, 0
2, 26628, Note_on_c, 0, 59, 0
2, 26628, Note_on_c, 0, 49, 0
2, 26639, Note_on_c, 0, 66, 0
2, 26643, Note_on_c, 0, 58, 64
2, 26643, Note_on_c, 0, 61, 64
2, 26643, Note_on_c, 0, 66, 64
2, 26643, Note_on_c, 0, 42, 64
2, 26988, Note_on_c, 0, 42, 0
2, 26988, Note_on_c, 0, 58, 0
2, 26988, Note_on_c, 0, 61, 0
2, 26988, Note_on_c, 0, 66, 0
2, 26988, End_track
0, 0, End_of_file
