0, 0, Header, 1, 2, 120
1, 0, Start_track
1, 0, Time_signature, 2, 1, 48, 8
1, 0, Key_signature, 6, "major"
1, 0, Tempo, 447761
1, 0, Marker_t, "(c) Yo Tomita, 1997"
1, 39502, Tempo, 483871
1, 39600, Tempo, 495868
1, 39724, Tempo, 506329
1, 39840, Tempo, 517241
1, 39970, Tempo, 533333
1, 40086, Tempo, 547945
1, 40210, Tempo, 563380
1, 40276, Tempo, 597015
1, 40320, Tempo, 670391
1, 40320, End_track
2, 0, Start_track
2, 0, MIDI_port, 0
2, 0, Title_t, "BWV 882/2"
2, 0, Program_c, 0, 6
2, 245, Note_on_c, 0, 65, 64
2, 310, Note_on_c, 0, 66, 64
2, 314, Note_on_c, 0, 65, 0
2, 340, Note_on_c, 0, 65, 64
2, 344, Note_on_c, 0, 66, 0
2, 370, Note_on_c, 0, 66, 64
2, 374, Note_on_c, 0, 65, 0
2, 399, Note_on_c, 0, 66, 0
2, 400, Note_on_c, 0, 65, 64
2, 424, Note_on_c, 0, 65, 0
2, 425, Note_on_c, 0, 63, 64
2, 451, Note_on_c, 0, 63, 0
2, 455, Note_on_c, 0, 65, 64
2, 481, Note_on_c, 0, 65, 0
2, 485, Note_on_c, 0, 66, 64
2, 590, Note_on_c, 0, 66, 0
2, 725, Note_on_c, 0, 61, 64
2, 830, Note_on_c, 0, 61, 0
2, 845, Note_on_c, 0, 63, 64
2, 950, Note_on_c, 0, 63, 0
2, 965, Note_on_c, 0, 64, 64
2, 1130, Note_on_c, 0, 64, 0
2, 1145, Note_on_c, 0, 63, 64
2, 1171, Note_on_c, 0, 63, 0
2, 1175, Note_on_c, 0, 61, 64
2, 1201, Note_on_c, 0, 61, 0
2, 1205, Note_on_c, 0, 59, 64
2, 1257, Note_on_c, 0, 59, 0
2, 1265, Note_on_c, 0, 58, 64
2, 1317, Note_on_c, 0, 58, 0
2, 1325, Note_on_c, 0, 59, 64
2, 1377, Note_on_c, 0, 59, 0
2, 1385, Note_on_c, 0, 61, 64
2, 1437, Note_on_c, 0, 61, 0
2, 1445, Note_on_c, 0, 63, 64
2, 1497, Note_on_c, 0, 63, 0
2, 1505, Note_on_c, 0, 65, 64
2, 1557, Note_on_c, 0, 65, 0
2, 1565, Note_on_c, 0, 66, 64
2, 1617, Note_on_c, 0, 66, 0
2, 1625, Note_on_c, 0, 63, 64
2, 1677, Note_on_c, 0, 63, 0
2, 1685, Note_on_c, 0, 68, 64
2, 1790, Note_on_c, 0, 68, 0
2, 1805, Note_on_c, 0, 59, 64
2, 1910, Note_on_c, 0, 59, 0
2, 1925, Note_on_c, 0, 61, 64
2, 1940, Note_on_c, 0, 59, 64
2, 1959, Note_on_c, 0, 61, 0
2, 1965, Note_on_c, 0, 61, 64
2, 1974, Note_on_c, 0, 59, 0
2, 1980, Note_on_c, 0, 59, 64
2, 1999, Note_on_c, 0, 61, 0
2, 2039, Note_on_c, 0, 59, 0
2, 2045, Note_on_c, 0, 58, 64
2, 2097, Note_on_c, 0, 58, 0
2, 2105, Note_on_c, 0, 56, 64
2, 2157, Note_on_c, 0, 56, 0
2, 2160, Note_on_c, 0, 72, 64
2, 2165, Note_on_c, 0, 54, 64
2, 2230, Note_on_c, 0, 73, 64
2, 2234, Note_on_c, 0, 72, 0
2, 2260, Note_on_c, 0, 72, 64
2, 2264, Note_on_c, 0, 73, 0
2, 2285, Note_on_c, 0, 54, 0
2, 2285, Note_on_c, 0, 66, 64
2, 2290, Note_on_c, 0, 73, 64
2, 2294, Note_on_c, 0, 72, 0
2, 2319, Note_on_c, 0, 73, 0
2, 2320, Note_on_c, 0, 72, 64
2, 2344, Note_on_c, 0, 72, 0
2, 2345, Note_on_c, 0, 70, 64
2, 2371, Note_on_c, 0, 70, 0
2, 2375, Note_on_c, 0, 72, 64
2, 2390, Note_on_c, 0, 66, 0
2, 2401, Note_on_c, 0, 72, 0
2, 2405, Note_on_c, 0, 73, 64
2, 2405, Note_on_c, 0, 66, 64
2, 2510, Note_on_c, 0, 66, 0
2, 2510, Note_on_c, 0, 73, 0
2, 2525, Note_on_c, 0, 65, 64
2, 2630, Note_on_c, 0, 65, 0
2, 2645, Note_on_c, 0, 68, 64
2, 2750, Note_on_c, 0, 68, 0
2, 2765, Note_on_c, 0, 70, 64
2, 2765, Note_on_c, 0, 64, 64
2, 2870, Note_on_c, 0, 64, 0
2, 2870, Note_on_c, 0, 70, 0
2, 2885, Note_on_c, 0, 71, 64
2, 2885, Note_on_c, 0, 64, 64
2, 2990, Note_on_c, 0, 64, 0
2, 3005, Note_on_c, 0, 63, 64
2, 3050, Note_on_c, 0, 71, 0
2, 3065, Note_on_c, 0, 70, 64
2, 3091, Note_on_c, 0, 70, 0
2, 3095, Note_on_c, 0, 68, 64
2, 3110, Note_on_c, 0, 63, 0
2, 3121, Note_on_c, 0, 68, 0
2, 3125, Note_on_c, 0, 66, 64
2, 3177, Note_on_c, 0, 66, 0
2, 3185, Note_on_c, 0, 65, 64
2, 3237, Note_on_c, 0, 65, 0
2, 3245, Note_on_c, 0, 66, 64
2, 3245, Note_on_c, 0, 63, 64
2, 3297, Note_on_c, 0, 63, 0
2, 3297, Note_on_c, 0, 66, 0
2, 3305, Note_on_c, 0, 68, 64
2, 3305, Note_on_c, 0, 65, 64
2, 3357, Note_on_c, 0, 65, 0
2, 3357, Note_on_c, 0, 68, 0
2, 3365, Note_on_c, 0, 70, 64
2, 3365, Note_on_c, 0, 66, 64
2, 3417, Note_on_c, 0, 70, 0
2, 3425, Note_on_c, 0, 72, 64
2, 3470, Note_on_c, 0, 66, 0
2, 3477, Note_on_c, 0, 72, 0
2, 3485, Note_on_c, 0, 73, 64
2, 3485, Note_on_c, 0, 58, 64
2, 3537, Note_on_c, 0, 73, 0
2, 3545, Note_on_c, 0, 70, 64
2, 3590, Note_on_c, 0, 58, 0
2, 3597, Note_on_c, 0, 70, 0
2, 3605, Note_on_c, 0, 61, 64
2, 3605, Note_on_c, 0, 75, 64
2, 3635, Note_on_c, 0, 60, 64
2, 3644, Note_on_c, 0, 61, 0
2, 3655, Note_on_c, 0, 61, 64
2, 3664, Note_on_c, 0, 60, 0
2, 3670, Note_on_c, 0, 60, 64
2, 3679, Note_on_c, 0, 61, 0
2, 3685, Note_on_c, 0, 61, 64
2, 3694, Note_on_c, 0, 60, 0
2, 3700, Note_on_c, 0, 60, 64
2, 3709, Note_on_c, 0, 61, 0
2, 3710, Note_on_c, 0, 75, 0
2, 3715, Note_on_c, 0, 61, 64
2, 3724, Note_on_c, 0, 60, 0
2, 3725, Note_on_c, 0, 66, 64
2, 3730, Note_on_c, 0, 60, 64
2, 3739, Note_on_c, 0, 61, 0
2, 3745, Note_on_c, 0, 61, 64
2, 3754, Note_on_c, 0, 60, 0
2, 3760, Note_on_c, 0, 60, 64
2, 3769, Note_on_c, 0, 61, 0
2, 3775, Note_on_c, 0, 61, 64
2, 3784, Note_on_c, 0, 60, 0
2, 3795, Note_on_c, 0, 58, 64
2, 3799, Note_on_c, 0, 61, 0
2, 3815, Note_on_c, 0, 60, 64
2, 3824, Note_on_c, 0, 58, 0
2, 3830, Note_on_c, 0, 66, 0
2, 3844, Note_on_c, 0, 60, 0
2, 3845, Note_on_c, 0, 66, 64
2, 3845, Note_on_c, 0, 61, 64
2, 3950, Note_on_c, 0, 61, 0
2, 3950, Note_on_c, 0, 66, 0
2, 3965, Note_on_c, 0, 65, 64
2, 3965, Note_on_c, 0, 56, 64
2, 4017, Note_on_c, 0, 65, 0
2, 4025, Note_on_c, 0, 63, 64
2, 4070, Note_on_c, 0, 56, 0
2, 4077, Note_on_c, 0, 63, 0
2, 4085, Note_on_c, 0, 61, 64
2, 4085, Note_on_c, 0, 53, 64
2, 4145, Note_on_c, 0, 53, 0
2, 4145, Note_on_c, 0, 54, 64
2, 4175, Note_on_c, 0, 54, 0
2, 4175, Note_on_c, 0, 53, 64
2, 4205, Note_on_c, 0, 53, 0
2, 4205, Note_on_c, 0, 54, 64
2, 4205, Note_on_c, 0, 71, 64
2, 4235, Note_on_c, 0, 54, 0
2, 4235, Note_on_c, 0, 53, 64
2, 4265, Note_on_c, 0, 53, 0
2, 4265, Note_on_c, 0, 51, 64
2, 4291, Note_on_c, 0, 51, 0
2, 4295, Note_on_c, 0, 53, 64
2, 4310, Note_on_c, 0, 71, 0
2, 4321, Note_on_c, 0, 53, 0
2, 4325, Note_on_c, 0, 71, 64
2, 4325, Note_on_c, 0, 54, 64
2, 4430, Note_on_c, 0, 54, 0
2, 4430, Note_on_c, 0, 71, 0
2, 4445, Note_on_c, 0, 70, 64
2, 4505, Note_on_c, 0, 61, 0
2, 4505, Note_on_c, 0, 63, 64
2, 4550, Note_on_c, 0, 70, 0
2, 4557, Note_on_c, 0, 63, 0
2, 4565, Note_on_c, 0, 64, 64
2, 4565, Note_on_c, 0, 49, 64
2, 4670, Note_on_c, 0, 49, 0
2, 4670, Note_on_c, 0, 64, 0
2, 4685, Note_on_c, 0, 69, 64
2, 4685, Note_on_c, 0, 66, 64
2, 4685, Note_on_c, 0, 51, 64
2, 4790, Note_on_c, 0, 51, 0
2, 4790, Note_on_c, 0, 66, 0
2, 4790, Note_on_c, 0, 69, 0
2, 4805, Note_on_c, 0, 69, 64
2, 4805, Note_on_c, 0, 59, 64
2, 4805, Note_on_c, 0, 52, 64
2, 4910, Note_on_c, 0, 69, 0
2, 4925, Note_on_c, 0, 68, 64
2, 4970, Note_on_c, 0, 52, 0
2, 4970, Note_on_c, 0, 59, 0
2, 4985, Note_on_c, 0, 61, 64
2, 4985, Note_on_c, 0, 51, 64
2, 5011, Note_on_c, 0, 51, 0
2, 5015, Note_on_c, 0, 49, 64
2, 5030, Note_on_c, 0, 68, 0
2, 5037, Note_on_c, 0, 61, 0
2, 5041, Note_on_c, 0, 49, 0
2, 5045, Note_on_c, 0, 63, 64
2, 5045, Note_on_c, 0, 47, 64
2, 5097, Note_on_c, 0, 47, 0
2, 5105, Note_on_c, 0, 46, 64
2, 5150, Note_on_c, 0, 63, 0
2, 5157, Note_on_c, 0, 46, 0
2, 5165, Note_on_c, 0, 68, 64
2, 5165, Note_on_c, 0, 65, 64
2, 5165, Note_on_c, 0, 47, 64
2, 5217, Note_on_c, 0, 47, 0
2, 5217, Note_on_c, 0, 68, 0
2, 5225, Note_on_c, 0, 70, 64
2, 5225, Note_on_c, 0, 49, 64
2, 5270, Note_on_c, 0, 65, 0
2, 5277, Note_on_c, 0, 49, 0
2, 5277, Note_on_c, 0, 70, 0
2, 5285, Note_on_c, 0, 71, 64
2, 5285, Note_on_c, 0, 66, 64
2, 5285, Note_on_c, 0, 51, 64
2, 5337, Note_on_c, 0, 51, 0
2, 5345, Note_on_c, 0, 53, 64
2, 5390, Note_on_c, 0, 66, 0
2, 5390, Note_on_c, 0, 71, 0
2, 5397, Note_on_c, 0, 53, 0
2, 5405, Note_on_c, 0, 63, 64
2, 5405, Note_on_c, 0, 59, 64
2, 5405, Note_on_c, 0, 54, 64
2, 5457, Note_on_c, 0, 54, 0
2, 5465, Note_on_c, 0, 51, 64
2, 5510, Note_on_c, 0, 63, 0
2, 5517, Note_on_c, 0, 51, 0
2, 5525, Note_on_c, 0, 65, 64
2, 5525, Note_on_c, 0, 56, 64
2, 5630, Note_on_c, 0, 56, 0
2, 5630, Note_on_c, 0, 59, 0
2, 5645, Note_on_c, 0, 58, 64
2, 5645, Note_on_c, 0, 47, 64
2, 5697, Note_on_c, 0, 58, 0
2, 5705, Note_on_c, 0, 56, 64
2, 5750, Note_on_c, 0, 47, 0
2, 5750, Note_on_c, 0, 65, 0
2, 5757, Note_on_c, 0, 56, 0
2, 5765, Note_on_c, 0, 66, 64
2, 5765, Note_on_c, 0, 54, 64
2, 5765, Note_on_c, 0, 47, 64
2, 5817, Note_on_c, 0, 66, 0
2, 5825, Note_on_c, 0, 65, 64
2, 5870, Note_on_c, 0, 47, 0
2, 5877, Note_on_c, 0, 65, 0
2, 5885, Note_on_c, 0, 66, 64
2, 5885, Note_on_c, 0, 46, 64
2, 5937, Note_on_c, 0, 46, 0
2, 5937, Note_on_c, 0, 66, 0
2, 5945, Note_on_c, 0, 68, 64
2, 5945, Note_on_c, 0, 44, 64
2, 5990, Note_on_c, 0, 54, 0
2, 5997, Note_on_c, 0, 44, 0
2, 5997, Note_on_c, 0, 68, 0
2, 6005, Note_on_c, 0, 70, 64
2, 6005, Note_on_c, 0, 42, 64
2, 6057, Note_on_c, 0, 70, 0
2, 6065, Note_on_c, 0, 68, 64
2, 6110, Note_on_c, 0, 42, 0
2, 6117, Note_on_c, 0, 68, 0
2, 6125, Note_on_c, 0, 70, 64
2, 6125, Note_on_c, 0, 61, 64
2, 6125, Note_on_c, 0, 54, 64
2, 6177, Note_on_c, 0, 70, 0
2, 6185, Note_on_c, 0, 66, 64
2, 6230, Note_on_c, 0, 61, 0
2, 6237, Note_on_c, 0, 66, 0
2, 6245, Note_on_c, 0, 63, 64
2, 6245, Note_on_c, 0, 60, 64
2, 6350, Note_on_c, 0, 63, 0
2, 6350, Note_on_c, 0, 54, 0
2, 6365, Note_on_c, 0, 68, 64
2, 6365, Note_on_c, 0, 53, 64
2, 6417, Note_on_c, 0, 53, 0
2, 6425, Note_on_c, 0, 51, 64
2, 6470, Note_on_c, 0, 60, 0
2, 6477, Note_on_c, 0, 51, 0
2, 6485, Note_on_c, 0, 62, 64
2, 6485, Note_on_c, 0, 53, 64
2, 6537, Note_on_c, 0, 68, 0
2, 6545, Note_on_c, 0, 66, 64
2, 6590, Note_on_c, 0, 53, 0
2, 6597, Note_on_c, 0, 66, 0
2, 6605, Note_on_c, 0, 68, 64
2, 6605, Note_on_c, 0, 46, 64
2, 6657, Note_on_c, 0, 68, 0
2, 6665, Note_on_c, 0, 65, 64
2, 6710, Note_on_c, 0, 46, 0
2, 6710, Note_on_c, 0, 62, 0
2, 6717, Note_on_c, 0, 65, 0
2, 6725, Note_on_c, 0, 66, 64
2, 6725, Note_on_c, 0, 63, 64
2, 6725, Note_on_c, 0, 39, 64
2, 6777, Note_on_c, 0, 66, 0
2, 6785, Note_on_c, 0, 70, 64
2, 6830, Note_on_c, 0, 39, 0
2, 6837, Note_on_c, 0, 70, 0
2, 6845, Note_on_c, 0, 72, 64
2, 6845, Note_on_c, 0, 51, 64
2, 6897, Note_on_c, 0, 72, 0
2, 6905, Note_on_c, 0, 74, 64
2, 6950, Note_on_c, 0, 63, 0
2, 6957, Note_on_c, 0, 74, 0
2, 6965, Note_on_c, 0, 75, 64
2, 7017, Note_on_c, 0, 75, 0
2, 7017, Note_on_c, 0, 51, 0
2, 7025, Note_on_c, 0, 77, 64
2, 7025, Note_on_c, 0, 50, 64
2, 7077, Note_on_c, 0, 50, 0
2, 7077, Note_on_c, 0, 77, 0
2, 7085, Note_on_c, 0, 78, 64
2, 7085, Note_on_c, 0, 71, 64
2, 7085, Note_on_c, 0, 51, 64
2, 7137, Note_on_c, 0, 51, 0
2, 7137, Note_on_c, 0, 78, 0
2, 7145, Note_on_c, 0, 75, 64
2, 7145, Note_on_c, 0, 47, 64
2, 7197, Note_on_c, 0, 47, 0
2, 7197, Note_on_c, 0, 75, 0
2, 7205, Note_on_c, 0, 77, 64
2, 7205, Note_on_c, 0, 44, 64
2, 7310, Note_on_c, 0, 44, 0
2, 7310, Note_on_c, 0, 71, 0
2, 7325, Note_on_c, 0, 70, 64
2, 7325, Note_on_c, 0, 49, 64
2, 7377, Note_on_c, 0, 70, 0
2, 7385, Note_on_c, 0, 68, 64
2, 7430, Note_on_c, 0, 77, 0
2, 7437, Note_on_c, 0, 68, 0
2, 7445, Note_on_c, 0, 79, 64
2, 7445, Note_on_c, 0, 70, 64
2, 7497, Note_on_c, 0, 49, 0
2, 7505, Note_on_c, 0, 47, 64
2, 7550, Note_on_c, 0, 70, 0
2, 7557, Note_on_c, 0, 47, 0
2, 7565, Note_on_c, 0, 75, 64
2, 7565, Note_on_c, 0, 49, 64
2, 7617, Note_on_c, 0, 49, 0
2, 7625, Note_on_c, 0, 46, 64
2, 7670, Note_on_c, 0, 79, 0
2, 7677, Note_on_c, 0, 46, 0
2, 7685, Note_on_c, 0, 80, 64
2, 7685, Note_on_c, 0, 47, 64
2, 7737, Note_on_c, 0, 47, 0
2, 7737, Note_on_c, 0, 75, 0
2, 7745, Note_on_c, 0, 73, 64
2, 7745, Note_on_c, 0, 51, 64
2, 7790, Note_on_c, 0, 80, 0
2, 7797, Note_on_c, 0, 51, 0
2, 7797, Note_on_c, 0, 73, 0
2, 7805, Note_on_c, 0, 75, 64
2, 7805, Note_on_c, 0, 71, 64
2, 7805, Note_on_c, 0, 53, 64
2, 7857, Note_on_c, 0, 53, 0
2, 7857, Note_on_c, 0, 71, 0
2, 7857, Note_on_c, 0, 75, 0
2, 7865, Note_on_c, 0, 73, 64
2, 7865, Note_on_c, 0, 70, 64
2, 7865, Note_on_c, 0, 55, 64
2, 7917, Note_on_c, 0, 55, 0
2, 7917, Note_on_c, 0, 70, 0
2, 7917, Note_on_c, 0, 73, 0
2, 7925, Note_on_c, 0, 71, 64
2, 7925, Note_on_c, 0, 68, 64
2, 7925, Note_on_c, 0, 56, 64
2, 7977, Note_on_c, 0, 68, 0
2, 7985, Note_on_c, 0, 67, 64
2, 8030, Note_on_c, 0, 56, 0
2, 8030, Note_on_c, 0, 71, 0
2, 8037, Note_on_c, 0, 67, 0
2, 8045, Note_on_c, 0, 76, 64
2, 8045, Note_on_c, 0, 68, 64
2, 8045, Note_on_c, 0, 61, 64
2, 8097, Note_on_c, 0, 68, 0
2, 8105, Note_on_c, 0, 64, 64
2, 8150, Note_on_c, 0, 61, 0
2, 8157, Note_on_c, 0, 64, 0
2, 8165, Note_on_c, 0, 61, 64
2, 8165, Note_on_c, 0, 58, 64
2, 8270, Note_on_c, 0, 61, 0
2, 8270, Note_on_c, 0, 76, 0
2, 8285, Note_on_c, 0, 75, 64
2, 8285, Note_on_c, 0, 66, 64
2, 8337, Note_on_c, 0, 75, 0
2, 8345, Note_on_c, 0, 73, 64
2, 8390, Note_on_c, 0, 58, 0
2, 8397, Note_on_c, 0, 73, 0
2, 8405, Note_on_c, 0, 75, 64
2, 8405, Note_on_c, 0, 60, 64
2, 8457, Note_on_c, 0, 66, 0
2, 8465, Note_on_c, 0, 65, 64
2, 8510, Note_on_c, 0, 75, 0
2, 8517, Note_on_c, 0, 65, 0
2, 8525, Note_on_c, 0, 80, 64
2, 8525, Note_on_c, 0, 66, 64
2, 8577, Note_on_c, 0, 66, 0
2, 8585, Note_on_c, 0, 63, 64
2, 8630, Note_on_c, 0, 60, 0
2, 8637, Note_on_c, 0, 63, 0
2, 8645, Note_on_c, 0, 65, 64
2, 8645, Note_on_c, 0, 61, 64
2, 8697, Note_on_c, 0, 80, 0
2, 8705, Note_on_c, 0, 78, 64
2, 8750, Note_on_c, 0, 61, 0
2, 8750, Note_on_c, 0, 65, 0
2, 8757, Note_on_c, 0, 78, 0
2, 8765, Note_on_c, 0, 77, 64
2, 8765, Note_on_c, 0, 61, 64
2, 8765, Note_on_c, 0, 59, 64
2, 8817, Note_on_c, 0, 77, 0
2, 8825, Note_on_c, 0, 75, 64
2, 8870, Note_on_c, 0, 59, 0
2, 8870, Note_on_c, 0, 61, 0
2, 8877, Note_on_c, 0, 75, 0
2, 8885, Note_on_c, 0, 73, 64
2, 8885, Note_on_c, 0, 66, 64
2, 8885, Note_on_c, 0, 58, 64
2, 8937, Note_on_c, 0, 73, 0
2, 8945, Note_on_c, 0, 71, 64
2, 8990, Note_on_c, 0, 66, 0
2, 8997, Note_on_c, 0, 71, 0
2, 9005, Note_on_c, 0, 73, 64
2, 9005, Note_on_c, 0, 64, 64
2, 9057, Note_on_c, 0, 73, 0
2, 9065, Note_on_c, 0, 70, 64
2, 9110, Note_on_c, 0, 64, 0
2, 9117, Note_on_c, 0, 70, 0
2, 9125, Note_on_c, 0, 66, 64
2, 9125, Note_on_c, 0, 63, 64
2, 9230, Note_on_c, 0, 66, 0
2, 9230, Note_on_c, 0, 58, 0
2, 9245, Note_on_c, 0, 71, 64
2, 9245, Note_on_c, 0, 56, 64
2, 9297, Note_on_c, 0, 56, 0
2, 9305, Note_on_c, 0, 54, 64
2, 9350, Note_on_c, 0, 63, 0
2, 9357, Note_on_c, 0, 54, 0
2, 9365, Note_on_c, 0, 65, 64
2, 9365, Note_on_c, 0, 56, 64
2, 9417, Note_on_c, 0, 71, 0
2, 9425, Note_on_c, 0, 70, 64
2, 9470, Note_on_c, 0, 56, 0
2, 9477, Note_on_c, 0, 70, 0
2, 9485, Note_on_c, 0, 71, 64
2, 9485, Note_on_c, 0, 61, 64
2, 9537, Note_on_c, 0, 71, 0
2, 9545, Note_on_c, 0, 68, 64
2, 9590, Note_on_c, 0, 61, 0
2, 9590, Note_on_c, 0, 65, 0
2, 9597, Note_on_c, 0, 68, 0
2, 9605, Note_on_c, 0, 70, 64
2, 9605, Note_on_c, 0, 66, 64
2, 9605, Note_on_c, 0, 54, 64
2, 9657, Note_on_c, 0, 70, 0
2, 9665, Note_on_c, 0, 71, 64
2, 9710, Note_on_c, 0, 54, 0
2, 9710, Note_on_c, 0, 66, 0
2, 9717, Note_on_c, 0, 71, 0
2, 9725, Note_on_c, 0, 73, 64
2, 9725, Note_on_c, 0, 53, 64
2, 9777, Note_on_c, 0, 53, 0
2, 9777, Note_on_c, 0, 73, 0
2, 9785, Note_on_c, 0, 75, 64
2, 9785, Note_on_c, 0, 51, 64
2, 9837, Note_on_c, 0, 51, 0
2, 9837, Note_on_c, 0, 75, 0
2, 9845, Note_on_c, 0, 77, 64
2, 9845, Note_on_c, 0, 68, 64
2, 9845, Note_on_c, 0, 49, 64
2, 9897, Note_on_c, 0, 77, 0
2, 9905, Note_on_c, 0, 78, 64
2, 9931, Note_on_c, 0, 78, 0
2, 9935, Note_on_c, 0, 77, 64
2, 9950, Note_on_c, 0, 49, 0
2, 9961, Note_on_c, 0, 77, 0
2, 9965, Note_on_c, 0, 75, 64
2, 9965, Note_on_c, 0, 59, 64
2, 10017, Note_on_c, 0, 75, 0
2, 10025, Note_on_c, 0, 77, 64
2, 10070, Note_on_c, 0, 59, 0
2, 10070, Note_on_c, 0, 68, 0
2, 10077, Note_on_c, 0, 77, 0
2, 10085, Note_on_c, 0, 78, 64
2, 10085, Note_on_c, 0, 61, 64
2, 10085, Note_on_c, 0, 59, 64
2, 10190, Note_on_c, 0, 59, 0
2, 10190, Note_on_c, 0, 78, 0
2, 10205, Note_on_c, 0, 58, 64
2, 10250, Note_on_c, 0, 61, 0
2, 10265, Note_on_c, 0, 61, 64
2, 10310, Note_on_c, 0, 58, 0
2, 10317, Note_on_c, 0, 61, 0
2, 10325, Note_on_c, 0, 73, 64
2, 10325, Note_on_c, 0, 66, 64
2, 10430, Note_on_c, 0, 73, 0
2, 10445, Note_on_c, 0, 75, 64
2, 10445, Note_on_c, 0, 57, 64
2, 10550, Note_on_c, 0, 57, 0
2, 10550, Note_on_c, 0, 75, 0
2, 10550, Note_on_c, 0, 66, 0
2, 10565, Note_on_c, 0, 76, 64
2, 10565, Note_on_c, 0, 59, 64
2, 10565, Note_on_c, 0, 57, 64
2, 10670, Note_on_c, 0, 57, 0
2, 10685, Note_on_c, 0, 56, 64
2, 10730, Note_on_c, 0, 59, 0
2, 10730, Note_on_c, 0, 76, 0
2, 10745, Note_on_c, 0, 75, 64
2, 10745, Note_on_c, 0, 59, 64
2, 10771, Note_on_c, 0, 75, 0
2, 10775, Note_on_c, 0, 73, 64
2, 10790, Note_on_c, 0, 56, 0
2, 10797, Note_on_c, 0, 59, 0
2, 10801, Note_on_c, 0, 73, 0
2, 10805, Note_on_c, 0, 71, 64
2, 10805, Note_on_c, 0, 64, 64
2, 10857, Note_on_c, 0, 71, 0
2, 10865, Note_on_c, 0, 70, 64
2, 10917, Note_on_c, 0, 70, 0
2, 10925, Note_on_c, 0, 71, 64
2, 10925, Note_on_c, 0, 56, 64
2, 10977, Note_on_c, 0, 56, 0
2, 10977, Note_on_c, 0, 71, 0
2, 10985, Note_on_c, 0, 73, 64
2, 10985, Note_on_c, 0, 58, 64
2, 11030, Note_on_c, 0, 64, 0
2, 11037, Note_on_c, 0, 58, 0
2, 11037, Note_on_c, 0, 73, 0
2, 11045, Note_on_c, 0, 75, 64
2, 11045, Note_on_c, 0, 63, 64
2, 11045, Note_on_c, 0, 59, 64
2, 11097, Note_on_c, 0, 75, 0
2, 11105, Note_on_c, 0, 77, 64
2, 11150, Note_on_c, 0, 59, 0
2, 11157, Note_on_c, 0, 77, 0
2, 11165, Note_on_c, 0, 78, 64
2, 11165, Note_on_c, 0, 51, 64
2, 11217, Note_on_c, 0, 78, 0
2, 11225, Note_on_c, 0, 75, 64
2, 11270, Note_on_c, 0, 51, 0
2, 11270, Note_on_c, 0, 63, 0
2, 11277, Note_on_c, 0, 75, 0
2, 11285, Note_on_c, 0, 80, 64
2, 11285, Note_on_c, 0, 61, 64
2, 11285, Note_on_c, 0, 53, 64
2, 11390, Note_on_c, 0, 80, 0
2, 11405, Note_on_c, 0, 71, 64
2, 11510, Note_on_c, 0, 71, 0
2, 11510, Note_on_c, 0, 53, 0
2, 11525, Note_on_c, 0, 73, 64
2, 11525, Note_on_c, 0, 54, 64
2, 11540, Note_on_c, 0, 71, 64
2, 11549, Note_on_c, 0, 73, 0
2, 11555, Note_on_c, 0, 73, 64
2, 11564, Note_on_c, 0, 71, 0
2, 11570, Note_on_c, 0, 71, 64
2, 11577, Note_on_c, 0, 54, 0
2, 11579, Note_on_c, 0, 73, 0
2, 11585, Note_on_c, 0, 53, 64
2, 11637, Note_on_c, 0, 53, 0
2, 11644, Note_on_c, 0, 71, 0
2, 11645, Note_on_c, 0, 70, 64
2, 11645, Note_on_c, 0, 54, 64
2, 11697, Note_on_c, 0, 54, 0
2, 11705, Note_on_c, 0, 56, 64
2, 11750, Note_on_c, 0, 70, 0
2, 11750, Note_on_c, 0, 61, 0
2, 11757, Note_on_c, 0, 56, 0
2, 11765, Note_on_c, 0, 78, 64
2, 11765, Note_on_c, 0, 58, 64
2, 11817, Note_on_c, 0, 58, 0
2, 11825, Note_on_c, 0, 54, 64
2, 11870, Note_on_c, 0, 78, 0
2, 11877, Note_on_c, 0, 54, 0
2, 11885, Note_on_c, 0, 70, 64
2, 11885, Note_on_c, 0, 66, 64
2, 11885, Note_on_c, 0, 51, 64
2, 11937, Note_on_c, 0, 51, 0
2, 11945, Note_on_c, 0, 54, 64
2, 11990, Note_on_c, 0, 66, 0
2, 11990, Note_on_c, 0, 70, 0
2, 11997, Note_on_c, 0, 54, 0
2, 12005, Note_on_c, 0, 71, 64
2, 12005, Note_on_c, 0, 66, 64
2, 12005, Note_on_c, 0, 59, 64
2, 12025, Note_on_c, 0, 70, 64
2, 12039, Note_on_c, 0, 71, 0
2, 12045, Note_on_c, 0, 71, 64
2, 12057, Note_on_c, 0, 59, 0
2, 12059, Note_on_c, 0, 70, 0
2, 12065, Note_on_c, 0, 70, 64
2, 12065, Note_on_c, 0, 58, 64
2, 12079, Note_on_c, 0, 71, 0
2, 12110, Note_on_c, 0, 66, 0
2, 12117, Note_on_c, 0, 58, 0
2, 12124, Note_on_c, 0, 70, 0
2, 12125, Note_on_c, 0, 68, 64
2, 12125, Note_on_c, 0, 65, 64
2, 12125, Note_on_c, 0, 59, 64
2, 12177, Note_on_c, 0, 59, 0
2, 12185, Note_on_c, 0, 56, 64
2, 12230, Note_on_c, 0, 65, 0
2, 12230, Note_on_c, 0, 68, 0
2, 12237, Note_on_c, 0, 56, 0
2, 12245, Note_on_c, 0, 77, 64
2, 12245, Note_on_c, 0, 62, 64
2, 12297, Note_on_c, 0, 62, 0
2, 12305, Note_on_c, 0, 60, 64
2, 12350, Note_on_c, 0, 77, 0
2, 12357, Note_on_c, 0, 60, 0
2, 12365, Note_on_c, 0, 68, 64
2, 12365, Note_on_c, 0, 65, 64
2, 12365, Note_on_c, 0, 62, 64
2, 12417, Note_on_c, 0, 62, 0
2, 12425, Note_on_c, 0, 58, 64
2, 12470, Note_on_c, 0, 65, 0
2, 12470, Note_on_c, 0, 68, 0
2, 12477, Note_on_c, 0, 58, 0
2, 12485, Note_on_c, 0, 70, 64
2, 12485, Note_on_c, 0, 65, 64
2, 12485, Note_on_c, 0, 63, 64
2, 12510, Note_on_c, 0, 68, 64
2, 12524, Note_on_c, 0, 70, 0
2, 12525, Note_on_c, 0, 70, 64
2, 12537, Note_on_c, 0, 63, 0
2, 12545, Note_on_c, 0, 58, 64
2, 12549, Note_on_c, 0, 68, 0
2, 12550, Note_on_c, 0, 68, 64
2, 12564, Note_on_c, 0, 70, 0
2, 12590, Note_on_c, 0, 65, 0
2, 12597, Note_on_c, 0, 58, 0
2, 12604, Note_on_c, 0, 68, 0
2, 12605, Note_on_c, 0, 66, 64
2, 12605, Note_on_c, 0, 63, 64
2, 12605, Note_on_c, 0, 51, 64
2, 12657, Note_on_c, 0, 51, 0
2, 12665, Note_on_c, 0, 50, 64
2, 12710, Note_on_c, 0, 63, 0
2, 12710, Note_on_c, 0, 66, 0
2, 12717, Note_on_c, 0, 50, 0
2, 12725, Note_on_c, 0, 71, 64
2, 12725, Note_on_c, 0, 51, 64
2, 12777, Note_on_c, 0, 51, 0
2, 12785, Note_on_c, 0, 47, 64
2, 12830, Note_on_c, 0, 71, 0
2, 12837, Note_on_c, 0, 47, 0
2, 12845, Note_on_c, 0, 71, 64
2, 12845, Note_on_c, 0, 63, 64
2, 12845, Note_on_c, 0, 44, 64
2, 12897, Note_on_c, 0, 44, 0
2, 12905, Note_on_c, 0, 47, 64
2, 12950, Note_on_c, 0, 63, 0
2, 12950, Note_on_c, 0, 71, 0
2, 12957, Note_on_c, 0, 47, 0
2, 12965, Note_on_c, 0, 71, 64
2, 12965, Note_on_c, 0, 63, 64
2, 12965, Note_on_c, 0, 52, 64
2, 13017, Note_on_c, 0, 52, 0
2, 13025, Note_on_c, 0, 51, 64
2, 13070, Note_on_c, 0, 63, 0
2, 13070, Note_on_c, 0, 71, 0
2, 13077, Note_on_c, 0, 51, 0
2, 13085, Note_on_c, 0, 70, 64
2, 13085, Note_on_c, 0, 61, 64
2, 13085, Note_on_c, 0, 52, 64
2, 13137, Note_on_c, 0, 52, 0
2, 13145, Note_on_c, 0, 49, 64
2, 13190, Note_on_c, 0, 61, 0
2, 13190, Note_on_c, 0, 70, 0
2, 13197, Note_on_c, 0, 49, 0
2, 13205, Note_on_c, 0, 70, 64
2, 13205, Note_on_c, 0, 55, 64
2, 13257, Note_on_c, 0, 55, 0
2, 13265, Note_on_c, 0, 53, 64
2, 13310, Note_on_c, 0, 70, 0
2, 13317, Note_on_c, 0, 53, 0
2, 13325, Note_on_c, 0, 70, 64
2, 13325, Note_on_c, 0, 61, 64
2, 13325, Note_on_c, 0, 55, 64
2, 13377, Note_on_c, 0, 55, 0
2, 13385, Note_on_c, 0, 51, 64
2, 13430, Note_on_c, 0, 61, 0
2, 13430, Note_on_c, 0, 70, 0
2, 13437, Note_on_c, 0, 51, 0
2, 13445, Note_on_c, 0, 70, 64
2, 13445, Note_on_c, 0, 61, 64
2, 13445, Note_on_c, 0, 56, 64
2, 13497, Note_on_c, 0, 56, 0
2, 13505, Note_on_c, 0, 55, 64
2, 13550, Note_on_c, 0, 61, 0
2, 13550, Note_on_c, 0, 70, 0
2, 13557, Note_on_c, 0, 55, 0
2, 13565, Note_on_c, 0, 68, 64
2, 13565, Note_on_c, 0, 60, 64
2, 13565, Note_on_c, 0, 56, 64
2, 13617, Note_on_c, 0, 56, 0
2, 13625, Note_on_c, 0, 58, 64
2, 13670, Note_on_c, 0, 60, 0
2, 13670, Note_on_c, 0, 68, 0
2, 13677, Note_on_c, 0, 58, 0
2, 13685, Note_on_c, 0, 80, 64
2, 13685, Note_on_c, 0, 60, 64
2, 13737, Note_on_c, 0, 60, 0
2, 13745, Note_on_c, 0, 58, 64
2, 13790, Note_on_c, 0, 80, 0
2, 13797, Note_on_c, 0, 58, 0
2, 13805, Note_on_c, 0, 72, 64
2, 13805, Note_on_c, 0, 68, 64
2, 13805, Note_on_c, 0, 60, 64
2, 13857, Note_on_c, 0, 60, 0
2, 13865, Note_on_c, 0, 56, 64
2, 13910, Note_on_c, 0, 68, 0
2, 13910, Note_on_c, 0, 72, 0
2, 13917, Note_on_c, 0, 56, 0
2, 13925, Note_on_c, 0, 73, 64
2, 13925, Note_on_c, 0, 68, 64
2, 13925, Note_on_c, 0, 61, 64
2, 13950, Note_on_c, 0, 72, 64
2, 13959, Note_on_c, 0, 73, 0
2, 13970, Note_on_c, 0, 73, 64
2, 13977, Note_on_c, 0, 61, 0
2, 13984, Note_on_c, 0, 72, 0
2, 13985, Note_on_c, 0, 60, 64
2, 13995, Note_on_c, 0, 72, 64
2, 14004, Note_on_c, 0, 73, 0
2, 14030, Note_on_c, 0, 68, 0
2, 14037, Note_on_c, 0, 60, 0
2, 14039, Note_on_c, 0, 72, 0
2, 14045, Note_on_c, 0, 70, 64
2, 14045, Note_on_c, 0, 67, 64
2, 14045, Note_on_c, 0, 61, 64
2, 14097, Note_on_c, 0, 61, 0
2, 14105, Note_on_c, 0, 58, 64
2, 14150, Note_on_c, 0, 67, 0
2, 14150, Note_on_c, 0, 70, 0
2, 14157, Note_on_c, 0, 58, 0
2, 14165, Note_on_c, 0, 79, 64
2, 14165, Note_on_c, 0, 64, 64
2, 14217, Note_on_c, 0, 64, 0
2, 14225, Note_on_c, 0, 62, 64
2, 14270, Note_on_c, 0, 79, 0
2, 14277, Note_on_c, 0, 62, 0
2, 14285, Note_on_c, 0, 70, 64
2, 14285, Note_on_c, 0, 67, 64
2, 14285, Note_on_c, 0, 64, 64
2, 14337, Note_on_c, 0, 64, 0
2, 14345, Note_on_c, 0, 60, 64
2, 14390, Note_on_c, 0, 67, 0
2, 14390, Note_on_c, 0, 70, 0
2, 14397, Note_on_c, 0, 60, 0
2, 14405, Note_on_c, 0, 72, 64
2, 14405, Note_on_c, 0, 67, 64
2, 14405, Note_on_c, 0, 65, 64
2, 14420, Note_on_c, 0, 70, 64
2, 14439, Note_on_c, 0, 72, 0
2, 14445, Note_on_c, 0, 72, 64
2, 14454, Note_on_c, 0, 70, 0
2, 14457, Note_on_c, 0, 65, 0
2, 14465, Note_on_c, 0, 70, 64
2, 14465, Note_on_c, 0, 60, 64
2, 14479, Note_on_c, 0, 72, 0
2, 14510, Note_on_c, 0, 67, 0
2, 14517, Note_on_c, 0, 60, 0
2, 14524, Note_on_c, 0, 70, 0
2, 14525, Note_on_c, 0, 68, 64
2, 14525, Note_on_c, 0, 65, 64
2, 14525, Note_on_c, 0, 53, 64
2, 14577, Note_on_c, 0, 53, 0
2, 14585, Note_on_c, 0, 52, 64
2, 14630, Note_on_c, 0, 65, 0
2, 14630, Note_on_c, 0, 68, 0
2, 14637, Note_on_c, 0, 52, 0
2, 14645, Note_on_c, 0, 73, 64
2, 14645, Note_on_c, 0, 53, 64
2, 14697, Note_on_c, 0, 53, 0
2, 14705, Note_on_c, 0, 49, 64
2, 14750, Note_on_c, 0, 73, 0
2, 14757, Note_on_c, 0, 49, 0
2, 14765, Note_on_c, 0, 73, 64
2, 14765, Note_on_c, 0, 65, 64
2, 14765, Note_on_c, 0, 46, 64
2, 14817, Note_on_c, 0, 46, 0
2, 14825, Note_on_c, 0, 49, 64
2, 14870, Note_on_c, 0, 65, 0
2, 14870, Note_on_c, 0, 73, 0
2, 14877, Note_on_c, 0, 49, 0
2, 14885, Note_on_c, 0, 73, 64
2, 14885, Note_on_c, 0, 65, 64
2, 14885, Note_on_c, 0, 54, 64
2, 14937, Note_on_c, 0, 54, 0
2, 14945, Note_on_c, 0, 53, 64
2, 14990, Note_on_c, 0, 65, 0
2, 14990, Note_on_c, 0, 73, 0
2, 14997, Note_on_c, 0, 53, 0
2, 15005, Note_on_c, 0, 72, 64
2, 15005, Note_on_c, 0, 63, 64
2, 15005, Note_on_c, 0, 54, 64
2, 15057, Note_on_c, 0, 54, 0
2, 15065, Note_on_c, 0, 51, 64
2, 15110, Note_on_c, 0, 63, 0
2, 15117, Note_on_c, 0, 51, 0
2, 15125, Note_on_c, 0, 72, 64
2, 15125, Note_on_c, 0, 57, 64
2, 15177, Note_on_c, 0, 57, 0
2, 15185, Note_on_c, 0, 55, 64
2, 15230, Note_on_c, 0, 72, 0
2, 15230, Note_on_c, 0, 72, 0
2, 15237, Note_on_c, 0, 55, 0
2, 15245, Note_on_c, 0, 72, 64
2, 15245, Note_on_c, 0, 63, 64
2, 15245, Note_on_c, 0, 57, 64
2, 15297, Note_on_c, 0, 57, 0
2, 15305, Note_on_c, 0, 53, 64
2, 15350, Note_on_c, 0, 63, 0
2, 15350, Note_on_c, 0, 72, 0
2, 15357, Note_on_c, 0, 53, 0
2, 15365, Note_on_c, 0, 72, 64
2, 15365, Note_on_c, 0, 63, 64
2, 15365, Note_on_c, 0, 58, 64
2, 15417, Note_on_c, 0, 58, 0
2, 15425, Note_on_c, 0, 57, 64
2, 15470, Note_on_c, 0, 63, 0
2, 15470, Note_on_c, 0, 72, 0
2, 15477, Note_on_c, 0, 57, 0
2, 15485, Note_on_c, 0, 70, 64
2, 15485, Note_on_c, 0, 61, 64
2, 15485, Note_on_c, 0, 58, 64
2, 15537, Note_on_c, 0, 58, 0
2, 15545, Note_on_c, 0, 60, 64
2, 15590, Note_on_c, 0, 61, 0
2, 15590, Note_on_c, 0, 70, 0
2, 15597, Note_on_c, 0, 60, 0
2, 15605, Note_on_c, 0, 75, 64
2, 15605, Note_on_c, 0, 60, 64
2, 15657, Note_on_c, 0, 75, 0
2, 15665, Note_on_c, 0, 73, 64
2, 15669, Note_on_c, 0, 60, 0
2, 15670, Note_on_c, 0, 61, 64
2, 15699, Note_on_c, 0, 61, 0
2, 15700, Note_on_c, 0, 60, 64
2, 15717, Note_on_c, 0, 73, 0
2, 15725, Note_on_c, 0, 75, 64
2, 15725, Note_on_c, 0, 66, 64
2, 15729, Note_on_c, 0, 60, 0
2, 15730, Note_on_c, 0, 61, 64
2, 15759, Note_on_c, 0, 61, 0
2, 15760, Note_on_c, 0, 60, 64
2, 15785, Note_on_c, 0, 58, 64
2, 15789, Note_on_c, 0, 60, 0
2, 15811, Note_on_c, 0, 58, 0
2, 15815, Note_on_c, 0, 60, 64
2, 15830, Note_on_c, 0, 66, 0
2, 15830, Note_on_c, 0, 75, 0
2, 15841, Note_on_c, 0, 60, 0
2, 15845, Note_on_c, 0, 68, 64
2, 15845, Note_on_c, 0, 66, 64
2, 15845, Note_on_c, 0, 61, 64
2, 15950, Note_on_c, 0, 61, 0
2, 15950, Note_on_c, 0, 66, 0
2, 15965, Note_on_c, 0, 65, 64
2, 16010, Note_on_c, 0, 68, 0
2, 16025, Note_on_c, 0, 70, 64
2, 16070, Note_on_c, 0, 65, 0
2, 16077, Note_on_c, 0, 70, 0
2, 16085, Note_on_c, 0, 71, 64
2, 16085, Note_on_c, 0, 56, 64
2, 16190, Note_on_c, 0, 56, 0
2, 16190, Note_on_c, 0, 71, 0
2, 16205, Note_on_c, 0, 73, 64
2, 16205, Note_on_c, 0, 64, 64
2, 16205, Note_on_c, 0, 58, 64
2, 16310, Note_on_c, 0, 58, 0
2, 16310, Note_on_c, 0, 64, 0
2, 16310, Note_on_c, 0, 73, 0
2, 16325, Note_on_c, 0, 66, 64
2, 16325, Note_on_c, 0, 64, 64
2, 16325, Note_on_c, 0, 59, 64
2, 16430, Note_on_c, 0, 64, 0
2, 16445, Note_on_c, 0, 63, 64
2, 16490, Note_on_c, 0, 59, 0
2, 16490, Note_on_c, 0, 66, 0
2, 16505, Note_on_c, 0, 68, 64
2, 16505, Note_on_c, 0, 58, 64
2, 16531, Note_on_c, 0, 58, 0
2, 16535, Note_on_c, 0, 56, 64
2, 16550, Note_on_c, 0, 63, 0
2, 16557, Note_on_c, 0, 68, 0
2, 16561, Note_on_c, 0, 56, 0
2, 16565, Note_on_c, 0, 70, 64
2, 16565, Note_on_c, 0, 54, 64
2, 16617, Note_on_c, 0, 54, 0
2, 16617, Note_on_c, 0, 70, 0
2, 16625, Note_on_c, 0, 68, 64
2, 16625, Note_on_c, 0, 53, 64
2, 16677, Note_on_c, 0, 53, 0
2, 16677, Note_on_c, 0, 68, 0
2, 16685, Note_on_c, 0, 70, 64
2, 16685, Note_on_c, 0, 63, 64
2, 16685, Note_on_c, 0, 54, 64
2, 16737, Note_on_c, 0, 54, 0
2, 16737, Note_on_c, 0, 70, 0
2, 16745, Note_on_c, 0, 72, 64
2, 16745, Note_on_c, 0, 56, 64
2, 16790, Note_on_c, 0, 63, 0
2, 16797, Note_on_c, 0, 56, 0
2, 16797, Note_on_c, 0, 72, 0
2, 16805, Note_on_c, 0, 73, 64
2, 16805, Note_on_c, 0, 61, 64
2, 16805, Note_on_c, 0, 58, 64
2, 16857, Note_on_c, 0, 58, 0
2, 16865, Note_on_c, 0, 60, 64
2, 16910, Note_on_c, 0, 61, 0
2, 16910, Note_on_c, 0, 73, 0
2, 16917, Note_on_c, 0, 60, 0
2, 16925, Note_on_c, 0, 70, 64
2, 16925, Note_on_c, 0, 66, 64
2, 16925, Note_on_c, 0, 61, 64
2, 16977, Note_on_c, 0, 61, 0
2, 16985, Note_on_c, 0, 58, 64
2, 17030, Note_on_c, 0, 70, 0
2, 17037, Note_on_c, 0, 58, 0
2, 17045, Note_on_c, 0, 72, 64
2, 17045, Note_on_c, 0, 63, 64
2, 17150, Note_on_c, 0, 63, 0
2, 17150, Note_on_c, 0, 66, 0
2, 17165, Note_on_c, 0, 65, 64
2, 17165, Note_on_c, 0, 54, 64
2, 17217, Note_on_c, 0, 65, 0
2, 17225, Note_on_c, 0, 63, 64
2, 17270, Note_on_c, 0, 54, 0
2, 17270, Note_on_c, 0, 72, 0
2, 17277, Note_on_c, 0, 63, 0
2, 17285, Note_on_c, 0, 73, 64
2, 17285, Note_on_c, 0, 68, 64
2, 17285, Note_on_c, 0, 54, 64
2, 17337, Note_on_c, 0, 68, 0
2, 17345, Note_on_c, 0, 66, 64
2, 17390, Note_on_c, 0, 54, 0
2, 17390, Note_on_c, 0, 73, 0
2, 17397, Note_on_c, 0, 66, 0
2, 17405, Note_on_c, 0, 68, 64
2, 17405, Note_on_c, 0, 53, 64
2, 17457, Note_on_c, 0, 53, 0
2, 17457, Note_on_c, 0, 68, 0
2, 17465, Note_on_c, 0, 71, 64
2, 17465, Note_on_c, 0, 51, 64
2, 17517, Note_on_c, 0, 51, 0
2, 17517, Note_on_c, 0, 71, 0
2, 17525, Note_on_c, 0, 65, 64
2, 17525, Note_on_c, 0, 49, 64
2, 17577, Note_on_c, 0, 49, 0
2, 17584, Note_on_c, 0, 65, 0
2, 17585, Note_on_c, 0, 66, 64
2, 17585, Note_on_c, 0, 53, 64
2, 17614, Note_on_c, 0, 66, 0
2, 17615, Note_on_c, 0, 65, 64
2, 17637, Note_on_c, 0, 53, 0
2, 17644, Note_on_c, 0, 65, 0
2, 17645, Note_on_c, 0, 66, 64
2, 17645, Note_on_c, 0, 56, 64
2, 17674, Note_on_c, 0, 66, 0
2, 17675, Note_on_c, 0, 65, 64
2, 17697, Note_on_c, 0, 56, 0
2, 17704, Note_on_c, 0, 65, 0
2, 17705, Note_on_c, 0, 63, 64
2, 17705, Note_on_c, 0, 59, 64
2, 17731, Note_on_c, 0, 63, 0
2, 17735, Note_on_c, 0, 65, 64
2, 17757, Note_on_c, 0, 59, 0
2, 17761, Note_on_c, 0, 65, 0
2, 17765, Note_on_c, 0, 66, 64
2, 17765, Note_on_c, 0, 59, 64
2, 17870, Note_on_c, 0, 59, 0
2, 17870, Note_on_c, 0, 66, 0
2, 17885, Note_on_c, 0, 73, 64
2, 17885, Note_on_c, 0, 58, 64
2, 17937, Note_on_c, 0, 73, 0
2, 17945, Note_on_c, 0, 75, 64
2, 17990, Note_on_c, 0, 58, 0
2, 17997, Note_on_c, 0, 75, 0
2, 18005, Note_on_c, 0, 76, 64
2, 18005, Note_on_c, 0, 61, 64
2, 18057, Note_on_c, 0, 76, 0
2, 18065, Note_on_c, 0, 75, 64
2, 18110, Note_on_c, 0, 61, 0
2, 18117, Note_on_c, 0, 75, 0
2, 18125, Note_on_c, 0, 78, 64
2, 18125, Note_on_c, 0, 63, 64
2, 18125, Note_on_c, 0, 57, 64
2, 18177, Note_on_c, 0, 78, 0
2, 18185, Note_on_c, 0, 73, 64
2, 18230, Note_on_c, 0, 57, 0
2, 18230, Note_on_c, 0, 63, 0
2, 18237, Note_on_c, 0, 73, 0
2, 18245, Note_on_c, 0, 71, 64
2, 18245, Note_on_c, 0, 64, 64
2, 18245, Note_on_c, 0, 57, 64
2, 18297, Note_on_c, 0, 71, 0
2, 18305, Note_on_c, 0, 70, 64
2, 18350, Note_on_c, 0, 57, 0
2, 18357, Note_on_c, 0, 70, 0
2, 18365, Note_on_c, 0, 71, 64
2, 18365, Note_on_c, 0, 56, 64
2, 18410, Note_on_c, 0, 64, 0
2, 18417, Note_on_c, 0, 71, 0
2, 18425, Note_on_c, 0, 73, 64
2, 18425, Note_on_c, 0, 63, 64
2, 18451, Note_on_c, 0, 63, 0
2, 18455, Note_on_c, 0, 61, 64
2, 18470, Note_on_c, 0, 56, 0
2, 18477, Note_on_c, 0, 73, 0
2, 18481, Note_on_c, 0, 61, 0
2, 18485, Note_on_c, 0, 75, 64
2, 18485, Note_on_c, 0, 59, 64
2, 18537, Note_on_c, 0, 59, 0
2, 18537, Note_on_c, 0, 75, 0
2, 18545, Note_on_c, 0, 73, 64
2, 18545, Note_on_c, 0, 58, 64
2, 18597, Note_on_c, 0, 58, 0
2, 18597, Note_on_c, 0, 73, 0
2, 18605, Note_on_c, 0, 76, 64
2, 18605, Note_on_c, 0, 59, 64
2, 18605, Note_on_c, 0, 56, 64
2, 18657, Note_on_c, 0, 56, 0
2, 18657, Note_on_c, 0, 59, 0
2, 18657, Note_on_c, 0, 76, 0
2, 18665, Note_on_c, 0, 68, 64
2, 18665, Note_on_c, 0, 61, 64
2, 18665, Note_on_c, 0, 58, 64
2, 18717, Note_on_c, 0, 58, 0
2, 18717, Note_on_c, 0, 61, 0
2, 18717, Note_on_c, 0, 68, 0
2, 18725, Note_on_c, 0, 66, 64
2, 18725, Note_on_c, 0, 63, 64
2, 18725, Note_on_c, 0, 59, 64
2, 18777, Note_on_c, 0, 63, 0
2, 18785, Note_on_c, 0, 65, 64
2, 18830, Note_on_c, 0, 59, 0
2, 18830, Note_on_c, 0, 66, 0
2, 18837, Note_on_c, 0, 65, 0
2, 18845, Note_on_c, 0, 71, 64
2, 18845, Note_on_c, 0, 66, 64
2, 18845, Note_on_c, 0, 51, 64
2, 18897, Note_on_c, 0, 66, 0
2, 18905, Note_on_c, 0, 63, 64
2, 18950, Note_on_c, 0, 51, 0
2, 18957, Note_on_c, 0, 63, 0
2, 18965, Note_on_c, 0, 68, 64
2, 18965, Note_on_c, 0, 53, 64
2, 19017, Note_on_c, 0, 71, 0
2, 19025, Note_on_c, 0, 70, 64
2, 19070, Note_on_c, 0, 68, 0
2, 19077, Note_on_c, 0, 70, 0
2, 19085, Note_on_c, 0, 68, 64
2, 19085, Note_on_c, 0, 59, 64
2, 19137, Note_on_c, 0, 68, 0
2, 19145, Note_on_c, 0, 80, 64
2, 19190, Note_on_c, 0, 59, 0
2, 19190, Note_on_c, 0, 53, 0
2, 19197, Note_on_c, 0, 80, 0
2, 19205, Note_on_c, 0, 61, 64
2, 19205, Note_on_c, 0, 73, 64
2, 19205, Note_on_c, 0, 54, 64
2, 19225, Note_on_c, 0, 59, 64
2, 19239, Note_on_c, 0, 61, 0
2, 19245, Note_on_c, 0, 61, 64
2, 19257, Note_on_c, 0, 73, 0
2, 19259, Note_on_c, 0, 59, 0
2, 19265, Note_on_c, 0, 59, 64
2, 19265, Note_on_c, 0, 77, 64
2, 19279, Note_on_c, 0, 61, 0
2, 19317, Note_on_c, 0, 77, 0
2, 19324, Note_on_c, 0, 59, 0
2, 19325, Note_on_c, 0, 78, 64
2, 19325, Note_on_c, 0, 58, 64
2, 19370, Note_on_c, 0, 54, 0
2, 19377, Note_on_c, 0, 78, 0
2, 19385, Note_on_c, 0, 82, 64
2, 19385, Note_on_c, 0, 54, 64
2, 19430, Note_on_c, 0, 58, 0
2, 19437, Note_on_c, 0, 54, 0
2, 19437, Note_on_c, 0, 82, 0
2, 19445, Note_on_c, 0, 74, 64
2, 19445, Note_on_c, 0, 53, 64
2, 19497, Note_on_c, 0, 53, 0
2, 19500, Note_on_c, 0, 75, 64
2, 19504, Note_on_c, 0, 74, 0
2, 19505, Note_on_c, 0, 51, 64
2, 19530, Note_on_c, 0, 74, 64
2, 19534, Note_on_c, 0, 75, 0
2, 19557, Note_on_c, 0, 51, 0
2, 19560, Note_on_c, 0, 75, 64
2, 19564, Note_on_c, 0, 74, 0
2, 19565, Note_on_c, 0, 68, 64
2, 19565, Note_on_c, 0, 53, 64
2, 19594, Note_on_c, 0, 75, 0
2, 19595, Note_on_c, 0, 74, 64
2, 19617, Note_on_c, 0, 53, 0
2, 19625, Note_on_c, 0, 72, 64
2, 19625, Note_on_c, 0, 46, 64
2, 19629, Note_on_c, 0, 74, 0
2, 19651, Note_on_c, 0, 72, 0
2, 19655, Note_on_c, 0, 74, 64
2, 19670, Note_on_c, 0, 68, 0
2, 19677, Note_on_c, 0, 46, 0
2, 19681, Note_on_c, 0, 74, 0
2, 19685, Note_on_c, 0, 75, 64
2, 19685, Note_on_c, 0, 68, 64
2, 19685, Note_on_c, 0, 51, 64
2, 19737, Note_on_c, 0, 51, 0
2, 19745, Note_on_c, 0, 50, 64
2, 19790, Note_on_c, 0, 68, 0
2, 19797, Note_on_c, 0, 50, 0
2, 19805, Note_on_c, 0, 67, 64
2, 19805, Note_on_c, 0, 51, 64
2, 19857, Note_on_c, 0, 51, 0
2, 19865, Note_on_c, 0, 53, 64
2, 19910, Note_on_c, 0, 67, 0
2, 19910, Note_on_c, 0, 75, 0
2, 19917, Note_on_c, 0, 53, 0
2, 19925, Note_on_c, 0, 70, 64
2, 19925, Note_on_c, 0, 54, 64
2, 19977, Note_on_c, 0, 54, 0
2, 19985, Note_on_c, 0, 51, 64
2, 20030, Note_on_c, 0, 70, 0
2, 20037, Note_on_c, 0, 51, 0
2, 20045, Note_on_c, 0, 72, 64
2, 20045, Note_on_c, 0, 66, 64
2, 20045, Note_on_c, 0, 45, 64
2, 20097, Note_on_c, 0, 45, 0
2, 20105, Note_on_c, 0, 57, 64
2, 20150, Note_on_c, 0, 66, 0
2, 20150, Note_on_c, 0, 72, 0
2, 20157, Note_on_c, 0, 57, 0
2, 20165, Note_on_c, 0, 73, 64
2, 20165, Note_on_c, 0, 66, 64
2, 20165, Note_on_c, 0, 58, 64
2, 20217, Note_on_c, 0, 58, 0
2, 20225, Note_on_c, 0, 57, 64
2, 20270, Note_on_c, 0, 66, 0
2, 20277, Note_on_c, 0, 57, 0
2, 20285, Note_on_c, 0, 65, 64
2, 20285, Note_on_c, 0, 58, 64
2, 20330, Note_on_c, 0, 73, 0
2, 20337, Note_on_c, 0, 58, 0
2, 20345, Note_on_c, 0, 72, 64
2, 20345, Note_on_c, 0, 60, 64
2, 20371, Note_on_c, 0, 72, 0
2, 20375, Note_on_c, 0, 70, 64
2, 20390, Note_on_c, 0, 65, 0
2, 20397, Note_on_c, 0, 60, 0
2, 20401, Note_on_c, 0, 70, 0
2, 20405, Note_on_c, 0, 68, 64
2, 20405, Note_on_c, 0, 61, 64
2, 20457, Note_on_c, 0, 68, 0
2, 20465, Note_on_c, 0, 67, 64
2, 20517, Note_on_c, 0, 67, 0
2, 20525, Note_on_c, 0, 68, 64
2, 20525, Note_on_c, 0, 65, 64
2, 20570, Note_on_c, 0, 61, 0
2, 20577, Note_on_c, 0, 65, 0
2, 20577, Note_on_c, 0, 68, 0
2, 20585, Note_on_c, 0, 70, 64
2, 20585, Note_on_c, 0, 67, 64
2, 20585, Note_on_c, 0, 59, 64
2, 20611, Note_on_c, 0, 59, 0
2, 20615, Note_on_c, 0, 58, 64
2, 20637, Note_on_c, 0, 67, 0
2, 20637, Note_on_c, 0, 70, 0
2, 20641, Note_on_c, 0, 58, 0
2, 20645, Note_on_c, 0, 72, 64
2, 20645, Note_on_c, 0, 68, 64
2, 20645, Note_on_c, 0, 56, 64
2, 20697, Note_on_c, 0, 72, 0
2, 20705, Note_on_c, 0, 74, 64
2, 20750, Note_on_c, 0, 68, 0
2, 20757, Note_on_c, 0, 74, 0
2, 20765, Note_on_c, 0, 75, 64
2, 20765, Note_on_c, 0, 60, 64
2, 20810, Note_on_c, 0, 56, 0
2, 20817, Note_on_c, 0, 75, 0
2, 20825, Note_on_c, 0, 72, 64
2, 20825, Note_on_c, 0, 54, 64
2, 20870, Note_on_c, 0, 60, 0
2, 20877, Note_on_c, 0, 54, 0
2, 20877, Note_on_c, 0, 72, 0
2, 20885, Note_on_c, 0, 77, 64
2, 20885, Note_on_c, 0, 62, 64
2, 20885, Note_on_c, 0, 53, 64
2, 20937, Note_on_c, 0, 53, 0
2, 20945, Note_on_c, 0, 51, 64
2, 20990, Note_on_c, 0, 77, 0
2, 20997, Note_on_c, 0, 51, 0
2, 21005, Note_on_c, 0, 68, 64
2, 21005, Note_on_c, 0, 53, 64
2, 21057, Note_on_c, 0, 53, 0
2, 21065, Note_on_c, 0, 58, 64
2, 21110, Note_on_c, 0, 68, 0
2, 21110, Note_on_c, 0, 62, 0
2, 21117, Note_on_c, 0, 58, 0
2, 21125, Note_on_c, 0, 70, 64
2, 21125, Note_on_c, 0, 63, 64
2, 21125, Note_on_c, 0, 51, 64
2, 21145, Note_on_c, 0, 68, 64
2, 21154, Note_on_c, 0, 70, 0
2, 21160, Note_on_c, 0, 70, 64
2, 21174, Note_on_c, 0, 68, 0
2, 21177, Note_on_c, 0, 63, 0
2, 21180, Note_on_c, 0, 68, 64
2, 21185, Note_on_c, 0, 58, 64
2, 21189, Note_on_c, 0, 70, 0
2, 21237, Note_on_c, 0, 58, 0
2, 21239, Note_on_c, 0, 68, 0
2, 21245, Note_on_c, 0, 66, 64
2, 21245, Note_on_c, 0, 60, 64
2, 21297, Note_on_c, 0, 60, 0
2, 21297, Note_on_c, 0, 66, 0
2, 21305, Note_on_c, 0, 65, 64
2, 21305, Note_on_c, 0, 62, 64
2, 21350, Note_on_c, 0, 51, 0
2, 21357, Note_on_c, 0, 62, 0
2, 21357, Note_on_c, 0, 65, 0
2, 21365, Note_on_c, 0, 66, 64
2, 21365, Note_on_c, 0, 63, 64
2, 21417, Note_on_c, 0, 63, 0
2, 21425, Note_on_c, 0, 62, 64
2, 21470, Note_on_c, 0, 66, 0
2, 21477, Note_on_c, 0, 62, 0
2, 21485, Note_on_c, 0, 68, 64
2, 21485, Note_on_c, 0, 63, 64
2, 21485, Note_on_c, 0, 47, 64
2, 21537, Note_on_c, 0, 63, 0
2, 21545, Note_on_c, 0, 59, 64
2, 21590, Note_on_c, 0, 47, 0
2, 21590, Note_on_c, 0, 68, 0
2, 21597, Note_on_c, 0, 59, 0
2, 21605, Note_on_c, 0, 65, 64
2, 21605, Note_on_c, 0, 56, 64
2, 21710, Note_on_c, 0, 56, 0
2, 21725, Note_on_c, 0, 61, 64
2, 21725, Note_on_c, 0, 46, 64
2, 21777, Note_on_c, 0, 46, 0
2, 21785, Note_on_c, 0, 44, 64
2, 21830, Note_on_c, 0, 65, 0
2, 21837, Note_on_c, 0, 44, 0
2, 21845, Note_on_c, 0, 67, 64
2, 21845, Note_on_c, 0, 46, 64
2, 21897, Note_on_c, 0, 61, 0
2, 21905, Note_on_c, 0, 59, 64
2, 21950, Note_on_c, 0, 46, 0
2, 21957, Note_on_c, 0, 59, 0
2, 21965, Note_on_c, 0, 61, 64
2, 21965, Note_on_c, 0, 39, 64
2, 22017, Note_on_c, 0, 61, 0
2, 22025, Note_on_c, 0, 58, 64
2, 22070, Note_on_c, 0, 39, 0
2, 22070, Note_on_c, 0, 67, 0
2, 22077, Note_on_c, 0, 58, 0
2, 22085, Note_on_c, 0, 68, 64
2, 22085, Note_on_c, 0, 59, 64
2, 22085, Note_on_c, 0, 44, 64
2, 22137, Note_on_c, 0, 59, 0
2, 22145, Note_on_c, 0, 63, 64
2, 22190, Note_on_c, 0, 44, 0
2, 22197, Note_on_c, 0, 63, 0
2, 22205, Note_on_c, 0, 65, 64
2, 22205, Note_on_c, 0, 56, 64
2, 22257, Note_on_c, 0, 65, 0
2, 22265, Note_on_c, 0, 67, 64
2, 22310, Note_on_c, 0, 68, 0
2, 22317, Note_on_c, 0, 67, 0
2, 22325, Note_on_c, 0, 68, 64
2, 22377, Note_on_c, 0, 68, 0
2, 22377, Note_on_c, 0, 56, 0
2, 22385, Note_on_c, 0, 70, 64
2, 22385, Note_on_c, 0, 55, 64
2, 22437, Note_on_c, 0, 55, 0
2, 22437, Note_on_c, 0, 70, 0
2, 22445, Note_on_c, 0, 76, 64
2, 22445, Note_on_c, 0, 71, 64
2, 22445, Note_on_c, 0, 56, 64
2, 22497, Note_on_c, 0, 56, 0
2, 22497, Note_on_c, 0, 71, 0
2, 22505, Note_on_c, 0, 68, 64
2, 22505, Note_on_c, 0, 52, 64
2, 22557, Note_on_c, 0, 52, 0
2, 22557, Note_on_c, 0, 68, 0
2, 22565, Note_on_c, 0, 70, 64
2, 22565, Note_on_c, 0, 49, 64
2, 22670, Note_on_c, 0, 49, 0
2, 22670, Note_on_c, 0, 76, 0
2, 22685, Note_on_c, 0, 75, 64
2, 22685, Note_on_c, 0, 54, 64
2, 22737, Note_on_c, 0, 75, 0
2, 22745, Note_on_c, 0, 73, 64
2, 22790, Note_on_c, 0, 70, 0
2, 22797, Note_on_c, 0, 73, 0
2, 22805, Note_on_c, 0, 75, 64
2, 22805, Note_on_c, 0, 72, 64
2, 22857, Note_on_c, 0, 54, 0
2, 22865, Note_on_c, 0, 53, 64
2, 22910, Note_on_c, 0, 75, 0
2, 22917, Note_on_c, 0, 53, 0
2, 22925, Note_on_c, 0, 80, 64
2, 22925, Note_on_c, 0, 54, 64
2, 22977, Note_on_c, 0, 54, 0
2, 22985, Note_on_c, 0, 51, 64
2, 23030, Note_on_c, 0, 72, 0
2, 23037, Note_on_c, 0, 51, 0
2, 23045, Note_on_c, 0, 73, 64
2, 23045, Note_on_c, 0, 53, 64
2, 23097, Note_on_c, 0, 53, 0
2, 23097, Note_on_c, 0, 80, 0
2, 23105, Note_on_c, 0, 78, 64
2, 23105, Note_on_c, 0, 56, 64
2, 23150, Note_on_c, 0, 73, 0
2, 23157, Note_on_c, 0, 56, 0
2, 23157, Note_on_c, 0, 78, 0
2, 23165, Note_on_c, 0, 77, 64
2, 23165, Note_on_c, 0, 68, 64
2, 23165, Note_on_c, 0, 58, 64
2, 23217, Note_on_c, 0, 58, 0
2, 23217, Note_on_c, 0, 68, 0
2, 23217, Note_on_c, 0, 77, 0
2, 23225, Note_on_c, 0, 75, 64
2, 23225, Note_on_c, 0, 66, 64
2, 23225, Note_on_c, 0, 60, 64
2, 23277, Note_on_c, 0, 60, 0
2, 23277, Note_on_c, 0, 66, 0
2, 23277, Note_on_c, 0, 75, 0
2, 23285, Note_on_c, 0, 73, 64
2, 23285, Note_on_c, 0, 65, 64
2, 23285, Note_on_c, 0, 61, 64
2, 23337, Note_on_c, 0, 73, 0
2, 23345, Note_on_c, 0, 72, 64
2, 23390, Note_on_c, 0, 65, 0
2, 23397, Note_on_c, 0, 72, 0
2, 23405, Note_on_c, 0, 73, 64
2, 23405, Note_on_c, 0, 70, 64
2, 23457, Note_on_c, 0, 73, 0
2, 23465, Note_on_c, 0, 77, 64
2, 23510, Note_on_c, 0, 61, 0
2, 23517, Note_on_c, 0, 77, 0
2, 23525, Note_on_c, 0, 78, 64
2, 23525, Note_on_c, 0, 63, 64
2, 23577, Note_on_c, 0, 78, 0
2, 23585, Note_on_c, 0, 71, 64
2, 23630, Note_on_c, 0, 70, 0
2, 23637, Note_on_c, 0, 71, 0
2, 23645, Note_on_c, 0, 83, 64
2, 23645, Note_on_c, 0, 68, 64
2, 23697, Note_on_c, 0, 68, 0
2, 23705, Note_on_c, 0, 66, 64
2, 23750, Note_on_c, 0, 63, 0
2, 23757, Note_on_c, 0, 66, 0
2, 23765, Note_on_c, 0, 68, 64
2, 23765, Note_on_c, 0, 65, 64
2, 23817, Note_on_c, 0, 83, 0
2, 23825, Note_on_c, 0, 82, 64
2, 23870, Note_on_c, 0, 68, 0
2, 23877, Note_on_c, 0, 82, 0
2, 23885, Note_on_c, 0, 83, 64
2, 23885, Note_on_c, 0, 73, 64
2, 23937, Note_on_c, 0, 83, 0
2, 23945, Note_on_c, 0, 80, 64
2, 23990, Note_on_c, 0, 65, 0
2, 23997, Note_on_c, 0, 80, 0
2, 24005, Note_on_c, 0, 82, 64
2, 24005, Note_on_c, 0, 66, 64
2, 24057, Note_on_c, 0, 73, 0
2, 24065, Note_on_c, 0, 71, 64
2, 24110, Note_on_c, 0, 66, 0
2, 24110, Note_on_c, 0, 82, 0
2, 24117, Note_on_c, 0, 71, 0
2, 24125, Note_on_c, 0, 78, 64
2, 24125, Note_on_c, 0, 70, 64
2, 24125, Note_on_c, 0, 64, 64
2, 24177, Note_on_c, 0, 70, 0
2, 24185, Note_on_c, 0, 68, 64
2, 24230, Note_on_c, 0, 64, 0
2, 24230, Note_on_c, 0, 78, 0
2, 24237, Note_on_c, 0, 68, 0
2, 24245, Note_on_c, 0, 83, 64
2, 24245, Note_on_c, 0, 66, 64
2, 24245, Note_on_c, 0, 63, 64
2, 24297, Note_on_c, 0, 66, 0
2, 24305, Note_on_c, 0, 64, 64
2, 24357, Note_on_c, 0, 64, 0
2, 24365, Note_on_c, 0, 66, 64
2, 24410, Note_on_c, 0, 83, 0
2, 24417, Note_on_c, 0, 66, 0
2, 24425, Note_on_c, 0, 78, 64
2, 24425, Note_on_c, 0, 70, 64
2, 24477, Note_on_c, 0, 70, 0
2, 24477, Note_on_c, 0, 78, 0
2, 24485, Note_on_c, 0, 80, 64
2, 24485, Note_on_c, 0, 71, 64
2, 24537, Note_on_c, 0, 71, 0
2, 24545, Note_on_c, 0, 64, 64
2, 24590, Note_on_c, 0, 63, 0
2, 24597, Note_on_c, 0, 64, 0
2, 24605, Note_on_c, 0, 76, 64
2, 24605, Note_on_c, 0, 61, 64
2, 24657, Note_on_c, 0, 61, 0
2, 24665, Note_on_c, 0, 59, 64
2, 24710, Note_on_c, 0, 80, 0
2, 24717, Note_on_c, 0, 59, 0
2, 24725, Note_on_c, 0, 82, 64
2, 24725, Note_on_c, 0, 61, 64
2, 24777, Note_on_c, 0, 76, 0
2, 24785, Note_on_c, 0, 75, 64
2, 24830, Note_on_c, 0, 61, 0
2, 24837, Note_on_c, 0, 75, 0
2, 24845, Note_on_c, 0, 76, 64
2, 24845, Note_on_c, 0, 54, 64
2, 24897, Note_on_c, 0, 76, 0
2, 24905, Note_on_c, 0, 73, 64
2, 24950, Note_on_c, 0, 54, 0
2, 24950, Note_on_c, 0, 82, 0
2, 24957, Note_on_c, 0, 73, 0
2, 24965, Note_on_c, 0, 83, 64
2, 24965, Note_on_c, 0, 75, 64
2, 24965, Note_on_c, 0, 59, 64
2, 25017, Note_on_c, 0, 75, 0
2, 25025, Note_on_c, 0, 71, 64
2, 25070, Note_on_c, 0, 83, 0
2, 25077, Note_on_c, 0, 71, 0
2, 25085, Note_on_c, 0, 75, 64
2, 25085, Note_on_c, 0, 66, 64
2, 25137, Note_on_c, 0, 66, 0
2, 25137, Note_on_c, 0, 75, 0
2, 25145, Note_on_c, 0, 71, 64
2, 25145, Note_on_c, 0, 68, 64
2, 25190, Note_on_c, 0, 59, 0
2, 25197, Note_on_c, 0, 68, 0
2, 25197, Note_on_c, 0, 71, 0
2, 25205, Note_on_c, 0, 73, 64
2, 25205, Note_on_c, 0, 70, 64
2, 25257, Note_on_c, 0, 73, 0
2, 25264, Note_on_c, 0, 70, 0
2, 25265, Note_on_c, 0, 71, 64
2, 25265, Note_on_c, 0, 75, 64
2, 25294, Note_on_c, 0, 71, 0
2, 25295, Note_on_c, 0, 70, 64
2, 25317, Note_on_c, 0, 75, 0
2, 25324, Note_on_c, 0, 70, 0
2, 25325, Note_on_c, 0, 71, 64
2, 25325, Note_on_c, 0, 76, 64
2, 25354, Note_on_c, 0, 71, 0
2, 25355, Note_on_c, 0, 70, 64
2, 25384, Note_on_c, 0, 70, 0
2, 25385, Note_on_c, 0, 68, 64
2, 25411, Note_on_c, 0, 68, 0
2, 25415, Note_on_c, 0, 70, 64
2, 25430, Note_on_c, 0, 76, 0
2, 25441, Note_on_c, 0, 70, 0
2, 25445, Note_on_c, 0, 76, 64
2, 25445, Note_on_c, 0, 71, 64
2, 25505, Note_on_c, 0, 58, 64
2, 25550, Note_on_c, 0, 71, 0
2, 25550, Note_on_c, 0, 76, 0
2, 25557, Note_on_c, 0, 58, 0
2, 25565, Note_on_c, 0, 75, 64
2, 25565, Note_on_c, 0, 59, 64
2, 25617, Note_on_c, 0, 59, 0
2, 25625, Note_on_c, 0, 61, 64
2, 25670, Note_on_c, 0, 75, 0
2, 25677, Note_on_c, 0, 61, 0
2, 25685, Note_on_c, 0, 66, 64
2, 25685, Note_on_c, 0, 63, 64
2, 25737, Note_on_c, 0, 63, 0
2, 25745, Note_on_c, 0, 59, 64
2, 25790, Note_on_c, 0, 66, 0
2, 25797, Note_on_c, 0, 59, 0
2, 25805, Note_on_c, 0, 74, 64
2, 25805, Note_on_c, 0, 68, 64
2, 25805, Note_on_c, 0, 53, 64
2, 25857, Note_on_c, 0, 53, 0
2, 25865, Note_on_c, 0, 65, 64
2, 25910, Note_on_c, 0, 68, 0
2, 25910, Note_on_c, 0, 74, 0
2, 25917, Note_on_c, 0, 65, 0
2, 25925, Note_on_c, 0, 74, 64
2, 25925, Note_on_c, 0, 69, 64
2, 25925, Note_on_c, 0, 66, 64
2, 25977, Note_on_c, 0, 66, 0
2, 25985, Note_on_c, 0, 53, 64
2, 26030, Note_on_c, 0, 74, 0
2, 26037, Note_on_c, 0, 53, 0
2, 26045, Note_on_c, 0, 73, 64
2, 26045, Note_on_c, 0, 54, 64
2, 26090, Note_on_c, 0, 69, 0
2, 26097, Note_on_c, 0, 54, 0
2, 26105, Note_on_c, 0, 68, 64
2, 26105, Note_on_c, 0, 56, 64
2, 26131, Note_on_c, 0, 68, 0
2, 26135, Note_on_c, 0, 66, 64
2, 26150, Note_on_c, 0, 73, 0
2, 26157, Note_on_c, 0, 56, 0
2, 26161, Note_on_c, 0, 66, 0
2, 26165, Note_on_c, 0, 64, 64
2, 26165, Note_on_c, 0, 57, 64
2, 26217, Note_on_c, 0, 64, 0
2, 26225, Note_on_c, 0, 63, 64
2, 26277, Note_on_c, 0, 63, 0
2, 26285, Note_on_c, 0, 73, 64
2, 26285, Note_on_c, 0, 64, 64
2, 26330, Note_on_c, 0, 57, 0
2, 26337, Note_on_c, 0, 64, 0
2, 26337, Note_on_c, 0, 73, 0
2, 26345, Note_on_c, 0, 75, 64
2, 26345, Note_on_c, 0, 66, 64
2, 26345, Note_on_c, 0, 56, 64
2, 26371, Note_on_c, 0, 56, 0
2, 26375, Note_on_c, 0, 54, 64
2, 26397, Note_on_c, 0, 66, 0
2, 26397, Note_on_c, 0, 75, 0
2, 26401, Note_on_c, 0, 54, 0
2, 26405, Note_on_c, 0, 76, 64
2, 26405, Note_on_c, 0, 68, 64
2, 26405, Note_on_c, 0, 61, 64
2, 26457, Note_on_c, 0, 68, 0
2, 26465, Note_on_c, 0, 70, 64
2, 26510, Note_on_c, 0, 61, 0
2, 26517, Note_on_c, 0, 70, 0
2, 26525, Note_on_c, 0, 71, 64
2, 26525, Note_on_c, 0, 56, 64
2, 26577, Note_on_c, 0, 71, 0
2, 26585, Note_on_c, 0, 68, 64
2, 26630, Note_on_c, 0, 56, 0
2, 26637, Note_on_c, 0, 68, 0
2, 26645, Note_on_c, 0, 73, 64
2, 26645, Note_on_c, 0, 58, 64
2, 26697, Note_on_c, 0, 76, 0
2, 26705, Note_on_c, 0, 71, 64
2, 26750, Note_on_c, 0, 58, 0
2, 26750, Note_on_c, 0, 73, 0
2, 26757, Note_on_c, 0, 71, 0
2, 26765, Note_on_c, 0, 70, 64
2, 26765, Note_on_c, 0, 64, 64
2, 26765, Note_on_c, 0, 54, 64
2, 26817, Note_on_c, 0, 70, 0
2, 26825, Note_on_c, 0, 73, 64
2, 26870, Note_on_c, 0, 54, 0
2, 26870, Note_on_c, 0, 64, 0
2, 26885, Note_on_c, 0, 64, 64
2, 26885, Note_on_c, 0, 59, 64
2, 26937, Note_on_c, 0, 73, 0
2, 26945, Note_on_c, 0, 66, 64
2, 26990, Note_on_c, 0, 59, 0
2, 26990, Note_on_c, 0, 64, 0
2, 26997, Note_on_c, 0, 66, 0
2, 27005, Note_on_c, 0, 71, 64
2, 27005, Note_on_c, 0, 63, 64
2, 27005, Note_on_c, 0, 47, 64
2, 27057, Note_on_c, 0, 47, 0
2, 27057, Note_on_c, 0, 71, 0
2, 27065, Note_on_c, 0, 70, 64
2, 27065, Note_on_c, 0, 49, 64
2, 27110, Note_on_c, 0, 63, 0
2, 27117, Note_on_c, 0, 49, 0
2, 27117, Note_on_c, 0, 70, 0
2, 27125, Note_on_c, 0, 71, 64
2, 27125, Note_on_c, 0, 71, 64
2, 27125, Note_on_c, 0, 51, 64
2, 27177, Note_on_c, 0, 51, 0
2, 27185, Note_on_c, 0, 47, 64
2, 27230, Note_on_c, 0, 71, 0
2, 27230, Note_on_c, 0, 71, 0
2, 27237, Note_on_c, 0, 47, 0
2, 27245, Note_on_c, 0, 71, 64
2, 27245, Note_on_c, 0, 63, 64
2, 27245, Note_on_c, 0, 44, 64
2, 27297, Note_on_c, 0, 44, 0
2, 27305, Note_on_c, 0, 47, 64
2, 27350, Note_on_c, 0, 63, 0
2, 27350, Note_on_c, 0, 71, 0
2, 27357, Note_on_c, 0, 47, 0
2, 27365, Note_on_c, 0, 71, 64
2, 27365, Note_on_c, 0, 63, 64
2, 27365, Note_on_c, 0, 52, 64
2, 27417, Note_on_c, 0, 52, 0
2, 27425, Note_on_c, 0, 51, 64
2, 27470, Note_on_c, 0, 63, 0
2, 27470, Note_on_c, 0, 71, 0
2, 27477, Note_on_c, 0, 51, 0
2, 27485, Note_on_c, 0, 70, 64
2, 27485, Note_on_c, 0, 61, 64
2, 27485, Note_on_c, 0, 52, 64
2, 27537, Note_on_c, 0, 52, 0
2, 27545, Note_on_c, 0, 49, 64
2, 27590, Note_on_c, 0, 61, 0
2, 27590, Note_on_c, 0, 70, 0
2, 27597, Note_on_c, 0, 49, 0
2, 27605, Note_on_c, 0, 70, 64
2, 27605, Note_on_c, 0, 55, 64
2, 27657, Note_on_c, 0, 55, 0
2, 27665, Note_on_c, 0, 53, 64
2, 27710, Note_on_c, 0, 70, 0
2, 27717, Note_on_c, 0, 53, 0
2, 27725, Note_on_c, 0, 70, 64
2, 27725, Note_on_c, 0, 61, 64
2, 27725, Note_on_c, 0, 55, 64
2, 27777, Note_on_c, 0, 55, 0
2, 27785, Note_on_c, 0, 51, 64
2, 27830, Note_on_c, 0, 61, 0
2, 27830, Note_on_c, 0, 70, 0
2, 27837, Note_on_c, 0, 51, 0
2, 27845, Note_on_c, 0, 70, 64
2, 27845, Note_on_c, 0, 61, 64
2, 27845, Note_on_c, 0, 56, 64
2, 27897, Note_on_c, 0, 56, 0
2, 27905, Note_on_c, 0, 55, 64
2, 27950, Note_on_c, 0, 61, 0
2, 27950, Note_on_c, 0, 70, 0
2, 27957, Note_on_c, 0, 55, 0
2, 27965, Note_on_c, 0, 68, 64
2, 27965, Note_on_c, 0, 59, 64
2, 27965, Note_on_c, 0, 56, 64
2, 28017, Note_on_c, 0, 56, 0
2, 28025, Note_on_c, 0, 55, 64
2, 28070, Note_on_c, 0, 59, 0
2, 28070, Note_on_c, 0, 68, 0
2, 28077, Note_on_c, 0, 55, 0
2, 28085, Note_on_c, 0, 76, 64
2, 28085, Note_on_c, 0, 56, 64
2, 28137, Note_on_c, 0, 56, 0
2, 28145, Note_on_c, 0, 52, 64
2, 28190, Note_on_c, 0, 76, 0
2, 28197, Note_on_c, 0, 52, 0
2, 28205, Note_on_c, 0, 68, 64
2, 28205, Note_on_c, 0, 64, 64
2, 28205, Note_on_c, 0, 49, 64
2, 28257, Note_on_c, 0, 49, 0
2, 28265, Note_on_c, 0, 52, 64
2, 28310, Note_on_c, 0, 64, 0
2, 28310, Note_on_c, 0, 68, 0
2, 28317, Note_on_c, 0, 52, 0
2, 28325, Note_on_c, 0, 68, 64
2, 28325, Note_on_c, 0, 64, 64
2, 28325, Note_on_c, 0, 57, 64
2, 28377, Note_on_c, 0, 57, 0
2, 28385, Note_on_c, 0, 56, 64
2, 28430, Note_on_c, 0, 64, 0
2, 28430, Note_on_c, 0, 68, 0
2, 28437, Note_on_c, 0, 56, 0
2, 28445, Note_on_c, 0, 66, 64
2, 28445, Note_on_c, 0, 63, 64
2, 28445, Note_on_c, 0, 57, 64
2, 28497, Note_on_c, 0, 57, 0
2, 28505, Note_on_c, 0, 54, 64
2, 28550, Note_on_c, 0, 63, 0
2, 28550, Note_on_c, 0, 66, 0
2, 28557, Note_on_c, 0, 54, 0
2, 28565, Note_on_c, 0, 75, 64
2, 28565, Note_on_c, 0, 60, 64
2, 28617, Note_on_c, 0, 60, 0
2, 28625, Note_on_c, 0, 58, 64
2, 28670, Note_on_c, 0, 75, 0
2, 28677, Note_on_c, 0, 58, 0
2, 28685, Note_on_c, 0, 66, 64
2, 28685, Note_on_c, 0, 63, 64
2, 28685, Note_on_c, 0, 60, 64
2, 28737, Note_on_c, 0, 60, 0
2, 28745, Note_on_c, 0, 56, 64
2, 28790, Note_on_c, 0, 63, 0
2, 28790, Note_on_c, 0, 66, 0
2, 28797, Note_on_c, 0, 56, 0
2, 28805, Note_on_c, 0, 66, 64
2, 28805, Note_on_c, 0, 63, 64
2, 28805, Note_on_c, 0, 61, 64
2, 28857, Note_on_c, 0, 61, 0
2, 28865, Note_on_c, 0, 56, 64
2, 28910, Note_on_c, 0, 63, 0
2, 28910, Note_on_c, 0, 66, 0
2, 28917, Note_on_c, 0, 56, 0
2, 28925, Note_on_c, 0, 65, 64
2, 28925, Note_on_c, 0, 61, 64
2, 28925, Note_on_c, 0, 49, 64
2, 28977, Note_on_c, 0, 49, 0
2, 28985, Note_on_c, 0, 51, 64
2, 29030, Note_on_c, 0, 61, 0
2, 29030, Note_on_c, 0, 65, 0
2, 29037, Note_on_c, 0, 51, 0
2, 29045, Note_on_c, 0, 73, 64
2, 29045, Note_on_c, 0, 53, 64
2, 29097, Note_on_c, 0, 53, 0
2, 29105, Note_on_c, 0, 49, 64
2, 29150, Note_on_c, 0, 73, 0
2, 29157, Note_on_c, 0, 49, 0
2, 29165, Note_on_c, 0, 73, 64
2, 29165, Note_on_c, 0, 65, 64
2, 29165, Note_on_c, 0, 46, 64
2, 29217, Note_on_c, 0, 46, 0
2, 29225, Note_on_c, 0, 49, 64
2, 29270, Note_on_c, 0, 65, 0
2, 29270, Note_on_c, 0, 73, 0
2, 29277, Note_on_c, 0, 49, 0
2, 29285, Note_on_c, 0, 73, 64
2, 29285, Note_on_c, 0, 65, 64
2, 29285, Note_on_c, 0, 54, 64
2, 29337, Note_on_c, 0, 54, 0
2, 29345, Note_on_c, 0, 53, 64
2, 29390, Note_on_c, 0, 65, 0
2, 29390, Note_on_c, 0, 73, 0
2, 29397, Note_on_c, 0, 53, 0
2, 29405, Note_on_c, 0, 72, 64
2, 29405, Note_on_c, 0, 63, 64
2, 29405, Note_on_c, 0, 54, 64
2, 29457, Note_on_c, 0, 54, 0
2, 29465, Note_on_c, 0, 51, 64
2, 29510, Note_on_c, 0, 63, 0
2, 29510, Note_on_c, 0, 72, 0
2, 29517, Note_on_c, 0, 51, 0
2, 29525, Note_on_c, 0, 72, 64
2, 29525, Note_on_c, 0, 57, 64
2, 29577, Note_on_c, 0, 57, 0
2, 29585, Note_on_c, 0, 55, 64
2, 29630, Note_on_c, 0, 72, 0
2, 29637, Note_on_c, 0, 55, 0
2, 29645, Note_on_c, 0, 72, 64
2, 29645, Note_on_c, 0, 63, 64
2, 29645, Note_on_c, 0, 57, 64
2, 29697, Note_on_c, 0, 57, 0
2, 29705, Note_on_c, 0, 53, 64
2, 29750, Note_on_c, 0, 63, 0
2, 29750, Note_on_c, 0, 72, 0
2, 29757, Note_on_c, 0, 53, 0
2, 29765, Note_on_c, 0, 72, 64
2, 29765, Note_on_c, 0, 63, 64
2, 29765, Note_on_c, 0, 58, 64
2, 29817, Note_on_c, 0, 58, 0
2, 29825, Note_on_c, 0, 57, 64
2, 29870, Note_on_c, 0, 63, 0
2, 29870, Note_on_c, 0, 72, 0
2, 29877, Note_on_c, 0, 57, 0
2, 29885, Note_on_c, 0, 70, 64
2, 29885, Note_on_c, 0, 61, 64
2, 29885, Note_on_c, 0, 58, 64
2, 29937, Note_on_c, 0, 58, 0
2, 29945, Note_on_c, 0, 57, 64
2, 29990, Note_on_c, 0, 61, 0
2, 29990, Note_on_c, 0, 70, 0
2, 29997, Note_on_c, 0, 57, 0
2, 30005, Note_on_c, 0, 78, 64
2, 30005, Note_on_c, 0, 58, 64
2, 30057, Note_on_c, 0, 58, 0
2, 30065, Note_on_c, 0, 54, 64
2, 30110, Note_on_c, 0, 78, 0
2, 30117, Note_on_c, 0, 54, 0
2, 30125, Note_on_c, 0, 70, 64
2, 30125, Note_on_c, 0, 66, 64
2, 30125, Note_on_c, 0, 51, 64
2, 30177, Note_on_c, 0, 51, 0
2, 30185, Note_on_c, 0, 54, 64
2, 30230, Note_on_c, 0, 66, 0
2, 30230, Note_on_c, 0, 70, 0
2, 30237, Note_on_c, 0, 54, 0
2, 30245, Note_on_c, 0, 70, 64
2, 30245, Note_on_c, 0, 66, 64
2, 30245, Note_on_c, 0, 59, 64
2, 30297, Note_on_c, 0, 59, 0
2, 30305, Note_on_c, 0, 58, 64
2, 30350, Note_on_c, 0, 66, 0
2, 30350, Note_on_c, 0, 70, 0
2, 30357, Note_on_c, 0, 58, 0
2, 30365, Note_on_c, 0, 68, 64
2, 30365, Note_on_c, 0, 65, 64
2, 30365, Note_on_c, 0, 59, 64
2, 30417, Note_on_c, 0, 59, 0
2, 30425, Note_on_c, 0, 56, 64
2, 30470, Note_on_c, 0, 65, 0
2, 30470, Note_on_c, 0, 68, 0
2, 30477, Note_on_c, 0, 56, 0
2, 30485, Note_on_c, 0, 77, 64
2, 30485, Note_on_c, 0, 62, 64
2, 30537, Note_on_c, 0, 62, 0
2, 30545, Note_on_c, 0, 60, 64
2, 30590, Note_on_c, 0, 77, 0
2, 30597, Note_on_c, 0, 60, 0
2, 30605, Note_on_c, 0, 68, 64
2, 30605, Note_on_c, 0, 65, 64
2, 30605, Note_on_c, 0, 62, 64
2, 30657, Note_on_c, 0, 62, 0
2, 30665, Note_on_c, 0, 58, 64
2, 30710, Note_on_c, 0, 65, 0
2, 30710, Note_on_c, 0, 68, 0
2, 30717, Note_on_c, 0, 58, 0
2, 30725, Note_on_c, 0, 68, 64
2, 30725, Note_on_c, 0, 65, 64
2, 30725, Note_on_c, 0, 63, 64
2, 30777, Note_on_c, 0, 63, 0
2, 30785, Note_on_c, 0, 58, 64
2, 30830, Note_on_c, 0, 65, 0
2, 30830, Note_on_c, 0, 68, 0
2, 30837, Note_on_c, 0, 58, 0
2, 30845, Note_on_c, 0, 66, 64
2, 30845, Note_on_c, 0, 63, 64
2, 30845, Note_on_c, 0, 51, 64
2, 30897, Note_on_c, 0, 51, 0
2, 30905, Note_on_c, 0, 53, 64
2, 30950, Note_on_c, 0, 63, 0
2, 30950, Note_on_c, 0, 66, 0
2, 30957, Note_on_c, 0, 53, 0
2, 30965, Note_on_c, 0, 68, 64
2, 30965, Note_on_c, 0, 53, 64
2, 31017, Note_on_c, 0, 68, 0
2, 31025, Note_on_c, 0, 66, 64
2, 31029, Note_on_c, 0, 53, 0
2, 31030, Note_on_c, 0, 54, 64
2, 31059, Note_on_c, 0, 54, 0
2, 31060, Note_on_c, 0, 53, 64
2, 31077, Note_on_c, 0, 66, 0
2, 31080, Note_on_c, 0, 54, 64
2, 31085, Note_on_c, 0, 71, 64
2, 31085, Note_on_c, 0, 68, 64
2, 31089, Note_on_c, 0, 53, 0
2, 31109, Note_on_c, 0, 54, 0
2, 31110, Note_on_c, 0, 53, 64
2, 31139, Note_on_c, 0, 53, 0
2, 31145, Note_on_c, 0, 51, 64
2, 31171, Note_on_c, 0, 51, 0
2, 31175, Note_on_c, 0, 53, 64
2, 31190, Note_on_c, 0, 71, 0
2, 31190, Note_on_c, 0, 68, 0
2, 31201, Note_on_c, 0, 53, 0
2, 31205, Note_on_c, 0, 71, 64
2, 31205, Note_on_c, 0, 61, 64
2, 31205, Note_on_c, 0, 54, 64
2, 31310, Note_on_c, 0, 54, 0
2, 31310, Note_on_c, 0, 71, 0
2, 31325, Note_on_c, 0, 70, 64
2, 31370, Note_on_c, 0, 61, 0
2, 31385, Note_on_c, 0, 63, 64
2, 31430, Note_on_c, 0, 70, 0
2, 31437, Note_on_c, 0, 63, 0
2, 31445, Note_on_c, 0, 64, 64
2, 31445, Note_on_c, 0, 49, 64
2, 31550, Note_on_c, 0, 49, 0
2, 31550, Note_on_c, 0, 64, 0
2, 31565, Note_on_c, 0, 69, 64
2, 31565, Note_on_c, 0, 66, 64
2, 31565, Note_on_c, 0, 51, 64
2, 31670, Note_on_c, 0, 51, 0
2, 31670, Note_on_c, 0, 66, 0
2, 31670, Note_on_c, 0, 69, 0
2, 31685, Note_on_c, 0, 69, 64
2, 31685, Note_on_c, 0, 59, 64
2, 31685, Note_on_c, 0, 52, 64
2, 31790, Note_on_c, 0, 69, 0
2, 31805, Note_on_c, 0, 68, 64
2, 31850, Note_on_c, 0, 52, 0
2, 31850, Note_on_c, 0, 59, 0
2, 31865, Note_on_c, 0, 61, 64
2, 31865, Note_on_c, 0, 51, 64
2, 31891, Note_on_c, 0, 51, 0
2, 31895, Note_on_c, 0, 49, 64
2, 31910, Note_on_c, 0, 68, 0
2, 31917, Note_on_c, 0, 61, 0
2, 31921, Note_on_c, 0, 49, 0
2, 31925, Note_on_c, 0, 63, 64
2, 31925, Note_on_c, 0, 47, 64
2, 31977, Note_on_c, 0, 47, 0
2, 31977, Note_on_c, 0, 63, 0
2, 31985, Note_on_c, 0, 61, 64
2, 31985, Note_on_c, 0, 46, 64
2, 32037, Note_on_c, 0, 46, 0
2, 32037, Note_on_c, 0, 61, 0
2, 32045, Note_on_c, 0, 68, 64
2, 32045, Note_on_c, 0, 63, 64
2, 32045, Note_on_c, 0, 47, 64
2, 32097, Note_on_c, 0, 47, 0
2, 32097, Note_on_c, 0, 63, 0
2, 32105, Note_on_c, 0, 65, 64
2, 32105, Note_on_c, 0, 49, 64
2, 32150, Note_on_c, 0, 68, 0
2, 32157, Note_on_c, 0, 49, 0
2, 32157, Note_on_c, 0, 65, 0
2, 32165, Note_on_c, 0, 66, 64
2, 32165, Note_on_c, 0, 66, 64
2, 32165, Note_on_c, 0, 51, 64
2, 32217, Note_on_c, 0, 51, 0
2, 32225, Note_on_c, 0, 53, 64
2, 32270, Note_on_c, 0, 66, 0
2, 32270, Note_on_c, 0, 66, 0
2, 32277, Note_on_c, 0, 53, 0
2, 32285, Note_on_c, 0, 71, 64
2, 32285, Note_on_c, 0, 63, 64
2, 32285, Note_on_c, 0, 54, 64
2, 32337, Note_on_c, 0, 54, 0
2, 32345, Note_on_c, 0, 51, 64
2, 32390, Note_on_c, 0, 63, 0
2, 32397, Note_on_c, 0, 51, 0
2, 32405, Note_on_c, 0, 65, 64
2, 32405, Note_on_c, 0, 56, 64
2, 32510, Note_on_c, 0, 56, 0
2, 32510, Note_on_c, 0, 71, 0
2, 32525, Note_on_c, 0, 70, 64
2, 32525, Note_on_c, 0, 47, 64
2, 32577, Note_on_c, 0, 70, 0
2, 32585, Note_on_c, 0, 68, 64
2, 32630, Note_on_c, 0, 47, 0
2, 32630, Note_on_c, 0, 65, 0
2, 32637, Note_on_c, 0, 68, 0
2, 32645, Note_on_c, 0, 66, 64
2, 32645, Note_on_c, 0, 66, 64
2, 32645, Note_on_c, 0, 47, 64
2, 32697, Note_on_c, 0, 66, 0
2, 32705, Note_on_c, 0, 65, 64
2, 32750, Note_on_c, 0, 47, 0
2, 32750, Note_on_c, 0, 66, 0
2, 32757, Note_on_c, 0, 65, 0
2, 32765, Note_on_c, 0, 66, 64
2, 32765, Note_on_c, 0, 46, 64
2, 32817, Note_on_c, 0, 66, 0
2, 32825, Note_on_c, 0, 70, 64
2, 32870, Note_on_c, 0, 46, 0
2, 32877, Note_on_c, 0, 70, 0
2, 32885, Note_on_c, 0, 73, 64
2, 32885, Note_on_c, 0, 58, 64
2, 32937, Note_on_c, 0, 73, 0
2, 32945, Note_on_c, 0, 70, 64
2, 32990, Note_on_c, 0, 58, 0
2, 32997, Note_on_c, 0, 70, 0
2, 33005, Note_on_c, 0, 66, 64
2, 33005, Note_on_c, 0, 49, 64
2, 33057, Note_on_c, 0, 66, 0
2, 33065, Note_on_c, 0, 64, 64
2, 33110, Note_on_c, 0, 49, 0
2, 33117, Note_on_c, 0, 64, 0
2, 33125, Note_on_c, 0, 63, 64
2, 33125, Note_on_c, 0, 49, 64
2, 33177, Note_on_c, 0, 63, 0
2, 33185, Note_on_c, 0, 61, 64
2, 33230, Note_on_c, 0, 49, 0
2, 33237, Note_on_c, 0, 61, 0
2, 33245, Note_on_c, 0, 63, 64
2, 33245, Note_on_c, 0, 47, 64
2, 33297, Note_on_c, 0, 63, 0
2, 33305, Note_on_c, 0, 66, 64
2, 33350, Note_on_c, 0, 47, 0
2, 33357, Note_on_c, 0, 66, 0
2, 33365, Note_on_c, 0, 68, 64
2, 33365, Note_on_c, 0, 59, 64
2, 33417, Note_on_c, 0, 68, 0
2, 33425, Note_on_c, 0, 70, 64
2, 33470, Note_on_c, 0, 59, 0
2, 33477, Note_on_c, 0, 70, 0
2, 33485, Note_on_c, 0, 71, 64
2, 33485, Note_on_c, 0, 51, 64
2, 33537, Note_on_c, 0, 71, 0
2, 33545, Note_on_c, 0, 66, 64
2, 33590, Note_on_c, 0, 51, 0
2, 33597, Note_on_c, 0, 66, 0
2, 33605, Note_on_c, 0, 65, 64
2, 33605, Note_on_c, 0, 51, 64
2, 33657, Note_on_c, 0, 65, 0
2, 33665, Note_on_c, 0, 63, 64
2, 33710, Note_on_c, 0, 51, 0
2, 33717, Note_on_c, 0, 63, 0
2, 33725, Note_on_c, 0, 65, 64
2, 33725, Note_on_c, 0, 49, 64
2, 33777, Note_on_c, 0, 49, 0
2, 33777, Note_on_c, 0, 65, 0
2, 33785, Note_on_c, 0, 68, 64
2, 33785, Note_on_c, 0, 51, 64
2, 33837, Note_on_c, 0, 51, 0
2, 33837, Note_on_c, 0, 68, 0
2, 33845, Note_on_c, 0, 51, 64
2, 33845, Note_on_c, 0, 72, 64
2, 33897, Note_on_c, 0, 72, 0
2, 33904, Note_on_c, 0, 51, 0
2, 33905, Note_on_c, 0, 73, 64
2, 33910, Note_on_c, 0, 53, 64
2, 33931, Note_on_c, 0, 73, 0
2, 33934, Note_on_c, 0, 53, 0
2, 33935, Note_on_c, 0, 51, 64
2, 33935, Note_on_c, 0, 72, 64
2, 33959, Note_on_c, 0, 51, 0
2, 33960, Note_on_c, 0, 53, 64
2, 33961, Note_on_c, 0, 72, 0
2, 33965, Note_on_c, 0, 70, 64
2, 33984, Note_on_c, 0, 53, 0
2, 33990, Note_on_c, 0, 51, 64
2, 34014, Note_on_c, 0, 51, 0
2, 34017, Note_on_c, 0, 70, 0
2, 34025, Note_on_c, 0, 72, 64
2, 34025, Note_on_c, 0, 49, 64
2, 34051, Note_on_c, 0, 49, 0
2, 34055, Note_on_c, 0, 51, 64
2, 34077, Note_on_c, 0, 72, 0
2, 34081, Note_on_c, 0, 51, 0
2, 34085, Note_on_c, 0, 73, 64
2, 34085, Note_on_c, 0, 53, 64
2, 34137, Note_on_c, 0, 53, 0
2, 34145, Note_on_c, 0, 56, 64
2, 34190, Note_on_c, 0, 73, 0
2, 34197, Note_on_c, 0, 56, 0
2, 34205, Note_on_c, 0, 58, 64
2, 34257, Note_on_c, 0, 58, 0
2, 34265, Note_on_c, 0, 59, 64
2, 34317, Note_on_c, 0, 59, 0
2, 34325, Note_on_c, 0, 68, 64
2, 34325, Note_on_c, 0, 61, 64
2, 34377, Note_on_c, 0, 61, 0
2, 34385, Note_on_c, 0, 52, 64
2, 34430, Note_on_c, 0, 68, 0
2, 34437, Note_on_c, 0, 52, 0
2, 34445, Note_on_c, 0, 70, 64
2, 34445, Note_on_c, 0, 51, 64
2, 34497, Note_on_c, 0, 51, 0
2, 34505, Note_on_c, 0, 49, 64
2, 34550, Note_on_c, 0, 70, 0
2, 34557, Note_on_c, 0, 49, 0
2, 34565, Note_on_c, 0, 71, 64
2, 34565, Note_on_c, 0, 51, 64
2, 34617, Note_on_c, 0, 51, 0
2, 34625, Note_on_c, 0, 54, 64
2, 34677, Note_on_c, 0, 54, 0
2, 34685, Note_on_c, 0, 56, 64
2, 34730, Note_on_c, 0, 71, 0
2, 34737, Note_on_c, 0, 56, 0
2, 34745, Note_on_c, 0, 70, 64
2, 34745, Note_on_c, 0, 58, 64
2, 34771, Note_on_c, 0, 70, 0
2, 34775, Note_on_c, 0, 68, 64
2, 34797, Note_on_c, 0, 58, 0
2, 34801, Note_on_c, 0, 68, 0
2, 34805, Note_on_c, 0, 66, 64
2, 34805, Note_on_c, 0, 59, 64
2, 34857, Note_on_c, 0, 59, 0
2, 34857, Note_on_c, 0, 66, 0
2, 34865, Note_on_c, 0, 65, 64
2, 34865, Note_on_c, 0, 61, 64
2, 34891, Note_on_c, 0, 61, 0
2, 34895, Note_on_c, 0, 59, 64
2, 34917, Note_on_c, 0, 65, 0
2, 34921, Note_on_c, 0, 59, 0
2, 34925, Note_on_c, 0, 66, 64
2, 34925, Note_on_c, 0, 58, 64
2, 34977, Note_on_c, 0, 58, 0
2, 34977, Note_on_c, 0, 66, 0
2, 34985, Note_on_c, 0, 68, 64
2, 34985, Note_on_c, 0, 59, 64
2, 35037, Note_on_c, 0, 59, 0
2, 35037, Note_on_c, 0, 68, 0
2, 35045, Note_on_c, 0, 70, 64
2, 35045, Note_on_c, 0, 61, 64
2, 35097, Note_on_c, 0, 61, 0
2, 35097, Note_on_c, 0, 70, 0
2, 35105, Note_on_c, 0, 72, 64
2, 35105, Note_on_c, 0, 63, 64
2, 35157, Note_on_c, 0, 63, 0
2, 35157, Note_on_c, 0, 72, 0
2, 35165, Note_on_c, 0, 73, 64
2, 35165, Note_on_c, 0, 65, 64
2, 35217, Note_on_c, 0, 65, 0
2, 35217, Note_on_c, 0, 73, 0
2, 35225, Note_on_c, 0, 70, 64
2, 35225, Note_on_c, 0, 66, 64
2, 35277, Note_on_c, 0, 66, 0
2, 35277, Note_on_c, 0, 70, 0
2, 35285, Note_on_c, 0, 75, 64
2, 35285, Note_on_c, 0, 65, 64
2, 35337, Note_on_c, 0, 65, 0
2, 35345, Note_on_c, 0, 63, 64
2, 35390, Note_on_c, 0, 75, 0
2, 35397, Note_on_c, 0, 63, 0
2, 35405, Note_on_c, 0, 66, 64
2, 35405, Note_on_c, 0, 61, 64
2, 35457, Note_on_c, 0, 61, 0
2, 35465, Note_on_c, 0, 60, 64
2, 35510, Note_on_c, 0, 66, 0
2, 35517, Note_on_c, 0, 60, 0
2, 35525, Note_on_c, 0, 68, 64
2, 35525, Note_on_c, 0, 61, 64
2, 35540, Note_on_c, 0, 66, 64
2, 35549, Note_on_c, 0, 68, 0
2, 35555, Note_on_c, 0, 68, 64
2, 35564, Note_on_c, 0, 66, 0
2, 35570, Note_on_c, 0, 66, 64
2, 35577, Note_on_c, 0, 61, 0
2, 35579, Note_on_c, 0, 68, 0
2, 35585, Note_on_c, 0, 49, 64
2, 35637, Note_on_c, 0, 49, 0
2, 35639, Note_on_c, 0, 66, 0
2, 35645, Note_on_c, 0, 65, 64
2, 35645, Note_on_c, 0, 61, 64
2, 35697, Note_on_c, 0, 61, 0
2, 35705, Note_on_c, 0, 59, 64
2, 35750, Note_on_c, 0, 65, 0
2, 35757, Note_on_c, 0, 59, 0
2, 35765, Note_on_c, 0, 73, 64
2, 35765, Note_on_c, 0, 58, 64
2, 35817, Note_on_c, 0, 58, 0
2, 35825, Note_on_c, 0, 59, 64
2, 35870, Note_on_c, 0, 73, 0
2, 35877, Note_on_c, 0, 59, 0
2, 35885, Note_on_c, 0, 64, 64
2, 35885, Note_on_c, 0, 61, 64
2, 35937, Note_on_c, 0, 61, 0
2, 35945, Note_on_c, 0, 58, 64
2, 35990, Note_on_c, 0, 64, 0
2, 35997, Note_on_c, 0, 58, 0
2, 36005, Note_on_c, 0, 66, 64
2, 36005, Note_on_c, 0, 59, 64
2, 36025, Note_on_c, 0, 64, 64
2, 36039, Note_on_c, 0, 66, 0
2, 36045, Note_on_c, 0, 66, 64
2, 36057, Note_on_c, 0, 59, 0
2, 36059, Note_on_c, 0, 64, 0
2, 36065, Note_on_c, 0, 64, 64
2, 36065, Note_on_c, 0, 47, 64
2, 36079, Note_on_c, 0, 66, 0
2, 36117, Note_on_c, 0, 47, 0
2, 36124, Note_on_c, 0, 64, 0
2, 36125, Note_on_c, 0, 63, 64
2, 36125, Note_on_c, 0, 59, 64
2, 36177, Note_on_c, 0, 59, 0
2, 36185, Note_on_c, 0, 58, 64
2, 36230, Note_on_c, 0, 63, 0
2, 36237, Note_on_c, 0, 58, 0
2, 36245, Note_on_c, 0, 71, 64
2, 36245, Note_on_c, 0, 56, 64
2, 36297, Note_on_c, 0, 56, 0
2, 36305, Note_on_c, 0, 58, 64
2, 36350, Note_on_c, 0, 71, 0
2, 36357, Note_on_c, 0, 58, 0
2, 36365, Note_on_c, 0, 63, 64
2, 36365, Note_on_c, 0, 59, 64
2, 36417, Note_on_c, 0, 59, 0
2, 36425, Note_on_c, 0, 56, 64
2, 36470, Note_on_c, 0, 63, 0
2, 36477, Note_on_c, 0, 56, 0
2, 36485, Note_on_c, 0, 65, 64
2, 36485, Note_on_c, 0, 53, 64
2, 36505, Note_on_c, 0, 63, 64
2, 36519, Note_on_c, 0, 65, 0
2, 36525, Note_on_c, 0, 65, 64
2, 36537, Note_on_c, 0, 53, 0
2, 36539, Note_on_c, 0, 63, 0
2, 36540, Note_on_c, 0, 63, 64
2, 36545, Note_on_c, 0, 54, 64
2, 36559, Note_on_c, 0, 65, 0
2, 36597, Note_on_c, 0, 54, 0
2, 36604, Note_on_c, 0, 63, 0
2, 36605, Note_on_c, 0, 61, 64
2, 36605, Note_on_c, 0, 56, 64
2, 36657, Note_on_c, 0, 56, 0
2, 36665, Note_on_c, 0, 53, 64
2, 36710, Note_on_c, 0, 61, 0
2, 36717, Note_on_c, 0, 53, 0
2, 36725, Note_on_c, 0, 77, 64
2, 36725, Note_on_c, 0, 49, 64
2, 36777, Note_on_c, 0, 49, 0
2, 36779, Note_on_c, 0, 77, 0
2, 36780, Note_on_c, 0, 78, 64
2, 36785, Note_on_c, 0, 53, 64
2, 36814, Note_on_c, 0, 78, 0
2, 36815, Note_on_c, 0, 77, 64
2, 36837, Note_on_c, 0, 53, 0
2, 36845, Note_on_c, 0, 78, 64
2, 36845, Note_on_c, 0, 71, 64
2, 36845, Note_on_c, 0, 56, 64
2, 36849, Note_on_c, 0, 77, 0
2, 36879, Note_on_c, 0, 78, 0
2, 36880, Note_on_c, 0, 77, 64
2, 36897, Note_on_c, 0, 56, 0
2, 36905, Note_on_c, 0, 75, 64
2, 36905, Note_on_c, 0, 61, 64
2, 36914, Note_on_c, 0, 77, 0
2, 36931, Note_on_c, 0, 75, 0
2, 36935, Note_on_c, 0, 77, 64
2, 36950, Note_on_c, 0, 71, 0
2, 36957, Note_on_c, 0, 61, 0
2, 36961, Note_on_c, 0, 77, 0
2, 36965, Note_on_c, 0, 78, 64
2, 36965, Note_on_c, 0, 71, 64
2, 36965, Note_on_c, 0, 54, 64
2, 37017, Note_on_c, 0, 54, 0
2, 37025, Note_on_c, 0, 53, 64
2, 37070, Note_on_c, 0, 71, 0
2, 37070, Note_on_c, 0, 78, 0
2, 37077, Note_on_c, 0, 53, 0
2, 37085, Note_on_c, 0, 70, 64
2, 37085, Note_on_c, 0, 54, 64
2, 37137, Note_on_c, 0, 54, 0
2, 37145, Note_on_c, 0, 56, 64
2, 37190, Note_on_c, 0, 70, 0
2, 37197, Note_on_c, 0, 56, 0
2, 37205, Note_on_c, 0, 73, 64
2, 37205, Note_on_c, 0, 57, 64
2, 37257, Note_on_c, 0, 57, 0
2, 37265, Note_on_c, 0, 54, 64
2, 37310, Note_on_c, 0, 73, 0
2, 37317, Note_on_c, 0, 54, 0
2, 37325, Note_on_c, 0, 75, 64
2, 37325, Note_on_c, 0, 69, 64
2, 37325, Note_on_c, 0, 48, 64
2, 37377, Note_on_c, 0, 48, 0
2, 37385, Note_on_c, 0, 60, 64
2, 37430, Note_on_c, 0, 69, 0
2, 37430, Note_on_c, 0, 75, 0
2, 37437, Note_on_c, 0, 60, 0
2, 37445, Note_on_c, 0, 76, 64
2, 37445, Note_on_c, 0, 69, 64
2, 37445, Note_on_c, 0, 61, 64
2, 37497, Note_on_c, 0, 61, 0
2, 37505, Note_on_c, 0, 60, 64
2, 37550, Note_on_c, 0, 69, 0
2, 37557, Note_on_c, 0, 60, 0
2, 37565, Note_on_c, 0, 68, 64
2, 37565, Note_on_c, 0, 61, 64
2, 37610, Note_on_c, 0, 76, 0
2, 37617, Note_on_c, 0, 61, 0
2, 37625, Note_on_c, 0, 75, 64
2, 37625, Note_on_c, 0, 63, 64
2, 37651, Note_on_c, 0, 75, 0
2, 37655, Note_on_c, 0, 73, 64
2, 37670, Note_on_c, 0, 68, 0
2, 37677, Note_on_c, 0, 63, 0
2, 37681, Note_on_c, 0, 73, 0
2, 37685, Note_on_c, 0, 71, 64
2, 37685, Note_on_c, 0, 64, 64
2, 37737, Note_on_c, 0, 64, 0
2, 37737, Note_on_c, 0, 71, 0
2, 37745, Note_on_c, 0, 70, 64
2, 37745, Note_on_c, 0, 52, 64
2, 37797, Note_on_c, 0, 52, 0
2, 37797, Note_on_c, 0, 70, 0
2, 37805, Note_on_c, 0, 71, 64
2, 37805, Note_on_c, 0, 68, 64
2, 37805, Note_on_c, 0, 51, 64
2, 37857, Note_on_c, 0, 51, 0
2, 37857, Note_on_c, 0, 68, 0
2, 37857, Note_on_c, 0, 71, 0
2, 37865, Note_on_c, 0, 73, 64
2, 37865, Note_on_c, 0, 70, 64
2, 37865, Note_on_c, 0, 49, 64
2, 37917, Note_on_c, 0, 49, 0
2, 37917, Note_on_c, 0, 70, 0
2, 37917, Note_on_c, 0, 73, 0
2, 37925, Note_on_c, 0, 75, 64
2, 37925, Note_on_c, 0, 71, 64
2, 37925, Note_on_c, 0, 47, 64
2, 37977, Note_on_c, 0, 47, 0
2, 37977, Note_on_c, 0, 75, 0
2, 37985, Note_on_c, 0, 77, 64
2, 37985, Note_on_c, 0, 49, 64
2, 38030, Note_on_c, 0, 71, 0
2, 38037, Note_on_c, 0, 49, 0
2, 38037, Note_on_c, 0, 77, 0
2, 38045, Note_on_c, 0, 78, 64
2, 38045, Note_on_c, 0, 47, 64
2, 38097, Note_on_c, 0, 47, 0
2, 38097, Note_on_c, 0, 78, 0
2, 38105, Note_on_c, 0, 75, 64
2, 38105, Note_on_c, 0, 46, 64
2, 38157, Note_on_c, 0, 46, 0
2, 38157, Note_on_c, 0, 75, 0
2, 38165, Note_on_c, 0, 80, 64
2, 38165, Note_on_c, 0, 77, 64
2, 38165, Note_on_c, 0, 44, 64
2, 38217, Note_on_c, 0, 44, 0
2, 38225, Note_on_c, 0, 42, 64
2, 38270, Note_on_c, 0, 80, 0
2, 38277, Note_on_c, 0, 42, 0
2, 38285, Note_on_c, 0, 71, 64
2, 38285, Note_on_c, 0, 44, 64
2, 38337, Note_on_c, 0, 44, 0
2, 38345, Note_on_c, 0, 49, 64
2, 38390, Note_on_c, 0, 71, 0
2, 38390, Note_on_c, 0, 77, 0
2, 38397, Note_on_c, 0, 49, 0
2, 38405, Note_on_c, 0, 71, 64
2, 38405, Note_on_c, 0, 78, 64
2, 38405, Note_on_c, 0, 42, 64
2, 38457, Note_on_c, 0, 42, 0
2, 38465, Note_on_c, 0, 41, 64
2, 38510, Note_on_c, 0, 71, 0
2, 38517, Note_on_c, 0, 41, 0
2, 38525, Note_on_c, 0, 70, 64
2, 38525, Note_on_c, 0, 42, 64
2, 38577, Note_on_c, 0, 42, 0
2, 38585, Note_on_c, 0, 46, 64
2, 38630, Note_on_c, 0, 70, 0
2, 38630, Note_on_c, 0, 78, 0
2, 38637, Note_on_c, 0, 46, 0
2, 38645, Note_on_c, 0, 82, 64
2, 38645, Note_on_c, 0, 49, 64
2, 38697, Note_on_c, 0, 49, 0
2, 38705, Note_on_c, 0, 46, 64
2, 38750, Note_on_c, 0, 82, 0
2, 38757, Note_on_c, 0, 46, 0
2, 38765, Note_on_c, 0, 73, 64
2, 38765, Note_on_c, 0, 70, 64
2, 38765, Note_on_c, 0, 54, 64
2, 38817, Note_on_c, 0, 54, 0
2, 38825, Note_on_c, 0, 53, 64
2, 38870, Note_on_c, 0, 70, 0
2, 38870, Note_on_c, 0, 73, 0
2, 38877, Note_on_c, 0, 53, 0
2, 38885, Note_on_c, 0, 75, 64
2, 38885, Note_on_c, 0, 70, 64
2, 38885, Note_on_c, 0, 51, 64
2, 38905, Note_on_c, 0, 73, 64
2, 38919, Note_on_c, 0, 75, 0
2, 38925, Note_on_c, 0, 75, 64
2, 38937, Note_on_c, 0, 51, 0
2, 38939, Note_on_c, 0, 73, 0
2, 38945, Note_on_c, 0, 73, 64
2, 38945, Note_on_c, 0, 49, 64
2, 38959, Note_on_c, 0, 75, 0
2, 38990, Note_on_c, 0, 70, 0
2, 38997, Note_on_c, 0, 49, 0
2, 39004, Note_on_c, 0, 73, 0
2, 39005, Note_on_c, 0, 71, 64
2, 39005, Note_on_c, 0, 71, 64
2, 39005, Note_on_c, 0, 51, 64
2, 39057, Note_on_c, 0, 51, 0
2, 39065, Note_on_c, 0, 54, 64
2, 39110, Note_on_c, 0, 71, 0
2, 39110, Note_on_c, 0, 71, 0
2, 39117, Note_on_c, 0, 54, 0
2, 39125, Note_on_c, 0, 83, 64
2, 39125, Note_on_c, 0, 56, 64
2, 39177, Note_on_c, 0, 56, 0
2, 39185, Note_on_c, 0, 51, 64
2, 39230, Note_on_c, 0, 83, 0
2, 39237, Note_on_c, 0, 51, 0
2, 39245, Note_on_c, 0, 75, 64
2, 39245, Note_on_c, 0, 71, 64
2, 39245, Note_on_c, 0, 59, 64
2, 39297, Note_on_c, 0, 59, 0
2, 39305, Note_on_c, 0, 56, 64
2, 39350, Note_on_c, 0, 71, 0
2, 39350, Note_on_c, 0, 75, 0
2, 39357, Note_on_c, 0, 56, 0
2, 39365, Note_on_c, 0, 75, 64
2, 39365, Note_on_c, 0, 72, 64
2, 39365, Note_on_c, 0, 53, 64
2, 39417, Note_on_c, 0, 53, 0
2, 39425, Note_on_c, 0, 51, 64
2, 39470, Note_on_c, 0, 72, 0
2, 39470, Note_on_c, 0, 75, 0
2, 39477, Note_on_c, 0, 51, 0
2, 39485, Note_on_c, 0, 73, 64
2, 39485, Note_on_c, 0, 73, 64
2, 39485, Note_on_c, 0, 53, 64
2, 39537, Note_on_c, 0, 53, 0
2, 39537, Note_on_c, 0, 73, 0
2, 39545, Note_on_c, 0, 75, 64
2, 39545, Note_on_c, 0, 56, 64
2, 39590, Note_on_c, 0, 73, 0
2, 39597, Note_on_c, 0, 56, 0
2, 39597, Note_on_c, 0, 75, 0
2, 39605, Note_on_c, 0, 77, 64
2, 39605, Note_on_c, 0, 61, 64
2, 39657, Note_on_c, 0, 61, 0
2, 39657, Note_on_c, 0, 77, 0
2, 39665, Note_on_c, 0, 78, 64
2, 39665, Note_on_c, 0, 56, 64
2, 39717, Note_on_c, 0, 56, 0
2, 39717, Note_on_c, 0, 78, 0
2, 39725, Note_on_c, 0, 80, 64
2, 39725, Note_on_c, 0, 71, 64
2, 39725, Note_on_c, 0, 65, 64
2, 39777, Note_on_c, 0, 65, 0
2, 39777, Note_on_c, 0, 80, 0
2, 39785, Note_on_c, 0, 77, 64
2, 39785, Note_on_c, 0, 61, 64
2, 39830, Note_on_c, 0, 71, 0
2, 39837, Note_on_c, 0, 61, 0
2, 39837, Note_on_c, 0, 77, 0
2, 39845, Note_on_c, 0, 78, 64
2, 39845, Note_on_c, 0, 70, 64
2, 39845, Note_on_c, 0, 63, 64
2, 39950, Note_on_c, 0, 63, 0
2, 39965, Note_on_c, 0, 59, 64
2, 40010, Note_on_c, 0, 70, 0
2, 40010, Note_on_c, 0, 78, 0
2, 40025, Note_on_c, 0, 80, 64
2, 40025, Note_on_c, 0, 71, 64
2, 40070, Note_on_c, 0, 59, 0
2, 40077, Note_on_c, 0, 71, 0
2, 40077, Note_on_c, 0, 80, 0
2, 40085, Note_on_c, 0, 77, 64
2, 40085, Note_on_c, 0, 68, 64
2, 40085, Note_on_c, 0, 61, 64
2, 40190, Note_on_c, 0, 61, 0
2, 40205, Note_on_c, 0, 49, 64
2, 40250, Note_on_c, 0, 68, 0
2, 40250, Note_on_c, 0, 77, 0
2, 40265, Note_on_c, 0, 78, 64
2, 40265, Note_on_c, 0, 70, 64
2, 40310, Note_on_c, 0, 49, 0
2, 40317, Note_on_c, 0, 70, 0
2, 40317, Note_on_c, 0, 78, 0
2, 40325, Note_on_c, 0, 78, 64
2, 40325, Note_on_c, 0, 70, 64
2, 40325, Note_on_c, 0, 42, 64
2, 40550, Note_on_c, 0, 42, 0
2, 40550, Note_on_c, 0, 70, 0
2, 40550, Note_on_c, 0, 78, 0
2, 40550, End_track
0, 0, End_of_file
