0, 0, Header, 1, 2, 120
1, 0, Start_track
1, 0, Time_signature, 3, 2, 24, 8
1, 0, Key_signature, 3, "major"
1, 0, Tempo, 1153846
1, 0, Marker_t, "(c) Yo Tomita, 1997"
1, 9782, Tempo, 1188119
1, 9842, Tempo, 1237113
1, 9902, Tempo, 1263158
1, 9960, Tempo, 1318681
1, 10026, Tempo, 1395349
1, 10082, Tempo, 1500000
1, 10138, Tempo, 1764706
1, 10196, Tempo, 2608696
1, 10230, Tempo, 1165049
1, 14876, Tempo, 1212121
1, 14926, Tempo, 1263158
1, 14976, Tempo, 1411765
1, 15020, Tempo, 1578947
1, 15070, Tempo, 1764706
1, 15122, Tempo, 1935484
1, 15122, End_track
2, 0, Start_track
2, 0, MIDI_port, 0
2, 0, Title_t, "BWV 883/1"
2, 0, Program_c, 0, 6
2, 0, Note_on_c, 0, 78, 64
2, 0, Note_on_c, 0, 54, 64
2, 52, Note_on_c, 0, 78, 0
2, 60, Note_on_c, 0, 73, 64
2, 60, Note_on_c, 0, 57, 64
2, 112, Note_on_c, 0, 57, 0
2, 120, Note_on_c, 0, 61, 64
2, 165, Note_on_c, 0, 73, 0
2, 172, Note_on_c, 0, 61, 0
2, 180, Note_on_c, 0, 69, 64
2, 180, Note_on_c, 0, 66, 64
2, 206, Note_on_c, 0, 69, 0
2, 206, Note_on_c, 0, 54, 0
2, 210, Note_on_c, 0, 71, 64
2, 210, Note_on_c, 0, 56, 64
2, 236, Note_on_c, 0, 56, 0
2, 236, Note_on_c, 0, 71, 0
2, 240, Note_on_c, 0, 73, 64
2, 240, Note_on_c, 0, 57, 64
2, 257, Note_on_c, 0, 73, 0
2, 259, Note_on_c, 0, 71, 64
2, 277, Note_on_c, 0, 71, 0
2, 279, Note_on_c, 0, 69, 64
2, 285, Note_on_c, 0, 66, 0
2, 292, Note_on_c, 0, 57, 0
2, 297, Note_on_c, 0, 69, 0
2, 300, Note_on_c, 0, 71, 64
2, 300, Note_on_c, 0, 65, 64
2, 300, Note_on_c, 0, 61, 64
2, 317, Note_on_c, 0, 71, 0
2, 319, Note_on_c, 0, 69, 64
2, 337, Note_on_c, 0, 69, 0
2, 339, Note_on_c, 0, 68, 64
2, 352, Note_on_c, 0, 61, 0
2, 352, Note_on_c, 0, 65, 0
2, 357, Note_on_c, 0, 68, 0
2, 360, Note_on_c, 0, 69, 64
2, 360, Note_on_c, 0, 66, 64
2, 360, Note_on_c, 0, 54, 64
2, 386, Note_on_c, 0, 69, 0
2, 390, Note_on_c, 0, 71, 64
2, 412, Note_on_c, 0, 66, 0
2, 416, Note_on_c, 0, 71, 0
2, 420, Note_on_c, 0, 69, 64
2, 420, Note_on_c, 0, 61, 64
2, 446, Note_on_c, 0, 69, 0
2, 450, Note_on_c, 0, 68, 64
2, 476, Note_on_c, 0, 68, 0
2, 480, Note_on_c, 0, 69, 64
2, 506, Note_on_c, 0, 69, 0
2, 510, Note_on_c, 0, 73, 64
2, 525, Note_on_c, 0, 61, 0
2, 536, Note_on_c, 0, 73, 0
2, 540, Note_on_c, 0, 78, 64
2, 540, Note_on_c, 0, 57, 64
2, 566, Note_on_c, 0, 57, 0
2, 566, Note_on_c, 0, 78, 0
2, 570, Note_on_c, 0, 80, 64
2, 570, Note_on_c, 0, 59, 64
2, 596, Note_on_c, 0, 59, 0
2, 596, Note_on_c, 0, 80, 0
2, 600, Note_on_c, 0, 81, 64
2, 600, Note_on_c, 0, 61, 64
2, 617, Note_on_c, 0, 61, 0
2, 617, Note_on_c, 0, 81, 0
2, 619, Note_on_c, 0, 80, 64
2, 619, Note_on_c, 0, 59, 64
2, 637, Note_on_c, 0, 59, 0
2, 637, Note_on_c, 0, 80, 0
2, 639, Note_on_c, 0, 78, 64
2, 639, Note_on_c, 0, 57, 64
2, 657, Note_on_c, 0, 57, 0
2, 657, Note_on_c, 0, 78, 0
2, 660, Note_on_c, 0, 80, 64
2, 660, Note_on_c, 0, 59, 64
2, 677, Note_on_c, 0, 59, 0
2, 677, Note_on_c, 0, 80, 0
2, 679, Note_on_c, 0, 78, 64
2, 679, Note_on_c, 0, 57, 64
2, 697, Note_on_c, 0, 57, 0
2, 697, Note_on_c, 0, 78, 0
2, 699, Note_on_c, 0, 77, 64
2, 699, Note_on_c, 0, 56, 64
2, 717, Note_on_c, 0, 56, 0
2, 717, Note_on_c, 0, 77, 0
2, 720, Note_on_c, 0, 78, 64
2, 720, Note_on_c, 0, 57, 64
2, 746, Note_on_c, 0, 78, 0
2, 750, Note_on_c, 0, 73, 64
2, 772, Note_on_c, 0, 57, 0
2, 772, Note_on_c, 0, 54, 0
2, 780, Note_on_c, 0, 59, 64
2, 780, Note_on_c, 0, 56, 64
2, 802, Note_on_c, 0, 73, 0
2, 810, Note_on_c, 0, 77, 64
2, 832, Note_on_c, 0, 56, 0
2, 832, Note_on_c, 0, 59, 0
2, 836, Note_on_c, 0, 77, 0
2, 840, Note_on_c, 0, 78, 64
2, 840, Note_on_c, 0, 61, 64
2, 840, Note_on_c, 0, 57, 64
2, 866, Note_on_c, 0, 78, 0
2, 870, Note_on_c, 0, 73, 64
2, 892, Note_on_c, 0, 57, 0
2, 892, Note_on_c, 0, 61, 0
2, 900, Note_on_c, 0, 68, 64
2, 900, Note_on_c, 0, 59, 64
2, 922, Note_on_c, 0, 73, 0
2, 930, Note_on_c, 0, 77, 64
2, 952, Note_on_c, 0, 59, 0
2, 952, Note_on_c, 0, 68, 0
2, 956, Note_on_c, 0, 77, 0
2, 960, Note_on_c, 0, 78, 64
2, 960, Note_on_c, 0, 66, 64
2, 960, Note_on_c, 0, 57, 64
2, 986, Note_on_c, 0, 78, 0
2, 990, Note_on_c, 0, 73, 64
2, 1012, Note_on_c, 0, 57, 0
2, 1012, Note_on_c, 0, 66, 0
2, 1016, Note_on_c, 0, 73, 0
2, 1020, Note_on_c, 0, 78, 64
2, 1020, Note_on_c, 0, 65, 64
2, 1020, Note_on_c, 0, 56, 64
2, 1046, Note_on_c, 0, 78, 0
2, 1050, Note_on_c, 0, 80, 64
2, 1072, Note_on_c, 0, 56, 0
2, 1072, Note_on_c, 0, 65, 0
2, 1076, Note_on_c, 0, 80, 0
2, 1080, Note_on_c, 0, 81, 64
2, 1080, Note_on_c, 0, 66, 64
2, 1080, Note_on_c, 0, 54, 64
2, 1106, Note_on_c, 0, 81, 0
2, 1110, Note_on_c, 0, 77, 64
2, 1132, Note_on_c, 0, 54, 0
2, 1132, Note_on_c, 0, 66, 0
2, 1136, Note_on_c, 0, 77, 0
2, 1140, Note_on_c, 0, 78, 64
2, 1140, Note_on_c, 0, 61, 64
2, 1140, Note_on_c, 0, 52, 64
2, 1166, Note_on_c, 0, 78, 0
2, 1170, Note_on_c, 0, 81, 64
2, 1192, Note_on_c, 0, 52, 0
2, 1192, Note_on_c, 0, 61, 0
2, 1196, Note_on_c, 0, 81, 0
2, 1200, Note_on_c, 0, 71, 64
2, 1200, Note_on_c, 0, 54, 64
2, 1200, Note_on_c, 0, 50, 64
2, 1226, Note_on_c, 0, 71, 0
2, 1230, Note_on_c, 0, 81, 64
2, 1252, Note_on_c, 0, 54, 0
2, 1256, Note_on_c, 0, 81, 0
2, 1260, Note_on_c, 0, 80, 64
2, 1260, Note_on_c, 0, 53, 64
2, 1286, Note_on_c, 0, 80, 0
2, 1290, Note_on_c, 0, 81, 64
2, 1312, Note_on_c, 0, 53, 0
2, 1316, Note_on_c, 0, 81, 0
2, 1320, Note_on_c, 0, 83, 64
2, 1320, Note_on_c, 0, 54, 64
2, 1337, Note_on_c, 0, 83, 0
2, 1339, Note_on_c, 0, 81, 64
2, 1357, Note_on_c, 0, 81, 0
2, 1359, Note_on_c, 0, 80, 64
2, 1372, Note_on_c, 0, 54, 0
2, 1377, Note_on_c, 0, 80, 0
2, 1380, Note_on_c, 0, 81, 64
2, 1380, Note_on_c, 0, 59, 64
2, 1397, Note_on_c, 0, 81, 0
2, 1399, Note_on_c, 0, 80, 64
2, 1417, Note_on_c, 0, 80, 0
2, 1419, Note_on_c, 0, 78, 64
2, 1425, Note_on_c, 0, 50, 0
2, 1432, Note_on_c, 0, 59, 0
2, 1437, Note_on_c, 0, 78, 0
2, 1440, Note_on_c, 0, 77, 64
2, 1440, Note_on_c, 0, 49, 64
2, 1466, Note_on_c, 0, 77, 0
2, 1470, Note_on_c, 0, 72, 64
2, 1500, Note_on_c, 0, 56, 64
2, 1522, Note_on_c, 0, 72, 0
2, 1530, Note_on_c, 0, 73, 64
2, 1552, Note_on_c, 0, 56, 0
2, 1556, Note_on_c, 0, 73, 0
2, 1560, Note_on_c, 0, 78, 64
2, 1560, Note_on_c, 0, 57, 64
2, 1586, Note_on_c, 0, 78, 0
2, 1590, Note_on_c, 0, 72, 64
2, 1612, Note_on_c, 0, 57, 0
2, 1620, Note_on_c, 0, 54, 64
2, 1642, Note_on_c, 0, 72, 0
2, 1650, Note_on_c, 0, 73, 64
2, 1672, Note_on_c, 0, 54, 0
2, 1676, Note_on_c, 0, 73, 0
2, 1680, Note_on_c, 0, 80, 64
2, 1680, Note_on_c, 0, 53, 64
2, 1697, Note_on_c, 0, 80, 0
2, 1699, Note_on_c, 0, 71, 64
2, 1717, Note_on_c, 0, 71, 0
2, 1719, Note_on_c, 0, 73, 64
2, 1737, Note_on_c, 0, 73, 0
2, 1740, Note_on_c, 0, 74, 64
2, 1757, Note_on_c, 0, 74, 0
2, 1759, Note_on_c, 0, 73, 64
2, 1777, Note_on_c, 0, 73, 0
2, 1779, Note_on_c, 0, 71, 64
2, 1797, Note_on_c, 0, 71, 0
2, 1800, Note_on_c, 0, 69, 64
2, 1817, Note_on_c, 0, 53, 0
2, 1819, Note_on_c, 0, 53, 64
2, 1837, Note_on_c, 0, 53, 0
2, 1839, Note_on_c, 0, 54, 64
2, 1857, Note_on_c, 0, 54, 0
2, 1860, Note_on_c, 0, 56, 64
2, 1877, Note_on_c, 0, 56, 0
2, 1879, Note_on_c, 0, 54, 64
2, 1897, Note_on_c, 0, 54, 0
2, 1899, Note_on_c, 0, 53, 64
2, 1905, Note_on_c, 0, 49, 0
2, 1917, Note_on_c, 0, 53, 0
2, 1920, Note_on_c, 0, 54, 64
2, 1937, Note_on_c, 0, 54, 0
2, 1937, Note_on_c, 0, 69, 0
2, 1939, Note_on_c, 0, 68, 64
2, 1939, Note_on_c, 0, 56, 64
2, 1957, Note_on_c, 0, 56, 0
2, 1957, Note_on_c, 0, 68, 0
2, 1959, Note_on_c, 0, 66, 64
2, 1959, Note_on_c, 0, 57, 64
2, 1977, Note_on_c, 0, 57, 0
2, 1977, Note_on_c, 0, 66, 0
2, 1980, Note_on_c, 0, 65, 64
2, 1980, Note_on_c, 0, 59, 64
2, 1997, Note_on_c, 0, 59, 0
2, 1997, Note_on_c, 0, 65, 0
2, 1999, Note_on_c, 0, 66, 64
2, 1999, Note_on_c, 0, 57, 64
2, 2017, Note_on_c, 0, 57, 0
2, 2017, Note_on_c, 0, 66, 0
2, 2019, Note_on_c, 0, 68, 64
2, 2019, Note_on_c, 0, 56, 64
2, 2037, Note_on_c, 0, 56, 0
2, 2037, Note_on_c, 0, 68, 0
2, 2040, Note_on_c, 0, 66, 64
2, 2040, Note_on_c, 0, 57, 64
2, 2057, Note_on_c, 0, 66, 0
2, 2059, Note_on_c, 0, 65, 64
2, 2077, Note_on_c, 0, 65, 0
2, 2079, Note_on_c, 0, 66, 64
2, 2097, Note_on_c, 0, 66, 0
2, 2100, Note_on_c, 0, 75, 64
2, 2100, Note_on_c, 0, 48, 64
2, 2139, Note_on_c, 0, 75, 0
2, 2145, Note_on_c, 0, 66, 64
2, 2152, Note_on_c, 0, 48, 0
2, 2158, Note_on_c, 0, 66, 0
2, 2160, Note_on_c, 0, 66, 64
2, 2160, Note_on_c, 0, 49, 64
2, 2186, Note_on_c, 0, 57, 0
2, 2190, Note_on_c, 0, 56, 64
2, 2203, Note_on_c, 0, 56, 0
2, 2205, Note_on_c, 0, 54, 64
2, 2218, Note_on_c, 0, 54, 0
2, 2220, Note_on_c, 0, 56, 64
2, 2238, Note_on_c, 0, 66, 0
2, 2250, Note_on_c, 0, 65, 64
2, 2263, Note_on_c, 0, 65, 0
2, 2265, Note_on_c, 0, 63, 64
2, 2278, Note_on_c, 0, 63, 0
2, 2280, Note_on_c, 0, 65, 64
2, 2297, Note_on_c, 0, 65, 0
2, 2299, Note_on_c, 0, 61, 64
2, 2317, Note_on_c, 0, 61, 0
2, 2319, Note_on_c, 0, 63, 64
2, 2325, Note_on_c, 0, 49, 0
2, 2337, Note_on_c, 0, 63, 0
2, 2340, Note_on_c, 0, 65, 64
2, 2340, Note_on_c, 0, 49, 64
2, 2357, Note_on_c, 0, 65, 0
2, 2359, Note_on_c, 0, 66, 64
2, 2377, Note_on_c, 0, 66, 0
2, 2379, Note_on_c, 0, 68, 64
2, 2385, Note_on_c, 0, 56, 0
2, 2392, Note_on_c, 0, 49, 0
2, 2397, Note_on_c, 0, 68, 0
2, 2400, Note_on_c, 0, 66, 64
2, 2400, Note_on_c, 0, 51, 64
2, 2417, Note_on_c, 0, 66, 0
2, 2419, Note_on_c, 0, 65, 64
2, 2437, Note_on_c, 0, 65, 0
2, 2439, Note_on_c, 0, 66, 64
2, 2452, Note_on_c, 0, 51, 0
2, 2457, Note_on_c, 0, 66, 0
2, 2460, Note_on_c, 0, 68, 64
2, 2460, Note_on_c, 0, 53, 64
2, 2477, Note_on_c, 0, 68, 0
2, 2479, Note_on_c, 0, 69, 64
2, 2497, Note_on_c, 0, 69, 0
2, 2499, Note_on_c, 0, 71, 64
2, 2512, Note_on_c, 0, 53, 0
2, 2517, Note_on_c, 0, 71, 0
2, 2520, Note_on_c, 0, 69, 64
2, 2520, Note_on_c, 0, 54, 64
2, 2533, Note_on_c, 0, 69, 0
2, 2535, Note_on_c, 0, 68, 64
2, 2548, Note_on_c, 0, 68, 0
2, 2550, Note_on_c, 0, 66, 64
2, 2572, Note_on_c, 0, 54, 0
2, 2580, Note_on_c, 0, 42, 64
2, 2602, Note_on_c, 0, 66, 0
2, 2610, Note_on_c, 0, 69, 64
2, 2623, Note_on_c, 0, 69, 0
2, 2625, Note_on_c, 0, 73, 64
2, 2632, Note_on_c, 0, 42, 0
2, 2638, Note_on_c, 0, 73, 0
2, 2640, Note_on_c, 0, 78, 64
2, 2640, Note_on_c, 0, 45, 64
2, 2657, Note_on_c, 0, 78, 0
2, 2659, Note_on_c, 0, 73, 64
2, 2677, Note_on_c, 0, 73, 0
2, 2679, Note_on_c, 0, 75, 64
2, 2692, Note_on_c, 0, 45, 0
2, 2697, Note_on_c, 0, 75, 0
2, 2700, Note_on_c, 0, 77, 64
2, 2700, Note_on_c, 0, 49, 64
2, 2717, Note_on_c, 0, 77, 0
2, 2719, Note_on_c, 0, 78, 64
2, 2737, Note_on_c, 0, 78, 0
2, 2739, Note_on_c, 0, 80, 64
2, 2752, Note_on_c, 0, 49, 0
2, 2757, Note_on_c, 0, 80, 0
2, 2760, Note_on_c, 0, 81, 64
2, 2760, Note_on_c, 0, 54, 64
2, 2777, Note_on_c, 0, 81, 0
2, 2779, Note_on_c, 0, 80, 64
2, 2797, Note_on_c, 0, 80, 0
2, 2799, Note_on_c, 0, 78, 64
2, 2817, Note_on_c, 0, 78, 0
2, 2820, Note_on_c, 0, 80, 64
2, 2820, Note_on_c, 0, 59, 64
2, 2837, Note_on_c, 0, 80, 0
2, 2839, Note_on_c, 0, 78, 64
2, 2857, Note_on_c, 0, 78, 0
2, 2859, Note_on_c, 0, 76, 64
2, 2872, Note_on_c, 0, 59, 0
2, 2877, Note_on_c, 0, 76, 0
2, 2880, Note_on_c, 0, 75, 64
2, 2880, Note_on_c, 0, 57, 64
2, 2906, Note_on_c, 0, 75, 0
2, 2910, Note_on_c, 0, 76, 64
2, 2932, Note_on_c, 0, 54, 0
2, 2936, Note_on_c, 0, 76, 0
2, 2940, Note_on_c, 0, 78, 64
2, 2940, Note_on_c, 0, 51, 64
2, 2958, Note_on_c, 0, 57, 0
2, 2970, Note_on_c, 0, 57, 64
2, 2992, Note_on_c, 0, 51, 0
2, 2996, Note_on_c, 0, 57, 0
2, 3000, Note_on_c, 0, 56, 64
2, 3000, Note_on_c, 0, 48, 64
2, 3026, Note_on_c, 0, 78, 0
2, 3030, Note_on_c, 0, 76, 64
2, 3052, Note_on_c, 0, 56, 0
2, 3056, Note_on_c, 0, 76, 0
2, 3060, Note_on_c, 0, 75, 64
2, 3060, Note_on_c, 0, 54, 64
2, 3086, Note_on_c, 0, 75, 0
2, 3090, Note_on_c, 0, 81, 64
2, 3105, Note_on_c, 0, 48, 0
2, 3112, Note_on_c, 0, 54, 0
2, 3116, Note_on_c, 0, 81, 0
2, 3120, Note_on_c, 0, 80, 64
2, 3120, Note_on_c, 0, 52, 64
2, 3137, Note_on_c, 0, 80, 0
2, 3139, Note_on_c, 0, 78, 64
2, 3157, Note_on_c, 0, 78, 0
2, 3159, Note_on_c, 0, 76, 64
2, 3172, Note_on_c, 0, 52, 0
2, 3177, Note_on_c, 0, 76, 0
2, 3180, Note_on_c, 0, 78, 64
2, 3180, Note_on_c, 0, 51, 64
2, 3180, Note_on_c, 0, 44, 64
2, 3197, Note_on_c, 0, 78, 0
2, 3199, Note_on_c, 0, 76, 64
2, 3217, Note_on_c, 0, 76, 0
2, 3219, Note_on_c, 0, 75, 64
2, 3232, Note_on_c, 0, 44, 0
2, 3232, Note_on_c, 0, 51, 0
2, 3237, Note_on_c, 0, 75, 0
2, 3240, Note_on_c, 0, 76, 64
2, 3240, Note_on_c, 0, 49, 64
2, 3240, Note_on_c, 0, 49, 64
2, 3266, Note_on_c, 0, 76, 0
2, 3270, Note_on_c, 0, 75, 64
2, 3296, Note_on_c, 0, 75, 0
2, 3300, Note_on_c, 0, 73, 64
2, 3330, Note_on_c, 0, 49, 0
2, 3330, Note_on_c, 0, 47, 64
2, 3356, Note_on_c, 0, 47, 0
2, 3360, Note_on_c, 0, 45, 64
2, 3386, Note_on_c, 0, 73, 0
2, 3390, Note_on_c, 0, 75, 64
2, 3412, Note_on_c, 0, 45, 0
2, 3416, Note_on_c, 0, 75, 0
2, 3420, Note_on_c, 0, 73, 64
2, 3420, Note_on_c, 0, 44, 64
2, 3446, Note_on_c, 0, 73, 0
2, 3450, Note_on_c, 0, 72, 64
2, 3472, Note_on_c, 0, 44, 0
2, 3476, Note_on_c, 0, 72, 0
2, 3480, Note_on_c, 0, 73, 64
2, 3480, Note_on_c, 0, 42, 64
2, 3506, Note_on_c, 0, 73, 0
2, 3510, Note_on_c, 0, 76, 64
2, 3532, Note_on_c, 0, 49, 0
2, 3536, Note_on_c, 0, 76, 0
2, 3540, Note_on_c, 0, 69, 64
2, 3540, Note_on_c, 0, 49, 64
2, 3566, Note_on_c, 0, 69, 0
2, 3570, Note_on_c, 0, 68, 64
2, 3592, Note_on_c, 0, 49, 0
2, 3596, Note_on_c, 0, 68, 0
2, 3600, Note_on_c, 0, 69, 64
2, 3600, Note_on_c, 0, 54, 64
2, 3626, Note_on_c, 0, 69, 0
2, 3630, Note_on_c, 0, 72, 64
2, 3652, Note_on_c, 0, 54, 0
2, 3652, Note_on_c, 0, 42, 0
2, 3656, Note_on_c, 0, 72, 0
2, 3660, Note_on_c, 0, 66, 64
2, 3660, Note_on_c, 0, 44, 64
2, 3686, Note_on_c, 0, 66, 0
2, 3690, Note_on_c, 0, 64, 64
2, 3712, Note_on_c, 0, 44, 0
2, 3716, Note_on_c, 0, 64, 0
2, 3720, Note_on_c, 0, 66, 64
2, 3720, Note_on_c, 0, 45, 64
2, 3746, Note_on_c, 0, 66, 0
2, 3750, Note_on_c, 0, 72, 64
2, 3772, Note_on_c, 0, 45, 0
2, 3776, Note_on_c, 0, 72, 0
2, 3780, Note_on_c, 0, 73, 64
2, 3780, Note_on_c, 0, 42, 64
2, 3806, Note_on_c, 0, 73, 0
2, 3810, Note_on_c, 0, 75, 64
2, 3832, Note_on_c, 0, 42, 0
2, 3836, Note_on_c, 0, 75, 0
2, 3840, Note_on_c, 0, 76, 64
2, 3840, Note_on_c, 0, 44, 64
2, 3857, Note_on_c, 0, 76, 0
2, 3859, Note_on_c, 0, 75, 64
2, 3877, Note_on_c, 0, 75, 0
2, 3879, Note_on_c, 0, 73, 64
2, 3897, Note_on_c, 0, 73, 0
2, 3900, Note_on_c, 0, 75, 64
2, 3900, Note_on_c, 0, 54, 64
2, 3917, Note_on_c, 0, 75, 0
2, 3919, Note_on_c, 0, 73, 64
2, 3937, Note_on_c, 0, 73, 0
2, 3939, Note_on_c, 0, 72, 64
2, 3945, Note_on_c, 0, 44, 0
2, 3957, Note_on_c, 0, 72, 0
2, 3960, Note_on_c, 0, 54, 0
2, 3960, Note_on_c, 0, 73, 64
2, 3960, Note_on_c, 0, 49, 64
2, 4012, Note_on_c, 0, 73, 0
2, 4020, Note_on_c, 0, 68, 64
2, 4020, Note_on_c, 0, 52, 64
2, 4072, Note_on_c, 0, 52, 0
2, 4080, Note_on_c, 0, 56, 64
2, 4125, Note_on_c, 0, 68, 0
2, 4132, Note_on_c, 0, 56, 0
2, 4140, Note_on_c, 0, 64, 64
2, 4140, Note_on_c, 0, 61, 64
2, 4158, Note_on_c, 0, 49, 0
2, 4166, Note_on_c, 0, 64, 0
2, 4170, Note_on_c, 0, 66, 64
2, 4170, Note_on_c, 0, 51, 64
2, 4196, Note_on_c, 0, 51, 0
2, 4196, Note_on_c, 0, 66, 0
2, 4200, Note_on_c, 0, 68, 64
2, 4200, Note_on_c, 0, 52, 64
2, 4217, Note_on_c, 0, 68, 0
2, 4219, Note_on_c, 0, 66, 64
2, 4237, Note_on_c, 0, 66, 0
2, 4239, Note_on_c, 0, 64, 64
2, 4245, Note_on_c, 0, 61, 0
2, 4252, Note_on_c, 0, 52, 0
2, 4257, Note_on_c, 0, 64, 0
2, 4260, Note_on_c, 0, 66, 64
2, 4260, Note_on_c, 0, 60, 64
2, 4260, Note_on_c, 0, 56, 64
2, 4277, Note_on_c, 0, 66, 0
2, 4279, Note_on_c, 0, 64, 64
2, 4297, Note_on_c, 0, 64, 0
2, 4299, Note_on_c, 0, 63, 64
2, 4312, Note_on_c, 0, 56, 0
2, 4312, Note_on_c, 0, 60, 0
2, 4317, Note_on_c, 0, 63, 0
2, 4320, Note_on_c, 0, 64, 64
2, 4320, Note_on_c, 0, 61, 64
2, 4320, Note_on_c, 0, 49, 64
2, 4346, Note_on_c, 0, 64, 0
2, 4350, Note_on_c, 0, 66, 64
2, 4372, Note_on_c, 0, 61, 0
2, 4376, Note_on_c, 0, 66, 0
2, 4380, Note_on_c, 0, 64, 64
2, 4380, Note_on_c, 0, 56, 64
2, 4406, Note_on_c, 0, 64, 0
2, 4410, Note_on_c, 0, 63, 64
2, 4436, Note_on_c, 0, 63, 0
2, 4440, Note_on_c, 0, 64, 64
2, 4466, Note_on_c, 0, 64, 0
2, 4466, Note_on_c, 0, 56, 0
2, 4470, Note_on_c, 0, 68, 64
2, 4470, Note_on_c, 0, 54, 64
2, 4496, Note_on_c, 0, 54, 0
2, 4496, Note_on_c, 0, 68, 0
2, 4500, Note_on_c, 0, 73, 64
2, 4500, Note_on_c, 0, 52, 64
2, 4518, Note_on_c, 0, 49, 0
2, 4526, Note_on_c, 0, 73, 0
2, 4530, Note_on_c, 0, 75, 64
2, 4530, Note_on_c, 0, 47, 64
2, 4552, Note_on_c, 0, 52, 0
2, 4556, Note_on_c, 0, 47, 0
2, 4556, Note_on_c, 0, 75, 0
2, 4560, Note_on_c, 0, 76, 64
2, 4560, Note_on_c, 0, 46, 64
2, 4577, Note_on_c, 0, 76, 0
2, 4579, Note_on_c, 0, 79, 64
2, 4597, Note_on_c, 0, 79, 0
2, 4599, Note_on_c, 0, 78, 64
2, 4612, Note_on_c, 0, 46, 0
2, 4617, Note_on_c, 0, 78, 0
2, 4620, Note_on_c, 0, 76, 64
2, 4620, Note_on_c, 0, 52, 64
2, 4620, Note_on_c, 0, 49, 64
2, 4637, Note_on_c, 0, 76, 0
2, 4639, Note_on_c, 0, 74, 64
2, 4657, Note_on_c, 0, 74, 0
2, 4659, Note_on_c, 0, 73, 64
2, 4672, Note_on_c, 0, 49, 0
2, 4677, Note_on_c, 0, 73, 0
2, 4680, Note_on_c, 0, 71, 64
2, 4680, Note_on_c, 0, 42, 64
2, 4697, Note_on_c, 0, 71, 0
2, 4699, Note_on_c, 0, 70, 64
2, 4717, Note_on_c, 0, 70, 0
2, 4719, Note_on_c, 0, 73, 64
2, 4732, Note_on_c, 0, 52, 0
2, 4737, Note_on_c, 0, 73, 0
2, 4740, Note_on_c, 0, 64, 64
2, 4740, Note_on_c, 0, 49, 64
2, 4785, Note_on_c, 0, 42, 0
2, 4792, Note_on_c, 0, 49, 0
2, 4800, Note_on_c, 0, 54, 64
2, 4813, Note_on_c, 0, 64, 0
2, 4815, Note_on_c, 0, 66, 64
2, 4828, Note_on_c, 0, 66, 0
2, 4830, Note_on_c, 0, 64, 64
2, 4843, Note_on_c, 0, 64, 0
2, 4845, Note_on_c, 0, 63, 64
2, 4858, Note_on_c, 0, 63, 0
2, 4860, Note_on_c, 0, 64, 64
2, 4860, Note_on_c, 0, 49, 64
2, 4886, Note_on_c, 0, 64, 0
2, 4890, Note_on_c, 0, 64, 64
2, 4912, Note_on_c, 0, 49, 0
2, 4920, Note_on_c, 0, 46, 64
2, 4946, Note_on_c, 0, 64, 0
2, 4950, Note_on_c, 0, 70, 64
2, 4972, Note_on_c, 0, 46, 0
2, 4976, Note_on_c, 0, 70, 0
2, 4980, Note_on_c, 0, 71, 64
2, 4980, Note_on_c, 0, 42, 64
2, 5006, Note_on_c, 0, 71, 0
2, 5010, Note_on_c, 0, 73, 64
2, 5032, Note_on_c, 0, 42, 0
2, 5036, Note_on_c, 0, 73, 0
2, 5040, Note_on_c, 0, 62, 64
2, 5040, Note_on_c, 0, 47, 64
2, 5066, Note_on_c, 0, 62, 0
2, 5070, Note_on_c, 0, 64, 64
2, 5092, Note_on_c, 0, 54, 0
2, 5096, Note_on_c, 0, 64, 0
2, 5100, Note_on_c, 0, 62, 64
2, 5100, Note_on_c, 0, 54, 64
2, 5126, Note_on_c, 0, 62, 0
2, 5130, Note_on_c, 0, 61, 64
2, 5152, Note_on_c, 0, 54, 0
2, 5156, Note_on_c, 0, 61, 0
2, 5160, Note_on_c, 0, 62, 64
2, 5160, Note_on_c, 0, 59, 64
2, 5186, Note_on_c, 0, 59, 0
2, 5186, Note_on_c, 0, 62, 0
2, 5190, Note_on_c, 0, 66, 64
2, 5190, Note_on_c, 0, 54, 64
2, 5205, Note_on_c, 0, 47, 0
2, 5216, Note_on_c, 0, 66, 0
2, 5220, Note_on_c, 0, 71, 64
2, 5220, Note_on_c, 0, 50, 64
2, 5242, Note_on_c, 0, 54, 0
2, 5246, Note_on_c, 0, 71, 0
2, 5250, Note_on_c, 0, 73, 64
2, 5250, Note_on_c, 0, 54, 64
2, 5272, Note_on_c, 0, 50, 0
2, 5276, Note_on_c, 0, 73, 0
2, 5280, Note_on_c, 0, 74, 64
2, 5280, Note_on_c, 0, 47, 64
2, 5297, Note_on_c, 0, 74, 0
2, 5299, Note_on_c, 0, 78, 64
2, 5306, Note_on_c, 0, 47, 0
2, 5306, Note_on_c, 0, 54, 0
2, 5310, Note_on_c, 0, 50, 64
2, 5310, Note_on_c, 0, 50, 64
2, 5317, Note_on_c, 0, 78, 0
2, 5319, Note_on_c, 0, 76, 64
2, 5336, Note_on_c, 0, 50, 0
2, 5337, Note_on_c, 0, 76, 0
2, 5340, Note_on_c, 0, 74, 64
2, 5340, Note_on_c, 0, 44, 64
2, 5357, Note_on_c, 0, 74, 0
2, 5359, Note_on_c, 0, 73, 64
2, 5366, Note_on_c, 0, 44, 0
2, 5370, Note_on_c, 0, 47, 64
2, 5377, Note_on_c, 0, 73, 0
2, 5379, Note_on_c, 0, 71, 64
2, 5396, Note_on_c, 0, 47, 0
2, 5397, Note_on_c, 0, 71, 0
2, 5400, Note_on_c, 0, 69, 64
2, 5400, Note_on_c, 0, 40, 64
2, 5417, Note_on_c, 0, 69, 0
2, 5419, Note_on_c, 0, 68, 64
2, 5437, Note_on_c, 0, 68, 0
2, 5439, Note_on_c, 0, 71, 64
2, 5452, Note_on_c, 0, 50, 0
2, 5457, Note_on_c, 0, 71, 0
2, 5460, Note_on_c, 0, 62, 64
2, 5460, Note_on_c, 0, 47, 64
2, 5505, Note_on_c, 0, 40, 0
2, 5512, Note_on_c, 0, 47, 0
2, 5520, Note_on_c, 0, 52, 64
2, 5533, Note_on_c, 0, 62, 0
2, 5535, Note_on_c, 0, 64, 64
2, 5548, Note_on_c, 0, 64, 0
2, 5550, Note_on_c, 0, 62, 64
2, 5563, Note_on_c, 0, 62, 0
2, 5565, Note_on_c, 0, 61, 64
2, 5578, Note_on_c, 0, 61, 0
2, 5580, Note_on_c, 0, 62, 64
2, 5580, Note_on_c, 0, 47, 64
2, 5606, Note_on_c, 0, 62, 0
2, 5610, Note_on_c, 0, 62, 64
2, 5632, Note_on_c, 0, 47, 0
2, 5640, Note_on_c, 0, 44, 64
2, 5666, Note_on_c, 0, 62, 0
2, 5670, Note_on_c, 0, 68, 64
2, 5692, Note_on_c, 0, 44, 0
2, 5696, Note_on_c, 0, 68, 0
2, 5700, Note_on_c, 0, 69, 64
2, 5700, Note_on_c, 0, 40, 64
2, 5726, Note_on_c, 0, 69, 0
2, 5730, Note_on_c, 0, 71, 64
2, 5752, Note_on_c, 0, 40, 0
2, 5756, Note_on_c, 0, 71, 0
2, 5760, Note_on_c, 0, 61, 64
2, 5760, Note_on_c, 0, 45, 64
2, 5786, Note_on_c, 0, 61, 0
2, 5790, Note_on_c, 0, 62, 64
2, 5812, Note_on_c, 0, 52, 0
2, 5816, Note_on_c, 0, 62, 0
2, 5820, Note_on_c, 0, 61, 64
2, 5820, Note_on_c, 0, 52, 64
2, 5846, Note_on_c, 0, 61, 0
2, 5850, Note_on_c, 0, 59, 64
2, 5865, Note_on_c, 0, 45, 0
2, 5872, Note_on_c, 0, 52, 0
2, 5876, Note_on_c, 0, 59, 0
2, 5880, Note_on_c, 0, 61, 64
2, 5880, Note_on_c, 0, 57, 64
2, 5906, Note_on_c, 0, 61, 0
2, 5910, Note_on_c, 0, 64, 64
2, 5932, Note_on_c, 0, 57, 0
2, 5936, Note_on_c, 0, 64, 0
2, 5940, Note_on_c, 0, 69, 64
2, 5940, Note_on_c, 0, 56, 64
2, 5966, Note_on_c, 0, 69, 0
2, 5970, Note_on_c, 0, 71, 64
2, 5992, Note_on_c, 0, 56, 0
2, 5996, Note_on_c, 0, 71, 0
2, 6000, Note_on_c, 0, 73, 64
2, 6000, Note_on_c, 0, 57, 64
2, 6030, Note_on_c, 0, 52, 64
2, 6056, Note_on_c, 0, 52, 0
2, 6060, Note_on_c, 0, 49, 64
2, 6086, Note_on_c, 0, 49, 0
2, 6090, Note_on_c, 0, 45, 64
2, 6116, Note_on_c, 0, 45, 0
2, 6120, Note_on_c, 0, 50, 64
2, 6146, Note_on_c, 0, 73, 0
2, 6150, Note_on_c, 0, 67, 64
2, 6172, Note_on_c, 0, 57, 0
2, 6176, Note_on_c, 0, 67, 0
2, 6180, Note_on_c, 0, 66, 64
2, 6180, Note_on_c, 0, 57, 64
2, 6206, Note_on_c, 0, 66, 0
2, 6210, Note_on_c, 0, 64, 64
2, 6232, Note_on_c, 0, 57, 0
2, 6236, Note_on_c, 0, 64, 0
2, 6240, Note_on_c, 0, 66, 64
2, 6240, Note_on_c, 0, 62, 64
2, 6266, Note_on_c, 0, 66, 0
2, 6270, Note_on_c, 0, 69, 64
2, 6285, Note_on_c, 0, 50, 0
2, 6292, Note_on_c, 0, 62, 0
2, 6296, Note_on_c, 0, 69, 0
2, 6300, Note_on_c, 0, 74, 64
2, 6300, Note_on_c, 0, 57, 64
2, 6300, Note_on_c, 0, 54, 64
2, 6326, Note_on_c, 0, 74, 0
2, 6330, Note_on_c, 0, 76, 64
2, 6352, Note_on_c, 0, 54, 0
2, 6356, Note_on_c, 0, 76, 0
2, 6360, Note_on_c, 0, 78, 64
2, 6360, Note_on_c, 0, 51, 64
2, 6386, Note_on_c, 0, 57, 0
2, 6390, Note_on_c, 0, 57, 64
2, 6412, Note_on_c, 0, 51, 0
2, 6420, Note_on_c, 0, 47, 64
2, 6442, Note_on_c, 0, 57, 0
2, 6450, Note_on_c, 0, 51, 64
2, 6472, Note_on_c, 0, 47, 0
2, 6476, Note_on_c, 0, 51, 0
2, 6480, Note_on_c, 0, 56, 64
2, 6480, Note_on_c, 0, 52, 64
2, 6506, Note_on_c, 0, 78, 0
2, 6510, Note_on_c, 0, 69, 64
2, 6532, Note_on_c, 0, 56, 0
2, 6536, Note_on_c, 0, 69, 0
2, 6540, Note_on_c, 0, 68, 64
2, 6540, Note_on_c, 0, 59, 64
2, 6566, Note_on_c, 0, 68, 0
2, 6570, Note_on_c, 0, 66, 64
2, 6592, Note_on_c, 0, 59, 0
2, 6596, Note_on_c, 0, 66, 0
2, 6600, Note_on_c, 0, 68, 64
2, 6600, Note_on_c, 0, 64, 64
2, 6626, Note_on_c, 0, 68, 0
2, 6630, Note_on_c, 0, 71, 64
2, 6652, Note_on_c, 0, 64, 0
2, 6656, Note_on_c, 0, 71, 0
2, 6660, Note_on_c, 0, 76, 64
2, 6660, Note_on_c, 0, 59, 64
2, 6686, Note_on_c, 0, 76, 0
2, 6690, Note_on_c, 0, 80, 64
2, 6712, Note_on_c, 0, 59, 0
2, 6716, Note_on_c, 0, 80, 0
2, 6720, Note_on_c, 0, 83, 64
2, 6720, Note_on_c, 0, 56, 64
2, 6746, Note_on_c, 0, 83, 0
2, 6750, Note_on_c, 0, 74, 64
2, 6772, Note_on_c, 0, 52, 0
2, 6776, Note_on_c, 0, 74, 0
2, 6780, Note_on_c, 0, 73, 64
2, 6780, Note_on_c, 0, 52, 64
2, 6806, Note_on_c, 0, 73, 0
2, 6810, Note_on_c, 0, 71, 64
2, 6825, Note_on_c, 0, 56, 0
2, 6832, Note_on_c, 0, 52, 0
2, 6836, Note_on_c, 0, 71, 0
2, 6840, Note_on_c, 0, 73, 64
2, 6840, Note_on_c, 0, 57, 64
2, 6840, Note_on_c, 0, 45, 64
2, 6866, Note_on_c, 0, 73, 0
2, 6870, Note_on_c, 0, 78, 64
2, 6892, Note_on_c, 0, 45, 0
2, 6892, Note_on_c, 0, 57, 0
2, 6896, Note_on_c, 0, 78, 0
2, 6900, Note_on_c, 0, 76, 64
2, 6900, Note_on_c, 0, 56, 64
2, 6900, Note_on_c, 0, 47, 64
2, 6926, Note_on_c, 0, 76, 0
2, 6930, Note_on_c, 0, 75, 64
2, 6952, Note_on_c, 0, 47, 0
2, 6956, Note_on_c, 0, 75, 0
2, 6960, Note_on_c, 0, 76, 64
2, 6960, Note_on_c, 0, 49, 64
2, 6986, Note_on_c, 0, 76, 0
2, 6986, Note_on_c, 0, 56, 0
2, 6990, Note_on_c, 0, 73, 64
2, 6990, Note_on_c, 0, 57, 64
2, 7012, Note_on_c, 0, 49, 0
2, 7016, Note_on_c, 0, 73, 0
2, 7020, Note_on_c, 0, 71, 64
2, 7020, Note_on_c, 0, 50, 64
2, 7042, Note_on_c, 0, 57, 0
2, 7046, Note_on_c, 0, 71, 0
2, 7050, Note_on_c, 0, 69, 64
2, 7050, Note_on_c, 0, 59, 64
2, 7072, Note_on_c, 0, 50, 0
2, 7076, Note_on_c, 0, 69, 0
2, 7080, Note_on_c, 0, 73, 64
2, 7080, Note_on_c, 0, 52, 64
2, 7106, Note_on_c, 0, 73, 0
2, 7106, Note_on_c, 0, 59, 0
2, 7110, Note_on_c, 0, 64, 64
2, 7110, Note_on_c, 0, 57, 64
2, 7132, Note_on_c, 0, 52, 0
2, 7136, Note_on_c, 0, 64, 0
2, 7140, Note_on_c, 0, 71, 64
2, 7140, Note_on_c, 0, 52, 64
2, 7162, Note_on_c, 0, 57, 0
2, 7166, Note_on_c, 0, 71, 0
2, 7170, Note_on_c, 0, 62, 64
2, 7170, Note_on_c, 0, 56, 64
2, 7192, Note_on_c, 0, 52, 0
2, 7196, Note_on_c, 0, 56, 0
2, 7196, Note_on_c, 0, 62, 0
2, 7200, Note_on_c, 0, 61, 64
2, 7200, Note_on_c, 0, 57, 64
2, 7200, Note_on_c, 0, 57, 64
2, 7226, Note_on_c, 0, 61, 0
2, 7230, Note_on_c, 0, 64, 64
2, 7256, Note_on_c, 0, 64, 0
2, 7260, Note_on_c, 0, 69, 64
2, 7278, Note_on_c, 0, 57, 0
2, 7290, Note_on_c, 0, 52, 64
2, 7305, Note_on_c, 0, 57, 0
2, 7316, Note_on_c, 0, 52, 0
2, 7320, Note_on_c, 0, 49, 64
2, 7346, Note_on_c, 0, 49, 0
2, 7346, Note_on_c, 0, 69, 0
2, 7350, Note_on_c, 0, 64, 64
2, 7350, Note_on_c, 0, 45, 64
2, 7376, Note_on_c, 0, 45, 0
2, 7376, Note_on_c, 0, 64, 0
2, 7380, Note_on_c, 0, 69, 64
2, 7380, Note_on_c, 0, 49, 64
2, 7406, Note_on_c, 0, 49, 0
2, 7406, Note_on_c, 0, 69, 0
2, 7410, Note_on_c, 0, 71, 64
2, 7410, Note_on_c, 0, 52, 64
2, 7436, Note_on_c, 0, 52, 0
2, 7436, Note_on_c, 0, 71, 0
2, 7440, Note_on_c, 0, 73, 64
2, 7440, Note_on_c, 0, 57, 64
2, 7466, Note_on_c, 0, 73, 0
2, 7470, Note_on_c, 0, 69, 64
2, 7496, Note_on_c, 0, 69, 0
2, 7500, Note_on_c, 0, 66, 64
2, 7500, Note_on_c, 0, 60, 64
2, 7526, Note_on_c, 0, 66, 0
2, 7530, Note_on_c, 0, 75, 64
2, 7545, Note_on_c, 0, 57, 0
2, 7552, Note_on_c, 0, 60, 0
2, 7556, Note_on_c, 0, 75, 0
2, 7560, Note_on_c, 0, 76, 64
2, 7560, Note_on_c, 0, 59, 64
2, 7560, Note_on_c, 0, 55, 64
2, 7586, Note_on_c, 0, 76, 0
2, 7590, Note_on_c, 0, 71, 64
2, 7612, Note_on_c, 0, 55, 0
2, 7612, Note_on_c, 0, 59, 0
2, 7620, Note_on_c, 0, 57, 64
2, 7620, Note_on_c, 0, 54, 64
2, 7642, Note_on_c, 0, 71, 0
2, 7650, Note_on_c, 0, 75, 64
2, 7672, Note_on_c, 0, 54, 0
2, 7672, Note_on_c, 0, 57, 0
2, 7676, Note_on_c, 0, 75, 0
2, 7680, Note_on_c, 0, 76, 64
2, 7680, Note_on_c, 0, 55, 64
2, 7680, Note_on_c, 0, 52, 64
2, 7706, Note_on_c, 0, 76, 0
2, 7710, Note_on_c, 0, 71, 64
2, 7732, Note_on_c, 0, 52, 0
2, 7732, Note_on_c, 0, 55, 0
2, 7740, Note_on_c, 0, 59, 64
2, 7740, Note_on_c, 0, 55, 64
2, 7762, Note_on_c, 0, 71, 0
2, 7770, Note_on_c, 0, 75, 64
2, 7792, Note_on_c, 0, 55, 0
2, 7792, Note_on_c, 0, 59, 0
2, 7796, Note_on_c, 0, 75, 0
2, 7800, Note_on_c, 0, 76, 64
2, 7800, Note_on_c, 0, 61, 64
2, 7800, Note_on_c, 0, 49, 64
2, 7826, Note_on_c, 0, 76, 0
2, 7830, Note_on_c, 0, 71, 64
2, 7852, Note_on_c, 0, 49, 0
2, 7856, Note_on_c, 0, 71, 0
2, 7860, Note_on_c, 0, 70, 64
2, 7860, Note_on_c, 0, 54, 64
2, 7886, Note_on_c, 0, 70, 0
2, 7890, Note_on_c, 0, 76, 64
2, 7905, Note_on_c, 0, 61, 0
2, 7912, Note_on_c, 0, 54, 0
2, 7916, Note_on_c, 0, 76, 0
2, 7920, Note_on_c, 0, 74, 64
2, 7920, Note_on_c, 0, 59, 64
2, 7920, Note_on_c, 0, 59, 64
2, 7946, Note_on_c, 0, 74, 0
2, 7950, Note_on_c, 0, 73, 64
2, 7976, Note_on_c, 0, 73, 0
2, 7980, Note_on_c, 0, 71, 64
2, 7998, Note_on_c, 0, 59, 0
2, 8010, Note_on_c, 0, 54, 64
2, 8025, Note_on_c, 0, 59, 0
2, 8036, Note_on_c, 0, 54, 0
2, 8040, Note_on_c, 0, 50, 64
2, 8066, Note_on_c, 0, 50, 0
2, 8066, Note_on_c, 0, 71, 0
2, 8070, Note_on_c, 0, 66, 64
2, 8070, Note_on_c, 0, 47, 64
2, 8096, Note_on_c, 0, 47, 0
2, 8096, Note_on_c, 0, 66, 0
2, 8100, Note_on_c, 0, 71, 64
2, 8100, Note_on_c, 0, 50, 64
2, 8126, Note_on_c, 0, 50, 0
2, 8126, Note_on_c, 0, 71, 0
2, 8130, Note_on_c, 0, 73, 64
2, 8130, Note_on_c, 0, 54, 64
2, 8156, Note_on_c, 0, 54, 0
2, 8156, Note_on_c, 0, 73, 0
2, 8160, Note_on_c, 0, 74, 64
2, 8160, Note_on_c, 0, 59, 64
2, 8186, Note_on_c, 0, 74, 0
2, 8190, Note_on_c, 0, 71, 64
2, 8216, Note_on_c, 0, 71, 0
2, 8220, Note_on_c, 0, 68, 64
2, 8220, Note_on_c, 0, 62, 64
2, 8246, Note_on_c, 0, 68, 0
2, 8250, Note_on_c, 0, 77, 64
2, 8265, Note_on_c, 0, 59, 0
2, 8272, Note_on_c, 0, 62, 0
2, 8276, Note_on_c, 0, 77, 0
2, 8280, Note_on_c, 0, 78, 64
2, 8280, Note_on_c, 0, 61, 64
2, 8280, Note_on_c, 0, 57, 64
2, 8306, Note_on_c, 0, 78, 0
2, 8310, Note_on_c, 0, 73, 64
2, 8332, Note_on_c, 0, 57, 0
2, 8332, Note_on_c, 0, 61, 0
2, 8340, Note_on_c, 0, 59, 64
2, 8340, Note_on_c, 0, 56, 64
2, 8362, Note_on_c, 0, 73, 0
2, 8370, Note_on_c, 0, 77, 64
2, 8392, Note_on_c, 0, 56, 0
2, 8392, Note_on_c, 0, 59, 0
2, 8396, Note_on_c, 0, 77, 0
2, 8400, Note_on_c, 0, 78, 64
2, 8400, Note_on_c, 0, 57, 64
2, 8400, Note_on_c, 0, 54, 64
2, 8426, Note_on_c, 0, 78, 0
2, 8430, Note_on_c, 0, 73, 64
2, 8452, Note_on_c, 0, 54, 0
2, 8452, Note_on_c, 0, 57, 0
2, 8460, Note_on_c, 0, 61, 64
2, 8460, Note_on_c, 0, 57, 64
2, 8482, Note_on_c, 0, 73, 0
2, 8490, Note_on_c, 0, 77, 64
2, 8512, Note_on_c, 0, 57, 0
2, 8512, Note_on_c, 0, 61, 0
2, 8516, Note_on_c, 0, 77, 0
2, 8520, Note_on_c, 0, 78, 64
2, 8520, Note_on_c, 0, 63, 64
2, 8520, Note_on_c, 0, 51, 64
2, 8546, Note_on_c, 0, 78, 0
2, 8550, Note_on_c, 0, 73, 64
2, 8572, Note_on_c, 0, 51, 0
2, 8576, Note_on_c, 0, 73, 0
2, 8580, Note_on_c, 0, 72, 64
2, 8580, Note_on_c, 0, 56, 64
2, 8606, Note_on_c, 0, 72, 0
2, 8610, Note_on_c, 0, 78, 64
2, 8625, Note_on_c, 0, 63, 0
2, 8632, Note_on_c, 0, 56, 0
2, 8636, Note_on_c, 0, 78, 0
2, 8640, Note_on_c, 0, 76, 64
2, 8640, Note_on_c, 0, 61, 64
2, 8640, Note_on_c, 0, 61, 64
2, 8666, Note_on_c, 0, 76, 0
2, 8670, Note_on_c, 0, 75, 64
2, 8696, Note_on_c, 0, 75, 0
2, 8700, Note_on_c, 0, 73, 64
2, 8718, Note_on_c, 0, 61, 0
2, 8730, Note_on_c, 0, 56, 64
2, 8745, Note_on_c, 0, 61, 0
2, 8756, Note_on_c, 0, 56, 0
2, 8760, Note_on_c, 0, 52, 64
2, 8786, Note_on_c, 0, 52, 0
2, 8786, Note_on_c, 0, 73, 0
2, 8790, Note_on_c, 0, 68, 64
2, 8790, Note_on_c, 0, 49, 64
2, 8816, Note_on_c, 0, 49, 0
2, 8816, Note_on_c, 0, 68, 0
2, 8820, Note_on_c, 0, 73, 64
2, 8820, Note_on_c, 0, 52, 64
2, 8846, Note_on_c, 0, 52, 0
2, 8846, Note_on_c, 0, 73, 0
2, 8850, Note_on_c, 0, 75, 64
2, 8850, Note_on_c, 0, 56, 64
2, 8876, Note_on_c, 0, 56, 0
2, 8876, Note_on_c, 0, 75, 0
2, 8880, Note_on_c, 0, 76, 64
2, 8880, Note_on_c, 0, 61, 64
2, 8906, Note_on_c, 0, 76, 0
2, 8910, Note_on_c, 0, 73, 64
2, 8936, Note_on_c, 0, 73, 0
2, 8940, Note_on_c, 0, 70, 64
2, 8940, Note_on_c, 0, 52, 64
2, 8966, Note_on_c, 0, 70, 0
2, 8970, Note_on_c, 0, 79, 64
2, 8992, Note_on_c, 0, 52, 0
2, 8996, Note_on_c, 0, 79, 0
2, 9000, Note_on_c, 0, 78, 64
2, 9000, Note_on_c, 0, 50, 64
2, 9026, Note_on_c, 0, 78, 0
2, 9030, Note_on_c, 0, 74, 64
2, 9052, Note_on_c, 0, 61, 0
2, 9056, Note_on_c, 0, 74, 0
2, 9060, Note_on_c, 0, 71, 64
2, 9060, Note_on_c, 0, 54, 64
2, 9086, Note_on_c, 0, 71, 0
2, 9090, Note_on_c, 0, 70, 64
2, 9105, Note_on_c, 0, 50, 0
2, 9112, Note_on_c, 0, 54, 0
2, 9116, Note_on_c, 0, 70, 0
2, 9120, Note_on_c, 0, 71, 64
2, 9120, Note_on_c, 0, 50, 64
2, 9146, Note_on_c, 0, 50, 0
2, 9146, Note_on_c, 0, 71, 0
2, 9150, Note_on_c, 0, 66, 64
2, 9150, Note_on_c, 0, 47, 64
2, 9176, Note_on_c, 0, 47, 0
2, 9176, Note_on_c, 0, 66, 0
2, 9180, Note_on_c, 0, 71, 64
2, 9180, Note_on_c, 0, 50, 64
2, 9206, Note_on_c, 0, 50, 0
2, 9206, Note_on_c, 0, 71, 0
2, 9210, Note_on_c, 0, 74, 64
2, 9210, Note_on_c, 0, 54, 64
2, 9236, Note_on_c, 0, 54, 0
2, 9236, Note_on_c, 0, 74, 0
2, 9240, Note_on_c, 0, 78, 64
2, 9240, Note_on_c, 0, 59, 64
2, 9266, Note_on_c, 0, 78, 0
2, 9270, Note_on_c, 0, 74, 64
2, 9292, Note_on_c, 0, 59, 0
2, 9296, Note_on_c, 0, 74, 0
2, 9300, Note_on_c, 0, 72, 64
2, 9300, Note_on_c, 0, 54, 64
2, 9300, Note_on_c, 0, 51, 64
2, 9326, Note_on_c, 0, 72, 0
2, 9330, Note_on_c, 0, 81, 64
2, 9352, Note_on_c, 0, 51, 0
2, 9352, Note_on_c, 0, 54, 0
2, 9356, Note_on_c, 0, 81, 0
2, 9360, Note_on_c, 0, 80, 64
2, 9360, Note_on_c, 0, 61, 64
2, 9360, Note_on_c, 0, 52, 64
2, 9386, Note_on_c, 0, 80, 0
2, 9390, Note_on_c, 0, 76, 64
2, 9412, Note_on_c, 0, 61, 0
2, 9416, Note_on_c, 0, 76, 0
2, 9420, Note_on_c, 0, 73, 64
2, 9420, Note_on_c, 0, 56, 64
2, 9446, Note_on_c, 0, 73, 0
2, 9450, Note_on_c, 0, 72, 64
2, 9465, Note_on_c, 0, 52, 0
2, 9472, Note_on_c, 0, 56, 0
2, 9476, Note_on_c, 0, 72, 0
2, 9480, Note_on_c, 0, 73, 64
2, 9480, Note_on_c, 0, 52, 64
2, 9506, Note_on_c, 0, 52, 0
2, 9506, Note_on_c, 0, 73, 0
2, 9510, Note_on_c, 0, 68, 64
2, 9510, Note_on_c, 0, 49, 64
2, 9536, Note_on_c, 0, 49, 0
2, 9536, Note_on_c, 0, 68, 0
2, 9540, Note_on_c, 0, 73, 64
2, 9540, Note_on_c, 0, 52, 64
2, 9566, Note_on_c, 0, 52, 0
2, 9566, Note_on_c, 0, 73, 0
2, 9570, Note_on_c, 0, 76, 64
2, 9570, Note_on_c, 0, 56, 64
2, 9596, Note_on_c, 0, 56, 0
2, 9596, Note_on_c, 0, 76, 0
2, 9600, Note_on_c, 0, 80, 64
2, 9600, Note_on_c, 0, 61, 64
2, 9626, Note_on_c, 0, 80, 0
2, 9630, Note_on_c, 0, 77, 64
2, 9652, Note_on_c, 0, 61, 0
2, 9656, Note_on_c, 0, 77, 0
2, 9660, Note_on_c, 0, 74, 64
2, 9660, Note_on_c, 0, 56, 64
2, 9660, Note_on_c, 0, 53, 64
2, 9686, Note_on_c, 0, 74, 0
2, 9690, Note_on_c, 0, 83, 64
2, 9712, Note_on_c, 0, 53, 0
2, 9712, Note_on_c, 0, 56, 0
2, 9716, Note_on_c, 0, 83, 0
2, 9720, Note_on_c, 0, 81, 64
2, 9720, Note_on_c, 0, 54, 64
2, 9720, Note_on_c, 0, 54, 64
2, 9746, Note_on_c, 0, 81, 0
2, 9750, Note_on_c, 0, 78, 64
2, 9772, Note_on_c, 0, 54, 0
2, 9780, Note_on_c, 0, 56, 64
2, 9802, Note_on_c, 0, 78, 0
2, 9810, Note_on_c, 0, 77, 64
2, 9832, Note_on_c, 0, 56, 0
2, 9836, Note_on_c, 0, 77, 0
2, 9840, Note_on_c, 0, 78, 64
2, 9840, Note_on_c, 0, 57, 64
2, 9866, Note_on_c, 0, 78, 0
2, 9870, Note_on_c, 0, 74, 64
2, 9885, Note_on_c, 0, 54, 0
2, 9892, Note_on_c, 0, 57, 0
2, 9900, Note_on_c, 0, 56, 64
2, 9900, Note_on_c, 0, 52, 64
2, 9922, Note_on_c, 0, 74, 0
2, 9930, Note_on_c, 0, 73, 64
2, 9952, Note_on_c, 0, 52, 0
2, 9952, Note_on_c, 0, 56, 0
2, 9956, Note_on_c, 0, 73, 0
2, 9960, Note_on_c, 0, 73, 64
2, 9960, Note_on_c, 0, 54, 64
2, 9960, Note_on_c, 0, 51, 64
2, 9986, Note_on_c, 0, 73, 0
2, 9990, Note_on_c, 0, 72, 64
2, 9990, Note_on_c, 0, 72, 64
2, 10012, Note_on_c, 0, 51, 0
2, 10012, Note_on_c, 0, 54, 0
2, 10020, Note_on_c, 0, 56, 64
2, 10020, Note_on_c, 0, 50, 64
2, 10042, Note_on_c, 0, 72, 0
2, 10042, Note_on_c, 0, 72, 0
2, 10050, Note_on_c, 0, 78, 64
2, 10072, Note_on_c, 0, 56, 0
2, 10072, Note_on_c, 0, 50, 0
2, 10076, Note_on_c, 0, 78, 0
2, 10080, Note_on_c, 0, 78, 64
2, 10080, Note_on_c, 0, 73, 64
2, 10080, Note_on_c, 0, 57, 64
2, 10080, Note_on_c, 0, 49, 64
2, 10132, Note_on_c, 0, 57, 0
2, 10132, Note_on_c, 0, 78, 0
2, 10140, Note_on_c, 0, 77, 64
2, 10140, Note_on_c, 0, 56, 64
2, 10185, Note_on_c, 0, 73, 0
2, 10185, Note_on_c, 0, 49, 0
2, 10192, Note_on_c, 0, 77, 0
2, 10192, Note_on_c, 0, 56, 0
2, 10260, Note_on_c, 0, 47, 64
2, 10277, Note_on_c, 0, 47, 0
2, 10279, Note_on_c, 0, 49, 64
2, 10297, Note_on_c, 0, 49, 0
2, 10299, Note_on_c, 0, 50, 64
2, 10317, Note_on_c, 0, 50, 0
2, 10320, Note_on_c, 0, 49, 64
2, 10337, Note_on_c, 0, 49, 0
2, 10339, Note_on_c, 0, 47, 64
2, 10357, Note_on_c, 0, 47, 0
2, 10359, Note_on_c, 0, 45, 64
2, 10377, Note_on_c, 0, 45, 0
2, 10380, Note_on_c, 0, 47, 64
2, 10397, Note_on_c, 0, 47, 0
2, 10399, Note_on_c, 0, 45, 64
2, 10417, Note_on_c, 0, 45, 0
2, 10419, Note_on_c, 0, 44, 64
2, 10437, Note_on_c, 0, 44, 0
2, 10440, Note_on_c, 0, 78, 64
2, 10440, Note_on_c, 0, 42, 64
2, 10492, Note_on_c, 0, 42, 0
2, 10492, Note_on_c, 0, 78, 0
2, 10500, Note_on_c, 0, 73, 64
2, 10500, Note_on_c, 0, 57, 64
2, 10500, Note_on_c, 0, 54, 64
2, 10552, Note_on_c, 0, 57, 0
2, 10560, Note_on_c, 0, 61, 64
2, 10605, Note_on_c, 0, 73, 0
2, 10612, Note_on_c, 0, 61, 0
2, 10620, Note_on_c, 0, 69, 64
2, 10620, Note_on_c, 0, 66, 64
2, 10638, Note_on_c, 0, 54, 0
2, 10646, Note_on_c, 0, 69, 0
2, 10650, Note_on_c, 0, 71, 64
2, 10650, Note_on_c, 0, 56, 64
2, 10676, Note_on_c, 0, 56, 0
2, 10676, Note_on_c, 0, 71, 0
2, 10680, Note_on_c, 0, 73, 64
2, 10680, Note_on_c, 0, 57, 64
2, 10697, Note_on_c, 0, 73, 0
2, 10699, Note_on_c, 0, 71, 64
2, 10717, Note_on_c, 0, 71, 0
2, 10719, Note_on_c, 0, 69, 64
2, 10725, Note_on_c, 0, 66, 0
2, 10732, Note_on_c, 0, 57, 0
2, 10737, Note_on_c, 0, 69, 0
2, 10740, Note_on_c, 0, 71, 64
2, 10740, Note_on_c, 0, 65, 64
2, 10740, Note_on_c, 0, 61, 64
2, 10757, Note_on_c, 0, 71, 0
2, 10759, Note_on_c, 0, 69, 64
2, 10777, Note_on_c, 0, 69, 0
2, 10779, Note_on_c, 0, 68, 64
2, 10792, Note_on_c, 0, 61, 0
2, 10792, Note_on_c, 0, 65, 0
2, 10797, Note_on_c, 0, 68, 0
2, 10800, Note_on_c, 0, 69, 64
2, 10800, Note_on_c, 0, 66, 64
2, 10800, Note_on_c, 0, 54, 64
2, 10826, Note_on_c, 0, 69, 0
2, 10830, Note_on_c, 0, 71, 64
2, 10852, Note_on_c, 0, 66, 0
2, 10856, Note_on_c, 0, 71, 0
2, 10860, Note_on_c, 0, 69, 64
2, 10860, Note_on_c, 0, 61, 64
2, 10886, Note_on_c, 0, 69, 0
2, 10890, Note_on_c, 0, 68, 64
2, 10916, Note_on_c, 0, 68, 0
2, 10920, Note_on_c, 0, 69, 64
2, 10946, Note_on_c, 0, 69, 0
2, 10950, Note_on_c, 0, 73, 64
2, 10965, Note_on_c, 0, 61, 0
2, 10976, Note_on_c, 0, 73, 0
2, 10980, Note_on_c, 0, 78, 64
2, 10980, Note_on_c, 0, 57, 64
2, 11006, Note_on_c, 0, 57, 0
2, 11006, Note_on_c, 0, 78, 0
2, 11010, Note_on_c, 0, 80, 64
2, 11010, Note_on_c, 0, 59, 64
2, 11036, Note_on_c, 0, 59, 0
2, 11036, Note_on_c, 0, 80, 0
2, 11040, Note_on_c, 0, 81, 64
2, 11040, Note_on_c, 0, 61, 64
2, 11057, Note_on_c, 0, 61, 0
2, 11057, Note_on_c, 0, 81, 0
2, 11059, Note_on_c, 0, 80, 64
2, 11059, Note_on_c, 0, 59, 64
2, 11077, Note_on_c, 0, 59, 0
2, 11077, Note_on_c, 0, 80, 0
2, 11079, Note_on_c, 0, 78, 64
2, 11079, Note_on_c, 0, 57, 64
2, 11097, Note_on_c, 0, 57, 0
2, 11097, Note_on_c, 0, 78, 0
2, 11100, Note_on_c, 0, 80, 64
2, 11100, Note_on_c, 0, 59, 64
2, 11117, Note_on_c, 0, 59, 0
2, 11117, Note_on_c, 0, 80, 0
2, 11119, Note_on_c, 0, 78, 64
2, 11119, Note_on_c, 0, 57, 64
2, 11137, Note_on_c, 0, 57, 0
2, 11137, Note_on_c, 0, 78, 0
2, 11139, Note_on_c, 0, 77, 64
2, 11139, Note_on_c, 0, 56, 64
2, 11157, Note_on_c, 0, 56, 0
2, 11157, Note_on_c, 0, 77, 0
2, 11160, Note_on_c, 0, 78, 64
2, 11160, Note_on_c, 0, 57, 64
2, 11186, Note_on_c, 0, 78, 0
2, 11190, Note_on_c, 0, 73, 64
2, 11212, Note_on_c, 0, 57, 0
2, 11212, Note_on_c, 0, 54, 0
2, 11220, Note_on_c, 0, 59, 64
2, 11220, Note_on_c, 0, 56, 64
2, 11242, Note_on_c, 0, 73, 0
2, 11250, Note_on_c, 0, 77, 64
2, 11272, Note_on_c, 0, 56, 0
2, 11272, Note_on_c, 0, 59, 0
2, 11276, Note_on_c, 0, 77, 0
2, 11280, Note_on_c, 0, 78, 64
2, 11280, Note_on_c, 0, 61, 64
2, 11280, Note_on_c, 0, 57, 64
2, 11306, Note_on_c, 0, 78, 0
2, 11310, Note_on_c, 0, 73, 64
2, 11332, Note_on_c, 0, 57, 0
2, 11332, Note_on_c, 0, 61, 0
2, 11340, Note_on_c, 0, 59, 64
2, 11340, Note_on_c, 0, 56, 64
2, 11362, Note_on_c, 0, 73, 0
2, 11370, Note_on_c, 0, 77, 64
2, 11392, Note_on_c, 0, 56, 0
2, 11392, Note_on_c, 0, 59, 0
2, 11396, Note_on_c, 0, 77, 0
2, 11400, Note_on_c, 0, 78, 64
2, 11400, Note_on_c, 0, 57, 64
2, 11400, Note_on_c, 0, 54, 64
2, 11426, Note_on_c, 0, 78, 0
2, 11430, Note_on_c, 0, 74, 64
2, 11452, Note_on_c, 0, 54, 0
2, 11452, Note_on_c, 0, 57, 0
2, 11456, Note_on_c, 0, 74, 0
2, 11460, Note_on_c, 0, 73, 64
2, 11460, Note_on_c, 0, 55, 64
2, 11460, Note_on_c, 0, 52, 64
2, 11486, Note_on_c, 0, 73, 0
2, 11490, Note_on_c, 0, 82, 64
2, 11512, Note_on_c, 0, 52, 0
2, 11512, Note_on_c, 0, 55, 0
2, 11516, Note_on_c, 0, 82, 0
2, 11520, Note_on_c, 0, 83, 64
2, 11520, Note_on_c, 0, 54, 64
2, 11520, Note_on_c, 0, 50, 64
2, 11546, Note_on_c, 0, 83, 0
2, 11550, Note_on_c, 0, 78, 64
2, 11572, Note_on_c, 0, 50, 0
2, 11572, Note_on_c, 0, 54, 0
2, 11580, Note_on_c, 0, 52, 64
2, 11580, Note_on_c, 0, 49, 64
2, 11602, Note_on_c, 0, 78, 0
2, 11610, Note_on_c, 0, 82, 64
2, 11632, Note_on_c, 0, 49, 0
2, 11632, Note_on_c, 0, 52, 0
2, 11636, Note_on_c, 0, 82, 0
2, 11640, Note_on_c, 0, 83, 64
2, 11640, Note_on_c, 0, 54, 64
2, 11640, Note_on_c, 0, 50, 64
2, 11666, Note_on_c, 0, 83, 0
2, 11670, Note_on_c, 0, 78, 64
2, 11692, Note_on_c, 0, 50, 0
2, 11692, Note_on_c, 0, 54, 0
2, 11700, Note_on_c, 0, 61, 64
2, 11700, Note_on_c, 0, 52, 64
2, 11722, Note_on_c, 0, 78, 0
2, 11730, Note_on_c, 0, 82, 64
2, 11752, Note_on_c, 0, 52, 0
2, 11752, Note_on_c, 0, 61, 0
2, 11756, Note_on_c, 0, 82, 0
2, 11760, Note_on_c, 0, 83, 64
2, 11760, Note_on_c, 0, 54, 64
2, 11760, Note_on_c, 0, 50, 64
2, 11777, Note_on_c, 0, 83, 0
2, 11779, Note_on_c, 0, 81, 64
2, 11797, Note_on_c, 0, 81, 0
2, 11799, Note_on_c, 0, 80, 64
2, 11812, Note_on_c, 0, 50, 0
2, 11817, Note_on_c, 0, 80, 0
2, 11820, Note_on_c, 0, 81, 64
2, 11820, Note_on_c, 0, 49, 64
2, 11837, Note_on_c, 0, 81, 0
2, 11839, Note_on_c, 0, 80, 64
2, 11857, Note_on_c, 0, 80, 0
2, 11859, Note_on_c, 0, 78, 64
2, 11865, Note_on_c, 0, 54, 0
2, 11872, Note_on_c, 0, 49, 0
2, 11877, Note_on_c, 0, 78, 0
2, 11880, Note_on_c, 0, 79, 64
2, 11880, Note_on_c, 0, 59, 64
2, 11880, Note_on_c, 0, 47, 64
2, 11906, Note_on_c, 0, 79, 0
2, 11910, Note_on_c, 0, 74, 64
2, 11932, Note_on_c, 0, 47, 0
2, 11932, Note_on_c, 0, 59, 0
2, 11940, Note_on_c, 0, 62, 64
2, 11940, Note_on_c, 0, 59, 64
2, 11962, Note_on_c, 0, 74, 0
2, 11970, Note_on_c, 0, 78, 64
2, 11992, Note_on_c, 0, 59, 0
2, 11992, Note_on_c, 0, 62, 0
2, 11996, Note_on_c, 0, 78, 0
2, 12000, Note_on_c, 0, 79, 64
2, 12000, Note_on_c, 0, 62, 64
2, 12000, Note_on_c, 0, 59, 64
2, 12026, Note_on_c, 0, 79, 0
2, 12030, Note_on_c, 0, 74, 64
2, 12052, Note_on_c, 0, 59, 0
2, 12052, Note_on_c, 0, 62, 0
2, 12060, Note_on_c, 0, 62, 64
2, 12060, Note_on_c, 0, 59, 64
2, 12082, Note_on_c, 0, 74, 0
2, 12090, Note_on_c, 0, 78, 64
2, 12112, Note_on_c, 0, 59, 0
2, 12112, Note_on_c, 0, 62, 0
2, 12116, Note_on_c, 0, 78, 0
2, 12120, Note_on_c, 0, 79, 64
2, 12120, Note_on_c, 0, 62, 64
2, 12120, Note_on_c, 0, 59, 64
2, 12137, Note_on_c, 0, 79, 0
2, 12139, Note_on_c, 0, 81, 64
2, 12157, Note_on_c, 0, 81, 0
2, 12159, Note_on_c, 0, 83, 64
2, 12172, Note_on_c, 0, 59, 0
2, 12172, Note_on_c, 0, 62, 0
2, 12177, Note_on_c, 0, 83, 0
2, 12180, Note_on_c, 0, 81, 64
2, 12180, Note_on_c, 0, 62, 64
2, 12180, Note_on_c, 0, 59, 64
2, 12197, Note_on_c, 0, 81, 0
2, 12199, Note_on_c, 0, 80, 64
2, 12217, Note_on_c, 0, 80, 0
2, 12219, Note_on_c, 0, 78, 64
2, 12232, Note_on_c, 0, 59, 0
2, 12232, Note_on_c, 0, 62, 0
2, 12237, Note_on_c, 0, 78, 0
2, 12240, Note_on_c, 0, 77, 64
2, 12240, Note_on_c, 0, 61, 64
2, 12240, Note_on_c, 0, 59, 64
2, 12257, Note_on_c, 0, 77, 0
2, 12259, Note_on_c, 0, 78, 64
2, 12277, Note_on_c, 0, 78, 0
2, 12279, Note_on_c, 0, 80, 64
2, 12297, Note_on_c, 0, 80, 0
2, 12300, Note_on_c, 0, 78, 64
2, 12317, Note_on_c, 0, 78, 0
2, 12319, Note_on_c, 0, 77, 64
2, 12337, Note_on_c, 0, 77, 0
2, 12339, Note_on_c, 0, 75, 64
2, 12345, Note_on_c, 0, 59, 0
2, 12345, Note_on_c, 0, 61, 0
2, 12357, Note_on_c, 0, 75, 0
2, 12360, Note_on_c, 0, 73, 64
2, 12377, Note_on_c, 0, 73, 0
2, 12379, Note_on_c, 0, 71, 64
2, 12397, Note_on_c, 0, 71, 0
2, 12399, Note_on_c, 0, 73, 64
2, 12417, Note_on_c, 0, 73, 0
2, 12420, Note_on_c, 0, 74, 64
2, 12420, Note_on_c, 0, 56, 64
2, 12420, Note_on_c, 0, 53, 64
2, 12437, Note_on_c, 0, 74, 0
2, 12439, Note_on_c, 0, 73, 64
2, 12457, Note_on_c, 0, 73, 0
2, 12459, Note_on_c, 0, 71, 64
2, 12472, Note_on_c, 0, 53, 0
2, 12472, Note_on_c, 0, 56, 0
2, 12477, Note_on_c, 0, 71, 0
2, 12480, Note_on_c, 0, 69, 64
2, 12480, Note_on_c, 0, 61, 64
2, 12480, Note_on_c, 0, 54, 64
2, 12497, Note_on_c, 0, 69, 0
2, 12499, Note_on_c, 0, 71, 64
2, 12517, Note_on_c, 0, 71, 0
2, 12519, Note_on_c, 0, 73, 64
2, 12532, Note_on_c, 0, 54, 0
2, 12537, Note_on_c, 0, 73, 0
2, 12540, Note_on_c, 0, 71, 64
2, 12540, Note_on_c, 0, 49, 64
2, 12557, Note_on_c, 0, 71, 0
2, 12559, Note_on_c, 0, 69, 64
2, 12577, Note_on_c, 0, 69, 0
2, 12579, Note_on_c, 0, 68, 64
2, 12592, Note_on_c, 0, 49, 0
2, 12597, Note_on_c, 0, 68, 0
2, 12600, Note_on_c, 0, 66, 64
2, 12600, Note_on_c, 0, 50, 64
2, 12626, Note_on_c, 0, 66, 0
2, 12630, Note_on_c, 0, 77, 64
2, 12652, Note_on_c, 0, 61, 0
2, 12660, Note_on_c, 0, 61, 64
2, 12682, Note_on_c, 0, 77, 0
2, 12690, Note_on_c, 0, 78, 64
2, 12712, Note_on_c, 0, 61, 0
2, 12716, Note_on_c, 0, 78, 0
2, 12720, Note_on_c, 0, 68, 64
2, 12720, Note_on_c, 0, 59, 64
2, 12746, Note_on_c, 0, 68, 0
2, 12750, Note_on_c, 0, 78, 64
2, 12765, Note_on_c, 0, 50, 0
2, 12780, Note_on_c, 0, 50, 64
2, 12802, Note_on_c, 0, 78, 0
2, 12810, Note_on_c, 0, 77, 64
2, 12825, Note_on_c, 0, 59, 0
2, 12832, Note_on_c, 0, 50, 0
2, 12836, Note_on_c, 0, 77, 0
2, 12840, Note_on_c, 0, 70, 64
2, 12840, Note_on_c, 0, 49, 64
2, 12866, Note_on_c, 0, 70, 0
2, 12870, Note_on_c, 0, 76, 64
2, 12892, Note_on_c, 0, 49, 0
2, 12900, Note_on_c, 0, 58, 64
2, 12900, Note_on_c, 0, 55, 64
2, 12922, Note_on_c, 0, 76, 0
2, 12930, Note_on_c, 0, 75, 64
2, 12952, Note_on_c, 0, 55, 0
2, 12952, Note_on_c, 0, 58, 0
2, 12956, Note_on_c, 0, 75, 0
2, 12960, Note_on_c, 0, 75, 64
2, 12960, Note_on_c, 0, 60, 64
2, 12960, Note_on_c, 0, 54, 64
2, 12977, Note_on_c, 0, 75, 0
2, 12979, Note_on_c, 0, 77, 64
2, 12997, Note_on_c, 0, 77, 0
2, 12999, Note_on_c, 0, 78, 64
2, 13012, Note_on_c, 0, 60, 0
2, 13017, Note_on_c, 0, 78, 0
2, 13020, Note_on_c, 0, 76, 64
2, 13020, Note_on_c, 0, 61, 64
2, 13037, Note_on_c, 0, 76, 0
2, 13039, Note_on_c, 0, 75, 64
2, 13057, Note_on_c, 0, 75, 0
2, 13059, Note_on_c, 0, 73, 64
2, 13072, Note_on_c, 0, 61, 0
2, 13077, Note_on_c, 0, 73, 0
2, 13080, Note_on_c, 0, 72, 64
2, 13080, Note_on_c, 0, 63, 64
2, 13097, Note_on_c, 0, 72, 0
2, 13099, Note_on_c, 0, 73, 64
2, 13117, Note_on_c, 0, 73, 0
2, 13119, Note_on_c, 0, 75, 64
2, 13125, Note_on_c, 0, 54, 0
2, 13132, Note_on_c, 0, 63, 0
2, 13137, Note_on_c, 0, 75, 0
2, 13140, Note_on_c, 0, 73, 64
2, 13140, Note_on_c, 0, 56, 64
2, 13140, Note_on_c, 0, 52, 64
2, 13157, Note_on_c, 0, 73, 0
2, 13159, Note_on_c, 0, 72, 64
2, 13177, Note_on_c, 0, 72, 0
2, 13179, Note_on_c, 0, 70, 64
2, 13192, Note_on_c, 0, 56, 0
2, 13197, Note_on_c, 0, 70, 0
2, 13200, Note_on_c, 0, 68, 64
2, 13200, Note_on_c, 0, 58, 64
2, 13217, Note_on_c, 0, 68, 0
2, 13219, Note_on_c, 0, 66, 64
2, 13237, Note_on_c, 0, 66, 0
2, 13239, Note_on_c, 0, 68, 64
2, 13245, Note_on_c, 0, 52, 0
2, 13252, Note_on_c, 0, 58, 0
2, 13257, Note_on_c, 0, 68, 0
2, 13260, Note_on_c, 0, 69, 64
2, 13260, Note_on_c, 0, 60, 64
2, 13260, Note_on_c, 0, 51, 64
2, 13277, Note_on_c, 0, 69, 0
2, 13279, Note_on_c, 0, 68, 64
2, 13297, Note_on_c, 0, 68, 0
2, 13299, Note_on_c, 0, 66, 64
2, 13312, Note_on_c, 0, 51, 0
2, 13312, Note_on_c, 0, 60, 0
2, 13317, Note_on_c, 0, 66, 0
2, 13320, Note_on_c, 0, 65, 64
2, 13320, Note_on_c, 0, 59, 64
2, 13320, Note_on_c, 0, 49, 64
2, 13337, Note_on_c, 0, 65, 0
2, 13339, Note_on_c, 0, 66, 64
2, 13357, Note_on_c, 0, 66, 0
2, 13359, Note_on_c, 0, 68, 64
2, 13372, Note_on_c, 0, 49, 0
2, 13372, Note_on_c, 0, 59, 0
2, 13377, Note_on_c, 0, 68, 0
2, 13380, Note_on_c, 0, 66, 64
2, 13380, Note_on_c, 0, 57, 64
2, 13380, Note_on_c, 0, 51, 64
2, 13397, Note_on_c, 0, 66, 0
2, 13399, Note_on_c, 0, 65, 64
2, 13417, Note_on_c, 0, 65, 0
2, 13419, Note_on_c, 0, 63, 64
2, 13432, Note_on_c, 0, 51, 0
2, 13432, Note_on_c, 0, 57, 0
2, 13437, Note_on_c, 0, 63, 0
2, 13440, Note_on_c, 0, 61, 64
2, 13440, Note_on_c, 0, 56, 64
2, 13440, Note_on_c, 0, 53, 64
2, 13492, Note_on_c, 0, 53, 0
2, 13492, Note_on_c, 0, 56, 0
2, 13500, Note_on_c, 0, 57, 64
2, 13500, Note_on_c, 0, 54, 64
2, 13552, Note_on_c, 0, 54, 0
2, 13552, Note_on_c, 0, 57, 0
2, 13560, Note_on_c, 0, 59, 64
2, 13560, Note_on_c, 0, 56, 64
2, 13586, Note_on_c, 0, 61, 0
2, 13590, Note_on_c, 0, 65, 64
2, 13603, Note_on_c, 0, 65, 0
2, 13605, Note_on_c, 0, 68, 64
2, 13612, Note_on_c, 0, 56, 0
2, 13612, Note_on_c, 0, 59, 0
2, 13618, Note_on_c, 0, 68, 0
2, 13620, Note_on_c, 0, 71, 64
2, 13620, Note_on_c, 0, 53, 64
2, 13620, Note_on_c, 0, 44, 64
2, 13646, Note_on_c, 0, 71, 0
2, 13650, Note_on_c, 0, 74, 64
2, 13672, Note_on_c, 0, 44, 0
2, 13672, Note_on_c, 0, 53, 0
2, 13676, Note_on_c, 0, 74, 0
2, 13680, Note_on_c, 0, 73, 64
2, 13680, Note_on_c, 0, 54, 64
2, 13680, Note_on_c, 0, 45, 64
2, 13697, Note_on_c, 0, 73, 0
2, 13699, Note_on_c, 0, 75, 64
2, 13717, Note_on_c, 0, 75, 0
2, 13719, Note_on_c, 0, 77, 64
2, 13732, Note_on_c, 0, 54, 0
2, 13737, Note_on_c, 0, 77, 0
2, 13740, Note_on_c, 0, 78, 64
2, 13740, Note_on_c, 0, 49, 64
2, 13757, Note_on_c, 0, 78, 0
2, 13759, Note_on_c, 0, 76, 64
2, 13777, Note_on_c, 0, 76, 0
2, 13779, Note_on_c, 0, 74, 64
2, 13792, Note_on_c, 0, 49, 0
2, 13797, Note_on_c, 0, 74, 0
2, 13800, Note_on_c, 0, 73, 64
2, 13800, Note_on_c, 0, 54, 64
2, 13817, Note_on_c, 0, 73, 0
2, 13819, Note_on_c, 0, 71, 64
2, 13837, Note_on_c, 0, 71, 0
2, 13839, Note_on_c, 0, 69, 64
2, 13845, Note_on_c, 0, 45, 0
2, 13857, Note_on_c, 0, 69, 0
2, 13860, Note_on_c, 0, 74, 64
2, 13860, Note_on_c, 0, 47, 64
2, 13877, Note_on_c, 0, 74, 0
2, 13879, Note_on_c, 0, 73, 64
2, 13897, Note_on_c, 0, 73, 0
2, 13899, Note_on_c, 0, 71, 64
2, 13912, Note_on_c, 0, 47, 0
2, 13917, Note_on_c, 0, 71, 0
2, 13920, Note_on_c, 0, 69, 64
2, 13920, Note_on_c, 0, 49, 64
2, 13937, Note_on_c, 0, 69, 0
2, 13939, Note_on_c, 0, 68, 64
2, 13957, Note_on_c, 0, 68, 0
2, 13959, Note_on_c, 0, 66, 64
2, 13965, Note_on_c, 0, 54, 0
2, 13972, Note_on_c, 0, 49, 0
2, 13977, Note_on_c, 0, 66, 0
2, 13980, Note_on_c, 0, 68, 64
2, 13980, Note_on_c, 0, 53, 64
2, 13980, Note_on_c, 0, 47, 64
2, 13997, Note_on_c, 0, 68, 0
2, 13999, Note_on_c, 0, 66, 64
2, 14017, Note_on_c, 0, 66, 0
2, 14019, Note_on_c, 0, 65, 64
2, 14032, Note_on_c, 0, 47, 0
2, 14032, Note_on_c, 0, 53, 0
2, 14037, Note_on_c, 0, 65, 0
2, 14040, Note_on_c, 0, 66, 64
2, 14040, Note_on_c, 0, 46, 64
2, 14059, Note_on_c, 0, 64, 64
2, 14077, Note_on_c, 0, 64, 0
2, 14079, Note_on_c, 0, 62, 64
2, 14092, Note_on_c, 0, 46, 0
2, 14097, Note_on_c, 0, 62, 0
2, 14100, Note_on_c, 0, 61, 64
2, 14100, Note_on_c, 0, 54, 64
2, 14117, Note_on_c, 0, 61, 0
2, 14119, Note_on_c, 0, 62, 64
2, 14137, Note_on_c, 0, 62, 0
2, 14139, Note_on_c, 0, 64, 64
2, 14152, Note_on_c, 0, 54, 0
2, 14157, Note_on_c, 0, 64, 0
2, 14160, Note_on_c, 0, 62, 64
2, 14160, Note_on_c, 0, 47, 64
2, 14177, Note_on_c, 0, 62, 0
2, 14179, Note_on_c, 0, 61, 64
2, 14197, Note_on_c, 0, 61, 0
2, 14199, Note_on_c, 0, 59, 64
2, 14212, Note_on_c, 0, 47, 0
2, 14217, Note_on_c, 0, 59, 0
2, 14220, Note_on_c, 0, 58, 64
2, 14220, Note_on_c, 0, 49, 64
2, 14237, Note_on_c, 0, 58, 0
2, 14239, Note_on_c, 0, 59, 64
2, 14257, Note_on_c, 0, 59, 0
2, 14259, Note_on_c, 0, 61, 64
2, 14272, Note_on_c, 0, 49, 0
2, 14277, Note_on_c, 0, 61, 0
2, 14280, Note_on_c, 0, 59, 64
2, 14280, Note_on_c, 0, 50, 64
2, 14306, Note_on_c, 0, 66, 0
2, 14310, Note_on_c, 0, 65, 64
2, 14332, Note_on_c, 0, 50, 0
2, 14332, Note_on_c, 0, 59, 0
2, 14340, Note_on_c, 0, 54, 64
2, 14340, Note_on_c, 0, 57, 64
2, 14340, Note_on_c, 0, 47, 64
2, 14362, Note_on_c, 0, 65, 0
2, 14370, Note_on_c, 0, 66, 64
2, 14392, Note_on_c, 0, 54, 0
2, 14392, Note_on_c, 0, 47, 0
2, 14392, Note_on_c, 0, 57, 0
2, 14396, Note_on_c, 0, 66, 0
2, 14400, Note_on_c, 0, 74, 64
2, 14400, Note_on_c, 0, 53, 64
2, 14400, Note_on_c, 0, 56, 64
2, 14400, Note_on_c, 0, 49, 64
2, 14426, Note_on_c, 0, 74, 0
2, 14430, Note_on_c, 0, 72, 64
2, 14452, Note_on_c, 0, 53, 0
2, 14452, Note_on_c, 0, 56, 0
2, 14460, Note_on_c, 0, 54, 64
2, 14460, Note_on_c, 0, 57, 64
2, 14482, Note_on_c, 0, 72, 0
2, 14490, Note_on_c, 0, 73, 64
2, 14512, Note_on_c, 0, 57, 0
2, 14512, Note_on_c, 0, 54, 0
2, 14516, Note_on_c, 0, 73, 0
2, 14520, Note_on_c, 0, 65, 64
2, 14520, Note_on_c, 0, 56, 64
2, 14520, Note_on_c, 0, 59, 64
2, 14546, Note_on_c, 0, 65, 0
2, 14550, Note_on_c, 0, 71, 64
2, 14565, Note_on_c, 0, 49, 0
2, 14572, Note_on_c, 0, 59, 0
2, 14572, Note_on_c, 0, 56, 0
2, 14580, Note_on_c, 0, 54, 64
2, 14580, Note_on_c, 0, 50, 64
2, 14602, Note_on_c, 0, 71, 0
2, 14610, Note_on_c, 0, 69, 64
2, 14632, Note_on_c, 0, 50, 0
2, 14636, Note_on_c, 0, 69, 0
2, 14640, Note_on_c, 0, 68, 64
2, 14640, Note_on_c, 0, 47, 64
2, 14657, Note_on_c, 0, 68, 0
2, 14659, Note_on_c, 0, 71, 64
2, 14677, Note_on_c, 0, 71, 0
2, 14679, Note_on_c, 0, 69, 64
2, 14685, Note_on_c, 0, 54, 0
2, 14692, Note_on_c, 0, 47, 0
2, 14697, Note_on_c, 0, 69, 0
2, 14700, Note_on_c, 0, 68, 64
2, 14700, Note_on_c, 0, 53, 64
2, 14700, Note_on_c, 0, 49, 64
2, 14717, Note_on_c, 0, 68, 0
2, 14719, Note_on_c, 0, 66, 64
2, 14737, Note_on_c, 0, 66, 0
2, 14739, Note_on_c, 0, 65, 64
2, 14752, Note_on_c, 0, 49, 0
2, 14752, Note_on_c, 0, 53, 0
2, 14757, Note_on_c, 0, 65, 0
2, 14760, Note_on_c, 0, 66, 64
2, 14760, Note_on_c, 0, 49, 64
2, 14760, Note_on_c, 0, 45, 64
2, 14777, Note_on_c, 0, 66, 0
2, 14779, Note_on_c, 0, 68, 64
2, 14797, Note_on_c, 0, 68, 0
2, 14799, Note_on_c, 0, 69, 64
2, 14812, Note_on_c, 0, 45, 0
2, 14812, Note_on_c, 0, 49, 0
2, 14817, Note_on_c, 0, 69, 0
2, 14820, Note_on_c, 0, 71, 64
2, 14820, Note_on_c, 0, 53, 64
2, 14820, Note_on_c, 0, 44, 64
2, 14837, Note_on_c, 0, 71, 0
2, 14839, Note_on_c, 0, 73, 64
2, 14857, Note_on_c, 0, 73, 0
2, 14859, Note_on_c, 0, 74, 64
2, 14872, Note_on_c, 0, 44, 0
2, 14877, Note_on_c, 0, 74, 0
2, 14880, Note_on_c, 0, 61, 64
2, 14880, Note_on_c, 0, 45, 64
2, 14897, Note_on_c, 0, 53, 0
2, 14899, Note_on_c, 0, 54, 64
2, 14917, Note_on_c, 0, 54, 0
2, 14919, Note_on_c, 0, 52, 64
2, 14932, Note_on_c, 0, 45, 0
2, 14932, Note_on_c, 0, 61, 0
2, 14937, Note_on_c, 0, 52, 0
2, 14940, Note_on_c, 0, 56, 64
2, 14940, Note_on_c, 0, 66, 64
2, 14940, Note_on_c, 0, 50, 64
2, 14957, Note_on_c, 0, 50, 0
2, 14959, Note_on_c, 0, 49, 64
2, 14977, Note_on_c, 0, 49, 0
2, 14979, Note_on_c, 0, 47, 64
2, 14992, Note_on_c, 0, 56, 0
2, 14997, Note_on_c, 0, 47, 0
2, 15000, Note_on_c, 0, 57, 64
2, 15000, Note_on_c, 0, 49, 64
2, 15026, Note_on_c, 0, 66, 0
2, 15030, Note_on_c, 0, 66, 64
2, 15052, Note_on_c, 0, 57, 0
2, 15060, Note_on_c, 0, 59, 64
2, 15060, Note_on_c, 0, 37, 64
2, 15082, Note_on_c, 0, 66, 0
2, 15090, Note_on_c, 0, 65, 64
2, 15112, Note_on_c, 0, 37, 0
2, 15112, Note_on_c, 0, 59, 0
2, 15116, Note_on_c, 0, 65, 0
2, 15120, Note_on_c, 0, 49, 0
2, 15120, Note_on_c, 0, 66, 64
2, 15120, Note_on_c, 0, 58, 64
2, 15120, Note_on_c, 0, 42, 64
2, 15120, Note_on_c, 0, 49, 64
2, 15465, Note_on_c, 0, 49, 0
2, 15465, Note_on_c, 0, 66, 0
2, 15465, Note_on_c, 0, 58, 0
2, 15465, Note_on_c, 0, 42, 0
2, 15465, End_track
0, 0, End_of_file
