0, 0, Header, 1, 2, 120
1, 0, Start_track
1, 0, Time_signature, 4, 2, 24, 8
1, 0, Key_signature, 3, "major"
1, 0, Tempo, 857143
1, 0, Marker_t, "(c) Yo Tomita, 1997"
1, 33062, Tempo, 875912
1, 33122, Tempo, 902256
1, 33180, Tempo, 944882
1, 33214, Tempo, 983607
1, 33244, Tempo, 1025641
1, 33270, Tempo, 1061947
1, 33300, Tempo, 1100917
1, 33330, Tempo, 1176471
1, 33358, Tempo, 1263158
1, 33358, End_track
2, 0, Start_track
2, 0, MIDI_port, 0
2, 0, Title_t, "BWV 883/2"
2, 0, Program_c, 0, 6
2, 179, Note_on_c, 0, 61, 64
2, 231, Note_on_c, 0, 61, 0
2, 239, Note_on_c, 0, 57, 64
2, 291, Note_on_c, 0, 57, 0
2, 299, Note_on_c, 0, 54, 64
2, 351, Note_on_c, 0, 54, 0
2, 359, Note_on_c, 0, 62, 64
2, 531, Note_on_c, 0, 62, 0
2, 539, Note_on_c, 0, 61, 64
2, 565, Note_on_c, 0, 61, 0
2, 569, Note_on_c, 0, 59, 64
2, 595, Note_on_c, 0, 59, 0
2, 599, Note_on_c, 0, 61, 64
2, 771, Note_on_c, 0, 61, 0
2, 779, Note_on_c, 0, 66, 64
2, 831, Note_on_c, 0, 66, 0
2, 839, Note_on_c, 0, 59, 64
2, 1011, Note_on_c, 0, 59, 0
2, 1019, Note_on_c, 0, 57, 64
2, 1045, Note_on_c, 0, 57, 0
2, 1049, Note_on_c, 0, 56, 64
2, 1075, Note_on_c, 0, 56, 0
2, 1079, Note_on_c, 0, 57, 64
2, 1131, Note_on_c, 0, 57, 0
2, 1139, Note_on_c, 0, 54, 64
2, 1191, Note_on_c, 0, 54, 0
2, 1199, Note_on_c, 0, 57, 64
2, 1235, Note_on_c, 0, 56, 64
2, 1240, Note_on_c, 0, 57, 0
2, 1245, Note_on_c, 0, 57, 64
2, 1254, Note_on_c, 0, 56, 0
2, 1255, Note_on_c, 0, 56, 64
2, 1264, Note_on_c, 0, 57, 0
2, 1265, Note_on_c, 0, 57, 64
2, 1274, Note_on_c, 0, 56, 0
2, 1275, Note_on_c, 0, 56, 64
2, 1284, Note_on_c, 0, 57, 0
2, 1285, Note_on_c, 0, 57, 64
2, 1294, Note_on_c, 0, 56, 0
2, 1295, Note_on_c, 0, 56, 64
2, 1304, Note_on_c, 0, 57, 0
2, 1305, Note_on_c, 0, 57, 64
2, 1314, Note_on_c, 0, 56, 0
2, 1315, Note_on_c, 0, 56, 64
2, 1324, Note_on_c, 0, 57, 0
2, 1325, Note_on_c, 0, 57, 64
2, 1334, Note_on_c, 0, 56, 0
2, 1335, Note_on_c, 0, 56, 64
2, 1344, Note_on_c, 0, 57, 0
2, 1345, Note_on_c, 0, 57, 64
2, 1354, Note_on_c, 0, 56, 0
2, 1355, Note_on_c, 0, 56, 64
2, 1364, Note_on_c, 0, 57, 0
2, 1365, Note_on_c, 0, 57, 64
2, 1375, Note_on_c, 0, 56, 64
2, 1379, Note_on_c, 0, 56, 0
2, 1384, Note_on_c, 0, 57, 0
2, 1385, Note_on_c, 0, 57, 64
2, 1394, Note_on_c, 0, 56, 0
2, 1395, Note_on_c, 0, 56, 64
2, 1404, Note_on_c, 0, 57, 0
2, 1405, Note_on_c, 0, 54, 64
2, 1414, Note_on_c, 0, 56, 0
2, 1420, Note_on_c, 0, 56, 64
2, 1424, Note_on_c, 0, 54, 0
2, 1439, Note_on_c, 0, 54, 64
2, 1444, Note_on_c, 0, 56, 0
2, 1491, Note_on_c, 0, 54, 0
2, 1499, Note_on_c, 0, 56, 64
2, 1551, Note_on_c, 0, 56, 0
2, 1559, Note_on_c, 0, 57, 64
2, 1611, Note_on_c, 0, 57, 0
2, 1619, Note_on_c, 0, 66, 64
2, 1619, Note_on_c, 0, 59, 64
2, 1671, Note_on_c, 0, 59, 0
2, 1671, Note_on_c, 0, 66, 0
2, 1679, Note_on_c, 0, 64, 64
2, 1679, Note_on_c, 0, 61, 64
2, 1731, Note_on_c, 0, 64, 0
2, 1739, Note_on_c, 0, 61, 64
2, 1784, Note_on_c, 0, 61, 0
2, 1791, Note_on_c, 0, 61, 0
2, 1799, Note_on_c, 0, 69, 64
2, 1859, Note_on_c, 0, 63, 64
2, 1911, Note_on_c, 0, 63, 0
2, 1919, Note_on_c, 0, 64, 64
2, 1971, Note_on_c, 0, 69, 0
2, 1979, Note_on_c, 0, 68, 64
2, 2005, Note_on_c, 0, 68, 0
2, 2009, Note_on_c, 0, 66, 64
2, 2024, Note_on_c, 0, 64, 0
2, 2035, Note_on_c, 0, 66, 0
2, 2039, Note_on_c, 0, 68, 64
2, 2099, Note_on_c, 0, 64, 64
2, 2151, Note_on_c, 0, 64, 0
2, 2159, Note_on_c, 0, 58, 64
2, 2211, Note_on_c, 0, 68, 0
2, 2219, Note_on_c, 0, 73, 64
2, 2264, Note_on_c, 0, 58, 0
2, 2271, Note_on_c, 0, 73, 0
2, 2279, Note_on_c, 0, 66, 64
2, 2339, Note_on_c, 0, 60, 64
2, 2391, Note_on_c, 0, 60, 0
2, 2399, Note_on_c, 0, 61, 64
2, 2451, Note_on_c, 0, 66, 0
2, 2459, Note_on_c, 0, 64, 64
2, 2485, Note_on_c, 0, 64, 0
2, 2489, Note_on_c, 0, 63, 64
2, 2504, Note_on_c, 0, 61, 0
2, 2515, Note_on_c, 0, 63, 0
2, 2519, Note_on_c, 0, 64, 64
2, 2571, Note_on_c, 0, 64, 0
2, 2579, Note_on_c, 0, 61, 64
2, 2579, Note_on_c, 0, 61, 64
2, 2631, Note_on_c, 0, 61, 0
2, 2639, Note_on_c, 0, 64, 64
2, 2665, Note_on_c, 0, 63, 64
2, 2673, Note_on_c, 0, 64, 0
2, 2675, Note_on_c, 0, 64, 64
2, 2684, Note_on_c, 0, 63, 0
2, 2685, Note_on_c, 0, 63, 64
2, 2691, Note_on_c, 0, 61, 0
2, 2694, Note_on_c, 0, 64, 0
2, 2695, Note_on_c, 0, 64, 64
2, 2699, Note_on_c, 0, 60, 64
2, 2704, Note_on_c, 0, 63, 0
2, 2705, Note_on_c, 0, 63, 64
2, 2714, Note_on_c, 0, 64, 0
2, 2715, Note_on_c, 0, 64, 64
2, 2724, Note_on_c, 0, 63, 0
2, 2725, Note_on_c, 0, 60, 0
2, 2725, Note_on_c, 0, 63, 64
2, 2729, Note_on_c, 0, 58, 64
2, 2734, Note_on_c, 0, 64, 0
2, 2735, Note_on_c, 0, 64, 64
2, 2744, Note_on_c, 0, 63, 0
2, 2745, Note_on_c, 0, 63, 64
2, 2754, Note_on_c, 0, 64, 0
2, 2755, Note_on_c, 0, 58, 0
2, 2755, Note_on_c, 0, 64, 64
2, 2759, Note_on_c, 0, 60, 64
2, 2764, Note_on_c, 0, 63, 0
2, 2765, Note_on_c, 0, 63, 64
2, 2774, Note_on_c, 0, 64, 0
2, 2775, Note_on_c, 0, 64, 64
2, 2784, Note_on_c, 0, 63, 0
2, 2785, Note_on_c, 0, 63, 64
2, 2794, Note_on_c, 0, 64, 0
2, 2795, Note_on_c, 0, 64, 64
2, 2804, Note_on_c, 0, 63, 0
2, 2805, Note_on_c, 0, 63, 64
2, 2811, Note_on_c, 0, 60, 0
2, 2814, Note_on_c, 0, 64, 0
2, 2815, Note_on_c, 0, 64, 64
2, 2819, Note_on_c, 0, 56, 64
2, 2824, Note_on_c, 0, 63, 0
2, 2825, Note_on_c, 0, 63, 64
2, 2834, Note_on_c, 0, 64, 0
2, 2835, Note_on_c, 0, 64, 64
2, 2844, Note_on_c, 0, 63, 0
2, 2845, Note_on_c, 0, 63, 64
2, 2850, Note_on_c, 0, 61, 64
2, 2854, Note_on_c, 0, 64, 0
2, 2864, Note_on_c, 0, 63, 0
2, 2865, Note_on_c, 0, 63, 64
2, 2869, Note_on_c, 0, 61, 0
2, 2871, Note_on_c, 0, 56, 0
2, 2879, Note_on_c, 0, 61, 64
2, 2879, Note_on_c, 0, 64, 64
2, 2884, Note_on_c, 0, 63, 0
2, 2931, Note_on_c, 0, 61, 0
2, 2939, Note_on_c, 0, 73, 64
2, 2991, Note_on_c, 0, 73, 0
2, 2999, Note_on_c, 0, 66, 64
2, 3044, Note_on_c, 0, 64, 0
2, 3059, Note_on_c, 0, 57, 64
2, 3111, Note_on_c, 0, 57, 0
2, 3119, Note_on_c, 0, 62, 64
2, 3171, Note_on_c, 0, 66, 0
2, 3179, Note_on_c, 0, 71, 64
2, 3231, Note_on_c, 0, 71, 0
2, 3239, Note_on_c, 0, 64, 64
2, 3284, Note_on_c, 0, 62, 0
2, 3299, Note_on_c, 0, 56, 64
2, 3351, Note_on_c, 0, 56, 0
2, 3359, Note_on_c, 0, 61, 64
2, 3411, Note_on_c, 0, 64, 0
2, 3419, Note_on_c, 0, 69, 64
2, 3464, Note_on_c, 0, 61, 0
2, 3479, Note_on_c, 0, 59, 64
2, 3531, Note_on_c, 0, 69, 0
2, 3539, Note_on_c, 0, 68, 64
2, 3584, Note_on_c, 0, 59, 0
2, 3599, Note_on_c, 0, 57, 64
2, 3651, Note_on_c, 0, 68, 0
2, 3659, Note_on_c, 0, 66, 64
2, 3704, Note_on_c, 0, 57, 0
2, 3719, Note_on_c, 0, 56, 64
2, 3771, Note_on_c, 0, 66, 0
2, 3779, Note_on_c, 0, 65, 64
2, 3779, Note_on_c, 0, 49, 64
2, 3824, Note_on_c, 0, 56, 0
2, 3831, Note_on_c, 0, 49, 0
2, 3831, Note_on_c, 0, 65, 0
2, 3839, Note_on_c, 0, 66, 64
2, 3839, Note_on_c, 0, 54, 64
2, 3839, Note_on_c, 0, 45, 64
2, 3891, Note_on_c, 0, 45, 0
2, 3899, Note_on_c, 0, 42, 64
2, 3944, Note_on_c, 0, 54, 0
2, 3951, Note_on_c, 0, 42, 0
2, 3959, Note_on_c, 0, 50, 64
2, 4004, Note_on_c, 0, 66, 0
2, 4019, Note_on_c, 0, 71, 64
2, 4071, Note_on_c, 0, 71, 0
2, 4079, Note_on_c, 0, 68, 64
2, 4131, Note_on_c, 0, 68, 0
2, 4131, Note_on_c, 0, 50, 0
2, 4139, Note_on_c, 0, 64, 64
2, 4139, Note_on_c, 0, 49, 64
2, 4165, Note_on_c, 0, 49, 0
2, 4169, Note_on_c, 0, 47, 64
2, 4191, Note_on_c, 0, 64, 0
2, 4195, Note_on_c, 0, 47, 0
2, 4199, Note_on_c, 0, 52, 64
2, 4199, Note_on_c, 0, 49, 64
2, 4259, Note_on_c, 0, 69, 64
2, 4304, Note_on_c, 0, 52, 0
2, 4311, Note_on_c, 0, 69, 0
2, 4319, Note_on_c, 0, 66, 64
2, 4319, Note_on_c, 0, 57, 64
2, 4371, Note_on_c, 0, 66, 0
2, 4371, Note_on_c, 0, 49, 0
2, 4379, Note_on_c, 0, 63, 64
2, 4379, Note_on_c, 0, 54, 64
2, 4424, Note_on_c, 0, 57, 0
2, 4431, Note_on_c, 0, 54, 0
2, 4431, Note_on_c, 0, 63, 0
2, 4439, Note_on_c, 0, 62, 64
2, 4439, Note_on_c, 0, 47, 64
2, 4491, Note_on_c, 0, 62, 0
2, 4499, Note_on_c, 0, 68, 64
2, 4499, Note_on_c, 0, 59, 64
2, 4551, Note_on_c, 0, 59, 0
2, 4551, Note_on_c, 0, 68, 0
2, 4559, Note_on_c, 0, 65, 64
2, 4559, Note_on_c, 0, 56, 64
2, 4611, Note_on_c, 0, 65, 0
2, 4611, Note_on_c, 0, 47, 0
2, 4619, Note_on_c, 0, 61, 64
2, 4619, Note_on_c, 0, 45, 64
2, 4645, Note_on_c, 0, 45, 0
2, 4649, Note_on_c, 0, 44, 64
2, 4664, Note_on_c, 0, 56, 0
2, 4671, Note_on_c, 0, 61, 0
2, 4675, Note_on_c, 0, 44, 0
2, 4679, Note_on_c, 0, 66, 64
2, 4679, Note_on_c, 0, 45, 64
2, 4731, Note_on_c, 0, 45, 0
2, 4739, Note_on_c, 0, 57, 64
2, 4739, Note_on_c, 0, 42, 64
2, 4791, Note_on_c, 0, 42, 0
2, 4791, Note_on_c, 0, 57, 0
2, 4799, Note_on_c, 0, 45, 64
2, 4799, Note_on_c, 0, 59, 64
2, 4830, Note_on_c, 0, 44, 64
2, 4838, Note_on_c, 0, 45, 0
2, 4840, Note_on_c, 0, 45, 64
2, 4849, Note_on_c, 0, 44, 0
2, 4850, Note_on_c, 0, 44, 64
2, 4851, Note_on_c, 0, 59, 0
2, 4859, Note_on_c, 0, 62, 64
2, 4864, Note_on_c, 0, 45, 0
2, 4865, Note_on_c, 0, 45, 64
2, 4874, Note_on_c, 0, 44, 0
2, 4875, Note_on_c, 0, 44, 64
2, 4889, Note_on_c, 0, 45, 0
2, 4890, Note_on_c, 0, 45, 64
2, 4899, Note_on_c, 0, 44, 0
2, 4900, Note_on_c, 0, 44, 64
2, 4904, Note_on_c, 0, 66, 0
2, 4911, Note_on_c, 0, 62, 0
2, 4914, Note_on_c, 0, 45, 0
2, 4915, Note_on_c, 0, 45, 64
2, 4919, Note_on_c, 0, 65, 64
2, 4924, Note_on_c, 0, 44, 0
2, 4925, Note_on_c, 0, 44, 64
2, 4939, Note_on_c, 0, 45, 0
2, 4940, Note_on_c, 0, 45, 64
2, 4949, Note_on_c, 0, 44, 0
2, 4950, Note_on_c, 0, 44, 64
2, 4964, Note_on_c, 0, 45, 0
2, 4965, Note_on_c, 0, 45, 64
2, 4974, Note_on_c, 0, 44, 0
2, 4975, Note_on_c, 0, 44, 64
2, 4979, Note_on_c, 0, 56, 64
2, 4989, Note_on_c, 0, 45, 0
2, 4990, Note_on_c, 0, 45, 64
2, 4999, Note_on_c, 0, 44, 0
2, 5000, Note_on_c, 0, 44, 64
2, 5010, Note_on_c, 0, 42, 64
2, 5014, Note_on_c, 0, 45, 0
2, 5024, Note_on_c, 0, 44, 0
2, 5024, Note_on_c, 0, 65, 0
2, 5025, Note_on_c, 0, 44, 64
2, 5031, Note_on_c, 0, 56, 0
2, 5034, Note_on_c, 0, 42, 0
2, 5039, Note_on_c, 0, 44, 0
2, 5039, Note_on_c, 0, 66, 64
2, 5039, Note_on_c, 0, 57, 64
2, 5039, Note_on_c, 0, 42, 64
2, 5091, Note_on_c, 0, 57, 0
2, 5091, Note_on_c, 0, 66, 0
2, 5099, Note_on_c, 0, 69, 64
2, 5099, Note_on_c, 0, 61, 64
2, 5144, Note_on_c, 0, 42, 0
2, 5151, Note_on_c, 0, 61, 0
2, 5151, Note_on_c, 0, 69, 0
2, 5159, Note_on_c, 0, 71, 64
2, 5159, Note_on_c, 0, 50, 64
2, 5211, Note_on_c, 0, 71, 0
2, 5219, Note_on_c, 0, 74, 64
2, 5219, Note_on_c, 0, 54, 64
2, 5271, Note_on_c, 0, 54, 0
2, 5271, Note_on_c, 0, 74, 0
2, 5279, Note_on_c, 0, 56, 64
2, 5331, Note_on_c, 0, 56, 0
2, 5339, Note_on_c, 0, 68, 64
2, 5339, Note_on_c, 0, 59, 64
2, 5384, Note_on_c, 0, 50, 0
2, 5391, Note_on_c, 0, 59, 0
2, 5391, Note_on_c, 0, 68, 0
2, 5399, Note_on_c, 0, 69, 64
2, 5399, Note_on_c, 0, 49, 64
2, 5451, Note_on_c, 0, 69, 0
2, 5459, Note_on_c, 0, 73, 64
2, 5459, Note_on_c, 0, 57, 64
2, 5504, Note_on_c, 0, 49, 0
2, 5511, Note_on_c, 0, 57, 0
2, 5511, Note_on_c, 0, 73, 0
2, 5519, Note_on_c, 0, 62, 64
2, 5519, Note_on_c, 0, 47, 64
2, 5579, Note_on_c, 0, 66, 64
2, 5605, Note_on_c, 0, 66, 0
2, 5609, Note_on_c, 0, 68, 64
2, 5624, Note_on_c, 0, 47, 0
2, 5624, Note_on_c, 0, 62, 0
2, 5635, Note_on_c, 0, 68, 0
2, 5639, Note_on_c, 0, 69, 64
2, 5639, Note_on_c, 0, 59, 64
2, 5655, Note_on_c, 0, 68, 64
2, 5663, Note_on_c, 0, 69, 0
2, 5665, Note_on_c, 0, 69, 64
2, 5669, Note_on_c, 0, 68, 0
2, 5670, Note_on_c, 0, 68, 64
2, 5679, Note_on_c, 0, 69, 0
2, 5680, Note_on_c, 0, 69, 64
2, 5684, Note_on_c, 0, 68, 0
2, 5685, Note_on_c, 0, 68, 64
2, 5694, Note_on_c, 0, 69, 0
2, 5695, Note_on_c, 0, 69, 64
2, 5699, Note_on_c, 0, 68, 0
2, 5699, Note_on_c, 0, 52, 64
2, 5700, Note_on_c, 0, 68, 64
2, 5709, Note_on_c, 0, 69, 0
2, 5710, Note_on_c, 0, 69, 64
2, 5714, Note_on_c, 0, 68, 0
2, 5720, Note_on_c, 0, 68, 64
2, 5724, Note_on_c, 0, 69, 0
2, 5729, Note_on_c, 0, 66, 64
2, 5734, Note_on_c, 0, 68, 0
2, 5742, Note_on_c, 0, 66, 0
2, 5744, Note_on_c, 0, 59, 0
2, 5744, Note_on_c, 0, 68, 64
2, 5751, Note_on_c, 0, 52, 0
2, 5757, Note_on_c, 0, 68, 0
2, 5759, Note_on_c, 0, 69, 64
2, 5759, Note_on_c, 0, 64, 64
2, 5759, Note_on_c, 0, 49, 64
2, 5811, Note_on_c, 0, 49, 0
2, 5811, Note_on_c, 0, 64, 0
2, 5819, Note_on_c, 0, 61, 64
2, 5819, Note_on_c, 0, 45, 64
2, 5864, Note_on_c, 0, 69, 0
2, 5871, Note_on_c, 0, 45, 0
2, 5871, Note_on_c, 0, 61, 0
2, 5879, Note_on_c, 0, 63, 64
2, 5879, Note_on_c, 0, 54, 64
2, 5931, Note_on_c, 0, 63, 0
2, 5939, Note_on_c, 0, 75, 64
2, 5939, Note_on_c, 0, 66, 64
2, 5991, Note_on_c, 0, 66, 0
2, 5991, Note_on_c, 0, 75, 0
2, 5999, Note_on_c, 0, 72, 64
2, 6051, Note_on_c, 0, 72, 0
2, 6059, Note_on_c, 0, 68, 64
2, 6059, Note_on_c, 0, 60, 64
2, 6104, Note_on_c, 0, 54, 0
2, 6111, Note_on_c, 0, 60, 0
2, 6111, Note_on_c, 0, 68, 0
2, 6119, Note_on_c, 0, 61, 64
2, 6119, Note_on_c, 0, 52, 64
2, 6171, Note_on_c, 0, 61, 0
2, 6179, Note_on_c, 0, 73, 64
2, 6179, Note_on_c, 0, 64, 64
2, 6224, Note_on_c, 0, 52, 0
2, 6231, Note_on_c, 0, 64, 0
2, 6231, Note_on_c, 0, 73, 0
2, 6239, Note_on_c, 0, 78, 64
2, 6239, Note_on_c, 0, 51, 64
2, 6299, Note_on_c, 0, 58, 64
2, 6325, Note_on_c, 0, 58, 0
2, 6329, Note_on_c, 0, 60, 64
2, 6344, Note_on_c, 0, 51, 0
2, 6344, Note_on_c, 0, 78, 0
2, 6355, Note_on_c, 0, 60, 0
2, 6359, Note_on_c, 0, 61, 64
2, 6359, Note_on_c, 0, 75, 64
2, 6380, Note_on_c, 0, 60, 64
2, 6388, Note_on_c, 0, 61, 0
2, 6390, Note_on_c, 0, 61, 64
2, 6399, Note_on_c, 0, 60, 0
2, 6400, Note_on_c, 0, 60, 64
2, 6409, Note_on_c, 0, 61, 0
2, 6410, Note_on_c, 0, 61, 64
2, 6419, Note_on_c, 0, 60, 0
2, 6419, Note_on_c, 0, 56, 64
2, 6420, Note_on_c, 0, 60, 64
2, 6429, Note_on_c, 0, 61, 0
2, 6430, Note_on_c, 0, 61, 64
2, 6439, Note_on_c, 0, 60, 0
2, 6445, Note_on_c, 0, 60, 64
2, 6449, Note_on_c, 0, 61, 0
2, 6455, Note_on_c, 0, 58, 64
2, 6464, Note_on_c, 0, 75, 0
2, 6464, Note_on_c, 0, 60, 0
2, 6464, Note_on_c, 0, 60, 64
2, 6468, Note_on_c, 0, 58, 0
2, 6471, Note_on_c, 0, 56, 0
2, 6479, Note_on_c, 0, 80, 64
2, 6479, Note_on_c, 0, 61, 64
2, 6479, Note_on_c, 0, 52, 64
2, 6483, Note_on_c, 0, 60, 0
2, 6531, Note_on_c, 0, 80, 0
2, 6531, Note_on_c, 0, 52, 0
2, 6539, Note_on_c, 0, 76, 64
2, 6539, Note_on_c, 0, 49, 64
2, 6584, Note_on_c, 0, 61, 0
2, 6591, Note_on_c, 0, 49, 0
2, 6591, Note_on_c, 0, 76, 0
2, 6599, Note_on_c, 0, 78, 64
2, 6599, Note_on_c, 0, 57, 64
2, 6651, Note_on_c, 0, 78, 0
2, 6659, Note_on_c, 0, 81, 64
2, 6659, Note_on_c, 0, 66, 64
2, 6711, Note_on_c, 0, 66, 0
2, 6711, Note_on_c, 0, 81, 0
2, 6719, Note_on_c, 0, 62, 64
2, 6771, Note_on_c, 0, 62, 0
2, 6779, Note_on_c, 0, 74, 64
2, 6779, Note_on_c, 0, 59, 64
2, 6824, Note_on_c, 0, 57, 0
2, 6831, Note_on_c, 0, 59, 0
2, 6831, Note_on_c, 0, 74, 0
2, 6839, Note_on_c, 0, 76, 64
2, 6839, Note_on_c, 0, 56, 64
2, 6891, Note_on_c, 0, 76, 0
2, 6899, Note_on_c, 0, 80, 64
2, 6899, Note_on_c, 0, 64, 64
2, 6951, Note_on_c, 0, 64, 0
2, 6951, Note_on_c, 0, 80, 0
2, 6959, Note_on_c, 0, 61, 64
2, 7011, Note_on_c, 0, 61, 0
2, 7011, Note_on_c, 0, 56, 0
2, 7019, Note_on_c, 0, 73, 64
2, 7019, Note_on_c, 0, 57, 64
2, 7019, Note_on_c, 0, 49, 64
2, 7071, Note_on_c, 0, 49, 0
2, 7071, Note_on_c, 0, 57, 0
2, 7071, Note_on_c, 0, 73, 0
2, 7079, Note_on_c, 0, 71, 64
2, 7079, Note_on_c, 0, 54, 64
2, 7131, Note_on_c, 0, 71, 0
2, 7139, Note_on_c, 0, 69, 64
2, 7139, Note_on_c, 0, 61, 64
2, 7191, Note_on_c, 0, 61, 0
2, 7191, Note_on_c, 0, 69, 0
2, 7199, Note_on_c, 0, 68, 64
2, 7199, Note_on_c, 0, 59, 64
2, 7251, Note_on_c, 0, 59, 0
2, 7259, Note_on_c, 0, 57, 64
2, 7304, Note_on_c, 0, 68, 0
2, 7304, Note_on_c, 0, 54, 0
2, 7311, Note_on_c, 0, 57, 0
2, 7319, Note_on_c, 0, 57, 64
2, 7319, Note_on_c, 0, 53, 64
2, 7340, Note_on_c, 0, 56, 64
2, 7345, Note_on_c, 0, 57, 64
2, 7348, Note_on_c, 0, 57, 0
2, 7354, Note_on_c, 0, 56, 0
2, 7355, Note_on_c, 0, 56, 64
2, 7359, Note_on_c, 0, 57, 0
2, 7360, Note_on_c, 0, 57, 64
2, 7369, Note_on_c, 0, 56, 0
2, 7370, Note_on_c, 0, 56, 64
2, 7374, Note_on_c, 0, 57, 0
2, 7379, Note_on_c, 0, 73, 64
2, 7424, Note_on_c, 0, 53, 0
2, 7431, Note_on_c, 0, 73, 0
2, 7439, Note_on_c, 0, 56, 0
2, 7439, Note_on_c, 0, 69, 64
2, 7439, Note_on_c, 0, 54, 64
2, 7439, Note_on_c, 0, 54, 64
2, 7491, Note_on_c, 0, 54, 0
2, 7491, Note_on_c, 0, 69, 0
2, 7499, Note_on_c, 0, 66, 64
2, 7499, Note_on_c, 0, 57, 64
2, 7544, Note_on_c, 0, 54, 0
2, 7551, Note_on_c, 0, 57, 0
2, 7551, Note_on_c, 0, 66, 0
2, 7559, Note_on_c, 0, 74, 64
2, 7559, Note_on_c, 0, 59, 64
2, 7611, Note_on_c, 0, 59, 0
2, 7619, Note_on_c, 0, 71, 64
2, 7619, Note_on_c, 0, 62, 64
2, 7671, Note_on_c, 0, 62, 0
2, 7671, Note_on_c, 0, 71, 0
2, 7679, Note_on_c, 0, 64, 64
2, 7679, Note_on_c, 0, 56, 64
2, 7731, Note_on_c, 0, 56, 0
2, 7731, Note_on_c, 0, 74, 0
2, 7739, Note_on_c, 0, 73, 64
2, 7739, Note_on_c, 0, 52, 64
2, 7765, Note_on_c, 0, 73, 0
2, 7769, Note_on_c, 0, 71, 64
2, 7791, Note_on_c, 0, 52, 0
2, 7795, Note_on_c, 0, 71, 0
2, 7799, Note_on_c, 0, 73, 64
2, 7799, Note_on_c, 0, 57, 64
2, 7844, Note_on_c, 0, 64, 0
2, 7851, Note_on_c, 0, 57, 0
2, 7859, Note_on_c, 0, 64, 64
2, 7859, Note_on_c, 0, 61, 64
2, 7911, Note_on_c, 0, 61, 0
2, 7911, Note_on_c, 0, 64, 0
2, 7919, Note_on_c, 0, 69, 64
2, 7919, Note_on_c, 0, 54, 64
2, 7971, Note_on_c, 0, 54, 0
2, 7971, Note_on_c, 0, 73, 0
2, 7979, Note_on_c, 0, 78, 64
2, 7979, Note_on_c, 0, 51, 64
2, 8031, Note_on_c, 0, 51, 0
2, 8031, Note_on_c, 0, 78, 0
2, 8039, Note_on_c, 0, 71, 64
2, 8039, Note_on_c, 0, 56, 64
2, 8084, Note_on_c, 0, 69, 0
2, 8091, Note_on_c, 0, 56, 0
2, 8099, Note_on_c, 0, 68, 64
2, 8099, Note_on_c, 0, 59, 64
2, 8125, Note_on_c, 0, 68, 0
2, 8129, Note_on_c, 0, 66, 64
2, 8151, Note_on_c, 0, 59, 0
2, 8155, Note_on_c, 0, 66, 0
2, 8159, Note_on_c, 0, 68, 64
2, 8159, Note_on_c, 0, 53, 64
2, 8211, Note_on_c, 0, 53, 0
2, 8211, Note_on_c, 0, 68, 0
2, 8211, Note_on_c, 0, 71, 0
2, 8219, Note_on_c, 0, 69, 64
2, 8219, Note_on_c, 0, 65, 64
2, 8219, Note_on_c, 0, 49, 64
2, 8245, Note_on_c, 0, 69, 0
2, 8249, Note_on_c, 0, 68, 64
2, 8271, Note_on_c, 0, 49, 0
2, 8271, Note_on_c, 0, 65, 0
2, 8275, Note_on_c, 0, 68, 0
2, 8279, Note_on_c, 0, 69, 64
2, 8279, Note_on_c, 0, 66, 64
2, 8279, Note_on_c, 0, 54, 64
2, 8331, Note_on_c, 0, 54, 0
2, 8331, Note_on_c, 0, 69, 0
2, 8339, Note_on_c, 0, 66, 64
2, 8339, Note_on_c, 0, 57, 64
2, 8391, Note_on_c, 0, 57, 0
2, 8391, Note_on_c, 0, 66, 0
2, 8399, Note_on_c, 0, 68, 64
2, 8399, Note_on_c, 0, 59, 64
2, 8451, Note_on_c, 0, 59, 0
2, 8451, Note_on_c, 0, 66, 0
2, 8459, Note_on_c, 0, 64, 64
2, 8459, Note_on_c, 0, 56, 64
2, 8485, Note_on_c, 0, 64, 0
2, 8489, Note_on_c, 0, 63, 64
2, 8511, Note_on_c, 0, 56, 0
2, 8515, Note_on_c, 0, 63, 0
2, 8519, Note_on_c, 0, 64, 64
2, 8519, Note_on_c, 0, 61, 64
2, 8571, Note_on_c, 0, 61, 0
2, 8579, Note_on_c, 0, 59, 64
2, 8631, Note_on_c, 0, 59, 0
2, 8639, Note_on_c, 0, 68, 0
2, 8639, Note_on_c, 0, 66, 64
2, 8639, Note_on_c, 0, 58, 64
2, 8691, Note_on_c, 0, 58, 0
2, 8691, Note_on_c, 0, 64, 0
2, 8699, Note_on_c, 0, 62, 64
2, 8699, Note_on_c, 0, 54, 64
2, 8725, Note_on_c, 0, 62, 0
2, 8729, Note_on_c, 0, 61, 64
2, 8751, Note_on_c, 0, 54, 0
2, 8755, Note_on_c, 0, 61, 0
2, 8759, Note_on_c, 0, 62, 64
2, 8759, Note_on_c, 0, 59, 64
2, 8804, Note_on_c, 0, 66, 0
2, 8811, Note_on_c, 0, 59, 0
2, 8819, Note_on_c, 0, 71, 64
2, 8819, Note_on_c, 0, 57, 64
2, 8871, Note_on_c, 0, 57, 0
2, 8871, Note_on_c, 0, 71, 0
2, 8879, Note_on_c, 0, 64, 64
2, 8879, Note_on_c, 0, 56, 64
2, 8931, Note_on_c, 0, 56, 0
2, 8931, Note_on_c, 0, 64, 0
2, 8939, Note_on_c, 0, 68, 64
2, 8939, Note_on_c, 0, 52, 64
2, 8984, Note_on_c, 0, 62, 0
2, 8991, Note_on_c, 0, 52, 0
2, 8991, Note_on_c, 0, 68, 0
2, 8999, Note_on_c, 0, 69, 64
2, 8999, Note_on_c, 0, 61, 64
2, 8999, Note_on_c, 0, 54, 64
2, 9051, Note_on_c, 0, 54, 0
2, 9051, Note_on_c, 0, 69, 0
2, 9059, Note_on_c, 0, 73, 64
2, 9059, Note_on_c, 0, 57, 64
2, 9111, Note_on_c, 0, 57, 0
2, 9111, Note_on_c, 0, 73, 0
2, 9119, Note_on_c, 0, 66, 64
2, 9119, Note_on_c, 0, 50, 64
2, 9171, Note_on_c, 0, 50, 0
2, 9171, Note_on_c, 0, 61, 0
2, 9179, Note_on_c, 0, 62, 64
2, 9179, Note_on_c, 0, 47, 64
2, 9224, Note_on_c, 0, 66, 0
2, 9231, Note_on_c, 0, 47, 0
2, 9231, Note_on_c, 0, 62, 0
2, 9239, Note_on_c, 0, 68, 64
2, 9239, Note_on_c, 0, 59, 64
2, 9239, Note_on_c, 0, 52, 64
2, 9291, Note_on_c, 0, 52, 0
2, 9291, Note_on_c, 0, 59, 0
2, 9299, Note_on_c, 0, 64, 64
2, 9299, Note_on_c, 0, 40, 64
2, 9344, Note_on_c, 0, 68, 0
2, 9351, Note_on_c, 0, 40, 0
2, 9351, Note_on_c, 0, 64, 0
2, 9359, Note_on_c, 0, 69, 64
2, 9359, Note_on_c, 0, 61, 64
2, 9359, Note_on_c, 0, 45, 64
2, 9411, Note_on_c, 0, 45, 0
2, 9419, Note_on_c, 0, 57, 64
2, 9464, Note_on_c, 0, 61, 0
2, 9464, Note_on_c, 0, 69, 0
2, 9471, Note_on_c, 0, 57, 0
2, 9479, Note_on_c, 0, 56, 64
2, 9557, Note_on_c, 0, 56, 0
2, 9569, Note_on_c, 0, 54, 64
2, 9595, Note_on_c, 0, 54, 0
2, 9599, Note_on_c, 0, 53, 64
2, 9651, Note_on_c, 0, 53, 0
2, 9659, Note_on_c, 0, 61, 64
2, 9659, Note_on_c, 0, 49, 64
2, 9711, Note_on_c, 0, 49, 0
2, 9711, Note_on_c, 0, 61, 0
2, 9719, Note_on_c, 0, 59, 64
2, 9719, Note_on_c, 0, 54, 64
2, 9797, Note_on_c, 0, 59, 0
2, 9809, Note_on_c, 0, 57, 64
2, 9835, Note_on_c, 0, 57, 0
2, 9839, Note_on_c, 0, 56, 64
2, 9899, Note_on_c, 0, 74, 64
2, 9944, Note_on_c, 0, 54, 0
2, 9951, Note_on_c, 0, 74, 0
2, 9959, Note_on_c, 0, 73, 64
2, 9959, Note_on_c, 0, 53, 64
2, 10004, Note_on_c, 0, 56, 0
2, 10011, Note_on_c, 0, 53, 0
2, 10019, Note_on_c, 0, 61, 64
2, 10019, Note_on_c, 0, 52, 64
2, 10037, Note_on_c, 0, 73, 0
2, 10049, Note_on_c, 0, 71, 64
2, 10071, Note_on_c, 0, 61, 0
2, 10075, Note_on_c, 0, 71, 0
2, 10079, Note_on_c, 0, 70, 64
2, 10079, Note_on_c, 0, 54, 64
2, 10131, Note_on_c, 0, 54, 0
2, 10131, Note_on_c, 0, 70, 0
2, 10131, Note_on_c, 0, 52, 0
2, 10139, Note_on_c, 0, 66, 64
2, 10139, Note_on_c, 0, 66, 64
2, 10139, Note_on_c, 0, 50, 64
2, 10191, Note_on_c, 0, 50, 0
2, 10191, Note_on_c, 0, 66, 0
2, 10191, Note_on_c, 0, 66, 0
2, 10199, Note_on_c, 0, 71, 64
2, 10199, Note_on_c, 0, 64, 64
2, 10199, Note_on_c, 0, 49, 64
2, 10251, Note_on_c, 0, 49, 0
2, 10259, Note_on_c, 0, 47, 64
2, 10277, Note_on_c, 0, 64, 0
2, 10289, Note_on_c, 0, 62, 64
2, 10311, Note_on_c, 0, 47, 0
2, 10315, Note_on_c, 0, 62, 0
2, 10319, Note_on_c, 0, 61, 64
2, 10319, Note_on_c, 0, 52, 64
2, 10371, Note_on_c, 0, 52, 0
2, 10371, Note_on_c, 0, 61, 0
2, 10379, Note_on_c, 0, 67, 64
2, 10379, Note_on_c, 0, 49, 64
2, 10424, Note_on_c, 0, 71, 0
2, 10431, Note_on_c, 0, 49, 0
2, 10431, Note_on_c, 0, 67, 0
2, 10439, Note_on_c, 0, 70, 64
2, 10439, Note_on_c, 0, 66, 64
2, 10439, Note_on_c, 0, 54, 64
2, 10491, Note_on_c, 0, 54, 0
2, 10491, Note_on_c, 0, 70, 0
2, 10499, Note_on_c, 0, 69, 64
2, 10499, Note_on_c, 0, 42, 64
2, 10517, Note_on_c, 0, 66, 0
2, 10529, Note_on_c, 0, 64, 64
2, 10551, Note_on_c, 0, 42, 0
2, 10555, Note_on_c, 0, 64, 0
2, 10559, Note_on_c, 0, 63, 64
2, 10559, Note_on_c, 0, 47, 64
2, 10611, Note_on_c, 0, 63, 0
2, 10611, Note_on_c, 0, 69, 0
2, 10619, Note_on_c, 0, 71, 64
2, 10619, Note_on_c, 0, 59, 64
2, 10664, Note_on_c, 0, 47, 0
2, 10671, Note_on_c, 0, 59, 0
2, 10671, Note_on_c, 0, 71, 0
2, 10679, Note_on_c, 0, 69, 64
2, 10679, Note_on_c, 0, 64, 64
2, 10739, Note_on_c, 0, 49, 64
2, 10757, Note_on_c, 0, 69, 0
2, 10769, Note_on_c, 0, 68, 64
2, 10791, Note_on_c, 0, 49, 0
2, 10795, Note_on_c, 0, 68, 0
2, 10799, Note_on_c, 0, 66, 64
2, 10799, Note_on_c, 0, 45, 64
2, 10851, Note_on_c, 0, 45, 0
2, 10859, Note_on_c, 0, 61, 64
2, 10904, Note_on_c, 0, 64, 0
2, 10911, Note_on_c, 0, 61, 0
2, 10919, Note_on_c, 0, 63, 64
2, 10919, Note_on_c, 0, 59, 64
2, 10971, Note_on_c, 0, 63, 0
2, 10979, Note_on_c, 0, 62, 64
2, 10997, Note_on_c, 0, 59, 0
2, 11009, Note_on_c, 0, 57, 64
2, 11024, Note_on_c, 0, 66, 0
2, 11035, Note_on_c, 0, 57, 0
2, 11039, Note_on_c, 0, 64, 64
2, 11039, Note_on_c, 0, 56, 64
2, 11091, Note_on_c, 0, 56, 0
2, 11091, Note_on_c, 0, 62, 0
2, 11099, Note_on_c, 0, 61, 64
2, 11099, Note_on_c, 0, 52, 64
2, 11125, Note_on_c, 0, 61, 0
2, 11129, Note_on_c, 0, 59, 64
2, 11151, Note_on_c, 0, 52, 0
2, 11155, Note_on_c, 0, 59, 0
2, 11159, Note_on_c, 0, 61, 64
2, 11159, Note_on_c, 0, 57, 64
2, 11204, Note_on_c, 0, 64, 0
2, 11211, Note_on_c, 0, 61, 0
2, 11219, Note_on_c, 0, 69, 64
2, 11219, Note_on_c, 0, 66, 64
2, 11271, Note_on_c, 0, 66, 0
2, 11271, Note_on_c, 0, 69, 0
2, 11279, Note_on_c, 0, 71, 64
2, 11279, Note_on_c, 0, 62, 64
2, 11331, Note_on_c, 0, 62, 0
2, 11339, Note_on_c, 0, 59, 64
2, 11384, Note_on_c, 0, 57, 0
2, 11391, Note_on_c, 0, 59, 0
2, 11399, Note_on_c, 0, 64, 64
2, 11399, Note_on_c, 0, 56, 64
2, 11444, Note_on_c, 0, 71, 0
2, 11451, Note_on_c, 0, 56, 0
2, 11459, Note_on_c, 0, 68, 64
2, 11459, Note_on_c, 0, 52, 64
2, 11511, Note_on_c, 0, 52, 0
2, 11511, Note_on_c, 0, 68, 0
2, 11519, Note_on_c, 0, 73, 64
2, 11519, Note_on_c, 0, 57, 64
2, 11571, Note_on_c, 0, 64, 0
2, 11579, Note_on_c, 0, 61, 64
2, 11631, Note_on_c, 0, 61, 0
2, 11639, Note_on_c, 0, 66, 64
2, 11684, Note_on_c, 0, 57, 0
2, 11684, Note_on_c, 0, 73, 0
2, 11699, Note_on_c, 0, 69, 64
2, 11699, Note_on_c, 0, 54, 64
2, 11751, Note_on_c, 0, 54, 0
2, 11751, Note_on_c, 0, 69, 0
2, 11759, Note_on_c, 0, 74, 64
2, 11759, Note_on_c, 0, 59, 64
2, 11811, Note_on_c, 0, 66, 0
2, 11819, Note_on_c, 0, 69, 64
2, 11871, Note_on_c, 0, 69, 0
2, 11879, Note_on_c, 0, 68, 64
2, 11924, Note_on_c, 0, 59, 0
2, 11939, Note_on_c, 0, 56, 64
2, 11957, Note_on_c, 0, 68, 0
2, 11969, Note_on_c, 0, 66, 64
2, 11991, Note_on_c, 0, 56, 0
2, 11995, Note_on_c, 0, 66, 0
2, 11999, Note_on_c, 0, 64, 64
2, 11999, Note_on_c, 0, 61, 64
2, 12051, Note_on_c, 0, 64, 0
2, 12051, Note_on_c, 0, 74, 0
2, 12059, Note_on_c, 0, 74, 64
2, 12059, Note_on_c, 0, 71, 64
2, 12111, Note_on_c, 0, 71, 0
2, 12111, Note_on_c, 0, 74, 0
2, 12119, Note_on_c, 0, 73, 64
2, 12119, Note_on_c, 0, 69, 64
2, 12171, Note_on_c, 0, 69, 0
2, 12179, Note_on_c, 0, 68, 64
2, 12197, Note_on_c, 0, 73, 0
2, 12209, Note_on_c, 0, 71, 64
2, 12231, Note_on_c, 0, 68, 0
2, 12235, Note_on_c, 0, 71, 0
2, 12239, Note_on_c, 0, 69, 64
2, 12239, Note_on_c, 0, 66, 64
2, 12291, Note_on_c, 0, 66, 0
2, 12291, Note_on_c, 0, 61, 0
2, 12299, Note_on_c, 0, 64, 64
2, 12299, Note_on_c, 0, 61, 64
2, 12344, Note_on_c, 0, 69, 0
2, 12351, Note_on_c, 0, 61, 0
2, 12351, Note_on_c, 0, 64, 0
2, 12359, Note_on_c, 0, 78, 64
2, 12359, Note_on_c, 0, 62, 64
2, 12359, Note_on_c, 0, 59, 64
2, 12411, Note_on_c, 0, 62, 0
2, 12419, Note_on_c, 0, 61, 64
2, 12437, Note_on_c, 0, 59, 0
2, 12449, Note_on_c, 0, 57, 64
2, 12471, Note_on_c, 0, 61, 0
2, 12475, Note_on_c, 0, 57, 0
2, 12479, Note_on_c, 0, 59, 64
2, 12479, Note_on_c, 0, 56, 64
2, 12531, Note_on_c, 0, 78, 0
2, 12539, Note_on_c, 0, 76, 64
2, 12584, Note_on_c, 0, 56, 0
2, 12584, Note_on_c, 0, 59, 0
2, 12591, Note_on_c, 0, 76, 0
2, 12599, Note_on_c, 0, 74, 64
2, 12599, Note_on_c, 0, 66, 64
2, 12599, Note_on_c, 0, 58, 64
2, 12677, Note_on_c, 0, 74, 0
2, 12689, Note_on_c, 0, 73, 64
2, 12704, Note_on_c, 0, 58, 0
2, 12715, Note_on_c, 0, 73, 0
2, 12719, Note_on_c, 0, 74, 64
2, 12719, Note_on_c, 0, 59, 64
2, 12771, Note_on_c, 0, 74, 0
2, 12771, Note_on_c, 0, 66, 0
2, 12779, Note_on_c, 0, 71, 64
2, 12779, Note_on_c, 0, 62, 64
2, 12824, Note_on_c, 0, 59, 0
2, 12831, Note_on_c, 0, 62, 0
2, 12831, Note_on_c, 0, 71, 0
2, 12839, Note_on_c, 0, 76, 64
2, 12839, Note_on_c, 0, 61, 64
2, 12839, Note_on_c, 0, 55, 64
2, 12917, Note_on_c, 0, 61, 0
2, 12929, Note_on_c, 0, 59, 64
2, 12944, Note_on_c, 0, 55, 0
2, 12955, Note_on_c, 0, 59, 0
2, 12959, Note_on_c, 0, 58, 64
2, 12959, Note_on_c, 0, 54, 64
2, 13011, Note_on_c, 0, 58, 0
2, 13011, Note_on_c, 0, 76, 0
2, 13019, Note_on_c, 0, 78, 64
2, 13019, Note_on_c, 0, 54, 64
2, 13064, Note_on_c, 0, 54, 0
2, 13071, Note_on_c, 0, 78, 0
2, 13071, Note_on_c, 0, 54, 0
2, 13079, Note_on_c, 0, 74, 64
2, 13079, Note_on_c, 0, 59, 64
2, 13131, Note_on_c, 0, 74, 0
2, 13139, Note_on_c, 0, 71, 64
2, 13139, Note_on_c, 0, 55, 64
2, 13191, Note_on_c, 0, 55, 0
2, 13191, Note_on_c, 0, 71, 0
2, 13199, Note_on_c, 0, 73, 64
2, 13199, Note_on_c, 0, 52, 64
2, 13251, Note_on_c, 0, 52, 0
2, 13259, Note_on_c, 0, 49, 64
2, 13304, Note_on_c, 0, 73, 0
2, 13304, Note_on_c, 0, 59, 0
2, 13311, Note_on_c, 0, 49, 0
2, 13319, Note_on_c, 0, 58, 64
2, 13319, Note_on_c, 0, 54, 64
2, 13371, Note_on_c, 0, 58, 0
2, 13379, Note_on_c, 0, 70, 64
2, 13379, Note_on_c, 0, 66, 64
2, 13431, Note_on_c, 0, 66, 0
2, 13431, Note_on_c, 0, 70, 0
2, 13439, Note_on_c, 0, 71, 64
2, 13439, Note_on_c, 0, 62, 64
2, 13491, Note_on_c, 0, 62, 0
2, 13491, Note_on_c, 0, 71, 0
2, 13499, Note_on_c, 0, 74, 64
2, 13499, Note_on_c, 0, 59, 64
2, 13544, Note_on_c, 0, 54, 0
2, 13551, Note_on_c, 0, 59, 0
2, 13551, Note_on_c, 0, 74, 0
2, 13559, Note_on_c, 0, 73, 64
2, 13559, Note_on_c, 0, 67, 64
2, 13559, Note_on_c, 0, 52, 64
2, 13611, Note_on_c, 0, 52, 0
2, 13619, Note_on_c, 0, 50, 64
2, 13637, Note_on_c, 0, 73, 0
2, 13649, Note_on_c, 0, 71, 64
2, 13671, Note_on_c, 0, 50, 0
2, 13675, Note_on_c, 0, 71, 0
2, 13679, Note_on_c, 0, 69, 64
2, 13679, Note_on_c, 0, 49, 64
2, 13731, Note_on_c, 0, 49, 0
2, 13731, Note_on_c, 0, 67, 0
2, 13739, Note_on_c, 0, 66, 64
2, 13739, Note_on_c, 0, 45, 64
2, 13765, Note_on_c, 0, 66, 0
2, 13769, Note_on_c, 0, 64, 64
2, 13791, Note_on_c, 0, 45, 0
2, 13795, Note_on_c, 0, 64, 0
2, 13799, Note_on_c, 0, 66, 64
2, 13799, Note_on_c, 0, 50, 64
2, 13844, Note_on_c, 0, 69, 0
2, 13851, Note_on_c, 0, 50, 0
2, 13859, Note_on_c, 0, 74, 64
2, 13859, Note_on_c, 0, 49, 64
2, 13911, Note_on_c, 0, 49, 0
2, 13911, Note_on_c, 0, 74, 0
2, 13919, Note_on_c, 0, 67, 64
2, 13919, Note_on_c, 0, 47, 64
2, 13971, Note_on_c, 0, 47, 0
2, 13971, Note_on_c, 0, 66, 0
2, 13979, Note_on_c, 0, 71, 64
2, 13979, Note_on_c, 0, 50, 64
2, 14031, Note_on_c, 0, 50, 0
2, 14031, Note_on_c, 0, 71, 0
2, 14039, Note_on_c, 0, 64, 64
2, 14039, Note_on_c, 0, 49, 64
2, 14084, Note_on_c, 0, 67, 0
2, 14099, Note_on_c, 0, 73, 64
2, 14117, Note_on_c, 0, 49, 0
2, 14129, Note_on_c, 0, 47, 64
2, 14151, Note_on_c, 0, 73, 0
2, 14155, Note_on_c, 0, 47, 0
2, 14159, Note_on_c, 0, 66, 64
2, 14159, Note_on_c, 0, 46, 64
2, 14211, Note_on_c, 0, 46, 0
2, 14211, Note_on_c, 0, 64, 0
2, 14219, Note_on_c, 0, 62, 64
2, 14219, Note_on_c, 0, 42, 64
2, 14245, Note_on_c, 0, 62, 0
2, 14249, Note_on_c, 0, 61, 64
2, 14264, Note_on_c, 0, 66, 0
2, 14271, Note_on_c, 0, 42, 0
2, 14275, Note_on_c, 0, 61, 0
2, 14279, Note_on_c, 0, 62, 64
2, 14279, Note_on_c, 0, 47, 64
2, 14331, Note_on_c, 0, 62, 0
2, 14339, Note_on_c, 0, 59, 64
2, 14391, Note_on_c, 0, 59, 0
2, 14399, Note_on_c, 0, 61, 64
2, 14451, Note_on_c, 0, 47, 0
2, 14459, Note_on_c, 0, 65, 64
2, 14459, Note_on_c, 0, 45, 64
2, 14485, Note_on_c, 0, 45, 0
2, 14489, Note_on_c, 0, 44, 64
2, 14511, Note_on_c, 0, 65, 0
2, 14515, Note_on_c, 0, 44, 0
2, 14519, Note_on_c, 0, 66, 64
2, 14519, Note_on_c, 0, 45, 64
2, 14571, Note_on_c, 0, 66, 0
2, 14579, Note_on_c, 0, 69, 64
2, 14624, Note_on_c, 0, 61, 0
2, 14631, Note_on_c, 0, 69, 0
2, 14639, Note_on_c, 0, 63, 64
2, 14639, Note_on_c, 0, 59, 64
2, 14691, Note_on_c, 0, 63, 0
2, 14691, Note_on_c, 0, 45, 0
2, 14699, Note_on_c, 0, 66, 64
2, 14699, Note_on_c, 0, 44, 64
2, 14725, Note_on_c, 0, 44, 0
2, 14729, Note_on_c, 0, 42, 64
2, 14744, Note_on_c, 0, 59, 0
2, 14751, Note_on_c, 0, 66, 0
2, 14755, Note_on_c, 0, 42, 0
2, 14759, Note_on_c, 0, 71, 64
2, 14759, Note_on_c, 0, 44, 64
2, 14811, Note_on_c, 0, 44, 0
2, 14819, Note_on_c, 0, 68, 64
2, 14819, Note_on_c, 0, 40, 64
2, 14871, Note_on_c, 0, 40, 0
2, 14871, Note_on_c, 0, 68, 0
2, 14879, Note_on_c, 0, 64, 64
2, 14879, Note_on_c, 0, 49, 64
2, 14931, Note_on_c, 0, 49, 0
2, 14931, Note_on_c, 0, 71, 0
2, 14939, Note_on_c, 0, 69, 64
2, 14939, Note_on_c, 0, 37, 64
2, 14965, Note_on_c, 0, 69, 0
2, 14969, Note_on_c, 0, 68, 64
2, 14991, Note_on_c, 0, 37, 0
2, 14995, Note_on_c, 0, 68, 0
2, 14999, Note_on_c, 0, 69, 64
2, 14999, Note_on_c, 0, 49, 64
2, 15051, Note_on_c, 0, 69, 0
2, 15059, Note_on_c, 0, 73, 64
2, 15104, Note_on_c, 0, 64, 0
2, 15111, Note_on_c, 0, 73, 0
2, 15119, Note_on_c, 0, 66, 64
2, 15119, Note_on_c, 0, 62, 64
2, 15171, Note_on_c, 0, 66, 0
2, 15171, Note_on_c, 0, 49, 0
2, 15179, Note_on_c, 0, 69, 64
2, 15179, Note_on_c, 0, 47, 64
2, 15205, Note_on_c, 0, 47, 0
2, 15209, Note_on_c, 0, 45, 64
2, 15231, Note_on_c, 0, 69, 0
2, 15235, Note_on_c, 0, 45, 0
2, 15239, Note_on_c, 0, 74, 64
2, 15239, Note_on_c, 0, 47, 64
2, 15284, Note_on_c, 0, 62, 0
2, 15291, Note_on_c, 0, 47, 0
2, 15299, Note_on_c, 0, 71, 64
2, 15299, Note_on_c, 0, 44, 64
2, 15351, Note_on_c, 0, 44, 0
2, 15351, Note_on_c, 0, 71, 0
2, 15359, Note_on_c, 0, 68, 64
2, 15359, Note_on_c, 0, 41, 64
2, 15411, Note_on_c, 0, 41, 0
2, 15411, Note_on_c, 0, 68, 0
2, 15411, Note_on_c, 0, 74, 0
2, 15419, Note_on_c, 0, 74, 64
2, 15419, Note_on_c, 0, 65, 64
2, 15419, Note_on_c, 0, 56, 64
2, 15471, Note_on_c, 0, 56, 0
2, 15471, Note_on_c, 0, 65, 0
2, 15471, Note_on_c, 0, 74, 0
2, 15479, Note_on_c, 0, 73, 64
2, 15479, Note_on_c, 0, 53, 64
2, 15531, Note_on_c, 0, 53, 0
2, 15539, Note_on_c, 0, 68, 64
2, 15539, Note_on_c, 0, 49, 64
2, 15557, Note_on_c, 0, 73, 0
2, 15569, Note_on_c, 0, 71, 64
2, 15591, Note_on_c, 0, 49, 0
2, 15595, Note_on_c, 0, 71, 0
2, 15599, Note_on_c, 0, 69, 64
2, 15599, Note_on_c, 0, 54, 64
2, 15651, Note_on_c, 0, 54, 0
2, 15651, Note_on_c, 0, 68, 0
2, 15659, Note_on_c, 0, 66, 64
2, 15659, Note_on_c, 0, 56, 64
2, 15685, Note_on_c, 0, 66, 0
2, 15689, Note_on_c, 0, 65, 64
2, 15711, Note_on_c, 0, 56, 0
2, 15715, Note_on_c, 0, 65, 0
2, 15719, Note_on_c, 0, 66, 64
2, 15719, Note_on_c, 0, 57, 64
2, 15771, Note_on_c, 0, 57, 0
2, 15771, Note_on_c, 0, 66, 0
2, 15779, Note_on_c, 0, 63, 64
2, 15779, Note_on_c, 0, 54, 64
2, 15831, Note_on_c, 0, 54, 0
2, 15831, Note_on_c, 0, 63, 0
2, 15839, Note_on_c, 0, 60, 64
2, 15839, Note_on_c, 0, 56, 64
2, 15891, Note_on_c, 0, 56, 0
2, 15891, Note_on_c, 0, 69, 0
2, 15899, Note_on_c, 0, 68, 64
2, 15899, Note_on_c, 0, 44, 64
2, 15925, Note_on_c, 0, 68, 0
2, 15929, Note_on_c, 0, 66, 64
2, 15951, Note_on_c, 0, 44, 0
2, 15955, Note_on_c, 0, 66, 0
2, 15959, Note_on_c, 0, 68, 64
2, 16011, Note_on_c, 0, 68, 0
2, 16019, Note_on_c, 0, 63, 64
2, 16019, Note_on_c, 0, 56, 64
2, 16064, Note_on_c, 0, 60, 0
2, 16071, Note_on_c, 0, 56, 0
2, 16071, Note_on_c, 0, 63, 0
2, 16079, Note_on_c, 0, 64, 64
2, 16079, Note_on_c, 0, 61, 64
2, 16079, Note_on_c, 0, 52, 64
2, 16131, Note_on_c, 0, 52, 0
2, 16131, Note_on_c, 0, 61, 0
2, 16131, Note_on_c, 0, 64, 0
2, 16139, Note_on_c, 0, 76, 64
2, 16139, Note_on_c, 0, 49, 64
2, 16191, Note_on_c, 0, 49, 0
2, 16191, Note_on_c, 0, 76, 0
2, 16199, Note_on_c, 0, 75, 64
2, 16199, Note_on_c, 0, 57, 64
2, 16277, Note_on_c, 0, 75, 0
2, 16289, Note_on_c, 0, 73, 64
2, 16315, Note_on_c, 0, 73, 0
2, 16319, Note_on_c, 0, 72, 64
2, 16371, Note_on_c, 0, 72, 0
2, 16371, Note_on_c, 0, 57, 0
2, 16379, Note_on_c, 0, 78, 64
2, 16379, Note_on_c, 0, 75, 64
2, 16379, Note_on_c, 0, 56, 64
2, 16405, Note_on_c, 0, 56, 0
2, 16409, Note_on_c, 0, 54, 64
2, 16431, Note_on_c, 0, 75, 0
2, 16431, Note_on_c, 0, 78, 0
2, 16435, Note_on_c, 0, 54, 0
2, 16439, Note_on_c, 0, 76, 64
2, 16439, Note_on_c, 0, 73, 64
2, 16439, Note_on_c, 0, 56, 64
2, 16491, Note_on_c, 0, 76, 0
2, 16499, Note_on_c, 0, 75, 64
2, 16517, Note_on_c, 0, 73, 0
2, 16529, Note_on_c, 0, 72, 64
2, 16551, Note_on_c, 0, 75, 0
2, 16555, Note_on_c, 0, 72, 0
2, 16559, Note_on_c, 0, 76, 64
2, 16559, Note_on_c, 0, 73, 64
2, 16611, Note_on_c, 0, 73, 0
2, 16611, Note_on_c, 0, 56, 0
2, 16619, Note_on_c, 0, 71, 64
2, 16619, Note_on_c, 0, 61, 64
2, 16671, Note_on_c, 0, 61, 0
2, 16671, Note_on_c, 0, 71, 0
2, 16679, Note_on_c, 0, 69, 64
2, 16679, Note_on_c, 0, 54, 64
2, 16724, Note_on_c, 0, 76, 0
2, 16731, Note_on_c, 0, 69, 0
2, 16739, Note_on_c, 0, 75, 64
2, 16739, Note_on_c, 0, 66, 64
2, 16765, Note_on_c, 0, 75, 0
2, 16769, Note_on_c, 0, 73, 64
2, 16791, Note_on_c, 0, 66, 0
2, 16795, Note_on_c, 0, 73, 0
2, 16799, Note_on_c, 0, 80, 64
2, 16799, Note_on_c, 0, 60, 64
2, 16851, Note_on_c, 0, 60, 0
2, 16851, Note_on_c, 0, 80, 0
2, 16851, Note_on_c, 0, 54, 0
2, 16859, Note_on_c, 0, 72, 64
2, 16859, Note_on_c, 0, 63, 64
2, 16859, Note_on_c, 0, 52, 64
2, 16885, Note_on_c, 0, 52, 0
2, 16889, Note_on_c, 0, 51, 64
2, 16911, Note_on_c, 0, 63, 0
2, 16911, Note_on_c, 0, 72, 0
2, 16915, Note_on_c, 0, 51, 0
2, 16919, Note_on_c, 0, 73, 64
2, 16919, Note_on_c, 0, 56, 64
2, 16919, Note_on_c, 0, 52, 64
2, 16971, Note_on_c, 0, 52, 0
2, 16971, Note_on_c, 0, 56, 0
2, 16979, Note_on_c, 0, 68, 64
2, 16979, Note_on_c, 0, 49, 64
2, 17031, Note_on_c, 0, 49, 0
2, 17031, Note_on_c, 0, 68, 0
2, 17039, Note_on_c, 0, 66, 64
2, 17039, Note_on_c, 0, 51, 64
2, 17065, Note_on_c, 0, 66, 0
2, 17069, Note_on_c, 0, 68, 64
2, 17095, Note_on_c, 0, 68, 0
2, 17099, Note_on_c, 0, 66, 64
2, 17125, Note_on_c, 0, 66, 0
2, 17129, Note_on_c, 0, 64, 64
2, 17144, Note_on_c, 0, 51, 0
2, 17144, Note_on_c, 0, 73, 0
2, 17155, Note_on_c, 0, 64, 0
2, 17159, Note_on_c, 0, 72, 64
2, 17159, Note_on_c, 0, 66, 64
2, 17159, Note_on_c, 0, 56, 64
2, 17185, Note_on_c, 0, 66, 0
2, 17189, Note_on_c, 0, 64, 64
2, 17215, Note_on_c, 0, 64, 0
2, 17219, Note_on_c, 0, 63, 64
2, 17245, Note_on_c, 0, 63, 0
2, 17249, Note_on_c, 0, 66, 64
2, 17264, Note_on_c, 0, 56, 0
2, 17264, Note_on_c, 0, 72, 0
2, 17275, Note_on_c, 0, 66, 0
2, 17279, Note_on_c, 0, 73, 64
2, 17279, Note_on_c, 0, 64, 64
2, 17279, Note_on_c, 0, 49, 64
2, 17305, Note_on_c, 0, 64, 0
2, 17309, Note_on_c, 0, 66, 64
2, 17335, Note_on_c, 0, 66, 0
2, 17339, Note_on_c, 0, 64, 64
2, 17365, Note_on_c, 0, 64, 0
2, 17369, Note_on_c, 0, 63, 64
2, 17384, Note_on_c, 0, 49, 0
2, 17384, Note_on_c, 0, 73, 0
2, 17395, Note_on_c, 0, 63, 0
2, 17399, Note_on_c, 0, 64, 64
2, 17425, Note_on_c, 0, 64, 0
2, 17429, Note_on_c, 0, 63, 64
2, 17455, Note_on_c, 0, 63, 0
2, 17459, Note_on_c, 0, 73, 64
2, 17459, Note_on_c, 0, 61, 64
2, 17485, Note_on_c, 0, 61, 0
2, 17489, Note_on_c, 0, 64, 64
2, 17511, Note_on_c, 0, 73, 0
2, 17515, Note_on_c, 0, 64, 0
2, 17519, Note_on_c, 0, 71, 64
2, 17519, Note_on_c, 0, 63, 64
2, 17545, Note_on_c, 0, 71, 0
2, 17549, Note_on_c, 0, 73, 64
2, 17571, Note_on_c, 0, 63, 0
2, 17575, Note_on_c, 0, 73, 0
2, 17579, Note_on_c, 0, 71, 64
2, 17579, Note_on_c, 0, 68, 64
2, 17605, Note_on_c, 0, 71, 0
2, 17609, Note_on_c, 0, 69, 64
2, 17631, Note_on_c, 0, 68, 0
2, 17635, Note_on_c, 0, 69, 0
2, 17639, Note_on_c, 0, 71, 64
2, 17639, Note_on_c, 0, 61, 64
2, 17665, Note_on_c, 0, 71, 0
2, 17669, Note_on_c, 0, 69, 64
2, 17691, Note_on_c, 0, 61, 0
2, 17695, Note_on_c, 0, 69, 0
2, 17699, Note_on_c, 0, 68, 64
2, 17699, Note_on_c, 0, 65, 64
2, 17725, Note_on_c, 0, 68, 0
2, 17729, Note_on_c, 0, 71, 64
2, 17751, Note_on_c, 0, 65, 0
2, 17755, Note_on_c, 0, 71, 0
2, 17759, Note_on_c, 0, 69, 64
2, 17759, Note_on_c, 0, 66, 64
2, 17785, Note_on_c, 0, 66, 0
2, 17785, Note_on_c, 0, 69, 0
2, 17789, Note_on_c, 0, 71, 64
2, 17789, Note_on_c, 0, 62, 64
2, 17815, Note_on_c, 0, 62, 0
2, 17815, Note_on_c, 0, 71, 0
2, 17819, Note_on_c, 0, 69, 64
2, 17819, Note_on_c, 0, 61, 64
2, 17845, Note_on_c, 0, 61, 0
2, 17845, Note_on_c, 0, 69, 0
2, 17849, Note_on_c, 0, 68, 64
2, 17849, Note_on_c, 0, 59, 64
2, 17875, Note_on_c, 0, 59, 0
2, 17875, Note_on_c, 0, 68, 0
2, 17879, Note_on_c, 0, 69, 64
2, 17879, Note_on_c, 0, 61, 64
2, 17905, Note_on_c, 0, 61, 0
2, 17905, Note_on_c, 0, 69, 0
2, 17909, Note_on_c, 0, 68, 64
2, 17909, Note_on_c, 0, 57, 64
2, 17935, Note_on_c, 0, 57, 0
2, 17935, Note_on_c, 0, 68, 0
2, 17939, Note_on_c, 0, 66, 64
2, 17939, Note_on_c, 0, 62, 64
2, 17939, Note_on_c, 0, 54, 64
2, 17965, Note_on_c, 0, 66, 0
2, 17969, Note_on_c, 0, 69, 64
2, 17991, Note_on_c, 0, 54, 0
2, 17995, Note_on_c, 0, 69, 0
2, 17999, Note_on_c, 0, 68, 64
2, 17999, Note_on_c, 0, 52, 64
2, 18025, Note_on_c, 0, 52, 0
2, 18029, Note_on_c, 0, 54, 64
2, 18051, Note_on_c, 0, 68, 0
2, 18051, Note_on_c, 0, 62, 0
2, 18055, Note_on_c, 0, 54, 0
2, 18059, Note_on_c, 0, 73, 64
2, 18059, Note_on_c, 0, 56, 64
2, 18059, Note_on_c, 0, 52, 64
2, 18085, Note_on_c, 0, 52, 0
2, 18089, Note_on_c, 0, 50, 64
2, 18111, Note_on_c, 0, 56, 0
2, 18111, Note_on_c, 0, 73, 0
2, 18115, Note_on_c, 0, 50, 0
2, 18119, Note_on_c, 0, 66, 64
2, 18119, Note_on_c, 0, 58, 64
2, 18119, Note_on_c, 0, 52, 64
2, 18145, Note_on_c, 0, 52, 0
2, 18149, Note_on_c, 0, 50, 64
2, 18171, Note_on_c, 0, 58, 0
2, 18171, Note_on_c, 0, 66, 0
2, 18175, Note_on_c, 0, 50, 0
2, 18179, Note_on_c, 0, 70, 64
2, 18179, Note_on_c, 0, 61, 64
2, 18179, Note_on_c, 0, 49, 64
2, 18205, Note_on_c, 0, 49, 0
2, 18209, Note_on_c, 0, 52, 64
2, 18231, Note_on_c, 0, 61, 0
2, 18231, Note_on_c, 0, 70, 0
2, 18235, Note_on_c, 0, 52, 0
2, 18239, Note_on_c, 0, 71, 64
2, 18239, Note_on_c, 0, 54, 64
2, 18239, Note_on_c, 0, 50, 64
2, 18265, Note_on_c, 0, 50, 0
2, 18269, Note_on_c, 0, 52, 64
2, 18291, Note_on_c, 0, 71, 0
2, 18295, Note_on_c, 0, 52, 0
2, 18299, Note_on_c, 0, 66, 64
2, 18299, Note_on_c, 0, 50, 64
2, 18325, Note_on_c, 0, 50, 0
2, 18329, Note_on_c, 0, 49, 64
2, 18344, Note_on_c, 0, 54, 0
2, 18351, Note_on_c, 0, 66, 0
2, 18355, Note_on_c, 0, 49, 0
2, 18359, Note_on_c, 0, 71, 64
2, 18359, Note_on_c, 0, 50, 64
2, 18385, Note_on_c, 0, 50, 0
2, 18389, Note_on_c, 0, 49, 64
2, 18415, Note_on_c, 0, 49, 0
2, 18419, Note_on_c, 0, 66, 64
2, 18419, Note_on_c, 0, 47, 64
2, 18445, Note_on_c, 0, 47, 0
2, 18449, Note_on_c, 0, 50, 64
2, 18471, Note_on_c, 0, 66, 0
2, 18475, Note_on_c, 0, 50, 0
2, 18479, Note_on_c, 0, 64, 64
2, 18479, Note_on_c, 0, 49, 64
2, 18505, Note_on_c, 0, 64, 0
2, 18509, Note_on_c, 0, 66, 64
2, 18531, Note_on_c, 0, 49, 0
2, 18535, Note_on_c, 0, 66, 0
2, 18539, Note_on_c, 0, 64, 64
2, 18539, Note_on_c, 0, 42, 64
2, 18565, Note_on_c, 0, 64, 0
2, 18569, Note_on_c, 0, 63, 64
2, 18584, Note_on_c, 0, 71, 0
2, 18591, Note_on_c, 0, 42, 0
2, 18595, Note_on_c, 0, 63, 0
2, 18599, Note_on_c, 0, 69, 64
2, 18599, Note_on_c, 0, 64, 64
2, 18599, Note_on_c, 0, 54, 64
2, 18625, Note_on_c, 0, 64, 0
2, 18629, Note_on_c, 0, 63, 64
2, 18651, Note_on_c, 0, 54, 0
2, 18655, Note_on_c, 0, 63, 0
2, 18659, Note_on_c, 0, 61, 64
2, 18659, Note_on_c, 0, 57, 64
2, 18685, Note_on_c, 0, 61, 0
2, 18689, Note_on_c, 0, 64, 64
2, 18711, Note_on_c, 0, 57, 0
2, 18715, Note_on_c, 0, 64, 0
2, 18719, Note_on_c, 0, 63, 64
2, 18719, Note_on_c, 0, 47, 64
2, 18745, Note_on_c, 0, 63, 0
2, 18749, Note_on_c, 0, 64, 64
2, 18771, Note_on_c, 0, 47, 0
2, 18775, Note_on_c, 0, 64, 0
2, 18779, Note_on_c, 0, 63, 64
2, 18779, Note_on_c, 0, 59, 64
2, 18805, Note_on_c, 0, 63, 0
2, 18809, Note_on_c, 0, 61, 64
2, 18824, Note_on_c, 0, 69, 0
2, 18831, Note_on_c, 0, 59, 0
2, 18835, Note_on_c, 0, 61, 0
2, 18839, Note_on_c, 0, 68, 64
2, 18839, Note_on_c, 0, 63, 64
2, 18839, Note_on_c, 0, 52, 64
2, 18865, Note_on_c, 0, 63, 0
2, 18869, Note_on_c, 0, 61, 64
2, 18891, Note_on_c, 0, 52, 0
2, 18895, Note_on_c, 0, 61, 0
2, 18899, Note_on_c, 0, 60, 64
2, 18899, Note_on_c, 0, 56, 64
2, 18925, Note_on_c, 0, 60, 0
2, 18929, Note_on_c, 0, 63, 64
2, 18951, Note_on_c, 0, 56, 0
2, 18955, Note_on_c, 0, 63, 0
2, 18959, Note_on_c, 0, 61, 64
2, 18959, Note_on_c, 0, 45, 64
2, 18985, Note_on_c, 0, 61, 0
2, 18989, Note_on_c, 0, 63, 64
2, 19011, Note_on_c, 0, 45, 0
2, 19015, Note_on_c, 0, 63, 0
2, 19019, Note_on_c, 0, 61, 64
2, 19019, Note_on_c, 0, 44, 64
2, 19045, Note_on_c, 0, 61, 0
2, 19049, Note_on_c, 0, 60, 64
2, 19064, Note_on_c, 0, 68, 0
2, 19071, Note_on_c, 0, 44, 0
2, 19075, Note_on_c, 0, 60, 0
2, 19079, Note_on_c, 0, 66, 64
2, 19079, Note_on_c, 0, 61, 64
2, 19079, Note_on_c, 0, 45, 64
2, 19105, Note_on_c, 0, 61, 0
2, 19109, Note_on_c, 0, 64, 64
2, 19131, Note_on_c, 0, 45, 0
2, 19135, Note_on_c, 0, 64, 0
2, 19139, Note_on_c, 0, 63, 64
2, 19139, Note_on_c, 0, 57, 64
2, 19165, Note_on_c, 0, 63, 0
2, 19169, Note_on_c, 0, 61, 64
2, 19184, Note_on_c, 0, 66, 0
2, 19191, Note_on_c, 0, 57, 0
2, 19195, Note_on_c, 0, 61, 0
2, 19199, Note_on_c, 0, 68, 64
2, 19199, Note_on_c, 0, 60, 64
2, 19199, Note_on_c, 0, 56, 64
2, 19225, Note_on_c, 0, 56, 0
2, 19229, Note_on_c, 0, 57, 64
2, 19251, Note_on_c, 0, 60, 0
2, 19251, Note_on_c, 0, 68, 0
2, 19255, Note_on_c, 0, 57, 0
2, 19259, Note_on_c, 0, 72, 64
2, 19259, Note_on_c, 0, 63, 64
2, 19259, Note_on_c, 0, 56, 64
2, 19285, Note_on_c, 0, 56, 0
2, 19289, Note_on_c, 0, 54, 64
2, 19311, Note_on_c, 0, 63, 0
2, 19311, Note_on_c, 0, 72, 0
2, 19315, Note_on_c, 0, 54, 0
2, 19319, Note_on_c, 0, 73, 64
2, 19319, Note_on_c, 0, 64, 64
2, 19319, Note_on_c, 0, 56, 64
2, 19345, Note_on_c, 0, 56, 0
2, 19349, Note_on_c, 0, 54, 64
2, 19371, Note_on_c, 0, 64, 0
2, 19371, Note_on_c, 0, 73, 0
2, 19375, Note_on_c, 0, 54, 0
2, 19379, Note_on_c, 0, 76, 64
2, 19379, Note_on_c, 0, 68, 64
2, 19379, Note_on_c, 0, 52, 64
2, 19405, Note_on_c, 0, 52, 0
2, 19409, Note_on_c, 0, 56, 64
2, 19431, Note_on_c, 0, 68, 0
2, 19431, Note_on_c, 0, 76, 0
2, 19435, Note_on_c, 0, 56, 0
2, 19439, Note_on_c, 0, 54, 64
2, 19465, Note_on_c, 0, 54, 0
2, 19469, Note_on_c, 0, 56, 64
2, 19495, Note_on_c, 0, 56, 0
2, 19499, Note_on_c, 0, 76, 64
2, 19499, Note_on_c, 0, 68, 64
2, 19499, Note_on_c, 0, 54, 64
2, 19525, Note_on_c, 0, 54, 0
2, 19529, Note_on_c, 0, 52, 64
2, 19551, Note_on_c, 0, 68, 0
2, 19551, Note_on_c, 0, 76, 0
2, 19555, Note_on_c, 0, 52, 0
2, 19559, Note_on_c, 0, 75, 64
2, 19559, Note_on_c, 0, 66, 64
2, 19559, Note_on_c, 0, 54, 64
2, 19585, Note_on_c, 0, 54, 0
2, 19589, Note_on_c, 0, 52, 64
2, 19611, Note_on_c, 0, 66, 0
2, 19611, Note_on_c, 0, 75, 0
2, 19615, Note_on_c, 0, 52, 0
2, 19619, Note_on_c, 0, 78, 64
2, 19619, Note_on_c, 0, 69, 64
2, 19619, Note_on_c, 0, 51, 64
2, 19645, Note_on_c, 0, 51, 0
2, 19649, Note_on_c, 0, 54, 64
2, 19675, Note_on_c, 0, 54, 0
2, 19679, Note_on_c, 0, 52, 64
2, 19705, Note_on_c, 0, 52, 0
2, 19709, Note_on_c, 0, 54, 64
2, 19731, Note_on_c, 0, 69, 0
2, 19731, Note_on_c, 0, 78, 0
2, 19735, Note_on_c, 0, 54, 0
2, 19739, Note_on_c, 0, 72, 64
2, 19739, Note_on_c, 0, 68, 64
2, 19739, Note_on_c, 0, 52, 64
2, 19765, Note_on_c, 0, 52, 0
2, 19765, Note_on_c, 0, 68, 0
2, 19769, Note_on_c, 0, 66, 64
2, 19769, Note_on_c, 0, 51, 64
2, 19791, Note_on_c, 0, 72, 0
2, 19795, Note_on_c, 0, 51, 0
2, 19795, Note_on_c, 0, 66, 0
2, 19799, Note_on_c, 0, 73, 64
2, 19799, Note_on_c, 0, 68, 64
2, 19799, Note_on_c, 0, 52, 64
2, 19825, Note_on_c, 0, 52, 0
2, 19829, Note_on_c, 0, 51, 64
2, 19851, Note_on_c, 0, 68, 0
2, 19855, Note_on_c, 0, 51, 0
2, 19859, Note_on_c, 0, 70, 64
2, 19859, Note_on_c, 0, 49, 64
2, 19885, Note_on_c, 0, 49, 0
2, 19889, Note_on_c, 0, 52, 64
2, 19911, Note_on_c, 0, 70, 0
2, 19915, Note_on_c, 0, 52, 0
2, 19919, Note_on_c, 0, 63, 64
2, 19919, Note_on_c, 0, 43, 64
2, 19945, Note_on_c, 0, 63, 0
2, 19949, Note_on_c, 0, 64, 64
2, 19971, Note_on_c, 0, 43, 0
2, 19971, Note_on_c, 0, 73, 0
2, 19975, Note_on_c, 0, 64, 0
2, 19979, Note_on_c, 0, 67, 64
2, 19979, Note_on_c, 0, 63, 64
2, 19979, Note_on_c, 0, 46, 64
2, 20005, Note_on_c, 0, 63, 0
2, 20009, Note_on_c, 0, 61, 64
2, 20031, Note_on_c, 0, 46, 0
2, 20031, Note_on_c, 0, 67, 0
2, 20035, Note_on_c, 0, 61, 0
2, 20039, Note_on_c, 0, 68, 64
2, 20039, Note_on_c, 0, 63, 64
2, 20039, Note_on_c, 0, 47, 64
2, 20065, Note_on_c, 0, 63, 0
2, 20069, Note_on_c, 0, 61, 64
2, 20091, Note_on_c, 0, 47, 0
2, 20095, Note_on_c, 0, 61, 0
2, 20099, Note_on_c, 0, 59, 64
2, 20099, Note_on_c, 0, 52, 64
2, 20125, Note_on_c, 0, 59, 0
2, 20129, Note_on_c, 0, 63, 64
2, 20151, Note_on_c, 0, 52, 0
2, 20155, Note_on_c, 0, 63, 0
2, 20159, Note_on_c, 0, 61, 64
2, 20159, Note_on_c, 0, 46, 64
2, 20185, Note_on_c, 0, 61, 0
2, 20189, Note_on_c, 0, 63, 64
2, 20211, Note_on_c, 0, 46, 0
2, 20211, Note_on_c, 0, 68, 0
2, 20215, Note_on_c, 0, 63, 0
2, 20219, Note_on_c, 0, 70, 64
2, 20219, Note_on_c, 0, 61, 64
2, 20219, Note_on_c, 0, 49, 64
2, 20245, Note_on_c, 0, 61, 0
2, 20249, Note_on_c, 0, 59, 64
2, 20271, Note_on_c, 0, 49, 0
2, 20271, Note_on_c, 0, 70, 0
2, 20275, Note_on_c, 0, 59, 0
2, 20279, Note_on_c, 0, 63, 64
2, 20279, Note_on_c, 0, 61, 64
2, 20279, Note_on_c, 0, 51, 64
2, 20305, Note_on_c, 0, 61, 0
2, 20309, Note_on_c, 0, 59, 64
2, 20331, Note_on_c, 0, 51, 0
2, 20331, Note_on_c, 0, 63, 0
2, 20335, Note_on_c, 0, 59, 0
2, 20339, Note_on_c, 0, 67, 64
2, 20339, Note_on_c, 0, 58, 64
2, 20339, Note_on_c, 0, 39, 64
2, 20365, Note_on_c, 0, 58, 0
2, 20369, Note_on_c, 0, 61, 64
2, 20391, Note_on_c, 0, 39, 0
2, 20391, Note_on_c, 0, 67, 0
2, 20395, Note_on_c, 0, 61, 0
2, 20399, Note_on_c, 0, 68, 64
2, 20399, Note_on_c, 0, 59, 64
2, 20399, Note_on_c, 0, 44, 64
2, 20425, Note_on_c, 0, 59, 0
2, 20429, Note_on_c, 0, 61, 64
2, 20451, Note_on_c, 0, 44, 0
2, 20455, Note_on_c, 0, 61, 0
2, 20459, Note_on_c, 0, 63, 64
2, 20459, Note_on_c, 0, 56, 64
2, 20485, Note_on_c, 0, 56, 0
2, 20485, Note_on_c, 0, 63, 0
2, 20489, Note_on_c, 0, 59, 64
2, 20489, Note_on_c, 0, 54, 64
2, 20504, Note_on_c, 0, 68, 0
2, 20515, Note_on_c, 0, 54, 0
2, 20515, Note_on_c, 0, 59, 0
2, 20519, Note_on_c, 0, 64, 64
2, 20519, Note_on_c, 0, 56, 64
2, 20549, Note_on_c, 0, 69, 64
2, 20571, Note_on_c, 0, 56, 0
2, 20575, Note_on_c, 0, 69, 0
2, 20579, Note_on_c, 0, 71, 64
2, 20579, Note_on_c, 0, 49, 64
2, 20605, Note_on_c, 0, 71, 0
2, 20609, Note_on_c, 0, 68, 64
2, 20631, Note_on_c, 0, 49, 0
2, 20635, Note_on_c, 0, 68, 0
2, 20639, Note_on_c, 0, 69, 64
2, 20639, Note_on_c, 0, 42, 64
2, 20665, Note_on_c, 0, 69, 0
2, 20669, Note_on_c, 0, 71, 64
2, 20691, Note_on_c, 0, 42, 0
2, 20695, Note_on_c, 0, 71, 0
2, 20699, Note_on_c, 0, 69, 64
2, 20699, Note_on_c, 0, 54, 64
2, 20725, Note_on_c, 0, 54, 0
2, 20725, Note_on_c, 0, 69, 0
2, 20729, Note_on_c, 0, 68, 64
2, 20729, Note_on_c, 0, 52, 64
2, 20744, Note_on_c, 0, 64, 0
2, 20755, Note_on_c, 0, 52, 0
2, 20755, Note_on_c, 0, 68, 0
2, 20759, Note_on_c, 0, 69, 64
2, 20759, Note_on_c, 0, 63, 64
2, 20759, Note_on_c, 0, 54, 64
2, 20785, Note_on_c, 0, 69, 0
2, 20789, Note_on_c, 0, 68, 64
2, 20811, Note_on_c, 0, 54, 0
2, 20815, Note_on_c, 0, 68, 0
2, 20819, Note_on_c, 0, 66, 64
2, 20819, Note_on_c, 0, 47, 64
2, 20845, Note_on_c, 0, 66, 0
2, 20849, Note_on_c, 0, 69, 64
2, 20864, Note_on_c, 0, 63, 0
2, 20871, Note_on_c, 0, 47, 0
2, 20875, Note_on_c, 0, 69, 0
2, 20879, Note_on_c, 0, 68, 64
2, 20879, Note_on_c, 0, 64, 64
2, 20879, Note_on_c, 0, 52, 64
2, 20905, Note_on_c, 0, 52, 0
2, 20905, Note_on_c, 0, 68, 0
2, 20909, Note_on_c, 0, 69, 64
2, 20909, Note_on_c, 0, 54, 64
2, 20935, Note_on_c, 0, 54, 0
2, 20935, Note_on_c, 0, 69, 0
2, 20939, Note_on_c, 0, 71, 64
2, 20939, Note_on_c, 0, 56, 64
2, 20965, Note_on_c, 0, 56, 0
2, 20965, Note_on_c, 0, 71, 0
2, 20969, Note_on_c, 0, 68, 64
2, 20969, Note_on_c, 0, 52, 64
2, 20984, Note_on_c, 0, 64, 0
2, 20995, Note_on_c, 0, 52, 0
2, 20995, Note_on_c, 0, 68, 0
2, 20999, Note_on_c, 0, 73, 64
2, 20999, Note_on_c, 0, 57, 64
2, 21025, Note_on_c, 0, 57, 0
2, 21029, Note_on_c, 0, 71, 64
2, 21029, Note_on_c, 0, 59, 64
2, 21055, Note_on_c, 0, 59, 0
2, 21055, Note_on_c, 0, 71, 0
2, 21059, Note_on_c, 0, 69, 64
2, 21059, Note_on_c, 0, 61, 64
2, 21085, Note_on_c, 0, 61, 0
2, 21085, Note_on_c, 0, 69, 0
2, 21089, Note_on_c, 0, 68, 64
2, 21089, Note_on_c, 0, 57, 64
2, 21115, Note_on_c, 0, 57, 0
2, 21115, Note_on_c, 0, 68, 0
2, 21119, Note_on_c, 0, 66, 64
2, 21119, Note_on_c, 0, 62, 64
2, 21145, Note_on_c, 0, 62, 0
2, 21149, Note_on_c, 0, 64, 64
2, 21171, Note_on_c, 0, 73, 0
2, 21175, Note_on_c, 0, 64, 0
2, 21179, Note_on_c, 0, 73, 64
2, 21179, Note_on_c, 0, 62, 64
2, 21205, Note_on_c, 0, 62, 0
2, 21209, Note_on_c, 0, 61, 64
2, 21231, Note_on_c, 0, 73, 0
2, 21235, Note_on_c, 0, 61, 0
2, 21239, Note_on_c, 0, 71, 64
2, 21239, Note_on_c, 0, 62, 64
2, 21265, Note_on_c, 0, 62, 0
2, 21269, Note_on_c, 0, 61, 64
2, 21284, Note_on_c, 0, 66, 0
2, 21295, Note_on_c, 0, 61, 0
2, 21299, Note_on_c, 0, 66, 64
2, 21299, Note_on_c, 0, 59, 64
2, 21325, Note_on_c, 0, 59, 0
2, 21329, Note_on_c, 0, 62, 64
2, 21351, Note_on_c, 0, 66, 0
2, 21355, Note_on_c, 0, 62, 0
2, 21359, Note_on_c, 0, 64, 64
2, 21359, Note_on_c, 0, 61, 64
2, 21385, Note_on_c, 0, 61, 0
2, 21385, Note_on_c, 0, 71, 0
2, 21389, Note_on_c, 0, 71, 64
2, 21389, Note_on_c, 0, 62, 64
2, 21415, Note_on_c, 0, 62, 0
2, 21415, Note_on_c, 0, 71, 0
2, 21419, Note_on_c, 0, 69, 64
2, 21419, Note_on_c, 0, 61, 64
2, 21445, Note_on_c, 0, 61, 0
2, 21445, Note_on_c, 0, 69, 0
2, 21449, Note_on_c, 0, 68, 64
2, 21449, Note_on_c, 0, 59, 64
2, 21464, Note_on_c, 0, 64, 0
2, 21475, Note_on_c, 0, 59, 0
2, 21475, Note_on_c, 0, 68, 0
2, 21479, Note_on_c, 0, 69, 64
2, 21479, Note_on_c, 0, 61, 64
2, 21505, Note_on_c, 0, 61, 0
2, 21505, Note_on_c, 0, 69, 0
2, 21509, Note_on_c, 0, 71, 64
2, 21509, Note_on_c, 0, 59, 64
2, 21535, Note_on_c, 0, 59, 0
2, 21535, Note_on_c, 0, 71, 0
2, 21539, Note_on_c, 0, 73, 64
2, 21539, Note_on_c, 0, 57, 64
2, 21565, Note_on_c, 0, 57, 0
2, 21565, Note_on_c, 0, 73, 0
2, 21569, Note_on_c, 0, 69, 64
2, 21569, Note_on_c, 0, 61, 64
2, 21595, Note_on_c, 0, 61, 0
2, 21595, Note_on_c, 0, 69, 0
2, 21599, Note_on_c, 0, 74, 64
2, 21599, Note_on_c, 0, 59, 64
2, 21625, Note_on_c, 0, 74, 0
2, 21629, Note_on_c, 0, 76, 64
2, 21655, Note_on_c, 0, 76, 0
2, 21659, Note_on_c, 0, 74, 64
2, 21659, Note_on_c, 0, 69, 64
2, 21685, Note_on_c, 0, 74, 0
2, 21689, Note_on_c, 0, 73, 64
2, 21711, Note_on_c, 0, 69, 0
2, 21715, Note_on_c, 0, 73, 0
2, 21719, Note_on_c, 0, 74, 64
2, 21719, Note_on_c, 0, 68, 64
2, 21745, Note_on_c, 0, 74, 0
2, 21749, Note_on_c, 0, 73, 64
2, 21764, Note_on_c, 0, 59, 0
2, 21775, Note_on_c, 0, 73, 0
2, 21779, Note_on_c, 0, 71, 64
2, 21779, Note_on_c, 0, 64, 64
2, 21805, Note_on_c, 0, 71, 0
2, 21809, Note_on_c, 0, 74, 64
2, 21831, Note_on_c, 0, 64, 0
2, 21835, Note_on_c, 0, 74, 0
2, 21839, Note_on_c, 0, 73, 64
2, 21839, Note_on_c, 0, 57, 64
2, 21865, Note_on_c, 0, 73, 0
2, 21869, Note_on_c, 0, 74, 64
2, 21891, Note_on_c, 0, 68, 0
2, 21895, Note_on_c, 0, 74, 0
2, 21899, Note_on_c, 0, 73, 64
2, 21899, Note_on_c, 0, 61, 64
2, 21925, Note_on_c, 0, 73, 0
2, 21929, Note_on_c, 0, 71, 64
2, 21951, Note_on_c, 0, 61, 0
2, 21955, Note_on_c, 0, 71, 0
2, 21959, Note_on_c, 0, 73, 64
2, 21959, Note_on_c, 0, 66, 64
2, 21985, Note_on_c, 0, 73, 0
2, 21989, Note_on_c, 0, 71, 64
2, 22004, Note_on_c, 0, 57, 0
2, 22015, Note_on_c, 0, 71, 0
2, 22019, Note_on_c, 0, 69, 64
2, 22019, Note_on_c, 0, 62, 64
2, 22045, Note_on_c, 0, 69, 0
2, 22049, Note_on_c, 0, 73, 64
2, 22071, Note_on_c, 0, 62, 0
2, 22075, Note_on_c, 0, 73, 0
2, 22079, Note_on_c, 0, 71, 64
2, 22079, Note_on_c, 0, 56, 64
2, 22105, Note_on_c, 0, 66, 0
2, 22109, Note_on_c, 0, 69, 64
2, 22131, Note_on_c, 0, 56, 0
2, 22135, Note_on_c, 0, 69, 0
2, 22139, Note_on_c, 0, 68, 64
2, 22139, Note_on_c, 0, 59, 64
2, 22165, Note_on_c, 0, 68, 0
2, 22169, Note_on_c, 0, 66, 64
2, 22191, Note_on_c, 0, 59, 0
2, 22195, Note_on_c, 0, 66, 0
2, 22199, Note_on_c, 0, 68, 64
2, 22199, Note_on_c, 0, 53, 64
2, 22225, Note_on_c, 0, 68, 0
2, 22229, Note_on_c, 0, 66, 64
2, 22251, Note_on_c, 0, 53, 0
2, 22255, Note_on_c, 0, 66, 0
2, 22259, Note_on_c, 0, 65, 64
2, 22259, Note_on_c, 0, 49, 64
2, 22285, Note_on_c, 0, 65, 0
2, 22289, Note_on_c, 0, 68, 64
2, 22311, Note_on_c, 0, 49, 0
2, 22315, Note_on_c, 0, 68, 0
2, 22319, Note_on_c, 0, 66, 64
2, 22319, Note_on_c, 0, 54, 64
2, 22345, Note_on_c, 0, 71, 0
2, 22349, Note_on_c, 0, 68, 64
2, 22371, Note_on_c, 0, 66, 0
2, 22375, Note_on_c, 0, 68, 0
2, 22379, Note_on_c, 0, 70, 64
2, 22379, Note_on_c, 0, 61, 64
2, 22405, Note_on_c, 0, 70, 0
2, 22409, Note_on_c, 0, 71, 64
2, 22431, Note_on_c, 0, 61, 0
2, 22435, Note_on_c, 0, 71, 0
2, 22439, Note_on_c, 0, 70, 64
2, 22439, Note_on_c, 0, 62, 64
2, 22465, Note_on_c, 0, 70, 0
2, 22469, Note_on_c, 0, 71, 64
2, 22484, Note_on_c, 0, 54, 0
2, 22495, Note_on_c, 0, 71, 0
2, 22499, Note_on_c, 0, 73, 64
2, 22499, Note_on_c, 0, 54, 64
2, 22525, Note_on_c, 0, 73, 0
2, 22529, Note_on_c, 0, 70, 64
2, 22551, Note_on_c, 0, 54, 0
2, 22555, Note_on_c, 0, 70, 0
2, 22559, Note_on_c, 0, 71, 64
2, 22559, Note_on_c, 0, 55, 64
2, 22585, Note_on_c, 0, 71, 0
2, 22589, Note_on_c, 0, 70, 64
2, 22611, Note_on_c, 0, 62, 0
2, 22615, Note_on_c, 0, 70, 0
2, 22619, Note_on_c, 0, 71, 64
2, 22619, Note_on_c, 0, 63, 64
2, 22645, Note_on_c, 0, 71, 0
2, 22649, Note_on_c, 0, 73, 64
2, 22671, Note_on_c, 0, 63, 0
2, 22675, Note_on_c, 0, 73, 0
2, 22679, Note_on_c, 0, 71, 64
2, 22679, Note_on_c, 0, 64, 64
2, 22705, Note_on_c, 0, 71, 0
2, 22709, Note_on_c, 0, 73, 64
2, 22724, Note_on_c, 0, 55, 0
2, 22735, Note_on_c, 0, 73, 0
2, 22739, Note_on_c, 0, 74, 64
2, 22739, Note_on_c, 0, 56, 64
2, 22765, Note_on_c, 0, 74, 0
2, 22769, Note_on_c, 0, 71, 64
2, 22791, Note_on_c, 0, 56, 0
2, 22795, Note_on_c, 0, 71, 0
2, 22799, Note_on_c, 0, 73, 64
2, 22799, Note_on_c, 0, 57, 64
2, 22825, Note_on_c, 0, 73, 0
2, 22829, Note_on_c, 0, 71, 64
2, 22851, Note_on_c, 0, 64, 0
2, 22855, Note_on_c, 0, 71, 0
2, 22859, Note_on_c, 0, 73, 64
2, 22859, Note_on_c, 0, 65, 64
2, 22885, Note_on_c, 0, 73, 0
2, 22889, Note_on_c, 0, 74, 64
2, 22911, Note_on_c, 0, 65, 0
2, 22915, Note_on_c, 0, 74, 0
2, 22919, Note_on_c, 0, 73, 64
2, 22919, Note_on_c, 0, 66, 64
2, 22945, Note_on_c, 0, 73, 0
2, 22949, Note_on_c, 0, 74, 64
2, 22964, Note_on_c, 0, 57, 0
2, 22975, Note_on_c, 0, 74, 0
2, 22979, Note_on_c, 0, 76, 64
2, 22979, Note_on_c, 0, 58, 64
2, 23005, Note_on_c, 0, 76, 0
2, 23009, Note_on_c, 0, 73, 64
2, 23031, Note_on_c, 0, 58, 0
2, 23035, Note_on_c, 0, 73, 0
2, 23039, Note_on_c, 0, 74, 64
2, 23039, Note_on_c, 0, 59, 64
2, 23065, Note_on_c, 0, 74, 0
2, 23069, Note_on_c, 0, 76, 64
2, 23091, Note_on_c, 0, 59, 0
2, 23095, Note_on_c, 0, 76, 0
2, 23099, Note_on_c, 0, 74, 64
2, 23099, Note_on_c, 0, 54, 64
2, 23125, Note_on_c, 0, 74, 0
2, 23129, Note_on_c, 0, 73, 64
2, 23151, Note_on_c, 0, 54, 0
2, 23155, Note_on_c, 0, 73, 0
2, 23159, Note_on_c, 0, 74, 64
2, 23159, Note_on_c, 0, 47, 64
2, 23185, Note_on_c, 0, 74, 0
2, 23189, Note_on_c, 0, 73, 64
2, 23211, Note_on_c, 0, 47, 0
2, 23215, Note_on_c, 0, 73, 0
2, 23219, Note_on_c, 0, 71, 64
2, 23219, Note_on_c, 0, 50, 64
2, 23245, Note_on_c, 0, 71, 0
2, 23249, Note_on_c, 0, 74, 64
2, 23271, Note_on_c, 0, 50, 0
2, 23275, Note_on_c, 0, 74, 0
2, 23279, Note_on_c, 0, 67, 64
2, 23279, Note_on_c, 0, 52, 64
2, 23305, Note_on_c, 0, 66, 0
2, 23309, Note_on_c, 0, 66, 64
2, 23331, Note_on_c, 0, 52, 0
2, 23335, Note_on_c, 0, 66, 0
2, 23339, Note_on_c, 0, 64, 64
2, 23339, Note_on_c, 0, 54, 64
2, 23365, Note_on_c, 0, 64, 0
2, 23369, Note_on_c, 0, 62, 64
2, 23391, Note_on_c, 0, 54, 0
2, 23395, Note_on_c, 0, 62, 0
2, 23399, Note_on_c, 0, 64, 64
2, 23399, Note_on_c, 0, 55, 64
2, 23425, Note_on_c, 0, 64, 0
2, 23429, Note_on_c, 0, 62, 64
2, 23451, Note_on_c, 0, 55, 0
2, 23455, Note_on_c, 0, 62, 0
2, 23459, Note_on_c, 0, 61, 64
2, 23459, Note_on_c, 0, 52, 64
2, 23485, Note_on_c, 0, 61, 0
2, 23489, Note_on_c, 0, 64, 64
2, 23511, Note_on_c, 0, 52, 0
2, 23515, Note_on_c, 0, 64, 0
2, 23519, Note_on_c, 0, 57, 64
2, 23519, Note_on_c, 0, 49, 64
2, 23545, Note_on_c, 0, 67, 0
2, 23549, Note_on_c, 0, 67, 64
2, 23571, Note_on_c, 0, 49, 0
2, 23575, Note_on_c, 0, 67, 0
2, 23579, Note_on_c, 0, 66, 64
2, 23579, Note_on_c, 0, 45, 64
2, 23605, Note_on_c, 0, 66, 0
2, 23609, Note_on_c, 0, 64, 64
2, 23631, Note_on_c, 0, 45, 0
2, 23635, Note_on_c, 0, 64, 0
2, 23639, Note_on_c, 0, 66, 64
2, 23639, Note_on_c, 0, 50, 64
2, 23665, Note_on_c, 0, 66, 0
2, 23669, Note_on_c, 0, 64, 64
2, 23691, Note_on_c, 0, 50, 0
2, 23695, Note_on_c, 0, 64, 0
2, 23699, Note_on_c, 0, 62, 64
2, 23699, Note_on_c, 0, 42, 64
2, 23725, Note_on_c, 0, 62, 0
2, 23729, Note_on_c, 0, 66, 64
2, 23751, Note_on_c, 0, 42, 0
2, 23755, Note_on_c, 0, 66, 0
2, 23759, Note_on_c, 0, 59, 64
2, 23759, Note_on_c, 0, 43, 64
2, 23785, Note_on_c, 0, 57, 0
2, 23789, Note_on_c, 0, 57, 64
2, 23811, Note_on_c, 0, 43, 0
2, 23815, Note_on_c, 0, 57, 0
2, 23819, Note_on_c, 0, 55, 64
2, 23819, Note_on_c, 0, 47, 64
2, 23845, Note_on_c, 0, 55, 0
2, 23849, Note_on_c, 0, 54, 64
2, 23864, Note_on_c, 0, 59, 0
2, 23871, Note_on_c, 0, 47, 0
2, 23875, Note_on_c, 0, 54, 0
2, 23879, Note_on_c, 0, 61, 64
2, 23879, Note_on_c, 0, 55, 64
2, 23879, Note_on_c, 0, 40, 64
2, 23905, Note_on_c, 0, 55, 0
2, 23909, Note_on_c, 0, 54, 64
2, 23931, Note_on_c, 0, 40, 0
2, 23935, Note_on_c, 0, 54, 0
2, 23939, Note_on_c, 0, 52, 64
2, 23939, Note_on_c, 0, 45, 64
2, 23965, Note_on_c, 0, 52, 0
2, 23969, Note_on_c, 0, 55, 64
2, 23984, Note_on_c, 0, 61, 0
2, 23991, Note_on_c, 0, 45, 0
2, 23995, Note_on_c, 0, 55, 0
2, 23999, Note_on_c, 0, 62, 64
2, 23999, Note_on_c, 0, 54, 64
2, 23999, Note_on_c, 0, 50, 64
2, 24025, Note_on_c, 0, 50, 0
2, 24029, Note_on_c, 0, 49, 64
2, 24051, Note_on_c, 0, 54, 0
2, 24051, Note_on_c, 0, 62, 0
2, 24055, Note_on_c, 0, 49, 0
2, 24059, Note_on_c, 0, 66, 64
2, 24059, Note_on_c, 0, 50, 64
2, 24085, Note_on_c, 0, 50, 0
2, 24089, Note_on_c, 0, 52, 64
2, 24111, Note_on_c, 0, 66, 0
2, 24115, Note_on_c, 0, 52, 0
2, 24119, Note_on_c, 0, 71, 64
2, 24119, Note_on_c, 0, 50, 64
2, 24145, Note_on_c, 0, 50, 0
2, 24149, Note_on_c, 0, 55, 64
2, 24175, Note_on_c, 0, 55, 0
2, 24179, Note_on_c, 0, 59, 64
2, 24179, Note_on_c, 0, 54, 64
2, 24205, Note_on_c, 0, 54, 0
2, 24209, Note_on_c, 0, 55, 64
2, 24231, Note_on_c, 0, 59, 0
2, 24235, Note_on_c, 0, 55, 0
2, 24239, Note_on_c, 0, 64, 64
2, 24239, Note_on_c, 0, 49, 64
2, 24265, Note_on_c, 0, 49, 0
2, 24269, Note_on_c, 0, 47, 64
2, 24291, Note_on_c, 0, 71, 0
2, 24295, Note_on_c, 0, 47, 0
2, 24299, Note_on_c, 0, 70, 64
2, 24299, Note_on_c, 0, 49, 64
2, 24325, Note_on_c, 0, 49, 0
2, 24325, Note_on_c, 0, 70, 0
2, 24329, Note_on_c, 0, 68, 64
2, 24329, Note_on_c, 0, 50, 64
2, 24344, Note_on_c, 0, 64, 0
2, 24355, Note_on_c, 0, 50, 0
2, 24355, Note_on_c, 0, 68, 0
2, 24359, Note_on_c, 0, 70, 64
2, 24359, Note_on_c, 0, 49, 64
2, 24385, Note_on_c, 0, 49, 0
2, 24389, Note_on_c, 0, 54, 64
2, 24415, Note_on_c, 0, 54, 0
2, 24419, Note_on_c, 0, 66, 64
2, 24419, Note_on_c, 0, 52, 64
2, 24445, Note_on_c, 0, 52, 0
2, 24449, Note_on_c, 0, 54, 64
2, 24464, Note_on_c, 0, 70, 0
2, 24471, Note_on_c, 0, 66, 0
2, 24475, Note_on_c, 0, 54, 0
2, 24479, Note_on_c, 0, 71, 64
2, 24479, Note_on_c, 0, 62, 64
2, 24479, Note_on_c, 0, 47, 64
2, 24505, Note_on_c, 0, 47, 0
2, 24509, Note_on_c, 0, 49, 64
2, 24531, Note_on_c, 0, 62, 0
2, 24535, Note_on_c, 0, 49, 0
2, 24539, Note_on_c, 0, 59, 64
2, 24539, Note_on_c, 0, 50, 64
2, 24565, Note_on_c, 0, 50, 0
2, 24569, Note_on_c, 0, 47, 64
2, 24591, Note_on_c, 0, 59, 0
2, 24595, Note_on_c, 0, 47, 0
2, 24599, Note_on_c, 0, 67, 64
2, 24599, Note_on_c, 0, 52, 64
2, 24625, Note_on_c, 0, 52, 0
2, 24629, Note_on_c, 0, 50, 64
2, 24644, Note_on_c, 0, 71, 0
2, 24655, Note_on_c, 0, 50, 0
2, 24659, Note_on_c, 0, 76, 64
2, 24659, Note_on_c, 0, 49, 64
2, 24685, Note_on_c, 0, 49, 0
2, 24689, Note_on_c, 0, 47, 64
2, 24711, Note_on_c, 0, 76, 0
2, 24715, Note_on_c, 0, 47, 0
2, 24719, Note_on_c, 0, 69, 64
2, 24719, Note_on_c, 0, 49, 64
2, 24745, Note_on_c, 0, 49, 0
2, 24749, Note_on_c, 0, 52, 64
2, 24771, Note_on_c, 0, 67, 0
2, 24775, Note_on_c, 0, 52, 0
2, 24779, Note_on_c, 0, 66, 64
2, 24779, Note_on_c, 0, 50, 64
2, 24805, Note_on_c, 0, 50, 0
2, 24805, Note_on_c, 0, 66, 0
2, 24809, Note_on_c, 0, 64, 64
2, 24809, Note_on_c, 0, 49, 64
2, 24835, Note_on_c, 0, 49, 0
2, 24835, Note_on_c, 0, 64, 0
2, 24839, Note_on_c, 0, 66, 64
2, 24839, Note_on_c, 0, 50, 64
2, 24865, Note_on_c, 0, 50, 0
2, 24869, Note_on_c, 0, 52, 64
2, 24884, Note_on_c, 0, 69, 0
2, 24895, Note_on_c, 0, 52, 0
2, 24899, Note_on_c, 0, 74, 64
2, 24899, Note_on_c, 0, 54, 64
2, 24925, Note_on_c, 0, 54, 0
2, 24929, Note_on_c, 0, 50, 64
2, 24951, Note_on_c, 0, 74, 0
2, 24955, Note_on_c, 0, 50, 0
2, 24959, Note_on_c, 0, 67, 64
2, 24959, Note_on_c, 0, 52, 64
2, 24985, Note_on_c, 0, 52, 0
2, 24989, Note_on_c, 0, 50, 64
2, 25011, Note_on_c, 0, 66, 0
2, 25015, Note_on_c, 0, 50, 0
2, 25019, Note_on_c, 0, 71, 64
2, 25019, Note_on_c, 0, 52, 64
2, 25045, Note_on_c, 0, 52, 0
2, 25049, Note_on_c, 0, 54, 64
2, 25071, Note_on_c, 0, 71, 0
2, 25075, Note_on_c, 0, 54, 0
2, 25079, Note_on_c, 0, 64, 64
2, 25079, Note_on_c, 0, 55, 64
2, 25105, Note_on_c, 0, 55, 0
2, 25109, Note_on_c, 0, 54, 64
2, 25124, Note_on_c, 0, 67, 0
2, 25135, Note_on_c, 0, 54, 0
2, 25139, Note_on_c, 0, 72, 64
2, 25139, Note_on_c, 0, 52, 64
2, 25165, Note_on_c, 0, 52, 0
2, 25169, Note_on_c, 0, 55, 64
2, 25191, Note_on_c, 0, 72, 0
2, 25195, Note_on_c, 0, 55, 0
2, 25199, Note_on_c, 0, 70, 64
2, 25199, Note_on_c, 0, 54, 64
2, 25225, Note_on_c, 0, 54, 0
2, 25229, Note_on_c, 0, 56, 64
2, 25251, Note_on_c, 0, 70, 0
2, 25251, Note_on_c, 0, 64, 0
2, 25255, Note_on_c, 0, 56, 0
2, 25259, Note_on_c, 0, 66, 64
2, 25259, Note_on_c, 0, 62, 64
2, 25259, Note_on_c, 0, 58, 64
2, 25285, Note_on_c, 0, 58, 0
2, 25285, Note_on_c, 0, 62, 0
2, 25289, Note_on_c, 0, 61, 64
2, 25289, Note_on_c, 0, 54, 64
2, 25315, Note_on_c, 0, 54, 0
2, 25315, Note_on_c, 0, 61, 0
2, 25319, Note_on_c, 0, 62, 64
2, 25319, Note_on_c, 0, 59, 64
2, 25345, Note_on_c, 0, 59, 0
2, 25345, Note_on_c, 0, 66, 0
2, 25349, Note_on_c, 0, 71, 64
2, 25349, Note_on_c, 0, 47, 64
2, 25371, Note_on_c, 0, 62, 0
2, 25375, Note_on_c, 0, 47, 0
2, 25375, Note_on_c, 0, 71, 0
2, 25379, Note_on_c, 0, 73, 64
2, 25379, Note_on_c, 0, 59, 64
2, 25379, Note_on_c, 0, 59, 64
2, 25405, Note_on_c, 0, 73, 0
2, 25409, Note_on_c, 0, 74, 64
2, 25431, Note_on_c, 0, 59, 0
2, 25435, Note_on_c, 0, 74, 0
2, 25439, Note_on_c, 0, 65, 64
2, 25439, Note_on_c, 0, 61, 64
2, 25465, Note_on_c, 0, 59, 0
2, 25469, Note_on_c, 0, 57, 64
2, 25491, Note_on_c, 0, 65, 0
2, 25495, Note_on_c, 0, 57, 0
2, 25499, Note_on_c, 0, 73, 64
2, 25499, Note_on_c, 0, 56, 64
2, 25525, Note_on_c, 0, 56, 0
2, 25529, Note_on_c, 0, 59, 64
2, 25551, Note_on_c, 0, 73, 0
2, 25555, Note_on_c, 0, 59, 0
2, 25559, Note_on_c, 0, 66, 64
2, 25559, Note_on_c, 0, 57, 64
2, 25585, Note_on_c, 0, 57, 0
2, 25589, Note_on_c, 0, 56, 64
2, 25615, Note_on_c, 0, 56, 0
2, 25619, Note_on_c, 0, 54, 64
2, 25645, Note_on_c, 0, 54, 0
2, 25649, Note_on_c, 0, 57, 64
2, 25664, Note_on_c, 0, 61, 0
2, 25675, Note_on_c, 0, 57, 0
2, 25679, Note_on_c, 0, 59, 64
2, 25679, Note_on_c, 0, 56, 64
2, 25705, Note_on_c, 0, 56, 0
2, 25709, Note_on_c, 0, 57, 64
2, 25731, Note_on_c, 0, 66, 0
2, 25735, Note_on_c, 0, 57, 0
2, 25739, Note_on_c, 0, 65, 64
2, 25739, Note_on_c, 0, 56, 64
2, 25765, Note_on_c, 0, 56, 0
2, 25765, Note_on_c, 0, 65, 0
2, 25769, Note_on_c, 0, 66, 64
2, 25769, Note_on_c, 0, 54, 64
2, 25784, Note_on_c, 0, 59, 0
2, 25795, Note_on_c, 0, 54, 0
2, 25795, Note_on_c, 0, 66, 0
2, 25799, Note_on_c, 0, 68, 64
2, 25799, Note_on_c, 0, 53, 64
2, 25825, Note_on_c, 0, 53, 0
2, 25825, Note_on_c, 0, 68, 0
2, 25829, Note_on_c, 0, 69, 64
2, 25829, Note_on_c, 0, 54, 64
2, 25855, Note_on_c, 0, 54, 0
2, 25855, Note_on_c, 0, 69, 0
2, 25859, Note_on_c, 0, 71, 64
2, 25859, Note_on_c, 0, 56, 64
2, 25885, Note_on_c, 0, 56, 0
2, 25885, Note_on_c, 0, 71, 0
2, 25889, Note_on_c, 0, 68, 64
2, 25889, Note_on_c, 0, 53, 64
2, 25915, Note_on_c, 0, 53, 0
2, 25915, Note_on_c, 0, 68, 0
2, 25919, Note_on_c, 0, 71, 64
2, 25919, Note_on_c, 0, 54, 64
2, 25945, Note_on_c, 0, 71, 0
2, 25949, Note_on_c, 0, 69, 64
2, 25971, Note_on_c, 0, 54, 0
2, 25975, Note_on_c, 0, 69, 0
2, 25979, Note_on_c, 0, 68, 64
2, 25979, Note_on_c, 0, 56, 64
2, 26005, Note_on_c, 0, 56, 0
2, 26005, Note_on_c, 0, 68, 0
2, 26009, Note_on_c, 0, 66, 64
2, 26009, Note_on_c, 0, 57, 64
2, 26035, Note_on_c, 0, 57, 0
2, 26035, Note_on_c, 0, 66, 0
2, 26039, Note_on_c, 0, 74, 64
2, 26039, Note_on_c, 0, 59, 64
2, 26065, Note_on_c, 0, 59, 0
2, 26069, Note_on_c, 0, 73, 64
2, 26069, Note_on_c, 0, 57, 64
2, 26095, Note_on_c, 0, 57, 0
2, 26095, Note_on_c, 0, 73, 0
2, 26099, Note_on_c, 0, 71, 64
2, 26099, Note_on_c, 0, 56, 64
2, 26125, Note_on_c, 0, 56, 0
2, 26125, Note_on_c, 0, 71, 0
2, 26129, Note_on_c, 0, 69, 64
2, 26129, Note_on_c, 0, 54, 64
2, 26155, Note_on_c, 0, 54, 0
2, 26155, Note_on_c, 0, 69, 0
2, 26159, Note_on_c, 0, 68, 64
2, 26159, Note_on_c, 0, 52, 64
2, 26185, Note_on_c, 0, 52, 0
2, 26189, Note_on_c, 0, 54, 64
2, 26211, Note_on_c, 0, 74, 0
2, 26215, Note_on_c, 0, 54, 0
2, 26219, Note_on_c, 0, 73, 64
2, 26219, Note_on_c, 0, 52, 64
2, 26245, Note_on_c, 0, 52, 0
2, 26245, Note_on_c, 0, 73, 0
2, 26249, Note_on_c, 0, 71, 64
2, 26249, Note_on_c, 0, 50, 64
2, 26275, Note_on_c, 0, 50, 0
2, 26275, Note_on_c, 0, 71, 0
2, 26279, Note_on_c, 0, 73, 64
2, 26279, Note_on_c, 0, 52, 64
2, 26305, Note_on_c, 0, 52, 0
2, 26305, Note_on_c, 0, 68, 0
2, 26309, Note_on_c, 0, 71, 64
2, 26309, Note_on_c, 0, 50, 64
2, 26335, Note_on_c, 0, 50, 0
2, 26335, Note_on_c, 0, 71, 0
2, 26339, Note_on_c, 0, 69, 64
2, 26339, Note_on_c, 0, 49, 64
2, 26365, Note_on_c, 0, 49, 0
2, 26365, Note_on_c, 0, 69, 0
2, 26369, Note_on_c, 0, 68, 64
2, 26369, Note_on_c, 0, 52, 64
2, 26395, Note_on_c, 0, 52, 0
2, 26395, Note_on_c, 0, 68, 0
2, 26399, Note_on_c, 0, 66, 64
2, 26399, Note_on_c, 0, 50, 64
2, 26425, Note_on_c, 0, 50, 0
2, 26429, Note_on_c, 0, 52, 64
2, 26451, Note_on_c, 0, 66, 0
2, 26451, Note_on_c, 0, 73, 0
2, 26455, Note_on_c, 0, 52, 0
2, 26459, Note_on_c, 0, 78, 64
2, 26459, Note_on_c, 0, 69, 64
2, 26459, Note_on_c, 0, 50, 64
2, 26485, Note_on_c, 0, 50, 0
2, 26489, Note_on_c, 0, 49, 64
2, 26511, Note_on_c, 0, 69, 0
2, 26511, Note_on_c, 0, 78, 0
2, 26515, Note_on_c, 0, 49, 0
2, 26519, Note_on_c, 0, 71, 64
2, 26519, Note_on_c, 0, 68, 64
2, 26519, Note_on_c, 0, 50, 64
2, 26545, Note_on_c, 0, 50, 0
2, 26549, Note_on_c, 0, 49, 64
2, 26575, Note_on_c, 0, 49, 0
2, 26579, Note_on_c, 0, 47, 64
2, 26597, Note_on_c, 0, 68, 0
2, 26605, Note_on_c, 0, 47, 0
2, 26609, Note_on_c, 0, 66, 64
2, 26609, Note_on_c, 0, 50, 64
2, 26635, Note_on_c, 0, 50, 0
2, 26635, Note_on_c, 0, 66, 0
2, 26639, Note_on_c, 0, 65, 64
2, 26639, Note_on_c, 0, 49, 64
2, 26665, Note_on_c, 0, 49, 0
2, 26669, Note_on_c, 0, 50, 64
2, 26691, Note_on_c, 0, 65, 0
2, 26691, Note_on_c, 0, 71, 0
2, 26695, Note_on_c, 0, 50, 0
2, 26699, Note_on_c, 0, 69, 64
2, 26699, Note_on_c, 0, 61, 64
2, 26699, Note_on_c, 0, 49, 64
2, 26725, Note_on_c, 0, 49, 0
2, 26725, Note_on_c, 0, 69, 0
2, 26729, Note_on_c, 0, 68, 64
2, 26729, Note_on_c, 0, 47, 64
2, 26751, Note_on_c, 0, 61, 0
2, 26755, Note_on_c, 0, 47, 0
2, 26755, Note_on_c, 0, 68, 0
2, 26759, Note_on_c, 0, 69, 64
2, 26759, Note_on_c, 0, 66, 64
2, 26759, Note_on_c, 0, 49, 64
2, 26785, Note_on_c, 0, 49, 0
2, 26789, Note_on_c, 0, 47, 64
2, 26811, Note_on_c, 0, 69, 0
2, 26815, Note_on_c, 0, 47, 0
2, 26819, Note_on_c, 0, 66, 64
2, 26819, Note_on_c, 0, 45, 64
2, 26845, Note_on_c, 0, 45, 0
2, 26849, Note_on_c, 0, 49, 64
2, 26871, Note_on_c, 0, 66, 0
2, 26875, Note_on_c, 0, 49, 0
2, 26879, Note_on_c, 0, 68, 64
2, 26879, Note_on_c, 0, 47, 64
2, 26905, Note_on_c, 0, 47, 0
2, 26909, Note_on_c, 0, 49, 64
2, 26935, Note_on_c, 0, 49, 0
2, 26939, Note_on_c, 0, 47, 64
2, 26965, Note_on_c, 0, 47, 0
2, 26969, Note_on_c, 0, 45, 64
2, 26984, Note_on_c, 0, 66, 0
2, 26995, Note_on_c, 0, 45, 0
2, 26999, Note_on_c, 0, 65, 64
2, 26999, Note_on_c, 0, 47, 64
2, 27025, Note_on_c, 0, 47, 0
2, 27029, Note_on_c, 0, 45, 64
2, 27055, Note_on_c, 0, 45, 0
2, 27059, Note_on_c, 0, 44, 64
2, 27085, Note_on_c, 0, 44, 0
2, 27089, Note_on_c, 0, 47, 64
2, 27104, Note_on_c, 0, 65, 0
2, 27104, Note_on_c, 0, 68, 0
2, 27115, Note_on_c, 0, 47, 0
2, 27119, Note_on_c, 0, 66, 64
2, 27119, Note_on_c, 0, 66, 64
2, 27119, Note_on_c, 0, 45, 64
2, 27145, Note_on_c, 0, 45, 0
2, 27149, Note_on_c, 0, 44, 64
2, 27171, Note_on_c, 0, 66, 0
2, 27175, Note_on_c, 0, 44, 0
2, 27179, Note_on_c, 0, 73, 64
2, 27179, Note_on_c, 0, 42, 64
2, 27205, Note_on_c, 0, 42, 0
2, 27209, Note_on_c, 0, 44, 64
2, 27224, Note_on_c, 0, 66, 0
2, 27231, Note_on_c, 0, 73, 0
2, 27235, Note_on_c, 0, 44, 0
2, 27239, Note_on_c, 0, 78, 64
2, 27239, Note_on_c, 0, 45, 64
2, 27265, Note_on_c, 0, 45, 0
2, 27269, Note_on_c, 0, 47, 64
2, 27291, Note_on_c, 0, 78, 0
2, 27295, Note_on_c, 0, 47, 0
2, 27299, Note_on_c, 0, 81, 64
2, 27299, Note_on_c, 0, 49, 64
2, 27325, Note_on_c, 0, 49, 0
2, 27329, Note_on_c, 0, 51, 64
2, 27351, Note_on_c, 0, 81, 0
2, 27355, Note_on_c, 0, 51, 0
2, 27359, Note_on_c, 0, 80, 64
2, 27359, Note_on_c, 0, 52, 64
2, 27385, Note_on_c, 0, 52, 0
2, 27389, Note_on_c, 0, 51, 64
2, 27415, Note_on_c, 0, 51, 0
2, 27419, Note_on_c, 0, 68, 64
2, 27419, Note_on_c, 0, 49, 64
2, 27445, Note_on_c, 0, 49, 0
2, 27449, Note_on_c, 0, 51, 64
2, 27471, Note_on_c, 0, 68, 0
2, 27475, Note_on_c, 0, 51, 0
2, 27479, Note_on_c, 0, 73, 64
2, 27479, Note_on_c, 0, 52, 64
2, 27505, Note_on_c, 0, 52, 0
2, 27509, Note_on_c, 0, 54, 64
2, 27531, Note_on_c, 0, 73, 0
2, 27535, Note_on_c, 0, 54, 0
2, 27539, Note_on_c, 0, 76, 64
2, 27539, Note_on_c, 0, 56, 64
2, 27565, Note_on_c, 0, 56, 0
2, 27569, Note_on_c, 0, 58, 64
2, 27591, Note_on_c, 0, 76, 0
2, 27595, Note_on_c, 0, 58, 0
2, 27599, Note_on_c, 0, 75, 64
2, 27599, Note_on_c, 0, 60, 64
2, 27625, Note_on_c, 0, 60, 0
2, 27629, Note_on_c, 0, 58, 64
2, 27651, Note_on_c, 0, 80, 0
2, 27655, Note_on_c, 0, 58, 0
2, 27659, Note_on_c, 0, 81, 64
2, 27659, Note_on_c, 0, 60, 64
2, 27685, Note_on_c, 0, 60, 0
2, 27689, Note_on_c, 0, 61, 64
2, 27711, Note_on_c, 0, 81, 0
2, 27715, Note_on_c, 0, 61, 0
2, 27719, Note_on_c, 0, 80, 64
2, 27719, Note_on_c, 0, 60, 64
2, 27745, Note_on_c, 0, 60, 0
2, 27749, Note_on_c, 0, 61, 64
2, 27771, Note_on_c, 0, 80, 0
2, 27775, Note_on_c, 0, 61, 0
2, 27779, Note_on_c, 0, 78, 64
2, 27779, Note_on_c, 0, 63, 64
2, 27805, Note_on_c, 0, 63, 0
2, 27809, Note_on_c, 0, 60, 64
2, 27831, Note_on_c, 0, 78, 0
2, 27835, Note_on_c, 0, 60, 0
2, 27839, Note_on_c, 0, 76, 64
2, 27839, Note_on_c, 0, 61, 64
2, 27865, Note_on_c, 0, 61, 0
2, 27869, Note_on_c, 0, 63, 64
2, 27891, Note_on_c, 0, 75, 0
2, 27895, Note_on_c, 0, 63, 0
2, 27899, Note_on_c, 0, 68, 64
2, 27899, Note_on_c, 0, 64, 64
2, 27925, Note_on_c, 0, 64, 0
2, 27929, Note_on_c, 0, 63, 64
2, 27951, Note_on_c, 0, 68, 0
2, 27955, Note_on_c, 0, 63, 0
2, 27959, Note_on_c, 0, 73, 64
2, 27959, Note_on_c, 0, 61, 64
2, 27985, Note_on_c, 0, 61, 0
2, 27989, Note_on_c, 0, 59, 64
2, 28011, Note_on_c, 0, 73, 0
2, 28015, Note_on_c, 0, 59, 0
2, 28019, Note_on_c, 0, 71, 64
2, 28019, Note_on_c, 0, 57, 64
2, 28045, Note_on_c, 0, 57, 0
2, 28049, Note_on_c, 0, 56, 64
2, 28071, Note_on_c, 0, 71, 0
2, 28075, Note_on_c, 0, 56, 0
2, 28079, Note_on_c, 0, 69, 64
2, 28079, Note_on_c, 0, 54, 64
2, 28105, Note_on_c, 0, 54, 0
2, 28109, Note_on_c, 0, 52, 64
2, 28131, Note_on_c, 0, 76, 0
2, 28135, Note_on_c, 0, 52, 0
2, 28139, Note_on_c, 0, 76, 64
2, 28139, Note_on_c, 0, 54, 64
2, 28165, Note_on_c, 0, 54, 0
2, 28169, Note_on_c, 0, 56, 64
2, 28191, Note_on_c, 0, 76, 0
2, 28195, Note_on_c, 0, 56, 0
2, 28199, Note_on_c, 0, 75, 64
2, 28199, Note_on_c, 0, 54, 64
2, 28225, Note_on_c, 0, 54, 0
2, 28229, Note_on_c, 0, 56, 64
2, 28251, Note_on_c, 0, 75, 0
2, 28255, Note_on_c, 0, 56, 0
2, 28259, Note_on_c, 0, 78, 64
2, 28259, Note_on_c, 0, 57, 64
2, 28285, Note_on_c, 0, 57, 0
2, 28289, Note_on_c, 0, 54, 64
2, 28311, Note_on_c, 0, 78, 0
2, 28315, Note_on_c, 0, 54, 0
2, 28319, Note_on_c, 0, 72, 64
2, 28319, Note_on_c, 0, 56, 64
2, 28345, Note_on_c, 0, 56, 0
2, 28349, Note_on_c, 0, 54, 64
2, 28371, Note_on_c, 0, 69, 0
2, 28375, Note_on_c, 0, 54, 0
2, 28379, Note_on_c, 0, 63, 64
2, 28379, Note_on_c, 0, 56, 64
2, 28405, Note_on_c, 0, 56, 0
2, 28409, Note_on_c, 0, 57, 64
2, 28431, Note_on_c, 0, 63, 0
2, 28435, Note_on_c, 0, 57, 0
2, 28439, Note_on_c, 0, 68, 64
2, 28439, Note_on_c, 0, 56, 64
2, 28465, Note_on_c, 0, 56, 0
2, 28469, Note_on_c, 0, 54, 64
2, 28484, Note_on_c, 0, 72, 0
2, 28491, Note_on_c, 0, 68, 0
2, 28495, Note_on_c, 0, 54, 0
2, 28499, Note_on_c, 0, 75, 64
2, 28499, Note_on_c, 0, 66, 64
2, 28499, Note_on_c, 0, 52, 64
2, 28525, Note_on_c, 0, 52, 0
2, 28529, Note_on_c, 0, 51, 64
2, 28551, Note_on_c, 0, 75, 0
2, 28555, Note_on_c, 0, 51, 0
2, 28559, Note_on_c, 0, 68, 64
2, 28559, Note_on_c, 0, 52, 64
2, 28585, Note_on_c, 0, 66, 0
2, 28589, Note_on_c, 0, 66, 64
2, 28611, Note_on_c, 0, 52, 0
2, 28615, Note_on_c, 0, 66, 0
2, 28619, Note_on_c, 0, 64, 64
2, 28619, Note_on_c, 0, 49, 64
2, 28645, Note_on_c, 0, 64, 0
2, 28649, Note_on_c, 0, 63, 64
2, 28664, Note_on_c, 0, 68, 0
2, 28671, Note_on_c, 0, 49, 0
2, 28675, Note_on_c, 0, 63, 0
2, 28679, Note_on_c, 0, 61, 64
2, 28679, Note_on_c, 0, 57, 64
2, 28705, Note_on_c, 0, 61, 0
2, 28709, Note_on_c, 0, 63, 64
2, 28735, Note_on_c, 0, 63, 0
2, 28739, Note_on_c, 0, 73, 64
2, 28739, Note_on_c, 0, 64, 64
2, 28765, Note_on_c, 0, 64, 0
2, 28769, Note_on_c, 0, 61, 64
2, 28791, Note_on_c, 0, 73, 0
2, 28795, Note_on_c, 0, 61, 0
2, 28799, Note_on_c, 0, 71, 64
2, 28799, Note_on_c, 0, 63, 64
2, 28825, Note_on_c, 0, 71, 0
2, 28829, Note_on_c, 0, 73, 64
2, 28851, Note_on_c, 0, 57, 0
2, 28855, Note_on_c, 0, 73, 0
2, 28859, Note_on_c, 0, 71, 64
2, 28859, Note_on_c, 0, 56, 64
2, 28885, Note_on_c, 0, 56, 0
2, 28885, Note_on_c, 0, 71, 0
2, 28889, Note_on_c, 0, 69, 64
2, 28889, Note_on_c, 0, 54, 64
2, 28904, Note_on_c, 0, 63, 0
2, 28915, Note_on_c, 0, 54, 0
2, 28915, Note_on_c, 0, 69, 0
2, 28919, Note_on_c, 0, 71, 64
2, 28919, Note_on_c, 0, 56, 64
2, 28945, Note_on_c, 0, 71, 0
2, 28949, Note_on_c, 0, 69, 64
2, 28975, Note_on_c, 0, 69, 0
2, 28979, Note_on_c, 0, 68, 64
2, 28979, Note_on_c, 0, 64, 64
2, 29005, Note_on_c, 0, 68, 0
2, 29009, Note_on_c, 0, 71, 64
2, 29031, Note_on_c, 0, 64, 0
2, 29035, Note_on_c, 0, 71, 0
2, 29039, Note_on_c, 0, 69, 64
2, 29039, Note_on_c, 0, 61, 64
2, 29065, Note_on_c, 0, 69, 0
2, 29069, Note_on_c, 0, 71, 64
2, 29091, Note_on_c, 0, 61, 0
2, 29091, Note_on_c, 0, 56, 0
2, 29095, Note_on_c, 0, 71, 0
2, 29099, Note_on_c, 0, 69, 64
2, 29099, Note_on_c, 0, 64, 64
2, 29099, Note_on_c, 0, 61, 64
2, 29125, Note_on_c, 0, 69, 0
2, 29129, Note_on_c, 0, 68, 64
2, 29151, Note_on_c, 0, 61, 0
2, 29151, Note_on_c, 0, 64, 0
2, 29155, Note_on_c, 0, 68, 0
2, 29159, Note_on_c, 0, 69, 64
2, 29159, Note_on_c, 0, 63, 64
2, 29159, Note_on_c, 0, 54, 64
2, 29185, Note_on_c, 0, 69, 0
2, 29189, Note_on_c, 0, 68, 64
2, 29215, Note_on_c, 0, 68, 0
2, 29219, Note_on_c, 0, 66, 64
2, 29237, Note_on_c, 0, 63, 0
2, 29245, Note_on_c, 0, 66, 0
2, 29249, Note_on_c, 0, 69, 64
2, 29249, Note_on_c, 0, 61, 64
2, 29275, Note_on_c, 0, 61, 0
2, 29275, Note_on_c, 0, 69, 0
2, 29279, Note_on_c, 0, 68, 64
2, 29279, Note_on_c, 0, 60, 64
2, 29305, Note_on_c, 0, 68, 0
2, 29309, Note_on_c, 0, 69, 64
2, 29331, Note_on_c, 0, 60, 0
2, 29331, Note_on_c, 0, 54, 0
2, 29335, Note_on_c, 0, 69, 0
2, 29339, Note_on_c, 0, 68, 64
2, 29339, Note_on_c, 0, 56, 64
2, 29339, Note_on_c, 0, 52, 64
2, 29365, Note_on_c, 0, 52, 0
2, 29365, Note_on_c, 0, 68, 0
2, 29369, Note_on_c, 0, 66, 64
2, 29369, Note_on_c, 0, 51, 64
2, 29391, Note_on_c, 0, 56, 0
2, 29395, Note_on_c, 0, 51, 0
2, 29395, Note_on_c, 0, 66, 0
2, 29399, Note_on_c, 0, 68, 64
2, 29399, Note_on_c, 0, 61, 64
2, 29399, Note_on_c, 0, 52, 64
2, 29425, Note_on_c, 0, 68, 0
2, 29429, Note_on_c, 0, 66, 64
2, 29451, Note_on_c, 0, 52, 0
2, 29455, Note_on_c, 0, 66, 0
2, 29459, Note_on_c, 0, 64, 64
2, 29459, Note_on_c, 0, 49, 64
2, 29485, Note_on_c, 0, 64, 0
2, 29489, Note_on_c, 0, 68, 64
2, 29511, Note_on_c, 0, 49, 0
2, 29515, Note_on_c, 0, 68, 0
2, 29519, Note_on_c, 0, 66, 64
2, 29519, Note_on_c, 0, 51, 64
2, 29545, Note_on_c, 0, 66, 0
2, 29549, Note_on_c, 0, 68, 64
2, 29575, Note_on_c, 0, 68, 0
2, 29579, Note_on_c, 0, 66, 64
2, 29605, Note_on_c, 0, 66, 0
2, 29609, Note_on_c, 0, 64, 64
2, 29624, Note_on_c, 0, 61, 0
2, 29635, Note_on_c, 0, 64, 0
2, 29639, Note_on_c, 0, 66, 64
2, 29639, Note_on_c, 0, 60, 64
2, 29665, Note_on_c, 0, 66, 0
2, 29669, Note_on_c, 0, 64, 64
2, 29695, Note_on_c, 0, 64, 0
2, 29699, Note_on_c, 0, 63, 64
2, 29725, Note_on_c, 0, 63, 0
2, 29729, Note_on_c, 0, 66, 64
2, 29744, Note_on_c, 0, 60, 0
2, 29744, Note_on_c, 0, 51, 0
2, 29755, Note_on_c, 0, 66, 0
2, 29759, Note_on_c, 0, 64, 64
2, 29759, Note_on_c, 0, 61, 64
2, 29759, Note_on_c, 0, 49, 64
2, 29785, Note_on_c, 0, 49, 0
2, 29789, Note_on_c, 0, 48, 64
2, 29811, Note_on_c, 0, 61, 0
2, 29815, Note_on_c, 0, 48, 0
2, 29819, Note_on_c, 0, 56, 64
2, 29819, Note_on_c, 0, 49, 64
2, 29845, Note_on_c, 0, 49, 0
2, 29849, Note_on_c, 0, 51, 64
2, 29864, Note_on_c, 0, 64, 0
2, 29871, Note_on_c, 0, 56, 0
2, 29875, Note_on_c, 0, 51, 0
2, 29879, Note_on_c, 0, 61, 64
2, 29879, Note_on_c, 0, 52, 64
2, 29905, Note_on_c, 0, 52, 0
2, 29909, Note_on_c, 0, 54, 64
2, 29931, Note_on_c, 0, 61, 0
2, 29935, Note_on_c, 0, 54, 0
2, 29939, Note_on_c, 0, 64, 64
2, 29939, Note_on_c, 0, 55, 64
2, 29965, Note_on_c, 0, 55, 0
2, 29969, Note_on_c, 0, 52, 64
2, 29991, Note_on_c, 0, 64, 0
2, 29995, Note_on_c, 0, 52, 0
2, 29999, Note_on_c, 0, 58, 64
2, 29999, Note_on_c, 0, 54, 64
2, 30025, Note_on_c, 0, 54, 0
2, 30029, Note_on_c, 0, 55, 64
2, 30055, Note_on_c, 0, 55, 0
2, 30059, Note_on_c, 0, 67, 64
2, 30059, Note_on_c, 0, 54, 64
2, 30085, Note_on_c, 0, 54, 0
2, 30089, Note_on_c, 0, 52, 64
2, 30104, Note_on_c, 0, 58, 0
2, 30111, Note_on_c, 0, 67, 0
2, 30115, Note_on_c, 0, 52, 0
2, 30119, Note_on_c, 0, 66, 64
2, 30119, Note_on_c, 0, 59, 64
2, 30119, Note_on_c, 0, 50, 64
2, 30145, Note_on_c, 0, 50, 0
2, 30149, Note_on_c, 0, 49, 64
2, 30171, Note_on_c, 0, 59, 0
2, 30171, Note_on_c, 0, 66, 0
2, 30175, Note_on_c, 0, 49, 0
2, 30179, Note_on_c, 0, 64, 64
2, 30179, Note_on_c, 0, 61, 64
2, 30179, Note_on_c, 0, 47, 64
2, 30205, Note_on_c, 0, 47, 0
2, 30209, Note_on_c, 0, 46, 64
2, 30231, Note_on_c, 0, 64, 0
2, 30235, Note_on_c, 0, 46, 0
2, 30239, Note_on_c, 0, 62, 64
2, 30239, Note_on_c, 0, 47, 64
2, 30265, Note_on_c, 0, 47, 0
2, 30269, Note_on_c, 0, 42, 64
2, 30291, Note_on_c, 0, 61, 0
2, 30295, Note_on_c, 0, 42, 0
2, 30299, Note_on_c, 0, 54, 64
2, 30299, Note_on_c, 0, 47, 64
2, 30325, Note_on_c, 0, 47, 0
2, 30329, Note_on_c, 0, 49, 64
2, 30344, Note_on_c, 0, 62, 0
2, 30351, Note_on_c, 0, 54, 0
2, 30355, Note_on_c, 0, 49, 0
2, 30359, Note_on_c, 0, 59, 64
2, 30359, Note_on_c, 0, 50, 64
2, 30385, Note_on_c, 0, 50, 0
2, 30389, Note_on_c, 0, 52, 64
2, 30411, Note_on_c, 0, 59, 0
2, 30415, Note_on_c, 0, 52, 0
2, 30419, Note_on_c, 0, 62, 64
2, 30419, Note_on_c, 0, 54, 64
2, 30445, Note_on_c, 0, 54, 0
2, 30449, Note_on_c, 0, 50, 64
2, 30471, Note_on_c, 0, 62, 0
2, 30475, Note_on_c, 0, 50, 0
2, 30479, Note_on_c, 0, 56, 64
2, 30479, Note_on_c, 0, 52, 64
2, 30505, Note_on_c, 0, 52, 0
2, 30509, Note_on_c, 0, 54, 64
2, 30535, Note_on_c, 0, 54, 0
2, 30539, Note_on_c, 0, 66, 64
2, 30539, Note_on_c, 0, 52, 64
2, 30565, Note_on_c, 0, 52, 0
2, 30569, Note_on_c, 0, 50, 64
2, 30584, Note_on_c, 0, 56, 0
2, 30591, Note_on_c, 0, 66, 0
2, 30595, Note_on_c, 0, 50, 0
2, 30599, Note_on_c, 0, 64, 64
2, 30599, Note_on_c, 0, 57, 64
2, 30599, Note_on_c, 0, 49, 64
2, 30625, Note_on_c, 0, 49, 0
2, 30629, Note_on_c, 0, 47, 64
2, 30651, Note_on_c, 0, 57, 0
2, 30651, Note_on_c, 0, 64, 0
2, 30655, Note_on_c, 0, 47, 0
2, 30659, Note_on_c, 0, 62, 64
2, 30659, Note_on_c, 0, 59, 64
2, 30659, Note_on_c, 0, 45, 64
2, 30685, Note_on_c, 0, 45, 0
2, 30689, Note_on_c, 0, 44, 64
2, 30711, Note_on_c, 0, 62, 0
2, 30715, Note_on_c, 0, 44, 0
2, 30719, Note_on_c, 0, 61, 64
2, 30719, Note_on_c, 0, 45, 64
2, 30745, Note_on_c, 0, 45, 0
2, 30749, Note_on_c, 0, 40, 64
2, 30771, Note_on_c, 0, 59, 0
2, 30775, Note_on_c, 0, 40, 0
2, 30779, Note_on_c, 0, 57, 64
2, 30779, Note_on_c, 0, 45, 64
2, 30805, Note_on_c, 0, 45, 0
2, 30805, Note_on_c, 0, 57, 0
2, 30809, Note_on_c, 0, 56, 64
2, 30809, Note_on_c, 0, 47, 64
2, 30835, Note_on_c, 0, 47, 0
2, 30835, Note_on_c, 0, 56, 0
2, 30839, Note_on_c, 0, 57, 64
2, 30839, Note_on_c, 0, 49, 64
2, 30865, Note_on_c, 0, 49, 0
2, 30869, Note_on_c, 0, 50, 64
2, 30884, Note_on_c, 0, 61, 0
2, 30895, Note_on_c, 0, 50, 0
2, 30899, Note_on_c, 0, 61, 64
2, 30899, Note_on_c, 0, 52, 64
2, 30925, Note_on_c, 0, 52, 0
2, 30929, Note_on_c, 0, 49, 64
2, 30951, Note_on_c, 0, 61, 0
2, 30955, Note_on_c, 0, 49, 0
2, 30959, Note_on_c, 0, 66, 64
2, 30959, Note_on_c, 0, 50, 64
2, 30985, Note_on_c, 0, 50, 0
2, 30989, Note_on_c, 0, 52, 64
2, 31011, Note_on_c, 0, 57, 0
2, 31015, Note_on_c, 0, 52, 0
2, 31019, Note_on_c, 0, 59, 64
2, 31019, Note_on_c, 0, 50, 64
2, 31045, Note_on_c, 0, 50, 0
2, 31045, Note_on_c, 0, 59, 0
2, 31049, Note_on_c, 0, 61, 64
2, 31049, Note_on_c, 0, 49, 64
2, 31075, Note_on_c, 0, 49, 0
2, 31075, Note_on_c, 0, 61, 0
2, 31079, Note_on_c, 0, 62, 64
2, 31079, Note_on_c, 0, 47, 64
2, 31105, Note_on_c, 0, 47, 0
2, 31109, Note_on_c, 0, 45, 64
2, 31124, Note_on_c, 0, 66, 0
2, 31135, Note_on_c, 0, 45, 0
2, 31139, Note_on_c, 0, 65, 64
2, 31139, Note_on_c, 0, 44, 64
2, 31165, Note_on_c, 0, 44, 0
2, 31165, Note_on_c, 0, 65, 0
2, 31169, Note_on_c, 0, 66, 64
2, 31169, Note_on_c, 0, 42, 64
2, 31195, Note_on_c, 0, 66, 0
2, 31199, Note_on_c, 0, 42, 0
2, 31199, Note_on_c, 0, 68, 64
2, 31199, Note_on_c, 0, 41, 64
2, 31225, Note_on_c, 0, 62, 0
2, 31229, Note_on_c, 0, 61, 64
2, 31251, Note_on_c, 0, 41, 0
2, 31251, Note_on_c, 0, 68, 0
2, 31255, Note_on_c, 0, 61, 0
2, 31259, Note_on_c, 0, 66, 64
2, 31259, Note_on_c, 0, 63, 64
2, 31259, Note_on_c, 0, 37, 64
2, 31285, Note_on_c, 0, 63, 0
2, 31285, Note_on_c, 0, 66, 0
2, 31289, Note_on_c, 0, 68, 64
2, 31289, Note_on_c, 0, 65, 64
2, 31311, Note_on_c, 0, 37, 0
2, 31315, Note_on_c, 0, 65, 0
2, 31315, Note_on_c, 0, 68, 0
2, 31319, Note_on_c, 0, 69, 64
2, 31319, Note_on_c, 0, 66, 64
2, 31319, Note_on_c, 0, 42, 64
2, 31345, Note_on_c, 0, 66, 0
2, 31349, Note_on_c, 0, 68, 64
2, 31375, Note_on_c, 0, 68, 0
2, 31379, Note_on_c, 0, 69, 64
2, 31405, Note_on_c, 0, 69, 0
2, 31409, Note_on_c, 0, 66, 64
2, 31424, Note_on_c, 0, 69, 0
2, 31435, Note_on_c, 0, 66, 0
2, 31439, Note_on_c, 0, 71, 64
2, 31465, Note_on_c, 0, 71, 0
2, 31469, Note_on_c, 0, 73, 64
2, 31495, Note_on_c, 0, 73, 0
2, 31499, Note_on_c, 0, 71, 64
2, 31525, Note_on_c, 0, 71, 0
2, 31529, Note_on_c, 0, 69, 64
2, 31544, Note_on_c, 0, 42, 0
2, 31555, Note_on_c, 0, 69, 0
2, 31559, Note_on_c, 0, 71, 64
2, 31559, Note_on_c, 0, 41, 64
2, 31585, Note_on_c, 0, 71, 0
2, 31589, Note_on_c, 0, 69, 64
2, 31615, Note_on_c, 0, 69, 0
2, 31619, Note_on_c, 0, 73, 64
2, 31619, Note_on_c, 0, 68, 64
2, 31645, Note_on_c, 0, 68, 0
2, 31649, Note_on_c, 0, 69, 64
2, 31664, Note_on_c, 0, 41, 0
2, 31671, Note_on_c, 0, 73, 0
2, 31675, Note_on_c, 0, 69, 0
2, 31679, Note_on_c, 0, 69, 64
2, 31679, Note_on_c, 0, 66, 64
2, 31679, Note_on_c, 0, 42, 64
2, 31705, Note_on_c, 0, 42, 0
2, 31709, Note_on_c, 0, 54, 64
2, 31731, Note_on_c, 0, 66, 0
2, 31731, Note_on_c, 0, 69, 0
2, 31735, Note_on_c, 0, 54, 0
2, 31739, Note_on_c, 0, 66, 64
2, 31739, Note_on_c, 0, 56, 64
2, 31765, Note_on_c, 0, 56, 0
2, 31769, Note_on_c, 0, 57, 64
2, 31791, Note_on_c, 0, 66, 0
2, 31795, Note_on_c, 0, 57, 0
2, 31799, Note_on_c, 0, 74, 64
2, 31799, Note_on_c, 0, 59, 64
2, 31825, Note_on_c, 0, 59, 0
2, 31829, Note_on_c, 0, 61, 64
2, 31855, Note_on_c, 0, 61, 0
2, 31859, Note_on_c, 0, 66, 64
2, 31859, Note_on_c, 0, 59, 64
2, 31885, Note_on_c, 0, 59, 0
2, 31889, Note_on_c, 0, 57, 64
2, 31911, Note_on_c, 0, 66, 0
2, 31915, Note_on_c, 0, 57, 0
2, 31919, Note_on_c, 0, 64, 64
2, 31919, Note_on_c, 0, 56, 64
2, 31945, Note_on_c, 0, 64, 0
2, 31949, Note_on_c, 0, 66, 64
2, 31971, Note_on_c, 0, 74, 0
2, 31975, Note_on_c, 0, 66, 0
2, 31979, Note_on_c, 0, 73, 64
2, 31979, Note_on_c, 0, 64, 64
2, 32005, Note_on_c, 0, 64, 0
2, 32005, Note_on_c, 0, 73, 0
2, 32009, Note_on_c, 0, 71, 64
2, 32009, Note_on_c, 0, 62, 64
2, 32024, Note_on_c, 0, 56, 0
2, 32035, Note_on_c, 0, 62, 0
2, 32035, Note_on_c, 0, 71, 0
2, 32039, Note_on_c, 0, 73, 64
2, 32039, Note_on_c, 0, 64, 64
2, 32065, Note_on_c, 0, 64, 0
2, 32069, Note_on_c, 0, 62, 64
2, 32095, Note_on_c, 0, 62, 0
2, 32099, Note_on_c, 0, 61, 64
2, 32099, Note_on_c, 0, 58, 64
2, 32125, Note_on_c, 0, 61, 0
2, 32129, Note_on_c, 0, 64, 64
2, 32151, Note_on_c, 0, 58, 0
2, 32155, Note_on_c, 0, 64, 0
2, 32159, Note_on_c, 0, 62, 64
2, 32159, Note_on_c, 0, 59, 64
2, 32185, Note_on_c, 0, 62, 0
2, 32189, Note_on_c, 0, 64, 64
2, 32211, Note_on_c, 0, 59, 0
2, 32211, Note_on_c, 0, 73, 0
2, 32215, Note_on_c, 0, 64, 0
2, 32219, Note_on_c, 0, 78, 64
2, 32219, Note_on_c, 0, 62, 64
2, 32219, Note_on_c, 0, 57, 64
2, 32245, Note_on_c, 0, 62, 0
2, 32249, Note_on_c, 0, 61, 64
2, 32271, Note_on_c, 0, 57, 0
2, 32271, Note_on_c, 0, 78, 0
2, 32275, Note_on_c, 0, 61, 0
2, 32279, Note_on_c, 0, 71, 64
2, 32279, Note_on_c, 0, 62, 64
2, 32279, Note_on_c, 0, 56, 64
2, 32305, Note_on_c, 0, 62, 0
2, 32309, Note_on_c, 0, 61, 64
2, 32335, Note_on_c, 0, 61, 0
2, 32339, Note_on_c, 0, 59, 64
2, 32357, Note_on_c, 0, 56, 0
2, 32365, Note_on_c, 0, 59, 0
2, 32369, Note_on_c, 0, 62, 64
2, 32369, Note_on_c, 0, 54, 64
2, 32395, Note_on_c, 0, 54, 0
2, 32395, Note_on_c, 0, 62, 0
2, 32399, Note_on_c, 0, 61, 64
2, 32399, Note_on_c, 0, 53, 64
2, 32425, Note_on_c, 0, 61, 0
2, 32429, Note_on_c, 0, 62, 64
2, 32451, Note_on_c, 0, 53, 0
2, 32451, Note_on_c, 0, 71, 0
2, 32455, Note_on_c, 0, 62, 0
2, 32459, Note_on_c, 0, 69, 64
2, 32459, Note_on_c, 0, 61, 64
2, 32459, Note_on_c, 0, 49, 64
2, 32485, Note_on_c, 0, 61, 0
2, 32485, Note_on_c, 0, 69, 0
2, 32489, Note_on_c, 0, 68, 64
2, 32489, Note_on_c, 0, 59, 64
2, 32511, Note_on_c, 0, 49, 0
2, 32515, Note_on_c, 0, 59, 0
2, 32515, Note_on_c, 0, 68, 0
2, 32519, Note_on_c, 0, 69, 64
2, 32519, Note_on_c, 0, 61, 64
2, 32519, Note_on_c, 0, 54, 64
2, 32545, Note_on_c, 0, 61, 0
2, 32549, Note_on_c, 0, 59, 64
2, 32571, Note_on_c, 0, 69, 0
2, 32575, Note_on_c, 0, 59, 0
2, 32579, Note_on_c, 0, 66, 64
2, 32579, Note_on_c, 0, 57, 64
2, 32605, Note_on_c, 0, 57, 0
2, 32609, Note_on_c, 0, 61, 64
2, 32631, Note_on_c, 0, 66, 0
2, 32635, Note_on_c, 0, 61, 0
2, 32639, Note_on_c, 0, 68, 64
2, 32639, Note_on_c, 0, 59, 64
2, 32665, Note_on_c, 0, 59, 0
2, 32669, Note_on_c, 0, 61, 64
2, 32695, Note_on_c, 0, 61, 0
2, 32699, Note_on_c, 0, 59, 64
2, 32725, Note_on_c, 0, 59, 0
2, 32729, Note_on_c, 0, 57, 64
2, 32744, Note_on_c, 0, 54, 0
2, 32755, Note_on_c, 0, 57, 0
2, 32759, Note_on_c, 0, 59, 64
2, 32759, Note_on_c, 0, 53, 64
2, 32785, Note_on_c, 0, 59, 0
2, 32789, Note_on_c, 0, 57, 64
2, 32815, Note_on_c, 0, 57, 0
2, 32819, Note_on_c, 0, 56, 64
2, 32845, Note_on_c, 0, 56, 0
2, 32849, Note_on_c, 0, 59, 64
2, 32864, Note_on_c, 0, 53, 0
2, 32875, Note_on_c, 0, 59, 0
2, 32879, Note_on_c, 0, 57, 64
2, 32879, Note_on_c, 0, 54, 64
2, 32905, Note_on_c, 0, 68, 0
2, 32909, Note_on_c, 0, 66, 64
2, 32931, Note_on_c, 0, 54, 0
2, 32931, Note_on_c, 0, 57, 0
2, 32939, Note_on_c, 0, 59, 64
2, 32939, Note_on_c, 0, 50, 64
2, 32961, Note_on_c, 0, 66, 0
2, 32969, Note_on_c, 0, 65, 64
2, 32991, Note_on_c, 0, 50, 0
2, 32991, Note_on_c, 0, 59, 0
2, 32999, Note_on_c, 0, 61, 64
2, 32999, Note_on_c, 0, 45, 64
2, 33025, Note_on_c, 0, 65, 0
2, 33029, Note_on_c, 0, 66, 64
2, 33051, Note_on_c, 0, 45, 0
2, 33051, Note_on_c, 0, 61, 0
2, 33059, Note_on_c, 0, 62, 64
2, 33059, Note_on_c, 0, 47, 64
2, 33081, Note_on_c, 0, 66, 0
2, 33089, Note_on_c, 0, 68, 64
2, 33111, Note_on_c, 0, 47, 0
2, 33111, Note_on_c, 0, 62, 0
2, 33115, Note_on_c, 0, 68, 0
2, 33119, Note_on_c, 0, 61, 64
2, 33119, Note_on_c, 0, 57, 64
2, 33119, Note_on_c, 0, 49, 64
2, 33171, Note_on_c, 0, 61, 0
2, 33179, Note_on_c, 0, 66, 64
2, 33224, Note_on_c, 0, 49, 0
2, 33224, Note_on_c, 0, 57, 0
2, 33239, Note_on_c, 0, 56, 64
2, 33239, Note_on_c, 0, 37, 64
2, 33291, Note_on_c, 0, 66, 0
2, 33299, Note_on_c, 0, 65, 64
2, 33344, Note_on_c, 0, 37, 0
2, 33344, Note_on_c, 0, 56, 0
2, 33351, Note_on_c, 0, 65, 0
2, 33359, Note_on_c, 0, 66, 64
2, 33359, Note_on_c, 0, 54, 64
2, 33359, Note_on_c, 0, 42, 64
2, 33584, Note_on_c, 0, 42, 0
2, 33584, Note_on_c, 0, 54, 0
2, 33584, Note_on_c, 0, 66, 0
2, 33584, End_track
0, 0, End_of_file
