0, 0, Header, 1, 4, 120
1, 0, Start_track
1, 0, Time_signature, 3, 2, 24, 8
1, 0, Key_signature, 1, "major"
1, 0, Tempo, 504202
1, 0, Marker_t, "(c) Yo Tomita, 1997"
1, 0, End_track
2, 0, Start_track
2, 0, MIDI_port, 0
2, 0, Title_t, "BWV 884/1"
2, 0, Program_c, 0, 6
2, 0, Note_on_c, 0, 67, 64
2, 26, Note_on_c, 0, 67, 0
2, 30, Note_on_c, 0, 74, 64
2, 56, Note_on_c, 0, 74, 0
2, 60, Note_on_c, 0, 66, 64
2, 86, Note_on_c, 0, 66, 0
2, 90, Note_on_c, 0, 74, 64
2, 116, Note_on_c, 0, 74, 0
2, 120, Note_on_c, 0, 67, 64
2, 146, Note_on_c, 0, 67, 0
2, 150, Note_on_c, 0, 74, 64
2, 176, Note_on_c, 0, 74, 0
2, 180, Note_on_c, 0, 69, 64
2, 206, Note_on_c, 0, 69, 0
2, 210, Note_on_c, 0, 74, 64
2, 236, Note_on_c, 0, 74, 0
2, 240, Note_on_c, 0, 71, 64
2, 266, Note_on_c, 0, 71, 0
2, 270, Note_on_c, 0, 74, 64
2, 296, Note_on_c, 0, 74, 0
2, 300, Note_on_c, 0, 72, 64
2, 326, Note_on_c, 0, 72, 0
2, 330, Note_on_c, 0, 74, 64
2, 356, Note_on_c, 0, 74, 0
2, 360, Note_on_c, 0, 71, 64
2, 386, Note_on_c, 0, 71, 0
2, 390, Note_on_c, 0, 74, 64
2, 416, Note_on_c, 0, 74, 0
2, 420, Note_on_c, 0, 69, 64
2, 446, Note_on_c, 0, 69, 0
2, 450, Note_on_c, 0, 74, 64
2, 476, Note_on_c, 0, 74, 0
2, 480, Note_on_c, 0, 67, 64
2, 506, Note_on_c, 0, 67, 0
2, 510, Note_on_c, 0, 74, 64
2, 536, Note_on_c, 0, 74, 0
2, 540, Note_on_c, 0, 72, 64
2, 566, Note_on_c, 0, 72, 0
2, 570, Note_on_c, 0, 74, 64
2, 596, Note_on_c, 0, 74, 0
2, 600, Note_on_c, 0, 71, 64
2, 626, Note_on_c, 0, 71, 0
2, 630, Note_on_c, 0, 74, 64
2, 656, Note_on_c, 0, 74, 0
2, 660, Note_on_c, 0, 69, 64
2, 686, Note_on_c, 0, 69, 0
2, 690, Note_on_c, 0, 74, 64
2, 716, Note_on_c, 0, 74, 0
2, 720, Note_on_c, 0, 71, 64
2, 746, Note_on_c, 0, 71, 0
2, 750, Note_on_c, 0, 74, 64
2, 776, Note_on_c, 0, 74, 0
2, 780, Note_on_c, 0, 69, 64
2, 806, Note_on_c, 0, 69, 0
2, 810, Note_on_c, 0, 74, 64
2, 836, Note_on_c, 0, 74, 0
2, 840, Note_on_c, 0, 67, 64
2, 866, Note_on_c, 0, 67, 0
2, 870, Note_on_c, 0, 74, 64
2, 896, Note_on_c, 0, 74, 0
2, 900, Note_on_c, 0, 71, 64
2, 926, Note_on_c, 0, 71, 0
2, 930, Note_on_c, 0, 74, 64
2, 956, Note_on_c, 0, 74, 0
2, 960, Note_on_c, 0, 69, 64
2, 986, Note_on_c, 0, 69, 0
2, 990, Note_on_c, 0, 74, 64
2, 1016, Note_on_c, 0, 74, 0
2, 1020, Note_on_c, 0, 67, 64
2, 1046, Note_on_c, 0, 67, 0
2, 1050, Note_on_c, 0, 74, 64
2, 2212, Note_on_c, 0, 74, 0
2, 2220, Note_on_c, 0, 71, 64
2, 2272, Note_on_c, 0, 71, 0
2, 2280, Note_on_c, 0, 72, 64
2, 2332, Note_on_c, 0, 72, 0
2, 2340, Note_on_c, 0, 74, 64
2, 2392, Note_on_c, 0, 74, 0
2, 2400, Note_on_c, 0, 76, 64
2, 2452, Note_on_c, 0, 76, 0
2, 2460, Note_on_c, 0, 78, 64
2, 2512, Note_on_c, 0, 78, 0
2, 2520, Note_on_c, 0, 67, 64
2, 2546, Note_on_c, 0, 67, 0
2, 2550, Note_on_c, 0, 79, 64
2, 2576, Note_on_c, 0, 79, 0
2, 2580, Note_on_c, 0, 78, 64
2, 2606, Note_on_c, 0, 78, 0
2, 2610, Note_on_c, 0, 79, 64
2, 2636, Note_on_c, 0, 79, 0
2, 2640, Note_on_c, 0, 67, 64
2, 2666, Note_on_c, 0, 67, 0
2, 2670, Note_on_c, 0, 79, 64
2, 2696, Note_on_c, 0, 79, 0
2, 2700, Note_on_c, 0, 69, 64
2, 2726, Note_on_c, 0, 69, 0
2, 2730, Note_on_c, 0, 79, 64
2, 2756, Note_on_c, 0, 79, 0
2, 2760, Note_on_c, 0, 71, 64
2, 2786, Note_on_c, 0, 71, 0
2, 2790, Note_on_c, 0, 79, 64
2, 2816, Note_on_c, 0, 79, 0
2, 2820, Note_on_c, 0, 73, 64
2, 2846, Note_on_c, 0, 73, 0
2, 2850, Note_on_c, 0, 79, 64
2, 2876, Note_on_c, 0, 79, 0
2, 2880, Note_on_c, 0, 78, 64
2, 2906, Note_on_c, 0, 78, 0
2, 2910, Note_on_c, 0, 74, 64
2, 2936, Note_on_c, 0, 74, 0
2, 2940, Note_on_c, 0, 73, 64
2, 2966, Note_on_c, 0, 73, 0
2, 2970, Note_on_c, 0, 74, 64
2, 2996, Note_on_c, 0, 74, 0
2, 3000, Note_on_c, 0, 83, 64
2, 3026, Note_on_c, 0, 83, 0
2, 3030, Note_on_c, 0, 71, 64
2, 3056, Note_on_c, 0, 71, 0
2, 3060, Note_on_c, 0, 81, 64
2, 3086, Note_on_c, 0, 81, 0
2, 3090, Note_on_c, 0, 71, 64
2, 3116, Note_on_c, 0, 71, 0
2, 3120, Note_on_c, 0, 79, 64
2, 3146, Note_on_c, 0, 79, 0
2, 3150, Note_on_c, 0, 71, 64
2, 3176, Note_on_c, 0, 71, 0
2, 3180, Note_on_c, 0, 78, 64
2, 3206, Note_on_c, 0, 78, 0
2, 3210, Note_on_c, 0, 71, 64
2, 3236, Note_on_c, 0, 71, 0
2, 3240, Note_on_c, 0, 76, 64
2, 3266, Note_on_c, 0, 76, 0
2, 3270, Note_on_c, 0, 73, 64
2, 3296, Note_on_c, 0, 73, 0
2, 3300, Note_on_c, 0, 71, 64
2, 3326, Note_on_c, 0, 71, 0
2, 3330, Note_on_c, 0, 73, 64
2, 3356, Note_on_c, 0, 73, 0
2, 3360, Note_on_c, 0, 81, 64
2, 3386, Note_on_c, 0, 81, 0
2, 3390, Note_on_c, 0, 69, 64
2, 3416, Note_on_c, 0, 69, 0
2, 3420, Note_on_c, 0, 79, 64
2, 3446, Note_on_c, 0, 79, 0
2, 3450, Note_on_c, 0, 69, 64
2, 3476, Note_on_c, 0, 69, 0
2, 3480, Note_on_c, 0, 78, 64
2, 3506, Note_on_c, 0, 78, 0
2, 3510, Note_on_c, 0, 69, 64
2, 3536, Note_on_c, 0, 69, 0
2, 3540, Note_on_c, 0, 76, 64
2, 3566, Note_on_c, 0, 76, 0
2, 3570, Note_on_c, 0, 69, 64
2, 3596, Note_on_c, 0, 69, 0
2, 3600, Note_on_c, 0, 74, 64
2, 3626, Note_on_c, 0, 74, 0
2, 3630, Note_on_c, 0, 71, 64
2, 3656, Note_on_c, 0, 71, 0
2, 3660, Note_on_c, 0, 69, 64
2, 3686, Note_on_c, 0, 69, 0
2, 3690, Note_on_c, 0, 71, 64
2, 3716, Note_on_c, 0, 71, 0
2, 3720, Note_on_c, 0, 79, 64
2, 3746, Note_on_c, 0, 79, 0
2, 3750, Note_on_c, 0, 67, 64
2, 3776, Note_on_c, 0, 67, 0
2, 3780, Note_on_c, 0, 78, 64
2, 3806, Note_on_c, 0, 78, 0
2, 3810, Note_on_c, 0, 67, 64
2, 3836, Note_on_c, 0, 67, 0
2, 3840, Note_on_c, 0, 76, 64
2, 3866, Note_on_c, 0, 76, 0
2, 3870, Note_on_c, 0, 67, 64
2, 3896, Note_on_c, 0, 67, 0
2, 3900, Note_on_c, 0, 74, 64
2, 3926, Note_on_c, 0, 74, 0
2, 3930, Note_on_c, 0, 67, 64
2, 3956, Note_on_c, 0, 67, 0
2, 3960, Note_on_c, 0, 73, 64
2, 3986, Note_on_c, 0, 73, 0
2, 3990, Note_on_c, 0, 67, 64
2, 4016, Note_on_c, 0, 67, 0
2, 4020, Note_on_c, 0, 74, 64
2, 4046, Note_on_c, 0, 74, 0
2, 4050, Note_on_c, 0, 67, 64
2, 4076, Note_on_c, 0, 67, 0
2, 4080, Note_on_c, 0, 76, 64
2, 4106, Note_on_c, 0, 76, 0
2, 4110, Note_on_c, 0, 67, 64
2, 4136, Note_on_c, 0, 67, 0
2, 4140, Note_on_c, 0, 74, 64
2, 4166, Note_on_c, 0, 74, 0
2, 4170, Note_on_c, 0, 67, 64
2, 4196, Note_on_c, 0, 67, 0
2, 4200, Note_on_c, 0, 73, 64
2, 4226, Note_on_c, 0, 73, 0
2, 4230, Note_on_c, 0, 67, 64
2, 4256, Note_on_c, 0, 67, 0
2, 4260, Note_on_c, 0, 71, 64
2, 4286, Note_on_c, 0, 71, 0
2, 4290, Note_on_c, 0, 67, 64
2, 4316, Note_on_c, 0, 67, 0
2, 4320, Note_on_c, 0, 69, 64
2, 4346, Note_on_c, 0, 69, 0
2, 4350, Note_on_c, 0, 67, 64
2, 4376, Note_on_c, 0, 67, 0
2, 4380, Note_on_c, 0, 66, 64
2, 4406, Note_on_c, 0, 66, 0
2, 4410, Note_on_c, 0, 64, 64
2, 4436, Note_on_c, 0, 64, 0
2, 4440, Note_on_c, 0, 66, 64
2, 4492, Note_on_c, 0, 66, 0
2, 4500, Note_on_c, 0, 74, 64
2, 4552, Note_on_c, 0, 74, 0
2, 4560, Note_on_c, 0, 64, 64
2, 4612, Note_on_c, 0, 64, 0
2, 4620, Note_on_c, 0, 73, 64
2, 4672, Note_on_c, 0, 73, 0
2, 4680, Note_on_c, 0, 62, 64
2, 4706, Note_on_c, 0, 62, 0
2, 4710, Note_on_c, 0, 64, 64
2, 4736, Note_on_c, 0, 64, 0
2, 4740, Note_on_c, 0, 65, 64
2, 4766, Note_on_c, 0, 65, 0
2, 4770, Note_on_c, 0, 62, 64
2, 4796, Note_on_c, 0, 62, 0
2, 4800, Note_on_c, 0, 68, 64
2, 4826, Note_on_c, 0, 68, 0
2, 4830, Note_on_c, 0, 62, 64
2, 4856, Note_on_c, 0, 62, 0
2, 4860, Note_on_c, 0, 69, 64
2, 4886, Note_on_c, 0, 69, 0
2, 4890, Note_on_c, 0, 62, 64
2, 4916, Note_on_c, 0, 62, 0
2, 4920, Note_on_c, 0, 71, 64
2, 4946, Note_on_c, 0, 71, 0
2, 4950, Note_on_c, 0, 62, 64
2, 4976, Note_on_c, 0, 62, 0
2, 4980, Note_on_c, 0, 61, 64
2, 5006, Note_on_c, 0, 61, 0
2, 5010, Note_on_c, 0, 59, 64
2, 5036, Note_on_c, 0, 59, 0
2, 5040, Note_on_c, 0, 61, 64
2, 5066, Note_on_c, 0, 61, 0
2, 5070, Note_on_c, 0, 64, 64
2, 5096, Note_on_c, 0, 64, 0
2, 5100, Note_on_c, 0, 69, 64
2, 5212, Note_on_c, 0, 69, 0
2, 5220, Note_on_c, 0, 67, 64
2, 5246, Note_on_c, 0, 67, 0
2, 5250, Note_on_c, 0, 66, 64
2, 5276, Note_on_c, 0, 66, 0
2, 5280, Note_on_c, 0, 67, 64
2, 5306, Note_on_c, 0, 67, 0
2, 5310, Note_on_c, 0, 66, 64
2, 5336, Note_on_c, 0, 66, 0
2, 5340, Note_on_c, 0, 64, 64
2, 5366, Note_on_c, 0, 64, 0
2, 5370, Note_on_c, 0, 66, 64
2, 5396, Note_on_c, 0, 66, 0
2, 5400, Note_on_c, 0, 62, 64
2, 5452, Note_on_c, 0, 62, 0
2, 5460, Note_on_c, 0, 61, 64
2, 5486, Note_on_c, 0, 61, 0
2, 5490, Note_on_c, 0, 59, 64
2, 5516, Note_on_c, 0, 59, 0
2, 5520, Note_on_c, 0, 57, 64
2, 5546, Note_on_c, 0, 57, 0
2, 5550, Note_on_c, 0, 55, 64
2, 5576, Note_on_c, 0, 55, 0
2, 5580, Note_on_c, 0, 54, 64
2, 5606, Note_on_c, 0, 54, 0
2, 5610, Note_on_c, 0, 52, 64
2, 5636, Note_on_c, 0, 52, 0
2, 5640, Note_on_c, 0, 50, 64
2, 5745, Note_on_c, 0, 50, 0
2, 5760, Note_on_c, 0, 67, 64
2, 5786, Note_on_c, 0, 67, 0
2, 5790, Note_on_c, 0, 74, 64
2, 5816, Note_on_c, 0, 74, 0
2, 5820, Note_on_c, 0, 66, 64
2, 5846, Note_on_c, 0, 66, 0
2, 5850, Note_on_c, 0, 74, 64
2, 5876, Note_on_c, 0, 74, 0
2, 5880, Note_on_c, 0, 67, 64
2, 5906, Note_on_c, 0, 67, 0
2, 5910, Note_on_c, 0, 74, 64
2, 5936, Note_on_c, 0, 74, 0
2, 5940, Note_on_c, 0, 69, 64
2, 5966, Note_on_c, 0, 69, 0
2, 5970, Note_on_c, 0, 74, 64
2, 5996, Note_on_c, 0, 74, 0
2, 6000, Note_on_c, 0, 71, 64
2, 6026, Note_on_c, 0, 71, 0
2, 6030, Note_on_c, 0, 74, 64
2, 6056, Note_on_c, 0, 74, 0
2, 6060, Note_on_c, 0, 72, 64
2, 6086, Note_on_c, 0, 72, 0
2, 6090, Note_on_c, 0, 74, 64
2, 6116, Note_on_c, 0, 74, 0
2, 6120, Note_on_c, 0, 71, 64
2, 6146, Note_on_c, 0, 71, 0
2, 6150, Note_on_c, 0, 74, 64
2, 6176, Note_on_c, 0, 74, 0
2, 6180, Note_on_c, 0, 69, 64
2, 6206, Note_on_c, 0, 69, 0
2, 6210, Note_on_c, 0, 74, 64
2, 6236, Note_on_c, 0, 74, 0
2, 6240, Note_on_c, 0, 67, 64
2, 6266, Note_on_c, 0, 67, 0
2, 6270, Note_on_c, 0, 74, 64
2, 6296, Note_on_c, 0, 74, 0
2, 6300, Note_on_c, 0, 72, 64
2, 6326, Note_on_c, 0, 72, 0
2, 6330, Note_on_c, 0, 74, 64
2, 6356, Note_on_c, 0, 74, 0
2, 6360, Note_on_c, 0, 71, 64
2, 6386, Note_on_c, 0, 71, 0
2, 6390, Note_on_c, 0, 74, 64
2, 6416, Note_on_c, 0, 74, 0
2, 6420, Note_on_c, 0, 69, 64
2, 6446, Note_on_c, 0, 69, 0
2, 6450, Note_on_c, 0, 74, 64
2, 6476, Note_on_c, 0, 74, 0
2, 6480, Note_on_c, 0, 71, 64
2, 6506, Note_on_c, 0, 71, 0
2, 6510, Note_on_c, 0, 74, 64
2, 6536, Note_on_c, 0, 74, 0
2, 6540, Note_on_c, 0, 69, 64
2, 6566, Note_on_c, 0, 69, 0
2, 6570, Note_on_c, 0, 74, 64
2, 6596, Note_on_c, 0, 74, 0
2, 6600, Note_on_c, 0, 67, 64
2, 6626, Note_on_c, 0, 67, 0
2, 6630, Note_on_c, 0, 74, 64
2, 6656, Note_on_c, 0, 74, 0
2, 6660, Note_on_c, 0, 71, 64
2, 6686, Note_on_c, 0, 71, 0
2, 6690, Note_on_c, 0, 74, 64
2, 6716, Note_on_c, 0, 74, 0
2, 6720, Note_on_c, 0, 69, 64
2, 6746, Note_on_c, 0, 69, 0
2, 6750, Note_on_c, 0, 74, 64
2, 6776, Note_on_c, 0, 74, 0
2, 6780, Note_on_c, 0, 67, 64
2, 6806, Note_on_c, 0, 67, 0
2, 6810, Note_on_c, 0, 74, 64
2, 7972, Note_on_c, 0, 74, 0
2, 7980, Note_on_c, 0, 71, 64
2, 8032, Note_on_c, 0, 71, 0
2, 8040, Note_on_c, 0, 72, 64
2, 8092, Note_on_c, 0, 72, 0
2, 8100, Note_on_c, 0, 74, 64
2, 8152, Note_on_c, 0, 74, 0
2, 8160, Note_on_c, 0, 76, 64
2, 8212, Note_on_c, 0, 76, 0
2, 8220, Note_on_c, 0, 78, 64
2, 8272, Note_on_c, 0, 78, 0
2, 8280, Note_on_c, 0, 67, 64
2, 8306, Note_on_c, 0, 67, 0
2, 8310, Note_on_c, 0, 79, 64
2, 8336, Note_on_c, 0, 79, 0
2, 8340, Note_on_c, 0, 78, 64
2, 8366, Note_on_c, 0, 78, 0
2, 8370, Note_on_c, 0, 79, 64
2, 8396, Note_on_c, 0, 79, 0
2, 8400, Note_on_c, 0, 67, 64
2, 8426, Note_on_c, 0, 67, 0
2, 8430, Note_on_c, 0, 79, 64
2, 8456, Note_on_c, 0, 79, 0
2, 8460, Note_on_c, 0, 69, 64
2, 8486, Note_on_c, 0, 69, 0
2, 8490, Note_on_c, 0, 79, 64
2, 8516, Note_on_c, 0, 79, 0
2, 8520, Note_on_c, 0, 71, 64
2, 8546, Note_on_c, 0, 71, 0
2, 8550, Note_on_c, 0, 79, 64
2, 8576, Note_on_c, 0, 79, 0
2, 8580, Note_on_c, 0, 73, 64
2, 8606, Note_on_c, 0, 73, 0
2, 8610, Note_on_c, 0, 79, 64
2, 8636, Note_on_c, 0, 79, 0
2, 8640, Note_on_c, 0, 78, 64
2, 8666, Note_on_c, 0, 78, 0
2, 8670, Note_on_c, 0, 74, 64
2, 8696, Note_on_c, 0, 74, 0
2, 8700, Note_on_c, 0, 73, 64
2, 8726, Note_on_c, 0, 73, 0
2, 8730, Note_on_c, 0, 74, 64
2, 8756, Note_on_c, 0, 74, 0
2, 8760, Note_on_c, 0, 83, 64
2, 8786, Note_on_c, 0, 83, 0
2, 8790, Note_on_c, 0, 71, 64
2, 8816, Note_on_c, 0, 71, 0
2, 8820, Note_on_c, 0, 81, 64
2, 8846, Note_on_c, 0, 81, 0
2, 8850, Note_on_c, 0, 71, 64
2, 8876, Note_on_c, 0, 71, 0
2, 8880, Note_on_c, 0, 79, 64
2, 8906, Note_on_c, 0, 79, 0
2, 8910, Note_on_c, 0, 71, 64
2, 8936, Note_on_c, 0, 71, 0
2, 8940, Note_on_c, 0, 78, 64
2, 8966, Note_on_c, 0, 78, 0
2, 8970, Note_on_c, 0, 71, 64
2, 8996, Note_on_c, 0, 71, 0
2, 9000, Note_on_c, 0, 76, 64
2, 9026, Note_on_c, 0, 76, 0
2, 9030, Note_on_c, 0, 73, 64
2, 9056, Note_on_c, 0, 73, 0
2, 9060, Note_on_c, 0, 71, 64
2, 9086, Note_on_c, 0, 71, 0
2, 9090, Note_on_c, 0, 73, 64
2, 9116, Note_on_c, 0, 73, 0
2, 9120, Note_on_c, 0, 81, 64
2, 9146, Note_on_c, 0, 81, 0
2, 9150, Note_on_c, 0, 69, 64
2, 9176, Note_on_c, 0, 69, 0
2, 9180, Note_on_c, 0, 79, 64
2, 9206, Note_on_c, 0, 79, 0
2, 9210, Note_on_c, 0, 69, 64
2, 9236, Note_on_c, 0, 69, 0
2, 9240, Note_on_c, 0, 78, 64
2, 9266, Note_on_c, 0, 78, 0
2, 9270, Note_on_c, 0, 69, 64
2, 9296, Note_on_c, 0, 69, 0
2, 9300, Note_on_c, 0, 76, 64
2, 9326, Note_on_c, 0, 76, 0
2, 9330, Note_on_c, 0, 69, 64
2, 9356, Note_on_c, 0, 69, 0
2, 9360, Note_on_c, 0, 74, 64
2, 9386, Note_on_c, 0, 74, 0
2, 9390, Note_on_c, 0, 71, 64
2, 9416, Note_on_c, 0, 71, 0
2, 9420, Note_on_c, 0, 69, 64
2, 9446, Note_on_c, 0, 69, 0
2, 9450, Note_on_c, 0, 71, 64
2, 9476, Note_on_c, 0, 71, 0
2, 9480, Note_on_c, 0, 79, 64
2, 9506, Note_on_c, 0, 79, 0
2, 9510, Note_on_c, 0, 67, 64
2, 9536, Note_on_c, 0, 67, 0
2, 9540, Note_on_c, 0, 78, 64
2, 9566, Note_on_c, 0, 78, 0
2, 9570, Note_on_c, 0, 67, 64
2, 9596, Note_on_c, 0, 67, 0
2, 9600, Note_on_c, 0, 76, 64
2, 9626, Note_on_c, 0, 76, 0
2, 9630, Note_on_c, 0, 67, 64
2, 9656, Note_on_c, 0, 67, 0
2, 9660, Note_on_c, 0, 74, 64
2, 9686, Note_on_c, 0, 74, 0
2, 9690, Note_on_c, 0, 67, 64
2, 9716, Note_on_c, 0, 67, 0
2, 9720, Note_on_c, 0, 73, 64
2, 9746, Note_on_c, 0, 73, 0
2, 9750, Note_on_c, 0, 67, 64
2, 9776, Note_on_c, 0, 67, 0
2, 9780, Note_on_c, 0, 74, 64
2, 9806, Note_on_c, 0, 74, 0
2, 9810, Note_on_c, 0, 67, 64
2, 9836, Note_on_c, 0, 67, 0
2, 9840, Note_on_c, 0, 76, 64
2, 9866, Note_on_c, 0, 76, 0
2, 9870, Note_on_c, 0, 67, 64
2, 9896, Note_on_c, 0, 67, 0
2, 9900, Note_on_c, 0, 74, 64
2, 9926, Note_on_c, 0, 74, 0
2, 9930, Note_on_c, 0, 67, 64
2, 9956, Note_on_c, 0, 67, 0
2, 9960, Note_on_c, 0, 73, 64
2, 9986, Note_on_c, 0, 73, 0
2, 9990, Note_on_c, 0, 67, 64
2, 10016, Note_on_c, 0, 67, 0
2, 10020, Note_on_c, 0, 71, 64
2, 10046, Note_on_c, 0, 71, 0
2, 10050, Note_on_c, 0, 67, 64
2, 10076, Note_on_c, 0, 67, 0
2, 10080, Note_on_c, 0, 69, 64
2, 10106, Note_on_c, 0, 69, 0
2, 10110, Note_on_c, 0, 67, 64
2, 10136, Note_on_c, 0, 67, 0
2, 10140, Note_on_c, 0, 66, 64
2, 10166, Note_on_c, 0, 66, 0
2, 10170, Note_on_c, 0, 64, 64
2, 10196, Note_on_c, 0, 64, 0
2, 10200, Note_on_c, 0, 66, 64
2, 10252, Note_on_c, 0, 66, 0
2, 10260, Note_on_c, 0, 74, 64
2, 10312, Note_on_c, 0, 74, 0
2, 10320, Note_on_c, 0, 64, 64
2, 10372, Note_on_c, 0, 64, 0
2, 10380, Note_on_c, 0, 73, 64
2, 10432, Note_on_c, 0, 73, 0
2, 10440, Note_on_c, 0, 62, 64
2, 10466, Note_on_c, 0, 62, 0
2, 10470, Note_on_c, 0, 64, 64
2, 10496, Note_on_c, 0, 64, 0
2, 10500, Note_on_c, 0, 65, 64
2, 10526, Note_on_c, 0, 65, 0
2, 10530, Note_on_c, 0, 62, 64
2, 10556, Note_on_c, 0, 62, 0
2, 10560, Note_on_c, 0, 68, 64
2, 10586, Note_on_c, 0, 68, 0
2, 10590, Note_on_c, 0, 62, 64
2, 10616, Note_on_c, 0, 62, 0
2, 10620, Note_on_c, 0, 69, 64
2, 10646, Note_on_c, 0, 69, 0
2, 10650, Note_on_c, 0, 62, 64
2, 10676, Note_on_c, 0, 62, 0
2, 10680, Note_on_c, 0, 71, 64
2, 10706, Note_on_c, 0, 71, 0
2, 10710, Note_on_c, 0, 62, 64
2, 10736, Note_on_c, 0, 62, 0
2, 10740, Note_on_c, 0, 61, 64
2, 10766, Note_on_c, 0, 61, 0
2, 10770, Note_on_c, 0, 59, 64
2, 10796, Note_on_c, 0, 59, 0
2, 10800, Note_on_c, 0, 61, 64
2, 10826, Note_on_c, 0, 61, 0
2, 10830, Note_on_c, 0, 64, 64
2, 10856, Note_on_c, 0, 64, 0
2, 10860, Note_on_c, 0, 69, 64
2, 10972, Note_on_c, 0, 69, 0
2, 10980, Note_on_c, 0, 67, 64
2, 11006, Note_on_c, 0, 67, 0
2, 11010, Note_on_c, 0, 66, 64
2, 11036, Note_on_c, 0, 66, 0
2, 11040, Note_on_c, 0, 67, 64
2, 11066, Note_on_c, 0, 67, 0
2, 11070, Note_on_c, 0, 66, 64
2, 11096, Note_on_c, 0, 66, 0
2, 11100, Note_on_c, 0, 64, 64
2, 11126, Note_on_c, 0, 64, 0
2, 11130, Note_on_c, 0, 66, 64
2, 11156, Note_on_c, 0, 66, 0
2, 11160, Note_on_c, 0, 62, 64
2, 11212, Note_on_c, 0, 62, 0
2, 11220, Note_on_c, 0, 61, 64
2, 11246, Note_on_c, 0, 61, 0
2, 11250, Note_on_c, 0, 59, 64
2, 11276, Note_on_c, 0, 59, 0
2, 11280, Note_on_c, 0, 57, 64
2, 11306, Note_on_c, 0, 57, 0
2, 11310, Note_on_c, 0, 55, 64
2, 11336, Note_on_c, 0, 55, 0
2, 11340, Note_on_c, 0, 54, 64
2, 11366, Note_on_c, 0, 54, 0
2, 11370, Note_on_c, 0, 52, 64
2, 11396, Note_on_c, 0, 52, 0
2, 11400, Note_on_c, 0, 50, 64
2, 11505, Note_on_c, 0, 50, 0
2, 11520, Note_on_c, 0, 66, 64
2, 11546, Note_on_c, 0, 66, 0
2, 11550, Note_on_c, 0, 62, 64
2, 11576, Note_on_c, 0, 62, 0
2, 11580, Note_on_c, 0, 64, 64
2, 11606, Note_on_c, 0, 64, 0
2, 11610, Note_on_c, 0, 62, 64
2, 11636, Note_on_c, 0, 62, 0
2, 11640, Note_on_c, 0, 66, 64
2, 11666, Note_on_c, 0, 66, 0
2, 11670, Note_on_c, 0, 62, 64
2, 11696, Note_on_c, 0, 62, 0
2, 11700, Note_on_c, 0, 67, 64
2, 11726, Note_on_c, 0, 67, 0
2, 11730, Note_on_c, 0, 62, 64
2, 11756, Note_on_c, 0, 62, 0
2, 11760, Note_on_c, 0, 69, 64
2, 11786, Note_on_c, 0, 69, 0
2, 11790, Note_on_c, 0, 62, 64
2, 11816, Note_on_c, 0, 62, 0
2, 11820, Note_on_c, 0, 67, 64
2, 11846, Note_on_c, 0, 67, 0
2, 11850, Note_on_c, 0, 62, 64
2, 11876, Note_on_c, 0, 62, 0
2, 11880, Note_on_c, 0, 66, 64
2, 11906, Note_on_c, 0, 66, 0
2, 11910, Note_on_c, 0, 62, 64
2, 11936, Note_on_c, 0, 62, 0
2, 11940, Note_on_c, 0, 64, 64
2, 11966, Note_on_c, 0, 64, 0
2, 11970, Note_on_c, 0, 62, 64
2, 11996, Note_on_c, 0, 62, 0
2, 12000, Note_on_c, 0, 66, 64
2, 12026, Note_on_c, 0, 66, 0
2, 12030, Note_on_c, 0, 62, 64
2, 12056, Note_on_c, 0, 62, 0
2, 12060, Note_on_c, 0, 67, 64
2, 12086, Note_on_c, 0, 67, 0
2, 12090, Note_on_c, 0, 62, 64
2, 12116, Note_on_c, 0, 62, 0
2, 12120, Note_on_c, 0, 69, 64
2, 12146, Note_on_c, 0, 69, 0
2, 12150, Note_on_c, 0, 62, 64
2, 12176, Note_on_c, 0, 62, 0
2, 12180, Note_on_c, 0, 66, 64
2, 12206, Note_on_c, 0, 66, 0
2, 12210, Note_on_c, 0, 62, 64
2, 12236, Note_on_c, 0, 62, 0
2, 12240, Note_on_c, 0, 67, 64
2, 12266, Note_on_c, 0, 67, 0
2, 12270, Note_on_c, 0, 62, 64
2, 12296, Note_on_c, 0, 62, 0
2, 12300, Note_on_c, 0, 66, 64
2, 12326, Note_on_c, 0, 66, 0
2, 12330, Note_on_c, 0, 62, 64
2, 12356, Note_on_c, 0, 62, 0
2, 12360, Note_on_c, 0, 67, 64
2, 12386, Note_on_c, 0, 67, 0
2, 12390, Note_on_c, 0, 62, 64
2, 12416, Note_on_c, 0, 62, 0
2, 12420, Note_on_c, 0, 71, 64
2, 12446, Note_on_c, 0, 71, 0
2, 12450, Note_on_c, 0, 62, 64
2, 12476, Note_on_c, 0, 62, 0
2, 12480, Note_on_c, 0, 69, 64
2, 12506, Note_on_c, 0, 69, 0
2, 12510, Note_on_c, 0, 62, 64
2, 12536, Note_on_c, 0, 62, 0
2, 12540, Note_on_c, 0, 72, 64
2, 12566, Note_on_c, 0, 72, 0
2, 12570, Note_on_c, 0, 62, 64
2, 12596, Note_on_c, 0, 62, 0
2, 12600, Note_on_c, 0, 71, 64
2, 12652, Note_on_c, 0, 71, 0
2, 12660, Note_on_c, 0, 69, 64
2, 12712, Note_on_c, 0, 69, 0
2, 12720, Note_on_c, 0, 67, 64
2, 12772, Note_on_c, 0, 67, 0
2, 12780, Note_on_c, 0, 69, 64
2, 12832, Note_on_c, 0, 69, 0
2, 12840, Note_on_c, 0, 71, 64
2, 12892, Note_on_c, 0, 71, 0
2, 12900, Note_on_c, 0, 72, 64
2, 12952, Note_on_c, 0, 72, 0
2, 12960, Note_on_c, 0, 74, 64
2, 13012, Note_on_c, 0, 74, 0
2, 13020, Note_on_c, 0, 72, 64
2, 13072, Note_on_c, 0, 72, 0
2, 13080, Note_on_c, 0, 74, 64
2, 13132, Note_on_c, 0, 74, 0
2, 13140, Note_on_c, 0, 76, 64
2, 13192, Note_on_c, 0, 76, 0
2, 13200, Note_on_c, 0, 77, 64
2, 13252, Note_on_c, 0, 77, 0
2, 13260, Note_on_c, 0, 74, 64
2, 13312, Note_on_c, 0, 74, 0
2, 13320, Note_on_c, 0, 76, 64
2, 13372, Note_on_c, 0, 76, 0
2, 13380, Note_on_c, 0, 79, 64
2, 13432, Note_on_c, 0, 79, 0
2, 13440, Note_on_c, 0, 76, 64
2, 13492, Note_on_c, 0, 76, 0
2, 13500, Note_on_c, 0, 72, 64
2, 13552, Note_on_c, 0, 72, 0
2, 13560, Note_on_c, 0, 74, 64
2, 13612, Note_on_c, 0, 74, 0
2, 13620, Note_on_c, 0, 71, 64
2, 13672, Note_on_c, 0, 71, 0
2, 13680, Note_on_c, 0, 72, 64
2, 13706, Note_on_c, 0, 72, 0
2, 13710, Note_on_c, 0, 76, 64
2, 13736, Note_on_c, 0, 76, 0
2, 13740, Note_on_c, 0, 75, 64
2, 13766, Note_on_c, 0, 75, 0
2, 13770, Note_on_c, 0, 76, 64
2, 13796, Note_on_c, 0, 76, 0
2, 13800, Note_on_c, 0, 81, 64
2, 13826, Note_on_c, 0, 81, 0
2, 13830, Note_on_c, 0, 72, 64
2, 13856, Note_on_c, 0, 72, 0
2, 13860, Note_on_c, 0, 79, 64
2, 13886, Note_on_c, 0, 79, 0
2, 13890, Note_on_c, 0, 72, 64
2, 13916, Note_on_c, 0, 72, 0
2, 13920, Note_on_c, 0, 78, 64
2, 13946, Note_on_c, 0, 78, 0
2, 13950, Note_on_c, 0, 72, 64
2, 13976, Note_on_c, 0, 72, 0
2, 13980, Note_on_c, 0, 76, 64
2, 14006, Note_on_c, 0, 76, 0
2, 14010, Note_on_c, 0, 72, 64
2, 14036, Note_on_c, 0, 72, 0
2, 14040, Note_on_c, 0, 75, 64
2, 14066, Note_on_c, 0, 75, 0
2, 14070, Note_on_c, 0, 71, 64
2, 14096, Note_on_c, 0, 71, 0
2, 14100, Note_on_c, 0, 70, 64
2, 14126, Note_on_c, 0, 70, 0
2, 14130, Note_on_c, 0, 71, 64
2, 14156, Note_on_c, 0, 71, 0
2, 14160, Note_on_c, 0, 79, 64
2, 14186, Note_on_c, 0, 79, 0
2, 14190, Note_on_c, 0, 71, 64
2, 14216, Note_on_c, 0, 71, 0
2, 14220, Note_on_c, 0, 78, 64
2, 14246, Note_on_c, 0, 78, 0
2, 14250, Note_on_c, 0, 71, 64
2, 14276, Note_on_c, 0, 71, 0
2, 14280, Note_on_c, 0, 76, 64
2, 14306, Note_on_c, 0, 76, 0
2, 14310, Note_on_c, 0, 71, 64
2, 14336, Note_on_c, 0, 71, 0
2, 14340, Note_on_c, 0, 74, 64
2, 14366, Note_on_c, 0, 74, 0
2, 14370, Note_on_c, 0, 71, 64
2, 14396, Note_on_c, 0, 71, 0
2, 14400, Note_on_c, 0, 72, 64
2, 14426, Note_on_c, 0, 72, 0
2, 14430, Note_on_c, 0, 69, 64
2, 14456, Note_on_c, 0, 69, 0
2, 14460, Note_on_c, 0, 67, 64
2, 14486, Note_on_c, 0, 67, 0
2, 14490, Note_on_c, 0, 69, 64
2, 14516, Note_on_c, 0, 69, 0
2, 14520, Note_on_c, 0, 66, 64
2, 14546, Note_on_c, 0, 66, 0
2, 14550, Note_on_c, 0, 69, 64
2, 14576, Note_on_c, 0, 69, 0
2, 14580, Note_on_c, 0, 64, 64
2, 14606, Note_on_c, 0, 64, 0
2, 14610, Note_on_c, 0, 69, 64
2, 14636, Note_on_c, 0, 69, 0
2, 14640, Note_on_c, 0, 63, 64
2, 14666, Note_on_c, 0, 63, 0
2, 14670, Note_on_c, 0, 69, 64
2, 14696, Note_on_c, 0, 69, 0
2, 14700, Note_on_c, 0, 64, 64
2, 14726, Note_on_c, 0, 64, 0
2, 14730, Note_on_c, 0, 69, 64
2, 14756, Note_on_c, 0, 69, 0
2, 14760, Note_on_c, 0, 66, 64
2, 14812, Note_on_c, 0, 66, 0
2, 14820, Note_on_c, 0, 75, 64
2, 14872, Note_on_c, 0, 75, 0
2, 14880, Note_on_c, 0, 76, 64
2, 14932, Note_on_c, 0, 76, 0
2, 14940, Note_on_c, 0, 78, 64
2, 14992, Note_on_c, 0, 78, 0
2, 15000, Note_on_c, 0, 79, 64
2, 15052, Note_on_c, 0, 79, 0
2, 15060, Note_on_c, 0, 75, 64
2, 15112, Note_on_c, 0, 75, 0
2, 15120, Note_on_c, 0, 76, 64
2, 15146, Note_on_c, 0, 76, 0
2, 15150, Note_on_c, 0, 71, 64
2, 15176, Note_on_c, 0, 71, 0
2, 15180, Note_on_c, 0, 72, 64
2, 15206, Note_on_c, 0, 72, 0
2, 15210, Note_on_c, 0, 69, 64
2, 15236, Note_on_c, 0, 69, 0
2, 15240, Note_on_c, 0, 67, 64
2, 15292, Note_on_c, 0, 67, 0
2, 15300, Note_on_c, 0, 76, 64
2, 15352, Note_on_c, 0, 76, 0
2, 15360, Note_on_c, 0, 66, 64
2, 15412, Note_on_c, 0, 66, 0
2, 15420, Note_on_c, 0, 75, 64
2, 15472, Note_on_c, 0, 75, 0
2, 15480, Note_on_c, 0, 76, 64
2, 15506, Note_on_c, 0, 76, 0
2, 15510, Note_on_c, 0, 71, 64
2, 15536, Note_on_c, 0, 71, 0
2, 15540, Note_on_c, 0, 67, 64
2, 15566, Note_on_c, 0, 67, 0
2, 15570, Note_on_c, 0, 71, 64
2, 15596, Note_on_c, 0, 71, 0
2, 15600, Note_on_c, 0, 64, 64
2, 15746, Note_on_c, 0, 64, 0
2, 15750, Note_on_c, 0, 67, 64
2, 15776, Note_on_c, 0, 67, 0
2, 15780, Note_on_c, 0, 71, 64
2, 15806, Note_on_c, 0, 71, 0
2, 15810, Note_on_c, 0, 74, 64
2, 15836, Note_on_c, 0, 74, 0
2, 15840, Note_on_c, 0, 73, 64
2, 15892, Note_on_c, 0, 73, 0
2, 15900, Note_on_c, 0, 69, 64
2, 15952, Note_on_c, 0, 69, 0
2, 15960, Note_on_c, 0, 73, 64
2, 16012, Note_on_c, 0, 73, 0
2, 16020, Note_on_c, 0, 76, 64
2, 16072, Note_on_c, 0, 76, 0
2, 16080, Note_on_c, 0, 81, 64
2, 16132, Note_on_c, 0, 81, 0
2, 16140, Note_on_c, 0, 79, 64
2, 16192, Note_on_c, 0, 79, 0
2, 16200, Note_on_c, 0, 78, 64
2, 16252, Note_on_c, 0, 78, 0
2, 16260, Note_on_c, 0, 81, 64
2, 16312, Note_on_c, 0, 81, 0
2, 16320, Note_on_c, 0, 78, 64
2, 16372, Note_on_c, 0, 78, 0
2, 16380, Note_on_c, 0, 74, 64
2, 16432, Note_on_c, 0, 74, 0
2, 16440, Note_on_c, 0, 69, 64
2, 16492, Note_on_c, 0, 69, 0
2, 16500, Note_on_c, 0, 72, 64
2, 16552, Note_on_c, 0, 72, 0
2, 16560, Note_on_c, 0, 71, 64
2, 16612, Note_on_c, 0, 71, 0
2, 16620, Note_on_c, 0, 67, 64
2, 16672, Note_on_c, 0, 67, 0
2, 16680, Note_on_c, 0, 71, 64
2, 16732, Note_on_c, 0, 71, 0
2, 16740, Note_on_c, 0, 74, 64
2, 16792, Note_on_c, 0, 74, 0
2, 16800, Note_on_c, 0, 79, 64
2, 16852, Note_on_c, 0, 79, 0
2, 16860, Note_on_c, 0, 77, 64
2, 16912, Note_on_c, 0, 77, 0
2, 16920, Note_on_c, 0, 76, 64
2, 17066, Note_on_c, 0, 76, 0
2, 17070, Note_on_c, 0, 74, 64
2, 17096, Note_on_c, 0, 74, 0
2, 17100, Note_on_c, 0, 72, 64
2, 17126, Note_on_c, 0, 72, 0
2, 17130, Note_on_c, 0, 71, 64
2, 17156, Note_on_c, 0, 71, 0
2, 17160, Note_on_c, 0, 69, 64
2, 17186, Note_on_c, 0, 69, 0
2, 17190, Note_on_c, 0, 67, 64
2, 17216, Note_on_c, 0, 67, 0
2, 17220, Note_on_c, 0, 66, 64
2, 17246, Note_on_c, 0, 66, 0
2, 17250, Note_on_c, 0, 64, 64
2, 17276, Note_on_c, 0, 64, 0
2, 17280, Note_on_c, 0, 66, 64
2, 17332, Note_on_c, 0, 66, 0
2, 17340, Note_on_c, 0, 74, 64
2, 17426, Note_on_c, 0, 74, 0
2, 17430, Note_on_c, 0, 72, 64
2, 17456, Note_on_c, 0, 72, 0
2, 17460, Note_on_c, 0, 71, 64
2, 17486, Note_on_c, 0, 71, 0
2, 17490, Note_on_c, 0, 69, 64
2, 17516, Note_on_c, 0, 69, 0
2, 17520, Note_on_c, 0, 67, 64
2, 17546, Note_on_c, 0, 67, 0
2, 17550, Note_on_c, 0, 66, 64
2, 17576, Note_on_c, 0, 66, 0
2, 17580, Note_on_c, 0, 64, 64
2, 17606, Note_on_c, 0, 64, 0
2, 17610, Note_on_c, 0, 62, 64
2, 17636, Note_on_c, 0, 62, 0
2, 17640, Note_on_c, 0, 64, 64
2, 17692, Note_on_c, 0, 64, 0
2, 17700, Note_on_c, 0, 72, 64
2, 17786, Note_on_c, 0, 72, 0
2, 17790, Note_on_c, 0, 71, 64
2, 17816, Note_on_c, 0, 71, 0
2, 17820, Note_on_c, 0, 69, 64
2, 17846, Note_on_c, 0, 69, 0
2, 17850, Note_on_c, 0, 67, 64
2, 17876, Note_on_c, 0, 67, 0
2, 17880, Note_on_c, 0, 66, 64
2, 17906, Note_on_c, 0, 66, 0
2, 17910, Note_on_c, 0, 64, 64
2, 17936, Note_on_c, 0, 64, 0
2, 17940, Note_on_c, 0, 62, 64
2, 17966, Note_on_c, 0, 62, 0
2, 17970, Note_on_c, 0, 60, 64
2, 17996, Note_on_c, 0, 60, 0
2, 18000, Note_on_c, 0, 62, 64
2, 18026, Note_on_c, 0, 62, 0
2, 18030, Note_on_c, 0, 66, 64
2, 18056, Note_on_c, 0, 66, 0
2, 18060, Note_on_c, 0, 64, 64
2, 18086, Note_on_c, 0, 64, 0
2, 18090, Note_on_c, 0, 62, 64
2, 18116, Note_on_c, 0, 62, 0
2, 18120, Note_on_c, 0, 64, 64
2, 18146, Note_on_c, 0, 64, 0
2, 18150, Note_on_c, 0, 66, 64
2, 18176, Note_on_c, 0, 66, 0
2, 18180, Note_on_c, 0, 67, 64
2, 18206, Note_on_c, 0, 67, 0
2, 18210, Note_on_c, 0, 69, 64
2, 18236, Note_on_c, 0, 69, 0
2, 18240, Note_on_c, 0, 71, 64
2, 18266, Note_on_c, 0, 71, 0
2, 18270, Note_on_c, 0, 69, 64
2, 18296, Note_on_c, 0, 69, 0
2, 18300, Note_on_c, 0, 71, 64
2, 18326, Note_on_c, 0, 71, 0
2, 18330, Note_on_c, 0, 67, 64
2, 18356, Note_on_c, 0, 67, 0
2, 18360, Note_on_c, 0, 69, 64
2, 18386, Note_on_c, 0, 69, 0
2, 18390, Note_on_c, 0, 74, 64
2, 18416, Note_on_c, 0, 74, 0
2, 18420, Note_on_c, 0, 72, 64
2, 18446, Note_on_c, 0, 72, 0
2, 18450, Note_on_c, 0, 71, 64
2, 18476, Note_on_c, 0, 71, 0
2, 18480, Note_on_c, 0, 69, 64
2, 18506, Note_on_c, 0, 69, 0
2, 18510, Note_on_c, 0, 67, 64
2, 18536, Note_on_c, 0, 67, 0
2, 18540, Note_on_c, 0, 66, 64
2, 18566, Note_on_c, 0, 66, 0
2, 18570, Note_on_c, 0, 64, 64
2, 18596, Note_on_c, 0, 64, 0
2, 18600, Note_on_c, 0, 62, 64
2, 18746, Note_on_c, 0, 62, 0
2, 18750, Note_on_c, 0, 67, 64
2, 18776, Note_on_c, 0, 67, 0
2, 18780, Note_on_c, 0, 60, 64
2, 18806, Note_on_c, 0, 60, 0
2, 18810, Note_on_c, 0, 67, 64
2, 18836, Note_on_c, 0, 67, 0
2, 18840, Note_on_c, 0, 62, 64
2, 18866, Note_on_c, 0, 62, 0
2, 18870, Note_on_c, 0, 67, 64
2, 18896, Note_on_c, 0, 67, 0
2, 18900, Note_on_c, 0, 59, 64
2, 18926, Note_on_c, 0, 59, 0
2, 18930, Note_on_c, 0, 67, 64
2, 18956, Note_on_c, 0, 67, 0
2, 18960, Note_on_c, 0, 60, 64
2, 18986, Note_on_c, 0, 60, 0
2, 18990, Note_on_c, 0, 67, 64
2, 19016, Note_on_c, 0, 67, 0
2, 19020, Note_on_c, 0, 62, 64
2, 19046, Note_on_c, 0, 62, 0
2, 19050, Note_on_c, 0, 67, 64
2, 19076, Note_on_c, 0, 67, 0
2, 19080, Note_on_c, 0, 64, 64
2, 19106, Note_on_c, 0, 64, 0
2, 19110, Note_on_c, 0, 67, 64
2, 19136, Note_on_c, 0, 67, 0
2, 19140, Note_on_c, 0, 62, 64
2, 19166, Note_on_c, 0, 62, 0
2, 19170, Note_on_c, 0, 67, 64
2, 19196, Note_on_c, 0, 67, 0
2, 19200, Note_on_c, 0, 64, 64
2, 19226, Note_on_c, 0, 64, 0
2, 19230, Note_on_c, 0, 69, 64
2, 19256, Note_on_c, 0, 69, 0
2, 19260, Note_on_c, 0, 61, 64
2, 19286, Note_on_c, 0, 61, 0
2, 19290, Note_on_c, 0, 69, 64
2, 19316, Note_on_c, 0, 69, 0
2, 19320, Note_on_c, 0, 62, 64
2, 19346, Note_on_c, 0, 62, 0
2, 19350, Note_on_c, 0, 69, 64
2, 19376, Note_on_c, 0, 69, 0
2, 19380, Note_on_c, 0, 64, 64
2, 19406, Note_on_c, 0, 64, 0
2, 19410, Note_on_c, 0, 69, 64
2, 19436, Note_on_c, 0, 69, 0
2, 19440, Note_on_c, 0, 66, 64
2, 19466, Note_on_c, 0, 66, 0
2, 19470, Note_on_c, 0, 69, 64
2, 19496, Note_on_c, 0, 69, 0
2, 19500, Note_on_c, 0, 64, 64
2, 19526, Note_on_c, 0, 64, 0
2, 19530, Note_on_c, 0, 69, 64
2, 19556, Note_on_c, 0, 69, 0
2, 19560, Note_on_c, 0, 66, 64
2, 19586, Note_on_c, 0, 66, 0
2, 19590, Note_on_c, 0, 71, 64
2, 19616, Note_on_c, 0, 71, 0
2, 19620, Note_on_c, 0, 63, 64
2, 19646, Note_on_c, 0, 63, 0
2, 19650, Note_on_c, 0, 71, 64
2, 19676, Note_on_c, 0, 71, 0
2, 19680, Note_on_c, 0, 64, 64
2, 19706, Note_on_c, 0, 64, 0
2, 19710, Note_on_c, 0, 71, 64
2, 19736, Note_on_c, 0, 71, 0
2, 19740, Note_on_c, 0, 66, 64
2, 19766, Note_on_c, 0, 66, 0
2, 19770, Note_on_c, 0, 71, 64
2, 19796, Note_on_c, 0, 71, 0
2, 19800, Note_on_c, 0, 67, 64
2, 19826, Note_on_c, 0, 67, 0
2, 19830, Note_on_c, 0, 71, 64
2, 19856, Note_on_c, 0, 71, 0
2, 19860, Note_on_c, 0, 66, 64
2, 19886, Note_on_c, 0, 66, 0
2, 19890, Note_on_c, 0, 71, 64
2, 19916, Note_on_c, 0, 71, 0
2, 19920, Note_on_c, 0, 64, 64
2, 19972, Note_on_c, 0, 64, 0
2, 19980, Note_on_c, 0, 67, 64
2, 20032, Note_on_c, 0, 67, 0
2, 20040, Note_on_c, 0, 72, 64
2, 20186, Note_on_c, 0, 72, 0
2, 20190, Note_on_c, 0, 81, 64
2, 20216, Note_on_c, 0, 81, 0
2, 20220, Note_on_c, 0, 79, 64
2, 20246, Note_on_c, 0, 79, 0
2, 20250, Note_on_c, 0, 81, 64
2, 20276, Note_on_c, 0, 81, 0
2, 20280, Note_on_c, 0, 78, 64
2, 20306, Note_on_c, 0, 78, 0
2, 20310, Note_on_c, 0, 81, 64
2, 20336, Note_on_c, 0, 81, 0
2, 20340, Note_on_c, 0, 76, 64
2, 20366, Note_on_c, 0, 76, 0
2, 20370, Note_on_c, 0, 81, 64
2, 20396, Note_on_c, 0, 81, 0
2, 20400, Note_on_c, 0, 74, 64
2, 20426, Note_on_c, 0, 74, 0
2, 20430, Note_on_c, 0, 81, 64
2, 20456, Note_on_c, 0, 81, 0
2, 20460, Note_on_c, 0, 72, 64
2, 20486, Note_on_c, 0, 72, 0
2, 20490, Note_on_c, 0, 81, 64
2, 20516, Note_on_c, 0, 81, 0
2, 20520, Note_on_c, 0, 71, 64
2, 20572, Note_on_c, 0, 71, 0
2, 20580, Note_on_c, 0, 74, 64
2, 20632, Note_on_c, 0, 74, 0
2, 20640, Note_on_c, 0, 79, 64
2, 20692, Note_on_c, 0, 79, 0
2, 20700, Note_on_c, 0, 77, 64
2, 20752, Note_on_c, 0, 77, 0
2, 20760, Note_on_c, 0, 76, 64
2, 20812, Note_on_c, 0, 76, 0
2, 20820, Note_on_c, 0, 74, 64
2, 20872, Note_on_c, 0, 74, 0
2, 20880, Note_on_c, 0, 76, 64
2, 20906, Note_on_c, 0, 76, 0
2, 20910, Note_on_c, 0, 72, 64
2, 20936, Note_on_c, 0, 72, 0
2, 20940, Note_on_c, 0, 71, 64
2, 20966, Note_on_c, 0, 71, 0
2, 20970, Note_on_c, 0, 72, 64
2, 20996, Note_on_c, 0, 72, 0
2, 21000, Note_on_c, 0, 84, 64
2, 21026, Note_on_c, 0, 84, 0
2, 21030, Note_on_c, 0, 72, 64
2, 21056, Note_on_c, 0, 72, 0
2, 21060, Note_on_c, 0, 83, 64
2, 21086, Note_on_c, 0, 83, 0
2, 21090, Note_on_c, 0, 72, 64
2, 21116, Note_on_c, 0, 72, 0
2, 21120, Note_on_c, 0, 81, 64
2, 21146, Note_on_c, 0, 81, 0
2, 21150, Note_on_c, 0, 72, 64
2, 21176, Note_on_c, 0, 72, 0
2, 21180, Note_on_c, 0, 79, 64
2, 21206, Note_on_c, 0, 79, 0
2, 21210, Note_on_c, 0, 72, 64
2, 21236, Note_on_c, 0, 72, 0
2, 21240, Note_on_c, 0, 78, 64
2, 21266, Note_on_c, 0, 78, 0
2, 21270, Note_on_c, 0, 72, 64
2, 21296, Note_on_c, 0, 72, 0
2, 21300, Note_on_c, 0, 79, 64
2, 21326, Note_on_c, 0, 79, 0
2, 21330, Note_on_c, 0, 72, 64
2, 21356, Note_on_c, 0, 72, 0
2, 21360, Note_on_c, 0, 81, 64
2, 21386, Note_on_c, 0, 81, 0
2, 21390, Note_on_c, 0, 72, 64
2, 21416, Note_on_c, 0, 72, 0
2, 21420, Note_on_c, 0, 79, 64
2, 21446, Note_on_c, 0, 79, 0
2, 21450, Note_on_c, 0, 72, 64
2, 21476, Note_on_c, 0, 72, 0
2, 21480, Note_on_c, 0, 78, 64
2, 21506, Note_on_c, 0, 78, 0
2, 21510, Note_on_c, 0, 72, 64
2, 21536, Note_on_c, 0, 72, 0
2, 21540, Note_on_c, 0, 76, 64
2, 21566, Note_on_c, 0, 76, 0
2, 21570, Note_on_c, 0, 72, 64
2, 21596, Note_on_c, 0, 72, 0
2, 21600, Note_on_c, 0, 74, 64
2, 21626, Note_on_c, 0, 74, 0
2, 21630, Note_on_c, 0, 72, 64
2, 21656, Note_on_c, 0, 72, 0
2, 21660, Note_on_c, 0, 71, 64
2, 21686, Note_on_c, 0, 71, 0
2, 21690, Note_on_c, 0, 69, 64
2, 21716, Note_on_c, 0, 69, 0
2, 21720, Note_on_c, 0, 71, 64
2, 21772, Note_on_c, 0, 71, 0
2, 21780, Note_on_c, 0, 79, 64
2, 21832, Note_on_c, 0, 79, 0
2, 21840, Note_on_c, 0, 69, 64
2, 21892, Note_on_c, 0, 69, 0
2, 21900, Note_on_c, 0, 78, 64
2, 21952, Note_on_c, 0, 78, 0
2, 21960, Note_on_c, 0, 67, 64
2, 21986, Note_on_c, 0, 67, 0
2, 21990, Note_on_c, 0, 69, 64
2, 22016, Note_on_c, 0, 69, 0
2, 22020, Note_on_c, 0, 70, 64
2, 22046, Note_on_c, 0, 70, 0
2, 22050, Note_on_c, 0, 67, 64
2, 22076, Note_on_c, 0, 67, 0
2, 22080, Note_on_c, 0, 73, 64
2, 22106, Note_on_c, 0, 73, 0
2, 22110, Note_on_c, 0, 67, 64
2, 22136, Note_on_c, 0, 67, 0
2, 22140, Note_on_c, 0, 74, 64
2, 22166, Note_on_c, 0, 74, 0
2, 22170, Note_on_c, 0, 67, 64
2, 22196, Note_on_c, 0, 67, 0
2, 22200, Note_on_c, 0, 76, 64
2, 22226, Note_on_c, 0, 76, 0
2, 22230, Note_on_c, 0, 67, 64
2, 22256, Note_on_c, 0, 67, 0
2, 22260, Note_on_c, 0, 66, 64
2, 22286, Note_on_c, 0, 66, 0
2, 22290, Note_on_c, 0, 64, 64
2, 22316, Note_on_c, 0, 64, 0
2, 22320, Note_on_c, 0, 66, 64
2, 22346, Note_on_c, 0, 66, 0
2, 22350, Note_on_c, 0, 69, 64
2, 22376, Note_on_c, 0, 69, 0
2, 22380, Note_on_c, 0, 74, 64
2, 22492, Note_on_c, 0, 74, 0
2, 22500, Note_on_c, 0, 72, 64
2, 22526, Note_on_c, 0, 72, 0
2, 22530, Note_on_c, 0, 71, 64
2, 22556, Note_on_c, 0, 71, 0
2, 22560, Note_on_c, 0, 72, 64
2, 22586, Note_on_c, 0, 72, 0
2, 22590, Note_on_c, 0, 71, 64
2, 22616, Note_on_c, 0, 71, 0
2, 22620, Note_on_c, 0, 69, 64
2, 22646, Note_on_c, 0, 69, 0
2, 22650, Note_on_c, 0, 71, 64
2, 22676, Note_on_c, 0, 71, 0
2, 22680, Note_on_c, 0, 67, 64
2, 22732, Note_on_c, 0, 67, 0
2, 22740, Note_on_c, 0, 66, 64
2, 22766, Note_on_c, 0, 66, 0
2, 22770, Note_on_c, 0, 64, 64
2, 22796, Note_on_c, 0, 64, 0
2, 22800, Note_on_c, 0, 62, 64
2, 22826, Note_on_c, 0, 62, 0
2, 22830, Note_on_c, 0, 60, 64
2, 22856, Note_on_c, 0, 60, 0
2, 22860, Note_on_c, 0, 59, 64
2, 22886, Note_on_c, 0, 59, 0
2, 22890, Note_on_c, 0, 57, 64
2, 22916, Note_on_c, 0, 57, 0
2, 22920, Note_on_c, 0, 55, 64
2, 23025, Note_on_c, 0, 55, 0
2, 23040, Note_on_c, 0, 66, 64
2, 23066, Note_on_c, 0, 66, 0
2, 23070, Note_on_c, 0, 62, 64
2, 23096, Note_on_c, 0, 62, 0
2, 23100, Note_on_c, 0, 64, 64
2, 23126, Note_on_c, 0, 64, 0
2, 23130, Note_on_c, 0, 62, 64
2, 23156, Note_on_c, 0, 62, 0
2, 23160, Note_on_c, 0, 66, 64
2, 23186, Note_on_c, 0, 66, 0
2, 23190, Note_on_c, 0, 62, 64
2, 23216, Note_on_c, 0, 62, 0
2, 23220, Note_on_c, 0, 67, 64
2, 23246, Note_on_c, 0, 67, 0
2, 23250, Note_on_c, 0, 62, 64
2, 23276, Note_on_c, 0, 62, 0
2, 23280, Note_on_c, 0, 69, 64
2, 23306, Note_on_c, 0, 69, 0
2, 23310, Note_on_c, 0, 62, 64
2, 23336, Note_on_c, 0, 62, 0
2, 23340, Note_on_c, 0, 67, 64
2, 23366, Note_on_c, 0, 67, 0
2, 23370, Note_on_c, 0, 62, 64
2, 23396, Note_on_c, 0, 62, 0
2, 23400, Note_on_c, 0, 66, 64
2, 23426, Note_on_c, 0, 66, 0
2, 23430, Note_on_c, 0, 62, 64
2, 23456, Note_on_c, 0, 62, 0
2, 23460, Note_on_c, 0, 64, 64
2, 23486, Note_on_c, 0, 64, 0
2, 23490, Note_on_c, 0, 62, 64
2, 23516, Note_on_c, 0, 62, 0
2, 23520, Note_on_c, 0, 66, 64
2, 23546, Note_on_c, 0, 66, 0
2, 23550, Note_on_c, 0, 62, 64
2, 23576, Note_on_c, 0, 62, 0
2, 23580, Note_on_c, 0, 67, 64
2, 23606, Note_on_c, 0, 67, 0
2, 23610, Note_on_c, 0, 62, 64
2, 23636, Note_on_c, 0, 62, 0
2, 23640, Note_on_c, 0, 69, 64
2, 23666, Note_on_c, 0, 69, 0
2, 23670, Note_on_c, 0, 62, 64
2, 23696, Note_on_c, 0, 62, 0
2, 23700, Note_on_c, 0, 66, 64
2, 23726, Note_on_c, 0, 66, 0
2, 23730, Note_on_c, 0, 62, 64
2, 23756, Note_on_c, 0, 62, 0
2, 23760, Note_on_c, 0, 67, 64
2, 23786, Note_on_c, 0, 67, 0
2, 23790, Note_on_c, 0, 62, 64
2, 23816, Note_on_c, 0, 62, 0
2, 23820, Note_on_c, 0, 66, 64
2, 23846, Note_on_c, 0, 66, 0
2, 23850, Note_on_c, 0, 62, 64
2, 23876, Note_on_c, 0, 62, 0
2, 23880, Note_on_c, 0, 67, 64
2, 23906, Note_on_c, 0, 67, 0
2, 23910, Note_on_c, 0, 62, 64
2, 23936, Note_on_c, 0, 62, 0
2, 23940, Note_on_c, 0, 71, 64
2, 23966, Note_on_c, 0, 71, 0
2, 23970, Note_on_c, 0, 62, 64
2, 23996, Note_on_c, 0, 62, 0
2, 24000, Note_on_c, 0, 69, 64
2, 24026, Note_on_c, 0, 69, 0
2, 24030, Note_on_c, 0, 62, 64
2, 24056, Note_on_c, 0, 62, 0
2, 24060, Note_on_c, 0, 72, 64
2, 24086, Note_on_c, 0, 72, 0
2, 24090, Note_on_c, 0, 62, 64
2, 24116, Note_on_c, 0, 62, 0
2, 24120, Note_on_c, 0, 71, 64
2, 24172, Note_on_c, 0, 71, 0
2, 24180, Note_on_c, 0, 69, 64
2, 24232, Note_on_c, 0, 69, 0
2, 24240, Note_on_c, 0, 67, 64
2, 24292, Note_on_c, 0, 67, 0
2, 24300, Note_on_c, 0, 69, 64
2, 24352, Note_on_c, 0, 69, 0
2, 24360, Note_on_c, 0, 71, 64
2, 24412, Note_on_c, 0, 71, 0
2, 24420, Note_on_c, 0, 72, 64
2, 24472, Note_on_c, 0, 72, 0
2, 24480, Note_on_c, 0, 74, 64
2, 24532, Note_on_c, 0, 74, 0
2, 24540, Note_on_c, 0, 72, 64
2, 24592, Note_on_c, 0, 72, 0
2, 24600, Note_on_c, 0, 74, 64
2, 24652, Note_on_c, 0, 74, 0
2, 24660, Note_on_c, 0, 76, 64
2, 24712, Note_on_c, 0, 76, 0
2, 24720, Note_on_c, 0, 77, 64
2, 24772, Note_on_c, 0, 77, 0
2, 24780, Note_on_c, 0, 74, 64
2, 24832, Note_on_c, 0, 74, 0
2, 24840, Note_on_c, 0, 76, 64
2, 24892, Note_on_c, 0, 76, 0
2, 24900, Note_on_c, 0, 79, 64
2, 24952, Note_on_c, 0, 79, 0
2, 24960, Note_on_c, 0, 76, 64
2, 25012, Note_on_c, 0, 76, 0
2, 25020, Note_on_c, 0, 72, 64
2, 25072, Note_on_c, 0, 72, 0
2, 25080, Note_on_c, 0, 74, 64
2, 25132, Note_on_c, 0, 74, 0
2, 25140, Note_on_c, 0, 71, 64
2, 25192, Note_on_c, 0, 71, 0
2, 25200, Note_on_c, 0, 72, 64
2, 25226, Note_on_c, 0, 72, 0
2, 25230, Note_on_c, 0, 76, 64
2, 25256, Note_on_c, 0, 76, 0
2, 25260, Note_on_c, 0, 75, 64
2, 25286, Note_on_c, 0, 75, 0
2, 25290, Note_on_c, 0, 76, 64
2, 25316, Note_on_c, 0, 76, 0
2, 25320, Note_on_c, 0, 81, 64
2, 25346, Note_on_c, 0, 81, 0
2, 25350, Note_on_c, 0, 72, 64
2, 25376, Note_on_c, 0, 72, 0
2, 25380, Note_on_c, 0, 79, 64
2, 25406, Note_on_c, 0, 79, 0
2, 25410, Note_on_c, 0, 72, 64
2, 25436, Note_on_c, 0, 72, 0
2, 25440, Note_on_c, 0, 78, 64
2, 25466, Note_on_c, 0, 78, 0
2, 25470, Note_on_c, 0, 72, 64
2, 25496, Note_on_c, 0, 72, 0
2, 25500, Note_on_c, 0, 76, 64
2, 25526, Note_on_c, 0, 76, 0
2, 25530, Note_on_c, 0, 72, 64
2, 25556, Note_on_c, 0, 72, 0
2, 25560, Note_on_c, 0, 75, 64
2, 25586, Note_on_c, 0, 75, 0
2, 25590, Note_on_c, 0, 71, 64
2, 25616, Note_on_c, 0, 71, 0
2, 25620, Note_on_c, 0, 70, 64
2, 25646, Note_on_c, 0, 70, 0
2, 25650, Note_on_c, 0, 71, 64
2, 25676, Note_on_c, 0, 71, 0
2, 25680, Note_on_c, 0, 79, 64
2, 25706, Note_on_c, 0, 79, 0
2, 25710, Note_on_c, 0, 71, 64
2, 25736, Note_on_c, 0, 71, 0
2, 25740, Note_on_c, 0, 78, 64
2, 25766, Note_on_c, 0, 78, 0
2, 25770, Note_on_c, 0, 71, 64
2, 25796, Note_on_c, 0, 71, 0
2, 25800, Note_on_c, 0, 76, 64
2, 25826, Note_on_c, 0, 76, 0
2, 25830, Note_on_c, 0, 71, 64
2, 25856, Note_on_c, 0, 71, 0
2, 25860, Note_on_c, 0, 74, 64
2, 25886, Note_on_c, 0, 74, 0
2, 25890, Note_on_c, 0, 71, 64
2, 25916, Note_on_c, 0, 71, 0
2, 25920, Note_on_c, 0, 72, 64
2, 25946, Note_on_c, 0, 72, 0
2, 25950, Note_on_c, 0, 69, 64
2, 25976, Note_on_c, 0, 69, 0
2, 25980, Note_on_c, 0, 67, 64
2, 26006, Note_on_c, 0, 67, 0
2, 26010, Note_on_c, 0, 69, 64
2, 26036, Note_on_c, 0, 69, 0
2, 26040, Note_on_c, 0, 66, 64
2, 26066, Note_on_c, 0, 66, 0
2, 26070, Note_on_c, 0, 69, 64
2, 26096, Note_on_c, 0, 69, 0
2, 26100, Note_on_c, 0, 64, 64
2, 26126, Note_on_c, 0, 64, 0
2, 26130, Note_on_c, 0, 69, 64
2, 26156, Note_on_c, 0, 69, 0
2, 26160, Note_on_c, 0, 63, 64
2, 26186, Note_on_c, 0, 63, 0
2, 26190, Note_on_c, 0, 69, 64
2, 26216, Note_on_c, 0, 69, 0
2, 26220, Note_on_c, 0, 64, 64
2, 26246, Note_on_c, 0, 64, 0
2, 26250, Note_on_c, 0, 69, 64
2, 26276, Note_on_c, 0, 69, 0
2, 26280, Note_on_c, 0, 66, 64
2, 26332, Note_on_c, 0, 66, 0
2, 26340, Note_on_c, 0, 75, 64
2, 26392, Note_on_c, 0, 75, 0
2, 26400, Note_on_c, 0, 76, 64
2, 26452, Note_on_c, 0, 76, 0
2, 26460, Note_on_c, 0, 78, 64
2, 26512, Note_on_c, 0, 78, 0
2, 26520, Note_on_c, 0, 79, 64
2, 26572, Note_on_c, 0, 79, 0
2, 26580, Note_on_c, 0, 75, 64
2, 26632, Note_on_c, 0, 75, 0
2, 26640, Note_on_c, 0, 76, 64
2, 26666, Note_on_c, 0, 76, 0
2, 26670, Note_on_c, 0, 71, 64
2, 26696, Note_on_c, 0, 71, 0
2, 26700, Note_on_c, 0, 72, 64
2, 26726, Note_on_c, 0, 72, 0
2, 26730, Note_on_c, 0, 69, 64
2, 26756, Note_on_c, 0, 69, 0
2, 26760, Note_on_c, 0, 67, 64
2, 26812, Note_on_c, 0, 67, 0
2, 26820, Note_on_c, 0, 76, 64
2, 26872, Note_on_c, 0, 76, 0
2, 26880, Note_on_c, 0, 66, 64
2, 26932, Note_on_c, 0, 66, 0
2, 26940, Note_on_c, 0, 75, 64
2, 26992, Note_on_c, 0, 75, 0
2, 27000, Note_on_c, 0, 76, 64
2, 27026, Note_on_c, 0, 76, 0
2, 27030, Note_on_c, 0, 71, 64
2, 27056, Note_on_c, 0, 71, 0
2, 27060, Note_on_c, 0, 67, 64
2, 27086, Note_on_c, 0, 67, 0
2, 27090, Note_on_c, 0, 71, 64
2, 27116, Note_on_c, 0, 71, 0
2, 27120, Note_on_c, 0, 64, 64
2, 27266, Note_on_c, 0, 64, 0
2, 27270, Note_on_c, 0, 67, 64
2, 27296, Note_on_c, 0, 67, 0
2, 27300, Note_on_c, 0, 71, 64
2, 27326, Note_on_c, 0, 71, 0
2, 27330, Note_on_c, 0, 74, 64
2, 27356, Note_on_c, 0, 74, 0
2, 27360, Note_on_c, 0, 73, 64
2, 27412, Note_on_c, 0, 73, 0
2, 27420, Note_on_c, 0, 69, 64
2, 27472, Note_on_c, 0, 69, 0
2, 27480, Note_on_c, 0, 73, 64
2, 27532, Note_on_c, 0, 73, 0
2, 27540, Note_on_c, 0, 76, 64
2, 27592, Note_on_c, 0, 76, 0
2, 27600, Note_on_c, 0, 81, 64
2, 27652, Note_on_c, 0, 81, 0
2, 27660, Note_on_c, 0, 79, 64
2, 27712, Note_on_c, 0, 79, 0
2, 27720, Note_on_c, 0, 78, 64
2, 27772, Note_on_c, 0, 78, 0
2, 27780, Note_on_c, 0, 81, 64
2, 27832, Note_on_c, 0, 81, 0
2, 27840, Note_on_c, 0, 78, 64
2, 27892, Note_on_c, 0, 78, 0
2, 27900, Note_on_c, 0, 74, 64
2, 27952, Note_on_c, 0, 74, 0
2, 27960, Note_on_c, 0, 69, 64
2, 28012, Note_on_c, 0, 69, 0
2, 28020, Note_on_c, 0, 72, 64
2, 28072, Note_on_c, 0, 72, 0
2, 28080, Note_on_c, 0, 71, 64
2, 28132, Note_on_c, 0, 71, 0
2, 28140, Note_on_c, 0, 67, 64
2, 28192, Note_on_c, 0, 67, 0
2, 28200, Note_on_c, 0, 71, 64
2, 28252, Note_on_c, 0, 71, 0
2, 28260, Note_on_c, 0, 74, 64
2, 28312, Note_on_c, 0, 74, 0
2, 28320, Note_on_c, 0, 79, 64
2, 28372, Note_on_c, 0, 79, 0
2, 28380, Note_on_c, 0, 77, 64
2, 28432, Note_on_c, 0, 77, 0
2, 28440, Note_on_c, 0, 76, 64
2, 28586, Note_on_c, 0, 76, 0
2, 28590, Note_on_c, 0, 74, 64
2, 28616, Note_on_c, 0, 74, 0
2, 28620, Note_on_c, 0, 72, 64
2, 28646, Note_on_c, 0, 72, 0
2, 28650, Note_on_c, 0, 71, 64
2, 28676, Note_on_c, 0, 71, 0
2, 28680, Note_on_c, 0, 69, 64
2, 28706, Note_on_c, 0, 69, 0
2, 28710, Note_on_c, 0, 67, 64
2, 28736, Note_on_c, 0, 67, 0
2, 28740, Note_on_c, 0, 66, 64
2, 28766, Note_on_c, 0, 66, 0
2, 28770, Note_on_c, 0, 64, 64
2, 28796, Note_on_c, 0, 64, 0
2, 28800, Note_on_c, 0, 66, 64
2, 28852, Note_on_c, 0, 66, 0
2, 28860, Note_on_c, 0, 74, 64
2, 28946, Note_on_c, 0, 74, 0
2, 28950, Note_on_c, 0, 72, 64
2, 28976, Note_on_c, 0, 72, 0
2, 28980, Note_on_c, 0, 71, 64
2, 29006, Note_on_c, 0, 71, 0
2, 29010, Note_on_c, 0, 69, 64
2, 29036, Note_on_c, 0, 69, 0
2, 29040, Note_on_c, 0, 67, 64
2, 29066, Note_on_c, 0, 67, 0
2, 29070, Note_on_c, 0, 66, 64
2, 29096, Note_on_c, 0, 66, 0
2, 29100, Note_on_c, 0, 64, 64
2, 29126, Note_on_c, 0, 64, 0
2, 29130, Note_on_c, 0, 62, 64
2, 29156, Note_on_c, 0, 62, 0
2, 29160, Note_on_c, 0, 64, 64
2, 29212, Note_on_c, 0, 64, 0
2, 29220, Note_on_c, 0, 72, 64
2, 29306, Note_on_c, 0, 72, 0
2, 29310, Note_on_c, 0, 71, 64
2, 29336, Note_on_c, 0, 71, 0
2, 29340, Note_on_c, 0, 69, 64
2, 29366, Note_on_c, 0, 69, 0
2, 29370, Note_on_c, 0, 67, 64
2, 29396, Note_on_c, 0, 67, 0
2, 29400, Note_on_c, 0, 66, 64
2, 29426, Note_on_c, 0, 66, 0
2, 29430, Note_on_c, 0, 64, 64
2, 29456, Note_on_c, 0, 64, 0
2, 29460, Note_on_c, 0, 62, 64
2, 29486, Note_on_c, 0, 62, 0
2, 29490, Note_on_c, 0, 60, 64
2, 29516, Note_on_c, 0, 60, 0
2, 29520, Note_on_c, 0, 62, 64
2, 29546, Note_on_c, 0, 62, 0
2, 29550, Note_on_c, 0, 66, 64
2, 29576, Note_on_c, 0, 66, 0
2, 29580, Note_on_c, 0, 64, 64
2, 29606, Note_on_c, 0, 64, 0
2, 29610, Note_on_c, 0, 62, 64
2, 29636, Note_on_c, 0, 62, 0
2, 29640, Note_on_c, 0, 64, 64
2, 29666, Note_on_c, 0, 64, 0
2, 29670, Note_on_c, 0, 66, 64
2, 29696, Note_on_c, 0, 66, 0
2, 29700, Note_on_c, 0, 67, 64
2, 29726, Note_on_c, 0, 67, 0
2, 29730, Note_on_c, 0, 69, 64
2, 29756, Note_on_c, 0, 69, 0
2, 29760, Note_on_c, 0, 71, 64
2, 29786, Note_on_c, 0, 71, 0
2, 29790, Note_on_c, 0, 69, 64
2, 29816, Note_on_c, 0, 69, 0
2, 29820, Note_on_c, 0, 71, 64
2, 29846, Note_on_c, 0, 71, 0
2, 29850, Note_on_c, 0, 67, 64
2, 29876, Note_on_c, 0, 67, 0
2, 29880, Note_on_c, 0, 69, 64
2, 29906, Note_on_c, 0, 69, 0
2, 29910, Note_on_c, 0, 74, 64
2, 29936, Note_on_c, 0, 74, 0
2, 29940, Note_on_c, 0, 72, 64
2, 29966, Note_on_c, 0, 72, 0
2, 29970, Note_on_c, 0, 71, 64
2, 29996, Note_on_c, 0, 71, 0
2, 30000, Note_on_c, 0, 69, 64
2, 30026, Note_on_c, 0, 69, 0
2, 30030, Note_on_c, 0, 67, 64
2, 30056, Note_on_c, 0, 67, 0
2, 30060, Note_on_c, 0, 66, 64
2, 30086, Note_on_c, 0, 66, 0
2, 30090, Note_on_c, 0, 64, 64
2, 30116, Note_on_c, 0, 64, 0
2, 30120, Note_on_c, 0, 62, 64
2, 30266, Note_on_c, 0, 62, 0
2, 30270, Note_on_c, 0, 67, 64
2, 30296, Note_on_c, 0, 67, 0
2, 30300, Note_on_c, 0, 60, 64
2, 30326, Note_on_c, 0, 60, 0
2, 30330, Note_on_c, 0, 67, 64
2, 30356, Note_on_c, 0, 67, 0
2, 30360, Note_on_c, 0, 62, 64
2, 30386, Note_on_c, 0, 62, 0
2, 30390, Note_on_c, 0, 67, 64
2, 30416, Note_on_c, 0, 67, 0
2, 30420, Note_on_c, 0, 59, 64
2, 30446, Note_on_c, 0, 59, 0
2, 30450, Note_on_c, 0, 67, 64
2, 30476, Note_on_c, 0, 67, 0
2, 30480, Note_on_c, 0, 60, 64
2, 30506, Note_on_c, 0, 60, 0
2, 30510, Note_on_c, 0, 67, 64
2, 30536, Note_on_c, 0, 67, 0
2, 30540, Note_on_c, 0, 62, 64
2, 30566, Note_on_c, 0, 62, 0
2, 30570, Note_on_c, 0, 67, 64
2, 30596, Note_on_c, 0, 67, 0
2, 30600, Note_on_c, 0, 64, 64
2, 30626, Note_on_c, 0, 64, 0
2, 30630, Note_on_c, 0, 67, 64
2, 30656, Note_on_c, 0, 67, 0
2, 30660, Note_on_c, 0, 62, 64
2, 30686, Note_on_c, 0, 62, 0
2, 30690, Note_on_c, 0, 67, 64
2, 30716, Note_on_c, 0, 67, 0
2, 30720, Note_on_c, 0, 64, 64
2, 30746, Note_on_c, 0, 64, 0
2, 30750, Note_on_c, 0, 69, 64
2, 30776, Note_on_c, 0, 69, 0
2, 30780, Note_on_c, 0, 61, 64
2, 30806, Note_on_c, 0, 61, 0
2, 30810, Note_on_c, 0, 69, 64
2, 30836, Note_on_c, 0, 69, 0
2, 30840, Note_on_c, 0, 62, 64
2, 30866, Note_on_c, 0, 62, 0
2, 30870, Note_on_c, 0, 69, 64
2, 30896, Note_on_c, 0, 69, 0
2, 30900, Note_on_c, 0, 64, 64
2, 30926, Note_on_c, 0, 64, 0
2, 30930, Note_on_c, 0, 69, 64
2, 30956, Note_on_c, 0, 69, 0
2, 30960, Note_on_c, 0, 66, 64
2, 30986, Note_on_c, 0, 66, 0
2, 30990, Note_on_c, 0, 69, 64
2, 31016, Note_on_c, 0, 69, 0
2, 31020, Note_on_c, 0, 64, 64
2, 31046, Note_on_c, 0, 64, 0
2, 31050, Note_on_c, 0, 69, 64
2, 31076, Note_on_c, 0, 69, 0
2, 31080, Note_on_c, 0, 66, 64
2, 31106, Note_on_c, 0, 66, 0
2, 31110, Note_on_c, 0, 71, 64
2, 31136, Note_on_c, 0, 71, 0
2, 31140, Note_on_c, 0, 63, 64
2, 31166, Note_on_c, 0, 63, 0
2, 31170, Note_on_c, 0, 71, 64
2, 31196, Note_on_c, 0, 71, 0
2, 31200, Note_on_c, 0, 64, 64
2, 31226, Note_on_c, 0, 64, 0
2, 31230, Note_on_c, 0, 71, 64
2, 31256, Note_on_c, 0, 71, 0
2, 31260, Note_on_c, 0, 66, 64
2, 31286, Note_on_c, 0, 66, 0
2, 31290, Note_on_c, 0, 71, 64
2, 31316, Note_on_c, 0, 71, 0
2, 31320, Note_on_c, 0, 67, 64
2, 31346, Note_on_c, 0, 67, 0
2, 31350, Note_on_c, 0, 71, 64
2, 31376, Note_on_c, 0, 71, 0
2, 31380, Note_on_c, 0, 66, 64
2, 31406, Note_on_c, 0, 66, 0
2, 31410, Note_on_c, 0, 71, 64
2, 31436, Note_on_c, 0, 71, 0
2, 31440, Note_on_c, 0, 64, 64
2, 31492, Note_on_c, 0, 64, 0
2, 31500, Note_on_c, 0, 67, 64
2, 31552, Note_on_c, 0, 67, 0
2, 31560, Note_on_c, 0, 72, 64
2, 31706, Note_on_c, 0, 72, 0
2, 31710, Note_on_c, 0, 81, 64
2, 31736, Note_on_c, 0, 81, 0
2, 31740, Note_on_c, 0, 79, 64
2, 31766, Note_on_c, 0, 79, 0
2, 31770, Note_on_c, 0, 81, 64
2, 31796, Note_on_c, 0, 81, 0
2, 31800, Note_on_c, 0, 78, 64
2, 31826, Note_on_c, 0, 78, 0
2, 31830, Note_on_c, 0, 81, 64
2, 31856, Note_on_c, 0, 81, 0
2, 31860, Note_on_c, 0, 76, 64
2, 31886, Note_on_c, 0, 76, 0
2, 31890, Note_on_c, 0, 81, 64
2, 31916, Note_on_c, 0, 81, 0
2, 31920, Note_on_c, 0, 74, 64
2, 31946, Note_on_c, 0, 74, 0
2, 31950, Note_on_c, 0, 81, 64
2, 31976, Note_on_c, 0, 81, 0
2, 31980, Note_on_c, 0, 72, 64
2, 32006, Note_on_c, 0, 72, 0
2, 32010, Note_on_c, 0, 81, 64
2, 32036, Note_on_c, 0, 81, 0
2, 32040, Note_on_c, 0, 71, 64
2, 32092, Note_on_c, 0, 71, 0
2, 32100, Note_on_c, 0, 74, 64
2, 32152, Note_on_c, 0, 74, 0
2, 32160, Note_on_c, 0, 79, 64
2, 32212, Note_on_c, 0, 79, 0
2, 32220, Note_on_c, 0, 77, 64
2, 32272, Note_on_c, 0, 77, 0
2, 32280, Note_on_c, 0, 76, 64
2, 32332, Note_on_c, 0, 76, 0
2, 32340, Note_on_c, 0, 74, 64
2, 32392, Note_on_c, 0, 74, 0
2, 32400, Note_on_c, 0, 76, 64
2, 32426, Note_on_c, 0, 76, 0
2, 32430, Note_on_c, 0, 72, 64
2, 32456, Note_on_c, 0, 72, 0
2, 32460, Note_on_c, 0, 71, 64
2, 32486, Note_on_c, 0, 71, 0
2, 32490, Note_on_c, 0, 72, 64
2, 32516, Note_on_c, 0, 72, 0
2, 32520, Note_on_c, 0, 84, 64
2, 32546, Note_on_c, 0, 84, 0
2, 32550, Note_on_c, 0, 72, 64
2, 32576, Note_on_c, 0, 72, 0
2, 32580, Note_on_c, 0, 83, 64
2, 32606, Note_on_c, 0, 83, 0
2, 32610, Note_on_c, 0, 72, 64
2, 32636, Note_on_c, 0, 72, 0
2, 32640, Note_on_c, 0, 81, 64
2, 32666, Note_on_c, 0, 81, 0
2, 32670, Note_on_c, 0, 72, 64
2, 32696, Note_on_c, 0, 72, 0
2, 32700, Note_on_c, 0, 79, 64
2, 32726, Note_on_c, 0, 79, 0
2, 32730, Note_on_c, 0, 72, 64
2, 32756, Note_on_c, 0, 72, 0
2, 32760, Note_on_c, 0, 78, 64
2, 32786, Note_on_c, 0, 78, 0
2, 32790, Note_on_c, 0, 72, 64
2, 32816, Note_on_c, 0, 72, 0
2, 32820, Note_on_c, 0, 79, 64
2, 32846, Note_on_c, 0, 79, 0
2, 32850, Note_on_c, 0, 72, 64
2, 32876, Note_on_c, 0, 72, 0
2, 32880, Note_on_c, 0, 81, 64
2, 32906, Note_on_c, 0, 81, 0
2, 32910, Note_on_c, 0, 72, 64
2, 32936, Note_on_c, 0, 72, 0
2, 32940, Note_on_c, 0, 79, 64
2, 32966, Note_on_c, 0, 79, 0
2, 32970, Note_on_c, 0, 72, 64
2, 32996, Note_on_c, 0, 72, 0
2, 33000, Note_on_c, 0, 78, 64
2, 33026, Note_on_c, 0, 78, 0
2, 33030, Note_on_c, 0, 72, 64
2, 33056, Note_on_c, 0, 72, 0
2, 33060, Note_on_c, 0, 76, 64
2, 33086, Note_on_c, 0, 76, 0
2, 33090, Note_on_c, 0, 72, 64
2, 33116, Note_on_c, 0, 72, 0
2, 33120, Note_on_c, 0, 74, 64
2, 33146, Note_on_c, 0, 74, 0
2, 33150, Note_on_c, 0, 72, 64
2, 33176, Note_on_c, 0, 72, 0
2, 33180, Note_on_c, 0, 71, 64
2, 33206, Note_on_c, 0, 71, 0
2, 33210, Note_on_c, 0, 69, 64
2, 33236, Note_on_c, 0, 69, 0
2, 33240, Note_on_c, 0, 71, 64
2, 33292, Note_on_c, 0, 71, 0
2, 33300, Note_on_c, 0, 79, 64
2, 33352, Note_on_c, 0, 79, 0
2, 33360, Note_on_c, 0, 69, 64
2, 33412, Note_on_c, 0, 69, 0
2, 33420, Note_on_c, 0, 78, 64
2, 33472, Note_on_c, 0, 78, 0
2, 33480, Note_on_c, 0, 67, 64
2, 33506, Note_on_c, 0, 67, 0
2, 33510, Note_on_c, 0, 69, 64
2, 33536, Note_on_c, 0, 69, 0
2, 33540, Note_on_c, 0, 70, 64
2, 33566, Note_on_c, 0, 70, 0
2, 33570, Note_on_c, 0, 67, 64
2, 33596, Note_on_c, 0, 67, 0
2, 33600, Note_on_c, 0, 73, 64
2, 33626, Note_on_c, 0, 73, 0
2, 33630, Note_on_c, 0, 67, 64
2, 33656, Note_on_c, 0, 67, 0
2, 33660, Note_on_c, 0, 74, 64
2, 33686, Note_on_c, 0, 74, 0
2, 33690, Note_on_c, 0, 67, 64
2, 33716, Note_on_c, 0, 67, 0
2, 33720, Note_on_c, 0, 76, 64
2, 33746, Note_on_c, 0, 76, 0
2, 33750, Note_on_c, 0, 67, 64
2, 33776, Note_on_c, 0, 67, 0
2, 33780, Note_on_c, 0, 66, 64
2, 33806, Note_on_c, 0, 66, 0
2, 33810, Note_on_c, 0, 64, 64
2, 33836, Note_on_c, 0, 64, 0
2, 33840, Note_on_c, 0, 66, 64
2, 33866, Note_on_c, 0, 66, 0
2, 33870, Note_on_c, 0, 69, 64
2, 33896, Note_on_c, 0, 69, 0
2, 33900, Note_on_c, 0, 74, 64
2, 34012, Note_on_c, 0, 74, 0
2, 34020, Note_on_c, 0, 72, 64
2, 34046, Note_on_c, 0, 72, 0
2, 34050, Note_on_c, 0, 71, 64
2, 34076, Note_on_c, 0, 71, 0
2, 34080, Note_on_c, 0, 72, 64
2, 34106, Note_on_c, 0, 72, 0
2, 34110, Note_on_c, 0, 71, 64
2, 34136, Note_on_c, 0, 71, 0
2, 34140, Note_on_c, 0, 69, 64
2, 34166, Note_on_c, 0, 69, 0
2, 34170, Note_on_c, 0, 71, 64
2, 34196, Note_on_c, 0, 71, 0
2, 34200, Note_on_c, 0, 67, 64
2, 34252, Note_on_c, 0, 67, 0
2, 34260, Note_on_c, 0, 66, 64
2, 34286, Note_on_c, 0, 66, 0
2, 34290, Note_on_c, 0, 64, 64
2, 34316, Note_on_c, 0, 64, 0
2, 34320, Note_on_c, 0, 62, 64
2, 34346, Note_on_c, 0, 62, 0
2, 34350, Note_on_c, 0, 60, 64
2, 34376, Note_on_c, 0, 60, 0
2, 34380, Note_on_c, 0, 59, 64
2, 34406, Note_on_c, 0, 59, 0
2, 34410, Note_on_c, 0, 57, 64
2, 34436, Note_on_c, 0, 57, 0
2, 34440, Note_on_c, 0, 55, 64
2, 34545, Note_on_c, 0, 55, 0
2, 34545, End_track
3, 0, Start_track
3, 0, MIDI_port, 0
3, 0, Title_t, "Sequenced by"
3, 0, Program_c, 0, 6
3, 0, Note_on_c, 0, 59, 64
3, 52, Note_on_c, 0, 59, 0
3, 60, Note_on_c, 0, 57, 64
3, 112, Note_on_c, 0, 57, 0
3, 120, Note_on_c, 0, 59, 64
3, 172, Note_on_c, 0, 59, 0
3, 180, Note_on_c, 0, 60, 64
3, 232, Note_on_c, 0, 60, 0
3, 240, Note_on_c, 0, 62, 64
3, 292, Note_on_c, 0, 62, 0
3, 300, Note_on_c, 0, 64, 64
3, 352, Note_on_c, 0, 64, 0
3, 360, Note_on_c, 0, 62, 64
3, 412, Note_on_c, 0, 62, 0
3, 420, Note_on_c, 0, 60, 64
3, 472, Note_on_c, 0, 60, 0
3, 480, Note_on_c, 0, 59, 64
3, 532, Note_on_c, 0, 59, 0
3, 540, Note_on_c, 0, 64, 64
3, 592, Note_on_c, 0, 64, 0
3, 600, Note_on_c, 0, 62, 64
3, 652, Note_on_c, 0, 62, 0
3, 660, Note_on_c, 0, 60, 64
3, 712, Note_on_c, 0, 60, 0
3, 720, Note_on_c, 0, 62, 64
3, 772, Note_on_c, 0, 62, 0
3, 780, Note_on_c, 0, 60, 64
3, 832, Note_on_c, 0, 60, 0
3, 840, Note_on_c, 0, 59, 64
3, 892, Note_on_c, 0, 59, 0
3, 900, Note_on_c, 0, 62, 64
3, 952, Note_on_c, 0, 62, 0
3, 960, Note_on_c, 0, 60, 64
3, 1012, Note_on_c, 0, 60, 0
3, 1020, Note_on_c, 0, 59, 64
3, 1072, Note_on_c, 0, 59, 0
3, 1080, Note_on_c, 0, 66, 64
3, 1132, Note_on_c, 0, 66, 0
3, 1140, Note_on_c, 0, 64, 64
3, 1192, Note_on_c, 0, 64, 0
3, 1200, Note_on_c, 0, 66, 64
3, 1252, Note_on_c, 0, 66, 0
3, 1260, Note_on_c, 0, 67, 64
3, 1312, Note_on_c, 0, 67, 0
3, 1320, Note_on_c, 0, 69, 64
3, 1372, Note_on_c, 0, 69, 0
3, 1380, Note_on_c, 0, 71, 64
3, 1432, Note_on_c, 0, 71, 0
3, 1440, Note_on_c, 0, 69, 64
3, 1492, Note_on_c, 0, 69, 0
3, 1500, Note_on_c, 0, 67, 64
3, 1552, Note_on_c, 0, 67, 0
3, 1560, Note_on_c, 0, 66, 64
3, 1612, Note_on_c, 0, 66, 0
3, 1620, Note_on_c, 0, 71, 64
3, 1672, Note_on_c, 0, 71, 0
3, 1680, Note_on_c, 0, 69, 64
3, 1732, Note_on_c, 0, 69, 0
3, 1740, Note_on_c, 0, 67, 64
3, 1792, Note_on_c, 0, 67, 0
3, 1800, Note_on_c, 0, 69, 64
3, 1852, Note_on_c, 0, 69, 0
3, 1860, Note_on_c, 0, 67, 64
3, 1912, Note_on_c, 0, 67, 0
3, 1920, Note_on_c, 0, 66, 64
3, 1972, Note_on_c, 0, 66, 0
3, 1980, Note_on_c, 0, 69, 64
3, 2032, Note_on_c, 0, 69, 0
3, 2040, Note_on_c, 0, 67, 64
3, 2092, Note_on_c, 0, 67, 0
3, 2100, Note_on_c, 0, 66, 64
3, 2152, Note_on_c, 0, 66, 0
3, 2160, Note_on_c, 0, 64, 64
3, 2265, Note_on_c, 0, 64, 0
3, 2280, Note_on_c, 0, 69, 64
3, 2505, Note_on_c, 0, 69, 0
3, 5760, Note_on_c, 0, 59, 64
3, 5812, Note_on_c, 0, 59, 0
3, 5820, Note_on_c, 0, 57, 64
3, 5872, Note_on_c, 0, 57, 0
3, 5880, Note_on_c, 0, 59, 64
3, 5932, Note_on_c, 0, 59, 0
3, 5940, Note_on_c, 0, 60, 64
3, 5992, Note_on_c, 0, 60, 0
3, 6000, Note_on_c, 0, 62, 64
3, 6052, Note_on_c, 0, 62, 0
3, 6060, Note_on_c, 0, 64, 64
3, 6112, Note_on_c, 0, 64, 0
3, 6120, Note_on_c, 0, 62, 64
3, 6172, Note_on_c, 0, 62, 0
3, 6180, Note_on_c, 0, 60, 64
3, 6232, Note_on_c, 0, 60, 0
3, 6240, Note_on_c, 0, 59, 64
3, 6292, Note_on_c, 0, 59, 0
3, 6300, Note_on_c, 0, 64, 64
3, 6352, Note_on_c, 0, 64, 0
3, 6360, Note_on_c, 0, 62, 64
3, 6412, Note_on_c, 0, 62, 0
3, 6420, Note_on_c, 0, 60, 64
3, 6472, Note_on_c, 0, 60, 0
3, 6480, Note_on_c, 0, 62, 64
3, 6532, Note_on_c, 0, 62, 0
3, 6540, Note_on_c, 0, 60, 64
3, 6592, Note_on_c, 0, 60, 0
3, 6600, Note_on_c, 0, 59, 64
3, 6652, Note_on_c, 0, 59, 0
3, 6660, Note_on_c, 0, 62, 64
3, 6712, Note_on_c, 0, 62, 0
3, 6720, Note_on_c, 0, 60, 64
3, 6772, Note_on_c, 0, 60, 0
3, 6780, Note_on_c, 0, 59, 64
3, 6832, Note_on_c, 0, 59, 0
3, 6840, Note_on_c, 0, 66, 64
3, 6892, Note_on_c, 0, 66, 0
3, 6900, Note_on_c, 0, 64, 64
3, 6952, Note_on_c, 0, 64, 0
3, 6960, Note_on_c, 0, 66, 64
3, 7012, Note_on_c, 0, 66, 0
3, 7020, Note_on_c, 0, 67, 64
3, 7072, Note_on_c, 0, 67, 0
3, 7080, Note_on_c, 0, 69, 64
3, 7132, Note_on_c, 0, 69, 0
3, 7140, Note_on_c, 0, 71, 64
3, 7192, Note_on_c, 0, 71, 0
3, 7200, Note_on_c, 0, 69, 64
3, 7252, Note_on_c, 0, 69, 0
3, 7260, Note_on_c, 0, 67, 64
3, 7312, Note_on_c, 0, 67, 0
3, 7320, Note_on_c, 0, 66, 64
3, 7372, Note_on_c, 0, 66, 0
3, 7380, Note_on_c, 0, 71, 64
3, 7432, Note_on_c, 0, 71, 0
3, 7440, Note_on_c, 0, 69, 64
3, 7492, Note_on_c, 0, 69, 0
3, 7500, Note_on_c, 0, 67, 64
3, 7552, Note_on_c, 0, 67, 0
3, 7560, Note_on_c, 0, 69, 64
3, 7612, Note_on_c, 0, 69, 0
3, 7620, Note_on_c, 0, 67, 64
3, 7672, Note_on_c, 0, 67, 0
3, 7680, Note_on_c, 0, 66, 64
3, 7732, Note_on_c, 0, 66, 0
3, 7740, Note_on_c, 0, 69, 64
3, 7792, Note_on_c, 0, 69, 0
3, 7800, Note_on_c, 0, 67, 64
3, 7852, Note_on_c, 0, 67, 0
3, 7860, Note_on_c, 0, 66, 64
3, 7912, Note_on_c, 0, 66, 0
3, 7920, Note_on_c, 0, 64, 64
3, 8025, Note_on_c, 0, 64, 0
3, 8040, Note_on_c, 0, 69, 64
3, 8265, Note_on_c, 0, 69, 0
3, 11520, Note_on_c, 0, 57, 64
3, 11572, Note_on_c, 0, 57, 0
3, 11580, Note_on_c, 0, 55, 64
3, 11632, Note_on_c, 0, 55, 0
3, 11640, Note_on_c, 0, 57, 64
3, 11692, Note_on_c, 0, 57, 0
3, 11700, Note_on_c, 0, 59, 64
3, 11752, Note_on_c, 0, 59, 0
3, 11760, Note_on_c, 0, 60, 64
3, 11812, Note_on_c, 0, 60, 0
3, 11820, Note_on_c, 0, 59, 64
3, 11872, Note_on_c, 0, 59, 0
3, 11880, Note_on_c, 0, 57, 64
3, 11932, Note_on_c, 0, 57, 0
3, 11940, Note_on_c, 0, 55, 64
3, 11992, Note_on_c, 0, 55, 0
3, 12000, Note_on_c, 0, 57, 64
3, 12052, Note_on_c, 0, 57, 0
3, 12060, Note_on_c, 0, 59, 64
3, 12112, Note_on_c, 0, 59, 0
3, 12120, Note_on_c, 0, 60, 64
3, 12172, Note_on_c, 0, 60, 0
3, 12180, Note_on_c, 0, 57, 64
3, 12232, Note_on_c, 0, 57, 0
3, 12240, Note_on_c, 0, 59, 64
3, 12292, Note_on_c, 0, 59, 0
3, 12300, Note_on_c, 0, 57, 64
3, 12352, Note_on_c, 0, 57, 0
3, 12360, Note_on_c, 0, 59, 64
3, 12412, Note_on_c, 0, 59, 0
3, 12420, Note_on_c, 0, 55, 64
3, 12472, Note_on_c, 0, 55, 0
3, 12480, Note_on_c, 0, 57, 64
3, 12532, Note_on_c, 0, 57, 0
3, 12540, Note_on_c, 0, 54, 64
3, 12592, Note_on_c, 0, 54, 0
3, 23040, Note_on_c, 0, 57, 64
3, 23092, Note_on_c, 0, 57, 0
3, 23100, Note_on_c, 0, 55, 64
3, 23152, Note_on_c, 0, 55, 0
3, 23160, Note_on_c, 0, 57, 64
3, 23212, Note_on_c, 0, 57, 0
3, 23220, Note_on_c, 0, 59, 64
3, 23272, Note_on_c, 0, 59, 0
3, 23280, Note_on_c, 0, 60, 64
3, 23332, Note_on_c, 0, 60, 0
3, 23340, Note_on_c, 0, 59, 64
3, 23392, Note_on_c, 0, 59, 0
3, 23400, Note_on_c, 0, 57, 64
3, 23452, Note_on_c, 0, 57, 0
3, 23460, Note_on_c, 0, 55, 64
3, 23512, Note_on_c, 0, 55, 0
3, 23520, Note_on_c, 0, 57, 64
3, 23572, Note_on_c, 0, 57, 0
3, 23580, Note_on_c, 0, 59, 64
3, 23632, Note_on_c, 0, 59, 0
3, 23640, Note_on_c, 0, 60, 64
3, 23692, Note_on_c, 0, 60, 0
3, 23700, Note_on_c, 0, 57, 64
3, 23752, Note_on_c, 0, 57, 0
3, 23760, Note_on_c, 0, 59, 64
3, 23812, Note_on_c, 0, 59, 0
3, 23820, Note_on_c, 0, 57, 64
3, 23872, Note_on_c, 0, 57, 0
3, 23880, Note_on_c, 0, 59, 64
3, 23932, Note_on_c, 0, 59, 0
3, 23940, Note_on_c, 0, 55, 64
3, 23992, Note_on_c, 0, 55, 0
3, 24000, Note_on_c, 0, 57, 64
3, 24052, Note_on_c, 0, 57, 0
3, 24060, Note_on_c, 0, 54, 64
3, 24112, Note_on_c, 0, 54, 0
3, 24112, End_track
4, 0, Start_track
4, 0, MIDI_port, 0
4, 0, Title_t, "Yo Tomita"
4, 0, Program_c, 0, 6
4, 0, Note_on_c, 0, 55, 64
4, 1065, Note_on_c, 0, 55, 0
4, 1080, Note_on_c, 0, 50, 64
4, 1106, Note_on_c, 0, 50, 0
4, 1110, Note_on_c, 0, 57, 64
4, 1136, Note_on_c, 0, 57, 0
4, 1140, Note_on_c, 0, 49, 64
4, 1166, Note_on_c, 0, 49, 0
4, 1170, Note_on_c, 0, 57, 64
4, 1196, Note_on_c, 0, 57, 0
4, 1200, Note_on_c, 0, 50, 64
4, 1226, Note_on_c, 0, 50, 0
4, 1230, Note_on_c, 0, 57, 64
4, 1256, Note_on_c, 0, 57, 0
4, 1260, Note_on_c, 0, 52, 64
4, 1286, Note_on_c, 0, 52, 0
4, 1290, Note_on_c, 0, 57, 64
4, 1316, Note_on_c, 0, 57, 0
4, 1320, Note_on_c, 0, 54, 64
4, 1346, Note_on_c, 0, 54, 0
4, 1350, Note_on_c, 0, 57, 64
4, 1376, Note_on_c, 0, 57, 0
4, 1380, Note_on_c, 0, 55, 64
4, 1406, Note_on_c, 0, 55, 0
4, 1410, Note_on_c, 0, 57, 64
4, 1436, Note_on_c, 0, 57, 0
4, 1440, Note_on_c, 0, 54, 64
4, 1466, Note_on_c, 0, 54, 0
4, 1470, Note_on_c, 0, 57, 64
4, 1496, Note_on_c, 0, 57, 0
4, 1500, Note_on_c, 0, 52, 64
4, 1526, Note_on_c, 0, 52, 0
4, 1530, Note_on_c, 0, 57, 64
4, 1556, Note_on_c, 0, 57, 0
4, 1560, Note_on_c, 0, 50, 64
4, 1586, Note_on_c, 0, 50, 0
4, 1590, Note_on_c, 0, 57, 64
4, 1616, Note_on_c, 0, 57, 0
4, 1620, Note_on_c, 0, 55, 64
4, 1646, Note_on_c, 0, 55, 0
4, 1650, Note_on_c, 0, 57, 64
4, 1676, Note_on_c, 0, 57, 0
4, 1680, Note_on_c, 0, 54, 64
4, 1706, Note_on_c, 0, 54, 0
4, 1710, Note_on_c, 0, 57, 64
4, 1736, Note_on_c, 0, 57, 0
4, 1740, Note_on_c, 0, 52, 64
4, 1766, Note_on_c, 0, 52, 0
4, 1770, Note_on_c, 0, 57, 64
4, 1796, Note_on_c, 0, 57, 0
4, 1800, Note_on_c, 0, 54, 64
4, 1826, Note_on_c, 0, 54, 0
4, 1830, Note_on_c, 0, 57, 64
4, 1856, Note_on_c, 0, 57, 0
4, 1860, Note_on_c, 0, 52, 64
4, 1886, Note_on_c, 0, 52, 0
4, 1890, Note_on_c, 0, 57, 64
4, 1916, Note_on_c, 0, 57, 0
4, 1920, Note_on_c, 0, 50, 64
4, 1946, Note_on_c, 0, 50, 0
4, 1950, Note_on_c, 0, 57, 64
4, 1976, Note_on_c, 0, 57, 0
4, 1980, Note_on_c, 0, 54, 64
4, 2006, Note_on_c, 0, 54, 0
4, 2010, Note_on_c, 0, 57, 64
4, 2036, Note_on_c, 0, 57, 0
4, 2040, Note_on_c, 0, 52, 64
4, 2066, Note_on_c, 0, 52, 0
4, 2070, Note_on_c, 0, 57, 64
4, 2096, Note_on_c, 0, 57, 0
4, 2100, Note_on_c, 0, 50, 64
4, 2126, Note_on_c, 0, 50, 0
4, 2130, Note_on_c, 0, 57, 64
4, 2156, Note_on_c, 0, 57, 0
4, 2160, Note_on_c, 0, 45, 64
4, 2186, Note_on_c, 0, 45, 0
4, 2190, Note_on_c, 0, 57, 64
4, 2216, Note_on_c, 0, 57, 0
4, 2220, Note_on_c, 0, 56, 64
4, 2246, Note_on_c, 0, 56, 0
4, 2250, Note_on_c, 0, 57, 64
4, 2276, Note_on_c, 0, 57, 0
4, 2280, Note_on_c, 0, 45, 64
4, 2306, Note_on_c, 0, 45, 0
4, 2310, Note_on_c, 0, 57, 64
4, 2336, Note_on_c, 0, 57, 0
4, 2340, Note_on_c, 0, 47, 64
4, 2366, Note_on_c, 0, 47, 0
4, 2370, Note_on_c, 0, 57, 64
4, 2396, Note_on_c, 0, 57, 0
4, 2400, Note_on_c, 0, 48, 64
4, 2426, Note_on_c, 0, 48, 0
4, 2430, Note_on_c, 0, 57, 64
4, 2456, Note_on_c, 0, 57, 0
4, 2460, Note_on_c, 0, 50, 64
4, 2486, Note_on_c, 0, 50, 0
4, 2490, Note_on_c, 0, 57, 64
4, 2516, Note_on_c, 0, 57, 0
4, 2520, Note_on_c, 0, 52, 64
4, 2546, Note_on_c, 0, 52, 0
4, 2550, Note_on_c, 0, 64, 64
4, 2576, Note_on_c, 0, 64, 0
4, 2580, Note_on_c, 0, 62, 64
4, 2606, Note_on_c, 0, 62, 0
4, 2610, Note_on_c, 0, 64, 64
4, 2636, Note_on_c, 0, 64, 0
4, 2640, Note_on_c, 0, 52, 64
4, 2666, Note_on_c, 0, 52, 0
4, 2670, Note_on_c, 0, 64, 64
4, 2696, Note_on_c, 0, 64, 0
4, 2700, Note_on_c, 0, 54, 64
4, 2726, Note_on_c, 0, 54, 0
4, 2730, Note_on_c, 0, 64, 64
4, 2756, Note_on_c, 0, 64, 0
4, 2760, Note_on_c, 0, 55, 64
4, 2786, Note_on_c, 0, 55, 0
4, 2790, Note_on_c, 0, 64, 64
4, 2816, Note_on_c, 0, 64, 0
4, 2820, Note_on_c, 0, 57, 64
4, 2846, Note_on_c, 0, 57, 0
4, 2850, Note_on_c, 0, 64, 64
4, 2876, Note_on_c, 0, 64, 0
4, 2880, Note_on_c, 0, 62, 64
4, 2906, Note_on_c, 0, 62, 0
4, 2910, Note_on_c, 0, 59, 64
4, 2936, Note_on_c, 0, 59, 0
4, 2940, Note_on_c, 0, 57, 64
4, 2966, Note_on_c, 0, 57, 0
4, 2970, Note_on_c, 0, 59, 64
4, 2996, Note_on_c, 0, 59, 0
4, 3000, Note_on_c, 0, 55, 64
4, 3052, Note_on_c, 0, 55, 0
4, 3060, Note_on_c, 0, 66, 64
4, 3112, Note_on_c, 0, 66, 0
4, 3120, Note_on_c, 0, 64, 64
4, 3172, Note_on_c, 0, 64, 0
4, 3180, Note_on_c, 0, 62, 64
4, 3232, Note_on_c, 0, 62, 0
4, 3240, Note_on_c, 0, 61, 64
4, 3266, Note_on_c, 0, 61, 0
4, 3270, Note_on_c, 0, 57, 64
4, 3296, Note_on_c, 0, 57, 0
4, 3300, Note_on_c, 0, 55, 64
4, 3326, Note_on_c, 0, 55, 0
4, 3330, Note_on_c, 0, 57, 64
4, 3356, Note_on_c, 0, 57, 0
4, 3360, Note_on_c, 0, 54, 64
4, 3412, Note_on_c, 0, 54, 0
4, 3420, Note_on_c, 0, 64, 64
4, 3472, Note_on_c, 0, 64, 0
4, 3480, Note_on_c, 0, 62, 64
4, 3532, Note_on_c, 0, 62, 0
4, 3540, Note_on_c, 0, 61, 64
4, 3592, Note_on_c, 0, 61, 0
4, 3600, Note_on_c, 0, 59, 64
4, 3626, Note_on_c, 0, 59, 0
4, 3630, Note_on_c, 0, 55, 64
4, 3656, Note_on_c, 0, 55, 0
4, 3660, Note_on_c, 0, 54, 64
4, 3686, Note_on_c, 0, 54, 0
4, 3690, Note_on_c, 0, 55, 64
4, 3716, Note_on_c, 0, 55, 0
4, 3720, Note_on_c, 0, 52, 64
4, 3772, Note_on_c, 0, 52, 0
4, 3780, Note_on_c, 0, 62, 64
4, 3832, Note_on_c, 0, 62, 0
4, 3840, Note_on_c, 0, 61, 64
4, 3892, Note_on_c, 0, 61, 0
4, 3900, Note_on_c, 0, 59, 64
4, 3952, Note_on_c, 0, 59, 0
4, 3960, Note_on_c, 0, 57, 64
4, 4012, Note_on_c, 0, 57, 0
4, 4020, Note_on_c, 0, 59, 64
4, 4072, Note_on_c, 0, 59, 0
4, 4080, Note_on_c, 0, 61, 64
4, 4132, Note_on_c, 0, 61, 0
4, 4140, Note_on_c, 0, 64, 64
4, 4192, Note_on_c, 0, 64, 0
4, 4200, Note_on_c, 0, 57, 64
4, 4252, Note_on_c, 0, 57, 0
4, 4260, Note_on_c, 0, 61, 64
4, 4312, Note_on_c, 0, 61, 0
4, 4320, Note_on_c, 0, 54, 64
4, 4372, Note_on_c, 0, 54, 0
4, 4380, Note_on_c, 0, 57, 64
4, 4432, Note_on_c, 0, 57, 0
4, 4440, Note_on_c, 0, 50, 64
4, 4466, Note_on_c, 0, 50, 0
4, 4470, Note_on_c, 0, 52, 64
4, 4496, Note_on_c, 0, 52, 0
4, 4500, Note_on_c, 0, 54, 64
4, 4526, Note_on_c, 0, 54, 0
4, 4530, Note_on_c, 0, 55, 64
4, 4556, Note_on_c, 0, 55, 0
4, 4560, Note_on_c, 0, 57, 64
4, 4612, Note_on_c, 0, 57, 0
4, 4620, Note_on_c, 0, 45, 64
4, 4672, Note_on_c, 0, 45, 0
4, 4680, Note_on_c, 0, 47, 64
4, 4732, Note_on_c, 0, 47, 0
4, 4740, Note_on_c, 0, 50, 64
4, 4792, Note_on_c, 0, 50, 0
4, 4800, Note_on_c, 0, 53, 64
4, 4852, Note_on_c, 0, 53, 0
4, 4860, Note_on_c, 0, 45, 64
4, 4912, Note_on_c, 0, 45, 0
4, 4920, Note_on_c, 0, 44, 64
4, 4972, Note_on_c, 0, 44, 0
4, 4980, Note_on_c, 0, 52, 64
4, 5032, Note_on_c, 0, 52, 0
4, 5040, Note_on_c, 0, 45, 64
4, 5066, Note_on_c, 0, 45, 0
4, 5070, Note_on_c, 0, 49, 64
4, 5096, Note_on_c, 0, 49, 0
4, 5100, Note_on_c, 0, 52, 64
4, 5126, Note_on_c, 0, 52, 0
4, 5130, Note_on_c, 0, 55, 64
4, 5156, Note_on_c, 0, 55, 0
4, 5160, Note_on_c, 0, 54, 64
4, 5212, Note_on_c, 0, 54, 0
4, 5220, Note_on_c, 0, 50, 64
4, 5272, Note_on_c, 0, 50, 0
4, 5280, Note_on_c, 0, 57, 64
4, 5332, Note_on_c, 0, 57, 0
4, 5340, Note_on_c, 0, 45, 64
4, 5392, Note_on_c, 0, 45, 0
4, 5400, Note_on_c, 0, 50, 64
4, 5452, Note_on_c, 0, 50, 0
4, 5460, Note_on_c, 0, 38, 64
4, 5512, Note_on_c, 0, 38, 0
4, 5520, Note_on_c, 0, 42, 64
4, 5572, Note_on_c, 0, 42, 0
4, 5580, Note_on_c, 0, 45, 64
4, 5632, Note_on_c, 0, 45, 0
4, 5640, Note_on_c, 0, 50, 64
4, 5745, Note_on_c, 0, 50, 0
4, 5760, Note_on_c, 0, 55, 64
4, 6825, Note_on_c, 0, 55, 0
4, 6840, Note_on_c, 0, 50, 64
4, 6866, Note_on_c, 0, 50, 0
4, 6870, Note_on_c, 0, 57, 64
4, 6896, Note_on_c, 0, 57, 0
4, 6900, Note_on_c, 0, 49, 64
4, 6926, Note_on_c, 0, 49, 0
4, 6930, Note_on_c, 0, 57, 64
4, 6956, Note_on_c, 0, 57, 0
4, 6960, Note_on_c, 0, 50, 64
4, 6986, Note_on_c, 0, 50, 0
4, 6990, Note_on_c, 0, 57, 64
4, 7016, Note_on_c, 0, 57, 0
4, 7020, Note_on_c, 0, 52, 64
4, 7046, Note_on_c, 0, 52, 0
4, 7050, Note_on_c, 0, 57, 64
4, 7076, Note_on_c, 0, 57, 0
4, 7080, Note_on_c, 0, 54, 64
4, 7106, Note_on_c, 0, 54, 0
4, 7110, Note_on_c, 0, 57, 64
4, 7136, Note_on_c, 0, 57, 0
4, 7140, Note_on_c, 0, 55, 64
4, 7166, Note_on_c, 0, 55, 0
4, 7170, Note_on_c, 0, 57, 64
4, 7196, Note_on_c, 0, 57, 0
4, 7200, Note_on_c, 0, 54, 64
4, 7226, Note_on_c, 0, 54, 0
4, 7230, Note_on_c, 0, 57, 64
4, 7256, Note_on_c, 0, 57, 0
4, 7260, Note_on_c, 0, 52, 64
4, 7286, Note_on_c, 0, 52, 0
4, 7290, Note_on_c, 0, 57, 64
4, 7316, Note_on_c, 0, 57, 0
4, 7320, Note_on_c, 0, 50, 64
4, 7346, Note_on_c, 0, 50, 0
4, 7350, Note_on_c, 0, 57, 64
4, 7376, Note_on_c, 0, 57, 0
4, 7380, Note_on_c, 0, 55, 64
4, 7406, Note_on_c, 0, 55, 0
4, 7410, Note_on_c, 0, 57, 64
4, 7436, Note_on_c, 0, 57, 0
4, 7440, Note_on_c, 0, 54, 64
4, 7466, Note_on_c, 0, 54, 0
4, 7470, Note_on_c, 0, 57, 64
4, 7496, Note_on_c, 0, 57, 0
4, 7500, Note_on_c, 0, 52, 64
4, 7526, Note_on_c, 0, 52, 0
4, 7530, Note_on_c, 0, 57, 64
4, 7556, Note_on_c, 0, 57, 0
4, 7560, Note_on_c, 0, 54, 64
4, 7586, Note_on_c, 0, 54, 0
4, 7590, Note_on_c, 0, 57, 64
4, 7616, Note_on_c, 0, 57, 0
4, 7620, Note_on_c, 0, 52, 64
4, 7646, Note_on_c, 0, 52, 0
4, 7650, Note_on_c, 0, 57, 64
4, 7676, Note_on_c, 0, 57, 0
4, 7680, Note_on_c, 0, 50, 64
4, 7706, Note_on_c, 0, 50, 0
4, 7710, Note_on_c, 0, 57, 64
4, 7736, Note_on_c, 0, 57, 0
4, 7740, Note_on_c, 0, 54, 64
4, 7766, Note_on_c, 0, 54, 0
4, 7770, Note_on_c, 0, 57, 64
4, 7796, Note_on_c, 0, 57, 0
4, 7800, Note_on_c, 0, 52, 64
4, 7826, Note_on_c, 0, 52, 0
4, 7830, Note_on_c, 0, 57, 64
4, 7856, Note_on_c, 0, 57, 0
4, 7860, Note_on_c, 0, 50, 64
4, 7886, Note_on_c, 0, 50, 0
4, 7890, Note_on_c, 0, 57, 64
4, 7916, Note_on_c, 0, 57, 0
4, 7920, Note_on_c, 0, 45, 64
4, 7946, Note_on_c, 0, 45, 0
4, 7950, Note_on_c, 0, 57, 64
4, 7976, Note_on_c, 0, 57, 0
4, 7980, Note_on_c, 0, 56, 64
4, 8006, Note_on_c, 0, 56, 0
4, 8010, Note_on_c, 0, 57, 64
4, 8036, Note_on_c, 0, 57, 0
4, 8040, Note_on_c, 0, 45, 64
4, 8066, Note_on_c, 0, 45, 0
4, 8070, Note_on_c, 0, 57, 64
4, 8096, Note_on_c, 0, 57, 0
4, 8100, Note_on_c, 0, 47, 64
4, 8126, Note_on_c, 0, 47, 0
4, 8130, Note_on_c, 0, 57, 64
4, 8156, Note_on_c, 0, 57, 0
4, 8160, Note_on_c, 0, 48, 64
4, 8186, Note_on_c, 0, 48, 0
4, 8190, Note_on_c, 0, 57, 64
4, 8216, Note_on_c, 0, 57, 0
4, 8220, Note_on_c, 0, 50, 64
4, 8246, Note_on_c, 0, 50, 0
4, 8250, Note_on_c, 0, 57, 64
4, 8276, Note_on_c, 0, 57, 0
4, 8280, Note_on_c, 0, 52, 64
4, 8306, Note_on_c, 0, 52, 0
4, 8310, Note_on_c, 0, 64, 64
4, 8336, Note_on_c, 0, 64, 0
4, 8340, Note_on_c, 0, 62, 64
4, 8366, Note_on_c, 0, 62, 0
4, 8370, Note_on_c, 0, 64, 64
4, 8396, Note_on_c, 0, 64, 0
4, 8400, Note_on_c, 0, 52, 64
4, 8426, Note_on_c, 0, 52, 0
4, 8430, Note_on_c, 0, 64, 64
4, 8456, Note_on_c, 0, 64, 0
4, 8460, Note_on_c, 0, 54, 64
4, 8486, Note_on_c, 0, 54, 0
4, 8490, Note_on_c, 0, 64, 64
4, 8516, Note_on_c, 0, 64, 0
4, 8520, Note_on_c, 0, 55, 64
4, 8546, Note_on_c, 0, 55, 0
4, 8550, Note_on_c, 0, 64, 64
4, 8576, Note_on_c, 0, 64, 0
4, 8580, Note_on_c, 0, 57, 64
4, 8606, Note_on_c, 0, 57, 0
4, 8610, Note_on_c, 0, 64, 64
4, 8636, Note_on_c, 0, 64, 0
4, 8640, Note_on_c, 0, 62, 64
4, 8666, Note_on_c, 0, 62, 0
4, 8670, Note_on_c, 0, 59, 64
4, 8696, Note_on_c, 0, 59, 0
4, 8700, Note_on_c, 0, 57, 64
4, 8726, Note_on_c, 0, 57, 0
4, 8730, Note_on_c, 0, 59, 64
4, 8756, Note_on_c, 0, 59, 0
4, 8760, Note_on_c, 0, 55, 64
4, 8812, Note_on_c, 0, 55, 0
4, 8820, Note_on_c, 0, 66, 64
4, 8872, Note_on_c, 0, 66, 0
4, 8880, Note_on_c, 0, 64, 64
4, 8932, Note_on_c, 0, 64, 0
4, 8940, Note_on_c, 0, 62, 64
4, 8992, Note_on_c, 0, 62, 0
4, 9000, Note_on_c, 0, 61, 64
4, 9026, Note_on_c, 0, 61, 0
4, 9030, Note_on_c, 0, 57, 64
4, 9056, Note_on_c, 0, 57, 0
4, 9060, Note_on_c, 0, 55, 64
4, 9086, Note_on_c, 0, 55, 0
4, 9090, Note_on_c, 0, 57, 64
4, 9116, Note_on_c, 0, 57, 0
4, 9120, Note_on_c, 0, 54, 64
4, 9172, Note_on_c, 0, 54, 0
4, 9180, Note_on_c, 0, 64, 64
4, 9232, Note_on_c, 0, 64, 0
4, 9240, Note_on_c, 0, 62, 64
4, 9292, Note_on_c, 0, 62, 0
4, 9300, Note_on_c, 0, 61, 64
4, 9352, Note_on_c, 0, 61, 0
4, 9360, Note_on_c, 0, 59, 64
4, 9386, Note_on_c, 0, 59, 0
4, 9390, Note_on_c, 0, 55, 64
4, 9416, Note_on_c, 0, 55, 0
4, 9420, Note_on_c, 0, 54, 64
4, 9446, Note_on_c, 0, 54, 0
4, 9450, Note_on_c, 0, 55, 64
4, 9476, Note_on_c, 0, 55, 0
4, 9480, Note_on_c, 0, 52, 64
4, 9532, Note_on_c, 0, 52, 0
4, 9540, Note_on_c, 0, 62, 64
4, 9592, Note_on_c, 0, 62, 0
4, 9600, Note_on_c, 0, 61, 64
4, 9652, Note_on_c, 0, 61, 0
4, 9660, Note_on_c, 0, 59, 64
4, 9712, Note_on_c, 0, 59, 0
4, 9720, Note_on_c, 0, 57, 64
4, 9772, Note_on_c, 0, 57, 0
4, 9780, Note_on_c, 0, 59, 64
4, 9832, Note_on_c, 0, 59, 0
4, 9840, Note_on_c, 0, 61, 64
4, 9892, Note_on_c, 0, 61, 0
4, 9900, Note_on_c, 0, 64, 64
4, 9952, Note_on_c, 0, 64, 0
4, 9960, Note_on_c, 0, 57, 64
4, 10012, Note_on_c, 0, 57, 0
4, 10020, Note_on_c, 0, 61, 64
4, 10072, Note_on_c, 0, 61, 0
4, 10080, Note_on_c, 0, 54, 64
4, 10132, Note_on_c, 0, 54, 0
4, 10140, Note_on_c, 0, 57, 64
4, 10192, Note_on_c, 0, 57, 0
4, 10200, Note_on_c, 0, 50, 64
4, 10226, Note_on_c, 0, 50, 0
4, 10230, Note_on_c, 0, 52, 64
4, 10256, Note_on_c, 0, 52, 0
4, 10260, Note_on_c, 0, 54, 64
4, 10286, Note_on_c, 0, 54, 0
4, 10290, Note_on_c, 0, 55, 64
4, 10316, Note_on_c, 0, 55, 0
4, 10320, Note_on_c, 0, 57, 64
4, 10372, Note_on_c, 0, 57, 0
4, 10380, Note_on_c, 0, 45, 64
4, 10432, Note_on_c, 0, 45, 0
4, 10440, Note_on_c, 0, 47, 64
4, 10492, Note_on_c, 0, 47, 0
4, 10500, Note_on_c, 0, 50, 64
4, 10552, Note_on_c, 0, 50, 0
4, 10560, Note_on_c, 0, 53, 64
4, 10612, Note_on_c, 0, 53, 0
4, 10620, Note_on_c, 0, 45, 64
4, 10672, Note_on_c, 0, 45, 0
4, 10680, Note_on_c, 0, 44, 64
4, 10732, Note_on_c, 0, 44, 0
4, 10740, Note_on_c, 0, 52, 64
4, 10792, Note_on_c, 0, 52, 0
4, 10800, Note_on_c, 0, 45, 64
4, 10826, Note_on_c, 0, 45, 0
4, 10830, Note_on_c, 0, 49, 64
4, 10856, Note_on_c, 0, 49, 0
4, 10860, Note_on_c, 0, 52, 64
4, 10886, Note_on_c, 0, 52, 0
4, 10890, Note_on_c, 0, 55, 64
4, 10916, Note_on_c, 0, 55, 0
4, 10920, Note_on_c, 0, 54, 64
4, 10972, Note_on_c, 0, 54, 0
4, 10980, Note_on_c, 0, 50, 64
4, 11032, Note_on_c, 0, 50, 0
4, 11040, Note_on_c, 0, 57, 64
4, 11092, Note_on_c, 0, 57, 0
4, 11100, Note_on_c, 0, 45, 64
4, 11152, Note_on_c, 0, 45, 0
4, 11160, Note_on_c, 0, 50, 64
4, 11212, Note_on_c, 0, 50, 0
4, 11220, Note_on_c, 0, 38, 64
4, 11272, Note_on_c, 0, 38, 0
4, 11280, Note_on_c, 0, 42, 64
4, 11332, Note_on_c, 0, 42, 0
4, 11340, Note_on_c, 0, 45, 64
4, 11392, Note_on_c, 0, 45, 0
4, 11400, Note_on_c, 0, 50, 64
4, 11505, Note_on_c, 0, 50, 0
4, 11520, Note_on_c, 0, 50, 64
4, 12585, Note_on_c, 0, 50, 0
4, 12600, Note_on_c, 0, 43, 64
4, 12626, Note_on_c, 0, 43, 0
4, 12630, Note_on_c, 0, 55, 64
4, 12656, Note_on_c, 0, 55, 0
4, 12660, Note_on_c, 0, 54, 64
4, 12686, Note_on_c, 0, 54, 0
4, 12690, Note_on_c, 0, 55, 64
4, 12716, Note_on_c, 0, 55, 0
4, 12720, Note_on_c, 0, 59, 64
4, 12746, Note_on_c, 0, 59, 0
4, 12750, Note_on_c, 0, 55, 64
4, 12776, Note_on_c, 0, 55, 0
4, 12780, Note_on_c, 0, 60, 64
4, 12806, Note_on_c, 0, 60, 0
4, 12810, Note_on_c, 0, 55, 64
4, 12836, Note_on_c, 0, 55, 0
4, 12840, Note_on_c, 0, 62, 64
4, 12866, Note_on_c, 0, 62, 0
4, 12870, Note_on_c, 0, 55, 64
4, 12896, Note_on_c, 0, 55, 0
4, 12900, Note_on_c, 0, 60, 64
4, 12926, Note_on_c, 0, 60, 0
4, 12930, Note_on_c, 0, 55, 64
4, 12956, Note_on_c, 0, 55, 0
4, 12960, Note_on_c, 0, 59, 64
4, 12986, Note_on_c, 0, 59, 0
4, 12990, Note_on_c, 0, 55, 64
4, 13016, Note_on_c, 0, 55, 0
4, 13020, Note_on_c, 0, 57, 64
4, 13046, Note_on_c, 0, 57, 0
4, 13050, Note_on_c, 0, 55, 64
4, 13076, Note_on_c, 0, 55, 0
4, 13080, Note_on_c, 0, 59, 64
4, 13106, Note_on_c, 0, 59, 0
4, 13110, Note_on_c, 0, 55, 64
4, 13136, Note_on_c, 0, 55, 0
4, 13140, Note_on_c, 0, 60, 64
4, 13166, Note_on_c, 0, 60, 0
4, 13170, Note_on_c, 0, 55, 64
4, 13196, Note_on_c, 0, 55, 0
4, 13200, Note_on_c, 0, 62, 64
4, 13226, Note_on_c, 0, 62, 0
4, 13230, Note_on_c, 0, 55, 64
4, 13256, Note_on_c, 0, 55, 0
4, 13260, Note_on_c, 0, 59, 64
4, 13286, Note_on_c, 0, 59, 0
4, 13290, Note_on_c, 0, 55, 64
4, 13316, Note_on_c, 0, 55, 0
4, 13320, Note_on_c, 0, 60, 64
4, 13346, Note_on_c, 0, 60, 0
4, 13350, Note_on_c, 0, 55, 64
4, 13376, Note_on_c, 0, 55, 0
4, 13380, Note_on_c, 0, 59, 64
4, 13406, Note_on_c, 0, 59, 0
4, 13410, Note_on_c, 0, 55, 64
4, 13436, Note_on_c, 0, 55, 0
4, 13440, Note_on_c, 0, 60, 64
4, 13466, Note_on_c, 0, 60, 0
4, 13470, Note_on_c, 0, 55, 64
4, 13496, Note_on_c, 0, 55, 0
4, 13500, Note_on_c, 0, 64, 64
4, 13526, Note_on_c, 0, 64, 0
4, 13530, Note_on_c, 0, 55, 64
4, 13556, Note_on_c, 0, 55, 0
4, 13560, Note_on_c, 0, 62, 64
4, 13586, Note_on_c, 0, 62, 0
4, 13590, Note_on_c, 0, 55, 64
4, 13616, Note_on_c, 0, 55, 0
4, 13620, Note_on_c, 0, 65, 64
4, 13646, Note_on_c, 0, 65, 0
4, 13650, Note_on_c, 0, 55, 64
4, 13676, Note_on_c, 0, 55, 0
4, 13680, Note_on_c, 0, 64, 64
4, 13706, Note_on_c, 0, 64, 0
4, 13710, Note_on_c, 0, 60, 64
4, 13736, Note_on_c, 0, 60, 0
4, 13740, Note_on_c, 0, 59, 64
4, 13766, Note_on_c, 0, 59, 0
4, 13770, Note_on_c, 0, 60, 64
4, 13796, Note_on_c, 0, 60, 0
4, 13800, Note_on_c, 0, 54, 64
4, 13852, Note_on_c, 0, 54, 0
4, 13860, Note_on_c, 0, 64, 64
4, 13912, Note_on_c, 0, 64, 0
4, 13920, Note_on_c, 0, 63, 64
4, 13972, Note_on_c, 0, 63, 0
4, 13980, Note_on_c, 0, 66, 64
4, 14032, Note_on_c, 0, 66, 0
4, 14040, Note_on_c, 0, 59, 64
4, 14066, Note_on_c, 0, 59, 0
4, 14070, Note_on_c, 0, 63, 64
4, 14096, Note_on_c, 0, 63, 0
4, 14100, Note_on_c, 0, 61, 64
4, 14126, Note_on_c, 0, 61, 0
4, 14130, Note_on_c, 0, 63, 64
4, 14156, Note_on_c, 0, 63, 0
4, 14160, Note_on_c, 0, 52, 64
4, 14212, Note_on_c, 0, 52, 0
4, 14220, Note_on_c, 0, 54, 64
4, 14272, Note_on_c, 0, 54, 0
4, 14280, Note_on_c, 0, 55, 64
4, 14332, Note_on_c, 0, 55, 0
4, 14340, Note_on_c, 0, 52, 64
4, 14392, Note_on_c, 0, 52, 0
4, 14400, Note_on_c, 0, 57, 64
4, 14426, Note_on_c, 0, 57, 0
4, 14430, Note_on_c, 0, 60, 64
4, 14456, Note_on_c, 0, 60, 0
4, 14460, Note_on_c, 0, 59, 64
4, 14486, Note_on_c, 0, 59, 0
4, 14490, Note_on_c, 0, 60, 64
4, 14516, Note_on_c, 0, 60, 0
4, 14520, Note_on_c, 0, 57, 64
4, 14546, Note_on_c, 0, 57, 0
4, 14550, Note_on_c, 0, 60, 64
4, 14576, Note_on_c, 0, 60, 0
4, 14580, Note_on_c, 0, 55, 64
4, 14606, Note_on_c, 0, 55, 0
4, 14610, Note_on_c, 0, 60, 64
4, 14636, Note_on_c, 0, 60, 0
4, 14640, Note_on_c, 0, 54, 64
4, 14666, Note_on_c, 0, 54, 0
4, 14670, Note_on_c, 0, 60, 64
4, 14696, Note_on_c, 0, 60, 0
4, 14700, Note_on_c, 0, 52, 64
4, 14726, Note_on_c, 0, 52, 0
4, 14730, Note_on_c, 0, 60, 64
4, 14756, Note_on_c, 0, 60, 0
4, 14760, Note_on_c, 0, 51, 64
4, 14786, Note_on_c, 0, 51, 0
4, 14790, Note_on_c, 0, 59, 64
4, 14816, Note_on_c, 0, 59, 0
4, 14820, Note_on_c, 0, 47, 64
4, 14846, Note_on_c, 0, 47, 0
4, 14850, Note_on_c, 0, 59, 64
4, 14876, Note_on_c, 0, 59, 0
4, 14880, Note_on_c, 0, 49, 64
4, 14906, Note_on_c, 0, 49, 0
4, 14910, Note_on_c, 0, 59, 64
4, 14936, Note_on_c, 0, 59, 0
4, 14940, Note_on_c, 0, 51, 64
4, 14966, Note_on_c, 0, 51, 0
4, 14970, Note_on_c, 0, 59, 64
4, 14996, Note_on_c, 0, 59, 0
4, 15000, Note_on_c, 0, 52, 64
4, 15026, Note_on_c, 0, 52, 0
4, 15030, Note_on_c, 0, 59, 64
4, 15056, Note_on_c, 0, 59, 0
4, 15060, Note_on_c, 0, 54, 64
4, 15086, Note_on_c, 0, 54, 0
4, 15090, Note_on_c, 0, 59, 64
4, 15116, Note_on_c, 0, 59, 0
4, 15120, Note_on_c, 0, 55, 64
4, 15146, Note_on_c, 0, 55, 0
4, 15150, Note_on_c, 0, 59, 64
4, 15176, Note_on_c, 0, 59, 0
4, 15180, Note_on_c, 0, 57, 64
4, 15206, Note_on_c, 0, 57, 0
4, 15210, Note_on_c, 0, 60, 64
4, 15236, Note_on_c, 0, 60, 0
4, 15240, Note_on_c, 0, 59, 64
4, 15266, Note_on_c, 0, 59, 0
4, 15270, Note_on_c, 0, 57, 64
4, 15296, Note_on_c, 0, 57, 0
4, 15300, Note_on_c, 0, 55, 64
4, 15326, Note_on_c, 0, 55, 0
4, 15330, Note_on_c, 0, 57, 64
4, 15356, Note_on_c, 0, 57, 0
4, 15360, Note_on_c, 0, 59, 64
4, 15412, Note_on_c, 0, 59, 0
4, 15420, Note_on_c, 0, 47, 64
4, 15472, Note_on_c, 0, 47, 0
4, 15480, Note_on_c, 0, 52, 64
4, 15626, Note_on_c, 0, 52, 0
4, 15630, Note_on_c, 0, 47, 64
4, 15656, Note_on_c, 0, 47, 0
4, 15660, Note_on_c, 0, 43, 64
4, 15686, Note_on_c, 0, 43, 0
4, 15690, Note_on_c, 0, 47, 64
4, 15716, Note_on_c, 0, 47, 0
4, 15720, Note_on_c, 0, 40, 64
4, 15772, Note_on_c, 0, 40, 0
4, 15870, Note_on_c, 0, 45, 64
4, 15896, Note_on_c, 0, 45, 0
4, 15900, Note_on_c, 0, 49, 64
4, 15926, Note_on_c, 0, 49, 0
4, 15930, Note_on_c, 0, 45, 64
4, 15956, Note_on_c, 0, 45, 0
4, 15960, Note_on_c, 0, 52, 64
4, 15986, Note_on_c, 0, 52, 0
4, 15990, Note_on_c, 0, 45, 64
4, 16016, Note_on_c, 0, 45, 0
4, 16020, Note_on_c, 0, 55, 64
4, 16046, Note_on_c, 0, 55, 0
4, 16050, Note_on_c, 0, 45, 64
4, 16076, Note_on_c, 0, 45, 0
4, 16080, Note_on_c, 0, 54, 64
4, 16106, Note_on_c, 0, 54, 0
4, 16110, Note_on_c, 0, 45, 64
4, 16136, Note_on_c, 0, 45, 0
4, 16140, Note_on_c, 0, 52, 64
4, 16166, Note_on_c, 0, 52, 0
4, 16170, Note_on_c, 0, 45, 64
4, 16196, Note_on_c, 0, 45, 0
4, 16200, Note_on_c, 0, 50, 64
4, 16226, Note_on_c, 0, 50, 0
4, 16230, Note_on_c, 0, 45, 64
4, 16256, Note_on_c, 0, 45, 0
4, 16260, Note_on_c, 0, 42, 64
4, 16286, Note_on_c, 0, 42, 0
4, 16290, Note_on_c, 0, 45, 64
4, 16316, Note_on_c, 0, 45, 0
4, 16320, Note_on_c, 0, 38, 64
4, 16346, Note_on_c, 0, 38, 0
4, 16350, Note_on_c, 0, 42, 64
4, 16376, Note_on_c, 0, 42, 0
4, 16380, Note_on_c, 0, 45, 64
4, 16406, Note_on_c, 0, 45, 0
4, 16410, Note_on_c, 0, 50, 64
4, 16436, Note_on_c, 0, 50, 0
4, 16440, Note_on_c, 0, 54, 64
4, 16466, Note_on_c, 0, 54, 0
4, 16470, Note_on_c, 0, 57, 64
4, 16496, Note_on_c, 0, 57, 0
4, 16500, Note_on_c, 0, 54, 64
4, 16526, Note_on_c, 0, 54, 0
4, 16530, Note_on_c, 0, 50, 64
4, 16556, Note_on_c, 0, 50, 0
4, 16560, Note_on_c, 0, 55, 64
4, 16586, Note_on_c, 0, 55, 0
4, 16590, Note_on_c, 0, 43, 64
4, 16616, Note_on_c, 0, 43, 0
4, 16620, Note_on_c, 0, 47, 64
4, 16646, Note_on_c, 0, 47, 0
4, 16650, Note_on_c, 0, 43, 64
4, 16676, Note_on_c, 0, 43, 0
4, 16680, Note_on_c, 0, 50, 64
4, 16706, Note_on_c, 0, 50, 0
4, 16710, Note_on_c, 0, 43, 64
4, 16736, Note_on_c, 0, 43, 0
4, 16740, Note_on_c, 0, 53, 64
4, 16766, Note_on_c, 0, 53, 0
4, 16770, Note_on_c, 0, 43, 64
4, 16796, Note_on_c, 0, 43, 0
4, 16800, Note_on_c, 0, 52, 64
4, 16826, Note_on_c, 0, 52, 0
4, 16830, Note_on_c, 0, 43, 64
4, 16856, Note_on_c, 0, 43, 0
4, 16860, Note_on_c, 0, 50, 64
4, 16886, Note_on_c, 0, 50, 0
4, 16890, Note_on_c, 0, 43, 64
4, 16916, Note_on_c, 0, 43, 0
4, 16920, Note_on_c, 0, 48, 64
4, 16946, Note_on_c, 0, 48, 0
4, 16950, Note_on_c, 0, 43, 64
4, 16976, Note_on_c, 0, 43, 0
4, 16980, Note_on_c, 0, 40, 64
4, 17006, Note_on_c, 0, 40, 0
4, 17010, Note_on_c, 0, 43, 64
4, 17036, Note_on_c, 0, 43, 0
4, 17040, Note_on_c, 0, 36, 64
4, 17092, Note_on_c, 0, 36, 0
4, 17310, Note_on_c, 0, 48, 64
4, 17336, Note_on_c, 0, 48, 0
4, 17340, Note_on_c, 0, 47, 64
4, 17366, Note_on_c, 0, 47, 0
4, 17370, Note_on_c, 0, 45, 64
4, 17396, Note_on_c, 0, 45, 0
4, 17400, Note_on_c, 0, 47, 64
4, 17452, Note_on_c, 0, 47, 0
4, 17460, Note_on_c, 0, 50, 64
4, 17512, Note_on_c, 0, 50, 0
4, 17520, Note_on_c, 0, 52, 64
4, 17572, Note_on_c, 0, 52, 0
4, 17580, Note_on_c, 0, 55, 64
4, 17666, Note_on_c, 0, 55, 0
4, 17670, Note_on_c, 0, 47, 64
4, 17696, Note_on_c, 0, 47, 0
4, 17700, Note_on_c, 0, 45, 64
4, 17726, Note_on_c, 0, 45, 0
4, 17730, Note_on_c, 0, 43, 64
4, 17756, Note_on_c, 0, 43, 0
4, 17760, Note_on_c, 0, 45, 64
4, 17812, Note_on_c, 0, 45, 0
4, 17820, Note_on_c, 0, 48, 64
4, 17872, Note_on_c, 0, 48, 0
4, 17880, Note_on_c, 0, 50, 64
4, 17932, Note_on_c, 0, 50, 0
4, 17940, Note_on_c, 0, 54, 64
4, 18026, Note_on_c, 0, 54, 0
4, 18030, Note_on_c, 0, 45, 64
4, 18056, Note_on_c, 0, 45, 0
4, 18060, Note_on_c, 0, 43, 64
4, 18086, Note_on_c, 0, 43, 0
4, 18090, Note_on_c, 0, 42, 64
4, 18116, Note_on_c, 0, 42, 0
4, 18120, Note_on_c, 0, 43, 64
4, 18172, Note_on_c, 0, 43, 0
4, 18180, Note_on_c, 0, 47, 64
4, 18232, Note_on_c, 0, 47, 0
4, 18240, Note_on_c, 0, 50, 64
4, 18292, Note_on_c, 0, 50, 0
4, 18300, Note_on_c, 0, 55, 64
4, 18352, Note_on_c, 0, 55, 0
4, 18360, Note_on_c, 0, 54, 64
4, 18412, Note_on_c, 0, 54, 0
4, 18420, Note_on_c, 0, 50, 64
4, 18472, Note_on_c, 0, 50, 0
4, 18480, Note_on_c, 0, 54, 64
4, 18532, Note_on_c, 0, 54, 0
4, 18540, Note_on_c, 0, 57, 64
4, 18592, Note_on_c, 0, 57, 0
4, 18600, Note_on_c, 0, 62, 64
4, 18626, Note_on_c, 0, 62, 0
4, 18630, Note_on_c, 0, 50, 64
4, 18656, Note_on_c, 0, 50, 0
4, 18660, Note_on_c, 0, 48, 64
4, 18686, Note_on_c, 0, 48, 0
4, 18690, Note_on_c, 0, 50, 64
4, 18716, Note_on_c, 0, 50, 0
4, 18720, Note_on_c, 0, 47, 64
4, 18746, Note_on_c, 0, 47, 0
4, 18750, Note_on_c, 0, 50, 64
4, 18776, Note_on_c, 0, 50, 0
4, 18780, Note_on_c, 0, 45, 64
4, 18806, Note_on_c, 0, 45, 0
4, 18810, Note_on_c, 0, 50, 64
4, 18836, Note_on_c, 0, 50, 0
4, 18840, Note_on_c, 0, 47, 64
4, 18866, Note_on_c, 0, 47, 0
4, 18870, Note_on_c, 0, 50, 64
4, 18896, Note_on_c, 0, 50, 0
4, 18900, Note_on_c, 0, 43, 64
4, 18926, Note_on_c, 0, 43, 0
4, 18930, Note_on_c, 0, 50, 64
4, 18956, Note_on_c, 0, 50, 0
4, 18960, Note_on_c, 0, 45, 64
4, 18986, Note_on_c, 0, 45, 0
4, 18990, Note_on_c, 0, 50, 64
4, 19016, Note_on_c, 0, 50, 0
4, 19020, Note_on_c, 0, 47, 64
4, 19046, Note_on_c, 0, 47, 0
4, 19050, Note_on_c, 0, 50, 64
4, 19076, Note_on_c, 0, 50, 0
4, 19080, Note_on_c, 0, 48, 64
4, 19106, Note_on_c, 0, 48, 0
4, 19110, Note_on_c, 0, 52, 64
4, 19136, Note_on_c, 0, 52, 0
4, 19140, Note_on_c, 0, 47, 64
4, 19166, Note_on_c, 0, 47, 0
4, 19170, Note_on_c, 0, 52, 64
4, 19196, Note_on_c, 0, 52, 0
4, 19200, Note_on_c, 0, 49, 64
4, 19226, Note_on_c, 0, 49, 0
4, 19230, Note_on_c, 0, 52, 64
4, 19256, Note_on_c, 0, 52, 0
4, 19260, Note_on_c, 0, 45, 64
4, 19286, Note_on_c, 0, 45, 0
4, 19290, Note_on_c, 0, 52, 64
4, 19316, Note_on_c, 0, 52, 0
4, 19320, Note_on_c, 0, 47, 64
4, 19346, Note_on_c, 0, 47, 0
4, 19350, Note_on_c, 0, 52, 64
4, 19376, Note_on_c, 0, 52, 0
4, 19380, Note_on_c, 0, 49, 64
4, 19406, Note_on_c, 0, 49, 0
4, 19410, Note_on_c, 0, 52, 64
4, 19436, Note_on_c, 0, 52, 0
4, 19440, Note_on_c, 0, 50, 64
4, 19466, Note_on_c, 0, 50, 0
4, 19470, Note_on_c, 0, 54, 64
4, 19496, Note_on_c, 0, 54, 0
4, 19500, Note_on_c, 0, 49, 64
4, 19526, Note_on_c, 0, 49, 0
4, 19530, Note_on_c, 0, 54, 64
4, 19556, Note_on_c, 0, 54, 0
4, 19560, Note_on_c, 0, 51, 64
4, 19586, Note_on_c, 0, 51, 0
4, 19590, Note_on_c, 0, 54, 64
4, 19616, Note_on_c, 0, 54, 0
4, 19620, Note_on_c, 0, 47, 64
4, 19646, Note_on_c, 0, 47, 0
4, 19650, Note_on_c, 0, 54, 64
4, 19676, Note_on_c, 0, 54, 0
4, 19680, Note_on_c, 0, 49, 64
4, 19706, Note_on_c, 0, 49, 0
4, 19710, Note_on_c, 0, 54, 64
4, 19736, Note_on_c, 0, 54, 0
4, 19740, Note_on_c, 0, 51, 64
4, 19766, Note_on_c, 0, 51, 0
4, 19770, Note_on_c, 0, 54, 64
4, 19796, Note_on_c, 0, 54, 0
4, 19800, Note_on_c, 0, 52, 64
4, 19826, Note_on_c, 0, 52, 0
4, 19830, Note_on_c, 0, 55, 64
4, 19856, Note_on_c, 0, 55, 0
4, 19860, Note_on_c, 0, 50, 64
4, 19886, Note_on_c, 0, 50, 0
4, 19890, Note_on_c, 0, 55, 64
4, 19916, Note_on_c, 0, 55, 0
4, 19920, Note_on_c, 0, 48, 64
4, 19946, Note_on_c, 0, 48, 0
4, 19950, Note_on_c, 0, 55, 64
4, 19976, Note_on_c, 0, 55, 0
4, 19980, Note_on_c, 0, 47, 64
4, 20006, Note_on_c, 0, 47, 0
4, 20010, Note_on_c, 0, 55, 64
4, 20036, Note_on_c, 0, 55, 0
4, 20040, Note_on_c, 0, 45, 64
4, 20066, Note_on_c, 0, 45, 0
4, 20070, Note_on_c, 0, 48, 64
4, 20096, Note_on_c, 0, 48, 0
4, 20100, Note_on_c, 0, 52, 64
4, 20126, Note_on_c, 0, 52, 0
4, 20130, Note_on_c, 0, 55, 64
4, 20156, Note_on_c, 0, 55, 0
4, 20160, Note_on_c, 0, 54, 64
4, 20212, Note_on_c, 0, 54, 0
4, 20220, Note_on_c, 0, 57, 64
4, 20272, Note_on_c, 0, 57, 0
4, 20280, Note_on_c, 0, 50, 64
4, 20332, Note_on_c, 0, 50, 0
4, 20340, Note_on_c, 0, 52, 64
4, 20392, Note_on_c, 0, 52, 0
4, 20400, Note_on_c, 0, 54, 64
4, 20452, Note_on_c, 0, 54, 0
4, 20460, Note_on_c, 0, 50, 64
4, 20512, Note_on_c, 0, 50, 0
4, 20520, Note_on_c, 0, 55, 64
4, 20546, Note_on_c, 0, 55, 0
4, 20550, Note_on_c, 0, 67, 64
4, 20576, Note_on_c, 0, 67, 0
4, 20580, Note_on_c, 0, 65, 64
4, 20606, Note_on_c, 0, 65, 0
4, 20610, Note_on_c, 0, 67, 64
4, 20636, Note_on_c, 0, 67, 0
4, 20640, Note_on_c, 0, 64, 64
4, 20666, Note_on_c, 0, 64, 0
4, 20670, Note_on_c, 0, 67, 64
4, 20696, Note_on_c, 0, 67, 0
4, 20700, Note_on_c, 0, 62, 64
4, 20726, Note_on_c, 0, 62, 0
4, 20730, Note_on_c, 0, 67, 64
4, 20756, Note_on_c, 0, 67, 0
4, 20760, Note_on_c, 0, 60, 64
4, 20786, Note_on_c, 0, 60, 0
4, 20790, Note_on_c, 0, 67, 64
4, 20816, Note_on_c, 0, 67, 0
4, 20820, Note_on_c, 0, 59, 64
4, 20846, Note_on_c, 0, 59, 0
4, 20850, Note_on_c, 0, 67, 64
4, 20876, Note_on_c, 0, 67, 0
4, 20880, Note_on_c, 0, 60, 64
4, 20906, Note_on_c, 0, 60, 0
4, 20910, Note_on_c, 0, 64, 64
4, 20936, Note_on_c, 0, 64, 0
4, 20940, Note_on_c, 0, 62, 64
4, 20966, Note_on_c, 0, 62, 0
4, 20970, Note_on_c, 0, 64, 64
4, 20996, Note_on_c, 0, 64, 0
4, 21000, Note_on_c, 0, 57, 64
4, 21052, Note_on_c, 0, 57, 0
4, 21060, Note_on_c, 0, 59, 64
4, 21112, Note_on_c, 0, 59, 0
4, 21120, Note_on_c, 0, 60, 64
4, 21172, Note_on_c, 0, 60, 0
4, 21180, Note_on_c, 0, 57, 64
4, 21232, Note_on_c, 0, 57, 0
4, 21240, Note_on_c, 0, 62, 64
4, 21292, Note_on_c, 0, 62, 0
4, 21300, Note_on_c, 0, 57, 64
4, 21352, Note_on_c, 0, 57, 0
4, 21360, Note_on_c, 0, 54, 64
4, 21412, Note_on_c, 0, 54, 0
4, 21420, Note_on_c, 0, 57, 64
4, 21472, Note_on_c, 0, 57, 0
4, 21480, Note_on_c, 0, 50, 64
4, 21532, Note_on_c, 0, 50, 0
4, 21540, Note_on_c, 0, 54, 64
4, 21592, Note_on_c, 0, 54, 0
4, 21600, Note_on_c, 0, 47, 64
4, 21652, Note_on_c, 0, 47, 0
4, 21660, Note_on_c, 0, 50, 64
4, 21712, Note_on_c, 0, 50, 0
4, 21720, Note_on_c, 0, 43, 64
4, 21746, Note_on_c, 0, 43, 0
4, 21750, Note_on_c, 0, 45, 64
4, 21776, Note_on_c, 0, 45, 0
4, 21780, Note_on_c, 0, 47, 64
4, 21806, Note_on_c, 0, 47, 0
4, 21810, Note_on_c, 0, 48, 64
4, 21836, Note_on_c, 0, 48, 0
4, 21840, Note_on_c, 0, 50, 64
4, 21892, Note_on_c, 0, 50, 0
4, 21900, Note_on_c, 0, 38, 64
4, 21952, Note_on_c, 0, 38, 0
4, 21960, Note_on_c, 0, 40, 64
4, 22012, Note_on_c, 0, 40, 0
4, 22020, Note_on_c, 0, 55, 64
4, 22072, Note_on_c, 0, 55, 0
4, 22080, Note_on_c, 0, 58, 64
4, 22132, Note_on_c, 0, 58, 0
4, 22140, Note_on_c, 0, 50, 64
4, 22192, Note_on_c, 0, 50, 0
4, 22200, Note_on_c, 0, 49, 64
4, 22252, Note_on_c, 0, 49, 0
4, 22260, Note_on_c, 0, 45, 64
4, 22312, Note_on_c, 0, 45, 0
4, 22320, Note_on_c, 0, 50, 64
4, 22346, Note_on_c, 0, 50, 0
4, 22350, Note_on_c, 0, 54, 64
4, 22376, Note_on_c, 0, 54, 0
4, 22380, Note_on_c, 0, 57, 64
4, 22406, Note_on_c, 0, 57, 0
4, 22410, Note_on_c, 0, 60, 64
4, 22436, Note_on_c, 0, 60, 0
4, 22440, Note_on_c, 0, 59, 64
4, 22492, Note_on_c, 0, 59, 0
4, 22500, Note_on_c, 0, 55, 64
4, 22552, Note_on_c, 0, 55, 0
4, 22560, Note_on_c, 0, 62, 64
4, 22612, Note_on_c, 0, 62, 0
4, 22620, Note_on_c, 0, 50, 64
4, 22672, Note_on_c, 0, 50, 0
4, 22680, Note_on_c, 0, 55, 64
4, 22732, Note_on_c, 0, 55, 0
4, 22740, Note_on_c, 0, 43, 64
4, 22792, Note_on_c, 0, 43, 0
4, 22800, Note_on_c, 0, 47, 64
4, 22852, Note_on_c, 0, 47, 0
4, 22860, Note_on_c, 0, 50, 64
4, 22912, Note_on_c, 0, 50, 0
4, 22920, Note_on_c, 0, 55, 64
4, 23025, Note_on_c, 0, 55, 0
4, 23040, Note_on_c, 0, 50, 64
4, 24105, Note_on_c, 0, 50, 0
4, 24120, Note_on_c, 0, 43, 64
4, 24146, Note_on_c, 0, 43, 0
4, 24150, Note_on_c, 0, 55, 64
4, 24176, Note_on_c, 0, 55, 0
4, 24180, Note_on_c, 0, 54, 64
4, 24206, Note_on_c, 0, 54, 0
4, 24210, Note_on_c, 0, 55, 64
4, 24236, Note_on_c, 0, 55, 0
4, 24240, Note_on_c, 0, 59, 64
4, 24266, Note_on_c, 0, 59, 0
4, 24270, Note_on_c, 0, 55, 64
4, 24296, Note_on_c, 0, 55, 0
4, 24300, Note_on_c, 0, 60, 64
4, 24326, Note_on_c, 0, 60, 0
4, 24330, Note_on_c, 0, 55, 64
4, 24356, Note_on_c, 0, 55, 0
4, 24360, Note_on_c, 0, 62, 64
4, 24386, Note_on_c, 0, 62, 0
4, 24390, Note_on_c, 0, 55, 64
4, 24416, Note_on_c, 0, 55, 0
4, 24420, Note_on_c, 0, 60, 64
4, 24446, Note_on_c, 0, 60, 0
4, 24450, Note_on_c, 0, 55, 64
4, 24476, Note_on_c, 0, 55, 0
4, 24480, Note_on_c, 0, 59, 64
4, 24506, Note_on_c, 0, 59, 0
4, 24510, Note_on_c, 0, 55, 64
4, 24536, Note_on_c, 0, 55, 0
4, 24540, Note_on_c, 0, 57, 64
4, 24566, Note_on_c, 0, 57, 0
4, 24570, Note_on_c, 0, 55, 64
4, 24596, Note_on_c, 0, 55, 0
4, 24600, Note_on_c, 0, 59, 64
4, 24626, Note_on_c, 0, 59, 0
4, 24630, Note_on_c, 0, 55, 64
4, 24656, Note_on_c, 0, 55, 0
4, 24660, Note_on_c, 0, 60, 64
4, 24686, Note_on_c, 0, 60, 0
4, 24690, Note_on_c, 0, 55, 64
4, 24716, Note_on_c, 0, 55, 0
4, 24720, Note_on_c, 0, 62, 64
4, 24746, Note_on_c, 0, 62, 0
4, 24750, Note_on_c, 0, 55, 64
4, 24776, Note_on_c, 0, 55, 0
4, 24780, Note_on_c, 0, 59, 64
4, 24806, Note_on_c, 0, 59, 0
4, 24810, Note_on_c, 0, 55, 64
4, 24836, Note_on_c, 0, 55, 0
4, 24840, Note_on_c, 0, 60, 64
4, 24866, Note_on_c, 0, 60, 0
4, 24870, Note_on_c, 0, 55, 64
4, 24896, Note_on_c, 0, 55, 0
4, 24900, Note_on_c, 0, 59, 64
4, 24926, Note_on_c, 0, 59, 0
4, 24930, Note_on_c, 0, 55, 64
4, 24956, Note_on_c, 0, 55, 0
4, 24960, Note_on_c, 0, 60, 64
4, 24986, Note_on_c, 0, 60, 0
4, 24990, Note_on_c, 0, 55, 64
4, 25016, Note_on_c, 0, 55, 0
4, 25020, Note_on_c, 0, 64, 64
4, 25046, Note_on_c, 0, 64, 0
4, 25050, Note_on_c, 0, 55, 64
4, 25076, Note_on_c, 0, 55, 0
4, 25080, Note_on_c, 0, 62, 64
4, 25106, Note_on_c, 0, 62, 0
4, 25110, Note_on_c, 0, 55, 64
4, 25136, Note_on_c, 0, 55, 0
4, 25140, Note_on_c, 0, 65, 64
4, 25166, Note_on_c, 0, 65, 0
4, 25170, Note_on_c, 0, 55, 64
4, 25196, Note_on_c, 0, 55, 0
4, 25200, Note_on_c, 0, 64, 64
4, 25226, Note_on_c, 0, 64, 0
4, 25230, Note_on_c, 0, 60, 64
4, 25256, Note_on_c, 0, 60, 0
4, 25260, Note_on_c, 0, 59, 64
4, 25286, Note_on_c, 0, 59, 0
4, 25290, Note_on_c, 0, 60, 64
4, 25316, Note_on_c, 0, 60, 0
4, 25320, Note_on_c, 0, 54, 64
4, 25372, Note_on_c, 0, 54, 0
4, 25380, Note_on_c, 0, 64, 64
4, 25432, Note_on_c, 0, 64, 0
4, 25440, Note_on_c, 0, 63, 64
4, 25492, Note_on_c, 0, 63, 0
4, 25500, Note_on_c, 0, 66, 64
4, 25552, Note_on_c, 0, 66, 0
4, 25560, Note_on_c, 0, 59, 64
4, 25586, Note_on_c, 0, 59, 0
4, 25590, Note_on_c, 0, 63, 64
4, 25616, Note_on_c, 0, 63, 0
4, 25620, Note_on_c, 0, 61, 64
4, 25646, Note_on_c, 0, 61, 0
4, 25650, Note_on_c, 0, 63, 64
4, 25676, Note_on_c, 0, 63, 0
4, 25680, Note_on_c, 0, 52, 64
4, 25732, Note_on_c, 0, 52, 0
4, 25740, Note_on_c, 0, 54, 64
4, 25792, Note_on_c, 0, 54, 0
4, 25800, Note_on_c, 0, 55, 64
4, 25852, Note_on_c, 0, 55, 0
4, 25860, Note_on_c, 0, 52, 64
4, 25912, Note_on_c, 0, 52, 0
4, 25920, Note_on_c, 0, 57, 64
4, 25946, Note_on_c, 0, 57, 0
4, 25950, Note_on_c, 0, 60, 64
4, 25976, Note_on_c, 0, 60, 0
4, 25980, Note_on_c, 0, 59, 64
4, 26006, Note_on_c, 0, 59, 0
4, 26010, Note_on_c, 0, 60, 64
4, 26036, Note_on_c, 0, 60, 0
4, 26040, Note_on_c, 0, 57, 64
4, 26066, Note_on_c, 0, 57, 0
4, 26070, Note_on_c, 0, 60, 64
4, 26096, Note_on_c, 0, 60, 0
4, 26100, Note_on_c, 0, 55, 64
4, 26126, Note_on_c, 0, 55, 0
4, 26130, Note_on_c, 0, 60, 64
4, 26156, Note_on_c, 0, 60, 0
4, 26160, Note_on_c, 0, 54, 64
4, 26186, Note_on_c, 0, 54, 0
4, 26190, Note_on_c, 0, 60, 64
4, 26216, Note_on_c, 0, 60, 0
4, 26220, Note_on_c, 0, 52, 64
4, 26246, Note_on_c, 0, 52, 0
4, 26250, Note_on_c, 0, 60, 64
4, 26276, Note_on_c, 0, 60, 0
4, 26280, Note_on_c, 0, 51, 64
4, 26306, Note_on_c, 0, 51, 0
4, 26310, Note_on_c, 0, 59, 64
4, 26336, Note_on_c, 0, 59, 0
4, 26340, Note_on_c, 0, 47, 64
4, 26366, Note_on_c, 0, 47, 0
4, 26370, Note_on_c, 0, 59, 64
4, 26396, Note_on_c, 0, 59, 0
4, 26400, Note_on_c, 0, 49, 64
4, 26426, Note_on_c, 0, 49, 0
4, 26430, Note_on_c, 0, 59, 64
4, 26456, Note_on_c, 0, 59, 0
4, 26460, Note_on_c, 0, 51, 64
4, 26486, Note_on_c, 0, 51, 0
4, 26490, Note_on_c, 0, 59, 64
4, 26516, Note_on_c, 0, 59, 0
4, 26520, Note_on_c, 0, 52, 64
4, 26546, Note_on_c, 0, 52, 0
4, 26550, Note_on_c, 0, 59, 64
4, 26576, Note_on_c, 0, 59, 0
4, 26580, Note_on_c, 0, 54, 64
4, 26606, Note_on_c, 0, 54, 0
4, 26610, Note_on_c, 0, 59, 64
4, 26636, Note_on_c, 0, 59, 0
4, 26640, Note_on_c, 0, 55, 64
4, 26666, Note_on_c, 0, 55, 0
4, 26670, Note_on_c, 0, 59, 64
4, 26696, Note_on_c, 0, 59, 0
4, 26700, Note_on_c, 0, 57, 64
4, 26726, Note_on_c, 0, 57, 0
4, 26730, Note_on_c, 0, 60, 64
4, 26756, Note_on_c, 0, 60, 0
4, 26760, Note_on_c, 0, 59, 64
4, 26786, Note_on_c, 0, 59, 0
4, 26790, Note_on_c, 0, 57, 64
4, 26816, Note_on_c, 0, 57, 0
4, 26820, Note_on_c, 0, 55, 64
4, 26846, Note_on_c, 0, 55, 0
4, 26850, Note_on_c, 0, 57, 64
4, 26876, Note_on_c, 0, 57, 0
4, 26880, Note_on_c, 0, 59, 64
4, 26932, Note_on_c, 0, 59, 0
4, 26940, Note_on_c, 0, 47, 64
4, 26992, Note_on_c, 0, 47, 0
4, 27000, Note_on_c, 0, 52, 64
4, 27146, Note_on_c, 0, 52, 0
4, 27150, Note_on_c, 0, 47, 64
4, 27176, Note_on_c, 0, 47, 0
4, 27180, Note_on_c, 0, 43, 64
4, 27206, Note_on_c, 0, 43, 0
4, 27210, Note_on_c, 0, 47, 64
4, 27236, Note_on_c, 0, 47, 0
4, 27240, Note_on_c, 0, 40, 64
4, 27292, Note_on_c, 0, 40, 0
4, 27390, Note_on_c, 0, 45, 64
4, 27416, Note_on_c, 0, 45, 0
4, 27420, Note_on_c, 0, 49, 64
4, 27446, Note_on_c, 0, 49, 0
4, 27450, Note_on_c, 0, 45, 64
4, 27476, Note_on_c, 0, 45, 0
4, 27480, Note_on_c, 0, 52, 64
4, 27506, Note_on_c, 0, 52, 0
4, 27510, Note_on_c, 0, 45, 64
4, 27536, Note_on_c, 0, 45, 0
4, 27540, Note_on_c, 0, 55, 64
4, 27566, Note_on_c, 0, 55, 0
4, 27570, Note_on_c, 0, 45, 64
4, 27596, Note_on_c, 0, 45, 0
4, 27600, Note_on_c, 0, 54, 64
4, 27626, Note_on_c, 0, 54, 0
4, 27630, Note_on_c, 0, 45, 64
4, 27656, Note_on_c, 0, 45, 0
4, 27660, Note_on_c, 0, 52, 64
4, 27686, Note_on_c, 0, 52, 0
4, 27690, Note_on_c, 0, 45, 64
4, 27716, Note_on_c, 0, 45, 0
4, 27720, Note_on_c, 0, 50, 64
4, 27746, Note_on_c, 0, 50, 0
4, 27750, Note_on_c, 0, 45, 64
4, 27776, Note_on_c, 0, 45, 0
4, 27780, Note_on_c, 0, 42, 64
4, 27806, Note_on_c, 0, 42, 0
4, 27810, Note_on_c, 0, 45, 64
4, 27836, Note_on_c, 0, 45, 0
4, 27840, Note_on_c, 0, 38, 64
4, 27866, Note_on_c, 0, 38, 0
4, 27870, Note_on_c, 0, 42, 64
4, 27896, Note_on_c, 0, 42, 0
4, 27900, Note_on_c, 0, 45, 64
4, 27926, Note_on_c, 0, 45, 0
4, 27930, Note_on_c, 0, 50, 64
4, 27956, Note_on_c, 0, 50, 0
4, 27960, Note_on_c, 0, 54, 64
4, 27986, Note_on_c, 0, 54, 0
4, 27990, Note_on_c, 0, 57, 64
4, 28016, Note_on_c, 0, 57, 0
4, 28020, Note_on_c, 0, 54, 64
4, 28046, Note_on_c, 0, 54, 0
4, 28050, Note_on_c, 0, 50, 64
4, 28076, Note_on_c, 0, 50, 0
4, 28080, Note_on_c, 0, 55, 64
4, 28106, Note_on_c, 0, 55, 0
4, 28110, Note_on_c, 0, 43, 64
4, 28136, Note_on_c, 0, 43, 0
4, 28140, Note_on_c, 0, 47, 64
4, 28166, Note_on_c, 0, 47, 0
4, 28170, Note_on_c, 0, 43, 64
4, 28196, Note_on_c, 0, 43, 0
4, 28200, Note_on_c, 0, 50, 64
4, 28226, Note_on_c, 0, 50, 0
4, 28230, Note_on_c, 0, 43, 64
4, 28256, Note_on_c, 0, 43, 0
4, 28260, Note_on_c, 0, 53, 64
4, 28286, Note_on_c, 0, 53, 0
4, 28290, Note_on_c, 0, 43, 64
4, 28316, Note_on_c, 0, 43, 0
4, 28320, Note_on_c, 0, 52, 64
4, 28346, Note_on_c, 0, 52, 0
4, 28350, Note_on_c, 0, 43, 64
4, 28376, Note_on_c, 0, 43, 0
4, 28380, Note_on_c, 0, 50, 64
4, 28406, Note_on_c, 0, 50, 0
4, 28410, Note_on_c, 0, 43, 64
4, 28436, Note_on_c, 0, 43, 0
4, 28440, Note_on_c, 0, 48, 64
4, 28466, Note_on_c, 0, 48, 0
4, 28470, Note_on_c, 0, 43, 64
4, 28496, Note_on_c, 0, 43, 0
4, 28500, Note_on_c, 0, 40, 64
4, 28526, Note_on_c, 0, 40, 0
4, 28530, Note_on_c, 0, 43, 64
4, 28556, Note_on_c, 0, 43, 0
4, 28560, Note_on_c, 0, 36, 64
4, 28612, Note_on_c, 0, 36, 0
4, 28830, Note_on_c, 0, 48, 64
4, 28856, Note_on_c, 0, 48, 0
4, 28860, Note_on_c, 0, 47, 64
4, 28886, Note_on_c, 0, 47, 0
4, 28890, Note_on_c, 0, 45, 64
4, 28916, Note_on_c, 0, 45, 0
4, 28920, Note_on_c, 0, 47, 64
4, 28972, Note_on_c, 0, 47, 0
4, 28980, Note_on_c, 0, 50, 64
4, 29032, Note_on_c, 0, 50, 0
4, 29040, Note_on_c, 0, 52, 64
4, 29092, Note_on_c, 0, 52, 0
4, 29100, Note_on_c, 0, 55, 64
4, 29186, Note_on_c, 0, 55, 0
4, 29190, Note_on_c, 0, 47, 64
4, 29216, Note_on_c, 0, 47, 0
4, 29220, Note_on_c, 0, 45, 64
4, 29246, Note_on_c, 0, 45, 0
4, 29250, Note_on_c, 0, 43, 64
4, 29276, Note_on_c, 0, 43, 0
4, 29280, Note_on_c, 0, 45, 64
4, 29332, Note_on_c, 0, 45, 0
4, 29340, Note_on_c, 0, 48, 64
4, 29392, Note_on_c, 0, 48, 0
4, 29400, Note_on_c, 0, 50, 64
4, 29452, Note_on_c, 0, 50, 0
4, 29460, Note_on_c, 0, 54, 64
4, 29546, Note_on_c, 0, 54, 0
4, 29550, Note_on_c, 0, 45, 64
4, 29576, Note_on_c, 0, 45, 0
4, 29580, Note_on_c, 0, 43, 64
4, 29606, Note_on_c, 0, 43, 0
4, 29610, Note_on_c, 0, 42, 64
4, 29636, Note_on_c, 0, 42, 0
4, 29640, Note_on_c, 0, 43, 64
4, 29692, Note_on_c, 0, 43, 0
4, 29700, Note_on_c, 0, 47, 64
4, 29752, Note_on_c, 0, 47, 0
4, 29760, Note_on_c, 0, 50, 64
4, 29812, Note_on_c, 0, 50, 0
4, 29820, Note_on_c, 0, 55, 64
4, 29872, Note_on_c, 0, 55, 0
4, 29880, Note_on_c, 0, 54, 64
4, 29932, Note_on_c, 0, 54, 0
4, 29940, Note_on_c, 0, 50, 64
4, 29992, Note_on_c, 0, 50, 0
4, 30000, Note_on_c, 0, 54, 64
4, 30052, Note_on_c, 0, 54, 0
4, 30060, Note_on_c, 0, 57, 64
4, 30112, Note_on_c, 0, 57, 0
4, 30120, Note_on_c, 0, 62, 64
4, 30146, Note_on_c, 0, 62, 0
4, 30150, Note_on_c, 0, 50, 64
4, 30176, Note_on_c, 0, 50, 0
4, 30180, Note_on_c, 0, 48, 64
4, 30206, Note_on_c, 0, 48, 0
4, 30210, Note_on_c, 0, 50, 64
4, 30236, Note_on_c, 0, 50, 0
4, 30240, Note_on_c, 0, 47, 64
4, 30266, Note_on_c, 0, 47, 0
4, 30270, Note_on_c, 0, 50, 64
4, 30296, Note_on_c, 0, 50, 0
4, 30300, Note_on_c, 0, 45, 64
4, 30326, Note_on_c, 0, 45, 0
4, 30330, Note_on_c, 0, 50, 64
4, 30356, Note_on_c, 0, 50, 0
4, 30360, Note_on_c, 0, 47, 64
4, 30386, Note_on_c, 0, 47, 0
4, 30390, Note_on_c, 0, 50, 64
4, 30416, Note_on_c, 0, 50, 0
4, 30420, Note_on_c, 0, 43, 64
4, 30446, Note_on_c, 0, 43, 0
4, 30450, Note_on_c, 0, 50, 64
4, 30476, Note_on_c, 0, 50, 0
4, 30480, Note_on_c, 0, 45, 64
4, 30506, Note_on_c, 0, 45, 0
4, 30510, Note_on_c, 0, 50, 64
4, 30536, Note_on_c, 0, 50, 0
4, 30540, Note_on_c, 0, 47, 64
4, 30566, Note_on_c, 0, 47, 0
4, 30570, Note_on_c, 0, 50, 64
4, 30596, Note_on_c, 0, 50, 0
4, 30600, Note_on_c, 0, 48, 64
4, 30626, Note_on_c, 0, 48, 0
4, 30630, Note_on_c, 0, 52, 64
4, 30656, Note_on_c, 0, 52, 0
4, 30660, Note_on_c, 0, 47, 64
4, 30686, Note_on_c, 0, 47, 0
4, 30690, Note_on_c, 0, 52, 64
4, 30716, Note_on_c, 0, 52, 0
4, 30720, Note_on_c, 0, 49, 64
4, 30746, Note_on_c, 0, 49, 0
4, 30750, Note_on_c, 0, 52, 64
4, 30776, Note_on_c, 0, 52, 0
4, 30780, Note_on_c, 0, 45, 64
4, 30806, Note_on_c, 0, 45, 0
4, 30810, Note_on_c, 0, 52, 64
4, 30836, Note_on_c, 0, 52, 0
4, 30840, Note_on_c, 0, 47, 64
4, 30866, Note_on_c, 0, 47, 0
4, 30870, Note_on_c, 0, 52, 64
4, 30896, Note_on_c, 0, 52, 0
4, 30900, Note_on_c, 0, 49, 64
4, 30926, Note_on_c, 0, 49, 0
4, 30930, Note_on_c, 0, 52, 64
4, 30956, Note_on_c, 0, 52, 0
4, 30960, Note_on_c, 0, 50, 64
4, 30986, Note_on_c, 0, 50, 0
4, 30990, Note_on_c, 0, 54, 64
4, 31016, Note_on_c, 0, 54, 0
4, 31020, Note_on_c, 0, 49, 64
4, 31046, Note_on_c, 0, 49, 0
4, 31050, Note_on_c, 0, 54, 64
4, 31076, Note_on_c, 0, 54, 0
4, 31080, Note_on_c, 0, 51, 64
4, 31106, Note_on_c, 0, 51, 0
4, 31110, Note_on_c, 0, 54, 64
4, 31136, Note_on_c, 0, 54, 0
4, 31140, Note_on_c, 0, 47, 64
4, 31166, Note_on_c, 0, 47, 0
4, 31170, Note_on_c, 0, 54, 64
4, 31196, Note_on_c, 0, 54, 0
4, 31200, Note_on_c, 0, 49, 64
4, 31226, Note_on_c, 0, 49, 0
4, 31230, Note_on_c, 0, 54, 64
4, 31256, Note_on_c, 0, 54, 0
4, 31260, Note_on_c, 0, 51, 64
4, 31286, Note_on_c, 0, 51, 0
4, 31290, Note_on_c, 0, 54, 64
4, 31316, Note_on_c, 0, 54, 0
4, 31320, Note_on_c, 0, 52, 64
4, 31346, Note_on_c, 0, 52, 0
4, 31350, Note_on_c, 0, 55, 64
4, 31376, Note_on_c, 0, 55, 0
4, 31380, Note_on_c, 0, 50, 64
4, 31406, Note_on_c, 0, 50, 0
4, 31410, Note_on_c, 0, 55, 64
4, 31436, Note_on_c, 0, 55, 0
4, 31440, Note_on_c, 0, 48, 64
4, 31466, Note_on_c, 0, 48, 0
4, 31470, Note_on_c, 0, 55, 64
4, 31496, Note_on_c, 0, 55, 0
4, 31500, Note_on_c, 0, 47, 64
4, 31526, Note_on_c, 0, 47, 0
4, 31530, Note_on_c, 0, 55, 64
4, 31556, Note_on_c, 0, 55, 0
4, 31560, Note_on_c, 0, 45, 64
4, 31586, Note_on_c, 0, 45, 0
4, 31590, Note_on_c, 0, 48, 64
4, 31616, Note_on_c, 0, 48, 0
4, 31620, Note_on_c, 0, 52, 64
4, 31646, Note_on_c, 0, 52, 0
4, 31650, Note_on_c, 0, 55, 64
4, 31676, Note_on_c, 0, 55, 0
4, 31680, Note_on_c, 0, 54, 64
4, 31732, Note_on_c, 0, 54, 0
4, 31740, Note_on_c, 0, 57, 64
4, 31792, Note_on_c, 0, 57, 0
4, 31800, Note_on_c, 0, 50, 64
4, 31852, Note_on_c, 0, 50, 0
4, 31860, Note_on_c, 0, 52, 64
4, 31912, Note_on_c, 0, 52, 0
4, 31920, Note_on_c, 0, 54, 64
4, 31972, Note_on_c, 0, 54, 0
4, 31980, Note_on_c, 0, 50, 64
4, 32032, Note_on_c, 0, 50, 0
4, 32040, Note_on_c, 0, 55, 64
4, 32066, Note_on_c, 0, 55, 0
4, 32070, Note_on_c, 0, 67, 64
4, 32096, Note_on_c, 0, 67, 0
4, 32100, Note_on_c, 0, 65, 64
4, 32126, Note_on_c, 0, 65, 0
4, 32130, Note_on_c, 0, 67, 64
4, 32156, Note_on_c, 0, 67, 0
4, 32160, Note_on_c, 0, 64, 64
4, 32186, Note_on_c, 0, 64, 0
4, 32190, Note_on_c, 0, 67, 64
4, 32216, Note_on_c, 0, 67, 0
4, 32220, Note_on_c, 0, 62, 64
4, 32246, Note_on_c, 0, 62, 0
4, 32250, Note_on_c, 0, 67, 64
4, 32276, Note_on_c, 0, 67, 0
4, 32280, Note_on_c, 0, 60, 64
4, 32306, Note_on_c, 0, 60, 0
4, 32310, Note_on_c, 0, 67, 64
4, 32336, Note_on_c, 0, 67, 0
4, 32340, Note_on_c, 0, 59, 64
4, 32366, Note_on_c, 0, 59, 0
4, 32370, Note_on_c, 0, 67, 64
4, 32396, Note_on_c, 0, 67, 0
4, 32400, Note_on_c, 0, 60, 64
4, 32426, Note_on_c, 0, 60, 0
4, 32430, Note_on_c, 0, 64, 64
4, 32456, Note_on_c, 0, 64, 0
4, 32460, Note_on_c, 0, 62, 64
4, 32486, Note_on_c, 0, 62, 0
4, 32490, Note_on_c, 0, 64, 64
4, 32516, Note_on_c, 0, 64, 0
4, 32520, Note_on_c, 0, 57, 64
4, 32572, Note_on_c, 0, 57, 0
4, 32580, Note_on_c, 0, 59, 64
4, 32632, Note_on_c, 0, 59, 0
4, 32640, Note_on_c, 0, 60, 64
4, 32692, Note_on_c, 0, 60, 0
4, 32700, Note_on_c, 0, 57, 64
4, 32752, Note_on_c, 0, 57, 0
4, 32760, Note_on_c, 0, 62, 64
4, 32812, Note_on_c, 0, 62, 0
4, 32820, Note_on_c, 0, 57, 64
4, 32872, Note_on_c, 0, 57, 0
4, 32880, Note_on_c, 0, 54, 64
4, 32932, Note_on_c, 0, 54, 0
4, 32940, Note_on_c, 0, 57, 64
4, 32992, Note_on_c, 0, 57, 0
4, 33000, Note_on_c, 0, 50, 64
4, 33052, Note_on_c, 0, 50, 0
4, 33060, Note_on_c, 0, 54, 64
4, 33112, Note_on_c, 0, 54, 0
4, 33120, Note_on_c, 0, 47, 64
4, 33172, Note_on_c, 0, 47, 0
4, 33180, Note_on_c, 0, 50, 64
4, 33232, Note_on_c, 0, 50, 0
4, 33240, Note_on_c, 0, 43, 64
4, 33266, Note_on_c, 0, 43, 0
4, 33270, Note_on_c, 0, 45, 64
4, 33296, Note_on_c, 0, 45, 0
4, 33300, Note_on_c, 0, 47, 64
4, 33326, Note_on_c, 0, 47, 0
4, 33330, Note_on_c, 0, 48, 64
4, 33356, Note_on_c, 0, 48, 0
4, 33360, Note_on_c, 0, 50, 64
4, 33412, Note_on_c, 0, 50, 0
4, 33420, Note_on_c, 0, 38, 64
4, 33472, Note_on_c, 0, 38, 0
4, 33480, Note_on_c, 0, 40, 64
4, 33532, Note_on_c, 0, 40, 0
4, 33540, Note_on_c, 0, 55, 64
4, 33592, Note_on_c, 0, 55, 0
4, 33600, Note_on_c, 0, 58, 64
4, 33652, Note_on_c, 0, 58, 0
4, 33660, Note_on_c, 0, 50, 64
4, 33712, Note_on_c, 0, 50, 0
4, 33720, Note_on_c, 0, 49, 64
4, 33772, Note_on_c, 0, 49, 0
4, 33780, Note_on_c, 0, 45, 64
4, 33832, Note_on_c, 0, 45, 0
4, 33840, Note_on_c, 0, 50, 64
4, 33866, Note_on_c, 0, 50, 0
4, 33870, Note_on_c, 0, 54, 64
4, 33896, Note_on_c, 0, 54, 0
4, 33900, Note_on_c, 0, 57, 64
4, 33926, Note_on_c, 0, 57, 0
4, 33930, Note_on_c, 0, 60, 64
4, 33956, Note_on_c, 0, 60, 0
4, 33960, Note_on_c, 0, 59, 64
4, 34012, Note_on_c, 0, 59, 0
4, 34020, Note_on_c, 0, 55, 64
4, 34072, Note_on_c, 0, 55, 0
4, 34080, Note_on_c, 0, 62, 64
4, 34132, Note_on_c, 0, 62, 0
4, 34140, Note_on_c, 0, 50, 64
4, 34192, Note_on_c, 0, 50, 0
4, 34200, Note_on_c, 0, 55, 64
4, 34252, Note_on_c, 0, 55, 0
4, 34260, Note_on_c, 0, 43, 64
4, 34312, Note_on_c, 0, 43, 0
4, 34320, Note_on_c, 0, 47, 64
4, 34372, Note_on_c, 0, 47, 0
4, 34380, Note_on_c, 0, 50, 64
4, 34432, Note_on_c, 0, 50, 0
4, 34440, Note_on_c, 0, 55, 64
4, 34545, Note_on_c, 0, 55, 0
4, 34545, End_track
0, 0, End_of_file
