0, 0, Header, 1, 2, 120
1, 0, Start_track
1, 0, Time_signature, 3, 3, 12, 8
1, 0, Key_signature, 1, "major"
1, 0, Tempo, 625000
1, 0, Marker_t, "(c) Yo Tomita, 1997"
1, 12738, Tempo, 625000
1, 12750, Tempo, 628272
1, 12763, Tempo, 631579
1, 12775, Tempo, 634921
1, 12785, Tempo, 638298
1, 12795, Tempo, 645161
1, 12800, Tempo, 648649
1, 12805, Tempo, 652174
1, 12810, Tempo, 655738
1, 12815, Tempo, 659341
1, 12818, Tempo, 662983
1, 12823, Tempo, 666667
1, 12828, Tempo, 670391
1, 12833, Tempo, 674157
1, 12838, Tempo, 677966
1, 12840, Tempo, 681818
1, 12845, Tempo, 685714
1, 12850, Tempo, 689655
1, 12855, Tempo, 693642
1, 12860, Tempo, 697674
1, 12863, Tempo, 701754
1, 12868, Tempo, 705882
1, 12873, Tempo, 710059
1, 12878, Tempo, 714286
1, 12883, Tempo, 718563
1, 12885, Tempo, 722892
1, 12890, Tempo, 727273
1, 12895, Tempo, 731707
1, 12900, Tempo, 736196
1, 12903, Tempo, 740741
1, 12908, Tempo, 745342
1, 12913, Tempo, 750000
1, 12918, Tempo, 754717
1, 12923, Tempo, 759494
1, 12925, Tempo, 764331
1, 12930, Tempo, 769231
1, 12935, Tempo, 774194
1, 12940, Tempo, 779221
1, 12945, Tempo, 784314
1, 12948, Tempo, 789474
1, 12953, Tempo, 794702
1, 12958, Tempo, 800000
1, 12963, Tempo, 805369
1, 12968, Tempo, 810811
1, 12970, Tempo, 816327
1, 12975, Tempo, 821918
1, 12980, Tempo, 827586
1, 12980, End_track
2, 0, Start_track
2, 0, MIDI_port, 0
2, 0, Title_t, "BWV 884/2"
2, 0, Program_c, 0, 6
2, 30, Note_on_c, 0, 74, 64
2, 56, Note_on_c, 0, 74, 0
2, 60, Note_on_c, 0, 71, 64
2, 86, Note_on_c, 0, 71, 0
2, 90, Note_on_c, 0, 74, 64
2, 116, Note_on_c, 0, 74, 0
2, 120, Note_on_c, 0, 79, 64
2, 146, Note_on_c, 0, 79, 0
2, 150, Note_on_c, 0, 74, 64
2, 176, Note_on_c, 0, 74, 0
2, 180, Note_on_c, 0, 71, 64
2, 206, Note_on_c, 0, 71, 0
2, 210, Note_on_c, 0, 74, 64
2, 236, Note_on_c, 0, 74, 0
2, 240, Note_on_c, 0, 67, 64
2, 266, Note_on_c, 0, 67, 0
2, 270, Note_on_c, 0, 74, 64
2, 296, Note_on_c, 0, 74, 0
2, 300, Note_on_c, 0, 71, 64
2, 326, Note_on_c, 0, 71, 0
2, 330, Note_on_c, 0, 74, 64
2, 356, Note_on_c, 0, 74, 0
2, 360, Note_on_c, 0, 76, 64
2, 386, Note_on_c, 0, 76, 0
2, 390, Note_on_c, 0, 72, 64
2, 416, Note_on_c, 0, 72, 0
2, 420, Note_on_c, 0, 69, 64
2, 446, Note_on_c, 0, 69, 0
2, 450, Note_on_c, 0, 72, 64
2, 476, Note_on_c, 0, 72, 0
2, 480, Note_on_c, 0, 66, 64
2, 506, Note_on_c, 0, 66, 0
2, 510, Note_on_c, 0, 69, 64
2, 536, Note_on_c, 0, 69, 0
2, 540, Note_on_c, 0, 74, 64
2, 566, Note_on_c, 0, 74, 0
2, 570, Note_on_c, 0, 71, 64
2, 596, Note_on_c, 0, 71, 0
2, 600, Note_on_c, 0, 67, 64
2, 626, Note_on_c, 0, 67, 0
2, 630, Note_on_c, 0, 71, 64
2, 656, Note_on_c, 0, 71, 0
2, 660, Note_on_c, 0, 64, 64
2, 686, Note_on_c, 0, 64, 0
2, 690, Note_on_c, 0, 67, 64
2, 716, Note_on_c, 0, 67, 0
2, 720, Note_on_c, 0, 72, 64
2, 746, Note_on_c, 0, 72, 0
2, 750, Note_on_c, 0, 69, 64
2, 776, Note_on_c, 0, 69, 0
2, 780, Note_on_c, 0, 66, 64
2, 806, Note_on_c, 0, 66, 0
2, 810, Note_on_c, 0, 69, 64
2, 836, Note_on_c, 0, 69, 0
2, 840, Note_on_c, 0, 62, 64
2, 866, Note_on_c, 0, 62, 0
2, 870, Note_on_c, 0, 66, 64
2, 896, Note_on_c, 0, 66, 0
2, 900, Note_on_c, 0, 71, 64
2, 926, Note_on_c, 0, 71, 0
2, 930, Note_on_c, 0, 69, 64
2, 956, Note_on_c, 0, 69, 0
2, 960, Note_on_c, 0, 67, 64
2, 986, Note_on_c, 0, 67, 0
2, 990, Note_on_c, 0, 69, 64
2, 1016, Note_on_c, 0, 69, 0
2, 1020, Note_on_c, 0, 71, 64
2, 1046, Note_on_c, 0, 71, 0
2, 1050, Note_on_c, 0, 72, 64
2, 1076, Note_on_c, 0, 72, 0
2, 1080, Note_on_c, 0, 74, 64
2, 1106, Note_on_c, 0, 74, 0
2, 1110, Note_on_c, 0, 69, 64
2, 1136, Note_on_c, 0, 69, 0
2, 1140, Note_on_c, 0, 71, 64
2, 1166, Note_on_c, 0, 71, 0
2, 1170, Note_on_c, 0, 73, 64
2, 1196, Note_on_c, 0, 73, 0
2, 1200, Note_on_c, 0, 74, 64
2, 1226, Note_on_c, 0, 74, 0
2, 1230, Note_on_c, 0, 76, 64
2, 1256, Note_on_c, 0, 76, 0
2, 1260, Note_on_c, 0, 78, 64
2, 1286, Note_on_c, 0, 78, 0
2, 1290, Note_on_c, 0, 76, 64
2, 1290, Note_on_c, 0, 67, 64
2, 1316, Note_on_c, 0, 67, 0
2, 1316, Note_on_c, 0, 76, 0
2, 1320, Note_on_c, 0, 74, 64
2, 1320, Note_on_c, 0, 66, 64
2, 1346, Note_on_c, 0, 66, 0
2, 1346, Note_on_c, 0, 74, 0
2, 1350, Note_on_c, 0, 76, 64
2, 1350, Note_on_c, 0, 69, 64
2, 1376, Note_on_c, 0, 69, 0
2, 1376, Note_on_c, 0, 76, 0
2, 1380, Note_on_c, 0, 78, 64
2, 1380, Note_on_c, 0, 74, 64
2, 1406, Note_on_c, 0, 74, 0
2, 1406, Note_on_c, 0, 78, 0
2, 1410, Note_on_c, 0, 79, 64
2, 1410, Note_on_c, 0, 69, 64
2, 1436, Note_on_c, 0, 69, 0
2, 1436, Note_on_c, 0, 79, 0
2, 1440, Note_on_c, 0, 81, 64
2, 1440, Note_on_c, 0, 66, 64
2, 1466, Note_on_c, 0, 66, 0
2, 1470, Note_on_c, 0, 69, 64
2, 1492, Note_on_c, 0, 81, 0
2, 1496, Note_on_c, 0, 69, 0
2, 1500, Note_on_c, 0, 62, 64
2, 1526, Note_on_c, 0, 62, 0
2, 1530, Note_on_c, 0, 69, 64
2, 1556, Note_on_c, 0, 69, 0
2, 1560, Note_on_c, 0, 81, 64
2, 1560, Note_on_c, 0, 66, 64
2, 1586, Note_on_c, 0, 66, 0
2, 1590, Note_on_c, 0, 69, 64
2, 1612, Note_on_c, 0, 81, 0
2, 1616, Note_on_c, 0, 69, 0
2, 1620, Note_on_c, 0, 74, 64
2, 1620, Note_on_c, 0, 71, 64
2, 1646, Note_on_c, 0, 71, 0
2, 1650, Note_on_c, 0, 67, 64
2, 1672, Note_on_c, 0, 74, 0
2, 1676, Note_on_c, 0, 67, 0
2, 1680, Note_on_c, 0, 79, 64
2, 1680, Note_on_c, 0, 64, 64
2, 1695, Note_on_c, 0, 78, 64
2, 1704, Note_on_c, 0, 79, 0
2, 1705, Note_on_c, 0, 79, 64
2, 1706, Note_on_c, 0, 64, 0
2, 1710, Note_on_c, 0, 67, 64
2, 1719, Note_on_c, 0, 78, 0
2, 1736, Note_on_c, 0, 67, 0
2, 1740, Note_on_c, 0, 61, 64
2, 1766, Note_on_c, 0, 61, 0
2, 1770, Note_on_c, 0, 64, 64
2, 1796, Note_on_c, 0, 64, 0
2, 1800, Note_on_c, 0, 69, 64
2, 1826, Note_on_c, 0, 69, 0
2, 1830, Note_on_c, 0, 66, 64
2, 1856, Note_on_c, 0, 66, 0
2, 1859, Note_on_c, 0, 79, 0
2, 1860, Note_on_c, 0, 78, 64
2, 1860, Note_on_c, 0, 62, 64
2, 1886, Note_on_c, 0, 62, 0
2, 1890, Note_on_c, 0, 66, 64
2, 1912, Note_on_c, 0, 78, 0
2, 1916, Note_on_c, 0, 66, 0
2, 1920, Note_on_c, 0, 74, 64
2, 1920, Note_on_c, 0, 59, 64
2, 1946, Note_on_c, 0, 59, 0
2, 1950, Note_on_c, 0, 62, 64
2, 1972, Note_on_c, 0, 74, 0
2, 1976, Note_on_c, 0, 62, 0
2, 1980, Note_on_c, 0, 71, 64
2, 1980, Note_on_c, 0, 67, 64
2, 2006, Note_on_c, 0, 67, 0
2, 2010, Note_on_c, 0, 64, 64
2, 2032, Note_on_c, 0, 71, 0
2, 2036, Note_on_c, 0, 64, 0
2, 2040, Note_on_c, 0, 76, 64
2, 2040, Note_on_c, 0, 61, 64
2, 2055, Note_on_c, 0, 74, 64
2, 2059, Note_on_c, 0, 76, 0
2, 2065, Note_on_c, 0, 76, 64
2, 2066, Note_on_c, 0, 61, 0
2, 2070, Note_on_c, 0, 64, 64
2, 2074, Note_on_c, 0, 74, 0
2, 2096, Note_on_c, 0, 64, 0
2, 2100, Note_on_c, 0, 57, 64
2, 2126, Note_on_c, 0, 57, 0
2, 2130, Note_on_c, 0, 61, 64
2, 2156, Note_on_c, 0, 61, 0
2, 2160, Note_on_c, 0, 66, 64
2, 2186, Note_on_c, 0, 66, 0
2, 2189, Note_on_c, 0, 76, 0
2, 2190, Note_on_c, 0, 79, 64
2, 2190, Note_on_c, 0, 64, 64
2, 2216, Note_on_c, 0, 64, 0
2, 2216, Note_on_c, 0, 79, 0
2, 2220, Note_on_c, 0, 78, 64
2, 2220, Note_on_c, 0, 62, 64
2, 2246, Note_on_c, 0, 62, 0
2, 2246, Note_on_c, 0, 78, 0
2, 2250, Note_on_c, 0, 76, 64
2, 2250, Note_on_c, 0, 64, 64
2, 2276, Note_on_c, 0, 64, 0
2, 2276, Note_on_c, 0, 76, 0
2, 2280, Note_on_c, 0, 74, 64
2, 2280, Note_on_c, 0, 66, 64
2, 2306, Note_on_c, 0, 66, 0
2, 2306, Note_on_c, 0, 74, 0
2, 2310, Note_on_c, 0, 76, 64
2, 2310, Note_on_c, 0, 67, 64
2, 2336, Note_on_c, 0, 67, 0
2, 2336, Note_on_c, 0, 76, 0
2, 2340, Note_on_c, 0, 78, 64
2, 2340, Note_on_c, 0, 69, 64
2, 2366, Note_on_c, 0, 69, 0
2, 2366, Note_on_c, 0, 78, 0
2, 2370, Note_on_c, 0, 81, 64
2, 2370, Note_on_c, 0, 62, 64
2, 2396, Note_on_c, 0, 62, 0
2, 2396, Note_on_c, 0, 81, 0
2, 2400, Note_on_c, 0, 79, 64
2, 2400, Note_on_c, 0, 64, 64
2, 2426, Note_on_c, 0, 64, 0
2, 2426, Note_on_c, 0, 79, 0
2, 2430, Note_on_c, 0, 78, 64
2, 2430, Note_on_c, 0, 66, 64
2, 2456, Note_on_c, 0, 66, 0
2, 2456, Note_on_c, 0, 78, 0
2, 2460, Note_on_c, 0, 76, 64
2, 2460, Note_on_c, 0, 67, 64
2, 2486, Note_on_c, 0, 67, 0
2, 2486, Note_on_c, 0, 76, 0
2, 2490, Note_on_c, 0, 78, 64
2, 2490, Note_on_c, 0, 69, 64
2, 2516, Note_on_c, 0, 69, 0
2, 2516, Note_on_c, 0, 78, 0
2, 2520, Note_on_c, 0, 79, 64
2, 2520, Note_on_c, 0, 71, 64
2, 2546, Note_on_c, 0, 71, 0
2, 2550, Note_on_c, 0, 69, 64
2, 2550, Note_on_c, 0, 62, 64
2, 2572, Note_on_c, 0, 79, 0
2, 2576, Note_on_c, 0, 62, 0
2, 2576, Note_on_c, 0, 69, 0
2, 2580, Note_on_c, 0, 67, 64
2, 2580, Note_on_c, 0, 59, 64
2, 2606, Note_on_c, 0, 59, 0
2, 2606, Note_on_c, 0, 67, 0
2, 2610, Note_on_c, 0, 69, 64
2, 2610, Note_on_c, 0, 62, 64
2, 2636, Note_on_c, 0, 62, 0
2, 2636, Note_on_c, 0, 69, 0
2, 2640, Note_on_c, 0, 71, 64
2, 2640, Note_on_c, 0, 67, 64
2, 2666, Note_on_c, 0, 67, 0
2, 2666, Note_on_c, 0, 71, 0
2, 2670, Note_on_c, 0, 72, 64
2, 2670, Note_on_c, 0, 62, 64
2, 2696, Note_on_c, 0, 62, 0
2, 2696, Note_on_c, 0, 72, 0
2, 2700, Note_on_c, 0, 74, 64
2, 2700, Note_on_c, 0, 59, 64
2, 2726, Note_on_c, 0, 59, 0
2, 2730, Note_on_c, 0, 62, 64
2, 2756, Note_on_c, 0, 62, 0
2, 2760, Note_on_c, 0, 83, 64
2, 2760, Note_on_c, 0, 55, 64
2, 2786, Note_on_c, 0, 55, 0
2, 2790, Note_on_c, 0, 62, 64
2, 2805, Note_on_c, 0, 74, 0
2, 2816, Note_on_c, 0, 62, 0
2, 2820, Note_on_c, 0, 74, 64
2, 2820, Note_on_c, 0, 59, 64
2, 2846, Note_on_c, 0, 59, 0
2, 2850, Note_on_c, 0, 62, 64
2, 2872, Note_on_c, 0, 74, 0
2, 2876, Note_on_c, 0, 62, 0
2, 2880, Note_on_c, 0, 72, 64
2, 2880, Note_on_c, 0, 64, 64
2, 2906, Note_on_c, 0, 64, 0
2, 2906, Note_on_c, 0, 83, 0
2, 2910, Note_on_c, 0, 76, 64
2, 2910, Note_on_c, 0, 60, 64
2, 2936, Note_on_c, 0, 60, 0
2, 2936, Note_on_c, 0, 76, 0
2, 2940, Note_on_c, 0, 78, 64
2, 2940, Note_on_c, 0, 57, 64
2, 2966, Note_on_c, 0, 57, 0
2, 2966, Note_on_c, 0, 78, 0
2, 2970, Note_on_c, 0, 81, 64
2, 2970, Note_on_c, 0, 60, 64
2, 2985, Note_on_c, 0, 72, 0
2, 2996, Note_on_c, 0, 60, 0
2, 3000, Note_on_c, 0, 72, 64
2, 3000, Note_on_c, 0, 54, 64
2, 3026, Note_on_c, 0, 54, 0
2, 3030, Note_on_c, 0, 57, 64
2, 3052, Note_on_c, 0, 72, 0
2, 3056, Note_on_c, 0, 57, 0
2, 3060, Note_on_c, 0, 71, 64
2, 3060, Note_on_c, 0, 62, 64
2, 3086, Note_on_c, 0, 62, 0
2, 3086, Note_on_c, 0, 81, 0
2, 3090, Note_on_c, 0, 74, 64
2, 3090, Note_on_c, 0, 59, 64
2, 3116, Note_on_c, 0, 59, 0
2, 3116, Note_on_c, 0, 74, 0
2, 3120, Note_on_c, 0, 76, 64
2, 3120, Note_on_c, 0, 55, 64
2, 3146, Note_on_c, 0, 55, 0
2, 3146, Note_on_c, 0, 76, 0
2, 3150, Note_on_c, 0, 79, 64
2, 3150, Note_on_c, 0, 59, 64
2, 3165, Note_on_c, 0, 71, 0
2, 3176, Note_on_c, 0, 59, 0
2, 3180, Note_on_c, 0, 71, 64
2, 3180, Note_on_c, 0, 52, 64
2, 3206, Note_on_c, 0, 52, 0
2, 3210, Note_on_c, 0, 55, 64
2, 3232, Note_on_c, 0, 71, 0
2, 3236, Note_on_c, 0, 55, 0
2, 3240, Note_on_c, 0, 69, 64
2, 3240, Note_on_c, 0, 60, 64
2, 3266, Note_on_c, 0, 60, 0
2, 3266, Note_on_c, 0, 79, 0
2, 3270, Note_on_c, 0, 72, 64
2, 3270, Note_on_c, 0, 57, 64
2, 3296, Note_on_c, 0, 57, 0
2, 3296, Note_on_c, 0, 72, 0
2, 3300, Note_on_c, 0, 74, 64
2, 3300, Note_on_c, 0, 54, 64
2, 3326, Note_on_c, 0, 54, 0
2, 3326, Note_on_c, 0, 74, 0
2, 3330, Note_on_c, 0, 78, 64
2, 3330, Note_on_c, 0, 57, 64
2, 3345, Note_on_c, 0, 69, 0
2, 3356, Note_on_c, 0, 57, 0
2, 3360, Note_on_c, 0, 69, 64
2, 3360, Note_on_c, 0, 50, 64
2, 3386, Note_on_c, 0, 50, 0
2, 3390, Note_on_c, 0, 54, 64
2, 3412, Note_on_c, 0, 69, 0
2, 3416, Note_on_c, 0, 54, 0
2, 3420, Note_on_c, 0, 67, 64
2, 3420, Note_on_c, 0, 59, 64
2, 3446, Note_on_c, 0, 59, 0
2, 3450, Note_on_c, 0, 57, 64
2, 3472, Note_on_c, 0, 78, 0
2, 3476, Note_on_c, 0, 57, 0
2, 3480, Note_on_c, 0, 76, 64
2, 3480, Note_on_c, 0, 55, 64
2, 3506, Note_on_c, 0, 55, 0
2, 3510, Note_on_c, 0, 57, 64
2, 3525, Note_on_c, 0, 67, 0
2, 3536, Note_on_c, 0, 57, 0
2, 3540, Note_on_c, 0, 67, 64
2, 3540, Note_on_c, 0, 59, 64
2, 3566, Note_on_c, 0, 59, 0
2, 3570, Note_on_c, 0, 61, 64
2, 3592, Note_on_c, 0, 67, 0
2, 3596, Note_on_c, 0, 61, 0
2, 3600, Note_on_c, 0, 66, 64
2, 3600, Note_on_c, 0, 62, 64
2, 3626, Note_on_c, 0, 62, 0
2, 3630, Note_on_c, 0, 61, 64
2, 3652, Note_on_c, 0, 76, 0
2, 3656, Note_on_c, 0, 61, 0
2, 3660, Note_on_c, 0, 74, 64
2, 3660, Note_on_c, 0, 59, 64
2, 3686, Note_on_c, 0, 59, 0
2, 3690, Note_on_c, 0, 57, 64
2, 3705, Note_on_c, 0, 66, 0
2, 3716, Note_on_c, 0, 57, 0
2, 3720, Note_on_c, 0, 66, 64
2, 3720, Note_on_c, 0, 55, 64
2, 3746, Note_on_c, 0, 55, 0
2, 3750, Note_on_c, 0, 54, 64
2, 3772, Note_on_c, 0, 66, 0
2, 3776, Note_on_c, 0, 54, 0
2, 3780, Note_on_c, 0, 64, 64
2, 3780, Note_on_c, 0, 55, 64
2, 3806, Note_on_c, 0, 55, 0
2, 3810, Note_on_c, 0, 52, 64
2, 3832, Note_on_c, 0, 74, 0
2, 3836, Note_on_c, 0, 52, 0
2, 3840, Note_on_c, 0, 73, 64
2, 3840, Note_on_c, 0, 57, 64
2, 3866, Note_on_c, 0, 57, 0
2, 3866, Note_on_c, 0, 73, 0
2, 3870, Note_on_c, 0, 71, 64
2, 3870, Note_on_c, 0, 55, 64
2, 3885, Note_on_c, 0, 64, 0
2, 3896, Note_on_c, 0, 55, 0
2, 3896, Note_on_c, 0, 71, 0
2, 3900, Note_on_c, 0, 73, 64
2, 3900, Note_on_c, 0, 67, 64
2, 3900, Note_on_c, 0, 54, 64
2, 3926, Note_on_c, 0, 54, 0
2, 3930, Note_on_c, 0, 52, 64
2, 3952, Note_on_c, 0, 67, 0
2, 3952, Note_on_c, 0, 73, 0
2, 3956, Note_on_c, 0, 52, 0
2, 3960, Note_on_c, 0, 74, 64
2, 3960, Note_on_c, 0, 66, 64
2, 3960, Note_on_c, 0, 50, 64
2, 3986, Note_on_c, 0, 50, 0
2, 3990, Note_on_c, 0, 57, 64
2, 4012, Note_on_c, 0, 66, 0
2, 4012, Note_on_c, 0, 74, 0
2, 4016, Note_on_c, 0, 57, 0
2, 4020, Note_on_c, 0, 54, 64
2, 4046, Note_on_c, 0, 54, 0
2, 4050, Note_on_c, 0, 57, 64
2, 4076, Note_on_c, 0, 57, 0
2, 4080, Note_on_c, 0, 62, 64
2, 4106, Note_on_c, 0, 62, 0
2, 4110, Note_on_c, 0, 57, 64
2, 4136, Note_on_c, 0, 57, 0
2, 4140, Note_on_c, 0, 54, 64
2, 4166, Note_on_c, 0, 54, 0
2, 4170, Note_on_c, 0, 57, 64
2, 4196, Note_on_c, 0, 57, 0
2, 4200, Note_on_c, 0, 81, 64
2, 4200, Note_on_c, 0, 72, 64
2, 4200, Note_on_c, 0, 50, 64
2, 4226, Note_on_c, 0, 50, 0
2, 4230, Note_on_c, 0, 57, 64
2, 4231, Note_on_c, 0, 72, 0
2, 4231, Note_on_c, 0, 81, 0
2, 4256, Note_on_c, 0, 57, 0
2, 4260, Note_on_c, 0, 72, 64
2, 4260, Note_on_c, 0, 69, 64
2, 4260, Note_on_c, 0, 54, 64
2, 4286, Note_on_c, 0, 54, 0
2, 4290, Note_on_c, 0, 57, 64
2, 4316, Note_on_c, 0, 57, 0
2, 4320, Note_on_c, 0, 59, 64
2, 4346, Note_on_c, 0, 72, 0
2, 4350, Note_on_c, 0, 74, 64
2, 4372, Note_on_c, 0, 59, 0
2, 4372, Note_on_c, 0, 69, 0
2, 4376, Note_on_c, 0, 74, 0
2, 4380, Note_on_c, 0, 71, 64
2, 4380, Note_on_c, 0, 67, 64
2, 4406, Note_on_c, 0, 71, 0
2, 4410, Note_on_c, 0, 74, 64
2, 4432, Note_on_c, 0, 67, 0
2, 4436, Note_on_c, 0, 74, 0
2, 4440, Note_on_c, 0, 79, 64
2, 4466, Note_on_c, 0, 79, 0
2, 4470, Note_on_c, 0, 74, 64
2, 4496, Note_on_c, 0, 74, 0
2, 4500, Note_on_c, 0, 71, 64
2, 4526, Note_on_c, 0, 71, 0
2, 4530, Note_on_c, 0, 74, 64
2, 4556, Note_on_c, 0, 74, 0
2, 4560, Note_on_c, 0, 67, 64
2, 4560, Note_on_c, 0, 62, 64
2, 4560, Note_on_c, 0, 59, 64
2, 4586, Note_on_c, 0, 67, 0
2, 4590, Note_on_c, 0, 74, 64
2, 4612, Note_on_c, 0, 59, 0
2, 4612, Note_on_c, 0, 62, 0
2, 4616, Note_on_c, 0, 74, 0
2, 4620, Note_on_c, 0, 71, 64
2, 4620, Note_on_c, 0, 65, 64
2, 4620, Note_on_c, 0, 57, 64
2, 4646, Note_on_c, 0, 71, 0
2, 4650, Note_on_c, 0, 74, 64
2, 4672, Note_on_c, 0, 57, 0
2, 4680, Note_on_c, 0, 56, 64
2, 4706, Note_on_c, 0, 56, 0
2, 4710, Note_on_c, 0, 59, 64
2, 4732, Note_on_c, 0, 74, 0
2, 4732, Note_on_c, 0, 65, 0
2, 4736, Note_on_c, 0, 59, 0
2, 4740, Note_on_c, 0, 64, 64
2, 4740, Note_on_c, 0, 56, 64
2, 4766, Note_on_c, 0, 56, 0
2, 4770, Note_on_c, 0, 59, 64
2, 4792, Note_on_c, 0, 64, 0
2, 4796, Note_on_c, 0, 59, 0
2, 4800, Note_on_c, 0, 64, 64
2, 4826, Note_on_c, 0, 64, 0
2, 4830, Note_on_c, 0, 59, 64
2, 4856, Note_on_c, 0, 59, 0
2, 4860, Note_on_c, 0, 56, 64
2, 4886, Note_on_c, 0, 56, 0
2, 4890, Note_on_c, 0, 59, 64
2, 4916, Note_on_c, 0, 59, 0
2, 4920, Note_on_c, 0, 83, 64
2, 4920, Note_on_c, 0, 74, 64
2, 4920, Note_on_c, 0, 52, 64
2, 4946, Note_on_c, 0, 52, 0
2, 4950, Note_on_c, 0, 59, 64
2, 4951, Note_on_c, 0, 74, 0
2, 4951, Note_on_c, 0, 83, 0
2, 4976, Note_on_c, 0, 59, 0
2, 4980, Note_on_c, 0, 74, 64
2, 4980, Note_on_c, 0, 71, 64
2, 4980, Note_on_c, 0, 56, 64
2, 5006, Note_on_c, 0, 56, 0
2, 5010, Note_on_c, 0, 59, 64
2, 5036, Note_on_c, 0, 59, 0
2, 5040, Note_on_c, 0, 60, 64
2, 5066, Note_on_c, 0, 74, 0
2, 5070, Note_on_c, 0, 76, 64
2, 5092, Note_on_c, 0, 60, 0
2, 5092, Note_on_c, 0, 71, 0
2, 5096, Note_on_c, 0, 76, 0
2, 5100, Note_on_c, 0, 72, 64
2, 5100, Note_on_c, 0, 69, 64
2, 5126, Note_on_c, 0, 72, 0
2, 5130, Note_on_c, 0, 76, 64
2, 5152, Note_on_c, 0, 69, 0
2, 5156, Note_on_c, 0, 76, 0
2, 5160, Note_on_c, 0, 81, 64
2, 5186, Note_on_c, 0, 81, 0
2, 5190, Note_on_c, 0, 76, 64
2, 5216, Note_on_c, 0, 76, 0
2, 5220, Note_on_c, 0, 72, 64
2, 5246, Note_on_c, 0, 72, 0
2, 5250, Note_on_c, 0, 76, 64
2, 5276, Note_on_c, 0, 76, 0
2, 5280, Note_on_c, 0, 69, 64
2, 5280, Note_on_c, 0, 60, 64
2, 5280, Note_on_c, 0, 54, 64
2, 5306, Note_on_c, 0, 69, 0
2, 5310, Note_on_c, 0, 76, 64
2, 5332, Note_on_c, 0, 54, 0
2, 5332, Note_on_c, 0, 60, 0
2, 5336, Note_on_c, 0, 76, 0
2, 5340, Note_on_c, 0, 72, 64
2, 5340, Note_on_c, 0, 69, 64
2, 5340, Note_on_c, 0, 72, 64
2, 5340, Note_on_c, 0, 52, 64
2, 5366, Note_on_c, 0, 72, 0
2, 5370, Note_on_c, 0, 76, 64
2, 5392, Note_on_c, 0, 52, 0
2, 5396, Note_on_c, 0, 76, 0
2, 5400, Note_on_c, 0, 78, 64
2, 5400, Note_on_c, 0, 51, 64
2, 5426, Note_on_c, 0, 51, 0
2, 5430, Note_on_c, 0, 54, 64
2, 5452, Note_on_c, 0, 72, 0
2, 5452, Note_on_c, 0, 78, 0
2, 5452, Note_on_c, 0, 69, 0
2, 5456, Note_on_c, 0, 54, 0
2, 5460, Note_on_c, 0, 71, 64
2, 5460, Note_on_c, 0, 51, 64
2, 5486, Note_on_c, 0, 51, 0
2, 5490, Note_on_c, 0, 54, 64
2, 5512, Note_on_c, 0, 71, 0
2, 5516, Note_on_c, 0, 54, 0
2, 5520, Note_on_c, 0, 59, 64
2, 5546, Note_on_c, 0, 59, 0
2, 5550, Note_on_c, 0, 54, 64
2, 5576, Note_on_c, 0, 54, 0
2, 5580, Note_on_c, 0, 51, 64
2, 5606, Note_on_c, 0, 51, 0
2, 5610, Note_on_c, 0, 54, 64
2, 5636, Note_on_c, 0, 54, 0
2, 5640, Note_on_c, 0, 81, 64
2, 5640, Note_on_c, 0, 75, 64
2, 5640, Note_on_c, 0, 47, 64
2, 5666, Note_on_c, 0, 47, 0
2, 5670, Note_on_c, 0, 54, 64
2, 5692, Note_on_c, 0, 75, 0
2, 5696, Note_on_c, 0, 54, 0
2, 5700, Note_on_c, 0, 78, 64
2, 5700, Note_on_c, 0, 51, 64
2, 5726, Note_on_c, 0, 51, 0
2, 5730, Note_on_c, 0, 54, 64
2, 5752, Note_on_c, 0, 78, 0
2, 5756, Note_on_c, 0, 54, 0
2, 5760, Note_on_c, 0, 71, 64
2, 5760, Note_on_c, 0, 55, 64
2, 5786, Note_on_c, 0, 55, 0
2, 5790, Note_on_c, 0, 59, 64
2, 5812, Note_on_c, 0, 71, 0
2, 5812, Note_on_c, 0, 81, 0
2, 5816, Note_on_c, 0, 59, 0
2, 5820, Note_on_c, 0, 83, 64
2, 5820, Note_on_c, 0, 76, 64
2, 5820, Note_on_c, 0, 55, 64
2, 5846, Note_on_c, 0, 55, 0
2, 5846, Note_on_c, 0, 83, 0
2, 5850, Note_on_c, 0, 81, 64
2, 5850, Note_on_c, 0, 59, 64
2, 5876, Note_on_c, 0, 59, 0
2, 5876, Note_on_c, 0, 81, 0
2, 5880, Note_on_c, 0, 79, 64
2, 5880, Note_on_c, 0, 64, 64
2, 5898, Note_on_c, 0, 76, 0
2, 5906, Note_on_c, 0, 64, 0
2, 5906, Note_on_c, 0, 79, 0
2, 5910, Note_on_c, 0, 78, 64
2, 5910, Note_on_c, 0, 75, 64
2, 5910, Note_on_c, 0, 59, 64
2, 5936, Note_on_c, 0, 59, 0
2, 5936, Note_on_c, 0, 75, 0
2, 5936, Note_on_c, 0, 78, 0
2, 5940, Note_on_c, 0, 76, 64
2, 5940, Note_on_c, 0, 76, 64
2, 5940, Note_on_c, 0, 55, 64
2, 5966, Note_on_c, 0, 55, 0
2, 5966, Note_on_c, 0, 76, 0
2, 5970, Note_on_c, 0, 78, 64
2, 5970, Note_on_c, 0, 59, 64
2, 5996, Note_on_c, 0, 59, 0
2, 5996, Note_on_c, 0, 78, 0
2, 6000, Note_on_c, 0, 79, 64
2, 6000, Note_on_c, 0, 52, 64
2, 6026, Note_on_c, 0, 52, 0
2, 6030, Note_on_c, 0, 59, 64
2, 6045, Note_on_c, 0, 76, 0
2, 6056, Note_on_c, 0, 59, 0
2, 6060, Note_on_c, 0, 71, 64
2, 6060, Note_on_c, 0, 55, 64
2, 6086, Note_on_c, 0, 55, 0
2, 6090, Note_on_c, 0, 59, 64
2, 6112, Note_on_c, 0, 71, 0
2, 6116, Note_on_c, 0, 59, 0
2, 6120, Note_on_c, 0, 69, 64
2, 6120, Note_on_c, 0, 60, 64
2, 6146, Note_on_c, 0, 60, 0
2, 6146, Note_on_c, 0, 79, 0
2, 6150, Note_on_c, 0, 72, 64
2, 6150, Note_on_c, 0, 57, 64
2, 6176, Note_on_c, 0, 57, 0
2, 6176, Note_on_c, 0, 72, 0
2, 6180, Note_on_c, 0, 74, 64
2, 6180, Note_on_c, 0, 54, 64
2, 6206, Note_on_c, 0, 54, 0
2, 6206, Note_on_c, 0, 74, 0
2, 6210, Note_on_c, 0, 78, 64
2, 6210, Note_on_c, 0, 57, 64
2, 6225, Note_on_c, 0, 69, 0
2, 6236, Note_on_c, 0, 57, 0
2, 6240, Note_on_c, 0, 69, 64
2, 6240, Note_on_c, 0, 50, 64
2, 6266, Note_on_c, 0, 50, 0
2, 6270, Note_on_c, 0, 54, 64
2, 6292, Note_on_c, 0, 69, 0
2, 6296, Note_on_c, 0, 54, 0
2, 6300, Note_on_c, 0, 67, 64
2, 6300, Note_on_c, 0, 59, 64
2, 6326, Note_on_c, 0, 59, 0
2, 6326, Note_on_c, 0, 78, 0
2, 6330, Note_on_c, 0, 71, 64
2, 6330, Note_on_c, 0, 55, 64
2, 6356, Note_on_c, 0, 55, 0
2, 6356, Note_on_c, 0, 71, 0
2, 6360, Note_on_c, 0, 72, 64
2, 6360, Note_on_c, 0, 52, 64
2, 6386, Note_on_c, 0, 52, 0
2, 6386, Note_on_c, 0, 72, 0
2, 6390, Note_on_c, 0, 76, 64
2, 6390, Note_on_c, 0, 55, 64
2, 6405, Note_on_c, 0, 67, 0
2, 6416, Note_on_c, 0, 55, 0
2, 6420, Note_on_c, 0, 67, 64
2, 6420, Note_on_c, 0, 48, 64
2, 6446, Note_on_c, 0, 48, 0
2, 6450, Note_on_c, 0, 52, 64
2, 6472, Note_on_c, 0, 67, 0
2, 6476, Note_on_c, 0, 52, 0
2, 6480, Note_on_c, 0, 66, 64
2, 6480, Note_on_c, 0, 57, 64
2, 6506, Note_on_c, 0, 57, 0
2, 6506, Note_on_c, 0, 76, 0
2, 6510, Note_on_c, 0, 69, 64
2, 6510, Note_on_c, 0, 54, 64
2, 6536, Note_on_c, 0, 54, 0
2, 6536, Note_on_c, 0, 69, 0
2, 6540, Note_on_c, 0, 71, 64
2, 6540, Note_on_c, 0, 51, 64
2, 6566, Note_on_c, 0, 51, 0
2, 6566, Note_on_c, 0, 71, 0
2, 6570, Note_on_c, 0, 75, 64
2, 6570, Note_on_c, 0, 54, 64
2, 6585, Note_on_c, 0, 66, 0
2, 6596, Note_on_c, 0, 54, 0
2, 6600, Note_on_c, 0, 69, 64
2, 6600, Note_on_c, 0, 47, 64
2, 6626, Note_on_c, 0, 47, 0
2, 6630, Note_on_c, 0, 51, 64
2, 6656, Note_on_c, 0, 51, 0
2, 6660, Note_on_c, 0, 55, 64
2, 6686, Note_on_c, 0, 55, 0
2, 6690, Note_on_c, 0, 54, 64
2, 6712, Note_on_c, 0, 69, 0
2, 6712, Note_on_c, 0, 75, 0
2, 6716, Note_on_c, 0, 54, 0
2, 6720, Note_on_c, 0, 76, 64
2, 6720, Note_on_c, 0, 67, 64
2, 6720, Note_on_c, 0, 52, 64
2, 6746, Note_on_c, 0, 52, 0
2, 6746, Note_on_c, 0, 76, 0
2, 6750, Note_on_c, 0, 75, 64
2, 6750, Note_on_c, 0, 54, 64
2, 6776, Note_on_c, 0, 54, 0
2, 6776, Note_on_c, 0, 75, 0
2, 6780, Note_on_c, 0, 76, 64
2, 6780, Note_on_c, 0, 55, 64
2, 6798, Note_on_c, 0, 67, 0
2, 6806, Note_on_c, 0, 55, 0
2, 6810, Note_on_c, 0, 67, 64
2, 6810, Note_on_c, 0, 57, 64
2, 6836, Note_on_c, 0, 57, 0
2, 6836, Note_on_c, 0, 67, 0
2, 6840, Note_on_c, 0, 66, 64
2, 6840, Note_on_c, 0, 59, 64
2, 6866, Note_on_c, 0, 59, 0
2, 6870, Note_on_c, 0, 54, 64
2, 6892, Note_on_c, 0, 76, 0
2, 6896, Note_on_c, 0, 54, 0
2, 6900, Note_on_c, 0, 74, 64
2, 6900, Note_on_c, 0, 56, 64
2, 6926, Note_on_c, 0, 56, 0
2, 6926, Note_on_c, 0, 74, 0
2, 6930, Note_on_c, 0, 73, 64
2, 6930, Note_on_c, 0, 58, 64
2, 6945, Note_on_c, 0, 66, 0
2, 6956, Note_on_c, 0, 58, 0
2, 6956, Note_on_c, 0, 73, 0
2, 6960, Note_on_c, 0, 74, 64
2, 6960, Note_on_c, 0, 59, 64
2, 6986, Note_on_c, 0, 59, 0
2, 6986, Note_on_c, 0, 74, 0
2, 6990, Note_on_c, 0, 76, 64
2, 6990, Note_on_c, 0, 61, 64
2, 7016, Note_on_c, 0, 61, 0
2, 7016, Note_on_c, 0, 76, 0
2, 7020, Note_on_c, 0, 78, 64
2, 7020, Note_on_c, 0, 62, 64
2, 7046, Note_on_c, 0, 62, 0
2, 7046, Note_on_c, 0, 78, 0
2, 7050, Note_on_c, 0, 76, 64
2, 7050, Note_on_c, 0, 61, 64
2, 7076, Note_on_c, 0, 61, 0
2, 7076, Note_on_c, 0, 76, 0
2, 7080, Note_on_c, 0, 74, 64
2, 7080, Note_on_c, 0, 59, 64
2, 7106, Note_on_c, 0, 59, 0
2, 7106, Note_on_c, 0, 74, 0
2, 7110, Note_on_c, 0, 78, 64
2, 7110, Note_on_c, 0, 61, 64
2, 7136, Note_on_c, 0, 61, 0
2, 7136, Note_on_c, 0, 78, 0
2, 7140, Note_on_c, 0, 83, 64
2, 7140, Note_on_c, 0, 62, 64
2, 7166, Note_on_c, 0, 62, 0
2, 7166, Note_on_c, 0, 83, 0
2, 7170, Note_on_c, 0, 78, 64
2, 7170, Note_on_c, 0, 64, 64
2, 7196, Note_on_c, 0, 64, 0
2, 7196, Note_on_c, 0, 78, 0
2, 7200, Note_on_c, 0, 74, 64
2, 7200, Note_on_c, 0, 66, 64
2, 7226, Note_on_c, 0, 66, 0
2, 7226, Note_on_c, 0, 74, 0
2, 7230, Note_on_c, 0, 78, 64
2, 7230, Note_on_c, 0, 64, 64
2, 7256, Note_on_c, 0, 64, 0
2, 7256, Note_on_c, 0, 78, 0
2, 7260, Note_on_c, 0, 71, 64
2, 7260, Note_on_c, 0, 62, 64
2, 7286, Note_on_c, 0, 71, 0
2, 7290, Note_on_c, 0, 78, 64
2, 7316, Note_on_c, 0, 78, 0
2, 7320, Note_on_c, 0, 74, 64
2, 7320, Note_on_c, 0, 66, 64
2, 7346, Note_on_c, 0, 74, 0
2, 7350, Note_on_c, 0, 78, 64
2, 7372, Note_on_c, 0, 66, 0
2, 7376, Note_on_c, 0, 78, 0
2, 7380, Note_on_c, 0, 79, 64
2, 7380, Note_on_c, 0, 64, 64
2, 7406, Note_on_c, 0, 79, 0
2, 7406, Note_on_c, 0, 62, 0
2, 7410, Note_on_c, 0, 76, 64
2, 7410, Note_on_c, 0, 55, 64
2, 7436, Note_on_c, 0, 55, 0
2, 7436, Note_on_c, 0, 76, 0
2, 7440, Note_on_c, 0, 73, 64
2, 7440, Note_on_c, 0, 57, 64
2, 7466, Note_on_c, 0, 57, 0
2, 7466, Note_on_c, 0, 73, 0
2, 7470, Note_on_c, 0, 76, 64
2, 7470, Note_on_c, 0, 61, 64
2, 7485, Note_on_c, 0, 64, 0
2, 7496, Note_on_c, 0, 76, 0
2, 7500, Note_on_c, 0, 69, 64
2, 7500, Note_on_c, 0, 64, 64
2, 7526, Note_on_c, 0, 69, 0
2, 7530, Note_on_c, 0, 73, 64
2, 7552, Note_on_c, 0, 64, 0
2, 7556, Note_on_c, 0, 73, 0
2, 7560, Note_on_c, 0, 78, 64
2, 7560, Note_on_c, 0, 62, 64
2, 7586, Note_on_c, 0, 78, 0
2, 7586, Note_on_c, 0, 61, 0
2, 7590, Note_on_c, 0, 74, 64
2, 7590, Note_on_c, 0, 54, 64
2, 7616, Note_on_c, 0, 54, 0
2, 7616, Note_on_c, 0, 74, 0
2, 7620, Note_on_c, 0, 71, 64
2, 7620, Note_on_c, 0, 55, 64
2, 7646, Note_on_c, 0, 55, 0
2, 7646, Note_on_c, 0, 71, 0
2, 7650, Note_on_c, 0, 74, 64
2, 7650, Note_on_c, 0, 59, 64
2, 7665, Note_on_c, 0, 62, 0
2, 7676, Note_on_c, 0, 74, 0
2, 7680, Note_on_c, 0, 67, 64
2, 7680, Note_on_c, 0, 62, 64
2, 7706, Note_on_c, 0, 67, 0
2, 7710, Note_on_c, 0, 71, 64
2, 7732, Note_on_c, 0, 62, 0
2, 7736, Note_on_c, 0, 71, 0
2, 7740, Note_on_c, 0, 76, 64
2, 7740, Note_on_c, 0, 61, 64
2, 7766, Note_on_c, 0, 76, 0
2, 7766, Note_on_c, 0, 59, 0
2, 7770, Note_on_c, 0, 73, 64
2, 7770, Note_on_c, 0, 52, 64
2, 7796, Note_on_c, 0, 52, 0
2, 7796, Note_on_c, 0, 73, 0
2, 7800, Note_on_c, 0, 70, 64
2, 7800, Note_on_c, 0, 54, 64
2, 7826, Note_on_c, 0, 54, 0
2, 7826, Note_on_c, 0, 70, 0
2, 7830, Note_on_c, 0, 73, 64
2, 7830, Note_on_c, 0, 58, 64
2, 7845, Note_on_c, 0, 61, 0
2, 7856, Note_on_c, 0, 73, 0
2, 7860, Note_on_c, 0, 66, 64
2, 7860, Note_on_c, 0, 61, 64
2, 7886, Note_on_c, 0, 66, 0
2, 7886, Note_on_c, 0, 58, 0
2, 7890, Note_on_c, 0, 70, 64
2, 7890, Note_on_c, 0, 54, 64
2, 7912, Note_on_c, 0, 61, 0
2, 7916, Note_on_c, 0, 54, 0
2, 7916, Note_on_c, 0, 70, 0
2, 7920, Note_on_c, 0, 59, 64
2, 7920, Note_on_c, 0, 74, 64
2, 7920, Note_on_c, 0, 59, 64
2, 7946, Note_on_c, 0, 74, 0
2, 7949, Note_on_c, 0, 59, 0
2, 7950, Note_on_c, 0, 78, 64
2, 7976, Note_on_c, 0, 78, 0
2, 7980, Note_on_c, 0, 47, 64
2, 7980, Note_on_c, 0, 71, 64
2, 8006, Note_on_c, 0, 71, 0
2, 8009, Note_on_c, 0, 47, 0
2, 8010, Note_on_c, 0, 74, 64
2, 8025, Note_on_c, 0, 59, 0
2, 8036, Note_on_c, 0, 74, 0
2, 8040, Note_on_c, 0, 78, 64
2, 8066, Note_on_c, 0, 78, 0
2, 8070, Note_on_c, 0, 74, 64
2, 8096, Note_on_c, 0, 74, 0
2, 8100, Note_on_c, 0, 71, 64
2, 8126, Note_on_c, 0, 71, 0
2, 8130, Note_on_c, 0, 74, 64
2, 8156, Note_on_c, 0, 74, 0
2, 8160, Note_on_c, 0, 66, 64
2, 8160, Note_on_c, 0, 50, 64
2, 8186, Note_on_c, 0, 66, 0
2, 8190, Note_on_c, 0, 71, 64
2, 8194, Note_on_c, 0, 50, 0
2, 8216, Note_on_c, 0, 71, 0
2, 8220, Note_on_c, 0, 74, 64
2, 8220, Note_on_c, 0, 47, 64
2, 8250, Note_on_c, 0, 69, 64
2, 8254, Note_on_c, 0, 47, 0
2, 8276, Note_on_c, 0, 69, 0
2, 8280, Note_on_c, 0, 68, 64
2, 8280, Note_on_c, 0, 52, 64
2, 8306, Note_on_c, 0, 68, 0
2, 8310, Note_on_c, 0, 71, 64
2, 8314, Note_on_c, 0, 52, 0
2, 8336, Note_on_c, 0, 71, 0
2, 8340, Note_on_c, 0, 64, 64
2, 8340, Note_on_c, 0, 40, 64
2, 8366, Note_on_c, 0, 64, 0
2, 8369, Note_on_c, 0, 40, 0
2, 8370, Note_on_c, 0, 68, 64
2, 8396, Note_on_c, 0, 68, 0
2, 8400, Note_on_c, 0, 71, 64
2, 8426, Note_on_c, 0, 71, 0
2, 8430, Note_on_c, 0, 68, 64
2, 8456, Note_on_c, 0, 68, 0
2, 8460, Note_on_c, 0, 64, 64
2, 8486, Note_on_c, 0, 64, 0
2, 8490, Note_on_c, 0, 68, 64
2, 8516, Note_on_c, 0, 68, 0
2, 8520, Note_on_c, 0, 59, 64
2, 8520, Note_on_c, 0, 56, 64
2, 8546, Note_on_c, 0, 59, 0
2, 8550, Note_on_c, 0, 64, 64
2, 8572, Note_on_c, 0, 56, 0
2, 8576, Note_on_c, 0, 64, 0
2, 8580, Note_on_c, 0, 68, 64
2, 8580, Note_on_c, 0, 52, 64
2, 8606, Note_on_c, 0, 52, 0
2, 8610, Note_on_c, 0, 62, 64
2, 8636, Note_on_c, 0, 62, 0
2, 8640, Note_on_c, 0, 60, 64
2, 8666, Note_on_c, 0, 60, 0
2, 8670, Note_on_c, 0, 64, 64
2, 8692, Note_on_c, 0, 68, 0
2, 8692, Note_on_c, 0, 74, 0
2, 8696, Note_on_c, 0, 64, 0
2, 8700, Note_on_c, 0, 72, 64
2, 8700, Note_on_c, 0, 69, 64
2, 8700, Note_on_c, 0, 57, 64
2, 8726, Note_on_c, 0, 57, 0
2, 8730, Note_on_c, 0, 60, 64
2, 8735, Note_on_c, 0, 69, 0
2, 8735, Note_on_c, 0, 72, 0
2, 8756, Note_on_c, 0, 60, 0
2, 8760, Note_on_c, 0, 72, 64
2, 8760, Note_on_c, 0, 69, 64
2, 8760, Note_on_c, 0, 64, 64
2, 8786, Note_on_c, 0, 64, 0
2, 8790, Note_on_c, 0, 60, 64
2, 8795, Note_on_c, 0, 69, 0
2, 8795, Note_on_c, 0, 72, 0
2, 8816, Note_on_c, 0, 60, 0
2, 8820, Note_on_c, 0, 74, 64
2, 8820, Note_on_c, 0, 69, 64
2, 8820, Note_on_c, 0, 57, 64
2, 8836, Note_on_c, 0, 72, 64
2, 8843, Note_on_c, 0, 74, 0
2, 8846, Note_on_c, 0, 57, 0
2, 8848, Note_on_c, 0, 74, 64
2, 8850, Note_on_c, 0, 60, 64
2, 8855, Note_on_c, 0, 72, 0
2, 8860, Note_on_c, 0, 72, 64
2, 8867, Note_on_c, 0, 74, 0
2, 8872, Note_on_c, 0, 74, 64
2, 8876, Note_on_c, 0, 60, 0
2, 8879, Note_on_c, 0, 72, 0
2, 8880, Note_on_c, 0, 52, 64
2, 8884, Note_on_c, 0, 72, 64
2, 8891, Note_on_c, 0, 74, 0
2, 8896, Note_on_c, 0, 74, 64
2, 8903, Note_on_c, 0, 72, 0
2, 8906, Note_on_c, 0, 52, 0
2, 8908, Note_on_c, 0, 72, 64
2, 8910, Note_on_c, 0, 57, 64
2, 8915, Note_on_c, 0, 74, 0
2, 8920, Note_on_c, 0, 74, 64
2, 8927, Note_on_c, 0, 72, 0
2, 8932, Note_on_c, 0, 72, 64
2, 8936, Note_on_c, 0, 57, 0
2, 8939, Note_on_c, 0, 74, 0
2, 8940, Note_on_c, 0, 60, 64
2, 8944, Note_on_c, 0, 74, 64
2, 8951, Note_on_c, 0, 72, 0
2, 8956, Note_on_c, 0, 72, 64
2, 8963, Note_on_c, 0, 74, 0
2, 8966, Note_on_c, 0, 60, 0
2, 8968, Note_on_c, 0, 74, 64
2, 8970, Note_on_c, 0, 55, 64
2, 8975, Note_on_c, 0, 72, 0
2, 8980, Note_on_c, 0, 72, 64
2, 8987, Note_on_c, 0, 74, 0
2, 8992, Note_on_c, 0, 74, 64
2, 8996, Note_on_c, 0, 55, 0
2, 8999, Note_on_c, 0, 72, 0
2, 9000, Note_on_c, 0, 54, 64
2, 9004, Note_on_c, 0, 72, 64
2, 9011, Note_on_c, 0, 74, 0
2, 9026, Note_on_c, 0, 54, 0
2, 9030, Note_on_c, 0, 57, 64
2, 9051, Note_on_c, 0, 72, 0
2, 9052, Note_on_c, 0, 69, 0
2, 9056, Note_on_c, 0, 57, 0
2, 9060, Note_on_c, 0, 72, 64
2, 9060, Note_on_c, 0, 66, 64
2, 9060, Note_on_c, 0, 50, 64
2, 9086, Note_on_c, 0, 50, 0
2, 9090, Note_on_c, 0, 54, 64
2, 9095, Note_on_c, 0, 66, 0
2, 9095, Note_on_c, 0, 72, 0
2, 9116, Note_on_c, 0, 54, 0
2, 9120, Note_on_c, 0, 72, 64
2, 9120, Note_on_c, 0, 66, 64
2, 9120, Note_on_c, 0, 57, 64
2, 9146, Note_on_c, 0, 57, 0
2, 9150, Note_on_c, 0, 54, 64
2, 9155, Note_on_c, 0, 66, 0
2, 9155, Note_on_c, 0, 72, 0
2, 9176, Note_on_c, 0, 54, 0
2, 9180, Note_on_c, 0, 67, 64
2, 9180, Note_on_c, 0, 72, 64
2, 9180, Note_on_c, 0, 50, 64
2, 9200, Note_on_c, 0, 66, 64
2, 9206, Note_on_c, 0, 50, 0
2, 9207, Note_on_c, 0, 67, 0
2, 9210, Note_on_c, 0, 54, 64
2, 9212, Note_on_c, 0, 67, 64
2, 9219, Note_on_c, 0, 66, 0
2, 9224, Note_on_c, 0, 66, 64
2, 9231, Note_on_c, 0, 67, 0
2, 9236, Note_on_c, 0, 54, 0
2, 9236, Note_on_c, 0, 67, 64
2, 9240, Note_on_c, 0, 45, 64
2, 9243, Note_on_c, 0, 66, 0
2, 9248, Note_on_c, 0, 66, 64
2, 9255, Note_on_c, 0, 67, 0
2, 9260, Note_on_c, 0, 67, 64
2, 9266, Note_on_c, 0, 45, 0
2, 9267, Note_on_c, 0, 66, 0
2, 9270, Note_on_c, 0, 50, 64
2, 9272, Note_on_c, 0, 66, 64
2, 9279, Note_on_c, 0, 67, 0
2, 9284, Note_on_c, 0, 67, 64
2, 9291, Note_on_c, 0, 66, 0
2, 9296, Note_on_c, 0, 50, 0
2, 9296, Note_on_c, 0, 66, 64
2, 9300, Note_on_c, 0, 54, 64
2, 9303, Note_on_c, 0, 67, 0
2, 9308, Note_on_c, 0, 67, 64
2, 9315, Note_on_c, 0, 66, 0
2, 9320, Note_on_c, 0, 66, 64
2, 9326, Note_on_c, 0, 54, 0
2, 9327, Note_on_c, 0, 67, 0
2, 9330, Note_on_c, 0, 48, 64
2, 9332, Note_on_c, 0, 67, 64
2, 9339, Note_on_c, 0, 66, 0
2, 9344, Note_on_c, 0, 66, 64
2, 9351, Note_on_c, 0, 67, 0
2, 9356, Note_on_c, 0, 48, 0
2, 9356, Note_on_c, 0, 67, 64
2, 9360, Note_on_c, 0, 47, 64
2, 9363, Note_on_c, 0, 66, 0
2, 9368, Note_on_c, 0, 66, 64
2, 9375, Note_on_c, 0, 67, 0
2, 9386, Note_on_c, 0, 47, 0
2, 9390, Note_on_c, 0, 50, 64
2, 9411, Note_on_c, 0, 66, 0
2, 9412, Note_on_c, 0, 72, 0
2, 9416, Note_on_c, 0, 50, 0
2, 9420, Note_on_c, 0, 71, 64
2, 9420, Note_on_c, 0, 67, 64
2, 9420, Note_on_c, 0, 43, 64
2, 9446, Note_on_c, 0, 43, 0
2, 9450, Note_on_c, 0, 47, 64
2, 9451, Note_on_c, 0, 67, 0
2, 9451, Note_on_c, 0, 71, 0
2, 9476, Note_on_c, 0, 47, 0
2, 9480, Note_on_c, 0, 71, 64
2, 9480, Note_on_c, 0, 67, 64
2, 9480, Note_on_c, 0, 50, 64
2, 9506, Note_on_c, 0, 50, 0
2, 9510, Note_on_c, 0, 47, 64
2, 9511, Note_on_c, 0, 67, 0
2, 9511, Note_on_c, 0, 71, 0
2, 9536, Note_on_c, 0, 47, 0
2, 9540, Note_on_c, 0, 71, 64
2, 9540, Note_on_c, 0, 67, 64
2, 9540, Note_on_c, 0, 43, 64
2, 9566, Note_on_c, 0, 43, 0
2, 9570, Note_on_c, 0, 47, 64
2, 9592, Note_on_c, 0, 67, 0
2, 9596, Note_on_c, 0, 47, 0
2, 9600, Note_on_c, 0, 65, 64
2, 9600, Note_on_c, 0, 38, 64
2, 9626, Note_on_c, 0, 38, 0
2, 9626, Note_on_c, 0, 65, 0
2, 9630, Note_on_c, 0, 64, 64
2, 9630, Note_on_c, 0, 43, 64
2, 9656, Note_on_c, 0, 43, 0
2, 9656, Note_on_c, 0, 64, 0
2, 9660, Note_on_c, 0, 62, 64
2, 9660, Note_on_c, 0, 47, 64
2, 9686, Note_on_c, 0, 47, 0
2, 9686, Note_on_c, 0, 71, 0
2, 9690, Note_on_c, 0, 71, 64
2, 9690, Note_on_c, 0, 41, 64
2, 9712, Note_on_c, 0, 62, 0
2, 9716, Note_on_c, 0, 41, 0
2, 9720, Note_on_c, 0, 60, 64
2, 9720, Note_on_c, 0, 40, 64
2, 9746, Note_on_c, 0, 40, 0
2, 9746, Note_on_c, 0, 71, 0
2, 9750, Note_on_c, 0, 71, 64
2, 9750, Note_on_c, 0, 43, 64
2, 9776, Note_on_c, 0, 43, 0
2, 9776, Note_on_c, 0, 71, 0
2, 9780, Note_on_c, 0, 69, 64
2, 9780, Note_on_c, 0, 36, 64
2, 9806, Note_on_c, 0, 36, 0
2, 9806, Note_on_c, 0, 69, 0
2, 9810, Note_on_c, 0, 66, 64
2, 9810, Note_on_c, 0, 38, 64
2, 9836, Note_on_c, 0, 38, 0
2, 9836, Note_on_c, 0, 66, 0
2, 9840, Note_on_c, 0, 67, 64
2, 9840, Note_on_c, 0, 40, 64
2, 9866, Note_on_c, 0, 40, 0
2, 9866, Note_on_c, 0, 67, 0
2, 9870, Note_on_c, 0, 64, 64
2, 9870, Note_on_c, 0, 36, 64
2, 9896, Note_on_c, 0, 36, 0
2, 9896, Note_on_c, 0, 64, 0
2, 9900, Note_on_c, 0, 66, 64
2, 9900, Note_on_c, 0, 38, 64
2, 9926, Note_on_c, 0, 66, 0
2, 9930, Note_on_c, 0, 69, 64
2, 9931, Note_on_c, 0, 38, 0
2, 9952, Note_on_c, 0, 60, 0
2, 9956, Note_on_c, 0, 69, 0
2, 9960, Note_on_c, 0, 62, 64
2, 9960, Note_on_c, 0, 54, 64
2, 9960, Note_on_c, 0, 50, 64
2, 9986, Note_on_c, 0, 62, 0
2, 9990, Note_on_c, 0, 66, 64
2, 9995, Note_on_c, 0, 50, 0
2, 9995, Note_on_c, 0, 54, 0
2, 10016, Note_on_c, 0, 66, 0
2, 10020, Note_on_c, 0, 69, 64
2, 10020, Note_on_c, 0, 54, 64
2, 10020, Note_on_c, 0, 50, 64
2, 10046, Note_on_c, 0, 69, 0
2, 10050, Note_on_c, 0, 66, 64
2, 10055, Note_on_c, 0, 50, 0
2, 10055, Note_on_c, 0, 54, 0
2, 10076, Note_on_c, 0, 66, 0
2, 10080, Note_on_c, 0, 55, 64
2, 10080, Note_on_c, 0, 62, 64
2, 10080, Note_on_c, 0, 50, 64
2, 10104, Note_on_c, 0, 54, 64
2, 10106, Note_on_c, 0, 62, 0
2, 10110, Note_on_c, 0, 66, 64
2, 10111, Note_on_c, 0, 55, 0
2, 10116, Note_on_c, 0, 55, 64
2, 10123, Note_on_c, 0, 54, 0
2, 10128, Note_on_c, 0, 54, 64
2, 10135, Note_on_c, 0, 55, 0
2, 10136, Note_on_c, 0, 66, 0
2, 10140, Note_on_c, 0, 55, 64
2, 10140, Note_on_c, 0, 57, 64
2, 10147, Note_on_c, 0, 54, 0
2, 10152, Note_on_c, 0, 54, 64
2, 10159, Note_on_c, 0, 55, 0
2, 10164, Note_on_c, 0, 55, 64
2, 10166, Note_on_c, 0, 57, 0
2, 10170, Note_on_c, 0, 62, 64
2, 10171, Note_on_c, 0, 54, 0
2, 10176, Note_on_c, 0, 54, 64
2, 10183, Note_on_c, 0, 55, 0
2, 10188, Note_on_c, 0, 55, 64
2, 10195, Note_on_c, 0, 54, 0
2, 10196, Note_on_c, 0, 62, 0
2, 10200, Note_on_c, 0, 54, 64
2, 10200, Note_on_c, 0, 66, 64
2, 10207, Note_on_c, 0, 55, 0
2, 10212, Note_on_c, 0, 55, 64
2, 10219, Note_on_c, 0, 54, 0
2, 10223, Note_on_c, 0, 55, 0
2, 10224, Note_on_c, 0, 54, 64
2, 10226, Note_on_c, 0, 66, 0
2, 10230, Note_on_c, 0, 60, 64
2, 10232, Note_on_c, 0, 52, 64
2, 10235, Note_on_c, 0, 54, 0
2, 10245, Note_on_c, 0, 52, 0
2, 10245, Note_on_c, 0, 54, 64
2, 10256, Note_on_c, 0, 60, 0
2, 10258, Note_on_c, 0, 54, 0
2, 10260, Note_on_c, 0, 59, 64
2, 10260, Note_on_c, 0, 55, 64
2, 10286, Note_on_c, 0, 59, 0
2, 10290, Note_on_c, 0, 62, 64
2, 10312, Note_on_c, 0, 55, 0
2, 10312, Note_on_c, 0, 50, 0
2, 10316, Note_on_c, 0, 62, 0
2, 10320, Note_on_c, 0, 59, 64
2, 10320, Note_on_c, 0, 55, 64
2, 10320, Note_on_c, 0, 50, 64
2, 10346, Note_on_c, 0, 59, 0
2, 10350, Note_on_c, 0, 62, 64
2, 10355, Note_on_c, 0, 50, 0
2, 10355, Note_on_c, 0, 55, 0
2, 10376, Note_on_c, 0, 62, 0
2, 10380, Note_on_c, 0, 67, 64
2, 10380, Note_on_c, 0, 55, 64
2, 10380, Note_on_c, 0, 50, 64
2, 10406, Note_on_c, 0, 67, 0
2, 10410, Note_on_c, 0, 62, 64
2, 10411, Note_on_c, 0, 50, 0
2, 10411, Note_on_c, 0, 55, 0
2, 10436, Note_on_c, 0, 62, 0
2, 10440, Note_on_c, 0, 52, 64
2, 10440, Note_on_c, 0, 59, 64
2, 10440, Note_on_c, 0, 55, 64
2, 10456, Note_on_c, 0, 50, 64
2, 10463, Note_on_c, 0, 52, 0
2, 10466, Note_on_c, 0, 59, 0
2, 10468, Note_on_c, 0, 52, 64
2, 10470, Note_on_c, 0, 62, 64
2, 10475, Note_on_c, 0, 50, 0
2, 10480, Note_on_c, 0, 50, 64
2, 10487, Note_on_c, 0, 52, 0
2, 10492, Note_on_c, 0, 55, 0
2, 10492, Note_on_c, 0, 52, 64
2, 10496, Note_on_c, 0, 62, 0
2, 10499, Note_on_c, 0, 50, 0
2, 10500, Note_on_c, 0, 55, 64
2, 10504, Note_on_c, 0, 50, 64
2, 10511, Note_on_c, 0, 52, 0
2, 10516, Note_on_c, 0, 52, 64
2, 10523, Note_on_c, 0, 50, 0
2, 10526, Note_on_c, 0, 55, 0
2, 10528, Note_on_c, 0, 50, 64
2, 10530, Note_on_c, 0, 59, 64
2, 10535, Note_on_c, 0, 52, 0
2, 10540, Note_on_c, 0, 52, 64
2, 10547, Note_on_c, 0, 50, 0
2, 10552, Note_on_c, 0, 50, 64
2, 10556, Note_on_c, 0, 59, 0
2, 10559, Note_on_c, 0, 52, 0
2, 10560, Note_on_c, 0, 62, 64
2, 10564, Note_on_c, 0, 52, 64
2, 10571, Note_on_c, 0, 50, 0
2, 10576, Note_on_c, 0, 50, 64
2, 10583, Note_on_c, 0, 52, 0
2, 10586, Note_on_c, 0, 62, 0
2, 10590, Note_on_c, 0, 59, 64
2, 10590, Note_on_c, 0, 49, 64
2, 10595, Note_on_c, 0, 50, 0
2, 10603, Note_on_c, 0, 49, 0
2, 10605, Note_on_c, 0, 50, 64
2, 10616, Note_on_c, 0, 59, 0
2, 10618, Note_on_c, 0, 50, 0
2, 10620, Note_on_c, 0, 55, 64
2, 10620, Note_on_c, 0, 52, 64
2, 10620, Note_on_c, 0, 52, 64
2, 10646, Note_on_c, 0, 55, 0
2, 10650, Note_on_c, 0, 58, 64
2, 10672, Note_on_c, 0, 52, 0
2, 10672, Note_on_c, 0, 52, 0
2, 10676, Note_on_c, 0, 58, 0
2, 10680, Note_on_c, 0, 52, 64
2, 10680, Note_on_c, 0, 43, 64
2, 10680, Note_on_c, 0, 46, 64
2, 10680, Note_on_c, 0, 38, 64
2, 10706, Note_on_c, 0, 52, 0
2, 10710, Note_on_c, 0, 55, 64
2, 10711, Note_on_c, 0, 43, 0
2, 10711, Note_on_c, 0, 38, 0
2, 10711, Note_on_c, 0, 46, 0
2, 10736, Note_on_c, 0, 55, 0
2, 10740, Note_on_c, 0, 58, 64
2, 10740, Note_on_c, 0, 43, 64
2, 10740, Note_on_c, 0, 46, 64
2, 10740, Note_on_c, 0, 38, 64
2, 10766, Note_on_c, 0, 58, 0
2, 10770, Note_on_c, 0, 50, 64
2, 10771, Note_on_c, 0, 43, 0
2, 10771, Note_on_c, 0, 38, 0
2, 10771, Note_on_c, 0, 46, 0
2, 10796, Note_on_c, 0, 50, 0
2, 10800, Note_on_c, 0, 38, 64
2, 10800, Note_on_c, 0, 50, 64
2, 10820, Note_on_c, 0, 49, 64
2, 10827, Note_on_c, 0, 50, 0
2, 10830, Note_on_c, 0, 58, 64
2, 10832, Note_on_c, 0, 50, 64
2, 10839, Note_on_c, 0, 49, 0
2, 10844, Note_on_c, 0, 49, 64
2, 10851, Note_on_c, 0, 50, 0
2, 10852, Note_on_c, 0, 38, 0
2, 10856, Note_on_c, 0, 58, 0
2, 10856, Note_on_c, 0, 50, 64
2, 10860, Note_on_c, 0, 57, 64
2, 10863, Note_on_c, 0, 49, 0
2, 10868, Note_on_c, 0, 49, 64
2, 10875, Note_on_c, 0, 50, 0
2, 10880, Note_on_c, 0, 50, 64
2, 10886, Note_on_c, 0, 57, 0
2, 10887, Note_on_c, 0, 49, 0
2, 10890, Note_on_c, 0, 55, 64
2, 10892, Note_on_c, 0, 49, 64
2, 10899, Note_on_c, 0, 50, 0
2, 10904, Note_on_c, 0, 50, 64
2, 10911, Note_on_c, 0, 49, 0
2, 10916, Note_on_c, 0, 55, 0
2, 10916, Note_on_c, 0, 49, 64
2, 10920, Note_on_c, 0, 64, 64
2, 10923, Note_on_c, 0, 50, 0
2, 10928, Note_on_c, 0, 50, 64
2, 10935, Note_on_c, 0, 49, 0
2, 10940, Note_on_c, 0, 49, 64
2, 10946, Note_on_c, 0, 64, 0
2, 10947, Note_on_c, 0, 50, 0
2, 10950, Note_on_c, 0, 55, 64
2, 10950, Note_on_c, 0, 47, 64
2, 10959, Note_on_c, 0, 49, 0
2, 10963, Note_on_c, 0, 47, 0
2, 10965, Note_on_c, 0, 49, 64
2, 10976, Note_on_c, 0, 55, 0
2, 10978, Note_on_c, 0, 49, 0
2, 10980, Note_on_c, 0, 55, 64
2, 10980, Note_on_c, 0, 50, 64
2, 10987, Note_on_c, 0, 55, 0
2, 10988, Note_on_c, 0, 54, 64
2, 10996, Note_on_c, 0, 55, 64
2, 10999, Note_on_c, 0, 54, 0
2, 11004, Note_on_c, 0, 54, 64
2, 11007, Note_on_c, 0, 55, 0
2, 11010, Note_on_c, 0, 52, 64
2, 11015, Note_on_c, 0, 54, 0
2, 11032, Note_on_c, 0, 50, 0
2, 11036, Note_on_c, 0, 52, 0
2, 11040, Note_on_c, 0, 50, 64
2, 11070, Note_on_c, 0, 38, 64
2, 11085, Note_on_c, 0, 38, 0
2, 11085, Note_on_c, 0, 40, 64
2, 11092, Note_on_c, 0, 50, 0
2, 11100, Note_on_c, 0, 40, 0
2, 11100, Note_on_c, 0, 42, 64
2, 11113, Note_on_c, 0, 42, 0
2, 11115, Note_on_c, 0, 43, 64
2, 11128, Note_on_c, 0, 43, 0
2, 11130, Note_on_c, 0, 45, 64
2, 11143, Note_on_c, 0, 45, 0
2, 11145, Note_on_c, 0, 47, 64
2, 11158, Note_on_c, 0, 47, 0
2, 11160, Note_on_c, 0, 48, 64
2, 11173, Note_on_c, 0, 48, 0
2, 11175, Note_on_c, 0, 45, 64
2, 11188, Note_on_c, 0, 45, 0
2, 11190, Note_on_c, 0, 47, 64
2, 11203, Note_on_c, 0, 47, 0
2, 11205, Note_on_c, 0, 48, 64
2, 11218, Note_on_c, 0, 48, 0
2, 11220, Note_on_c, 0, 50, 64
2, 11233, Note_on_c, 0, 50, 0
2, 11235, Note_on_c, 0, 52, 64
2, 11248, Note_on_c, 0, 52, 0
2, 11250, Note_on_c, 0, 54, 64
2, 11263, Note_on_c, 0, 54, 0
2, 11265, Note_on_c, 0, 55, 64
2, 11278, Note_on_c, 0, 55, 0
2, 11280, Note_on_c, 0, 57, 64
2, 11293, Note_on_c, 0, 57, 0
2, 11295, Note_on_c, 0, 54, 64
2, 11308, Note_on_c, 0, 54, 0
2, 11310, Note_on_c, 0, 55, 64
2, 11323, Note_on_c, 0, 55, 0
2, 11325, Note_on_c, 0, 57, 64
2, 11338, Note_on_c, 0, 57, 0
2, 11340, Note_on_c, 0, 59, 64
2, 11353, Note_on_c, 0, 59, 0
2, 11355, Note_on_c, 0, 61, 64
2, 11368, Note_on_c, 0, 61, 0
2, 11370, Note_on_c, 0, 62, 64
2, 11383, Note_on_c, 0, 62, 0
2, 11385, Note_on_c, 0, 64, 64
2, 11398, Note_on_c, 0, 64, 0
2, 11400, Note_on_c, 0, 66, 64
2, 11400, Note_on_c, 0, 50, 64
2, 11413, Note_on_c, 0, 66, 0
2, 11415, Note_on_c, 0, 62, 64
2, 11428, Note_on_c, 0, 62, 0
2, 11430, Note_on_c, 0, 64, 64
2, 11431, Note_on_c, 0, 50, 0
2, 11443, Note_on_c, 0, 64, 0
2, 11445, Note_on_c, 0, 66, 64
2, 11458, Note_on_c, 0, 66, 0
2, 11460, Note_on_c, 0, 67, 64
2, 11460, Note_on_c, 0, 48, 64
2, 11473, Note_on_c, 0, 67, 0
2, 11475, Note_on_c, 0, 69, 64
2, 11488, Note_on_c, 0, 69, 0
2, 11490, Note_on_c, 0, 71, 64
2, 11491, Note_on_c, 0, 48, 0
2, 11503, Note_on_c, 0, 71, 0
2, 11505, Note_on_c, 0, 72, 64
2, 11518, Note_on_c, 0, 72, 0
2, 11520, Note_on_c, 0, 74, 64
2, 11520, Note_on_c, 0, 47, 64
2, 11550, Note_on_c, 0, 62, 64
2, 11551, Note_on_c, 0, 47, 0
2, 11576, Note_on_c, 0, 62, 0
2, 11580, Note_on_c, 0, 59, 64
2, 11580, Note_on_c, 0, 59, 64
2, 11606, Note_on_c, 0, 59, 0
2, 11610, Note_on_c, 0, 62, 64
2, 11632, Note_on_c, 0, 59, 0
2, 11636, Note_on_c, 0, 62, 0
2, 11640, Note_on_c, 0, 67, 64
2, 11666, Note_on_c, 0, 67, 0
2, 11670, Note_on_c, 0, 62, 64
2, 11696, Note_on_c, 0, 62, 0
2, 11700, Note_on_c, 0, 59, 64
2, 11726, Note_on_c, 0, 59, 0
2, 11730, Note_on_c, 0, 62, 64
2, 11756, Note_on_c, 0, 62, 0
2, 11760, Note_on_c, 0, 55, 64
2, 11786, Note_on_c, 0, 55, 0
2, 11790, Note_on_c, 0, 62, 64
2, 11816, Note_on_c, 0, 62, 0
2, 11820, Note_on_c, 0, 59, 64
2, 11820, Note_on_c, 0, 55, 64
2, 11846, Note_on_c, 0, 59, 0
2, 11850, Note_on_c, 0, 62, 64
2, 11851, Note_on_c, 0, 55, 0
2, 11876, Note_on_c, 0, 62, 0
2, 11880, Note_on_c, 0, 64, 64
2, 11880, Note_on_c, 0, 48, 64
2, 11906, Note_on_c, 0, 64, 0
2, 11910, Note_on_c, 0, 60, 64
2, 11911, Note_on_c, 0, 48, 0
2, 11932, Note_on_c, 0, 74, 0
2, 11936, Note_on_c, 0, 60, 0
2, 11940, Note_on_c, 0, 72, 64
2, 11940, Note_on_c, 0, 57, 64
2, 11966, Note_on_c, 0, 57, 0
2, 11970, Note_on_c, 0, 60, 64
2, 11996, Note_on_c, 0, 60, 0
2, 12000, Note_on_c, 0, 54, 64
2, 12000, Note_on_c, 0, 45, 64
2, 12026, Note_on_c, 0, 54, 0
2, 12030, Note_on_c, 0, 57, 64
2, 12031, Note_on_c, 0, 45, 0
2, 12056, Note_on_c, 0, 57, 0
2, 12060, Note_on_c, 0, 62, 64
2, 12060, Note_on_c, 0, 47, 64
2, 12086, Note_on_c, 0, 62, 0
2, 12087, Note_on_c, 0, 47, 0
2, 12090, Note_on_c, 0, 59, 64
2, 12112, Note_on_c, 0, 72, 0
2, 12116, Note_on_c, 0, 59, 0
2, 12120, Note_on_c, 0, 71, 64
2, 12120, Note_on_c, 0, 55, 64
2, 12146, Note_on_c, 0, 55, 0
2, 12150, Note_on_c, 0, 59, 64
2, 12176, Note_on_c, 0, 59, 0
2, 12180, Note_on_c, 0, 52, 64
2, 12180, Note_on_c, 0, 43, 64
2, 12206, Note_on_c, 0, 52, 0
2, 12210, Note_on_c, 0, 55, 64
2, 12215, Note_on_c, 0, 43, 0
2, 12236, Note_on_c, 0, 55, 0
2, 12240, Note_on_c, 0, 60, 64
2, 12240, Note_on_c, 0, 45, 64
2, 12266, Note_on_c, 0, 60, 0
2, 12270, Note_on_c, 0, 57, 64
2, 12271, Note_on_c, 0, 45, 0
2, 12292, Note_on_c, 0, 71, 0
2, 12296, Note_on_c, 0, 57, 0
2, 12300, Note_on_c, 0, 69, 64
2, 12300, Note_on_c, 0, 54, 64
2, 12326, Note_on_c, 0, 54, 0
2, 12326, Note_on_c, 0, 69, 0
2, 12330, Note_on_c, 0, 72, 64
2, 12330, Note_on_c, 0, 57, 64
2, 12356, Note_on_c, 0, 57, 0
2, 12356, Note_on_c, 0, 72, 0
2, 12360, Note_on_c, 0, 78, 64
2, 12360, Note_on_c, 0, 50, 64
2, 12360, Note_on_c, 0, 50, 64
2, 12386, Note_on_c, 0, 50, 0
2, 12386, Note_on_c, 0, 78, 0
2, 12390, Note_on_c, 0, 81, 64
2, 12390, Note_on_c, 0, 54, 64
2, 12412, Note_on_c, 0, 50, 0
2, 12416, Note_on_c, 0, 54, 0
2, 12420, Note_on_c, 0, 59, 64
2, 12420, Note_on_c, 0, 55, 64
2, 12446, Note_on_c, 0, 81, 0
2, 12450, Note_on_c, 0, 79, 64
2, 12455, Note_on_c, 0, 55, 0
2, 12455, Note_on_c, 0, 59, 0
2, 12480, Note_on_c, 0, 60, 64
2, 12480, Note_on_c, 0, 57, 64
2, 12502, Note_on_c, 0, 79, 0
2, 12510, Note_on_c, 0, 78, 64
2, 12511, Note_on_c, 0, 57, 0
2, 12511, Note_on_c, 0, 60, 0
2, 12536, Note_on_c, 0, 78, 0
2, 12540, Note_on_c, 0, 79, 64
2, 12540, Note_on_c, 0, 62, 64
2, 12540, Note_on_c, 0, 59, 64
2, 12566, Note_on_c, 0, 79, 0
2, 12570, Note_on_c, 0, 78, 64
2, 12571, Note_on_c, 0, 59, 0
2, 12571, Note_on_c, 0, 62, 0
2, 12583, Note_on_c, 0, 78, 0
2, 12585, Note_on_c, 0, 76, 64
2, 12598, Note_on_c, 0, 76, 0
2, 12600, Note_on_c, 0, 74, 64
2, 12613, Note_on_c, 0, 74, 0
2, 12615, Note_on_c, 0, 72, 64
2, 12628, Note_on_c, 0, 72, 0
2, 12630, Note_on_c, 0, 71, 64
2, 12643, Note_on_c, 0, 71, 0
2, 12645, Note_on_c, 0, 69, 64
2, 12658, Note_on_c, 0, 69, 0
2, 12660, Note_on_c, 0, 67, 64
2, 12660, Note_on_c, 0, 59, 64
2, 12660, Note_on_c, 0, 48, 64
2, 12673, Note_on_c, 0, 67, 0
2, 12675, Note_on_c, 0, 71, 64
2, 12688, Note_on_c, 0, 71, 0
2, 12690, Note_on_c, 0, 69, 64
2, 12695, Note_on_c, 0, 48, 0
2, 12695, Note_on_c, 0, 59, 0
2, 12703, Note_on_c, 0, 69, 0
2, 12705, Note_on_c, 0, 67, 64
2, 12718, Note_on_c, 0, 67, 0
2, 12720, Note_on_c, 0, 66, 64
2, 12720, Note_on_c, 0, 57, 64
2, 12720, Note_on_c, 0, 50, 64
2, 12733, Note_on_c, 0, 66, 0
2, 12735, Note_on_c, 0, 64, 64
2, 12748, Note_on_c, 0, 64, 0
2, 12750, Note_on_c, 0, 62, 64
2, 12751, Note_on_c, 0, 50, 0
2, 12751, Note_on_c, 0, 57, 0
2, 12763, Note_on_c, 0, 62, 0
2, 12765, Note_on_c, 0, 60, 64
2, 12778, Note_on_c, 0, 60, 0
2, 12780, Note_on_c, 0, 60, 64
2, 12780, Note_on_c, 0, 55, 64
2, 12780, Note_on_c, 0, 43, 64
2, 12840, Note_on_c, 0, 59, 64
2, 12843, Note_on_c, 0, 60, 0
2, 12943, Note_on_c, 0, 55, 0
2, 12943, Note_on_c, 0, 43, 0
2, 12943, Note_on_c, 0, 59, 0
2, 12943, End_track
0, 0, End_of_file
