0, 0, Header, 1, 5, 120
1, 0, Start_track
1, 0, Time_signature, 3, 2, 24, 8
1, 0, Key_signature, -2, "major"
1, 0, Tempo, 750000
1, 0, Marker_t, "(c) Yo Tomita, 1997"
1, 29640, Tempo, 754717
1, 29652, Tempo, 759494
1, 29665, Tempo, 764331
1, 29677, Tempo, 769231
1, 29690, Tempo, 774194
1, 29702, Tempo, 779221
1, 29712, Tempo, 784314
1, 29725, Tempo, 789474
1, 29737, Tempo, 794702
1, 29750, Tempo, 800000
1, 29762, Tempo, 805369
1, 29775, Tempo, 810811
1, 29785, Tempo, 816327
1, 29797, Tempo, 821918
1, 29810, Tempo, 827586
1, 29822, Tempo, 833333
1, 29835, Tempo, 839161
1, 29847, Tempo, 845070
1, 29857, Tempo, 851064
1, 29870, Tempo, 857143
1, 29882, Tempo, 863309
1, 29895, Tempo, 869565
1, 29907, Tempo, 875912
1, 29920, Tempo, 882353
1, 29930, Tempo, 888889
1, 29942, Tempo, 895522
1, 29955, Tempo, 902256
1, 29967, Tempo, 909091
1, 29980, Tempo, 916031
1, 29992, Tempo, 923077
1, 30002, Tempo, 930233
1, 30015, Tempo, 937500
1, 30027, Tempo, 944882
1, 30035, Tempo, 967742
1, 30040, Tempo, 975610
1, 30042, Tempo, 983607
1, 30045, Tempo, 991736
1, 30047, Tempo, 1000000
1, 30052, Tempo, 1008403
1, 30055, Tempo, 1016949
1, 30057, Tempo, 1025641
1, 30060, Tempo, 1034483
1, 30065, Tempo, 1043478
1, 30067, Tempo, 1052632
1, 30070, Tempo, 1061947
1, 30072, Tempo, 1071429
1, 30077, Tempo, 1081081
1, 30080, Tempo, 1090909
1, 30082, Tempo, 1100917
1, 30085, Tempo, 1111111
1, 30090, Tempo, 1121495
1, 30092, Tempo, 1132075
1, 30095, Tempo, 1142857
1, 30097, Tempo, 1153846
1, 30102, Tempo, 1165049
1, 30105, Tempo, 1176471
1, 30107, Tempo, 1188119
1, 30110, Tempo, 1200000
1, 30110, End_track
2, 0, Start_track
2, 0, MIDI_port, 0
2, 0, Title_t, "BWV 885/2"
2, 0, Program_c, 0, 6
2, 124, Note_on_c, 0, 62, 64
2, 229, Note_on_c, 0, 62, 0
2, 304, Note_on_c, 0, 58, 64
2, 356, Note_on_c, 0, 58, 0
2, 364, Note_on_c, 0, 63, 64
2, 469, Note_on_c, 0, 63, 0
2, 484, Note_on_c, 0, 60, 64
2, 589, Note_on_c, 0, 60, 0
2, 664, Note_on_c, 0, 57, 64
2, 716, Note_on_c, 0, 57, 0
2, 724, Note_on_c, 0, 62, 64
2, 829, Note_on_c, 0, 62, 0
2, 844, Note_on_c, 0, 58, 64
2, 949, Note_on_c, 0, 58, 0
2, 1024, Note_on_c, 0, 55, 64
2, 1076, Note_on_c, 0, 55, 0
2, 1084, Note_on_c, 0, 60, 64
2, 1136, Note_on_c, 0, 60, 0
2, 1144, Note_on_c, 0, 60, 64
2, 1196, Note_on_c, 0, 60, 0
2, 1204, Note_on_c, 0, 60, 64
2, 1256, Note_on_c, 0, 60, 0
2, 1264, Note_on_c, 0, 60, 64
2, 1316, Note_on_c, 0, 60, 0
2, 1324, Note_on_c, 0, 60, 64
2, 1376, Note_on_c, 0, 60, 0
2, 1384, Note_on_c, 0, 60, 64
2, 1436, Note_on_c, 0, 60, 0
2, 1444, Note_on_c, 0, 60, 64
2, 1496, Note_on_c, 0, 60, 0
2, 1504, Note_on_c, 0, 58, 64
2, 1530, Note_on_c, 0, 58, 0
2, 1534, Note_on_c, 0, 57, 64
2, 1560, Note_on_c, 0, 57, 0
2, 1564, Note_on_c, 0, 67, 64
2, 1564, Note_on_c, 0, 58, 64
2, 1590, Note_on_c, 0, 58, 0
2, 1594, Note_on_c, 0, 55, 64
2, 1620, Note_on_c, 0, 55, 0
2, 1624, Note_on_c, 0, 58, 64
2, 1650, Note_on_c, 0, 58, 0
2, 1654, Note_on_c, 0, 60, 64
2, 1669, Note_on_c, 0, 67, 0
2, 1680, Note_on_c, 0, 60, 0
2, 1684, Note_on_c, 0, 62, 64
2, 1710, Note_on_c, 0, 62, 0
2, 1714, Note_on_c, 0, 61, 64
2, 1740, Note_on_c, 0, 61, 0
2, 1744, Note_on_c, 0, 65, 64
2, 1744, Note_on_c, 0, 62, 64
2, 1796, Note_on_c, 0, 62, 0
2, 1796, Note_on_c, 0, 65, 0
2, 1804, Note_on_c, 0, 70, 64
2, 1804, Note_on_c, 0, 62, 64
2, 1843, Note_on_c, 0, 62, 0
2, 1864, Note_on_c, 0, 55, 64
2, 1903, Note_on_c, 0, 55, 0
2, 1909, Note_on_c, 0, 70, 0
2, 1924, Note_on_c, 0, 67, 64
2, 1954, Note_on_c, 0, 55, 64
2, 1980, Note_on_c, 0, 55, 0
2, 1984, Note_on_c, 0, 57, 64
2, 2010, Note_on_c, 0, 57, 0
2, 2014, Note_on_c, 0, 58, 64
2, 2029, Note_on_c, 0, 67, 0
2, 2040, Note_on_c, 0, 58, 0
2, 2044, Note_on_c, 0, 60, 64
2, 2070, Note_on_c, 0, 60, 0
2, 2074, Note_on_c, 0, 58, 64
2, 2100, Note_on_c, 0, 58, 0
2, 2104, Note_on_c, 0, 64, 64
2, 2104, Note_on_c, 0, 60, 64
2, 2156, Note_on_c, 0, 60, 0
2, 2156, Note_on_c, 0, 64, 0
2, 2164, Note_on_c, 0, 69, 64
2, 2164, Note_on_c, 0, 60, 64
2, 2203, Note_on_c, 0, 60, 0
2, 2224, Note_on_c, 0, 53, 64
2, 2259, Note_on_c, 0, 53, 0
2, 2269, Note_on_c, 0, 69, 0
2, 2284, Note_on_c, 0, 65, 64
2, 2314, Note_on_c, 0, 53, 64
2, 2340, Note_on_c, 0, 53, 0
2, 2344, Note_on_c, 0, 55, 64
2, 2370, Note_on_c, 0, 55, 0
2, 2374, Note_on_c, 0, 57, 64
2, 2389, Note_on_c, 0, 65, 0
2, 2400, Note_on_c, 0, 57, 0
2, 2404, Note_on_c, 0, 58, 64
2, 2430, Note_on_c, 0, 58, 0
2, 2434, Note_on_c, 0, 57, 64
2, 2460, Note_on_c, 0, 57, 0
2, 2464, Note_on_c, 0, 62, 64
2, 2464, Note_on_c, 0, 58, 64
2, 2516, Note_on_c, 0, 62, 0
2, 2524, Note_on_c, 0, 67, 64
2, 2550, Note_on_c, 0, 58, 0
2, 2554, Note_on_c, 0, 57, 64
2, 2576, Note_on_c, 0, 67, 0
2, 2580, Note_on_c, 0, 57, 0
2, 2584, Note_on_c, 0, 67, 64
2, 2584, Note_on_c, 0, 58, 64
2, 2610, Note_on_c, 0, 58, 0
2, 2614, Note_on_c, 0, 57, 64
2, 2636, Note_on_c, 0, 67, 0
2, 2640, Note_on_c, 0, 57, 0
2, 2644, Note_on_c, 0, 67, 64
2, 2644, Note_on_c, 0, 55, 64
2, 2670, Note_on_c, 0, 55, 0
2, 2674, Note_on_c, 0, 53, 64
2, 2696, Note_on_c, 0, 67, 0
2, 2700, Note_on_c, 0, 53, 0
2, 2704, Note_on_c, 0, 67, 64
2, 2704, Note_on_c, 0, 55, 64
2, 2730, Note_on_c, 0, 55, 0
2, 2734, Note_on_c, 0, 53, 64
2, 2756, Note_on_c, 0, 67, 0
2, 2760, Note_on_c, 0, 53, 0
2, 2764, Note_on_c, 0, 67, 64
2, 2764, Note_on_c, 0, 52, 64
2, 2790, Note_on_c, 0, 52, 0
2, 2794, Note_on_c, 0, 50, 64
2, 2816, Note_on_c, 0, 67, 0
2, 2820, Note_on_c, 0, 50, 0
2, 2824, Note_on_c, 0, 67, 64
2, 2824, Note_on_c, 0, 52, 64
2, 2850, Note_on_c, 0, 52, 0
2, 2854, Note_on_c, 0, 50, 64
2, 2876, Note_on_c, 0, 67, 0
2, 2880, Note_on_c, 0, 50, 0
2, 2884, Note_on_c, 0, 67, 64
2, 2884, Note_on_c, 0, 49, 64
2, 2923, Note_on_c, 0, 49, 0
2, 2936, Note_on_c, 0, 67, 0
2, 2944, Note_on_c, 0, 65, 64
2, 2944, Note_on_c, 0, 57, 64
2, 2970, Note_on_c, 0, 65, 0
2, 2974, Note_on_c, 0, 64, 64
2, 2983, Note_on_c, 0, 57, 0
2, 3000, Note_on_c, 0, 64, 0
2, 3004, Note_on_c, 0, 74, 64
2, 3004, Note_on_c, 0, 65, 64
2, 3004, Note_on_c, 0, 50, 64
2, 3030, Note_on_c, 0, 65, 0
2, 3034, Note_on_c, 0, 62, 64
2, 3043, Note_on_c, 0, 50, 0
2, 3060, Note_on_c, 0, 62, 0
2, 3064, Note_on_c, 0, 64, 64
2, 3064, Note_on_c, 0, 60, 64
2, 3090, Note_on_c, 0, 64, 0
2, 3094, Note_on_c, 0, 66, 64
2, 3103, Note_on_c, 0, 60, 0
2, 3109, Note_on_c, 0, 74, 0
2, 3120, Note_on_c, 0, 66, 0
2, 3124, Note_on_c, 0, 67, 64
2, 3124, Note_on_c, 0, 58, 64
2, 3150, Note_on_c, 0, 67, 0
2, 3154, Note_on_c, 0, 66, 64
2, 3167, Note_on_c, 0, 58, 0
2, 3180, Note_on_c, 0, 66, 0
2, 3184, Note_on_c, 0, 70, 64
2, 3184, Note_on_c, 0, 67, 64
2, 3184, Note_on_c, 0, 55, 64
2, 3227, Note_on_c, 0, 55, 0
2, 3236, Note_on_c, 0, 67, 0
2, 3236, Note_on_c, 0, 70, 0
2, 3244, Note_on_c, 0, 75, 64
2, 3244, Note_on_c, 0, 67, 64
2, 3244, Note_on_c, 0, 60, 64
2, 3270, Note_on_c, 0, 60, 0
2, 3274, Note_on_c, 0, 58, 64
2, 3296, Note_on_c, 0, 67, 0
2, 3300, Note_on_c, 0, 58, 0
2, 3304, Note_on_c, 0, 60, 64
2, 3304, Note_on_c, 0, 60, 64
2, 3330, Note_on_c, 0, 60, 0
2, 3334, Note_on_c, 0, 58, 64
2, 3349, Note_on_c, 0, 75, 0
2, 3356, Note_on_c, 0, 60, 0
2, 3360, Note_on_c, 0, 58, 0
2, 3364, Note_on_c, 0, 72, 64
2, 3364, Note_on_c, 0, 57, 64
2, 3394, Note_on_c, 0, 60, 64
2, 3420, Note_on_c, 0, 60, 0
2, 3424, Note_on_c, 0, 62, 64
2, 3442, Note_on_c, 0, 57, 0
2, 3450, Note_on_c, 0, 62, 0
2, 3454, Note_on_c, 0, 63, 64
2, 3454, Note_on_c, 0, 55, 64
2, 3469, Note_on_c, 0, 72, 0
2, 3480, Note_on_c, 0, 55, 0
2, 3480, Note_on_c, 0, 63, 0
2, 3484, Note_on_c, 0, 65, 64
2, 3484, Note_on_c, 0, 57, 64
2, 3510, Note_on_c, 0, 65, 0
2, 3514, Note_on_c, 0, 63, 64
2, 3536, Note_on_c, 0, 57, 0
2, 3540, Note_on_c, 0, 63, 0
2, 3544, Note_on_c, 0, 69, 64
2, 3544, Note_on_c, 0, 65, 64
2, 3544, Note_on_c, 0, 53, 64
2, 3596, Note_on_c, 0, 53, 0
2, 3596, Note_on_c, 0, 65, 0
2, 3596, Note_on_c, 0, 69, 0
2, 3604, Note_on_c, 0, 74, 64
2, 3604, Note_on_c, 0, 65, 64
2, 3604, Note_on_c, 0, 58, 64
2, 3630, Note_on_c, 0, 58, 0
2, 3634, Note_on_c, 0, 57, 64
2, 3656, Note_on_c, 0, 65, 0
2, 3660, Note_on_c, 0, 57, 0
2, 3664, Note_on_c, 0, 58, 64
2, 3664, Note_on_c, 0, 58, 64
2, 3690, Note_on_c, 0, 58, 0
2, 3694, Note_on_c, 0, 57, 64
2, 3709, Note_on_c, 0, 74, 0
2, 3716, Note_on_c, 0, 58, 0
2, 3720, Note_on_c, 0, 57, 0
2, 3724, Note_on_c, 0, 70, 64
2, 3724, Note_on_c, 0, 55, 64
2, 3754, Note_on_c, 0, 58, 64
2, 3776, Note_on_c, 0, 55, 0
2, 3780, Note_on_c, 0, 58, 0
2, 3784, Note_on_c, 0, 60, 64
2, 3784, Note_on_c, 0, 57, 64
2, 3810, Note_on_c, 0, 57, 0
2, 3810, Note_on_c, 0, 60, 0
2, 3814, Note_on_c, 0, 62, 64
2, 3814, Note_on_c, 0, 58, 64
2, 3829, Note_on_c, 0, 70, 0
2, 3840, Note_on_c, 0, 58, 0
2, 3840, Note_on_c, 0, 62, 0
2, 3844, Note_on_c, 0, 63, 64
2, 3844, Note_on_c, 0, 60, 64
2, 3870, Note_on_c, 0, 63, 0
2, 3874, Note_on_c, 0, 62, 64
2, 3900, Note_on_c, 0, 62, 0
2, 3904, Note_on_c, 0, 67, 64
2, 3904, Note_on_c, 0, 63, 64
2, 3922, Note_on_c, 0, 60, 0
2, 3934, Note_on_c, 0, 58, 64
2, 3956, Note_on_c, 0, 67, 0
2, 3960, Note_on_c, 0, 58, 0
2, 3964, Note_on_c, 0, 72, 64
2, 3964, Note_on_c, 0, 57, 64
2, 3990, Note_on_c, 0, 63, 0
2, 3994, Note_on_c, 0, 62, 64
2, 4016, Note_on_c, 0, 72, 0
2, 4020, Note_on_c, 0, 62, 0
2, 4024, Note_on_c, 0, 72, 64
2, 4024, Note_on_c, 0, 63, 64
2, 4050, Note_on_c, 0, 63, 0
2, 4054, Note_on_c, 0, 62, 64
2, 4069, Note_on_c, 0, 57, 0
2, 4076, Note_on_c, 0, 72, 0
2, 4080, Note_on_c, 0, 62, 0
2, 4084, Note_on_c, 0, 72, 64
2, 4084, Note_on_c, 0, 60, 64
2, 4110, Note_on_c, 0, 60, 0
2, 4114, Note_on_c, 0, 58, 64
2, 4136, Note_on_c, 0, 72, 0
2, 4140, Note_on_c, 0, 58, 0
2, 4144, Note_on_c, 0, 72, 64
2, 4144, Note_on_c, 0, 60, 64
2, 4144, Note_on_c, 0, 55, 64
2, 4170, Note_on_c, 0, 60, 0
2, 4174, Note_on_c, 0, 58, 64
2, 4179, Note_on_c, 0, 55, 0
2, 4196, Note_on_c, 0, 72, 0
2, 4200, Note_on_c, 0, 58, 0
2, 4204, Note_on_c, 0, 72, 64
2, 4204, Note_on_c, 0, 57, 64
2, 4204, Note_on_c, 0, 54, 64
2, 4230, Note_on_c, 0, 57, 0
2, 4234, Note_on_c, 0, 55, 64
2, 4243, Note_on_c, 0, 54, 0
2, 4256, Note_on_c, 0, 72, 0
2, 4260, Note_on_c, 0, 55, 0
2, 4264, Note_on_c, 0, 72, 64
2, 4264, Note_on_c, 0, 57, 64
2, 4264, Note_on_c, 0, 52, 64
2, 4290, Note_on_c, 0, 57, 0
2, 4294, Note_on_c, 0, 55, 64
2, 4303, Note_on_c, 0, 52, 0
2, 4316, Note_on_c, 0, 72, 0
2, 4320, Note_on_c, 0, 55, 0
2, 4324, Note_on_c, 0, 72, 64
2, 4324, Note_on_c, 0, 54, 64
2, 4324, Note_on_c, 0, 50, 64
2, 4363, Note_on_c, 0, 50, 0
2, 4376, Note_on_c, 0, 54, 0
2, 4376, Note_on_c, 0, 72, 0
2, 4384, Note_on_c, 0, 70, 64
2, 4384, Note_on_c, 0, 62, 64
2, 4384, Note_on_c, 0, 54, 64
2, 4410, Note_on_c, 0, 70, 0
2, 4414, Note_on_c, 0, 69, 64
2, 4436, Note_on_c, 0, 54, 0
2, 4440, Note_on_c, 0, 69, 0
2, 4444, Note_on_c, 0, 70, 64
2, 4444, Note_on_c, 0, 55, 64
2, 4444, Note_on_c, 0, 55, 64
2, 4470, Note_on_c, 0, 70, 0
2, 4474, Note_on_c, 0, 67, 64
2, 4496, Note_on_c, 0, 62, 0
2, 4496, Note_on_c, 0, 55, 0
2, 4500, Note_on_c, 0, 67, 0
2, 4504, Note_on_c, 0, 70, 64
2, 4504, Note_on_c, 0, 67, 64
2, 4504, Note_on_c, 0, 62, 64
2, 4530, Note_on_c, 0, 62, 0
2, 4530, Note_on_c, 0, 70, 0
2, 4534, Note_on_c, 0, 72, 64
2, 4534, Note_on_c, 0, 64, 64
2, 4549, Note_on_c, 0, 55, 0
2, 4556, Note_on_c, 0, 67, 0
2, 4560, Note_on_c, 0, 72, 0
2, 4560, Note_on_c, 0, 64, 0
2, 4564, Note_on_c, 0, 74, 64
2, 4564, Note_on_c, 0, 65, 64
2, 4590, Note_on_c, 0, 65, 0
2, 4590, Note_on_c, 0, 74, 0
2, 4594, Note_on_c, 0, 73, 64
2, 4594, Note_on_c, 0, 64, 64
2, 4620, Note_on_c, 0, 64, 0
2, 4620, Note_on_c, 0, 73, 0
2, 4624, Note_on_c, 0, 74, 64
2, 4624, Note_on_c, 0, 65, 64
2, 4624, Note_on_c, 0, 53, 64
2, 4654, Note_on_c, 0, 69, 64
2, 4676, Note_on_c, 0, 53, 0
2, 4676, Note_on_c, 0, 74, 0
2, 4676, Note_on_c, 0, 65, 0
2, 4684, Note_on_c, 0, 74, 64
2, 4684, Note_on_c, 0, 62, 64
2, 4684, Note_on_c, 0, 58, 64
2, 4710, Note_on_c, 0, 69, 0
2, 4714, Note_on_c, 0, 69, 64
2, 4736, Note_on_c, 0, 74, 0
2, 4740, Note_on_c, 0, 69, 0
2, 4744, Note_on_c, 0, 67, 64
2, 4744, Note_on_c, 0, 67, 64
2, 4770, Note_on_c, 0, 67, 0
2, 4774, Note_on_c, 0, 65, 64
2, 4789, Note_on_c, 0, 58, 0
2, 4796, Note_on_c, 0, 67, 0
2, 4800, Note_on_c, 0, 65, 0
2, 4804, Note_on_c, 0, 64, 64
2, 4804, Note_on_c, 0, 55, 64
2, 4834, Note_on_c, 0, 67, 64
2, 4856, Note_on_c, 0, 62, 0
2, 4860, Note_on_c, 0, 67, 0
2, 4864, Note_on_c, 0, 69, 64
2, 4864, Note_on_c, 0, 60, 64
2, 4890, Note_on_c, 0, 60, 0
2, 4890, Note_on_c, 0, 69, 0
2, 4894, Note_on_c, 0, 70, 64
2, 4894, Note_on_c, 0, 58, 64
2, 4909, Note_on_c, 0, 55, 0
2, 4909, Note_on_c, 0, 64, 0
2, 4920, Note_on_c, 0, 70, 0
2, 4920, Note_on_c, 0, 58, 0
2, 4924, Note_on_c, 0, 72, 64
2, 4924, Note_on_c, 0, 57, 64
2, 4950, Note_on_c, 0, 72, 0
2, 4954, Note_on_c, 0, 70, 64
2, 4976, Note_on_c, 0, 57, 0
2, 4980, Note_on_c, 0, 70, 0
2, 4984, Note_on_c, 0, 72, 64
2, 4984, Note_on_c, 0, 55, 64
2, 4984, Note_on_c, 0, 52, 64
2, 5014, Note_on_c, 0, 67, 64
2, 5036, Note_on_c, 0, 52, 0
2, 5036, Note_on_c, 0, 72, 0
2, 5036, Note_on_c, 0, 55, 0
2, 5044, Note_on_c, 0, 72, 64
2, 5044, Note_on_c, 0, 60, 64
2, 5044, Note_on_c, 0, 57, 64
2, 5070, Note_on_c, 0, 67, 0
2, 5074, Note_on_c, 0, 67, 64
2, 5096, Note_on_c, 0, 72, 0
2, 5100, Note_on_c, 0, 67, 0
2, 5104, Note_on_c, 0, 65, 64
2, 5104, Note_on_c, 0, 65, 64
2, 5130, Note_on_c, 0, 65, 0
2, 5134, Note_on_c, 0, 64, 64
2, 5149, Note_on_c, 0, 57, 0
2, 5156, Note_on_c, 0, 65, 0
2, 5160, Note_on_c, 0, 64, 0
2, 5164, Note_on_c, 0, 62, 64
2, 5164, Note_on_c, 0, 53, 64
2, 5194, Note_on_c, 0, 65, 64
2, 5216, Note_on_c, 0, 60, 0
2, 5220, Note_on_c, 0, 65, 0
2, 5224, Note_on_c, 0, 67, 64
2, 5224, Note_on_c, 0, 58, 64
2, 5250, Note_on_c, 0, 58, 0
2, 5250, Note_on_c, 0, 67, 0
2, 5254, Note_on_c, 0, 69, 64
2, 5254, Note_on_c, 0, 57, 64
2, 5269, Note_on_c, 0, 53, 0
2, 5269, Note_on_c, 0, 62, 0
2, 5280, Note_on_c, 0, 69, 0
2, 5280, Note_on_c, 0, 57, 0
2, 5284, Note_on_c, 0, 70, 64
2, 5284, Note_on_c, 0, 55, 64
2, 5310, Note_on_c, 0, 70, 0
2, 5314, Note_on_c, 0, 69, 64
2, 5336, Note_on_c, 0, 55, 0
2, 5340, Note_on_c, 0, 69, 0
2, 5344, Note_on_c, 0, 70, 64
2, 5344, Note_on_c, 0, 53, 64
2, 5344, Note_on_c, 0, 50, 64
2, 5374, Note_on_c, 0, 65, 64
2, 5396, Note_on_c, 0, 50, 0
2, 5396, Note_on_c, 0, 53, 0
2, 5400, Note_on_c, 0, 65, 0
2, 5404, Note_on_c, 0, 64, 64
2, 5404, Note_on_c, 0, 58, 64
2, 5404, Note_on_c, 0, 55, 64
2, 5430, Note_on_c, 0, 70, 0
2, 5434, Note_on_c, 0, 69, 64
2, 5456, Note_on_c, 0, 55, 0
2, 5460, Note_on_c, 0, 69, 0
2, 5464, Note_on_c, 0, 70, 64
2, 5464, Note_on_c, 0, 55, 64
2, 5482, Note_on_c, 0, 64, 0
2, 5490, Note_on_c, 0, 70, 0
2, 5494, Note_on_c, 0, 69, 64
2, 5494, Note_on_c, 0, 65, 64
2, 5509, Note_on_c, 0, 58, 0
2, 5516, Note_on_c, 0, 55, 0
2, 5520, Note_on_c, 0, 69, 0
2, 5520, Note_on_c, 0, 65, 0
2, 5524, Note_on_c, 0, 67, 64
2, 5524, Note_on_c, 0, 64, 64
2, 5524, Note_on_c, 0, 55, 64
2, 5550, Note_on_c, 0, 67, 0
2, 5554, Note_on_c, 0, 65, 64
2, 5576, Note_on_c, 0, 55, 0
2, 5580, Note_on_c, 0, 65, 0
2, 5584, Note_on_c, 0, 67, 64
2, 5584, Note_on_c, 0, 55, 64
2, 5602, Note_on_c, 0, 64, 0
2, 5610, Note_on_c, 0, 67, 0
2, 5614, Note_on_c, 0, 65, 64
2, 5614, Note_on_c, 0, 62, 64
2, 5636, Note_on_c, 0, 55, 0
2, 5640, Note_on_c, 0, 62, 0
2, 5640, Note_on_c, 0, 65, 0
2, 5644, Note_on_c, 0, 64, 64
2, 5644, Note_on_c, 0, 61, 64
2, 5644, Note_on_c, 0, 55, 64
2, 5670, Note_on_c, 0, 64, 0
2, 5674, Note_on_c, 0, 62, 64
2, 5696, Note_on_c, 0, 55, 0
2, 5700, Note_on_c, 0, 62, 0
2, 5704, Note_on_c, 0, 64, 64
2, 5704, Note_on_c, 0, 55, 64
2, 5722, Note_on_c, 0, 61, 0
2, 5730, Note_on_c, 0, 64, 0
2, 5734, Note_on_c, 0, 62, 64
2, 5734, Note_on_c, 0, 62, 64
2, 5756, Note_on_c, 0, 55, 0
2, 5760, Note_on_c, 0, 62, 0
2, 5760, Note_on_c, 0, 62, 0
2, 5764, Note_on_c, 0, 61, 64
2, 5764, Note_on_c, 0, 57, 64
2, 5764, Note_on_c, 0, 55, 64
2, 5816, Note_on_c, 0, 55, 0
2, 5816, Note_on_c, 0, 61, 0
2, 5824, Note_on_c, 0, 69, 64
2, 5824, Note_on_c, 0, 53, 64
2, 5850, Note_on_c, 0, 53, 0
2, 5854, Note_on_c, 0, 52, 64
2, 5869, Note_on_c, 0, 57, 0
2, 5876, Note_on_c, 0, 69, 0
2, 5880, Note_on_c, 0, 52, 0
2, 5884, Note_on_c, 0, 62, 64
2, 5884, Note_on_c, 0, 53, 64
2, 5910, Note_on_c, 0, 53, 0
2, 5914, Note_on_c, 0, 50, 64
2, 5936, Note_on_c, 0, 62, 0
2, 5940, Note_on_c, 0, 50, 0
2, 5944, Note_on_c, 0, 72, 64
2, 5944, Note_on_c, 0, 51, 64
2, 5970, Note_on_c, 0, 51, 0
2, 5974, Note_on_c, 0, 53, 64
2, 5996, Note_on_c, 0, 72, 0
2, 6000, Note_on_c, 0, 53, 0
2, 6004, Note_on_c, 0, 71, 64
2, 6004, Note_on_c, 0, 55, 64
2, 6030, Note_on_c, 0, 55, 0
2, 6030, Note_on_c, 0, 71, 0
2, 6034, Note_on_c, 0, 74, 64
2, 6034, Note_on_c, 0, 53, 64
2, 6060, Note_on_c, 0, 53, 0
2, 6060, Note_on_c, 0, 74, 0
2, 6064, Note_on_c, 0, 77, 64
2, 6064, Note_on_c, 0, 55, 64
2, 6094, Note_on_c, 0, 74, 64
2, 6116, Note_on_c, 0, 55, 0
2, 6116, Note_on_c, 0, 77, 0
2, 6124, Note_on_c, 0, 75, 64
2, 6124, Note_on_c, 0, 48, 64
2, 6150, Note_on_c, 0, 48, 0
2, 6154, Note_on_c, 0, 47, 64
2, 6176, Note_on_c, 0, 74, 0
2, 6180, Note_on_c, 0, 47, 0
2, 6184, Note_on_c, 0, 67, 64
2, 6184, Note_on_c, 0, 48, 64
2, 6210, Note_on_c, 0, 48, 0
2, 6214, Note_on_c, 0, 50, 64
2, 6229, Note_on_c, 0, 75, 0
2, 6236, Note_on_c, 0, 67, 0
2, 6240, Note_on_c, 0, 50, 0
2, 6244, Note_on_c, 0, 60, 64
2, 6244, Note_on_c, 0, 51, 64
2, 6270, Note_on_c, 0, 51, 0
2, 6274, Note_on_c, 0, 48, 64
2, 6296, Note_on_c, 0, 60, 0
2, 6300, Note_on_c, 0, 48, 0
2, 6304, Note_on_c, 0, 70, 64
2, 6304, Note_on_c, 0, 50, 64
2, 6330, Note_on_c, 0, 50, 0
2, 6334, Note_on_c, 0, 51, 64
2, 6356, Note_on_c, 0, 70, 0
2, 6360, Note_on_c, 0, 51, 0
2, 6364, Note_on_c, 0, 69, 64
2, 6364, Note_on_c, 0, 53, 64
2, 6390, Note_on_c, 0, 53, 0
2, 6390, Note_on_c, 0, 69, 0
2, 6394, Note_on_c, 0, 72, 64
2, 6394, Note_on_c, 0, 51, 64
2, 6420, Note_on_c, 0, 51, 0
2, 6420, Note_on_c, 0, 72, 0
2, 6424, Note_on_c, 0, 75, 64
2, 6424, Note_on_c, 0, 53, 64
2, 6454, Note_on_c, 0, 81, 64
2, 6476, Note_on_c, 0, 53, 0
2, 6480, Note_on_c, 0, 81, 0
2, 6484, Note_on_c, 0, 82, 64
2, 6484, Note_on_c, 0, 46, 64
2, 6510, Note_on_c, 0, 46, 0
2, 6514, Note_on_c, 0, 53, 64
2, 6536, Note_on_c, 0, 75, 0
2, 6540, Note_on_c, 0, 53, 0
2, 6544, Note_on_c, 0, 74, 64
2, 6544, Note_on_c, 0, 55, 64
2, 6562, Note_on_c, 0, 82, 0
2, 6570, Note_on_c, 0, 55, 0
2, 6574, Note_on_c, 0, 81, 64
2, 6574, Note_on_c, 0, 57, 64
2, 6596, Note_on_c, 0, 74, 0
2, 6600, Note_on_c, 0, 57, 0
2, 6600, Note_on_c, 0, 81, 0
2, 6604, Note_on_c, 0, 79, 64
2, 6604, Note_on_c, 0, 58, 64
2, 6630, Note_on_c, 0, 58, 0
2, 6630, Note_on_c, 0, 79, 0
2, 6634, Note_on_c, 0, 78, 64
2, 6634, Note_on_c, 0, 57, 64
2, 6660, Note_on_c, 0, 57, 0
2, 6660, Note_on_c, 0, 78, 0
2, 6664, Note_on_c, 0, 79, 64
2, 6664, Note_on_c, 0, 58, 64
2, 6690, Note_on_c, 0, 79, 0
2, 6694, Note_on_c, 0, 78, 64
2, 6716, Note_on_c, 0, 58, 0
2, 6720, Note_on_c, 0, 78, 0
2, 6724, Note_on_c, 0, 79, 64
2, 6754, Note_on_c, 0, 52, 64
2, 6780, Note_on_c, 0, 52, 0
2, 6784, Note_on_c, 0, 54, 64
2, 6810, Note_on_c, 0, 54, 0
2, 6814, Note_on_c, 0, 74, 64
2, 6814, Note_on_c, 0, 55, 64
2, 6840, Note_on_c, 0, 55, 0
2, 6840, Note_on_c, 0, 74, 0
2, 6844, Note_on_c, 0, 72, 64
2, 6844, Note_on_c, 0, 57, 64
2, 6870, Note_on_c, 0, 57, 0
2, 6870, Note_on_c, 0, 72, 0
2, 6874, Note_on_c, 0, 70, 64
2, 6874, Note_on_c, 0, 55, 64
2, 6900, Note_on_c, 0, 55, 0
2, 6900, Note_on_c, 0, 70, 0
2, 6904, Note_on_c, 0, 72, 64
2, 6904, Note_on_c, 0, 57, 64
2, 6930, Note_on_c, 0, 72, 0
2, 6934, Note_on_c, 0, 70, 64
2, 6949, Note_on_c, 0, 79, 0
2, 6956, Note_on_c, 0, 57, 0
2, 6960, Note_on_c, 0, 70, 0
2, 6964, Note_on_c, 0, 78, 64
2, 6964, Note_on_c, 0, 72, 64
2, 6964, Note_on_c, 0, 62, 64
2, 6994, Note_on_c, 0, 50, 64
2, 7020, Note_on_c, 0, 50, 0
2, 7024, Note_on_c, 0, 52, 64
2, 7042, Note_on_c, 0, 78, 0
2, 7042, Note_on_c, 0, 72, 0
2, 7050, Note_on_c, 0, 52, 0
2, 7054, Note_on_c, 0, 81, 64
2, 7054, Note_on_c, 0, 72, 64
2, 7054, Note_on_c, 0, 54, 64
2, 7069, Note_on_c, 0, 62, 0
2, 7080, Note_on_c, 0, 81, 0
2, 7080, Note_on_c, 0, 72, 0
2, 7080, Note_on_c, 0, 54, 0
2, 7084, Note_on_c, 0, 74, 64
2, 7084, Note_on_c, 0, 70, 64
2, 7084, Note_on_c, 0, 55, 64
2, 7110, Note_on_c, 0, 55, 0
2, 7110, Note_on_c, 0, 70, 0
2, 7114, Note_on_c, 0, 69, 64
2, 7114, Note_on_c, 0, 54, 64
2, 7140, Note_on_c, 0, 54, 0
2, 7140, Note_on_c, 0, 69, 0
2, 7144, Note_on_c, 0, 70, 64
2, 7144, Note_on_c, 0, 58, 64
2, 7144, Note_on_c, 0, 55, 64
2, 7162, Note_on_c, 0, 74, 0
2, 7170, Note_on_c, 0, 70, 0
2, 7174, Note_on_c, 0, 72, 64
2, 7174, Note_on_c, 0, 69, 64
2, 7196, Note_on_c, 0, 58, 0
2, 7196, Note_on_c, 0, 55, 0
2, 7200, Note_on_c, 0, 72, 0
2, 7200, Note_on_c, 0, 69, 0
2, 7204, Note_on_c, 0, 70, 64
2, 7204, Note_on_c, 0, 67, 64
2, 7204, Note_on_c, 0, 63, 64
2, 7204, Note_on_c, 0, 55, 64
2, 7230, Note_on_c, 0, 67, 0
2, 7234, Note_on_c, 0, 65, 64
2, 7256, Note_on_c, 0, 55, 0
2, 7260, Note_on_c, 0, 65, 0
2, 7264, Note_on_c, 0, 67, 64
2, 7264, Note_on_c, 0, 48, 64
2, 7290, Note_on_c, 0, 67, 0
2, 7294, Note_on_c, 0, 65, 64
2, 7309, Note_on_c, 0, 63, 0
2, 7316, Note_on_c, 0, 48, 0
2, 7320, Note_on_c, 0, 65, 0
2, 7324, Note_on_c, 0, 65, 64
2, 7324, Note_on_c, 0, 60, 64
2, 7344, Note_on_c, 0, 63, 64
2, 7351, Note_on_c, 0, 65, 0
2, 7352, Note_on_c, 0, 65, 64
2, 7354, Note_on_c, 0, 48, 64
2, 7359, Note_on_c, 0, 63, 0
2, 7360, Note_on_c, 0, 63, 64
2, 7367, Note_on_c, 0, 65, 0
2, 7380, Note_on_c, 0, 48, 0
2, 7384, Note_on_c, 0, 50, 64
2, 7410, Note_on_c, 0, 50, 0
2, 7414, Note_on_c, 0, 62, 64
2, 7414, Note_on_c, 0, 51, 64
2, 7415, Note_on_c, 0, 63, 0
2, 7429, Note_on_c, 0, 70, 0
2, 7429, Note_on_c, 0, 60, 0
2, 7440, Note_on_c, 0, 62, 0
2, 7440, Note_on_c, 0, 51, 0
2, 7444, Note_on_c, 0, 69, 64
2, 7444, Note_on_c, 0, 60, 64
2, 7444, Note_on_c, 0, 53, 64
2, 7470, Note_on_c, 0, 53, 0
2, 7474, Note_on_c, 0, 51, 64
2, 7500, Note_on_c, 0, 51, 0
2, 7504, Note_on_c, 0, 57, 64
2, 7504, Note_on_c, 0, 53, 64
2, 7549, Note_on_c, 0, 60, 0
2, 7556, Note_on_c, 0, 53, 0
2, 7556, Note_on_c, 0, 57, 0
2, 7564, Note_on_c, 0, 65, 64
2, 7564, Note_on_c, 0, 62, 64
2, 7564, Note_on_c, 0, 53, 64
2, 7590, Note_on_c, 0, 69, 0
2, 7594, Note_on_c, 0, 69, 64
2, 7616, Note_on_c, 0, 53, 0
2, 7620, Note_on_c, 0, 69, 0
2, 7624, Note_on_c, 0, 70, 64
2, 7624, Note_on_c, 0, 46, 64
2, 7650, Note_on_c, 0, 70, 0
2, 7654, Note_on_c, 0, 69, 64
2, 7669, Note_on_c, 0, 65, 0
2, 7669, Note_on_c, 0, 62, 0
2, 7676, Note_on_c, 0, 46, 0
2, 7680, Note_on_c, 0, 69, 0
2, 7684, Note_on_c, 0, 67, 64
2, 7684, Note_on_c, 0, 62, 64
2, 7684, Note_on_c, 0, 58, 64
2, 7714, Note_on_c, 0, 46, 64
2, 7740, Note_on_c, 0, 46, 0
2, 7744, Note_on_c, 0, 48, 64
2, 7762, Note_on_c, 0, 67, 0
2, 7770, Note_on_c, 0, 48, 0
2, 7774, Note_on_c, 0, 66, 64
2, 7774, Note_on_c, 0, 50, 64
2, 7789, Note_on_c, 0, 58, 0
2, 7789, Note_on_c, 0, 62, 0
2, 7800, Note_on_c, 0, 66, 0
2, 7800, Note_on_c, 0, 50, 0
2, 7804, Note_on_c, 0, 67, 64
2, 7804, Note_on_c, 0, 51, 64
2, 7830, Note_on_c, 0, 51, 0
2, 7834, Note_on_c, 0, 50, 64
2, 7860, Note_on_c, 0, 50, 0
2, 7864, Note_on_c, 0, 55, 64
2, 7864, Note_on_c, 0, 51, 64
2, 7916, Note_on_c, 0, 55, 0
2, 7924, Note_on_c, 0, 60, 64
2, 7950, Note_on_c, 0, 51, 0
2, 7954, Note_on_c, 0, 50, 64
2, 7976, Note_on_c, 0, 60, 0
2, 7980, Note_on_c, 0, 50, 0
2, 7984, Note_on_c, 0, 60, 64
2, 7984, Note_on_c, 0, 51, 64
2, 8002, Note_on_c, 0, 67, 0
2, 8010, Note_on_c, 0, 51, 0
2, 8014, Note_on_c, 0, 70, 64
2, 8014, Note_on_c, 0, 50, 64
2, 8036, Note_on_c, 0, 60, 0
2, 8040, Note_on_c, 0, 50, 0
2, 8040, Note_on_c, 0, 70, 0
2, 8044, Note_on_c, 0, 69, 64
2, 8044, Note_on_c, 0, 60, 64
2, 8044, Note_on_c, 0, 48, 64
2, 8070, Note_on_c, 0, 48, 0
2, 8074, Note_on_c, 0, 46, 64
2, 8096, Note_on_c, 0, 60, 0
2, 8100, Note_on_c, 0, 46, 0
2, 8104, Note_on_c, 0, 60, 64
2, 8104, Note_on_c, 0, 48, 64
2, 8122, Note_on_c, 0, 69, 0
2, 8130, Note_on_c, 0, 48, 0
2, 8134, Note_on_c, 0, 72, 64
2, 8134, Note_on_c, 0, 46, 64
2, 8156, Note_on_c, 0, 60, 0
2, 8160, Note_on_c, 0, 46, 0
2, 8160, Note_on_c, 0, 72, 0
2, 8164, Note_on_c, 0, 66, 64
2, 8164, Note_on_c, 0, 60, 64
2, 8164, Note_on_c, 0, 45, 64
2, 8190, Note_on_c, 0, 45, 0
2, 8194, Note_on_c, 0, 43, 64
2, 8216, Note_on_c, 0, 60, 0
2, 8220, Note_on_c, 0, 43, 0
2, 8224, Note_on_c, 0, 60, 64
2, 8224, Note_on_c, 0, 45, 64
2, 8242, Note_on_c, 0, 66, 0
2, 8250, Note_on_c, 0, 45, 0
2, 8254, Note_on_c, 0, 69, 64
2, 8254, Note_on_c, 0, 43, 64
2, 8280, Note_on_c, 0, 43, 0
2, 8280, Note_on_c, 0, 69, 0
2, 8284, Note_on_c, 0, 62, 64
2, 8284, Note_on_c, 0, 42, 64
2, 8336, Note_on_c, 0, 42, 0
2, 8336, Note_on_c, 0, 60, 0
2, 8344, Note_on_c, 0, 58, 64
2, 8344, Note_on_c, 0, 50, 64
2, 8362, Note_on_c, 0, 62, 0
2, 8370, Note_on_c, 0, 58, 0
2, 8374, Note_on_c, 0, 66, 64
2, 8374, Note_on_c, 0, 57, 64
2, 8396, Note_on_c, 0, 50, 0
2, 8400, Note_on_c, 0, 57, 0
2, 8400, Note_on_c, 0, 66, 0
2, 8404, Note_on_c, 0, 67, 64
2, 8404, Note_on_c, 0, 58, 64
2, 8404, Note_on_c, 0, 43, 64
2, 8430, Note_on_c, 0, 58, 0
2, 8434, Note_on_c, 0, 55, 64
2, 8456, Note_on_c, 0, 43, 0
2, 8460, Note_on_c, 0, 55, 0
2, 8464, Note_on_c, 0, 57, 64
2, 8464, Note_on_c, 0, 53, 64
2, 8490, Note_on_c, 0, 57, 0
2, 8494, Note_on_c, 0, 58, 64
2, 8509, Note_on_c, 0, 67, 0
2, 8516, Note_on_c, 0, 53, 0
2, 8520, Note_on_c, 0, 58, 0
2, 8524, Note_on_c, 0, 60, 64
2, 8524, Note_on_c, 0, 52, 64
2, 8550, Note_on_c, 0, 60, 0
2, 8554, Note_on_c, 0, 58, 64
2, 8576, Note_on_c, 0, 52, 0
2, 8580, Note_on_c, 0, 58, 0
2, 8584, Note_on_c, 0, 60, 64
2, 8584, Note_on_c, 0, 48, 64
2, 8614, Note_on_c, 0, 70, 64
2, 8636, Note_on_c, 0, 48, 0
2, 8636, Note_on_c, 0, 60, 0
2, 8644, Note_on_c, 0, 60, 64
2, 8644, Note_on_c, 0, 53, 64
2, 8670, Note_on_c, 0, 70, 0
2, 8674, Note_on_c, 0, 70, 64
2, 8696, Note_on_c, 0, 53, 0
2, 8696, Note_on_c, 0, 60, 0
2, 8700, Note_on_c, 0, 70, 0
2, 8704, Note_on_c, 0, 69, 64
2, 8704, Note_on_c, 0, 65, 64
2, 8704, Note_on_c, 0, 57, 64
2, 8730, Note_on_c, 0, 65, 0
2, 8730, Note_on_c, 0, 69, 0
2, 8734, Note_on_c, 0, 67, 64
2, 8734, Note_on_c, 0, 64, 64
2, 8756, Note_on_c, 0, 57, 0
2, 8760, Note_on_c, 0, 64, 0
2, 8760, Note_on_c, 0, 67, 0
2, 8764, Note_on_c, 0, 69, 64
2, 8764, Note_on_c, 0, 65, 64
2, 8764, Note_on_c, 0, 50, 64
2, 8790, Note_on_c, 0, 69, 0
2, 8794, Note_on_c, 0, 69, 64
2, 8816, Note_on_c, 0, 50, 0
2, 8816, Note_on_c, 0, 65, 0
2, 8820, Note_on_c, 0, 69, 0
2, 8824, Note_on_c, 0, 71, 64
2, 8824, Note_on_c, 0, 60, 64
2, 8850, Note_on_c, 0, 71, 0
2, 8854, Note_on_c, 0, 72, 64
2, 8876, Note_on_c, 0, 60, 0
2, 8880, Note_on_c, 0, 72, 0
2, 8884, Note_on_c, 0, 74, 64
2, 8884, Note_on_c, 0, 59, 64
2, 8910, Note_on_c, 0, 74, 0
2, 8914, Note_on_c, 0, 72, 64
2, 8936, Note_on_c, 0, 59, 0
2, 8940, Note_on_c, 0, 72, 0
2, 8944, Note_on_c, 0, 74, 64
2, 8944, Note_on_c, 0, 55, 64
2, 8974, Note_on_c, 0, 65, 64
2, 8996, Note_on_c, 0, 55, 0
2, 8996, Note_on_c, 0, 74, 0
2, 9004, Note_on_c, 0, 74, 64
2, 9004, Note_on_c, 0, 60, 64
2, 9030, Note_on_c, 0, 65, 0
2, 9034, Note_on_c, 0, 65, 64
2, 9056, Note_on_c, 0, 60, 0
2, 9056, Note_on_c, 0, 74, 0
2, 9060, Note_on_c, 0, 65, 0
2, 9064, Note_on_c, 0, 72, 64
2, 9064, Note_on_c, 0, 63, 64
2, 9064, Note_on_c, 0, 55, 64
2, 9090, Note_on_c, 0, 63, 0
2, 9090, Note_on_c, 0, 72, 0
2, 9094, Note_on_c, 0, 71, 64
2, 9094, Note_on_c, 0, 62, 64
2, 9116, Note_on_c, 0, 55, 0
2, 9120, Note_on_c, 0, 62, 0
2, 9120, Note_on_c, 0, 71, 0
2, 9124, Note_on_c, 0, 72, 64
2, 9124, Note_on_c, 0, 63, 64
2, 9124, Note_on_c, 0, 48, 64
2, 9150, Note_on_c, 0, 63, 0
2, 9154, Note_on_c, 0, 60, 64
2, 9176, Note_on_c, 0, 48, 0
2, 9180, Note_on_c, 0, 60, 0
2, 9184, Note_on_c, 0, 66, 64
2, 9184, Note_on_c, 0, 57, 64
2, 9210, Note_on_c, 0, 66, 0
2, 9214, Note_on_c, 0, 67, 64
2, 9229, Note_on_c, 0, 72, 0
2, 9236, Note_on_c, 0, 57, 0
2, 9240, Note_on_c, 0, 67, 0
2, 9244, Note_on_c, 0, 69, 64
2, 9244, Note_on_c, 0, 54, 64
2, 9270, Note_on_c, 0, 69, 0
2, 9274, Note_on_c, 0, 67, 64
2, 9296, Note_on_c, 0, 54, 0
2, 9300, Note_on_c, 0, 67, 0
2, 9304, Note_on_c, 0, 69, 64
2, 9304, Note_on_c, 0, 50, 64
2, 9334, Note_on_c, 0, 72, 64
2, 9356, Note_on_c, 0, 50, 0
2, 9356, Note_on_c, 0, 69, 0
2, 9364, Note_on_c, 0, 69, 64
2, 9364, Note_on_c, 0, 55, 64
2, 9390, Note_on_c, 0, 72, 0
2, 9394, Note_on_c, 0, 72, 64
2, 9416, Note_on_c, 0, 55, 0
2, 9416, Note_on_c, 0, 69, 0
2, 9420, Note_on_c, 0, 72, 0
2, 9424, Note_on_c, 0, 70, 64
2, 9424, Note_on_c, 0, 67, 64
2, 9424, Note_on_c, 0, 58, 64
2, 9450, Note_on_c, 0, 67, 0
2, 9450, Note_on_c, 0, 70, 0
2, 9454, Note_on_c, 0, 69, 64
2, 9454, Note_on_c, 0, 66, 64
2, 9476, Note_on_c, 0, 58, 0
2, 9480, Note_on_c, 0, 66, 0
2, 9480, Note_on_c, 0, 69, 0
2, 9484, Note_on_c, 0, 70, 64
2, 9484, Note_on_c, 0, 67, 64
2, 9484, Note_on_c, 0, 52, 64
2, 9510, Note_on_c, 0, 70, 0
2, 9514, Note_on_c, 0, 74, 64
2, 9536, Note_on_c, 0, 52, 0
2, 9536, Note_on_c, 0, 67, 0
2, 9540, Note_on_c, 0, 74, 0
2, 9544, Note_on_c, 0, 76, 64
2, 9544, Note_on_c, 0, 62, 64
2, 9570, Note_on_c, 0, 76, 0
2, 9574, Note_on_c, 0, 77, 64
2, 9596, Note_on_c, 0, 62, 0
2, 9600, Note_on_c, 0, 77, 0
2, 9604, Note_on_c, 0, 79, 64
2, 9604, Note_on_c, 0, 61, 64
2, 9630, Note_on_c, 0, 79, 0
2, 9634, Note_on_c, 0, 77, 64
2, 9656, Note_on_c, 0, 61, 0
2, 9660, Note_on_c, 0, 77, 0
2, 9664, Note_on_c, 0, 79, 64
2, 9664, Note_on_c, 0, 57, 64
2, 9694, Note_on_c, 0, 61, 64
2, 9716, Note_on_c, 0, 57, 0
2, 9720, Note_on_c, 0, 61, 0
2, 9724, Note_on_c, 0, 62, 64
2, 9724, Note_on_c, 0, 62, 64
2, 9750, Note_on_c, 0, 62, 0
2, 9750, Note_on_c, 0, 62, 0
2, 9754, Note_on_c, 0, 61, 64
2, 9776, Note_on_c, 0, 79, 0
2, 9780, Note_on_c, 0, 61, 0
2, 9784, Note_on_c, 0, 77, 64
2, 9784, Note_on_c, 0, 62, 64
2, 9810, Note_on_c, 0, 62, 0
2, 9810, Note_on_c, 0, 77, 0
2, 9814, Note_on_c, 0, 76, 64
2, 9814, Note_on_c, 0, 57, 64
2, 9840, Note_on_c, 0, 57, 0
2, 9840, Note_on_c, 0, 76, 0
2, 9844, Note_on_c, 0, 77, 64
2, 9844, Note_on_c, 0, 69, 64
2, 9844, Note_on_c, 0, 50, 64
2, 9870, Note_on_c, 0, 77, 0
2, 9874, Note_on_c, 0, 74, 64
2, 9896, Note_on_c, 0, 50, 0
2, 9900, Note_on_c, 0, 74, 0
2, 9904, Note_on_c, 0, 77, 64
2, 9904, Note_on_c, 0, 62, 64
2, 9930, Note_on_c, 0, 62, 0
2, 9930, Note_on_c, 0, 77, 0
2, 9934, Note_on_c, 0, 79, 64
2, 9934, Note_on_c, 0, 64, 64
2, 9949, Note_on_c, 0, 69, 0
2, 9960, Note_on_c, 0, 64, 0
2, 9960, Note_on_c, 0, 79, 0
2, 9964, Note_on_c, 0, 81, 64
2, 9964, Note_on_c, 0, 65, 64
2, 9990, Note_on_c, 0, 81, 0
2, 9994, Note_on_c, 0, 79, 64
2, 10016, Note_on_c, 0, 65, 0
2, 10020, Note_on_c, 0, 79, 0
2, 10024, Note_on_c, 0, 81, 64
2, 10024, Note_on_c, 0, 65, 64
2, 10024, Note_on_c, 0, 62, 64
2, 10076, Note_on_c, 0, 62, 0
2, 10076, Note_on_c, 0, 65, 0
2, 10076, Note_on_c, 0, 81, 0
2, 10084, Note_on_c, 0, 81, 64
2, 10084, Note_on_c, 0, 70, 64
2, 10084, Note_on_c, 0, 67, 64
2, 10110, Note_on_c, 0, 67, 0
2, 10114, Note_on_c, 0, 55, 64
2, 10136, Note_on_c, 0, 81, 0
2, 10140, Note_on_c, 0, 55, 0
2, 10144, Note_on_c, 0, 74, 64
2, 10144, Note_on_c, 0, 57, 64
2, 10170, Note_on_c, 0, 57, 0
2, 10174, Note_on_c, 0, 58, 64
2, 10189, Note_on_c, 0, 70, 0
2, 10196, Note_on_c, 0, 74, 0
2, 10200, Note_on_c, 0, 58, 0
2, 10204, Note_on_c, 0, 67, 64
2, 10204, Note_on_c, 0, 60, 64
2, 10230, Note_on_c, 0, 60, 0
2, 10234, Note_on_c, 0, 74, 64
2, 10234, Note_on_c, 0, 55, 64
2, 10260, Note_on_c, 0, 55, 0
2, 10260, Note_on_c, 0, 74, 0
2, 10264, Note_on_c, 0, 76, 64
2, 10264, Note_on_c, 0, 60, 64
2, 10290, Note_on_c, 0, 60, 0
2, 10290, Note_on_c, 0, 76, 0
2, 10294, Note_on_c, 0, 77, 64
2, 10294, Note_on_c, 0, 62, 64
2, 10309, Note_on_c, 0, 67, 0
2, 10320, Note_on_c, 0, 62, 0
2, 10320, Note_on_c, 0, 77, 0
2, 10324, Note_on_c, 0, 79, 64
2, 10324, Note_on_c, 0, 64, 64
2, 10350, Note_on_c, 0, 79, 0
2, 10354, Note_on_c, 0, 77, 64
2, 10376, Note_on_c, 0, 64, 0
2, 10380, Note_on_c, 0, 77, 0
2, 10384, Note_on_c, 0, 79, 64
2, 10384, Note_on_c, 0, 64, 64
2, 10384, Note_on_c, 0, 60, 64
2, 10436, Note_on_c, 0, 60, 0
2, 10436, Note_on_c, 0, 64, 0
2, 10436, Note_on_c, 0, 79, 0
2, 10444, Note_on_c, 0, 79, 64
2, 10444, Note_on_c, 0, 69, 64
2, 10444, Note_on_c, 0, 65, 64
2, 10470, Note_on_c, 0, 65, 0
2, 10474, Note_on_c, 0, 53, 64
2, 10496, Note_on_c, 0, 79, 0
2, 10500, Note_on_c, 0, 53, 0
2, 10504, Note_on_c, 0, 72, 64
2, 10504, Note_on_c, 0, 55, 64
2, 10530, Note_on_c, 0, 55, 0
2, 10534, Note_on_c, 0, 57, 64
2, 10549, Note_on_c, 0, 69, 0
2, 10556, Note_on_c, 0, 72, 0
2, 10560, Note_on_c, 0, 57, 0
2, 10564, Note_on_c, 0, 65, 64
2, 10564, Note_on_c, 0, 58, 64
2, 10590, Note_on_c, 0, 58, 0
2, 10594, Note_on_c, 0, 72, 64
2, 10594, Note_on_c, 0, 53, 64
2, 10620, Note_on_c, 0, 53, 0
2, 10620, Note_on_c, 0, 72, 0
2, 10624, Note_on_c, 0, 74, 64
2, 10624, Note_on_c, 0, 58, 64
2, 10650, Note_on_c, 0, 58, 0
2, 10650, Note_on_c, 0, 74, 0
2, 10654, Note_on_c, 0, 76, 64
2, 10654, Note_on_c, 0, 60, 64
2, 10669, Note_on_c, 0, 65, 0
2, 10680, Note_on_c, 0, 60, 0
2, 10680, Note_on_c, 0, 76, 0
2, 10684, Note_on_c, 0, 77, 64
2, 10684, Note_on_c, 0, 62, 64
2, 10710, Note_on_c, 0, 62, 0
2, 10710, Note_on_c, 0, 77, 0
2, 10714, Note_on_c, 0, 76, 64
2, 10714, Note_on_c, 0, 60, 64
2, 10740, Note_on_c, 0, 60, 0
2, 10740, Note_on_c, 0, 76, 0
2, 10744, Note_on_c, 0, 77, 64
2, 10744, Note_on_c, 0, 62, 64
2, 10744, Note_on_c, 0, 58, 64
2, 10770, Note_on_c, 0, 58, 0
2, 10774, Note_on_c, 0, 57, 64
2, 10796, Note_on_c, 0, 62, 0
2, 10800, Note_on_c, 0, 57, 0
2, 10804, Note_on_c, 0, 67, 64
2, 10804, Note_on_c, 0, 58, 64
2, 10830, Note_on_c, 0, 58, 0
2, 10834, Note_on_c, 0, 62, 64
2, 10856, Note_on_c, 0, 67, 0
2, 10860, Note_on_c, 0, 62, 0
2, 10864, Note_on_c, 0, 67, 64
2, 10864, Note_on_c, 0, 61, 64
2, 10882, Note_on_c, 0, 77, 0
2, 10890, Note_on_c, 0, 61, 0
2, 10894, Note_on_c, 0, 77, 64
2, 10894, Note_on_c, 0, 62, 64
2, 10916, Note_on_c, 0, 67, 0
2, 10920, Note_on_c, 0, 62, 0
2, 10920, Note_on_c, 0, 77, 0
2, 10924, Note_on_c, 0, 76, 64
2, 10924, Note_on_c, 0, 67, 64
2, 10924, Note_on_c, 0, 55, 64
2, 10950, Note_on_c, 0, 55, 0
2, 10950, Note_on_c, 0, 76, 0
2, 10954, Note_on_c, 0, 74, 64
2, 10954, Note_on_c, 0, 58, 64
2, 10976, Note_on_c, 0, 67, 0
2, 10980, Note_on_c, 0, 58, 0
2, 10980, Note_on_c, 0, 74, 0
2, 10984, Note_on_c, 0, 76, 64
2, 10984, Note_on_c, 0, 67, 64
2, 10984, Note_on_c, 0, 57, 64
2, 11010, Note_on_c, 0, 57, 0
2, 11010, Note_on_c, 0, 76, 0
2, 11014, Note_on_c, 0, 74, 64
2, 11014, Note_on_c, 0, 58, 64
2, 11036, Note_on_c, 0, 67, 0
2, 11040, Note_on_c, 0, 58, 0
2, 11040, Note_on_c, 0, 74, 0
2, 11044, Note_on_c, 0, 73, 64
2, 11044, Note_on_c, 0, 67, 64
2, 11044, Note_on_c, 0, 52, 64
2, 11070, Note_on_c, 0, 52, 0
2, 11070, Note_on_c, 0, 73, 0
2, 11074, Note_on_c, 0, 74, 64
2, 11074, Note_on_c, 0, 64, 64
2, 11096, Note_on_c, 0, 67, 0
2, 11100, Note_on_c, 0, 64, 0
2, 11100, Note_on_c, 0, 74, 0
2, 11104, Note_on_c, 0, 76, 64
2, 11104, Note_on_c, 0, 67, 64
2, 11104, Note_on_c, 0, 61, 64
2, 11130, Note_on_c, 0, 61, 0
2, 11134, Note_on_c, 0, 57, 64
2, 11156, Note_on_c, 0, 67, 0
2, 11160, Note_on_c, 0, 57, 0
2, 11164, Note_on_c, 0, 67, 64
2, 11164, Note_on_c, 0, 62, 64
2, 11190, Note_on_c, 0, 62, 0
2, 11194, Note_on_c, 0, 50, 64
2, 11216, Note_on_c, 0, 67, 0
2, 11216, Note_on_c, 0, 76, 0
2, 11220, Note_on_c, 0, 50, 0
2, 11224, Note_on_c, 0, 74, 64
2, 11224, Note_on_c, 0, 65, 64
2, 11224, Note_on_c, 0, 53, 64
2, 11250, Note_on_c, 0, 53, 0
2, 11254, Note_on_c, 0, 57, 64
2, 11276, Note_on_c, 0, 65, 0
2, 11276, Note_on_c, 0, 74, 0
2, 11280, Note_on_c, 0, 57, 0
2, 11284, Note_on_c, 0, 77, 64
2, 11284, Note_on_c, 0, 62, 64
2, 11310, Note_on_c, 0, 62, 0
2, 11314, Note_on_c, 0, 69, 64
2, 11314, Note_on_c, 0, 60, 64
2, 11340, Note_on_c, 0, 60, 0
2, 11340, Note_on_c, 0, 69, 0
2, 11344, Note_on_c, 0, 70, 64
2, 11344, Note_on_c, 0, 62, 64
2, 11370, Note_on_c, 0, 62, 0
2, 11370, Note_on_c, 0, 70, 0
2, 11374, Note_on_c, 0, 72, 64
2, 11374, Note_on_c, 0, 60, 64
2, 11389, Note_on_c, 0, 77, 0
2, 11400, Note_on_c, 0, 60, 0
2, 11400, Note_on_c, 0, 72, 0
2, 11404, Note_on_c, 0, 74, 64
2, 11404, Note_on_c, 0, 58, 64
2, 11430, Note_on_c, 0, 58, 0
2, 11430, Note_on_c, 0, 74, 0
2, 11434, Note_on_c, 0, 72, 64
2, 11434, Note_on_c, 0, 62, 64
2, 11460, Note_on_c, 0, 62, 0
2, 11460, Note_on_c, 0, 72, 0
2, 11464, Note_on_c, 0, 74, 64
2, 11464, Note_on_c, 0, 74, 64
2, 11464, Note_on_c, 0, 55, 64
2, 11490, Note_on_c, 0, 55, 0
2, 11494, Note_on_c, 0, 58, 64
2, 11516, Note_on_c, 0, 74, 0
2, 11516, Note_on_c, 0, 74, 0
2, 11520, Note_on_c, 0, 58, 0
2, 11524, Note_on_c, 0, 79, 64
2, 11524, Note_on_c, 0, 74, 64
2, 11524, Note_on_c, 0, 51, 64
2, 11550, Note_on_c, 0, 51, 0
2, 11554, Note_on_c, 0, 55, 64
2, 11576, Note_on_c, 0, 74, 0
2, 11580, Note_on_c, 0, 55, 0
2, 11584, Note_on_c, 0, 67, 64
2, 11584, Note_on_c, 0, 57, 64
2, 11610, Note_on_c, 0, 57, 0
2, 11614, Note_on_c, 0, 58, 64
2, 11629, Note_on_c, 0, 79, 0
2, 11636, Note_on_c, 0, 67, 0
2, 11640, Note_on_c, 0, 58, 0
2, 11644, Note_on_c, 0, 75, 64
2, 11644, Note_on_c, 0, 60, 64
2, 11670, Note_on_c, 0, 60, 0
2, 11674, Note_on_c, 0, 67, 64
2, 11674, Note_on_c, 0, 58, 64
2, 11700, Note_on_c, 0, 58, 0
2, 11700, Note_on_c, 0, 67, 0
2, 11704, Note_on_c, 0, 69, 64
2, 11704, Note_on_c, 0, 60, 64
2, 11730, Note_on_c, 0, 60, 0
2, 11730, Note_on_c, 0, 69, 0
2, 11734, Note_on_c, 0, 70, 64
2, 11734, Note_on_c, 0, 58, 64
2, 11749, Note_on_c, 0, 75, 0
2, 11760, Note_on_c, 0, 58, 0
2, 11760, Note_on_c, 0, 70, 0
2, 11764, Note_on_c, 0, 72, 64
2, 11764, Note_on_c, 0, 57, 64
2, 11790, Note_on_c, 0, 57, 0
2, 11790, Note_on_c, 0, 72, 0
2, 11794, Note_on_c, 0, 70, 64
2, 11794, Note_on_c, 0, 60, 64
2, 11820, Note_on_c, 0, 60, 0
2, 11820, Note_on_c, 0, 70, 0
2, 11824, Note_on_c, 0, 72, 64
2, 11824, Note_on_c, 0, 72, 64
2, 11824, Note_on_c, 0, 53, 64
2, 11850, Note_on_c, 0, 53, 0
2, 11854, Note_on_c, 0, 57, 64
2, 11876, Note_on_c, 0, 72, 0
2, 11876, Note_on_c, 0, 72, 0
2, 11880, Note_on_c, 0, 57, 0
2, 11884, Note_on_c, 0, 77, 64
2, 11884, Note_on_c, 0, 72, 64
2, 11884, Note_on_c, 0, 50, 64
2, 11910, Note_on_c, 0, 50, 0
2, 11914, Note_on_c, 0, 53, 64
2, 11936, Note_on_c, 0, 72, 0
2, 11940, Note_on_c, 0, 53, 0
2, 11944, Note_on_c, 0, 65, 64
2, 11944, Note_on_c, 0, 55, 64
2, 11970, Note_on_c, 0, 55, 0
2, 11974, Note_on_c, 0, 57, 64
2, 11989, Note_on_c, 0, 77, 0
2, 11996, Note_on_c, 0, 65, 0
2, 12000, Note_on_c, 0, 57, 0
2, 12004, Note_on_c, 0, 74, 64
2, 12004, Note_on_c, 0, 58, 64
2, 12030, Note_on_c, 0, 58, 0
2, 12034, Note_on_c, 0, 65, 64
2, 12034, Note_on_c, 0, 57, 64
2, 12060, Note_on_c, 0, 57, 0
2, 12060, Note_on_c, 0, 65, 0
2, 12064, Note_on_c, 0, 67, 64
2, 12064, Note_on_c, 0, 58, 64
2, 12090, Note_on_c, 0, 58, 0
2, 12090, Note_on_c, 0, 67, 0
2, 12094, Note_on_c, 0, 69, 64
2, 12094, Note_on_c, 0, 57, 64
2, 12109, Note_on_c, 0, 74, 0
2, 12120, Note_on_c, 0, 57, 0
2, 12120, Note_on_c, 0, 69, 0
2, 12124, Note_on_c, 0, 70, 64
2, 12124, Note_on_c, 0, 55, 64
2, 12150, Note_on_c, 0, 55, 0
2, 12150, Note_on_c, 0, 70, 0
2, 12154, Note_on_c, 0, 69, 64
2, 12154, Note_on_c, 0, 58, 64
2, 12180, Note_on_c, 0, 58, 0
2, 12180, Note_on_c, 0, 69, 0
2, 12184, Note_on_c, 0, 70, 64
2, 12184, Note_on_c, 0, 70, 64
2, 12184, Note_on_c, 0, 51, 64
2, 12210, Note_on_c, 0, 51, 0
2, 12214, Note_on_c, 0, 55, 64
2, 12236, Note_on_c, 0, 70, 0
2, 12240, Note_on_c, 0, 55, 0
2, 12244, Note_on_c, 0, 75, 64
2, 12244, Note_on_c, 0, 48, 64
2, 12270, Note_on_c, 0, 48, 0
2, 12274, Note_on_c, 0, 55, 64
2, 12296, Note_on_c, 0, 75, 0
2, 12300, Note_on_c, 0, 55, 0
2, 12304, Note_on_c, 0, 75, 64
2, 12304, Note_on_c, 0, 57, 64
2, 12322, Note_on_c, 0, 70, 0
2, 12330, Note_on_c, 0, 57, 0
2, 12334, Note_on_c, 0, 70, 64
2, 12334, Note_on_c, 0, 58, 64
2, 12356, Note_on_c, 0, 75, 0
2, 12360, Note_on_c, 0, 58, 0
2, 12360, Note_on_c, 0, 70, 0
2, 12364, Note_on_c, 0, 75, 64
2, 12364, Note_on_c, 0, 69, 64
2, 12364, Note_on_c, 0, 60, 64
2, 12390, Note_on_c, 0, 60, 0
2, 12390, Note_on_c, 0, 69, 0
2, 12394, Note_on_c, 0, 67, 64
2, 12394, Note_on_c, 0, 62, 64
2, 12416, Note_on_c, 0, 75, 0
2, 12420, Note_on_c, 0, 62, 0
2, 12420, Note_on_c, 0, 67, 0
2, 12424, Note_on_c, 0, 75, 64
2, 12424, Note_on_c, 0, 69, 64
2, 12424, Note_on_c, 0, 60, 64
2, 12450, Note_on_c, 0, 60, 0
2, 12450, Note_on_c, 0, 69, 0
2, 12454, Note_on_c, 0, 67, 64
2, 12454, Note_on_c, 0, 58, 64
2, 12476, Note_on_c, 0, 75, 0
2, 12480, Note_on_c, 0, 58, 0
2, 12480, Note_on_c, 0, 67, 0
2, 12484, Note_on_c, 0, 75, 64
2, 12484, Note_on_c, 0, 65, 64
2, 12484, Note_on_c, 0, 57, 64
2, 12510, Note_on_c, 0, 57, 0
2, 12514, Note_on_c, 0, 53, 64
2, 12536, Note_on_c, 0, 75, 0
2, 12540, Note_on_c, 0, 53, 0
2, 12544, Note_on_c, 0, 75, 64
2, 12544, Note_on_c, 0, 55, 64
2, 12570, Note_on_c, 0, 55, 0
2, 12574, Note_on_c, 0, 57, 64
2, 12596, Note_on_c, 0, 75, 0
2, 12600, Note_on_c, 0, 57, 0
2, 12604, Note_on_c, 0, 75, 64
2, 12604, Note_on_c, 0, 58, 64
2, 12630, Note_on_c, 0, 58, 0
2, 12634, Note_on_c, 0, 57, 64
2, 12656, Note_on_c, 0, 75, 0
2, 12660, Note_on_c, 0, 57, 0
2, 12664, Note_on_c, 0, 74, 64
2, 12664, Note_on_c, 0, 58, 64
2, 12690, Note_on_c, 0, 58, 0
2, 12690, Note_on_c, 0, 74, 0
2, 12694, Note_on_c, 0, 75, 64
2, 12694, Note_on_c, 0, 60, 64
2, 12709, Note_on_c, 0, 65, 0
2, 12720, Note_on_c, 0, 60, 0
2, 12720, Note_on_c, 0, 75, 0
2, 12724, Note_on_c, 0, 77, 64
2, 12724, Note_on_c, 0, 62, 64
2, 12724, Note_on_c, 0, 58, 64
2, 12750, Note_on_c, 0, 62, 0
2, 12750, Note_on_c, 0, 77, 0
2, 12754, Note_on_c, 0, 70, 64
2, 12754, Note_on_c, 0, 60, 64
2, 12780, Note_on_c, 0, 60, 0
2, 12780, Note_on_c, 0, 70, 0
2, 12784, Note_on_c, 0, 77, 64
2, 12784, Note_on_c, 0, 62, 64
2, 12810, Note_on_c, 0, 62, 0
2, 12810, Note_on_c, 0, 77, 0
2, 12814, Note_on_c, 0, 79, 64
2, 12814, Note_on_c, 0, 64, 64
2, 12829, Note_on_c, 0, 58, 0
2, 12840, Note_on_c, 0, 64, 0
2, 12840, Note_on_c, 0, 79, 0
2, 12844, Note_on_c, 0, 81, 64
2, 12844, Note_on_c, 0, 65, 64
2, 12870, Note_on_c, 0, 65, 0
2, 12870, Note_on_c, 0, 81, 0
2, 12874, Note_on_c, 0, 79, 64
2, 12874, Note_on_c, 0, 64, 64
2, 12900, Note_on_c, 0, 64, 0
2, 12900, Note_on_c, 0, 79, 0
2, 12904, Note_on_c, 0, 81, 64
2, 12904, Note_on_c, 0, 65, 64
2, 12904, Note_on_c, 0, 57, 64
2, 12934, Note_on_c, 0, 72, 64
2, 12956, Note_on_c, 0, 57, 0
2, 12956, Note_on_c, 0, 81, 0
2, 12960, Note_on_c, 0, 72, 0
2, 12964, Note_on_c, 0, 81, 64
2, 12964, Note_on_c, 0, 70, 64
2, 12964, Note_on_c, 0, 62, 64
2, 12990, Note_on_c, 0, 70, 0
2, 12994, Note_on_c, 0, 72, 64
2, 13016, Note_on_c, 0, 81, 0
2, 13020, Note_on_c, 0, 72, 0
2, 13024, Note_on_c, 0, 74, 64
2, 13024, Note_on_c, 0, 70, 64
2, 13050, Note_on_c, 0, 70, 0
2, 13054, Note_on_c, 0, 69, 64
2, 13069, Note_on_c, 0, 62, 0
2, 13069, Note_on_c, 0, 65, 0
2, 13076, Note_on_c, 0, 74, 0
2, 13080, Note_on_c, 0, 69, 0
2, 13084, Note_on_c, 0, 67, 64
2, 13084, Note_on_c, 0, 62, 64
2, 13084, Note_on_c, 0, 58, 64
2, 13114, Note_on_c, 0, 74, 64
2, 13140, Note_on_c, 0, 74, 0
2, 13144, Note_on_c, 0, 76, 64
2, 13170, Note_on_c, 0, 76, 0
2, 13174, Note_on_c, 0, 77, 64
2, 13189, Note_on_c, 0, 58, 0
2, 13189, Note_on_c, 0, 67, 0
2, 13189, Note_on_c, 0, 62, 0
2, 13200, Note_on_c, 0, 77, 0
2, 13204, Note_on_c, 0, 79, 64
2, 13204, Note_on_c, 0, 64, 64
2, 13230, Note_on_c, 0, 79, 0
2, 13234, Note_on_c, 0, 77, 64
2, 13260, Note_on_c, 0, 77, 0
2, 13264, Note_on_c, 0, 79, 64
2, 13264, Note_on_c, 0, 55, 64
2, 13294, Note_on_c, 0, 70, 64
2, 13316, Note_on_c, 0, 55, 0
2, 13316, Note_on_c, 0, 79, 0
2, 13320, Note_on_c, 0, 70, 0
2, 13324, Note_on_c, 0, 79, 64
2, 13324, Note_on_c, 0, 69, 64
2, 13324, Note_on_c, 0, 60, 64
2, 13350, Note_on_c, 0, 69, 0
2, 13354, Note_on_c, 0, 70, 64
2, 13376, Note_on_c, 0, 79, 0
2, 13380, Note_on_c, 0, 70, 0
2, 13384, Note_on_c, 0, 72, 64
2, 13384, Note_on_c, 0, 69, 64
2, 13410, Note_on_c, 0, 69, 0
2, 13414, Note_on_c, 0, 67, 64
2, 13429, Note_on_c, 0, 60, 0
2, 13429, Note_on_c, 0, 64, 0
2, 13436, Note_on_c, 0, 72, 0
2, 13440, Note_on_c, 0, 67, 0
2, 13444, Note_on_c, 0, 65, 64
2, 13444, Note_on_c, 0, 60, 64
2, 13444, Note_on_c, 0, 57, 64
2, 13474, Note_on_c, 0, 72, 64
2, 13500, Note_on_c, 0, 72, 0
2, 13504, Note_on_c, 0, 74, 64
2, 13530, Note_on_c, 0, 74, 0
2, 13534, Note_on_c, 0, 76, 64
2, 13549, Note_on_c, 0, 57, 0
2, 13549, Note_on_c, 0, 65, 0
2, 13549, Note_on_c, 0, 60, 0
2, 13560, Note_on_c, 0, 76, 0
2, 13564, Note_on_c, 0, 77, 64
2, 13564, Note_on_c, 0, 62, 64
2, 13590, Note_on_c, 0, 77, 0
2, 13594, Note_on_c, 0, 76, 64
2, 13620, Note_on_c, 0, 76, 0
2, 13624, Note_on_c, 0, 77, 64
2, 13624, Note_on_c, 0, 53, 64
2, 13654, Note_on_c, 0, 69, 64
2, 13676, Note_on_c, 0, 53, 0
2, 13680, Note_on_c, 0, 69, 0
2, 13684, Note_on_c, 0, 67, 64
2, 13684, Note_on_c, 0, 58, 64
2, 13710, Note_on_c, 0, 77, 0
2, 13714, Note_on_c, 0, 74, 64
2, 13736, Note_on_c, 0, 58, 0
2, 13740, Note_on_c, 0, 74, 0
2, 13744, Note_on_c, 0, 76, 64
2, 13744, Note_on_c, 0, 58, 64
2, 13770, Note_on_c, 0, 76, 0
2, 13774, Note_on_c, 0, 77, 64
2, 13796, Note_on_c, 0, 58, 0
2, 13800, Note_on_c, 0, 77, 0
2, 13804, Note_on_c, 0, 79, 64
2, 13804, Note_on_c, 0, 58, 64
2, 13830, Note_on_c, 0, 79, 0
2, 13834, Note_on_c, 0, 81, 64
2, 13856, Note_on_c, 0, 58, 0
2, 13860, Note_on_c, 0, 81, 0
2, 13864, Note_on_c, 0, 82, 64
2, 13864, Note_on_c, 0, 58, 64
2, 13890, Note_on_c, 0, 82, 0
2, 13894, Note_on_c, 0, 79, 64
2, 13909, Note_on_c, 0, 62, 0
2, 13916, Note_on_c, 0, 58, 0
2, 13920, Note_on_c, 0, 79, 0
2, 13924, Note_on_c, 0, 77, 64
2, 13924, Note_on_c, 0, 60, 64
2, 13924, Note_on_c, 0, 58, 64
2, 13950, Note_on_c, 0, 77, 0
2, 13954, Note_on_c, 0, 76, 64
2, 13976, Note_on_c, 0, 58, 0
2, 13980, Note_on_c, 0, 76, 0
2, 13984, Note_on_c, 0, 74, 64
2, 13984, Note_on_c, 0, 58, 64
2, 14010, Note_on_c, 0, 74, 0
2, 14014, Note_on_c, 0, 72, 64
2, 14029, Note_on_c, 0, 67, 0
2, 14036, Note_on_c, 0, 58, 0
2, 14040, Note_on_c, 0, 72, 0
2, 14044, Note_on_c, 0, 77, 64
2, 14044, Note_on_c, 0, 65, 64
2, 14044, Note_on_c, 0, 58, 64
2, 14096, Note_on_c, 0, 58, 0
2, 14096, Note_on_c, 0, 77, 0
2, 14104, Note_on_c, 0, 72, 64
2, 14104, Note_on_c, 0, 57, 64
2, 14130, Note_on_c, 0, 57, 0
2, 14134, Note_on_c, 0, 55, 64
2, 14149, Note_on_c, 0, 60, 0
2, 14149, Note_on_c, 0, 65, 0
2, 14156, Note_on_c, 0, 72, 0
2, 14160, Note_on_c, 0, 55, 0
2, 14164, Note_on_c, 0, 77, 64
2, 14164, Note_on_c, 0, 57, 64
2, 14190, Note_on_c, 0, 57, 0
2, 14194, Note_on_c, 0, 53, 64
2, 14216, Note_on_c, 0, 77, 0
2, 14220, Note_on_c, 0, 53, 0
2, 14224, Note_on_c, 0, 75, 64
2, 14224, Note_on_c, 0, 57, 64
2, 14250, Note_on_c, 0, 57, 0
2, 14250, Note_on_c, 0, 75, 0
2, 14254, Note_on_c, 0, 74, 64
2, 14254, Note_on_c, 0, 59, 64
2, 14280, Note_on_c, 0, 59, 0
2, 14280, Note_on_c, 0, 74, 0
2, 14284, Note_on_c, 0, 75, 64
2, 14284, Note_on_c, 0, 60, 64
2, 14310, Note_on_c, 0, 60, 0
2, 14314, Note_on_c, 0, 67, 64
2, 14314, Note_on_c, 0, 59, 64
2, 14336, Note_on_c, 0, 75, 0
2, 14340, Note_on_c, 0, 59, 0
2, 14340, Note_on_c, 0, 67, 0
2, 14344, Note_on_c, 0, 72, 64
2, 14344, Note_on_c, 0, 68, 64
2, 14344, Note_on_c, 0, 60, 64
2, 14370, Note_on_c, 0, 68, 0
2, 14374, Note_on_c, 0, 67, 64
2, 14396, Note_on_c, 0, 72, 0
2, 14400, Note_on_c, 0, 67, 0
2, 14404, Note_on_c, 0, 74, 64
2, 14404, Note_on_c, 0, 65, 64
2, 14430, Note_on_c, 0, 60, 0
2, 14434, Note_on_c, 0, 60, 64
2, 14456, Note_on_c, 0, 65, 0
2, 14456, Note_on_c, 0, 74, 0
2, 14460, Note_on_c, 0, 60, 0
2, 14464, Note_on_c, 0, 67, 64
2, 14464, Note_on_c, 0, 62, 64
2, 14464, Note_on_c, 0, 59, 64
2, 14490, Note_on_c, 0, 59, 0
2, 14494, Note_on_c, 0, 57, 64
2, 14516, Note_on_c, 0, 62, 0
2, 14516, Note_on_c, 0, 67, 0
2, 14520, Note_on_c, 0, 57, 0
2, 14524, Note_on_c, 0, 79, 64
2, 14524, Note_on_c, 0, 59, 64
2, 14550, Note_on_c, 0, 59, 0
2, 14554, Note_on_c, 0, 55, 64
2, 14576, Note_on_c, 0, 79, 0
2, 14580, Note_on_c, 0, 55, 0
2, 14584, Note_on_c, 0, 77, 64
2, 14584, Note_on_c, 0, 59, 64
2, 14610, Note_on_c, 0, 59, 0
2, 14610, Note_on_c, 0, 77, 0
2, 14614, Note_on_c, 0, 75, 64
2, 14614, Note_on_c, 0, 60, 64
2, 14640, Note_on_c, 0, 60, 0
2, 14640, Note_on_c, 0, 75, 0
2, 14644, Note_on_c, 0, 77, 64
2, 14644, Note_on_c, 0, 62, 64
2, 14670, Note_on_c, 0, 62, 0
2, 14674, Note_on_c, 0, 69, 64
2, 14674, Note_on_c, 0, 60, 64
2, 14696, Note_on_c, 0, 77, 0
2, 14700, Note_on_c, 0, 60, 0
2, 14700, Note_on_c, 0, 69, 0
2, 14704, Note_on_c, 0, 74, 64
2, 14704, Note_on_c, 0, 71, 64
2, 14704, Note_on_c, 0, 62, 64
2, 14730, Note_on_c, 0, 71, 0
2, 14734, Note_on_c, 0, 69, 64
2, 14756, Note_on_c, 0, 74, 0
2, 14760, Note_on_c, 0, 69, 0
2, 14764, Note_on_c, 0, 75, 64
2, 14764, Note_on_c, 0, 67, 64
2, 14790, Note_on_c, 0, 62, 0
2, 14794, Note_on_c, 0, 55, 64
2, 14816, Note_on_c, 0, 67, 0
2, 14816, Note_on_c, 0, 75, 0
2, 14820, Note_on_c, 0, 55, 0
2, 14824, Note_on_c, 0, 72, 64
2, 14824, Note_on_c, 0, 63, 64
2, 14824, Note_on_c, 0, 60, 64
2, 14850, Note_on_c, 0, 60, 0
2, 14854, Note_on_c, 0, 59, 64
2, 14876, Note_on_c, 0, 63, 0
2, 14876, Note_on_c, 0, 72, 0
2, 14880, Note_on_c, 0, 59, 0
2, 14884, Note_on_c, 0, 80, 64
2, 14884, Note_on_c, 0, 60, 64
2, 14910, Note_on_c, 0, 60, 0
2, 14914, Note_on_c, 0, 55, 64
2, 14936, Note_on_c, 0, 80, 0
2, 14940, Note_on_c, 0, 55, 0
2, 14944, Note_on_c, 0, 79, 64
2, 14944, Note_on_c, 0, 60, 64
2, 14970, Note_on_c, 0, 60, 0
2, 14970, Note_on_c, 0, 79, 0
2, 14974, Note_on_c, 0, 77, 64
2, 14974, Note_on_c, 0, 62, 64
2, 15000, Note_on_c, 0, 62, 0
2, 15000, Note_on_c, 0, 77, 0
2, 15004, Note_on_c, 0, 79, 64
2, 15004, Note_on_c, 0, 63, 64
2, 15030, Note_on_c, 0, 63, 0
2, 15034, Note_on_c, 0, 71, 64
2, 15034, Note_on_c, 0, 62, 64
2, 15056, Note_on_c, 0, 79, 0
2, 15060, Note_on_c, 0, 62, 0
2, 15060, Note_on_c, 0, 71, 0
2, 15064, Note_on_c, 0, 75, 64
2, 15064, Note_on_c, 0, 72, 64
2, 15064, Note_on_c, 0, 63, 64
2, 15090, Note_on_c, 0, 72, 0
2, 15094, Note_on_c, 0, 70, 64
2, 15116, Note_on_c, 0, 75, 0
2, 15120, Note_on_c, 0, 70, 0
2, 15124, Note_on_c, 0, 77, 64
2, 15124, Note_on_c, 0, 68, 64
2, 15150, Note_on_c, 0, 68, 0
2, 15154, Note_on_c, 0, 67, 64
2, 15180, Note_on_c, 0, 67, 0
2, 15184, Note_on_c, 0, 68, 64
2, 15202, Note_on_c, 0, 63, 0
2, 15214, Note_on_c, 0, 63, 64
2, 15240, Note_on_c, 0, 63, 0
2, 15244, Note_on_c, 0, 62, 64
2, 15270, Note_on_c, 0, 68, 0
2, 15274, Note_on_c, 0, 67, 64
2, 15300, Note_on_c, 0, 67, 0
2, 15304, Note_on_c, 0, 68, 64
2, 15322, Note_on_c, 0, 62, 0
2, 15334, Note_on_c, 0, 60, 64
2, 15360, Note_on_c, 0, 60, 0
2, 15364, Note_on_c, 0, 59, 64
2, 15390, Note_on_c, 0, 77, 0
2, 15394, Note_on_c, 0, 75, 64
2, 15420, Note_on_c, 0, 75, 0
2, 15424, Note_on_c, 0, 74, 64
2, 15442, Note_on_c, 0, 59, 0
2, 15450, Note_on_c, 0, 74, 0
2, 15454, Note_on_c, 0, 72, 64
2, 15454, Note_on_c, 0, 62, 64
2, 15480, Note_on_c, 0, 62, 0
2, 15480, Note_on_c, 0, 72, 0
2, 15484, Note_on_c, 0, 71, 64
2, 15484, Note_on_c, 0, 55, 64
2, 15510, Note_on_c, 0, 68, 0
2, 15514, Note_on_c, 0, 68, 64
2, 15536, Note_on_c, 0, 55, 0
2, 15536, Note_on_c, 0, 71, 0
2, 15540, Note_on_c, 0, 68, 0
2, 15544, Note_on_c, 0, 74, 64
2, 15544, Note_on_c, 0, 67, 64
2, 15544, Note_on_c, 0, 59, 64
2, 15570, Note_on_c, 0, 67, 0
2, 15574, Note_on_c, 0, 65, 64
2, 15596, Note_on_c, 0, 59, 0
2, 15600, Note_on_c, 0, 65, 0
2, 15604, Note_on_c, 0, 63, 64
2, 15604, Note_on_c, 0, 60, 64
2, 15630, Note_on_c, 0, 74, 0
2, 15634, Note_on_c, 0, 67, 64
2, 15656, Note_on_c, 0, 60, 0
2, 15660, Note_on_c, 0, 67, 0
2, 15664, Note_on_c, 0, 72, 64
2, 15664, Note_on_c, 0, 56, 64
2, 15682, Note_on_c, 0, 63, 0
2, 15694, Note_on_c, 0, 63, 64
2, 15716, Note_on_c, 0, 56, 0
2, 15720, Note_on_c, 0, 63, 0
2, 15724, Note_on_c, 0, 62, 64
2, 15724, Note_on_c, 0, 53, 64
2, 15750, Note_on_c, 0, 72, 0
2, 15754, Note_on_c, 0, 72, 64
2, 15776, Note_on_c, 0, 53, 0
2, 15780, Note_on_c, 0, 72, 0
2, 15784, Note_on_c, 0, 71, 64
2, 15784, Note_on_c, 0, 55, 64
2, 15802, Note_on_c, 0, 62, 0
2, 15814, Note_on_c, 0, 65, 64
2, 15836, Note_on_c, 0, 55, 0
2, 15836, Note_on_c, 0, 71, 0
2, 15844, Note_on_c, 0, 48, 64
2, 15844, Note_on_c, 0, 72, 64
2, 15870, Note_on_c, 0, 65, 0
2, 15874, Note_on_c, 0, 65, 64
2, 15895, Note_on_c, 0, 48, 0
2, 15900, Note_on_c, 0, 65, 0
2, 15904, Note_on_c, 0, 63, 64
2, 15908, Note_on_c, 0, 36, 64
2, 15930, Note_on_c, 0, 63, 0
2, 15934, Note_on_c, 0, 62, 64
2, 15949, Note_on_c, 0, 72, 0
2, 15959, Note_on_c, 0, 36, 0
2, 15960, Note_on_c, 0, 62, 0
2, 15964, Note_on_c, 0, 63, 64
2, 15964, Note_on_c, 0, 60, 64
2, 15994, Note_on_c, 0, 70, 64
2, 15994, Note_on_c, 0, 48, 64
2, 16020, Note_on_c, 0, 48, 0
2, 16020, Note_on_c, 0, 70, 0
2, 16024, Note_on_c, 0, 69, 64
2, 16024, Note_on_c, 0, 50, 64
2, 16050, Note_on_c, 0, 50, 0
2, 16050, Note_on_c, 0, 69, 0
2, 16054, Note_on_c, 0, 67, 64
2, 16054, Note_on_c, 0, 51, 64
2, 16069, Note_on_c, 0, 60, 0
2, 16069, Note_on_c, 0, 63, 0
2, 16080, Note_on_c, 0, 67, 0
2, 16080, Note_on_c, 0, 51, 0
2, 16084, Note_on_c, 0, 69, 64
2, 16084, Note_on_c, 0, 53, 64
2, 16110, Note_on_c, 0, 53, 0
2, 16114, Note_on_c, 0, 51, 64
2, 16140, Note_on_c, 0, 51, 0
2, 16144, Note_on_c, 0, 60, 64
2, 16144, Note_on_c, 0, 57, 64
2, 16144, Note_on_c, 0, 53, 64
2, 16196, Note_on_c, 0, 53, 0
2, 16196, Note_on_c, 0, 57, 0
2, 16196, Note_on_c, 0, 60, 0
2, 16204, Note_on_c, 0, 65, 64
2, 16204, Note_on_c, 0, 62, 64
2, 16204, Note_on_c, 0, 53, 64
2, 16230, Note_on_c, 0, 69, 0
2, 16234, Note_on_c, 0, 67, 64
2, 16256, Note_on_c, 0, 53, 0
2, 16260, Note_on_c, 0, 67, 0
2, 16264, Note_on_c, 0, 69, 64
2, 16264, Note_on_c, 0, 46, 64
2, 16290, Note_on_c, 0, 69, 0
2, 16294, Note_on_c, 0, 70, 64
2, 16309, Note_on_c, 0, 65, 0
2, 16309, Note_on_c, 0, 62, 0
2, 16316, Note_on_c, 0, 46, 0
2, 16320, Note_on_c, 0, 70, 0
2, 16324, Note_on_c, 0, 67, 64
2, 16324, Note_on_c, 0, 62, 64
2, 16324, Note_on_c, 0, 58, 64
2, 16354, Note_on_c, 0, 46, 64
2, 16380, Note_on_c, 0, 46, 0
2, 16384, Note_on_c, 0, 48, 64
2, 16410, Note_on_c, 0, 48, 0
2, 16414, Note_on_c, 0, 50, 64
2, 16429, Note_on_c, 0, 58, 0
2, 16429, Note_on_c, 0, 62, 0
2, 16440, Note_on_c, 0, 50, 0
2, 16444, Note_on_c, 0, 51, 64
2, 16470, Note_on_c, 0, 51, 0
2, 16474, Note_on_c, 0, 50, 64
2, 16500, Note_on_c, 0, 50, 0
2, 16504, Note_on_c, 0, 58, 64
2, 16504, Note_on_c, 0, 55, 64
2, 16504, Note_on_c, 0, 51, 64
2, 16556, Note_on_c, 0, 51, 0
2, 16556, Note_on_c, 0, 55, 0
2, 16556, Note_on_c, 0, 58, 0
2, 16564, Note_on_c, 0, 63, 64
2, 16564, Note_on_c, 0, 60, 64
2, 16564, Note_on_c, 0, 51, 64
2, 16590, Note_on_c, 0, 67, 0
2, 16594, Note_on_c, 0, 65, 64
2, 16616, Note_on_c, 0, 51, 0
2, 16620, Note_on_c, 0, 65, 0
2, 16624, Note_on_c, 0, 67, 64
2, 16624, Note_on_c, 0, 45, 64
2, 16650, Note_on_c, 0, 67, 0
2, 16654, Note_on_c, 0, 69, 64
2, 16669, Note_on_c, 0, 63, 0
2, 16669, Note_on_c, 0, 60, 0
2, 16676, Note_on_c, 0, 45, 0
2, 16680, Note_on_c, 0, 69, 0
2, 16684, Note_on_c, 0, 65, 64
2, 16684, Note_on_c, 0, 60, 64
2, 16684, Note_on_c, 0, 57, 64
2, 16714, Note_on_c, 0, 45, 64
2, 16740, Note_on_c, 0, 45, 0
2, 16744, Note_on_c, 0, 46, 64
2, 16770, Note_on_c, 0, 46, 0
2, 16774, Note_on_c, 0, 48, 64
2, 16789, Note_on_c, 0, 57, 0
2, 16789, Note_on_c, 0, 60, 0
2, 16800, Note_on_c, 0, 48, 0
2, 16804, Note_on_c, 0, 50, 64
2, 16830, Note_on_c, 0, 50, 0
2, 16834, Note_on_c, 0, 48, 64
2, 16860, Note_on_c, 0, 48, 0
2, 16864, Note_on_c, 0, 57, 64
2, 16864, Note_on_c, 0, 53, 64
2, 16864, Note_on_c, 0, 50, 64
2, 16916, Note_on_c, 0, 53, 0
2, 16916, Note_on_c, 0, 57, 0
2, 16924, Note_on_c, 0, 62, 64
2, 16924, Note_on_c, 0, 58, 64
2, 16950, Note_on_c, 0, 50, 0
2, 16954, Note_on_c, 0, 48, 64
2, 16976, Note_on_c, 0, 58, 0
2, 16976, Note_on_c, 0, 62, 0
2, 16980, Note_on_c, 0, 48, 0
2, 16984, Note_on_c, 0, 62, 64
2, 16984, Note_on_c, 0, 58, 64
2, 16984, Note_on_c, 0, 50, 64
2, 17002, Note_on_c, 0, 65, 0
2, 17010, Note_on_c, 0, 50, 0
2, 17014, Note_on_c, 0, 69, 64
2, 17014, Note_on_c, 0, 48, 64
2, 17036, Note_on_c, 0, 58, 0
2, 17036, Note_on_c, 0, 62, 0
2, 17040, Note_on_c, 0, 69, 0
2, 17040, Note_on_c, 0, 48, 0
2, 17044, Note_on_c, 0, 67, 64
2, 17044, Note_on_c, 0, 62, 64
2, 17044, Note_on_c, 0, 58, 64
2, 17044, Note_on_c, 0, 46, 64
2, 17070, Note_on_c, 0, 46, 0
2, 17074, Note_on_c, 0, 45, 64
2, 17096, Note_on_c, 0, 58, 0
2, 17096, Note_on_c, 0, 62, 0
2, 17100, Note_on_c, 0, 45, 0
2, 17104, Note_on_c, 0, 62, 64
2, 17104, Note_on_c, 0, 58, 64
2, 17104, Note_on_c, 0, 46, 64
2, 17122, Note_on_c, 0, 67, 0
2, 17130, Note_on_c, 0, 46, 0
2, 17134, Note_on_c, 0, 65, 64
2, 17134, Note_on_c, 0, 45, 64
2, 17156, Note_on_c, 0, 58, 0
2, 17156, Note_on_c, 0, 62, 0
2, 17160, Note_on_c, 0, 65, 0
2, 17160, Note_on_c, 0, 45, 0
2, 17164, Note_on_c, 0, 70, 64
2, 17164, Note_on_c, 0, 62, 64
2, 17164, Note_on_c, 0, 58, 64
2, 17164, Note_on_c, 0, 43, 64
2, 17190, Note_on_c, 0, 43, 0
2, 17194, Note_on_c, 0, 41, 64
2, 17216, Note_on_c, 0, 58, 0
2, 17216, Note_on_c, 0, 62, 0
2, 17220, Note_on_c, 0, 41, 0
2, 17224, Note_on_c, 0, 62, 64
2, 17224, Note_on_c, 0, 58, 64
2, 17224, Note_on_c, 0, 43, 64
2, 17242, Note_on_c, 0, 70, 0
2, 17250, Note_on_c, 0, 43, 0
2, 17254, Note_on_c, 0, 69, 64
2, 17254, Note_on_c, 0, 41, 64
2, 17276, Note_on_c, 0, 58, 0
2, 17276, Note_on_c, 0, 62, 0
2, 17280, Note_on_c, 0, 69, 0
2, 17280, Note_on_c, 0, 41, 0
2, 17284, Note_on_c, 0, 67, 64
2, 17284, Note_on_c, 0, 62, 64
2, 17284, Note_on_c, 0, 58, 64
2, 17284, Note_on_c, 0, 40, 64
2, 17310, Note_on_c, 0, 40, 0
2, 17314, Note_on_c, 0, 36, 64
2, 17336, Note_on_c, 0, 58, 0
2, 17336, Note_on_c, 0, 62, 0
2, 17340, Note_on_c, 0, 36, 0
2, 17344, Note_on_c, 0, 60, 64
2, 17344, Note_on_c, 0, 57, 64
2, 17344, Note_on_c, 0, 38, 64
2, 17370, Note_on_c, 0, 38, 0
2, 17370, Note_on_c, 0, 57, 0
2, 17374, Note_on_c, 0, 55, 64
2, 17374, Note_on_c, 0, 40, 64
2, 17389, Note_on_c, 0, 67, 0
2, 17396, Note_on_c, 0, 60, 0
2, 17400, Note_on_c, 0, 55, 0
2, 17400, Note_on_c, 0, 40, 0
2, 17404, Note_on_c, 0, 65, 64
2, 17404, Note_on_c, 0, 57, 64
2, 17404, Note_on_c, 0, 41, 64
2, 17430, Note_on_c, 0, 41, 0
2, 17430, Note_on_c, 0, 57, 0
2, 17434, Note_on_c, 0, 55, 64
2, 17434, Note_on_c, 0, 36, 64
2, 17456, Note_on_c, 0, 65, 0
2, 17460, Note_on_c, 0, 36, 0
2, 17460, Note_on_c, 0, 55, 0
2, 17464, Note_on_c, 0, 57, 64
2, 17464, Note_on_c, 0, 41, 64
2, 17490, Note_on_c, 0, 41, 0
2, 17490, Note_on_c, 0, 57, 0
2, 17494, Note_on_c, 0, 59, 64
2, 17494, Note_on_c, 0, 43, 64
2, 17520, Note_on_c, 0, 43, 0
2, 17520, Note_on_c, 0, 59, 0
2, 17524, Note_on_c, 0, 60, 64
2, 17524, Note_on_c, 0, 44, 64
2, 17550, Note_on_c, 0, 60, 0
2, 17554, Note_on_c, 0, 59, 64
2, 17576, Note_on_c, 0, 44, 0
2, 17580, Note_on_c, 0, 59, 0
2, 17584, Note_on_c, 0, 60, 64
2, 17584, Note_on_c, 0, 38, 64
2, 17614, Note_on_c, 0, 65, 64
2, 17636, Note_on_c, 0, 38, 0
2, 17640, Note_on_c, 0, 65, 0
2, 17644, Note_on_c, 0, 63, 64
2, 17644, Note_on_c, 0, 43, 64
2, 17670, Note_on_c, 0, 43, 0
2, 17674, Note_on_c, 0, 42, 64
2, 17696, Note_on_c, 0, 63, 0
2, 17696, Note_on_c, 0, 60, 0
2, 17700, Note_on_c, 0, 42, 0
2, 17704, Note_on_c, 0, 62, 64
2, 17704, Note_on_c, 0, 59, 64
2, 17704, Note_on_c, 0, 43, 64
2, 17730, Note_on_c, 0, 43, 0
2, 17730, Note_on_c, 0, 59, 0
2, 17734, Note_on_c, 0, 57, 64
2, 17734, Note_on_c, 0, 45, 64
2, 17756, Note_on_c, 0, 62, 0
2, 17760, Note_on_c, 0, 45, 0
2, 17760, Note_on_c, 0, 57, 0
2, 17764, Note_on_c, 0, 55, 64
2, 17764, Note_on_c, 0, 47, 64
2, 17790, Note_on_c, 0, 47, 0
2, 17790, Note_on_c, 0, 55, 0
2, 17794, Note_on_c, 0, 50, 64
2, 17794, Note_on_c, 0, 45, 64
2, 17820, Note_on_c, 0, 45, 0
2, 17820, Note_on_c, 0, 50, 0
2, 17824, Note_on_c, 0, 55, 64
2, 17824, Note_on_c, 0, 47, 64
2, 17850, Note_on_c, 0, 47, 0
2, 17850, Note_on_c, 0, 55, 0
2, 17854, Note_on_c, 0, 57, 64
2, 17854, Note_on_c, 0, 50, 64
2, 17880, Note_on_c, 0, 50, 0
2, 17880, Note_on_c, 0, 57, 0
2, 17884, Note_on_c, 0, 59, 64
2, 17884, Note_on_c, 0, 55, 64
2, 17910, Note_on_c, 0, 59, 0
2, 17914, Note_on_c, 0, 60, 64
2, 17936, Note_on_c, 0, 55, 0
2, 17940, Note_on_c, 0, 60, 0
2, 17944, Note_on_c, 0, 62, 64
2, 17944, Note_on_c, 0, 47, 64
2, 17974, Note_on_c, 0, 67, 64
2, 17996, Note_on_c, 0, 47, 0
2, 18000, Note_on_c, 0, 67, 0
2, 18004, Note_on_c, 0, 65, 64
2, 18004, Note_on_c, 0, 48, 64
2, 18030, Note_on_c, 0, 48, 0
2, 18034, Note_on_c, 0, 60, 64
2, 18056, Note_on_c, 0, 65, 0
2, 18056, Note_on_c, 0, 62, 0
2, 18060, Note_on_c, 0, 60, 0
2, 18064, Note_on_c, 0, 63, 64
2, 18064, Note_on_c, 0, 60, 64
2, 18064, Note_on_c, 0, 55, 64
2, 18090, Note_on_c, 0, 55, 0
2, 18090, Note_on_c, 0, 63, 0
2, 18094, Note_on_c, 0, 65, 64
2, 18094, Note_on_c, 0, 51, 64
2, 18116, Note_on_c, 0, 60, 0
2, 18120, Note_on_c, 0, 51, 0
2, 18120, Note_on_c, 0, 65, 0
2, 18124, Note_on_c, 0, 75, 64
2, 18124, Note_on_c, 0, 67, 64
2, 18124, Note_on_c, 0, 48, 64
2, 18154, Note_on_c, 0, 55, 64
2, 18180, Note_on_c, 0, 55, 0
2, 18184, Note_on_c, 0, 57, 64
2, 18210, Note_on_c, 0, 57, 0
2, 18214, Note_on_c, 0, 59, 64
2, 18229, Note_on_c, 0, 48, 0
2, 18229, Note_on_c, 0, 75, 0
2, 18229, Note_on_c, 0, 67, 0
2, 18240, Note_on_c, 0, 59, 0
2, 18244, Note_on_c, 0, 60, 64
2, 18270, Note_on_c, 0, 60, 0
2, 18274, Note_on_c, 0, 59, 64
2, 18300, Note_on_c, 0, 59, 0
2, 18304, Note_on_c, 0, 72, 64
2, 18304, Note_on_c, 0, 63, 64
2, 18304, Note_on_c, 0, 60, 64
2, 18334, Note_on_c, 0, 56, 64
2, 18356, Note_on_c, 0, 60, 0
2, 18356, Note_on_c, 0, 72, 0
2, 18356, Note_on_c, 0, 63, 0
2, 18364, Note_on_c, 0, 77, 64
2, 18364, Note_on_c, 0, 68, 64
2, 18364, Note_on_c, 0, 60, 64
2, 18390, Note_on_c, 0, 56, 0
2, 18394, Note_on_c, 0, 50, 64
2, 18416, Note_on_c, 0, 60, 0
2, 18424, Note_on_c, 0, 53, 64
2, 18446, Note_on_c, 0, 50, 0
2, 18454, Note_on_c, 0, 56, 64
2, 18469, Note_on_c, 0, 77, 0
2, 18469, Note_on_c, 0, 68, 0
2, 18476, Note_on_c, 0, 53, 0
2, 18480, Note_on_c, 0, 56, 0
2, 18484, Note_on_c, 0, 74, 64
2, 18484, Note_on_c, 0, 65, 64
2, 18484, Note_on_c, 0, 58, 64
2, 18514, Note_on_c, 0, 53, 64
2, 18540, Note_on_c, 0, 53, 0
2, 18544, Note_on_c, 0, 55, 64
2, 18570, Note_on_c, 0, 55, 0
2, 18574, Note_on_c, 0, 56, 64
2, 18589, Note_on_c, 0, 58, 0
2, 18589, Note_on_c, 0, 74, 0
2, 18589, Note_on_c, 0, 65, 0
2, 18600, Note_on_c, 0, 56, 0
2, 18604, Note_on_c, 0, 58, 64
2, 18630, Note_on_c, 0, 58, 0
2, 18634, Note_on_c, 0, 56, 64
2, 18660, Note_on_c, 0, 56, 0
2, 18664, Note_on_c, 0, 70, 64
2, 18664, Note_on_c, 0, 62, 64
2, 18664, Note_on_c, 0, 58, 64
2, 18694, Note_on_c, 0, 55, 64
2, 18716, Note_on_c, 0, 58, 0
2, 18716, Note_on_c, 0, 70, 0
2, 18716, Note_on_c, 0, 62, 0
2, 18724, Note_on_c, 0, 75, 64
2, 18724, Note_on_c, 0, 67, 64
2, 18724, Note_on_c, 0, 58, 64
2, 18750, Note_on_c, 0, 55, 0
2, 18754, Note_on_c, 0, 48, 64
2, 18776, Note_on_c, 0, 58, 0
2, 18784, Note_on_c, 0, 51, 64
2, 18806, Note_on_c, 0, 48, 0
2, 18814, Note_on_c, 0, 55, 64
2, 18829, Note_on_c, 0, 75, 0
2, 18829, Note_on_c, 0, 67, 0
2, 18836, Note_on_c, 0, 51, 0
2, 18840, Note_on_c, 0, 55, 0
2, 18844, Note_on_c, 0, 72, 64
2, 18844, Note_on_c, 0, 63, 64
2, 18844, Note_on_c, 0, 56, 64
2, 18874, Note_on_c, 0, 51, 64
2, 18900, Note_on_c, 0, 51, 0
2, 18904, Note_on_c, 0, 53, 64
2, 18930, Note_on_c, 0, 53, 0
2, 18934, Note_on_c, 0, 55, 64
2, 18949, Note_on_c, 0, 56, 0
2, 18949, Note_on_c, 0, 72, 0
2, 18949, Note_on_c, 0, 63, 0
2, 18960, Note_on_c, 0, 55, 0
2, 18964, Note_on_c, 0, 56, 64
2, 18990, Note_on_c, 0, 56, 0
2, 18994, Note_on_c, 0, 55, 64
2, 19020, Note_on_c, 0, 55, 0
2, 19024, Note_on_c, 0, 68, 64
2, 19024, Note_on_c, 0, 60, 64
2, 19024, Note_on_c, 0, 56, 64
2, 19054, Note_on_c, 0, 53, 64
2, 19076, Note_on_c, 0, 60, 0
2, 19076, Note_on_c, 0, 68, 0
2, 19080, Note_on_c, 0, 53, 0
2, 19084, Note_on_c, 0, 74, 64
2, 19084, Note_on_c, 0, 65, 64
2, 19084, Note_on_c, 0, 47, 64
2, 19110, Note_on_c, 0, 56, 0
2, 19114, Note_on_c, 0, 55, 64
2, 19136, Note_on_c, 0, 74, 0
2, 19136, Note_on_c, 0, 65, 0
2, 19140, Note_on_c, 0, 55, 0
2, 19144, Note_on_c, 0, 74, 64
2, 19144, Note_on_c, 0, 65, 64
2, 19144, Note_on_c, 0, 56, 64
2, 19170, Note_on_c, 0, 56, 0
2, 19174, Note_on_c, 0, 55, 64
2, 19189, Note_on_c, 0, 47, 0
2, 19196, Note_on_c, 0, 74, 0
2, 19196, Note_on_c, 0, 65, 0
2, 19200, Note_on_c, 0, 55, 0
2, 19204, Note_on_c, 0, 74, 64
2, 19204, Note_on_c, 0, 65, 64
2, 19204, Note_on_c, 0, 53, 64
2, 19230, Note_on_c, 0, 53, 0
2, 19234, Note_on_c, 0, 51, 64
2, 19256, Note_on_c, 0, 65, 0
2, 19256, Note_on_c, 0, 74, 0
2, 19260, Note_on_c, 0, 51, 0
2, 19264, Note_on_c, 0, 74, 64
2, 19264, Note_on_c, 0, 65, 64
2, 19264, Note_on_c, 0, 53, 64
2, 19264, Note_on_c, 0, 50, 64
2, 19290, Note_on_c, 0, 53, 0
2, 19294, Note_on_c, 0, 51, 64
2, 19316, Note_on_c, 0, 74, 0
2, 19316, Note_on_c, 0, 50, 0
2, 19316, Note_on_c, 0, 65, 0
2, 19320, Note_on_c, 0, 51, 0
2, 19324, Note_on_c, 0, 74, 64
2, 19324, Note_on_c, 0, 65, 64
2, 19324, Note_on_c, 0, 50, 64
2, 19324, Note_on_c, 0, 41, 64
2, 19350, Note_on_c, 0, 50, 0
2, 19354, Note_on_c, 0, 48, 64
2, 19376, Note_on_c, 0, 74, 0
2, 19376, Note_on_c, 0, 41, 0
2, 19376, Note_on_c, 0, 65, 0
2, 19380, Note_on_c, 0, 48, 0
2, 19384, Note_on_c, 0, 74, 64
2, 19384, Note_on_c, 0, 65, 64
2, 19384, Note_on_c, 0, 50, 64
2, 19384, Note_on_c, 0, 44, 64
2, 19410, Note_on_c, 0, 50, 0
2, 19414, Note_on_c, 0, 48, 64
2, 19436, Note_on_c, 0, 74, 0
2, 19436, Note_on_c, 0, 44, 0
2, 19436, Note_on_c, 0, 65, 0
2, 19440, Note_on_c, 0, 48, 0
2, 19444, Note_on_c, 0, 74, 64
2, 19444, Note_on_c, 0, 65, 64
2, 19444, Note_on_c, 0, 47, 64
2, 19444, Note_on_c, 0, 43, 64
2, 19470, Note_on_c, 0, 74, 0
2, 19474, Note_on_c, 0, 72, 64
2, 19496, Note_on_c, 0, 65, 0
2, 19496, Note_on_c, 0, 43, 0
2, 19496, Note_on_c, 0, 47, 0
2, 19500, Note_on_c, 0, 72, 0
2, 19504, Note_on_c, 0, 74, 64
2, 19504, Note_on_c, 0, 65, 64
2, 19504, Note_on_c, 0, 59, 64
2, 19504, Note_on_c, 0, 55, 64
2, 19530, Note_on_c, 0, 74, 0
2, 19534, Note_on_c, 0, 72, 64
2, 19556, Note_on_c, 0, 65, 0
2, 19556, Note_on_c, 0, 55, 0
2, 19556, Note_on_c, 0, 59, 0
2, 19560, Note_on_c, 0, 72, 0
2, 19564, Note_on_c, 0, 71, 64
2, 19564, Note_on_c, 0, 65, 64
2, 19564, Note_on_c, 0, 59, 64
2, 19564, Note_on_c, 0, 55, 64
2, 19590, Note_on_c, 0, 71, 0
2, 19594, Note_on_c, 0, 69, 64
2, 19616, Note_on_c, 0, 65, 0
2, 19616, Note_on_c, 0, 55, 0
2, 19616, Note_on_c, 0, 59, 0
2, 19620, Note_on_c, 0, 69, 0
2, 19624, Note_on_c, 0, 71, 64
2, 19624, Note_on_c, 0, 65, 64
2, 19624, Note_on_c, 0, 59, 64
2, 19624, Note_on_c, 0, 55, 64
2, 19650, Note_on_c, 0, 71, 0
2, 19654, Note_on_c, 0, 69, 64
2, 19676, Note_on_c, 0, 65, 0
2, 19676, Note_on_c, 0, 55, 0
2, 19676, Note_on_c, 0, 59, 0
2, 19680, Note_on_c, 0, 69, 0
2, 19684, Note_on_c, 0, 67, 64
2, 19684, Note_on_c, 0, 60, 64
2, 19684, Note_on_c, 0, 57, 64
2, 19714, Note_on_c, 0, 65, 64
2, 19736, Note_on_c, 0, 57, 0
2, 19736, Note_on_c, 0, 60, 0
2, 19740, Note_on_c, 0, 65, 0
2, 19744, Note_on_c, 0, 67, 64
2, 19744, Note_on_c, 0, 62, 64
2, 19744, Note_on_c, 0, 59, 64
2, 19770, Note_on_c, 0, 67, 0
2, 19774, Note_on_c, 0, 65, 64
2, 19796, Note_on_c, 0, 59, 0
2, 19804, Note_on_c, 0, 51, 64
2, 19830, Note_on_c, 0, 65, 0
2, 19834, Note_on_c, 0, 63, 64
2, 19856, Note_on_c, 0, 62, 0
2, 19860, Note_on_c, 0, 63, 0
2, 19864, Note_on_c, 0, 65, 64
2, 19864, Note_on_c, 0, 55, 64
2, 19890, Note_on_c, 0, 65, 0
2, 19894, Note_on_c, 0, 62, 64
2, 19909, Note_on_c, 0, 51, 0
2, 19916, Note_on_c, 0, 55, 0
2, 19920, Note_on_c, 0, 62, 0
2, 19924, Note_on_c, 0, 63, 64
2, 19924, Note_on_c, 0, 60, 64
2, 19950, Note_on_c, 0, 67, 0
2, 19954, Note_on_c, 0, 67, 64
2, 19954, Note_on_c, 0, 51, 64
2, 19980, Note_on_c, 0, 51, 0
2, 19980, Note_on_c, 0, 67, 0
2, 19984, Note_on_c, 0, 69, 64
2, 19984, Note_on_c, 0, 53, 64
2, 20010, Note_on_c, 0, 53, 0
2, 20010, Note_on_c, 0, 69, 0
2, 20014, Note_on_c, 0, 71, 64
2, 20014, Note_on_c, 0, 55, 64
2, 20040, Note_on_c, 0, 55, 0
2, 20040, Note_on_c, 0, 71, 0
2, 20044, Note_on_c, 0, 72, 64
2, 20044, Note_on_c, 0, 56, 64
2, 20070, Note_on_c, 0, 56, 0
2, 20074, Note_on_c, 0, 55, 64
2, 20096, Note_on_c, 0, 63, 0
2, 20096, Note_on_c, 0, 60, 0
2, 20100, Note_on_c, 0, 55, 0
2, 20104, Note_on_c, 0, 68, 64
2, 20104, Note_on_c, 0, 65, 64
2, 20104, Note_on_c, 0, 56, 64
2, 20156, Note_on_c, 0, 56, 0
2, 20156, Note_on_c, 0, 65, 0
2, 20156, Note_on_c, 0, 68, 0
2, 20164, Note_on_c, 0, 65, 64
2, 20164, Note_on_c, 0, 62, 64
2, 20164, Note_on_c, 0, 56, 64
2, 20216, Note_on_c, 0, 56, 0
2, 20216, Note_on_c, 0, 72, 0
2, 20224, Note_on_c, 0, 71, 64
2, 20224, Note_on_c, 0, 50, 64
2, 20250, Note_on_c, 0, 71, 0
2, 20254, Note_on_c, 0, 69, 64
2, 20269, Note_on_c, 0, 65, 0
2, 20276, Note_on_c, 0, 50, 0
2, 20280, Note_on_c, 0, 69, 0
2, 20284, Note_on_c, 0, 71, 64
2, 20314, Note_on_c, 0, 68, 64
2, 20314, Note_on_c, 0, 50, 64
2, 20340, Note_on_c, 0, 50, 0
2, 20340, Note_on_c, 0, 68, 0
2, 20344, Note_on_c, 0, 67, 64
2, 20344, Note_on_c, 0, 51, 64
2, 20370, Note_on_c, 0, 51, 0
2, 20370, Note_on_c, 0, 67, 0
2, 20374, Note_on_c, 0, 65, 64
2, 20374, Note_on_c, 0, 53, 64
2, 20389, Note_on_c, 0, 71, 0
2, 20389, Note_on_c, 0, 62, 0
2, 20400, Note_on_c, 0, 65, 0
2, 20400, Note_on_c, 0, 53, 0
2, 20404, Note_on_c, 0, 70, 64
2, 20404, Note_on_c, 0, 64, 64
2, 20404, Note_on_c, 0, 61, 64
2, 20404, Note_on_c, 0, 55, 64
2, 20430, Note_on_c, 0, 55, 0
2, 20430, Note_on_c, 0, 64, 0
2, 20434, Note_on_c, 0, 65, 64
2, 20434, Note_on_c, 0, 53, 64
2, 20460, Note_on_c, 0, 53, 0
2, 20460, Note_on_c, 0, 65, 0
2, 20464, Note_on_c, 0, 64, 64
2, 20464, Note_on_c, 0, 55, 64
2, 20490, Note_on_c, 0, 64, 0
2, 20494, Note_on_c, 0, 65, 64
2, 20509, Note_on_c, 0, 61, 0
2, 20516, Note_on_c, 0, 55, 0
2, 20520, Note_on_c, 0, 65, 0
2, 20524, Note_on_c, 0, 64, 64
2, 20524, Note_on_c, 0, 60, 64
2, 20524, Note_on_c, 0, 55, 64
2, 20576, Note_on_c, 0, 55, 0
2, 20576, Note_on_c, 0, 70, 0
2, 20584, Note_on_c, 0, 69, 64
2, 20584, Note_on_c, 0, 48, 64
2, 20610, Note_on_c, 0, 69, 0
2, 20614, Note_on_c, 0, 67, 64
2, 20629, Note_on_c, 0, 64, 0
2, 20636, Note_on_c, 0, 48, 0
2, 20640, Note_on_c, 0, 67, 0
2, 20644, Note_on_c, 0, 69, 64
2, 20674, Note_on_c, 0, 67, 64
2, 20674, Note_on_c, 0, 48, 64
2, 20700, Note_on_c, 0, 48, 0
2, 20700, Note_on_c, 0, 67, 0
2, 20704, Note_on_c, 0, 65, 64
2, 20704, Note_on_c, 0, 50, 64
2, 20730, Note_on_c, 0, 50, 0
2, 20730, Note_on_c, 0, 65, 0
2, 20734, Note_on_c, 0, 63, 64
2, 20734, Note_on_c, 0, 51, 64
2, 20749, Note_on_c, 0, 69, 0
2, 20749, Note_on_c, 0, 60, 0
2, 20760, Note_on_c, 0, 63, 0
2, 20760, Note_on_c, 0, 51, 0
2, 20764, Note_on_c, 0, 68, 64
2, 20764, Note_on_c, 0, 62, 64
2, 20764, Note_on_c, 0, 59, 64
2, 20764, Note_on_c, 0, 53, 64
2, 20790, Note_on_c, 0, 53, 0
2, 20790, Note_on_c, 0, 62, 0
2, 20794, Note_on_c, 0, 63, 64
2, 20794, Note_on_c, 0, 51, 64
2, 20820, Note_on_c, 0, 51, 0
2, 20820, Note_on_c, 0, 63, 0
2, 20824, Note_on_c, 0, 62, 64
2, 20824, Note_on_c, 0, 53, 64
2, 20850, Note_on_c, 0, 62, 0
2, 20854, Note_on_c, 0, 63, 64
2, 20869, Note_on_c, 0, 59, 0
2, 20876, Note_on_c, 0, 53, 0
2, 20880, Note_on_c, 0, 63, 0
2, 20884, Note_on_c, 0, 62, 64
2, 20884, Note_on_c, 0, 58, 64
2, 20884, Note_on_c, 0, 53, 64
2, 20936, Note_on_c, 0, 53, 0
2, 20936, Note_on_c, 0, 68, 0
2, 20944, Note_on_c, 0, 67, 64
2, 20944, Note_on_c, 0, 46, 64
2, 20970, Note_on_c, 0, 67, 0
2, 20974, Note_on_c, 0, 65, 64
2, 20989, Note_on_c, 0, 62, 0
2, 20989, Note_on_c, 0, 58, 0
2, 20996, Note_on_c, 0, 46, 0
2, 21000, Note_on_c, 0, 65, 0
2, 21004, Note_on_c, 0, 67, 64
2, 21004, Note_on_c, 0, 62, 64
2, 21004, Note_on_c, 0, 58, 64
2, 21030, Note_on_c, 0, 67, 0
2, 21034, Note_on_c, 0, 77, 64
2, 21034, Note_on_c, 0, 74, 64
2, 21060, Note_on_c, 0, 74, 0
2, 21060, Note_on_c, 0, 77, 0
2, 21064, Note_on_c, 0, 79, 64
2, 21064, Note_on_c, 0, 75, 64
2, 21090, Note_on_c, 0, 75, 0
2, 21090, Note_on_c, 0, 79, 0
2, 21094, Note_on_c, 0, 80, 64
2, 21094, Note_on_c, 0, 77, 64
2, 21109, Note_on_c, 0, 58, 0
2, 21109, Note_on_c, 0, 62, 0
2, 21120, Note_on_c, 0, 80, 0
2, 21120, Note_on_c, 0, 77, 0
2, 21124, Note_on_c, 0, 82, 64
2, 21124, Note_on_c, 0, 79, 64
2, 21150, Note_on_c, 0, 79, 0
2, 21150, Note_on_c, 0, 82, 0
2, 21154, Note_on_c, 0, 80, 64
2, 21154, Note_on_c, 0, 77, 64
2, 21180, Note_on_c, 0, 77, 0
2, 21180, Note_on_c, 0, 80, 0
2, 21184, Note_on_c, 0, 82, 64
2, 21184, Note_on_c, 0, 79, 64
2, 21184, Note_on_c, 0, 58, 64
2, 21184, Note_on_c, 0, 55, 64
2, 21236, Note_on_c, 0, 55, 0
2, 21236, Note_on_c, 0, 82, 0
2, 21236, Note_on_c, 0, 79, 0
2, 21236, Note_on_c, 0, 58, 0
2, 21244, Note_on_c, 0, 82, 64
2, 21244, Note_on_c, 0, 79, 64
2, 21244, Note_on_c, 0, 63, 64
2, 21244, Note_on_c, 0, 60, 64
2, 21296, Note_on_c, 0, 79, 0
2, 21296, Note_on_c, 0, 82, 0
2, 21304, Note_on_c, 0, 75, 64
2, 21304, Note_on_c, 0, 72, 64
2, 21349, Note_on_c, 0, 63, 0
2, 21349, Note_on_c, 0, 60, 0
2, 21356, Note_on_c, 0, 75, 0
2, 21356, Note_on_c, 0, 72, 0
2, 21364, Note_on_c, 0, 60, 64
2, 21364, Note_on_c, 0, 56, 64
2, 21394, Note_on_c, 0, 75, 64
2, 21394, Note_on_c, 0, 72, 64
2, 21420, Note_on_c, 0, 72, 0
2, 21420, Note_on_c, 0, 75, 0
2, 21424, Note_on_c, 0, 77, 64
2, 21424, Note_on_c, 0, 74, 64
2, 21450, Note_on_c, 0, 74, 0
2, 21450, Note_on_c, 0, 77, 0
2, 21454, Note_on_c, 0, 79, 64
2, 21454, Note_on_c, 0, 75, 64
2, 21469, Note_on_c, 0, 56, 0
2, 21469, Note_on_c, 0, 60, 0
2, 21480, Note_on_c, 0, 79, 0
2, 21480, Note_on_c, 0, 75, 0
2, 21484, Note_on_c, 0, 80, 64
2, 21484, Note_on_c, 0, 77, 64
2, 21510, Note_on_c, 0, 77, 0
2, 21510, Note_on_c, 0, 80, 0
2, 21514, Note_on_c, 0, 79, 64
2, 21514, Note_on_c, 0, 75, 64
2, 21540, Note_on_c, 0, 75, 0
2, 21540, Note_on_c, 0, 79, 0
2, 21544, Note_on_c, 0, 80, 64
2, 21544, Note_on_c, 0, 77, 64
2, 21544, Note_on_c, 0, 56, 64
2, 21544, Note_on_c, 0, 53, 64
2, 21596, Note_on_c, 0, 53, 0
2, 21596, Note_on_c, 0, 80, 0
2, 21596, Note_on_c, 0, 77, 0
2, 21596, Note_on_c, 0, 56, 0
2, 21604, Note_on_c, 0, 80, 64
2, 21604, Note_on_c, 0, 77, 64
2, 21604, Note_on_c, 0, 62, 64
2, 21604, Note_on_c, 0, 58, 64
2, 21656, Note_on_c, 0, 77, 0
2, 21656, Note_on_c, 0, 80, 0
2, 21664, Note_on_c, 0, 74, 64
2, 21664, Note_on_c, 0, 70, 64
2, 21709, Note_on_c, 0, 62, 0
2, 21709, Note_on_c, 0, 58, 0
2, 21716, Note_on_c, 0, 74, 0
2, 21716, Note_on_c, 0, 70, 0
2, 21724, Note_on_c, 0, 58, 64
2, 21724, Note_on_c, 0, 55, 64
2, 21754, Note_on_c, 0, 74, 64
2, 21754, Note_on_c, 0, 70, 64
2, 21780, Note_on_c, 0, 70, 0
2, 21780, Note_on_c, 0, 74, 0
2, 21784, Note_on_c, 0, 75, 64
2, 21784, Note_on_c, 0, 72, 64
2, 21810, Note_on_c, 0, 72, 0
2, 21810, Note_on_c, 0, 75, 0
2, 21814, Note_on_c, 0, 77, 64
2, 21814, Note_on_c, 0, 74, 64
2, 21829, Note_on_c, 0, 55, 0
2, 21829, Note_on_c, 0, 58, 0
2, 21840, Note_on_c, 0, 77, 0
2, 21840, Note_on_c, 0, 74, 0
2, 21844, Note_on_c, 0, 79, 64
2, 21844, Note_on_c, 0, 75, 64
2, 21870, Note_on_c, 0, 75, 0
2, 21870, Note_on_c, 0, 79, 0
2, 21874, Note_on_c, 0, 77, 64
2, 21874, Note_on_c, 0, 74, 64
2, 21900, Note_on_c, 0, 74, 0
2, 21900, Note_on_c, 0, 77, 0
2, 21904, Note_on_c, 0, 79, 64
2, 21904, Note_on_c, 0, 75, 64
2, 21904, Note_on_c, 0, 55, 64
2, 21904, Note_on_c, 0, 51, 64
2, 21956, Note_on_c, 0, 51, 0
2, 21956, Note_on_c, 0, 55, 0
2, 21964, Note_on_c, 0, 60, 64
2, 21964, Note_on_c, 0, 56, 64
2, 21990, Note_on_c, 0, 75, 0
2, 21994, Note_on_c, 0, 73, 64
2, 22016, Note_on_c, 0, 79, 0
2, 22016, Note_on_c, 0, 56, 0
2, 22016, Note_on_c, 0, 60, 0
2, 22020, Note_on_c, 0, 73, 0
2, 22024, Note_on_c, 0, 82, 64
2, 22024, Note_on_c, 0, 75, 64
2, 22024, Note_on_c, 0, 60, 64
2, 22024, Note_on_c, 0, 56, 64
2, 22050, Note_on_c, 0, 75, 0
2, 22054, Note_on_c, 0, 73, 64
2, 22076, Note_on_c, 0, 82, 0
2, 22076, Note_on_c, 0, 56, 0
2, 22076, Note_on_c, 0, 60, 0
2, 22080, Note_on_c, 0, 73, 0
2, 22084, Note_on_c, 0, 80, 64
2, 22084, Note_on_c, 0, 72, 64
2, 22084, Note_on_c, 0, 60, 64
2, 22084, Note_on_c, 0, 56, 64
2, 22110, Note_on_c, 0, 72, 0
2, 22114, Note_on_c, 0, 70, 64
2, 22136, Note_on_c, 0, 80, 0
2, 22136, Note_on_c, 0, 56, 0
2, 22136, Note_on_c, 0, 60, 0
2, 22140, Note_on_c, 0, 70, 0
2, 22144, Note_on_c, 0, 79, 64
2, 22144, Note_on_c, 0, 72, 64
2, 22144, Note_on_c, 0, 60, 64
2, 22144, Note_on_c, 0, 56, 64
2, 22170, Note_on_c, 0, 72, 0
2, 22174, Note_on_c, 0, 70, 64
2, 22196, Note_on_c, 0, 79, 0
2, 22196, Note_on_c, 0, 56, 0
2, 22196, Note_on_c, 0, 60, 0
2, 22200, Note_on_c, 0, 70, 0
2, 22204, Note_on_c, 0, 77, 64
2, 22204, Note_on_c, 0, 68, 64
2, 22204, Note_on_c, 0, 60, 64
2, 22204, Note_on_c, 0, 56, 64
2, 22230, Note_on_c, 0, 68, 0
2, 22234, Note_on_c, 0, 67, 64
2, 22256, Note_on_c, 0, 77, 0
2, 22256, Note_on_c, 0, 56, 0
2, 22256, Note_on_c, 0, 60, 0
2, 22260, Note_on_c, 0, 67, 0
2, 22264, Note_on_c, 0, 75, 64
2, 22264, Note_on_c, 0, 68, 64
2, 22264, Note_on_c, 0, 60, 64
2, 22264, Note_on_c, 0, 56, 64
2, 22290, Note_on_c, 0, 68, 0
2, 22294, Note_on_c, 0, 67, 64
2, 22316, Note_on_c, 0, 75, 0
2, 22316, Note_on_c, 0, 56, 0
2, 22316, Note_on_c, 0, 60, 0
2, 22320, Note_on_c, 0, 67, 0
2, 22324, Note_on_c, 0, 74, 64
2, 22324, Note_on_c, 0, 65, 64
2, 22324, Note_on_c, 0, 62, 64
2, 22324, Note_on_c, 0, 58, 64
2, 22350, Note_on_c, 0, 62, 0
2, 22354, Note_on_c, 0, 60, 64
2, 22376, Note_on_c, 0, 74, 0
2, 22376, Note_on_c, 0, 58, 0
2, 22376, Note_on_c, 0, 65, 0
2, 22380, Note_on_c, 0, 60, 0
2, 22384, Note_on_c, 0, 74, 64
2, 22384, Note_on_c, 0, 65, 64
2, 22384, Note_on_c, 0, 62, 64
2, 22384, Note_on_c, 0, 56, 64
2, 22410, Note_on_c, 0, 62, 0
2, 22414, Note_on_c, 0, 60, 64
2, 22436, Note_on_c, 0, 74, 0
2, 22436, Note_on_c, 0, 56, 0
2, 22436, Note_on_c, 0, 65, 0
2, 22440, Note_on_c, 0, 60, 0
2, 22444, Note_on_c, 0, 75, 64
2, 22444, Note_on_c, 0, 67, 64
2, 22444, Note_on_c, 0, 58, 64
2, 22444, Note_on_c, 0, 55, 64
2, 22470, Note_on_c, 0, 58, 0
2, 22474, Note_on_c, 0, 56, 64
2, 22496, Note_on_c, 0, 55, 0
2, 22500, Note_on_c, 0, 56, 0
2, 22504, Note_on_c, 0, 58, 64
2, 22504, Note_on_c, 0, 53, 64
2, 22522, Note_on_c, 0, 67, 0
2, 22522, Note_on_c, 0, 75, 0
2, 22530, Note_on_c, 0, 58, 0
2, 22534, Note_on_c, 0, 77, 64
2, 22534, Note_on_c, 0, 68, 64
2, 22534, Note_on_c, 0, 56, 64
2, 22556, Note_on_c, 0, 53, 0
2, 22560, Note_on_c, 0, 77, 0
2, 22560, Note_on_c, 0, 68, 0
2, 22560, Note_on_c, 0, 56, 0
2, 22564, Note_on_c, 0, 79, 64
2, 22564, Note_on_c, 0, 70, 64
2, 22564, Note_on_c, 0, 55, 64
2, 22564, Note_on_c, 0, 51, 64
2, 22590, Note_on_c, 0, 55, 0
2, 22594, Note_on_c, 0, 53, 64
2, 22616, Note_on_c, 0, 51, 0
2, 22616, Note_on_c, 0, 70, 0
2, 22620, Note_on_c, 0, 53, 0
2, 22624, Note_on_c, 0, 71, 64
2, 22624, Note_on_c, 0, 55, 64
2, 22624, Note_on_c, 0, 50, 64
2, 22650, Note_on_c, 0, 55, 0
2, 22654, Note_on_c, 0, 53, 64
2, 22676, Note_on_c, 0, 50, 0
2, 22676, Note_on_c, 0, 71, 0
2, 22680, Note_on_c, 0, 53, 0
2, 22684, Note_on_c, 0, 72, 64
2, 22684, Note_on_c, 0, 51, 64
2, 22684, Note_on_c, 0, 48, 64
2, 22710, Note_on_c, 0, 72, 0
2, 22710, Note_on_c, 0, 79, 0
2, 22714, Note_on_c, 0, 77, 64
2, 22714, Note_on_c, 0, 74, 64
2, 22736, Note_on_c, 0, 51, 0
2, 22736, Note_on_c, 0, 48, 0
2, 22740, Note_on_c, 0, 77, 0
2, 22740, Note_on_c, 0, 74, 0
2, 22744, Note_on_c, 0, 79, 64
2, 22744, Note_on_c, 0, 75, 64
2, 22744, Note_on_c, 0, 63, 64
2, 22744, Note_on_c, 0, 60, 64
2, 22770, Note_on_c, 0, 75, 0
2, 22770, Note_on_c, 0, 79, 0
2, 22774, Note_on_c, 0, 77, 64
2, 22774, Note_on_c, 0, 74, 64
2, 22796, Note_on_c, 0, 63, 0
2, 22796, Note_on_c, 0, 60, 0
2, 22800, Note_on_c, 0, 77, 0
2, 22800, Note_on_c, 0, 74, 0
2, 22804, Note_on_c, 0, 75, 64
2, 22804, Note_on_c, 0, 72, 64
2, 22804, Note_on_c, 0, 63, 64
2, 22804, Note_on_c, 0, 60, 64
2, 22830, Note_on_c, 0, 72, 0
2, 22830, Note_on_c, 0, 75, 0
2, 22834, Note_on_c, 0, 74, 64
2, 22834, Note_on_c, 0, 70, 64
2, 22856, Note_on_c, 0, 63, 0
2, 22856, Note_on_c, 0, 60, 0
2, 22860, Note_on_c, 0, 74, 0
2, 22860, Note_on_c, 0, 70, 0
2, 22864, Note_on_c, 0, 75, 64
2, 22864, Note_on_c, 0, 72, 64
2, 22864, Note_on_c, 0, 63, 64
2, 22864, Note_on_c, 0, 60, 64
2, 22890, Note_on_c, 0, 72, 0
2, 22890, Note_on_c, 0, 75, 0
2, 22894, Note_on_c, 0, 74, 64
2, 22894, Note_on_c, 0, 70, 64
2, 22916, Note_on_c, 0, 63, 0
2, 22916, Note_on_c, 0, 60, 0
2, 22920, Note_on_c, 0, 74, 0
2, 22920, Note_on_c, 0, 70, 0
2, 22924, Note_on_c, 0, 72, 64
2, 22924, Note_on_c, 0, 68, 64
2, 22924, Note_on_c, 0, 63, 64
2, 22924, Note_on_c, 0, 60, 64
2, 22950, Note_on_c, 0, 68, 0
2, 22950, Note_on_c, 0, 72, 0
2, 22954, Note_on_c, 0, 70, 64
2, 22954, Note_on_c, 0, 67, 64
2, 22976, Note_on_c, 0, 63, 0
2, 22976, Note_on_c, 0, 60, 0
2, 22980, Note_on_c, 0, 70, 0
2, 22980, Note_on_c, 0, 67, 0
2, 22984, Note_on_c, 0, 72, 64
2, 22984, Note_on_c, 0, 68, 64
2, 22984, Note_on_c, 0, 63, 64
2, 22984, Note_on_c, 0, 60, 64
2, 23010, Note_on_c, 0, 68, 0
2, 23010, Note_on_c, 0, 72, 0
2, 23014, Note_on_c, 0, 70, 64
2, 23014, Note_on_c, 0, 67, 64
2, 23036, Note_on_c, 0, 63, 0
2, 23036, Note_on_c, 0, 60, 0
2, 23040, Note_on_c, 0, 70, 0
2, 23040, Note_on_c, 0, 67, 0
2, 23044, Note_on_c, 0, 69, 64
2, 23044, Note_on_c, 0, 66, 64
2, 23044, Note_on_c, 0, 63, 64
2, 23044, Note_on_c, 0, 60, 64
2, 23070, Note_on_c, 0, 63, 0
2, 23074, Note_on_c, 0, 62, 64
2, 23096, Note_on_c, 0, 60, 0
2, 23100, Note_on_c, 0, 62, 0
2, 23104, Note_on_c, 0, 63, 64
2, 23104, Note_on_c, 0, 58, 64
2, 23130, Note_on_c, 0, 63, 0
2, 23134, Note_on_c, 0, 62, 64
2, 23156, Note_on_c, 0, 58, 0
2, 23160, Note_on_c, 0, 62, 0
2, 23164, Note_on_c, 0, 60, 64
2, 23164, Note_on_c, 0, 57, 64
2, 23190, Note_on_c, 0, 60, 0
2, 23194, Note_on_c, 0, 58, 64
2, 23209, Note_on_c, 0, 69, 0
2, 23209, Note_on_c, 0, 66, 0
2, 23216, Note_on_c, 0, 57, 0
2, 23220, Note_on_c, 0, 58, 0
2, 23224, Note_on_c, 0, 70, 64
2, 23224, Note_on_c, 0, 67, 64
2, 23224, Note_on_c, 0, 60, 64
2, 23224, Note_on_c, 0, 55, 64
2, 23250, Note_on_c, 0, 60, 0
2, 23254, Note_on_c, 0, 58, 64
2, 23276, Note_on_c, 0, 70, 0
2, 23276, Note_on_c, 0, 55, 0
2, 23276, Note_on_c, 0, 67, 0
2, 23280, Note_on_c, 0, 58, 0
2, 23284, Note_on_c, 0, 72, 64
2, 23284, Note_on_c, 0, 69, 64
2, 23284, Note_on_c, 0, 57, 64
2, 23284, Note_on_c, 0, 54, 64
2, 23310, Note_on_c, 0, 57, 0
2, 23314, Note_on_c, 0, 55, 64
2, 23336, Note_on_c, 0, 54, 0
2, 23340, Note_on_c, 0, 55, 0
2, 23344, Note_on_c, 0, 57, 64
2, 23344, Note_on_c, 0, 52, 64
2, 23370, Note_on_c, 0, 57, 0
2, 23374, Note_on_c, 0, 55, 64
2, 23396, Note_on_c, 0, 52, 0
2, 23400, Note_on_c, 0, 55, 0
2, 23404, Note_on_c, 0, 54, 64
2, 23404, Note_on_c, 0, 50, 64
2, 23430, Note_on_c, 0, 69, 0
2, 23434, Note_on_c, 0, 62, 64
2, 23456, Note_on_c, 0, 50, 0
2, 23456, Note_on_c, 0, 54, 0
2, 23460, Note_on_c, 0, 62, 0
2, 23464, Note_on_c, 0, 63, 64
2, 23464, Note_on_c, 0, 57, 64
2, 23464, Note_on_c, 0, 54, 64
2, 23490, Note_on_c, 0, 63, 0
2, 23494, Note_on_c, 0, 62, 64
2, 23509, Note_on_c, 0, 72, 0
2, 23516, Note_on_c, 0, 54, 0
2, 23516, Note_on_c, 0, 57, 0
2, 23524, Note_on_c, 0, 70, 64
2, 23524, Note_on_c, 0, 58, 64
2, 23524, Note_on_c, 0, 55, 64
2, 23550, Note_on_c, 0, 62, 0
2, 23554, Note_on_c, 0, 62, 64
2, 23576, Note_on_c, 0, 55, 0
2, 23576, Note_on_c, 0, 58, 0
2, 23580, Note_on_c, 0, 62, 0
2, 23584, Note_on_c, 0, 63, 64
2, 23584, Note_on_c, 0, 54, 64
2, 23584, Note_on_c, 0, 50, 64
2, 23610, Note_on_c, 0, 63, 0
2, 23614, Note_on_c, 0, 62, 64
2, 23636, Note_on_c, 0, 50, 0
2, 23636, Note_on_c, 0, 54, 0
2, 23640, Note_on_c, 0, 62, 0
2, 23644, Note_on_c, 0, 60, 64
2, 23644, Note_on_c, 0, 55, 64
2, 23644, Note_on_c, 0, 51, 64
2, 23670, Note_on_c, 0, 70, 0
2, 23674, Note_on_c, 0, 70, 64
2, 23696, Note_on_c, 0, 60, 0
2, 23700, Note_on_c, 0, 70, 0
2, 23704, Note_on_c, 0, 69, 64
2, 23704, Note_on_c, 0, 61, 64
2, 23730, Note_on_c, 0, 69, 0
2, 23734, Note_on_c, 0, 67, 64
2, 23749, Note_on_c, 0, 51, 0
2, 23749, Note_on_c, 0, 55, 0
2, 23756, Note_on_c, 0, 61, 0
2, 23760, Note_on_c, 0, 67, 0
2, 23764, Note_on_c, 0, 66, 64
2, 23764, Note_on_c, 0, 62, 64
2, 23764, Note_on_c, 0, 57, 64
2, 23764, Note_on_c, 0, 50, 64
2, 23816, Note_on_c, 0, 50, 0
2, 23816, Note_on_c, 0, 57, 0
2, 23824, Note_on_c, 0, 38, 64
2, 23869, Note_on_c, 0, 62, 0
2, 23869, Note_on_c, 0, 66, 0
2, 23876, Note_on_c, 0, 38, 0
2, 23884, Note_on_c, 0, 62, 64
2, 23914, Note_on_c, 0, 69, 64
2, 23940, Note_on_c, 0, 69, 0
2, 23944, Note_on_c, 0, 70, 64
2, 23970, Note_on_c, 0, 70, 0
2, 23974, Note_on_c, 0, 72, 64
2, 23989, Note_on_c, 0, 62, 0
2, 24000, Note_on_c, 0, 72, 0
2, 24004, Note_on_c, 0, 74, 64
2, 24030, Note_on_c, 0, 74, 0
2, 24034, Note_on_c, 0, 72, 64
2, 24060, Note_on_c, 0, 72, 0
2, 24064, Note_on_c, 0, 74, 64
2, 24064, Note_on_c, 0, 58, 64
2, 24116, Note_on_c, 0, 58, 0
2, 24116, Note_on_c, 0, 74, 0
2, 24124, Note_on_c, 0, 74, 64
2, 24124, Note_on_c, 0, 63, 64
2, 24176, Note_on_c, 0, 74, 0
2, 24184, Note_on_c, 0, 67, 64
2, 24229, Note_on_c, 0, 63, 0
2, 24236, Note_on_c, 0, 67, 0
2, 24244, Note_on_c, 0, 60, 64
2, 24274, Note_on_c, 0, 67, 64
2, 24300, Note_on_c, 0, 67, 0
2, 24304, Note_on_c, 0, 69, 64
2, 24330, Note_on_c, 0, 69, 0
2, 24334, Note_on_c, 0, 70, 64
2, 24349, Note_on_c, 0, 60, 0
2, 24360, Note_on_c, 0, 70, 0
2, 24364, Note_on_c, 0, 72, 64
2, 24390, Note_on_c, 0, 72, 0
2, 24394, Note_on_c, 0, 70, 64
2, 24420, Note_on_c, 0, 70, 0
2, 24424, Note_on_c, 0, 72, 64
2, 24424, Note_on_c, 0, 57, 64
2, 24476, Note_on_c, 0, 57, 0
2, 24476, Note_on_c, 0, 72, 0
2, 24484, Note_on_c, 0, 72, 64
2, 24484, Note_on_c, 0, 62, 64
2, 24536, Note_on_c, 0, 72, 0
2, 24544, Note_on_c, 0, 66, 64
2, 24589, Note_on_c, 0, 62, 0
2, 24596, Note_on_c, 0, 66, 0
2, 24604, Note_on_c, 0, 74, 64
2, 24604, Note_on_c, 0, 58, 64
2, 24634, Note_on_c, 0, 66, 64
2, 24634, Note_on_c, 0, 50, 64
2, 24660, Note_on_c, 0, 50, 0
2, 24660, Note_on_c, 0, 66, 0
2, 24664, Note_on_c, 0, 67, 64
2, 24664, Note_on_c, 0, 52, 64
2, 24690, Note_on_c, 0, 52, 0
2, 24690, Note_on_c, 0, 67, 0
2, 24694, Note_on_c, 0, 69, 64
2, 24694, Note_on_c, 0, 54, 64
2, 24709, Note_on_c, 0, 58, 0
2, 24709, Note_on_c, 0, 74, 0
2, 24720, Note_on_c, 0, 69, 0
2, 24720, Note_on_c, 0, 54, 0
2, 24724, Note_on_c, 0, 70, 64
2, 24724, Note_on_c, 0, 55, 64
2, 24750, Note_on_c, 0, 55, 0
2, 24750, Note_on_c, 0, 70, 0
2, 24754, Note_on_c, 0, 69, 64
2, 24754, Note_on_c, 0, 54, 64
2, 24780, Note_on_c, 0, 54, 0
2, 24780, Note_on_c, 0, 69, 0
2, 24784, Note_on_c, 0, 70, 64
2, 24784, Note_on_c, 0, 70, 64
2, 24784, Note_on_c, 0, 55, 64
2, 24784, Note_on_c, 0, 55, 64
2, 24836, Note_on_c, 0, 55, 0
2, 24836, Note_on_c, 0, 70, 0
2, 24836, Note_on_c, 0, 70, 0
2, 24836, Note_on_c, 0, 55, 0
2, 24844, Note_on_c, 0, 75, 64
2, 24844, Note_on_c, 0, 70, 64
2, 24844, Note_on_c, 0, 60, 64
2, 24844, Note_on_c, 0, 55, 64
2, 24896, Note_on_c, 0, 55, 0
2, 24896, Note_on_c, 0, 70, 0
2, 24904, Note_on_c, 0, 63, 64
2, 24904, Note_on_c, 0, 48, 64
2, 24949, Note_on_c, 0, 60, 0
2, 24949, Note_on_c, 0, 75, 0
2, 24956, Note_on_c, 0, 63, 0
2, 24956, Note_on_c, 0, 48, 0
2, 24964, Note_on_c, 0, 72, 64
2, 24964, Note_on_c, 0, 57, 64
2, 24994, Note_on_c, 0, 64, 64
2, 24994, Note_on_c, 0, 48, 64
2, 25020, Note_on_c, 0, 48, 0
2, 25020, Note_on_c, 0, 64, 0
2, 25024, Note_on_c, 0, 65, 64
2, 25024, Note_on_c, 0, 50, 64
2, 25050, Note_on_c, 0, 50, 0
2, 25050, Note_on_c, 0, 65, 0
2, 25054, Note_on_c, 0, 67, 64
2, 25054, Note_on_c, 0, 52, 64
2, 25069, Note_on_c, 0, 57, 0
2, 25069, Note_on_c, 0, 72, 0
2, 25080, Note_on_c, 0, 67, 0
2, 25080, Note_on_c, 0, 52, 0
2, 25084, Note_on_c, 0, 69, 64
2, 25084, Note_on_c, 0, 53, 64
2, 25110, Note_on_c, 0, 53, 0
2, 25110, Note_on_c, 0, 69, 0
2, 25114, Note_on_c, 0, 67, 64
2, 25114, Note_on_c, 0, 52, 64
2, 25140, Note_on_c, 0, 52, 0
2, 25140, Note_on_c, 0, 67, 0
2, 25144, Note_on_c, 0, 69, 64
2, 25144, Note_on_c, 0, 69, 64
2, 25144, Note_on_c, 0, 53, 64
2, 25144, Note_on_c, 0, 53, 64
2, 25196, Note_on_c, 0, 53, 0
2, 25196, Note_on_c, 0, 69, 0
2, 25196, Note_on_c, 0, 69, 0
2, 25196, Note_on_c, 0, 53, 0
2, 25204, Note_on_c, 0, 74, 64
2, 25204, Note_on_c, 0, 69, 64
2, 25204, Note_on_c, 0, 58, 64
2, 25204, Note_on_c, 0, 53, 64
2, 25256, Note_on_c, 0, 53, 0
2, 25256, Note_on_c, 0, 69, 0
2, 25264, Note_on_c, 0, 62, 64
2, 25264, Note_on_c, 0, 46, 64
2, 25309, Note_on_c, 0, 58, 0
2, 25309, Note_on_c, 0, 74, 0
2, 25316, Note_on_c, 0, 62, 0
2, 25316, Note_on_c, 0, 46, 0
2, 25324, Note_on_c, 0, 70, 64
2, 25324, Note_on_c, 0, 55, 64
2, 25354, Note_on_c, 0, 62, 64
2, 25354, Note_on_c, 0, 46, 64
2, 25380, Note_on_c, 0, 46, 0
2, 25380, Note_on_c, 0, 62, 0
2, 25384, Note_on_c, 0, 64, 64
2, 25384, Note_on_c, 0, 48, 64
2, 25410, Note_on_c, 0, 48, 0
2, 25410, Note_on_c, 0, 64, 0
2, 25414, Note_on_c, 0, 66, 64
2, 25414, Note_on_c, 0, 50, 64
2, 25429, Note_on_c, 0, 55, 0
2, 25429, Note_on_c, 0, 70, 0
2, 25440, Note_on_c, 0, 66, 0
2, 25440, Note_on_c, 0, 50, 0
2, 25444, Note_on_c, 0, 67, 64
2, 25444, Note_on_c, 0, 51, 64
2, 25470, Note_on_c, 0, 51, 0
2, 25470, Note_on_c, 0, 67, 0
2, 25474, Note_on_c, 0, 66, 64
2, 25474, Note_on_c, 0, 50, 64
2, 25500, Note_on_c, 0, 50, 0
2, 25500, Note_on_c, 0, 66, 0
2, 25504, Note_on_c, 0, 67, 64
2, 25504, Note_on_c, 0, 67, 64
2, 25504, Note_on_c, 0, 58, 64
2, 25504, Note_on_c, 0, 51, 64
2, 25556, Note_on_c, 0, 58, 0
2, 25556, Note_on_c, 0, 67, 0
2, 25564, Note_on_c, 0, 72, 64
2, 25564, Note_on_c, 0, 57, 64
2, 25590, Note_on_c, 0, 51, 0
2, 25594, Note_on_c, 0, 50, 64
2, 25616, Note_on_c, 0, 67, 0
2, 25616, Note_on_c, 0, 57, 0
2, 25616, Note_on_c, 0, 72, 0
2, 25620, Note_on_c, 0, 50, 0
2, 25624, Note_on_c, 0, 72, 64
2, 25624, Note_on_c, 0, 70, 64
2, 25624, Note_on_c, 0, 55, 64
2, 25624, Note_on_c, 0, 51, 64
2, 25650, Note_on_c, 0, 51, 0
2, 25654, Note_on_c, 0, 50, 64
2, 25676, Note_on_c, 0, 72, 0
2, 25676, Note_on_c, 0, 55, 0
2, 25676, Note_on_c, 0, 70, 0
2, 25680, Note_on_c, 0, 50, 0
2, 25684, Note_on_c, 0, 72, 64
2, 25684, Note_on_c, 0, 69, 64
2, 25684, Note_on_c, 0, 63, 64
2, 25684, Note_on_c, 0, 48, 64
2, 25710, Note_on_c, 0, 48, 0
2, 25714, Note_on_c, 0, 46, 64
2, 25736, Note_on_c, 0, 72, 0
2, 25736, Note_on_c, 0, 63, 0
2, 25736, Note_on_c, 0, 69, 0
2, 25740, Note_on_c, 0, 46, 0
2, 25744, Note_on_c, 0, 72, 64
2, 25744, Note_on_c, 0, 67, 64
2, 25744, Note_on_c, 0, 63, 64
2, 25744, Note_on_c, 0, 48, 64
2, 25770, Note_on_c, 0, 48, 0
2, 25774, Note_on_c, 0, 46, 64
2, 25796, Note_on_c, 0, 72, 0
2, 25796, Note_on_c, 0, 63, 0
2, 25796, Note_on_c, 0, 67, 0
2, 25800, Note_on_c, 0, 46, 0
2, 25804, Note_on_c, 0, 72, 64
2, 25804, Note_on_c, 0, 66, 64
2, 25804, Note_on_c, 0, 63, 64
2, 25804, Note_on_c, 0, 45, 64
2, 25830, Note_on_c, 0, 45, 0
2, 25834, Note_on_c, 0, 43, 64
2, 25856, Note_on_c, 0, 72, 0
2, 25856, Note_on_c, 0, 63, 0
2, 25856, Note_on_c, 0, 66, 0
2, 25860, Note_on_c, 0, 43, 0
2, 25864, Note_on_c, 0, 72, 64
2, 25864, Note_on_c, 0, 67, 64
2, 25864, Note_on_c, 0, 63, 64
2, 25864, Note_on_c, 0, 45, 64
2, 25890, Note_on_c, 0, 45, 0
2, 25894, Note_on_c, 0, 43, 64
2, 25916, Note_on_c, 0, 72, 0
2, 25916, Note_on_c, 0, 63, 0
2, 25916, Note_on_c, 0, 67, 0
2, 25920, Note_on_c, 0, 43, 0
2, 25924, Note_on_c, 0, 72, 64
2, 25924, Note_on_c, 0, 69, 64
2, 25924, Note_on_c, 0, 62, 64
2, 25924, Note_on_c, 0, 42, 64
2, 26029, Note_on_c, 0, 42, 0
2, 26029, Note_on_c, 0, 72, 0
2, 26029, Note_on_c, 0, 69, 0
2, 26029, Note_on_c, 0, 62, 0
2, 26104, Note_on_c, 0, 74, 64
2, 26104, Note_on_c, 0, 66, 64
2, 26104, Note_on_c, 0, 62, 64
2, 26104, Note_on_c, 0, 38, 64
2, 26156, Note_on_c, 0, 38, 0
2, 26156, Note_on_c, 0, 74, 0
2, 26156, Note_on_c, 0, 66, 0
2, 26156, Note_on_c, 0, 62, 0
2, 26164, Note_on_c, 0, 70, 64
2, 26164, Note_on_c, 0, 67, 64
2, 26164, Note_on_c, 0, 62, 64
2, 26164, Note_on_c, 0, 43, 64
2, 26269, Note_on_c, 0, 43, 0
2, 26269, Note_on_c, 0, 70, 0
2, 26269, Note_on_c, 0, 67, 0
2, 26269, Note_on_c, 0, 62, 0
2, 26344, Note_on_c, 0, 72, 64
2, 26344, Note_on_c, 0, 69, 64
2, 26344, Note_on_c, 0, 63, 64
2, 26344, Note_on_c, 0, 48, 64
2, 26396, Note_on_c, 0, 48, 0
2, 26396, Note_on_c, 0, 72, 0
2, 26396, Note_on_c, 0, 69, 0
2, 26396, Note_on_c, 0, 63, 0
2, 26404, Note_on_c, 0, 70, 64
2, 26404, Note_on_c, 0, 67, 64
2, 26404, Note_on_c, 0, 62, 64
2, 26404, Note_on_c, 0, 50, 64
2, 26456, Note_on_c, 0, 70, 0
2, 26464, Note_on_c, 0, 69, 64
2, 26509, Note_on_c, 0, 67, 0
2, 26509, Note_on_c, 0, 50, 0
2, 26509, Note_on_c, 0, 62, 0
2, 26516, Note_on_c, 0, 69, 0
2, 26524, Note_on_c, 0, 69, 64
2, 26524, Note_on_c, 0, 66, 64
2, 26524, Note_on_c, 0, 60, 64
2, 26524, Note_on_c, 0, 38, 64
2, 26576, Note_on_c, 0, 69, 0
2, 26584, Note_on_c, 0, 67, 64
2, 26629, Note_on_c, 0, 66, 0
2, 26629, Note_on_c, 0, 38, 0
2, 26629, Note_on_c, 0, 60, 0
2, 26636, Note_on_c, 0, 67, 0
2, 26644, Note_on_c, 0, 67, 64
2, 26644, Note_on_c, 0, 62, 64
2, 26644, Note_on_c, 0, 58, 64
2, 26644, Note_on_c, 0, 43, 64
2, 26670, Note_on_c, 0, 43, 0
2, 26674, Note_on_c, 0, 50, 64
2, 26700, Note_on_c, 0, 50, 0
2, 26704, Note_on_c, 0, 52, 64
2, 26730, Note_on_c, 0, 52, 0
2, 26734, Note_on_c, 0, 54, 64
2, 26749, Note_on_c, 0, 67, 0
2, 26749, Note_on_c, 0, 58, 0
2, 26749, Note_on_c, 0, 62, 0
2, 26760, Note_on_c, 0, 54, 0
2, 26764, Note_on_c, 0, 55, 64
2, 26790, Note_on_c, 0, 55, 0
2, 26794, Note_on_c, 0, 69, 64
2, 26794, Note_on_c, 0, 54, 64
2, 26820, Note_on_c, 0, 54, 0
2, 26820, Note_on_c, 0, 69, 0
2, 26824, Note_on_c, 0, 70, 64
2, 26824, Note_on_c, 0, 55, 64
2, 26850, Note_on_c, 0, 70, 0
2, 26854, Note_on_c, 0, 72, 64
2, 26876, Note_on_c, 0, 55, 0
2, 26880, Note_on_c, 0, 72, 0
2, 26884, Note_on_c, 0, 74, 64
2, 26884, Note_on_c, 0, 55, 64
2, 26910, Note_on_c, 0, 74, 0
2, 26914, Note_on_c, 0, 72, 64
2, 26914, Note_on_c, 0, 57, 64
2, 26940, Note_on_c, 0, 57, 0
2, 26940, Note_on_c, 0, 72, 0
2, 26944, Note_on_c, 0, 74, 64
2, 26944, Note_on_c, 0, 58, 64
2, 26970, Note_on_c, 0, 58, 0
2, 26970, Note_on_c, 0, 74, 0
2, 26974, Note_on_c, 0, 75, 64
2, 26974, Note_on_c, 0, 60, 64
2, 27000, Note_on_c, 0, 60, 0
2, 27000, Note_on_c, 0, 75, 0
2, 27004, Note_on_c, 0, 69, 64
2, 27004, Note_on_c, 0, 62, 64
2, 27030, Note_on_c, 0, 62, 0
2, 27034, Note_on_c, 0, 64, 64
2, 27034, Note_on_c, 0, 61, 64
2, 27056, Note_on_c, 0, 55, 0
2, 27060, Note_on_c, 0, 61, 0
2, 27060, Note_on_c, 0, 64, 0
2, 27064, Note_on_c, 0, 65, 64
2, 27064, Note_on_c, 0, 62, 64
2, 27064, Note_on_c, 0, 53, 64
2, 27090, Note_on_c, 0, 65, 0
2, 27094, Note_on_c, 0, 67, 64
2, 27109, Note_on_c, 0, 69, 0
2, 27116, Note_on_c, 0, 53, 0
2, 27120, Note_on_c, 0, 67, 0
2, 27124, Note_on_c, 0, 69, 64
2, 27124, Note_on_c, 0, 53, 64
2, 27150, Note_on_c, 0, 69, 0
2, 27154, Note_on_c, 0, 70, 64
2, 27154, Note_on_c, 0, 67, 64
2, 27176, Note_on_c, 0, 62, 0
2, 27180, Note_on_c, 0, 67, 0
2, 27180, Note_on_c, 0, 70, 0
2, 27184, Note_on_c, 0, 72, 64
2, 27184, Note_on_c, 0, 69, 64
2, 27184, Note_on_c, 0, 57, 64
2, 27210, Note_on_c, 0, 57, 0
2, 27210, Note_on_c, 0, 72, 0
2, 27214, Note_on_c, 0, 74, 64
2, 27214, Note_on_c, 0, 59, 64
2, 27240, Note_on_c, 0, 59, 0
2, 27240, Note_on_c, 0, 74, 0
2, 27244, Note_on_c, 0, 75, 64
2, 27244, Note_on_c, 0, 60, 64
2, 27270, Note_on_c, 0, 60, 0
2, 27270, Note_on_c, 0, 75, 0
2, 27274, Note_on_c, 0, 74, 64
2, 27274, Note_on_c, 0, 59, 64
2, 27296, Note_on_c, 0, 69, 0
2, 27300, Note_on_c, 0, 59, 0
2, 27300, Note_on_c, 0, 74, 0
2, 27304, Note_on_c, 0, 75, 64
2, 27304, Note_on_c, 0, 68, 64
2, 27304, Note_on_c, 0, 60, 64
2, 27330, Note_on_c, 0, 75, 0
2, 27334, Note_on_c, 0, 77, 64
2, 27356, Note_on_c, 0, 60, 0
2, 27356, Note_on_c, 0, 68, 0
2, 27360, Note_on_c, 0, 77, 0
2, 27364, Note_on_c, 0, 71, 64
2, 27364, Note_on_c, 0, 67, 64
2, 27364, Note_on_c, 0, 62, 64
2, 27390, Note_on_c, 0, 71, 0
2, 27390, Note_on_c, 0, 53, 0
2, 27394, Note_on_c, 0, 67, 64
2, 27394, Note_on_c, 0, 47, 64
2, 27416, Note_on_c, 0, 67, 0
2, 27420, Note_on_c, 0, 47, 0
2, 27420, Note_on_c, 0, 67, 0
2, 27424, Note_on_c, 0, 69, 64
2, 27424, Note_on_c, 0, 48, 64
2, 27450, Note_on_c, 0, 48, 0
2, 27450, Note_on_c, 0, 69, 0
2, 27454, Note_on_c, 0, 71, 64
2, 27454, Note_on_c, 0, 50, 64
2, 27469, Note_on_c, 0, 62, 0
2, 27480, Note_on_c, 0, 50, 0
2, 27480, Note_on_c, 0, 71, 0
2, 27484, Note_on_c, 0, 72, 64
2, 27484, Note_on_c, 0, 51, 64
2, 27510, Note_on_c, 0, 51, 0
2, 27510, Note_on_c, 0, 72, 0
2, 27514, Note_on_c, 0, 71, 64
2, 27514, Note_on_c, 0, 50, 64
2, 27540, Note_on_c, 0, 50, 0
2, 27540, Note_on_c, 0, 71, 0
2, 27544, Note_on_c, 0, 72, 64
2, 27544, Note_on_c, 0, 51, 64
2, 27574, Note_on_c, 0, 70, 64
2, 27574, Note_on_c, 0, 62, 64
2, 27596, Note_on_c, 0, 51, 0
2, 27596, Note_on_c, 0, 72, 0
2, 27600, Note_on_c, 0, 70, 0
2, 27600, Note_on_c, 0, 62, 0
2, 27604, Note_on_c, 0, 72, 64
2, 27604, Note_on_c, 0, 69, 64
2, 27604, Note_on_c, 0, 60, 64
2, 27604, Note_on_c, 0, 51, 64
2, 27630, Note_on_c, 0, 60, 0
2, 27630, Note_on_c, 0, 69, 0
2, 27634, Note_on_c, 0, 67, 64
2, 27634, Note_on_c, 0, 58, 64
2, 27656, Note_on_c, 0, 72, 0
2, 27660, Note_on_c, 0, 58, 0
2, 27660, Note_on_c, 0, 67, 0
2, 27664, Note_on_c, 0, 72, 64
2, 27664, Note_on_c, 0, 69, 64
2, 27664, Note_on_c, 0, 60, 64
2, 27690, Note_on_c, 0, 60, 0
2, 27690, Note_on_c, 0, 69, 0
2, 27694, Note_on_c, 0, 67, 64
2, 27694, Note_on_c, 0, 58, 64
2, 27716, Note_on_c, 0, 72, 0
2, 27720, Note_on_c, 0, 58, 0
2, 27720, Note_on_c, 0, 67, 0
2, 27724, Note_on_c, 0, 72, 64
2, 27724, Note_on_c, 0, 66, 64
2, 27724, Note_on_c, 0, 57, 64
2, 27829, Note_on_c, 0, 57, 0
2, 27829, Note_on_c, 0, 51, 0
2, 27829, Note_on_c, 0, 72, 0
2, 27829, Note_on_c, 0, 66, 0
2, 27904, Note_on_c, 0, 78, 64
2, 27904, Note_on_c, 0, 69, 64
2, 27904, Note_on_c, 0, 60, 64
2, 27904, Note_on_c, 0, 51, 64
2, 27956, Note_on_c, 0, 51, 0
2, 27956, Note_on_c, 0, 78, 0
2, 27956, Note_on_c, 0, 69, 0
2, 27956, Note_on_c, 0, 60, 0
2, 27964, Note_on_c, 0, 79, 64
2, 27964, Note_on_c, 0, 70, 64
2, 27964, Note_on_c, 0, 62, 64
2, 27964, Note_on_c, 0, 50, 64
2, 28069, Note_on_c, 0, 50, 0
2, 28069, Note_on_c, 0, 79, 0
2, 28069, Note_on_c, 0, 70, 0
2, 28069, Note_on_c, 0, 62, 0
2, 28114, Note_on_c, 0, 82, 64
2, 28140, Note_on_c, 0, 82, 0
2, 28144, Note_on_c, 0, 81, 64
2, 28144, Note_on_c, 0, 49, 64
2, 28170, Note_on_c, 0, 81, 0
2, 28174, Note_on_c, 0, 79, 64
2, 28196, Note_on_c, 0, 49, 0
2, 28200, Note_on_c, 0, 79, 0
2, 28204, Note_on_c, 0, 78, 64
2, 28204, Note_on_c, 0, 50, 64
2, 28230, Note_on_c, 0, 78, 0
2, 28234, Note_on_c, 0, 76, 64
2, 28234, Note_on_c, 0, 57, 64
2, 28260, Note_on_c, 0, 57, 0
2, 28260, Note_on_c, 0, 76, 0
2, 28264, Note_on_c, 0, 74, 64
2, 28264, Note_on_c, 0, 58, 64
2, 28290, Note_on_c, 0, 58, 0
2, 28290, Note_on_c, 0, 74, 0
2, 28294, Note_on_c, 0, 72, 64
2, 28294, Note_on_c, 0, 60, 64
2, 28309, Note_on_c, 0, 50, 0
2, 28320, Note_on_c, 0, 60, 0
2, 28320, Note_on_c, 0, 72, 0
2, 28324, Note_on_c, 0, 70, 64
2, 28324, Note_on_c, 0, 62, 64
2, 28350, Note_on_c, 0, 70, 0
2, 28354, Note_on_c, 0, 69, 64
2, 28380, Note_on_c, 0, 69, 0
2, 28384, Note_on_c, 0, 67, 64
2, 28384, Note_on_c, 0, 50, 64
2, 28410, Note_on_c, 0, 67, 0
2, 28414, Note_on_c, 0, 66, 64
2, 28436, Note_on_c, 0, 50, 0
2, 28440, Note_on_c, 0, 66, 0
2, 28444, Note_on_c, 0, 67, 64
2, 28444, Note_on_c, 0, 51, 64
2, 28470, Note_on_c, 0, 62, 0
2, 28474, Note_on_c, 0, 59, 64
2, 28474, Note_on_c, 0, 55, 64
2, 28500, Note_on_c, 0, 55, 0
2, 28500, Note_on_c, 0, 59, 0
2, 28504, Note_on_c, 0, 60, 64
2, 28504, Note_on_c, 0, 57, 64
2, 28530, Note_on_c, 0, 57, 0
2, 28530, Note_on_c, 0, 60, 0
2, 28534, Note_on_c, 0, 62, 64
2, 28534, Note_on_c, 0, 59, 64
2, 28549, Note_on_c, 0, 51, 0
2, 28560, Note_on_c, 0, 59, 0
2, 28560, Note_on_c, 0, 62, 0
2, 28564, Note_on_c, 0, 63, 64
2, 28564, Note_on_c, 0, 60, 64
2, 28564, Note_on_c, 0, 48, 64
2, 28590, Note_on_c, 0, 60, 0
2, 28590, Note_on_c, 0, 63, 0
2, 28594, Note_on_c, 0, 62, 64
2, 28594, Note_on_c, 0, 59, 64
2, 28620, Note_on_c, 0, 59, 0
2, 28620, Note_on_c, 0, 62, 0
2, 28624, Note_on_c, 0, 63, 64
2, 28624, Note_on_c, 0, 60, 64
2, 28669, Note_on_c, 0, 48, 0
2, 28676, Note_on_c, 0, 60, 0
2, 28676, Note_on_c, 0, 63, 0
2, 28684, Note_on_c, 0, 63, 64
2, 28684, Note_on_c, 0, 60, 64
2, 28714, Note_on_c, 0, 45, 64
2, 28740, Note_on_c, 0, 45, 0
2, 28744, Note_on_c, 0, 47, 64
2, 28770, Note_on_c, 0, 47, 0
2, 28774, Note_on_c, 0, 48, 64
2, 28789, Note_on_c, 0, 60, 0
2, 28789, Note_on_c, 0, 63, 0
2, 28800, Note_on_c, 0, 48, 0
2, 28804, Note_on_c, 0, 50, 64
2, 28834, Note_on_c, 0, 60, 64
2, 28834, Note_on_c, 0, 57, 64
2, 28860, Note_on_c, 0, 57, 0
2, 28860, Note_on_c, 0, 60, 0
2, 28864, Note_on_c, 0, 62, 64
2, 28864, Note_on_c, 0, 59, 64
2, 28890, Note_on_c, 0, 59, 0
2, 28890, Note_on_c, 0, 62, 0
2, 28894, Note_on_c, 0, 63, 64
2, 28894, Note_on_c, 0, 60, 64
2, 28909, Note_on_c, 0, 50, 0
2, 28920, Note_on_c, 0, 60, 0
2, 28920, Note_on_c, 0, 63, 0
2, 28924, Note_on_c, 0, 65, 64
2, 28924, Note_on_c, 0, 62, 64
2, 28924, Note_on_c, 0, 47, 64
2, 28950, Note_on_c, 0, 62, 0
2, 28950, Note_on_c, 0, 65, 0
2, 28954, Note_on_c, 0, 63, 64
2, 28954, Note_on_c, 0, 60, 64
2, 28980, Note_on_c, 0, 60, 0
2, 28980, Note_on_c, 0, 63, 0
2, 28984, Note_on_c, 0, 65, 64
2, 28984, Note_on_c, 0, 62, 64
2, 29029, Note_on_c, 0, 47, 0
2, 29036, Note_on_c, 0, 62, 0
2, 29036, Note_on_c, 0, 65, 0
2, 29044, Note_on_c, 0, 65, 64
2, 29044, Note_on_c, 0, 62, 64
2, 29074, Note_on_c, 0, 43, 64
2, 29100, Note_on_c, 0, 43, 0
2, 29104, Note_on_c, 0, 45, 64
2, 29130, Note_on_c, 0, 45, 0
2, 29134, Note_on_c, 0, 47, 64
2, 29160, Note_on_c, 0, 47, 0
2, 29164, Note_on_c, 0, 48, 64
2, 29216, Note_on_c, 0, 48, 0
2, 29216, Note_on_c, 0, 62, 0
2, 29216, Note_on_c, 0, 65, 0
2, 29216, Note_on_c, 0, 67, 0
2, 29224, Note_on_c, 0, 68, 64
2, 29224, Note_on_c, 0, 65, 64
2, 29224, Note_on_c, 0, 48, 64
2, 29254, Note_on_c, 0, 74, 64
2, 29276, Note_on_c, 0, 48, 0
2, 29276, Note_on_c, 0, 68, 0
2, 29276, Note_on_c, 0, 65, 0
2, 29284, Note_on_c, 0, 67, 64
2, 29284, Note_on_c, 0, 63, 64
2, 29284, Note_on_c, 0, 48, 64
2, 29306, Note_on_c, 0, 74, 0
2, 29314, Note_on_c, 0, 72, 64
2, 29336, Note_on_c, 0, 67, 0
2, 29336, Note_on_c, 0, 48, 0
2, 29336, Note_on_c, 0, 63, 0
2, 29344, Note_on_c, 0, 65, 64
2, 29344, Note_on_c, 0, 62, 64
2, 29344, Note_on_c, 0, 48, 64
2, 29366, Note_on_c, 0, 72, 0
2, 29374, Note_on_c, 0, 70, 64
2, 29396, Note_on_c, 0, 65, 0
2, 29396, Note_on_c, 0, 48, 0
2, 29396, Note_on_c, 0, 62, 0
2, 29404, Note_on_c, 0, 63, 64
2, 29404, Note_on_c, 0, 60, 64
2, 29404, Note_on_c, 0, 48, 64
2, 29426, Note_on_c, 0, 70, 0
2, 29434, Note_on_c, 0, 69, 64
2, 29456, Note_on_c, 0, 48, 0
2, 29456, Note_on_c, 0, 60, 0
2, 29464, Note_on_c, 0, 58, 64
2, 29464, Note_on_c, 0, 48, 64
2, 29486, Note_on_c, 0, 69, 0
2, 29494, Note_on_c, 0, 67, 64
2, 29509, Note_on_c, 0, 63, 0
2, 29516, Note_on_c, 0, 48, 0
2, 29516, Note_on_c, 0, 58, 0
2, 29520, Note_on_c, 0, 67, 0
2, 29524, Note_on_c, 0, 66, 64
2, 29524, Note_on_c, 0, 62, 64
2, 29524, Note_on_c, 0, 57, 64
2, 29524, Note_on_c, 0, 48, 64
2, 29576, Note_on_c, 0, 48, 0
2, 29576, Note_on_c, 0, 57, 0
2, 29576, Note_on_c, 0, 66, 0
2, 29584, Note_on_c, 0, 72, 64
2, 29584, Note_on_c, 0, 46, 64
2, 29610, Note_on_c, 0, 46, 0
2, 29610, Note_on_c, 0, 72, 0
2, 29614, Note_on_c, 0, 74, 64
2, 29614, Note_on_c, 0, 45, 64
2, 29627, Note_on_c, 0, 74, 0
2, 29629, Note_on_c, 0, 62, 0
2, 29629, Note_on_c, 0, 75, 64
2, 29629, Note_on_c, 0, 75, 64
2, 29640, Note_on_c, 0, 45, 0
2, 29642, Note_on_c, 0, 75, 0
2, 29642, Note_on_c, 0, 75, 0
2, 29644, Note_on_c, 0, 74, 64
2, 29644, Note_on_c, 0, 46, 64
2, 29696, Note_on_c, 0, 46, 0
2, 29696, Note_on_c, 0, 74, 0
2, 29704, Note_on_c, 0, 67, 64
2, 29704, Note_on_c, 0, 63, 64
2, 29704, Note_on_c, 0, 58, 64
2, 29704, Note_on_c, 0, 48, 64
2, 29756, Note_on_c, 0, 48, 0
2, 29756, Note_on_c, 0, 58, 0
2, 29756, Note_on_c, 0, 63, 0
2, 29764, Note_on_c, 0, 62, 64
2, 29764, Note_on_c, 0, 57, 64
2, 29764, Note_on_c, 0, 50, 64
2, 29790, Note_on_c, 0, 57, 0
2, 29794, Note_on_c, 0, 58, 64
2, 29809, Note_on_c, 0, 67, 0
2, 29816, Note_on_c, 0, 50, 0
2, 29820, Note_on_c, 0, 58, 0
2, 29824, Note_on_c, 0, 66, 64
2, 29824, Note_on_c, 0, 60, 64
2, 29824, Note_on_c, 0, 38, 64
2, 29869, Note_on_c, 0, 62, 0
2, 29876, Note_on_c, 0, 66, 0
2, 29876, Note_on_c, 0, 38, 0
2, 29884, Note_on_c, 0, 67, 64
2, 29884, Note_on_c, 0, 62, 64
2, 29884, Note_on_c, 0, 43, 64
2, 29936, Note_on_c, 0, 60, 0
2, 29944, Note_on_c, 0, 59, 64
2, 29989, Note_on_c, 0, 67, 0
2, 29989, Note_on_c, 0, 43, 0
2, 29989, Note_on_c, 0, 62, 0
2, 29996, Note_on_c, 0, 59, 0
2, 29996, End_track
3, 0, Start_track
3, 0, MIDI_port, 0
3, 0, Title_t, "Fugue #16"
3, 0, End_track
4, 0, Start_track
4, 0, MIDI_port, 0
4, 0, Title_t, "from WTC II"
4, 0, End_track
5, 0, Start_track
5, 0, MIDI_port, 0
5, 0, Title_t, "by Yo Tomita"
5, 0, End_track
0, 0, End_of_file
