0, 0, Header, 1, 2, 120
1, 0, Start_track
1, 0, Time_signature, 3, 2, 24, 8
1, 0, Key_signature, -4, "major"
1, 0, Tempo, 810811
1, 0, Marker_t, "(c) Yo Tomita, 1997"
1, 26702, Tempo, 888889
1, 26764, Tempo, 923077
1, 26880, Tempo, 960000
1, 27000, Tempo, 1000000
1, 27120, Tempo, 1061947
1, 27208, Tempo, 1142857
1, 27240, Tempo, 1212121
1, 27322, Tempo, 1333333
1, 27322, End_track
2, 0, Start_track
2, 0, MIDI_port, 0
2, 0, Title_t, "BWV 886/1"
2, 0, Program_c, 0, 6
2, 4, Note_on_c, 0, 72, 64
2, 4, Note_on_c, 0, 68, 64
2, 4, Note_on_c, 0, 56, 64
2, 34, Note_on_c, 0, 63, 64
2, 56, Note_on_c, 0, 68, 0
2, 56, Note_on_c, 0, 72, 0
2, 64, Note_on_c, 0, 68, 64
2, 64, Note_on_c, 0, 72, 64
2, 82, Note_on_c, 0, 56, 0
2, 94, Note_on_c, 0, 58, 64
2, 107, Note_on_c, 0, 58, 0
2, 109, Note_on_c, 0, 60, 64
2, 122, Note_on_c, 0, 60, 0
2, 124, Note_on_c, 0, 51, 64
2, 150, Note_on_c, 0, 68, 0
2, 154, Note_on_c, 0, 67, 64
2, 176, Note_on_c, 0, 72, 0
2, 176, Note_on_c, 0, 63, 0
2, 180, Note_on_c, 0, 67, 0
2, 184, Note_on_c, 0, 68, 64
2, 184, Note_on_c, 0, 72, 64
2, 184, Note_on_c, 0, 63, 64
2, 202, Note_on_c, 0, 51, 0
2, 214, Note_on_c, 0, 55, 64
2, 227, Note_on_c, 0, 55, 0
2, 229, Note_on_c, 0, 56, 64
2, 242, Note_on_c, 0, 56, 0
2, 244, Note_on_c, 0, 48, 64
2, 270, Note_on_c, 0, 68, 0
2, 274, Note_on_c, 0, 67, 64
2, 296, Note_on_c, 0, 63, 0
2, 296, Note_on_c, 0, 72, 0
2, 300, Note_on_c, 0, 67, 0
2, 304, Note_on_c, 0, 68, 64
2, 304, Note_on_c, 0, 72, 64
2, 304, Note_on_c, 0, 63, 64
2, 322, Note_on_c, 0, 48, 0
2, 334, Note_on_c, 0, 49, 64
2, 347, Note_on_c, 0, 49, 0
2, 349, Note_on_c, 0, 51, 64
2, 356, Note_on_c, 0, 63, 0
2, 356, Note_on_c, 0, 68, 0
2, 356, Note_on_c, 0, 72, 0
2, 362, Note_on_c, 0, 51, 0
2, 364, Note_on_c, 0, 44, 64
2, 394, Note_on_c, 0, 68, 64
2, 416, Note_on_c, 0, 44, 0
2, 420, Note_on_c, 0, 68, 0
2, 424, Note_on_c, 0, 66, 64
2, 450, Note_on_c, 0, 66, 0
2, 454, Note_on_c, 0, 65, 64
2, 480, Note_on_c, 0, 65, 0
2, 484, Note_on_c, 0, 66, 64
2, 510, Note_on_c, 0, 66, 0
2, 514, Note_on_c, 0, 72, 64
2, 540, Note_on_c, 0, 72, 0
2, 544, Note_on_c, 0, 75, 64
2, 570, Note_on_c, 0, 75, 0
2, 574, Note_on_c, 0, 73, 64
2, 600, Note_on_c, 0, 73, 0
2, 604, Note_on_c, 0, 72, 64
2, 630, Note_on_c, 0, 72, 0
2, 634, Note_on_c, 0, 70, 64
2, 660, Note_on_c, 0, 70, 0
2, 664, Note_on_c, 0, 68, 64
2, 690, Note_on_c, 0, 68, 0
2, 694, Note_on_c, 0, 66, 64
2, 720, Note_on_c, 0, 66, 0
2, 724, Note_on_c, 0, 73, 64
2, 724, Note_on_c, 0, 65, 64
2, 724, Note_on_c, 0, 56, 64
2, 754, Note_on_c, 0, 68, 64
2, 776, Note_on_c, 0, 65, 0
2, 776, Note_on_c, 0, 73, 0
2, 784, Note_on_c, 0, 73, 64
2, 784, Note_on_c, 0, 65, 64
2, 802, Note_on_c, 0, 56, 0
2, 814, Note_on_c, 0, 60, 64
2, 827, Note_on_c, 0, 60, 0
2, 829, Note_on_c, 0, 61, 64
2, 842, Note_on_c, 0, 61, 0
2, 844, Note_on_c, 0, 53, 64
2, 870, Note_on_c, 0, 73, 0
2, 874, Note_on_c, 0, 72, 64
2, 896, Note_on_c, 0, 65, 0
2, 896, Note_on_c, 0, 68, 0
2, 900, Note_on_c, 0, 72, 0
2, 904, Note_on_c, 0, 68, 64
2, 904, Note_on_c, 0, 73, 64
2, 904, Note_on_c, 0, 65, 64
2, 922, Note_on_c, 0, 53, 0
2, 934, Note_on_c, 0, 54, 64
2, 947, Note_on_c, 0, 54, 0
2, 949, Note_on_c, 0, 56, 64
2, 962, Note_on_c, 0, 56, 0
2, 964, Note_on_c, 0, 49, 64
2, 990, Note_on_c, 0, 73, 0
2, 994, Note_on_c, 0, 72, 64
2, 1016, Note_on_c, 0, 65, 0
2, 1016, Note_on_c, 0, 68, 0
2, 1020, Note_on_c, 0, 72, 0
2, 1024, Note_on_c, 0, 68, 64
2, 1024, Note_on_c, 0, 73, 64
2, 1024, Note_on_c, 0, 65, 64
2, 1042, Note_on_c, 0, 49, 0
2, 1054, Note_on_c, 0, 51, 64
2, 1067, Note_on_c, 0, 51, 0
2, 1069, Note_on_c, 0, 53, 64
2, 1076, Note_on_c, 0, 65, 0
2, 1076, Note_on_c, 0, 68, 0
2, 1076, Note_on_c, 0, 73, 0
2, 1082, Note_on_c, 0, 53, 0
2, 1084, Note_on_c, 0, 44, 64
2, 1114, Note_on_c, 0, 75, 64
2, 1136, Note_on_c, 0, 44, 0
2, 1140, Note_on_c, 0, 75, 0
2, 1144, Note_on_c, 0, 73, 64
2, 1170, Note_on_c, 0, 73, 0
2, 1174, Note_on_c, 0, 72, 64
2, 1200, Note_on_c, 0, 72, 0
2, 1204, Note_on_c, 0, 73, 64
2, 1230, Note_on_c, 0, 73, 0
2, 1234, Note_on_c, 0, 68, 64
2, 1260, Note_on_c, 0, 68, 0
2, 1264, Note_on_c, 0, 77, 64
2, 1290, Note_on_c, 0, 77, 0
2, 1294, Note_on_c, 0, 75, 64
2, 1320, Note_on_c, 0, 75, 0
2, 1324, Note_on_c, 0, 73, 64
2, 1350, Note_on_c, 0, 73, 0
2, 1354, Note_on_c, 0, 72, 64
2, 1380, Note_on_c, 0, 72, 0
2, 1384, Note_on_c, 0, 70, 64
2, 1410, Note_on_c, 0, 70, 0
2, 1414, Note_on_c, 0, 68, 64
2, 1440, Note_on_c, 0, 68, 0
2, 1444, Note_on_c, 0, 67, 64
2, 1470, Note_on_c, 0, 67, 0
2, 1474, Note_on_c, 0, 65, 64
2, 1474, Note_on_c, 0, 56, 64
2, 1500, Note_on_c, 0, 56, 0
2, 1500, Note_on_c, 0, 65, 0
2, 1504, Note_on_c, 0, 63, 64
2, 1504, Note_on_c, 0, 55, 64
2, 1530, Note_on_c, 0, 55, 0
2, 1530, Note_on_c, 0, 63, 0
2, 1534, Note_on_c, 0, 62, 64
2, 1534, Note_on_c, 0, 53, 64
2, 1560, Note_on_c, 0, 53, 0
2, 1560, Note_on_c, 0, 62, 0
2, 1564, Note_on_c, 0, 63, 64
2, 1564, Note_on_c, 0, 55, 64
2, 1590, Note_on_c, 0, 55, 0
2, 1594, Note_on_c, 0, 58, 64
2, 1620, Note_on_c, 0, 58, 0
2, 1624, Note_on_c, 0, 51, 64
2, 1642, Note_on_c, 0, 63, 0
2, 1650, Note_on_c, 0, 51, 0
2, 1654, Note_on_c, 0, 67, 64
2, 1654, Note_on_c, 0, 53, 64
2, 1667, Note_on_c, 0, 67, 0
2, 1669, Note_on_c, 0, 70, 64
2, 1680, Note_on_c, 0, 53, 0
2, 1682, Note_on_c, 0, 70, 0
2, 1684, Note_on_c, 0, 73, 64
2, 1684, Note_on_c, 0, 55, 64
2, 1710, Note_on_c, 0, 55, 0
2, 1714, Note_on_c, 0, 56, 64
2, 1740, Note_on_c, 0, 56, 0
2, 1744, Note_on_c, 0, 58, 64
2, 1762, Note_on_c, 0, 73, 0
2, 1770, Note_on_c, 0, 58, 0
2, 1774, Note_on_c, 0, 68, 64
2, 1774, Note_on_c, 0, 60, 64
2, 1800, Note_on_c, 0, 60, 0
2, 1800, Note_on_c, 0, 68, 0
2, 1804, Note_on_c, 0, 67, 64
2, 1804, Note_on_c, 0, 61, 64
2, 1830, Note_on_c, 0, 61, 0
2, 1830, Note_on_c, 0, 67, 0
2, 1834, Note_on_c, 0, 72, 64
2, 1834, Note_on_c, 0, 63, 64
2, 1860, Note_on_c, 0, 63, 0
2, 1860, Note_on_c, 0, 72, 0
2, 1864, Note_on_c, 0, 70, 64
2, 1864, Note_on_c, 0, 61, 64
2, 1890, Note_on_c, 0, 61, 0
2, 1890, Note_on_c, 0, 70, 0
2, 1894, Note_on_c, 0, 68, 64
2, 1894, Note_on_c, 0, 60, 64
2, 1920, Note_on_c, 0, 60, 0
2, 1920, Note_on_c, 0, 68, 0
2, 1924, Note_on_c, 0, 70, 64
2, 1924, Note_on_c, 0, 61, 64
2, 1950, Note_on_c, 0, 61, 0
2, 1954, Note_on_c, 0, 65, 64
2, 1980, Note_on_c, 0, 65, 0
2, 1984, Note_on_c, 0, 58, 64
2, 2002, Note_on_c, 0, 70, 0
2, 2010, Note_on_c, 0, 58, 0
2, 2014, Note_on_c, 0, 73, 64
2, 2014, Note_on_c, 0, 60, 64
2, 2027, Note_on_c, 0, 73, 0
2, 2029, Note_on_c, 0, 77, 64
2, 2040, Note_on_c, 0, 60, 0
2, 2042, Note_on_c, 0, 77, 0
2, 2044, Note_on_c, 0, 82, 64
2, 2044, Note_on_c, 0, 61, 64
2, 2070, Note_on_c, 0, 61, 0
2, 2074, Note_on_c, 0, 63, 64
2, 2100, Note_on_c, 0, 63, 0
2, 2104, Note_on_c, 0, 65, 64
2, 2122, Note_on_c, 0, 82, 0
2, 2130, Note_on_c, 0, 65, 0
2, 2134, Note_on_c, 0, 73, 64
2, 2134, Note_on_c, 0, 67, 64
2, 2160, Note_on_c, 0, 67, 0
2, 2160, Note_on_c, 0, 73, 0
2, 2164, Note_on_c, 0, 72, 64
2, 2164, Note_on_c, 0, 68, 64
2, 2190, Note_on_c, 0, 72, 0
2, 2194, Note_on_c, 0, 77, 64
2, 2220, Note_on_c, 0, 77, 0
2, 2224, Note_on_c, 0, 75, 64
2, 2237, Note_on_c, 0, 68, 0
2, 2239, Note_on_c, 0, 67, 64
2, 2250, Note_on_c, 0, 75, 0
2, 2252, Note_on_c, 0, 67, 0
2, 2254, Note_on_c, 0, 73, 64
2, 2254, Note_on_c, 0, 68, 64
2, 2267, Note_on_c, 0, 68, 0
2, 2269, Note_on_c, 0, 70, 64
2, 2280, Note_on_c, 0, 73, 0
2, 2282, Note_on_c, 0, 70, 0
2, 2284, Note_on_c, 0, 75, 64
2, 2284, Note_on_c, 0, 72, 64
2, 2310, Note_on_c, 0, 75, 0
2, 2314, Note_on_c, 0, 80, 64
2, 2340, Note_on_c, 0, 80, 0
2, 2344, Note_on_c, 0, 75, 64
2, 2362, Note_on_c, 0, 72, 0
2, 2370, Note_on_c, 0, 75, 0
2, 2374, Note_on_c, 0, 73, 64
2, 2374, Note_on_c, 0, 70, 64
2, 2400, Note_on_c, 0, 70, 0
2, 2400, Note_on_c, 0, 73, 0
2, 2404, Note_on_c, 0, 72, 64
2, 2404, Note_on_c, 0, 68, 64
2, 2430, Note_on_c, 0, 72, 0
2, 2434, Note_on_c, 0, 75, 64
2, 2460, Note_on_c, 0, 75, 0
2, 2464, Note_on_c, 0, 72, 64
2, 2482, Note_on_c, 0, 68, 0
2, 2490, Note_on_c, 0, 72, 0
2, 2494, Note_on_c, 0, 70, 64
2, 2494, Note_on_c, 0, 67, 64
2, 2520, Note_on_c, 0, 67, 0
2, 2520, Note_on_c, 0, 70, 0
2, 2524, Note_on_c, 0, 68, 64
2, 2524, Note_on_c, 0, 65, 64
2, 2550, Note_on_c, 0, 68, 0
2, 2554, Note_on_c, 0, 73, 64
2, 2580, Note_on_c, 0, 73, 0
2, 2584, Note_on_c, 0, 72, 64
2, 2597, Note_on_c, 0, 65, 0
2, 2599, Note_on_c, 0, 64, 64
2, 2610, Note_on_c, 0, 72, 0
2, 2612, Note_on_c, 0, 64, 0
2, 2614, Note_on_c, 0, 70, 64
2, 2614, Note_on_c, 0, 65, 64
2, 2627, Note_on_c, 0, 65, 0
2, 2629, Note_on_c, 0, 67, 64
2, 2640, Note_on_c, 0, 70, 0
2, 2642, Note_on_c, 0, 67, 0
2, 2644, Note_on_c, 0, 72, 64
2, 2644, Note_on_c, 0, 68, 64
2, 2670, Note_on_c, 0, 72, 0
2, 2674, Note_on_c, 0, 77, 64
2, 2700, Note_on_c, 0, 77, 0
2, 2704, Note_on_c, 0, 72, 64
2, 2722, Note_on_c, 0, 68, 0
2, 2730, Note_on_c, 0, 72, 0
2, 2734, Note_on_c, 0, 70, 64
2, 2734, Note_on_c, 0, 67, 64
2, 2760, Note_on_c, 0, 67, 0
2, 2760, Note_on_c, 0, 70, 0
2, 2764, Note_on_c, 0, 68, 64
2, 2764, Note_on_c, 0, 65, 64
2, 2790, Note_on_c, 0, 68, 0
2, 2794, Note_on_c, 0, 72, 64
2, 2820, Note_on_c, 0, 72, 0
2, 2824, Note_on_c, 0, 68, 64
2, 2842, Note_on_c, 0, 65, 0
2, 2850, Note_on_c, 0, 68, 0
2, 2854, Note_on_c, 0, 67, 64
2, 2854, Note_on_c, 0, 63, 64
2, 2880, Note_on_c, 0, 63, 0
2, 2880, Note_on_c, 0, 67, 0
2, 2884, Note_on_c, 0, 65, 64
2, 2884, Note_on_c, 0, 62, 64
2, 2910, Note_on_c, 0, 65, 0
2, 2914, Note_on_c, 0, 70, 64
2, 2940, Note_on_c, 0, 70, 0
2, 2944, Note_on_c, 0, 68, 64
2, 2957, Note_on_c, 0, 62, 0
2, 2959, Note_on_c, 0, 60, 64
2, 2970, Note_on_c, 0, 68, 0
2, 2972, Note_on_c, 0, 60, 0
2, 2974, Note_on_c, 0, 67, 64
2, 2974, Note_on_c, 0, 62, 64
2, 2987, Note_on_c, 0, 62, 0
2, 2989, Note_on_c, 0, 63, 64
2, 3000, Note_on_c, 0, 67, 0
2, 3002, Note_on_c, 0, 63, 0
2, 3004, Note_on_c, 0, 68, 64
2, 3004, Note_on_c, 0, 65, 64
2, 3030, Note_on_c, 0, 68, 0
2, 3034, Note_on_c, 0, 72, 64
2, 3060, Note_on_c, 0, 72, 0
2, 3064, Note_on_c, 0, 68, 64
2, 3082, Note_on_c, 0, 65, 0
2, 3090, Note_on_c, 0, 68, 0
2, 3094, Note_on_c, 0, 67, 64
2, 3094, Note_on_c, 0, 63, 64
2, 3120, Note_on_c, 0, 63, 0
2, 3120, Note_on_c, 0, 67, 0
2, 3124, Note_on_c, 0, 65, 64
2, 3124, Note_on_c, 0, 62, 64
2, 3150, Note_on_c, 0, 65, 0
2, 3154, Note_on_c, 0, 68, 64
2, 3180, Note_on_c, 0, 68, 0
2, 3184, Note_on_c, 0, 65, 64
2, 3202, Note_on_c, 0, 62, 0
2, 3210, Note_on_c, 0, 65, 0
2, 3214, Note_on_c, 0, 63, 64
2, 3214, Note_on_c, 0, 60, 64
2, 3240, Note_on_c, 0, 60, 0
2, 3240, Note_on_c, 0, 63, 0
2, 3244, Note_on_c, 0, 62, 64
2, 3244, Note_on_c, 0, 62, 64
2, 3244, Note_on_c, 0, 58, 64
2, 3270, Note_on_c, 0, 62, 0
2, 3274, Note_on_c, 0, 65, 64
2, 3274, Note_on_c, 0, 65, 64
2, 3300, Note_on_c, 0, 65, 0
2, 3304, Note_on_c, 0, 68, 64
2, 3317, Note_on_c, 0, 58, 0
2, 3319, Note_on_c, 0, 55, 64
2, 3332, Note_on_c, 0, 55, 0
2, 3334, Note_on_c, 0, 53, 64
2, 3347, Note_on_c, 0, 53, 0
2, 3349, Note_on_c, 0, 51, 64
2, 3362, Note_on_c, 0, 51, 0
2, 3364, Note_on_c, 0, 50, 64
2, 3390, Note_on_c, 0, 68, 0
2, 3394, Note_on_c, 0, 67, 64
2, 3416, Note_on_c, 0, 62, 0
2, 3416, Note_on_c, 0, 65, 0
2, 3420, Note_on_c, 0, 67, 0
2, 3424, Note_on_c, 0, 62, 64
2, 3424, Note_on_c, 0, 65, 64
2, 3424, Note_on_c, 0, 68, 64
2, 3442, Note_on_c, 0, 50, 0
2, 3454, Note_on_c, 0, 51, 64
2, 3467, Note_on_c, 0, 51, 0
2, 3469, Note_on_c, 0, 53, 64
2, 3482, Note_on_c, 0, 53, 0
2, 3484, Note_on_c, 0, 46, 64
2, 3510, Note_on_c, 0, 62, 0
2, 3510, Note_on_c, 0, 68, 0
2, 3510, Note_on_c, 0, 65, 0
2, 3514, Note_on_c, 0, 77, 64
2, 3540, Note_on_c, 0, 77, 0
2, 3544, Note_on_c, 0, 70, 64
2, 3562, Note_on_c, 0, 46, 0
2, 3570, Note_on_c, 0, 70, 0
2, 3574, Note_on_c, 0, 68, 64
2, 3574, Note_on_c, 0, 48, 64
2, 3587, Note_on_c, 0, 48, 0
2, 3589, Note_on_c, 0, 50, 64
2, 3600, Note_on_c, 0, 68, 0
2, 3602, Note_on_c, 0, 50, 0
2, 3604, Note_on_c, 0, 67, 64
2, 3604, Note_on_c, 0, 51, 64
2, 3617, Note_on_c, 0, 67, 0
2, 3619, Note_on_c, 0, 68, 64
2, 3632, Note_on_c, 0, 68, 0
2, 3634, Note_on_c, 0, 70, 64
2, 3660, Note_on_c, 0, 70, 0
2, 3664, Note_on_c, 0, 63, 64
2, 3677, Note_on_c, 0, 51, 0
2, 3679, Note_on_c, 0, 50, 64
2, 3692, Note_on_c, 0, 50, 0
2, 3694, Note_on_c, 0, 48, 64
2, 3707, Note_on_c, 0, 48, 0
2, 3709, Note_on_c, 0, 46, 64
2, 3724, Note_on_c, 0, 46, 0
2, 3724, Note_on_c, 0, 44, 64
2, 3750, Note_on_c, 0, 63, 0
2, 3754, Note_on_c, 0, 60, 64
2, 3780, Note_on_c, 0, 60, 0
2, 3784, Note_on_c, 0, 65, 64
2, 3802, Note_on_c, 0, 44, 0
2, 3810, Note_on_c, 0, 65, 0
2, 3814, Note_on_c, 0, 68, 64
2, 3814, Note_on_c, 0, 41, 64
2, 3840, Note_on_c, 0, 41, 0
2, 3840, Note_on_c, 0, 68, 0
2, 3844, Note_on_c, 0, 67, 64
2, 3844, Note_on_c, 0, 46, 64
2, 3870, Note_on_c, 0, 67, 0
2, 3874, Note_on_c, 0, 65, 64
2, 3900, Note_on_c, 0, 65, 0
2, 3904, Note_on_c, 0, 63, 64
2, 3922, Note_on_c, 0, 46, 0
2, 3930, Note_on_c, 0, 63, 0
2, 3934, Note_on_c, 0, 62, 64
2, 3934, Note_on_c, 0, 47, 64
2, 3960, Note_on_c, 0, 47, 0
2, 3960, Note_on_c, 0, 62, 0
2, 3964, Note_on_c, 0, 63, 64
2, 3964, Note_on_c, 0, 48, 64
2, 3977, Note_on_c, 0, 63, 0
2, 3979, Note_on_c, 0, 62, 64
2, 3992, Note_on_c, 0, 62, 0
2, 3994, Note_on_c, 0, 60, 64
2, 4020, Note_on_c, 0, 60, 0
2, 4024, Note_on_c, 0, 68, 64
2, 4037, Note_on_c, 0, 48, 0
2, 4039, Note_on_c, 0, 51, 64
2, 4052, Note_on_c, 0, 51, 0
2, 4054, Note_on_c, 0, 53, 64
2, 4067, Note_on_c, 0, 53, 0
2, 4069, Note_on_c, 0, 55, 64
2, 4082, Note_on_c, 0, 55, 0
2, 4084, Note_on_c, 0, 56, 64
2, 4110, Note_on_c, 0, 68, 0
2, 4114, Note_on_c, 0, 63, 64
2, 4140, Note_on_c, 0, 63, 0
2, 4144, Note_on_c, 0, 68, 64
2, 4162, Note_on_c, 0, 56, 0
2, 4170, Note_on_c, 0, 68, 0
2, 4174, Note_on_c, 0, 72, 64
2, 4174, Note_on_c, 0, 53, 64
2, 4200, Note_on_c, 0, 53, 0
2, 4200, Note_on_c, 0, 72, 0
2, 4204, Note_on_c, 0, 70, 64
2, 4204, Note_on_c, 0, 50, 64
2, 4230, Note_on_c, 0, 70, 0
2, 4234, Note_on_c, 0, 68, 64
2, 4260, Note_on_c, 0, 68, 0
2, 4264, Note_on_c, 0, 67, 64
2, 4282, Note_on_c, 0, 50, 0
2, 4290, Note_on_c, 0, 67, 0
2, 4294, Note_on_c, 0, 65, 64
2, 4294, Note_on_c, 0, 58, 64
2, 4320, Note_on_c, 0, 58, 0
2, 4320, Note_on_c, 0, 65, 0
2, 4324, Note_on_c, 0, 67, 64
2, 4324, Note_on_c, 0, 51, 64
2, 4337, Note_on_c, 0, 67, 0
2, 4339, Note_on_c, 0, 65, 64
2, 4352, Note_on_c, 0, 65, 0
2, 4354, Note_on_c, 0, 63, 64
2, 4380, Note_on_c, 0, 63, 0
2, 4384, Note_on_c, 0, 72, 64
2, 4397, Note_on_c, 0, 51, 0
2, 4399, Note_on_c, 0, 55, 64
2, 4412, Note_on_c, 0, 55, 0
2, 4414, Note_on_c, 0, 56, 64
2, 4427, Note_on_c, 0, 56, 0
2, 4429, Note_on_c, 0, 58, 64
2, 4442, Note_on_c, 0, 58, 0
2, 4444, Note_on_c, 0, 60, 64
2, 4470, Note_on_c, 0, 72, 0
2, 4474, Note_on_c, 0, 67, 64
2, 4500, Note_on_c, 0, 67, 0
2, 4504, Note_on_c, 0, 72, 64
2, 4522, Note_on_c, 0, 60, 0
2, 4530, Note_on_c, 0, 72, 0
2, 4534, Note_on_c, 0, 75, 64
2, 4534, Note_on_c, 0, 56, 64
2, 4560, Note_on_c, 0, 56, 0
2, 4560, Note_on_c, 0, 75, 0
2, 4564, Note_on_c, 0, 74, 64
2, 4564, Note_on_c, 0, 53, 64
2, 4590, Note_on_c, 0, 74, 0
2, 4594, Note_on_c, 0, 72, 64
2, 4620, Note_on_c, 0, 72, 0
2, 4624, Note_on_c, 0, 70, 64
2, 4642, Note_on_c, 0, 53, 0
2, 4650, Note_on_c, 0, 70, 0
2, 4654, Note_on_c, 0, 68, 64
2, 4654, Note_on_c, 0, 62, 64
2, 4680, Note_on_c, 0, 62, 0
2, 4680, Note_on_c, 0, 68, 0
2, 4684, Note_on_c, 0, 70, 64
2, 4684, Note_on_c, 0, 55, 64
2, 4697, Note_on_c, 0, 70, 0
2, 4699, Note_on_c, 0, 68, 64
2, 4712, Note_on_c, 0, 68, 0
2, 4714, Note_on_c, 0, 67, 64
2, 4740, Note_on_c, 0, 67, 0
2, 4744, Note_on_c, 0, 75, 64
2, 4757, Note_on_c, 0, 55, 0
2, 4759, Note_on_c, 0, 58, 64
2, 4772, Note_on_c, 0, 58, 0
2, 4774, Note_on_c, 0, 60, 64
2, 4787, Note_on_c, 0, 60, 0
2, 4789, Note_on_c, 0, 62, 64
2, 4802, Note_on_c, 0, 62, 0
2, 4804, Note_on_c, 0, 63, 64
2, 4830, Note_on_c, 0, 75, 0
2, 4834, Note_on_c, 0, 70, 64
2, 4860, Note_on_c, 0, 70, 0
2, 4864, Note_on_c, 0, 75, 64
2, 4882, Note_on_c, 0, 63, 0
2, 4890, Note_on_c, 0, 75, 0
2, 4894, Note_on_c, 0, 79, 64
2, 4894, Note_on_c, 0, 60, 64
2, 4920, Note_on_c, 0, 60, 0
2, 4920, Note_on_c, 0, 79, 0
2, 4924, Note_on_c, 0, 77, 64
2, 4924, Note_on_c, 0, 56, 64
2, 4950, Note_on_c, 0, 77, 0
2, 4954, Note_on_c, 0, 75, 64
2, 4980, Note_on_c, 0, 75, 0
2, 4984, Note_on_c, 0, 74, 64
2, 5002, Note_on_c, 0, 56, 0
2, 5010, Note_on_c, 0, 74, 0
2, 5014, Note_on_c, 0, 72, 64
2, 5014, Note_on_c, 0, 65, 64
2, 5040, Note_on_c, 0, 65, 0
2, 5040, Note_on_c, 0, 72, 0
2, 5044, Note_on_c, 0, 74, 64
2, 5044, Note_on_c, 0, 56, 64
2, 5044, Note_on_c, 0, 58, 64
2, 5044, Note_on_c, 0, 65, 64
2, 5057, Note_on_c, 0, 74, 0
2, 5059, Note_on_c, 0, 75, 64
2, 5072, Note_on_c, 0, 75, 0
2, 5074, Note_on_c, 0, 77, 64
2, 5100, Note_on_c, 0, 77, 0
2, 5104, Note_on_c, 0, 70, 64
2, 5130, Note_on_c, 0, 70, 0
2, 5134, Note_on_c, 0, 72, 64
2, 5149, Note_on_c, 0, 65, 0
2, 5149, Note_on_c, 0, 56, 0
2, 5149, Note_on_c, 0, 58, 0
2, 5160, Note_on_c, 0, 72, 0
2, 5164, Note_on_c, 0, 74, 64
2, 5190, Note_on_c, 0, 74, 0
2, 5194, Note_on_c, 0, 75, 64
2, 5220, Note_on_c, 0, 75, 0
2, 5224, Note_on_c, 0, 77, 64
2, 5239, Note_on_c, 0, 63, 64
2, 5250, Note_on_c, 0, 77, 0
2, 5252, Note_on_c, 0, 63, 0
2, 5254, Note_on_c, 0, 79, 64
2, 5254, Note_on_c, 0, 62, 64
2, 5267, Note_on_c, 0, 62, 0
2, 5269, Note_on_c, 0, 60, 64
2, 5280, Note_on_c, 0, 79, 0
2, 5282, Note_on_c, 0, 60, 0
2, 5284, Note_on_c, 0, 80, 64
2, 5284, Note_on_c, 0, 58, 64
2, 5310, Note_on_c, 0, 80, 0
2, 5314, Note_on_c, 0, 77, 64
2, 5340, Note_on_c, 0, 77, 0
2, 5344, Note_on_c, 0, 75, 64
2, 5357, Note_on_c, 0, 58, 0
2, 5359, Note_on_c, 0, 60, 64
2, 5370, Note_on_c, 0, 75, 0
2, 5372, Note_on_c, 0, 60, 0
2, 5374, Note_on_c, 0, 74, 64
2, 5374, Note_on_c, 0, 58, 64
2, 5387, Note_on_c, 0, 58, 0
2, 5389, Note_on_c, 0, 56, 64
2, 5400, Note_on_c, 0, 74, 0
2, 5402, Note_on_c, 0, 56, 0
2, 5404, Note_on_c, 0, 82, 64
2, 5404, Note_on_c, 0, 55, 64
2, 5430, Note_on_c, 0, 82, 0
2, 5434, Note_on_c, 0, 79, 64
2, 5447, Note_on_c, 0, 79, 0
2, 5449, Note_on_c, 0, 77, 64
2, 5462, Note_on_c, 0, 77, 0
2, 5464, Note_on_c, 0, 75, 64
2, 5477, Note_on_c, 0, 75, 0
2, 5479, Note_on_c, 0, 77, 64
2, 5482, Note_on_c, 0, 55, 0
2, 5492, Note_on_c, 0, 77, 0
2, 5494, Note_on_c, 0, 79, 64
2, 5494, Note_on_c, 0, 51, 64
2, 5520, Note_on_c, 0, 51, 0
2, 5520, Note_on_c, 0, 79, 0
2, 5524, Note_on_c, 0, 68, 64
2, 5524, Note_on_c, 0, 60, 64
2, 5550, Note_on_c, 0, 68, 0
2, 5554, Note_on_c, 0, 77, 64
2, 5580, Note_on_c, 0, 77, 0
2, 5584, Note_on_c, 0, 74, 64
2, 5602, Note_on_c, 0, 60, 0
2, 5610, Note_on_c, 0, 74, 0
2, 5614, Note_on_c, 0, 75, 64
2, 5614, Note_on_c, 0, 56, 64
2, 5640, Note_on_c, 0, 56, 0
2, 5640, Note_on_c, 0, 75, 0
2, 5644, Note_on_c, 0, 67, 64
2, 5644, Note_on_c, 0, 58, 64
2, 5670, Note_on_c, 0, 67, 0
2, 5674, Note_on_c, 0, 75, 64
2, 5700, Note_on_c, 0, 75, 0
2, 5704, Note_on_c, 0, 65, 64
2, 5722, Note_on_c, 0, 58, 0
2, 5730, Note_on_c, 0, 65, 0
2, 5734, Note_on_c, 0, 74, 64
2, 5734, Note_on_c, 0, 46, 64
2, 5760, Note_on_c, 0, 46, 0
2, 5760, Note_on_c, 0, 74, 0
2, 5764, Note_on_c, 0, 75, 64
2, 5764, Note_on_c, 0, 67, 64
2, 5764, Note_on_c, 0, 51, 64
2, 5794, Note_on_c, 0, 70, 64
2, 5816, Note_on_c, 0, 67, 0
2, 5816, Note_on_c, 0, 75, 0
2, 5824, Note_on_c, 0, 75, 64
2, 5824, Note_on_c, 0, 67, 64
2, 5842, Note_on_c, 0, 51, 0
2, 5854, Note_on_c, 0, 53, 64
2, 5867, Note_on_c, 0, 53, 0
2, 5869, Note_on_c, 0, 55, 64
2, 5882, Note_on_c, 0, 55, 0
2, 5884, Note_on_c, 0, 46, 64
2, 5910, Note_on_c, 0, 75, 0
2, 5914, Note_on_c, 0, 74, 64
2, 5936, Note_on_c, 0, 67, 0
2, 5936, Note_on_c, 0, 70, 0
2, 5940, Note_on_c, 0, 74, 0
2, 5944, Note_on_c, 0, 70, 64
2, 5944, Note_on_c, 0, 75, 64
2, 5944, Note_on_c, 0, 67, 64
2, 5962, Note_on_c, 0, 46, 0
2, 5974, Note_on_c, 0, 50, 64
2, 5987, Note_on_c, 0, 50, 0
2, 5989, Note_on_c, 0, 51, 64
2, 6002, Note_on_c, 0, 51, 0
2, 6004, Note_on_c, 0, 43, 64
2, 6030, Note_on_c, 0, 75, 0
2, 6034, Note_on_c, 0, 74, 64
2, 6056, Note_on_c, 0, 67, 0
2, 6056, Note_on_c, 0, 70, 0
2, 6060, Note_on_c, 0, 74, 0
2, 6064, Note_on_c, 0, 70, 64
2, 6064, Note_on_c, 0, 75, 64
2, 6064, Note_on_c, 0, 67, 64
2, 6082, Note_on_c, 0, 43, 0
2, 6094, Note_on_c, 0, 44, 64
2, 6107, Note_on_c, 0, 44, 0
2, 6109, Note_on_c, 0, 46, 64
2, 6116, Note_on_c, 0, 67, 0
2, 6116, Note_on_c, 0, 70, 0
2, 6116, Note_on_c, 0, 75, 0
2, 6122, Note_on_c, 0, 46, 0
2, 6124, Note_on_c, 0, 39, 64
2, 6154, Note_on_c, 0, 75, 64
2, 6176, Note_on_c, 0, 39, 0
2, 6180, Note_on_c, 0, 75, 0
2, 6184, Note_on_c, 0, 73, 64
2, 6210, Note_on_c, 0, 73, 0
2, 6214, Note_on_c, 0, 72, 64
2, 6240, Note_on_c, 0, 72, 0
2, 6244, Note_on_c, 0, 73, 64
2, 6270, Note_on_c, 0, 73, 0
2, 6274, Note_on_c, 0, 79, 64
2, 6300, Note_on_c, 0, 79, 0
2, 6304, Note_on_c, 0, 82, 64
2, 6330, Note_on_c, 0, 82, 0
2, 6334, Note_on_c, 0, 80, 64
2, 6360, Note_on_c, 0, 80, 0
2, 6364, Note_on_c, 0, 79, 64
2, 6390, Note_on_c, 0, 79, 0
2, 6394, Note_on_c, 0, 77, 64
2, 6420, Note_on_c, 0, 77, 0
2, 6424, Note_on_c, 0, 75, 64
2, 6450, Note_on_c, 0, 75, 0
2, 6454, Note_on_c, 0, 73, 64
2, 6480, Note_on_c, 0, 73, 0
2, 6484, Note_on_c, 0, 72, 64
2, 6484, Note_on_c, 0, 68, 64
2, 6484, Note_on_c, 0, 51, 64
2, 6514, Note_on_c, 0, 63, 64
2, 6536, Note_on_c, 0, 68, 0
2, 6536, Note_on_c, 0, 72, 0
2, 6544, Note_on_c, 0, 68, 64
2, 6544, Note_on_c, 0, 72, 64
2, 6562, Note_on_c, 0, 51, 0
2, 6574, Note_on_c, 0, 55, 64
2, 6587, Note_on_c, 0, 55, 0
2, 6589, Note_on_c, 0, 56, 64
2, 6602, Note_on_c, 0, 56, 0
2, 6604, Note_on_c, 0, 48, 64
2, 6630, Note_on_c, 0, 68, 0
2, 6634, Note_on_c, 0, 67, 64
2, 6656, Note_on_c, 0, 72, 0
2, 6656, Note_on_c, 0, 63, 0
2, 6660, Note_on_c, 0, 67, 0
2, 6664, Note_on_c, 0, 68, 64
2, 6664, Note_on_c, 0, 72, 64
2, 6664, Note_on_c, 0, 63, 64
2, 6682, Note_on_c, 0, 48, 0
2, 6694, Note_on_c, 0, 49, 64
2, 6707, Note_on_c, 0, 49, 0
2, 6709, Note_on_c, 0, 51, 64
2, 6722, Note_on_c, 0, 51, 0
2, 6724, Note_on_c, 0, 44, 64
2, 6750, Note_on_c, 0, 68, 0
2, 6754, Note_on_c, 0, 67, 64
2, 6776, Note_on_c, 0, 63, 0
2, 6776, Note_on_c, 0, 72, 0
2, 6780, Note_on_c, 0, 67, 0
2, 6784, Note_on_c, 0, 68, 64
2, 6784, Note_on_c, 0, 72, 64
2, 6784, Note_on_c, 0, 63, 64
2, 6802, Note_on_c, 0, 44, 0
2, 6814, Note_on_c, 0, 46, 64
2, 6827, Note_on_c, 0, 46, 0
2, 6829, Note_on_c, 0, 48, 64
2, 6836, Note_on_c, 0, 63, 0
2, 6836, Note_on_c, 0, 68, 0
2, 6836, Note_on_c, 0, 72, 0
2, 6842, Note_on_c, 0, 48, 0
2, 6844, Note_on_c, 0, 39, 64
2, 6874, Note_on_c, 0, 70, 64
2, 6896, Note_on_c, 0, 39, 0
2, 6900, Note_on_c, 0, 70, 0
2, 6904, Note_on_c, 0, 68, 64
2, 6930, Note_on_c, 0, 68, 0
2, 6934, Note_on_c, 0, 67, 64
2, 6960, Note_on_c, 0, 67, 0
2, 6964, Note_on_c, 0, 68, 64
2, 6990, Note_on_c, 0, 68, 0
2, 6994, Note_on_c, 0, 63, 64
2, 7020, Note_on_c, 0, 63, 0
2, 7024, Note_on_c, 0, 72, 64
2, 7050, Note_on_c, 0, 72, 0
2, 7054, Note_on_c, 0, 70, 64
2, 7080, Note_on_c, 0, 70, 0
2, 7084, Note_on_c, 0, 68, 64
2, 7110, Note_on_c, 0, 68, 0
2, 7114, Note_on_c, 0, 67, 64
2, 7140, Note_on_c, 0, 67, 0
2, 7144, Note_on_c, 0, 65, 64
2, 7170, Note_on_c, 0, 65, 0
2, 7174, Note_on_c, 0, 63, 64
2, 7200, Note_on_c, 0, 63, 0
2, 7204, Note_on_c, 0, 62, 64
2, 7230, Note_on_c, 0, 62, 0
2, 7234, Note_on_c, 0, 63, 64
2, 7234, Note_on_c, 0, 55, 64
2, 7260, Note_on_c, 0, 55, 0
2, 7260, Note_on_c, 0, 63, 0
2, 7264, Note_on_c, 0, 62, 64
2, 7264, Note_on_c, 0, 53, 64
2, 7290, Note_on_c, 0, 53, 0
2, 7290, Note_on_c, 0, 62, 0
2, 7294, Note_on_c, 0, 60, 64
2, 7294, Note_on_c, 0, 51, 64
2, 7320, Note_on_c, 0, 51, 0
2, 7320, Note_on_c, 0, 60, 0
2, 7324, Note_on_c, 0, 62, 64
2, 7324, Note_on_c, 0, 53, 64
2, 7350, Note_on_c, 0, 62, 0
2, 7354, Note_on_c, 0, 65, 64
2, 7380, Note_on_c, 0, 65, 0
2, 7384, Note_on_c, 0, 58, 64
2, 7402, Note_on_c, 0, 53, 0
2, 7410, Note_on_c, 0, 58, 0
2, 7414, Note_on_c, 0, 60, 64
2, 7414, Note_on_c, 0, 56, 64
2, 7427, Note_on_c, 0, 56, 0
2, 7429, Note_on_c, 0, 55, 64
2, 7440, Note_on_c, 0, 60, 0
2, 7442, Note_on_c, 0, 55, 0
2, 7444, Note_on_c, 0, 62, 64
2, 7444, Note_on_c, 0, 56, 64
2, 7470, Note_on_c, 0, 62, 0
2, 7474, Note_on_c, 0, 63, 64
2, 7500, Note_on_c, 0, 63, 0
2, 7504, Note_on_c, 0, 65, 64
2, 7522, Note_on_c, 0, 56, 0
2, 7530, Note_on_c, 0, 65, 0
2, 7534, Note_on_c, 0, 67, 64
2, 7534, Note_on_c, 0, 51, 64
2, 7560, Note_on_c, 0, 51, 0
2, 7560, Note_on_c, 0, 67, 0
2, 7564, Note_on_c, 0, 68, 64
2, 7564, Note_on_c, 0, 50, 64
2, 7590, Note_on_c, 0, 68, 0
2, 7594, Note_on_c, 0, 70, 64
2, 7620, Note_on_c, 0, 70, 0
2, 7624, Note_on_c, 0, 68, 64
2, 7637, Note_on_c, 0, 50, 0
2, 7639, Note_on_c, 0, 48, 64
2, 7650, Note_on_c, 0, 68, 0
2, 7652, Note_on_c, 0, 48, 0
2, 7654, Note_on_c, 0, 67, 64
2, 7654, Note_on_c, 0, 50, 64
2, 7667, Note_on_c, 0, 50, 0
2, 7669, Note_on_c, 0, 51, 64
2, 7680, Note_on_c, 0, 67, 0
2, 7682, Note_on_c, 0, 51, 0
2, 7684, Note_on_c, 0, 68, 64
2, 7684, Note_on_c, 0, 53, 64
2, 7710, Note_on_c, 0, 53, 0
2, 7710, Note_on_c, 0, 68, 0
2, 7714, Note_on_c, 0, 72, 64
2, 7714, Note_on_c, 0, 51, 64
2, 7740, Note_on_c, 0, 51, 0
2, 7740, Note_on_c, 0, 72, 0
2, 7744, Note_on_c, 0, 65, 64
2, 7744, Note_on_c, 0, 50, 64
2, 7770, Note_on_c, 0, 50, 0
2, 7770, Note_on_c, 0, 65, 0
2, 7774, Note_on_c, 0, 67, 64
2, 7774, Note_on_c, 0, 48, 64
2, 7800, Note_on_c, 0, 48, 0
2, 7800, Note_on_c, 0, 67, 0
2, 7804, Note_on_c, 0, 68, 64
2, 7804, Note_on_c, 0, 46, 64
2, 7830, Note_on_c, 0, 46, 0
2, 7830, Note_on_c, 0, 68, 0
2, 7834, Note_on_c, 0, 70, 64
2, 7834, Note_on_c, 0, 44, 64
2, 7860, Note_on_c, 0, 44, 0
2, 7860, Note_on_c, 0, 70, 0
2, 7864, Note_on_c, 0, 72, 64
2, 7864, Note_on_c, 0, 43, 64
2, 7890, Note_on_c, 0, 43, 0
2, 7890, Note_on_c, 0, 72, 0
2, 7894, Note_on_c, 0, 74, 64
2, 7894, Note_on_c, 0, 41, 64
2, 7920, Note_on_c, 0, 41, 0
2, 7920, Note_on_c, 0, 74, 0
2, 7924, Note_on_c, 0, 75, 64
2, 7924, Note_on_c, 0, 39, 64
2, 7950, Note_on_c, 0, 75, 0
2, 7954, Note_on_c, 0, 68, 64
2, 7980, Note_on_c, 0, 68, 0
2, 7984, Note_on_c, 0, 67, 64
2, 7997, Note_on_c, 0, 39, 0
2, 7999, Note_on_c, 0, 46, 64
2, 8010, Note_on_c, 0, 67, 0
2, 8012, Note_on_c, 0, 46, 0
2, 8014, Note_on_c, 0, 65, 64
2, 8014, Note_on_c, 0, 48, 64
2, 8027, Note_on_c, 0, 48, 0
2, 8029, Note_on_c, 0, 50, 64
2, 8040, Note_on_c, 0, 65, 0
2, 8042, Note_on_c, 0, 50, 0
2, 8044, Note_on_c, 0, 67, 64
2, 8044, Note_on_c, 0, 51, 64
2, 8070, Note_on_c, 0, 67, 0
2, 8074, Note_on_c, 0, 70, 64
2, 8100, Note_on_c, 0, 70, 0
2, 8104, Note_on_c, 0, 67, 64
2, 8117, Note_on_c, 0, 51, 0
2, 8119, Note_on_c, 0, 50, 64
2, 8130, Note_on_c, 0, 67, 0
2, 8132, Note_on_c, 0, 50, 0
2, 8134, Note_on_c, 0, 65, 64
2, 8134, Note_on_c, 0, 51, 64
2, 8147, Note_on_c, 0, 51, 0
2, 8149, Note_on_c, 0, 53, 64
2, 8160, Note_on_c, 0, 65, 0
2, 8162, Note_on_c, 0, 53, 0
2, 8164, Note_on_c, 0, 63, 64
2, 8164, Note_on_c, 0, 55, 64
2, 8190, Note_on_c, 0, 63, 0
2, 8194, Note_on_c, 0, 73, 64
2, 8220, Note_on_c, 0, 73, 0
2, 8224, Note_on_c, 0, 72, 64
2, 8237, Note_on_c, 0, 55, 0
2, 8239, Note_on_c, 0, 51, 64
2, 8250, Note_on_c, 0, 72, 0
2, 8252, Note_on_c, 0, 51, 0
2, 8254, Note_on_c, 0, 70, 64
2, 8254, Note_on_c, 0, 53, 64
2, 8267, Note_on_c, 0, 53, 0
2, 8269, Note_on_c, 0, 55, 64
2, 8280, Note_on_c, 0, 70, 0
2, 8282, Note_on_c, 0, 55, 0
2, 8284, Note_on_c, 0, 72, 64
2, 8284, Note_on_c, 0, 44, 64
2, 8310, Note_on_c, 0, 44, 0
2, 8314, Note_on_c, 0, 61, 64
2, 8340, Note_on_c, 0, 61, 0
2, 8344, Note_on_c, 0, 60, 64
2, 8362, Note_on_c, 0, 72, 0
2, 8370, Note_on_c, 0, 60, 0
2, 8374, Note_on_c, 0, 75, 64
2, 8374, Note_on_c, 0, 72, 64
2, 8374, Note_on_c, 0, 58, 64
2, 8400, Note_on_c, 0, 58, 0
2, 8400, Note_on_c, 0, 72, 0
2, 8400, Note_on_c, 0, 75, 0
2, 8404, Note_on_c, 0, 75, 64
2, 8404, Note_on_c, 0, 72, 64
2, 8404, Note_on_c, 0, 56, 64
2, 8430, Note_on_c, 0, 56, 0
2, 8434, Note_on_c, 0, 60, 64
2, 8460, Note_on_c, 0, 60, 0
2, 8464, Note_on_c, 0, 56, 64
2, 8482, Note_on_c, 0, 72, 0
2, 8482, Note_on_c, 0, 75, 0
2, 8490, Note_on_c, 0, 56, 0
2, 8494, Note_on_c, 0, 80, 64
2, 8494, Note_on_c, 0, 72, 64
2, 8494, Note_on_c, 0, 75, 64
2, 8494, Note_on_c, 0, 55, 64
2, 8520, Note_on_c, 0, 55, 0
2, 8520, Note_on_c, 0, 80, 0
2, 8520, Note_on_c, 0, 72, 0
2, 8520, Note_on_c, 0, 75, 0
2, 8524, Note_on_c, 0, 80, 64
2, 8524, Note_on_c, 0, 72, 64
2, 8524, Note_on_c, 0, 75, 64
2, 8524, Note_on_c, 0, 53, 64
2, 8550, Note_on_c, 0, 53, 0
2, 8554, Note_on_c, 0, 56, 64
2, 8580, Note_on_c, 0, 56, 0
2, 8584, Note_on_c, 0, 53, 64
2, 8610, Note_on_c, 0, 53, 0
2, 8614, Note_on_c, 0, 51, 64
2, 8640, Note_on_c, 0, 51, 0
2, 8644, Note_on_c, 0, 49, 64
2, 8670, Note_on_c, 0, 75, 0
2, 8670, Note_on_c, 0, 80, 0
2, 8670, Note_on_c, 0, 72, 0
2, 8674, Note_on_c, 0, 67, 64
2, 8700, Note_on_c, 0, 67, 0
2, 8704, Note_on_c, 0, 65, 64
2, 8717, Note_on_c, 0, 49, 0
2, 8719, Note_on_c, 0, 44, 64
2, 8730, Note_on_c, 0, 65, 0
2, 8732, Note_on_c, 0, 44, 0
2, 8734, Note_on_c, 0, 64, 64
2, 8734, Note_on_c, 0, 46, 64
2, 8747, Note_on_c, 0, 46, 0
2, 8749, Note_on_c, 0, 48, 64
2, 8760, Note_on_c, 0, 64, 0
2, 8762, Note_on_c, 0, 48, 0
2, 8764, Note_on_c, 0, 65, 64
2, 8764, Note_on_c, 0, 49, 64
2, 8790, Note_on_c, 0, 65, 0
2, 8794, Note_on_c, 0, 68, 64
2, 8820, Note_on_c, 0, 68, 0
2, 8824, Note_on_c, 0, 65, 64
2, 8837, Note_on_c, 0, 49, 0
2, 8839, Note_on_c, 0, 48, 64
2, 8850, Note_on_c, 0, 65, 0
2, 8852, Note_on_c, 0, 48, 0
2, 8854, Note_on_c, 0, 63, 64
2, 8854, Note_on_c, 0, 49, 64
2, 8867, Note_on_c, 0, 49, 0
2, 8869, Note_on_c, 0, 51, 64
2, 8880, Note_on_c, 0, 63, 0
2, 8882, Note_on_c, 0, 51, 0
2, 8884, Note_on_c, 0, 61, 64
2, 8884, Note_on_c, 0, 53, 64
2, 8910, Note_on_c, 0, 61, 0
2, 8914, Note_on_c, 0, 72, 64
2, 8940, Note_on_c, 0, 72, 0
2, 8944, Note_on_c, 0, 70, 64
2, 8957, Note_on_c, 0, 53, 0
2, 8959, Note_on_c, 0, 49, 64
2, 8970, Note_on_c, 0, 70, 0
2, 8972, Note_on_c, 0, 49, 0
2, 8974, Note_on_c, 0, 68, 64
2, 8974, Note_on_c, 0, 51, 64
2, 8987, Note_on_c, 0, 51, 0
2, 8989, Note_on_c, 0, 53, 64
2, 9000, Note_on_c, 0, 68, 0
2, 9002, Note_on_c, 0, 53, 0
2, 9004, Note_on_c, 0, 70, 64
2, 9004, Note_on_c, 0, 43, 64
2, 9030, Note_on_c, 0, 43, 0
2, 9034, Note_on_c, 0, 60, 64
2, 9060, Note_on_c, 0, 60, 0
2, 9064, Note_on_c, 0, 58, 64
2, 9082, Note_on_c, 0, 70, 0
2, 9090, Note_on_c, 0, 58, 0
2, 9094, Note_on_c, 0, 73, 64
2, 9094, Note_on_c, 0, 70, 64
2, 9094, Note_on_c, 0, 56, 64
2, 9120, Note_on_c, 0, 56, 0
2, 9120, Note_on_c, 0, 70, 0
2, 9120, Note_on_c, 0, 73, 0
2, 9124, Note_on_c, 0, 73, 64
2, 9124, Note_on_c, 0, 70, 64
2, 9124, Note_on_c, 0, 55, 64
2, 9150, Note_on_c, 0, 55, 0
2, 9154, Note_on_c, 0, 58, 64
2, 9180, Note_on_c, 0, 58, 0
2, 9184, Note_on_c, 0, 55, 64
2, 9202, Note_on_c, 0, 70, 0
2, 9202, Note_on_c, 0, 73, 0
2, 9210, Note_on_c, 0, 55, 0
2, 9214, Note_on_c, 0, 79, 64
2, 9214, Note_on_c, 0, 70, 64
2, 9214, Note_on_c, 0, 73, 64
2, 9214, Note_on_c, 0, 53, 64
2, 9240, Note_on_c, 0, 53, 0
2, 9240, Note_on_c, 0, 79, 0
2, 9240, Note_on_c, 0, 70, 0
2, 9240, Note_on_c, 0, 73, 0
2, 9244, Note_on_c, 0, 79, 64
2, 9244, Note_on_c, 0, 70, 64
2, 9244, Note_on_c, 0, 73, 64
2, 9244, Note_on_c, 0, 52, 64
2, 9270, Note_on_c, 0, 52, 0
2, 9274, Note_on_c, 0, 55, 64
2, 9300, Note_on_c, 0, 55, 0
2, 9304, Note_on_c, 0, 52, 64
2, 9330, Note_on_c, 0, 52, 0
2, 9334, Note_on_c, 0, 50, 64
2, 9360, Note_on_c, 0, 50, 0
2, 9364, Note_on_c, 0, 48, 64
2, 9390, Note_on_c, 0, 73, 0
2, 9390, Note_on_c, 0, 79, 0
2, 9390, Note_on_c, 0, 70, 0
2, 9394, Note_on_c, 0, 65, 64
2, 9420, Note_on_c, 0, 65, 0
2, 9424, Note_on_c, 0, 64, 64
2, 9437, Note_on_c, 0, 48, 0
2, 9439, Note_on_c, 0, 43, 64
2, 9450, Note_on_c, 0, 64, 0
2, 9452, Note_on_c, 0, 43, 0
2, 9454, Note_on_c, 0, 62, 64
2, 9454, Note_on_c, 0, 44, 64
2, 9467, Note_on_c, 0, 44, 0
2, 9469, Note_on_c, 0, 46, 64
2, 9480, Note_on_c, 0, 62, 0
2, 9482, Note_on_c, 0, 46, 0
2, 9484, Note_on_c, 0, 64, 64
2, 9484, Note_on_c, 0, 48, 64
2, 9510, Note_on_c, 0, 64, 0
2, 9514, Note_on_c, 0, 67, 64
2, 9540, Note_on_c, 0, 67, 0
2, 9544, Note_on_c, 0, 64, 64
2, 9557, Note_on_c, 0, 48, 0
2, 9559, Note_on_c, 0, 47, 64
2, 9570, Note_on_c, 0, 64, 0
2, 9572, Note_on_c, 0, 47, 0
2, 9574, Note_on_c, 0, 62, 64
2, 9574, Note_on_c, 0, 48, 64
2, 9587, Note_on_c, 0, 48, 0
2, 9589, Note_on_c, 0, 50, 64
2, 9600, Note_on_c, 0, 62, 0
2, 9602, Note_on_c, 0, 50, 0
2, 9604, Note_on_c, 0, 60, 64
2, 9604, Note_on_c, 0, 52, 64
2, 9630, Note_on_c, 0, 60, 0
2, 9634, Note_on_c, 0, 70, 64
2, 9660, Note_on_c, 0, 70, 0
2, 9664, Note_on_c, 0, 68, 64
2, 9677, Note_on_c, 0, 52, 0
2, 9679, Note_on_c, 0, 48, 64
2, 9690, Note_on_c, 0, 68, 0
2, 9692, Note_on_c, 0, 48, 0
2, 9694, Note_on_c, 0, 67, 64
2, 9694, Note_on_c, 0, 50, 64
2, 9707, Note_on_c, 0, 50, 0
2, 9709, Note_on_c, 0, 52, 64
2, 9720, Note_on_c, 0, 67, 0
2, 9722, Note_on_c, 0, 52, 0
2, 9724, Note_on_c, 0, 68, 64
2, 9724, Note_on_c, 0, 41, 64
2, 9750, Note_on_c, 0, 41, 0
2, 9754, Note_on_c, 0, 58, 64
2, 9780, Note_on_c, 0, 58, 0
2, 9784, Note_on_c, 0, 56, 64
2, 9802, Note_on_c, 0, 68, 0
2, 9810, Note_on_c, 0, 56, 0
2, 9814, Note_on_c, 0, 72, 64
2, 9814, Note_on_c, 0, 68, 64
2, 9814, Note_on_c, 0, 55, 64
2, 9840, Note_on_c, 0, 55, 0
2, 9840, Note_on_c, 0, 68, 0
2, 9840, Note_on_c, 0, 72, 0
2, 9844, Note_on_c, 0, 72, 64
2, 9844, Note_on_c, 0, 68, 64
2, 9844, Note_on_c, 0, 53, 64
2, 9870, Note_on_c, 0, 53, 0
2, 9874, Note_on_c, 0, 56, 64
2, 9900, Note_on_c, 0, 56, 0
2, 9904, Note_on_c, 0, 53, 64
2, 9922, Note_on_c, 0, 68, 0
2, 9922, Note_on_c, 0, 72, 0
2, 9930, Note_on_c, 0, 53, 0
2, 9934, Note_on_c, 0, 77, 64
2, 9934, Note_on_c, 0, 68, 64
2, 9934, Note_on_c, 0, 72, 64
2, 9934, Note_on_c, 0, 51, 64
2, 9960, Note_on_c, 0, 51, 0
2, 9960, Note_on_c, 0, 77, 0
2, 9960, Note_on_c, 0, 68, 0
2, 9960, Note_on_c, 0, 72, 0
2, 9964, Note_on_c, 0, 77, 64
2, 9964, Note_on_c, 0, 68, 64
2, 9964, Note_on_c, 0, 72, 64
2, 9964, Note_on_c, 0, 49, 64
2, 9990, Note_on_c, 0, 49, 0
2, 9994, Note_on_c, 0, 53, 64
2, 10020, Note_on_c, 0, 53, 0
2, 10024, Note_on_c, 0, 49, 64
2, 10050, Note_on_c, 0, 49, 0
2, 10054, Note_on_c, 0, 48, 64
2, 10080, Note_on_c, 0, 48, 0
2, 10084, Note_on_c, 0, 46, 64
2, 10110, Note_on_c, 0, 72, 0
2, 10110, Note_on_c, 0, 77, 0
2, 10110, Note_on_c, 0, 68, 0
2, 10114, Note_on_c, 0, 78, 64
2, 10140, Note_on_c, 0, 78, 0
2, 10144, Note_on_c, 0, 77, 64
2, 10157, Note_on_c, 0, 46, 0
2, 10159, Note_on_c, 0, 57, 64
2, 10170, Note_on_c, 0, 77, 0
2, 10172, Note_on_c, 0, 57, 0
2, 10174, Note_on_c, 0, 76, 64
2, 10174, Note_on_c, 0, 58, 64
2, 10187, Note_on_c, 0, 58, 0
2, 10189, Note_on_c, 0, 60, 64
2, 10200, Note_on_c, 0, 76, 0
2, 10202, Note_on_c, 0, 60, 0
2, 10204, Note_on_c, 0, 77, 64
2, 10204, Note_on_c, 0, 61, 64
2, 10230, Note_on_c, 0, 77, 0
2, 10234, Note_on_c, 0, 82, 64
2, 10260, Note_on_c, 0, 82, 0
2, 10264, Note_on_c, 0, 77, 64
2, 10277, Note_on_c, 0, 61, 0
2, 10279, Note_on_c, 0, 60, 64
2, 10290, Note_on_c, 0, 77, 0
2, 10292, Note_on_c, 0, 60, 0
2, 10294, Note_on_c, 0, 75, 64
2, 10294, Note_on_c, 0, 61, 64
2, 10307, Note_on_c, 0, 61, 0
2, 10309, Note_on_c, 0, 63, 64
2, 10320, Note_on_c, 0, 75, 0
2, 10322, Note_on_c, 0, 63, 0
2, 10324, Note_on_c, 0, 73, 64
2, 10324, Note_on_c, 0, 65, 64
2, 10350, Note_on_c, 0, 73, 0
2, 10354, Note_on_c, 0, 77, 64
2, 10376, Note_on_c, 0, 65, 0
2, 10380, Note_on_c, 0, 77, 0
2, 10384, Note_on_c, 0, 73, 64
2, 10410, Note_on_c, 0, 73, 0
2, 10414, Note_on_c, 0, 72, 64
2, 10440, Note_on_c, 0, 72, 0
2, 10444, Note_on_c, 0, 70, 64
2, 10470, Note_on_c, 0, 70, 0
2, 10474, Note_on_c, 0, 75, 64
2, 10500, Note_on_c, 0, 75, 0
2, 10504, Note_on_c, 0, 73, 64
2, 10519, Note_on_c, 0, 53, 64
2, 10530, Note_on_c, 0, 73, 0
2, 10532, Note_on_c, 0, 53, 0
2, 10534, Note_on_c, 0, 72, 64
2, 10534, Note_on_c, 0, 55, 64
2, 10547, Note_on_c, 0, 55, 0
2, 10549, Note_on_c, 0, 57, 64
2, 10560, Note_on_c, 0, 72, 0
2, 10562, Note_on_c, 0, 57, 0
2, 10564, Note_on_c, 0, 73, 64
2, 10564, Note_on_c, 0, 58, 64
2, 10590, Note_on_c, 0, 73, 0
2, 10594, Note_on_c, 0, 77, 64
2, 10620, Note_on_c, 0, 77, 0
2, 10624, Note_on_c, 0, 73, 64
2, 10637, Note_on_c, 0, 58, 0
2, 10639, Note_on_c, 0, 57, 64
2, 10650, Note_on_c, 0, 73, 0
2, 10652, Note_on_c, 0, 57, 0
2, 10654, Note_on_c, 0, 72, 64
2, 10654, Note_on_c, 0, 58, 64
2, 10667, Note_on_c, 0, 58, 0
2, 10669, Note_on_c, 0, 60, 64
2, 10680, Note_on_c, 0, 72, 0
2, 10682, Note_on_c, 0, 60, 0
2, 10684, Note_on_c, 0, 70, 64
2, 10684, Note_on_c, 0, 61, 64
2, 10710, Note_on_c, 0, 70, 0
2, 10714, Note_on_c, 0, 73, 64
2, 10736, Note_on_c, 0, 61, 0
2, 10740, Note_on_c, 0, 73, 0
2, 10744, Note_on_c, 0, 70, 64
2, 10770, Note_on_c, 0, 70, 0
2, 10774, Note_on_c, 0, 68, 64
2, 10800, Note_on_c, 0, 68, 0
2, 10804, Note_on_c, 0, 66, 64
2, 10830, Note_on_c, 0, 66, 0
2, 10834, Note_on_c, 0, 71, 64
2, 10860, Note_on_c, 0, 71, 0
2, 10864, Note_on_c, 0, 70, 64
2, 10879, Note_on_c, 0, 49, 64
2, 10890, Note_on_c, 0, 70, 0
2, 10892, Note_on_c, 0, 49, 0
2, 10894, Note_on_c, 0, 69, 64
2, 10894, Note_on_c, 0, 51, 64
2, 10907, Note_on_c, 0, 51, 0
2, 10909, Note_on_c, 0, 53, 64
2, 10920, Note_on_c, 0, 69, 0
2, 10922, Note_on_c, 0, 53, 0
2, 10924, Note_on_c, 0, 70, 64
2, 10924, Note_on_c, 0, 54, 64
2, 10950, Note_on_c, 0, 70, 0
2, 10954, Note_on_c, 0, 73, 64
2, 10980, Note_on_c, 0, 73, 0
2, 10984, Note_on_c, 0, 70, 64
2, 10997, Note_on_c, 0, 54, 0
2, 10999, Note_on_c, 0, 53, 64
2, 11010, Note_on_c, 0, 70, 0
2, 11012, Note_on_c, 0, 53, 0
2, 11014, Note_on_c, 0, 68, 64
2, 11014, Note_on_c, 0, 54, 64
2, 11027, Note_on_c, 0, 54, 0
2, 11029, Note_on_c, 0, 56, 64
2, 11040, Note_on_c, 0, 68, 0
2, 11042, Note_on_c, 0, 56, 0
2, 11044, Note_on_c, 0, 66, 64
2, 11044, Note_on_c, 0, 58, 64
2, 11070, Note_on_c, 0, 66, 0
2, 11074, Note_on_c, 0, 70, 64
2, 11096, Note_on_c, 0, 58, 0
2, 11100, Note_on_c, 0, 70, 0
2, 11104, Note_on_c, 0, 66, 64
2, 11130, Note_on_c, 0, 66, 0
2, 11134, Note_on_c, 0, 65, 64
2, 11160, Note_on_c, 0, 65, 0
2, 11164, Note_on_c, 0, 64, 64
2, 11194, Note_on_c, 0, 56, 64
2, 11220, Note_on_c, 0, 56, 0
2, 11224, Note_on_c, 0, 55, 64
2, 11237, Note_on_c, 0, 64, 0
2, 11239, Note_on_c, 0, 62, 64
2, 11250, Note_on_c, 0, 55, 0
2, 11252, Note_on_c, 0, 62, 0
2, 11254, Note_on_c, 0, 64, 64
2, 11254, Note_on_c, 0, 53, 64
2, 11267, Note_on_c, 0, 64, 0
2, 11269, Note_on_c, 0, 65, 64
2, 11280, Note_on_c, 0, 53, 0
2, 11282, Note_on_c, 0, 65, 0
2, 11284, Note_on_c, 0, 67, 64
2, 11284, Note_on_c, 0, 52, 64
2, 11310, Note_on_c, 0, 52, 0
2, 11314, Note_on_c, 0, 58, 64
2, 11340, Note_on_c, 0, 58, 0
2, 11344, Note_on_c, 0, 52, 64
2, 11357, Note_on_c, 0, 67, 0
2, 11359, Note_on_c, 0, 65, 64
2, 11370, Note_on_c, 0, 52, 0
2, 11372, Note_on_c, 0, 65, 0
2, 11374, Note_on_c, 0, 67, 64
2, 11374, Note_on_c, 0, 50, 64
2, 11387, Note_on_c, 0, 67, 0
2, 11389, Note_on_c, 0, 68, 64
2, 11400, Note_on_c, 0, 50, 0
2, 11402, Note_on_c, 0, 68, 0
2, 11404, Note_on_c, 0, 70, 64
2, 11404, Note_on_c, 0, 48, 64
2, 11430, Note_on_c, 0, 48, 0
2, 11434, Note_on_c, 0, 55, 64
2, 11456, Note_on_c, 0, 70, 0
2, 11460, Note_on_c, 0, 55, 0
2, 11464, Note_on_c, 0, 48, 64
2, 11490, Note_on_c, 0, 48, 0
2, 11494, Note_on_c, 0, 46, 64
2, 11520, Note_on_c, 0, 46, 0
2, 11524, Note_on_c, 0, 44, 64
2, 11539, Note_on_c, 0, 72, 64
2, 11552, Note_on_c, 0, 72, 0
2, 11554, Note_on_c, 0, 74, 64
2, 11567, Note_on_c, 0, 74, 0
2, 11569, Note_on_c, 0, 76, 64
2, 11582, Note_on_c, 0, 76, 0
2, 11584, Note_on_c, 0, 77, 64
2, 11597, Note_on_c, 0, 44, 0
2, 11599, Note_on_c, 0, 56, 64
2, 11612, Note_on_c, 0, 56, 0
2, 11614, Note_on_c, 0, 58, 64
2, 11627, Note_on_c, 0, 58, 0
2, 11629, Note_on_c, 0, 60, 64
2, 11642, Note_on_c, 0, 60, 0
2, 11644, Note_on_c, 0, 61, 64
2, 11657, Note_on_c, 0, 77, 0
2, 11659, Note_on_c, 0, 72, 64
2, 11672, Note_on_c, 0, 72, 0
2, 11674, Note_on_c, 0, 70, 64
2, 11687, Note_on_c, 0, 70, 0
2, 11689, Note_on_c, 0, 68, 64
2, 11702, Note_on_c, 0, 68, 0
2, 11704, Note_on_c, 0, 70, 64
2, 11722, Note_on_c, 0, 61, 0
2, 11730, Note_on_c, 0, 70, 0
2, 11734, Note_on_c, 0, 73, 64
2, 11734, Note_on_c, 0, 58, 64
2, 11760, Note_on_c, 0, 58, 0
2, 11760, Note_on_c, 0, 73, 0
2, 11764, Note_on_c, 0, 67, 64
2, 11764, Note_on_c, 0, 60, 64
2, 11790, Note_on_c, 0, 67, 0
2, 11794, Note_on_c, 0, 70, 64
2, 11824, Note_on_c, 0, 65, 64
2, 11842, Note_on_c, 0, 60, 0
2, 11850, Note_on_c, 0, 65, 0
2, 11854, Note_on_c, 0, 64, 64
2, 11854, Note_on_c, 0, 48, 64
2, 11880, Note_on_c, 0, 48, 0
2, 11880, Note_on_c, 0, 64, 0
2, 11884, Note_on_c, 0, 65, 64
2, 11884, Note_on_c, 0, 53, 64
2, 11914, Note_on_c, 0, 60, 64
2, 11936, Note_on_c, 0, 65, 0
2, 11936, Note_on_c, 0, 70, 0
2, 11944, Note_on_c, 0, 65, 64
2, 11944, Note_on_c, 0, 68, 64
2, 11962, Note_on_c, 0, 53, 0
2, 11974, Note_on_c, 0, 55, 64
2, 11987, Note_on_c, 0, 55, 0
2, 11989, Note_on_c, 0, 56, 64
2, 12002, Note_on_c, 0, 56, 0
2, 12004, Note_on_c, 0, 48, 64
2, 12030, Note_on_c, 0, 65, 0
2, 12034, Note_on_c, 0, 64, 64
2, 12056, Note_on_c, 0, 68, 0
2, 12056, Note_on_c, 0, 60, 0
2, 12060, Note_on_c, 0, 64, 0
2, 12064, Note_on_c, 0, 65, 64
2, 12064, Note_on_c, 0, 68, 64
2, 12064, Note_on_c, 0, 60, 64
2, 12082, Note_on_c, 0, 48, 0
2, 12094, Note_on_c, 0, 52, 64
2, 12107, Note_on_c, 0, 52, 0
2, 12109, Note_on_c, 0, 53, 64
2, 12122, Note_on_c, 0, 53, 0
2, 12124, Note_on_c, 0, 44, 64
2, 12150, Note_on_c, 0, 65, 0
2, 12154, Note_on_c, 0, 64, 64
2, 12176, Note_on_c, 0, 60, 0
2, 12176, Note_on_c, 0, 68, 0
2, 12180, Note_on_c, 0, 64, 0
2, 12184, Note_on_c, 0, 65, 64
2, 12184, Note_on_c, 0, 68, 64
2, 12184, Note_on_c, 0, 60, 64
2, 12202, Note_on_c, 0, 44, 0
2, 12214, Note_on_c, 0, 46, 64
2, 12227, Note_on_c, 0, 46, 0
2, 12229, Note_on_c, 0, 48, 64
2, 12236, Note_on_c, 0, 60, 0
2, 12236, Note_on_c, 0, 65, 0
2, 12236, Note_on_c, 0, 68, 0
2, 12242, Note_on_c, 0, 48, 0
2, 12244, Note_on_c, 0, 41, 64
2, 12274, Note_on_c, 0, 67, 64
2, 12296, Note_on_c, 0, 41, 0
2, 12300, Note_on_c, 0, 67, 0
2, 12304, Note_on_c, 0, 65, 64
2, 12330, Note_on_c, 0, 65, 0
2, 12334, Note_on_c, 0, 64, 64
2, 12360, Note_on_c, 0, 64, 0
2, 12364, Note_on_c, 0, 65, 64
2, 12390, Note_on_c, 0, 65, 0
2, 12394, Note_on_c, 0, 68, 64
2, 12420, Note_on_c, 0, 68, 0
2, 12424, Note_on_c, 0, 72, 64
2, 12450, Note_on_c, 0, 72, 0
2, 12454, Note_on_c, 0, 70, 64
2, 12480, Note_on_c, 0, 70, 0
2, 12484, Note_on_c, 0, 68, 64
2, 12510, Note_on_c, 0, 68, 0
2, 12514, Note_on_c, 0, 67, 64
2, 12540, Note_on_c, 0, 67, 0
2, 12544, Note_on_c, 0, 65, 64
2, 12570, Note_on_c, 0, 65, 0
2, 12574, Note_on_c, 0, 63, 64
2, 12600, Note_on_c, 0, 63, 0
2, 12604, Note_on_c, 0, 70, 64
2, 12604, Note_on_c, 0, 61, 64
2, 12604, Note_on_c, 0, 53, 64
2, 12634, Note_on_c, 0, 65, 64
2, 12656, Note_on_c, 0, 61, 0
2, 12656, Note_on_c, 0, 70, 0
2, 12664, Note_on_c, 0, 70, 64
2, 12664, Note_on_c, 0, 61, 64
2, 12682, Note_on_c, 0, 53, 0
2, 12694, Note_on_c, 0, 57, 64
2, 12707, Note_on_c, 0, 57, 0
2, 12709, Note_on_c, 0, 58, 64
2, 12722, Note_on_c, 0, 58, 0
2, 12724, Note_on_c, 0, 49, 64
2, 12750, Note_on_c, 0, 70, 0
2, 12754, Note_on_c, 0, 69, 64
2, 12776, Note_on_c, 0, 61, 0
2, 12776, Note_on_c, 0, 65, 0
2, 12780, Note_on_c, 0, 69, 0
2, 12784, Note_on_c, 0, 65, 64
2, 12784, Note_on_c, 0, 70, 64
2, 12784, Note_on_c, 0, 61, 64
2, 12802, Note_on_c, 0, 49, 0
2, 12814, Note_on_c, 0, 51, 64
2, 12827, Note_on_c, 0, 51, 0
2, 12829, Note_on_c, 0, 53, 64
2, 12842, Note_on_c, 0, 53, 0
2, 12844, Note_on_c, 0, 46, 64
2, 12870, Note_on_c, 0, 70, 0
2, 12874, Note_on_c, 0, 69, 64
2, 12896, Note_on_c, 0, 61, 0
2, 12896, Note_on_c, 0, 65, 0
2, 12900, Note_on_c, 0, 69, 0
2, 12904, Note_on_c, 0, 65, 64
2, 12904, Note_on_c, 0, 70, 64
2, 12904, Note_on_c, 0, 61, 64
2, 12922, Note_on_c, 0, 46, 0
2, 12934, Note_on_c, 0, 48, 64
2, 12947, Note_on_c, 0, 48, 0
2, 12949, Note_on_c, 0, 49, 64
2, 12956, Note_on_c, 0, 61, 0
2, 12956, Note_on_c, 0, 65, 0
2, 12956, Note_on_c, 0, 70, 0
2, 12962, Note_on_c, 0, 49, 0
2, 12964, Note_on_c, 0, 41, 64
2, 12994, Note_on_c, 0, 53, 64
2, 13016, Note_on_c, 0, 41, 0
2, 13020, Note_on_c, 0, 53, 0
2, 13024, Note_on_c, 0, 55, 64
2, 13050, Note_on_c, 0, 55, 0
2, 13054, Note_on_c, 0, 57, 64
2, 13080, Note_on_c, 0, 57, 0
2, 13084, Note_on_c, 0, 58, 64
2, 13110, Note_on_c, 0, 58, 0
2, 13114, Note_on_c, 0, 60, 64
2, 13140, Note_on_c, 0, 60, 0
2, 13144, Note_on_c, 0, 61, 64
2, 13170, Note_on_c, 0, 61, 0
2, 13174, Note_on_c, 0, 60, 64
2, 13200, Note_on_c, 0, 60, 0
2, 13204, Note_on_c, 0, 63, 64
2, 13230, Note_on_c, 0, 63, 0
2, 13234, Note_on_c, 0, 61, 64
2, 13260, Note_on_c, 0, 61, 0
2, 13264, Note_on_c, 0, 60, 64
2, 13290, Note_on_c, 0, 60, 0
2, 13294, Note_on_c, 0, 58, 64
2, 13320, Note_on_c, 0, 58, 0
2, 13324, Note_on_c, 0, 64, 64
2, 13350, Note_on_c, 0, 64, 0
2, 13354, Note_on_c, 0, 61, 64
2, 13354, Note_on_c, 0, 53, 64
2, 13380, Note_on_c, 0, 53, 0
2, 13380, Note_on_c, 0, 61, 0
2, 13384, Note_on_c, 0, 60, 64
2, 13384, Note_on_c, 0, 52, 64
2, 13410, Note_on_c, 0, 52, 0
2, 13410, Note_on_c, 0, 60, 0
2, 13414, Note_on_c, 0, 58, 64
2, 13414, Note_on_c, 0, 50, 64
2, 13440, Note_on_c, 0, 50, 0
2, 13440, Note_on_c, 0, 58, 0
2, 13444, Note_on_c, 0, 67, 64
2, 13444, Note_on_c, 0, 52, 64
2, 13470, Note_on_c, 0, 52, 0
2, 13470, Note_on_c, 0, 67, 0
2, 13474, Note_on_c, 0, 61, 64
2, 13474, Note_on_c, 0, 55, 64
2, 13500, Note_on_c, 0, 55, 0
2, 13500, Note_on_c, 0, 61, 0
2, 13504, Note_on_c, 0, 60, 64
2, 13504, Note_on_c, 0, 48, 64
2, 13530, Note_on_c, 0, 48, 0
2, 13530, Note_on_c, 0, 60, 0
2, 13534, Note_on_c, 0, 58, 64
2, 13534, Note_on_c, 0, 50, 64
2, 13560, Note_on_c, 0, 50, 0
2, 13560, Note_on_c, 0, 58, 0
2, 13564, Note_on_c, 0, 70, 64
2, 13564, Note_on_c, 0, 52, 64
2, 13590, Note_on_c, 0, 52, 0
2, 13590, Note_on_c, 0, 70, 0
2, 13594, Note_on_c, 0, 68, 64
2, 13594, Note_on_c, 0, 53, 64
2, 13620, Note_on_c, 0, 53, 0
2, 13620, Note_on_c, 0, 68, 0
2, 13624, Note_on_c, 0, 67, 64
2, 13624, Note_on_c, 0, 55, 64
2, 13650, Note_on_c, 0, 55, 0
2, 13650, Note_on_c, 0, 67, 0
2, 13654, Note_on_c, 0, 65, 64
2, 13654, Note_on_c, 0, 56, 64
2, 13680, Note_on_c, 0, 56, 0
2, 13680, Note_on_c, 0, 65, 0
2, 13684, Note_on_c, 0, 73, 64
2, 13684, Note_on_c, 0, 58, 64
2, 13710, Note_on_c, 0, 58, 0
2, 13710, Note_on_c, 0, 73, 0
2, 13714, Note_on_c, 0, 68, 64
2, 13714, Note_on_c, 0, 60, 64
2, 13740, Note_on_c, 0, 60, 0
2, 13740, Note_on_c, 0, 68, 0
2, 13744, Note_on_c, 0, 67, 64
2, 13744, Note_on_c, 0, 58, 64
2, 13770, Note_on_c, 0, 58, 0
2, 13770, Note_on_c, 0, 67, 0
2, 13774, Note_on_c, 0, 65, 64
2, 13774, Note_on_c, 0, 56, 64
2, 13800, Note_on_c, 0, 56, 0
2, 13800, Note_on_c, 0, 65, 0
2, 13804, Note_on_c, 0, 64, 64
2, 13804, Note_on_c, 0, 58, 64
2, 13830, Note_on_c, 0, 58, 0
2, 13834, Note_on_c, 0, 61, 64
2, 13860, Note_on_c, 0, 61, 0
2, 13864, Note_on_c, 0, 55, 64
2, 13877, Note_on_c, 0, 64, 0
2, 13879, Note_on_c, 0, 67, 64
2, 13890, Note_on_c, 0, 55, 0
2, 13892, Note_on_c, 0, 67, 0
2, 13894, Note_on_c, 0, 70, 64
2, 13894, Note_on_c, 0, 56, 64
2, 13907, Note_on_c, 0, 70, 0
2, 13909, Note_on_c, 0, 76, 64
2, 13920, Note_on_c, 0, 56, 0
2, 13922, Note_on_c, 0, 76, 0
2, 13924, Note_on_c, 0, 79, 64
2, 13924, Note_on_c, 0, 58, 64
2, 13950, Note_on_c, 0, 58, 0
2, 13954, Note_on_c, 0, 60, 64
2, 13980, Note_on_c, 0, 60, 0
2, 13984, Note_on_c, 0, 62, 64
2, 14002, Note_on_c, 0, 79, 0
2, 14010, Note_on_c, 0, 62, 0
2, 14014, Note_on_c, 0, 70, 64
2, 14014, Note_on_c, 0, 64, 64
2, 14040, Note_on_c, 0, 64, 0
2, 14040, Note_on_c, 0, 70, 0
2, 14044, Note_on_c, 0, 68, 64
2, 14044, Note_on_c, 0, 65, 64
2, 14070, Note_on_c, 0, 68, 0
2, 14074, Note_on_c, 0, 73, 64
2, 14100, Note_on_c, 0, 73, 0
2, 14104, Note_on_c, 0, 72, 64
2, 14117, Note_on_c, 0, 65, 0
2, 14119, Note_on_c, 0, 64, 64
2, 14130, Note_on_c, 0, 72, 0
2, 14132, Note_on_c, 0, 64, 0
2, 14134, Note_on_c, 0, 70, 64
2, 14134, Note_on_c, 0, 65, 64
2, 14147, Note_on_c, 0, 65, 0
2, 14149, Note_on_c, 0, 67, 64
2, 14160, Note_on_c, 0, 70, 0
2, 14162, Note_on_c, 0, 67, 0
2, 14164, Note_on_c, 0, 72, 64
2, 14164, Note_on_c, 0, 68, 64
2, 14190, Note_on_c, 0, 72, 0
2, 14194, Note_on_c, 0, 77, 64
2, 14220, Note_on_c, 0, 77, 0
2, 14224, Note_on_c, 0, 72, 64
2, 14242, Note_on_c, 0, 68, 0
2, 14250, Note_on_c, 0, 72, 0
2, 14254, Note_on_c, 0, 70, 64
2, 14254, Note_on_c, 0, 67, 64
2, 14280, Note_on_c, 0, 67, 0
2, 14280, Note_on_c, 0, 70, 0
2, 14284, Note_on_c, 0, 68, 64
2, 14284, Note_on_c, 0, 65, 64
2, 14310, Note_on_c, 0, 68, 0
2, 14314, Note_on_c, 0, 72, 64
2, 14340, Note_on_c, 0, 72, 0
2, 14344, Note_on_c, 0, 68, 64
2, 14362, Note_on_c, 0, 65, 0
2, 14370, Note_on_c, 0, 68, 0
2, 14374, Note_on_c, 0, 67, 64
2, 14374, Note_on_c, 0, 63, 64
2, 14400, Note_on_c, 0, 63, 0
2, 14400, Note_on_c, 0, 67, 0
2, 14404, Note_on_c, 0, 65, 64
2, 14404, Note_on_c, 0, 61, 64
2, 14430, Note_on_c, 0, 65, 0
2, 14434, Note_on_c, 0, 70, 64
2, 14460, Note_on_c, 0, 70, 0
2, 14464, Note_on_c, 0, 69, 64
2, 14477, Note_on_c, 0, 61, 0
2, 14479, Note_on_c, 0, 60, 64
2, 14490, Note_on_c, 0, 69, 0
2, 14492, Note_on_c, 0, 60, 0
2, 14494, Note_on_c, 0, 67, 64
2, 14494, Note_on_c, 0, 61, 64
2, 14507, Note_on_c, 0, 61, 0
2, 14509, Note_on_c, 0, 63, 64
2, 14520, Note_on_c, 0, 67, 0
2, 14522, Note_on_c, 0, 63, 0
2, 14524, Note_on_c, 0, 69, 64
2, 14524, Note_on_c, 0, 65, 64
2, 14550, Note_on_c, 0, 69, 0
2, 14554, Note_on_c, 0, 72, 64
2, 14580, Note_on_c, 0, 72, 0
2, 14584, Note_on_c, 0, 69, 64
2, 14602, Note_on_c, 0, 65, 0
2, 14610, Note_on_c, 0, 69, 0
2, 14614, Note_on_c, 0, 67, 64
2, 14614, Note_on_c, 0, 63, 64
2, 14640, Note_on_c, 0, 63, 0
2, 14640, Note_on_c, 0, 67, 0
2, 14644, Note_on_c, 0, 65, 64
2, 14644, Note_on_c, 0, 61, 64
2, 14670, Note_on_c, 0, 65, 0
2, 14674, Note_on_c, 0, 72, 64
2, 14700, Note_on_c, 0, 72, 0
2, 14704, Note_on_c, 0, 65, 64
2, 14722, Note_on_c, 0, 61, 0
2, 14730, Note_on_c, 0, 65, 0
2, 14734, Note_on_c, 0, 63, 64
2, 14734, Note_on_c, 0, 60, 64
2, 14760, Note_on_c, 0, 60, 0
2, 14760, Note_on_c, 0, 63, 0
2, 14764, Note_on_c, 0, 61, 64
2, 14764, Note_on_c, 0, 58, 64
2, 14790, Note_on_c, 0, 61, 0
2, 14794, Note_on_c, 0, 72, 64
2, 14820, Note_on_c, 0, 72, 0
2, 14824, Note_on_c, 0, 70, 64
2, 14837, Note_on_c, 0, 58, 0
2, 14839, Note_on_c, 0, 57, 64
2, 14850, Note_on_c, 0, 70, 0
2, 14852, Note_on_c, 0, 57, 0
2, 14854, Note_on_c, 0, 69, 64
2, 14854, Note_on_c, 0, 58, 64
2, 14867, Note_on_c, 0, 58, 0
2, 14869, Note_on_c, 0, 60, 64
2, 14880, Note_on_c, 0, 69, 0
2, 14882, Note_on_c, 0, 60, 0
2, 14884, Note_on_c, 0, 70, 64
2, 14884, Note_on_c, 0, 61, 64
2, 14910, Note_on_c, 0, 70, 0
2, 14914, Note_on_c, 0, 73, 64
2, 14940, Note_on_c, 0, 73, 0
2, 14944, Note_on_c, 0, 70, 64
2, 14962, Note_on_c, 0, 61, 0
2, 14970, Note_on_c, 0, 70, 0
2, 14974, Note_on_c, 0, 68, 64
2, 14974, Note_on_c, 0, 60, 64
2, 15000, Note_on_c, 0, 60, 0
2, 15000, Note_on_c, 0, 68, 0
2, 15004, Note_on_c, 0, 66, 64
2, 15004, Note_on_c, 0, 58, 64
2, 15030, Note_on_c, 0, 66, 0
2, 15034, Note_on_c, 0, 70, 64
2, 15060, Note_on_c, 0, 70, 0
2, 15064, Note_on_c, 0, 66, 64
2, 15082, Note_on_c, 0, 58, 0
2, 15090, Note_on_c, 0, 66, 0
2, 15094, Note_on_c, 0, 65, 64
2, 15094, Note_on_c, 0, 56, 64
2, 15120, Note_on_c, 0, 56, 0
2, 15120, Note_on_c, 0, 65, 0
2, 15124, Note_on_c, 0, 63, 64
2, 15124, Note_on_c, 0, 54, 64
2, 15150, Note_on_c, 0, 63, 0
2, 15154, Note_on_c, 0, 68, 64
2, 15180, Note_on_c, 0, 68, 0
2, 15184, Note_on_c, 0, 66, 64
2, 15197, Note_on_c, 0, 54, 0
2, 15199, Note_on_c, 0, 53, 64
2, 15210, Note_on_c, 0, 66, 0
2, 15212, Note_on_c, 0, 53, 0
2, 15214, Note_on_c, 0, 65, 64
2, 15214, Note_on_c, 0, 54, 64
2, 15227, Note_on_c, 0, 54, 0
2, 15229, Note_on_c, 0, 56, 64
2, 15240, Note_on_c, 0, 65, 0
2, 15242, Note_on_c, 0, 56, 0
2, 15244, Note_on_c, 0, 66, 64
2, 15244, Note_on_c, 0, 58, 64
2, 15270, Note_on_c, 0, 66, 0
2, 15274, Note_on_c, 0, 70, 64
2, 15300, Note_on_c, 0, 70, 0
2, 15304, Note_on_c, 0, 66, 64
2, 15322, Note_on_c, 0, 58, 0
2, 15330, Note_on_c, 0, 66, 0
2, 15334, Note_on_c, 0, 65, 64
2, 15334, Note_on_c, 0, 56, 64
2, 15360, Note_on_c, 0, 56, 0
2, 15360, Note_on_c, 0, 65, 0
2, 15364, Note_on_c, 0, 63, 64
2, 15364, Note_on_c, 0, 54, 64
2, 15390, Note_on_c, 0, 63, 0
2, 15394, Note_on_c, 0, 70, 64
2, 15420, Note_on_c, 0, 70, 0
2, 15424, Note_on_c, 0, 63, 64
2, 15442, Note_on_c, 0, 54, 0
2, 15450, Note_on_c, 0, 63, 0
2, 15454, Note_on_c, 0, 61, 64
2, 15454, Note_on_c, 0, 53, 64
2, 15480, Note_on_c, 0, 53, 0
2, 15480, Note_on_c, 0, 61, 0
2, 15484, Note_on_c, 0, 60, 64
2, 15484, Note_on_c, 0, 51, 64
2, 15497, Note_on_c, 0, 60, 0
2, 15499, Note_on_c, 0, 61, 64
2, 15512, Note_on_c, 0, 61, 0
2, 15514, Note_on_c, 0, 63, 64
2, 15540, Note_on_c, 0, 63, 0
2, 15544, Note_on_c, 0, 57, 64
2, 15557, Note_on_c, 0, 51, 0
2, 15559, Note_on_c, 0, 53, 64
2, 15572, Note_on_c, 0, 53, 0
2, 15574, Note_on_c, 0, 51, 64
2, 15587, Note_on_c, 0, 51, 0
2, 15589, Note_on_c, 0, 49, 64
2, 15602, Note_on_c, 0, 49, 0
2, 15604, Note_on_c, 0, 48, 64
2, 15630, Note_on_c, 0, 57, 0
2, 15634, Note_on_c, 0, 60, 64
2, 15660, Note_on_c, 0, 60, 0
2, 15664, Note_on_c, 0, 63, 64
2, 15677, Note_on_c, 0, 48, 0
2, 15679, Note_on_c, 0, 49, 64
2, 15690, Note_on_c, 0, 63, 0
2, 15692, Note_on_c, 0, 49, 0
2, 15694, Note_on_c, 0, 66, 64
2, 15694, Note_on_c, 0, 48, 64
2, 15707, Note_on_c, 0, 48, 0
2, 15709, Note_on_c, 0, 46, 64
2, 15720, Note_on_c, 0, 66, 0
2, 15722, Note_on_c, 0, 46, 0
2, 15724, Note_on_c, 0, 65, 64
2, 15724, Note_on_c, 0, 45, 64
2, 15750, Note_on_c, 0, 65, 0
2, 15754, Note_on_c, 0, 63, 64
2, 15780, Note_on_c, 0, 63, 0
2, 15784, Note_on_c, 0, 61, 64
2, 15802, Note_on_c, 0, 45, 0
2, 15810, Note_on_c, 0, 61, 0
2, 15814, Note_on_c, 0, 60, 64
2, 15814, Note_on_c, 0, 53, 64
2, 15840, Note_on_c, 0, 53, 0
2, 15840, Note_on_c, 0, 60, 0
2, 15844, Note_on_c, 0, 61, 64
2, 15844, Note_on_c, 0, 46, 64
2, 15857, Note_on_c, 0, 61, 0
2, 15859, Note_on_c, 0, 63, 64
2, 15872, Note_on_c, 0, 63, 0
2, 15874, Note_on_c, 0, 65, 64
2, 15900, Note_on_c, 0, 65, 0
2, 15904, Note_on_c, 0, 58, 64
2, 15917, Note_on_c, 0, 46, 0
2, 15919, Note_on_c, 0, 49, 64
2, 15932, Note_on_c, 0, 49, 0
2, 15934, Note_on_c, 0, 51, 64
2, 15947, Note_on_c, 0, 51, 0
2, 15949, Note_on_c, 0, 53, 64
2, 15962, Note_on_c, 0, 53, 0
2, 15964, Note_on_c, 0, 54, 64
2, 15990, Note_on_c, 0, 58, 0
2, 15994, Note_on_c, 0, 61, 64
2, 16020, Note_on_c, 0, 61, 0
2, 16024, Note_on_c, 0, 66, 64
2, 16037, Note_on_c, 0, 54, 0
2, 16039, Note_on_c, 0, 53, 64
2, 16050, Note_on_c, 0, 66, 0
2, 16052, Note_on_c, 0, 53, 0
2, 16054, Note_on_c, 0, 70, 64
2, 16054, Note_on_c, 0, 51, 64
2, 16067, Note_on_c, 0, 51, 0
2, 16069, Note_on_c, 0, 49, 64
2, 16080, Note_on_c, 0, 70, 0
2, 16082, Note_on_c, 0, 49, 0
2, 16084, Note_on_c, 0, 68, 64
2, 16084, Note_on_c, 0, 48, 64
2, 16110, Note_on_c, 0, 68, 0
2, 16114, Note_on_c, 0, 66, 64
2, 16140, Note_on_c, 0, 66, 0
2, 16144, Note_on_c, 0, 65, 64
2, 16162, Note_on_c, 0, 48, 0
2, 16170, Note_on_c, 0, 65, 0
2, 16174, Note_on_c, 0, 63, 64
2, 16174, Note_on_c, 0, 56, 64
2, 16200, Note_on_c, 0, 56, 0
2, 16200, Note_on_c, 0, 63, 0
2, 16204, Note_on_c, 0, 65, 64
2, 16204, Note_on_c, 0, 49, 64
2, 16217, Note_on_c, 0, 65, 0
2, 16219, Note_on_c, 0, 66, 64
2, 16232, Note_on_c, 0, 66, 0
2, 16234, Note_on_c, 0, 68, 64
2, 16260, Note_on_c, 0, 68, 0
2, 16264, Note_on_c, 0, 61, 64
2, 16277, Note_on_c, 0, 49, 0
2, 16279, Note_on_c, 0, 53, 64
2, 16292, Note_on_c, 0, 53, 0
2, 16294, Note_on_c, 0, 54, 64
2, 16307, Note_on_c, 0, 54, 0
2, 16309, Note_on_c, 0, 56, 64
2, 16322, Note_on_c, 0, 56, 0
2, 16324, Note_on_c, 0, 58, 64
2, 16350, Note_on_c, 0, 61, 0
2, 16354, Note_on_c, 0, 65, 64
2, 16380, Note_on_c, 0, 65, 0
2, 16384, Note_on_c, 0, 70, 64
2, 16397, Note_on_c, 0, 58, 0
2, 16399, Note_on_c, 0, 56, 64
2, 16410, Note_on_c, 0, 70, 0
2, 16412, Note_on_c, 0, 56, 0
2, 16414, Note_on_c, 0, 73, 64
2, 16414, Note_on_c, 0, 54, 64
2, 16427, Note_on_c, 0, 54, 0
2, 16429, Note_on_c, 0, 53, 64
2, 16440, Note_on_c, 0, 73, 0
2, 16442, Note_on_c, 0, 53, 0
2, 16444, Note_on_c, 0, 72, 64
2, 16444, Note_on_c, 0, 51, 64
2, 16470, Note_on_c, 0, 72, 0
2, 16474, Note_on_c, 0, 70, 64
2, 16500, Note_on_c, 0, 70, 0
2, 16504, Note_on_c, 0, 68, 64
2, 16522, Note_on_c, 0, 51, 0
2, 16530, Note_on_c, 0, 68, 0
2, 16534, Note_on_c, 0, 66, 64
2, 16534, Note_on_c, 0, 60, 64
2, 16560, Note_on_c, 0, 60, 0
2, 16560, Note_on_c, 0, 66, 0
2, 16564, Note_on_c, 0, 68, 64
2, 16564, Note_on_c, 0, 53, 64
2, 16577, Note_on_c, 0, 68, 0
2, 16579, Note_on_c, 0, 66, 64
2, 16592, Note_on_c, 0, 66, 0
2, 16594, Note_on_c, 0, 65, 64
2, 16620, Note_on_c, 0, 65, 0
2, 16624, Note_on_c, 0, 73, 64
2, 16637, Note_on_c, 0, 53, 0
2, 16639, Note_on_c, 0, 56, 64
2, 16652, Note_on_c, 0, 56, 0
2, 16654, Note_on_c, 0, 58, 64
2, 16667, Note_on_c, 0, 58, 0
2, 16669, Note_on_c, 0, 60, 64
2, 16682, Note_on_c, 0, 60, 0
2, 16684, Note_on_c, 0, 61, 64
2, 16710, Note_on_c, 0, 73, 0
2, 16714, Note_on_c, 0, 68, 64
2, 16740, Note_on_c, 0, 68, 0
2, 16744, Note_on_c, 0, 73, 64
2, 16757, Note_on_c, 0, 61, 0
2, 16759, Note_on_c, 0, 60, 64
2, 16770, Note_on_c, 0, 73, 0
2, 16772, Note_on_c, 0, 60, 0
2, 16774, Note_on_c, 0, 77, 64
2, 16774, Note_on_c, 0, 58, 64
2, 16787, Note_on_c, 0, 58, 0
2, 16789, Note_on_c, 0, 56, 64
2, 16800, Note_on_c, 0, 77, 0
2, 16802, Note_on_c, 0, 56, 0
2, 16804, Note_on_c, 0, 75, 64
2, 16804, Note_on_c, 0, 54, 64
2, 16830, Note_on_c, 0, 75, 0
2, 16834, Note_on_c, 0, 73, 64
2, 16860, Note_on_c, 0, 73, 0
2, 16864, Note_on_c, 0, 72, 64
2, 16882, Note_on_c, 0, 54, 0
2, 16890, Note_on_c, 0, 72, 0
2, 16894, Note_on_c, 0, 70, 64
2, 16894, Note_on_c, 0, 63, 64
2, 16920, Note_on_c, 0, 63, 0
2, 16920, Note_on_c, 0, 70, 0
2, 16924, Note_on_c, 0, 72, 64
2, 16924, Note_on_c, 0, 54, 64
2, 16924, Note_on_c, 0, 56, 64
2, 16924, Note_on_c, 0, 63, 64
2, 16937, Note_on_c, 0, 72, 0
2, 16939, Note_on_c, 0, 73, 64
2, 16952, Note_on_c, 0, 73, 0
2, 16954, Note_on_c, 0, 75, 64
2, 16980, Note_on_c, 0, 75, 0
2, 16984, Note_on_c, 0, 68, 64
2, 17010, Note_on_c, 0, 68, 0
2, 17014, Note_on_c, 0, 70, 64
2, 17029, Note_on_c, 0, 63, 0
2, 17029, Note_on_c, 0, 54, 0
2, 17029, Note_on_c, 0, 56, 0
2, 17040, Note_on_c, 0, 70, 0
2, 17044, Note_on_c, 0, 72, 64
2, 17070, Note_on_c, 0, 72, 0
2, 17074, Note_on_c, 0, 73, 64
2, 17100, Note_on_c, 0, 73, 0
2, 17104, Note_on_c, 0, 75, 64
2, 17119, Note_on_c, 0, 61, 64
2, 17130, Note_on_c, 0, 75, 0
2, 17132, Note_on_c, 0, 61, 0
2, 17134, Note_on_c, 0, 77, 64
2, 17134, Note_on_c, 0, 60, 64
2, 17147, Note_on_c, 0, 60, 0
2, 17149, Note_on_c, 0, 58, 64
2, 17160, Note_on_c, 0, 77, 0
2, 17162, Note_on_c, 0, 58, 0
2, 17164, Note_on_c, 0, 78, 64
2, 17164, Note_on_c, 0, 56, 64
2, 17190, Note_on_c, 0, 78, 0
2, 17194, Note_on_c, 0, 75, 64
2, 17220, Note_on_c, 0, 75, 0
2, 17224, Note_on_c, 0, 73, 64
2, 17237, Note_on_c, 0, 56, 0
2, 17239, Note_on_c, 0, 58, 64
2, 17250, Note_on_c, 0, 73, 0
2, 17252, Note_on_c, 0, 58, 0
2, 17254, Note_on_c, 0, 72, 64
2, 17254, Note_on_c, 0, 56, 64
2, 17267, Note_on_c, 0, 56, 0
2, 17269, Note_on_c, 0, 54, 64
2, 17280, Note_on_c, 0, 72, 0
2, 17282, Note_on_c, 0, 54, 0
2, 17284, Note_on_c, 0, 80, 64
2, 17284, Note_on_c, 0, 53, 64
2, 17310, Note_on_c, 0, 80, 0
2, 17314, Note_on_c, 0, 77, 64
2, 17327, Note_on_c, 0, 77, 0
2, 17329, Note_on_c, 0, 75, 64
2, 17342, Note_on_c, 0, 75, 0
2, 17344, Note_on_c, 0, 73, 64
2, 17357, Note_on_c, 0, 73, 0
2, 17359, Note_on_c, 0, 75, 64
2, 17362, Note_on_c, 0, 53, 0
2, 17372, Note_on_c, 0, 75, 0
2, 17374, Note_on_c, 0, 77, 64
2, 17374, Note_on_c, 0, 49, 64
2, 17400, Note_on_c, 0, 49, 0
2, 17400, Note_on_c, 0, 77, 0
2, 17404, Note_on_c, 0, 66, 64
2, 17404, Note_on_c, 0, 58, 64
2, 17430, Note_on_c, 0, 66, 0
2, 17434, Note_on_c, 0, 75, 64
2, 17460, Note_on_c, 0, 75, 0
2, 17464, Note_on_c, 0, 72, 64
2, 17482, Note_on_c, 0, 58, 0
2, 17490, Note_on_c, 0, 72, 0
2, 17494, Note_on_c, 0, 73, 64
2, 17494, Note_on_c, 0, 54, 64
2, 17520, Note_on_c, 0, 54, 0
2, 17520, Note_on_c, 0, 73, 0
2, 17524, Note_on_c, 0, 65, 64
2, 17524, Note_on_c, 0, 56, 64
2, 17550, Note_on_c, 0, 65, 0
2, 17554, Note_on_c, 0, 73, 64
2, 17580, Note_on_c, 0, 73, 0
2, 17584, Note_on_c, 0, 63, 64
2, 17602, Note_on_c, 0, 56, 0
2, 17610, Note_on_c, 0, 63, 0
2, 17614, Note_on_c, 0, 72, 64
2, 17614, Note_on_c, 0, 44, 64
2, 17640, Note_on_c, 0, 44, 0
2, 17640, Note_on_c, 0, 72, 0
2, 17644, Note_on_c, 0, 73, 64
2, 17644, Note_on_c, 0, 65, 64
2, 17644, Note_on_c, 0, 49, 64
2, 17674, Note_on_c, 0, 68, 64
2, 17696, Note_on_c, 0, 65, 0
2, 17696, Note_on_c, 0, 73, 0
2, 17704, Note_on_c, 0, 73, 64
2, 17704, Note_on_c, 0, 65, 64
2, 17722, Note_on_c, 0, 49, 0
2, 17734, Note_on_c, 0, 51, 64
2, 17747, Note_on_c, 0, 51, 0
2, 17749, Note_on_c, 0, 53, 64
2, 17762, Note_on_c, 0, 53, 0
2, 17764, Note_on_c, 0, 44, 64
2, 17790, Note_on_c, 0, 73, 0
2, 17794, Note_on_c, 0, 72, 64
2, 17816, Note_on_c, 0, 65, 0
2, 17816, Note_on_c, 0, 68, 0
2, 17820, Note_on_c, 0, 72, 0
2, 17824, Note_on_c, 0, 68, 64
2, 17824, Note_on_c, 0, 73, 64
2, 17824, Note_on_c, 0, 65, 64
2, 17842, Note_on_c, 0, 44, 0
2, 17854, Note_on_c, 0, 48, 64
2, 17867, Note_on_c, 0, 48, 0
2, 17869, Note_on_c, 0, 49, 64
2, 17882, Note_on_c, 0, 49, 0
2, 17884, Note_on_c, 0, 41, 64
2, 17910, Note_on_c, 0, 73, 0
2, 17914, Note_on_c, 0, 72, 64
2, 17936, Note_on_c, 0, 65, 0
2, 17936, Note_on_c, 0, 68, 0
2, 17940, Note_on_c, 0, 72, 0
2, 17944, Note_on_c, 0, 68, 64
2, 17944, Note_on_c, 0, 73, 64
2, 17944, Note_on_c, 0, 65, 64
2, 17962, Note_on_c, 0, 41, 0
2, 17974, Note_on_c, 0, 42, 64
2, 17987, Note_on_c, 0, 42, 0
2, 17989, Note_on_c, 0, 44, 64
2, 17996, Note_on_c, 0, 65, 0
2, 17996, Note_on_c, 0, 68, 0
2, 17996, Note_on_c, 0, 73, 0
2, 18002, Note_on_c, 0, 44, 0
2, 18004, Note_on_c, 0, 37, 64
2, 18034, Note_on_c, 0, 73, 64
2, 18056, Note_on_c, 0, 37, 0
2, 18060, Note_on_c, 0, 73, 0
2, 18064, Note_on_c, 0, 71, 64
2, 18090, Note_on_c, 0, 71, 0
2, 18094, Note_on_c, 0, 70, 64
2, 18120, Note_on_c, 0, 70, 0
2, 18124, Note_on_c, 0, 71, 64
2, 18150, Note_on_c, 0, 71, 0
2, 18154, Note_on_c, 0, 77, 64
2, 18180, Note_on_c, 0, 77, 0
2, 18184, Note_on_c, 0, 80, 64
2, 18210, Note_on_c, 0, 80, 0
2, 18214, Note_on_c, 0, 78, 64
2, 18240, Note_on_c, 0, 78, 0
2, 18244, Note_on_c, 0, 77, 64
2, 18270, Note_on_c, 0, 77, 0
2, 18274, Note_on_c, 0, 75, 64
2, 18300, Note_on_c, 0, 75, 0
2, 18304, Note_on_c, 0, 73, 64
2, 18330, Note_on_c, 0, 73, 0
2, 18334, Note_on_c, 0, 71, 64
2, 18360, Note_on_c, 0, 71, 0
2, 18364, Note_on_c, 0, 70, 64
2, 18364, Note_on_c, 0, 70, 64
2, 18364, Note_on_c, 0, 50, 64
2, 18390, Note_on_c, 0, 70, 0
2, 18394, Note_on_c, 0, 77, 64
2, 18394, Note_on_c, 0, 77, 64
2, 18407, Note_on_c, 0, 77, 0
2, 18409, Note_on_c, 0, 78, 64
2, 18422, Note_on_c, 0, 78, 0
2, 18424, Note_on_c, 0, 80, 64
2, 18437, Note_on_c, 0, 50, 0
2, 18439, Note_on_c, 0, 53, 64
2, 18452, Note_on_c, 0, 53, 0
2, 18454, Note_on_c, 0, 54, 64
2, 18467, Note_on_c, 0, 54, 0
2, 18469, Note_on_c, 0, 56, 64
2, 18482, Note_on_c, 0, 56, 0
2, 18484, Note_on_c, 0, 58, 64
2, 18510, Note_on_c, 0, 80, 0
2, 18514, Note_on_c, 0, 78, 64
2, 18536, Note_on_c, 0, 70, 0
2, 18536, Note_on_c, 0, 77, 0
2, 18540, Note_on_c, 0, 78, 0
2, 18544, Note_on_c, 0, 77, 64
2, 18544, Note_on_c, 0, 80, 64
2, 18544, Note_on_c, 0, 74, 64
2, 18562, Note_on_c, 0, 58, 0
2, 18574, Note_on_c, 0, 56, 64
2, 18600, Note_on_c, 0, 56, 0
2, 18604, Note_on_c, 0, 54, 64
2, 18630, Note_on_c, 0, 80, 0
2, 18634, Note_on_c, 0, 78, 64
2, 18656, Note_on_c, 0, 74, 0
2, 18656, Note_on_c, 0, 77, 0
2, 18660, Note_on_c, 0, 78, 0
2, 18664, Note_on_c, 0, 77, 64
2, 18664, Note_on_c, 0, 80, 64
2, 18664, Note_on_c, 0, 74, 64
2, 18682, Note_on_c, 0, 54, 0
2, 18694, Note_on_c, 0, 53, 64
2, 18716, Note_on_c, 0, 77, 0
2, 18716, Note_on_c, 0, 74, 0
2, 18716, Note_on_c, 0, 80, 0
2, 18720, Note_on_c, 0, 53, 0
2, 18724, Note_on_c, 0, 51, 64
2, 18754, Note_on_c, 0, 80, 64
2, 18780, Note_on_c, 0, 80, 0
2, 18784, Note_on_c, 0, 78, 64
2, 18797, Note_on_c, 0, 51, 0
2, 18799, Note_on_c, 0, 58, 64
2, 18810, Note_on_c, 0, 78, 0
2, 18812, Note_on_c, 0, 58, 0
2, 18814, Note_on_c, 0, 77, 64
2, 18814, Note_on_c, 0, 60, 64
2, 18827, Note_on_c, 0, 60, 0
2, 18829, Note_on_c, 0, 62, 64
2, 18840, Note_on_c, 0, 77, 0
2, 18842, Note_on_c, 0, 62, 0
2, 18844, Note_on_c, 0, 78, 64
2, 18844, Note_on_c, 0, 63, 64
2, 18870, Note_on_c, 0, 78, 0
2, 18874, Note_on_c, 0, 82, 64
2, 18896, Note_on_c, 0, 63, 0
2, 18900, Note_on_c, 0, 82, 0
2, 18904, Note_on_c, 0, 75, 64
2, 18904, Note_on_c, 0, 63, 64
2, 18930, Note_on_c, 0, 63, 0
2, 18930, Note_on_c, 0, 75, 0
2, 18934, Note_on_c, 0, 77, 64
2, 18934, Note_on_c, 0, 61, 64
2, 18960, Note_on_c, 0, 61, 0
2, 18960, Note_on_c, 0, 77, 0
2, 18964, Note_on_c, 0, 78, 64
2, 18964, Note_on_c, 0, 60, 64
2, 18990, Note_on_c, 0, 78, 0
2, 18994, Note_on_c, 0, 75, 64
2, 19020, Note_on_c, 0, 75, 0
2, 19024, Note_on_c, 0, 81, 64
2, 19042, Note_on_c, 0, 60, 0
2, 19050, Note_on_c, 0, 81, 0
2, 19054, Note_on_c, 0, 82, 64
2, 19054, Note_on_c, 0, 58, 64
2, 19080, Note_on_c, 0, 58, 0
2, 19080, Note_on_c, 0, 82, 0
2, 19084, Note_on_c, 0, 84, 64
2, 19084, Note_on_c, 0, 57, 64
2, 19097, Note_on_c, 0, 84, 0
2, 19099, Note_on_c, 0, 77, 64
2, 19112, Note_on_c, 0, 77, 0
2, 19114, Note_on_c, 0, 75, 64
2, 19127, Note_on_c, 0, 75, 0
2, 19129, Note_on_c, 0, 73, 64
2, 19142, Note_on_c, 0, 73, 0
2, 19144, Note_on_c, 0, 72, 64
2, 19144, Note_on_c, 0, 75, 64
2, 19157, Note_on_c, 0, 57, 0
2, 19159, Note_on_c, 0, 48, 64
2, 19172, Note_on_c, 0, 48, 0
2, 19174, Note_on_c, 0, 49, 64
2, 19187, Note_on_c, 0, 49, 0
2, 19189, Note_on_c, 0, 51, 64
2, 19202, Note_on_c, 0, 51, 0
2, 19204, Note_on_c, 0, 53, 64
2, 19230, Note_on_c, 0, 75, 0
2, 19234, Note_on_c, 0, 73, 64
2, 19256, Note_on_c, 0, 72, 0
2, 19260, Note_on_c, 0, 73, 0
2, 19264, Note_on_c, 0, 69, 64
2, 19264, Note_on_c, 0, 75, 64
2, 19264, Note_on_c, 0, 72, 64
2, 19282, Note_on_c, 0, 53, 0
2, 19294, Note_on_c, 0, 51, 64
2, 19320, Note_on_c, 0, 51, 0
2, 19324, Note_on_c, 0, 49, 64
2, 19350, Note_on_c, 0, 69, 0
2, 19350, Note_on_c, 0, 75, 0
2, 19354, Note_on_c, 0, 73, 64
2, 19376, Note_on_c, 0, 72, 0
2, 19380, Note_on_c, 0, 73, 0
2, 19384, Note_on_c, 0, 69, 64
2, 19384, Note_on_c, 0, 75, 64
2, 19384, Note_on_c, 0, 72, 64
2, 19402, Note_on_c, 0, 49, 0
2, 19414, Note_on_c, 0, 48, 64
2, 19436, Note_on_c, 0, 69, 0
2, 19436, Note_on_c, 0, 72, 0
2, 19436, Note_on_c, 0, 75, 0
2, 19440, Note_on_c, 0, 48, 0
2, 19444, Note_on_c, 0, 46, 64
2, 19474, Note_on_c, 0, 75, 64
2, 19500, Note_on_c, 0, 75, 0
2, 19504, Note_on_c, 0, 73, 64
2, 19517, Note_on_c, 0, 46, 0
2, 19519, Note_on_c, 0, 53, 64
2, 19530, Note_on_c, 0, 73, 0
2, 19532, Note_on_c, 0, 53, 0
2, 19534, Note_on_c, 0, 72, 64
2, 19534, Note_on_c, 0, 55, 64
2, 19547, Note_on_c, 0, 55, 0
2, 19549, Note_on_c, 0, 57, 64
2, 19560, Note_on_c, 0, 72, 0
2, 19562, Note_on_c, 0, 57, 0
2, 19564, Note_on_c, 0, 73, 64
2, 19564, Note_on_c, 0, 58, 64
2, 19590, Note_on_c, 0, 73, 0
2, 19594, Note_on_c, 0, 77, 64
2, 19620, Note_on_c, 0, 77, 0
2, 19624, Note_on_c, 0, 70, 64
2, 19642, Note_on_c, 0, 58, 0
2, 19650, Note_on_c, 0, 70, 0
2, 19654, Note_on_c, 0, 72, 64
2, 19654, Note_on_c, 0, 56, 64
2, 19680, Note_on_c, 0, 56, 0
2, 19680, Note_on_c, 0, 72, 0
2, 19684, Note_on_c, 0, 73, 64
2, 19684, Note_on_c, 0, 55, 64
2, 19710, Note_on_c, 0, 73, 0
2, 19714, Note_on_c, 0, 70, 64
2, 19740, Note_on_c, 0, 70, 0
2, 19744, Note_on_c, 0, 76, 64
2, 19762, Note_on_c, 0, 55, 0
2, 19770, Note_on_c, 0, 76, 0
2, 19774, Note_on_c, 0, 77, 64
2, 19774, Note_on_c, 0, 53, 64
2, 19800, Note_on_c, 0, 53, 0
2, 19800, Note_on_c, 0, 77, 0
2, 19804, Note_on_c, 0, 79, 64
2, 19804, Note_on_c, 0, 52, 64
2, 19817, Note_on_c, 0, 79, 0
2, 19819, Note_on_c, 0, 72, 64
2, 19832, Note_on_c, 0, 72, 0
2, 19834, Note_on_c, 0, 70, 64
2, 19847, Note_on_c, 0, 70, 0
2, 19849, Note_on_c, 0, 68, 64
2, 19862, Note_on_c, 0, 68, 0
2, 19864, Note_on_c, 0, 70, 64
2, 19864, Note_on_c, 0, 67, 64
2, 19877, Note_on_c, 0, 52, 0
2, 19879, Note_on_c, 0, 43, 64
2, 19892, Note_on_c, 0, 43, 0
2, 19894, Note_on_c, 0, 44, 64
2, 19907, Note_on_c, 0, 44, 0
2, 19909, Note_on_c, 0, 46, 64
2, 19922, Note_on_c, 0, 46, 0
2, 19924, Note_on_c, 0, 48, 64
2, 19950, Note_on_c, 0, 70, 0
2, 19954, Note_on_c, 0, 68, 64
2, 19976, Note_on_c, 0, 67, 0
2, 19980, Note_on_c, 0, 68, 0
2, 19984, Note_on_c, 0, 64, 64
2, 19984, Note_on_c, 0, 67, 64
2, 19984, Note_on_c, 0, 70, 64
2, 20002, Note_on_c, 0, 48, 0
2, 20014, Note_on_c, 0, 46, 64
2, 20040, Note_on_c, 0, 46, 0
2, 20044, Note_on_c, 0, 44, 64
2, 20070, Note_on_c, 0, 70, 0
2, 20074, Note_on_c, 0, 68, 64
2, 20096, Note_on_c, 0, 64, 0
2, 20096, Note_on_c, 0, 67, 0
2, 20100, Note_on_c, 0, 68, 0
2, 20104, Note_on_c, 0, 64, 64
2, 20104, Note_on_c, 0, 67, 64
2, 20104, Note_on_c, 0, 70, 64
2, 20122, Note_on_c, 0, 44, 0
2, 20134, Note_on_c, 0, 43, 64
2, 20156, Note_on_c, 0, 64, 0
2, 20156, Note_on_c, 0, 70, 0
2, 20156, Note_on_c, 0, 67, 0
2, 20160, Note_on_c, 0, 43, 0
2, 20164, Note_on_c, 0, 41, 64
2, 20179, Note_on_c, 0, 70, 64
2, 20192, Note_on_c, 0, 70, 0
2, 20194, Note_on_c, 0, 68, 64
2, 20207, Note_on_c, 0, 68, 0
2, 20209, Note_on_c, 0, 67, 64
2, 20222, Note_on_c, 0, 67, 0
2, 20224, Note_on_c, 0, 68, 64
2, 20237, Note_on_c, 0, 41, 0
2, 20239, Note_on_c, 0, 44, 64
2, 20252, Note_on_c, 0, 44, 0
2, 20254, Note_on_c, 0, 46, 64
2, 20267, Note_on_c, 0, 46, 0
2, 20269, Note_on_c, 0, 48, 64
2, 20282, Note_on_c, 0, 48, 0
2, 20284, Note_on_c, 0, 49, 64
2, 20297, Note_on_c, 0, 68, 0
2, 20299, Note_on_c, 0, 67, 64
2, 20312, Note_on_c, 0, 67, 0
2, 20314, Note_on_c, 0, 65, 64
2, 20327, Note_on_c, 0, 65, 0
2, 20329, Note_on_c, 0, 64, 64
2, 20342, Note_on_c, 0, 64, 0
2, 20344, Note_on_c, 0, 65, 64
2, 20362, Note_on_c, 0, 49, 0
2, 20370, Note_on_c, 0, 65, 0
2, 20374, Note_on_c, 0, 68, 64
2, 20374, Note_on_c, 0, 48, 64
2, 20400, Note_on_c, 0, 48, 0
2, 20400, Note_on_c, 0, 68, 0
2, 20404, Note_on_c, 0, 73, 64
2, 20404, Note_on_c, 0, 46, 64
2, 20430, Note_on_c, 0, 73, 0
2, 20434, Note_on_c, 0, 68, 64
2, 20460, Note_on_c, 0, 68, 0
2, 20464, Note_on_c, 0, 67, 64
2, 20482, Note_on_c, 0, 46, 0
2, 20490, Note_on_c, 0, 67, 0
2, 20494, Note_on_c, 0, 65, 64
2, 20494, Note_on_c, 0, 44, 64
2, 20520, Note_on_c, 0, 44, 0
2, 20520, Note_on_c, 0, 65, 0
2, 20524, Note_on_c, 0, 63, 64
2, 20524, Note_on_c, 0, 63, 64
2, 20524, Note_on_c, 0, 43, 64
2, 20550, Note_on_c, 0, 63, 0
2, 20554, Note_on_c, 0, 70, 64
2, 20569, Note_on_c, 0, 72, 64
2, 20582, Note_on_c, 0, 72, 0
2, 20584, Note_on_c, 0, 73, 64
2, 20597, Note_on_c, 0, 43, 0
2, 20599, Note_on_c, 0, 46, 64
2, 20612, Note_on_c, 0, 46, 0
2, 20614, Note_on_c, 0, 48, 64
2, 20627, Note_on_c, 0, 48, 0
2, 20629, Note_on_c, 0, 49, 64
2, 20642, Note_on_c, 0, 49, 0
2, 20644, Note_on_c, 0, 51, 64
2, 20670, Note_on_c, 0, 73, 0
2, 20674, Note_on_c, 0, 72, 64
2, 20696, Note_on_c, 0, 63, 0
2, 20700, Note_on_c, 0, 72, 0
2, 20704, Note_on_c, 0, 70, 0
2, 20704, Note_on_c, 0, 67, 64
2, 20704, Note_on_c, 0, 70, 64
2, 20704, Note_on_c, 0, 73, 64
2, 20722, Note_on_c, 0, 51, 0
2, 20734, Note_on_c, 0, 49, 64
2, 20760, Note_on_c, 0, 49, 0
2, 20764, Note_on_c, 0, 48, 64
2, 20790, Note_on_c, 0, 73, 0
2, 20794, Note_on_c, 0, 72, 64
2, 20816, Note_on_c, 0, 67, 0
2, 20816, Note_on_c, 0, 70, 0
2, 20820, Note_on_c, 0, 72, 0
2, 20824, Note_on_c, 0, 67, 64
2, 20824, Note_on_c, 0, 70, 64
2, 20824, Note_on_c, 0, 73, 64
2, 20842, Note_on_c, 0, 48, 0
2, 20854, Note_on_c, 0, 46, 64
2, 20880, Note_on_c, 0, 46, 0
2, 20884, Note_on_c, 0, 44, 64
2, 20897, Note_on_c, 0, 73, 0
2, 20899, Note_on_c, 0, 72, 64
2, 20912, Note_on_c, 0, 72, 0
2, 20914, Note_on_c, 0, 67, 0
2, 20914, Note_on_c, 0, 70, 0
2, 20914, Note_on_c, 0, 70, 64
2, 20927, Note_on_c, 0, 70, 0
2, 20929, Note_on_c, 0, 68, 64
2, 20944, Note_on_c, 0, 78, 64
2, 20944, Note_on_c, 0, 75, 64
2, 20957, Note_on_c, 0, 44, 0
2, 20959, Note_on_c, 0, 51, 64
2, 20972, Note_on_c, 0, 51, 0
2, 20974, Note_on_c, 0, 53, 64
2, 20987, Note_on_c, 0, 53, 0
2, 20989, Note_on_c, 0, 54, 64
2, 21002, Note_on_c, 0, 54, 0
2, 21004, Note_on_c, 0, 56, 64
2, 21030, Note_on_c, 0, 68, 0
2, 21034, Note_on_c, 0, 70, 64
2, 21056, Note_on_c, 0, 75, 0
2, 21056, Note_on_c, 0, 78, 0
2, 21060, Note_on_c, 0, 70, 0
2, 21064, Note_on_c, 0, 72, 64
2, 21064, Note_on_c, 0, 75, 64
2, 21064, Note_on_c, 0, 78, 64
2, 21082, Note_on_c, 0, 56, 0
2, 21094, Note_on_c, 0, 54, 64
2, 21120, Note_on_c, 0, 54, 0
2, 21124, Note_on_c, 0, 53, 64
2, 21150, Note_on_c, 0, 72, 0
2, 21154, Note_on_c, 0, 70, 64
2, 21176, Note_on_c, 0, 78, 0
2, 21180, Note_on_c, 0, 70, 0
2, 21184, Note_on_c, 0, 75, 0
2, 21184, Note_on_c, 0, 72, 64
2, 21184, Note_on_c, 0, 75, 64
2, 21184, Note_on_c, 0, 78, 64
2, 21202, Note_on_c, 0, 53, 0
2, 21214, Note_on_c, 0, 51, 64
2, 21236, Note_on_c, 0, 72, 0
2, 21236, Note_on_c, 0, 78, 0
2, 21236, Note_on_c, 0, 75, 0
2, 21240, Note_on_c, 0, 51, 0
2, 21244, Note_on_c, 0, 49, 64
2, 21274, Note_on_c, 0, 78, 64
2, 21300, Note_on_c, 0, 78, 0
2, 21304, Note_on_c, 0, 77, 64
2, 21317, Note_on_c, 0, 49, 0
2, 21319, Note_on_c, 0, 56, 64
2, 21330, Note_on_c, 0, 77, 0
2, 21332, Note_on_c, 0, 56, 0
2, 21334, Note_on_c, 0, 75, 64
2, 21334, Note_on_c, 0, 58, 64
2, 21347, Note_on_c, 0, 58, 0
2, 21349, Note_on_c, 0, 60, 64
2, 21360, Note_on_c, 0, 75, 0
2, 21362, Note_on_c, 0, 60, 0
2, 21364, Note_on_c, 0, 77, 64
2, 21364, Note_on_c, 0, 61, 64
2, 21390, Note_on_c, 0, 77, 0
2, 21394, Note_on_c, 0, 80, 64
2, 21420, Note_on_c, 0, 80, 0
2, 21424, Note_on_c, 0, 73, 64
2, 21437, Note_on_c, 0, 61, 0
2, 21439, Note_on_c, 0, 63, 64
2, 21450, Note_on_c, 0, 73, 0
2, 21452, Note_on_c, 0, 63, 0
2, 21454, Note_on_c, 0, 75, 64
2, 21454, Note_on_c, 0, 61, 64
2, 21467, Note_on_c, 0, 61, 0
2, 21469, Note_on_c, 0, 60, 64
2, 21480, Note_on_c, 0, 75, 0
2, 21482, Note_on_c, 0, 60, 0
2, 21484, Note_on_c, 0, 77, 64
2, 21484, Note_on_c, 0, 58, 64
2, 21510, Note_on_c, 0, 77, 0
2, 21514, Note_on_c, 0, 73, 64
2, 21540, Note_on_c, 0, 73, 0
2, 21544, Note_on_c, 0, 70, 64
2, 21557, Note_on_c, 0, 58, 0
2, 21559, Note_on_c, 0, 60, 64
2, 21570, Note_on_c, 0, 70, 0
2, 21572, Note_on_c, 0, 60, 0
2, 21574, Note_on_c, 0, 72, 64
2, 21574, Note_on_c, 0, 58, 64
2, 21587, Note_on_c, 0, 58, 0
2, 21589, Note_on_c, 0, 56, 64
2, 21600, Note_on_c, 0, 72, 0
2, 21602, Note_on_c, 0, 56, 0
2, 21604, Note_on_c, 0, 73, 64
2, 21604, Note_on_c, 0, 55, 64
2, 21630, Note_on_c, 0, 73, 0
2, 21634, Note_on_c, 0, 70, 64
2, 21660, Note_on_c, 0, 70, 0
2, 21664, Note_on_c, 0, 63, 64
2, 21677, Note_on_c, 0, 55, 0
2, 21679, Note_on_c, 0, 56, 64
2, 21690, Note_on_c, 0, 63, 0
2, 21692, Note_on_c, 0, 56, 0
2, 21694, Note_on_c, 0, 65, 64
2, 21694, Note_on_c, 0, 55, 64
2, 21707, Note_on_c, 0, 55, 0
2, 21709, Note_on_c, 0, 53, 64
2, 21720, Note_on_c, 0, 65, 0
2, 21722, Note_on_c, 0, 53, 0
2, 21724, Note_on_c, 0, 67, 64
2, 21724, Note_on_c, 0, 51, 64
2, 21750, Note_on_c, 0, 67, 0
2, 21754, Note_on_c, 0, 68, 64
2, 21776, Note_on_c, 0, 51, 0
2, 21780, Note_on_c, 0, 68, 0
2, 21784, Note_on_c, 0, 70, 64
2, 21810, Note_on_c, 0, 70, 0
2, 21814, Note_on_c, 0, 72, 64
2, 21840, Note_on_c, 0, 72, 0
2, 21844, Note_on_c, 0, 73, 64
2, 21870, Note_on_c, 0, 73, 0
2, 21874, Note_on_c, 0, 72, 64
2, 21900, Note_on_c, 0, 72, 0
2, 21904, Note_on_c, 0, 70, 64
2, 21919, Note_on_c, 0, 51, 64
2, 21930, Note_on_c, 0, 70, 0
2, 21932, Note_on_c, 0, 51, 0
2, 21934, Note_on_c, 0, 73, 64
2, 21934, Note_on_c, 0, 53, 64
2, 21947, Note_on_c, 0, 53, 0
2, 21949, Note_on_c, 0, 55, 64
2, 21960, Note_on_c, 0, 73, 0
2, 21962, Note_on_c, 0, 55, 0
2, 21964, Note_on_c, 0, 72, 64
2, 21964, Note_on_c, 0, 56, 64
2, 21977, Note_on_c, 0, 72, 0
2, 21979, Note_on_c, 0, 75, 64
2, 21992, Note_on_c, 0, 75, 0
2, 21994, Note_on_c, 0, 77, 64
2, 22007, Note_on_c, 0, 77, 0
2, 22009, Note_on_c, 0, 79, 64
2, 22022, Note_on_c, 0, 79, 0
2, 22024, Note_on_c, 0, 80, 64
2, 22037, Note_on_c, 0, 56, 0
2, 22039, Note_on_c, 0, 53, 64
2, 22050, Note_on_c, 0, 80, 0
2, 22052, Note_on_c, 0, 53, 0
2, 22054, Note_on_c, 0, 72, 64
2, 22054, Note_on_c, 0, 55, 64
2, 22067, Note_on_c, 0, 55, 0
2, 22069, Note_on_c, 0, 56, 64
2, 22080, Note_on_c, 0, 72, 0
2, 22082, Note_on_c, 0, 56, 0
2, 22084, Note_on_c, 0, 75, 64
2, 22084, Note_on_c, 0, 58, 64
2, 22110, Note_on_c, 0, 75, 0
2, 22114, Note_on_c, 0, 74, 64
2, 22140, Note_on_c, 0, 74, 0
2, 22144, Note_on_c, 0, 79, 64
2, 22162, Note_on_c, 0, 58, 0
2, 22170, Note_on_c, 0, 79, 0
2, 22174, Note_on_c, 0, 77, 64
2, 22174, Note_on_c, 0, 56, 64
2, 22200, Note_on_c, 0, 56, 0
2, 22200, Note_on_c, 0, 77, 0
2, 22204, Note_on_c, 0, 75, 64
2, 22204, Note_on_c, 0, 58, 64
2, 22230, Note_on_c, 0, 75, 0
2, 22234, Note_on_c, 0, 74, 64
2, 22260, Note_on_c, 0, 74, 0
2, 22264, Note_on_c, 0, 72, 64
2, 22282, Note_on_c, 0, 58, 0
2, 22290, Note_on_c, 0, 72, 0
2, 22294, Note_on_c, 0, 70, 64
2, 22294, Note_on_c, 0, 46, 64
2, 22320, Note_on_c, 0, 46, 0
2, 22320, Note_on_c, 0, 70, 0
2, 22324, Note_on_c, 0, 68, 64
2, 22324, Note_on_c, 0, 51, 64
2, 22337, Note_on_c, 0, 68, 0
2, 22339, Note_on_c, 0, 67, 64
2, 22352, Note_on_c, 0, 67, 0
2, 22354, Note_on_c, 0, 65, 64
2, 22380, Note_on_c, 0, 65, 0
2, 22384, Note_on_c, 0, 67, 64
2, 22402, Note_on_c, 0, 51, 0
2, 22410, Note_on_c, 0, 67, 0
2, 22414, Note_on_c, 0, 70, 64
2, 22414, Note_on_c, 0, 53, 64
2, 22440, Note_on_c, 0, 53, 0
2, 22440, Note_on_c, 0, 70, 0
2, 22444, Note_on_c, 0, 63, 64
2, 22444, Note_on_c, 0, 55, 64
2, 22457, Note_on_c, 0, 55, 0
2, 22459, Note_on_c, 0, 56, 64
2, 22472, Note_on_c, 0, 56, 0
2, 22474, Note_on_c, 0, 55, 64
2, 22487, Note_on_c, 0, 55, 0
2, 22489, Note_on_c, 0, 53, 64
2, 22496, Note_on_c, 0, 63, 0
2, 22502, Note_on_c, 0, 53, 0
2, 22504, Note_on_c, 0, 55, 64
2, 22530, Note_on_c, 0, 55, 0
2, 22534, Note_on_c, 0, 58, 64
2, 22560, Note_on_c, 0, 58, 0
2, 22564, Note_on_c, 0, 51, 64
2, 22590, Note_on_c, 0, 51, 0
2, 22594, Note_on_c, 0, 49, 64
2, 22620, Note_on_c, 0, 49, 0
2, 22624, Note_on_c, 0, 48, 64
2, 22650, Note_on_c, 0, 48, 0
2, 22654, Note_on_c, 0, 46, 64
2, 22680, Note_on_c, 0, 46, 0
2, 22684, Note_on_c, 0, 44, 64
2, 22714, Note_on_c, 0, 61, 64
2, 22740, Note_on_c, 0, 61, 0
2, 22744, Note_on_c, 0, 60, 64
2, 22757, Note_on_c, 0, 44, 0
2, 22759, Note_on_c, 0, 51, 64
2, 22770, Note_on_c, 0, 60, 0
2, 22772, Note_on_c, 0, 51, 0
2, 22774, Note_on_c, 0, 58, 64
2, 22774, Note_on_c, 0, 53, 64
2, 22787, Note_on_c, 0, 53, 0
2, 22789, Note_on_c, 0, 55, 64
2, 22800, Note_on_c, 0, 58, 0
2, 22802, Note_on_c, 0, 55, 0
2, 22804, Note_on_c, 0, 60, 64
2, 22804, Note_on_c, 0, 56, 64
2, 22830, Note_on_c, 0, 60, 0
2, 22834, Note_on_c, 0, 63, 64
2, 22860, Note_on_c, 0, 63, 0
2, 22864, Note_on_c, 0, 60, 64
2, 22882, Note_on_c, 0, 56, 0
2, 22890, Note_on_c, 0, 60, 0
2, 22894, Note_on_c, 0, 58, 64
2, 22894, Note_on_c, 0, 51, 64
2, 22920, Note_on_c, 0, 51, 0
2, 22920, Note_on_c, 0, 58, 0
2, 22924, Note_on_c, 0, 56, 64
2, 22924, Note_on_c, 0, 48, 64
2, 22950, Note_on_c, 0, 56, 0
2, 22954, Note_on_c, 0, 66, 64
2, 22980, Note_on_c, 0, 66, 0
2, 22984, Note_on_c, 0, 65, 64
2, 23002, Note_on_c, 0, 48, 0
2, 23010, Note_on_c, 0, 65, 0
2, 23014, Note_on_c, 0, 63, 64
2, 23014, Note_on_c, 0, 56, 64
2, 23040, Note_on_c, 0, 56, 0
2, 23040, Note_on_c, 0, 63, 0
2, 23044, Note_on_c, 0, 65, 64
2, 23044, Note_on_c, 0, 49, 64
2, 23070, Note_on_c, 0, 49, 0
2, 23074, Note_on_c, 0, 58, 64
2, 23100, Note_on_c, 0, 58, 0
2, 23104, Note_on_c, 0, 56, 64
2, 23117, Note_on_c, 0, 65, 0
2, 23119, Note_on_c, 0, 68, 64
2, 23130, Note_on_c, 0, 56, 0
2, 23132, Note_on_c, 0, 68, 0
2, 23134, Note_on_c, 0, 70, 64
2, 23134, Note_on_c, 0, 54, 64
2, 23147, Note_on_c, 0, 70, 0
2, 23149, Note_on_c, 0, 72, 64
2, 23160, Note_on_c, 0, 54, 0
2, 23162, Note_on_c, 0, 72, 0
2, 23164, Note_on_c, 0, 73, 64
2, 23164, Note_on_c, 0, 53, 64
2, 23190, Note_on_c, 0, 53, 0
2, 23194, Note_on_c, 0, 56, 64
2, 23220, Note_on_c, 0, 56, 0
2, 23224, Note_on_c, 0, 53, 64
2, 23237, Note_on_c, 0, 73, 0
2, 23239, Note_on_c, 0, 68, 64
2, 23250, Note_on_c, 0, 53, 0
2, 23252, Note_on_c, 0, 68, 0
2, 23254, Note_on_c, 0, 73, 64
2, 23254, Note_on_c, 0, 51, 64
2, 23267, Note_on_c, 0, 73, 0
2, 23269, Note_on_c, 0, 75, 64
2, 23280, Note_on_c, 0, 51, 0
2, 23282, Note_on_c, 0, 75, 0
2, 23284, Note_on_c, 0, 77, 64
2, 23284, Note_on_c, 0, 49, 64
2, 23310, Note_on_c, 0, 49, 0
2, 23314, Note_on_c, 0, 53, 64
2, 23340, Note_on_c, 0, 53, 0
2, 23344, Note_on_c, 0, 49, 64
2, 23370, Note_on_c, 0, 49, 0
2, 23374, Note_on_c, 0, 48, 64
2, 23400, Note_on_c, 0, 48, 0
2, 23404, Note_on_c, 0, 46, 64
2, 23430, Note_on_c, 0, 77, 0
2, 23434, Note_on_c, 0, 63, 64
2, 23460, Note_on_c, 0, 63, 0
2, 23464, Note_on_c, 0, 62, 64
2, 23477, Note_on_c, 0, 46, 0
2, 23479, Note_on_c, 0, 53, 64
2, 23490, Note_on_c, 0, 62, 0
2, 23492, Note_on_c, 0, 53, 0
2, 23494, Note_on_c, 0, 60, 64
2, 23494, Note_on_c, 0, 55, 64
2, 23507, Note_on_c, 0, 55, 0
2, 23509, Note_on_c, 0, 56, 64
2, 23520, Note_on_c, 0, 60, 0
2, 23522, Note_on_c, 0, 56, 0
2, 23524, Note_on_c, 0, 62, 64
2, 23524, Note_on_c, 0, 58, 64
2, 23550, Note_on_c, 0, 62, 0
2, 23554, Note_on_c, 0, 65, 64
2, 23580, Note_on_c, 0, 65, 0
2, 23584, Note_on_c, 0, 62, 64
2, 23602, Note_on_c, 0, 58, 0
2, 23610, Note_on_c, 0, 62, 0
2, 23614, Note_on_c, 0, 60, 64
2, 23614, Note_on_c, 0, 53, 64
2, 23640, Note_on_c, 0, 53, 0
2, 23640, Note_on_c, 0, 60, 0
2, 23644, Note_on_c, 0, 58, 64
2, 23644, Note_on_c, 0, 50, 64
2, 23670, Note_on_c, 0, 58, 0
2, 23674, Note_on_c, 0, 68, 64
2, 23700, Note_on_c, 0, 68, 0
2, 23704, Note_on_c, 0, 67, 64
2, 23722, Note_on_c, 0, 50, 0
2, 23730, Note_on_c, 0, 67, 0
2, 23734, Note_on_c, 0, 65, 64
2, 23734, Note_on_c, 0, 58, 64
2, 23760, Note_on_c, 0, 58, 0
2, 23760, Note_on_c, 0, 65, 0
2, 23764, Note_on_c, 0, 67, 64
2, 23764, Note_on_c, 0, 51, 64
2, 23790, Note_on_c, 0, 51, 0
2, 23794, Note_on_c, 0, 63, 64
2, 23820, Note_on_c, 0, 63, 0
2, 23824, Note_on_c, 0, 61, 64
2, 23837, Note_on_c, 0, 67, 0
2, 23839, Note_on_c, 0, 70, 64
2, 23850, Note_on_c, 0, 61, 0
2, 23852, Note_on_c, 0, 70, 0
2, 23854, Note_on_c, 0, 75, 64
2, 23854, Note_on_c, 0, 60, 64
2, 23867, Note_on_c, 0, 75, 0
2, 23869, Note_on_c, 0, 77, 64
2, 23880, Note_on_c, 0, 60, 0
2, 23882, Note_on_c, 0, 77, 0
2, 23884, Note_on_c, 0, 79, 64
2, 23884, Note_on_c, 0, 58, 64
2, 23910, Note_on_c, 0, 58, 0
2, 23914, Note_on_c, 0, 61, 64
2, 23940, Note_on_c, 0, 61, 0
2, 23944, Note_on_c, 0, 58, 64
2, 23957, Note_on_c, 0, 79, 0
2, 23959, Note_on_c, 0, 75, 64
2, 23970, Note_on_c, 0, 58, 0
2, 23972, Note_on_c, 0, 75, 0
2, 23974, Note_on_c, 0, 79, 64
2, 23974, Note_on_c, 0, 56, 64
2, 23987, Note_on_c, 0, 79, 0
2, 23989, Note_on_c, 0, 80, 64
2, 24000, Note_on_c, 0, 56, 0
2, 24002, Note_on_c, 0, 80, 0
2, 24004, Note_on_c, 0, 82, 64
2, 24004, Note_on_c, 0, 55, 64
2, 24030, Note_on_c, 0, 55, 0
2, 24034, Note_on_c, 0, 58, 64
2, 24060, Note_on_c, 0, 58, 0
2, 24064, Note_on_c, 0, 55, 64
2, 24077, Note_on_c, 0, 82, 0
2, 24079, Note_on_c, 0, 75, 64
2, 24090, Note_on_c, 0, 55, 0
2, 24092, Note_on_c, 0, 75, 0
2, 24094, Note_on_c, 0, 82, 64
2, 24094, Note_on_c, 0, 53, 64
2, 24107, Note_on_c, 0, 82, 0
2, 24109, Note_on_c, 0, 84, 64
2, 24120, Note_on_c, 0, 53, 0
2, 24122, Note_on_c, 0, 84, 0
2, 24124, Note_on_c, 0, 85, 64
2, 24124, Note_on_c, 0, 51, 64
2, 24150, Note_on_c, 0, 85, 0
2, 24154, Note_on_c, 0, 84, 64
2, 24180, Note_on_c, 0, 84, 0
2, 24184, Note_on_c, 0, 82, 64
2, 24197, Note_on_c, 0, 51, 0
2, 24199, Note_on_c, 0, 58, 64
2, 24210, Note_on_c, 0, 82, 0
2, 24212, Note_on_c, 0, 58, 0
2, 24214, Note_on_c, 0, 80, 64
2, 24214, Note_on_c, 0, 60, 64
2, 24227, Note_on_c, 0, 60, 0
2, 24229, Note_on_c, 0, 61, 64
2, 24240, Note_on_c, 0, 80, 0
2, 24242, Note_on_c, 0, 61, 0
2, 24244, Note_on_c, 0, 79, 64
2, 24244, Note_on_c, 0, 63, 64
2, 24270, Note_on_c, 0, 79, 0
2, 24274, Note_on_c, 0, 82, 64
2, 24300, Note_on_c, 0, 82, 0
2, 24304, Note_on_c, 0, 79, 64
2, 24317, Note_on_c, 0, 63, 0
2, 24319, Note_on_c, 0, 62, 64
2, 24330, Note_on_c, 0, 79, 0
2, 24332, Note_on_c, 0, 62, 0
2, 24334, Note_on_c, 0, 77, 64
2, 24334, Note_on_c, 0, 63, 64
2, 24347, Note_on_c, 0, 63, 0
2, 24349, Note_on_c, 0, 65, 64
2, 24360, Note_on_c, 0, 77, 0
2, 24362, Note_on_c, 0, 65, 0
2, 24364, Note_on_c, 0, 75, 64
2, 24364, Note_on_c, 0, 67, 64
2, 24390, Note_on_c, 0, 75, 0
2, 24394, Note_on_c, 0, 82, 64
2, 24420, Note_on_c, 0, 82, 0
2, 24424, Note_on_c, 0, 75, 64
2, 24437, Note_on_c, 0, 67, 0
2, 24439, Note_on_c, 0, 63, 64
2, 24450, Note_on_c, 0, 75, 0
2, 24452, Note_on_c, 0, 63, 0
2, 24454, Note_on_c, 0, 73, 64
2, 24454, Note_on_c, 0, 65, 64
2, 24467, Note_on_c, 0, 65, 0
2, 24469, Note_on_c, 0, 67, 64
2, 24480, Note_on_c, 0, 73, 0
2, 24482, Note_on_c, 0, 67, 0
2, 24484, Note_on_c, 0, 72, 64
2, 24484, Note_on_c, 0, 68, 64
2, 24510, Note_on_c, 0, 68, 0
2, 24514, Note_on_c, 0, 65, 64
2, 24540, Note_on_c, 0, 65, 0
2, 24544, Note_on_c, 0, 63, 64
2, 24557, Note_on_c, 0, 72, 0
2, 24559, Note_on_c, 0, 73, 64
2, 24570, Note_on_c, 0, 63, 0
2, 24572, Note_on_c, 0, 73, 0
2, 24574, Note_on_c, 0, 75, 64
2, 24574, Note_on_c, 0, 61, 64
2, 24587, Note_on_c, 0, 75, 0
2, 24589, Note_on_c, 0, 77, 64
2, 24600, Note_on_c, 0, 61, 0
2, 24602, Note_on_c, 0, 77, 0
2, 24604, Note_on_c, 0, 78, 64
2, 24604, Note_on_c, 0, 60, 64
2, 24630, Note_on_c, 0, 60, 0
2, 24634, Note_on_c, 0, 63, 64
2, 24660, Note_on_c, 0, 63, 0
2, 24664, Note_on_c, 0, 60, 64
2, 24682, Note_on_c, 0, 78, 0
2, 24690, Note_on_c, 0, 60, 0
2, 24694, Note_on_c, 0, 68, 64
2, 24694, Note_on_c, 0, 58, 64
2, 24720, Note_on_c, 0, 58, 0
2, 24724, Note_on_c, 0, 72, 64
2, 24724, Note_on_c, 0, 75, 64
2, 24724, Note_on_c, 0, 78, 64
2, 24724, Note_on_c, 0, 56, 64
2, 24750, Note_on_c, 0, 56, 0
2, 24754, Note_on_c, 0, 60, 64
2, 24767, Note_on_c, 0, 60, 0
2, 24769, Note_on_c, 0, 58, 64
2, 24782, Note_on_c, 0, 58, 0
2, 24784, Note_on_c, 0, 56, 64
2, 24797, Note_on_c, 0, 56, 0
2, 24799, Note_on_c, 0, 54, 64
2, 24812, Note_on_c, 0, 54, 0
2, 24814, Note_on_c, 0, 53, 64
2, 24827, Note_on_c, 0, 53, 0
2, 24829, Note_on_c, 0, 51, 64
2, 24842, Note_on_c, 0, 51, 0
2, 24844, Note_on_c, 0, 49, 64
2, 24870, Note_on_c, 0, 75, 0
2, 24870, Note_on_c, 0, 78, 0
2, 24870, Note_on_c, 0, 68, 0
2, 24870, Note_on_c, 0, 72, 0
2, 24874, Note_on_c, 0, 78, 64
2, 24900, Note_on_c, 0, 78, 0
2, 24904, Note_on_c, 0, 77, 64
2, 24917, Note_on_c, 0, 49, 0
2, 24919, Note_on_c, 0, 53, 64
2, 24930, Note_on_c, 0, 77, 0
2, 24932, Note_on_c, 0, 53, 0
2, 24934, Note_on_c, 0, 75, 64
2, 24934, Note_on_c, 0, 55, 64
2, 24947, Note_on_c, 0, 55, 0
2, 24949, Note_on_c, 0, 56, 64
2, 24960, Note_on_c, 0, 75, 0
2, 24962, Note_on_c, 0, 56, 0
2, 24964, Note_on_c, 0, 73, 64
2, 24964, Note_on_c, 0, 58, 64
2, 24990, Note_on_c, 0, 73, 0
2, 24994, Note_on_c, 0, 77, 64
2, 25020, Note_on_c, 0, 77, 0
2, 25024, Note_on_c, 0, 73, 64
2, 25037, Note_on_c, 0, 58, 0
2, 25039, Note_on_c, 0, 56, 64
2, 25050, Note_on_c, 0, 73, 0
2, 25052, Note_on_c, 0, 56, 0
2, 25054, Note_on_c, 0, 72, 64
2, 25054, Note_on_c, 0, 58, 64
2, 25067, Note_on_c, 0, 58, 0
2, 25069, Note_on_c, 0, 60, 64
2, 25080, Note_on_c, 0, 72, 0
2, 25082, Note_on_c, 0, 60, 0
2, 25084, Note_on_c, 0, 70, 64
2, 25084, Note_on_c, 0, 61, 64
2, 25110, Note_on_c, 0, 70, 0
2, 25114, Note_on_c, 0, 77, 64
2, 25140, Note_on_c, 0, 77, 0
2, 25144, Note_on_c, 0, 70, 64
2, 25162, Note_on_c, 0, 61, 0
2, 25170, Note_on_c, 0, 70, 0
2, 25174, Note_on_c, 0, 68, 64
2, 25174, Note_on_c, 0, 60, 64
2, 25200, Note_on_c, 0, 60, 0
2, 25200, Note_on_c, 0, 68, 0
2, 25204, Note_on_c, 0, 67, 64
2, 25204, Note_on_c, 0, 58, 64
2, 25230, Note_on_c, 0, 67, 0
2, 25234, Note_on_c, 0, 77, 64
2, 25260, Note_on_c, 0, 77, 0
2, 25264, Note_on_c, 0, 75, 64
2, 25277, Note_on_c, 0, 58, 0
2, 25279, Note_on_c, 0, 51, 64
2, 25290, Note_on_c, 0, 75, 0
2, 25292, Note_on_c, 0, 51, 0
2, 25294, Note_on_c, 0, 73, 64
2, 25294, Note_on_c, 0, 53, 64
2, 25307, Note_on_c, 0, 53, 0
2, 25309, Note_on_c, 0, 55, 64
2, 25320, Note_on_c, 0, 73, 0
2, 25322, Note_on_c, 0, 55, 0
2, 25324, Note_on_c, 0, 72, 64
2, 25324, Note_on_c, 0, 56, 64
2, 25350, Note_on_c, 0, 72, 0
2, 25354, Note_on_c, 0, 75, 64
2, 25380, Note_on_c, 0, 75, 0
2, 25384, Note_on_c, 0, 72, 64
2, 25397, Note_on_c, 0, 56, 0
2, 25399, Note_on_c, 0, 55, 64
2, 25410, Note_on_c, 0, 72, 0
2, 25412, Note_on_c, 0, 55, 0
2, 25414, Note_on_c, 0, 70, 64
2, 25414, Note_on_c, 0, 56, 64
2, 25427, Note_on_c, 0, 56, 0
2, 25429, Note_on_c, 0, 58, 64
2, 25440, Note_on_c, 0, 70, 0
2, 25442, Note_on_c, 0, 58, 0
2, 25444, Note_on_c, 0, 68, 64
2, 25444, Note_on_c, 0, 60, 64
2, 25470, Note_on_c, 0, 68, 0
2, 25474, Note_on_c, 0, 75, 64
2, 25500, Note_on_c, 0, 75, 0
2, 25504, Note_on_c, 0, 68, 64
2, 25522, Note_on_c, 0, 60, 0
2, 25530, Note_on_c, 0, 68, 0
2, 25534, Note_on_c, 0, 67, 64
2, 25534, Note_on_c, 0, 58, 64
2, 25560, Note_on_c, 0, 58, 0
2, 25560, Note_on_c, 0, 67, 0
2, 25564, Note_on_c, 0, 65, 64
2, 25564, Note_on_c, 0, 56, 64
2, 25590, Note_on_c, 0, 65, 0
2, 25594, Note_on_c, 0, 75, 64
2, 25620, Note_on_c, 0, 75, 0
2, 25624, Note_on_c, 0, 73, 64
2, 25637, Note_on_c, 0, 56, 0
2, 25639, Note_on_c, 0, 44, 64
2, 25650, Note_on_c, 0, 73, 0
2, 25652, Note_on_c, 0, 44, 0
2, 25654, Note_on_c, 0, 72, 64
2, 25654, Note_on_c, 0, 46, 64
2, 25667, Note_on_c, 0, 46, 0
2, 25669, Note_on_c, 0, 48, 64
2, 25680, Note_on_c, 0, 72, 0
2, 25682, Note_on_c, 0, 48, 0
2, 25684, Note_on_c, 0, 70, 64
2, 25684, Note_on_c, 0, 49, 64
2, 25710, Note_on_c, 0, 70, 0
2, 25714, Note_on_c, 0, 73, 64
2, 25740, Note_on_c, 0, 73, 0
2, 25744, Note_on_c, 0, 70, 64
2, 25757, Note_on_c, 0, 49, 0
2, 25759, Note_on_c, 0, 48, 64
2, 25770, Note_on_c, 0, 70, 0
2, 25772, Note_on_c, 0, 48, 0
2, 25774, Note_on_c, 0, 68, 64
2, 25774, Note_on_c, 0, 49, 64
2, 25787, Note_on_c, 0, 49, 0
2, 25789, Note_on_c, 0, 51, 64
2, 25800, Note_on_c, 0, 68, 0
2, 25802, Note_on_c, 0, 51, 0
2, 25804, Note_on_c, 0, 67, 64
2, 25804, Note_on_c, 0, 52, 64
2, 25830, Note_on_c, 0, 67, 0
2, 25834, Note_on_c, 0, 73, 64
2, 25860, Note_on_c, 0, 73, 0
2, 25864, Note_on_c, 0, 67, 64
2, 25882, Note_on_c, 0, 52, 0
2, 25890, Note_on_c, 0, 67, 0
2, 25894, Note_on_c, 0, 65, 64
2, 25894, Note_on_c, 0, 44, 64
2, 25920, Note_on_c, 0, 44, 0
2, 25920, Note_on_c, 0, 65, 0
2, 25924, Note_on_c, 0, 63, 64
2, 25924, Note_on_c, 0, 43, 64
2, 25950, Note_on_c, 0, 63, 0
2, 25954, Note_on_c, 0, 73, 64
2, 25980, Note_on_c, 0, 73, 0
2, 25984, Note_on_c, 0, 71, 64
2, 25997, Note_on_c, 0, 43, 0
2, 25999, Note_on_c, 0, 39, 64
2, 26010, Note_on_c, 0, 71, 0
2, 26012, Note_on_c, 0, 39, 0
2, 26014, Note_on_c, 0, 70, 64
2, 26014, Note_on_c, 0, 44, 64
2, 26027, Note_on_c, 0, 44, 0
2, 26029, Note_on_c, 0, 46, 64
2, 26040, Note_on_c, 0, 70, 0
2, 26042, Note_on_c, 0, 46, 0
2, 26044, Note_on_c, 0, 68, 64
2, 26044, Note_on_c, 0, 47, 64
2, 26070, Note_on_c, 0, 68, 0
2, 26074, Note_on_c, 0, 71, 64
2, 26100, Note_on_c, 0, 71, 0
2, 26104, Note_on_c, 0, 68, 64
2, 26117, Note_on_c, 0, 47, 0
2, 26119, Note_on_c, 0, 46, 64
2, 26130, Note_on_c, 0, 68, 0
2, 26132, Note_on_c, 0, 46, 0
2, 26134, Note_on_c, 0, 66, 64
2, 26134, Note_on_c, 0, 44, 64
2, 26147, Note_on_c, 0, 44, 0
2, 26149, Note_on_c, 0, 42, 64
2, 26160, Note_on_c, 0, 66, 0
2, 26162, Note_on_c, 0, 42, 0
2, 26164, Note_on_c, 0, 64, 64
2, 26164, Note_on_c, 0, 44, 64
2, 26190, Note_on_c, 0, 64, 0
2, 26194, Note_on_c, 0, 71, 64
2, 26220, Note_on_c, 0, 71, 0
2, 26224, Note_on_c, 0, 64, 64
2, 26237, Note_on_c, 0, 44, 0
2, 26239, Note_on_c, 0, 42, 64
2, 26250, Note_on_c, 0, 64, 0
2, 26252, Note_on_c, 0, 42, 0
2, 26254, Note_on_c, 0, 63, 64
2, 26254, Note_on_c, 0, 40, 64
2, 26267, Note_on_c, 0, 40, 0
2, 26269, Note_on_c, 0, 39, 64
2, 26280, Note_on_c, 0, 63, 0
2, 26282, Note_on_c, 0, 39, 0
2, 26284, Note_on_c, 0, 61, 64
2, 26284, Note_on_c, 0, 40, 64
2, 26310, Note_on_c, 0, 61, 0
2, 26314, Note_on_c, 0, 71, 64
2, 26340, Note_on_c, 0, 71, 0
2, 26344, Note_on_c, 0, 69, 64
2, 26357, Note_on_c, 0, 40, 0
2, 26359, Note_on_c, 0, 44, 64
2, 26370, Note_on_c, 0, 69, 0
2, 26372, Note_on_c, 0, 44, 0
2, 26374, Note_on_c, 0, 68, 64
2, 26374, Note_on_c, 0, 45, 64
2, 26387, Note_on_c, 0, 45, 0
2, 26389, Note_on_c, 0, 47, 64
2, 26400, Note_on_c, 0, 68, 0
2, 26402, Note_on_c, 0, 47, 0
2, 26404, Note_on_c, 0, 69, 64
2, 26404, Note_on_c, 0, 49, 64
2, 26417, Note_on_c, 0, 69, 0
2, 26419, Note_on_c, 0, 64, 64
2, 26432, Note_on_c, 0, 64, 0
2, 26434, Note_on_c, 0, 66, 64
2, 26447, Note_on_c, 0, 66, 0
2, 26449, Note_on_c, 0, 68, 64
2, 26462, Note_on_c, 0, 68, 0
2, 26464, Note_on_c, 0, 69, 64
2, 26477, Note_on_c, 0, 69, 0
2, 26479, Note_on_c, 0, 71, 64
2, 26482, Note_on_c, 0, 49, 0
2, 26492, Note_on_c, 0, 71, 0
2, 26494, Note_on_c, 0, 73, 64
2, 26494, Note_on_c, 0, 37, 64
2, 26507, Note_on_c, 0, 73, 0
2, 26509, Note_on_c, 0, 74, 64
2, 26520, Note_on_c, 0, 37, 0
2, 26522, Note_on_c, 0, 74, 0
2, 26524, Note_on_c, 0, 76, 64
2, 26524, Note_on_c, 0, 49, 64
2, 26550, Note_on_c, 0, 76, 0
2, 26554, Note_on_c, 0, 73, 64
2, 26580, Note_on_c, 0, 73, 0
2, 26584, Note_on_c, 0, 69, 64
2, 26602, Note_on_c, 0, 49, 0
2, 26610, Note_on_c, 0, 69, 0
2, 26614, Note_on_c, 0, 68, 64
2, 26614, Note_on_c, 0, 49, 64
2, 26640, Note_on_c, 0, 49, 0
2, 26640, Note_on_c, 0, 68, 0
2, 26644, Note_on_c, 0, 67, 64
2, 26644, Note_on_c, 0, 58, 64
2, 26644, Note_on_c, 0, 63, 64
2, 26644, Note_on_c, 0, 49, 64
2, 26749, Note_on_c, 0, 49, 0
2, 26749, Note_on_c, 0, 67, 0
2, 26749, Note_on_c, 0, 58, 0
2, 26749, Note_on_c, 0, 63, 0
2, 26854, Note_on_c, 0, 77, 64
2, 26854, Note_on_c, 0, 67, 64
2, 26854, Note_on_c, 0, 73, 64
2, 26854, Note_on_c, 0, 46, 64
2, 26880, Note_on_c, 0, 46, 0
2, 26880, Note_on_c, 0, 77, 0
2, 26880, Note_on_c, 0, 67, 0
2, 26880, Note_on_c, 0, 73, 0
2, 26884, Note_on_c, 0, 75, 64
2, 26884, Note_on_c, 0, 68, 64
2, 26884, Note_on_c, 0, 72, 64
2, 26884, Note_on_c, 0, 48, 64
2, 26989, Note_on_c, 0, 48, 0
2, 26989, Note_on_c, 0, 75, 0
2, 26989, Note_on_c, 0, 68, 0
2, 26989, Note_on_c, 0, 72, 0
2, 27094, Note_on_c, 0, 65, 64
2, 27094, Note_on_c, 0, 65, 64
2, 27094, Note_on_c, 0, 59, 64
2, 27094, Note_on_c, 0, 50, 64
2, 27120, Note_on_c, 0, 50, 0
2, 27120, Note_on_c, 0, 65, 0
2, 27120, Note_on_c, 0, 65, 0
2, 27120, Note_on_c, 0, 59, 0
2, 27124, Note_on_c, 0, 63, 64
2, 27124, Note_on_c, 0, 68, 64
2, 27124, Note_on_c, 0, 58, 64
2, 27124, Note_on_c, 0, 51, 64
2, 27202, Note_on_c, 0, 58, 0
2, 27214, Note_on_c, 0, 61, 64
2, 27227, Note_on_c, 0, 61, 0
2, 27229, Note_on_c, 0, 68, 0
2, 27229, Note_on_c, 0, 60, 64
2, 27242, Note_on_c, 0, 60, 0
2, 27244, Note_on_c, 0, 67, 64
2, 27244, Note_on_c, 0, 61, 64
2, 27322, Note_on_c, 0, 67, 0
2, 27334, Note_on_c, 0, 68, 64
2, 27349, Note_on_c, 0, 51, 0
2, 27349, Note_on_c, 0, 61, 0
2, 27349, Note_on_c, 0, 63, 0
2, 27360, Note_on_c, 0, 68, 0
2, 27364, Note_on_c, 0, 63, 64
2, 27364, Note_on_c, 0, 68, 64
2, 27364, Note_on_c, 0, 60, 64
2, 27364, Note_on_c, 0, 44, 64
2, 27469, Note_on_c, 0, 44, 0
2, 27469, Note_on_c, 0, 63, 0
2, 27469, Note_on_c, 0, 68, 0
2, 27469, Note_on_c, 0, 60, 0
2, 27469, End_track
0, 0, End_of_file
