0, 0, Header, 1, 5, 120
1, 0, Start_track
1, 0, Time_signature, 4, 2, 24, 8
1, 0, Key_signature, -4, "major"
1, 0, Tempo, 810811
1, 0, Marker_t, "(c) Yo Tomita, 1997"
1, 21748, Tempo, 827586
1, 21820, Tempo, 882353
1, 21856, Tempo, 902256
1, 21894, Tempo, 923077
1, 21932, Tempo, 952381
1, 21962, Tempo, 983607
1, 22004, Tempo, 1025641
1, 22034, Tempo, 1071429
1, 22084, Tempo, 816327
1, 23215, Tempo, 821918
1, 23242, Tempo, 827586
1, 23270, Tempo, 833333
1, 23297, Tempo, 839161
1, 23325, Tempo, 845070
1, 23352, Tempo, 851064
1, 23380, Tempo, 857143
1, 23407, Tempo, 863309
1, 23435, Tempo, 869565
1, 23462, Tempo, 875912
1, 23490, Tempo, 882353
1, 23517, Tempo, 888889
1, 23545, Tempo, 895522
1, 23572, Tempo, 902256
1, 23600, Tempo, 909091
1, 23627, Tempo, 916031
1, 23655, Tempo, 923077
1, 23682, Tempo, 930233
1, 23685, Tempo, 930233
1, 23690, Tempo, 937500
1, 23695, Tempo, 944882
1, 23700, Tempo, 952381
1, 23705, Tempo, 960000
1, 23710, Tempo, 967742
1, 23715, Tempo, 975610
1, 23720, Tempo, 983607
1, 23725, Tempo, 991736
1, 23730, Tempo, 1000000
1, 23735, Tempo, 1008403
1, 23740, Tempo, 1016949
1, 23745, Tempo, 1025641
1, 23752, Tempo, 1034483
1, 23757, Tempo, 1043478
1, 23762, Tempo, 1052632
1, 23767, Tempo, 1061947
1, 23772, Tempo, 1071429
1, 23777, Tempo, 1081081
1, 23782, Tempo, 1090909
1, 23787, Tempo, 1100917
1, 23792, Tempo, 1111111
1, 23797, Tempo, 1121495
1, 23802, Tempo, 1132075
1, 23807, Tempo, 1142857
1, 23812, Tempo, 1153846
1, 23817, Tempo, 1165049
1, 23822, Tempo, 1176471
1, 23827, Tempo, 1188119
1, 23832, Tempo, 1200000
1, 23837, Tempo, 1212121
1, 23842, Tempo, 1224490
1, 23847, Tempo, 1276596
1, 23850, Tempo, 1290323
1, 23852, Tempo, 1304348
1, 23855, Tempo, 1318681
1, 23857, Tempo, 1333333
1, 23860, Tempo, 1363636
1, 23862, Tempo, 1379310
1, 23865, Tempo, 1395349
1, 23867, Tempo, 1411765
1, 23870, Tempo, 1445783
1, 23872, Tempo, 1463415
1, 23875, Tempo, 1481481
1, 23877, Tempo, 1500000
1, 23880, Tempo, 1538462
1, 23880, End_track
2, 0, Start_track
2, 0, MIDI_port, 0
2, 0, Title_t, "BWV 886/2"
2, 0, Program_c, 0, 6
2, 1024, Note_on_c, 0, 80, 64
2, 1076, Note_on_c, 0, 80, 0
2, 1084, Note_on_c, 0, 79, 64
2, 1136, Note_on_c, 0, 79, 0
2, 1144, Note_on_c, 0, 84, 64
2, 1196, Note_on_c, 0, 84, 0
2, 1204, Note_on_c, 0, 77, 64
2, 1256, Note_on_c, 0, 77, 0
2, 1264, Note_on_c, 0, 79, 64
2, 1290, Note_on_c, 0, 79, 0
2, 1294, Note_on_c, 0, 80, 64
2, 1320, Note_on_c, 0, 80, 0
2, 1324, Note_on_c, 0, 82, 64
2, 1376, Note_on_c, 0, 82, 0
2, 1384, Note_on_c, 0, 70, 64
2, 1436, Note_on_c, 0, 70, 0
2, 1444, Note_on_c, 0, 75, 64
2, 1496, Note_on_c, 0, 75, 0
2, 1504, Note_on_c, 0, 77, 64
2, 1530, Note_on_c, 0, 77, 0
2, 1534, Note_on_c, 0, 79, 64
2, 1560, Note_on_c, 0, 79, 0
2, 1564, Note_on_c, 0, 80, 64
2, 1710, Note_on_c, 0, 80, 0
2, 1714, Note_on_c, 0, 82, 64
2, 1740, Note_on_c, 0, 82, 0
2, 1744, Note_on_c, 0, 79, 64
2, 1770, Note_on_c, 0, 79, 0
2, 1774, Note_on_c, 0, 80, 64
2, 1800, Note_on_c, 0, 80, 0
2, 1804, Note_on_c, 0, 77, 64
2, 1830, Note_on_c, 0, 77, 0
2, 1834, Note_on_c, 0, 79, 64
2, 1860, Note_on_c, 0, 79, 0
2, 1864, Note_on_c, 0, 80, 64
2, 1890, Note_on_c, 0, 80, 0
2, 1894, Note_on_c, 0, 82, 64
2, 1920, Note_on_c, 0, 82, 0
2, 1924, Note_on_c, 0, 79, 64
2, 1950, Note_on_c, 0, 79, 0
2, 1954, Note_on_c, 0, 77, 64
2, 1980, Note_on_c, 0, 77, 0
2, 1984, Note_on_c, 0, 79, 64
2, 2010, Note_on_c, 0, 79, 0
2, 2014, Note_on_c, 0, 80, 64
2, 2040, Note_on_c, 0, 80, 0
2, 2044, Note_on_c, 0, 82, 64
2, 2070, Note_on_c, 0, 82, 0
2, 2074, Note_on_c, 0, 80, 64
2, 2100, Note_on_c, 0, 80, 0
2, 2104, Note_on_c, 0, 79, 64
2, 2130, Note_on_c, 0, 79, 0
2, 2134, Note_on_c, 0, 82, 64
2, 2160, Note_on_c, 0, 82, 0
2, 2164, Note_on_c, 0, 80, 64
2, 2190, Note_on_c, 0, 80, 0
2, 2194, Note_on_c, 0, 79, 64
2, 2220, Note_on_c, 0, 79, 0
2, 2224, Note_on_c, 0, 77, 64
2, 2250, Note_on_c, 0, 77, 0
2, 2254, Note_on_c, 0, 75, 64
2, 2280, Note_on_c, 0, 75, 0
2, 2284, Note_on_c, 0, 73, 64
2, 2310, Note_on_c, 0, 73, 0
2, 2314, Note_on_c, 0, 72, 64
2, 2340, Note_on_c, 0, 72, 0
2, 2344, Note_on_c, 0, 73, 64
2, 2370, Note_on_c, 0, 73, 0
2, 2374, Note_on_c, 0, 75, 64
2, 2400, Note_on_c, 0, 75, 0
2, 2404, Note_on_c, 0, 72, 64
2, 2456, Note_on_c, 0, 72, 0
2, 2464, Note_on_c, 0, 75, 64
2, 2516, Note_on_c, 0, 75, 0
2, 2524, Note_on_c, 0, 80, 64
2, 2629, Note_on_c, 0, 80, 0
2, 2644, Note_on_c, 0, 79, 64
2, 2749, Note_on_c, 0, 79, 0
2, 2764, Note_on_c, 0, 78, 64
2, 2869, Note_on_c, 0, 78, 0
2, 2884, Note_on_c, 0, 77, 64
2, 2989, Note_on_c, 0, 77, 0
2, 3004, Note_on_c, 0, 76, 64
2, 3109, Note_on_c, 0, 76, 0
2, 3124, Note_on_c, 0, 75, 64
2, 3176, Note_on_c, 0, 75, 0
2, 3184, Note_on_c, 0, 80, 64
2, 3289, Note_on_c, 0, 80, 0
2, 3304, Note_on_c, 0, 79, 64
2, 3356, Note_on_c, 0, 79, 0
2, 3364, Note_on_c, 0, 80, 64
2, 3416, Note_on_c, 0, 80, 0
2, 10144, Note_on_c, 0, 75, 64
2, 10196, Note_on_c, 0, 75, 0
2, 10204, Note_on_c, 0, 72, 64
2, 10256, Note_on_c, 0, 72, 0
2, 10264, Note_on_c, 0, 77, 64
2, 10316, Note_on_c, 0, 77, 0
2, 10324, Note_on_c, 0, 70, 64
2, 10376, Note_on_c, 0, 70, 0
2, 10384, Note_on_c, 0, 72, 64
2, 10410, Note_on_c, 0, 72, 0
2, 10414, Note_on_c, 0, 73, 64
2, 10440, Note_on_c, 0, 73, 0
2, 10444, Note_on_c, 0, 75, 64
2, 10496, Note_on_c, 0, 75, 0
2, 10504, Note_on_c, 0, 63, 64
2, 10556, Note_on_c, 0, 63, 0
2, 10564, Note_on_c, 0, 68, 64
2, 10616, Note_on_c, 0, 68, 0
2, 10624, Note_on_c, 0, 70, 64
2, 10650, Note_on_c, 0, 70, 0
2, 10654, Note_on_c, 0, 72, 64
2, 10680, Note_on_c, 0, 72, 0
2, 10684, Note_on_c, 0, 73, 64
2, 10830, Note_on_c, 0, 73, 0
2, 10834, Note_on_c, 0, 75, 64
2, 10860, Note_on_c, 0, 75, 0
2, 10864, Note_on_c, 0, 72, 64
2, 10890, Note_on_c, 0, 72, 0
2, 10894, Note_on_c, 0, 73, 64
2, 10920, Note_on_c, 0, 73, 0
2, 10924, Note_on_c, 0, 70, 64
2, 10950, Note_on_c, 0, 70, 0
2, 10954, Note_on_c, 0, 72, 64
2, 10980, Note_on_c, 0, 72, 0
2, 10984, Note_on_c, 0, 73, 64
2, 11010, Note_on_c, 0, 73, 0
2, 11014, Note_on_c, 0, 75, 64
2, 11040, Note_on_c, 0, 75, 0
2, 11044, Note_on_c, 0, 72, 64
2, 11096, Note_on_c, 0, 72, 0
2, 11104, Note_on_c, 0, 76, 64
2, 11156, Note_on_c, 0, 76, 0
2, 11164, Note_on_c, 0, 77, 64
2, 11269, Note_on_c, 0, 77, 0
2, 11284, Note_on_c, 0, 76, 64
2, 11389, Note_on_c, 0, 76, 0
2, 11404, Note_on_c, 0, 75, 64
2, 11509, Note_on_c, 0, 75, 0
2, 11524, Note_on_c, 0, 74, 64
2, 11629, Note_on_c, 0, 74, 0
2, 11644, Note_on_c, 0, 73, 64
2, 11749, Note_on_c, 0, 73, 0
2, 11764, Note_on_c, 0, 72, 64
2, 11816, Note_on_c, 0, 72, 0
2, 11824, Note_on_c, 0, 77, 64
2, 11929, Note_on_c, 0, 77, 0
2, 11944, Note_on_c, 0, 75, 64
2, 12056, Note_on_c, 0, 75, 0
2, 12064, Note_on_c, 0, 63, 64
2, 12116, Note_on_c, 0, 63, 0
2, 12124, Note_on_c, 0, 62, 64
2, 12176, Note_on_c, 0, 62, 0
2, 12184, Note_on_c, 0, 74, 64
2, 12296, Note_on_c, 0, 74, 0
2, 12304, Note_on_c, 0, 62, 64
2, 12356, Note_on_c, 0, 62, 0
2, 12364, Note_on_c, 0, 60, 64
2, 12416, Note_on_c, 0, 60, 0
2, 12424, Note_on_c, 0, 72, 64
2, 12536, Note_on_c, 0, 72, 0
2, 12544, Note_on_c, 0, 60, 64
2, 12596, Note_on_c, 0, 60, 0
2, 12604, Note_on_c, 0, 59, 64
2, 12656, Note_on_c, 0, 59, 0
2, 12664, Note_on_c, 0, 71, 64
2, 12716, Note_on_c, 0, 71, 0
2, 12724, Note_on_c, 0, 72, 64
2, 12750, Note_on_c, 0, 72, 0
2, 12754, Note_on_c, 0, 71, 64
2, 12780, Note_on_c, 0, 71, 0
2, 12784, Note_on_c, 0, 72, 64
2, 12810, Note_on_c, 0, 72, 0
2, 12814, Note_on_c, 0, 74, 64
2, 12840, Note_on_c, 0, 74, 0
2, 12844, Note_on_c, 0, 75, 64
2, 12870, Note_on_c, 0, 75, 0
2, 12874, Note_on_c, 0, 74, 64
2, 12900, Note_on_c, 0, 74, 0
2, 12904, Note_on_c, 0, 72, 64
2, 12930, Note_on_c, 0, 72, 0
2, 12934, Note_on_c, 0, 75, 64
2, 12960, Note_on_c, 0, 75, 0
2, 12964, Note_on_c, 0, 74, 64
2, 12990, Note_on_c, 0, 74, 0
2, 12994, Note_on_c, 0, 72, 64
2, 13020, Note_on_c, 0, 72, 0
2, 13024, Note_on_c, 0, 74, 64
2, 13050, Note_on_c, 0, 74, 0
2, 13054, Note_on_c, 0, 75, 64
2, 13080, Note_on_c, 0, 75, 0
2, 13084, Note_on_c, 0, 77, 64
2, 13110, Note_on_c, 0, 77, 0
2, 13114, Note_on_c, 0, 75, 64
2, 13140, Note_on_c, 0, 75, 0
2, 13144, Note_on_c, 0, 74, 64
2, 13170, Note_on_c, 0, 74, 0
2, 13174, Note_on_c, 0, 77, 64
2, 13200, Note_on_c, 0, 77, 0
2, 13204, Note_on_c, 0, 76, 64
2, 13230, Note_on_c, 0, 76, 0
2, 13234, Note_on_c, 0, 74, 64
2, 13260, Note_on_c, 0, 74, 0
2, 13264, Note_on_c, 0, 76, 64
2, 13290, Note_on_c, 0, 76, 0
2, 13294, Note_on_c, 0, 77, 64
2, 13320, Note_on_c, 0, 77, 0
2, 13324, Note_on_c, 0, 79, 64
2, 13350, Note_on_c, 0, 79, 0
2, 13354, Note_on_c, 0, 77, 64
2, 13380, Note_on_c, 0, 77, 0
2, 13384, Note_on_c, 0, 76, 64
2, 13410, Note_on_c, 0, 76, 0
2, 13414, Note_on_c, 0, 79, 64
2, 13440, Note_on_c, 0, 79, 0
2, 13444, Note_on_c, 0, 77, 64
2, 13496, Note_on_c, 0, 77, 0
2, 13504, Note_on_c, 0, 72, 64
2, 13556, Note_on_c, 0, 72, 0
2, 13564, Note_on_c, 0, 77, 64
2, 13789, Note_on_c, 0, 77, 0
2, 13804, Note_on_c, 0, 76, 64
2, 13856, Note_on_c, 0, 76, 0
2, 13864, Note_on_c, 0, 75, 64
2, 13976, Note_on_c, 0, 75, 0
2, 13984, Note_on_c, 0, 84, 64
2, 14010, Note_on_c, 0, 84, 0
2, 14014, Note_on_c, 0, 82, 64
2, 14040, Note_on_c, 0, 82, 0
2, 14044, Note_on_c, 0, 81, 64
2, 14070, Note_on_c, 0, 81, 0
2, 14074, Note_on_c, 0, 79, 64
2, 14100, Note_on_c, 0, 79, 0
2, 14104, Note_on_c, 0, 77, 64
2, 14130, Note_on_c, 0, 77, 0
2, 14134, Note_on_c, 0, 75, 64
2, 14160, Note_on_c, 0, 75, 0
2, 14164, Note_on_c, 0, 73, 64
2, 14269, Note_on_c, 0, 73, 0
2, 14344, Note_on_c, 0, 73, 64
2, 14396, Note_on_c, 0, 73, 0
2, 14404, Note_on_c, 0, 75, 64
2, 14456, Note_on_c, 0, 75, 0
2, 14464, Note_on_c, 0, 78, 64
2, 14516, Note_on_c, 0, 78, 0
2, 14524, Note_on_c, 0, 72, 64
2, 14576, Note_on_c, 0, 72, 0
2, 14584, Note_on_c, 0, 77, 64
2, 14636, Note_on_c, 0, 77, 0
2, 14644, Note_on_c, 0, 70, 64
2, 14749, Note_on_c, 0, 70, 0
2, 15004, Note_on_c, 0, 70, 64
2, 15150, Note_on_c, 0, 70, 0
2, 15154, Note_on_c, 0, 70, 64
2, 15180, Note_on_c, 0, 70, 0
2, 15184, Note_on_c, 0, 68, 64
2, 15210, Note_on_c, 0, 68, 0
2, 15214, Note_on_c, 0, 66, 64
2, 15240, Note_on_c, 0, 66, 0
2, 15244, Note_on_c, 0, 65, 64
2, 15270, Note_on_c, 0, 65, 0
2, 15274, Note_on_c, 0, 66, 64
2, 15300, Note_on_c, 0, 66, 0
2, 15304, Note_on_c, 0, 68, 64
2, 15330, Note_on_c, 0, 68, 0
2, 15334, Note_on_c, 0, 65, 64
2, 15360, Note_on_c, 0, 65, 0
2, 15364, Note_on_c, 0, 66, 64
2, 15390, Note_on_c, 0, 66, 0
2, 15394, Note_on_c, 0, 68, 64
2, 15420, Note_on_c, 0, 68, 0
2, 15424, Note_on_c, 0, 66, 64
2, 15450, Note_on_c, 0, 66, 0
2, 15454, Note_on_c, 0, 65, 64
2, 15480, Note_on_c, 0, 65, 0
2, 15484, Note_on_c, 0, 63, 64
2, 15510, Note_on_c, 0, 63, 0
2, 15514, Note_on_c, 0, 65, 64
2, 15540, Note_on_c, 0, 65, 0
2, 15544, Note_on_c, 0, 66, 64
2, 15570, Note_on_c, 0, 66, 0
2, 15574, Note_on_c, 0, 63, 64
2, 15600, Note_on_c, 0, 63, 0
2, 15604, Note_on_c, 0, 65, 64
2, 15656, Note_on_c, 0, 65, 0
2, 15664, Note_on_c, 0, 66, 64
2, 15716, Note_on_c, 0, 66, 0
2, 15724, Note_on_c, 0, 68, 64
2, 15776, Note_on_c, 0, 68, 0
2, 15784, Note_on_c, 0, 65, 64
2, 15836, Note_on_c, 0, 65, 0
2, 15844, Note_on_c, 0, 70, 64
2, 15896, Note_on_c, 0, 70, 0
2, 15904, Note_on_c, 0, 74, 64
2, 15956, Note_on_c, 0, 74, 0
2, 15964, Note_on_c, 0, 75, 64
2, 16042, Note_on_c, 0, 75, 0
2, 16054, Note_on_c, 0, 77, 64
2, 16080, Note_on_c, 0, 77, 0
2, 16084, Note_on_c, 0, 73, 64
2, 16136, Note_on_c, 0, 73, 0
2, 16144, Note_on_c, 0, 72, 64
2, 16196, Note_on_c, 0, 72, 0
2, 16204, Note_on_c, 0, 70, 64
2, 16256, Note_on_c, 0, 70, 0
2, 16264, Note_on_c, 0, 75, 64
2, 16316, Note_on_c, 0, 75, 0
2, 16324, Note_on_c, 0, 72, 64
2, 16376, Note_on_c, 0, 72, 0
2, 16384, Note_on_c, 0, 77, 64
2, 16436, Note_on_c, 0, 77, 0
2, 16444, Note_on_c, 0, 73, 64
2, 16496, Note_on_c, 0, 73, 0
2, 16504, Note_on_c, 0, 78, 64
2, 16556, Note_on_c, 0, 78, 0
2, 16564, Note_on_c, 0, 72, 64
2, 16616, Note_on_c, 0, 72, 0
2, 16624, Note_on_c, 0, 73, 64
2, 16650, Note_on_c, 0, 73, 0
2, 16654, Note_on_c, 0, 75, 64
2, 16680, Note_on_c, 0, 75, 0
2, 16684, Note_on_c, 0, 77, 64
2, 16736, Note_on_c, 0, 77, 0
2, 16744, Note_on_c, 0, 65, 64
2, 16796, Note_on_c, 0, 65, 0
2, 16804, Note_on_c, 0, 70, 64
2, 16856, Note_on_c, 0, 70, 0
2, 16864, Note_on_c, 0, 72, 64
2, 16890, Note_on_c, 0, 72, 0
2, 16894, Note_on_c, 0, 73, 64
2, 16920, Note_on_c, 0, 73, 0
2, 16924, Note_on_c, 0, 75, 64
2, 17070, Note_on_c, 0, 75, 0
2, 17074, Note_on_c, 0, 77, 64
2, 17100, Note_on_c, 0, 77, 0
2, 17104, Note_on_c, 0, 73, 64
2, 17130, Note_on_c, 0, 73, 0
2, 17134, Note_on_c, 0, 75, 64
2, 17160, Note_on_c, 0, 75, 0
2, 17164, Note_on_c, 0, 72, 64
2, 17190, Note_on_c, 0, 72, 0
2, 17194, Note_on_c, 0, 73, 64
2, 17220, Note_on_c, 0, 73, 0
2, 17224, Note_on_c, 0, 75, 64
2, 17250, Note_on_c, 0, 75, 0
2, 17254, Note_on_c, 0, 77, 64
2, 17280, Note_on_c, 0, 77, 0
2, 17284, Note_on_c, 0, 70, 64
2, 17389, Note_on_c, 0, 70, 0
2, 17404, Note_on_c, 0, 72, 64
2, 17509, Note_on_c, 0, 72, 0
2, 17524, Note_on_c, 0, 73, 64
2, 17749, Note_on_c, 0, 73, 0
2, 17764, Note_on_c, 0, 72, 64
2, 17869, Note_on_c, 0, 72, 0
2, 17884, Note_on_c, 0, 71, 64
2, 17989, Note_on_c, 0, 71, 0
2, 18004, Note_on_c, 0, 70, 64
2, 18109, Note_on_c, 0, 70, 0
2, 18124, Note_on_c, 0, 69, 64
2, 18296, Note_on_c, 0, 69, 0
2, 18304, Note_on_c, 0, 68, 64
2, 18536, Note_on_c, 0, 68, 0
2, 18544, Note_on_c, 0, 67, 64
2, 18596, Note_on_c, 0, 67, 0
2, 18604, Note_on_c, 0, 68, 64
2, 18656, Note_on_c, 0, 68, 0
2, 18664, Note_on_c, 0, 70, 64
2, 18716, Note_on_c, 0, 70, 0
2, 18724, Note_on_c, 0, 72, 64
2, 18776, Note_on_c, 0, 72, 0
2, 18784, Note_on_c, 0, 74, 64
2, 18836, Note_on_c, 0, 74, 0
2, 18844, Note_on_c, 0, 75, 64
2, 18870, Note_on_c, 0, 75, 0
2, 18874, Note_on_c, 0, 76, 64
2, 18900, Note_on_c, 0, 76, 0
2, 18904, Note_on_c, 0, 73, 64
2, 18930, Note_on_c, 0, 73, 0
2, 18934, Note_on_c, 0, 75, 64
2, 18960, Note_on_c, 0, 75, 0
2, 18964, Note_on_c, 0, 71, 64
2, 18990, Note_on_c, 0, 71, 0
2, 18994, Note_on_c, 0, 73, 64
2, 19020, Note_on_c, 0, 73, 0
2, 19024, Note_on_c, 0, 75, 64
2, 19050, Note_on_c, 0, 75, 0
2, 19054, Note_on_c, 0, 76, 64
2, 19080, Note_on_c, 0, 76, 0
2, 19084, Note_on_c, 0, 73, 64
2, 19110, Note_on_c, 0, 73, 0
2, 19114, Note_on_c, 0, 75, 64
2, 19140, Note_on_c, 0, 75, 0
2, 19144, Note_on_c, 0, 71, 64
2, 19170, Note_on_c, 0, 71, 0
2, 19174, Note_on_c, 0, 73, 64
2, 19200, Note_on_c, 0, 73, 0
2, 19204, Note_on_c, 0, 70, 64
2, 19230, Note_on_c, 0, 70, 0
2, 19234, Note_on_c, 0, 75, 64
2, 19260, Note_on_c, 0, 75, 0
2, 19264, Note_on_c, 0, 77, 64
2, 19290, Note_on_c, 0, 77, 0
2, 19294, Note_on_c, 0, 79, 64
2, 19320, Note_on_c, 0, 79, 0
2, 19324, Note_on_c, 0, 80, 64
2, 19470, Note_on_c, 0, 80, 0
2, 19474, Note_on_c, 0, 80, 64
2, 19500, Note_on_c, 0, 80, 0
2, 19504, Note_on_c, 0, 79, 64
2, 19530, Note_on_c, 0, 79, 0
2, 19534, Note_on_c, 0, 77, 64
2, 19560, Note_on_c, 0, 77, 0
2, 19564, Note_on_c, 0, 79, 64
2, 19616, Note_on_c, 0, 79, 0
2, 19624, Note_on_c, 0, 78, 64
2, 19710, Note_on_c, 0, 78, 0
2, 19714, Note_on_c, 0, 78, 64
2, 19740, Note_on_c, 0, 78, 0
2, 19744, Note_on_c, 0, 77, 64
2, 19770, Note_on_c, 0, 77, 0
2, 19774, Note_on_c, 0, 75, 64
2, 19800, Note_on_c, 0, 75, 0
2, 19804, Note_on_c, 0, 77, 64
2, 19856, Note_on_c, 0, 77, 0
2, 19864, Note_on_c, 0, 76, 64
2, 19916, Note_on_c, 0, 76, 0
2, 19924, Note_on_c, 0, 75, 64
2, 20190, Note_on_c, 0, 75, 0
2, 20194, Note_on_c, 0, 75, 64
2, 20220, Note_on_c, 0, 75, 0
2, 20224, Note_on_c, 0, 74, 64
2, 20250, Note_on_c, 0, 74, 0
2, 20254, Note_on_c, 0, 72, 64
2, 20280, Note_on_c, 0, 72, 0
2, 20284, Note_on_c, 0, 74, 64
2, 20336, Note_on_c, 0, 74, 0
2, 20344, Note_on_c, 0, 73, 64
2, 20430, Note_on_c, 0, 73, 0
2, 20434, Note_on_c, 0, 73, 64
2, 20460, Note_on_c, 0, 73, 0
2, 20464, Note_on_c, 0, 72, 64
2, 20490, Note_on_c, 0, 72, 0
2, 20494, Note_on_c, 0, 70, 64
2, 20520, Note_on_c, 0, 70, 0
2, 20524, Note_on_c, 0, 72, 64
2, 20576, Note_on_c, 0, 72, 0
2, 20584, Note_on_c, 0, 71, 64
2, 20636, Note_on_c, 0, 71, 0
2, 20644, Note_on_c, 0, 70, 64
2, 20696, Note_on_c, 0, 70, 0
2, 20704, Note_on_c, 0, 72, 64
2, 20756, Note_on_c, 0, 72, 0
2, 20764, Note_on_c, 0, 73, 64
2, 21049, Note_on_c, 0, 73, 0
2, 21064, Note_on_c, 0, 72, 64
2, 21116, Note_on_c, 0, 72, 0
2, 21124, Note_on_c, 0, 73, 64
2, 21229, Note_on_c, 0, 73, 0
2, 21364, Note_on_c, 0, 76, 64
2, 21469, Note_on_c, 0, 76, 0
2, 21604, Note_on_c, 0, 79, 64
2, 21709, Note_on_c, 0, 79, 0
2, 21844, Note_on_c, 0, 82, 64
2, 21949, Note_on_c, 0, 82, 0
2, 21994, Note_on_c, 0, 73, 64
2, 22020, Note_on_c, 0, 73, 0
2, 22024, Note_on_c, 0, 72, 64
2, 22050, Note_on_c, 0, 72, 0
2, 22054, Note_on_c, 0, 70, 64
2, 22080, Note_on_c, 0, 70, 0
2, 22084, Note_on_c, 0, 72, 64
2, 22110, Note_on_c, 0, 72, 0
2, 22114, Note_on_c, 0, 68, 64
2, 22140, Note_on_c, 0, 68, 0
2, 22144, Note_on_c, 0, 70, 64
2, 22170, Note_on_c, 0, 70, 0
2, 22174, Note_on_c, 0, 72, 64
2, 22200, Note_on_c, 0, 72, 0
2, 22204, Note_on_c, 0, 73, 64
2, 22230, Note_on_c, 0, 73, 0
2, 22234, Note_on_c, 0, 75, 64
2, 22260, Note_on_c, 0, 75, 0
2, 22264, Note_on_c, 0, 77, 64
2, 22290, Note_on_c, 0, 77, 0
2, 22294, Note_on_c, 0, 79, 64
2, 22320, Note_on_c, 0, 79, 0
2, 22324, Note_on_c, 0, 80, 64
2, 22350, Note_on_c, 0, 80, 0
2, 22354, Note_on_c, 0, 75, 64
2, 22380, Note_on_c, 0, 75, 0
2, 22384, Note_on_c, 0, 77, 64
2, 22410, Note_on_c, 0, 77, 0
2, 22414, Note_on_c, 0, 73, 64
2, 22440, Note_on_c, 0, 73, 0
2, 22444, Note_on_c, 0, 72, 64
2, 22470, Note_on_c, 0, 72, 0
2, 22474, Note_on_c, 0, 77, 64
2, 22500, Note_on_c, 0, 77, 0
2, 22504, Note_on_c, 0, 74, 64
2, 22530, Note_on_c, 0, 74, 0
2, 22534, Note_on_c, 0, 75, 64
2, 22560, Note_on_c, 0, 75, 0
2, 22564, Note_on_c, 0, 68, 64
2, 22642, Note_on_c, 0, 68, 0
2, 22654, Note_on_c, 0, 65, 64
2, 22667, Note_on_c, 0, 65, 0
2, 22669, Note_on_c, 0, 67, 64
2, 22682, Note_on_c, 0, 67, 0
2, 22684, Note_on_c, 0, 68, 64
2, 22700, Note_on_c, 0, 67, 64
2, 22707, Note_on_c, 0, 68, 0
2, 22712, Note_on_c, 0, 68, 64
2, 22719, Note_on_c, 0, 67, 0
2, 22720, Note_on_c, 0, 67, 64
2, 22727, Note_on_c, 0, 68, 0
2, 22728, Note_on_c, 0, 68, 64
2, 22735, Note_on_c, 0, 67, 0
2, 22736, Note_on_c, 0, 67, 64
2, 22740, Note_on_c, 0, 68, 64
2, 22743, Note_on_c, 0, 68, 0
2, 22748, Note_on_c, 0, 67, 64
2, 22751, Note_on_c, 0, 67, 0
2, 22755, Note_on_c, 0, 68, 0
2, 22756, Note_on_c, 0, 68, 64
2, 22763, Note_on_c, 0, 67, 0
2, 22764, Note_on_c, 0, 67, 64
2, 22771, Note_on_c, 0, 68, 0
2, 22774, Note_on_c, 0, 65, 64
2, 22779, Note_on_c, 0, 67, 0
2, 22787, Note_on_c, 0, 65, 0
2, 22789, Note_on_c, 0, 67, 64
2, 22802, Note_on_c, 0, 67, 0
2, 22804, Note_on_c, 0, 68, 64
2, 22882, Note_on_c, 0, 68, 0
2, 22894, Note_on_c, 0, 70, 64
2, 22920, Note_on_c, 0, 70, 0
2, 22924, Note_on_c, 0, 72, 64
2, 23002, Note_on_c, 0, 72, 0
2, 23014, Note_on_c, 0, 74, 64
2, 23040, Note_on_c, 0, 74, 0
2, 23044, Note_on_c, 0, 75, 64
2, 23336, Note_on_c, 0, 75, 0
2, 23344, Note_on_c, 0, 73, 64
2, 23370, Note_on_c, 0, 73, 0
2, 23374, Note_on_c, 0, 72, 64
2, 23400, Note_on_c, 0, 72, 0
2, 23404, Note_on_c, 0, 70, 64
2, 23430, Note_on_c, 0, 70, 0
2, 23434, Note_on_c, 0, 67, 64
2, 23460, Note_on_c, 0, 67, 0
2, 23464, Note_on_c, 0, 68, 64
2, 23516, Note_on_c, 0, 68, 0
2, 23524, Note_on_c, 0, 70, 64
2, 23576, Note_on_c, 0, 70, 0
2, 23584, Note_on_c, 0, 68, 64
2, 23696, Note_on_c, 0, 68, 0
2, 23704, Note_on_c, 0, 67, 64
2, 23756, Note_on_c, 0, 67, 0
2, 23764, Note_on_c, 0, 68, 64
2, 23989, Note_on_c, 0, 68, 0
2, 23989, End_track
3, 0, Start_track
3, 0, MIDI_port, 0
3, 0, Title_t, "Fugue # 17 "
3, 0, Program_c, 1, 6
3, 64, Note_on_c, 1, 75, 64
3, 116, Note_on_c, 1, 75, 0
3, 124, Note_on_c, 1, 72, 64
3, 176, Note_on_c, 1, 72, 0
3, 184, Note_on_c, 1, 77, 64
3, 236, Note_on_c, 1, 77, 0
3, 244, Note_on_c, 1, 70, 64
3, 296, Note_on_c, 1, 70, 0
3, 304, Note_on_c, 1, 72, 64
3, 330, Note_on_c, 1, 72, 0
3, 334, Note_on_c, 1, 73, 64
3, 360, Note_on_c, 1, 73, 0
3, 364, Note_on_c, 1, 75, 64
3, 416, Note_on_c, 1, 75, 0
3, 424, Note_on_c, 1, 63, 64
3, 476, Note_on_c, 1, 63, 0
3, 484, Note_on_c, 1, 68, 64
3, 536, Note_on_c, 1, 68, 0
3, 544, Note_on_c, 1, 70, 64
3, 570, Note_on_c, 1, 70, 0
3, 574, Note_on_c, 1, 72, 64
3, 600, Note_on_c, 1, 72, 0
3, 604, Note_on_c, 1, 73, 64
3, 750, Note_on_c, 1, 73, 0
3, 754, Note_on_c, 1, 75, 64
3, 780, Note_on_c, 1, 75, 0
3, 784, Note_on_c, 1, 72, 64
3, 810, Note_on_c, 1, 72, 0
3, 814, Note_on_c, 1, 73, 64
3, 840, Note_on_c, 1, 73, 0
3, 844, Note_on_c, 1, 70, 64
3, 870, Note_on_c, 1, 70, 0
3, 874, Note_on_c, 1, 72, 64
3, 900, Note_on_c, 1, 72, 0
3, 904, Note_on_c, 1, 73, 64
3, 930, Note_on_c, 1, 73, 0
3, 934, Note_on_c, 1, 75, 64
3, 960, Note_on_c, 1, 75, 0
3, 964, Note_on_c, 1, 72, 64
3, 990, Note_on_c, 1, 72, 0
3, 994, Note_on_c, 1, 70, 64
3, 1020, Note_on_c, 1, 70, 0
3, 1024, Note_on_c, 1, 72, 64
3, 1050, Note_on_c, 1, 72, 0
3, 1054, Note_on_c, 1, 74, 64
3, 1080, Note_on_c, 1, 74, 0
3, 1084, Note_on_c, 1, 75, 64
3, 1189, Note_on_c, 1, 75, 0
3, 1204, Note_on_c, 1, 74, 64
3, 1309, Note_on_c, 1, 74, 0
3, 1324, Note_on_c, 1, 73, 64
3, 1429, Note_on_c, 1, 73, 0
3, 1444, Note_on_c, 1, 72, 64
3, 1549, Note_on_c, 1, 72, 0
3, 1564, Note_on_c, 1, 71, 64
3, 1669, Note_on_c, 1, 71, 0
3, 1684, Note_on_c, 1, 70, 64
3, 1736, Note_on_c, 1, 70, 0
3, 1744, Note_on_c, 1, 75, 64
3, 1849, Note_on_c, 1, 75, 0
3, 1864, Note_on_c, 1, 74, 64
3, 1916, Note_on_c, 1, 74, 0
3, 1924, Note_on_c, 1, 75, 64
3, 1976, Note_on_c, 1, 75, 0
3, 1984, Note_on_c, 1, 70, 64
3, 2036, Note_on_c, 1, 70, 0
3, 2044, Note_on_c, 1, 67, 64
3, 2096, Note_on_c, 1, 67, 0
3, 2104, Note_on_c, 1, 72, 64
3, 2156, Note_on_c, 1, 72, 0
3, 2164, Note_on_c, 1, 65, 64
3, 2216, Note_on_c, 1, 65, 0
3, 2224, Note_on_c, 1, 67, 64
3, 2250, Note_on_c, 1, 67, 0
3, 2254, Note_on_c, 1, 68, 64
3, 2280, Note_on_c, 1, 68, 0
3, 2284, Note_on_c, 1, 70, 64
3, 2430, Note_on_c, 1, 70, 0
3, 2434, Note_on_c, 1, 70, 64
3, 2460, Note_on_c, 1, 70, 0
3, 2464, Note_on_c, 1, 68, 64
3, 2490, Note_on_c, 1, 68, 0
3, 2494, Note_on_c, 1, 67, 64
3, 2520, Note_on_c, 1, 67, 0
3, 2524, Note_on_c, 1, 68, 64
3, 2550, Note_on_c, 1, 68, 0
3, 2554, Note_on_c, 1, 75, 64
3, 2580, Note_on_c, 1, 75, 0
3, 2584, Note_on_c, 1, 73, 64
3, 2610, Note_on_c, 1, 73, 0
3, 2614, Note_on_c, 1, 72, 64
3, 2640, Note_on_c, 1, 72, 0
3, 2644, Note_on_c, 1, 73, 64
3, 2670, Note_on_c, 1, 73, 0
3, 2674, Note_on_c, 1, 75, 64
3, 2700, Note_on_c, 1, 75, 0
3, 2704, Note_on_c, 1, 73, 64
3, 2730, Note_on_c, 1, 73, 0
3, 2734, Note_on_c, 1, 72, 64
3, 2760, Note_on_c, 1, 72, 0
3, 2764, Note_on_c, 1, 70, 64
3, 2790, Note_on_c, 1, 70, 0
3, 2794, Note_on_c, 1, 73, 64
3, 2820, Note_on_c, 1, 73, 0
3, 2824, Note_on_c, 1, 72, 64
3, 2850, Note_on_c, 1, 72, 0
3, 2854, Note_on_c, 1, 70, 64
3, 2880, Note_on_c, 1, 70, 0
3, 2884, Note_on_c, 1, 72, 64
3, 2910, Note_on_c, 1, 72, 0
3, 2914, Note_on_c, 1, 73, 64
3, 2940, Note_on_c, 1, 73, 0
3, 2944, Note_on_c, 1, 72, 64
3, 2970, Note_on_c, 1, 72, 0
3, 2974, Note_on_c, 1, 70, 64
3, 3000, Note_on_c, 1, 70, 0
3, 3004, Note_on_c, 1, 68, 64
3, 3030, Note_on_c, 1, 68, 0
3, 3034, Note_on_c, 1, 71, 64
3, 3060, Note_on_c, 1, 71, 0
3, 3064, Note_on_c, 1, 70, 64
3, 3090, Note_on_c, 1, 70, 0
3, 3094, Note_on_c, 1, 68, 64
3, 3120, Note_on_c, 1, 68, 0
3, 3124, Note_on_c, 1, 67, 64
3, 3176, Note_on_c, 1, 67, 0
3, 3184, Note_on_c, 1, 75, 64
3, 3236, Note_on_c, 1, 75, 0
3, 3244, Note_on_c, 1, 73, 64
3, 3296, Note_on_c, 1, 73, 0
3, 3304, Note_on_c, 1, 70, 64
3, 3356, Note_on_c, 1, 70, 0
3, 3364, Note_on_c, 1, 75, 64
3, 3390, Note_on_c, 1, 75, 0
3, 3394, Note_on_c, 1, 77, 64
3, 3420, Note_on_c, 1, 77, 0
3, 3424, Note_on_c, 1, 75, 64
3, 3450, Note_on_c, 1, 75, 0
3, 3454, Note_on_c, 1, 73, 64
3, 3480, Note_on_c, 1, 73, 0
3, 3484, Note_on_c, 1, 72, 64
3, 3510, Note_on_c, 1, 72, 0
3, 3514, Note_on_c, 1, 70, 64
3, 3540, Note_on_c, 1, 70, 0
3, 3544, Note_on_c, 1, 68, 64
3, 3570, Note_on_c, 1, 68, 0
3, 3574, Note_on_c, 1, 67, 64
3, 3600, Note_on_c, 1, 67, 0
3, 3604, Note_on_c, 1, 68, 64
3, 3630, Note_on_c, 1, 68, 0
3, 3634, Note_on_c, 1, 70, 64
3, 3660, Note_on_c, 1, 70, 0
3, 3664, Note_on_c, 1, 68, 64
3, 3690, Note_on_c, 1, 68, 0
3, 3694, Note_on_c, 1, 67, 64
3, 3720, Note_on_c, 1, 67, 0
3, 3724, Note_on_c, 1, 65, 64
3, 3750, Note_on_c, 1, 65, 0
3, 3754, Note_on_c, 1, 67, 64
3, 3780, Note_on_c, 1, 67, 0
3, 3784, Note_on_c, 1, 63, 64
3, 3810, Note_on_c, 1, 63, 0
3, 3814, Note_on_c, 1, 65, 64
3, 3840, Note_on_c, 1, 65, 0
3, 3844, Note_on_c, 1, 67, 64
3, 3870, Note_on_c, 1, 67, 0
3, 3874, Note_on_c, 1, 68, 64
3, 3900, Note_on_c, 1, 68, 0
3, 3904, Note_on_c, 1, 67, 64
3, 3930, Note_on_c, 1, 67, 0
3, 3934, Note_on_c, 1, 65, 64
3, 3960, Note_on_c, 1, 65, 0
3, 3964, Note_on_c, 1, 63, 64
3, 3990, Note_on_c, 1, 63, 0
3, 3994, Note_on_c, 1, 66, 64
3, 4020, Note_on_c, 1, 66, 0
3, 4024, Note_on_c, 1, 65, 64
3, 4050, Note_on_c, 1, 65, 0
3, 4054, Note_on_c, 1, 63, 64
3, 4080, Note_on_c, 1, 63, 0
3, 4084, Note_on_c, 1, 62, 64
3, 4136, Note_on_c, 1, 62, 0
3, 4144, Note_on_c, 1, 70, 64
3, 4196, Note_on_c, 1, 70, 0
3, 4204, Note_on_c, 1, 68, 64
3, 4256, Note_on_c, 1, 68, 0
3, 4264, Note_on_c, 1, 65, 64
3, 4316, Note_on_c, 1, 65, 0
3, 4324, Note_on_c, 1, 67, 64
3, 4376, Note_on_c, 1, 67, 0
3, 4384, Note_on_c, 1, 70, 64
3, 4436, Note_on_c, 1, 70, 0
3, 4444, Note_on_c, 1, 75, 64
3, 4669, Note_on_c, 1, 75, 0
3, 4684, Note_on_c, 1, 74, 64
3, 4736, Note_on_c, 1, 74, 0
3, 4744, Note_on_c, 1, 73, 64
3, 4856, Note_on_c, 1, 73, 0
3, 4864, Note_on_c, 1, 82, 64
3, 4890, Note_on_c, 1, 82, 0
3, 4894, Note_on_c, 1, 80, 64
3, 4920, Note_on_c, 1, 80, 0
3, 4924, Note_on_c, 1, 79, 64
3, 4950, Note_on_c, 1, 79, 0
3, 4954, Note_on_c, 1, 77, 64
3, 4980, Note_on_c, 1, 77, 0
3, 4984, Note_on_c, 1, 75, 64
3, 5010, Note_on_c, 1, 75, 0
3, 5014, Note_on_c, 1, 73, 64
3, 5040, Note_on_c, 1, 73, 0
3, 5044, Note_on_c, 1, 72, 64
3, 5149, Note_on_c, 1, 72, 0
3, 5224, Note_on_c, 1, 72, 64
3, 5276, Note_on_c, 1, 72, 0
3, 5284, Note_on_c, 1, 73, 64
3, 5336, Note_on_c, 1, 73, 0
3, 5344, Note_on_c, 1, 77, 64
3, 5396, Note_on_c, 1, 77, 0
3, 5404, Note_on_c, 1, 70, 64
3, 5456, Note_on_c, 1, 70, 0
3, 5464, Note_on_c, 1, 75, 64
3, 5516, Note_on_c, 1, 75, 0
3, 5524, Note_on_c, 1, 68, 64
3, 5576, Note_on_c, 1, 68, 0
3, 5824, Note_on_c, 1, 77, 64
3, 5850, Note_on_c, 1, 77, 0
3, 5854, Note_on_c, 1, 75, 64
3, 5880, Note_on_c, 1, 75, 0
3, 5884, Note_on_c, 1, 73, 64
3, 5910, Note_on_c, 1, 73, 0
3, 5914, Note_on_c, 1, 72, 64
3, 5940, Note_on_c, 1, 72, 0
3, 5944, Note_on_c, 1, 70, 64
3, 5970, Note_on_c, 1, 70, 0
3, 5974, Note_on_c, 1, 68, 64
3, 6000, Note_on_c, 1, 68, 0
3, 6004, Note_on_c, 1, 67, 64
3, 6030, Note_on_c, 1, 67, 0
3, 6034, Note_on_c, 1, 68, 64
3, 6060, Note_on_c, 1, 68, 0
3, 6064, Note_on_c, 1, 65, 64
3, 6090, Note_on_c, 1, 65, 0
3, 6094, Note_on_c, 1, 67, 64
3, 6120, Note_on_c, 1, 67, 0
3, 6124, Note_on_c, 1, 68, 64
3, 6150, Note_on_c, 1, 68, 0
3, 6154, Note_on_c, 1, 67, 64
3, 6180, Note_on_c, 1, 67, 0
3, 6184, Note_on_c, 1, 68, 64
3, 6270, Note_on_c, 1, 68, 0
3, 6274, Note_on_c, 1, 67, 64
3, 6300, Note_on_c, 1, 67, 0
3, 6304, Note_on_c, 1, 68, 64
3, 6330, Note_on_c, 1, 68, 0
3, 6334, Note_on_c, 1, 70, 64
3, 6360, Note_on_c, 1, 70, 0
3, 6364, Note_on_c, 1, 67, 64
3, 6390, Note_on_c, 1, 67, 0
3, 6394, Note_on_c, 1, 65, 64
3, 6420, Note_on_c, 1, 65, 0
3, 6424, Note_on_c, 1, 66, 64
3, 6510, Note_on_c, 1, 66, 0
3, 6514, Note_on_c, 1, 65, 64
3, 6540, Note_on_c, 1, 65, 0
3, 6544, Note_on_c, 1, 66, 64
3, 6570, Note_on_c, 1, 66, 0
3, 6574, Note_on_c, 1, 63, 64
3, 6600, Note_on_c, 1, 63, 0
3, 6604, Note_on_c, 1, 65, 64
3, 6630, Note_on_c, 1, 65, 0
3, 6634, Note_on_c, 1, 67, 64
3, 6660, Note_on_c, 1, 67, 0
3, 6664, Note_on_c, 1, 68, 64
3, 6690, Note_on_c, 1, 68, 0
3, 6694, Note_on_c, 1, 65, 64
3, 6720, Note_on_c, 1, 65, 0
3, 6724, Note_on_c, 1, 67, 64
3, 6776, Note_on_c, 1, 67, 0
3, 6784, Note_on_c, 1, 68, 64
3, 6889, Note_on_c, 1, 68, 0
3, 6904, Note_on_c, 1, 67, 64
3, 7016, Note_on_c, 1, 67, 0
3, 7024, Note_on_c, 1, 64, 64
3, 7076, Note_on_c, 1, 64, 0
3, 7084, Note_on_c, 1, 65, 64
3, 7309, Note_on_c, 1, 65, 0
3, 7324, Note_on_c, 1, 64, 64
3, 7429, Note_on_c, 1, 64, 0
3, 7444, Note_on_c, 1, 65, 64
3, 7496, Note_on_c, 1, 65, 0
3, 7504, Note_on_c, 1, 68, 64
3, 7556, Note_on_c, 1, 68, 0
3, 7564, Note_on_c, 1, 67, 64
3, 7616, Note_on_c, 1, 67, 0
3, 7624, Note_on_c, 1, 72, 64
3, 7676, Note_on_c, 1, 72, 0
3, 7684, Note_on_c, 1, 65, 64
3, 7736, Note_on_c, 1, 65, 0
3, 7744, Note_on_c, 1, 67, 64
3, 7770, Note_on_c, 1, 67, 0
3, 7774, Note_on_c, 1, 68, 64
3, 7800, Note_on_c, 1, 68, 0
3, 7804, Note_on_c, 1, 70, 64
3, 7856, Note_on_c, 1, 70, 0
3, 7864, Note_on_c, 1, 58, 64
3, 7916, Note_on_c, 1, 58, 0
3, 7924, Note_on_c, 1, 63, 64
3, 7976, Note_on_c, 1, 63, 0
3, 7984, Note_on_c, 1, 65, 64
3, 8010, Note_on_c, 1, 65, 0
3, 8014, Note_on_c, 1, 67, 64
3, 8040, Note_on_c, 1, 67, 0
3, 8044, Note_on_c, 1, 68, 64
3, 8190, Note_on_c, 1, 68, 0
3, 8194, Note_on_c, 1, 70, 64
3, 8220, Note_on_c, 1, 70, 0
3, 8224, Note_on_c, 1, 67, 64
3, 8250, Note_on_c, 1, 67, 0
3, 8254, Note_on_c, 1, 68, 64
3, 8280, Note_on_c, 1, 68, 0
3, 8284, Note_on_c, 1, 65, 64
3, 8310, Note_on_c, 1, 65, 0
3, 8314, Note_on_c, 1, 67, 64
3, 8340, Note_on_c, 1, 67, 0
3, 8344, Note_on_c, 1, 68, 64
3, 8370, Note_on_c, 1, 68, 0
3, 8374, Note_on_c, 1, 70, 64
3, 8400, Note_on_c, 1, 70, 0
3, 8404, Note_on_c, 1, 67, 64
3, 8456, Note_on_c, 1, 67, 0
3, 8464, Note_on_c, 1, 63, 64
3, 8516, Note_on_c, 1, 63, 0
3, 8524, Note_on_c, 1, 68, 64
3, 8629, Note_on_c, 1, 68, 0
3, 8644, Note_on_c, 1, 67, 64
3, 8749, Note_on_c, 1, 67, 0
3, 8764, Note_on_c, 1, 66, 64
3, 8869, Note_on_c, 1, 66, 0
3, 8884, Note_on_c, 1, 65, 64
3, 8989, Note_on_c, 1, 65, 0
3, 9004, Note_on_c, 1, 64, 64
3, 9109, Note_on_c, 1, 64, 0
3, 9124, Note_on_c, 1, 63, 64
3, 9176, Note_on_c, 1, 63, 0
3, 9184, Note_on_c, 1, 68, 64
3, 9296, Note_on_c, 1, 68, 0
3, 9304, Note_on_c, 1, 66, 64
3, 9390, Note_on_c, 1, 66, 0
3, 9394, Note_on_c, 1, 68, 64
3, 9420, Note_on_c, 1, 68, 0
3, 9424, Note_on_c, 1, 65, 64
3, 9450, Note_on_c, 1, 65, 0
3, 9454, Note_on_c, 1, 66, 64
3, 9480, Note_on_c, 1, 66, 0
3, 9484, Note_on_c, 1, 63, 64
3, 9510, Note_on_c, 1, 63, 0
3, 9514, Note_on_c, 1, 65, 64
3, 9540, Note_on_c, 1, 65, 0
3, 9544, Note_on_c, 1, 66, 64
3, 9570, Note_on_c, 1, 66, 0
3, 9574, Note_on_c, 1, 68, 64
3, 9600, Note_on_c, 1, 68, 0
3, 9604, Note_on_c, 1, 65, 64
3, 9656, Note_on_c, 1, 65, 0
3, 9664, Note_on_c, 1, 70, 64
3, 9776, Note_on_c, 1, 70, 0
3, 9784, Note_on_c, 1, 68, 64
3, 9870, Note_on_c, 1, 68, 0
3, 9874, Note_on_c, 1, 70, 64
3, 9900, Note_on_c, 1, 70, 0
3, 9904, Note_on_c, 1, 67, 64
3, 9930, Note_on_c, 1, 67, 0
3, 9934, Note_on_c, 1, 68, 64
3, 9960, Note_on_c, 1, 68, 0
3, 9964, Note_on_c, 1, 65, 64
3, 9990, Note_on_c, 1, 65, 0
3, 9994, Note_on_c, 1, 67, 64
3, 10020, Note_on_c, 1, 67, 0
3, 10024, Note_on_c, 1, 68, 64
3, 10050, Note_on_c, 1, 68, 0
3, 10054, Note_on_c, 1, 70, 64
3, 10080, Note_on_c, 1, 70, 0
3, 10084, Note_on_c, 1, 67, 64
3, 10189, Note_on_c, 1, 67, 0
3, 10264, Note_on_c, 1, 65, 64
3, 10316, Note_on_c, 1, 65, 0
3, 10324, Note_on_c, 1, 67, 64
3, 10429, Note_on_c, 1, 67, 0
3, 10504, Note_on_c, 1, 68, 64
3, 10556, Note_on_c, 1, 68, 0
3, 10564, Note_on_c, 1, 68, 64
3, 10669, Note_on_c, 1, 68, 0
3, 10744, Note_on_c, 1, 70, 64
3, 10856, Note_on_c, 1, 70, 0
3, 10864, Note_on_c, 1, 68, 64
3, 10916, Note_on_c, 1, 68, 0
3, 10924, Note_on_c, 1, 65, 64
3, 10976, Note_on_c, 1, 65, 0
3, 10984, Note_on_c, 1, 63, 64
3, 11096, Note_on_c, 1, 63, 0
3, 11104, Note_on_c, 1, 72, 64
3, 11156, Note_on_c, 1, 72, 0
3, 11164, Note_on_c, 1, 68, 64
3, 11216, Note_on_c, 1, 68, 0
3, 11224, Note_on_c, 1, 73, 64
3, 11276, Note_on_c, 1, 73, 0
3, 11284, Note_on_c, 1, 67, 64
3, 11336, Note_on_c, 1, 67, 0
3, 11344, Note_on_c, 1, 68, 64
3, 11370, Note_on_c, 1, 68, 0
3, 11374, Note_on_c, 1, 70, 64
3, 11400, Note_on_c, 1, 70, 0
3, 11404, Note_on_c, 1, 72, 64
3, 11456, Note_on_c, 1, 72, 0
3, 11464, Note_on_c, 1, 60, 64
3, 11516, Note_on_c, 1, 60, 0
3, 11524, Note_on_c, 1, 65, 64
3, 11576, Note_on_c, 1, 65, 0
3, 11584, Note_on_c, 1, 67, 64
3, 11610, Note_on_c, 1, 67, 0
3, 11614, Note_on_c, 1, 68, 64
3, 11640, Note_on_c, 1, 68, 0
3, 11644, Note_on_c, 1, 70, 64
3, 11790, Note_on_c, 1, 70, 0
3, 11794, Note_on_c, 1, 72, 64
3, 11820, Note_on_c, 1, 72, 0
3, 11824, Note_on_c, 1, 68, 64
3, 11850, Note_on_c, 1, 68, 0
3, 11854, Note_on_c, 1, 70, 64
3, 11880, Note_on_c, 1, 70, 0
3, 11884, Note_on_c, 1, 67, 64
3, 11910, Note_on_c, 1, 67, 0
3, 11914, Note_on_c, 1, 68, 64
3, 11940, Note_on_c, 1, 68, 0
3, 11944, Note_on_c, 1, 70, 64
3, 11970, Note_on_c, 1, 70, 0
3, 11974, Note_on_c, 1, 72, 64
3, 12000, Note_on_c, 1, 72, 0
3, 12004, Note_on_c, 1, 68, 64
3, 12030, Note_on_c, 1, 68, 0
3, 12034, Note_on_c, 1, 70, 64
3, 12060, Note_on_c, 1, 70, 0
3, 12064, Note_on_c, 1, 67, 64
3, 12090, Note_on_c, 1, 67, 0
3, 12094, Note_on_c, 1, 68, 64
3, 12120, Note_on_c, 1, 68, 0
3, 12124, Note_on_c, 1, 65, 64
3, 12150, Note_on_c, 1, 65, 0
3, 12154, Note_on_c, 1, 67, 64
3, 12180, Note_on_c, 1, 67, 0
3, 12184, Note_on_c, 1, 68, 64
3, 12210, Note_on_c, 1, 68, 0
3, 12214, Note_on_c, 1, 70, 64
3, 12240, Note_on_c, 1, 70, 0
3, 12244, Note_on_c, 1, 67, 64
3, 12270, Note_on_c, 1, 67, 0
3, 12274, Note_on_c, 1, 68, 64
3, 12300, Note_on_c, 1, 68, 0
3, 12304, Note_on_c, 1, 65, 64
3, 12330, Note_on_c, 1, 65, 0
3, 12334, Note_on_c, 1, 67, 64
3, 12360, Note_on_c, 1, 67, 0
3, 12364, Note_on_c, 1, 63, 64
3, 12390, Note_on_c, 1, 63, 0
3, 12394, Note_on_c, 1, 65, 64
3, 12420, Note_on_c, 1, 65, 0
3, 12424, Note_on_c, 1, 67, 64
3, 12450, Note_on_c, 1, 67, 0
3, 12454, Note_on_c, 1, 68, 64
3, 12480, Note_on_c, 1, 68, 0
3, 12484, Note_on_c, 1, 65, 64
3, 12510, Note_on_c, 1, 65, 0
3, 12514, Note_on_c, 1, 67, 64
3, 12540, Note_on_c, 1, 67, 0
3, 12544, Note_on_c, 1, 63, 64
3, 12570, Note_on_c, 1, 63, 0
3, 12574, Note_on_c, 1, 65, 64
3, 12600, Note_on_c, 1, 65, 0
3, 12604, Note_on_c, 1, 62, 64
3, 12630, Note_on_c, 1, 62, 0
3, 12634, Note_on_c, 1, 63, 64
3, 12660, Note_on_c, 1, 63, 0
3, 12664, Note_on_c, 1, 65, 64
3, 12690, Note_on_c, 1, 65, 0
3, 12694, Note_on_c, 1, 67, 64
3, 12720, Note_on_c, 1, 67, 0
3, 12724, Note_on_c, 1, 63, 64
3, 12829, Note_on_c, 1, 63, 0
3, 12904, Note_on_c, 1, 63, 64
3, 12956, Note_on_c, 1, 63, 0
3, 12964, Note_on_c, 1, 65, 64
3, 13016, Note_on_c, 1, 65, 0
3, 13024, Note_on_c, 1, 68, 64
3, 13076, Note_on_c, 1, 68, 0
3, 13084, Note_on_c, 1, 62, 64
3, 13136, Note_on_c, 1, 62, 0
3, 13144, Note_on_c, 1, 67, 64
3, 13196, Note_on_c, 1, 67, 0
3, 13204, Note_on_c, 1, 60, 64
3, 13309, Note_on_c, 1, 60, 0
3, 13474, Note_on_c, 1, 64, 64
3, 13500, Note_on_c, 1, 64, 0
3, 13504, Note_on_c, 1, 65, 64
3, 13530, Note_on_c, 1, 65, 0
3, 13534, Note_on_c, 1, 67, 64
3, 13560, Note_on_c, 1, 67, 0
3, 13564, Note_on_c, 1, 68, 64
3, 13590, Note_on_c, 1, 68, 0
3, 13594, Note_on_c, 1, 67, 64
3, 13620, Note_on_c, 1, 67, 0
3, 13624, Note_on_c, 1, 65, 64
3, 13650, Note_on_c, 1, 65, 0
3, 13654, Note_on_c, 1, 68, 64
3, 13680, Note_on_c, 1, 68, 0
3, 13684, Note_on_c, 1, 67, 64
3, 13710, Note_on_c, 1, 67, 0
3, 13714, Note_on_c, 1, 65, 64
3, 13740, Note_on_c, 1, 65, 0
3, 13744, Note_on_c, 1, 67, 64
3, 13770, Note_on_c, 1, 67, 0
3, 13774, Note_on_c, 1, 68, 64
3, 13800, Note_on_c, 1, 68, 0
3, 13804, Note_on_c, 1, 70, 64
3, 13830, Note_on_c, 1, 70, 0
3, 13834, Note_on_c, 1, 68, 64
3, 13860, Note_on_c, 1, 68, 0
3, 13864, Note_on_c, 1, 67, 64
3, 13890, Note_on_c, 1, 67, 0
3, 13894, Note_on_c, 1, 70, 64
3, 13920, Note_on_c, 1, 70, 0
3, 13924, Note_on_c, 1, 69, 64
3, 13950, Note_on_c, 1, 69, 0
3, 13954, Note_on_c, 1, 67, 64
3, 13980, Note_on_c, 1, 67, 0
3, 13984, Note_on_c, 1, 69, 64
3, 14010, Note_on_c, 1, 69, 0
3, 14014, Note_on_c, 1, 70, 64
3, 14040, Note_on_c, 1, 70, 0
3, 14044, Note_on_c, 1, 72, 64
3, 14070, Note_on_c, 1, 72, 0
3, 14074, Note_on_c, 1, 70, 64
3, 14100, Note_on_c, 1, 70, 0
3, 14104, Note_on_c, 1, 69, 64
3, 14130, Note_on_c, 1, 69, 0
3, 14134, Note_on_c, 1, 72, 64
3, 14160, Note_on_c, 1, 72, 0
3, 14164, Note_on_c, 1, 70, 64
3, 14216, Note_on_c, 1, 70, 0
3, 14224, Note_on_c, 1, 65, 64
3, 14276, Note_on_c, 1, 65, 0
3, 14284, Note_on_c, 1, 70, 64
3, 14509, Note_on_c, 1, 70, 0
3, 14524, Note_on_c, 1, 69, 64
3, 14576, Note_on_c, 1, 69, 0
3, 14584, Note_on_c, 1, 68, 64
3, 14696, Note_on_c, 1, 68, 0
3, 14704, Note_on_c, 1, 77, 64
3, 14730, Note_on_c, 1, 77, 0
3, 14734, Note_on_c, 1, 75, 64
3, 14760, Note_on_c, 1, 75, 0
3, 14764, Note_on_c, 1, 74, 64
3, 14790, Note_on_c, 1, 74, 0
3, 14794, Note_on_c, 1, 72, 64
3, 14820, Note_on_c, 1, 72, 0
3, 14824, Note_on_c, 1, 70, 64
3, 14850, Note_on_c, 1, 70, 0
3, 14854, Note_on_c, 1, 68, 64
3, 14880, Note_on_c, 1, 68, 0
3, 14884, Note_on_c, 1, 66, 64
3, 14910, Note_on_c, 1, 66, 0
3, 14914, Note_on_c, 1, 68, 64
3, 14940, Note_on_c, 1, 68, 0
3, 14944, Note_on_c, 1, 66, 64
3, 14970, Note_on_c, 1, 66, 0
3, 14974, Note_on_c, 1, 65, 64
3, 15000, Note_on_c, 1, 65, 0
3, 15004, Note_on_c, 1, 63, 64
3, 15030, Note_on_c, 1, 63, 0
3, 15034, Note_on_c, 1, 65, 64
3, 15060, Note_on_c, 1, 65, 0
3, 15064, Note_on_c, 1, 66, 64
3, 15090, Note_on_c, 1, 66, 0
3, 15094, Note_on_c, 1, 63, 64
3, 15120, Note_on_c, 1, 63, 0
3, 15124, Note_on_c, 1, 65, 64
3, 15150, Note_on_c, 1, 65, 0
3, 15154, Note_on_c, 1, 66, 64
3, 15180, Note_on_c, 1, 66, 0
3, 15184, Note_on_c, 1, 65, 64
3, 15210, Note_on_c, 1, 65, 0
3, 15214, Note_on_c, 1, 63, 64
3, 15240, Note_on_c, 1, 63, 0
3, 15244, Note_on_c, 1, 62, 64
3, 15270, Note_on_c, 1, 62, 0
3, 15274, Note_on_c, 1, 63, 64
3, 15300, Note_on_c, 1, 63, 0
3, 15304, Note_on_c, 1, 65, 64
3, 15330, Note_on_c, 1, 65, 0
3, 15334, Note_on_c, 1, 62, 64
3, 15360, Note_on_c, 1, 62, 0
3, 15364, Note_on_c, 1, 63, 64
3, 15390, Note_on_c, 1, 63, 0
3, 15394, Note_on_c, 1, 65, 64
3, 15420, Note_on_c, 1, 65, 0
3, 15424, Note_on_c, 1, 63, 64
3, 15450, Note_on_c, 1, 63, 0
3, 15454, Note_on_c, 1, 61, 64
3, 15480, Note_on_c, 1, 61, 0
3, 15484, Note_on_c, 1, 60, 64
3, 15510, Note_on_c, 1, 60, 0
3, 15514, Note_on_c, 1, 62, 64
3, 15540, Note_on_c, 1, 62, 0
3, 15544, Note_on_c, 1, 63, 64
3, 15570, Note_on_c, 1, 63, 0
3, 15574, Note_on_c, 1, 60, 64
3, 15600, Note_on_c, 1, 60, 0
3, 15604, Note_on_c, 1, 62, 64
3, 15656, Note_on_c, 1, 62, 0
3, 15664, Note_on_c, 1, 63, 64
3, 15769, Note_on_c, 1, 63, 0
3, 15784, Note_on_c, 1, 62, 64
3, 15836, Note_on_c, 1, 62, 0
3, 15844, Note_on_c, 1, 63, 64
3, 15896, Note_on_c, 1, 63, 0
3, 15904, Note_on_c, 1, 68, 64
3, 15956, Note_on_c, 1, 68, 0
3, 15964, Note_on_c, 1, 66, 64
3, 16016, Note_on_c, 1, 66, 0
3, 16024, Note_on_c, 1, 72, 64
3, 16076, Note_on_c, 1, 72, 0
3, 16084, Note_on_c, 1, 65, 64
3, 16136, Note_on_c, 1, 65, 0
3, 16264, Note_on_c, 1, 66, 64
3, 16316, Note_on_c, 1, 66, 0
3, 16324, Note_on_c, 1, 65, 64
3, 16376, Note_on_c, 1, 65, 0
3, 16444, Note_on_c, 1, 70, 64
3, 16549, Note_on_c, 1, 70, 0
3, 16564, Note_on_c, 1, 69, 64
3, 16669, Note_on_c, 1, 69, 0
3, 16684, Note_on_c, 1, 68, 64
3, 16789, Note_on_c, 1, 68, 0
3, 16804, Note_on_c, 1, 67, 64
3, 16909, Note_on_c, 1, 67, 0
3, 16924, Note_on_c, 1, 66, 64
3, 17029, Note_on_c, 1, 66, 0
3, 17044, Note_on_c, 1, 65, 64
3, 17096, Note_on_c, 1, 65, 0
3, 17104, Note_on_c, 1, 70, 64
3, 17209, Note_on_c, 1, 70, 0
3, 17224, Note_on_c, 1, 68, 64
3, 17276, Note_on_c, 1, 68, 0
3, 17284, Note_on_c, 1, 66, 64
3, 17456, Note_on_c, 1, 66, 0
3, 17464, Note_on_c, 1, 63, 64
3, 17516, Note_on_c, 1, 63, 0
3, 17524, Note_on_c, 1, 68, 64
3, 17550, Note_on_c, 1, 68, 0
3, 17554, Note_on_c, 1, 66, 64
3, 17580, Note_on_c, 1, 66, 0
3, 17584, Note_on_c, 1, 65, 64
3, 17610, Note_on_c, 1, 65, 0
3, 17614, Note_on_c, 1, 68, 64
3, 17640, Note_on_c, 1, 68, 0
3, 17644, Note_on_c, 1, 66, 64
3, 17670, Note_on_c, 1, 66, 0
3, 17674, Note_on_c, 1, 68, 64
3, 17700, Note_on_c, 1, 68, 0
3, 17704, Note_on_c, 1, 66, 64
3, 17730, Note_on_c, 1, 66, 0
3, 17734, Note_on_c, 1, 65, 64
3, 17760, Note_on_c, 1, 65, 0
3, 17764, Note_on_c, 1, 63, 64
3, 17790, Note_on_c, 1, 63, 0
3, 17794, Note_on_c, 1, 65, 64
3, 17820, Note_on_c, 1, 65, 0
3, 17824, Note_on_c, 1, 66, 64
3, 17850, Note_on_c, 1, 66, 0
3, 17854, Note_on_c, 1, 63, 64
3, 17880, Note_on_c, 1, 63, 0
3, 17884, Note_on_c, 1, 65, 64
3, 17910, Note_on_c, 1, 65, 0
3, 17914, Note_on_c, 1, 66, 64
3, 17940, Note_on_c, 1, 66, 0
3, 17944, Note_on_c, 1, 65, 64
3, 17970, Note_on_c, 1, 65, 0
3, 17974, Note_on_c, 1, 63, 64
3, 18000, Note_on_c, 1, 63, 0
3, 18004, Note_on_c, 1, 61, 64
3, 18030, Note_on_c, 1, 61, 0
3, 18034, Note_on_c, 1, 63, 64
3, 18060, Note_on_c, 1, 63, 0
3, 18064, Note_on_c, 1, 65, 64
3, 18090, Note_on_c, 1, 65, 0
3, 18094, Note_on_c, 1, 61, 64
3, 18120, Note_on_c, 1, 61, 0
3, 18124, Note_on_c, 1, 63, 64
3, 18150, Note_on_c, 1, 63, 0
3, 18154, Note_on_c, 1, 64, 64
3, 18180, Note_on_c, 1, 64, 0
3, 18184, Note_on_c, 1, 63, 64
3, 18210, Note_on_c, 1, 63, 0
3, 18214, Note_on_c, 1, 61, 64
3, 18240, Note_on_c, 1, 61, 0
3, 18244, Note_on_c, 1, 60, 64
3, 18349, Note_on_c, 1, 60, 0
3, 18364, Note_on_c, 1, 64, 64
3, 18536, Note_on_c, 1, 64, 0
3, 18544, Note_on_c, 1, 63, 64
3, 18656, Note_on_c, 1, 63, 0
3, 18664, Note_on_c, 1, 63, 64
3, 18716, Note_on_c, 1, 63, 0
3, 18724, Note_on_c, 1, 68, 64
3, 18776, Note_on_c, 1, 68, 0
3, 18784, Note_on_c, 1, 65, 64
3, 18836, Note_on_c, 1, 65, 0
3, 18844, Note_on_c, 1, 66, 64
3, 18896, Note_on_c, 1, 66, 0
3, 18904, Note_on_c, 1, 67, 64
3, 18956, Note_on_c, 1, 67, 0
3, 18964, Note_on_c, 1, 68, 64
3, 18990, Note_on_c, 1, 68, 0
3, 18994, Note_on_c, 1, 70, 64
3, 19020, Note_on_c, 1, 70, 0
3, 19024, Note_on_c, 1, 66, 64
3, 19050, Note_on_c, 1, 66, 0
3, 19054, Note_on_c, 1, 68, 64
3, 19080, Note_on_c, 1, 68, 0
3, 19084, Note_on_c, 1, 65, 64
3, 19110, Note_on_c, 1, 65, 0
3, 19114, Note_on_c, 1, 67, 64
3, 19140, Note_on_c, 1, 67, 0
3, 19144, Note_on_c, 1, 68, 64
3, 19170, Note_on_c, 1, 68, 0
3, 19174, Note_on_c, 1, 70, 64
3, 19200, Note_on_c, 1, 70, 0
3, 19204, Note_on_c, 1, 67, 64
3, 19309, Note_on_c, 1, 67, 0
3, 19354, Note_on_c, 1, 75, 64
3, 19380, Note_on_c, 1, 75, 0
3, 19384, Note_on_c, 1, 74, 64
3, 19410, Note_on_c, 1, 74, 0
3, 19414, Note_on_c, 1, 72, 64
3, 19440, Note_on_c, 1, 72, 0
3, 19444, Note_on_c, 1, 74, 64
3, 19496, Note_on_c, 1, 74, 0
3, 19504, Note_on_c, 1, 70, 64
3, 19590, Note_on_c, 1, 70, 0
3, 19594, Note_on_c, 1, 73, 64
3, 19620, Note_on_c, 1, 73, 0
3, 19624, Note_on_c, 1, 72, 64
3, 19650, Note_on_c, 1, 72, 0
3, 19654, Note_on_c, 1, 70, 64
3, 19680, Note_on_c, 1, 70, 0
3, 19684, Note_on_c, 1, 72, 64
3, 19736, Note_on_c, 1, 72, 0
3, 19744, Note_on_c, 1, 68, 64
3, 19830, Note_on_c, 1, 68, 0
3, 19834, Note_on_c, 1, 71, 64
3, 19860, Note_on_c, 1, 71, 0
3, 19864, Note_on_c, 1, 70, 64
3, 19890, Note_on_c, 1, 70, 0
3, 19894, Note_on_c, 1, 68, 64
3, 19920, Note_on_c, 1, 68, 0
3, 19924, Note_on_c, 1, 67, 64
3, 19976, Note_on_c, 1, 67, 0
3, 19984, Note_on_c, 1, 68, 64
3, 20036, Note_on_c, 1, 68, 0
3, 20044, Note_on_c, 1, 70, 64
3, 20096, Note_on_c, 1, 70, 0
3, 20104, Note_on_c, 1, 67, 64
3, 20156, Note_on_c, 1, 67, 0
3, 20164, Note_on_c, 1, 68, 64
3, 20216, Note_on_c, 1, 68, 0
3, 20224, Note_on_c, 1, 65, 64
3, 20310, Note_on_c, 1, 65, 0
3, 20314, Note_on_c, 1, 68, 64
3, 20340, Note_on_c, 1, 68, 0
3, 20344, Note_on_c, 1, 67, 64
3, 20370, Note_on_c, 1, 67, 0
3, 20374, Note_on_c, 1, 65, 64
3, 20400, Note_on_c, 1, 65, 0
3, 20404, Note_on_c, 1, 67, 64
3, 20456, Note_on_c, 1, 67, 0
3, 20464, Note_on_c, 1, 63, 64
3, 20550, Note_on_c, 1, 63, 0
3, 20554, Note_on_c, 1, 70, 64
3, 20580, Note_on_c, 1, 70, 0
3, 20584, Note_on_c, 1, 68, 64
3, 20610, Note_on_c, 1, 68, 0
3, 20614, Note_on_c, 1, 66, 64
3, 20640, Note_on_c, 1, 66, 0
3, 20644, Note_on_c, 1, 65, 64
3, 20696, Note_on_c, 1, 65, 0
3, 20704, Note_on_c, 1, 69, 64
3, 20756, Note_on_c, 1, 69, 0
3, 20764, Note_on_c, 1, 68, 64
3, 20816, Note_on_c, 1, 68, 0
3, 20824, Note_on_c, 1, 64, 64
3, 20876, Note_on_c, 1, 64, 0
3, 20884, Note_on_c, 1, 69, 64
3, 20936, Note_on_c, 1, 69, 0
3, 20944, Note_on_c, 1, 68, 64
3, 20996, Note_on_c, 1, 68, 0
3, 21004, Note_on_c, 1, 69, 64
3, 21056, Note_on_c, 1, 69, 0
3, 21064, Note_on_c, 1, 68, 64
3, 21116, Note_on_c, 1, 68, 0
3, 21124, Note_on_c, 1, 69, 64
3, 21229, Note_on_c, 1, 69, 0
3, 21364, Note_on_c, 1, 73, 64
3, 21469, Note_on_c, 1, 73, 0
3, 21604, Note_on_c, 1, 76, 64
3, 21709, Note_on_c, 1, 76, 0
3, 21844, Note_on_c, 1, 73, 64
3, 21844, Note_on_c, 1, 75, 64
3, 21949, Note_on_c, 1, 75, 0
3, 21949, Note_on_c, 1, 73, 0
3, 22504, Note_on_c, 1, 58, 64
3, 22556, Note_on_c, 1, 58, 0
3, 22564, Note_on_c, 1, 60, 64
3, 22616, Note_on_c, 1, 60, 0
3, 22624, Note_on_c, 1, 59, 64
3, 22676, Note_on_c, 1, 59, 0
3, 22684, Note_on_c, 1, 58, 64
3, 22736, Note_on_c, 1, 58, 0
3, 22744, Note_on_c, 1, 61, 64
3, 22796, Note_on_c, 1, 61, 0
3, 22804, Note_on_c, 1, 60, 64
3, 22830, Note_on_c, 1, 60, 0
3, 22834, Note_on_c, 1, 65, 64
3, 22950, Note_on_c, 1, 65, 0
3, 22954, Note_on_c, 1, 63, 64
3, 22980, Note_on_c, 1, 63, 0
3, 22984, Note_on_c, 1, 68, 64
3, 23036, Note_on_c, 1, 68, 0
3, 23044, Note_on_c, 1, 70, 64
3, 23149, Note_on_c, 1, 70, 0
3, 23164, Note_on_c, 1, 69, 64
3, 23269, Note_on_c, 1, 69, 0
3, 23284, Note_on_c, 1, 68, 64
3, 23389, Note_on_c, 1, 68, 0
3, 23464, Note_on_c, 1, 56, 64
3, 23516, Note_on_c, 1, 56, 0
3, 23524, Note_on_c, 1, 63, 64
3, 23749, Note_on_c, 1, 63, 0
3, 23764, Note_on_c, 1, 63, 64
3, 23989, Note_on_c, 1, 63, 0
3, 23989, End_track
4, 0, Start_track
4, 0, MIDI_port, 0
4, 0, Title_t, "in A flat major"
4, 0, Program_c, 2, 6
4, 2464, Note_on_c, 2, 63, 64
4, 2516, Note_on_c, 2, 63, 0
4, 2524, Note_on_c, 2, 60, 64
4, 2576, Note_on_c, 2, 60, 0
4, 2584, Note_on_c, 2, 65, 64
4, 2636, Note_on_c, 2, 65, 0
4, 2644, Note_on_c, 2, 58, 64
4, 2696, Note_on_c, 2, 58, 0
4, 2704, Note_on_c, 2, 60, 64
4, 2730, Note_on_c, 2, 60, 0
4, 2734, Note_on_c, 2, 61, 64
4, 2760, Note_on_c, 2, 61, 0
4, 2764, Note_on_c, 2, 63, 64
4, 2816, Note_on_c, 2, 63, 0
4, 2824, Note_on_c, 2, 51, 64
4, 2876, Note_on_c, 2, 51, 0
4, 2884, Note_on_c, 2, 56, 64
4, 2936, Note_on_c, 2, 56, 0
4, 2944, Note_on_c, 2, 58, 64
4, 2970, Note_on_c, 2, 58, 0
4, 2974, Note_on_c, 2, 60, 64
4, 3000, Note_on_c, 2, 60, 0
4, 3004, Note_on_c, 2, 61, 64
4, 3150, Note_on_c, 2, 61, 0
4, 3154, Note_on_c, 2, 63, 64
4, 3180, Note_on_c, 2, 63, 0
4, 3184, Note_on_c, 2, 60, 64
4, 3210, Note_on_c, 2, 60, 0
4, 3214, Note_on_c, 2, 61, 64
4, 3240, Note_on_c, 2, 61, 0
4, 3244, Note_on_c, 2, 58, 64
4, 3270, Note_on_c, 2, 58, 0
4, 3274, Note_on_c, 2, 60, 64
4, 3300, Note_on_c, 2, 60, 0
4, 3304, Note_on_c, 2, 61, 64
4, 3330, Note_on_c, 2, 61, 0
4, 3334, Note_on_c, 2, 63, 64
4, 3360, Note_on_c, 2, 63, 0
4, 3364, Note_on_c, 2, 60, 64
4, 3390, Note_on_c, 2, 60, 0
4, 3394, Note_on_c, 2, 58, 64
4, 3420, Note_on_c, 2, 58, 0
4, 3424, Note_on_c, 2, 60, 64
4, 3450, Note_on_c, 2, 60, 0
4, 3454, Note_on_c, 2, 61, 64
4, 3480, Note_on_c, 2, 61, 0
4, 3484, Note_on_c, 2, 63, 64
4, 3589, Note_on_c, 2, 63, 0
4, 3604, Note_on_c, 2, 62, 64
4, 3709, Note_on_c, 2, 62, 0
4, 3724, Note_on_c, 2, 61, 64
4, 3829, Note_on_c, 2, 61, 0
4, 3844, Note_on_c, 2, 60, 64
4, 3949, Note_on_c, 2, 60, 0
4, 3964, Note_on_c, 2, 59, 64
4, 4069, Note_on_c, 2, 59, 0
4, 4084, Note_on_c, 2, 58, 64
4, 4136, Note_on_c, 2, 58, 0
4, 4144, Note_on_c, 2, 63, 64
4, 4249, Note_on_c, 2, 63, 0
4, 4264, Note_on_c, 2, 62, 64
4, 4316, Note_on_c, 2, 62, 0
4, 4324, Note_on_c, 2, 63, 64
4, 4429, Note_on_c, 2, 63, 0
4, 4504, Note_on_c, 2, 67, 64
4, 4556, Note_on_c, 2, 67, 0
4, 4564, Note_on_c, 2, 68, 64
4, 4616, Note_on_c, 2, 68, 0
4, 4624, Note_on_c, 2, 72, 64
4, 4676, Note_on_c, 2, 72, 0
4, 4684, Note_on_c, 2, 65, 64
4, 4736, Note_on_c, 2, 65, 0
4, 4744, Note_on_c, 2, 70, 64
4, 4796, Note_on_c, 2, 70, 0
4, 4804, Note_on_c, 2, 63, 64
4, 4909, Note_on_c, 2, 63, 0
4, 5104, Note_on_c, 2, 63, 64
4, 5156, Note_on_c, 2, 63, 0
4, 5164, Note_on_c, 2, 68, 64
4, 5389, Note_on_c, 2, 68, 0
4, 5404, Note_on_c, 2, 67, 64
4, 5456, Note_on_c, 2, 67, 0
4, 5464, Note_on_c, 2, 66, 64
4, 5576, Note_on_c, 2, 66, 0
4, 5584, Note_on_c, 2, 75, 64
4, 5610, Note_on_c, 2, 75, 0
4, 5614, Note_on_c, 2, 73, 64
4, 5640, Note_on_c, 2, 73, 0
4, 5644, Note_on_c, 2, 72, 64
4, 5670, Note_on_c, 2, 72, 0
4, 5674, Note_on_c, 2, 70, 64
4, 5700, Note_on_c, 2, 70, 0
4, 5704, Note_on_c, 2, 68, 64
4, 5730, Note_on_c, 2, 68, 0
4, 5734, Note_on_c, 2, 66, 64
4, 5760, Note_on_c, 2, 66, 0
4, 5764, Note_on_c, 2, 65, 64
4, 5869, Note_on_c, 2, 65, 0
4, 6124, Note_on_c, 2, 63, 64
4, 6229, Note_on_c, 2, 63, 0
4, 6244, Note_on_c, 2, 62, 64
4, 6349, Note_on_c, 2, 62, 0
4, 6364, Note_on_c, 2, 61, 64
4, 6469, Note_on_c, 2, 61, 0
4, 6484, Note_on_c, 2, 60, 64
4, 6589, Note_on_c, 2, 60, 0
4, 6604, Note_on_c, 2, 59, 64
4, 6709, Note_on_c, 2, 59, 0
4, 6724, Note_on_c, 2, 58, 64
4, 6776, Note_on_c, 2, 58, 0
4, 6784, Note_on_c, 2, 63, 64
4, 6836, Note_on_c, 2, 63, 0
4, 6844, Note_on_c, 2, 61, 64
4, 6896, Note_on_c, 2, 61, 0
4, 6904, Note_on_c, 2, 58, 64
4, 6956, Note_on_c, 2, 58, 0
4, 6964, Note_on_c, 2, 60, 64
4, 6990, Note_on_c, 2, 60, 0
4, 6994, Note_on_c, 2, 61, 64
4, 7020, Note_on_c, 2, 61, 0
4, 7024, Note_on_c, 2, 58, 64
4, 7050, Note_on_c, 2, 58, 0
4, 7054, Note_on_c, 2, 60, 64
4, 7080, Note_on_c, 2, 60, 0
4, 7084, Note_on_c, 2, 56, 64
4, 7110, Note_on_c, 2, 56, 0
4, 7114, Note_on_c, 2, 58, 64
4, 7140, Note_on_c, 2, 58, 0
4, 7144, Note_on_c, 2, 60, 64
4, 7170, Note_on_c, 2, 60, 0
4, 7174, Note_on_c, 2, 61, 64
4, 7200, Note_on_c, 2, 61, 0
4, 7204, Note_on_c, 2, 55, 64
4, 7429, Note_on_c, 2, 55, 0
4, 7444, Note_on_c, 2, 56, 64
4, 7496, Note_on_c, 2, 56, 0
4, 8464, Note_on_c, 2, 63, 64
4, 8516, Note_on_c, 2, 63, 0
4, 8524, Note_on_c, 2, 60, 64
4, 8576, Note_on_c, 2, 60, 0
4, 8584, Note_on_c, 2, 65, 64
4, 8636, Note_on_c, 2, 65, 0
4, 8644, Note_on_c, 2, 58, 64
4, 8696, Note_on_c, 2, 58, 0
4, 8704, Note_on_c, 2, 60, 64
4, 8730, Note_on_c, 2, 60, 0
4, 8734, Note_on_c, 2, 61, 64
4, 8760, Note_on_c, 2, 61, 0
4, 8764, Note_on_c, 2, 63, 64
4, 8816, Note_on_c, 2, 63, 0
4, 8824, Note_on_c, 2, 51, 64
4, 8876, Note_on_c, 2, 51, 0
4, 8884, Note_on_c, 2, 56, 64
4, 8936, Note_on_c, 2, 56, 0
4, 8944, Note_on_c, 2, 58, 64
4, 8970, Note_on_c, 2, 58, 0
4, 8974, Note_on_c, 2, 60, 64
4, 9000, Note_on_c, 2, 60, 0
4, 9004, Note_on_c, 2, 61, 64
4, 9150, Note_on_c, 2, 61, 0
4, 9154, Note_on_c, 2, 63, 64
4, 9180, Note_on_c, 2, 63, 0
4, 9184, Note_on_c, 2, 60, 64
4, 9210, Note_on_c, 2, 60, 0
4, 9214, Note_on_c, 2, 61, 64
4, 9240, Note_on_c, 2, 61, 0
4, 9244, Note_on_c, 2, 58, 64
4, 9270, Note_on_c, 2, 58, 0
4, 9274, Note_on_c, 2, 60, 64
4, 9300, Note_on_c, 2, 60, 0
4, 9304, Note_on_c, 2, 61, 64
4, 9330, Note_on_c, 2, 61, 0
4, 9334, Note_on_c, 2, 63, 64
4, 9360, Note_on_c, 2, 63, 0
4, 9364, Note_on_c, 2, 60, 64
4, 9416, Note_on_c, 2, 60, 0
4, 9424, Note_on_c, 2, 61, 64
4, 9529, Note_on_c, 2, 61, 0
4, 9544, Note_on_c, 2, 60, 64
4, 9630, Note_on_c, 2, 60, 0
4, 9634, Note_on_c, 2, 63, 64
4, 9660, Note_on_c, 2, 63, 0
4, 9664, Note_on_c, 2, 61, 64
4, 9690, Note_on_c, 2, 61, 0
4, 9694, Note_on_c, 2, 63, 64
4, 9720, Note_on_c, 2, 63, 0
4, 9724, Note_on_c, 2, 60, 64
4, 9750, Note_on_c, 2, 60, 0
4, 9754, Note_on_c, 2, 61, 64
4, 9780, Note_on_c, 2, 61, 0
4, 9784, Note_on_c, 2, 63, 64
4, 9810, Note_on_c, 2, 63, 0
4, 9814, Note_on_c, 2, 65, 64
4, 9840, Note_on_c, 2, 65, 0
4, 9844, Note_on_c, 2, 62, 64
4, 9896, Note_on_c, 2, 62, 0
4, 9904, Note_on_c, 2, 63, 64
4, 10009, Note_on_c, 2, 63, 0
4, 10024, Note_on_c, 2, 61, 64
4, 10110, Note_on_c, 2, 61, 0
4, 10114, Note_on_c, 2, 61, 64
4, 10140, Note_on_c, 2, 61, 0
4, 10144, Note_on_c, 2, 60, 64
4, 10170, Note_on_c, 2, 60, 0
4, 10174, Note_on_c, 2, 58, 64
4, 10200, Note_on_c, 2, 58, 0
4, 10204, Note_on_c, 2, 56, 64
4, 10230, Note_on_c, 2, 56, 0
4, 10234, Note_on_c, 2, 58, 64
4, 10260, Note_on_c, 2, 58, 0
4, 10264, Note_on_c, 2, 60, 64
4, 10290, Note_on_c, 2, 60, 0
4, 10294, Note_on_c, 2, 62, 64
4, 10320, Note_on_c, 2, 62, 0
4, 10324, Note_on_c, 2, 63, 64
4, 10350, Note_on_c, 2, 63, 0
4, 10354, Note_on_c, 2, 65, 64
4, 10380, Note_on_c, 2, 65, 0
4, 10384, Note_on_c, 2, 63, 64
4, 10410, Note_on_c, 2, 63, 0
4, 10414, Note_on_c, 2, 61, 64
4, 10440, Note_on_c, 2, 61, 0
4, 10444, Note_on_c, 2, 60, 64
4, 10470, Note_on_c, 2, 60, 0
4, 10474, Note_on_c, 2, 63, 64
4, 10500, Note_on_c, 2, 63, 0
4, 10504, Note_on_c, 2, 61, 64
4, 10530, Note_on_c, 2, 61, 0
4, 10534, Note_on_c, 2, 60, 64
4, 10560, Note_on_c, 2, 60, 0
4, 10564, Note_on_c, 2, 61, 64
4, 10590, Note_on_c, 2, 61, 0
4, 10594, Note_on_c, 2, 63, 64
4, 10620, Note_on_c, 2, 63, 0
4, 10624, Note_on_c, 2, 61, 64
4, 10650, Note_on_c, 2, 61, 0
4, 10654, Note_on_c, 2, 60, 64
4, 10680, Note_on_c, 2, 60, 0
4, 10684, Note_on_c, 2, 58, 64
4, 10710, Note_on_c, 2, 58, 0
4, 10714, Note_on_c, 2, 59, 64
4, 10740, Note_on_c, 2, 59, 0
4, 10744, Note_on_c, 2, 56, 64
4, 10770, Note_on_c, 2, 56, 0
4, 10774, Note_on_c, 2, 58, 64
4, 10800, Note_on_c, 2, 58, 0
4, 10804, Note_on_c, 2, 55, 64
4, 10856, Note_on_c, 2, 55, 0
4, 10864, Note_on_c, 2, 56, 64
4, 10969, Note_on_c, 2, 56, 0
4, 10984, Note_on_c, 2, 55, 64
4, 11096, Note_on_c, 2, 55, 0
4, 11194, Note_on_c, 2, 53, 64
4, 11220, Note_on_c, 2, 53, 0
4, 11224, Note_on_c, 2, 55, 64
4, 11250, Note_on_c, 2, 55, 0
4, 11254, Note_on_c, 2, 56, 64
4, 11280, Note_on_c, 2, 56, 0
4, 11284, Note_on_c, 2, 58, 64
4, 11336, Note_on_c, 2, 58, 0
4, 14944, Note_on_c, 2, 58, 64
4, 14996, Note_on_c, 2, 58, 0
4, 15004, Note_on_c, 2, 54, 64
4, 15056, Note_on_c, 2, 54, 0
4, 15064, Note_on_c, 2, 59, 64
4, 15116, Note_on_c, 2, 59, 0
4, 15124, Note_on_c, 2, 53, 64
4, 15176, Note_on_c, 2, 53, 0
4, 15184, Note_on_c, 2, 54, 64
4, 15210, Note_on_c, 2, 54, 0
4, 15214, Note_on_c, 2, 56, 64
4, 15240, Note_on_c, 2, 56, 0
4, 15244, Note_on_c, 2, 58, 64
4, 15296, Note_on_c, 2, 58, 0
4, 15304, Note_on_c, 2, 46, 64
4, 15356, Note_on_c, 2, 46, 0
4, 15364, Note_on_c, 2, 51, 64
4, 15416, Note_on_c, 2, 51, 0
4, 15424, Note_on_c, 2, 53, 64
4, 15450, Note_on_c, 2, 53, 0
4, 15454, Note_on_c, 2, 54, 64
4, 15480, Note_on_c, 2, 54, 0
4, 15484, Note_on_c, 2, 56, 64
4, 15630, Note_on_c, 2, 56, 0
4, 15634, Note_on_c, 2, 58, 64
4, 15660, Note_on_c, 2, 58, 0
4, 15664, Note_on_c, 2, 54, 64
4, 15690, Note_on_c, 2, 54, 0
4, 15694, Note_on_c, 2, 56, 64
4, 15720, Note_on_c, 2, 56, 0
4, 15724, Note_on_c, 2, 53, 64
4, 15750, Note_on_c, 2, 53, 0
4, 15754, Note_on_c, 2, 54, 64
4, 15780, Note_on_c, 2, 54, 0
4, 15784, Note_on_c, 2, 56, 64
4, 15810, Note_on_c, 2, 56, 0
4, 15814, Note_on_c, 2, 58, 64
4, 15840, Note_on_c, 2, 58, 0
4, 15844, Note_on_c, 2, 54, 64
4, 15870, Note_on_c, 2, 54, 0
4, 15874, Note_on_c, 2, 56, 64
4, 15900, Note_on_c, 2, 56, 0
4, 15904, Note_on_c, 2, 53, 64
4, 15930, Note_on_c, 2, 53, 0
4, 15934, Note_on_c, 2, 54, 64
4, 15960, Note_on_c, 2, 54, 0
4, 15964, Note_on_c, 2, 51, 64
4, 15990, Note_on_c, 2, 51, 0
4, 15994, Note_on_c, 2, 53, 64
4, 16020, Note_on_c, 2, 53, 0
4, 16024, Note_on_c, 2, 55, 64
4, 16050, Note_on_c, 2, 55, 0
4, 16054, Note_on_c, 2, 57, 64
4, 16080, Note_on_c, 2, 57, 0
4, 16084, Note_on_c, 2, 58, 64
4, 16110, Note_on_c, 2, 58, 0
4, 16114, Note_on_c, 2, 60, 64
4, 16140, Note_on_c, 2, 60, 0
4, 16144, Note_on_c, 2, 56, 64
4, 16170, Note_on_c, 2, 56, 0
4, 16174, Note_on_c, 2, 58, 64
4, 16200, Note_on_c, 2, 58, 0
4, 16204, Note_on_c, 2, 55, 64
4, 16230, Note_on_c, 2, 55, 0
4, 16234, Note_on_c, 2, 57, 64
4, 16260, Note_on_c, 2, 57, 0
4, 16264, Note_on_c, 2, 58, 64
4, 16290, Note_on_c, 2, 58, 0
4, 16294, Note_on_c, 2, 60, 64
4, 16320, Note_on_c, 2, 60, 0
4, 16324, Note_on_c, 2, 57, 64
4, 16350, Note_on_c, 2, 57, 0
4, 16354, Note_on_c, 2, 53, 64
4, 16380, Note_on_c, 2, 53, 0
4, 16384, Note_on_c, 2, 55, 64
4, 16410, Note_on_c, 2, 55, 0
4, 16414, Note_on_c, 2, 57, 64
4, 16440, Note_on_c, 2, 57, 0
4, 16444, Note_on_c, 2, 58, 64
4, 16470, Note_on_c, 2, 58, 0
4, 16474, Note_on_c, 2, 60, 64
4, 16500, Note_on_c, 2, 60, 0
4, 16504, Note_on_c, 2, 61, 64
4, 16530, Note_on_c, 2, 61, 0
4, 16534, Note_on_c, 2, 63, 64
4, 16560, Note_on_c, 2, 63, 0
4, 16564, Note_on_c, 2, 65, 64
4, 16590, Note_on_c, 2, 65, 0
4, 16594, Note_on_c, 2, 66, 64
4, 16620, Note_on_c, 2, 66, 0
4, 16624, Note_on_c, 2, 65, 64
4, 16650, Note_on_c, 2, 65, 0
4, 16654, Note_on_c, 2, 63, 64
4, 16680, Note_on_c, 2, 63, 0
4, 16684, Note_on_c, 2, 62, 64
4, 16710, Note_on_c, 2, 62, 0
4, 16714, Note_on_c, 2, 58, 64
4, 16740, Note_on_c, 2, 58, 0
4, 16744, Note_on_c, 2, 60, 64
4, 16770, Note_on_c, 2, 60, 0
4, 16774, Note_on_c, 2, 62, 64
4, 16800, Note_on_c, 2, 62, 0
4, 16804, Note_on_c, 2, 63, 64
4, 16830, Note_on_c, 2, 63, 0
4, 16834, Note_on_c, 2, 65, 64
4, 16860, Note_on_c, 2, 65, 0
4, 16864, Note_on_c, 2, 63, 64
4, 16890, Note_on_c, 2, 63, 0
4, 16894, Note_on_c, 2, 61, 64
4, 16920, Note_on_c, 2, 61, 0
4, 16924, Note_on_c, 2, 60, 64
4, 16950, Note_on_c, 2, 60, 0
4, 16954, Note_on_c, 2, 57, 64
4, 16980, Note_on_c, 2, 57, 0
4, 16984, Note_on_c, 2, 58, 64
4, 17010, Note_on_c, 2, 58, 0
4, 17014, Note_on_c, 2, 60, 64
4, 17040, Note_on_c, 2, 60, 0
4, 17044, Note_on_c, 2, 61, 64
4, 17096, Note_on_c, 2, 61, 0
4, 17104, Note_on_c, 2, 58, 64
4, 17156, Note_on_c, 2, 58, 0
4, 17164, Note_on_c, 2, 65, 64
4, 17310, Note_on_c, 2, 65, 0
4, 17314, Note_on_c, 2, 65, 64
4, 17340, Note_on_c, 2, 65, 0
4, 17344, Note_on_c, 2, 63, 64
4, 17370, Note_on_c, 2, 63, 0
4, 17374, Note_on_c, 2, 61, 64
4, 17400, Note_on_c, 2, 61, 0
4, 17404, Note_on_c, 2, 63, 64
4, 17430, Note_on_c, 2, 63, 0
4, 17434, Note_on_c, 2, 61, 64
4, 17460, Note_on_c, 2, 61, 0
4, 17464, Note_on_c, 2, 60, 64
4, 17490, Note_on_c, 2, 60, 0
4, 17494, Note_on_c, 2, 58, 64
4, 17520, Note_on_c, 2, 58, 0
4, 17524, Note_on_c, 2, 56, 64
4, 17576, Note_on_c, 2, 56, 0
4, 17584, Note_on_c, 2, 61, 64
4, 17636, Note_on_c, 2, 61, 0
4, 17644, Note_on_c, 2, 58, 64
4, 17696, Note_on_c, 2, 58, 0
4, 17764, Note_on_c, 2, 60, 64
4, 17816, Note_on_c, 2, 60, 0
4, 17884, Note_on_c, 2, 56, 64
4, 17936, Note_on_c, 2, 56, 0
4, 18004, Note_on_c, 2, 58, 64
4, 18056, Note_on_c, 2, 58, 0
4, 18304, Note_on_c, 2, 63, 64
4, 18416, Note_on_c, 2, 63, 0
4, 18424, Note_on_c, 2, 56, 64
4, 18476, Note_on_c, 2, 56, 0
4, 18484, Note_on_c, 2, 61, 64
4, 18536, Note_on_c, 2, 61, 0
4, 18544, Note_on_c, 2, 58, 64
4, 18596, Note_on_c, 2, 58, 0
4, 18604, Note_on_c, 2, 59, 64
4, 18656, Note_on_c, 2, 59, 0
4, 19264, Note_on_c, 2, 63, 64
4, 19316, Note_on_c, 2, 63, 0
4, 19324, Note_on_c, 2, 60, 64
4, 19376, Note_on_c, 2, 60, 0
4, 19384, Note_on_c, 2, 65, 64
4, 19436, Note_on_c, 2, 65, 0
4, 19444, Note_on_c, 2, 58, 64
4, 19496, Note_on_c, 2, 58, 0
4, 19504, Note_on_c, 2, 60, 64
4, 19530, Note_on_c, 2, 60, 0
4, 19534, Note_on_c, 2, 62, 64
4, 19560, Note_on_c, 2, 62, 0
4, 19564, Note_on_c, 2, 63, 64
4, 19616, Note_on_c, 2, 63, 0
4, 19624, Note_on_c, 2, 51, 64
4, 19676, Note_on_c, 2, 51, 0
4, 19684, Note_on_c, 2, 56, 64
4, 19736, Note_on_c, 2, 56, 0
4, 19744, Note_on_c, 2, 58, 64
4, 19770, Note_on_c, 2, 58, 0
4, 19774, Note_on_c, 2, 60, 64
4, 19800, Note_on_c, 2, 60, 0
4, 19804, Note_on_c, 2, 61, 64
4, 19950, Note_on_c, 2, 61, 0
4, 19954, Note_on_c, 2, 63, 64
4, 19980, Note_on_c, 2, 63, 0
4, 19984, Note_on_c, 2, 60, 64
4, 20010, Note_on_c, 2, 60, 0
4, 20014, Note_on_c, 2, 61, 64
4, 20040, Note_on_c, 2, 61, 0
4, 20044, Note_on_c, 2, 58, 64
4, 20070, Note_on_c, 2, 58, 0
4, 20074, Note_on_c, 2, 60, 64
4, 20100, Note_on_c, 2, 60, 0
4, 20104, Note_on_c, 2, 61, 64
4, 20130, Note_on_c, 2, 61, 0
4, 20134, Note_on_c, 2, 63, 64
4, 20160, Note_on_c, 2, 63, 0
4, 20164, Note_on_c, 2, 60, 64
4, 20269, Note_on_c, 2, 60, 0
4, 20284, Note_on_c, 2, 58, 64
4, 20509, Note_on_c, 2, 58, 0
4, 20524, Note_on_c, 2, 56, 64
4, 20550, Note_on_c, 2, 56, 0
4, 20554, Note_on_c, 2, 66, 64
4, 20580, Note_on_c, 2, 66, 0
4, 20584, Note_on_c, 2, 65, 64
4, 20610, Note_on_c, 2, 65, 0
4, 20614, Note_on_c, 2, 63, 64
4, 20640, Note_on_c, 2, 63, 0
4, 20644, Note_on_c, 2, 62, 64
4, 20696, Note_on_c, 2, 62, 0
4, 20704, Note_on_c, 2, 63, 64
4, 20756, Note_on_c, 2, 63, 0
4, 20764, Note_on_c, 2, 64, 64
4, 20816, Note_on_c, 2, 64, 0
4, 20824, Note_on_c, 2, 61, 64
4, 20876, Note_on_c, 2, 61, 0
4, 20884, Note_on_c, 2, 63, 64
4, 20936, Note_on_c, 2, 63, 0
4, 20944, Note_on_c, 2, 64, 64
4, 20996, Note_on_c, 2, 64, 0
4, 21004, Note_on_c, 2, 66, 64
4, 21056, Note_on_c, 2, 66, 0
4, 21064, Note_on_c, 2, 63, 64
4, 21116, Note_on_c, 2, 63, 0
4, 21124, Note_on_c, 2, 64, 64
4, 21229, Note_on_c, 2, 64, 0
4, 21364, Note_on_c, 2, 69, 64
4, 21469, Note_on_c, 2, 69, 0
4, 21604, Note_on_c, 2, 73, 64
4, 21709, Note_on_c, 2, 73, 0
4, 21844, Note_on_c, 2, 70, 64
4, 21949, Note_on_c, 2, 70, 0
4, 22504, Note_on_c, 2, 56, 64
4, 22556, Note_on_c, 2, 56, 0
4, 22564, Note_on_c, 2, 56, 64
4, 22669, Note_on_c, 2, 56, 0
4, 22684, Note_on_c, 2, 55, 64
4, 22736, Note_on_c, 2, 55, 0
4, 22744, Note_on_c, 2, 58, 64
4, 22796, Note_on_c, 2, 58, 0
4, 22804, Note_on_c, 2, 56, 64
4, 22856, Note_on_c, 2, 56, 0
4, 22864, Note_on_c, 2, 61, 64
4, 22916, Note_on_c, 2, 61, 0
4, 22924, Note_on_c, 2, 60, 64
4, 22976, Note_on_c, 2, 60, 0
4, 22984, Note_on_c, 2, 65, 64
4, 23036, Note_on_c, 2, 65, 0
4, 23044, Note_on_c, 2, 58, 64
4, 23096, Note_on_c, 2, 58, 0
4, 23104, Note_on_c, 2, 60, 64
4, 23130, Note_on_c, 2, 60, 0
4, 23134, Note_on_c, 2, 61, 64
4, 23160, Note_on_c, 2, 61, 0
4, 23164, Note_on_c, 2, 63, 64
4, 23216, Note_on_c, 2, 63, 0
4, 23224, Note_on_c, 2, 51, 64
4, 23276, Note_on_c, 2, 51, 0
4, 23284, Note_on_c, 2, 56, 64
4, 23336, Note_on_c, 2, 56, 0
4, 23344, Note_on_c, 2, 58, 64
4, 23370, Note_on_c, 2, 58, 0
4, 23374, Note_on_c, 2, 60, 64
4, 23400, Note_on_c, 2, 60, 0
4, 23404, Note_on_c, 2, 61, 64
4, 23550, Note_on_c, 2, 61, 0
4, 23554, Note_on_c, 2, 63, 64
4, 23580, Note_on_c, 2, 63, 0
4, 23584, Note_on_c, 2, 60, 64
4, 23610, Note_on_c, 2, 60, 0
4, 23614, Note_on_c, 2, 61, 64
4, 23640, Note_on_c, 2, 61, 0
4, 23644, Note_on_c, 2, 58, 64
4, 23670, Note_on_c, 2, 58, 0
4, 23674, Note_on_c, 2, 60, 64
4, 23700, Note_on_c, 2, 60, 0
4, 23704, Note_on_c, 2, 61, 64
4, 23730, Note_on_c, 2, 61, 0
4, 23734, Note_on_c, 2, 63, 64
4, 23760, Note_on_c, 2, 63, 0
4, 23764, Note_on_c, 2, 60, 64
4, 23989, Note_on_c, 2, 60, 0
4, 23989, End_track
5, 0, Start_track
5, 0, MIDI_port, 0
5, 0, Title_t, "from WTC II"
5, 0, Program_c, 3, 6
5, 3424, Note_on_c, 3, 56, 64
5, 3476, Note_on_c, 3, 56, 0
5, 3484, Note_on_c, 3, 55, 64
5, 3536, Note_on_c, 3, 55, 0
5, 3544, Note_on_c, 3, 60, 64
5, 3596, Note_on_c, 3, 60, 0
5, 3604, Note_on_c, 3, 53, 64
5, 3656, Note_on_c, 3, 53, 0
5, 3664, Note_on_c, 3, 55, 64
5, 3690, Note_on_c, 3, 55, 0
5, 3694, Note_on_c, 3, 56, 64
5, 3720, Note_on_c, 3, 56, 0
5, 3724, Note_on_c, 3, 58, 64
5, 3776, Note_on_c, 3, 58, 0
5, 3784, Note_on_c, 3, 46, 64
5, 3836, Note_on_c, 3, 46, 0
5, 3844, Note_on_c, 3, 51, 64
5, 3896, Note_on_c, 3, 51, 0
5, 3904, Note_on_c, 3, 53, 64
5, 3930, Note_on_c, 3, 53, 0
5, 3934, Note_on_c, 3, 55, 64
5, 3960, Note_on_c, 3, 55, 0
5, 3964, Note_on_c, 3, 56, 64
5, 4110, Note_on_c, 3, 56, 0
5, 4114, Note_on_c, 3, 58, 64
5, 4140, Note_on_c, 3, 58, 0
5, 4144, Note_on_c, 3, 55, 64
5, 4170, Note_on_c, 3, 55, 0
5, 4174, Note_on_c, 3, 56, 64
5, 4200, Note_on_c, 3, 56, 0
5, 4204, Note_on_c, 3, 53, 64
5, 4230, Note_on_c, 3, 53, 0
5, 4234, Note_on_c, 3, 55, 64
5, 4260, Note_on_c, 3, 55, 0
5, 4264, Note_on_c, 3, 56, 64
5, 4290, Note_on_c, 3, 56, 0
5, 4294, Note_on_c, 3, 58, 64
5, 4320, Note_on_c, 3, 58, 0
5, 4324, Note_on_c, 3, 51, 64
5, 4350, Note_on_c, 3, 51, 0
5, 4354, Note_on_c, 3, 50, 64
5, 4380, Note_on_c, 3, 50, 0
5, 4384, Note_on_c, 3, 51, 64
5, 4410, Note_on_c, 3, 51, 0
5, 4414, Note_on_c, 3, 53, 64
5, 4440, Note_on_c, 3, 53, 0
5, 4444, Note_on_c, 3, 55, 64
5, 4470, Note_on_c, 3, 55, 0
5, 4474, Note_on_c, 3, 53, 64
5, 4500, Note_on_c, 3, 53, 0
5, 4504, Note_on_c, 3, 51, 64
5, 4530, Note_on_c, 3, 51, 0
5, 4534, Note_on_c, 3, 55, 64
5, 4560, Note_on_c, 3, 55, 0
5, 4564, Note_on_c, 3, 53, 64
5, 4590, Note_on_c, 3, 53, 0
5, 4594, Note_on_c, 3, 51, 64
5, 4620, Note_on_c, 3, 51, 0
5, 4624, Note_on_c, 3, 53, 64
5, 4650, Note_on_c, 3, 53, 0
5, 4654, Note_on_c, 3, 55, 64
5, 4680, Note_on_c, 3, 55, 0
5, 4684, Note_on_c, 3, 56, 64
5, 4710, Note_on_c, 3, 56, 0
5, 4714, Note_on_c, 3, 55, 64
5, 4740, Note_on_c, 3, 55, 0
5, 4744, Note_on_c, 3, 53, 64
5, 4770, Note_on_c, 3, 53, 0
5, 4774, Note_on_c, 3, 56, 64
5, 4800, Note_on_c, 3, 56, 0
5, 4804, Note_on_c, 3, 55, 64
5, 4830, Note_on_c, 3, 55, 0
5, 4834, Note_on_c, 3, 53, 64
5, 4860, Note_on_c, 3, 53, 0
5, 4864, Note_on_c, 3, 55, 64
5, 4890, Note_on_c, 3, 55, 0
5, 4894, Note_on_c, 3, 56, 64
5, 4920, Note_on_c, 3, 56, 0
5, 4924, Note_on_c, 3, 58, 64
5, 4950, Note_on_c, 3, 58, 0
5, 4954, Note_on_c, 3, 56, 64
5, 4980, Note_on_c, 3, 56, 0
5, 4984, Note_on_c, 3, 55, 64
5, 5010, Note_on_c, 3, 55, 0
5, 5014, Note_on_c, 3, 58, 64
5, 5040, Note_on_c, 3, 58, 0
5, 5044, Note_on_c, 3, 56, 64
5, 5070, Note_on_c, 3, 56, 0
5, 5074, Note_on_c, 3, 55, 64
5, 5100, Note_on_c, 3, 55, 0
5, 5104, Note_on_c, 3, 56, 64
5, 5130, Note_on_c, 3, 56, 0
5, 5134, Note_on_c, 3, 58, 64
5, 5160, Note_on_c, 3, 58, 0
5, 5164, Note_on_c, 3, 60, 64
5, 5190, Note_on_c, 3, 60, 0
5, 5194, Note_on_c, 3, 58, 64
5, 5220, Note_on_c, 3, 58, 0
5, 5224, Note_on_c, 3, 56, 64
5, 5250, Note_on_c, 3, 56, 0
5, 5254, Note_on_c, 3, 60, 64
5, 5280, Note_on_c, 3, 60, 0
5, 5284, Note_on_c, 3, 58, 64
5, 5310, Note_on_c, 3, 58, 0
5, 5314, Note_on_c, 3, 56, 64
5, 5340, Note_on_c, 3, 56, 0
5, 5344, Note_on_c, 3, 58, 64
5, 5370, Note_on_c, 3, 58, 0
5, 5374, Note_on_c, 3, 60, 64
5, 5400, Note_on_c, 3, 60, 0
5, 5404, Note_on_c, 3, 61, 64
5, 5430, Note_on_c, 3, 61, 0
5, 5434, Note_on_c, 3, 60, 64
5, 5460, Note_on_c, 3, 60, 0
5, 5464, Note_on_c, 3, 58, 64
5, 5490, Note_on_c, 3, 58, 0
5, 5494, Note_on_c, 3, 61, 64
5, 5520, Note_on_c, 3, 61, 0
5, 5524, Note_on_c, 3, 60, 64
5, 5550, Note_on_c, 3, 60, 0
5, 5554, Note_on_c, 3, 58, 64
5, 5580, Note_on_c, 3, 58, 0
5, 5584, Note_on_c, 3, 60, 64
5, 5610, Note_on_c, 3, 60, 0
5, 5614, Note_on_c, 3, 61, 64
5, 5640, Note_on_c, 3, 61, 0
5, 5644, Note_on_c, 3, 63, 64
5, 5670, Note_on_c, 3, 63, 0
5, 5674, Note_on_c, 3, 61, 64
5, 5700, Note_on_c, 3, 61, 0
5, 5704, Note_on_c, 3, 60, 64
5, 5730, Note_on_c, 3, 60, 0
5, 5734, Note_on_c, 3, 63, 64
5, 5760, Note_on_c, 3, 63, 0
5, 5764, Note_on_c, 3, 61, 64
5, 5790, Note_on_c, 3, 61, 0
5, 5794, Note_on_c, 3, 60, 64
5, 5820, Note_on_c, 3, 60, 0
5, 5824, Note_on_c, 3, 61, 64
5, 5850, Note_on_c, 3, 61, 0
5, 5854, Note_on_c, 3, 63, 64
5, 5880, Note_on_c, 3, 63, 0
5, 5884, Note_on_c, 3, 65, 64
5, 5910, Note_on_c, 3, 65, 0
5, 5914, Note_on_c, 3, 63, 64
5, 5940, Note_on_c, 3, 63, 0
5, 5944, Note_on_c, 3, 61, 64
5, 5970, Note_on_c, 3, 61, 0
5, 5974, Note_on_c, 3, 65, 64
5, 6000, Note_on_c, 3, 65, 0
5, 6004, Note_on_c, 3, 63, 64
5, 6056, Note_on_c, 3, 63, 0
5, 6064, Note_on_c, 3, 51, 64
5, 6116, Note_on_c, 3, 51, 0
5, 6124, Note_on_c, 3, 48, 64
5, 6176, Note_on_c, 3, 48, 0
5, 6184, Note_on_c, 3, 53, 64
5, 6236, Note_on_c, 3, 53, 0
5, 6244, Note_on_c, 3, 46, 64
5, 6296, Note_on_c, 3, 46, 0
5, 6304, Note_on_c, 3, 48, 64
5, 6330, Note_on_c, 3, 48, 0
5, 6334, Note_on_c, 3, 50, 64
5, 6360, Note_on_c, 3, 50, 0
5, 6364, Note_on_c, 3, 51, 64
5, 6416, Note_on_c, 3, 51, 0
5, 6424, Note_on_c, 3, 39, 64
5, 6476, Note_on_c, 3, 39, 0
5, 6484, Note_on_c, 3, 44, 64
5, 6536, Note_on_c, 3, 44, 0
5, 6544, Note_on_c, 3, 46, 64
5, 6570, Note_on_c, 3, 46, 0
5, 6574, Note_on_c, 3, 48, 64
5, 6600, Note_on_c, 3, 48, 0
5, 6604, Note_on_c, 3, 49, 64
5, 6750, Note_on_c, 3, 49, 0
5, 6754, Note_on_c, 3, 51, 64
5, 6780, Note_on_c, 3, 51, 0
5, 6784, Note_on_c, 3, 48, 64
5, 6810, Note_on_c, 3, 48, 0
5, 6814, Note_on_c, 3, 49, 64
5, 6840, Note_on_c, 3, 49, 0
5, 6844, Note_on_c, 3, 46, 64
5, 6870, Note_on_c, 3, 46, 0
5, 6874, Note_on_c, 3, 48, 64
5, 6900, Note_on_c, 3, 48, 0
5, 6904, Note_on_c, 3, 49, 64
5, 6930, Note_on_c, 3, 49, 0
5, 6934, Note_on_c, 3, 51, 64
5, 6960, Note_on_c, 3, 51, 0
5, 6964, Note_on_c, 3, 44, 64
5, 7016, Note_on_c, 3, 44, 0
5, 7024, Note_on_c, 3, 48, 64
5, 7076, Note_on_c, 3, 48, 0
5, 7084, Note_on_c, 3, 49, 64
5, 7136, Note_on_c, 3, 49, 0
5, 7144, Note_on_c, 3, 44, 64
5, 7196, Note_on_c, 3, 44, 0
5, 7204, Note_on_c, 3, 46, 64
5, 7230, Note_on_c, 3, 46, 0
5, 7234, Note_on_c, 3, 48, 64
5, 7260, Note_on_c, 3, 48, 0
5, 7264, Note_on_c, 3, 44, 64
5, 7290, Note_on_c, 3, 44, 0
5, 7294, Note_on_c, 3, 46, 64
5, 7320, Note_on_c, 3, 46, 0
5, 7324, Note_on_c, 3, 43, 64
5, 7350, Note_on_c, 3, 43, 0
5, 7354, Note_on_c, 3, 44, 64
5, 7380, Note_on_c, 3, 44, 0
5, 7384, Note_on_c, 3, 46, 64
5, 7410, Note_on_c, 3, 46, 0
5, 7414, Note_on_c, 3, 48, 64
5, 7440, Note_on_c, 3, 48, 0
5, 7444, Note_on_c, 3, 41, 64
5, 7470, Note_on_c, 3, 41, 0
5, 7474, Note_on_c, 3, 48, 64
5, 7500, Note_on_c, 3, 48, 0
5, 7504, Note_on_c, 3, 53, 64
5, 7590, Note_on_c, 3, 53, 0
5, 7594, Note_on_c, 3, 51, 64
5, 7620, Note_on_c, 3, 51, 0
5, 7624, Note_on_c, 3, 49, 64
5, 7650, Note_on_c, 3, 49, 0
5, 7654, Note_on_c, 3, 48, 64
5, 7680, Note_on_c, 3, 48, 0
5, 7684, Note_on_c, 3, 49, 64
5, 7710, Note_on_c, 3, 49, 0
5, 7714, Note_on_c, 3, 60, 64
5, 7740, Note_on_c, 3, 60, 0
5, 7744, Note_on_c, 3, 58, 64
5, 7770, Note_on_c, 3, 58, 0
5, 7774, Note_on_c, 3, 56, 64
5, 7800, Note_on_c, 3, 56, 0
5, 7804, Note_on_c, 3, 55, 64
5, 7830, Note_on_c, 3, 55, 0
5, 7834, Note_on_c, 3, 53, 64
5, 7860, Note_on_c, 3, 53, 0
5, 7864, Note_on_c, 3, 51, 64
5, 7890, Note_on_c, 3, 51, 0
5, 7894, Note_on_c, 3, 49, 64
5, 7920, Note_on_c, 3, 49, 0
5, 7924, Note_on_c, 3, 48, 64
5, 7950, Note_on_c, 3, 48, 0
5, 7954, Note_on_c, 3, 58, 64
5, 7980, Note_on_c, 3, 58, 0
5, 7984, Note_on_c, 3, 56, 64
5, 8010, Note_on_c, 3, 56, 0
5, 8014, Note_on_c, 3, 55, 64
5, 8040, Note_on_c, 3, 55, 0
5, 8044, Note_on_c, 3, 53, 64
5, 8070, Note_on_c, 3, 53, 0
5, 8074, Note_on_c, 3, 51, 64
5, 8100, Note_on_c, 3, 51, 0
5, 8104, Note_on_c, 3, 50, 64
5, 8130, Note_on_c, 3, 50, 0
5, 8134, Note_on_c, 3, 48, 64
5, 8160, Note_on_c, 3, 48, 0
5, 8164, Note_on_c, 3, 46, 64
5, 8216, Note_on_c, 3, 46, 0
5, 8224, Note_on_c, 3, 51, 64
5, 8329, Note_on_c, 3, 51, 0
5, 8344, Note_on_c, 3, 49, 64
5, 8430, Note_on_c, 3, 49, 0
5, 8434, Note_on_c, 3, 48, 64
5, 8460, Note_on_c, 3, 48, 0
5, 8464, Note_on_c, 3, 49, 64
5, 8490, Note_on_c, 3, 49, 0
5, 8494, Note_on_c, 3, 51, 64
5, 8520, Note_on_c, 3, 51, 0
5, 8524, Note_on_c, 3, 53, 64
5, 8550, Note_on_c, 3, 53, 0
5, 8554, Note_on_c, 3, 51, 64
5, 8580, Note_on_c, 3, 51, 0
5, 8584, Note_on_c, 3, 49, 64
5, 8610, Note_on_c, 3, 49, 0
5, 8614, Note_on_c, 3, 48, 64
5, 8640, Note_on_c, 3, 48, 0
5, 8644, Note_on_c, 3, 49, 64
5, 8670, Note_on_c, 3, 49, 0
5, 8674, Note_on_c, 3, 53, 64
5, 8700, Note_on_c, 3, 53, 0
5, 8704, Note_on_c, 3, 51, 64
5, 8730, Note_on_c, 3, 51, 0
5, 8734, Note_on_c, 3, 49, 64
5, 8760, Note_on_c, 3, 49, 0
5, 8764, Note_on_c, 3, 48, 64
5, 8790, Note_on_c, 3, 48, 0
5, 8794, Note_on_c, 3, 49, 64
5, 8820, Note_on_c, 3, 49, 0
5, 8824, Note_on_c, 3, 51, 64
5, 8910, Note_on_c, 3, 51, 0
5, 8914, Note_on_c, 3, 51, 64
5, 8940, Note_on_c, 3, 51, 0
5, 8944, Note_on_c, 3, 49, 64
5, 8970, Note_on_c, 3, 49, 0
5, 8974, Note_on_c, 3, 48, 64
5, 9000, Note_on_c, 3, 48, 0
5, 9004, Note_on_c, 3, 46, 64
5, 9030, Note_on_c, 3, 46, 0
5, 9034, Note_on_c, 3, 47, 64
5, 9060, Note_on_c, 3, 47, 0
5, 9064, Note_on_c, 3, 44, 64
5, 9090, Note_on_c, 3, 44, 0
5, 9094, Note_on_c, 3, 46, 64
5, 9120, Note_on_c, 3, 46, 0
5, 9124, Note_on_c, 3, 43, 64
5, 9176, Note_on_c, 3, 43, 0
5, 9184, Note_on_c, 3, 44, 64
5, 9236, Note_on_c, 3, 44, 0
5, 9244, Note_on_c, 3, 49, 64
5, 9296, Note_on_c, 3, 49, 0
5, 9304, Note_on_c, 3, 51, 64
5, 9356, Note_on_c, 3, 51, 0
5, 9364, Note_on_c, 3, 56, 64
5, 9416, Note_on_c, 3, 56, 0
5, 9424, Note_on_c, 3, 58, 64
5, 9476, Note_on_c, 3, 58, 0
5, 9484, Note_on_c, 3, 54, 64
5, 9536, Note_on_c, 3, 54, 0
5, 9544, Note_on_c, 3, 56, 64
5, 9596, Note_on_c, 3, 56, 0
5, 9604, Note_on_c, 3, 49, 64
5, 9656, Note_on_c, 3, 49, 0
5, 9664, Note_on_c, 3, 54, 64
5, 9716, Note_on_c, 3, 54, 0
5, 9724, Note_on_c, 3, 51, 64
5, 9776, Note_on_c, 3, 51, 0
5, 9784, Note_on_c, 3, 53, 64
5, 9836, Note_on_c, 3, 53, 0
5, 9844, Note_on_c, 3, 58, 64
5, 9896, Note_on_c, 3, 58, 0
5, 9904, Note_on_c, 3, 60, 64
5, 9956, Note_on_c, 3, 60, 0
5, 9964, Note_on_c, 3, 56, 64
5, 10016, Note_on_c, 3, 56, 0
5, 10024, Note_on_c, 3, 58, 64
5, 10076, Note_on_c, 3, 58, 0
5, 10084, Note_on_c, 3, 51, 64
5, 10189, Note_on_c, 3, 51, 0
5, 10204, Note_on_c, 3, 56, 64
5, 10309, Note_on_c, 3, 56, 0
5, 10324, Note_on_c, 3, 55, 64
5, 10429, Note_on_c, 3, 55, 0
5, 10444, Note_on_c, 3, 54, 64
5, 10549, Note_on_c, 3, 54, 0
5, 10564, Note_on_c, 3, 53, 64
5, 10669, Note_on_c, 3, 53, 0
5, 10684, Note_on_c, 3, 52, 64
5, 10789, Note_on_c, 3, 52, 0
5, 10804, Note_on_c, 3, 51, 64
5, 10856, Note_on_c, 3, 51, 0
5, 10864, Note_on_c, 3, 53, 64
5, 10916, Note_on_c, 3, 53, 0
5, 10924, Note_on_c, 3, 49, 64
5, 10976, Note_on_c, 3, 49, 0
5, 10984, Note_on_c, 3, 51, 64
5, 11036, Note_on_c, 3, 51, 0
5, 11044, Note_on_c, 3, 44, 64
5, 11070, Note_on_c, 3, 44, 0
5, 11074, Note_on_c, 3, 48, 64
5, 11100, Note_on_c, 3, 48, 0
5, 11104, Note_on_c, 3, 46, 64
5, 11130, Note_on_c, 3, 46, 0
5, 11134, Note_on_c, 3, 44, 64
5, 11160, Note_on_c, 3, 44, 0
5, 11164, Note_on_c, 3, 49, 64
5, 11310, Note_on_c, 3, 49, 0
5, 11314, Note_on_c, 3, 61, 64
5, 11340, Note_on_c, 3, 61, 0
5, 11344, Note_on_c, 3, 60, 64
5, 11370, Note_on_c, 3, 60, 0
5, 11374, Note_on_c, 3, 58, 64
5, 11400, Note_on_c, 3, 58, 0
5, 11404, Note_on_c, 3, 57, 64
5, 11430, Note_on_c, 3, 57, 0
5, 11434, Note_on_c, 3, 58, 64
5, 11460, Note_on_c, 3, 58, 0
5, 11464, Note_on_c, 3, 60, 64
5, 11490, Note_on_c, 3, 60, 0
5, 11494, Note_on_c, 3, 57, 64
5, 11520, Note_on_c, 3, 57, 0
5, 11524, Note_on_c, 3, 58, 64
5, 11550, Note_on_c, 3, 58, 0
5, 11554, Note_on_c, 3, 60, 64
5, 11580, Note_on_c, 3, 60, 0
5, 11584, Note_on_c, 3, 58, 64
5, 11610, Note_on_c, 3, 58, 0
5, 11614, Note_on_c, 3, 56, 64
5, 11640, Note_on_c, 3, 56, 0
5, 11644, Note_on_c, 3, 55, 64
5, 11670, Note_on_c, 3, 55, 0
5, 11674, Note_on_c, 3, 56, 64
5, 11700, Note_on_c, 3, 56, 0
5, 11704, Note_on_c, 3, 58, 64
5, 11730, Note_on_c, 3, 58, 0
5, 11734, Note_on_c, 3, 55, 64
5, 11760, Note_on_c, 3, 55, 0
5, 11764, Note_on_c, 3, 56, 64
5, 11816, Note_on_c, 3, 56, 0
5, 11824, Note_on_c, 3, 61, 64
5, 11876, Note_on_c, 3, 61, 0
5, 11884, Note_on_c, 3, 58, 64
5, 11936, Note_on_c, 3, 58, 0
5, 11944, Note_on_c, 3, 60, 64
5, 11996, Note_on_c, 3, 60, 0
5, 12004, Note_on_c, 3, 53, 64
5, 12109, Note_on_c, 3, 53, 0
5, 12184, Note_on_c, 3, 58, 64
5, 12236, Note_on_c, 3, 58, 0
5, 12244, Note_on_c, 3, 51, 64
5, 12349, Note_on_c, 3, 51, 0
5, 12424, Note_on_c, 3, 56, 64
5, 12476, Note_on_c, 3, 56, 0
5, 12484, Note_on_c, 3, 50, 64
5, 12536, Note_on_c, 3, 50, 0
5, 12544, Note_on_c, 3, 53, 64
5, 12596, Note_on_c, 3, 53, 0
5, 12604, Note_on_c, 3, 55, 64
5, 12656, Note_on_c, 3, 55, 0
5, 12664, Note_on_c, 3, 43, 64
5, 12716, Note_on_c, 3, 43, 0
5, 12724, Note_on_c, 3, 48, 64
5, 12776, Note_on_c, 3, 48, 0
5, 12784, Note_on_c, 3, 55, 64
5, 12836, Note_on_c, 3, 55, 0
5, 12844, Note_on_c, 3, 60, 64
5, 13069, Note_on_c, 3, 60, 0
5, 13084, Note_on_c, 3, 59, 64
5, 13136, Note_on_c, 3, 59, 0
5, 13144, Note_on_c, 3, 58, 64
5, 13256, Note_on_c, 3, 58, 0
5, 13264, Note_on_c, 3, 67, 64
5, 13290, Note_on_c, 3, 67, 0
5, 13294, Note_on_c, 3, 65, 64
5, 13320, Note_on_c, 3, 65, 0
5, 13324, Note_on_c, 3, 64, 64
5, 13350, Note_on_c, 3, 64, 0
5, 13354, Note_on_c, 3, 62, 64
5, 13380, Note_on_c, 3, 62, 0
5, 13384, Note_on_c, 3, 60, 64
5, 13410, Note_on_c, 3, 60, 0
5, 13414, Note_on_c, 3, 58, 64
5, 13440, Note_on_c, 3, 58, 0
5, 13444, Note_on_c, 3, 56, 64
5, 13549, Note_on_c, 3, 56, 0
5, 13624, Note_on_c, 3, 56, 64
5, 13676, Note_on_c, 3, 56, 0
5, 13684, Note_on_c, 3, 58, 64
5, 13736, Note_on_c, 3, 58, 0
5, 13744, Note_on_c, 3, 61, 64
5, 13796, Note_on_c, 3, 61, 0
5, 13804, Note_on_c, 3, 55, 64
5, 13856, Note_on_c, 3, 55, 0
5, 13864, Note_on_c, 3, 60, 64
5, 13916, Note_on_c, 3, 60, 0
5, 13924, Note_on_c, 3, 53, 64
5, 14029, Note_on_c, 3, 53, 0
5, 14194, Note_on_c, 3, 45, 64
5, 14220, Note_on_c, 3, 45, 0
5, 14224, Note_on_c, 3, 46, 64
5, 14250, Note_on_c, 3, 46, 0
5, 14254, Note_on_c, 3, 48, 64
5, 14280, Note_on_c, 3, 48, 0
5, 14284, Note_on_c, 3, 49, 64
5, 14310, Note_on_c, 3, 49, 0
5, 14314, Note_on_c, 3, 48, 64
5, 14340, Note_on_c, 3, 48, 0
5, 14344, Note_on_c, 3, 46, 64
5, 14370, Note_on_c, 3, 46, 0
5, 14374, Note_on_c, 3, 49, 64
5, 14400, Note_on_c, 3, 49, 0
5, 14404, Note_on_c, 3, 48, 64
5, 14430, Note_on_c, 3, 48, 0
5, 14434, Note_on_c, 3, 46, 64
5, 14460, Note_on_c, 3, 46, 0
5, 14464, Note_on_c, 3, 48, 64
5, 14490, Note_on_c, 3, 48, 0
5, 14494, Note_on_c, 3, 49, 64
5, 14520, Note_on_c, 3, 49, 0
5, 14524, Note_on_c, 3, 51, 64
5, 14550, Note_on_c, 3, 51, 0
5, 14554, Note_on_c, 3, 49, 64
5, 14580, Note_on_c, 3, 49, 0
5, 14584, Note_on_c, 3, 48, 64
5, 14610, Note_on_c, 3, 48, 0
5, 14614, Note_on_c, 3, 51, 64
5, 14640, Note_on_c, 3, 51, 0
5, 14644, Note_on_c, 3, 50, 64
5, 14670, Note_on_c, 3, 50, 0
5, 14674, Note_on_c, 3, 48, 64
5, 14700, Note_on_c, 3, 48, 0
5, 14704, Note_on_c, 3, 50, 64
5, 14730, Note_on_c, 3, 50, 0
5, 14734, Note_on_c, 3, 51, 64
5, 14760, Note_on_c, 3, 51, 0
5, 14764, Note_on_c, 3, 53, 64
5, 14790, Note_on_c, 3, 53, 0
5, 14794, Note_on_c, 3, 51, 64
5, 14820, Note_on_c, 3, 51, 0
5, 14824, Note_on_c, 3, 50, 64
5, 14850, Note_on_c, 3, 50, 0
5, 14854, Note_on_c, 3, 53, 64
5, 14880, Note_on_c, 3, 53, 0
5, 14884, Note_on_c, 3, 51, 64
5, 14989, Note_on_c, 3, 51, 0
5, 17464, Note_on_c, 3, 56, 64
5, 17516, Note_on_c, 3, 56, 0
5, 17524, Note_on_c, 3, 53, 64
5, 17576, Note_on_c, 3, 53, 0
5, 17584, Note_on_c, 3, 58, 64
5, 17636, Note_on_c, 3, 58, 0
5, 17644, Note_on_c, 3, 51, 64
5, 17696, Note_on_c, 3, 51, 0
5, 17704, Note_on_c, 3, 53, 64
5, 17730, Note_on_c, 3, 53, 0
5, 17734, Note_on_c, 3, 54, 64
5, 17760, Note_on_c, 3, 54, 0
5, 17764, Note_on_c, 3, 56, 64
5, 17816, Note_on_c, 3, 56, 0
5, 17824, Note_on_c, 3, 44, 64
5, 17876, Note_on_c, 3, 44, 0
5, 17884, Note_on_c, 3, 49, 64
5, 17936, Note_on_c, 3, 49, 0
5, 17944, Note_on_c, 3, 51, 64
5, 17970, Note_on_c, 3, 51, 0
5, 17974, Note_on_c, 3, 53, 64
5, 18000, Note_on_c, 3, 53, 0
5, 18004, Note_on_c, 3, 54, 64
5, 18150, Note_on_c, 3, 54, 0
5, 18154, Note_on_c, 3, 56, 64
5, 18180, Note_on_c, 3, 56, 0
5, 18184, Note_on_c, 3, 52, 64
5, 18210, Note_on_c, 3, 52, 0
5, 18214, Note_on_c, 3, 54, 64
5, 18240, Note_on_c, 3, 54, 0
5, 18244, Note_on_c, 3, 51, 64
5, 18270, Note_on_c, 3, 51, 0
5, 18274, Note_on_c, 3, 53, 64
5, 18300, Note_on_c, 3, 53, 0
5, 18304, Note_on_c, 3, 54, 64
5, 18330, Note_on_c, 3, 54, 0
5, 18334, Note_on_c, 3, 56, 64
5, 18360, Note_on_c, 3, 56, 0
5, 18364, Note_on_c, 3, 49, 64
5, 18390, Note_on_c, 3, 49, 0
5, 18394, Note_on_c, 3, 51, 64
5, 18420, Note_on_c, 3, 51, 0
5, 18424, Note_on_c, 3, 47, 64
5, 18450, Note_on_c, 3, 47, 0
5, 18454, Note_on_c, 3, 49, 64
5, 18480, Note_on_c, 3, 49, 0
5, 18484, Note_on_c, 3, 46, 64
5, 18510, Note_on_c, 3, 46, 0
5, 18514, Note_on_c, 3, 47, 64
5, 18540, Note_on_c, 3, 47, 0
5, 18544, Note_on_c, 3, 49, 64
5, 18570, Note_on_c, 3, 49, 0
5, 18574, Note_on_c, 3, 51, 64
5, 18600, Note_on_c, 3, 51, 0
5, 18604, Note_on_c, 3, 44, 64
5, 18630, Note_on_c, 3, 44, 0
5, 18634, Note_on_c, 3, 46, 64
5, 18660, Note_on_c, 3, 46, 0
5, 18664, Note_on_c, 3, 42, 64
5, 18690, Note_on_c, 3, 42, 0
5, 18694, Note_on_c, 3, 44, 64
5, 18720, Note_on_c, 3, 44, 0
5, 18724, Note_on_c, 3, 41, 64
5, 18750, Note_on_c, 3, 41, 0
5, 18754, Note_on_c, 3, 43, 64
5, 18780, Note_on_c, 3, 43, 0
5, 18784, Note_on_c, 3, 44, 64
5, 18810, Note_on_c, 3, 44, 0
5, 18814, Note_on_c, 3, 46, 64
5, 18840, Note_on_c, 3, 46, 0
5, 18844, Note_on_c, 3, 39, 64
5, 18896, Note_on_c, 3, 39, 0
5, 19984, Note_on_c, 3, 56, 64
5, 20036, Note_on_c, 3, 56, 0
5, 20044, Note_on_c, 3, 55, 64
5, 20096, Note_on_c, 3, 55, 0
5, 20104, Note_on_c, 3, 60, 64
5, 20156, Note_on_c, 3, 60, 0
5, 20164, Note_on_c, 3, 53, 64
5, 20216, Note_on_c, 3, 53, 0
5, 20224, Note_on_c, 3, 55, 64
5, 20250, Note_on_c, 3, 55, 0
5, 20254, Note_on_c, 3, 56, 64
5, 20280, Note_on_c, 3, 56, 0
5, 20284, Note_on_c, 3, 58, 64
5, 20336, Note_on_c, 3, 58, 0
5, 20344, Note_on_c, 3, 46, 64
5, 20396, Note_on_c, 3, 46, 0
5, 20404, Note_on_c, 3, 51, 64
5, 20456, Note_on_c, 3, 51, 0
5, 20464, Note_on_c, 3, 53, 64
5, 20490, Note_on_c, 3, 53, 0
5, 20494, Note_on_c, 3, 55, 64
5, 20520, Note_on_c, 3, 55, 0
5, 20524, Note_on_c, 3, 56, 64
5, 20670, Note_on_c, 3, 56, 0
5, 20674, Note_on_c, 3, 58, 64
5, 20700, Note_on_c, 3, 58, 0
5, 20704, Note_on_c, 3, 54, 64
5, 20730, Note_on_c, 3, 54, 0
5, 20734, Note_on_c, 3, 56, 64
5, 20760, Note_on_c, 3, 56, 0
5, 20764, Note_on_c, 3, 52, 64
5, 20790, Note_on_c, 3, 52, 0
5, 20794, Note_on_c, 3, 54, 64
5, 20820, Note_on_c, 3, 54, 0
5, 20824, Note_on_c, 3, 56, 64
5, 20850, Note_on_c, 3, 56, 0
5, 20854, Note_on_c, 3, 57, 64
5, 20880, Note_on_c, 3, 57, 0
5, 20884, Note_on_c, 3, 54, 64
5, 20910, Note_on_c, 3, 54, 0
5, 20914, Note_on_c, 3, 56, 64
5, 20940, Note_on_c, 3, 56, 0
5, 20944, Note_on_c, 3, 52, 64
5, 20970, Note_on_c, 3, 52, 0
5, 20974, Note_on_c, 3, 54, 64
5, 21000, Note_on_c, 3, 54, 0
5, 21004, Note_on_c, 3, 51, 64
5, 21030, Note_on_c, 3, 51, 0
5, 21034, Note_on_c, 3, 52, 64
5, 21060, Note_on_c, 3, 52, 0
5, 21064, Note_on_c, 3, 54, 64
5, 21090, Note_on_c, 3, 54, 0
5, 21094, Note_on_c, 3, 56, 64
5, 21120, Note_on_c, 3, 56, 0
5, 21124, Note_on_c, 3, 49, 64
5, 21150, Note_on_c, 3, 49, 0
5, 21154, Note_on_c, 3, 61, 64
5, 21180, Note_on_c, 3, 61, 0
5, 21184, Note_on_c, 3, 59, 64
5, 21210, Note_on_c, 3, 59, 0
5, 21214, Note_on_c, 3, 61, 64
5, 21240, Note_on_c, 3, 61, 0
5, 21244, Note_on_c, 3, 57, 64
5, 21270, Note_on_c, 3, 57, 0
5, 21274, Note_on_c, 3, 61, 64
5, 21300, Note_on_c, 3, 61, 0
5, 21304, Note_on_c, 3, 52, 64
5, 21330, Note_on_c, 3, 52, 0
5, 21334, Note_on_c, 3, 57, 64
5, 21360, Note_on_c, 3, 57, 0
5, 21364, Note_on_c, 3, 49, 64
5, 21390, Note_on_c, 3, 49, 0
5, 21394, Note_on_c, 3, 57, 64
5, 21420, Note_on_c, 3, 57, 0
5, 21424, Note_on_c, 3, 56, 64
5, 21450, Note_on_c, 3, 56, 0
5, 21454, Note_on_c, 3, 57, 64
5, 21480, Note_on_c, 3, 57, 0
5, 21484, Note_on_c, 3, 52, 64
5, 21510, Note_on_c, 3, 52, 0
5, 21514, Note_on_c, 3, 57, 64
5, 21540, Note_on_c, 3, 57, 0
5, 21544, Note_on_c, 3, 49, 64
5, 21570, Note_on_c, 3, 49, 0
5, 21574, Note_on_c, 3, 52, 64
5, 21600, Note_on_c, 3, 52, 0
5, 21604, Note_on_c, 3, 46, 64
5, 21630, Note_on_c, 3, 46, 0
5, 21634, Note_on_c, 3, 52, 64
5, 21660, Note_on_c, 3, 52, 0
5, 21664, Note_on_c, 3, 51, 64
5, 21690, Note_on_c, 3, 51, 0
5, 21694, Note_on_c, 3, 52, 64
5, 21720, Note_on_c, 3, 52, 0
5, 21724, Note_on_c, 3, 49, 64
5, 21750, Note_on_c, 3, 49, 0
5, 21754, Note_on_c, 3, 52, 64
5, 21780, Note_on_c, 3, 52, 0
5, 21784, Note_on_c, 3, 46, 64
5, 21810, Note_on_c, 3, 46, 0
5, 21814, Note_on_c, 3, 49, 64
5, 21840, Note_on_c, 3, 49, 0
5, 21844, Note_on_c, 3, 43, 64
5, 21949, Note_on_c, 3, 43, 0
5, 21994, Note_on_c, 3, 51, 64
5, 22020, Note_on_c, 3, 51, 0
5, 22024, Note_on_c, 3, 53, 64
5, 22050, Note_on_c, 3, 53, 0
5, 22054, Note_on_c, 3, 55, 64
5, 22080, Note_on_c, 3, 55, 0
5, 22084, Note_on_c, 3, 56, 64
5, 22110, Note_on_c, 3, 56, 0
5, 22114, Note_on_c, 3, 60, 64
5, 22140, Note_on_c, 3, 60, 0
5, 22144, Note_on_c, 3, 58, 64
5, 22170, Note_on_c, 3, 58, 0
5, 22174, Note_on_c, 3, 56, 64
5, 22200, Note_on_c, 3, 56, 0
5, 22204, Note_on_c, 3, 55, 64
5, 22230, Note_on_c, 3, 55, 0
5, 22234, Note_on_c, 3, 53, 64
5, 22260, Note_on_c, 3, 53, 0
5, 22264, Note_on_c, 3, 51, 64
5, 22290, Note_on_c, 3, 51, 0
5, 22294, Note_on_c, 3, 49, 64
5, 22320, Note_on_c, 3, 49, 0
5, 22324, Note_on_c, 3, 48, 64
5, 22376, Note_on_c, 3, 48, 0
5, 22384, Note_on_c, 3, 49, 64
5, 22436, Note_on_c, 3, 49, 0
5, 22444, Note_on_c, 3, 51, 64
5, 22496, Note_on_c, 3, 51, 0
5, 22504, Note_on_c, 3, 53, 64
5, 22556, Note_on_c, 3, 53, 0
5, 22564, Note_on_c, 3, 51, 64
5, 22616, Note_on_c, 3, 51, 0
5, 22624, Note_on_c, 3, 50, 64
5, 22676, Note_on_c, 3, 50, 0
5, 22684, Note_on_c, 3, 51, 64
5, 22736, Note_on_c, 3, 51, 0
5, 22744, Note_on_c, 3, 52, 64
5, 22796, Note_on_c, 3, 52, 0
5, 22804, Note_on_c, 3, 53, 64
5, 22882, Note_on_c, 3, 53, 0
5, 22894, Note_on_c, 3, 55, 64
5, 22920, Note_on_c, 3, 55, 0
5, 22924, Note_on_c, 3, 56, 64
5, 22924, Note_on_c, 3, 56, 64
5, 22976, Note_on_c, 3, 56, 0
5, 22984, Note_on_c, 3, 53, 64
5, 23029, Note_on_c, 3, 56, 0
5, 23036, Note_on_c, 3, 53, 0
5, 23044, Note_on_c, 3, 51, 64
5, 23044, Note_on_c, 3, 55, 64
5, 23149, Note_on_c, 3, 55, 0
5, 23149, Note_on_c, 3, 51, 0
5, 23164, Note_on_c, 3, 54, 64
5, 23224, Note_on_c, 3, 48, 64
5, 23269, Note_on_c, 3, 54, 0
5, 23276, Note_on_c, 3, 48, 0
5, 23284, Note_on_c, 3, 53, 64
5, 23284, Note_on_c, 3, 49, 64
5, 23389, Note_on_c, 3, 49, 0
5, 23389, Note_on_c, 3, 53, 0
5, 23404, Note_on_c, 3, 52, 64
5, 23434, Note_on_c, 3, 46, 64
5, 23460, Note_on_c, 3, 46, 0
5, 23464, Note_on_c, 3, 47, 64
5, 23490, Note_on_c, 3, 47, 0
5, 23494, Note_on_c, 3, 49, 64
5, 23509, Note_on_c, 3, 52, 0
5, 23520, Note_on_c, 3, 49, 0
5, 23524, Note_on_c, 3, 43, 64
5, 23524, Note_on_c, 3, 51, 64
5, 23576, Note_on_c, 3, 43, 0
5, 23584, Note_on_c, 3, 44, 64
5, 23636, Note_on_c, 3, 44, 0
5, 23644, Note_on_c, 3, 39, 64
5, 23749, Note_on_c, 3, 39, 0
5, 23764, Note_on_c, 3, 44, 64
5, 23989, Note_on_c, 3, 44, 0
5, 23989, Note_on_c, 3, 51, 0
5, 23989, End_track
0, 0, End_of_file
