0, 0, Header, 1, 4, 120
1, 0, Start_track
1, 0, Time_signature, 6, 3, 12, 8
1, 0, Key_signature, 5, "major"
1, 0, Tempo, 645161
1, 0, Marker_t, "(c) Yo Tomita, 1997"
1, 50760, Tempo, 666667
1, 50822, Tempo, 681818
1, 50880, Tempo, 705882
1, 50940, Tempo, 731707
1, 51000, Tempo, 759494
1, 51062, Tempo, 789474
1, 51120, Tempo, 821918
1, 51150, Tempo, 845070
1, 51182, Tempo, 895522
1, 51208, Tempo, 937500
1, 51242, Tempo, 967742
1, 51270, Tempo, 1000000
1, 51302, Tempo, 1052632
1, 51302, End_track
2, 0, Start_track
2, 0, MIDI_port, 0
2, 0, Title_t, "BWV 887/1"
2, 0, Program_c, 0, 6
2, 5, Note_on_c, 0, 68, 64
2, 57, Note_on_c, 0, 68, 0
2, 65, Note_on_c, 0, 70, 64
2, 117, Note_on_c, 0, 70, 0
2, 125, Note_on_c, 0, 71, 64
2, 177, Note_on_c, 0, 71, 0
2, 185, Note_on_c, 0, 70, 64
2, 237, Note_on_c, 0, 70, 0
2, 245, Note_on_c, 0, 75, 64
2, 297, Note_on_c, 0, 75, 0
2, 305, Note_on_c, 0, 63, 64
2, 357, Note_on_c, 0, 63, 0
2, 365, Note_on_c, 0, 68, 64
2, 417, Note_on_c, 0, 68, 0
2, 425, Note_on_c, 0, 71, 64
2, 477, Note_on_c, 0, 71, 0
2, 485, Note_on_c, 0, 70, 64
2, 537, Note_on_c, 0, 70, 0
2, 545, Note_on_c, 0, 71, 64
2, 597, Note_on_c, 0, 71, 0
2, 605, Note_on_c, 0, 70, 64
2, 657, Note_on_c, 0, 70, 0
2, 665, Note_on_c, 0, 68, 64
2, 717, Note_on_c, 0, 68, 0
2, 725, Note_on_c, 0, 70, 64
2, 777, Note_on_c, 0, 70, 0
2, 785, Note_on_c, 0, 71, 64
2, 837, Note_on_c, 0, 71, 0
2, 845, Note_on_c, 0, 73, 64
2, 897, Note_on_c, 0, 73, 0
2, 905, Note_on_c, 0, 71, 64
2, 957, Note_on_c, 0, 71, 0
2, 965, Note_on_c, 0, 76, 64
2, 1017, Note_on_c, 0, 76, 0
2, 1025, Note_on_c, 0, 68, 64
2, 1077, Note_on_c, 0, 68, 0
2, 1085, Note_on_c, 0, 70, 64
2, 1137, Note_on_c, 0, 70, 0
2, 1145, Note_on_c, 0, 73, 64
2, 1197, Note_on_c, 0, 73, 0
2, 1205, Note_on_c, 0, 71, 64
2, 1257, Note_on_c, 0, 71, 0
2, 1265, Note_on_c, 0, 73, 64
2, 1317, Note_on_c, 0, 73, 0
2, 1325, Note_on_c, 0, 71, 64
2, 1377, Note_on_c, 0, 71, 0
2, 1385, Note_on_c, 0, 70, 64
2, 1437, Note_on_c, 0, 70, 0
2, 1445, Note_on_c, 0, 71, 64
2, 1550, Note_on_c, 0, 71, 0
2, 1565, Note_on_c, 0, 72, 64
2, 1617, Note_on_c, 0, 72, 0
2, 1625, Note_on_c, 0, 73, 64
2, 1970, Note_on_c, 0, 73, 0
2, 1985, Note_on_c, 0, 72, 64
2, 2150, Note_on_c, 0, 72, 0
2, 2165, Note_on_c, 0, 73, 64
2, 2270, Note_on_c, 0, 73, 0
2, 2285, Note_on_c, 0, 74, 64
2, 2337, Note_on_c, 0, 74, 0
2, 2345, Note_on_c, 0, 75, 64
2, 2690, Note_on_c, 0, 75, 0
2, 2705, Note_on_c, 0, 74, 64
2, 2870, Note_on_c, 0, 74, 0
2, 2885, Note_on_c, 0, 75, 64
2, 2937, Note_on_c, 0, 75, 0
2, 2945, Note_on_c, 0, 73, 64
2, 3117, Note_on_c, 0, 73, 0
2, 3125, Note_on_c, 0, 70, 64
2, 3177, Note_on_c, 0, 70, 0
2, 3185, Note_on_c, 0, 72, 64
2, 3237, Note_on_c, 0, 72, 0
2, 3245, Note_on_c, 0, 73, 64
2, 3297, Note_on_c, 0, 73, 0
2, 3305, Note_on_c, 0, 71, 64
2, 3477, Note_on_c, 0, 71, 0
2, 3485, Note_on_c, 0, 68, 64
2, 3537, Note_on_c, 0, 68, 0
2, 3545, Note_on_c, 0, 70, 64
2, 3597, Note_on_c, 0, 70, 0
2, 3605, Note_on_c, 0, 71, 64
2, 3837, Note_on_c, 0, 71, 0
2, 3845, Note_on_c, 0, 70, 64
2, 3897, Note_on_c, 0, 70, 0
2, 3905, Note_on_c, 0, 73, 64
2, 3957, Note_on_c, 0, 73, 0
2, 3965, Note_on_c, 0, 67, 64
2, 4017, Note_on_c, 0, 67, 0
2, 4025, Note_on_c, 0, 75, 64
2, 4077, Note_on_c, 0, 75, 0
2, 4085, Note_on_c, 0, 68, 64
2, 4137, Note_on_c, 0, 68, 0
2, 4145, Note_on_c, 0, 73, 64
2, 4377, Note_on_c, 0, 73, 0
2, 4385, Note_on_c, 0, 76, 64
2, 4437, Note_on_c, 0, 76, 0
2, 4445, Note_on_c, 0, 75, 64
2, 4497, Note_on_c, 0, 75, 0
2, 4505, Note_on_c, 0, 73, 64
2, 4557, Note_on_c, 0, 73, 0
2, 4565, Note_on_c, 0, 71, 64
2, 4617, Note_on_c, 0, 71, 0
2, 4625, Note_on_c, 0, 70, 64
2, 4677, Note_on_c, 0, 70, 0
2, 4685, Note_on_c, 0, 71, 64
2, 4790, Note_on_c, 0, 71, 0
2, 4805, Note_on_c, 0, 75, 64
2, 4857, Note_on_c, 0, 75, 0
2, 4865, Note_on_c, 0, 80, 64
2, 5150, Note_on_c, 0, 80, 0
2, 5165, Note_on_c, 0, 79, 64
2, 5217, Note_on_c, 0, 79, 0
2, 5225, Note_on_c, 0, 80, 64
2, 5330, Note_on_c, 0, 80, 0
2, 5345, Note_on_c, 0, 83, 64
2, 5397, Note_on_c, 0, 83, 0
2, 5405, Note_on_c, 0, 73, 64
2, 5510, Note_on_c, 0, 73, 0
2, 5525, Note_on_c, 0, 75, 64
2, 5577, Note_on_c, 0, 75, 0
2, 5585, Note_on_c, 0, 76, 64
2, 5637, Note_on_c, 0, 76, 0
2, 5645, Note_on_c, 0, 75, 64
2, 5697, Note_on_c, 0, 75, 0
2, 5705, Note_on_c, 0, 73, 64
2, 5757, Note_on_c, 0, 73, 0
2, 5765, Note_on_c, 0, 75, 64
2, 5930, Note_on_c, 0, 75, 0
2, 5945, Note_on_c, 0, 73, 64
2, 6110, Note_on_c, 0, 73, 0
2, 6125, Note_on_c, 0, 71, 64
2, 6290, Note_on_c, 0, 71, 0
2, 6305, Note_on_c, 0, 70, 64
2, 6470, Note_on_c, 0, 70, 0
2, 6485, Note_on_c, 0, 68, 64
2, 6537, Note_on_c, 0, 68, 0
2, 6965, Note_on_c, 0, 75, 64
2, 7017, Note_on_c, 0, 75, 0
2, 7025, Note_on_c, 0, 75, 64
2, 7130, Note_on_c, 0, 75, 0
2, 7145, Note_on_c, 0, 74, 64
2, 7197, Note_on_c, 0, 74, 0
2, 7205, Note_on_c, 0, 75, 64
2, 7310, Note_on_c, 0, 75, 0
2, 7685, Note_on_c, 0, 76, 64
2, 7737, Note_on_c, 0, 76, 0
2, 7745, Note_on_c, 0, 75, 64
2, 7850, Note_on_c, 0, 75, 0
2, 7865, Note_on_c, 0, 73, 64
2, 7917, Note_on_c, 0, 73, 0
2, 7925, Note_on_c, 0, 71, 64
2, 8030, Note_on_c, 0, 71, 0
2, 8045, Note_on_c, 0, 68, 64
2, 8097, Note_on_c, 0, 68, 0
2, 8105, Note_on_c, 0, 70, 64
2, 8210, Note_on_c, 0, 70, 0
2, 8225, Note_on_c, 0, 72, 64
2, 8277, Note_on_c, 0, 72, 0
2, 8285, Note_on_c, 0, 73, 64
2, 8337, Note_on_c, 0, 73, 0
2, 8345, Note_on_c, 0, 68, 64
2, 8397, Note_on_c, 0, 68, 0
2, 8405, Note_on_c, 0, 73, 64
2, 8517, Note_on_c, 0, 73, 0
2, 8525, Note_on_c, 0, 70, 64
2, 8577, Note_on_c, 0, 70, 0
2, 8585, Note_on_c, 0, 72, 64
2, 8637, Note_on_c, 0, 72, 0
2, 8645, Note_on_c, 0, 76, 64
2, 8810, Note_on_c, 0, 76, 0
2, 8825, Note_on_c, 0, 75, 64
2, 9057, Note_on_c, 0, 75, 0
2, 9065, Note_on_c, 0, 73, 64
2, 9117, Note_on_c, 0, 73, 0
2, 9125, Note_on_c, 0, 81, 64
2, 9237, Note_on_c, 0, 81, 0
2, 9245, Note_on_c, 0, 79, 64
2, 9297, Note_on_c, 0, 79, 0
2, 9305, Note_on_c, 0, 80, 64
2, 9357, Note_on_c, 0, 80, 0
2, 9365, Note_on_c, 0, 73, 64
2, 9710, Note_on_c, 0, 73, 0
2, 9725, Note_on_c, 0, 71, 64
2, 10070, Note_on_c, 0, 71, 0
2, 10085, Note_on_c, 0, 70, 64
2, 10370, Note_on_c, 0, 70, 0
2, 10385, Note_on_c, 0, 74, 64
2, 10437, Note_on_c, 0, 74, 0
2, 10445, Note_on_c, 0, 75, 64
2, 10497, Note_on_c, 0, 75, 0
2, 10505, Note_on_c, 0, 77, 64
2, 10557, Note_on_c, 0, 77, 0
2, 10565, Note_on_c, 0, 78, 64
2, 10677, Note_on_c, 0, 78, 0
2, 10685, Note_on_c, 0, 77, 64
2, 10737, Note_on_c, 0, 77, 0
2, 10745, Note_on_c, 0, 80, 64
2, 10797, Note_on_c, 0, 80, 0
2, 10805, Note_on_c, 0, 74, 64
2, 10857, Note_on_c, 0, 74, 0
2, 10865, Note_on_c, 0, 77, 64
2, 10917, Note_on_c, 0, 77, 0
2, 10925, Note_on_c, 0, 70, 64
2, 10977, Note_on_c, 0, 70, 0
2, 10985, Note_on_c, 0, 75, 64
2, 11330, Note_on_c, 0, 75, 0
2, 11345, Note_on_c, 0, 74, 64
2, 11510, Note_on_c, 0, 74, 0
2, 11525, Note_on_c, 0, 75, 64
2, 11630, Note_on_c, 0, 75, 0
2, 11705, Note_on_c, 0, 68, 64
2, 11810, Note_on_c, 0, 68, 0
2, 11885, Note_on_c, 0, 66, 64
2, 11990, Note_on_c, 0, 66, 0
2, 13265, Note_on_c, 0, 64, 64
2, 13317, Note_on_c, 0, 64, 0
2, 13325, Note_on_c, 0, 66, 64
2, 13377, Note_on_c, 0, 66, 0
2, 13385, Note_on_c, 0, 69, 64
2, 13437, Note_on_c, 0, 69, 0
2, 13445, Note_on_c, 0, 68, 64
2, 13497, Note_on_c, 0, 68, 0
2, 13505, Note_on_c, 0, 69, 64
2, 13557, Note_on_c, 0, 69, 0
2, 13565, Note_on_c, 0, 68, 64
2, 13617, Note_on_c, 0, 68, 0
2, 13625, Note_on_c, 0, 66, 64
2, 13677, Note_on_c, 0, 66, 0
2, 13685, Note_on_c, 0, 64, 64
2, 13737, Note_on_c, 0, 64, 0
2, 13745, Note_on_c, 0, 68, 64
2, 13771, Note_on_c, 0, 68, 0
2, 13775, Note_on_c, 0, 66, 64
2, 13801, Note_on_c, 0, 66, 0
2, 13805, Note_on_c, 0, 68, 64
2, 13831, Note_on_c, 0, 68, 0
2, 13835, Note_on_c, 0, 70, 64
2, 13861, Note_on_c, 0, 70, 0
2, 13865, Note_on_c, 0, 71, 64
2, 14210, Note_on_c, 0, 71, 0
2, 14225, Note_on_c, 0, 70, 64
2, 14390, Note_on_c, 0, 70, 0
2, 14405, Note_on_c, 0, 71, 64
2, 14570, Note_on_c, 0, 71, 0
2, 14585, Note_on_c, 0, 73, 64
2, 14750, Note_on_c, 0, 73, 0
2, 14765, Note_on_c, 0, 75, 64
2, 14930, Note_on_c, 0, 75, 0
2, 14945, Note_on_c, 0, 76, 64
2, 14997, Note_on_c, 0, 76, 0
2, 15005, Note_on_c, 0, 75, 64
2, 15057, Note_on_c, 0, 75, 0
2, 15065, Note_on_c, 0, 73, 64
2, 15117, Note_on_c, 0, 73, 0
2, 15125, Note_on_c, 0, 71, 64
2, 15177, Note_on_c, 0, 71, 0
2, 15185, Note_on_c, 0, 75, 64
2, 15237, Note_on_c, 0, 75, 0
2, 15245, Note_on_c, 0, 78, 64
2, 15357, Note_on_c, 0, 78, 0
2, 15365, Note_on_c, 0, 75, 64
2, 15417, Note_on_c, 0, 75, 0
2, 15425, Note_on_c, 0, 77, 64
2, 15537, Note_on_c, 0, 77, 0
2, 15545, Note_on_c, 0, 70, 64
2, 15597, Note_on_c, 0, 70, 0
2, 15605, Note_on_c, 0, 75, 64
2, 15717, Note_on_c, 0, 75, 0
2, 15725, Note_on_c, 0, 72, 64
2, 15777, Note_on_c, 0, 72, 0
2, 15785, Note_on_c, 0, 74, 64
2, 15837, Note_on_c, 0, 74, 0
2, 15845, Note_on_c, 0, 75, 64
2, 15897, Note_on_c, 0, 75, 0
2, 15905, Note_on_c, 0, 77, 64
2, 15957, Note_on_c, 0, 77, 0
2, 15965, Note_on_c, 0, 78, 64
2, 16017, Note_on_c, 0, 78, 0
2, 16025, Note_on_c, 0, 77, 64
2, 16077, Note_on_c, 0, 77, 0
2, 16085, Note_on_c, 0, 82, 64
2, 16137, Note_on_c, 0, 82, 0
2, 16145, Note_on_c, 0, 70, 64
2, 16197, Note_on_c, 0, 70, 0
2, 16205, Note_on_c, 0, 75, 64
2, 16257, Note_on_c, 0, 75, 0
2, 16265, Note_on_c, 0, 78, 64
2, 16317, Note_on_c, 0, 78, 0
2, 16325, Note_on_c, 0, 77, 64
2, 16377, Note_on_c, 0, 77, 0
2, 16385, Note_on_c, 0, 78, 64
2, 16437, Note_on_c, 0, 78, 0
2, 16445, Note_on_c, 0, 77, 64
2, 16497, Note_on_c, 0, 77, 0
2, 16505, Note_on_c, 0, 75, 64
2, 16557, Note_on_c, 0, 75, 0
2, 16565, Note_on_c, 0, 77, 64
2, 16617, Note_on_c, 0, 77, 0
2, 16625, Note_on_c, 0, 78, 64
2, 16677, Note_on_c, 0, 78, 0
2, 16685, Note_on_c, 0, 80, 64
2, 16737, Note_on_c, 0, 80, 0
2, 16745, Note_on_c, 0, 78, 64
2, 16797, Note_on_c, 0, 78, 0
2, 16805, Note_on_c, 0, 83, 64
2, 16857, Note_on_c, 0, 83, 0
2, 16865, Note_on_c, 0, 75, 64
2, 16917, Note_on_c, 0, 75, 0
2, 16925, Note_on_c, 0, 77, 64
2, 16977, Note_on_c, 0, 77, 0
2, 16985, Note_on_c, 0, 80, 64
2, 17037, Note_on_c, 0, 80, 0
2, 17045, Note_on_c, 0, 78, 64
2, 17097, Note_on_c, 0, 78, 0
2, 17105, Note_on_c, 0, 80, 64
2, 17157, Note_on_c, 0, 80, 0
2, 17165, Note_on_c, 0, 78, 64
2, 17217, Note_on_c, 0, 78, 0
2, 17225, Note_on_c, 0, 77, 64
2, 17277, Note_on_c, 0, 77, 0
2, 17285, Note_on_c, 0, 78, 64
2, 17390, Note_on_c, 0, 78, 0
2, 17405, Note_on_c, 0, 79, 64
2, 17457, Note_on_c, 0, 79, 0
2, 17465, Note_on_c, 0, 80, 64
2, 17570, Note_on_c, 0, 80, 0
2, 17585, Note_on_c, 0, 78, 64
2, 17637, Note_on_c, 0, 78, 0
2, 17645, Note_on_c, 0, 76, 64
2, 17750, Note_on_c, 0, 76, 0
2, 17765, Note_on_c, 0, 77, 64
2, 17817, Note_on_c, 0, 77, 0
2, 17825, Note_on_c, 0, 78, 64
2, 17930, Note_on_c, 0, 78, 0
2, 17945, Note_on_c, 0, 76, 64
2, 17997, Note_on_c, 0, 76, 0
2, 18005, Note_on_c, 0, 75, 64
2, 18170, Note_on_c, 0, 75, 0
2, 18185, Note_on_c, 0, 73, 64
2, 18470, Note_on_c, 0, 73, 0
2, 18485, Note_on_c, 0, 71, 64
2, 18597, Note_on_c, 0, 71, 0
2, 18605, Note_on_c, 0, 70, 64
2, 18657, Note_on_c, 0, 70, 0
2, 18665, Note_on_c, 0, 73, 64
2, 18717, Note_on_c, 0, 73, 0
2, 18725, Note_on_c, 0, 67, 64
2, 18830, Note_on_c, 0, 67, 0
2, 18845, Note_on_c, 0, 70, 64
2, 18957, Note_on_c, 0, 70, 0
2, 18965, Note_on_c, 0, 63, 64
2, 19017, Note_on_c, 0, 63, 0
2, 19025, Note_on_c, 0, 68, 64
2, 19190, Note_on_c, 0, 68, 0
2, 19205, Note_on_c, 0, 73, 64
2, 19257, Note_on_c, 0, 73, 0
2, 19265, Note_on_c, 0, 67, 64
2, 19430, Note_on_c, 0, 67, 0
2, 19445, Note_on_c, 0, 68, 64
2, 19550, Note_on_c, 0, 68, 0
2, 19565, Note_on_c, 0, 63, 64
2, 19617, Note_on_c, 0, 63, 0
2, 19625, Note_on_c, 0, 61, 64
2, 19677, Note_on_c, 0, 61, 0
2, 19685, Note_on_c, 0, 59, 64
2, 19737, Note_on_c, 0, 59, 0
2, 19745, Note_on_c, 0, 58, 64
2, 19797, Note_on_c, 0, 58, 0
2, 19805, Note_on_c, 0, 59, 64
2, 19910, Note_on_c, 0, 59, 0
2, 20105, Note_on_c, 0, 71, 64
2, 20157, Note_on_c, 0, 71, 0
2, 20165, Note_on_c, 0, 73, 64
2, 20217, Note_on_c, 0, 73, 0
2, 20225, Note_on_c, 0, 75, 64
2, 20277, Note_on_c, 0, 75, 0
2, 20285, Note_on_c, 0, 76, 64
2, 20337, Note_on_c, 0, 76, 0
2, 20345, Note_on_c, 0, 75, 64
2, 20397, Note_on_c, 0, 75, 0
2, 20405, Note_on_c, 0, 73, 64
2, 20457, Note_on_c, 0, 73, 0
2, 20465, Note_on_c, 0, 71, 64
2, 20517, Note_on_c, 0, 71, 0
2, 20525, Note_on_c, 0, 73, 64
2, 20577, Note_on_c, 0, 73, 0
2, 20585, Note_on_c, 0, 70, 64
2, 20810, Note_on_c, 0, 70, 0
2, 20825, Note_on_c, 0, 75, 64
2, 20877, Note_on_c, 0, 75, 0
2, 20885, Note_on_c, 0, 75, 64
2, 21410, Note_on_c, 0, 75, 0
2, 21425, Note_on_c, 0, 74, 64
2, 21590, Note_on_c, 0, 74, 0
2, 21605, Note_on_c, 0, 75, 64
2, 21710, Note_on_c, 0, 75, 0
2, 21725, Note_on_c, 0, 75, 64
2, 21777, Note_on_c, 0, 75, 0
2, 21785, Note_on_c, 0, 74, 64
2, 21890, Note_on_c, 0, 74, 0
2, 21905, Note_on_c, 0, 73, 64
2, 21957, Note_on_c, 0, 73, 0
2, 21965, Note_on_c, 0, 72, 64
2, 22070, Note_on_c, 0, 72, 0
2, 22085, Note_on_c, 0, 71, 64
2, 22137, Note_on_c, 0, 71, 0
2, 22145, Note_on_c, 0, 70, 64
2, 22250, Note_on_c, 0, 70, 0
2, 22265, Note_on_c, 0, 72, 64
2, 22317, Note_on_c, 0, 72, 0
2, 22325, Note_on_c, 0, 73, 64
2, 22430, Note_on_c, 0, 73, 0
2, 22445, Note_on_c, 0, 74, 64
2, 22497, Note_on_c, 0, 74, 0
2, 22505, Note_on_c, 0, 75, 64
2, 22850, Note_on_c, 0, 75, 0
2, 22865, Note_on_c, 0, 75, 64
2, 22893, Note_on_c, 0, 74, 64
2, 22900, Note_on_c, 0, 75, 0
2, 22905, Note_on_c, 0, 75, 64
2, 22912, Note_on_c, 0, 74, 0
2, 22917, Note_on_c, 0, 74, 64
2, 22924, Note_on_c, 0, 75, 0
2, 22929, Note_on_c, 0, 75, 64
2, 22936, Note_on_c, 0, 74, 0
2, 22937, Note_on_c, 0, 74, 64
2, 22948, Note_on_c, 0, 75, 0
2, 22949, Note_on_c, 0, 75, 64
2, 22956, Note_on_c, 0, 74, 0
2, 22957, Note_on_c, 0, 74, 64
2, 22968, Note_on_c, 0, 75, 0
2, 22969, Note_on_c, 0, 75, 64
2, 22976, Note_on_c, 0, 74, 0
2, 22977, Note_on_c, 0, 74, 64
2, 22988, Note_on_c, 0, 75, 0
2, 22989, Note_on_c, 0, 75, 64
2, 22996, Note_on_c, 0, 74, 0
2, 23001, Note_on_c, 0, 74, 64
2, 23008, Note_on_c, 0, 75, 0
2, 23013, Note_on_c, 0, 72, 64
2, 23020, Note_on_c, 0, 74, 0
2, 23025, Note_on_c, 0, 74, 64
2, 23032, Note_on_c, 0, 72, 0
2, 23044, Note_on_c, 0, 74, 0
2, 23045, Note_on_c, 0, 75, 64
2, 23150, Note_on_c, 0, 75, 0
2, 23165, Note_on_c, 0, 73, 64
2, 23217, Note_on_c, 0, 73, 0
2, 23225, Note_on_c, 0, 71, 64
2, 23330, Note_on_c, 0, 71, 0
2, 23345, Note_on_c, 0, 70, 64
2, 23397, Note_on_c, 0, 70, 0
2, 23405, Note_on_c, 0, 68, 64
2, 23510, Note_on_c, 0, 68, 0
2, 23525, Note_on_c, 0, 73, 64
2, 23637, Note_on_c, 0, 73, 0
2, 23645, Note_on_c, 0, 70, 64
2, 23697, Note_on_c, 0, 70, 0
2, 23705, Note_on_c, 0, 72, 64
2, 23757, Note_on_c, 0, 72, 0
2, 23765, Note_on_c, 0, 73, 64
2, 23817, Note_on_c, 0, 73, 0
2, 23825, Note_on_c, 0, 68, 64
2, 23877, Note_on_c, 0, 68, 0
2, 23885, Note_on_c, 0, 70, 64
2, 23937, Note_on_c, 0, 70, 0
2, 23945, Note_on_c, 0, 71, 64
2, 23997, Note_on_c, 0, 71, 0
2, 24005, Note_on_c, 0, 73, 64
2, 24057, Note_on_c, 0, 73, 0
2, 24065, Note_on_c, 0, 71, 64
2, 24117, Note_on_c, 0, 71, 0
2, 24125, Note_on_c, 0, 70, 64
2, 24177, Note_on_c, 0, 70, 0
2, 24185, Note_on_c, 0, 75, 64
2, 24237, Note_on_c, 0, 75, 0
2, 24245, Note_on_c, 0, 73, 64
2, 24297, Note_on_c, 0, 73, 0
2, 24305, Note_on_c, 0, 71, 64
2, 24357, Note_on_c, 0, 71, 0
2, 24365, Note_on_c, 0, 76, 64
2, 24417, Note_on_c, 0, 76, 0
2, 24425, Note_on_c, 0, 75, 64
2, 24477, Note_on_c, 0, 75, 0
2, 24485, Note_on_c, 0, 73, 64
2, 24537, Note_on_c, 0, 73, 0
2, 24545, Note_on_c, 0, 75, 64
2, 24597, Note_on_c, 0, 75, 0
2, 24605, Note_on_c, 0, 76, 64
2, 24657, Note_on_c, 0, 76, 0
2, 24665, Note_on_c, 0, 70, 64
2, 24717, Note_on_c, 0, 70, 0
2, 24725, Note_on_c, 0, 75, 64
2, 24777, Note_on_c, 0, 75, 0
2, 24785, Note_on_c, 0, 73, 64
2, 24837, Note_on_c, 0, 73, 0
2, 24845, Note_on_c, 0, 71, 64
2, 24897, Note_on_c, 0, 71, 0
2, 24905, Note_on_c, 0, 73, 64
2, 24957, Note_on_c, 0, 73, 0
2, 24965, Note_on_c, 0, 75, 64
2, 25017, Note_on_c, 0, 75, 0
2, 25025, Note_on_c, 0, 68, 64
2, 25077, Note_on_c, 0, 68, 0
2, 25085, Note_on_c, 0, 73, 64
2, 25137, Note_on_c, 0, 73, 0
2, 25145, Note_on_c, 0, 75, 64
2, 25197, Note_on_c, 0, 75, 0
2, 25205, Note_on_c, 0, 76, 64
2, 25370, Note_on_c, 0, 76, 0
2, 25385, Note_on_c, 0, 75, 64
2, 25550, Note_on_c, 0, 75, 0
2, 25565, Note_on_c, 0, 73, 64
2, 25730, Note_on_c, 0, 73, 0
2, 25745, Note_on_c, 0, 71, 64
2, 25797, Note_on_c, 0, 71, 0
2, 25805, Note_on_c, 0, 80, 64
2, 25910, Note_on_c, 0, 80, 0
2, 25925, Note_on_c, 0, 78, 64
2, 25977, Note_on_c, 0, 78, 0
2, 25985, Note_on_c, 0, 76, 64
2, 26037, Note_on_c, 0, 76, 0
2, 26045, Note_on_c, 0, 75, 64
2, 26157, Note_on_c, 0, 75, 0
2, 26165, Note_on_c, 0, 73, 64
2, 26191, Note_on_c, 0, 73, 0
2, 26195, Note_on_c, 0, 72, 64
2, 26221, Note_on_c, 0, 72, 0
2, 26225, Note_on_c, 0, 73, 64
2, 26277, Note_on_c, 0, 73, 0
2, 26285, Note_on_c, 0, 75, 64
2, 26697, Note_on_c, 0, 75, 0
2, 26705, Note_on_c, 0, 68, 64
2, 26757, Note_on_c, 0, 68, 0
2, 26765, Note_on_c, 0, 73, 64
2, 26877, Note_on_c, 0, 73, 0
2, 26885, Note_on_c, 0, 71, 64
2, 26911, Note_on_c, 0, 71, 0
2, 26915, Note_on_c, 0, 70, 64
2, 26941, Note_on_c, 0, 70, 0
2, 26945, Note_on_c, 0, 71, 64
2, 26997, Note_on_c, 0, 71, 0
2, 27005, Note_on_c, 0, 70, 64
2, 27470, Note_on_c, 0, 70, 0
2, 27485, Note_on_c, 0, 68, 64
2, 27537, Note_on_c, 0, 68, 0
2, 27545, Note_on_c, 0, 73, 64
2, 27710, Note_on_c, 0, 73, 0
2, 27725, Note_on_c, 0, 71, 64
2, 27890, Note_on_c, 0, 71, 0
2, 27905, Note_on_c, 0, 70, 64
2, 28137, Note_on_c, 0, 70, 0
2, 28145, Note_on_c, 0, 68, 64
2, 28197, Note_on_c, 0, 68, 0
2, 28205, Note_on_c, 0, 80, 64
2, 28257, Note_on_c, 0, 80, 0
2, 28265, Note_on_c, 0, 79, 64
2, 28370, Note_on_c, 0, 79, 0
2, 28385, Note_on_c, 0, 78, 64
2, 28437, Note_on_c, 0, 78, 0
2, 28445, Note_on_c, 0, 77, 64
2, 28550, Note_on_c, 0, 77, 0
2, 28565, Note_on_c, 0, 76, 64
2, 28617, Note_on_c, 0, 76, 0
2, 28625, Note_on_c, 0, 75, 64
2, 28730, Note_on_c, 0, 75, 0
2, 28745, Note_on_c, 0, 77, 64
2, 28797, Note_on_c, 0, 77, 0
2, 28805, Note_on_c, 0, 78, 64
2, 28910, Note_on_c, 0, 78, 0
2, 28925, Note_on_c, 0, 79, 64
2, 28977, Note_on_c, 0, 79, 0
2, 28985, Note_on_c, 0, 80, 64
2, 29330, Note_on_c, 0, 80, 0
2, 29345, Note_on_c, 0, 79, 64
2, 29577, Note_on_c, 0, 79, 0
2, 29585, Note_on_c, 0, 77, 64
2, 29637, Note_on_c, 0, 77, 0
2, 29645, Note_on_c, 0, 79, 64
2, 29697, Note_on_c, 0, 79, 0
2, 29705, Note_on_c, 0, 80, 64
2, 29810, Note_on_c, 0, 80, 0
2, 29825, Note_on_c, 0, 81, 64
2, 29877, Note_on_c, 0, 81, 0
2, 29885, Note_on_c, 0, 82, 64
2, 30297, Note_on_c, 0, 82, 0
2, 30305, Note_on_c, 0, 78, 64
2, 30357, Note_on_c, 0, 78, 0
2, 30365, Note_on_c, 0, 80, 64
2, 30417, Note_on_c, 0, 80, 0
2, 30425, Note_on_c, 0, 82, 64
2, 30657, Note_on_c, 0, 82, 0
2, 30665, Note_on_c, 0, 80, 64
2, 30837, Note_on_c, 0, 80, 0
2, 30845, Note_on_c, 0, 77, 64
2, 30897, Note_on_c, 0, 77, 0
2, 30905, Note_on_c, 0, 78, 64
2, 30957, Note_on_c, 0, 78, 0
2, 30965, Note_on_c, 0, 77, 64
2, 31070, Note_on_c, 0, 77, 0
2, 31085, Note_on_c, 0, 78, 64
2, 31137, Note_on_c, 0, 78, 0
2, 31145, Note_on_c, 0, 80, 64
2, 31377, Note_on_c, 0, 80, 0
2, 31385, Note_on_c, 0, 78, 64
2, 31557, Note_on_c, 0, 78, 0
2, 31565, Note_on_c, 0, 75, 64
2, 31617, Note_on_c, 0, 75, 0
2, 31625, Note_on_c, 0, 76, 64
2, 31677, Note_on_c, 0, 76, 0
2, 31685, Note_on_c, 0, 75, 64
2, 31790, Note_on_c, 0, 75, 0
2, 31805, Note_on_c, 0, 73, 64
2, 31857, Note_on_c, 0, 73, 0
2, 31865, Note_on_c, 0, 71, 64
2, 32030, Note_on_c, 0, 71, 0
2, 32045, Note_on_c, 0, 70, 64
2, 32150, Note_on_c, 0, 70, 0
2, 32165, Note_on_c, 0, 72, 64
2, 32217, Note_on_c, 0, 72, 0
2, 32225, Note_on_c, 0, 73, 64
2, 32251, Note_on_c, 0, 73, 0
2, 32255, Note_on_c, 0, 75, 64
2, 32281, Note_on_c, 0, 75, 0
2, 32285, Note_on_c, 0, 76, 64
2, 32337, Note_on_c, 0, 76, 0
2, 32345, Note_on_c, 0, 75, 64
2, 32397, Note_on_c, 0, 75, 0
2, 32405, Note_on_c, 0, 68, 64
2, 32570, Note_on_c, 0, 68, 0
2, 32585, Note_on_c, 0, 73, 64
2, 32817, Note_on_c, 0, 73, 0
2, 32825, Note_on_c, 0, 71, 64
2, 32877, Note_on_c, 0, 71, 0
2, 32885, Note_on_c, 0, 73, 64
2, 32937, Note_on_c, 0, 73, 0
2, 32945, Note_on_c, 0, 75, 64
2, 32971, Note_on_c, 0, 75, 0
2, 32975, Note_on_c, 0, 73, 64
2, 33001, Note_on_c, 0, 73, 0
2, 33005, Note_on_c, 0, 71, 64
2, 33031, Note_on_c, 0, 71, 0
2, 33035, Note_on_c, 0, 70, 64
2, 33061, Note_on_c, 0, 70, 0
2, 33065, Note_on_c, 0, 71, 64
2, 33091, Note_on_c, 0, 71, 0
2, 33095, Note_on_c, 0, 76, 64
2, 33121, Note_on_c, 0, 76, 0
2, 33125, Note_on_c, 0, 70, 64
2, 33230, Note_on_c, 0, 70, 0
2, 33305, Note_on_c, 0, 76, 64
2, 33410, Note_on_c, 0, 76, 0
2, 33425, Note_on_c, 0, 82, 64
2, 33477, Note_on_c, 0, 82, 0
2, 33485, Note_on_c, 0, 75, 64
2, 33590, Note_on_c, 0, 75, 0
2, 33605, Note_on_c, 0, 80, 64
2, 33657, Note_on_c, 0, 80, 0
2, 33665, Note_on_c, 0, 73, 64
2, 33743, Note_on_c, 0, 73, 0
2, 33755, Note_on_c, 0, 76, 64
2, 33781, Note_on_c, 0, 76, 0
2, 33785, Note_on_c, 0, 75, 64
2, 33811, Note_on_c, 0, 75, 0
2, 33815, Note_on_c, 0, 73, 64
2, 33841, Note_on_c, 0, 73, 0
2, 33845, Note_on_c, 0, 71, 64
2, 34077, Note_on_c, 0, 71, 0
2, 34085, Note_on_c, 0, 70, 64
2, 34111, Note_on_c, 0, 70, 0
2, 34115, Note_on_c, 0, 68, 64
2, 34141, Note_on_c, 0, 68, 0
2, 34145, Note_on_c, 0, 67, 64
2, 34171, Note_on_c, 0, 67, 0
2, 34175, Note_on_c, 0, 65, 64
2, 34201, Note_on_c, 0, 65, 0
2, 34205, Note_on_c, 0, 63, 64
2, 34257, Note_on_c, 0, 63, 0
2, 34265, Note_on_c, 0, 75, 64
2, 34317, Note_on_c, 0, 75, 0
2, 34325, Note_on_c, 0, 68, 64
2, 34437, Note_on_c, 0, 68, 0
2, 34445, Note_on_c, 0, 67, 64
2, 34497, Note_on_c, 0, 67, 0
2, 34505, Note_on_c, 0, 73, 64
2, 34557, Note_on_c, 0, 73, 0
2, 34565, Note_on_c, 0, 71, 64
2, 34670, Note_on_c, 0, 71, 0
2, 36725, Note_on_c, 0, 75, 64
2, 36777, Note_on_c, 0, 75, 0
2, 36785, Note_on_c, 0, 77, 64
2, 36837, Note_on_c, 0, 77, 0
2, 36845, Note_on_c, 0, 78, 64
2, 36897, Note_on_c, 0, 78, 0
2, 36905, Note_on_c, 0, 77, 64
2, 36957, Note_on_c, 0, 77, 0
2, 36965, Note_on_c, 0, 82, 64
2, 37017, Note_on_c, 0, 82, 0
2, 37025, Note_on_c, 0, 70, 64
2, 37077, Note_on_c, 0, 70, 0
2, 37085, Note_on_c, 0, 75, 64
2, 37137, Note_on_c, 0, 75, 0
2, 37145, Note_on_c, 0, 78, 64
2, 37197, Note_on_c, 0, 78, 0
2, 37205, Note_on_c, 0, 77, 64
2, 37257, Note_on_c, 0, 77, 0
2, 37265, Note_on_c, 0, 78, 64
2, 37317, Note_on_c, 0, 78, 0
2, 37325, Note_on_c, 0, 77, 64
2, 37377, Note_on_c, 0, 77, 0
2, 37385, Note_on_c, 0, 75, 64
2, 37437, Note_on_c, 0, 75, 0
2, 37445, Note_on_c, 0, 77, 64
2, 37497, Note_on_c, 0, 77, 0
2, 37505, Note_on_c, 0, 78, 64
2, 37557, Note_on_c, 0, 78, 0
2, 37565, Note_on_c, 0, 80, 64
2, 37617, Note_on_c, 0, 80, 0
2, 37625, Note_on_c, 0, 78, 64
2, 37677, Note_on_c, 0, 78, 0
2, 37685, Note_on_c, 0, 83, 64
2, 37737, Note_on_c, 0, 83, 0
2, 37745, Note_on_c, 0, 75, 64
2, 37797, Note_on_c, 0, 75, 0
2, 37805, Note_on_c, 0, 77, 64
2, 37857, Note_on_c, 0, 77, 0
2, 37865, Note_on_c, 0, 80, 64
2, 37917, Note_on_c, 0, 80, 0
2, 37925, Note_on_c, 0, 78, 64
2, 37977, Note_on_c, 0, 78, 0
2, 37985, Note_on_c, 0, 80, 64
2, 38037, Note_on_c, 0, 80, 0
2, 38045, Note_on_c, 0, 78, 64
2, 38097, Note_on_c, 0, 78, 0
2, 38105, Note_on_c, 0, 77, 64
2, 38157, Note_on_c, 0, 77, 0
2, 38165, Note_on_c, 0, 78, 64
2, 38330, Note_on_c, 0, 78, 0
2, 38345, Note_on_c, 0, 77, 64
2, 38450, Note_on_c, 0, 77, 0
2, 38465, Note_on_c, 0, 76, 64
2, 38517, Note_on_c, 0, 76, 0
2, 38525, Note_on_c, 0, 75, 64
2, 38690, Note_on_c, 0, 75, 0
2, 38705, Note_on_c, 0, 74, 64
2, 38810, Note_on_c, 0, 74, 0
2, 38825, Note_on_c, 0, 73, 64
2, 38877, Note_on_c, 0, 73, 0
2, 38885, Note_on_c, 0, 71, 64
2, 38937, Note_on_c, 0, 71, 0
2, 38945, Note_on_c, 0, 75, 64
2, 38997, Note_on_c, 0, 75, 0
2, 39005, Note_on_c, 0, 80, 64
2, 39117, Note_on_c, 0, 80, 0
2, 39125, Note_on_c, 0, 78, 64
2, 39151, Note_on_c, 0, 78, 0
2, 39155, Note_on_c, 0, 76, 64
2, 39181, Note_on_c, 0, 76, 0
2, 39185, Note_on_c, 0, 78, 64
2, 39297, Note_on_c, 0, 78, 0
2, 39305, Note_on_c, 0, 71, 64
2, 39357, Note_on_c, 0, 71, 0
2, 39365, Note_on_c, 0, 76, 64
2, 39477, Note_on_c, 0, 76, 0
2, 39485, Note_on_c, 0, 75, 64
2, 39511, Note_on_c, 0, 75, 0
2, 39515, Note_on_c, 0, 73, 64
2, 39541, Note_on_c, 0, 73, 0
2, 39545, Note_on_c, 0, 75, 64
2, 39597, Note_on_c, 0, 75, 0
2, 39605, Note_on_c, 0, 73, 64
2, 39657, Note_on_c, 0, 73, 0
2, 39665, Note_on_c, 0, 75, 64
2, 39717, Note_on_c, 0, 75, 0
2, 39725, Note_on_c, 0, 76, 64
2, 39777, Note_on_c, 0, 76, 0
2, 39785, Note_on_c, 0, 75, 64
2, 39890, Note_on_c, 0, 75, 0
2, 39905, Note_on_c, 0, 74, 64
2, 39957, Note_on_c, 0, 74, 0
2, 39965, Note_on_c, 0, 73, 64
2, 40070, Note_on_c, 0, 73, 0
2, 40085, Note_on_c, 0, 72, 64
2, 40137, Note_on_c, 0, 72, 0
2, 40145, Note_on_c, 0, 71, 64
2, 40250, Note_on_c, 0, 71, 0
2, 40265, Note_on_c, 0, 73, 64
2, 40317, Note_on_c, 0, 73, 0
2, 40325, Note_on_c, 0, 74, 64
2, 40430, Note_on_c, 0, 74, 0
2, 40445, Note_on_c, 0, 75, 64
2, 40497, Note_on_c, 0, 75, 0
2, 40505, Note_on_c, 0, 76, 64
2, 40850, Note_on_c, 0, 76, 0
2, 40865, Note_on_c, 0, 75, 64
2, 41030, Note_on_c, 0, 75, 0
2, 41045, Note_on_c, 0, 76, 64
2, 41150, Note_on_c, 0, 76, 0
2, 41165, Note_on_c, 0, 68, 64
2, 41217, Note_on_c, 0, 68, 0
2, 41225, Note_on_c, 0, 70, 64
2, 41330, Note_on_c, 0, 70, 0
2, 41345, Note_on_c, 0, 72, 64
2, 41397, Note_on_c, 0, 72, 0
2, 41405, Note_on_c, 0, 73, 64
2, 41510, Note_on_c, 0, 73, 0
2, 41525, Note_on_c, 0, 69, 64
2, 41577, Note_on_c, 0, 69, 0
2, 41585, Note_on_c, 0, 66, 64
2, 41690, Note_on_c, 0, 66, 0
2, 41705, Note_on_c, 0, 68, 64
2, 41757, Note_on_c, 0, 68, 0
2, 41765, Note_on_c, 0, 64, 64
2, 41870, Note_on_c, 0, 64, 0
2, 42425, Note_on_c, 0, 71, 64
2, 42537, Note_on_c, 0, 71, 0
2, 42545, Note_on_c, 0, 70, 64
2, 42597, Note_on_c, 0, 70, 0
2, 42605, Note_on_c, 0, 72, 64
2, 42657, Note_on_c, 0, 72, 0
2, 42665, Note_on_c, 0, 73, 64
2, 42897, Note_on_c, 0, 73, 0
2, 42905, Note_on_c, 0, 72, 64
2, 42957, Note_on_c, 0, 72, 0
2, 42965, Note_on_c, 0, 74, 64
2, 43017, Note_on_c, 0, 74, 0
2, 43025, Note_on_c, 0, 75, 64
2, 43257, Note_on_c, 0, 75, 0
2, 43265, Note_on_c, 0, 74, 64
2, 43317, Note_on_c, 0, 74, 0
2, 43325, Note_on_c, 0, 75, 64
2, 43377, Note_on_c, 0, 75, 0
2, 43385, Note_on_c, 0, 77, 64
2, 43617, Note_on_c, 0, 77, 0
2, 43625, Note_on_c, 0, 75, 64
2, 43651, Note_on_c, 0, 75, 0
2, 43655, Note_on_c, 0, 74, 64
2, 43681, Note_on_c, 0, 74, 0
2, 43685, Note_on_c, 0, 75, 64
2, 43797, Note_on_c, 0, 75, 0
2, 43805, Note_on_c, 0, 73, 64
2, 43831, Note_on_c, 0, 73, 0
2, 43835, Note_on_c, 0, 71, 64
2, 43861, Note_on_c, 0, 71, 0
2, 43865, Note_on_c, 0, 73, 64
2, 43977, Note_on_c, 0, 73, 0
2, 43985, Note_on_c, 0, 75, 64
2, 44037, Note_on_c, 0, 75, 0
2, 44045, Note_on_c, 0, 73, 64
2, 44097, Note_on_c, 0, 73, 0
2, 44105, Note_on_c, 0, 71, 64
2, 44157, Note_on_c, 0, 71, 0
2, 44165, Note_on_c, 0, 76, 64
2, 44217, Note_on_c, 0, 76, 0
2, 44225, Note_on_c, 0, 75, 64
2, 44277, Note_on_c, 0, 75, 0
2, 44285, Note_on_c, 0, 73, 64
2, 44337, Note_on_c, 0, 73, 0
2, 44345, Note_on_c, 0, 75, 64
2, 44397, Note_on_c, 0, 75, 0
2, 44405, Note_on_c, 0, 76, 64
2, 44457, Note_on_c, 0, 76, 0
2, 44465, Note_on_c, 0, 70, 64
2, 44517, Note_on_c, 0, 70, 0
2, 44525, Note_on_c, 0, 75, 64
2, 44577, Note_on_c, 0, 75, 0
2, 44585, Note_on_c, 0, 73, 64
2, 44637, Note_on_c, 0, 73, 0
2, 44645, Note_on_c, 0, 71, 64
2, 44750, Note_on_c, 0, 71, 0
2, 45125, Note_on_c, 0, 61, 64
2, 45177, Note_on_c, 0, 61, 0
2, 45185, Note_on_c, 0, 66, 64
2, 45290, Note_on_c, 0, 66, 0
2, 45305, Note_on_c, 0, 68, 64
2, 45417, Note_on_c, 0, 68, 0
2, 45425, Note_on_c, 0, 66, 64
2, 45477, Note_on_c, 0, 66, 0
2, 45485, Note_on_c, 0, 64, 64
2, 45537, Note_on_c, 0, 64, 0
2, 45545, Note_on_c, 0, 63, 64
2, 45597, Note_on_c, 0, 63, 0
2, 45605, Note_on_c, 0, 68, 64
2, 45657, Note_on_c, 0, 68, 0
2, 45665, Note_on_c, 0, 71, 64
2, 45717, Note_on_c, 0, 71, 0
2, 45725, Note_on_c, 0, 65, 64
2, 45890, Note_on_c, 0, 65, 0
2, 45905, Note_on_c, 0, 70, 64
2, 46190, Note_on_c, 0, 70, 0
2, 46205, Note_on_c, 0, 68, 64
2, 46370, Note_on_c, 0, 68, 0
2, 46385, Note_on_c, 0, 67, 64
2, 46437, Note_on_c, 0, 67, 0
2, 46445, Note_on_c, 0, 68, 64
2, 46550, Note_on_c, 0, 68, 0
2, 46685, Note_on_c, 0, 75, 64
2, 46737, Note_on_c, 0, 75, 0
2, 46745, Note_on_c, 0, 73, 64
2, 46797, Note_on_c, 0, 73, 0
2, 46805, Note_on_c, 0, 75, 64
2, 46857, Note_on_c, 0, 75, 0
2, 46865, Note_on_c, 0, 73, 64
2, 46917, Note_on_c, 0, 73, 0
2, 46925, Note_on_c, 0, 71, 64
2, 46977, Note_on_c, 0, 71, 0
2, 46985, Note_on_c, 0, 73, 64
2, 47037, Note_on_c, 0, 73, 0
2, 47045, Note_on_c, 0, 71, 64
2, 47097, Note_on_c, 0, 71, 0
2, 47105, Note_on_c, 0, 70, 64
2, 47157, Note_on_c, 0, 70, 0
2, 47165, Note_on_c, 0, 71, 64
2, 47397, Note_on_c, 0, 71, 0
2, 47405, Note_on_c, 0, 70, 64
2, 47457, Note_on_c, 0, 70, 0
2, 47465, Note_on_c, 0, 68, 64
2, 47517, Note_on_c, 0, 68, 0
2, 47525, Note_on_c, 0, 70, 64
2, 47757, Note_on_c, 0, 70, 0
2, 47765, Note_on_c, 0, 68, 64
2, 47817, Note_on_c, 0, 68, 0
2, 47825, Note_on_c, 0, 67, 64
2, 47877, Note_on_c, 0, 67, 0
2, 47885, Note_on_c, 0, 68, 64
2, 48117, Note_on_c, 0, 68, 0
2, 48125, Note_on_c, 0, 65, 64
2, 48177, Note_on_c, 0, 65, 0
2, 48185, Note_on_c, 0, 67, 64
2, 48237, Note_on_c, 0, 67, 0
2, 48245, Note_on_c, 0, 68, 64
2, 48297, Note_on_c, 0, 68, 0
2, 48305, Note_on_c, 0, 70, 64
2, 48357, Note_on_c, 0, 70, 0
2, 48365, Note_on_c, 0, 71, 64
2, 48417, Note_on_c, 0, 71, 0
2, 48425, Note_on_c, 0, 70, 64
2, 48477, Note_on_c, 0, 70, 0
2, 48485, Note_on_c, 0, 75, 64
2, 48537, Note_on_c, 0, 75, 0
2, 48545, Note_on_c, 0, 63, 64
2, 48597, Note_on_c, 0, 63, 0
2, 48605, Note_on_c, 0, 68, 64
2, 48657, Note_on_c, 0, 68, 0
2, 48665, Note_on_c, 0, 71, 64
2, 48717, Note_on_c, 0, 71, 0
2, 48725, Note_on_c, 0, 70, 64
2, 48777, Note_on_c, 0, 70, 0
2, 48785, Note_on_c, 0, 71, 64
2, 48837, Note_on_c, 0, 71, 0
2, 48845, Note_on_c, 0, 70, 64
2, 48897, Note_on_c, 0, 70, 0
2, 48905, Note_on_c, 0, 68, 64
2, 48957, Note_on_c, 0, 68, 0
2, 48965, Note_on_c, 0, 70, 64
2, 49017, Note_on_c, 0, 70, 0
2, 49025, Note_on_c, 0, 71, 64
2, 49077, Note_on_c, 0, 71, 0
2, 49085, Note_on_c, 0, 73, 64
2, 49137, Note_on_c, 0, 73, 0
2, 49145, Note_on_c, 0, 71, 64
2, 49197, Note_on_c, 0, 71, 0
2, 49205, Note_on_c, 0, 76, 64
2, 49257, Note_on_c, 0, 76, 0
2, 49265, Note_on_c, 0, 68, 64
2, 49317, Note_on_c, 0, 68, 0
2, 49325, Note_on_c, 0, 70, 64
2, 49377, Note_on_c, 0, 70, 0
2, 49385, Note_on_c, 0, 73, 64
2, 49437, Note_on_c, 0, 73, 0
2, 49445, Note_on_c, 0, 71, 64
2, 49497, Note_on_c, 0, 71, 0
2, 49505, Note_on_c, 0, 73, 64
2, 49557, Note_on_c, 0, 73, 0
2, 49565, Note_on_c, 0, 71, 64
2, 49617, Note_on_c, 0, 71, 0
2, 49625, Note_on_c, 0, 70, 64
2, 49677, Note_on_c, 0, 70, 0
2, 49685, Note_on_c, 0, 71, 64
2, 49737, Note_on_c, 0, 71, 0
2, 49745, Note_on_c, 0, 73, 64
2, 49797, Note_on_c, 0, 73, 0
2, 49805, Note_on_c, 0, 75, 64
2, 49917, Note_on_c, 0, 75, 0
2, 49925, Note_on_c, 0, 73, 64
2, 49977, Note_on_c, 0, 73, 0
2, 49985, Note_on_c, 0, 71, 64
2, 50037, Note_on_c, 0, 71, 0
2, 50045, Note_on_c, 0, 70, 64
2, 50097, Note_on_c, 0, 70, 0
2, 50105, Note_on_c, 0, 77, 64
2, 50157, Note_on_c, 0, 77, 0
2, 50165, Note_on_c, 0, 70, 64
2, 50217, Note_on_c, 0, 70, 0
2, 50225, Note_on_c, 0, 70, 64
2, 50457, Note_on_c, 0, 70, 0
2, 50465, Note_on_c, 0, 76, 64
2, 50517, Note_on_c, 0, 76, 0
2, 50525, Note_on_c, 0, 75, 64
2, 50577, Note_on_c, 0, 75, 0
2, 50585, Note_on_c, 0, 75, 64
2, 50817, Note_on_c, 0, 75, 0
2, 50825, Note_on_c, 0, 73, 64
2, 50877, Note_on_c, 0, 73, 0
2, 50885, Note_on_c, 0, 71, 64
2, 50937, Note_on_c, 0, 71, 0
2, 50945, Note_on_c, 0, 75, 64
2, 50976, Note_on_c, 0, 75, 0
2, 50977, Note_on_c, 0, 73, 64
2, 51005, Note_on_c, 0, 71, 64
2, 51012, Note_on_c, 0, 73, 0
2, 51057, Note_on_c, 0, 71, 0
2, 51065, Note_on_c, 0, 70, 64
2, 51117, Note_on_c, 0, 70, 0
2, 51125, Note_on_c, 0, 68, 64
2, 51470, Note_on_c, 0, 68, 0
2, 51470, End_track
3, 0, Start_track
3, 0, MIDI_port, 0
3, 0, Title_t, "Fugue 18 in G# minor"
3, 0, Program_c, 1, 6
3, 1445, Note_on_c, 1, 63, 64
3, 1497, Note_on_c, 1, 63, 0
3, 1505, Note_on_c, 1, 65, 64
3, 1557, Note_on_c, 1, 65, 0
3, 1565, Note_on_c, 1, 66, 64
3, 1617, Note_on_c, 1, 66, 0
3, 1625, Note_on_c, 1, 65, 64
3, 1677, Note_on_c, 1, 65, 0
3, 1685, Note_on_c, 1, 70, 64
3, 1737, Note_on_c, 1, 70, 0
3, 1745, Note_on_c, 1, 58, 64
3, 1797, Note_on_c, 1, 58, 0
3, 1805, Note_on_c, 1, 63, 64
3, 1857, Note_on_c, 1, 63, 0
3, 1865, Note_on_c, 1, 66, 64
3, 1917, Note_on_c, 1, 66, 0
3, 1925, Note_on_c, 1, 65, 64
3, 1977, Note_on_c, 1, 65, 0
3, 1985, Note_on_c, 1, 66, 64
3, 2037, Note_on_c, 1, 66, 0
3, 2045, Note_on_c, 1, 65, 64
3, 2097, Note_on_c, 1, 65, 0
3, 2105, Note_on_c, 1, 63, 64
3, 2157, Note_on_c, 1, 63, 0
3, 2165, Note_on_c, 1, 65, 64
3, 2217, Note_on_c, 1, 65, 0
3, 2225, Note_on_c, 1, 66, 64
3, 2277, Note_on_c, 1, 66, 0
3, 2285, Note_on_c, 1, 68, 64
3, 2337, Note_on_c, 1, 68, 0
3, 2345, Note_on_c, 1, 66, 64
3, 2397, Note_on_c, 1, 66, 0
3, 2405, Note_on_c, 1, 71, 64
3, 2457, Note_on_c, 1, 71, 0
3, 2465, Note_on_c, 1, 63, 64
3, 2517, Note_on_c, 1, 63, 0
3, 2525, Note_on_c, 1, 65, 64
3, 2577, Note_on_c, 1, 65, 0
3, 2585, Note_on_c, 1, 68, 64
3, 2637, Note_on_c, 1, 68, 0
3, 2645, Note_on_c, 1, 66, 64
3, 2697, Note_on_c, 1, 66, 0
3, 2705, Note_on_c, 1, 68, 64
3, 2757, Note_on_c, 1, 68, 0
3, 2765, Note_on_c, 1, 66, 64
3, 2817, Note_on_c, 1, 66, 0
3, 2825, Note_on_c, 1, 65, 64
3, 2877, Note_on_c, 1, 65, 0
3, 2885, Note_on_c, 1, 66, 64
3, 2990, Note_on_c, 1, 66, 0
3, 3005, Note_on_c, 1, 67, 64
3, 3057, Note_on_c, 1, 67, 0
3, 3065, Note_on_c, 1, 68, 64
3, 3170, Note_on_c, 1, 68, 0
3, 3185, Note_on_c, 1, 66, 64
3, 3237, Note_on_c, 1, 66, 0
3, 3245, Note_on_c, 1, 64, 64
3, 3350, Note_on_c, 1, 64, 0
3, 3365, Note_on_c, 1, 65, 64
3, 3417, Note_on_c, 1, 65, 0
3, 3425, Note_on_c, 1, 66, 64
3, 3530, Note_on_c, 1, 66, 0
3, 3545, Note_on_c, 1, 64, 64
3, 3597, Note_on_c, 1, 64, 0
3, 3605, Note_on_c, 1, 63, 64
3, 3657, Note_on_c, 1, 63, 0
3, 3665, Note_on_c, 1, 68, 64
3, 3717, Note_on_c, 1, 68, 0
3, 3725, Note_on_c, 1, 56, 64
3, 3777, Note_on_c, 1, 56, 0
3, 3785, Note_on_c, 1, 61, 64
3, 4070, Note_on_c, 1, 61, 0
3, 4085, Note_on_c, 1, 59, 64
3, 4137, Note_on_c, 1, 59, 0
3, 4145, Note_on_c, 1, 58, 64
3, 4197, Note_on_c, 1, 58, 0
3, 4205, Note_on_c, 1, 68, 64
3, 4257, Note_on_c, 1, 68, 0
3, 4265, Note_on_c, 1, 67, 64
3, 4317, Note_on_c, 1, 67, 0
3, 4325, Note_on_c, 1, 68, 64
3, 4610, Note_on_c, 1, 68, 0
3, 4625, Note_on_c, 1, 67, 64
3, 4677, Note_on_c, 1, 67, 0
3, 4685, Note_on_c, 1, 68, 64
3, 4790, Note_on_c, 1, 68, 0
3, 4985, Note_on_c, 1, 71, 64
3, 5037, Note_on_c, 1, 71, 0
3, 5045, Note_on_c, 1, 73, 64
3, 5097, Note_on_c, 1, 73, 0
3, 5105, Note_on_c, 1, 75, 64
3, 5157, Note_on_c, 1, 75, 0
3, 5165, Note_on_c, 1, 76, 64
3, 5217, Note_on_c, 1, 76, 0
3, 5225, Note_on_c, 1, 75, 64
3, 5277, Note_on_c, 1, 75, 0
3, 5285, Note_on_c, 1, 73, 64
3, 5337, Note_on_c, 1, 73, 0
3, 5345, Note_on_c, 1, 71, 64
3, 5457, Note_on_c, 1, 71, 0
3, 5465, Note_on_c, 1, 70, 64
3, 5517, Note_on_c, 1, 70, 0
3, 5525, Note_on_c, 1, 68, 64
3, 5577, Note_on_c, 1, 68, 0
3, 5585, Note_on_c, 1, 66, 64
3, 5817, Note_on_c, 1, 66, 0
3, 5825, Note_on_c, 1, 66, 64
3, 5877, Note_on_c, 1, 66, 0
3, 5885, Note_on_c, 1, 71, 64
3, 5997, Note_on_c, 1, 71, 0
3, 6005, Note_on_c, 1, 68, 64
3, 6057, Note_on_c, 1, 68, 0
3, 6065, Note_on_c, 1, 70, 64
3, 6177, Note_on_c, 1, 70, 0
3, 6185, Note_on_c, 1, 63, 64
3, 6237, Note_on_c, 1, 63, 0
3, 6245, Note_on_c, 1, 68, 64
3, 6357, Note_on_c, 1, 68, 0
3, 6365, Note_on_c, 1, 65, 64
3, 6417, Note_on_c, 1, 65, 0
3, 6425, Note_on_c, 1, 67, 64
3, 6477, Note_on_c, 1, 67, 0
3, 6485, Note_on_c, 1, 68, 64
3, 6537, Note_on_c, 1, 68, 0
3, 6545, Note_on_c, 1, 70, 64
3, 6597, Note_on_c, 1, 70, 0
3, 6605, Note_on_c, 1, 71, 64
3, 6657, Note_on_c, 1, 71, 0
3, 6665, Note_on_c, 1, 70, 64
3, 6717, Note_on_c, 1, 70, 0
3, 6725, Note_on_c, 1, 75, 64
3, 6777, Note_on_c, 1, 75, 0
3, 6785, Note_on_c, 1, 63, 64
3, 6837, Note_on_c, 1, 63, 0
3, 6845, Note_on_c, 1, 68, 64
3, 6897, Note_on_c, 1, 68, 0
3, 6905, Note_on_c, 1, 71, 64
3, 6957, Note_on_c, 1, 71, 0
3, 6965, Note_on_c, 1, 70, 64
3, 7017, Note_on_c, 1, 70, 0
3, 7025, Note_on_c, 1, 71, 64
3, 7077, Note_on_c, 1, 71, 0
3, 7085, Note_on_c, 1, 70, 64
3, 7137, Note_on_c, 1, 70, 0
3, 7145, Note_on_c, 1, 68, 64
3, 7197, Note_on_c, 1, 68, 0
3, 7205, Note_on_c, 1, 70, 64
3, 7257, Note_on_c, 1, 70, 0
3, 7265, Note_on_c, 1, 71, 64
3, 7317, Note_on_c, 1, 71, 0
3, 7325, Note_on_c, 1, 73, 64
3, 7377, Note_on_c, 1, 73, 0
3, 7385, Note_on_c, 1, 71, 64
3, 7437, Note_on_c, 1, 71, 0
3, 7445, Note_on_c, 1, 76, 64
3, 7497, Note_on_c, 1, 76, 0
3, 7505, Note_on_c, 1, 68, 64
3, 7557, Note_on_c, 1, 68, 0
3, 7565, Note_on_c, 1, 70, 64
3, 7617, Note_on_c, 1, 70, 0
3, 7625, Note_on_c, 1, 73, 64
3, 7677, Note_on_c, 1, 73, 0
3, 7685, Note_on_c, 1, 71, 64
3, 7737, Note_on_c, 1, 71, 0
3, 7745, Note_on_c, 1, 73, 64
3, 7797, Note_on_c, 1, 73, 0
3, 7805, Note_on_c, 1, 71, 64
3, 7857, Note_on_c, 1, 71, 0
3, 7865, Note_on_c, 1, 70, 64
3, 7917, Note_on_c, 1, 70, 0
3, 7925, Note_on_c, 1, 71, 64
3, 7977, Note_on_c, 1, 71, 0
3, 7985, Note_on_c, 1, 59, 64
3, 8037, Note_on_c, 1, 59, 0
3, 8045, Note_on_c, 1, 64, 64
3, 8157, Note_on_c, 1, 64, 0
3, 8165, Note_on_c, 1, 61, 64
3, 8217, Note_on_c, 1, 61, 0
3, 8225, Note_on_c, 1, 63, 64
3, 8277, Note_on_c, 1, 63, 0
3, 8285, Note_on_c, 1, 56, 64
3, 8450, Note_on_c, 1, 56, 0
3, 8765, Note_on_c, 1, 69, 64
3, 8817, Note_on_c, 1, 69, 0
3, 8825, Note_on_c, 1, 66, 64
3, 8930, Note_on_c, 1, 66, 0
3, 8945, Note_on_c, 1, 68, 64
3, 8997, Note_on_c, 1, 68, 0
3, 9005, Note_on_c, 1, 64, 64
3, 9170, Note_on_c, 1, 64, 0
3, 9185, Note_on_c, 1, 63, 64
3, 9350, Note_on_c, 1, 63, 0
3, 9365, Note_on_c, 1, 65, 64
3, 9417, Note_on_c, 1, 65, 0
3, 9425, Note_on_c, 1, 67, 64
3, 9477, Note_on_c, 1, 67, 0
3, 9485, Note_on_c, 1, 68, 64
3, 9537, Note_on_c, 1, 68, 0
3, 9545, Note_on_c, 1, 70, 64
3, 9777, Note_on_c, 1, 70, 0
3, 9785, Note_on_c, 1, 68, 64
3, 9837, Note_on_c, 1, 68, 0
3, 9845, Note_on_c, 1, 66, 64
3, 9897, Note_on_c, 1, 66, 0
3, 9905, Note_on_c, 1, 65, 64
3, 9957, Note_on_c, 1, 65, 0
3, 9965, Note_on_c, 1, 68, 64
3, 10017, Note_on_c, 1, 68, 0
3, 10025, Note_on_c, 1, 63, 64
3, 10077, Note_on_c, 1, 63, 0
3, 10085, Note_on_c, 1, 62, 64
3, 10137, Note_on_c, 1, 62, 0
3, 10145, Note_on_c, 1, 63, 64
3, 10197, Note_on_c, 1, 63, 0
3, 10205, Note_on_c, 1, 65, 64
3, 10257, Note_on_c, 1, 65, 0
3, 10265, Note_on_c, 1, 66, 64
3, 10497, Note_on_c, 1, 66, 0
3, 10505, Note_on_c, 1, 68, 64
3, 10557, Note_on_c, 1, 68, 0
3, 10565, Note_on_c, 1, 70, 64
3, 10617, Note_on_c, 1, 70, 0
3, 10625, Note_on_c, 1, 68, 64
3, 10970, Note_on_c, 1, 68, 0
3, 10985, Note_on_c, 1, 66, 64
3, 11037, Note_on_c, 1, 66, 0
3, 11045, Note_on_c, 1, 70, 64
3, 11097, Note_on_c, 1, 70, 0
3, 11105, Note_on_c, 1, 63, 64
3, 11157, Note_on_c, 1, 63, 0
3, 11165, Note_on_c, 1, 65, 64
3, 11217, Note_on_c, 1, 65, 0
3, 11225, Note_on_c, 1, 66, 64
3, 11277, Note_on_c, 1, 66, 0
3, 11285, Note_on_c, 1, 68, 64
3, 11397, Note_on_c, 1, 68, 0
3, 11405, Note_on_c, 1, 70, 64
3, 11457, Note_on_c, 1, 70, 0
3, 11465, Note_on_c, 1, 65, 64
3, 11517, Note_on_c, 1, 65, 0
3, 11525, Note_on_c, 1, 66, 64
3, 11577, Note_on_c, 1, 66, 0
3, 11585, Note_on_c, 1, 65, 64
3, 11637, Note_on_c, 1, 65, 0
3, 11645, Note_on_c, 1, 63, 64
3, 11757, Note_on_c, 1, 63, 0
3, 11765, Note_on_c, 1, 62, 64
3, 11817, Note_on_c, 1, 62, 0
3, 11825, Note_on_c, 1, 65, 64
3, 11937, Note_on_c, 1, 65, 0
3, 11945, Note_on_c, 1, 63, 64
3, 11997, Note_on_c, 1, 63, 0
3, 12005, Note_on_c, 1, 62, 64
3, 12057, Note_on_c, 1, 62, 0
3, 12065, Note_on_c, 1, 63, 64
3, 12170, Note_on_c, 1, 63, 0
3, 12185, Note_on_c, 1, 71, 64
3, 12237, Note_on_c, 1, 71, 0
3, 12245, Note_on_c, 1, 61, 64
3, 12350, Note_on_c, 1, 61, 0
3, 12365, Note_on_c, 1, 71, 64
3, 12417, Note_on_c, 1, 71, 0
3, 12425, Note_on_c, 1, 70, 64
3, 12477, Note_on_c, 1, 70, 0
3, 12485, Note_on_c, 1, 68, 64
3, 12537, Note_on_c, 1, 68, 0
3, 12545, Note_on_c, 1, 66, 64
3, 12597, Note_on_c, 1, 66, 0
3, 12605, Note_on_c, 1, 68, 64
3, 12657, Note_on_c, 1, 68, 0
3, 12665, Note_on_c, 1, 59, 64
3, 12717, Note_on_c, 1, 59, 0
3, 12725, Note_on_c, 1, 58, 64
3, 12777, Note_on_c, 1, 58, 0
3, 12785, Note_on_c, 1, 59, 64
3, 12837, Note_on_c, 1, 59, 0
3, 12845, Note_on_c, 1, 68, 64
3, 12897, Note_on_c, 1, 68, 0
3, 12905, Note_on_c, 1, 59, 64
3, 12957, Note_on_c, 1, 59, 0
3, 12965, Note_on_c, 1, 58, 64
3, 13070, Note_on_c, 1, 58, 0
3, 13085, Note_on_c, 1, 60, 64
3, 13137, Note_on_c, 1, 60, 0
3, 13145, Note_on_c, 1, 61, 64
3, 13490, Note_on_c, 1, 61, 0
3, 13505, Note_on_c, 1, 60, 64
3, 13670, Note_on_c, 1, 60, 0
3, 13685, Note_on_c, 1, 61, 64
3, 13790, Note_on_c, 1, 61, 0
3, 13925, Note_on_c, 1, 63, 64
3, 13977, Note_on_c, 1, 63, 0
3, 13985, Note_on_c, 1, 68, 64
3, 14037, Note_on_c, 1, 68, 0
3, 14045, Note_on_c, 1, 61, 64
3, 14097, Note_on_c, 1, 61, 0
3, 14105, Note_on_c, 1, 64, 64
3, 14157, Note_on_c, 1, 64, 0
3, 14165, Note_on_c, 1, 63, 64
3, 14217, Note_on_c, 1, 63, 0
3, 14225, Note_on_c, 1, 64, 64
3, 14277, Note_on_c, 1, 64, 0
3, 14285, Note_on_c, 1, 63, 64
3, 14337, Note_on_c, 1, 63, 0
3, 14345, Note_on_c, 1, 61, 64
3, 14397, Note_on_c, 1, 61, 0
3, 14405, Note_on_c, 1, 63, 64
3, 14510, Note_on_c, 1, 63, 0
3, 14525, Note_on_c, 1, 68, 64
3, 14577, Note_on_c, 1, 68, 0
3, 14585, Note_on_c, 1, 65, 64
3, 14690, Note_on_c, 1, 65, 0
3, 14705, Note_on_c, 1, 67, 64
3, 14757, Note_on_c, 1, 67, 0
3, 14765, Note_on_c, 1, 71, 64
3, 14930, Note_on_c, 1, 71, 0
3, 14945, Note_on_c, 1, 70, 64
3, 15110, Note_on_c, 1, 70, 0
3, 15125, Note_on_c, 1, 63, 64
3, 15230, Note_on_c, 1, 63, 0
3, 15245, Note_on_c, 1, 62, 64
3, 15297, Note_on_c, 1, 62, 0
3, 15305, Note_on_c, 1, 63, 64
3, 15410, Note_on_c, 1, 63, 0
3, 15425, Note_on_c, 1, 68, 64
3, 15477, Note_on_c, 1, 68, 0
3, 15485, Note_on_c, 1, 66, 64
3, 15650, Note_on_c, 1, 66, 0
3, 15665, Note_on_c, 1, 65, 64
3, 15830, Note_on_c, 1, 65, 0
3, 15845, Note_on_c, 1, 63, 64
3, 15897, Note_on_c, 1, 63, 0
3, 15905, Note_on_c, 1, 62, 64
3, 15957, Note_on_c, 1, 62, 0
3, 15965, Note_on_c, 1, 60, 64
3, 16017, Note_on_c, 1, 60, 0
3, 16025, Note_on_c, 1, 62, 64
3, 16077, Note_on_c, 1, 62, 0
3, 16085, Note_on_c, 1, 66, 64
3, 16257, Note_on_c, 1, 66, 0
3, 16265, Note_on_c, 1, 63, 64
3, 16317, Note_on_c, 1, 63, 0
3, 16325, Note_on_c, 1, 62, 64
3, 16377, Note_on_c, 1, 62, 0
3, 16385, Note_on_c, 1, 63, 64
3, 16437, Note_on_c, 1, 63, 0
3, 16445, Note_on_c, 1, 68, 64
3, 16670, Note_on_c, 1, 68, 0
3, 16685, Note_on_c, 1, 65, 64
3, 16737, Note_on_c, 1, 65, 0
3, 16745, Note_on_c, 1, 61, 64
3, 16797, Note_on_c, 1, 61, 0
3, 16805, Note_on_c, 1, 63, 64
3, 16857, Note_on_c, 1, 63, 0
3, 16865, Note_on_c, 1, 66, 64
3, 16917, Note_on_c, 1, 66, 0
3, 16925, Note_on_c, 1, 71, 64
3, 17090, Note_on_c, 1, 71, 0
3, 17105, Note_on_c, 1, 70, 64
3, 17337, Note_on_c, 1, 70, 0
3, 17345, Note_on_c, 1, 73, 64
3, 17517, Note_on_c, 1, 73, 0
3, 17525, Note_on_c, 1, 70, 64
3, 17577, Note_on_c, 1, 70, 0
3, 17585, Note_on_c, 1, 72, 64
3, 17637, Note_on_c, 1, 72, 0
3, 17645, Note_on_c, 1, 73, 64
3, 17697, Note_on_c, 1, 73, 0
3, 17705, Note_on_c, 1, 71, 64
3, 17877, Note_on_c, 1, 71, 0
3, 17885, Note_on_c, 1, 68, 64
3, 17937, Note_on_c, 1, 68, 0
3, 17945, Note_on_c, 1, 70, 64
3, 17997, Note_on_c, 1, 70, 0
3, 18005, Note_on_c, 1, 71, 64
3, 18170, Note_on_c, 1, 71, 0
3, 18185, Note_on_c, 1, 70, 64
3, 18417, Note_on_c, 1, 70, 0
3, 18425, Note_on_c, 1, 63, 64
3, 18477, Note_on_c, 1, 63, 0
3, 18485, Note_on_c, 1, 68, 64
3, 18537, Note_on_c, 1, 68, 0
3, 18545, Note_on_c, 1, 64, 64
3, 18777, Note_on_c, 1, 64, 0
3, 18785, Note_on_c, 1, 63, 64
3, 18837, Note_on_c, 1, 63, 0
3, 18845, Note_on_c, 1, 61, 64
3, 18897, Note_on_c, 1, 61, 0
3, 18905, Note_on_c, 1, 59, 64
3, 19070, Note_on_c, 1, 59, 0
3, 19085, Note_on_c, 1, 58, 64
3, 19137, Note_on_c, 1, 58, 0
3, 19145, Note_on_c, 1, 61, 64
3, 19197, Note_on_c, 1, 61, 0
3, 19205, Note_on_c, 1, 64, 64
3, 19317, Note_on_c, 1, 64, 0
3, 19325, Note_on_c, 1, 63, 64
3, 19377, Note_on_c, 1, 63, 0
3, 19385, Note_on_c, 1, 61, 64
3, 19437, Note_on_c, 1, 61, 0
3, 19445, Note_on_c, 1, 59, 64
3, 19497, Note_on_c, 1, 59, 0
3, 19505, Note_on_c, 1, 58, 64
3, 19557, Note_on_c, 1, 58, 0
3, 19565, Note_on_c, 1, 56, 64
3, 19730, Note_on_c, 1, 56, 0
3, 19745, Note_on_c, 1, 55, 64
3, 19797, Note_on_c, 1, 55, 0
3, 19805, Note_on_c, 1, 56, 64
3, 19910, Note_on_c, 1, 56, 0
3, 19925, Note_on_c, 1, 63, 64
3, 19977, Note_on_c, 1, 63, 0
3, 19985, Note_on_c, 1, 68, 64
3, 20270, Note_on_c, 1, 68, 0
3, 20285, Note_on_c, 1, 67, 64
3, 20337, Note_on_c, 1, 67, 0
3, 20345, Note_on_c, 1, 68, 64
3, 20630, Note_on_c, 1, 68, 0
3, 20645, Note_on_c, 1, 68, 64
3, 20697, Note_on_c, 1, 68, 0
3, 20705, Note_on_c, 1, 67, 64
3, 20810, Note_on_c, 1, 67, 0
3, 21005, Note_on_c, 1, 70, 64
3, 21057, Note_on_c, 1, 70, 0
3, 21065, Note_on_c, 1, 71, 64
3, 21170, Note_on_c, 1, 71, 0
3, 21185, Note_on_c, 1, 67, 64
3, 21237, Note_on_c, 1, 67, 0
3, 21245, Note_on_c, 1, 68, 64
3, 21297, Note_on_c, 1, 68, 0
3, 21305, Note_on_c, 1, 70, 64
3, 21357, Note_on_c, 1, 70, 0
3, 21365, Note_on_c, 1, 71, 64
3, 21477, Note_on_c, 1, 71, 0
3, 21485, Note_on_c, 1, 70, 64
3, 21537, Note_on_c, 1, 70, 0
3, 21545, Note_on_c, 1, 68, 64
3, 21657, Note_on_c, 1, 68, 0
3, 21665, Note_on_c, 1, 67, 64
3, 21717, Note_on_c, 1, 67, 0
3, 23525, Note_on_c, 1, 68, 64
3, 23577, Note_on_c, 1, 68, 0
3, 23585, Note_on_c, 1, 67, 64
3, 23690, Note_on_c, 1, 67, 0
3, 23705, Note_on_c, 1, 66, 64
3, 23757, Note_on_c, 1, 66, 0
3, 23765, Note_on_c, 1, 65, 64
3, 23870, Note_on_c, 1, 65, 0
3, 23885, Note_on_c, 1, 64, 64
3, 23937, Note_on_c, 1, 64, 0
3, 23945, Note_on_c, 1, 63, 64
3, 24050, Note_on_c, 1, 63, 0
3, 24065, Note_on_c, 1, 65, 64
3, 24117, Note_on_c, 1, 65, 0
3, 24125, Note_on_c, 1, 66, 64
3, 24230, Note_on_c, 1, 66, 0
3, 24245, Note_on_c, 1, 67, 64
3, 24297, Note_on_c, 1, 67, 0
3, 24305, Note_on_c, 1, 68, 64
3, 24650, Note_on_c, 1, 68, 0
3, 24665, Note_on_c, 1, 68, 64
3, 24693, Note_on_c, 1, 67, 64
3, 24700, Note_on_c, 1, 68, 0
3, 24701, Note_on_c, 1, 68, 64
3, 24708, Note_on_c, 1, 67, 0
3, 24709, Note_on_c, 1, 67, 64
3, 24716, Note_on_c, 1, 68, 0
3, 24717, Note_on_c, 1, 68, 64
3, 24724, Note_on_c, 1, 67, 0
3, 24725, Note_on_c, 1, 67, 64
3, 24732, Note_on_c, 1, 68, 0
3, 24844, Note_on_c, 1, 67, 0
3, 24845, Note_on_c, 1, 68, 64
3, 24950, Note_on_c, 1, 68, 0
3, 24965, Note_on_c, 1, 66, 64
3, 25017, Note_on_c, 1, 66, 0
3, 25025, Note_on_c, 1, 64, 64
3, 25130, Note_on_c, 1, 64, 0
3, 25145, Note_on_c, 1, 63, 64
3, 25197, Note_on_c, 1, 63, 0
3, 25205, Note_on_c, 1, 61, 64
3, 25257, Note_on_c, 1, 61, 0
3, 25265, Note_on_c, 1, 64, 64
3, 25317, Note_on_c, 1, 64, 0
3, 25325, Note_on_c, 1, 69, 64
3, 25437, Note_on_c, 1, 69, 0
3, 25445, Note_on_c, 1, 68, 64
3, 25471, Note_on_c, 1, 68, 0
3, 25475, Note_on_c, 1, 66, 64
3, 25501, Note_on_c, 1, 66, 0
3, 25505, Note_on_c, 1, 68, 64
3, 25617, Note_on_c, 1, 68, 0
3, 25625, Note_on_c, 1, 61, 64
3, 25677, Note_on_c, 1, 61, 0
3, 25685, Note_on_c, 1, 66, 64
3, 25797, Note_on_c, 1, 66, 0
3, 25805, Note_on_c, 1, 64, 64
3, 25831, Note_on_c, 1, 64, 0
3, 25835, Note_on_c, 1, 63, 64
3, 25861, Note_on_c, 1, 63, 0
3, 25865, Note_on_c, 1, 64, 64
3, 25917, Note_on_c, 1, 64, 0
3, 25925, Note_on_c, 1, 63, 64
3, 25977, Note_on_c, 1, 63, 0
3, 25985, Note_on_c, 1, 68, 64
3, 26037, Note_on_c, 1, 68, 0
3, 26045, Note_on_c, 1, 66, 64
3, 26097, Note_on_c, 1, 66, 0
3, 26105, Note_on_c, 1, 64, 64
3, 26157, Note_on_c, 1, 64, 0
3, 26165, Note_on_c, 1, 69, 64
3, 26217, Note_on_c, 1, 69, 0
3, 26225, Note_on_c, 1, 68, 64
3, 26277, Note_on_c, 1, 68, 0
3, 26285, Note_on_c, 1, 66, 64
3, 26337, Note_on_c, 1, 66, 0
3, 26345, Note_on_c, 1, 68, 64
3, 26397, Note_on_c, 1, 68, 0
3, 26405, Note_on_c, 1, 69, 64
3, 26457, Note_on_c, 1, 69, 0
3, 26465, Note_on_c, 1, 63, 64
3, 26517, Note_on_c, 1, 63, 0
3, 26525, Note_on_c, 1, 68, 64
3, 26577, Note_on_c, 1, 68, 0
3, 26585, Note_on_c, 1, 66, 64
3, 26637, Note_on_c, 1, 66, 0
3, 26645, Note_on_c, 1, 64, 64
3, 27057, Note_on_c, 1, 64, 0
3, 27065, Note_on_c, 1, 61, 64
3, 27117, Note_on_c, 1, 61, 0
3, 27125, Note_on_c, 1, 66, 64
3, 27237, Note_on_c, 1, 66, 0
3, 27245, Note_on_c, 1, 64, 64
3, 27271, Note_on_c, 1, 64, 0
3, 27275, Note_on_c, 1, 63, 64
3, 27301, Note_on_c, 1, 63, 0
3, 27305, Note_on_c, 1, 64, 64
3, 27357, Note_on_c, 1, 64, 0
3, 27365, Note_on_c, 1, 63, 64
3, 27530, Note_on_c, 1, 63, 0
3, 27545, Note_on_c, 1, 64, 64
3, 27710, Note_on_c, 1, 64, 0
3, 27725, Note_on_c, 1, 63, 64
3, 27890, Note_on_c, 1, 63, 0
3, 27905, Note_on_c, 1, 61, 64
3, 28070, Note_on_c, 1, 61, 0
3, 28085, Note_on_c, 1, 59, 64
3, 28190, Note_on_c, 1, 59, 0
3, 28205, Note_on_c, 1, 61, 64
3, 28317, Note_on_c, 1, 61, 0
3, 28325, Note_on_c, 1, 58, 64
3, 28377, Note_on_c, 1, 58, 0
3, 28385, Note_on_c, 1, 60, 64
3, 28437, Note_on_c, 1, 60, 0
3, 28445, Note_on_c, 1, 61, 64
3, 28677, Note_on_c, 1, 61, 0
3, 28685, Note_on_c, 1, 59, 64
3, 28857, Note_on_c, 1, 59, 0
3, 28865, Note_on_c, 1, 58, 64
3, 28970, Note_on_c, 1, 58, 0
3, 29045, Note_on_c, 1, 51, 64
3, 29097, Note_on_c, 1, 51, 0
3, 29105, Note_on_c, 1, 54, 64
3, 29217, Note_on_c, 1, 54, 0
3, 29225, Note_on_c, 1, 53, 64
3, 29277, Note_on_c, 1, 53, 0
3, 29285, Note_on_c, 1, 59, 64
3, 29397, Note_on_c, 1, 59, 0
3, 29405, Note_on_c, 1, 58, 64
3, 29431, Note_on_c, 1, 58, 0
3, 29435, Note_on_c, 1, 56, 64
3, 29461, Note_on_c, 1, 56, 0
3, 29465, Note_on_c, 1, 58, 64
3, 29491, Note_on_c, 1, 58, 0
3, 29495, Note_on_c, 1, 55, 64
3, 29521, Note_on_c, 1, 55, 0
3, 29525, Note_on_c, 1, 56, 64
3, 29630, Note_on_c, 1, 56, 0
3, 29645, Note_on_c, 1, 60, 64
3, 29697, Note_on_c, 1, 60, 0
3, 29705, Note_on_c, 1, 65, 64
3, 29810, Note_on_c, 1, 65, 0
3, 29945, Note_on_c, 1, 70, 64
3, 29997, Note_on_c, 1, 70, 0
3, 30005, Note_on_c, 1, 72, 64
3, 30057, Note_on_c, 1, 72, 0
3, 30065, Note_on_c, 1, 73, 64
3, 30170, Note_on_c, 1, 73, 0
3, 30185, Note_on_c, 1, 74, 64
3, 30237, Note_on_c, 1, 74, 0
3, 30245, Note_on_c, 1, 75, 64
3, 30477, Note_on_c, 1, 75, 0
3, 30485, Note_on_c, 1, 75, 64
3, 30537, Note_on_c, 1, 75, 0
3, 30545, Note_on_c, 1, 73, 64
3, 30597, Note_on_c, 1, 73, 0
3, 30605, Note_on_c, 1, 72, 64
3, 30710, Note_on_c, 1, 72, 0
3, 30725, Note_on_c, 1, 73, 64
3, 30777, Note_on_c, 1, 73, 0
3, 30785, Note_on_c, 1, 75, 64
3, 31017, Note_on_c, 1, 75, 0
3, 31025, Note_on_c, 1, 73, 64
3, 31197, Note_on_c, 1, 73, 0
3, 31205, Note_on_c, 1, 70, 64
3, 31257, Note_on_c, 1, 70, 0
3, 31265, Note_on_c, 1, 71, 64
3, 31317, Note_on_c, 1, 71, 0
3, 31325, Note_on_c, 1, 70, 64
3, 31430, Note_on_c, 1, 70, 0
3, 31445, Note_on_c, 1, 71, 64
3, 31497, Note_on_c, 1, 71, 0
3, 31505, Note_on_c, 1, 73, 64
3, 31737, Note_on_c, 1, 73, 0
3, 31745, Note_on_c, 1, 71, 64
3, 31797, Note_on_c, 1, 71, 0
3, 31805, Note_on_c, 1, 70, 64
3, 31917, Note_on_c, 1, 70, 0
3, 31925, Note_on_c, 1, 66, 64
3, 31977, Note_on_c, 1, 66, 0
3, 31985, Note_on_c, 1, 68, 64
3, 32097, Note_on_c, 1, 68, 0
3, 32105, Note_on_c, 1, 66, 64
3, 32457, Note_on_c, 1, 66, 0
3, 32465, Note_on_c, 1, 65, 64
3, 32517, Note_on_c, 1, 65, 0
3, 32525, Note_on_c, 1, 67, 64
3, 32577, Note_on_c, 1, 67, 0
3, 32585, Note_on_c, 1, 68, 64
3, 32611, Note_on_c, 1, 68, 0
3, 32615, Note_on_c, 1, 70, 64
3, 32641, Note_on_c, 1, 70, 0
3, 32645, Note_on_c, 1, 71, 64
3, 32697, Note_on_c, 1, 71, 0
3, 32705, Note_on_c, 1, 70, 64
3, 32757, Note_on_c, 1, 70, 0
3, 32765, Note_on_c, 1, 63, 64
3, 32930, Note_on_c, 1, 63, 0
3, 32945, Note_on_c, 1, 68, 64
3, 33177, Note_on_c, 1, 68, 0
3, 33185, Note_on_c, 1, 67, 64
3, 33237, Note_on_c, 1, 67, 0
3, 33245, Note_on_c, 1, 75, 64
3, 33357, Note_on_c, 1, 75, 0
3, 33365, Note_on_c, 1, 73, 64
3, 33537, Note_on_c, 1, 73, 0
3, 33545, Note_on_c, 1, 71, 64
3, 33717, Note_on_c, 1, 71, 0
3, 33725, Note_on_c, 1, 70, 64
3, 33897, Note_on_c, 1, 70, 0
3, 33905, Note_on_c, 1, 68, 64
3, 33931, Note_on_c, 1, 68, 0
3, 33935, Note_on_c, 1, 66, 64
3, 33961, Note_on_c, 1, 66, 0
3, 33965, Note_on_c, 1, 64, 64
3, 33991, Note_on_c, 1, 64, 0
3, 33995, Note_on_c, 1, 63, 64
3, 34021, Note_on_c, 1, 63, 0
3, 34025, Note_on_c, 1, 61, 64
3, 34310, Note_on_c, 1, 61, 0
3, 34325, Note_on_c, 1, 59, 64
3, 34377, Note_on_c, 1, 59, 0
3, 34385, Note_on_c, 1, 58, 64
3, 34411, Note_on_c, 1, 58, 0
3, 34415, Note_on_c, 1, 56, 64
3, 34441, Note_on_c, 1, 56, 0
3, 34445, Note_on_c, 1, 58, 64
3, 34497, Note_on_c, 1, 58, 0
3, 34505, Note_on_c, 1, 51, 64
3, 34557, Note_on_c, 1, 51, 0
3, 34565, Note_on_c, 1, 56, 64
3, 34670, Note_on_c, 1, 56, 0
3, 34685, Note_on_c, 1, 68, 64
3, 34737, Note_on_c, 1, 68, 0
3, 34745, Note_on_c, 1, 67, 64
3, 34850, Note_on_c, 1, 67, 0
3, 34865, Note_on_c, 1, 66, 64
3, 34917, Note_on_c, 1, 66, 0
3, 34925, Note_on_c, 1, 65, 64
3, 35030, Note_on_c, 1, 65, 0
3, 35045, Note_on_c, 1, 64, 64
3, 35097, Note_on_c, 1, 64, 0
3, 35105, Note_on_c, 1, 63, 64
3, 35210, Note_on_c, 1, 63, 0
3, 35225, Note_on_c, 1, 65, 64
3, 35277, Note_on_c, 1, 65, 0
3, 35285, Note_on_c, 1, 66, 64
3, 35390, Note_on_c, 1, 66, 0
3, 35405, Note_on_c, 1, 67, 64
3, 35457, Note_on_c, 1, 67, 0
3, 35465, Note_on_c, 1, 68, 64
3, 35810, Note_on_c, 1, 68, 0
3, 35825, Note_on_c, 1, 67, 64
3, 35990, Note_on_c, 1, 67, 0
3, 36005, Note_on_c, 1, 68, 64
3, 36057, Note_on_c, 1, 68, 0
3, 36065, Note_on_c, 1, 71, 64
3, 36117, Note_on_c, 1, 71, 0
3, 36125, Note_on_c, 1, 63, 64
3, 36177, Note_on_c, 1, 63, 0
3, 36185, Note_on_c, 1, 64, 64
3, 36237, Note_on_c, 1, 64, 0
3, 36245, Note_on_c, 1, 63, 64
3, 36297, Note_on_c, 1, 63, 0
3, 36305, Note_on_c, 1, 61, 64
3, 36357, Note_on_c, 1, 61, 0
3, 36365, Note_on_c, 1, 59, 64
3, 36391, Note_on_c, 1, 59, 0
3, 36395, Note_on_c, 1, 63, 64
3, 36421, Note_on_c, 1, 63, 0
3, 36425, Note_on_c, 1, 68, 64
3, 36477, Note_on_c, 1, 68, 0
3, 36485, Note_on_c, 1, 66, 64
3, 36537, Note_on_c, 1, 66, 0
3, 36545, Note_on_c, 1, 65, 64
3, 36597, Note_on_c, 1, 65, 0
3, 36605, Note_on_c, 1, 70, 64
3, 36657, Note_on_c, 1, 70, 0
3, 36665, Note_on_c, 1, 68, 64
3, 36717, Note_on_c, 1, 68, 0
3, 36725, Note_on_c, 1, 66, 64
3, 36830, Note_on_c, 1, 66, 0
3, 36845, Note_on_c, 1, 63, 64
3, 36897, Note_on_c, 1, 63, 0
3, 36905, Note_on_c, 1, 62, 64
3, 37010, Note_on_c, 1, 62, 0
3, 37025, Note_on_c, 1, 61, 64
3, 37077, Note_on_c, 1, 61, 0
3, 37085, Note_on_c, 1, 60, 64
3, 37190, Note_on_c, 1, 60, 0
3, 37205, Note_on_c, 1, 59, 64
3, 37257, Note_on_c, 1, 59, 0
3, 37265, Note_on_c, 1, 58, 64
3, 37370, Note_on_c, 1, 58, 0
3, 37385, Note_on_c, 1, 60, 64
3, 37437, Note_on_c, 1, 60, 0
3, 37445, Note_on_c, 1, 61, 64
3, 37550, Note_on_c, 1, 61, 0
3, 37565, Note_on_c, 1, 62, 64
3, 37617, Note_on_c, 1, 62, 0
3, 37625, Note_on_c, 1, 63, 64
3, 37970, Note_on_c, 1, 63, 0
3, 37985, Note_on_c, 1, 62, 64
3, 38150, Note_on_c, 1, 62, 0
3, 38165, Note_on_c, 1, 63, 64
3, 38217, Note_on_c, 1, 63, 0
3, 38225, Note_on_c, 1, 70, 64
3, 38277, Note_on_c, 1, 70, 0
3, 38285, Note_on_c, 1, 75, 64
3, 38397, Note_on_c, 1, 75, 0
3, 38405, Note_on_c, 1, 73, 64
3, 38431, Note_on_c, 1, 73, 0
3, 38435, Note_on_c, 1, 71, 64
3, 38461, Note_on_c, 1, 71, 0
3, 38465, Note_on_c, 1, 73, 64
3, 38577, Note_on_c, 1, 73, 0
3, 38585, Note_on_c, 1, 66, 64
3, 38637, Note_on_c, 1, 66, 0
3, 38645, Note_on_c, 1, 71, 64
3, 38757, Note_on_c, 1, 71, 0
3, 38765, Note_on_c, 1, 70, 64
3, 38791, Note_on_c, 1, 70, 0
3, 38795, Note_on_c, 1, 68, 64
3, 38821, Note_on_c, 1, 68, 0
3, 38825, Note_on_c, 1, 70, 64
3, 38877, Note_on_c, 1, 70, 0
3, 38885, Note_on_c, 1, 71, 64
3, 39050, Note_on_c, 1, 71, 0
3, 39065, Note_on_c, 1, 70, 64
3, 39170, Note_on_c, 1, 70, 0
3, 39185, Note_on_c, 1, 69, 64
3, 39237, Note_on_c, 1, 69, 0
3, 39245, Note_on_c, 1, 68, 64
3, 39410, Note_on_c, 1, 68, 0
3, 39425, Note_on_c, 1, 67, 64
3, 39530, Note_on_c, 1, 67, 0
3, 39545, Note_on_c, 1, 66, 64
3, 39597, Note_on_c, 1, 66, 0
3, 39605, Note_on_c, 1, 64, 64
3, 39657, Note_on_c, 1, 64, 0
3, 39665, Note_on_c, 1, 66, 64
3, 39717, Note_on_c, 1, 66, 0
3, 39725, Note_on_c, 1, 68, 64
3, 39777, Note_on_c, 1, 68, 0
3, 39785, Note_on_c, 1, 66, 64
3, 39837, Note_on_c, 1, 66, 0
3, 39845, Note_on_c, 1, 71, 64
3, 39897, Note_on_c, 1, 71, 0
3, 39905, Note_on_c, 1, 59, 64
3, 39957, Note_on_c, 1, 59, 0
3, 39965, Note_on_c, 1, 64, 64
3, 40017, Note_on_c, 1, 64, 0
3, 40025, Note_on_c, 1, 68, 64
3, 40077, Note_on_c, 1, 68, 0
3, 40085, Note_on_c, 1, 66, 64
3, 40137, Note_on_c, 1, 66, 0
3, 40145, Note_on_c, 1, 68, 64
3, 40197, Note_on_c, 1, 68, 0
3, 40205, Note_on_c, 1, 66, 64
3, 40257, Note_on_c, 1, 66, 0
3, 40265, Note_on_c, 1, 64, 64
3, 40317, Note_on_c, 1, 64, 0
3, 40325, Note_on_c, 1, 66, 64
3, 40377, Note_on_c, 1, 66, 0
3, 40385, Note_on_c, 1, 68, 64
3, 40437, Note_on_c, 1, 68, 0
3, 40445, Note_on_c, 1, 69, 64
3, 40497, Note_on_c, 1, 69, 0
3, 40505, Note_on_c, 1, 68, 64
3, 40557, Note_on_c, 1, 68, 0
3, 40565, Note_on_c, 1, 73, 64
3, 40617, Note_on_c, 1, 73, 0
3, 40625, Note_on_c, 1, 64, 64
3, 40677, Note_on_c, 1, 64, 0
3, 40685, Note_on_c, 1, 66, 64
3, 40737, Note_on_c, 1, 66, 0
3, 40745, Note_on_c, 1, 69, 64
3, 40797, Note_on_c, 1, 69, 0
3, 40805, Note_on_c, 1, 68, 64
3, 40857, Note_on_c, 1, 68, 0
3, 40865, Note_on_c, 1, 69, 64
3, 40917, Note_on_c, 1, 69, 0
3, 40925, Note_on_c, 1, 68, 64
3, 40977, Note_on_c, 1, 68, 0
3, 40985, Note_on_c, 1, 66, 64
3, 41037, Note_on_c, 1, 66, 0
3, 41045, Note_on_c, 1, 68, 64
3, 41150, Note_on_c, 1, 68, 0
3, 41165, Note_on_c, 1, 68, 64
3, 41217, Note_on_c, 1, 68, 0
3, 41225, Note_on_c, 1, 67, 64
3, 41330, Note_on_c, 1, 67, 0
3, 41345, Note_on_c, 1, 66, 64
3, 41397, Note_on_c, 1, 66, 0
3, 41405, Note_on_c, 1, 65, 64
3, 41510, Note_on_c, 1, 65, 0
3, 41525, Note_on_c, 1, 64, 64
3, 41577, Note_on_c, 1, 64, 0
3, 41585, Note_on_c, 1, 63, 64
3, 41817, Note_on_c, 1, 63, 0
3, 41825, Note_on_c, 1, 61, 64
3, 41877, Note_on_c, 1, 61, 0
3, 41885, Note_on_c, 1, 69, 64
3, 41997, Note_on_c, 1, 69, 0
3, 42005, Note_on_c, 1, 68, 64
3, 42031, Note_on_c, 1, 68, 0
3, 42035, Note_on_c, 1, 66, 64
3, 42061, Note_on_c, 1, 66, 0
3, 42065, Note_on_c, 1, 68, 64
3, 42177, Note_on_c, 1, 68, 0
3, 42185, Note_on_c, 1, 61, 64
3, 42237, Note_on_c, 1, 61, 0
3, 42245, Note_on_c, 1, 66, 64
3, 42357, Note_on_c, 1, 66, 0
3, 42365, Note_on_c, 1, 65, 64
3, 42391, Note_on_c, 1, 65, 0
3, 42395, Note_on_c, 1, 63, 64
3, 42421, Note_on_c, 1, 63, 0
3, 42425, Note_on_c, 1, 65, 64
3, 42477, Note_on_c, 1, 65, 0
3, 42485, Note_on_c, 1, 66, 64
3, 42717, Note_on_c, 1, 66, 0
3, 42725, Note_on_c, 1, 65, 64
3, 42777, Note_on_c, 1, 65, 0
3, 42785, Note_on_c, 1, 67, 64
3, 42837, Note_on_c, 1, 67, 0
3, 42845, Note_on_c, 1, 68, 64
3, 43077, Note_on_c, 1, 68, 0
3, 43085, Note_on_c, 1, 67, 64
3, 43137, Note_on_c, 1, 67, 0
3, 43145, Note_on_c, 1, 69, 64
3, 43197, Note_on_c, 1, 69, 0
3, 43205, Note_on_c, 1, 70, 64
3, 43490, Note_on_c, 1, 70, 0
3, 43505, Note_on_c, 1, 68, 64
3, 43557, Note_on_c, 1, 68, 0
3, 43565, Note_on_c, 1, 66, 64
3, 43617, Note_on_c, 1, 66, 0
3, 43865, Note_on_c, 1, 70, 64
3, 43917, Note_on_c, 1, 70, 0
3, 43925, Note_on_c, 1, 63, 64
3, 44157, Note_on_c, 1, 63, 0
3, 44165, Note_on_c, 1, 61, 64
3, 44217, Note_on_c, 1, 61, 0
3, 44225, Note_on_c, 1, 59, 64
3, 44277, Note_on_c, 1, 59, 0
3, 44285, Note_on_c, 1, 58, 64
3, 44337, Note_on_c, 1, 58, 0
3, 44345, Note_on_c, 1, 59, 64
3, 44397, Note_on_c, 1, 59, 0
3, 44405, Note_on_c, 1, 61, 64
3, 44457, Note_on_c, 1, 61, 0
3, 44465, Note_on_c, 1, 63, 64
3, 44570, Note_on_c, 1, 63, 0
3, 44585, Note_on_c, 1, 51, 64
3, 44637, Note_on_c, 1, 51, 0
3, 44645, Note_on_c, 1, 56, 64
3, 44697, Note_on_c, 1, 56, 0
3, 44705, Note_on_c, 1, 58, 64
3, 44757, Note_on_c, 1, 58, 0
3, 44765, Note_on_c, 1, 59, 64
3, 44817, Note_on_c, 1, 59, 0
3, 44825, Note_on_c, 1, 58, 64
3, 44877, Note_on_c, 1, 58, 0
3, 44885, Note_on_c, 1, 63, 64
3, 44937, Note_on_c, 1, 63, 0
3, 44945, Note_on_c, 1, 51, 64
3, 44997, Note_on_c, 1, 51, 0
3, 45005, Note_on_c, 1, 56, 64
3, 45057, Note_on_c, 1, 56, 0
3, 45065, Note_on_c, 1, 59, 64
3, 45117, Note_on_c, 1, 59, 0
3, 45125, Note_on_c, 1, 58, 64
3, 45177, Note_on_c, 1, 58, 0
3, 45185, Note_on_c, 1, 59, 64
3, 45237, Note_on_c, 1, 59, 0
3, 45245, Note_on_c, 1, 58, 64
3, 45297, Note_on_c, 1, 58, 0
3, 45305, Note_on_c, 1, 56, 64
3, 45357, Note_on_c, 1, 56, 0
3, 45365, Note_on_c, 1, 58, 64
3, 45417, Note_on_c, 1, 58, 0
3, 45425, Note_on_c, 1, 59, 64
3, 45477, Note_on_c, 1, 59, 0
3, 45485, Note_on_c, 1, 61, 64
3, 45537, Note_on_c, 1, 61, 0
3, 45545, Note_on_c, 1, 59, 64
3, 45597, Note_on_c, 1, 59, 0
3, 45605, Note_on_c, 1, 64, 64
3, 45657, Note_on_c, 1, 64, 0
3, 45665, Note_on_c, 1, 56, 64
3, 45717, Note_on_c, 1, 56, 0
3, 45725, Note_on_c, 1, 58, 64
3, 45777, Note_on_c, 1, 58, 0
3, 45785, Note_on_c, 1, 61, 64
3, 45837, Note_on_c, 1, 61, 0
3, 45845, Note_on_c, 1, 59, 64
3, 45897, Note_on_c, 1, 59, 0
3, 45905, Note_on_c, 1, 61, 64
3, 45957, Note_on_c, 1, 61, 0
3, 45965, Note_on_c, 1, 59, 64
3, 46017, Note_on_c, 1, 59, 0
3, 46025, Note_on_c, 1, 58, 64
3, 46077, Note_on_c, 1, 58, 0
3, 46085, Note_on_c, 1, 59, 64
3, 46250, Note_on_c, 1, 59, 0
3, 46265, Note_on_c, 1, 58, 64
3, 46317, Note_on_c, 1, 58, 0
3, 46325, Note_on_c, 1, 63, 64
3, 46377, Note_on_c, 1, 63, 0
3, 46385, Note_on_c, 1, 61, 64
3, 46437, Note_on_c, 1, 61, 0
3, 46445, Note_on_c, 1, 63, 64
3, 46497, Note_on_c, 1, 63, 0
3, 46505, Note_on_c, 1, 61, 64
3, 46557, Note_on_c, 1, 61, 0
3, 46565, Note_on_c, 1, 59, 64
3, 46617, Note_on_c, 1, 59, 0
3, 46625, Note_on_c, 1, 61, 64
3, 46677, Note_on_c, 1, 61, 0
3, 46685, Note_on_c, 1, 59, 64
3, 46737, Note_on_c, 1, 59, 0
3, 46745, Note_on_c, 1, 58, 64
3, 46797, Note_on_c, 1, 58, 0
3, 46805, Note_on_c, 1, 59, 64
3, 46857, Note_on_c, 1, 59, 0
3, 46865, Note_on_c, 1, 58, 64
3, 46917, Note_on_c, 1, 58, 0
3, 46925, Note_on_c, 1, 56, 64
3, 46977, Note_on_c, 1, 56, 0
3, 46985, Note_on_c, 1, 58, 64
3, 47037, Note_on_c, 1, 58, 0
3, 47045, Note_on_c, 1, 56, 64
3, 47097, Note_on_c, 1, 56, 0
3, 47105, Note_on_c, 1, 55, 64
3, 47157, Note_on_c, 1, 55, 0
3, 47165, Note_on_c, 1, 56, 64
3, 47397, Note_on_c, 1, 56, 0
3, 47405, Note_on_c, 1, 61, 64
3, 47457, Note_on_c, 1, 61, 0
3, 47465, Note_on_c, 1, 59, 64
3, 47517, Note_on_c, 1, 59, 0
3, 47525, Note_on_c, 1, 61, 64
3, 47577, Note_on_c, 1, 61, 0
3, 47585, Note_on_c, 1, 59, 64
3, 47637, Note_on_c, 1, 59, 0
3, 47645, Note_on_c, 1, 58, 64
3, 47697, Note_on_c, 1, 58, 0
3, 47705, Note_on_c, 1, 59, 64
3, 48050, Note_on_c, 1, 59, 0
3, 48065, Note_on_c, 1, 58, 64
3, 48230, Note_on_c, 1, 58, 0
3, 48245, Note_on_c, 1, 51, 64
3, 48350, Note_on_c, 1, 51, 0
3, 48365, Note_on_c, 1, 68, 64
3, 48417, Note_on_c, 1, 68, 0
3, 48425, Note_on_c, 1, 67, 64
3, 48530, Note_on_c, 1, 67, 0
3, 48545, Note_on_c, 1, 66, 64
3, 48597, Note_on_c, 1, 66, 0
3, 48605, Note_on_c, 1, 65, 64
3, 48710, Note_on_c, 1, 65, 0
3, 48725, Note_on_c, 1, 64, 64
3, 48777, Note_on_c, 1, 64, 0
3, 48785, Note_on_c, 1, 63, 64
3, 48890, Note_on_c, 1, 63, 0
3, 48905, Note_on_c, 1, 65, 64
3, 48957, Note_on_c, 1, 65, 0
3, 48965, Note_on_c, 1, 66, 64
3, 49070, Note_on_c, 1, 66, 0
3, 49085, Note_on_c, 1, 67, 64
3, 49137, Note_on_c, 1, 67, 0
3, 49145, Note_on_c, 1, 68, 64
3, 49490, Note_on_c, 1, 68, 0
3, 49505, Note_on_c, 1, 67, 64
3, 49670, Note_on_c, 1, 67, 0
3, 49685, Note_on_c, 1, 68, 64
3, 50277, Note_on_c, 1, 68, 0
3, 50285, Note_on_c, 1, 67, 64
3, 50337, Note_on_c, 1, 67, 0
3, 50345, Note_on_c, 1, 65, 64
3, 50397, Note_on_c, 1, 65, 0
3, 50405, Note_on_c, 1, 67, 64
3, 50750, Note_on_c, 1, 67, 0
3, 50765, Note_on_c, 1, 68, 64
3, 51050, Note_on_c, 1, 68, 0
3, 51065, Note_on_c, 1, 67, 64
3, 51117, Note_on_c, 1, 67, 0
3, 51125, Note_on_c, 1, 68, 64
3, 51470, Note_on_c, 1, 68, 0
3, 51470, End_track
4, 0, Start_track
4, 0, MIDI_port, 0
4, 0, Title_t, "from WTC II"
4, 0, Program_c, 2, 6
4, 4325, Note_on_c, 2, 56, 64
4, 4377, Note_on_c, 2, 56, 0
4, 4385, Note_on_c, 2, 58, 64
4, 4437, Note_on_c, 2, 58, 0
4, 4445, Note_on_c, 2, 59, 64
4, 4497, Note_on_c, 2, 59, 0
4, 4505, Note_on_c, 2, 58, 64
4, 4557, Note_on_c, 2, 58, 0
4, 4565, Note_on_c, 2, 63, 64
4, 4617, Note_on_c, 2, 63, 0
4, 4625, Note_on_c, 2, 51, 64
4, 4677, Note_on_c, 2, 51, 0
4, 4685, Note_on_c, 2, 56, 64
4, 4737, Note_on_c, 2, 56, 0
4, 4745, Note_on_c, 2, 59, 64
4, 4797, Note_on_c, 2, 59, 0
4, 4805, Note_on_c, 2, 58, 64
4, 4857, Note_on_c, 2, 58, 0
4, 4865, Note_on_c, 2, 59, 64
4, 4917, Note_on_c, 2, 59, 0
4, 4925, Note_on_c, 2, 58, 64
4, 4977, Note_on_c, 2, 58, 0
4, 4985, Note_on_c, 2, 56, 64
4, 5037, Note_on_c, 2, 56, 0
4, 5045, Note_on_c, 2, 58, 64
4, 5097, Note_on_c, 2, 58, 0
4, 5105, Note_on_c, 2, 59, 64
4, 5157, Note_on_c, 2, 59, 0
4, 5165, Note_on_c, 2, 61, 64
4, 5217, Note_on_c, 2, 61, 0
4, 5225, Note_on_c, 2, 59, 64
4, 5277, Note_on_c, 2, 59, 0
4, 5285, Note_on_c, 2, 64, 64
4, 5337, Note_on_c, 2, 64, 0
4, 5345, Note_on_c, 2, 56, 64
4, 5397, Note_on_c, 2, 56, 0
4, 5405, Note_on_c, 2, 58, 64
4, 5457, Note_on_c, 2, 58, 0
4, 5465, Note_on_c, 2, 61, 64
4, 5517, Note_on_c, 2, 61, 0
4, 5525, Note_on_c, 2, 59, 64
4, 5577, Note_on_c, 2, 59, 0
4, 5585, Note_on_c, 2, 61, 64
4, 5637, Note_on_c, 2, 61, 0
4, 5645, Note_on_c, 2, 59, 64
4, 5697, Note_on_c, 2, 59, 0
4, 5705, Note_on_c, 2, 58, 64
4, 5757, Note_on_c, 2, 58, 0
4, 5765, Note_on_c, 2, 59, 64
4, 5870, Note_on_c, 2, 59, 0
4, 5885, Note_on_c, 2, 56, 64
4, 5937, Note_on_c, 2, 56, 0
4, 5945, Note_on_c, 2, 53, 64
4, 6050, Note_on_c, 2, 53, 0
4, 6065, Note_on_c, 2, 55, 64
4, 6117, Note_on_c, 2, 55, 0
4, 6125, Note_on_c, 2, 56, 64
4, 6230, Note_on_c, 2, 56, 0
4, 6245, Note_on_c, 2, 52, 64
4, 6297, Note_on_c, 2, 52, 0
4, 6305, Note_on_c, 2, 49, 64
4, 6410, Note_on_c, 2, 49, 0
4, 6425, Note_on_c, 2, 51, 64
4, 6477, Note_on_c, 2, 51, 0
4, 6485, Note_on_c, 2, 52, 64
4, 6590, Note_on_c, 2, 52, 0
4, 6605, Note_on_c, 2, 53, 64
4, 6657, Note_on_c, 2, 53, 0
4, 6665, Note_on_c, 2, 54, 64
4, 7010, Note_on_c, 2, 54, 0
4, 7025, Note_on_c, 2, 53, 64
4, 7190, Note_on_c, 2, 53, 0
4, 7205, Note_on_c, 2, 54, 64
4, 7310, Note_on_c, 2, 54, 0
4, 7325, Note_on_c, 2, 55, 64
4, 7377, Note_on_c, 2, 55, 0
4, 7385, Note_on_c, 2, 56, 64
4, 7730, Note_on_c, 2, 56, 0
4, 7745, Note_on_c, 2, 55, 64
4, 7910, Note_on_c, 2, 55, 0
4, 7925, Note_on_c, 2, 56, 64
4, 8090, Note_on_c, 2, 56, 0
4, 8105, Note_on_c, 2, 54, 64
4, 8270, Note_on_c, 2, 54, 0
4, 8285, Note_on_c, 2, 52, 64
4, 8450, Note_on_c, 2, 52, 0
4, 8465, Note_on_c, 2, 51, 64
4, 8630, Note_on_c, 2, 51, 0
4, 8645, Note_on_c, 2, 49, 64
4, 8697, Note_on_c, 2, 49, 0
4, 8705, Note_on_c, 2, 56, 64
4, 8757, Note_on_c, 2, 56, 0
4, 8765, Note_on_c, 2, 61, 64
4, 8877, Note_on_c, 2, 61, 0
4, 8885, Note_on_c, 2, 58, 64
4, 8937, Note_on_c, 2, 58, 0
4, 8945, Note_on_c, 2, 60, 64
4, 8997, Note_on_c, 2, 60, 0
4, 9005, Note_on_c, 2, 61, 64
4, 9170, Note_on_c, 2, 61, 0
4, 9185, Note_on_c, 2, 59, 64
4, 9417, Note_on_c, 2, 59, 0
4, 9425, Note_on_c, 2, 58, 64
4, 9477, Note_on_c, 2, 58, 0
4, 9485, Note_on_c, 2, 56, 64
4, 9537, Note_on_c, 2, 56, 0
4, 9545, Note_on_c, 2, 55, 64
4, 9597, Note_on_c, 2, 55, 0
4, 9605, Note_on_c, 2, 58, 64
4, 9657, Note_on_c, 2, 58, 0
4, 9665, Note_on_c, 2, 51, 64
4, 9717, Note_on_c, 2, 51, 0
4, 9725, Note_on_c, 2, 56, 64
4, 9830, Note_on_c, 2, 56, 0
4, 9845, Note_on_c, 2, 44, 64
4, 9897, Note_on_c, 2, 44, 0
4, 9905, Note_on_c, 2, 56, 64
4, 10137, Note_on_c, 2, 56, 0
4, 10145, Note_on_c, 2, 54, 64
4, 10197, Note_on_c, 2, 54, 0
4, 10205, Note_on_c, 2, 53, 64
4, 10257, Note_on_c, 2, 53, 0
4, 10265, Note_on_c, 2, 51, 64
4, 10317, Note_on_c, 2, 51, 0
4, 10325, Note_on_c, 2, 54, 64
4, 10377, Note_on_c, 2, 54, 0
4, 10385, Note_on_c, 2, 46, 64
4, 10437, Note_on_c, 2, 46, 0
4, 10445, Note_on_c, 2, 49, 64
4, 10469, Note_on_c, 2, 47, 64
4, 10476, Note_on_c, 2, 49, 0
4, 10477, Note_on_c, 2, 49, 64
4, 10484, Note_on_c, 2, 47, 0
4, 10485, Note_on_c, 2, 47, 64
4, 10492, Note_on_c, 2, 49, 0
4, 10493, Note_on_c, 2, 49, 64
4, 10500, Note_on_c, 2, 47, 0
4, 10501, Note_on_c, 2, 47, 64
4, 10508, Note_on_c, 2, 49, 0
4, 10509, Note_on_c, 2, 49, 64
4, 10516, Note_on_c, 2, 47, 0
4, 10517, Note_on_c, 2, 47, 64
4, 10524, Note_on_c, 2, 49, 0
4, 10525, Note_on_c, 2, 46, 64
4, 10532, Note_on_c, 2, 47, 0
4, 10533, Note_on_c, 2, 47, 64
4, 10540, Note_on_c, 2, 46, 0
4, 10805, Note_on_c, 2, 46, 64
4, 10808, Note_on_c, 2, 47, 0
4, 11150, Note_on_c, 2, 46, 0
4, 11525, Note_on_c, 2, 51, 64
4, 11577, Note_on_c, 2, 51, 0
4, 11585, Note_on_c, 2, 53, 64
4, 11637, Note_on_c, 2, 53, 0
4, 11645, Note_on_c, 2, 54, 64
4, 11697, Note_on_c, 2, 54, 0
4, 11705, Note_on_c, 2, 53, 64
4, 11757, Note_on_c, 2, 53, 0
4, 11765, Note_on_c, 2, 58, 64
4, 11817, Note_on_c, 2, 58, 0
4, 11825, Note_on_c, 2, 46, 64
4, 11877, Note_on_c, 2, 46, 0
4, 11885, Note_on_c, 2, 51, 64
4, 11937, Note_on_c, 2, 51, 0
4, 11945, Note_on_c, 2, 54, 64
4, 11997, Note_on_c, 2, 54, 0
4, 12005, Note_on_c, 2, 53, 64
4, 12057, Note_on_c, 2, 53, 0
4, 12065, Note_on_c, 2, 54, 64
4, 12117, Note_on_c, 2, 54, 0
4, 12125, Note_on_c, 2, 53, 64
4, 12177, Note_on_c, 2, 53, 0
4, 12185, Note_on_c, 2, 51, 64
4, 12237, Note_on_c, 2, 51, 0
4, 12245, Note_on_c, 2, 53, 64
4, 12297, Note_on_c, 2, 53, 0
4, 12305, Note_on_c, 2, 54, 64
4, 12357, Note_on_c, 2, 54, 0
4, 12365, Note_on_c, 2, 56, 64
4, 12417, Note_on_c, 2, 56, 0
4, 12425, Note_on_c, 2, 54, 64
4, 12477, Note_on_c, 2, 54, 0
4, 12485, Note_on_c, 2, 59, 64
4, 12537, Note_on_c, 2, 59, 0
4, 12545, Note_on_c, 2, 51, 64
4, 12597, Note_on_c, 2, 51, 0
4, 12605, Note_on_c, 2, 53, 64
4, 12657, Note_on_c, 2, 53, 0
4, 12665, Note_on_c, 2, 56, 64
4, 12717, Note_on_c, 2, 56, 0
4, 12725, Note_on_c, 2, 54, 64
4, 12777, Note_on_c, 2, 54, 0
4, 12785, Note_on_c, 2, 56, 64
4, 12837, Note_on_c, 2, 56, 0
4, 12845, Note_on_c, 2, 54, 64
4, 12897, Note_on_c, 2, 54, 0
4, 12905, Note_on_c, 2, 53, 64
4, 12957, Note_on_c, 2, 53, 0
4, 12965, Note_on_c, 2, 54, 64
4, 13017, Note_on_c, 2, 54, 0
4, 13025, Note_on_c, 2, 52, 64
4, 13077, Note_on_c, 2, 52, 0
4, 13085, Note_on_c, 2, 51, 64
4, 13137, Note_on_c, 2, 51, 0
4, 13145, Note_on_c, 2, 52, 64
4, 13197, Note_on_c, 2, 52, 0
4, 13205, Note_on_c, 2, 57, 64
4, 13257, Note_on_c, 2, 57, 0
4, 13265, Note_on_c, 2, 49, 64
4, 13317, Note_on_c, 2, 49, 0
4, 13325, Note_on_c, 2, 51, 64
4, 13430, Note_on_c, 2, 51, 0
4, 13505, Note_on_c, 2, 44, 64
4, 13610, Note_on_c, 2, 44, 0
4, 13685, Note_on_c, 2, 49, 64
4, 13737, Note_on_c, 2, 49, 0
4, 13745, Note_on_c, 2, 52, 64
4, 13797, Note_on_c, 2, 52, 0
4, 13805, Note_on_c, 2, 49, 64
4, 13857, Note_on_c, 2, 49, 0
4, 13865, Note_on_c, 2, 56, 64
4, 13970, Note_on_c, 2, 56, 0
4, 13985, Note_on_c, 2, 54, 64
4, 14037, Note_on_c, 2, 54, 0
4, 14045, Note_on_c, 2, 52, 64
4, 14097, Note_on_c, 2, 52, 0
4, 14105, Note_on_c, 2, 54, 64
4, 14157, Note_on_c, 2, 54, 0
4, 14165, Note_on_c, 2, 56, 64
4, 14217, Note_on_c, 2, 56, 0
4, 14225, Note_on_c, 2, 49, 64
4, 14330, Note_on_c, 2, 49, 0
4, 14345, Note_on_c, 2, 54, 64
4, 14397, Note_on_c, 2, 54, 0
4, 14405, Note_on_c, 2, 47, 64
4, 14457, Note_on_c, 2, 47, 0
4, 14465, Note_on_c, 2, 54, 64
4, 14517, Note_on_c, 2, 54, 0
4, 14525, Note_on_c, 2, 59, 64
4, 14637, Note_on_c, 2, 59, 0
4, 14645, Note_on_c, 2, 56, 64
4, 14697, Note_on_c, 2, 56, 0
4, 14705, Note_on_c, 2, 58, 64
4, 14817, Note_on_c, 2, 58, 0
4, 14825, Note_on_c, 2, 51, 64
4, 14877, Note_on_c, 2, 51, 0
4, 14885, Note_on_c, 2, 56, 64
4, 14997, Note_on_c, 2, 56, 0
4, 15005, Note_on_c, 2, 53, 64
4, 15057, Note_on_c, 2, 53, 0
4, 15065, Note_on_c, 2, 55, 64
4, 15117, Note_on_c, 2, 55, 0
4, 15125, Note_on_c, 2, 56, 64
4, 15230, Note_on_c, 2, 56, 0
4, 15245, Note_on_c, 2, 58, 64
4, 15297, Note_on_c, 2, 58, 0
4, 15305, Note_on_c, 2, 59, 64
4, 15410, Note_on_c, 2, 59, 0
4, 15425, Note_on_c, 2, 50, 64
4, 15477, Note_on_c, 2, 50, 0
4, 15485, Note_on_c, 2, 51, 64
4, 15590, Note_on_c, 2, 51, 0
4, 15605, Note_on_c, 2, 47, 64
4, 15657, Note_on_c, 2, 47, 0
4, 15665, Note_on_c, 2, 44, 64
4, 15770, Note_on_c, 2, 44, 0
4, 15785, Note_on_c, 2, 46, 64
4, 15837, Note_on_c, 2, 46, 0
4, 15845, Note_on_c, 2, 51, 64
4, 16010, Note_on_c, 2, 51, 0
4, 16145, Note_on_c, 2, 54, 64
4, 16197, Note_on_c, 2, 54, 0
4, 16205, Note_on_c, 2, 59, 64
4, 16370, Note_on_c, 2, 59, 0
4, 16505, Note_on_c, 2, 60, 64
4, 16557, Note_on_c, 2, 60, 0
4, 16565, Note_on_c, 2, 61, 64
4, 16670, Note_on_c, 2, 61, 0
4, 16685, Note_on_c, 2, 59, 64
4, 16737, Note_on_c, 2, 59, 0
4, 16745, Note_on_c, 2, 58, 64
4, 16850, Note_on_c, 2, 58, 0
4, 16865, Note_on_c, 2, 57, 64
4, 16917, Note_on_c, 2, 57, 0
4, 16925, Note_on_c, 2, 56, 64
4, 16977, Note_on_c, 2, 56, 0
4, 16985, Note_on_c, 2, 59, 64
4, 17037, Note_on_c, 2, 59, 0
4, 17045, Note_on_c, 2, 51, 64
4, 17097, Note_on_c, 2, 51, 0
4, 17105, Note_on_c, 2, 50, 64
4, 17157, Note_on_c, 2, 50, 0
4, 17165, Note_on_c, 2, 46, 64
4, 17217, Note_on_c, 2, 46, 0
4, 17225, Note_on_c, 2, 50, 64
4, 17277, Note_on_c, 2, 50, 0
4, 17285, Note_on_c, 2, 51, 64
4, 17390, Note_on_c, 2, 51, 0
4, 17465, Note_on_c, 2, 44, 64
4, 17570, Note_on_c, 2, 44, 0
4, 17645, Note_on_c, 2, 49, 64
4, 17750, Note_on_c, 2, 49, 0
4, 17825, Note_on_c, 2, 42, 64
4, 17930, Note_on_c, 2, 42, 0
4, 18005, Note_on_c, 2, 47, 64
4, 18057, Note_on_c, 2, 47, 0
4, 18065, Note_on_c, 2, 51, 64
4, 18117, Note_on_c, 2, 51, 0
4, 18125, Note_on_c, 2, 56, 64
4, 18237, Note_on_c, 2, 56, 0
4, 18245, Note_on_c, 2, 55, 64
4, 18297, Note_on_c, 2, 55, 0
4, 18305, Note_on_c, 2, 58, 64
4, 18357, Note_on_c, 2, 58, 0
4, 18365, Note_on_c, 2, 47, 64
4, 18470, Note_on_c, 2, 47, 0
4, 18545, Note_on_c, 2, 49, 64
4, 18650, Note_on_c, 2, 49, 0
4, 18725, Note_on_c, 2, 51, 64
4, 18830, Note_on_c, 2, 51, 0
4, 18845, Note_on_c, 2, 43, 64
4, 18897, Note_on_c, 2, 43, 0
4, 18905, Note_on_c, 2, 44, 64
4, 19010, Note_on_c, 2, 44, 0
4, 19025, Note_on_c, 2, 47, 64
4, 19077, Note_on_c, 2, 47, 0
4, 19085, Note_on_c, 2, 49, 64
4, 19137, Note_on_c, 2, 49, 0
4, 19145, Note_on_c, 2, 52, 64
4, 19197, Note_on_c, 2, 52, 0
4, 19205, Note_on_c, 2, 46, 64
4, 19257, Note_on_c, 2, 46, 0
4, 19265, Note_on_c, 2, 51, 64
4, 19370, Note_on_c, 2, 51, 0
4, 19385, Note_on_c, 2, 39, 64
4, 19437, Note_on_c, 2, 39, 0
4, 19445, Note_on_c, 2, 44, 64
4, 19497, Note_on_c, 2, 44, 0
4, 19505, Note_on_c, 2, 46, 64
4, 19557, Note_on_c, 2, 46, 0
4, 19565, Note_on_c, 2, 47, 64
4, 19617, Note_on_c, 2, 47, 0
4, 19625, Note_on_c, 2, 46, 64
4, 19677, Note_on_c, 2, 46, 0
4, 19685, Note_on_c, 2, 51, 64
4, 19737, Note_on_c, 2, 51, 0
4, 19745, Note_on_c, 2, 39, 64
4, 19797, Note_on_c, 2, 39, 0
4, 19805, Note_on_c, 2, 44, 64
4, 19857, Note_on_c, 2, 44, 0
4, 19865, Note_on_c, 2, 47, 64
4, 19917, Note_on_c, 2, 47, 0
4, 19925, Note_on_c, 2, 46, 64
4, 19977, Note_on_c, 2, 46, 0
4, 19985, Note_on_c, 2, 47, 64
4, 20037, Note_on_c, 2, 47, 0
4, 20045, Note_on_c, 2, 46, 64
4, 20097, Note_on_c, 2, 46, 0
4, 20105, Note_on_c, 2, 44, 64
4, 20157, Note_on_c, 2, 44, 0
4, 20165, Note_on_c, 2, 46, 64
4, 20217, Note_on_c, 2, 46, 0
4, 20225, Note_on_c, 2, 47, 64
4, 20277, Note_on_c, 2, 47, 0
4, 20285, Note_on_c, 2, 49, 64
4, 20337, Note_on_c, 2, 49, 0
4, 20345, Note_on_c, 2, 47, 64
4, 20397, Note_on_c, 2, 47, 0
4, 20405, Note_on_c, 2, 52, 64
4, 20457, Note_on_c, 2, 52, 0
4, 20465, Note_on_c, 2, 44, 64
4, 20517, Note_on_c, 2, 44, 0
4, 20525, Note_on_c, 2, 46, 64
4, 20577, Note_on_c, 2, 46, 0
4, 20585, Note_on_c, 2, 49, 64
4, 20637, Note_on_c, 2, 49, 0
4, 20645, Note_on_c, 2, 47, 64
4, 20697, Note_on_c, 2, 47, 0
4, 20705, Note_on_c, 2, 49, 64
4, 20757, Note_on_c, 2, 49, 0
4, 20765, Note_on_c, 2, 47, 64
4, 20817, Note_on_c, 2, 47, 0
4, 20825, Note_on_c, 2, 46, 64
4, 20877, Note_on_c, 2, 46, 0
4, 20885, Note_on_c, 2, 47, 64
4, 20937, Note_on_c, 2, 47, 0
4, 20945, Note_on_c, 2, 51, 64
4, 20997, Note_on_c, 2, 51, 0
4, 21005, Note_on_c, 2, 43, 64
4, 21057, Note_on_c, 2, 43, 0
4, 21065, Note_on_c, 2, 44, 64
4, 21117, Note_on_c, 2, 44, 0
4, 21125, Note_on_c, 2, 47, 64
4, 21177, Note_on_c, 2, 47, 0
4, 21185, Note_on_c, 2, 39, 64
4, 21237, Note_on_c, 2, 39, 0
4, 21245, Note_on_c, 2, 42, 64
4, 21269, Note_on_c, 2, 40, 64
4, 21280, Note_on_c, 2, 42, 0
4, 21281, Note_on_c, 2, 42, 64
4, 21292, Note_on_c, 2, 40, 0
4, 21293, Note_on_c, 2, 40, 64
4, 21304, Note_on_c, 2, 42, 0
4, 21305, Note_on_c, 2, 42, 64
4, 21316, Note_on_c, 2, 40, 0
4, 21317, Note_on_c, 2, 40, 64
4, 21328, Note_on_c, 2, 42, 0
4, 21329, Note_on_c, 2, 42, 64
4, 21340, Note_on_c, 2, 40, 0
4, 21341, Note_on_c, 2, 40, 64
4, 21348, Note_on_c, 2, 42, 0
4, 21349, Note_on_c, 2, 42, 64
4, 21364, Note_on_c, 2, 40, 0
4, 21365, Note_on_c, 2, 40, 64
4, 21372, Note_on_c, 2, 42, 0
4, 21373, Note_on_c, 2, 42, 64
4, 21388, Note_on_c, 2, 40, 0
4, 21389, Note_on_c, 2, 40, 64
4, 21396, Note_on_c, 2, 42, 0
4, 21397, Note_on_c, 2, 42, 64
4, 21412, Note_on_c, 2, 40, 0
4, 21413, Note_on_c, 2, 40, 64
4, 21420, Note_on_c, 2, 42, 0
4, 21421, Note_on_c, 2, 42, 64
4, 21436, Note_on_c, 2, 40, 0
4, 21437, Note_on_c, 2, 40, 64
4, 21444, Note_on_c, 2, 42, 0
4, 21445, Note_on_c, 2, 42, 64
4, 21460, Note_on_c, 2, 40, 0
4, 21461, Note_on_c, 2, 40, 64
4, 21468, Note_on_c, 2, 42, 0
4, 21469, Note_on_c, 2, 42, 64
4, 21481, Note_on_c, 2, 40, 64
4, 21484, Note_on_c, 2, 40, 0
4, 21492, Note_on_c, 2, 42, 0
4, 21493, Note_on_c, 2, 42, 64
4, 21504, Note_on_c, 2, 40, 0
4, 21505, Note_on_c, 2, 40, 64
4, 21516, Note_on_c, 2, 42, 0
4, 21517, Note_on_c, 2, 42, 64
4, 21528, Note_on_c, 2, 40, 0
4, 21529, Note_on_c, 2, 40, 64
4, 21537, Note_on_c, 2, 42, 64
4, 21540, Note_on_c, 2, 42, 0
4, 21552, Note_on_c, 2, 40, 0
4, 21553, Note_on_c, 2, 40, 64
4, 21560, Note_on_c, 2, 42, 0
4, 21565, Note_on_c, 2, 39, 64
4, 21576, Note_on_c, 2, 40, 0
4, 21577, Note_on_c, 2, 40, 64
4, 21588, Note_on_c, 2, 39, 0
4, 21600, Note_on_c, 2, 40, 0
4, 21605, Note_on_c, 2, 39, 64
4, 21710, Note_on_c, 2, 39, 0
4, 21725, Note_on_c, 2, 51, 64
4, 21777, Note_on_c, 2, 51, 0
4, 21785, Note_on_c, 2, 53, 64
4, 21837, Note_on_c, 2, 53, 0
4, 21845, Note_on_c, 2, 56, 64
4, 21897, Note_on_c, 2, 56, 0
4, 21905, Note_on_c, 2, 55, 64
4, 21957, Note_on_c, 2, 55, 0
4, 21965, Note_on_c, 2, 56, 64
4, 22017, Note_on_c, 2, 56, 0
4, 22025, Note_on_c, 2, 51, 64
4, 22077, Note_on_c, 2, 51, 0
4, 22085, Note_on_c, 2, 56, 64
4, 22197, Note_on_c, 2, 56, 0
4, 22205, Note_on_c, 2, 54, 64
4, 22231, Note_on_c, 2, 54, 0
4, 22235, Note_on_c, 2, 53, 64
4, 22261, Note_on_c, 2, 53, 0
4, 22265, Note_on_c, 2, 54, 64
4, 22317, Note_on_c, 2, 54, 0
4, 22325, Note_on_c, 2, 53, 64
4, 22377, Note_on_c, 2, 53, 0
4, 22385, Note_on_c, 2, 58, 64
4, 22437, Note_on_c, 2, 58, 0
4, 22445, Note_on_c, 2, 56, 64
4, 22497, Note_on_c, 2, 56, 0
4, 22505, Note_on_c, 2, 54, 64
4, 22557, Note_on_c, 2, 54, 0
4, 22565, Note_on_c, 2, 59, 64
4, 22617, Note_on_c, 2, 59, 0
4, 22625, Note_on_c, 2, 58, 64
4, 22677, Note_on_c, 2, 58, 0
4, 22685, Note_on_c, 2, 56, 64
4, 22737, Note_on_c, 2, 56, 0
4, 22745, Note_on_c, 2, 58, 64
4, 22797, Note_on_c, 2, 58, 0
4, 22805, Note_on_c, 2, 59, 64
4, 22857, Note_on_c, 2, 59, 0
4, 22865, Note_on_c, 2, 53, 64
4, 22917, Note_on_c, 2, 53, 0
4, 22925, Note_on_c, 2, 58, 64
4, 22977, Note_on_c, 2, 58, 0
4, 22985, Note_on_c, 2, 56, 64
4, 23037, Note_on_c, 2, 56, 0
4, 23045, Note_on_c, 2, 55, 64
4, 23097, Note_on_c, 2, 55, 0
4, 23105, Note_on_c, 2, 56, 64
4, 23157, Note_on_c, 2, 56, 0
4, 23165, Note_on_c, 2, 58, 64
4, 23217, Note_on_c, 2, 58, 0
4, 23225, Note_on_c, 2, 51, 64
4, 23277, Note_on_c, 2, 51, 0
4, 23285, Note_on_c, 2, 56, 64
4, 23337, Note_on_c, 2, 56, 0
4, 23345, Note_on_c, 2, 54, 64
4, 23397, Note_on_c, 2, 54, 0
4, 23405, Note_on_c, 2, 52, 64
4, 23457, Note_on_c, 2, 52, 0
4, 23465, Note_on_c, 2, 54, 64
4, 23517, Note_on_c, 2, 54, 0
4, 23525, Note_on_c, 2, 52, 64
4, 23577, Note_on_c, 2, 52, 0
4, 23585, Note_on_c, 2, 51, 64
4, 23637, Note_on_c, 2, 51, 0
4, 23645, Note_on_c, 2, 52, 64
4, 23697, Note_on_c, 2, 52, 0
4, 23705, Note_on_c, 2, 51, 64
4, 23757, Note_on_c, 2, 51, 0
4, 23765, Note_on_c, 2, 49, 64
4, 23870, Note_on_c, 2, 49, 0
4, 23885, Note_on_c, 2, 37, 64
4, 23937, Note_on_c, 2, 37, 0
4, 23945, Note_on_c, 2, 44, 64
4, 23997, Note_on_c, 2, 44, 0
4, 24005, Note_on_c, 2, 43, 64
4, 24057, Note_on_c, 2, 43, 0
4, 24065, Note_on_c, 2, 44, 64
4, 24117, Note_on_c, 2, 44, 0
4, 24125, Note_on_c, 2, 39, 64
4, 24230, Note_on_c, 2, 39, 0
4, 25325, Note_on_c, 2, 61, 64
4, 25377, Note_on_c, 2, 61, 0
4, 25385, Note_on_c, 2, 60, 64
4, 25490, Note_on_c, 2, 60, 0
4, 25505, Note_on_c, 2, 59, 64
4, 25557, Note_on_c, 2, 59, 0
4, 25565, Note_on_c, 2, 58, 64
4, 25670, Note_on_c, 2, 58, 0
4, 25685, Note_on_c, 2, 57, 64
4, 25737, Note_on_c, 2, 57, 0
4, 25745, Note_on_c, 2, 56, 64
4, 25850, Note_on_c, 2, 56, 0
4, 25865, Note_on_c, 2, 58, 64
4, 25917, Note_on_c, 2, 58, 0
4, 25925, Note_on_c, 2, 59, 64
4, 26030, Note_on_c, 2, 59, 0
4, 26045, Note_on_c, 2, 60, 64
4, 26097, Note_on_c, 2, 60, 0
4, 26105, Note_on_c, 2, 61, 64
4, 26450, Note_on_c, 2, 61, 0
4, 26465, Note_on_c, 2, 60, 64
4, 26630, Note_on_c, 2, 60, 0
4, 26645, Note_on_c, 2, 61, 64
4, 26750, Note_on_c, 2, 61, 0
4, 26765, Note_on_c, 2, 59, 64
4, 26817, Note_on_c, 2, 59, 0
4, 26825, Note_on_c, 2, 58, 64
4, 26930, Note_on_c, 2, 58, 0
4, 26945, Note_on_c, 2, 56, 64
4, 26997, Note_on_c, 2, 56, 0
4, 27005, Note_on_c, 2, 54, 64
4, 27110, Note_on_c, 2, 54, 0
4, 27125, Note_on_c, 2, 52, 64
4, 27177, Note_on_c, 2, 52, 0
4, 27185, Note_on_c, 2, 51, 64
4, 27290, Note_on_c, 2, 51, 0
4, 27305, Note_on_c, 2, 49, 64
4, 27357, Note_on_c, 2, 49, 0
4, 27365, Note_on_c, 2, 47, 64
4, 27417, Note_on_c, 2, 47, 0
4, 27425, Note_on_c, 2, 54, 64
4, 27477, Note_on_c, 2, 54, 0
4, 27485, Note_on_c, 2, 59, 64
4, 27597, Note_on_c, 2, 59, 0
4, 27605, Note_on_c, 2, 58, 64
4, 27631, Note_on_c, 2, 58, 0
4, 27635, Note_on_c, 2, 56, 64
4, 27661, Note_on_c, 2, 56, 0
4, 27665, Note_on_c, 2, 58, 64
4, 27777, Note_on_c, 2, 58, 0
4, 27785, Note_on_c, 2, 51, 64
4, 27837, Note_on_c, 2, 51, 0
4, 27845, Note_on_c, 2, 56, 64
4, 27957, Note_on_c, 2, 56, 0
4, 27965, Note_on_c, 2, 55, 64
4, 27991, Note_on_c, 2, 55, 0
4, 27995, Note_on_c, 2, 53, 64
4, 28021, Note_on_c, 2, 53, 0
4, 28025, Note_on_c, 2, 55, 64
4, 28077, Note_on_c, 2, 55, 0
4, 28085, Note_on_c, 2, 56, 64
4, 28190, Note_on_c, 2, 56, 0
4, 28205, Note_on_c, 2, 52, 64
4, 28257, Note_on_c, 2, 52, 0
4, 28265, Note_on_c, 2, 51, 64
4, 28430, Note_on_c, 2, 51, 0
4, 28445, Note_on_c, 2, 58, 64
4, 28497, Note_on_c, 2, 58, 0
4, 28505, Note_on_c, 2, 56, 64
4, 28557, Note_on_c, 2, 56, 0
4, 28565, Note_on_c, 2, 55, 64
4, 28617, Note_on_c, 2, 55, 0
4, 28625, Note_on_c, 2, 56, 64
4, 28730, Note_on_c, 2, 56, 0
4, 28745, Note_on_c, 2, 50, 64
4, 28797, Note_on_c, 2, 50, 0
4, 28805, Note_on_c, 2, 51, 64
4, 28910, Note_on_c, 2, 51, 0
4, 28925, Note_on_c, 2, 46, 64
4, 28977, Note_on_c, 2, 46, 0
4, 28985, Note_on_c, 2, 47, 64
4, 29090, Note_on_c, 2, 47, 0
4, 29105, Note_on_c, 2, 48, 64
4, 29157, Note_on_c, 2, 48, 0
4, 29165, Note_on_c, 2, 49, 64
4, 29270, Note_on_c, 2, 49, 0
4, 29285, Note_on_c, 2, 50, 64
4, 29337, Note_on_c, 2, 50, 0
4, 29345, Note_on_c, 2, 51, 64
4, 29450, Note_on_c, 2, 51, 0
4, 29465, Note_on_c, 2, 52, 64
4, 29517, Note_on_c, 2, 52, 0
4, 29525, Note_on_c, 2, 53, 64
4, 29690, Note_on_c, 2, 53, 0
4, 29765, Note_on_c, 2, 53, 64
4, 29817, Note_on_c, 2, 53, 0
4, 29825, Note_on_c, 2, 51, 64
4, 29877, Note_on_c, 2, 51, 0
4, 29885, Note_on_c, 2, 49, 64
4, 29937, Note_on_c, 2, 49, 0
4, 29945, Note_on_c, 2, 61, 64
4, 29997, Note_on_c, 2, 61, 0
4, 30005, Note_on_c, 2, 60, 64
4, 30057, Note_on_c, 2, 60, 0
4, 30065, Note_on_c, 2, 58, 64
4, 30117, Note_on_c, 2, 58, 0
4, 30125, Note_on_c, 2, 70, 64
4, 30177, Note_on_c, 2, 70, 0
4, 30185, Note_on_c, 2, 68, 64
4, 30237, Note_on_c, 2, 68, 0
4, 30245, Note_on_c, 2, 66, 64
4, 30297, Note_on_c, 2, 66, 0
4, 30305, Note_on_c, 2, 63, 64
4, 30357, Note_on_c, 2, 63, 0
4, 30365, Note_on_c, 2, 65, 64
4, 30417, Note_on_c, 2, 65, 0
4, 30425, Note_on_c, 2, 66, 64
4, 30530, Note_on_c, 2, 66, 0
4, 30545, Note_on_c, 2, 67, 64
4, 30597, Note_on_c, 2, 67, 0
4, 30605, Note_on_c, 2, 68, 64
4, 30657, Note_on_c, 2, 68, 0
4, 30665, Note_on_c, 2, 56, 64
4, 30717, Note_on_c, 2, 56, 0
4, 30725, Note_on_c, 2, 58, 64
4, 30777, Note_on_c, 2, 58, 0
4, 30785, Note_on_c, 2, 59, 64
4, 30890, Note_on_c, 2, 59, 0
4, 30905, Note_on_c, 2, 60, 64
4, 30957, Note_on_c, 2, 60, 0
4, 30965, Note_on_c, 2, 61, 64
4, 31017, Note_on_c, 2, 61, 0
4, 31025, Note_on_c, 2, 49, 64
4, 31077, Note_on_c, 2, 49, 0
4, 31085, Note_on_c, 2, 51, 64
4, 31137, Note_on_c, 2, 51, 0
4, 31145, Note_on_c, 2, 52, 64
4, 31250, Note_on_c, 2, 52, 0
4, 31265, Note_on_c, 2, 53, 64
4, 31317, Note_on_c, 2, 53, 0
4, 31325, Note_on_c, 2, 54, 64
4, 31377, Note_on_c, 2, 54, 0
4, 31385, Note_on_c, 2, 42, 64
4, 31437, Note_on_c, 2, 42, 0
4, 31445, Note_on_c, 2, 44, 64
4, 31497, Note_on_c, 2, 44, 0
4, 31505, Note_on_c, 2, 45, 64
4, 31610, Note_on_c, 2, 45, 0
4, 31625, Note_on_c, 2, 46, 64
4, 31677, Note_on_c, 2, 46, 0
4, 31685, Note_on_c, 2, 47, 64
4, 31790, Note_on_c, 2, 47, 0
4, 31805, Note_on_c, 2, 49, 64
4, 31857, Note_on_c, 2, 49, 0
4, 31865, Note_on_c, 2, 51, 64
4, 31970, Note_on_c, 2, 51, 0
4, 31985, Note_on_c, 2, 53, 64
4, 32037, Note_on_c, 2, 53, 0
4, 32045, Note_on_c, 2, 54, 64
4, 32150, Note_on_c, 2, 54, 0
4, 32165, Note_on_c, 2, 56, 64
4, 32217, Note_on_c, 2, 56, 0
4, 32225, Note_on_c, 2, 58, 64
4, 32330, Note_on_c, 2, 58, 0
4, 32345, Note_on_c, 2, 60, 64
4, 32397, Note_on_c, 2, 60, 0
4, 32405, Note_on_c, 2, 61, 64
4, 32457, Note_on_c, 2, 61, 0
4, 32465, Note_on_c, 2, 49, 64
4, 32517, Note_on_c, 2, 49, 0
4, 32525, Note_on_c, 2, 51, 64
4, 32577, Note_on_c, 2, 51, 0
4, 32585, Note_on_c, 2, 53, 64
4, 32690, Note_on_c, 2, 53, 0
4, 32705, Note_on_c, 2, 55, 64
4, 32757, Note_on_c, 2, 55, 0
4, 32765, Note_on_c, 2, 56, 64
4, 32870, Note_on_c, 2, 56, 0
4, 32885, Note_on_c, 2, 58, 64
4, 32937, Note_on_c, 2, 58, 0
4, 32945, Note_on_c, 2, 59, 64
4, 32971, Note_on_c, 2, 59, 0
4, 32975, Note_on_c, 2, 61, 64
4, 33001, Note_on_c, 2, 61, 0
4, 33005, Note_on_c, 2, 63, 64
4, 33057, Note_on_c, 2, 63, 0
4, 33065, Note_on_c, 2, 61, 64
4, 33117, Note_on_c, 2, 61, 0
4, 33125, Note_on_c, 2, 63, 64
4, 33950, Note_on_c, 2, 63, 0
4, 34565, Note_on_c, 2, 44, 64
4, 34617, Note_on_c, 2, 44, 0
4, 34625, Note_on_c, 2, 46, 64
4, 34677, Note_on_c, 2, 46, 0
4, 34685, Note_on_c, 2, 47, 64
4, 34737, Note_on_c, 2, 47, 0
4, 34745, Note_on_c, 2, 46, 64
4, 34797, Note_on_c, 2, 46, 0
4, 34805, Note_on_c, 2, 51, 64
4, 34857, Note_on_c, 2, 51, 0
4, 34865, Note_on_c, 2, 39, 64
4, 34917, Note_on_c, 2, 39, 0
4, 34925, Note_on_c, 2, 44, 64
4, 34977, Note_on_c, 2, 44, 0
4, 34985, Note_on_c, 2, 47, 64
4, 35037, Note_on_c, 2, 47, 0
4, 35045, Note_on_c, 2, 46, 64
4, 35097, Note_on_c, 2, 46, 0
4, 35105, Note_on_c, 2, 47, 64
4, 35157, Note_on_c, 2, 47, 0
4, 35165, Note_on_c, 2, 46, 64
4, 35217, Note_on_c, 2, 46, 0
4, 35225, Note_on_c, 2, 44, 64
4, 35277, Note_on_c, 2, 44, 0
4, 35285, Note_on_c, 2, 46, 64
4, 35337, Note_on_c, 2, 46, 0
4, 35345, Note_on_c, 2, 47, 64
4, 35397, Note_on_c, 2, 47, 0
4, 35405, Note_on_c, 2, 49, 64
4, 35457, Note_on_c, 2, 49, 0
4, 35465, Note_on_c, 2, 47, 64
4, 35517, Note_on_c, 2, 47, 0
4, 35525, Note_on_c, 2, 52, 64
4, 35577, Note_on_c, 2, 52, 0
4, 35585, Note_on_c, 2, 44, 64
4, 35637, Note_on_c, 2, 44, 0
4, 35645, Note_on_c, 2, 46, 64
4, 35697, Note_on_c, 2, 46, 0
4, 35705, Note_on_c, 2, 49, 64
4, 35757, Note_on_c, 2, 49, 0
4, 35765, Note_on_c, 2, 47, 64
4, 35817, Note_on_c, 2, 47, 0
4, 35825, Note_on_c, 2, 49, 64
4, 35877, Note_on_c, 2, 49, 0
4, 35885, Note_on_c, 2, 47, 64
4, 35937, Note_on_c, 2, 47, 0
4, 35945, Note_on_c, 2, 46, 64
4, 35997, Note_on_c, 2, 46, 0
4, 36005, Note_on_c, 2, 47, 64
4, 36057, Note_on_c, 2, 47, 0
4, 36065, Note_on_c, 2, 51, 64
4, 36117, Note_on_c, 2, 51, 0
4, 36125, Note_on_c, 2, 56, 64
4, 36237, Note_on_c, 2, 56, 0
4, 36245, Note_on_c, 2, 55, 64
4, 36271, Note_on_c, 2, 55, 0
4, 36275, Note_on_c, 2, 53, 64
4, 36301, Note_on_c, 2, 53, 0
4, 36305, Note_on_c, 2, 55, 64
4, 36357, Note_on_c, 2, 55, 0
4, 36365, Note_on_c, 2, 56, 64
4, 36417, Note_on_c, 2, 56, 0
4, 36425, Note_on_c, 2, 59, 64
4, 36477, Note_on_c, 2, 59, 0
4, 36485, Note_on_c, 2, 63, 64
4, 36597, Note_on_c, 2, 63, 0
4, 36605, Note_on_c, 2, 62, 64
4, 36631, Note_on_c, 2, 62, 0
4, 36635, Note_on_c, 2, 60, 64
4, 36661, Note_on_c, 2, 60, 0
4, 36665, Note_on_c, 2, 62, 64
4, 36717, Note_on_c, 2, 62, 0
4, 36725, Note_on_c, 2, 63, 64
4, 36830, Note_on_c, 2, 63, 0
4, 36845, Note_on_c, 2, 51, 64
4, 36897, Note_on_c, 2, 51, 0
4, 36905, Note_on_c, 2, 58, 64
4, 37010, Note_on_c, 2, 58, 0
4, 37025, Note_on_c, 2, 55, 64
4, 37077, Note_on_c, 2, 55, 0
4, 37085, Note_on_c, 2, 56, 64
4, 37190, Note_on_c, 2, 56, 0
4, 37205, Note_on_c, 2, 50, 64
4, 37257, Note_on_c, 2, 50, 0
4, 37265, Note_on_c, 2, 51, 64
4, 37430, Note_on_c, 2, 51, 0
4, 37445, Note_on_c, 2, 58, 64
4, 37677, Note_on_c, 2, 58, 0
4, 37685, Note_on_c, 2, 56, 64
4, 37737, Note_on_c, 2, 56, 0
4, 37745, Note_on_c, 2, 54, 64
4, 37797, Note_on_c, 2, 54, 0
4, 37805, Note_on_c, 2, 56, 64
4, 37970, Note_on_c, 2, 56, 0
4, 37985, Note_on_c, 2, 58, 64
4, 38150, Note_on_c, 2, 58, 0
4, 38165, Note_on_c, 2, 51, 64
4, 38270, Note_on_c, 2, 51, 0
4, 38285, Note_on_c, 2, 47, 64
4, 38337, Note_on_c, 2, 47, 0
4, 38345, Note_on_c, 2, 44, 64
4, 38450, Note_on_c, 2, 44, 0
4, 38465, Note_on_c, 2, 46, 64
4, 38517, Note_on_c, 2, 46, 0
4, 38525, Note_on_c, 2, 47, 64
4, 38630, Note_on_c, 2, 47, 0
4, 38645, Note_on_c, 2, 51, 64
4, 38697, Note_on_c, 2, 51, 0
4, 38705, Note_on_c, 2, 53, 64
4, 38810, Note_on_c, 2, 53, 0
4, 38825, Note_on_c, 2, 55, 64
4, 38877, Note_on_c, 2, 55, 0
4, 38885, Note_on_c, 2, 56, 64
4, 38990, Note_on_c, 2, 56, 0
4, 39005, Note_on_c, 2, 59, 64
4, 39057, Note_on_c, 2, 59, 0
4, 39065, Note_on_c, 2, 61, 64
4, 39170, Note_on_c, 2, 61, 0
4, 39185, Note_on_c, 2, 63, 64
4, 39237, Note_on_c, 2, 63, 0
4, 39245, Note_on_c, 2, 64, 64
4, 39350, Note_on_c, 2, 64, 0
4, 39365, Note_on_c, 2, 61, 64
4, 39417, Note_on_c, 2, 61, 0
4, 39425, Note_on_c, 2, 58, 64
4, 39530, Note_on_c, 2, 58, 0
4, 39545, Note_on_c, 2, 60, 64
4, 39597, Note_on_c, 2, 60, 0
4, 39605, Note_on_c, 2, 61, 64
4, 39657, Note_on_c, 2, 61, 0
4, 39665, Note_on_c, 2, 60, 64
4, 39717, Note_on_c, 2, 60, 0
4, 39725, Note_on_c, 2, 58, 64
4, 39777, Note_on_c, 2, 58, 0
4, 39785, Note_on_c, 2, 59, 64
4, 39837, Note_on_c, 2, 59, 0
4, 39845, Note_on_c, 2, 58, 64
4, 39897, Note_on_c, 2, 58, 0
4, 39905, Note_on_c, 2, 56, 64
4, 39957, Note_on_c, 2, 56, 0
4, 39965, Note_on_c, 2, 57, 64
4, 40070, Note_on_c, 2, 57, 0
4, 40085, Note_on_c, 2, 51, 64
4, 40137, Note_on_c, 2, 51, 0
4, 40145, Note_on_c, 2, 52, 64
4, 40250, Note_on_c, 2, 52, 0
4, 40265, Note_on_c, 2, 40, 64
4, 40317, Note_on_c, 2, 40, 0
4, 40325, Note_on_c, 2, 47, 64
4, 40430, Note_on_c, 2, 47, 0
4, 40445, Note_on_c, 2, 48, 64
4, 40497, Note_on_c, 2, 48, 0
4, 40505, Note_on_c, 2, 49, 64
4, 40610, Note_on_c, 2, 49, 0
4, 40625, Note_on_c, 2, 56, 64
4, 40677, Note_on_c, 2, 56, 0
4, 40685, Note_on_c, 2, 57, 64
4, 40790, Note_on_c, 2, 57, 0
4, 40805, Note_on_c, 2, 61, 64
4, 40857, Note_on_c, 2, 61, 0
4, 40865, Note_on_c, 2, 54, 64
4, 40970, Note_on_c, 2, 54, 0
4, 40985, Note_on_c, 2, 59, 64
4, 41037, Note_on_c, 2, 59, 0
4, 41045, Note_on_c, 2, 52, 64
4, 41097, Note_on_c, 2, 52, 0
4, 41105, Note_on_c, 2, 59, 64
4, 41157, Note_on_c, 2, 59, 0
4, 41165, Note_on_c, 2, 64, 64
4, 41277, Note_on_c, 2, 64, 0
4, 41285, Note_on_c, 2, 63, 64
4, 41311, Note_on_c, 2, 63, 0
4, 41315, Note_on_c, 2, 61, 64
4, 41341, Note_on_c, 2, 61, 0
4, 41345, Note_on_c, 2, 63, 64
4, 41457, Note_on_c, 2, 63, 0
4, 41465, Note_on_c, 2, 56, 64
4, 41517, Note_on_c, 2, 56, 0
4, 41525, Note_on_c, 2, 61, 64
4, 41637, Note_on_c, 2, 61, 0
4, 41645, Note_on_c, 2, 60, 64
4, 41671, Note_on_c, 2, 60, 0
4, 41675, Note_on_c, 2, 58, 64
4, 41701, Note_on_c, 2, 58, 0
4, 41705, Note_on_c, 2, 60, 64
4, 41757, Note_on_c, 2, 60, 0
4, 41765, Note_on_c, 2, 61, 64
4, 41817, Note_on_c, 2, 61, 0
4, 41825, Note_on_c, 2, 49, 64
4, 41877, Note_on_c, 2, 49, 0
4, 41885, Note_on_c, 2, 61, 64
4, 41937, Note_on_c, 2, 61, 0
4, 41945, Note_on_c, 2, 60, 64
4, 42050, Note_on_c, 2, 60, 0
4, 42065, Note_on_c, 2, 59, 64
4, 42117, Note_on_c, 2, 59, 0
4, 42125, Note_on_c, 2, 58, 64
4, 42230, Note_on_c, 2, 58, 0
4, 42245, Note_on_c, 2, 57, 64
4, 42297, Note_on_c, 2, 57, 0
4, 42305, Note_on_c, 2, 56, 64
4, 42410, Note_on_c, 2, 56, 0
4, 42425, Note_on_c, 2, 61, 64
4, 42477, Note_on_c, 2, 61, 0
4, 42485, Note_on_c, 2, 54, 64
4, 42537, Note_on_c, 2, 54, 0
4, 42545, Note_on_c, 2, 52, 64
4, 42597, Note_on_c, 2, 52, 0
4, 42605, Note_on_c, 2, 51, 64
4, 42657, Note_on_c, 2, 51, 0
4, 42665, Note_on_c, 2, 49, 64
4, 42717, Note_on_c, 2, 49, 0
4, 42725, Note_on_c, 2, 47, 64
4, 42777, Note_on_c, 2, 47, 0
4, 42785, Note_on_c, 2, 46, 64
4, 42837, Note_on_c, 2, 46, 0
4, 42845, Note_on_c, 2, 44, 64
4, 42897, Note_on_c, 2, 44, 0
4, 42905, Note_on_c, 2, 56, 64
4, 42957, Note_on_c, 2, 56, 0
4, 42965, Note_on_c, 2, 58, 64
4, 43017, Note_on_c, 2, 58, 0
4, 43025, Note_on_c, 2, 59, 64
4, 43077, Note_on_c, 2, 59, 0
4, 43085, Note_on_c, 2, 61, 64
4, 43137, Note_on_c, 2, 61, 0
4, 43145, Note_on_c, 2, 59, 64
4, 43197, Note_on_c, 2, 59, 0
4, 43205, Note_on_c, 2, 58, 64
4, 43257, Note_on_c, 2, 58, 0
4, 43265, Note_on_c, 2, 46, 64
4, 43317, Note_on_c, 2, 46, 0
4, 43325, Note_on_c, 2, 48, 64
4, 43377, Note_on_c, 2, 48, 0
4, 43385, Note_on_c, 2, 50, 64
4, 43437, Note_on_c, 2, 50, 0
4, 43445, Note_on_c, 2, 48, 64
4, 43497, Note_on_c, 2, 48, 0
4, 43505, Note_on_c, 2, 50, 64
4, 43557, Note_on_c, 2, 50, 0
4, 43565, Note_on_c, 2, 51, 64
4, 43617, Note_on_c, 2, 51, 0
4, 43625, Note_on_c, 2, 56, 64
4, 43677, Note_on_c, 2, 56, 0
4, 43685, Note_on_c, 2, 54, 64
4, 43737, Note_on_c, 2, 54, 0
4, 43745, Note_on_c, 2, 53, 64
4, 43797, Note_on_c, 2, 53, 0
4, 43805, Note_on_c, 2, 58, 64
4, 43857, Note_on_c, 2, 58, 0
4, 43865, Note_on_c, 2, 56, 64
4, 43917, Note_on_c, 2, 56, 0
4, 43925, Note_on_c, 2, 55, 64
4, 43977, Note_on_c, 2, 55, 0
4, 43985, Note_on_c, 2, 51, 64
4, 44037, Note_on_c, 2, 51, 0
4, 44045, Note_on_c, 2, 55, 64
4, 44097, Note_on_c, 2, 55, 0
4, 44105, Note_on_c, 2, 56, 64
4, 44450, Note_on_c, 2, 56, 0
4, 44465, Note_on_c, 2, 55, 64
4, 44630, Note_on_c, 2, 55, 0
4, 44645, Note_on_c, 2, 56, 64
4, 44750, Note_on_c, 2, 56, 0
4, 44765, Note_on_c, 2, 44, 64
4, 44817, Note_on_c, 2, 44, 0
4, 44825, Note_on_c, 2, 43, 64
4, 44930, Note_on_c, 2, 43, 0
4, 44945, Note_on_c, 2, 42, 64
4, 44997, Note_on_c, 2, 42, 0
4, 45005, Note_on_c, 2, 41, 64
4, 45110, Note_on_c, 2, 41, 0
4, 45125, Note_on_c, 2, 40, 64
4, 45177, Note_on_c, 2, 40, 0
4, 45185, Note_on_c, 2, 39, 64
4, 45290, Note_on_c, 2, 39, 0
4, 45305, Note_on_c, 2, 41, 64
4, 45357, Note_on_c, 2, 41, 0
4, 45365, Note_on_c, 2, 42, 64
4, 45470, Note_on_c, 2, 42, 0
4, 45485, Note_on_c, 2, 43, 64
4, 45537, Note_on_c, 2, 43, 0
4, 45545, Note_on_c, 2, 44, 64
4, 45890, Note_on_c, 2, 44, 0
4, 45905, Note_on_c, 2, 43, 64
4, 45957, Note_on_c, 2, 43, 0
4, 45965, Note_on_c, 2, 51, 64
4, 46017, Note_on_c, 2, 51, 0
4, 46025, Note_on_c, 2, 49, 64
4, 46077, Note_on_c, 2, 49, 0
4, 46085, Note_on_c, 2, 51, 64
4, 46137, Note_on_c, 2, 51, 0
4, 46145, Note_on_c, 2, 49, 64
4, 46197, Note_on_c, 2, 49, 0
4, 46205, Note_on_c, 2, 47, 64
4, 46257, Note_on_c, 2, 47, 0
4, 46265, Note_on_c, 2, 49, 64
4, 46317, Note_on_c, 2, 49, 0
4, 46325, Note_on_c, 2, 47, 64
4, 46377, Note_on_c, 2, 47, 0
4, 46385, Note_on_c, 2, 46, 64
4, 46437, Note_on_c, 2, 46, 0
4, 46445, Note_on_c, 2, 47, 64
4, 46497, Note_on_c, 2, 47, 0
4, 46505, Note_on_c, 2, 46, 64
4, 46557, Note_on_c, 2, 46, 0
4, 46565, Note_on_c, 2, 44, 64
4, 46617, Note_on_c, 2, 44, 0
4, 46625, Note_on_c, 2, 51, 64
4, 46910, Note_on_c, 2, 51, 0
4, 46925, Note_on_c, 2, 44, 64
4, 46977, Note_on_c, 2, 44, 0
4, 46985, Note_on_c, 2, 52, 64
4, 47217, Note_on_c, 2, 52, 0
4, 47225, Note_on_c, 2, 51, 64
4, 47277, Note_on_c, 2, 51, 0
4, 47285, Note_on_c, 2, 50, 64
4, 47337, Note_on_c, 2, 50, 0
4, 47345, Note_on_c, 2, 51, 64
4, 47937, Note_on_c, 2, 51, 0
4, 47945, Note_on_c, 2, 49, 64
4, 47997, Note_on_c, 2, 49, 0
4, 48005, Note_on_c, 2, 47, 64
4, 48057, Note_on_c, 2, 47, 0
4, 48065, Note_on_c, 2, 49, 64
4, 48117, Note_on_c, 2, 49, 0
4, 48125, Note_on_c, 2, 47, 64
4, 48177, Note_on_c, 2, 47, 0
4, 48185, Note_on_c, 2, 46, 64
4, 48237, Note_on_c, 2, 46, 0
4, 48245, Note_on_c, 2, 47, 64
4, 48297, Note_on_c, 2, 47, 0
4, 48305, Note_on_c, 2, 49, 64
4, 48331, Note_on_c, 2, 49, 0
4, 48335, Note_on_c, 2, 47, 64
4, 48361, Note_on_c, 2, 47, 0
4, 48365, Note_on_c, 2, 46, 64
4, 48391, Note_on_c, 2, 46, 0
4, 48395, Note_on_c, 2, 44, 64
4, 48421, Note_on_c, 2, 44, 0
4, 48425, Note_on_c, 2, 39, 64
4, 48710, Note_on_c, 2, 39, 0
4, 48725, Note_on_c, 2, 37, 64
4, 48777, Note_on_c, 2, 37, 0
4, 48785, Note_on_c, 2, 44, 64
4, 48890, Note_on_c, 2, 44, 0
4, 48905, Note_on_c, 2, 37, 64
4, 48957, Note_on_c, 2, 37, 0
4, 48965, Note_on_c, 2, 42, 64
4, 49070, Note_on_c, 2, 42, 0
4, 49085, Note_on_c, 2, 39, 64
4, 49137, Note_on_c, 2, 39, 0
4, 49145, Note_on_c, 2, 44, 64
4, 49250, Note_on_c, 2, 44, 0
4, 49265, Note_on_c, 2, 47, 64
4, 49317, Note_on_c, 2, 47, 0
4, 49325, Note_on_c, 2, 52, 64
4, 49430, Note_on_c, 2, 52, 0
4, 49445, Note_on_c, 2, 49, 64
4, 49497, Note_on_c, 2, 49, 0
4, 49505, Note_on_c, 2, 46, 64
4, 49610, Note_on_c, 2, 46, 0
4, 49625, Note_on_c, 2, 51, 64
4, 49677, Note_on_c, 2, 51, 0
4, 49685, Note_on_c, 2, 44, 64
4, 49790, Note_on_c, 2, 44, 0
4, 49805, Note_on_c, 2, 47, 64
4, 49857, Note_on_c, 2, 47, 0
4, 49865, Note_on_c, 2, 40, 64
4, 49917, Note_on_c, 2, 40, 0
4, 49925, Note_on_c, 2, 52, 64
4, 49977, Note_on_c, 2, 52, 0
4, 49985, Note_on_c, 2, 51, 64
4, 50037, Note_on_c, 2, 51, 0
4, 50045, Note_on_c, 2, 50, 64
4, 50277, Note_on_c, 2, 50, 0
4, 50285, Note_on_c, 2, 46, 64
4, 50337, Note_on_c, 2, 46, 0
4, 50345, Note_on_c, 2, 48, 64
4, 50397, Note_on_c, 2, 48, 0
4, 50405, Note_on_c, 2, 49, 64
4, 50637, Note_on_c, 2, 49, 0
4, 50645, Note_on_c, 2, 47, 64
4, 50697, Note_on_c, 2, 47, 0
4, 50705, Note_on_c, 2, 46, 64
4, 50757, Note_on_c, 2, 46, 0
4, 50765, Note_on_c, 2, 47, 64
4, 50817, Note_on_c, 2, 47, 0
4, 50825, Note_on_c, 2, 46, 64
4, 50877, Note_on_c, 2, 46, 0
4, 50885, Note_on_c, 2, 44, 64
4, 50937, Note_on_c, 2, 44, 0
4, 50945, Note_on_c, 2, 51, 64
4, 51050, Note_on_c, 2, 51, 0
4, 51065, Note_on_c, 2, 39, 64
4, 51117, Note_on_c, 2, 39, 0
4, 51125, Note_on_c, 2, 44, 64
4, 51470, Note_on_c, 2, 44, 0
4, 51470, End_track
0, 0, End_of_file
