0, 0, Header, 1, 3, 120
1, 0, Start_track
1, 0, Time_signature, 4, 2, 24, 8
1, 0, Key_signature, 5, "major"
1, 0, Tempo, 625000
1, 0, Marker_t, "Sequenced by Yo Tomita for WTC II project"
1, 0, End_track
2, 0, Start_track
2, 0, MIDI_port, 0
2, 0, Title_t, "BWV 887/1"
2, 0, Program_c, 0, 6
2, 6, Note_on_c, 0, 68, 64
2, 6, Note_on_c, 0, 59, 64
2, 6, Note_on_c, 0, 63, 64
2, 6, Note_on_c, 0, 56, 64
2, 32, Note_on_c, 0, 68, 0
2, 36, Note_on_c, 0, 70, 64
2, 62, Note_on_c, 0, 70, 0
2, 66, Note_on_c, 0, 71, 64
2, 92, Note_on_c, 0, 71, 0
2, 96, Note_on_c, 0, 73, 64
2, 111, Note_on_c, 0, 59, 0
2, 111, Note_on_c, 0, 56, 0
2, 111, Note_on_c, 0, 63, 0
2, 122, Note_on_c, 0, 73, 0
2, 126, Note_on_c, 0, 75, 64
2, 152, Note_on_c, 0, 75, 0
2, 156, Note_on_c, 0, 71, 64
2, 182, Note_on_c, 0, 71, 0
2, 186, Note_on_c, 0, 70, 64
2, 212, Note_on_c, 0, 70, 0
2, 216, Note_on_c, 0, 68, 64
2, 242, Note_on_c, 0, 68, 0
2, 246, Note_on_c, 0, 67, 64
2, 246, Note_on_c, 0, 58, 64
2, 246, Note_on_c, 0, 61, 64
2, 246, Note_on_c, 0, 56, 64
2, 272, Note_on_c, 0, 67, 0
2, 276, Note_on_c, 0, 68, 64
2, 302, Note_on_c, 0, 68, 0
2, 306, Note_on_c, 0, 70, 64
2, 332, Note_on_c, 0, 70, 0
2, 336, Note_on_c, 0, 64, 64
2, 351, Note_on_c, 0, 58, 0
2, 351, Note_on_c, 0, 56, 0
2, 351, Note_on_c, 0, 61, 0
2, 362, Note_on_c, 0, 64, 0
2, 366, Note_on_c, 0, 63, 64
2, 392, Note_on_c, 0, 63, 0
2, 396, Note_on_c, 0, 61, 64
2, 422, Note_on_c, 0, 61, 0
2, 426, Note_on_c, 0, 59, 64
2, 452, Note_on_c, 0, 59, 0
2, 456, Note_on_c, 0, 58, 64
2, 482, Note_on_c, 0, 58, 0
2, 486, Note_on_c, 0, 56, 64
2, 512, Note_on_c, 0, 56, 0
2, 516, Note_on_c, 0, 63, 64
2, 542, Note_on_c, 0, 63, 0
2, 546, Note_on_c, 0, 71, 64
2, 546, Note_on_c, 0, 68, 64
2, 546, Note_on_c, 0, 56, 64
2, 572, Note_on_c, 0, 56, 0
2, 576, Note_on_c, 0, 63, 64
2, 598, Note_on_c, 0, 68, 0
2, 598, Note_on_c, 0, 71, 0
2, 602, Note_on_c, 0, 63, 0
2, 606, Note_on_c, 0, 55, 64
2, 608, Note_on_c, 0, 68, 64
2, 608, Note_on_c, 0, 71, 64
2, 632, Note_on_c, 0, 55, 0
2, 636, Note_on_c, 0, 63, 64
2, 662, Note_on_c, 0, 63, 0
2, 666, Note_on_c, 0, 55, 64
2, 668, Note_on_c, 0, 70, 64
2, 668, Note_on_c, 0, 73, 64
2, 673, Note_on_c, 0, 71, 0
2, 673, Note_on_c, 0, 68, 0
2, 692, Note_on_c, 0, 55, 0
2, 696, Note_on_c, 0, 63, 64
2, 699, Note_on_c, 0, 70, 0
2, 699, Note_on_c, 0, 73, 0
2, 722, Note_on_c, 0, 63, 0
2, 726, Note_on_c, 0, 56, 64
2, 752, Note_on_c, 0, 56, 0
2, 756, Note_on_c, 0, 63, 64
2, 782, Note_on_c, 0, 63, 0
2, 786, Note_on_c, 0, 71, 64
2, 786, Note_on_c, 0, 68, 64
2, 786, Note_on_c, 0, 56, 64
2, 812, Note_on_c, 0, 56, 0
2, 816, Note_on_c, 0, 63, 64
2, 838, Note_on_c, 0, 68, 0
2, 838, Note_on_c, 0, 71, 0
2, 842, Note_on_c, 0, 63, 0
2, 846, Note_on_c, 0, 51, 64
2, 848, Note_on_c, 0, 68, 64
2, 848, Note_on_c, 0, 71, 64
2, 872, Note_on_c, 0, 51, 0
2, 876, Note_on_c, 0, 63, 64
2, 902, Note_on_c, 0, 63, 0
2, 906, Note_on_c, 0, 67, 64
2, 906, Note_on_c, 0, 70, 64
2, 906, Note_on_c, 0, 51, 64
2, 913, Note_on_c, 0, 71, 0
2, 913, Note_on_c, 0, 68, 0
2, 932, Note_on_c, 0, 51, 0
2, 936, Note_on_c, 0, 63, 64
2, 949, Note_on_c, 0, 67, 0
2, 949, Note_on_c, 0, 70, 0
2, 962, Note_on_c, 0, 63, 0
2, 966, Note_on_c, 0, 68, 45
2, 966, Note_on_c, 0, 59, 45
2, 966, Note_on_c, 0, 63, 45
2, 966, Note_on_c, 0, 56, 45
2, 992, Note_on_c, 0, 68, 0
2, 996, Note_on_c, 0, 70, 45
2, 1022, Note_on_c, 0, 70, 0
2, 1026, Note_on_c, 0, 71, 45
2, 1052, Note_on_c, 0, 71, 0
2, 1056, Note_on_c, 0, 73, 45
2, 1071, Note_on_c, 0, 59, 0
2, 1071, Note_on_c, 0, 56, 0
2, 1071, Note_on_c, 0, 63, 0
2, 1082, Note_on_c, 0, 73, 0
2, 1086, Note_on_c, 0, 75, 45
2, 1112, Note_on_c, 0, 75, 0
2, 1116, Note_on_c, 0, 71, 45
2, 1142, Note_on_c, 0, 71, 0
2, 1146, Note_on_c, 0, 70, 45
2, 1172, Note_on_c, 0, 70, 0
2, 1176, Note_on_c, 0, 68, 45
2, 1202, Note_on_c, 0, 68, 0
2, 1206, Note_on_c, 0, 67, 45
2, 1206, Note_on_c, 0, 58, 45
2, 1206, Note_on_c, 0, 61, 45
2, 1206, Note_on_c, 0, 56, 45
2, 1232, Note_on_c, 0, 67, 0
2, 1236, Note_on_c, 0, 68, 45
2, 1262, Note_on_c, 0, 68, 0
2, 1266, Note_on_c, 0, 70, 45
2, 1292, Note_on_c, 0, 70, 0
2, 1296, Note_on_c, 0, 64, 45
2, 1311, Note_on_c, 0, 58, 0
2, 1311, Note_on_c, 0, 56, 0
2, 1311, Note_on_c, 0, 61, 0
2, 1322, Note_on_c, 0, 64, 0
2, 1326, Note_on_c, 0, 63, 45
2, 1352, Note_on_c, 0, 63, 0
2, 1356, Note_on_c, 0, 61, 45
2, 1382, Note_on_c, 0, 61, 0
2, 1386, Note_on_c, 0, 59, 45
2, 1412, Note_on_c, 0, 59, 0
2, 1416, Note_on_c, 0, 58, 45
2, 1442, Note_on_c, 0, 58, 0
2, 1446, Note_on_c, 0, 56, 45
2, 1472, Note_on_c, 0, 56, 0
2, 1476, Note_on_c, 0, 63, 45
2, 1502, Note_on_c, 0, 63, 0
2, 1506, Note_on_c, 0, 80, 45
2, 1506, Note_on_c, 0, 71, 45
2, 1506, Note_on_c, 0, 56, 45
2, 1532, Note_on_c, 0, 56, 0
2, 1536, Note_on_c, 0, 63, 45
2, 1558, Note_on_c, 0, 71, 0
2, 1558, Note_on_c, 0, 80, 0
2, 1562, Note_on_c, 0, 63, 0
2, 1566, Note_on_c, 0, 71, 45
2, 1566, Note_on_c, 0, 80, 45
2, 1566, Note_on_c, 0, 55, 45
2, 1592, Note_on_c, 0, 55, 0
2, 1596, Note_on_c, 0, 63, 45
2, 1622, Note_on_c, 0, 63, 0
2, 1625, Note_on_c, 0, 80, 0
2, 1625, Note_on_c, 0, 71, 0
2, 1626, Note_on_c, 0, 82, 45
2, 1626, Note_on_c, 0, 73, 45
2, 1626, Note_on_c, 0, 55, 45
2, 1652, Note_on_c, 0, 55, 0
2, 1656, Note_on_c, 0, 63, 45
2, 1682, Note_on_c, 0, 63, 0
2, 1685, Note_on_c, 0, 73, 0
2, 1685, Note_on_c, 0, 82, 0
2, 1686, Note_on_c, 0, 56, 45
2, 1712, Note_on_c, 0, 56, 0
2, 1716, Note_on_c, 0, 63, 45
2, 1742, Note_on_c, 0, 63, 0
2, 1746, Note_on_c, 0, 80, 45
2, 1746, Note_on_c, 0, 71, 45
2, 1746, Note_on_c, 0, 56, 45
2, 1772, Note_on_c, 0, 56, 0
2, 1776, Note_on_c, 0, 63, 45
2, 1798, Note_on_c, 0, 71, 0
2, 1798, Note_on_c, 0, 80, 0
2, 1802, Note_on_c, 0, 63, 0
2, 1806, Note_on_c, 0, 80, 45
2, 1806, Note_on_c, 0, 71, 45
2, 1806, Note_on_c, 0, 51, 45
2, 1832, Note_on_c, 0, 51, 0
2, 1836, Note_on_c, 0, 63, 45
2, 1862, Note_on_c, 0, 63, 0
2, 1865, Note_on_c, 0, 71, 0
2, 1865, Note_on_c, 0, 80, 0
2, 1866, Note_on_c, 0, 70, 45
2, 1866, Note_on_c, 0, 79, 45
2, 1866, Note_on_c, 0, 51, 45
2, 1892, Note_on_c, 0, 51, 0
2, 1896, Note_on_c, 0, 63, 45
2, 1922, Note_on_c, 0, 63, 0
2, 1925, Note_on_c, 0, 79, 0
2, 1925, Note_on_c, 0, 70, 0
2, 1926, Note_on_c, 0, 56, 45
2, 1952, Note_on_c, 0, 56, 0
2, 1956, Note_on_c, 0, 63, 64
2, 1982, Note_on_c, 0, 63, 0
2, 1986, Note_on_c, 0, 71, 64
2, 1986, Note_on_c, 0, 68, 64
2, 1986, Note_on_c, 0, 56, 64
2, 2012, Note_on_c, 0, 56, 0
2, 2012, Note_on_c, 0, 68, 0
2, 2012, Note_on_c, 0, 71, 0
2, 2016, Note_on_c, 0, 70, 64
2, 2016, Note_on_c, 0, 67, 64
2, 2016, Note_on_c, 0, 63, 64
2, 2042, Note_on_c, 0, 63, 0
2, 2042, Note_on_c, 0, 67, 0
2, 2042, Note_on_c, 0, 70, 0
2, 2046, Note_on_c, 0, 71, 64
2, 2046, Note_on_c, 0, 68, 64
2, 2046, Note_on_c, 0, 54, 64
2, 2072, Note_on_c, 0, 54, 0
2, 2076, Note_on_c, 0, 63, 64
2, 2098, Note_on_c, 0, 68, 0
2, 2098, Note_on_c, 0, 71, 0
2, 2102, Note_on_c, 0, 63, 0
2, 2106, Note_on_c, 0, 80, 64
2, 2106, Note_on_c, 0, 71, 64
2, 2106, Note_on_c, 0, 54, 64
2, 2132, Note_on_c, 0, 54, 0
2, 2136, Note_on_c, 0, 63, 64
2, 2158, Note_on_c, 0, 71, 0
2, 2158, Note_on_c, 0, 80, 0
2, 2162, Note_on_c, 0, 63, 0
2, 2166, Note_on_c, 0, 53, 64
2, 2192, Note_on_c, 0, 53, 0
2, 2196, Note_on_c, 0, 61, 64
2, 2222, Note_on_c, 0, 61, 0
2, 2226, Note_on_c, 0, 71, 64
2, 2226, Note_on_c, 0, 68, 64
2, 2226, Note_on_c, 0, 53, 64
2, 2252, Note_on_c, 0, 53, 0
2, 2256, Note_on_c, 0, 61, 64
2, 2278, Note_on_c, 0, 68, 0
2, 2278, Note_on_c, 0, 71, 0
2, 2282, Note_on_c, 0, 61, 0
2, 2286, Note_on_c, 0, 49, 64
2, 2312, Note_on_c, 0, 49, 0
2, 2316, Note_on_c, 0, 61, 64
2, 2342, Note_on_c, 0, 61, 0
2, 2346, Note_on_c, 0, 70, 64
2, 2346, Note_on_c, 0, 65, 64
2, 2346, Note_on_c, 0, 49, 64
2, 2372, Note_on_c, 0, 49, 0
2, 2372, Note_on_c, 0, 70, 0
2, 2376, Note_on_c, 0, 68, 64
2, 2376, Note_on_c, 0, 61, 64
2, 2398, Note_on_c, 0, 65, 0
2, 2402, Note_on_c, 0, 61, 0
2, 2402, Note_on_c, 0, 68, 0
2, 2406, Note_on_c, 0, 54, 64
2, 2432, Note_on_c, 0, 54, 0
2, 2436, Note_on_c, 0, 61, 64
2, 2462, Note_on_c, 0, 61, 0
2, 2466, Note_on_c, 0, 70, 64
2, 2466, Note_on_c, 0, 66, 64
2, 2466, Note_on_c, 0, 54, 64
2, 2492, Note_on_c, 0, 54, 0
2, 2492, Note_on_c, 0, 66, 0
2, 2492, Note_on_c, 0, 70, 0
2, 2496, Note_on_c, 0, 68, 64
2, 2496, Note_on_c, 0, 65, 64
2, 2496, Note_on_c, 0, 61, 64
2, 2522, Note_on_c, 0, 61, 0
2, 2522, Note_on_c, 0, 65, 0
2, 2522, Note_on_c, 0, 68, 0
2, 2526, Note_on_c, 0, 70, 64
2, 2526, Note_on_c, 0, 66, 64
2, 2526, Note_on_c, 0, 52, 64
2, 2552, Note_on_c, 0, 52, 0
2, 2556, Note_on_c, 0, 61, 64
2, 2578, Note_on_c, 0, 66, 0
2, 2578, Note_on_c, 0, 70, 0
2, 2582, Note_on_c, 0, 61, 0
2, 2586, Note_on_c, 0, 78, 64
2, 2586, Note_on_c, 0, 70, 64
2, 2586, Note_on_c, 0, 52, 64
2, 2612, Note_on_c, 0, 52, 0
2, 2616, Note_on_c, 0, 61, 64
2, 2638, Note_on_c, 0, 70, 0
2, 2638, Note_on_c, 0, 78, 0
2, 2642, Note_on_c, 0, 61, 0
2, 2646, Note_on_c, 0, 51, 64
2, 2672, Note_on_c, 0, 51, 0
2, 2676, Note_on_c, 0, 59, 64
2, 2702, Note_on_c, 0, 59, 0
2, 2706, Note_on_c, 0, 70, 64
2, 2706, Note_on_c, 0, 66, 64
2, 2706, Note_on_c, 0, 51, 64
2, 2732, Note_on_c, 0, 51, 0
2, 2736, Note_on_c, 0, 59, 64
2, 2758, Note_on_c, 0, 66, 0
2, 2758, Note_on_c, 0, 70, 0
2, 2762, Note_on_c, 0, 59, 0
2, 2766, Note_on_c, 0, 47, 64
2, 2792, Note_on_c, 0, 47, 0
2, 2796, Note_on_c, 0, 59, 64
2, 2822, Note_on_c, 0, 59, 0
2, 2826, Note_on_c, 0, 68, 64
2, 2826, Note_on_c, 0, 63, 64
2, 2826, Note_on_c, 0, 47, 64
2, 2852, Note_on_c, 0, 47, 0
2, 2852, Note_on_c, 0, 68, 0
2, 2856, Note_on_c, 0, 66, 64
2, 2856, Note_on_c, 0, 59, 64
2, 2878, Note_on_c, 0, 63, 0
2, 2882, Note_on_c, 0, 59, 0
2, 2882, Note_on_c, 0, 66, 0
2, 2886, Note_on_c, 0, 53, 64
2, 2912, Note_on_c, 0, 53, 0
2, 2916, Note_on_c, 0, 59, 64
2, 2942, Note_on_c, 0, 59, 0
2, 2946, Note_on_c, 0, 68, 64
2, 2946, Note_on_c, 0, 62, 64
2, 2946, Note_on_c, 0, 53, 64
2, 2972, Note_on_c, 0, 53, 0
2, 2972, Note_on_c, 0, 62, 0
2, 2972, Note_on_c, 0, 68, 0
2, 2976, Note_on_c, 0, 66, 64
2, 2976, Note_on_c, 0, 63, 64
2, 2976, Note_on_c, 0, 59, 64
2, 3002, Note_on_c, 0, 59, 0
2, 3002, Note_on_c, 0, 63, 0
2, 3002, Note_on_c, 0, 66, 0
2, 3006, Note_on_c, 0, 68, 64
2, 3006, Note_on_c, 0, 65, 64
2, 3006, Note_on_c, 0, 51, 64
2, 3032, Note_on_c, 0, 51, 0
2, 3036, Note_on_c, 0, 59, 64
2, 3058, Note_on_c, 0, 65, 0
2, 3058, Note_on_c, 0, 68, 0
2, 3062, Note_on_c, 0, 59, 0
2, 3066, Note_on_c, 0, 77, 64
2, 3066, Note_on_c, 0, 68, 64
2, 3066, Note_on_c, 0, 51, 64
2, 3092, Note_on_c, 0, 51, 0
2, 3096, Note_on_c, 0, 59, 64
2, 3118, Note_on_c, 0, 68, 0
2, 3118, Note_on_c, 0, 77, 0
2, 3122, Note_on_c, 0, 59, 0
2, 3126, Note_on_c, 0, 50, 64
2, 3152, Note_on_c, 0, 50, 0
2, 3156, Note_on_c, 0, 58, 64
2, 3182, Note_on_c, 0, 58, 0
2, 3186, Note_on_c, 0, 68, 64
2, 3186, Note_on_c, 0, 65, 64
2, 3186, Note_on_c, 0, 50, 64
2, 3212, Note_on_c, 0, 50, 0
2, 3216, Note_on_c, 0, 58, 64
2, 3238, Note_on_c, 0, 65, 0
2, 3238, Note_on_c, 0, 68, 0
2, 3242, Note_on_c, 0, 58, 0
2, 3246, Note_on_c, 0, 46, 64
2, 3272, Note_on_c, 0, 46, 0
2, 3276, Note_on_c, 0, 58, 64
2, 3302, Note_on_c, 0, 58, 0
2, 3306, Note_on_c, 0, 66, 64
2, 3306, Note_on_c, 0, 62, 64
2, 3306, Note_on_c, 0, 46, 64
2, 3332, Note_on_c, 0, 46, 0
2, 3332, Note_on_c, 0, 66, 0
2, 3336, Note_on_c, 0, 65, 64
2, 3336, Note_on_c, 0, 58, 64
2, 3358, Note_on_c, 0, 62, 0
2, 3362, Note_on_c, 0, 58, 0
2, 3362, Note_on_c, 0, 65, 0
2, 3366, Note_on_c, 0, 66, 64
2, 3366, Note_on_c, 0, 63, 64
2, 3366, Note_on_c, 0, 51, 64
2, 3392, Note_on_c, 0, 51, 0
2, 3396, Note_on_c, 0, 54, 64
2, 3422, Note_on_c, 0, 54, 0
2, 3426, Note_on_c, 0, 56, 64
2, 3452, Note_on_c, 0, 56, 0
2, 3456, Note_on_c, 0, 58, 64
2, 3471, Note_on_c, 0, 63, 0
2, 3471, Note_on_c, 0, 66, 0
2, 3482, Note_on_c, 0, 58, 0
2, 3486, Note_on_c, 0, 59, 64
2, 3516, Note_on_c, 0, 70, 64
2, 3538, Note_on_c, 0, 59, 0
2, 3542, Note_on_c, 0, 70, 0
2, 3546, Note_on_c, 0, 68, 64
2, 3546, Note_on_c, 0, 51, 64
2, 3572, Note_on_c, 0, 68, 0
2, 3576, Note_on_c, 0, 66, 64
2, 3598, Note_on_c, 0, 51, 0
2, 3602, Note_on_c, 0, 66, 0
2, 3606, Note_on_c, 0, 65, 64
2, 3606, Note_on_c, 0, 50, 64
2, 3632, Note_on_c, 0, 65, 0
2, 3636, Note_on_c, 0, 63, 64
2, 3658, Note_on_c, 0, 50, 0
2, 3662, Note_on_c, 0, 63, 0
2, 3666, Note_on_c, 0, 65, 64
2, 3666, Note_on_c, 0, 59, 64
2, 3692, Note_on_c, 0, 65, 0
2, 3696, Note_on_c, 0, 68, 64
2, 3718, Note_on_c, 0, 59, 0
2, 3722, Note_on_c, 0, 68, 0
2, 3726, Note_on_c, 0, 67, 64
2, 3726, Note_on_c, 0, 58, 64
2, 3752, Note_on_c, 0, 67, 0
2, 3756, Note_on_c, 0, 65, 64
2, 3778, Note_on_c, 0, 58, 0
2, 3782, Note_on_c, 0, 65, 0
2, 3786, Note_on_c, 0, 67, 64
2, 3786, Note_on_c, 0, 49, 64
2, 3812, Note_on_c, 0, 67, 0
2, 3816, Note_on_c, 0, 70, 64
2, 3838, Note_on_c, 0, 49, 0
2, 3842, Note_on_c, 0, 70, 0
2, 3846, Note_on_c, 0, 70, 64
2, 3846, Note_on_c, 0, 48, 64
2, 3872, Note_on_c, 0, 48, 0
2, 3876, Note_on_c, 0, 51, 64
2, 3898, Note_on_c, 0, 70, 0
2, 3902, Note_on_c, 0, 51, 0
2, 3906, Note_on_c, 0, 68, 64
2, 3906, Note_on_c, 0, 53, 64
2, 3932, Note_on_c, 0, 53, 0
2, 3936, Note_on_c, 0, 55, 64
2, 3958, Note_on_c, 0, 68, 0
2, 3962, Note_on_c, 0, 55, 0
2, 3966, Note_on_c, 0, 56, 64
2, 3996, Note_on_c, 0, 66, 64
2, 4018, Note_on_c, 0, 56, 0
2, 4022, Note_on_c, 0, 66, 0
2, 4026, Note_on_c, 0, 64, 64
2, 4026, Note_on_c, 0, 47, 64
2, 4052, Note_on_c, 0, 64, 0
2, 4056, Note_on_c, 0, 63, 64
2, 4078, Note_on_c, 0, 47, 0
2, 4082, Note_on_c, 0, 63, 0
2, 4086, Note_on_c, 0, 61, 64
2, 4086, Note_on_c, 0, 46, 64
2, 4112, Note_on_c, 0, 61, 0
2, 4116, Note_on_c, 0, 60, 64
2, 4138, Note_on_c, 0, 46, 0
2, 4142, Note_on_c, 0, 60, 0
2, 4146, Note_on_c, 0, 61, 64
2, 4146, Note_on_c, 0, 55, 64
2, 4172, Note_on_c, 0, 61, 0
2, 4176, Note_on_c, 0, 64, 64
2, 4198, Note_on_c, 0, 55, 0
2, 4202, Note_on_c, 0, 64, 0
2, 4206, Note_on_c, 0, 63, 64
2, 4206, Note_on_c, 0, 54, 64
2, 4232, Note_on_c, 0, 63, 0
2, 4236, Note_on_c, 0, 61, 64
2, 4258, Note_on_c, 0, 54, 0
2, 4262, Note_on_c, 0, 61, 0
2, 4266, Note_on_c, 0, 63, 64
2, 4266, Note_on_c, 0, 45, 64
2, 4292, Note_on_c, 0, 63, 0
2, 4296, Note_on_c, 0, 66, 64
2, 4318, Note_on_c, 0, 45, 0
2, 4322, Note_on_c, 0, 66, 0
2, 4326, Note_on_c, 0, 66, 64
2, 4326, Note_on_c, 0, 44, 64
2, 4352, Note_on_c, 0, 44, 0
2, 4356, Note_on_c, 0, 48, 64
2, 4378, Note_on_c, 0, 66, 0
2, 4382, Note_on_c, 0, 48, 0
2, 4386, Note_on_c, 0, 64, 64
2, 4386, Note_on_c, 0, 49, 64
2, 4412, Note_on_c, 0, 49, 0
2, 4416, Note_on_c, 0, 51, 64
2, 4438, Note_on_c, 0, 64, 0
2, 4442, Note_on_c, 0, 51, 0
2, 4446, Note_on_c, 0, 52, 64
2, 4476, Note_on_c, 0, 63, 64
2, 4498, Note_on_c, 0, 52, 0
2, 4502, Note_on_c, 0, 63, 0
2, 4506, Note_on_c, 0, 61, 64
2, 4506, Note_on_c, 0, 44, 64
2, 4532, Note_on_c, 0, 61, 0
2, 4536, Note_on_c, 0, 59, 64
2, 4558, Note_on_c, 0, 44, 0
2, 4562, Note_on_c, 0, 59, 0
2, 4566, Note_on_c, 0, 58, 64
2, 4566, Note_on_c, 0, 43, 64
2, 4592, Note_on_c, 0, 58, 0
2, 4596, Note_on_c, 0, 56, 64
2, 4618, Note_on_c, 0, 43, 0
2, 4622, Note_on_c, 0, 56, 0
2, 4626, Note_on_c, 0, 58, 64
2, 4626, Note_on_c, 0, 52, 64
2, 4652, Note_on_c, 0, 58, 0
2, 4656, Note_on_c, 0, 61, 64
2, 4678, Note_on_c, 0, 52, 0
2, 4682, Note_on_c, 0, 61, 0
2, 4686, Note_on_c, 0, 60, 64
2, 4686, Note_on_c, 0, 51, 64
2, 4712, Note_on_c, 0, 60, 0
2, 4716, Note_on_c, 0, 58, 64
2, 4738, Note_on_c, 0, 51, 0
2, 4742, Note_on_c, 0, 58, 0
2, 4746, Note_on_c, 0, 60, 64
2, 4746, Note_on_c, 0, 42, 64
2, 4772, Note_on_c, 0, 60, 0
2, 4776, Note_on_c, 0, 63, 64
2, 4798, Note_on_c, 0, 42, 0
2, 4802, Note_on_c, 0, 63, 0
2, 4806, Note_on_c, 0, 56, 64
2, 4806, Note_on_c, 0, 41, 64
2, 4832, Note_on_c, 0, 56, 0
2, 4836, Note_on_c, 0, 55, 64
2, 4858, Note_on_c, 0, 41, 0
2, 4862, Note_on_c, 0, 55, 0
2, 4866, Note_on_c, 0, 56, 64
2, 4866, Note_on_c, 0, 50, 64
2, 4892, Note_on_c, 0, 56, 0
2, 4896, Note_on_c, 0, 59, 64
2, 4918, Note_on_c, 0, 50, 0
2, 4922, Note_on_c, 0, 59, 0
2, 4926, Note_on_c, 0, 58, 64
2, 4926, Note_on_c, 0, 49, 64
2, 4952, Note_on_c, 0, 58, 0
2, 4956, Note_on_c, 0, 56, 64
2, 4978, Note_on_c, 0, 49, 0
2, 4982, Note_on_c, 0, 56, 0
2, 4986, Note_on_c, 0, 58, 64
2, 4986, Note_on_c, 0, 40, 64
2, 5012, Note_on_c, 0, 58, 0
2, 5016, Note_on_c, 0, 61, 64
2, 5038, Note_on_c, 0, 40, 0
2, 5042, Note_on_c, 0, 61, 0
2, 5046, Note_on_c, 0, 55, 64
2, 5046, Note_on_c, 0, 39, 64
2, 5072, Note_on_c, 0, 55, 0
2, 5076, Note_on_c, 0, 64, 64
2, 5098, Note_on_c, 0, 39, 0
2, 5102, Note_on_c, 0, 64, 0
2, 5106, Note_on_c, 0, 63, 64
2, 5106, Note_on_c, 0, 41, 64
2, 5132, Note_on_c, 0, 63, 0
2, 5136, Note_on_c, 0, 61, 64
2, 5158, Note_on_c, 0, 41, 0
2, 5162, Note_on_c, 0, 61, 0
2, 5166, Note_on_c, 0, 70, 64
2, 5166, Note_on_c, 0, 43, 64
2, 5192, Note_on_c, 0, 70, 0
2, 5196, Note_on_c, 0, 61, 64
2, 5218, Note_on_c, 0, 43, 0
2, 5222, Note_on_c, 0, 61, 0
2, 5226, Note_on_c, 0, 70, 64
2, 5226, Note_on_c, 0, 39, 64
2, 5252, Note_on_c, 0, 70, 0
2, 5256, Note_on_c, 0, 61, 64
2, 5278, Note_on_c, 0, 39, 0
2, 5282, Note_on_c, 0, 61, 0
2, 5286, Note_on_c, 0, 60, 64
2, 5286, Note_on_c, 0, 44, 64
2, 5312, Note_on_c, 0, 60, 0
2, 5316, Note_on_c, 0, 69, 64
2, 5338, Note_on_c, 0, 44, 0
2, 5342, Note_on_c, 0, 69, 0
2, 5346, Note_on_c, 0, 68, 64
2, 5346, Note_on_c, 0, 46, 64
2, 5372, Note_on_c, 0, 68, 0
2, 5376, Note_on_c, 0, 66, 64
2, 5398, Note_on_c, 0, 46, 0
2, 5402, Note_on_c, 0, 66, 0
2, 5406, Note_on_c, 0, 75, 64
2, 5406, Note_on_c, 0, 48, 64
2, 5432, Note_on_c, 0, 75, 0
2, 5436, Note_on_c, 0, 66, 64
2, 5458, Note_on_c, 0, 48, 0
2, 5462, Note_on_c, 0, 66, 0
2, 5466, Note_on_c, 0, 75, 64
2, 5466, Note_on_c, 0, 44, 64
2, 5492, Note_on_c, 0, 75, 0
2, 5496, Note_on_c, 0, 66, 64
2, 5518, Note_on_c, 0, 44, 0
2, 5522, Note_on_c, 0, 66, 0
2, 5526, Note_on_c, 0, 65, 64
2, 5526, Note_on_c, 0, 49, 64
2, 5552, Note_on_c, 0, 65, 0
2, 5556, Note_on_c, 0, 62, 64
2, 5578, Note_on_c, 0, 49, 0
2, 5582, Note_on_c, 0, 62, 0
2, 5586, Note_on_c, 0, 61, 64
2, 5586, Note_on_c, 0, 51, 64
2, 5612, Note_on_c, 0, 61, 0
2, 5616, Note_on_c, 0, 59, 64
2, 5638, Note_on_c, 0, 51, 0
2, 5642, Note_on_c, 0, 59, 0
2, 5646, Note_on_c, 0, 68, 64
2, 5646, Note_on_c, 0, 53, 64
2, 5672, Note_on_c, 0, 68, 0
2, 5676, Note_on_c, 0, 59, 64
2, 5698, Note_on_c, 0, 53, 0
2, 5702, Note_on_c, 0, 59, 0
2, 5706, Note_on_c, 0, 68, 64
2, 5706, Note_on_c, 0, 49, 64
2, 5732, Note_on_c, 0, 68, 0
2, 5736, Note_on_c, 0, 59, 64
2, 5758, Note_on_c, 0, 49, 0
2, 5762, Note_on_c, 0, 59, 0
2, 5766, Note_on_c, 0, 58, 64
2, 5766, Note_on_c, 0, 54, 64
2, 5792, Note_on_c, 0, 58, 0
2, 5796, Note_on_c, 0, 67, 64
2, 5818, Note_on_c, 0, 54, 0
2, 5822, Note_on_c, 0, 67, 0
2, 5826, Note_on_c, 0, 66, 64
2, 5826, Note_on_c, 0, 56, 64
2, 5852, Note_on_c, 0, 66, 0
2, 5856, Note_on_c, 0, 64, 64
2, 5878, Note_on_c, 0, 56, 0
2, 5882, Note_on_c, 0, 64, 0
2, 5886, Note_on_c, 0, 73, 64
2, 5886, Note_on_c, 0, 58, 64
2, 5912, Note_on_c, 0, 73, 0
2, 5916, Note_on_c, 0, 64, 64
2, 5938, Note_on_c, 0, 58, 0
2, 5942, Note_on_c, 0, 64, 0
2, 5946, Note_on_c, 0, 73, 64
2, 5946, Note_on_c, 0, 54, 64
2, 5972, Note_on_c, 0, 73, 0
2, 5976, Note_on_c, 0, 64, 64
2, 5998, Note_on_c, 0, 54, 0
2, 6002, Note_on_c, 0, 64, 0
2, 6006, Note_on_c, 0, 63, 64
2, 6006, Note_on_c, 0, 59, 64
2, 6032, Note_on_c, 0, 63, 0
2, 6036, Note_on_c, 0, 66, 64
2, 6058, Note_on_c, 0, 59, 0
2, 6062, Note_on_c, 0, 66, 0
2, 6066, Note_on_c, 0, 68, 64
2, 6066, Note_on_c, 0, 58, 64
2, 6092, Note_on_c, 0, 68, 0
2, 6096, Note_on_c, 0, 70, 64
2, 6118, Note_on_c, 0, 58, 0
2, 6122, Note_on_c, 0, 70, 0
2, 6126, Note_on_c, 0, 71, 64
2, 6126, Note_on_c, 0, 56, 64
2, 6152, Note_on_c, 0, 71, 0
2, 6156, Note_on_c, 0, 66, 64
2, 6178, Note_on_c, 0, 56, 0
2, 6182, Note_on_c, 0, 66, 0
2, 6186, Note_on_c, 0, 65, 64
2, 6186, Note_on_c, 0, 54, 64
2, 6212, Note_on_c, 0, 65, 0
2, 6216, Note_on_c, 0, 63, 64
2, 6238, Note_on_c, 0, 54, 0
2, 6242, Note_on_c, 0, 63, 0
2, 6246, Note_on_c, 0, 62, 64
2, 6246, Note_on_c, 0, 53, 64
2, 6272, Note_on_c, 0, 62, 0
2, 6276, Note_on_c, 0, 71, 64
2, 6298, Note_on_c, 0, 53, 0
2, 6302, Note_on_c, 0, 71, 0
2, 6306, Note_on_c, 0, 70, 64
2, 6306, Note_on_c, 0, 56, 64
2, 6332, Note_on_c, 0, 70, 0
2, 6336, Note_on_c, 0, 68, 64
2, 6358, Note_on_c, 0, 56, 0
2, 6362, Note_on_c, 0, 68, 0
2, 6366, Note_on_c, 0, 77, 64
2, 6366, Note_on_c, 0, 50, 64
2, 6392, Note_on_c, 0, 77, 0
2, 6396, Note_on_c, 0, 68, 64
2, 6418, Note_on_c, 0, 50, 0
2, 6422, Note_on_c, 0, 68, 0
2, 6426, Note_on_c, 0, 77, 64
2, 6426, Note_on_c, 0, 46, 64
2, 6452, Note_on_c, 0, 77, 0
2, 6456, Note_on_c, 0, 68, 64
2, 6478, Note_on_c, 0, 46, 0
2, 6482, Note_on_c, 0, 68, 0
2, 6486, Note_on_c, 0, 66, 64
2, 6486, Note_on_c, 0, 51, 64
2, 6512, Note_on_c, 0, 66, 0
2, 6516, Note_on_c, 0, 70, 64
2, 6538, Note_on_c, 0, 51, 0
2, 6542, Note_on_c, 0, 70, 0
2, 6546, Note_on_c, 0, 75, 64
2, 6546, Note_on_c, 0, 49, 64
2, 6572, Note_on_c, 0, 75, 0
2, 6576, Note_on_c, 0, 77, 64
2, 6598, Note_on_c, 0, 49, 0
2, 6602, Note_on_c, 0, 77, 0
2, 6606, Note_on_c, 0, 78, 64
2, 6606, Note_on_c, 0, 48, 64
2, 6632, Note_on_c, 0, 78, 0
2, 6636, Note_on_c, 0, 75, 64
2, 6658, Note_on_c, 0, 48, 0
2, 6662, Note_on_c, 0, 75, 0
2, 6666, Note_on_c, 0, 72, 64
2, 6666, Note_on_c, 0, 46, 64
2, 6692, Note_on_c, 0, 72, 0
2, 6696, Note_on_c, 0, 75, 64
2, 6718, Note_on_c, 0, 46, 0
2, 6722, Note_on_c, 0, 75, 0
2, 6726, Note_on_c, 0, 69, 64
2, 6726, Note_on_c, 0, 48, 64
2, 6752, Note_on_c, 0, 69, 0
2, 6756, Note_on_c, 0, 78, 64
2, 6778, Note_on_c, 0, 48, 0
2, 6782, Note_on_c, 0, 78, 0
2, 6786, Note_on_c, 0, 77, 64
2, 6786, Note_on_c, 0, 51, 64
2, 6812, Note_on_c, 0, 77, 0
2, 6816, Note_on_c, 0, 75, 64
2, 6838, Note_on_c, 0, 51, 0
2, 6842, Note_on_c, 0, 75, 0
2, 6846, Note_on_c, 0, 84, 64
2, 6846, Note_on_c, 0, 45, 64
2, 6872, Note_on_c, 0, 84, 0
2, 6876, Note_on_c, 0, 75, 64
2, 6898, Note_on_c, 0, 45, 0
2, 6902, Note_on_c, 0, 75, 0
2, 6906, Note_on_c, 0, 84, 64
2, 6906, Note_on_c, 0, 41, 64
2, 6932, Note_on_c, 0, 84, 0
2, 6936, Note_on_c, 0, 75, 64
2, 6958, Note_on_c, 0, 41, 0
2, 6962, Note_on_c, 0, 75, 0
2, 6966, Note_on_c, 0, 74, 64
2, 6966, Note_on_c, 0, 46, 64
2, 6992, Note_on_c, 0, 74, 0
2, 6996, Note_on_c, 0, 75, 64
2, 7018, Note_on_c, 0, 46, 0
2, 7022, Note_on_c, 0, 75, 0
2, 7026, Note_on_c, 0, 77, 64
2, 7052, Note_on_c, 0, 77, 0
2, 7056, Note_on_c, 0, 82, 64
2, 7082, Note_on_c, 0, 82, 0
2, 7086, Note_on_c, 0, 70, 64
2, 7112, Note_on_c, 0, 70, 0
2, 7116, Note_on_c, 0, 68, 64
2, 7142, Note_on_c, 0, 68, 0
2, 7146, Note_on_c, 0, 66, 64
2, 7172, Note_on_c, 0, 66, 0
2, 7176, Note_on_c, 0, 65, 64
2, 7202, Note_on_c, 0, 65, 0
2, 7206, Note_on_c, 0, 63, 64
2, 7232, Note_on_c, 0, 63, 0
2, 7236, Note_on_c, 0, 74, 64
2, 7236, Note_on_c, 0, 65, 64
2, 7262, Note_on_c, 0, 65, 0
2, 7262, Note_on_c, 0, 74, 0
2, 7266, Note_on_c, 0, 75, 64
2, 7266, Note_on_c, 0, 66, 64
2, 7292, Note_on_c, 0, 66, 0
2, 7292, Note_on_c, 0, 75, 0
2, 7296, Note_on_c, 0, 77, 64
2, 7296, Note_on_c, 0, 68, 64
2, 7322, Note_on_c, 0, 68, 0
2, 7322, Note_on_c, 0, 77, 0
2, 7326, Note_on_c, 0, 78, 64
2, 7326, Note_on_c, 0, 70, 64
2, 7339, Note_on_c, 0, 78, 0
2, 7341, Note_on_c, 0, 77, 64
2, 7352, Note_on_c, 0, 70, 0
2, 7354, Note_on_c, 0, 77, 0
2, 7356, Note_on_c, 0, 75, 64
2, 7356, Note_on_c, 0, 66, 64
2, 7382, Note_on_c, 0, 66, 0
2, 7382, Note_on_c, 0, 75, 0
2, 7386, Note_on_c, 0, 83, 64
2, 7386, Note_on_c, 0, 80, 64
2, 7386, Note_on_c, 0, 65, 64
2, 7412, Note_on_c, 0, 65, 0
2, 7416, Note_on_c, 0, 63, 64
2, 7438, Note_on_c, 0, 80, 0
2, 7438, Note_on_c, 0, 83, 0
2, 7442, Note_on_c, 0, 63, 0
2, 7446, Note_on_c, 0, 83, 64
2, 7446, Note_on_c, 0, 80, 64
2, 7446, Note_on_c, 0, 62, 64
2, 7472, Note_on_c, 0, 62, 0
2, 7476, Note_on_c, 0, 63, 64
2, 7498, Note_on_c, 0, 80, 0
2, 7498, Note_on_c, 0, 83, 0
2, 7502, Note_on_c, 0, 63, 0
2, 7506, Note_on_c, 0, 82, 64
2, 7506, Note_on_c, 0, 74, 64
2, 7506, Note_on_c, 0, 65, 64
2, 7532, Note_on_c, 0, 65, 0
2, 7536, Note_on_c, 0, 59, 64
2, 7558, Note_on_c, 0, 74, 0
2, 7558, Note_on_c, 0, 82, 0
2, 7562, Note_on_c, 0, 59, 0
2, 7566, Note_on_c, 0, 58, 64
2, 7592, Note_on_c, 0, 58, 0
2, 7596, Note_on_c, 0, 56, 64
2, 7622, Note_on_c, 0, 56, 0
2, 7626, Note_on_c, 0, 54, 64
2, 7652, Note_on_c, 0, 54, 0
2, 7656, Note_on_c, 0, 53, 64
2, 7682, Note_on_c, 0, 53, 0
2, 7686, Note_on_c, 0, 51, 64
2, 7712, Note_on_c, 0, 51, 0
2, 7716, Note_on_c, 0, 58, 64
2, 7742, Note_on_c, 0, 58, 0
2, 7746, Note_on_c, 0, 78, 64
2, 7746, Note_on_c, 0, 75, 64
2, 7746, Note_on_c, 0, 51, 64
2, 7772, Note_on_c, 0, 51, 0
2, 7776, Note_on_c, 0, 58, 64
2, 7798, Note_on_c, 0, 75, 0
2, 7798, Note_on_c, 0, 78, 0
2, 7802, Note_on_c, 0, 58, 0
2, 7806, Note_on_c, 0, 75, 64
2, 7806, Note_on_c, 0, 78, 64
2, 7806, Note_on_c, 0, 50, 64
2, 7832, Note_on_c, 0, 50, 0
2, 7836, Note_on_c, 0, 58, 64
2, 7862, Note_on_c, 0, 58, 0
2, 7865, Note_on_c, 0, 78, 0
2, 7865, Note_on_c, 0, 75, 0
2, 7866, Note_on_c, 0, 77, 64
2, 7866, Note_on_c, 0, 80, 64
2, 7866, Note_on_c, 0, 50, 64
2, 7892, Note_on_c, 0, 50, 0
2, 7896, Note_on_c, 0, 58, 64
2, 7922, Note_on_c, 0, 58, 0
2, 7925, Note_on_c, 0, 80, 0
2, 7925, Note_on_c, 0, 77, 0
2, 7926, Note_on_c, 0, 51, 64
2, 7952, Note_on_c, 0, 51, 0
2, 7956, Note_on_c, 0, 58, 64
2, 7982, Note_on_c, 0, 58, 0
2, 7986, Note_on_c, 0, 78, 64
2, 7986, Note_on_c, 0, 75, 64
2, 7986, Note_on_c, 0, 51, 64
2, 8012, Note_on_c, 0, 51, 0
2, 8016, Note_on_c, 0, 58, 64
2, 8038, Note_on_c, 0, 75, 0
2, 8038, Note_on_c, 0, 78, 0
2, 8042, Note_on_c, 0, 58, 0
2, 8046, Note_on_c, 0, 75, 64
2, 8046, Note_on_c, 0, 78, 64
2, 8046, Note_on_c, 0, 46, 64
2, 8072, Note_on_c, 0, 46, 0
2, 8076, Note_on_c, 0, 56, 64
2, 8102, Note_on_c, 0, 56, 0
2, 8105, Note_on_c, 0, 78, 0
2, 8105, Note_on_c, 0, 75, 0
2, 8106, Note_on_c, 0, 74, 64
2, 8106, Note_on_c, 0, 77, 64
2, 8106, Note_on_c, 0, 46, 64
2, 8132, Note_on_c, 0, 46, 0
2, 8136, Note_on_c, 0, 56, 64
2, 8162, Note_on_c, 0, 56, 0
2, 8165, Note_on_c, 0, 77, 0
2, 8165, Note_on_c, 0, 74, 0
2, 8166, Note_on_c, 0, 47, 64
2, 8192, Note_on_c, 0, 47, 0
2, 8196, Note_on_c, 0, 54, 64
2, 8222, Note_on_c, 0, 54, 0
2, 8226, Note_on_c, 0, 75, 64
2, 8226, Note_on_c, 0, 47, 64
2, 8252, Note_on_c, 0, 47, 0
2, 8256, Note_on_c, 0, 54, 64
2, 8278, Note_on_c, 0, 75, 0
2, 8282, Note_on_c, 0, 54, 0
2, 8286, Note_on_c, 0, 77, 64
2, 8286, Note_on_c, 0, 46, 64
2, 8296, Note_on_c, 0, 75, 64
2, 8301, Note_on_c, 0, 77, 0
2, 8310, Note_on_c, 0, 77, 64
2, 8311, Note_on_c, 0, 75, 0
2, 8312, Note_on_c, 0, 46, 0
2, 8316, Note_on_c, 0, 54, 64
2, 8322, Note_on_c, 0, 75, 64
2, 8329, Note_on_c, 0, 77, 0
2, 8331, Note_on_c, 0, 75, 0
2, 8334, Note_on_c, 0, 74, 64
2, 8342, Note_on_c, 0, 54, 0
2, 8343, Note_on_c, 0, 74, 0
2, 8346, Note_on_c, 0, 75, 64
2, 8346, Note_on_c, 0, 46, 64
2, 8372, Note_on_c, 0, 46, 0
2, 8376, Note_on_c, 0, 54, 64
2, 8398, Note_on_c, 0, 75, 0
2, 8402, Note_on_c, 0, 54, 0
2, 8406, Note_on_c, 0, 47, 64
2, 8432, Note_on_c, 0, 47, 0
2, 8436, Note_on_c, 0, 54, 64
2, 8462, Note_on_c, 0, 54, 0
2, 8466, Note_on_c, 0, 75, 64
2, 8466, Note_on_c, 0, 47, 64
2, 8492, Note_on_c, 0, 47, 0
2, 8496, Note_on_c, 0, 54, 64
2, 8518, Note_on_c, 0, 75, 0
2, 8522, Note_on_c, 0, 54, 0
2, 8526, Note_on_c, 0, 75, 64
2, 8526, Note_on_c, 0, 43, 64
2, 8529, Note_on_c, 0, 75, 0
2, 8534, Note_on_c, 0, 73, 64
2, 8539, Note_on_c, 0, 73, 0
2, 8544, Note_on_c, 0, 75, 64
2, 8547, Note_on_c, 0, 75, 0
2, 8552, Note_on_c, 0, 43, 0
2, 8552, Note_on_c, 0, 73, 64
2, 8556, Note_on_c, 0, 52, 64
2, 8560, Note_on_c, 0, 71, 64
2, 8563, Note_on_c, 0, 73, 0
2, 8579, Note_on_c, 0, 71, 0
2, 8582, Note_on_c, 0, 52, 0
2, 8586, Note_on_c, 0, 73, 64
2, 8586, Note_on_c, 0, 43, 64
2, 8612, Note_on_c, 0, 43, 0
2, 8612, Note_on_c, 0, 73, 0
2, 8616, Note_on_c, 0, 82, 64
2, 8616, Note_on_c, 0, 52, 64
2, 8642, Note_on_c, 0, 52, 0
2, 8642, Note_on_c, 0, 82, 0
2, 8646, Note_on_c, 0, 71, 64
2, 8646, Note_on_c, 0, 44, 64
2, 8672, Note_on_c, 0, 44, 0
2, 8676, Note_on_c, 0, 51, 64
2, 8698, Note_on_c, 0, 71, 0
2, 8702, Note_on_c, 0, 51, 0
2, 8706, Note_on_c, 0, 63, 64
2, 8706, Note_on_c, 0, 44, 64
2, 8732, Note_on_c, 0, 44, 0
2, 8736, Note_on_c, 0, 51, 64
2, 8758, Note_on_c, 0, 63, 0
2, 8762, Note_on_c, 0, 51, 0
2, 8766, Note_on_c, 0, 64, 64
2, 8766, Note_on_c, 0, 73, 64
2, 8766, Note_on_c, 0, 43, 64
2, 8776, Note_on_c, 0, 63, 64
2, 8781, Note_on_c, 0, 64, 0
2, 8786, Note_on_c, 0, 64, 64
2, 8791, Note_on_c, 0, 63, 0
2, 8792, Note_on_c, 0, 43, 0
2, 8796, Note_on_c, 0, 63, 64
2, 8796, Note_on_c, 0, 51, 64
2, 8801, Note_on_c, 0, 64, 0
2, 8802, Note_on_c, 0, 62, 64
2, 8811, Note_on_c, 0, 63, 0
2, 8818, Note_on_c, 0, 73, 0
2, 8822, Note_on_c, 0, 51, 0
2, 8826, Note_on_c, 0, 63, 64
2, 8826, Note_on_c, 0, 43, 64
2, 8828, Note_on_c, 0, 62, 0
2, 8852, Note_on_c, 0, 43, 0
2, 8856, Note_on_c, 0, 51, 64
2, 8878, Note_on_c, 0, 63, 0
2, 8882, Note_on_c, 0, 51, 0
2, 8886, Note_on_c, 0, 71, 64
2, 8886, Note_on_c, 0, 44, 64
2, 8912, Note_on_c, 0, 44, 0
2, 8916, Note_on_c, 0, 51, 64
2, 8938, Note_on_c, 0, 71, 0
2, 8942, Note_on_c, 0, 51, 0
2, 8946, Note_on_c, 0, 64, 64
2, 8946, Note_on_c, 0, 44, 64
2, 8959, Note_on_c, 0, 64, 0
2, 8961, Note_on_c, 0, 63, 64
2, 8972, Note_on_c, 0, 44, 0
2, 8974, Note_on_c, 0, 63, 0
2, 8976, Note_on_c, 0, 62, 64
2, 8976, Note_on_c, 0, 51, 64
2, 9002, Note_on_c, 0, 51, 0
2, 9002, Note_on_c, 0, 62, 0
2, 9006, Note_on_c, 0, 70, 64
2, 9006, Note_on_c, 0, 63, 64
2, 9006, Note_on_c, 0, 42, 64
2, 9032, Note_on_c, 0, 42, 0
2, 9036, Note_on_c, 0, 51, 64
2, 9058, Note_on_c, 0, 63, 0
2, 9058, Note_on_c, 0, 70, 0
2, 9062, Note_on_c, 0, 51, 0
2, 9066, Note_on_c, 0, 75, 64
2, 9066, Note_on_c, 0, 42, 64
2, 9092, Note_on_c, 0, 42, 0
2, 9096, Note_on_c, 0, 51, 64
2, 9118, Note_on_c, 0, 75, 0
2, 9122, Note_on_c, 0, 51, 0
2, 9126, Note_on_c, 0, 68, 64
2, 9126, Note_on_c, 0, 41, 64
2, 9152, Note_on_c, 0, 41, 0
2, 9156, Note_on_c, 0, 51, 64
2, 9182, Note_on_c, 0, 51, 0
2, 9186, Note_on_c, 0, 77, 64
2, 9186, Note_on_c, 0, 50, 64
2, 9212, Note_on_c, 0, 50, 0
2, 9212, Note_on_c, 0, 77, 0
2, 9216, Note_on_c, 0, 75, 64
2, 9216, Note_on_c, 0, 48, 64
2, 9242, Note_on_c, 0, 48, 0
2, 9242, Note_on_c, 0, 75, 0
2, 9246, Note_on_c, 0, 77, 64
2, 9246, Note_on_c, 0, 50, 64
2, 9272, Note_on_c, 0, 50, 0
2, 9276, Note_on_c, 0, 56, 64
2, 9298, Note_on_c, 0, 77, 0
2, 9302, Note_on_c, 0, 56, 0
2, 9306, Note_on_c, 0, 80, 64
2, 9306, Note_on_c, 0, 53, 64
2, 9332, Note_on_c, 0, 53, 0
2, 9336, Note_on_c, 0, 56, 64
2, 9358, Note_on_c, 0, 80, 0
2, 9362, Note_on_c, 0, 56, 0
2, 9366, Note_on_c, 0, 74, 64
2, 9366, Note_on_c, 0, 46, 64
2, 9392, Note_on_c, 0, 46, 0
2, 9392, Note_on_c, 0, 68, 0
2, 9396, Note_on_c, 0, 70, 64
2, 9396, Note_on_c, 0, 58, 64
2, 9418, Note_on_c, 0, 74, 0
2, 9422, Note_on_c, 0, 58, 0
2, 9422, Note_on_c, 0, 70, 0
2, 9426, Note_on_c, 0, 77, 64
2, 9426, Note_on_c, 0, 68, 64
2, 9426, Note_on_c, 0, 48, 64
2, 9452, Note_on_c, 0, 48, 0
2, 9452, Note_on_c, 0, 68, 0
2, 9456, Note_on_c, 0, 66, 64
2, 9456, Note_on_c, 0, 58, 64
2, 9478, Note_on_c, 0, 77, 0
2, 9482, Note_on_c, 0, 58, 0
2, 9482, Note_on_c, 0, 66, 0
2, 9486, Note_on_c, 0, 70, 64
2, 9486, Note_on_c, 0, 65, 64
2, 9486, Note_on_c, 0, 50, 64
2, 9512, Note_on_c, 0, 50, 0
2, 9512, Note_on_c, 0, 65, 0
2, 9516, Note_on_c, 0, 63, 64
2, 9516, Note_on_c, 0, 58, 64
2, 9542, Note_on_c, 0, 58, 0
2, 9542, Note_on_c, 0, 63, 0
2, 9546, Note_on_c, 0, 65, 64
2, 9546, Note_on_c, 0, 46, 64
2, 9572, Note_on_c, 0, 46, 0
2, 9572, Note_on_c, 0, 65, 0
2, 9576, Note_on_c, 0, 62, 64
2, 9576, Note_on_c, 0, 56, 64
2, 9602, Note_on_c, 0, 56, 0
2, 9602, Note_on_c, 0, 62, 0
2, 9606, Note_on_c, 0, 63, 64
2, 9606, Note_on_c, 0, 51, 64
2, 9632, Note_on_c, 0, 51, 0
2, 9636, Note_on_c, 0, 54, 64
2, 9658, Note_on_c, 0, 63, 0
2, 9658, Note_on_c, 0, 70, 0
2, 9662, Note_on_c, 0, 54, 0
2, 9666, Note_on_c, 0, 70, 64
2, 9666, Note_on_c, 0, 66, 64
2, 9666, Note_on_c, 0, 51, 64
2, 9692, Note_on_c, 0, 51, 0
2, 9692, Note_on_c, 0, 66, 0
2, 9692, Note_on_c, 0, 70, 0
2, 9696, Note_on_c, 0, 68, 64
2, 9696, Note_on_c, 0, 65, 64
2, 9696, Note_on_c, 0, 54, 64
2, 9722, Note_on_c, 0, 54, 0
2, 9722, Note_on_c, 0, 65, 0
2, 9722, Note_on_c, 0, 68, 0
2, 9726, Note_on_c, 0, 70, 64
2, 9726, Note_on_c, 0, 66, 64
2, 9726, Note_on_c, 0, 49, 64
2, 9752, Note_on_c, 0, 49, 0
2, 9756, Note_on_c, 0, 58, 64
2, 9778, Note_on_c, 0, 66, 0
2, 9778, Note_on_c, 0, 70, 0
2, 9782, Note_on_c, 0, 58, 0
2, 9786, Note_on_c, 0, 78, 64
2, 9786, Note_on_c, 0, 70, 64
2, 9786, Note_on_c, 0, 49, 64
2, 9812, Note_on_c, 0, 49, 0
2, 9816, Note_on_c, 0, 58, 64
2, 9838, Note_on_c, 0, 70, 0
2, 9838, Note_on_c, 0, 78, 0
2, 9842, Note_on_c, 0, 58, 0
2, 9846, Note_on_c, 0, 48, 64
2, 9872, Note_on_c, 0, 48, 0
2, 9876, Note_on_c, 0, 56, 64
2, 9902, Note_on_c, 0, 56, 0
2, 9906, Note_on_c, 0, 75, 64
2, 9906, Note_on_c, 0, 66, 64
2, 9906, Note_on_c, 0, 48, 64
2, 9932, Note_on_c, 0, 48, 0
2, 9936, Note_on_c, 0, 56, 64
2, 9958, Note_on_c, 0, 66, 0
2, 9958, Note_on_c, 0, 75, 0
2, 9962, Note_on_c, 0, 56, 0
2, 9966, Note_on_c, 0, 44, 64
2, 9992, Note_on_c, 0, 44, 0
2, 9996, Note_on_c, 0, 56, 64
2, 10022, Note_on_c, 0, 56, 0
2, 10026, Note_on_c, 0, 72, 64
2, 10026, Note_on_c, 0, 65, 64
2, 10026, Note_on_c, 0, 44, 64
2, 10052, Note_on_c, 0, 44, 0
2, 10052, Note_on_c, 0, 65, 0
2, 10056, Note_on_c, 0, 63, 64
2, 10056, Note_on_c, 0, 54, 64
2, 10078, Note_on_c, 0, 72, 0
2, 10082, Note_on_c, 0, 54, 0
2, 10082, Note_on_c, 0, 63, 0
2, 10086, Note_on_c, 0, 49, 64
2, 10112, Note_on_c, 0, 49, 0
2, 10116, Note_on_c, 0, 53, 64
2, 10142, Note_on_c, 0, 53, 0
2, 10146, Note_on_c, 0, 68, 64
2, 10146, Note_on_c, 0, 65, 64
2, 10146, Note_on_c, 0, 49, 64
2, 10172, Note_on_c, 0, 49, 0
2, 10172, Note_on_c, 0, 65, 0
2, 10172, Note_on_c, 0, 68, 0
2, 10176, Note_on_c, 0, 66, 64
2, 10176, Note_on_c, 0, 63, 64
2, 10176, Note_on_c, 0, 53, 64
2, 10202, Note_on_c, 0, 53, 0
2, 10202, Note_on_c, 0, 63, 0
2, 10202, Note_on_c, 0, 66, 0
2, 10206, Note_on_c, 0, 68, 64
2, 10206, Note_on_c, 0, 65, 64
2, 10206, Note_on_c, 0, 48, 64
2, 10232, Note_on_c, 0, 48, 0
2, 10236, Note_on_c, 0, 56, 64
2, 10258, Note_on_c, 0, 65, 0
2, 10258, Note_on_c, 0, 68, 0
2, 10262, Note_on_c, 0, 56, 0
2, 10266, Note_on_c, 0, 77, 64
2, 10266, Note_on_c, 0, 68, 64
2, 10266, Note_on_c, 0, 48, 64
2, 10292, Note_on_c, 0, 48, 0
2, 10296, Note_on_c, 0, 56, 64
2, 10318, Note_on_c, 0, 68, 0
2, 10318, Note_on_c, 0, 77, 0
2, 10322, Note_on_c, 0, 56, 0
2, 10326, Note_on_c, 0, 46, 64
2, 10352, Note_on_c, 0, 46, 0
2, 10356, Note_on_c, 0, 54, 64
2, 10382, Note_on_c, 0, 54, 0
2, 10386, Note_on_c, 0, 73, 64
2, 10386, Note_on_c, 0, 65, 64
2, 10386, Note_on_c, 0, 46, 64
2, 10412, Note_on_c, 0, 46, 0
2, 10416, Note_on_c, 0, 54, 64
2, 10438, Note_on_c, 0, 65, 0
2, 10438, Note_on_c, 0, 73, 0
2, 10442, Note_on_c, 0, 54, 0
2, 10446, Note_on_c, 0, 42, 64
2, 10472, Note_on_c, 0, 42, 0
2, 10476, Note_on_c, 0, 54, 64
2, 10502, Note_on_c, 0, 54, 0
2, 10506, Note_on_c, 0, 70, 64
2, 10506, Note_on_c, 0, 63, 64
2, 10506, Note_on_c, 0, 42, 64
2, 10532, Note_on_c, 0, 42, 0
2, 10532, Note_on_c, 0, 63, 0
2, 10536, Note_on_c, 0, 62, 64
2, 10536, Note_on_c, 0, 53, 64
2, 10558, Note_on_c, 0, 70, 0
2, 10562, Note_on_c, 0, 53, 0
2, 10562, Note_on_c, 0, 62, 0
2, 10566, Note_on_c, 0, 48, 64
2, 10592, Note_on_c, 0, 48, 0
2, 10596, Note_on_c, 0, 51, 64
2, 10622, Note_on_c, 0, 51, 0
2, 10626, Note_on_c, 0, 69, 64
2, 10626, Note_on_c, 0, 66, 64
2, 10626, Note_on_c, 0, 48, 64
2, 10652, Note_on_c, 0, 48, 0
2, 10652, Note_on_c, 0, 66, 0
2, 10656, Note_on_c, 0, 65, 64
2, 10656, Note_on_c, 0, 51, 64
2, 10678, Note_on_c, 0, 69, 0
2, 10682, Note_on_c, 0, 51, 0
2, 10682, Note_on_c, 0, 65, 0
2, 10686, Note_on_c, 0, 70, 64
2, 10686, Note_on_c, 0, 66, 64
2, 10686, Note_on_c, 0, 46, 64
2, 10712, Note_on_c, 0, 46, 0
2, 10712, Note_on_c, 0, 66, 0
2, 10716, Note_on_c, 0, 63, 64
2, 10716, Note_on_c, 0, 54, 64
2, 10738, Note_on_c, 0, 70, 0
2, 10742, Note_on_c, 0, 54, 0
2, 10742, Note_on_c, 0, 63, 0
2, 10746, Note_on_c, 0, 75, 64
2, 10746, Note_on_c, 0, 72, 64
2, 10746, Note_on_c, 0, 46, 64
2, 10772, Note_on_c, 0, 46, 0
2, 10776, Note_on_c, 0, 54, 64
2, 10798, Note_on_c, 0, 72, 0
2, 10798, Note_on_c, 0, 75, 0
2, 10802, Note_on_c, 0, 54, 0
2, 10806, Note_on_c, 0, 45, 64
2, 10832, Note_on_c, 0, 45, 0
2, 10836, Note_on_c, 0, 53, 64
2, 10862, Note_on_c, 0, 53, 0
2, 10866, Note_on_c, 0, 75, 64
2, 10866, Note_on_c, 0, 72, 64
2, 10866, Note_on_c, 0, 45, 64
2, 10892, Note_on_c, 0, 45, 0
2, 10892, Note_on_c, 0, 72, 0
2, 10896, Note_on_c, 0, 70, 64
2, 10896, Note_on_c, 0, 53, 64
2, 10918, Note_on_c, 0, 75, 0
2, 10922, Note_on_c, 0, 53, 0
2, 10922, Note_on_c, 0, 70, 0
2, 10926, Note_on_c, 0, 74, 64
2, 10926, Note_on_c, 0, 71, 64
2, 10926, Note_on_c, 0, 41, 64
2, 10952, Note_on_c, 0, 41, 0
2, 10952, Note_on_c, 0, 71, 0
2, 10956, Note_on_c, 0, 68, 64
2, 10956, Note_on_c, 0, 53, 64
2, 10978, Note_on_c, 0, 74, 0
2, 10982, Note_on_c, 0, 53, 0
2, 10982, Note_on_c, 0, 68, 0
2, 10986, Note_on_c, 0, 83, 64
2, 10986, Note_on_c, 0, 80, 64
2, 10986, Note_on_c, 0, 41, 64
2, 11012, Note_on_c, 0, 41, 0
2, 11016, Note_on_c, 0, 51, 64
2, 11038, Note_on_c, 0, 83, 0
2, 11042, Note_on_c, 0, 51, 0
2, 11046, Note_on_c, 0, 82, 64
2, 11046, Note_on_c, 0, 50, 64
2, 11072, Note_on_c, 0, 50, 0
2, 11076, Note_on_c, 0, 46, 64
2, 11098, Note_on_c, 0, 80, 0
2, 11102, Note_on_c, 0, 46, 0
2, 11106, Note_on_c, 0, 78, 64
2, 11106, Note_on_c, 0, 51, 64
2, 11119, Note_on_c, 0, 78, 0
2, 11121, Note_on_c, 0, 77, 64
2, 11132, Note_on_c, 0, 51, 0
2, 11134, Note_on_c, 0, 77, 0
2, 11136, Note_on_c, 0, 75, 64
2, 11136, Note_on_c, 0, 54, 64
2, 11151, Note_on_c, 0, 82, 0
2, 11162, Note_on_c, 0, 54, 0
2, 11162, Note_on_c, 0, 75, 0
2, 11166, Note_on_c, 0, 74, 64
2, 11166, Note_on_c, 0, 58, 64
2, 11196, Note_on_c, 0, 82, 64
2, 11218, Note_on_c, 0, 58, 0
2, 11222, Note_on_c, 0, 82, 0
2, 11226, Note_on_c, 0, 77, 64
2, 11226, Note_on_c, 0, 46, 64
2, 11252, Note_on_c, 0, 77, 0
2, 11256, Note_on_c, 0, 80, 64
2, 11278, Note_on_c, 0, 46, 0
2, 11286, Note_on_c, 0, 39, 64
2, 11338, Note_on_c, 0, 80, 0
2, 11338, Note_on_c, 0, 74, 0
2, 11346, Note_on_c, 0, 79, 64
2, 11346, Note_on_c, 0, 75, 64
2, 11364, Note_on_c, 0, 39, 0
2, 11376, Note_on_c, 0, 43, 64
2, 11389, Note_on_c, 0, 43, 0
2, 11391, Note_on_c, 0, 46, 64
2, 11398, Note_on_c, 0, 75, 0
2, 11398, Note_on_c, 0, 79, 0
2, 11404, Note_on_c, 0, 46, 0
2, 11406, Note_on_c, 0, 51, 64
2, 11511, Note_on_c, 0, 51, 0
2, 11526, Note_on_c, 0, 68, 64
2, 11526, Note_on_c, 0, 59, 64
2, 11526, Note_on_c, 0, 63, 64
2, 11526, Note_on_c, 0, 56, 64
2, 11552, Note_on_c, 0, 68, 0
2, 11556, Note_on_c, 0, 70, 64
2, 11582, Note_on_c, 0, 70, 0
2, 11586, Note_on_c, 0, 71, 64
2, 11612, Note_on_c, 0, 71, 0
2, 11616, Note_on_c, 0, 73, 64
2, 11631, Note_on_c, 0, 59, 0
2, 11631, Note_on_c, 0, 56, 0
2, 11631, Note_on_c, 0, 63, 0
2, 11642, Note_on_c, 0, 73, 0
2, 11646, Note_on_c, 0, 75, 64
2, 11672, Note_on_c, 0, 75, 0
2, 11676, Note_on_c, 0, 71, 64
2, 11702, Note_on_c, 0, 71, 0
2, 11706, Note_on_c, 0, 70, 64
2, 11732, Note_on_c, 0, 70, 0
2, 11736, Note_on_c, 0, 68, 64
2, 11762, Note_on_c, 0, 68, 0
2, 11766, Note_on_c, 0, 67, 64
2, 11766, Note_on_c, 0, 58, 64
2, 11766, Note_on_c, 0, 61, 64
2, 11766, Note_on_c, 0, 56, 64
2, 11792, Note_on_c, 0, 67, 0
2, 11796, Note_on_c, 0, 68, 64
2, 11822, Note_on_c, 0, 68, 0
2, 11826, Note_on_c, 0, 70, 64
2, 11852, Note_on_c, 0, 70, 0
2, 11856, Note_on_c, 0, 64, 64
2, 11871, Note_on_c, 0, 58, 0
2, 11871, Note_on_c, 0, 56, 0
2, 11871, Note_on_c, 0, 61, 0
2, 11882, Note_on_c, 0, 64, 0
2, 11886, Note_on_c, 0, 63, 64
2, 11912, Note_on_c, 0, 63, 0
2, 11916, Note_on_c, 0, 61, 64
2, 11942, Note_on_c, 0, 61, 0
2, 11946, Note_on_c, 0, 59, 64
2, 11972, Note_on_c, 0, 59, 0
2, 11976, Note_on_c, 0, 58, 64
2, 12002, Note_on_c, 0, 58, 0
2, 12006, Note_on_c, 0, 56, 64
2, 12032, Note_on_c, 0, 56, 0
2, 12036, Note_on_c, 0, 63, 64
2, 12062, Note_on_c, 0, 63, 0
2, 12066, Note_on_c, 0, 71, 64
2, 12066, Note_on_c, 0, 68, 64
2, 12066, Note_on_c, 0, 56, 64
2, 12092, Note_on_c, 0, 56, 0
2, 12096, Note_on_c, 0, 63, 64
2, 12118, Note_on_c, 0, 68, 0
2, 12118, Note_on_c, 0, 71, 0
2, 12122, Note_on_c, 0, 63, 0
2, 12126, Note_on_c, 0, 55, 64
2, 12128, Note_on_c, 0, 68, 64
2, 12128, Note_on_c, 0, 71, 64
2, 12152, Note_on_c, 0, 55, 0
2, 12156, Note_on_c, 0, 63, 64
2, 12182, Note_on_c, 0, 63, 0
2, 12186, Note_on_c, 0, 55, 64
2, 12188, Note_on_c, 0, 70, 64
2, 12188, Note_on_c, 0, 73, 64
2, 12193, Note_on_c, 0, 71, 0
2, 12193, Note_on_c, 0, 68, 0
2, 12212, Note_on_c, 0, 55, 0
2, 12216, Note_on_c, 0, 63, 64
2, 12219, Note_on_c, 0, 70, 0
2, 12219, Note_on_c, 0, 73, 0
2, 12242, Note_on_c, 0, 63, 0
2, 12246, Note_on_c, 0, 56, 64
2, 12272, Note_on_c, 0, 56, 0
2, 12276, Note_on_c, 0, 63, 64
2, 12302, Note_on_c, 0, 63, 0
2, 12306, Note_on_c, 0, 71, 64
2, 12306, Note_on_c, 0, 68, 64
2, 12306, Note_on_c, 0, 56, 64
2, 12332, Note_on_c, 0, 56, 0
2, 12336, Note_on_c, 0, 63, 64
2, 12358, Note_on_c, 0, 68, 0
2, 12358, Note_on_c, 0, 71, 0
2, 12362, Note_on_c, 0, 63, 0
2, 12366, Note_on_c, 0, 51, 64
2, 12368, Note_on_c, 0, 68, 64
2, 12368, Note_on_c, 0, 71, 64
2, 12392, Note_on_c, 0, 51, 0
2, 12396, Note_on_c, 0, 63, 64
2, 12422, Note_on_c, 0, 63, 0
2, 12426, Note_on_c, 0, 67, 64
2, 12426, Note_on_c, 0, 70, 64
2, 12426, Note_on_c, 0, 51, 64
2, 12433, Note_on_c, 0, 71, 0
2, 12433, Note_on_c, 0, 68, 0
2, 12452, Note_on_c, 0, 51, 0
2, 12456, Note_on_c, 0, 63, 64
2, 12469, Note_on_c, 0, 67, 0
2, 12469, Note_on_c, 0, 70, 0
2, 12482, Note_on_c, 0, 63, 0
2, 12486, Note_on_c, 0, 68, 45
2, 12486, Note_on_c, 0, 59, 45
2, 12486, Note_on_c, 0, 63, 45
2, 12486, Note_on_c, 0, 56, 45
2, 12512, Note_on_c, 0, 68, 0
2, 12516, Note_on_c, 0, 70, 45
2, 12542, Note_on_c, 0, 70, 0
2, 12546, Note_on_c, 0, 71, 45
2, 12572, Note_on_c, 0, 71, 0
2, 12576, Note_on_c, 0, 73, 45
2, 12591, Note_on_c, 0, 59, 0
2, 12591, Note_on_c, 0, 56, 0
2, 12591, Note_on_c, 0, 63, 0
2, 12602, Note_on_c, 0, 73, 0
2, 12606, Note_on_c, 0, 75, 45
2, 12632, Note_on_c, 0, 75, 0
2, 12636, Note_on_c, 0, 71, 45
2, 12662, Note_on_c, 0, 71, 0
2, 12666, Note_on_c, 0, 70, 45
2, 12692, Note_on_c, 0, 70, 0
2, 12696, Note_on_c, 0, 68, 45
2, 12722, Note_on_c, 0, 68, 0
2, 12726, Note_on_c, 0, 67, 45
2, 12726, Note_on_c, 0, 58, 45
2, 12726, Note_on_c, 0, 61, 45
2, 12726, Note_on_c, 0, 56, 45
2, 12752, Note_on_c, 0, 67, 0
2, 12756, Note_on_c, 0, 68, 45
2, 12782, Note_on_c, 0, 68, 0
2, 12786, Note_on_c, 0, 70, 45
2, 12812, Note_on_c, 0, 70, 0
2, 12816, Note_on_c, 0, 64, 45
2, 12831, Note_on_c, 0, 58, 0
2, 12831, Note_on_c, 0, 56, 0
2, 12831, Note_on_c, 0, 61, 0
2, 12842, Note_on_c, 0, 64, 0
2, 12846, Note_on_c, 0, 63, 45
2, 12872, Note_on_c, 0, 63, 0
2, 12876, Note_on_c, 0, 61, 45
2, 12902, Note_on_c, 0, 61, 0
2, 12906, Note_on_c, 0, 59, 45
2, 12932, Note_on_c, 0, 59, 0
2, 12936, Note_on_c, 0, 58, 45
2, 12962, Note_on_c, 0, 58, 0
2, 12966, Note_on_c, 0, 56, 45
2, 12992, Note_on_c, 0, 56, 0
2, 12996, Note_on_c, 0, 63, 45
2, 13022, Note_on_c, 0, 63, 0
2, 13026, Note_on_c, 0, 80, 45
2, 13026, Note_on_c, 0, 71, 45
2, 13026, Note_on_c, 0, 56, 45
2, 13052, Note_on_c, 0, 56, 0
2, 13056, Note_on_c, 0, 63, 45
2, 13078, Note_on_c, 0, 71, 0
2, 13078, Note_on_c, 0, 80, 0
2, 13082, Note_on_c, 0, 63, 0
2, 13086, Note_on_c, 0, 71, 45
2, 13086, Note_on_c, 0, 80, 45
2, 13086, Note_on_c, 0, 55, 45
2, 13112, Note_on_c, 0, 55, 0
2, 13116, Note_on_c, 0, 63, 45
2, 13142, Note_on_c, 0, 63, 0
2, 13145, Note_on_c, 0, 80, 0
2, 13145, Note_on_c, 0, 71, 0
2, 13146, Note_on_c, 0, 82, 45
2, 13146, Note_on_c, 0, 73, 45
2, 13146, Note_on_c, 0, 55, 45
2, 13172, Note_on_c, 0, 55, 0
2, 13176, Note_on_c, 0, 63, 45
2, 13202, Note_on_c, 0, 63, 0
2, 13205, Note_on_c, 0, 73, 0
2, 13205, Note_on_c, 0, 82, 0
2, 13206, Note_on_c, 0, 56, 45
2, 13232, Note_on_c, 0, 56, 0
2, 13236, Note_on_c, 0, 63, 45
2, 13262, Note_on_c, 0, 63, 0
2, 13266, Note_on_c, 0, 80, 45
2, 13266, Note_on_c, 0, 71, 45
2, 13266, Note_on_c, 0, 56, 45
2, 13292, Note_on_c, 0, 56, 0
2, 13296, Note_on_c, 0, 63, 45
2, 13318, Note_on_c, 0, 71, 0
2, 13318, Note_on_c, 0, 80, 0
2, 13322, Note_on_c, 0, 63, 0
2, 13326, Note_on_c, 0, 80, 45
2, 13326, Note_on_c, 0, 71, 45
2, 13326, Note_on_c, 0, 51, 45
2, 13352, Note_on_c, 0, 51, 0
2, 13356, Note_on_c, 0, 63, 45
2, 13382, Note_on_c, 0, 63, 0
2, 13385, Note_on_c, 0, 71, 0
2, 13385, Note_on_c, 0, 80, 0
2, 13386, Note_on_c, 0, 70, 45
2, 13386, Note_on_c, 0, 79, 45
2, 13386, Note_on_c, 0, 51, 45
2, 13412, Note_on_c, 0, 51, 0
2, 13416, Note_on_c, 0, 63, 45
2, 13442, Note_on_c, 0, 63, 0
2, 13445, Note_on_c, 0, 79, 0
2, 13445, Note_on_c, 0, 70, 0
2, 13446, Note_on_c, 0, 56, 45
2, 13472, Note_on_c, 0, 56, 0
2, 13476, Note_on_c, 0, 63, 64
2, 13502, Note_on_c, 0, 63, 0
2, 13506, Note_on_c, 0, 71, 64
2, 13506, Note_on_c, 0, 68, 64
2, 13506, Note_on_c, 0, 56, 64
2, 13532, Note_on_c, 0, 56, 0
2, 13532, Note_on_c, 0, 68, 0
2, 13532, Note_on_c, 0, 71, 0
2, 13536, Note_on_c, 0, 70, 64
2, 13536, Note_on_c, 0, 67, 64
2, 13536, Note_on_c, 0, 63, 64
2, 13562, Note_on_c, 0, 63, 0
2, 13562, Note_on_c, 0, 67, 0
2, 13562, Note_on_c, 0, 70, 0
2, 13566, Note_on_c, 0, 71, 64
2, 13566, Note_on_c, 0, 68, 64
2, 13566, Note_on_c, 0, 54, 64
2, 13592, Note_on_c, 0, 54, 0
2, 13596, Note_on_c, 0, 63, 64
2, 13618, Note_on_c, 0, 68, 0
2, 13618, Note_on_c, 0, 71, 0
2, 13622, Note_on_c, 0, 63, 0
2, 13626, Note_on_c, 0, 80, 64
2, 13626, Note_on_c, 0, 71, 64
2, 13626, Note_on_c, 0, 54, 64
2, 13652, Note_on_c, 0, 54, 0
2, 13656, Note_on_c, 0, 63, 64
2, 13678, Note_on_c, 0, 71, 0
2, 13678, Note_on_c, 0, 80, 0
2, 13682, Note_on_c, 0, 63, 0
2, 13686, Note_on_c, 0, 53, 64
2, 13712, Note_on_c, 0, 53, 0
2, 13716, Note_on_c, 0, 61, 64
2, 13742, Note_on_c, 0, 61, 0
2, 13746, Note_on_c, 0, 71, 64
2, 13746, Note_on_c, 0, 68, 64
2, 13746, Note_on_c, 0, 53, 64
2, 13772, Note_on_c, 0, 53, 0
2, 13776, Note_on_c, 0, 61, 64
2, 13798, Note_on_c, 0, 68, 0
2, 13798, Note_on_c, 0, 71, 0
2, 13802, Note_on_c, 0, 61, 0
2, 13806, Note_on_c, 0, 49, 64
2, 13832, Note_on_c, 0, 49, 0
2, 13836, Note_on_c, 0, 61, 64
2, 13862, Note_on_c, 0, 61, 0
2, 13866, Note_on_c, 0, 70, 64
2, 13866, Note_on_c, 0, 65, 64
2, 13866, Note_on_c, 0, 49, 64
2, 13892, Note_on_c, 0, 49, 0
2, 13892, Note_on_c, 0, 70, 0
2, 13896, Note_on_c, 0, 68, 64
2, 13896, Note_on_c, 0, 61, 64
2, 13918, Note_on_c, 0, 65, 0
2, 13922, Note_on_c, 0, 61, 0
2, 13922, Note_on_c, 0, 68, 0
2, 13926, Note_on_c, 0, 54, 64
2, 13952, Note_on_c, 0, 54, 0
2, 13956, Note_on_c, 0, 61, 64
2, 13982, Note_on_c, 0, 61, 0
2, 13986, Note_on_c, 0, 70, 64
2, 13986, Note_on_c, 0, 66, 64
2, 13986, Note_on_c, 0, 54, 64
2, 14012, Note_on_c, 0, 54, 0
2, 14012, Note_on_c, 0, 66, 0
2, 14012, Note_on_c, 0, 70, 0
2, 14016, Note_on_c, 0, 68, 64
2, 14016, Note_on_c, 0, 65, 64
2, 14016, Note_on_c, 0, 61, 64
2, 14042, Note_on_c, 0, 61, 0
2, 14042, Note_on_c, 0, 65, 0
2, 14042, Note_on_c, 0, 68, 0
2, 14046, Note_on_c, 0, 70, 64
2, 14046, Note_on_c, 0, 66, 64
2, 14046, Note_on_c, 0, 52, 64
2, 14072, Note_on_c, 0, 52, 0
2, 14076, Note_on_c, 0, 61, 64
2, 14098, Note_on_c, 0, 66, 0
2, 14098, Note_on_c, 0, 70, 0
2, 14102, Note_on_c, 0, 61, 0
2, 14106, Note_on_c, 0, 78, 64
2, 14106, Note_on_c, 0, 70, 64
2, 14106, Note_on_c, 0, 52, 64
2, 14132, Note_on_c, 0, 52, 0
2, 14136, Note_on_c, 0, 61, 64
2, 14158, Note_on_c, 0, 70, 0
2, 14158, Note_on_c, 0, 78, 0
2, 14162, Note_on_c, 0, 61, 0
2, 14166, Note_on_c, 0, 51, 64
2, 14192, Note_on_c, 0, 51, 0
2, 14196, Note_on_c, 0, 59, 64
2, 14222, Note_on_c, 0, 59, 0
2, 14226, Note_on_c, 0, 70, 64
2, 14226, Note_on_c, 0, 66, 64
2, 14226, Note_on_c, 0, 51, 64
2, 14252, Note_on_c, 0, 51, 0
2, 14256, Note_on_c, 0, 59, 64
2, 14278, Note_on_c, 0, 66, 0
2, 14278, Note_on_c, 0, 70, 0
2, 14282, Note_on_c, 0, 59, 0
2, 14286, Note_on_c, 0, 47, 64
2, 14312, Note_on_c, 0, 47, 0
2, 14316, Note_on_c, 0, 59, 64
2, 14342, Note_on_c, 0, 59, 0
2, 14346, Note_on_c, 0, 68, 64
2, 14346, Note_on_c, 0, 63, 64
2, 14346, Note_on_c, 0, 47, 64
2, 14372, Note_on_c, 0, 47, 0
2, 14372, Note_on_c, 0, 68, 0
2, 14376, Note_on_c, 0, 66, 64
2, 14376, Note_on_c, 0, 59, 64
2, 14398, Note_on_c, 0, 63, 0
2, 14402, Note_on_c, 0, 59, 0
2, 14402, Note_on_c, 0, 66, 0
2, 14406, Note_on_c, 0, 53, 64
2, 14432, Note_on_c, 0, 53, 0
2, 14436, Note_on_c, 0, 59, 64
2, 14462, Note_on_c, 0, 59, 0
2, 14466, Note_on_c, 0, 68, 64
2, 14466, Note_on_c, 0, 62, 64
2, 14466, Note_on_c, 0, 53, 64
2, 14492, Note_on_c, 0, 53, 0
2, 14492, Note_on_c, 0, 62, 0
2, 14492, Note_on_c, 0, 68, 0
2, 14496, Note_on_c, 0, 66, 64
2, 14496, Note_on_c, 0, 63, 64
2, 14496, Note_on_c, 0, 59, 64
2, 14522, Note_on_c, 0, 59, 0
2, 14522, Note_on_c, 0, 63, 0
2, 14522, Note_on_c, 0, 66, 0
2, 14526, Note_on_c, 0, 68, 64
2, 14526, Note_on_c, 0, 65, 64
2, 14526, Note_on_c, 0, 51, 64
2, 14552, Note_on_c, 0, 51, 0
2, 14556, Note_on_c, 0, 59, 64
2, 14578, Note_on_c, 0, 65, 0
2, 14578, Note_on_c, 0, 68, 0
2, 14582, Note_on_c, 0, 59, 0
2, 14586, Note_on_c, 0, 77, 64
2, 14586, Note_on_c, 0, 68, 64
2, 14586, Note_on_c, 0, 51, 64
2, 14612, Note_on_c, 0, 51, 0
2, 14616, Note_on_c, 0, 59, 64
2, 14638, Note_on_c, 0, 68, 0
2, 14638, Note_on_c, 0, 77, 0
2, 14642, Note_on_c, 0, 59, 0
2, 14646, Note_on_c, 0, 50, 64
2, 14672, Note_on_c, 0, 50, 0
2, 14676, Note_on_c, 0, 58, 64
2, 14702, Note_on_c, 0, 58, 0
2, 14706, Note_on_c, 0, 68, 64
2, 14706, Note_on_c, 0, 65, 64
2, 14706, Note_on_c, 0, 50, 64
2, 14732, Note_on_c, 0, 50, 0
2, 14736, Note_on_c, 0, 58, 64
2, 14758, Note_on_c, 0, 65, 0
2, 14758, Note_on_c, 0, 68, 0
2, 14762, Note_on_c, 0, 58, 0
2, 14766, Note_on_c, 0, 46, 64
2, 14792, Note_on_c, 0, 46, 0
2, 14796, Note_on_c, 0, 58, 64
2, 14822, Note_on_c, 0, 58, 0
2, 14826, Note_on_c, 0, 66, 64
2, 14826, Note_on_c, 0, 62, 64
2, 14826, Note_on_c, 0, 46, 64
2, 14852, Note_on_c, 0, 46, 0
2, 14852, Note_on_c, 0, 66, 0
2, 14856, Note_on_c, 0, 65, 64
2, 14856, Note_on_c, 0, 58, 64
2, 14878, Note_on_c, 0, 62, 0
2, 14882, Note_on_c, 0, 58, 0
2, 14882, Note_on_c, 0, 65, 0
2, 14886, Note_on_c, 0, 66, 64
2, 14886, Note_on_c, 0, 63, 64
2, 14886, Note_on_c, 0, 51, 64
2, 14912, Note_on_c, 0, 51, 0
2, 14916, Note_on_c, 0, 54, 64
2, 14942, Note_on_c, 0, 54, 0
2, 14946, Note_on_c, 0, 56, 64
2, 14972, Note_on_c, 0, 56, 0
2, 14976, Note_on_c, 0, 58, 64
2, 14991, Note_on_c, 0, 63, 0
2, 14991, Note_on_c, 0, 66, 0
2, 15002, Note_on_c, 0, 58, 0
2, 15006, Note_on_c, 0, 59, 64
2, 15036, Note_on_c, 0, 70, 64
2, 15058, Note_on_c, 0, 59, 0
2, 15062, Note_on_c, 0, 70, 0
2, 15066, Note_on_c, 0, 68, 64
2, 15066, Note_on_c, 0, 51, 64
2, 15092, Note_on_c, 0, 68, 0
2, 15096, Note_on_c, 0, 66, 64
2, 15118, Note_on_c, 0, 51, 0
2, 15122, Note_on_c, 0, 66, 0
2, 15126, Note_on_c, 0, 65, 64
2, 15126, Note_on_c, 0, 50, 64
2, 15152, Note_on_c, 0, 65, 0
2, 15156, Note_on_c, 0, 63, 64
2, 15178, Note_on_c, 0, 50, 0
2, 15182, Note_on_c, 0, 63, 0
2, 15186, Note_on_c, 0, 65, 64
2, 15186, Note_on_c, 0, 59, 64
2, 15212, Note_on_c, 0, 65, 0
2, 15216, Note_on_c, 0, 68, 64
2, 15238, Note_on_c, 0, 59, 0
2, 15242, Note_on_c, 0, 68, 0
2, 15246, Note_on_c, 0, 67, 64
2, 15246, Note_on_c, 0, 58, 64
2, 15272, Note_on_c, 0, 67, 0
2, 15276, Note_on_c, 0, 65, 64
2, 15298, Note_on_c, 0, 58, 0
2, 15302, Note_on_c, 0, 65, 0
2, 15306, Note_on_c, 0, 67, 64
2, 15306, Note_on_c, 0, 49, 64
2, 15332, Note_on_c, 0, 67, 0
2, 15336, Note_on_c, 0, 70, 64
2, 15358, Note_on_c, 0, 49, 0
2, 15362, Note_on_c, 0, 70, 0
2, 15366, Note_on_c, 0, 70, 64
2, 15366, Note_on_c, 0, 48, 64
2, 15392, Note_on_c, 0, 48, 0
2, 15396, Note_on_c, 0, 51, 64
2, 15418, Note_on_c, 0, 70, 0
2, 15422, Note_on_c, 0, 51, 0
2, 15426, Note_on_c, 0, 68, 64
2, 15426, Note_on_c, 0, 53, 64
2, 15452, Note_on_c, 0, 53, 0
2, 15456, Note_on_c, 0, 55, 64
2, 15478, Note_on_c, 0, 68, 0
2, 15482, Note_on_c, 0, 55, 0
2, 15486, Note_on_c, 0, 56, 64
2, 15516, Note_on_c, 0, 66, 64
2, 15538, Note_on_c, 0, 56, 0
2, 15542, Note_on_c, 0, 66, 0
2, 15546, Note_on_c, 0, 64, 64
2, 15546, Note_on_c, 0, 47, 64
2, 15572, Note_on_c, 0, 64, 0
2, 15576, Note_on_c, 0, 63, 64
2, 15598, Note_on_c, 0, 47, 0
2, 15602, Note_on_c, 0, 63, 0
2, 15606, Note_on_c, 0, 61, 64
2, 15606, Note_on_c, 0, 46, 64
2, 15632, Note_on_c, 0, 61, 0
2, 15636, Note_on_c, 0, 60, 64
2, 15658, Note_on_c, 0, 46, 0
2, 15662, Note_on_c, 0, 60, 0
2, 15666, Note_on_c, 0, 61, 64
2, 15666, Note_on_c, 0, 55, 64
2, 15692, Note_on_c, 0, 61, 0
2, 15696, Note_on_c, 0, 64, 64
2, 15718, Note_on_c, 0, 55, 0
2, 15722, Note_on_c, 0, 64, 0
2, 15726, Note_on_c, 0, 63, 64
2, 15726, Note_on_c, 0, 54, 64
2, 15752, Note_on_c, 0, 63, 0
2, 15756, Note_on_c, 0, 61, 64
2, 15778, Note_on_c, 0, 54, 0
2, 15782, Note_on_c, 0, 61, 0
2, 15786, Note_on_c, 0, 63, 64
2, 15786, Note_on_c, 0, 45, 64
2, 15812, Note_on_c, 0, 63, 0
2, 15816, Note_on_c, 0, 66, 64
2, 15838, Note_on_c, 0, 45, 0
2, 15842, Note_on_c, 0, 66, 0
2, 15846, Note_on_c, 0, 66, 64
2, 15846, Note_on_c, 0, 44, 64
2, 15872, Note_on_c, 0, 44, 0
2, 15876, Note_on_c, 0, 48, 64
2, 15898, Note_on_c, 0, 66, 0
2, 15902, Note_on_c, 0, 48, 0
2, 15906, Note_on_c, 0, 64, 64
2, 15906, Note_on_c, 0, 49, 64
2, 15932, Note_on_c, 0, 49, 0
2, 15936, Note_on_c, 0, 51, 64
2, 15958, Note_on_c, 0, 64, 0
2, 15962, Note_on_c, 0, 51, 0
2, 15966, Note_on_c, 0, 52, 64
2, 15996, Note_on_c, 0, 63, 64
2, 16018, Note_on_c, 0, 52, 0
2, 16022, Note_on_c, 0, 63, 0
2, 16026, Note_on_c, 0, 61, 64
2, 16026, Note_on_c, 0, 44, 64
2, 16052, Note_on_c, 0, 61, 0
2, 16056, Note_on_c, 0, 59, 64
2, 16078, Note_on_c, 0, 44, 0
2, 16082, Note_on_c, 0, 59, 0
2, 16086, Note_on_c, 0, 58, 64
2, 16086, Note_on_c, 0, 43, 64
2, 16112, Note_on_c, 0, 58, 0
2, 16116, Note_on_c, 0, 56, 64
2, 16138, Note_on_c, 0, 43, 0
2, 16142, Note_on_c, 0, 56, 0
2, 16146, Note_on_c, 0, 58, 64
2, 16146, Note_on_c, 0, 52, 64
2, 16172, Note_on_c, 0, 58, 0
2, 16176, Note_on_c, 0, 61, 64
2, 16198, Note_on_c, 0, 52, 0
2, 16202, Note_on_c, 0, 61, 0
2, 16206, Note_on_c, 0, 60, 64
2, 16206, Note_on_c, 0, 51, 64
2, 16232, Note_on_c, 0, 60, 0
2, 16236, Note_on_c, 0, 58, 64
2, 16258, Note_on_c, 0, 51, 0
2, 16262, Note_on_c, 0, 58, 0
2, 16266, Note_on_c, 0, 60, 64
2, 16266, Note_on_c, 0, 42, 64
2, 16292, Note_on_c, 0, 60, 0
2, 16296, Note_on_c, 0, 63, 64
2, 16318, Note_on_c, 0, 42, 0
2, 16322, Note_on_c, 0, 63, 0
2, 16326, Note_on_c, 0, 56, 64
2, 16326, Note_on_c, 0, 41, 64
2, 16352, Note_on_c, 0, 56, 0
2, 16356, Note_on_c, 0, 55, 64
2, 16378, Note_on_c, 0, 41, 0
2, 16382, Note_on_c, 0, 55, 0
2, 16386, Note_on_c, 0, 56, 64
2, 16386, Note_on_c, 0, 50, 64
2, 16412, Note_on_c, 0, 56, 0
2, 16416, Note_on_c, 0, 59, 64
2, 16438, Note_on_c, 0, 50, 0
2, 16442, Note_on_c, 0, 59, 0
2, 16446, Note_on_c, 0, 58, 64
2, 16446, Note_on_c, 0, 49, 64
2, 16472, Note_on_c, 0, 58, 0
2, 16476, Note_on_c, 0, 56, 64
2, 16498, Note_on_c, 0, 49, 0
2, 16502, Note_on_c, 0, 56, 0
2, 16506, Note_on_c, 0, 58, 64
2, 16506, Note_on_c, 0, 40, 64
2, 16532, Note_on_c, 0, 58, 0
2, 16536, Note_on_c, 0, 61, 64
2, 16558, Note_on_c, 0, 40, 0
2, 16562, Note_on_c, 0, 61, 0
2, 16566, Note_on_c, 0, 55, 64
2, 16566, Note_on_c, 0, 39, 64
2, 16592, Note_on_c, 0, 55, 0
2, 16596, Note_on_c, 0, 64, 64
2, 16618, Note_on_c, 0, 39, 0
2, 16622, Note_on_c, 0, 64, 0
2, 16626, Note_on_c, 0, 63, 64
2, 16626, Note_on_c, 0, 41, 64
2, 16652, Note_on_c, 0, 63, 0
2, 16656, Note_on_c, 0, 61, 64
2, 16678, Note_on_c, 0, 41, 0
2, 16682, Note_on_c, 0, 61, 0
2, 16686, Note_on_c, 0, 70, 64
2, 16686, Note_on_c, 0, 43, 64
2, 16712, Note_on_c, 0, 70, 0
2, 16716, Note_on_c, 0, 61, 64
2, 16738, Note_on_c, 0, 43, 0
2, 16742, Note_on_c, 0, 61, 0
2, 16746, Note_on_c, 0, 70, 64
2, 16746, Note_on_c, 0, 39, 64
2, 16772, Note_on_c, 0, 70, 0
2, 16776, Note_on_c, 0, 61, 64
2, 16798, Note_on_c, 0, 39, 0
2, 16802, Note_on_c, 0, 61, 0
2, 16806, Note_on_c, 0, 60, 64
2, 16806, Note_on_c, 0, 44, 64
2, 16832, Note_on_c, 0, 60, 0
2, 16836, Note_on_c, 0, 69, 64
2, 16858, Note_on_c, 0, 44, 0
2, 16862, Note_on_c, 0, 69, 0
2, 16866, Note_on_c, 0, 68, 64
2, 16866, Note_on_c, 0, 46, 64
2, 16892, Note_on_c, 0, 68, 0
2, 16896, Note_on_c, 0, 66, 64
2, 16918, Note_on_c, 0, 46, 0
2, 16922, Note_on_c, 0, 66, 0
2, 16926, Note_on_c, 0, 75, 64
2, 16926, Note_on_c, 0, 48, 64
2, 16952, Note_on_c, 0, 75, 0
2, 16956, Note_on_c, 0, 66, 64
2, 16978, Note_on_c, 0, 48, 0
2, 16982, Note_on_c, 0, 66, 0
2, 16986, Note_on_c, 0, 75, 64
2, 16986, Note_on_c, 0, 44, 64
2, 17012, Note_on_c, 0, 75, 0
2, 17016, Note_on_c, 0, 66, 64
2, 17038, Note_on_c, 0, 44, 0
2, 17042, Note_on_c, 0, 66, 0
2, 17046, Note_on_c, 0, 65, 64
2, 17046, Note_on_c, 0, 49, 64
2, 17072, Note_on_c, 0, 65, 0
2, 17076, Note_on_c, 0, 62, 64
2, 17098, Note_on_c, 0, 49, 0
2, 17102, Note_on_c, 0, 62, 0
2, 17106, Note_on_c, 0, 61, 64
2, 17106, Note_on_c, 0, 51, 64
2, 17132, Note_on_c, 0, 61, 0
2, 17136, Note_on_c, 0, 59, 64
2, 17158, Note_on_c, 0, 51, 0
2, 17162, Note_on_c, 0, 59, 0
2, 17166, Note_on_c, 0, 68, 64
2, 17166, Note_on_c, 0, 53, 64
2, 17192, Note_on_c, 0, 68, 0
2, 17196, Note_on_c, 0, 59, 64
2, 17218, Note_on_c, 0, 53, 0
2, 17222, Note_on_c, 0, 59, 0
2, 17226, Note_on_c, 0, 68, 64
2, 17226, Note_on_c, 0, 49, 64
2, 17252, Note_on_c, 0, 68, 0
2, 17256, Note_on_c, 0, 59, 64
2, 17278, Note_on_c, 0, 49, 0
2, 17282, Note_on_c, 0, 59, 0
2, 17286, Note_on_c, 0, 58, 64
2, 17286, Note_on_c, 0, 54, 64
2, 17312, Note_on_c, 0, 58, 0
2, 17316, Note_on_c, 0, 67, 64
2, 17338, Note_on_c, 0, 54, 0
2, 17342, Note_on_c, 0, 67, 0
2, 17346, Note_on_c, 0, 66, 64
2, 17346, Note_on_c, 0, 56, 64
2, 17372, Note_on_c, 0, 66, 0
2, 17376, Note_on_c, 0, 64, 64
2, 17398, Note_on_c, 0, 56, 0
2, 17402, Note_on_c, 0, 64, 0
2, 17406, Note_on_c, 0, 73, 64
2, 17406, Note_on_c, 0, 58, 64
2, 17432, Note_on_c, 0, 73, 0
2, 17436, Note_on_c, 0, 64, 64
2, 17458, Note_on_c, 0, 58, 0
2, 17462, Note_on_c, 0, 64, 0
2, 17466, Note_on_c, 0, 73, 64
2, 17466, Note_on_c, 0, 54, 64
2, 17492, Note_on_c, 0, 73, 0
2, 17496, Note_on_c, 0, 64, 64
2, 17518, Note_on_c, 0, 54, 0
2, 17522, Note_on_c, 0, 64, 0
2, 17526, Note_on_c, 0, 63, 64
2, 17526, Note_on_c, 0, 59, 64
2, 17552, Note_on_c, 0, 63, 0
2, 17556, Note_on_c, 0, 66, 64
2, 17578, Note_on_c, 0, 59, 0
2, 17582, Note_on_c, 0, 66, 0
2, 17586, Note_on_c, 0, 68, 64
2, 17586, Note_on_c, 0, 58, 64
2, 17612, Note_on_c, 0, 68, 0
2, 17616, Note_on_c, 0, 70, 64
2, 17638, Note_on_c, 0, 58, 0
2, 17642, Note_on_c, 0, 70, 0
2, 17646, Note_on_c, 0, 71, 64
2, 17646, Note_on_c, 0, 56, 64
2, 17672, Note_on_c, 0, 71, 0
2, 17676, Note_on_c, 0, 66, 64
2, 17698, Note_on_c, 0, 56, 0
2, 17702, Note_on_c, 0, 66, 0
2, 17706, Note_on_c, 0, 65, 64
2, 17706, Note_on_c, 0, 54, 64
2, 17732, Note_on_c, 0, 65, 0
2, 17736, Note_on_c, 0, 63, 64
2, 17758, Note_on_c, 0, 54, 0
2, 17762, Note_on_c, 0, 63, 0
2, 17766, Note_on_c, 0, 62, 64
2, 17766, Note_on_c, 0, 53, 64
2, 17792, Note_on_c, 0, 62, 0
2, 17796, Note_on_c, 0, 71, 64
2, 17818, Note_on_c, 0, 53, 0
2, 17822, Note_on_c, 0, 71, 0
2, 17826, Note_on_c, 0, 70, 64
2, 17826, Note_on_c, 0, 56, 64
2, 17852, Note_on_c, 0, 70, 0
2, 17856, Note_on_c, 0, 68, 64
2, 17878, Note_on_c, 0, 56, 0
2, 17882, Note_on_c, 0, 68, 0
2, 17886, Note_on_c, 0, 77, 64
2, 17886, Note_on_c, 0, 50, 64
2, 17912, Note_on_c, 0, 77, 0
2, 17916, Note_on_c, 0, 68, 64
2, 17938, Note_on_c, 0, 50, 0
2, 17942, Note_on_c, 0, 68, 0
2, 17946, Note_on_c, 0, 77, 64
2, 17946, Note_on_c, 0, 46, 64
2, 17972, Note_on_c, 0, 77, 0
2, 17976, Note_on_c, 0, 68, 64
2, 17998, Note_on_c, 0, 46, 0
2, 18002, Note_on_c, 0, 68, 0
2, 18006, Note_on_c, 0, 66, 64
2, 18006, Note_on_c, 0, 51, 64
2, 18032, Note_on_c, 0, 66, 0
2, 18036, Note_on_c, 0, 70, 64
2, 18058, Note_on_c, 0, 51, 0
2, 18062, Note_on_c, 0, 70, 0
2, 18066, Note_on_c, 0, 75, 64
2, 18066, Note_on_c, 0, 49, 64
2, 18092, Note_on_c, 0, 75, 0
2, 18096, Note_on_c, 0, 77, 64
2, 18118, Note_on_c, 0, 49, 0
2, 18122, Note_on_c, 0, 77, 0
2, 18126, Note_on_c, 0, 78, 64
2, 18126, Note_on_c, 0, 48, 64
2, 18152, Note_on_c, 0, 78, 0
2, 18156, Note_on_c, 0, 75, 64
2, 18178, Note_on_c, 0, 48, 0
2, 18182, Note_on_c, 0, 75, 0
2, 18186, Note_on_c, 0, 72, 64
2, 18186, Note_on_c, 0, 46, 64
2, 18212, Note_on_c, 0, 72, 0
2, 18216, Note_on_c, 0, 75, 64
2, 18238, Note_on_c, 0, 46, 0
2, 18242, Note_on_c, 0, 75, 0
2, 18246, Note_on_c, 0, 69, 64
2, 18246, Note_on_c, 0, 48, 64
2, 18272, Note_on_c, 0, 69, 0
2, 18276, Note_on_c, 0, 78, 64
2, 18298, Note_on_c, 0, 48, 0
2, 18302, Note_on_c, 0, 78, 0
2, 18306, Note_on_c, 0, 77, 64
2, 18306, Note_on_c, 0, 51, 64
2, 18332, Note_on_c, 0, 77, 0
2, 18336, Note_on_c, 0, 75, 64
2, 18358, Note_on_c, 0, 51, 0
2, 18362, Note_on_c, 0, 75, 0
2, 18366, Note_on_c, 0, 84, 64
2, 18366, Note_on_c, 0, 45, 64
2, 18392, Note_on_c, 0, 84, 0
2, 18396, Note_on_c, 0, 75, 64
2, 18418, Note_on_c, 0, 45, 0
2, 18422, Note_on_c, 0, 75, 0
2, 18426, Note_on_c, 0, 84, 64
2, 18426, Note_on_c, 0, 41, 64
2, 18452, Note_on_c, 0, 84, 0
2, 18456, Note_on_c, 0, 75, 64
2, 18478, Note_on_c, 0, 41, 0
2, 18482, Note_on_c, 0, 75, 0
2, 18486, Note_on_c, 0, 74, 64
2, 18486, Note_on_c, 0, 46, 64
2, 18512, Note_on_c, 0, 74, 0
2, 18516, Note_on_c, 0, 75, 64
2, 18538, Note_on_c, 0, 46, 0
2, 18542, Note_on_c, 0, 75, 0
2, 18546, Note_on_c, 0, 77, 64
2, 18572, Note_on_c, 0, 77, 0
2, 18576, Note_on_c, 0, 82, 64
2, 18602, Note_on_c, 0, 82, 0
2, 18606, Note_on_c, 0, 70, 64
2, 18632, Note_on_c, 0, 70, 0
2, 18636, Note_on_c, 0, 68, 64
2, 18662, Note_on_c, 0, 68, 0
2, 18666, Note_on_c, 0, 66, 64
2, 18692, Note_on_c, 0, 66, 0
2, 18696, Note_on_c, 0, 65, 64
2, 18722, Note_on_c, 0, 65, 0
2, 18726, Note_on_c, 0, 63, 64
2, 18752, Note_on_c, 0, 63, 0
2, 18756, Note_on_c, 0, 74, 64
2, 18756, Note_on_c, 0, 65, 64
2, 18782, Note_on_c, 0, 65, 0
2, 18782, Note_on_c, 0, 74, 0
2, 18786, Note_on_c, 0, 75, 64
2, 18786, Note_on_c, 0, 66, 64
2, 18812, Note_on_c, 0, 66, 0
2, 18812, Note_on_c, 0, 75, 0
2, 18816, Note_on_c, 0, 77, 64
2, 18816, Note_on_c, 0, 68, 64
2, 18842, Note_on_c, 0, 68, 0
2, 18842, Note_on_c, 0, 77, 0
2, 18846, Note_on_c, 0, 78, 64
2, 18846, Note_on_c, 0, 70, 64
2, 18859, Note_on_c, 0, 78, 0
2, 18861, Note_on_c, 0, 77, 64
2, 18872, Note_on_c, 0, 70, 0
2, 18874, Note_on_c, 0, 77, 0
2, 18876, Note_on_c, 0, 75, 64
2, 18876, Note_on_c, 0, 66, 64
2, 18902, Note_on_c, 0, 66, 0
2, 18902, Note_on_c, 0, 75, 0
2, 18906, Note_on_c, 0, 83, 64
2, 18906, Note_on_c, 0, 80, 64
2, 18906, Note_on_c, 0, 65, 64
2, 18932, Note_on_c, 0, 65, 0
2, 18936, Note_on_c, 0, 63, 64
2, 18958, Note_on_c, 0, 80, 0
2, 18958, Note_on_c, 0, 83, 0
2, 18962, Note_on_c, 0, 63, 0
2, 18966, Note_on_c, 0, 83, 64
2, 18966, Note_on_c, 0, 80, 64
2, 18966, Note_on_c, 0, 62, 64
2, 18992, Note_on_c, 0, 62, 0
2, 18996, Note_on_c, 0, 63, 64
2, 19018, Note_on_c, 0, 80, 0
2, 19018, Note_on_c, 0, 83, 0
2, 19022, Note_on_c, 0, 63, 0
2, 19026, Note_on_c, 0, 82, 64
2, 19026, Note_on_c, 0, 74, 64
2, 19026, Note_on_c, 0, 65, 64
2, 19052, Note_on_c, 0, 65, 0
2, 19056, Note_on_c, 0, 59, 64
2, 19078, Note_on_c, 0, 74, 0
2, 19078, Note_on_c, 0, 82, 0
2, 19082, Note_on_c, 0, 59, 0
2, 19086, Note_on_c, 0, 58, 64
2, 19112, Note_on_c, 0, 58, 0
2, 19116, Note_on_c, 0, 56, 64
2, 19142, Note_on_c, 0, 56, 0
2, 19146, Note_on_c, 0, 54, 64
2, 19172, Note_on_c, 0, 54, 0
2, 19176, Note_on_c, 0, 53, 64
2, 19202, Note_on_c, 0, 53, 0
2, 19206, Note_on_c, 0, 51, 64
2, 19232, Note_on_c, 0, 51, 0
2, 19236, Note_on_c, 0, 58, 64
2, 19262, Note_on_c, 0, 58, 0
2, 19266, Note_on_c, 0, 78, 64
2, 19266, Note_on_c, 0, 75, 64
2, 19266, Note_on_c, 0, 51, 64
2, 19292, Note_on_c, 0, 51, 0
2, 19296, Note_on_c, 0, 58, 64
2, 19318, Note_on_c, 0, 75, 0
2, 19318, Note_on_c, 0, 78, 0
2, 19322, Note_on_c, 0, 58, 0
2, 19326, Note_on_c, 0, 75, 64
2, 19326, Note_on_c, 0, 78, 64
2, 19326, Note_on_c, 0, 50, 64
2, 19352, Note_on_c, 0, 50, 0
2, 19356, Note_on_c, 0, 58, 64
2, 19382, Note_on_c, 0, 58, 0
2, 19385, Note_on_c, 0, 78, 0
2, 19385, Note_on_c, 0, 75, 0
2, 19386, Note_on_c, 0, 77, 64
2, 19386, Note_on_c, 0, 80, 64
2, 19386, Note_on_c, 0, 50, 64
2, 19412, Note_on_c, 0, 50, 0
2, 19416, Note_on_c, 0, 58, 64
2, 19442, Note_on_c, 0, 58, 0
2, 19445, Note_on_c, 0, 80, 0
2, 19445, Note_on_c, 0, 77, 0
2, 19446, Note_on_c, 0, 51, 64
2, 19472, Note_on_c, 0, 51, 0
2, 19476, Note_on_c, 0, 58, 64
2, 19502, Note_on_c, 0, 58, 0
2, 19506, Note_on_c, 0, 78, 64
2, 19506, Note_on_c, 0, 75, 64
2, 19506, Note_on_c, 0, 51, 64
2, 19532, Note_on_c, 0, 51, 0
2, 19536, Note_on_c, 0, 58, 64
2, 19558, Note_on_c, 0, 75, 0
2, 19558, Note_on_c, 0, 78, 0
2, 19562, Note_on_c, 0, 58, 0
2, 19566, Note_on_c, 0, 75, 64
2, 19566, Note_on_c, 0, 78, 64
2, 19566, Note_on_c, 0, 46, 64
2, 19592, Note_on_c, 0, 46, 0
2, 19596, Note_on_c, 0, 56, 64
2, 19622, Note_on_c, 0, 56, 0
2, 19625, Note_on_c, 0, 78, 0
2, 19625, Note_on_c, 0, 75, 0
2, 19626, Note_on_c, 0, 74, 64
2, 19626, Note_on_c, 0, 77, 64
2, 19626, Note_on_c, 0, 46, 64
2, 19652, Note_on_c, 0, 46, 0
2, 19656, Note_on_c, 0, 56, 64
2, 19682, Note_on_c, 0, 56, 0
2, 19685, Note_on_c, 0, 77, 0
2, 19685, Note_on_c, 0, 74, 0
2, 19686, Note_on_c, 0, 47, 64
2, 19712, Note_on_c, 0, 47, 0
2, 19716, Note_on_c, 0, 54, 64
2, 19742, Note_on_c, 0, 54, 0
2, 19746, Note_on_c, 0, 75, 64
2, 19746, Note_on_c, 0, 47, 64
2, 19772, Note_on_c, 0, 47, 0
2, 19776, Note_on_c, 0, 54, 64
2, 19798, Note_on_c, 0, 75, 0
2, 19802, Note_on_c, 0, 54, 0
2, 19806, Note_on_c, 0, 77, 64
2, 19806, Note_on_c, 0, 46, 64
2, 19816, Note_on_c, 0, 75, 64
2, 19821, Note_on_c, 0, 77, 0
2, 19830, Note_on_c, 0, 77, 64
2, 19831, Note_on_c, 0, 75, 0
2, 19832, Note_on_c, 0, 46, 0
2, 19836, Note_on_c, 0, 54, 64
2, 19842, Note_on_c, 0, 75, 64
2, 19849, Note_on_c, 0, 77, 0
2, 19851, Note_on_c, 0, 75, 0
2, 19854, Note_on_c, 0, 74, 64
2, 19862, Note_on_c, 0, 54, 0
2, 19863, Note_on_c, 0, 74, 0
2, 19866, Note_on_c, 0, 75, 64
2, 19866, Note_on_c, 0, 46, 64
2, 19892, Note_on_c, 0, 46, 0
2, 19896, Note_on_c, 0, 54, 64
2, 19918, Note_on_c, 0, 75, 0
2, 19922, Note_on_c, 0, 54, 0
2, 19926, Note_on_c, 0, 47, 64
2, 19952, Note_on_c, 0, 47, 0
2, 19956, Note_on_c, 0, 54, 64
2, 19982, Note_on_c, 0, 54, 0
2, 19986, Note_on_c, 0, 75, 64
2, 19986, Note_on_c, 0, 47, 64
2, 20012, Note_on_c, 0, 47, 0
2, 20016, Note_on_c, 0, 54, 64
2, 20038, Note_on_c, 0, 75, 0
2, 20042, Note_on_c, 0, 54, 0
2, 20046, Note_on_c, 0, 75, 64
2, 20046, Note_on_c, 0, 43, 64
2, 20049, Note_on_c, 0, 75, 0
2, 20054, Note_on_c, 0, 73, 64
2, 20059, Note_on_c, 0, 73, 0
2, 20064, Note_on_c, 0, 75, 64
2, 20067, Note_on_c, 0, 75, 0
2, 20072, Note_on_c, 0, 43, 0
2, 20072, Note_on_c, 0, 73, 64
2, 20076, Note_on_c, 0, 52, 64
2, 20080, Note_on_c, 0, 71, 64
2, 20083, Note_on_c, 0, 73, 0
2, 20099, Note_on_c, 0, 71, 0
2, 20102, Note_on_c, 0, 52, 0
2, 20106, Note_on_c, 0, 73, 64
2, 20106, Note_on_c, 0, 43, 64
2, 20132, Note_on_c, 0, 43, 0
2, 20132, Note_on_c, 0, 73, 0
2, 20136, Note_on_c, 0, 82, 64
2, 20136, Note_on_c, 0, 52, 64
2, 20162, Note_on_c, 0, 52, 0
2, 20162, Note_on_c, 0, 82, 0
2, 20166, Note_on_c, 0, 71, 64
2, 20166, Note_on_c, 0, 44, 64
2, 20192, Note_on_c, 0, 44, 0
2, 20196, Note_on_c, 0, 51, 64
2, 20218, Note_on_c, 0, 71, 0
2, 20222, Note_on_c, 0, 51, 0
2, 20226, Note_on_c, 0, 63, 64
2, 20226, Note_on_c, 0, 44, 64
2, 20252, Note_on_c, 0, 44, 0
2, 20256, Note_on_c, 0, 51, 64
2, 20278, Note_on_c, 0, 63, 0
2, 20282, Note_on_c, 0, 51, 0
2, 20286, Note_on_c, 0, 64, 64
2, 20286, Note_on_c, 0, 73, 64
2, 20286, Note_on_c, 0, 43, 64
2, 20296, Note_on_c, 0, 63, 64
2, 20301, Note_on_c, 0, 64, 0
2, 20306, Note_on_c, 0, 64, 64
2, 20311, Note_on_c, 0, 63, 0
2, 20312, Note_on_c, 0, 43, 0
2, 20316, Note_on_c, 0, 63, 64
2, 20316, Note_on_c, 0, 51, 64
2, 20321, Note_on_c, 0, 64, 0
2, 20322, Note_on_c, 0, 62, 64
2, 20331, Note_on_c, 0, 63, 0
2, 20338, Note_on_c, 0, 73, 0
2, 20342, Note_on_c, 0, 51, 0
2, 20346, Note_on_c, 0, 63, 64
2, 20346, Note_on_c, 0, 43, 64
2, 20348, Note_on_c, 0, 62, 0
2, 20372, Note_on_c, 0, 43, 0
2, 20376, Note_on_c, 0, 51, 64
2, 20398, Note_on_c, 0, 63, 0
2, 20402, Note_on_c, 0, 51, 0
2, 20406, Note_on_c, 0, 71, 64
2, 20406, Note_on_c, 0, 44, 64
2, 20432, Note_on_c, 0, 44, 0
2, 20436, Note_on_c, 0, 51, 64
2, 20458, Note_on_c, 0, 71, 0
2, 20462, Note_on_c, 0, 51, 0
2, 20466, Note_on_c, 0, 64, 64
2, 20466, Note_on_c, 0, 44, 64
2, 20479, Note_on_c, 0, 64, 0
2, 20481, Note_on_c, 0, 63, 64
2, 20492, Note_on_c, 0, 44, 0
2, 20494, Note_on_c, 0, 63, 0
2, 20496, Note_on_c, 0, 62, 64
2, 20496, Note_on_c, 0, 51, 64
2, 20522, Note_on_c, 0, 51, 0
2, 20522, Note_on_c, 0, 62, 0
2, 20526, Note_on_c, 0, 70, 64
2, 20526, Note_on_c, 0, 63, 64
2, 20526, Note_on_c, 0, 42, 64
2, 20552, Note_on_c, 0, 42, 0
2, 20556, Note_on_c, 0, 51, 64
2, 20578, Note_on_c, 0, 63, 0
2, 20578, Note_on_c, 0, 70, 0
2, 20582, Note_on_c, 0, 51, 0
2, 20586, Note_on_c, 0, 75, 64
2, 20586, Note_on_c, 0, 42, 64
2, 20612, Note_on_c, 0, 42, 0
2, 20616, Note_on_c, 0, 51, 64
2, 20638, Note_on_c, 0, 75, 0
2, 20642, Note_on_c, 0, 51, 0
2, 20646, Note_on_c, 0, 68, 64
2, 20646, Note_on_c, 0, 41, 64
2, 20672, Note_on_c, 0, 41, 0
2, 20676, Note_on_c, 0, 51, 64
2, 20702, Note_on_c, 0, 51, 0
2, 20706, Note_on_c, 0, 77, 64
2, 20706, Note_on_c, 0, 50, 64
2, 20732, Note_on_c, 0, 50, 0
2, 20732, Note_on_c, 0, 77, 0
2, 20736, Note_on_c, 0, 75, 64
2, 20736, Note_on_c, 0, 48, 64
2, 20762, Note_on_c, 0, 48, 0
2, 20762, Note_on_c, 0, 75, 0
2, 20766, Note_on_c, 0, 77, 64
2, 20766, Note_on_c, 0, 50, 64
2, 20792, Note_on_c, 0, 50, 0
2, 20796, Note_on_c, 0, 56, 64
2, 20818, Note_on_c, 0, 77, 0
2, 20822, Note_on_c, 0, 56, 0
2, 20826, Note_on_c, 0, 80, 64
2, 20826, Note_on_c, 0, 53, 64
2, 20852, Note_on_c, 0, 53, 0
2, 20856, Note_on_c, 0, 56, 64
2, 20878, Note_on_c, 0, 80, 0
2, 20882, Note_on_c, 0, 56, 0
2, 20886, Note_on_c, 0, 74, 64
2, 20886, Note_on_c, 0, 46, 64
2, 20912, Note_on_c, 0, 46, 0
2, 20912, Note_on_c, 0, 68, 0
2, 20916, Note_on_c, 0, 70, 64
2, 20916, Note_on_c, 0, 58, 64
2, 20938, Note_on_c, 0, 74, 0
2, 20942, Note_on_c, 0, 58, 0
2, 20942, Note_on_c, 0, 70, 0
2, 20946, Note_on_c, 0, 77, 64
2, 20946, Note_on_c, 0, 68, 64
2, 20946, Note_on_c, 0, 48, 64
2, 20972, Note_on_c, 0, 48, 0
2, 20972, Note_on_c, 0, 68, 0
2, 20976, Note_on_c, 0, 66, 64
2, 20976, Note_on_c, 0, 58, 64
2, 20998, Note_on_c, 0, 77, 0
2, 21002, Note_on_c, 0, 58, 0
2, 21002, Note_on_c, 0, 66, 0
2, 21006, Note_on_c, 0, 70, 64
2, 21006, Note_on_c, 0, 65, 64
2, 21006, Note_on_c, 0, 50, 64
2, 21032, Note_on_c, 0, 50, 0
2, 21032, Note_on_c, 0, 65, 0
2, 21036, Note_on_c, 0, 63, 64
2, 21036, Note_on_c, 0, 58, 64
2, 21062, Note_on_c, 0, 58, 0
2, 21062, Note_on_c, 0, 63, 0
2, 21066, Note_on_c, 0, 65, 64
2, 21066, Note_on_c, 0, 46, 64
2, 21092, Note_on_c, 0, 46, 0
2, 21092, Note_on_c, 0, 65, 0
2, 21096, Note_on_c, 0, 62, 64
2, 21096, Note_on_c, 0, 56, 64
2, 21122, Note_on_c, 0, 56, 0
2, 21122, Note_on_c, 0, 62, 0
2, 21126, Note_on_c, 0, 63, 64
2, 21126, Note_on_c, 0, 51, 64
2, 21152, Note_on_c, 0, 51, 0
2, 21156, Note_on_c, 0, 54, 64
2, 21178, Note_on_c, 0, 63, 0
2, 21178, Note_on_c, 0, 70, 0
2, 21182, Note_on_c, 0, 54, 0
2, 21186, Note_on_c, 0, 70, 64
2, 21186, Note_on_c, 0, 66, 64
2, 21186, Note_on_c, 0, 51, 64
2, 21212, Note_on_c, 0, 51, 0
2, 21212, Note_on_c, 0, 66, 0
2, 21212, Note_on_c, 0, 70, 0
2, 21216, Note_on_c, 0, 68, 64
2, 21216, Note_on_c, 0, 65, 64
2, 21216, Note_on_c, 0, 54, 64
2, 21242, Note_on_c, 0, 54, 0
2, 21242, Note_on_c, 0, 65, 0
2, 21242, Note_on_c, 0, 68, 0
2, 21246, Note_on_c, 0, 70, 64
2, 21246, Note_on_c, 0, 66, 64
2, 21246, Note_on_c, 0, 49, 64
2, 21272, Note_on_c, 0, 49, 0
2, 21276, Note_on_c, 0, 58, 64
2, 21298, Note_on_c, 0, 66, 0
2, 21298, Note_on_c, 0, 70, 0
2, 21302, Note_on_c, 0, 58, 0
2, 21306, Note_on_c, 0, 78, 64
2, 21306, Note_on_c, 0, 70, 64
2, 21306, Note_on_c, 0, 49, 64
2, 21332, Note_on_c, 0, 49, 0
2, 21336, Note_on_c, 0, 58, 64
2, 21358, Note_on_c, 0, 70, 0
2, 21358, Note_on_c, 0, 78, 0
2, 21362, Note_on_c, 0, 58, 0
2, 21366, Note_on_c, 0, 48, 64
2, 21392, Note_on_c, 0, 48, 0
2, 21396, Note_on_c, 0, 56, 64
2, 21422, Note_on_c, 0, 56, 0
2, 21426, Note_on_c, 0, 75, 64
2, 21426, Note_on_c, 0, 66, 64
2, 21426, Note_on_c, 0, 48, 64
2, 21452, Note_on_c, 0, 48, 0
2, 21456, Note_on_c, 0, 56, 64
2, 21478, Note_on_c, 0, 66, 0
2, 21478, Note_on_c, 0, 75, 0
2, 21482, Note_on_c, 0, 56, 0
2, 21486, Note_on_c, 0, 44, 64
2, 21512, Note_on_c, 0, 44, 0
2, 21516, Note_on_c, 0, 56, 64
2, 21542, Note_on_c, 0, 56, 0
2, 21546, Note_on_c, 0, 72, 64
2, 21546, Note_on_c, 0, 65, 64
2, 21546, Note_on_c, 0, 44, 64
2, 21572, Note_on_c, 0, 44, 0
2, 21572, Note_on_c, 0, 65, 0
2, 21576, Note_on_c, 0, 63, 64
2, 21576, Note_on_c, 0, 54, 64
2, 21598, Note_on_c, 0, 72, 0
2, 21602, Note_on_c, 0, 54, 0
2, 21602, Note_on_c, 0, 63, 0
2, 21606, Note_on_c, 0, 49, 64
2, 21632, Note_on_c, 0, 49, 0
2, 21636, Note_on_c, 0, 53, 64
2, 21662, Note_on_c, 0, 53, 0
2, 21666, Note_on_c, 0, 68, 64
2, 21666, Note_on_c, 0, 65, 64
2, 21666, Note_on_c, 0, 49, 64
2, 21692, Note_on_c, 0, 49, 0
2, 21692, Note_on_c, 0, 65, 0
2, 21692, Note_on_c, 0, 68, 0
2, 21696, Note_on_c, 0, 66, 64
2, 21696, Note_on_c, 0, 63, 64
2, 21696, Note_on_c, 0, 53, 64
2, 21722, Note_on_c, 0, 53, 0
2, 21722, Note_on_c, 0, 63, 0
2, 21722, Note_on_c, 0, 66, 0
2, 21726, Note_on_c, 0, 68, 64
2, 21726, Note_on_c, 0, 65, 64
2, 21726, Note_on_c, 0, 48, 64
2, 21752, Note_on_c, 0, 48, 0
2, 21756, Note_on_c, 0, 56, 64
2, 21778, Note_on_c, 0, 65, 0
2, 21778, Note_on_c, 0, 68, 0
2, 21782, Note_on_c, 0, 56, 0
2, 21786, Note_on_c, 0, 77, 64
2, 21786, Note_on_c, 0, 68, 64
2, 21786, Note_on_c, 0, 48, 64
2, 21812, Note_on_c, 0, 48, 0
2, 21816, Note_on_c, 0, 56, 64
2, 21838, Note_on_c, 0, 68, 0
2, 21838, Note_on_c, 0, 77, 0
2, 21842, Note_on_c, 0, 56, 0
2, 21846, Note_on_c, 0, 46, 64
2, 21872, Note_on_c, 0, 46, 0
2, 21876, Note_on_c, 0, 54, 64
2, 21902, Note_on_c, 0, 54, 0
2, 21906, Note_on_c, 0, 73, 64
2, 21906, Note_on_c, 0, 65, 64
2, 21906, Note_on_c, 0, 46, 64
2, 21932, Note_on_c, 0, 46, 0
2, 21936, Note_on_c, 0, 54, 64
2, 21958, Note_on_c, 0, 65, 0
2, 21958, Note_on_c, 0, 73, 0
2, 21962, Note_on_c, 0, 54, 0
2, 21966, Note_on_c, 0, 42, 64
2, 21992, Note_on_c, 0, 42, 0
2, 21996, Note_on_c, 0, 54, 64
2, 22022, Note_on_c, 0, 54, 0
2, 22026, Note_on_c, 0, 70, 64
2, 22026, Note_on_c, 0, 63, 64
2, 22026, Note_on_c, 0, 42, 64
2, 22052, Note_on_c, 0, 42, 0
2, 22052, Note_on_c, 0, 63, 0
2, 22056, Note_on_c, 0, 62, 64
2, 22056, Note_on_c, 0, 53, 64
2, 22078, Note_on_c, 0, 70, 0
2, 22082, Note_on_c, 0, 53, 0
2, 22082, Note_on_c, 0, 62, 0
2, 22086, Note_on_c, 0, 48, 64
2, 22112, Note_on_c, 0, 48, 0
2, 22116, Note_on_c, 0, 51, 64
2, 22142, Note_on_c, 0, 51, 0
2, 22146, Note_on_c, 0, 69, 64
2, 22146, Note_on_c, 0, 66, 64
2, 22146, Note_on_c, 0, 48, 64
2, 22172, Note_on_c, 0, 48, 0
2, 22172, Note_on_c, 0, 66, 0
2, 22176, Note_on_c, 0, 65, 64
2, 22176, Note_on_c, 0, 51, 64
2, 22198, Note_on_c, 0, 69, 0
2, 22202, Note_on_c, 0, 51, 0
2, 22202, Note_on_c, 0, 65, 0
2, 22206, Note_on_c, 0, 70, 64
2, 22206, Note_on_c, 0, 66, 64
2, 22206, Note_on_c, 0, 46, 64
2, 22232, Note_on_c, 0, 46, 0
2, 22232, Note_on_c, 0, 66, 0
2, 22236, Note_on_c, 0, 63, 64
2, 22236, Note_on_c, 0, 54, 64
2, 22258, Note_on_c, 0, 70, 0
2, 22262, Note_on_c, 0, 54, 0
2, 22262, Note_on_c, 0, 63, 0
2, 22266, Note_on_c, 0, 75, 64
2, 22266, Note_on_c, 0, 72, 64
2, 22266, Note_on_c, 0, 46, 64
2, 22292, Note_on_c, 0, 46, 0
2, 22296, Note_on_c, 0, 54, 64
2, 22318, Note_on_c, 0, 72, 0
2, 22318, Note_on_c, 0, 75, 0
2, 22322, Note_on_c, 0, 54, 0
2, 22326, Note_on_c, 0, 45, 64
2, 22352, Note_on_c, 0, 45, 0
2, 22356, Note_on_c, 0, 53, 64
2, 22382, Note_on_c, 0, 53, 0
2, 22386, Note_on_c, 0, 75, 64
2, 22386, Note_on_c, 0, 72, 64
2, 22386, Note_on_c, 0, 45, 64
2, 22412, Note_on_c, 0, 45, 0
2, 22412, Note_on_c, 0, 72, 0
2, 22416, Note_on_c, 0, 70, 64
2, 22416, Note_on_c, 0, 53, 64
2, 22438, Note_on_c, 0, 75, 0
2, 22442, Note_on_c, 0, 53, 0
2, 22442, Note_on_c, 0, 70, 0
2, 22446, Note_on_c, 0, 74, 64
2, 22446, Note_on_c, 0, 71, 64
2, 22446, Note_on_c, 0, 41, 64
2, 22472, Note_on_c, 0, 41, 0
2, 22472, Note_on_c, 0, 71, 0
2, 22476, Note_on_c, 0, 68, 64
2, 22476, Note_on_c, 0, 53, 64
2, 22498, Note_on_c, 0, 74, 0
2, 22502, Note_on_c, 0, 53, 0
2, 22502, Note_on_c, 0, 68, 0
2, 22506, Note_on_c, 0, 83, 64
2, 22506, Note_on_c, 0, 80, 64
2, 22506, Note_on_c, 0, 41, 64
2, 22532, Note_on_c, 0, 41, 0
2, 22536, Note_on_c, 0, 51, 64
2, 22558, Note_on_c, 0, 83, 0
2, 22562, Note_on_c, 0, 51, 0
2, 22566, Note_on_c, 0, 82, 64
2, 22566, Note_on_c, 0, 50, 64
2, 22592, Note_on_c, 0, 50, 0
2, 22596, Note_on_c, 0, 46, 64
2, 22618, Note_on_c, 0, 80, 0
2, 22622, Note_on_c, 0, 46, 0
2, 22626, Note_on_c, 0, 78, 64
2, 22626, Note_on_c, 0, 51, 64
2, 22639, Note_on_c, 0, 78, 0
2, 22641, Note_on_c, 0, 77, 64
2, 22652, Note_on_c, 0, 51, 0
2, 22654, Note_on_c, 0, 77, 0
2, 22656, Note_on_c, 0, 75, 64
2, 22656, Note_on_c, 0, 54, 64
2, 22671, Note_on_c, 0, 82, 0
2, 22682, Note_on_c, 0, 54, 0
2, 22682, Note_on_c, 0, 75, 0
2, 22686, Note_on_c, 0, 74, 64
2, 22686, Note_on_c, 0, 58, 64
2, 22716, Note_on_c, 0, 82, 64
2, 22738, Note_on_c, 0, 58, 0
2, 22742, Note_on_c, 0, 82, 0
2, 22746, Note_on_c, 0, 77, 64
2, 22746, Note_on_c, 0, 46, 64
2, 22772, Note_on_c, 0, 77, 0
2, 22776, Note_on_c, 0, 80, 64
2, 22798, Note_on_c, 0, 46, 0
2, 22806, Note_on_c, 0, 39, 64
2, 22858, Note_on_c, 0, 80, 0
2, 22858, Note_on_c, 0, 74, 0
2, 22866, Note_on_c, 0, 79, 64
2, 22866, Note_on_c, 0, 75, 64
2, 22884, Note_on_c, 0, 39, 0
2, 22896, Note_on_c, 0, 43, 64
2, 22909, Note_on_c, 0, 43, 0
2, 22911, Note_on_c, 0, 46, 64
2, 22918, Note_on_c, 0, 75, 0
2, 22918, Note_on_c, 0, 79, 0
2, 22924, Note_on_c, 0, 46, 0
2, 22926, Note_on_c, 0, 51, 64
2, 23031, Note_on_c, 0, 51, 0
2, 23046, Note_on_c, 0, 75, 64
2, 23072, Note_on_c, 0, 75, 0
2, 23076, Note_on_c, 0, 77, 64
2, 23102, Note_on_c, 0, 77, 0
2, 23106, Note_on_c, 0, 79, 64
2, 23106, Note_on_c, 0, 51, 64
2, 23132, Note_on_c, 0, 51, 0
2, 23132, Note_on_c, 0, 79, 0
2, 23136, Note_on_c, 0, 80, 64
2, 23136, Note_on_c, 0, 53, 64
2, 23162, Note_on_c, 0, 53, 0
2, 23162, Note_on_c, 0, 80, 0
2, 23166, Note_on_c, 0, 82, 64
2, 23166, Note_on_c, 0, 55, 64
2, 23192, Note_on_c, 0, 82, 0
2, 23196, Note_on_c, 0, 76, 64
2, 23218, Note_on_c, 0, 55, 0
2, 23222, Note_on_c, 0, 76, 0
2, 23226, Note_on_c, 0, 75, 64
2, 23226, Note_on_c, 0, 58, 64
2, 23252, Note_on_c, 0, 75, 0
2, 23256, Note_on_c, 0, 73, 64
2, 23278, Note_on_c, 0, 58, 0
2, 23282, Note_on_c, 0, 73, 0
2, 23286, Note_on_c, 0, 72, 64
2, 23286, Note_on_c, 0, 63, 64
2, 23312, Note_on_c, 0, 72, 0
2, 23316, Note_on_c, 0, 73, 64
2, 23338, Note_on_c, 0, 63, 0
2, 23342, Note_on_c, 0, 73, 0
2, 23346, Note_on_c, 0, 75, 64
2, 23346, Note_on_c, 0, 61, 64
2, 23372, Note_on_c, 0, 75, 0
2, 23376, Note_on_c, 0, 69, 64
2, 23398, Note_on_c, 0, 61, 0
2, 23402, Note_on_c, 0, 69, 0
2, 23406, Note_on_c, 0, 68, 64
2, 23406, Note_on_c, 0, 60, 64
2, 23432, Note_on_c, 0, 68, 0
2, 23436, Note_on_c, 0, 66, 64
2, 23458, Note_on_c, 0, 60, 0
2, 23462, Note_on_c, 0, 66, 0
2, 23466, Note_on_c, 0, 64, 64
2, 23466, Note_on_c, 0, 56, 64
2, 23492, Note_on_c, 0, 64, 0
2, 23496, Note_on_c, 0, 63, 64
2, 23518, Note_on_c, 0, 56, 0
2, 23522, Note_on_c, 0, 63, 0
2, 23526, Note_on_c, 0, 64, 64
2, 23526, Note_on_c, 0, 61, 64
2, 23552, Note_on_c, 0, 64, 0
2, 23556, Note_on_c, 0, 73, 64
2, 23578, Note_on_c, 0, 61, 0
2, 23582, Note_on_c, 0, 73, 0
2, 23586, Note_on_c, 0, 64, 64
2, 23586, Note_on_c, 0, 49, 64
2, 23612, Note_on_c, 0, 64, 0
2, 23616, Note_on_c, 0, 73, 64
2, 23638, Note_on_c, 0, 49, 0
2, 23642, Note_on_c, 0, 73, 0
2, 23646, Note_on_c, 0, 65, 64
2, 23646, Note_on_c, 0, 47, 64
2, 23672, Note_on_c, 0, 65, 0
2, 23676, Note_on_c, 0, 74, 64
2, 23698, Note_on_c, 0, 47, 0
2, 23702, Note_on_c, 0, 74, 0
2, 23706, Note_on_c, 0, 65, 64
2, 23706, Note_on_c, 0, 59, 64
2, 23732, Note_on_c, 0, 65, 0
2, 23736, Note_on_c, 0, 74, 64
2, 23758, Note_on_c, 0, 59, 0
2, 23762, Note_on_c, 0, 74, 0
2, 23766, Note_on_c, 0, 73, 64
2, 23766, Note_on_c, 0, 57, 64
2, 23792, Note_on_c, 0, 73, 0
2, 23796, Note_on_c, 0, 69, 64
2, 23818, Note_on_c, 0, 57, 0
2, 23822, Note_on_c, 0, 69, 0
2, 23826, Note_on_c, 0, 68, 64
2, 23826, Note_on_c, 0, 45, 64
2, 23852, Note_on_c, 0, 68, 0
2, 23856, Note_on_c, 0, 66, 64
2, 23878, Note_on_c, 0, 45, 0
2, 23882, Note_on_c, 0, 66, 0
2, 23886, Note_on_c, 0, 65, 64
2, 23886, Note_on_c, 0, 44, 64
2, 23912, Note_on_c, 0, 65, 0
2, 23916, Note_on_c, 0, 74, 64
2, 23938, Note_on_c, 0, 44, 0
2, 23942, Note_on_c, 0, 74, 0
2, 23946, Note_on_c, 0, 73, 64
2, 23946, Note_on_c, 0, 56, 64
2, 23972, Note_on_c, 0, 73, 0
2, 23976, Note_on_c, 0, 71, 64
2, 23998, Note_on_c, 0, 56, 0
2, 24002, Note_on_c, 0, 71, 0
2, 24006, Note_on_c, 0, 70, 64
2, 24006, Note_on_c, 0, 54, 64
2, 24032, Note_on_c, 0, 70, 0
2, 24036, Note_on_c, 0, 71, 64
2, 24058, Note_on_c, 0, 54, 0
2, 24062, Note_on_c, 0, 71, 0
2, 24066, Note_on_c, 0, 73, 64
2, 24066, Note_on_c, 0, 42, 64
2, 24092, Note_on_c, 0, 73, 0
2, 24096, Note_on_c, 0, 75, 64
2, 24118, Note_on_c, 0, 42, 0
2, 24122, Note_on_c, 0, 75, 0
2, 24126, Note_on_c, 0, 76, 64
2, 24126, Note_on_c, 0, 49, 64
2, 24152, Note_on_c, 0, 76, 0
2, 24156, Note_on_c, 0, 71, 64
2, 24178, Note_on_c, 0, 49, 0
2, 24182, Note_on_c, 0, 71, 0
2, 24186, Note_on_c, 0, 69, 64
2, 24186, Note_on_c, 0, 52, 64
2, 24212, Note_on_c, 0, 69, 0
2, 24216, Note_on_c, 0, 68, 64
2, 24238, Note_on_c, 0, 52, 0
2, 24242, Note_on_c, 0, 68, 0
2, 24246, Note_on_c, 0, 67, 64
2, 24246, Note_on_c, 0, 46, 64
2, 24272, Note_on_c, 0, 67, 0
2, 24276, Note_on_c, 0, 68, 64
2, 24298, Note_on_c, 0, 46, 0
2, 24302, Note_on_c, 0, 68, 0
2, 24306, Note_on_c, 0, 70, 64
2, 24306, Note_on_c, 0, 49, 64
2, 24332, Note_on_c, 0, 70, 0
2, 24336, Note_on_c, 0, 64, 64
2, 24358, Note_on_c, 0, 49, 0
2, 24362, Note_on_c, 0, 64, 0
2, 24366, Note_on_c, 0, 63, 64
2, 24366, Note_on_c, 0, 43, 64
2, 24392, Note_on_c, 0, 63, 0
2, 24396, Note_on_c, 0, 61, 64
2, 24418, Note_on_c, 0, 43, 0
2, 24422, Note_on_c, 0, 61, 0
2, 24426, Note_on_c, 0, 59, 64
2, 24426, Note_on_c, 0, 51, 64
2, 24452, Note_on_c, 0, 59, 0
2, 24456, Note_on_c, 0, 58, 64
2, 24478, Note_on_c, 0, 51, 0
2, 24482, Note_on_c, 0, 58, 0
2, 24486, Note_on_c, 0, 59, 64
2, 24486, Note_on_c, 0, 56, 64
2, 24512, Note_on_c, 0, 59, 0
2, 24516, Note_on_c, 0, 68, 64
2, 24538, Note_on_c, 0, 56, 0
2, 24542, Note_on_c, 0, 68, 0
2, 24546, Note_on_c, 0, 59, 64
2, 24546, Note_on_c, 0, 44, 64
2, 24572, Note_on_c, 0, 59, 0
2, 24576, Note_on_c, 0, 68, 64
2, 24598, Note_on_c, 0, 44, 0
2, 24602, Note_on_c, 0, 68, 0
2, 24606, Note_on_c, 0, 60, 64
2, 24606, Note_on_c, 0, 42, 64
2, 24632, Note_on_c, 0, 60, 0
2, 24636, Note_on_c, 0, 69, 64
2, 24658, Note_on_c, 0, 42, 0
2, 24662, Note_on_c, 0, 69, 0
2, 24666, Note_on_c, 0, 60, 64
2, 24666, Note_on_c, 0, 54, 64
2, 24692, Note_on_c, 0, 60, 0
2, 24696, Note_on_c, 0, 69, 64
2, 24718, Note_on_c, 0, 54, 0
2, 24722, Note_on_c, 0, 69, 0
2, 24726, Note_on_c, 0, 68, 64
2, 24726, Note_on_c, 0, 52, 64
2, 24752, Note_on_c, 0, 68, 0
2, 24756, Note_on_c, 0, 64, 64
2, 24778, Note_on_c, 0, 52, 0
2, 24782, Note_on_c, 0, 64, 0
2, 24786, Note_on_c, 0, 63, 64
2, 24786, Note_on_c, 0, 40, 64
2, 24812, Note_on_c, 0, 63, 0
2, 24816, Note_on_c, 0, 61, 64
2, 24838, Note_on_c, 0, 40, 0
2, 24842, Note_on_c, 0, 61, 0
2, 24846, Note_on_c, 0, 60, 64
2, 24846, Note_on_c, 0, 39, 64
2, 24872, Note_on_c, 0, 60, 0
2, 24876, Note_on_c, 0, 69, 64
2, 24898, Note_on_c, 0, 39, 0
2, 24902, Note_on_c, 0, 69, 0
2, 24906, Note_on_c, 0, 68, 64
2, 24906, Note_on_c, 0, 51, 64
2, 24932, Note_on_c, 0, 68, 0
2, 24936, Note_on_c, 0, 66, 64
2, 24958, Note_on_c, 0, 51, 0
2, 24962, Note_on_c, 0, 66, 0
2, 24966, Note_on_c, 0, 65, 64
2, 24966, Note_on_c, 0, 49, 64
2, 24992, Note_on_c, 0, 65, 0
2, 24996, Note_on_c, 0, 66, 64
2, 25018, Note_on_c, 0, 49, 0
2, 25022, Note_on_c, 0, 66, 0
2, 25026, Note_on_c, 0, 68, 64
2, 25026, Note_on_c, 0, 37, 64
2, 25052, Note_on_c, 0, 68, 0
2, 25056, Note_on_c, 0, 70, 64
2, 25078, Note_on_c, 0, 37, 0
2, 25082, Note_on_c, 0, 70, 0
2, 25086, Note_on_c, 0, 71, 64
2, 25112, Note_on_c, 0, 71, 0
2, 25116, Note_on_c, 0, 74, 64
2, 25116, Note_on_c, 0, 61, 64
2, 25142, Note_on_c, 0, 61, 0
2, 25142, Note_on_c, 0, 74, 0
2, 25146, Note_on_c, 0, 73, 64
2, 25146, Note_on_c, 0, 63, 64
2, 25172, Note_on_c, 0, 63, 0
2, 25172, Note_on_c, 0, 73, 0
2, 25176, Note_on_c, 0, 71, 64
2, 25176, Note_on_c, 0, 65, 64
2, 25202, Note_on_c, 0, 65, 0
2, 25202, Note_on_c, 0, 71, 0
2, 25206, Note_on_c, 0, 70, 64
2, 25206, Note_on_c, 0, 66, 64
2, 25232, Note_on_c, 0, 70, 0
2, 25236, Note_on_c, 0, 71, 64
2, 25258, Note_on_c, 0, 66, 0
2, 25262, Note_on_c, 0, 71, 0
2, 25266, Note_on_c, 0, 73, 64
2, 25266, Note_on_c, 0, 54, 64
2, 25292, Note_on_c, 0, 73, 0
2, 25296, Note_on_c, 0, 67, 64
2, 25318, Note_on_c, 0, 54, 0
2, 25322, Note_on_c, 0, 67, 0
2, 25326, Note_on_c, 0, 66, 64
2, 25352, Note_on_c, 0, 66, 0
2, 25356, Note_on_c, 0, 64, 64
2, 25356, Note_on_c, 0, 54, 64
2, 25382, Note_on_c, 0, 54, 0
2, 25382, Note_on_c, 0, 64, 0
2, 25386, Note_on_c, 0, 63, 64
2, 25386, Note_on_c, 0, 56, 64
2, 25412, Note_on_c, 0, 56, 0
2, 25412, Note_on_c, 0, 63, 0
2, 25416, Note_on_c, 0, 61, 64
2, 25416, Note_on_c, 0, 58, 64
2, 25442, Note_on_c, 0, 58, 0
2, 25442, Note_on_c, 0, 61, 0
2, 25446, Note_on_c, 0, 63, 64
2, 25446, Note_on_c, 0, 59, 64
2, 25472, Note_on_c, 0, 63, 0
2, 25476, Note_on_c, 0, 64, 64
2, 25498, Note_on_c, 0, 59, 0
2, 25502, Note_on_c, 0, 64, 0
2, 25506, Note_on_c, 0, 66, 64
2, 25506, Note_on_c, 0, 47, 64
2, 25532, Note_on_c, 0, 66, 0
2, 25536, Note_on_c, 0, 68, 64
2, 25558, Note_on_c, 0, 47, 0
2, 25562, Note_on_c, 0, 68, 0
2, 25566, Note_on_c, 0, 69, 64
2, 25592, Note_on_c, 0, 69, 0
2, 25596, Note_on_c, 0, 73, 64
2, 25596, Note_on_c, 0, 47, 64
2, 25622, Note_on_c, 0, 47, 0
2, 25622, Note_on_c, 0, 73, 0
2, 25626, Note_on_c, 0, 71, 64
2, 25626, Note_on_c, 0, 49, 64
2, 25652, Note_on_c, 0, 49, 0
2, 25652, Note_on_c, 0, 71, 0
2, 25656, Note_on_c, 0, 69, 64
2, 25656, Note_on_c, 0, 51, 64
2, 25682, Note_on_c, 0, 51, 0
2, 25682, Note_on_c, 0, 69, 0
2, 25686, Note_on_c, 0, 68, 64
2, 25686, Note_on_c, 0, 52, 64
2, 25712, Note_on_c, 0, 68, 0
2, 25716, Note_on_c, 0, 69, 64
2, 25738, Note_on_c, 0, 52, 0
2, 25742, Note_on_c, 0, 69, 0
2, 25746, Note_on_c, 0, 71, 64
2, 25746, Note_on_c, 0, 40, 64
2, 25772, Note_on_c, 0, 71, 0
2, 25776, Note_on_c, 0, 66, 64
2, 25798, Note_on_c, 0, 40, 0
2, 25802, Note_on_c, 0, 66, 0
2, 25806, Note_on_c, 0, 64, 64
2, 25832, Note_on_c, 0, 64, 0
2, 25836, Note_on_c, 0, 62, 64
2, 25836, Note_on_c, 0, 40, 64
2, 25862, Note_on_c, 0, 40, 0
2, 25862, Note_on_c, 0, 62, 0
2, 25866, Note_on_c, 0, 61, 64
2, 25866, Note_on_c, 0, 42, 64
2, 25892, Note_on_c, 0, 42, 0
2, 25892, Note_on_c, 0, 61, 0
2, 25896, Note_on_c, 0, 59, 64
2, 25896, Note_on_c, 0, 44, 64
2, 25922, Note_on_c, 0, 44, 0
2, 25922, Note_on_c, 0, 59, 0
2, 25926, Note_on_c, 0, 61, 64
2, 25926, Note_on_c, 0, 45, 64
2, 25952, Note_on_c, 0, 45, 0
2, 25956, Note_on_c, 0, 52, 64
2, 25978, Note_on_c, 0, 61, 0
2, 25982, Note_on_c, 0, 52, 0
2, 25986, Note_on_c, 0, 69, 64
2, 25986, Note_on_c, 0, 61, 64
2, 25986, Note_on_c, 0, 45, 64
2, 26012, Note_on_c, 0, 45, 0
2, 26016, Note_on_c, 0, 52, 64
2, 26038, Note_on_c, 0, 61, 0
2, 26038, Note_on_c, 0, 69, 0
2, 26042, Note_on_c, 0, 52, 0
2, 26046, Note_on_c, 0, 71, 64
2, 26046, Note_on_c, 0, 62, 64
2, 26046, Note_on_c, 0, 44, 64
2, 26072, Note_on_c, 0, 44, 0
2, 26076, Note_on_c, 0, 52, 64
2, 26102, Note_on_c, 0, 52, 0
2, 26106, Note_on_c, 0, 44, 64
2, 26132, Note_on_c, 0, 44, 0
2, 26136, Note_on_c, 0, 52, 64
2, 26151, Note_on_c, 0, 62, 0
2, 26151, Note_on_c, 0, 71, 0
2, 26162, Note_on_c, 0, 52, 0
2, 26166, Note_on_c, 0, 45, 64
2, 26192, Note_on_c, 0, 45, 0
2, 26196, Note_on_c, 0, 52, 64
2, 26222, Note_on_c, 0, 52, 0
2, 26226, Note_on_c, 0, 69, 64
2, 26226, Note_on_c, 0, 61, 64
2, 26226, Note_on_c, 0, 45, 64
2, 26252, Note_on_c, 0, 45, 0
2, 26256, Note_on_c, 0, 52, 64
2, 26278, Note_on_c, 0, 61, 0
2, 26278, Note_on_c, 0, 69, 0
2, 26282, Note_on_c, 0, 52, 0
2, 26286, Note_on_c, 0, 68, 64
2, 26286, Note_on_c, 0, 59, 64
2, 26286, Note_on_c, 0, 41, 64
2, 26312, Note_on_c, 0, 41, 0
2, 26316, Note_on_c, 0, 50, 64
2, 26342, Note_on_c, 0, 50, 0
2, 26346, Note_on_c, 0, 41, 64
2, 26372, Note_on_c, 0, 41, 0
2, 26376, Note_on_c, 0, 50, 64
2, 26391, Note_on_c, 0, 59, 0
2, 26391, Note_on_c, 0, 68, 0
2, 26402, Note_on_c, 0, 50, 0
2, 26406, Note_on_c, 0, 42, 64
2, 26432, Note_on_c, 0, 42, 0
2, 26436, Note_on_c, 0, 49, 64
2, 26462, Note_on_c, 0, 49, 0
2, 26466, Note_on_c, 0, 66, 64
2, 26466, Note_on_c, 0, 57, 64
2, 26466, Note_on_c, 0, 42, 64
2, 26492, Note_on_c, 0, 42, 0
2, 26492, Note_on_c, 0, 57, 0
2, 26492, Note_on_c, 0, 66, 0
2, 26496, Note_on_c, 0, 68, 64
2, 26496, Note_on_c, 0, 59, 64
2, 26496, Note_on_c, 0, 49, 64
2, 26522, Note_on_c, 0, 49, 0
2, 26522, Note_on_c, 0, 59, 0
2, 26522, Note_on_c, 0, 68, 0
2, 26526, Note_on_c, 0, 69, 64
2, 26526, Note_on_c, 0, 61, 64
2, 26526, Note_on_c, 0, 40, 64
2, 26552, Note_on_c, 0, 40, 0
2, 26556, Note_on_c, 0, 49, 64
2, 26578, Note_on_c, 0, 61, 0
2, 26578, Note_on_c, 0, 69, 0
2, 26582, Note_on_c, 0, 49, 0
2, 26586, Note_on_c, 0, 73, 64
2, 26586, Note_on_c, 0, 68, 64
2, 26586, Note_on_c, 0, 40, 64
2, 26612, Note_on_c, 0, 40, 0
2, 26616, Note_on_c, 0, 49, 64
2, 26638, Note_on_c, 0, 68, 0
2, 26638, Note_on_c, 0, 73, 0
2, 26642, Note_on_c, 0, 49, 0
2, 26646, Note_on_c, 0, 39, 64
2, 26672, Note_on_c, 0, 39, 0
2, 26676, Note_on_c, 0, 43, 64
2, 26702, Note_on_c, 0, 43, 0
2, 26706, Note_on_c, 0, 76, 64
2, 26706, Note_on_c, 0, 67, 64
2, 26706, Note_on_c, 0, 46, 64
2, 26732, Note_on_c, 0, 46, 0
2, 26736, Note_on_c, 0, 49, 64
2, 26758, Note_on_c, 0, 67, 0
2, 26758, Note_on_c, 0, 76, 0
2, 26762, Note_on_c, 0, 49, 0
2, 26766, Note_on_c, 0, 75, 64
2, 26766, Note_on_c, 0, 68, 64
2, 26766, Note_on_c, 0, 47, 64
2, 26792, Note_on_c, 0, 47, 0
2, 26796, Note_on_c, 0, 46, 64
2, 26818, Note_on_c, 0, 68, 0
2, 26818, Note_on_c, 0, 75, 0
2, 26822, Note_on_c, 0, 46, 0
2, 26826, Note_on_c, 0, 73, 64
2, 26826, Note_on_c, 0, 70, 64
2, 26826, Note_on_c, 0, 44, 64
2, 26852, Note_on_c, 0, 44, 0
2, 26856, Note_on_c, 0, 43, 64
2, 26878, Note_on_c, 0, 70, 0
2, 26878, Note_on_c, 0, 73, 0
2, 26882, Note_on_c, 0, 43, 0
2, 26886, Note_on_c, 0, 44, 64
2, 26912, Note_on_c, 0, 44, 0
2, 26916, Note_on_c, 0, 51, 64
2, 26942, Note_on_c, 0, 51, 0
2, 26946, Note_on_c, 0, 71, 64
2, 26946, Note_on_c, 0, 68, 64
2, 26946, Note_on_c, 0, 44, 64
2, 26972, Note_on_c, 0, 44, 0
2, 26972, Note_on_c, 0, 68, 0
2, 26972, Note_on_c, 0, 71, 0
2, 26976, Note_on_c, 0, 70, 64
2, 26976, Note_on_c, 0, 67, 64
2, 26976, Note_on_c, 0, 51, 64
2, 27002, Note_on_c, 0, 51, 0
2, 27002, Note_on_c, 0, 67, 0
2, 27002, Note_on_c, 0, 70, 0
2, 27006, Note_on_c, 0, 71, 64
2, 27006, Note_on_c, 0, 68, 64
2, 27006, Note_on_c, 0, 42, 64
2, 27032, Note_on_c, 0, 42, 0
2, 27036, Note_on_c, 0, 51, 64
2, 27058, Note_on_c, 0, 68, 0
2, 27058, Note_on_c, 0, 71, 0
2, 27062, Note_on_c, 0, 51, 0
2, 27066, Note_on_c, 0, 75, 64
2, 27066, Note_on_c, 0, 70, 64
2, 27066, Note_on_c, 0, 42, 64
2, 27092, Note_on_c, 0, 42, 0
2, 27096, Note_on_c, 0, 51, 64
2, 27118, Note_on_c, 0, 70, 0
2, 27118, Note_on_c, 0, 75, 0
2, 27122, Note_on_c, 0, 51, 0
2, 27126, Note_on_c, 0, 41, 64
2, 27152, Note_on_c, 0, 41, 0
2, 27156, Note_on_c, 0, 45, 64
2, 27182, Note_on_c, 0, 45, 0
2, 27186, Note_on_c, 0, 78, 64
2, 27186, Note_on_c, 0, 69, 64
2, 27186, Note_on_c, 0, 48, 64
2, 27212, Note_on_c, 0, 48, 0
2, 27216, Note_on_c, 0, 51, 64
2, 27238, Note_on_c, 0, 69, 0
2, 27238, Note_on_c, 0, 78, 0
2, 27242, Note_on_c, 0, 51, 0
2, 27246, Note_on_c, 0, 77, 64
2, 27246, Note_on_c, 0, 70, 64
2, 27246, Note_on_c, 0, 49, 64
2, 27272, Note_on_c, 0, 49, 0
2, 27276, Note_on_c, 0, 48, 64
2, 27298, Note_on_c, 0, 70, 0
2, 27298, Note_on_c, 0, 77, 0
2, 27302, Note_on_c, 0, 48, 0
2, 27306, Note_on_c, 0, 75, 64
2, 27306, Note_on_c, 0, 72, 64
2, 27306, Note_on_c, 0, 46, 64
2, 27332, Note_on_c, 0, 46, 0
2, 27336, Note_on_c, 0, 45, 64
2, 27358, Note_on_c, 0, 72, 0
2, 27358, Note_on_c, 0, 75, 0
2, 27362, Note_on_c, 0, 45, 0
2, 27366, Note_on_c, 0, 65, 64
2, 27366, Note_on_c, 0, 74, 64
2, 27366, Note_on_c, 0, 46, 64
2, 27392, Note_on_c, 0, 74, 0
2, 27392, Note_on_c, 0, 65, 0
2, 27396, Note_on_c, 0, 71, 64
2, 27418, Note_on_c, 0, 46, 0
2, 27422, Note_on_c, 0, 71, 0
2, 27426, Note_on_c, 0, 70, 64
2, 27426, Note_on_c, 0, 48, 64
2, 27452, Note_on_c, 0, 70, 0
2, 27456, Note_on_c, 0, 68, 64
2, 27478, Note_on_c, 0, 48, 0
2, 27482, Note_on_c, 0, 68, 0
2, 27486, Note_on_c, 0, 77, 64
2, 27486, Note_on_c, 0, 50, 64
2, 27512, Note_on_c, 0, 77, 0
2, 27516, Note_on_c, 0, 68, 64
2, 27538, Note_on_c, 0, 50, 0
2, 27542, Note_on_c, 0, 68, 0
2, 27546, Note_on_c, 0, 77, 64
2, 27546, Note_on_c, 0, 46, 64
2, 27572, Note_on_c, 0, 77, 0
2, 27576, Note_on_c, 0, 68, 64
2, 27598, Note_on_c, 0, 46, 0
2, 27602, Note_on_c, 0, 68, 0
2, 27606, Note_on_c, 0, 67, 64
2, 27606, Note_on_c, 0, 51, 64
2, 27632, Note_on_c, 0, 67, 0
2, 27636, Note_on_c, 0, 76, 64
2, 27658, Note_on_c, 0, 51, 0
2, 27662, Note_on_c, 0, 76, 0
2, 27666, Note_on_c, 0, 75, 64
2, 27666, Note_on_c, 0, 53, 64
2, 27692, Note_on_c, 0, 75, 0
2, 27696, Note_on_c, 0, 73, 64
2, 27718, Note_on_c, 0, 53, 0
2, 27722, Note_on_c, 0, 73, 0
2, 27726, Note_on_c, 0, 82, 64
2, 27726, Note_on_c, 0, 55, 64
2, 27752, Note_on_c, 0, 82, 0
2, 27756, Note_on_c, 0, 73, 64
2, 27778, Note_on_c, 0, 55, 0
2, 27782, Note_on_c, 0, 73, 0
2, 27786, Note_on_c, 0, 82, 64
2, 27786, Note_on_c, 0, 51, 64
2, 27812, Note_on_c, 0, 82, 0
2, 27816, Note_on_c, 0, 73, 64
2, 27838, Note_on_c, 0, 51, 0
2, 27842, Note_on_c, 0, 73, 0
2, 27846, Note_on_c, 0, 72, 64
2, 27846, Note_on_c, 0, 56, 64
2, 27872, Note_on_c, 0, 72, 0
2, 27876, Note_on_c, 0, 69, 64
2, 27898, Note_on_c, 0, 56, 0
2, 27902, Note_on_c, 0, 69, 0
2, 27906, Note_on_c, 0, 68, 64
2, 27906, Note_on_c, 0, 58, 64
2, 27932, Note_on_c, 0, 68, 0
2, 27936, Note_on_c, 0, 66, 64
2, 27958, Note_on_c, 0, 58, 0
2, 27962, Note_on_c, 0, 66, 0
2, 27966, Note_on_c, 0, 75, 64
2, 27966, Note_on_c, 0, 60, 64
2, 27992, Note_on_c, 0, 75, 0
2, 27996, Note_on_c, 0, 66, 64
2, 28018, Note_on_c, 0, 60, 0
2, 28022, Note_on_c, 0, 66, 0
2, 28026, Note_on_c, 0, 75, 64
2, 28026, Note_on_c, 0, 56, 64
2, 28052, Note_on_c, 0, 75, 0
2, 28056, Note_on_c, 0, 66, 64
2, 28078, Note_on_c, 0, 56, 0
2, 28082, Note_on_c, 0, 66, 0
2, 28086, Note_on_c, 0, 65, 64
2, 28086, Note_on_c, 0, 61, 64
2, 28112, Note_on_c, 0, 65, 0
2, 28116, Note_on_c, 0, 74, 64
2, 28138, Note_on_c, 0, 61, 0
2, 28142, Note_on_c, 0, 74, 0
2, 28146, Note_on_c, 0, 73, 64
2, 28146, Note_on_c, 0, 63, 64
2, 28172, Note_on_c, 0, 73, 0
2, 28176, Note_on_c, 0, 71, 64
2, 28198, Note_on_c, 0, 63, 0
2, 28202, Note_on_c, 0, 71, 0
2, 28206, Note_on_c, 0, 80, 64
2, 28206, Note_on_c, 0, 65, 64
2, 28232, Note_on_c, 0, 80, 0
2, 28236, Note_on_c, 0, 71, 64
2, 28258, Note_on_c, 0, 65, 0
2, 28262, Note_on_c, 0, 71, 0
2, 28266, Note_on_c, 0, 80, 64
2, 28266, Note_on_c, 0, 61, 64
2, 28292, Note_on_c, 0, 80, 0
2, 28296, Note_on_c, 0, 71, 64
2, 28318, Note_on_c, 0, 61, 0
2, 28322, Note_on_c, 0, 71, 0
2, 28326, Note_on_c, 0, 70, 64
2, 28326, Note_on_c, 0, 66, 64
2, 28352, Note_on_c, 0, 70, 0
2, 28356, Note_on_c, 0, 73, 64
2, 28382, Note_on_c, 0, 73, 0
2, 28386, Note_on_c, 0, 75, 64
2, 28412, Note_on_c, 0, 75, 0
2, 28416, Note_on_c, 0, 77, 64
2, 28431, Note_on_c, 0, 66, 0
2, 28442, Note_on_c, 0, 77, 0
2, 28446, Note_on_c, 0, 78, 64
2, 28476, Note_on_c, 0, 65, 64
2, 28498, Note_on_c, 0, 78, 0
2, 28502, Note_on_c, 0, 65, 0
2, 28506, Note_on_c, 0, 70, 64
2, 28506, Note_on_c, 0, 63, 64
2, 28532, Note_on_c, 0, 63, 0
2, 28536, Note_on_c, 0, 61, 64
2, 28558, Note_on_c, 0, 70, 0
2, 28562, Note_on_c, 0, 61, 0
2, 28566, Note_on_c, 0, 69, 64
2, 28566, Note_on_c, 0, 60, 64
2, 28592, Note_on_c, 0, 60, 0
2, 28596, Note_on_c, 0, 58, 64
2, 28618, Note_on_c, 0, 69, 0
2, 28622, Note_on_c, 0, 58, 0
2, 28626, Note_on_c, 0, 78, 64
2, 28626, Note_on_c, 0, 60, 64
2, 28652, Note_on_c, 0, 60, 0
2, 28656, Note_on_c, 0, 63, 64
2, 28678, Note_on_c, 0, 78, 0
2, 28682, Note_on_c, 0, 63, 0
2, 28686, Note_on_c, 0, 77, 64
2, 28686, Note_on_c, 0, 62, 64
2, 28712, Note_on_c, 0, 62, 0
2, 28716, Note_on_c, 0, 60, 64
2, 28738, Note_on_c, 0, 77, 0
2, 28742, Note_on_c, 0, 60, 0
2, 28746, Note_on_c, 0, 68, 64
2, 28746, Note_on_c, 0, 62, 64
2, 28772, Note_on_c, 0, 62, 0
2, 28776, Note_on_c, 0, 65, 64
2, 28798, Note_on_c, 0, 68, 0
2, 28802, Note_on_c, 0, 65, 0
2, 28806, Note_on_c, 0, 67, 64
2, 28806, Note_on_c, 0, 65, 64
2, 28832, Note_on_c, 0, 67, 0
2, 28836, Note_on_c, 0, 70, 64
2, 28858, Note_on_c, 0, 65, 0
2, 28862, Note_on_c, 0, 70, 0
2, 28866, Note_on_c, 0, 72, 64
2, 28866, Note_on_c, 0, 63, 64
2, 28892, Note_on_c, 0, 72, 0
2, 28896, Note_on_c, 0, 74, 64
2, 28918, Note_on_c, 0, 63, 0
2, 28922, Note_on_c, 0, 74, 0
2, 28926, Note_on_c, 0, 75, 64
2, 28956, Note_on_c, 0, 61, 64
2, 28978, Note_on_c, 0, 75, 0
2, 28982, Note_on_c, 0, 61, 0
2, 28986, Note_on_c, 0, 66, 64
2, 28986, Note_on_c, 0, 59, 64
2, 29012, Note_on_c, 0, 59, 0
2, 29016, Note_on_c, 0, 58, 64
2, 29038, Note_on_c, 0, 66, 0
2, 29042, Note_on_c, 0, 58, 0
2, 29046, Note_on_c, 0, 65, 64
2, 29046, Note_on_c, 0, 56, 64
2, 29072, Note_on_c, 0, 56, 0
2, 29076, Note_on_c, 0, 55, 64
2, 29098, Note_on_c, 0, 65, 0
2, 29102, Note_on_c, 0, 55, 0
2, 29106, Note_on_c, 0, 74, 64
2, 29106, Note_on_c, 0, 56, 64
2, 29132, Note_on_c, 0, 56, 0
2, 29136, Note_on_c, 0, 59, 64
2, 29158, Note_on_c, 0, 74, 0
2, 29162, Note_on_c, 0, 59, 0
2, 29166, Note_on_c, 0, 73, 64
2, 29166, Note_on_c, 0, 58, 64
2, 29192, Note_on_c, 0, 58, 0
2, 29196, Note_on_c, 0, 56, 64
2, 29218, Note_on_c, 0, 73, 0
2, 29222, Note_on_c, 0, 56, 0
2, 29226, Note_on_c, 0, 64, 64
2, 29226, Note_on_c, 0, 58, 64
2, 29252, Note_on_c, 0, 58, 0
2, 29256, Note_on_c, 0, 61, 64
2, 29278, Note_on_c, 0, 64, 0
2, 29282, Note_on_c, 0, 61, 0
2, 29286, Note_on_c, 0, 63, 64
2, 29286, Note_on_c, 0, 61, 64
2, 29312, Note_on_c, 0, 63, 0
2, 29316, Note_on_c, 0, 67, 64
2, 29338, Note_on_c, 0, 61, 0
2, 29342, Note_on_c, 0, 67, 0
2, 29346, Note_on_c, 0, 68, 64
2, 29346, Note_on_c, 0, 59, 64
2, 29372, Note_on_c, 0, 68, 0
2, 29376, Note_on_c, 0, 70, 64
2, 29398, Note_on_c, 0, 59, 0
2, 29402, Note_on_c, 0, 70, 0
2, 29406, Note_on_c, 0, 71, 64
2, 29436, Note_on_c, 0, 58, 64
2, 29458, Note_on_c, 0, 71, 0
2, 29462, Note_on_c, 0, 58, 0
2, 29466, Note_on_c, 0, 63, 64
2, 29466, Note_on_c, 0, 56, 64
2, 29492, Note_on_c, 0, 56, 0
2, 29496, Note_on_c, 0, 54, 64
2, 29518, Note_on_c, 0, 63, 0
2, 29522, Note_on_c, 0, 54, 0
2, 29526, Note_on_c, 0, 62, 64
2, 29526, Note_on_c, 0, 53, 64
2, 29552, Note_on_c, 0, 53, 0
2, 29556, Note_on_c, 0, 51, 64
2, 29578, Note_on_c, 0, 62, 0
2, 29582, Note_on_c, 0, 51, 0
2, 29586, Note_on_c, 0, 71, 64
2, 29586, Note_on_c, 0, 53, 64
2, 29612, Note_on_c, 0, 53, 0
2, 29616, Note_on_c, 0, 56, 64
2, 29638, Note_on_c, 0, 71, 0
2, 29642, Note_on_c, 0, 56, 0
2, 29646, Note_on_c, 0, 70, 64
2, 29646, Note_on_c, 0, 55, 64
2, 29672, Note_on_c, 0, 55, 0
2, 29676, Note_on_c, 0, 53, 64
2, 29698, Note_on_c, 0, 70, 0
2, 29702, Note_on_c, 0, 53, 0
2, 29706, Note_on_c, 0, 61, 64
2, 29706, Note_on_c, 0, 55, 64
2, 29732, Note_on_c, 0, 55, 0
2, 29736, Note_on_c, 0, 58, 64
2, 29758, Note_on_c, 0, 61, 0
2, 29762, Note_on_c, 0, 58, 0
2, 29766, Note_on_c, 0, 60, 64
2, 29766, Note_on_c, 0, 51, 64
2, 29792, Note_on_c, 0, 51, 0
2, 29796, Note_on_c, 0, 50, 64
2, 29818, Note_on_c, 0, 60, 0
2, 29822, Note_on_c, 0, 50, 0
2, 29826, Note_on_c, 0, 69, 64
2, 29826, Note_on_c, 0, 51, 64
2, 29852, Note_on_c, 0, 51, 0
2, 29856, Note_on_c, 0, 54, 64
2, 29878, Note_on_c, 0, 69, 0
2, 29882, Note_on_c, 0, 54, 0
2, 29886, Note_on_c, 0, 68, 64
2, 29886, Note_on_c, 0, 52, 64
2, 29912, Note_on_c, 0, 52, 0
2, 29916, Note_on_c, 0, 51, 64
2, 29938, Note_on_c, 0, 68, 0
2, 29942, Note_on_c, 0, 51, 0
2, 29946, Note_on_c, 0, 59, 64
2, 29946, Note_on_c, 0, 52, 64
2, 29972, Note_on_c, 0, 52, 0
2, 29976, Note_on_c, 0, 56, 64
2, 29998, Note_on_c, 0, 59, 0
2, 30002, Note_on_c, 0, 56, 0
2, 30006, Note_on_c, 0, 58, 64
2, 30006, Note_on_c, 0, 50, 64
2, 30032, Note_on_c, 0, 50, 0
2, 30036, Note_on_c, 0, 48, 64
2, 30058, Note_on_c, 0, 58, 0
2, 30062, Note_on_c, 0, 48, 0
2, 30066, Note_on_c, 0, 68, 64
2, 30066, Note_on_c, 0, 50, 64
2, 30092, Note_on_c, 0, 50, 0
2, 30096, Note_on_c, 0, 53, 64
2, 30118, Note_on_c, 0, 68, 0
2, 30122, Note_on_c, 0, 53, 0
2, 30126, Note_on_c, 0, 67, 64
2, 30126, Note_on_c, 0, 51, 64
2, 30152, Note_on_c, 0, 51, 0
2, 30156, Note_on_c, 0, 50, 64
2, 30178, Note_on_c, 0, 67, 0
2, 30182, Note_on_c, 0, 50, 0
2, 30186, Note_on_c, 0, 57, 64
2, 30186, Note_on_c, 0, 51, 64
2, 30212, Note_on_c, 0, 51, 0
2, 30216, Note_on_c, 0, 54, 64
2, 30238, Note_on_c, 0, 57, 0
2, 30242, Note_on_c, 0, 54, 0
2, 30246, Note_on_c, 0, 56, 64
2, 30246, Note_on_c, 0, 48, 64
2, 30272, Note_on_c, 0, 48, 0
2, 30276, Note_on_c, 0, 46, 64
2, 30298, Note_on_c, 0, 56, 0
2, 30302, Note_on_c, 0, 46, 0
2, 30306, Note_on_c, 0, 66, 64
2, 30306, Note_on_c, 0, 48, 64
2, 30332, Note_on_c, 0, 48, 0
2, 30336, Note_on_c, 0, 51, 64
2, 30358, Note_on_c, 0, 66, 0
2, 30362, Note_on_c, 0, 51, 0
2, 30366, Note_on_c, 0, 65, 64
2, 30366, Note_on_c, 0, 49, 64
2, 30392, Note_on_c, 0, 49, 0
2, 30396, Note_on_c, 0, 48, 64
2, 30418, Note_on_c, 0, 65, 0
2, 30422, Note_on_c, 0, 48, 0
2, 30426, Note_on_c, 0, 64, 64
2, 30426, Note_on_c, 0, 56, 64
2, 30426, Note_on_c, 0, 49, 64
2, 30452, Note_on_c, 0, 49, 0
2, 30456, Note_on_c, 0, 52, 64
2, 30478, Note_on_c, 0, 56, 0
2, 30478, Note_on_c, 0, 64, 0
2, 30482, Note_on_c, 0, 52, 0
2, 30486, Note_on_c, 0, 64, 64
2, 30486, Note_on_c, 0, 56, 64
2, 30486, Note_on_c, 0, 46, 64
2, 30512, Note_on_c, 0, 46, 0
2, 30516, Note_on_c, 0, 47, 64
2, 30538, Note_on_c, 0, 56, 0
2, 30538, Note_on_c, 0, 64, 0
2, 30542, Note_on_c, 0, 47, 0
2, 30546, Note_on_c, 0, 63, 64
2, 30546, Note_on_c, 0, 55, 64
2, 30546, Note_on_c, 0, 49, 64
2, 30572, Note_on_c, 0, 49, 0
2, 30576, Note_on_c, 0, 47, 64
2, 30598, Note_on_c, 0, 55, 0
2, 30598, Note_on_c, 0, 63, 0
2, 30602, Note_on_c, 0, 47, 0
2, 30606, Note_on_c, 0, 49, 64
2, 30632, Note_on_c, 0, 49, 0
2, 30636, Note_on_c, 0, 55, 64
2, 30662, Note_on_c, 0, 55, 0
2, 30666, Note_on_c, 0, 58, 64
2, 30692, Note_on_c, 0, 58, 0
2, 30696, Note_on_c, 0, 49, 64
2, 30722, Note_on_c, 0, 49, 0
2, 30726, Note_on_c, 0, 68, 64
2, 30726, Note_on_c, 0, 68, 64
2, 30726, Note_on_c, 0, 47, 64
2, 30752, Note_on_c, 0, 47, 0
2, 30752, Note_on_c, 0, 68, 0
2, 30752, Note_on_c, 0, 68, 0
2, 30756, Note_on_c, 0, 70, 64
2, 30756, Note_on_c, 0, 70, 64
2, 30756, Note_on_c, 0, 46, 64
2, 30782, Note_on_c, 0, 46, 0
2, 30782, Note_on_c, 0, 70, 0
2, 30782, Note_on_c, 0, 70, 0
2, 30786, Note_on_c, 0, 71, 64
2, 30786, Note_on_c, 0, 71, 64
2, 30786, Note_on_c, 0, 44, 64
2, 30812, Note_on_c, 0, 44, 0
2, 30812, Note_on_c, 0, 71, 0
2, 30812, Note_on_c, 0, 71, 0
2, 30816, Note_on_c, 0, 73, 64
2, 30816, Note_on_c, 0, 73, 64
2, 30816, Note_on_c, 0, 46, 64
2, 30842, Note_on_c, 0, 46, 0
2, 30842, Note_on_c, 0, 73, 0
2, 30842, Note_on_c, 0, 73, 0
2, 30846, Note_on_c, 0, 75, 64
2, 30846, Note_on_c, 0, 75, 64
2, 30846, Note_on_c, 0, 47, 64
2, 30872, Note_on_c, 0, 47, 0
2, 30872, Note_on_c, 0, 75, 0
2, 30872, Note_on_c, 0, 75, 0
2, 30876, Note_on_c, 0, 71, 64
2, 30876, Note_on_c, 0, 71, 64
2, 30876, Note_on_c, 0, 49, 64
2, 30902, Note_on_c, 0, 49, 0
2, 30902, Note_on_c, 0, 71, 0
2, 30902, Note_on_c, 0, 71, 0
2, 30906, Note_on_c, 0, 70, 64
2, 30906, Note_on_c, 0, 70, 64
2, 30906, Note_on_c, 0, 51, 64
2, 30932, Note_on_c, 0, 51, 0
2, 30932, Note_on_c, 0, 70, 0
2, 30932, Note_on_c, 0, 70, 0
2, 30936, Note_on_c, 0, 68, 64
2, 30936, Note_on_c, 0, 68, 64
2, 30936, Note_on_c, 0, 52, 64
2, 30962, Note_on_c, 0, 52, 0
2, 30962, Note_on_c, 0, 68, 0
2, 30962, Note_on_c, 0, 68, 0
2, 30966, Note_on_c, 0, 67, 64
2, 30966, Note_on_c, 0, 67, 64
2, 30966, Note_on_c, 0, 52, 64
2, 30992, Note_on_c, 0, 67, 0
2, 30992, Note_on_c, 0, 67, 0
2, 30996, Note_on_c, 0, 68, 64
2, 30996, Note_on_c, 0, 68, 64
2, 31018, Note_on_c, 0, 52, 0
2, 31022, Note_on_c, 0, 68, 0
2, 31022, Note_on_c, 0, 68, 0
2, 31026, Note_on_c, 0, 70, 64
2, 31026, Note_on_c, 0, 70, 64
2, 31026, Note_on_c, 0, 43, 64
2, 31052, Note_on_c, 0, 70, 0
2, 31052, Note_on_c, 0, 70, 0
2, 31056, Note_on_c, 0, 64, 64
2, 31056, Note_on_c, 0, 64, 64
2, 31078, Note_on_c, 0, 43, 0
2, 31082, Note_on_c, 0, 64, 0
2, 31082, Note_on_c, 0, 64, 0
2, 31086, Note_on_c, 0, 63, 64
2, 31086, Note_on_c, 0, 63, 64
2, 31116, Note_on_c, 0, 61, 64
2, 31142, Note_on_c, 0, 61, 0
2, 31146, Note_on_c, 0, 59, 64
2, 31172, Note_on_c, 0, 59, 0
2, 31176, Note_on_c, 0, 58, 64
2, 31191, Note_on_c, 0, 63, 0
2, 31191, Note_on_c, 0, 63, 0
2, 31202, Note_on_c, 0, 58, 0
2, 31206, Note_on_c, 0, 56, 64
2, 31232, Note_on_c, 0, 56, 0
2, 31236, Note_on_c, 0, 63, 64
2, 31262, Note_on_c, 0, 63, 0
2, 31266, Note_on_c, 0, 80, 64
2, 31266, Note_on_c, 0, 71, 64
2, 31266, Note_on_c, 0, 56, 64
2, 31292, Note_on_c, 0, 56, 0
2, 31296, Note_on_c, 0, 63, 64
2, 31318, Note_on_c, 0, 71, 0
2, 31318, Note_on_c, 0, 80, 0
2, 31322, Note_on_c, 0, 63, 0
2, 31324, Note_on_c, 0, 71, 64
2, 31324, Note_on_c, 0, 80, 64
2, 31326, Note_on_c, 0, 55, 64
2, 31352, Note_on_c, 0, 55, 0
2, 31356, Note_on_c, 0, 63, 64
2, 31379, Note_on_c, 0, 80, 0
2, 31379, Note_on_c, 0, 71, 0
2, 31382, Note_on_c, 0, 63, 0
2, 31384, Note_on_c, 0, 73, 64
2, 31386, Note_on_c, 0, 82, 64
2, 31386, Note_on_c, 0, 55, 64
2, 31412, Note_on_c, 0, 55, 0
2, 31416, Note_on_c, 0, 63, 64
2, 31439, Note_on_c, 0, 82, 0
2, 31439, Note_on_c, 0, 73, 0
2, 31442, Note_on_c, 0, 63, 0
2, 31446, Note_on_c, 0, 56, 64
2, 31472, Note_on_c, 0, 56, 0
2, 31476, Note_on_c, 0, 63, 64
2, 31502, Note_on_c, 0, 63, 0
2, 31506, Note_on_c, 0, 80, 64
2, 31506, Note_on_c, 0, 71, 64
2, 31506, Note_on_c, 0, 56, 64
2, 31532, Note_on_c, 0, 56, 0
2, 31536, Note_on_c, 0, 63, 64
2, 31558, Note_on_c, 0, 71, 0
2, 31558, Note_on_c, 0, 80, 0
2, 31562, Note_on_c, 0, 63, 0
2, 31564, Note_on_c, 0, 71, 64
2, 31564, Note_on_c, 0, 80, 64
2, 31566, Note_on_c, 0, 51, 64
2, 31592, Note_on_c, 0, 51, 0
2, 31596, Note_on_c, 0, 63, 64
2, 31622, Note_on_c, 0, 63, 0
2, 31623, Note_on_c, 0, 80, 0
2, 31623, Note_on_c, 0, 71, 0
2, 31624, Note_on_c, 0, 79, 64
2, 31624, Note_on_c, 0, 70, 64
2, 31626, Note_on_c, 0, 51, 64
2, 31652, Note_on_c, 0, 51, 0
2, 31656, Note_on_c, 0, 63, 64
2, 31682, Note_on_c, 0, 63, 0
2, 31683, Note_on_c, 0, 70, 0
2, 31683, Note_on_c, 0, 79, 0
2, 31686, Note_on_c, 0, 56, 64
2, 31712, Note_on_c, 0, 56, 0
2, 31716, Note_on_c, 0, 67, 64
2, 31716, Note_on_c, 0, 58, 64
2, 31742, Note_on_c, 0, 58, 0
2, 31742, Note_on_c, 0, 67, 0
2, 31746, Note_on_c, 0, 68, 64
2, 31746, Note_on_c, 0, 59, 64
2, 31772, Note_on_c, 0, 59, 0
2, 31772, Note_on_c, 0, 68, 0
2, 31776, Note_on_c, 0, 70, 64
2, 31776, Note_on_c, 0, 61, 64
2, 31802, Note_on_c, 0, 61, 0
2, 31802, Note_on_c, 0, 70, 0
2, 31806, Note_on_c, 0, 71, 64
2, 31806, Note_on_c, 0, 63, 64
2, 31819, Note_on_c, 0, 71, 0
2, 31821, Note_on_c, 0, 70, 64
2, 31832, Note_on_c, 0, 63, 0
2, 31834, Note_on_c, 0, 70, 0
2, 31836, Note_on_c, 0, 68, 64
2, 31836, Note_on_c, 0, 59, 64
2, 31862, Note_on_c, 0, 59, 0
2, 31862, Note_on_c, 0, 68, 0
2, 31866, Note_on_c, 0, 76, 64
2, 31866, Note_on_c, 0, 73, 64
2, 31866, Note_on_c, 0, 58, 64
2, 31892, Note_on_c, 0, 58, 0
2, 31896, Note_on_c, 0, 56, 64
2, 31918, Note_on_c, 0, 73, 0
2, 31918, Note_on_c, 0, 76, 0
2, 31922, Note_on_c, 0, 56, 0
2, 31926, Note_on_c, 0, 76, 64
2, 31926, Note_on_c, 0, 73, 64
2, 31926, Note_on_c, 0, 55, 64
2, 31952, Note_on_c, 0, 55, 0
2, 31956, Note_on_c, 0, 56, 64
2, 31978, Note_on_c, 0, 73, 0
2, 31978, Note_on_c, 0, 76, 0
2, 31982, Note_on_c, 0, 56, 0
2, 31986, Note_on_c, 0, 75, 64
2, 31986, Note_on_c, 0, 67, 64
2, 31986, Note_on_c, 0, 58, 64
2, 32012, Note_on_c, 0, 58, 0
2, 32016, Note_on_c, 0, 52, 64
2, 32038, Note_on_c, 0, 67, 0
2, 32038, Note_on_c, 0, 75, 0
2, 32042, Note_on_c, 0, 52, 0
2, 32046, Note_on_c, 0, 51, 64
2, 32072, Note_on_c, 0, 51, 0
2, 32076, Note_on_c, 0, 49, 64
2, 32102, Note_on_c, 0, 49, 0
2, 32106, Note_on_c, 0, 47, 64
2, 32132, Note_on_c, 0, 47, 0
2, 32136, Note_on_c, 0, 46, 64
2, 32162, Note_on_c, 0, 46, 0
2, 32166, Note_on_c, 0, 44, 64
2, 32192, Note_on_c, 0, 44, 0
2, 32196, Note_on_c, 0, 56, 64
2, 32222, Note_on_c, 0, 56, 0
2, 32226, Note_on_c, 0, 71, 64
2, 32226, Note_on_c, 0, 68, 64
2, 32226, Note_on_c, 0, 44, 64
2, 32252, Note_on_c, 0, 44, 0
2, 32256, Note_on_c, 0, 56, 64
2, 32278, Note_on_c, 0, 68, 0
2, 32278, Note_on_c, 0, 71, 0
2, 32282, Note_on_c, 0, 56, 0
2, 32286, Note_on_c, 0, 73, 64
2, 32286, Note_on_c, 0, 69, 64
2, 32286, Note_on_c, 0, 54, 64
2, 32312, Note_on_c, 0, 54, 0
2, 32316, Note_on_c, 0, 63, 64
2, 32338, Note_on_c, 0, 69, 0
2, 32338, Note_on_c, 0, 73, 0
2, 32342, Note_on_c, 0, 63, 0
2, 32346, Note_on_c, 0, 72, 64
2, 32346, Note_on_c, 0, 68, 64
2, 32346, Note_on_c, 0, 54, 64
2, 32372, Note_on_c, 0, 54, 0
2, 32376, Note_on_c, 0, 63, 64
2, 32398, Note_on_c, 0, 68, 0
2, 32398, Note_on_c, 0, 72, 0
2, 32402, Note_on_c, 0, 63, 0
2, 32406, Note_on_c, 0, 52, 64
2, 32432, Note_on_c, 0, 52, 0
2, 32436, Note_on_c, 0, 61, 64
2, 32462, Note_on_c, 0, 61, 0
2, 32466, Note_on_c, 0, 73, 64
2, 32466, Note_on_c, 0, 68, 64
2, 32466, Note_on_c, 0, 52, 64
2, 32492, Note_on_c, 0, 52, 0
2, 32496, Note_on_c, 0, 61, 64
2, 32518, Note_on_c, 0, 68, 0
2, 32518, Note_on_c, 0, 73, 0
2, 32522, Note_on_c, 0, 61, 0
2, 32526, Note_on_c, 0, 78, 64
2, 32526, Note_on_c, 0, 69, 64
2, 32526, Note_on_c, 0, 51, 64
2, 32552, Note_on_c, 0, 51, 0
2, 32556, Note_on_c, 0, 60, 64
2, 32578, Note_on_c, 0, 69, 0
2, 32578, Note_on_c, 0, 78, 0
2, 32582, Note_on_c, 0, 60, 0
2, 32586, Note_on_c, 0, 75, 64
2, 32586, Note_on_c, 0, 66, 64
2, 32586, Note_on_c, 0, 51, 64
2, 32612, Note_on_c, 0, 51, 0
2, 32616, Note_on_c, 0, 60, 64
2, 32638, Note_on_c, 0, 66, 0
2, 32638, Note_on_c, 0, 75, 0
2, 32642, Note_on_c, 0, 60, 0
2, 32646, Note_on_c, 0, 49, 64
2, 32672, Note_on_c, 0, 49, 0
2, 32676, Note_on_c, 0, 61, 64
2, 32702, Note_on_c, 0, 61, 0
2, 32706, Note_on_c, 0, 76, 64
2, 32706, Note_on_c, 0, 68, 64
2, 32706, Note_on_c, 0, 49, 64
2, 32732, Note_on_c, 0, 49, 0
2, 32736, Note_on_c, 0, 61, 64
2, 32758, Note_on_c, 0, 68, 0
2, 32758, Note_on_c, 0, 76, 0
2, 32762, Note_on_c, 0, 61, 0
2, 32766, Note_on_c, 0, 78, 64
2, 32766, Note_on_c, 0, 74, 64
2, 32766, Note_on_c, 0, 59, 64
2, 32792, Note_on_c, 0, 59, 0
2, 32796, Note_on_c, 0, 68, 64
2, 32818, Note_on_c, 0, 74, 0
2, 32818, Note_on_c, 0, 78, 0
2, 32822, Note_on_c, 0, 68, 0
2, 32826, Note_on_c, 0, 77, 64
2, 32826, Note_on_c, 0, 73, 64
2, 32826, Note_on_c, 0, 59, 64
2, 32852, Note_on_c, 0, 59, 0
2, 32856, Note_on_c, 0, 68, 64
2, 32878, Note_on_c, 0, 73, 0
2, 32878, Note_on_c, 0, 77, 0
2, 32882, Note_on_c, 0, 68, 0
2, 32886, Note_on_c, 0, 58, 64
2, 32912, Note_on_c, 0, 58, 0
2, 32916, Note_on_c, 0, 67, 64
2, 32942, Note_on_c, 0, 67, 0
2, 32946, Note_on_c, 0, 82, 64
2, 32946, Note_on_c, 0, 76, 64
2, 32946, Note_on_c, 0, 73, 64
2, 32946, Note_on_c, 0, 58, 64
2, 32972, Note_on_c, 0, 58, 0
2, 32972, Note_on_c, 0, 76, 0
2, 32976, Note_on_c, 0, 75, 64
2, 32976, Note_on_c, 0, 67, 64
2, 32998, Note_on_c, 0, 73, 0
2, 32998, Note_on_c, 0, 82, 0
2, 33002, Note_on_c, 0, 75, 0
2, 33002, Note_on_c, 0, 67, 0
2, 33006, Note_on_c, 0, 82, 64
2, 33006, Note_on_c, 0, 73, 64
2, 33006, Note_on_c, 0, 76, 64
2, 33006, Note_on_c, 0, 56, 64
2, 33032, Note_on_c, 0, 56, 0
2, 33036, Note_on_c, 0, 68, 64
2, 33058, Note_on_c, 0, 82, 0
2, 33058, Note_on_c, 0, 76, 0
2, 33058, Note_on_c, 0, 73, 0
2, 33062, Note_on_c, 0, 68, 0
2, 33066, Note_on_c, 0, 82, 64
2, 33066, Note_on_c, 0, 73, 64
2, 33066, Note_on_c, 0, 76, 64
2, 33066, Note_on_c, 0, 56, 64
2, 33092, Note_on_c, 0, 56, 0
2, 33096, Note_on_c, 0, 68, 64
2, 33118, Note_on_c, 0, 82, 0
2, 33118, Note_on_c, 0, 76, 0
2, 33118, Note_on_c, 0, 73, 0
2, 33122, Note_on_c, 0, 68, 0
2, 33126, Note_on_c, 0, 82, 64
2, 33126, Note_on_c, 0, 76, 64
2, 33126, Note_on_c, 0, 73, 64
2, 33126, Note_on_c, 0, 67, 64
2, 33152, Note_on_c, 0, 67, 0
2, 33156, Note_on_c, 0, 68, 64
2, 33182, Note_on_c, 0, 68, 0
2, 33186, Note_on_c, 0, 70, 64
2, 33212, Note_on_c, 0, 70, 0
2, 33216, Note_on_c, 0, 64, 64
2, 33231, Note_on_c, 0, 82, 0
2, 33231, Note_on_c, 0, 73, 0
2, 33231, Note_on_c, 0, 76, 0
2, 33242, Note_on_c, 0, 64, 0
2, 33246, Note_on_c, 0, 63, 64
2, 33272, Note_on_c, 0, 63, 0
2, 33276, Note_on_c, 0, 76, 64
2, 33276, Note_on_c, 0, 61, 64
2, 33302, Note_on_c, 0, 61, 0
2, 33302, Note_on_c, 0, 76, 0
2, 33306, Note_on_c, 0, 75, 64
2, 33306, Note_on_c, 0, 59, 64
2, 33332, Note_on_c, 0, 59, 0
2, 33332, Note_on_c, 0, 75, 0
2, 33336, Note_on_c, 0, 73, 64
2, 33336, Note_on_c, 0, 58, 64
2, 33362, Note_on_c, 0, 58, 0
2, 33362, Note_on_c, 0, 73, 0
2, 33366, Note_on_c, 0, 71, 64
2, 33366, Note_on_c, 0, 56, 64
2, 33392, Note_on_c, 0, 71, 0
2, 33396, Note_on_c, 0, 73, 64
2, 33418, Note_on_c, 0, 56, 0
2, 33422, Note_on_c, 0, 73, 0
2, 33426, Note_on_c, 0, 75, 64
2, 33426, Note_on_c, 0, 59, 64
2, 33452, Note_on_c, 0, 75, 0
2, 33456, Note_on_c, 0, 68, 64
2, 33478, Note_on_c, 0, 59, 0
2, 33482, Note_on_c, 0, 68, 0
2, 33486, Note_on_c, 0, 71, 64
2, 33486, Note_on_c, 0, 61, 64
2, 33512, Note_on_c, 0, 71, 0
2, 33516, Note_on_c, 0, 70, 64
2, 33538, Note_on_c, 0, 61, 0
2, 33542, Note_on_c, 0, 70, 0
2, 33546, Note_on_c, 0, 68, 64
2, 33546, Note_on_c, 0, 63, 64
2, 33572, Note_on_c, 0, 68, 0
2, 33576, Note_on_c, 0, 67, 64
2, 33598, Note_on_c, 0, 63, 0
2, 33602, Note_on_c, 0, 67, 0
2, 33606, Note_on_c, 0, 68, 64
2, 33606, Note_on_c, 0, 64, 64
2, 33606, Note_on_c, 0, 64, 64
2, 33606, Note_on_c, 0, 64, 64
2, 33632, Note_on_c, 0, 68, 0
2, 33636, Note_on_c, 0, 71, 64
2, 33658, Note_on_c, 0, 64, 0
2, 33658, Note_on_c, 0, 64, 0
2, 33658, Note_on_c, 0, 64, 0
2, 33662, Note_on_c, 0, 71, 0
2, 33666, Note_on_c, 0, 68, 64
2, 33666, Note_on_c, 0, 52, 64
2, 33692, Note_on_c, 0, 68, 0
2, 33696, Note_on_c, 0, 71, 64
2, 33718, Note_on_c, 0, 52, 0
2, 33722, Note_on_c, 0, 71, 0
2, 33726, Note_on_c, 0, 66, 64
2, 33752, Note_on_c, 0, 66, 0
2, 33756, Note_on_c, 0, 75, 64
2, 33782, Note_on_c, 0, 75, 0
2, 33786, Note_on_c, 0, 66, 64
2, 33786, Note_on_c, 0, 57, 64
2, 33786, Note_on_c, 0, 51, 64
2, 33786, Note_on_c, 0, 48, 64
2, 33812, Note_on_c, 0, 66, 0
2, 33816, Note_on_c, 0, 75, 64
2, 33838, Note_on_c, 0, 57, 0
2, 33838, Note_on_c, 0, 48, 0
2, 33838, Note_on_c, 0, 51, 0
2, 33842, Note_on_c, 0, 75, 0
2, 33846, Note_on_c, 0, 65, 64
2, 33872, Note_on_c, 0, 65, 0
2, 33876, Note_on_c, 0, 73, 64
2, 33902, Note_on_c, 0, 73, 0
2, 33906, Note_on_c, 0, 65, 64
2, 33906, Note_on_c, 0, 56, 64
2, 33906, Note_on_c, 0, 49, 64
2, 33932, Note_on_c, 0, 49, 0
2, 33932, Note_on_c, 0, 65, 0
2, 33936, Note_on_c, 0, 73, 64
2, 33936, Note_on_c, 0, 51, 64
2, 33958, Note_on_c, 0, 56, 0
2, 33962, Note_on_c, 0, 51, 0
2, 33962, Note_on_c, 0, 73, 0
2, 33966, Note_on_c, 0, 61, 64
2, 33966, Note_on_c, 0, 56, 64
2, 33966, Note_on_c, 0, 53, 64
2, 33992, Note_on_c, 0, 61, 0
2, 33996, Note_on_c, 0, 71, 64
2, 34018, Note_on_c, 0, 53, 0
2, 34018, Note_on_c, 0, 56, 0
2, 34022, Note_on_c, 0, 71, 0
2, 34026, Note_on_c, 0, 61, 64
2, 34026, Note_on_c, 0, 56, 64
2, 34026, Note_on_c, 0, 53, 64
2, 34052, Note_on_c, 0, 61, 0
2, 34056, Note_on_c, 0, 71, 64
2, 34078, Note_on_c, 0, 53, 0
2, 34078, Note_on_c, 0, 56, 0
2, 34082, Note_on_c, 0, 71, 0
2, 34086, Note_on_c, 0, 66, 64
2, 34086, Note_on_c, 0, 54, 64
2, 34086, Note_on_c, 0, 52, 64
2, 34112, Note_on_c, 0, 66, 0
2, 34116, Note_on_c, 0, 70, 64
2, 34138, Note_on_c, 0, 52, 0
2, 34142, Note_on_c, 0, 70, 0
2, 34146, Note_on_c, 0, 66, 64
2, 34146, Note_on_c, 0, 42, 64
2, 34172, Note_on_c, 0, 66, 0
2, 34176, Note_on_c, 0, 70, 64
2, 34191, Note_on_c, 0, 54, 0
2, 34198, Note_on_c, 0, 42, 0
2, 34202, Note_on_c, 0, 70, 0
2, 34206, Note_on_c, 0, 64, 64
2, 34232, Note_on_c, 0, 64, 0
2, 34236, Note_on_c, 0, 73, 64
2, 34262, Note_on_c, 0, 73, 0
2, 34266, Note_on_c, 0, 64, 64
2, 34266, Note_on_c, 0, 55, 64
2, 34266, Note_on_c, 0, 46, 64
2, 34266, Note_on_c, 0, 49, 64
2, 34292, Note_on_c, 0, 64, 0
2, 34296, Note_on_c, 0, 73, 64
2, 34318, Note_on_c, 0, 55, 0
2, 34318, Note_on_c, 0, 49, 0
2, 34318, Note_on_c, 0, 46, 0
2, 34322, Note_on_c, 0, 73, 0
2, 34326, Note_on_c, 0, 63, 64
2, 34352, Note_on_c, 0, 63, 0
2, 34356, Note_on_c, 0, 71, 64
2, 34382, Note_on_c, 0, 71, 0
2, 34386, Note_on_c, 0, 63, 64
2, 34386, Note_on_c, 0, 54, 64
2, 34386, Note_on_c, 0, 47, 64
2, 34412, Note_on_c, 0, 47, 0
2, 34412, Note_on_c, 0, 63, 0
2, 34416, Note_on_c, 0, 71, 64
2, 34416, Note_on_c, 0, 49, 64
2, 34438, Note_on_c, 0, 54, 0
2, 34442, Note_on_c, 0, 49, 0
2, 34442, Note_on_c, 0, 71, 0
2, 34446, Note_on_c, 0, 59, 64
2, 34446, Note_on_c, 0, 54, 64
2, 34446, Note_on_c, 0, 51, 64
2, 34472, Note_on_c, 0, 59, 0
2, 34476, Note_on_c, 0, 70, 64
2, 34498, Note_on_c, 0, 51, 0
2, 34498, Note_on_c, 0, 54, 0
2, 34502, Note_on_c, 0, 70, 0
2, 34506, Note_on_c, 0, 59, 64
2, 34506, Note_on_c, 0, 54, 64
2, 34506, Note_on_c, 0, 51, 64
2, 34532, Note_on_c, 0, 59, 0
2, 34536, Note_on_c, 0, 70, 64
2, 34558, Note_on_c, 0, 51, 0
2, 34558, Note_on_c, 0, 54, 0
2, 34562, Note_on_c, 0, 70, 0
2, 34566, Note_on_c, 0, 64, 64
2, 34566, Note_on_c, 0, 52, 64
2, 34566, Note_on_c, 0, 51, 64
2, 34592, Note_on_c, 0, 64, 0
2, 34596, Note_on_c, 0, 68, 64
2, 34618, Note_on_c, 0, 51, 0
2, 34622, Note_on_c, 0, 68, 0
2, 34626, Note_on_c, 0, 64, 64
2, 34626, Note_on_c, 0, 40, 64
2, 34652, Note_on_c, 0, 64, 0
2, 34656, Note_on_c, 0, 68, 64
2, 34671, Note_on_c, 0, 52, 0
2, 34678, Note_on_c, 0, 40, 0
2, 34682, Note_on_c, 0, 68, 0
2, 34686, Note_on_c, 0, 63, 64
2, 34712, Note_on_c, 0, 63, 0
2, 34716, Note_on_c, 0, 71, 64
2, 34742, Note_on_c, 0, 71, 0
2, 34746, Note_on_c, 0, 63, 64
2, 34746, Note_on_c, 0, 54, 64
2, 34746, Note_on_c, 0, 44, 64
2, 34746, Note_on_c, 0, 47, 64
2, 34772, Note_on_c, 0, 63, 0
2, 34776, Note_on_c, 0, 71, 64
2, 34798, Note_on_c, 0, 54, 0
2, 34798, Note_on_c, 0, 47, 0
2, 34798, Note_on_c, 0, 44, 0
2, 34802, Note_on_c, 0, 71, 0
2, 34806, Note_on_c, 0, 62, 64
2, 34832, Note_on_c, 0, 62, 0
2, 34836, Note_on_c, 0, 70, 64
2, 34862, Note_on_c, 0, 70, 0
2, 34866, Note_on_c, 0, 62, 64
2, 34866, Note_on_c, 0, 53, 64
2, 34866, Note_on_c, 0, 46, 64
2, 34892, Note_on_c, 0, 46, 0
2, 34892, Note_on_c, 0, 62, 0
2, 34896, Note_on_c, 0, 70, 64
2, 34896, Note_on_c, 0, 48, 64
2, 34918, Note_on_c, 0, 53, 0
2, 34922, Note_on_c, 0, 48, 0
2, 34922, Note_on_c, 0, 70, 0
2, 34926, Note_on_c, 0, 58, 64
2, 34926, Note_on_c, 0, 53, 64
2, 34926, Note_on_c, 0, 50, 64
2, 34952, Note_on_c, 0, 58, 0
2, 34956, Note_on_c, 0, 68, 64
2, 34978, Note_on_c, 0, 50, 0
2, 34978, Note_on_c, 0, 53, 0
2, 34982, Note_on_c, 0, 68, 0
2, 34986, Note_on_c, 0, 58, 64
2, 34986, Note_on_c, 0, 52, 64
2, 34986, Note_on_c, 0, 49, 64
2, 35012, Note_on_c, 0, 58, 0
2, 35016, Note_on_c, 0, 68, 64
2, 35038, Note_on_c, 0, 52, 0
2, 35042, Note_on_c, 0, 68, 0
2, 35046, Note_on_c, 0, 67, 64
2, 35046, Note_on_c, 0, 51, 64
2, 35072, Note_on_c, 0, 67, 0
2, 35076, Note_on_c, 0, 63, 64
2, 35076, Note_on_c, 0, 63, 64
2, 35098, Note_on_c, 0, 51, 0
2, 35098, Note_on_c, 0, 49, 0
2, 35102, Note_on_c, 0, 63, 0
2, 35106, Note_on_c, 0, 68, 64
2, 35106, Note_on_c, 0, 68, 64
2, 35106, Note_on_c, 0, 47, 64
2, 35132, Note_on_c, 0, 47, 0
2, 35132, Note_on_c, 0, 68, 0
2, 35136, Note_on_c, 0, 70, 64
2, 35136, Note_on_c, 0, 49, 64
2, 35162, Note_on_c, 0, 49, 0
2, 35162, Note_on_c, 0, 70, 0
2, 35166, Note_on_c, 0, 71, 64
2, 35166, Note_on_c, 0, 51, 64
2, 35192, Note_on_c, 0, 63, 0
2, 35196, Note_on_c, 0, 63, 64
2, 35218, Note_on_c, 0, 68, 0
2, 35218, Note_on_c, 0, 51, 0
2, 35218, Note_on_c, 0, 71, 0
2, 35226, Note_on_c, 0, 67, 64
2, 35226, Note_on_c, 0, 70, 64
2, 35226, Note_on_c, 0, 39, 64
2, 35248, Note_on_c, 0, 63, 0
2, 35256, Note_on_c, 0, 61, 64
2, 35278, Note_on_c, 0, 39, 0
2, 35286, Note_on_c, 0, 44, 64
2, 35338, Note_on_c, 0, 67, 0
2, 35338, Note_on_c, 0, 61, 0
2, 35338, Note_on_c, 0, 70, 0
2, 35346, Note_on_c, 0, 63, 64
2, 35346, Note_on_c, 0, 68, 64
2, 35346, Note_on_c, 0, 59, 64
2, 35364, Note_on_c, 0, 44, 0
2, 35376, Note_on_c, 0, 47, 64
2, 35389, Note_on_c, 0, 47, 0
2, 35391, Note_on_c, 0, 51, 64
2, 35398, Note_on_c, 0, 59, 0
2, 35398, Note_on_c, 0, 63, 0
2, 35398, Note_on_c, 0, 68, 0
2, 35404, Note_on_c, 0, 51, 0
2, 35406, Note_on_c, 0, 56, 64
2, 35511, Note_on_c, 0, 56, 0
2, 35526, Note_on_c, 0, 75, 64
2, 35552, Note_on_c, 0, 75, 0
2, 35556, Note_on_c, 0, 77, 64
2, 35582, Note_on_c, 0, 77, 0
2, 35586, Note_on_c, 0, 79, 64
2, 35586, Note_on_c, 0, 51, 64
2, 35612, Note_on_c, 0, 51, 0
2, 35612, Note_on_c, 0, 79, 0
2, 35616, Note_on_c, 0, 80, 64
2, 35616, Note_on_c, 0, 53, 64
2, 35642, Note_on_c, 0, 53, 0
2, 35642, Note_on_c, 0, 80, 0
2, 35646, Note_on_c, 0, 82, 64
2, 35646, Note_on_c, 0, 55, 64
2, 35672, Note_on_c, 0, 82, 0
2, 35676, Note_on_c, 0, 76, 64
2, 35698, Note_on_c, 0, 55, 0
2, 35702, Note_on_c, 0, 76, 0
2, 35706, Note_on_c, 0, 75, 64
2, 35706, Note_on_c, 0, 58, 64
2, 35732, Note_on_c, 0, 75, 0
2, 35736, Note_on_c, 0, 73, 64
2, 35758, Note_on_c, 0, 58, 0
2, 35762, Note_on_c, 0, 73, 0
2, 35766, Note_on_c, 0, 72, 64
2, 35766, Note_on_c, 0, 63, 64
2, 35792, Note_on_c, 0, 72, 0
2, 35796, Note_on_c, 0, 73, 64
2, 35818, Note_on_c, 0, 63, 0
2, 35822, Note_on_c, 0, 73, 0
2, 35826, Note_on_c, 0, 75, 64
2, 35826, Note_on_c, 0, 61, 64
2, 35852, Note_on_c, 0, 75, 0
2, 35856, Note_on_c, 0, 69, 64
2, 35878, Note_on_c, 0, 61, 0
2, 35882, Note_on_c, 0, 69, 0
2, 35886, Note_on_c, 0, 68, 64
2, 35886, Note_on_c, 0, 60, 64
2, 35912, Note_on_c, 0, 68, 0
2, 35916, Note_on_c, 0, 66, 64
2, 35938, Note_on_c, 0, 60, 0
2, 35942, Note_on_c, 0, 66, 0
2, 35946, Note_on_c, 0, 64, 64
2, 35946, Note_on_c, 0, 56, 64
2, 35972, Note_on_c, 0, 64, 0
2, 35976, Note_on_c, 0, 63, 64
2, 35998, Note_on_c, 0, 56, 0
2, 36002, Note_on_c, 0, 63, 0
2, 36006, Note_on_c, 0, 64, 64
2, 36006, Note_on_c, 0, 61, 64
2, 36032, Note_on_c, 0, 64, 0
2, 36036, Note_on_c, 0, 73, 64
2, 36058, Note_on_c, 0, 61, 0
2, 36062, Note_on_c, 0, 73, 0
2, 36066, Note_on_c, 0, 64, 64
2, 36066, Note_on_c, 0, 49, 64
2, 36092, Note_on_c, 0, 64, 0
2, 36096, Note_on_c, 0, 73, 64
2, 36118, Note_on_c, 0, 49, 0
2, 36122, Note_on_c, 0, 73, 0
2, 36126, Note_on_c, 0, 65, 64
2, 36126, Note_on_c, 0, 47, 64
2, 36152, Note_on_c, 0, 65, 0
2, 36156, Note_on_c, 0, 74, 64
2, 36178, Note_on_c, 0, 47, 0
2, 36182, Note_on_c, 0, 74, 0
2, 36186, Note_on_c, 0, 65, 64
2, 36186, Note_on_c, 0, 59, 64
2, 36212, Note_on_c, 0, 65, 0
2, 36216, Note_on_c, 0, 74, 64
2, 36238, Note_on_c, 0, 59, 0
2, 36242, Note_on_c, 0, 74, 0
2, 36246, Note_on_c, 0, 73, 64
2, 36246, Note_on_c, 0, 57, 64
2, 36272, Note_on_c, 0, 73, 0
2, 36276, Note_on_c, 0, 69, 64
2, 36298, Note_on_c, 0, 57, 0
2, 36302, Note_on_c, 0, 69, 0
2, 36306, Note_on_c, 0, 68, 64
2, 36306, Note_on_c, 0, 45, 64
2, 36332, Note_on_c, 0, 68, 0
2, 36336, Note_on_c, 0, 66, 64
2, 36358, Note_on_c, 0, 45, 0
2, 36362, Note_on_c, 0, 66, 0
2, 36366, Note_on_c, 0, 65, 64
2, 36366, Note_on_c, 0, 44, 64
2, 36392, Note_on_c, 0, 65, 0
2, 36396, Note_on_c, 0, 74, 64
2, 36418, Note_on_c, 0, 44, 0
2, 36422, Note_on_c, 0, 74, 0
2, 36426, Note_on_c, 0, 73, 64
2, 36426, Note_on_c, 0, 56, 64
2, 36452, Note_on_c, 0, 73, 0
2, 36456, Note_on_c, 0, 71, 64
2, 36478, Note_on_c, 0, 56, 0
2, 36482, Note_on_c, 0, 71, 0
2, 36486, Note_on_c, 0, 70, 64
2, 36486, Note_on_c, 0, 54, 64
2, 36512, Note_on_c, 0, 70, 0
2, 36516, Note_on_c, 0, 71, 64
2, 36538, Note_on_c, 0, 54, 0
2, 36542, Note_on_c, 0, 71, 0
2, 36546, Note_on_c, 0, 73, 64
2, 36546, Note_on_c, 0, 42, 64
2, 36572, Note_on_c, 0, 73, 0
2, 36576, Note_on_c, 0, 75, 64
2, 36598, Note_on_c, 0, 42, 0
2, 36602, Note_on_c, 0, 75, 0
2, 36606, Note_on_c, 0, 76, 64
2, 36606, Note_on_c, 0, 49, 64
2, 36632, Note_on_c, 0, 76, 0
2, 36636, Note_on_c, 0, 71, 64
2, 36658, Note_on_c, 0, 49, 0
2, 36662, Note_on_c, 0, 71, 0
2, 36666, Note_on_c, 0, 69, 64
2, 36666, Note_on_c, 0, 52, 64
2, 36692, Note_on_c, 0, 69, 0
2, 36696, Note_on_c, 0, 68, 64
2, 36718, Note_on_c, 0, 52, 0
2, 36722, Note_on_c, 0, 68, 0
2, 36726, Note_on_c, 0, 67, 64
2, 36726, Note_on_c, 0, 46, 64
2, 36752, Note_on_c, 0, 67, 0
2, 36756, Note_on_c, 0, 68, 64
2, 36778, Note_on_c, 0, 46, 0
2, 36782, Note_on_c, 0, 68, 0
2, 36786, Note_on_c, 0, 70, 64
2, 36786, Note_on_c, 0, 49, 64
2, 36812, Note_on_c, 0, 70, 0
2, 36816, Note_on_c, 0, 64, 64
2, 36838, Note_on_c, 0, 49, 0
2, 36842, Note_on_c, 0, 64, 0
2, 36846, Note_on_c, 0, 63, 64
2, 36846, Note_on_c, 0, 43, 64
2, 36872, Note_on_c, 0, 63, 0
2, 36876, Note_on_c, 0, 61, 64
2, 36898, Note_on_c, 0, 43, 0
2, 36902, Note_on_c, 0, 61, 0
2, 36906, Note_on_c, 0, 59, 64
2, 36906, Note_on_c, 0, 51, 64
2, 36932, Note_on_c, 0, 59, 0
2, 36936, Note_on_c, 0, 58, 64
2, 36958, Note_on_c, 0, 51, 0
2, 36962, Note_on_c, 0, 58, 0
2, 36966, Note_on_c, 0, 59, 64
2, 36966, Note_on_c, 0, 56, 64
2, 36992, Note_on_c, 0, 59, 0
2, 36996, Note_on_c, 0, 68, 64
2, 37018, Note_on_c, 0, 56, 0
2, 37022, Note_on_c, 0, 68, 0
2, 37026, Note_on_c, 0, 59, 64
2, 37026, Note_on_c, 0, 44, 64
2, 37052, Note_on_c, 0, 59, 0
2, 37056, Note_on_c, 0, 68, 64
2, 37078, Note_on_c, 0, 44, 0
2, 37082, Note_on_c, 0, 68, 0
2, 37086, Note_on_c, 0, 60, 64
2, 37086, Note_on_c, 0, 42, 64
2, 37112, Note_on_c, 0, 60, 0
2, 37116, Note_on_c, 0, 69, 64
2, 37138, Note_on_c, 0, 42, 0
2, 37142, Note_on_c, 0, 69, 0
2, 37146, Note_on_c, 0, 60, 64
2, 37146, Note_on_c, 0, 54, 64
2, 37172, Note_on_c, 0, 60, 0
2, 37176, Note_on_c, 0, 69, 64
2, 37198, Note_on_c, 0, 54, 0
2, 37202, Note_on_c, 0, 69, 0
2, 37206, Note_on_c, 0, 68, 64
2, 37206, Note_on_c, 0, 52, 64
2, 37232, Note_on_c, 0, 68, 0
2, 37236, Note_on_c, 0, 64, 64
2, 37258, Note_on_c, 0, 52, 0
2, 37262, Note_on_c, 0, 64, 0
2, 37266, Note_on_c, 0, 63, 64
2, 37266, Note_on_c, 0, 40, 64
2, 37292, Note_on_c, 0, 63, 0
2, 37296, Note_on_c, 0, 61, 64
2, 37318, Note_on_c, 0, 40, 0
2, 37322, Note_on_c, 0, 61, 0
2, 37326, Note_on_c, 0, 60, 64
2, 37326, Note_on_c, 0, 39, 64
2, 37352, Note_on_c, 0, 60, 0
2, 37356, Note_on_c, 0, 69, 64
2, 37378, Note_on_c, 0, 39, 0
2, 37382, Note_on_c, 0, 69, 0
2, 37386, Note_on_c, 0, 68, 64
2, 37386, Note_on_c, 0, 51, 64
2, 37412, Note_on_c, 0, 68, 0
2, 37416, Note_on_c, 0, 66, 64
2, 37438, Note_on_c, 0, 51, 0
2, 37442, Note_on_c, 0, 66, 0
2, 37446, Note_on_c, 0, 65, 64
2, 37446, Note_on_c, 0, 49, 64
2, 37472, Note_on_c, 0, 65, 0
2, 37476, Note_on_c, 0, 66, 64
2, 37498, Note_on_c, 0, 49, 0
2, 37502, Note_on_c, 0, 66, 0
2, 37506, Note_on_c, 0, 68, 64
2, 37506, Note_on_c, 0, 37, 64
2, 37532, Note_on_c, 0, 68, 0
2, 37536, Note_on_c, 0, 70, 64
2, 37558, Note_on_c, 0, 37, 0
2, 37562, Note_on_c, 0, 70, 0
2, 37566, Note_on_c, 0, 71, 64
2, 37592, Note_on_c, 0, 71, 0
2, 37596, Note_on_c, 0, 74, 64
2, 37596, Note_on_c, 0, 61, 64
2, 37622, Note_on_c, 0, 61, 0
2, 37622, Note_on_c, 0, 74, 0
2, 37626, Note_on_c, 0, 73, 64
2, 37626, Note_on_c, 0, 63, 64
2, 37652, Note_on_c, 0, 63, 0
2, 37652, Note_on_c, 0, 73, 0
2, 37656, Note_on_c, 0, 71, 64
2, 37656, Note_on_c, 0, 65, 64
2, 37682, Note_on_c, 0, 65, 0
2, 37682, Note_on_c, 0, 71, 0
2, 37686, Note_on_c, 0, 70, 64
2, 37686, Note_on_c, 0, 66, 64
2, 37712, Note_on_c, 0, 70, 0
2, 37716, Note_on_c, 0, 71, 64
2, 37738, Note_on_c, 0, 66, 0
2, 37742, Note_on_c, 0, 71, 0
2, 37746, Note_on_c, 0, 73, 64
2, 37746, Note_on_c, 0, 54, 64
2, 37772, Note_on_c, 0, 73, 0
2, 37776, Note_on_c, 0, 67, 64
2, 37798, Note_on_c, 0, 54, 0
2, 37802, Note_on_c, 0, 67, 0
2, 37806, Note_on_c, 0, 66, 64
2, 37832, Note_on_c, 0, 66, 0
2, 37836, Note_on_c, 0, 64, 64
2, 37836, Note_on_c, 0, 54, 64
2, 37862, Note_on_c, 0, 54, 0
2, 37862, Note_on_c, 0, 64, 0
2, 37866, Note_on_c, 0, 63, 64
2, 37866, Note_on_c, 0, 56, 64
2, 37892, Note_on_c, 0, 56, 0
2, 37892, Note_on_c, 0, 63, 0
2, 37896, Note_on_c, 0, 61, 64
2, 37896, Note_on_c, 0, 58, 64
2, 37922, Note_on_c, 0, 58, 0
2, 37922, Note_on_c, 0, 61, 0
2, 37926, Note_on_c, 0, 63, 64
2, 37926, Note_on_c, 0, 59, 64
2, 37952, Note_on_c, 0, 63, 0
2, 37956, Note_on_c, 0, 64, 64
2, 37978, Note_on_c, 0, 59, 0
2, 37982, Note_on_c, 0, 64, 0
2, 37986, Note_on_c, 0, 66, 64
2, 37986, Note_on_c, 0, 47, 64
2, 38012, Note_on_c, 0, 66, 0
2, 38016, Note_on_c, 0, 68, 64
2, 38038, Note_on_c, 0, 47, 0
2, 38042, Note_on_c, 0, 68, 0
2, 38046, Note_on_c, 0, 69, 64
2, 38072, Note_on_c, 0, 69, 0
2, 38076, Note_on_c, 0, 73, 64
2, 38076, Note_on_c, 0, 47, 64
2, 38102, Note_on_c, 0, 47, 0
2, 38102, Note_on_c, 0, 73, 0
2, 38106, Note_on_c, 0, 71, 64
2, 38106, Note_on_c, 0, 49, 64
2, 38132, Note_on_c, 0, 49, 0
2, 38132, Note_on_c, 0, 71, 0
2, 38136, Note_on_c, 0, 69, 64
2, 38136, Note_on_c, 0, 51, 64
2, 38162, Note_on_c, 0, 51, 0
2, 38162, Note_on_c, 0, 69, 0
2, 38166, Note_on_c, 0, 68, 64
2, 38166, Note_on_c, 0, 52, 64
2, 38192, Note_on_c, 0, 68, 0
2, 38196, Note_on_c, 0, 69, 64
2, 38218, Note_on_c, 0, 52, 0
2, 38222, Note_on_c, 0, 69, 0
2, 38226, Note_on_c, 0, 71, 64
2, 38226, Note_on_c, 0, 40, 64
2, 38252, Note_on_c, 0, 71, 0
2, 38256, Note_on_c, 0, 66, 64
2, 38278, Note_on_c, 0, 40, 0
2, 38282, Note_on_c, 0, 66, 0
2, 38286, Note_on_c, 0, 64, 64
2, 38312, Note_on_c, 0, 64, 0
2, 38316, Note_on_c, 0, 62, 64
2, 38316, Note_on_c, 0, 40, 64
2, 38342, Note_on_c, 0, 40, 0
2, 38342, Note_on_c, 0, 62, 0
2, 38346, Note_on_c, 0, 61, 64
2, 38346, Note_on_c, 0, 42, 64
2, 38372, Note_on_c, 0, 42, 0
2, 38372, Note_on_c, 0, 61, 0
2, 38376, Note_on_c, 0, 59, 64
2, 38376, Note_on_c, 0, 44, 64
2, 38402, Note_on_c, 0, 44, 0
2, 38402, Note_on_c, 0, 59, 0
2, 38406, Note_on_c, 0, 61, 64
2, 38406, Note_on_c, 0, 45, 64
2, 38432, Note_on_c, 0, 45, 0
2, 38436, Note_on_c, 0, 52, 64
2, 38458, Note_on_c, 0, 61, 0
2, 38462, Note_on_c, 0, 52, 0
2, 38466, Note_on_c, 0, 69, 64
2, 38466, Note_on_c, 0, 61, 64
2, 38466, Note_on_c, 0, 45, 64
2, 38492, Note_on_c, 0, 45, 0
2, 38496, Note_on_c, 0, 52, 64
2, 38518, Note_on_c, 0, 61, 0
2, 38518, Note_on_c, 0, 69, 0
2, 38520, Note_on_c, 0, 61, 64
2, 38522, Note_on_c, 0, 52, 0
2, 38524, Note_on_c, 0, 69, 64
2, 38526, Note_on_c, 0, 44, 64
2, 38552, Note_on_c, 0, 44, 0
2, 38556, Note_on_c, 0, 52, 64
2, 38582, Note_on_c, 0, 52, 0
2, 38584, Note_on_c, 0, 71, 64
2, 38584, Note_on_c, 0, 62, 64
2, 38586, Note_on_c, 0, 44, 64
2, 38591, Note_on_c, 0, 69, 0
2, 38591, Note_on_c, 0, 61, 0
2, 38612, Note_on_c, 0, 44, 0
2, 38616, Note_on_c, 0, 52, 64
2, 38639, Note_on_c, 0, 62, 0
2, 38642, Note_on_c, 0, 52, 0
2, 38643, Note_on_c, 0, 71, 0
2, 38646, Note_on_c, 0, 45, 64
2, 38672, Note_on_c, 0, 45, 0
2, 38676, Note_on_c, 0, 52, 64
2, 38702, Note_on_c, 0, 52, 0
2, 38706, Note_on_c, 0, 69, 64
2, 38706, Note_on_c, 0, 61, 64
2, 38706, Note_on_c, 0, 45, 64
2, 38732, Note_on_c, 0, 45, 0
2, 38736, Note_on_c, 0, 52, 64
2, 38758, Note_on_c, 0, 61, 0
2, 38758, Note_on_c, 0, 69, 0
2, 38762, Note_on_c, 0, 52, 0
2, 38764, Note_on_c, 0, 61, 64
2, 38764, Note_on_c, 0, 69, 64
2, 38766, Note_on_c, 0, 41, 64
2, 38792, Note_on_c, 0, 41, 0
2, 38796, Note_on_c, 0, 50, 64
2, 38820, Note_on_c, 0, 68, 64
2, 38822, Note_on_c, 0, 50, 0
2, 38823, Note_on_c, 0, 61, 0
2, 38823, Note_on_c, 0, 69, 0
2, 38824, Note_on_c, 0, 59, 64
2, 38826, Note_on_c, 0, 41, 64
2, 38852, Note_on_c, 0, 41, 0
2, 38856, Note_on_c, 0, 50, 64
2, 38882, Note_on_c, 0, 50, 0
2, 38883, Note_on_c, 0, 59, 0
2, 38883, Note_on_c, 0, 68, 0
2, 38886, Note_on_c, 0, 42, 64
2, 38912, Note_on_c, 0, 42, 0
2, 38916, Note_on_c, 0, 49, 64
2, 38942, Note_on_c, 0, 49, 0
2, 38946, Note_on_c, 0, 66, 64
2, 38946, Note_on_c, 0, 57, 64
2, 38946, Note_on_c, 0, 42, 64
2, 38972, Note_on_c, 0, 42, 0
2, 38972, Note_on_c, 0, 57, 0
2, 38972, Note_on_c, 0, 66, 0
2, 38976, Note_on_c, 0, 68, 64
2, 38976, Note_on_c, 0, 59, 64
2, 38976, Note_on_c, 0, 49, 64
2, 39002, Note_on_c, 0, 49, 0
2, 39002, Note_on_c, 0, 59, 0
2, 39002, Note_on_c, 0, 68, 0
2, 39006, Note_on_c, 0, 69, 64
2, 39006, Note_on_c, 0, 61, 64
2, 39006, Note_on_c, 0, 40, 64
2, 39032, Note_on_c, 0, 40, 0
2, 39036, Note_on_c, 0, 49, 64
2, 39058, Note_on_c, 0, 61, 0
2, 39058, Note_on_c, 0, 69, 0
2, 39062, Note_on_c, 0, 49, 0
2, 39066, Note_on_c, 0, 73, 64
2, 39066, Note_on_c, 0, 68, 64
2, 39066, Note_on_c, 0, 40, 64
2, 39092, Note_on_c, 0, 40, 0
2, 39096, Note_on_c, 0, 49, 64
2, 39118, Note_on_c, 0, 68, 0
2, 39118, Note_on_c, 0, 73, 0
2, 39122, Note_on_c, 0, 49, 0
2, 39126, Note_on_c, 0, 39, 64
2, 39152, Note_on_c, 0, 39, 0
2, 39156, Note_on_c, 0, 43, 64
2, 39182, Note_on_c, 0, 43, 0
2, 39186, Note_on_c, 0, 76, 64
2, 39186, Note_on_c, 0, 67, 64
2, 39186, Note_on_c, 0, 46, 64
2, 39212, Note_on_c, 0, 46, 0
2, 39216, Note_on_c, 0, 49, 64
2, 39238, Note_on_c, 0, 67, 0
2, 39238, Note_on_c, 0, 76, 0
2, 39242, Note_on_c, 0, 49, 0
2, 39246, Note_on_c, 0, 75, 64
2, 39246, Note_on_c, 0, 68, 64
2, 39246, Note_on_c, 0, 47, 64
2, 39272, Note_on_c, 0, 47, 0
2, 39276, Note_on_c, 0, 46, 64
2, 39298, Note_on_c, 0, 68, 0
2, 39298, Note_on_c, 0, 75, 0
2, 39302, Note_on_c, 0, 46, 0
2, 39306, Note_on_c, 0, 73, 64
2, 39306, Note_on_c, 0, 70, 64
2, 39306, Note_on_c, 0, 44, 64
2, 39332, Note_on_c, 0, 44, 0
2, 39336, Note_on_c, 0, 43, 64
2, 39358, Note_on_c, 0, 70, 0
2, 39358, Note_on_c, 0, 73, 0
2, 39362, Note_on_c, 0, 43, 0
2, 39366, Note_on_c, 0, 44, 64
2, 39392, Note_on_c, 0, 44, 0
2, 39396, Note_on_c, 0, 51, 64
2, 39422, Note_on_c, 0, 51, 0
2, 39426, Note_on_c, 0, 71, 64
2, 39426, Note_on_c, 0, 68, 64
2, 39426, Note_on_c, 0, 44, 64
2, 39452, Note_on_c, 0, 44, 0
2, 39452, Note_on_c, 0, 68, 0
2, 39452, Note_on_c, 0, 71, 0
2, 39456, Note_on_c, 0, 70, 64
2, 39456, Note_on_c, 0, 67, 64
2, 39456, Note_on_c, 0, 51, 64
2, 39482, Note_on_c, 0, 51, 0
2, 39482, Note_on_c, 0, 67, 0
2, 39482, Note_on_c, 0, 70, 0
2, 39486, Note_on_c, 0, 71, 64
2, 39486, Note_on_c, 0, 68, 64
2, 39486, Note_on_c, 0, 42, 64
2, 39512, Note_on_c, 0, 42, 0
2, 39516, Note_on_c, 0, 51, 64
2, 39538, Note_on_c, 0, 68, 0
2, 39538, Note_on_c, 0, 71, 0
2, 39542, Note_on_c, 0, 51, 0
2, 39546, Note_on_c, 0, 75, 64
2, 39546, Note_on_c, 0, 70, 64
2, 39546, Note_on_c, 0, 42, 64
2, 39572, Note_on_c, 0, 42, 0
2, 39576, Note_on_c, 0, 51, 64
2, 39598, Note_on_c, 0, 70, 0
2, 39598, Note_on_c, 0, 75, 0
2, 39602, Note_on_c, 0, 51, 0
2, 39606, Note_on_c, 0, 41, 64
2, 39632, Note_on_c, 0, 41, 0
2, 39636, Note_on_c, 0, 45, 64
2, 39662, Note_on_c, 0, 45, 0
2, 39666, Note_on_c, 0, 78, 64
2, 39666, Note_on_c, 0, 69, 64
2, 39666, Note_on_c, 0, 48, 64
2, 39692, Note_on_c, 0, 48, 0
2, 39696, Note_on_c, 0, 51, 64
2, 39718, Note_on_c, 0, 69, 0
2, 39718, Note_on_c, 0, 78, 0
2, 39722, Note_on_c, 0, 51, 0
2, 39726, Note_on_c, 0, 77, 64
2, 39726, Note_on_c, 0, 70, 64
2, 39726, Note_on_c, 0, 49, 64
2, 39752, Note_on_c, 0, 49, 0
2, 39756, Note_on_c, 0, 48, 64
2, 39778, Note_on_c, 0, 70, 0
2, 39778, Note_on_c, 0, 77, 0
2, 39782, Note_on_c, 0, 48, 0
2, 39786, Note_on_c, 0, 75, 64
2, 39786, Note_on_c, 0, 72, 64
2, 39786, Note_on_c, 0, 46, 64
2, 39812, Note_on_c, 0, 46, 0
2, 39816, Note_on_c, 0, 45, 64
2, 39838, Note_on_c, 0, 72, 0
2, 39838, Note_on_c, 0, 75, 0
2, 39842, Note_on_c, 0, 45, 0
2, 39846, Note_on_c, 0, 65, 64
2, 39846, Note_on_c, 0, 74, 64
2, 39846, Note_on_c, 0, 46, 64
2, 39872, Note_on_c, 0, 74, 0
2, 39872, Note_on_c, 0, 65, 0
2, 39876, Note_on_c, 0, 71, 64
2, 39898, Note_on_c, 0, 46, 0
2, 39902, Note_on_c, 0, 71, 0
2, 39906, Note_on_c, 0, 70, 64
2, 39906, Note_on_c, 0, 48, 64
2, 39932, Note_on_c, 0, 70, 0
2, 39936, Note_on_c, 0, 68, 64
2, 39958, Note_on_c, 0, 48, 0
2, 39962, Note_on_c, 0, 68, 0
2, 39966, Note_on_c, 0, 77, 64
2, 39966, Note_on_c, 0, 50, 64
2, 39992, Note_on_c, 0, 77, 0
2, 39996, Note_on_c, 0, 68, 64
2, 40018, Note_on_c, 0, 50, 0
2, 40022, Note_on_c, 0, 68, 0
2, 40026, Note_on_c, 0, 77, 64
2, 40026, Note_on_c, 0, 46, 64
2, 40052, Note_on_c, 0, 77, 0
2, 40056, Note_on_c, 0, 68, 64
2, 40078, Note_on_c, 0, 46, 0
2, 40082, Note_on_c, 0, 68, 0
2, 40086, Note_on_c, 0, 67, 64
2, 40086, Note_on_c, 0, 51, 64
2, 40112, Note_on_c, 0, 67, 0
2, 40116, Note_on_c, 0, 76, 64
2, 40138, Note_on_c, 0, 51, 0
2, 40142, Note_on_c, 0, 76, 0
2, 40146, Note_on_c, 0, 75, 64
2, 40146, Note_on_c, 0, 53, 64
2, 40172, Note_on_c, 0, 75, 0
2, 40176, Note_on_c, 0, 73, 64
2, 40198, Note_on_c, 0, 53, 0
2, 40202, Note_on_c, 0, 73, 0
2, 40206, Note_on_c, 0, 82, 64
2, 40206, Note_on_c, 0, 55, 64
2, 40232, Note_on_c, 0, 82, 0
2, 40236, Note_on_c, 0, 73, 64
2, 40258, Note_on_c, 0, 55, 0
2, 40262, Note_on_c, 0, 73, 0
2, 40266, Note_on_c, 0, 82, 64
2, 40266, Note_on_c, 0, 51, 64
2, 40292, Note_on_c, 0, 82, 0
2, 40296, Note_on_c, 0, 73, 64
2, 40318, Note_on_c, 0, 51, 0
2, 40322, Note_on_c, 0, 73, 0
2, 40326, Note_on_c, 0, 72, 64
2, 40326, Note_on_c, 0, 56, 64
2, 40352, Note_on_c, 0, 72, 0
2, 40356, Note_on_c, 0, 69, 64
2, 40378, Note_on_c, 0, 56, 0
2, 40382, Note_on_c, 0, 69, 0
2, 40386, Note_on_c, 0, 68, 64
2, 40386, Note_on_c, 0, 58, 64
2, 40412, Note_on_c, 0, 68, 0
2, 40416, Note_on_c, 0, 66, 64
2, 40438, Note_on_c, 0, 58, 0
2, 40442, Note_on_c, 0, 66, 0
2, 40446, Note_on_c, 0, 75, 64
2, 40446, Note_on_c, 0, 60, 64
2, 40472, Note_on_c, 0, 75, 0
2, 40476, Note_on_c, 0, 66, 64
2, 40498, Note_on_c, 0, 60, 0
2, 40502, Note_on_c, 0, 66, 0
2, 40506, Note_on_c, 0, 75, 64
2, 40506, Note_on_c, 0, 56, 64
2, 40532, Note_on_c, 0, 75, 0
2, 40536, Note_on_c, 0, 66, 64
2, 40558, Note_on_c, 0, 56, 0
2, 40562, Note_on_c, 0, 66, 0
2, 40566, Note_on_c, 0, 65, 64
2, 40566, Note_on_c, 0, 61, 64
2, 40592, Note_on_c, 0, 65, 0
2, 40596, Note_on_c, 0, 74, 64
2, 40618, Note_on_c, 0, 61, 0
2, 40622, Note_on_c, 0, 74, 0
2, 40626, Note_on_c, 0, 73, 64
2, 40626, Note_on_c, 0, 63, 64
2, 40652, Note_on_c, 0, 73, 0
2, 40656, Note_on_c, 0, 71, 64
2, 40678, Note_on_c, 0, 63, 0
2, 40682, Note_on_c, 0, 71, 0
2, 40686, Note_on_c, 0, 80, 64
2, 40686, Note_on_c, 0, 65, 64
2, 40712, Note_on_c, 0, 80, 0
2, 40716, Note_on_c, 0, 71, 64
2, 40738, Note_on_c, 0, 65, 0
2, 40742, Note_on_c, 0, 71, 0
2, 40746, Note_on_c, 0, 80, 64
2, 40746, Note_on_c, 0, 61, 64
2, 40772, Note_on_c, 0, 80, 0
2, 40776, Note_on_c, 0, 71, 64
2, 40798, Note_on_c, 0, 61, 0
2, 40802, Note_on_c, 0, 71, 0
2, 40806, Note_on_c, 0, 70, 64
2, 40806, Note_on_c, 0, 66, 64
2, 40832, Note_on_c, 0, 70, 0
2, 40836, Note_on_c, 0, 73, 64
2, 40862, Note_on_c, 0, 73, 0
2, 40866, Note_on_c, 0, 75, 64
2, 40892, Note_on_c, 0, 75, 0
2, 40896, Note_on_c, 0, 77, 64
2, 40911, Note_on_c, 0, 66, 0
2, 40922, Note_on_c, 0, 77, 0
2, 40926, Note_on_c, 0, 78, 64
2, 40956, Note_on_c, 0, 65, 64
2, 40978, Note_on_c, 0, 78, 0
2, 40982, Note_on_c, 0, 65, 0
2, 40986, Note_on_c, 0, 70, 64
2, 40986, Note_on_c, 0, 63, 64
2, 41012, Note_on_c, 0, 63, 0
2, 41016, Note_on_c, 0, 61, 64
2, 41038, Note_on_c, 0, 70, 0
2, 41042, Note_on_c, 0, 61, 0
2, 41046, Note_on_c, 0, 69, 64
2, 41046, Note_on_c, 0, 60, 64
2, 41072, Note_on_c, 0, 60, 0
2, 41076, Note_on_c, 0, 58, 64
2, 41098, Note_on_c, 0, 69, 0
2, 41102, Note_on_c, 0, 58, 0
2, 41106, Note_on_c, 0, 78, 64
2, 41106, Note_on_c, 0, 60, 64
2, 41132, Note_on_c, 0, 60, 0
2, 41136, Note_on_c, 0, 63, 64
2, 41158, Note_on_c, 0, 78, 0
2, 41162, Note_on_c, 0, 63, 0
2, 41166, Note_on_c, 0, 77, 64
2, 41166, Note_on_c, 0, 62, 64
2, 41192, Note_on_c, 0, 62, 0
2, 41196, Note_on_c, 0, 60, 64
2, 41218, Note_on_c, 0, 77, 0
2, 41222, Note_on_c, 0, 60, 0
2, 41226, Note_on_c, 0, 68, 64
2, 41226, Note_on_c, 0, 62, 64
2, 41252, Note_on_c, 0, 62, 0
2, 41256, Note_on_c, 0, 65, 64
2, 41278, Note_on_c, 0, 68, 0
2, 41282, Note_on_c, 0, 65, 0
2, 41286, Note_on_c, 0, 67, 64
2, 41286, Note_on_c, 0, 65, 64
2, 41312, Note_on_c, 0, 67, 0
2, 41316, Note_on_c, 0, 70, 64
2, 41338, Note_on_c, 0, 65, 0
2, 41342, Note_on_c, 0, 70, 0
2, 41346, Note_on_c, 0, 72, 64
2, 41346, Note_on_c, 0, 63, 64
2, 41372, Note_on_c, 0, 72, 0
2, 41376, Note_on_c, 0, 74, 64
2, 41398, Note_on_c, 0, 63, 0
2, 41402, Note_on_c, 0, 74, 0
2, 41406, Note_on_c, 0, 75, 64
2, 41436, Note_on_c, 0, 61, 64
2, 41458, Note_on_c, 0, 75, 0
2, 41462, Note_on_c, 0, 61, 0
2, 41466, Note_on_c, 0, 66, 64
2, 41466, Note_on_c, 0, 59, 64
2, 41492, Note_on_c, 0, 59, 0
2, 41496, Note_on_c, 0, 58, 64
2, 41518, Note_on_c, 0, 66, 0
2, 41522, Note_on_c, 0, 58, 0
2, 41526, Note_on_c, 0, 65, 64
2, 41526, Note_on_c, 0, 56, 64
2, 41552, Note_on_c, 0, 56, 0
2, 41556, Note_on_c, 0, 55, 64
2, 41578, Note_on_c, 0, 65, 0
2, 41582, Note_on_c, 0, 55, 0
2, 41586, Note_on_c, 0, 74, 64
2, 41586, Note_on_c, 0, 56, 64
2, 41612, Note_on_c, 0, 56, 0
2, 41616, Note_on_c, 0, 59, 64
2, 41638, Note_on_c, 0, 74, 0
2, 41642, Note_on_c, 0, 59, 0
2, 41646, Note_on_c, 0, 73, 64
2, 41646, Note_on_c, 0, 58, 64
2, 41672, Note_on_c, 0, 58, 0
2, 41676, Note_on_c, 0, 56, 64
2, 41698, Note_on_c, 0, 73, 0
2, 41702, Note_on_c, 0, 56, 0
2, 41706, Note_on_c, 0, 64, 64
2, 41706, Note_on_c, 0, 58, 64
2, 41732, Note_on_c, 0, 58, 0
2, 41736, Note_on_c, 0, 61, 64
2, 41758, Note_on_c, 0, 64, 0
2, 41762, Note_on_c, 0, 61, 0
2, 41766, Note_on_c, 0, 63, 64
2, 41766, Note_on_c, 0, 61, 64
2, 41792, Note_on_c, 0, 63, 0
2, 41796, Note_on_c, 0, 67, 64
2, 41818, Note_on_c, 0, 61, 0
2, 41822, Note_on_c, 0, 67, 0
2, 41826, Note_on_c, 0, 68, 64
2, 41826, Note_on_c, 0, 59, 64
2, 41852, Note_on_c, 0, 68, 0
2, 41856, Note_on_c, 0, 70, 64
2, 41878, Note_on_c, 0, 59, 0
2, 41882, Note_on_c, 0, 70, 0
2, 41886, Note_on_c, 0, 71, 64
2, 41916, Note_on_c, 0, 58, 64
2, 41938, Note_on_c, 0, 71, 0
2, 41942, Note_on_c, 0, 58, 0
2, 41946, Note_on_c, 0, 63, 64
2, 41946, Note_on_c, 0, 56, 64
2, 41972, Note_on_c, 0, 56, 0
2, 41976, Note_on_c, 0, 54, 64
2, 41998, Note_on_c, 0, 63, 0
2, 42002, Note_on_c, 0, 54, 0
2, 42006, Note_on_c, 0, 62, 64
2, 42006, Note_on_c, 0, 53, 64
2, 42032, Note_on_c, 0, 53, 0
2, 42036, Note_on_c, 0, 51, 64
2, 42058, Note_on_c, 0, 62, 0
2, 42062, Note_on_c, 0, 51, 0
2, 42066, Note_on_c, 0, 71, 64
2, 42066, Note_on_c, 0, 53, 64
2, 42092, Note_on_c, 0, 53, 0
2, 42096, Note_on_c, 0, 56, 64
2, 42118, Note_on_c, 0, 71, 0
2, 42122, Note_on_c, 0, 56, 0
2, 42126, Note_on_c, 0, 70, 64
2, 42126, Note_on_c, 0, 55, 64
2, 42152, Note_on_c, 0, 55, 0
2, 42156, Note_on_c, 0, 53, 64
2, 42178, Note_on_c, 0, 70, 0
2, 42182, Note_on_c, 0, 53, 0
2, 42186, Note_on_c, 0, 61, 64
2, 42186, Note_on_c, 0, 55, 64
2, 42212, Note_on_c, 0, 55, 0
2, 42216, Note_on_c, 0, 58, 64
2, 42238, Note_on_c, 0, 61, 0
2, 42242, Note_on_c, 0, 58, 0
2, 42246, Note_on_c, 0, 60, 64
2, 42246, Note_on_c, 0, 51, 64
2, 42272, Note_on_c, 0, 51, 0
2, 42276, Note_on_c, 0, 50, 64
2, 42298, Note_on_c, 0, 60, 0
2, 42302, Note_on_c, 0, 50, 0
2, 42306, Note_on_c, 0, 69, 64
2, 42306, Note_on_c, 0, 51, 64
2, 42332, Note_on_c, 0, 51, 0
2, 42336, Note_on_c, 0, 54, 64
2, 42358, Note_on_c, 0, 69, 0
2, 42362, Note_on_c, 0, 54, 0
2, 42366, Note_on_c, 0, 68, 64
2, 42366, Note_on_c, 0, 52, 64
2, 42392, Note_on_c, 0, 52, 0
2, 42396, Note_on_c, 0, 51, 64
2, 42418, Note_on_c, 0, 68, 0
2, 42422, Note_on_c, 0, 51, 0
2, 42426, Note_on_c, 0, 59, 64
2, 42426, Note_on_c, 0, 52, 64
2, 42452, Note_on_c, 0, 52, 0
2, 42456, Note_on_c, 0, 56, 64
2, 42478, Note_on_c, 0, 59, 0
2, 42482, Note_on_c, 0, 56, 0
2, 42486, Note_on_c, 0, 58, 64
2, 42486, Note_on_c, 0, 50, 64
2, 42512, Note_on_c, 0, 50, 0
2, 42516, Note_on_c, 0, 48, 64
2, 42538, Note_on_c, 0, 58, 0
2, 42542, Note_on_c, 0, 48, 0
2, 42546, Note_on_c, 0, 68, 64
2, 42546, Note_on_c, 0, 50, 64
2, 42572, Note_on_c, 0, 50, 0
2, 42576, Note_on_c, 0, 53, 64
2, 42598, Note_on_c, 0, 68, 0
2, 42602, Note_on_c, 0, 53, 0
2, 42606, Note_on_c, 0, 67, 64
2, 42606, Note_on_c, 0, 51, 64
2, 42632, Note_on_c, 0, 51, 0
2, 42636, Note_on_c, 0, 50, 64
2, 42658, Note_on_c, 0, 67, 0
2, 42662, Note_on_c, 0, 50, 0
2, 42666, Note_on_c, 0, 57, 64
2, 42666, Note_on_c, 0, 51, 64
2, 42692, Note_on_c, 0, 51, 0
2, 42696, Note_on_c, 0, 54, 64
2, 42718, Note_on_c, 0, 57, 0
2, 42722, Note_on_c, 0, 54, 0
2, 42726, Note_on_c, 0, 56, 64
2, 42726, Note_on_c, 0, 48, 64
2, 42752, Note_on_c, 0, 48, 0
2, 42756, Note_on_c, 0, 46, 64
2, 42778, Note_on_c, 0, 56, 0
2, 42782, Note_on_c, 0, 46, 0
2, 42786, Note_on_c, 0, 66, 64
2, 42786, Note_on_c, 0, 48, 64
2, 42812, Note_on_c, 0, 48, 0
2, 42816, Note_on_c, 0, 51, 64
2, 42838, Note_on_c, 0, 66, 0
2, 42842, Note_on_c, 0, 51, 0
2, 42846, Note_on_c, 0, 65, 64
2, 42846, Note_on_c, 0, 49, 64
2, 42872, Note_on_c, 0, 49, 0
2, 42876, Note_on_c, 0, 48, 64
2, 42898, Note_on_c, 0, 65, 0
2, 42902, Note_on_c, 0, 48, 0
2, 42906, Note_on_c, 0, 64, 64
2, 42906, Note_on_c, 0, 56, 64
2, 42906, Note_on_c, 0, 49, 64
2, 42932, Note_on_c, 0, 49, 0
2, 42936, Note_on_c, 0, 52, 64
2, 42958, Note_on_c, 0, 56, 0
2, 42958, Note_on_c, 0, 64, 0
2, 42962, Note_on_c, 0, 52, 0
2, 42966, Note_on_c, 0, 64, 64
2, 42966, Note_on_c, 0, 56, 64
2, 42966, Note_on_c, 0, 46, 64
2, 42992, Note_on_c, 0, 46, 0
2, 42996, Note_on_c, 0, 47, 64
2, 43018, Note_on_c, 0, 56, 0
2, 43018, Note_on_c, 0, 64, 0
2, 43022, Note_on_c, 0, 47, 0
2, 43026, Note_on_c, 0, 63, 64
2, 43026, Note_on_c, 0, 55, 64
2, 43026, Note_on_c, 0, 49, 64
2, 43052, Note_on_c, 0, 49, 0
2, 43056, Note_on_c, 0, 47, 64
2, 43078, Note_on_c, 0, 55, 0
2, 43078, Note_on_c, 0, 63, 0
2, 43082, Note_on_c, 0, 47, 0
2, 43086, Note_on_c, 0, 49, 64
2, 43112, Note_on_c, 0, 49, 0
2, 43116, Note_on_c, 0, 55, 64
2, 43142, Note_on_c, 0, 55, 0
2, 43146, Note_on_c, 0, 58, 64
2, 43172, Note_on_c, 0, 58, 0
2, 43176, Note_on_c, 0, 49, 64
2, 43202, Note_on_c, 0, 49, 0
2, 43206, Note_on_c, 0, 68, 64
2, 43206, Note_on_c, 0, 68, 64
2, 43206, Note_on_c, 0, 47, 64
2, 43232, Note_on_c, 0, 47, 0
2, 43232, Note_on_c, 0, 68, 0
2, 43232, Note_on_c, 0, 68, 0
2, 43236, Note_on_c, 0, 70, 64
2, 43236, Note_on_c, 0, 70, 64
2, 43236, Note_on_c, 0, 46, 64
2, 43262, Note_on_c, 0, 46, 0
2, 43262, Note_on_c, 0, 70, 0
2, 43262, Note_on_c, 0, 70, 0
2, 43266, Note_on_c, 0, 71, 64
2, 43266, Note_on_c, 0, 71, 64
2, 43266, Note_on_c, 0, 44, 64
2, 43292, Note_on_c, 0, 44, 0
2, 43292, Note_on_c, 0, 71, 0
2, 43292, Note_on_c, 0, 71, 0
2, 43296, Note_on_c, 0, 73, 64
2, 43296, Note_on_c, 0, 73, 64
2, 43296, Note_on_c, 0, 46, 64
2, 43322, Note_on_c, 0, 46, 0
2, 43322, Note_on_c, 0, 73, 0
2, 43322, Note_on_c, 0, 73, 0
2, 43326, Note_on_c, 0, 75, 64
2, 43326, Note_on_c, 0, 75, 64
2, 43326, Note_on_c, 0, 47, 64
2, 43352, Note_on_c, 0, 47, 0
2, 43352, Note_on_c, 0, 75, 0
2, 43352, Note_on_c, 0, 75, 0
2, 43356, Note_on_c, 0, 71, 64
2, 43356, Note_on_c, 0, 71, 64
2, 43356, Note_on_c, 0, 49, 64
2, 43382, Note_on_c, 0, 49, 0
2, 43382, Note_on_c, 0, 71, 0
2, 43382, Note_on_c, 0, 71, 0
2, 43386, Note_on_c, 0, 70, 64
2, 43386, Note_on_c, 0, 70, 64
2, 43386, Note_on_c, 0, 51, 64
2, 43412, Note_on_c, 0, 51, 0
2, 43412, Note_on_c, 0, 70, 0
2, 43412, Note_on_c, 0, 70, 0
2, 43416, Note_on_c, 0, 68, 64
2, 43416, Note_on_c, 0, 68, 64
2, 43416, Note_on_c, 0, 52, 64
2, 43442, Note_on_c, 0, 52, 0
2, 43442, Note_on_c, 0, 68, 0
2, 43442, Note_on_c, 0, 68, 0
2, 43446, Note_on_c, 0, 67, 64
2, 43446, Note_on_c, 0, 67, 64
2, 43446, Note_on_c, 0, 52, 64
2, 43472, Note_on_c, 0, 67, 0
2, 43472, Note_on_c, 0, 67, 0
2, 43476, Note_on_c, 0, 68, 64
2, 43476, Note_on_c, 0, 68, 64
2, 43498, Note_on_c, 0, 52, 0
2, 43502, Note_on_c, 0, 68, 0
2, 43502, Note_on_c, 0, 68, 0
2, 43506, Note_on_c, 0, 70, 64
2, 43506, Note_on_c, 0, 70, 64
2, 43506, Note_on_c, 0, 43, 64
2, 43532, Note_on_c, 0, 70, 0
2, 43532, Note_on_c, 0, 70, 0
2, 43536, Note_on_c, 0, 64, 64
2, 43536, Note_on_c, 0, 64, 64
2, 43558, Note_on_c, 0, 43, 0
2, 43562, Note_on_c, 0, 64, 0
2, 43562, Note_on_c, 0, 64, 0
2, 43566, Note_on_c, 0, 63, 64
2, 43566, Note_on_c, 0, 63, 64
2, 43596, Note_on_c, 0, 61, 64
2, 43622, Note_on_c, 0, 61, 0
2, 43626, Note_on_c, 0, 59, 64
2, 43652, Note_on_c, 0, 59, 0
2, 43656, Note_on_c, 0, 58, 64
2, 43671, Note_on_c, 0, 63, 0
2, 43671, Note_on_c, 0, 63, 0
2, 43682, Note_on_c, 0, 58, 0
2, 43686, Note_on_c, 0, 56, 64
2, 43712, Note_on_c, 0, 56, 0
2, 43716, Note_on_c, 0, 63, 64
2, 43742, Note_on_c, 0, 63, 0
2, 43746, Note_on_c, 0, 80, 64
2, 43746, Note_on_c, 0, 71, 64
2, 43746, Note_on_c, 0, 56, 64
2, 43772, Note_on_c, 0, 56, 0
2, 43776, Note_on_c, 0, 63, 64
2, 43798, Note_on_c, 0, 71, 0
2, 43798, Note_on_c, 0, 80, 0
2, 43802, Note_on_c, 0, 63, 0
2, 43806, Note_on_c, 0, 82, 64
2, 43806, Note_on_c, 0, 73, 64
2, 43806, Note_on_c, 0, 55, 64
2, 43832, Note_on_c, 0, 55, 0
2, 43836, Note_on_c, 0, 63, 64
2, 43862, Note_on_c, 0, 63, 0
2, 43866, Note_on_c, 0, 55, 64
2, 43892, Note_on_c, 0, 55, 0
2, 43896, Note_on_c, 0, 63, 64
2, 43911, Note_on_c, 0, 73, 0
2, 43911, Note_on_c, 0, 82, 0
2, 43922, Note_on_c, 0, 63, 0
2, 43926, Note_on_c, 0, 56, 64
2, 43952, Note_on_c, 0, 56, 0
2, 43956, Note_on_c, 0, 63, 64
2, 43982, Note_on_c, 0, 63, 0
2, 43986, Note_on_c, 0, 80, 64
2, 43986, Note_on_c, 0, 71, 64
2, 43986, Note_on_c, 0, 56, 64
2, 44012, Note_on_c, 0, 56, 0
2, 44016, Note_on_c, 0, 63, 64
2, 44038, Note_on_c, 0, 71, 0
2, 44038, Note_on_c, 0, 80, 0
2, 44042, Note_on_c, 0, 63, 0
2, 44046, Note_on_c, 0, 79, 64
2, 44046, Note_on_c, 0, 70, 64
2, 44046, Note_on_c, 0, 51, 64
2, 44072, Note_on_c, 0, 51, 0
2, 44076, Note_on_c, 0, 63, 64
2, 44102, Note_on_c, 0, 63, 0
2, 44106, Note_on_c, 0, 51, 64
2, 44132, Note_on_c, 0, 51, 0
2, 44136, Note_on_c, 0, 63, 64
2, 44151, Note_on_c, 0, 70, 0
2, 44151, Note_on_c, 0, 79, 0
2, 44162, Note_on_c, 0, 63, 0
2, 44166, Note_on_c, 0, 56, 64
2, 44192, Note_on_c, 0, 56, 0
2, 44196, Note_on_c, 0, 67, 64
2, 44196, Note_on_c, 0, 58, 64
2, 44222, Note_on_c, 0, 58, 0
2, 44222, Note_on_c, 0, 67, 0
2, 44226, Note_on_c, 0, 68, 64
2, 44226, Note_on_c, 0, 59, 64
2, 44252, Note_on_c, 0, 59, 0
2, 44252, Note_on_c, 0, 68, 0
2, 44256, Note_on_c, 0, 70, 64
2, 44256, Note_on_c, 0, 61, 64
2, 44282, Note_on_c, 0, 61, 0
2, 44282, Note_on_c, 0, 70, 0
2, 44286, Note_on_c, 0, 71, 64
2, 44286, Note_on_c, 0, 63, 64
2, 44299, Note_on_c, 0, 71, 0
2, 44301, Note_on_c, 0, 70, 64
2, 44312, Note_on_c, 0, 63, 0
2, 44314, Note_on_c, 0, 70, 0
2, 44316, Note_on_c, 0, 68, 64
2, 44316, Note_on_c, 0, 59, 64
2, 44342, Note_on_c, 0, 59, 0
2, 44342, Note_on_c, 0, 68, 0
2, 44346, Note_on_c, 0, 76, 64
2, 44346, Note_on_c, 0, 73, 64
2, 44346, Note_on_c, 0, 58, 64
2, 44372, Note_on_c, 0, 58, 0
2, 44376, Note_on_c, 0, 56, 64
2, 44398, Note_on_c, 0, 73, 0
2, 44398, Note_on_c, 0, 76, 0
2, 44402, Note_on_c, 0, 56, 0
2, 44406, Note_on_c, 0, 76, 64
2, 44406, Note_on_c, 0, 73, 64
2, 44406, Note_on_c, 0, 55, 64
2, 44432, Note_on_c, 0, 55, 0
2, 44436, Note_on_c, 0, 56, 64
2, 44458, Note_on_c, 0, 73, 0
2, 44458, Note_on_c, 0, 76, 0
2, 44462, Note_on_c, 0, 56, 0
2, 44466, Note_on_c, 0, 75, 64
2, 44466, Note_on_c, 0, 67, 64
2, 44466, Note_on_c, 0, 58, 64
2, 44492, Note_on_c, 0, 58, 0
2, 44496, Note_on_c, 0, 52, 64
2, 44518, Note_on_c, 0, 67, 0
2, 44518, Note_on_c, 0, 75, 0
2, 44522, Note_on_c, 0, 52, 0
2, 44526, Note_on_c, 0, 51, 64
2, 44552, Note_on_c, 0, 51, 0
2, 44556, Note_on_c, 0, 49, 64
2, 44582, Note_on_c, 0, 49, 0
2, 44586, Note_on_c, 0, 47, 64
2, 44612, Note_on_c, 0, 47, 0
2, 44616, Note_on_c, 0, 46, 64
2, 44642, Note_on_c, 0, 46, 0
2, 44646, Note_on_c, 0, 44, 64
2, 44672, Note_on_c, 0, 44, 0
2, 44676, Note_on_c, 0, 56, 64
2, 44702, Note_on_c, 0, 56, 0
2, 44706, Note_on_c, 0, 71, 64
2, 44706, Note_on_c, 0, 68, 64
2, 44706, Note_on_c, 0, 44, 64
2, 44732, Note_on_c, 0, 44, 0
2, 44736, Note_on_c, 0, 56, 64
2, 44758, Note_on_c, 0, 68, 0
2, 44758, Note_on_c, 0, 71, 0
2, 44762, Note_on_c, 0, 56, 0
2, 44766, Note_on_c, 0, 73, 64
2, 44766, Note_on_c, 0, 69, 64
2, 44766, Note_on_c, 0, 54, 64
2, 44792, Note_on_c, 0, 54, 0
2, 44796, Note_on_c, 0, 63, 64
2, 44818, Note_on_c, 0, 69, 0
2, 44818, Note_on_c, 0, 73, 0
2, 44822, Note_on_c, 0, 63, 0
2, 44826, Note_on_c, 0, 72, 64
2, 44826, Note_on_c, 0, 68, 64
2, 44826, Note_on_c, 0, 54, 64
2, 44852, Note_on_c, 0, 54, 0
2, 44856, Note_on_c, 0, 63, 64
2, 44878, Note_on_c, 0, 68, 0
2, 44878, Note_on_c, 0, 72, 0
2, 44882, Note_on_c, 0, 63, 0
2, 44886, Note_on_c, 0, 52, 64
2, 44912, Note_on_c, 0, 52, 0
2, 44916, Note_on_c, 0, 61, 64
2, 44942, Note_on_c, 0, 61, 0
2, 44946, Note_on_c, 0, 73, 64
2, 44946, Note_on_c, 0, 68, 64
2, 44946, Note_on_c, 0, 52, 64
2, 44972, Note_on_c, 0, 52, 0
2, 44976, Note_on_c, 0, 61, 64
2, 44998, Note_on_c, 0, 68, 0
2, 44998, Note_on_c, 0, 73, 0
2, 45002, Note_on_c, 0, 61, 0
2, 45006, Note_on_c, 0, 78, 64
2, 45006, Note_on_c, 0, 69, 64
2, 45006, Note_on_c, 0, 51, 64
2, 45032, Note_on_c, 0, 51, 0
2, 45036, Note_on_c, 0, 60, 64
2, 45058, Note_on_c, 0, 69, 0
2, 45058, Note_on_c, 0, 78, 0
2, 45062, Note_on_c, 0, 60, 0
2, 45066, Note_on_c, 0, 75, 64
2, 45066, Note_on_c, 0, 66, 64
2, 45066, Note_on_c, 0, 51, 64
2, 45092, Note_on_c, 0, 51, 0
2, 45096, Note_on_c, 0, 60, 64
2, 45118, Note_on_c, 0, 66, 0
2, 45118, Note_on_c, 0, 75, 0
2, 45122, Note_on_c, 0, 60, 0
2, 45126, Note_on_c, 0, 49, 64
2, 45152, Note_on_c, 0, 49, 0
2, 45156, Note_on_c, 0, 61, 64
2, 45182, Note_on_c, 0, 61, 0
2, 45186, Note_on_c, 0, 76, 64
2, 45186, Note_on_c, 0, 68, 64
2, 45186, Note_on_c, 0, 49, 64
2, 45212, Note_on_c, 0, 49, 0
2, 45216, Note_on_c, 0, 61, 64
2, 45238, Note_on_c, 0, 68, 0
2, 45238, Note_on_c, 0, 76, 0
2, 45242, Note_on_c, 0, 61, 0
2, 45246, Note_on_c, 0, 78, 64
2, 45246, Note_on_c, 0, 74, 64
2, 45246, Note_on_c, 0, 59, 64
2, 45272, Note_on_c, 0, 59, 0
2, 45276, Note_on_c, 0, 68, 64
2, 45298, Note_on_c, 0, 74, 0
2, 45298, Note_on_c, 0, 78, 0
2, 45302, Note_on_c, 0, 68, 0
2, 45306, Note_on_c, 0, 77, 64
2, 45306, Note_on_c, 0, 73, 64
2, 45306, Note_on_c, 0, 59, 64
2, 45332, Note_on_c, 0, 59, 0
2, 45336, Note_on_c, 0, 68, 64
2, 45358, Note_on_c, 0, 73, 0
2, 45358, Note_on_c, 0, 77, 0
2, 45362, Note_on_c, 0, 68, 0
2, 45366, Note_on_c, 0, 58, 64
2, 45392, Note_on_c, 0, 58, 0
2, 45396, Note_on_c, 0, 67, 64
2, 45422, Note_on_c, 0, 67, 0
2, 45426, Note_on_c, 0, 82, 64
2, 45426, Note_on_c, 0, 76, 64
2, 45426, Note_on_c, 0, 73, 64
2, 45426, Note_on_c, 0, 58, 64
2, 45452, Note_on_c, 0, 58, 0
2, 45452, Note_on_c, 0, 76, 0
2, 45456, Note_on_c, 0, 75, 64
2, 45456, Note_on_c, 0, 67, 64
2, 45478, Note_on_c, 0, 73, 0
2, 45478, Note_on_c, 0, 82, 0
2, 45482, Note_on_c, 0, 75, 0
2, 45482, Note_on_c, 0, 67, 0
2, 45486, Note_on_c, 0, 82, 64
2, 45486, Note_on_c, 0, 73, 64
2, 45486, Note_on_c, 0, 76, 64
2, 45486, Note_on_c, 0, 56, 64
2, 45512, Note_on_c, 0, 56, 0
2, 45516, Note_on_c, 0, 68, 64
2, 45538, Note_on_c, 0, 82, 0
2, 45538, Note_on_c, 0, 76, 0
2, 45538, Note_on_c, 0, 73, 0
2, 45542, Note_on_c, 0, 68, 0
2, 45546, Note_on_c, 0, 82, 64
2, 45546, Note_on_c, 0, 73, 64
2, 45546, Note_on_c, 0, 76, 64
2, 45546, Note_on_c, 0, 56, 64
2, 45572, Note_on_c, 0, 56, 0
2, 45576, Note_on_c, 0, 68, 64
2, 45598, Note_on_c, 0, 82, 0
2, 45598, Note_on_c, 0, 76, 0
2, 45598, Note_on_c, 0, 73, 0
2, 45602, Note_on_c, 0, 68, 0
2, 45606, Note_on_c, 0, 82, 64
2, 45606, Note_on_c, 0, 76, 64
2, 45606, Note_on_c, 0, 73, 64
2, 45606, Note_on_c, 0, 67, 64
2, 45632, Note_on_c, 0, 67, 0
2, 45636, Note_on_c, 0, 68, 64
2, 45662, Note_on_c, 0, 68, 0
2, 45666, Note_on_c, 0, 70, 64
2, 45692, Note_on_c, 0, 70, 0
2, 45696, Note_on_c, 0, 64, 64
2, 45711, Note_on_c, 0, 82, 0
2, 45711, Note_on_c, 0, 73, 0
2, 45711, Note_on_c, 0, 76, 0
2, 45722, Note_on_c, 0, 64, 0
2, 45726, Note_on_c, 0, 63, 64
2, 45752, Note_on_c, 0, 63, 0
2, 45756, Note_on_c, 0, 76, 64
2, 45756, Note_on_c, 0, 61, 64
2, 45782, Note_on_c, 0, 61, 0
2, 45782, Note_on_c, 0, 76, 0
2, 45786, Note_on_c, 0, 75, 64
2, 45786, Note_on_c, 0, 59, 64
2, 45812, Note_on_c, 0, 59, 0
2, 45812, Note_on_c, 0, 75, 0
2, 45816, Note_on_c, 0, 73, 64
2, 45816, Note_on_c, 0, 58, 64
2, 45842, Note_on_c, 0, 58, 0
2, 45842, Note_on_c, 0, 73, 0
2, 45846, Note_on_c, 0, 71, 64
2, 45846, Note_on_c, 0, 56, 64
2, 45872, Note_on_c, 0, 71, 0
2, 45876, Note_on_c, 0, 73, 64
2, 45898, Note_on_c, 0, 56, 0
2, 45902, Note_on_c, 0, 73, 0
2, 45906, Note_on_c, 0, 75, 64
2, 45906, Note_on_c, 0, 59, 64
2, 45932, Note_on_c, 0, 75, 0
2, 45936, Note_on_c, 0, 68, 64
2, 45958, Note_on_c, 0, 59, 0
2, 45962, Note_on_c, 0, 68, 0
2, 45966, Note_on_c, 0, 71, 64
2, 45966, Note_on_c, 0, 61, 64
2, 45992, Note_on_c, 0, 71, 0
2, 45996, Note_on_c, 0, 70, 64
2, 46018, Note_on_c, 0, 61, 0
2, 46022, Note_on_c, 0, 70, 0
2, 46026, Note_on_c, 0, 68, 64
2, 46026, Note_on_c, 0, 63, 64
2, 46052, Note_on_c, 0, 68, 0
2, 46056, Note_on_c, 0, 67, 64
2, 46078, Note_on_c, 0, 63, 0
2, 46082, Note_on_c, 0, 67, 0
2, 46086, Note_on_c, 0, 68, 64
2, 46086, Note_on_c, 0, 64, 64
2, 46086, Note_on_c, 0, 64, 64
2, 46086, Note_on_c, 0, 64, 64
2, 46112, Note_on_c, 0, 68, 0
2, 46116, Note_on_c, 0, 71, 64
2, 46138, Note_on_c, 0, 64, 0
2, 46138, Note_on_c, 0, 64, 0
2, 46138, Note_on_c, 0, 64, 0
2, 46142, Note_on_c, 0, 71, 0
2, 46146, Note_on_c, 0, 68, 64
2, 46146, Note_on_c, 0, 52, 64
2, 46172, Note_on_c, 0, 68, 0
2, 46176, Note_on_c, 0, 71, 64
2, 46198, Note_on_c, 0, 52, 0
2, 46202, Note_on_c, 0, 71, 0
2, 46206, Note_on_c, 0, 66, 64
2, 46232, Note_on_c, 0, 66, 0
2, 46236, Note_on_c, 0, 75, 64
2, 46262, Note_on_c, 0, 75, 0
2, 46266, Note_on_c, 0, 66, 64
2, 46266, Note_on_c, 0, 57, 64
2, 46266, Note_on_c, 0, 51, 64
2, 46266, Note_on_c, 0, 48, 64
2, 46292, Note_on_c, 0, 66, 0
2, 46296, Note_on_c, 0, 75, 64
2, 46318, Note_on_c, 0, 57, 0
2, 46318, Note_on_c, 0, 48, 0
2, 46318, Note_on_c, 0, 51, 0
2, 46322, Note_on_c, 0, 75, 0
2, 46326, Note_on_c, 0, 65, 64
2, 46352, Note_on_c, 0, 65, 0
2, 46356, Note_on_c, 0, 73, 64
2, 46382, Note_on_c, 0, 73, 0
2, 46386, Note_on_c, 0, 65, 64
2, 46386, Note_on_c, 0, 56, 64
2, 46386, Note_on_c, 0, 49, 64
2, 46412, Note_on_c, 0, 49, 0
2, 46412, Note_on_c, 0, 65, 0
2, 46416, Note_on_c, 0, 73, 64
2, 46416, Note_on_c, 0, 51, 64
2, 46438, Note_on_c, 0, 56, 0
2, 46442, Note_on_c, 0, 51, 0
2, 46442, Note_on_c, 0, 73, 0
2, 46446, Note_on_c, 0, 61, 64
2, 46446, Note_on_c, 0, 56, 64
2, 46446, Note_on_c, 0, 53, 64
2, 46472, Note_on_c, 0, 61, 0
2, 46476, Note_on_c, 0, 71, 64
2, 46498, Note_on_c, 0, 53, 0
2, 46498, Note_on_c, 0, 56, 0
2, 46502, Note_on_c, 0, 71, 0
2, 46506, Note_on_c, 0, 61, 64
2, 46506, Note_on_c, 0, 56, 64
2, 46506, Note_on_c, 0, 53, 64
2, 46532, Note_on_c, 0, 61, 0
2, 46536, Note_on_c, 0, 71, 64
2, 46558, Note_on_c, 0, 53, 0
2, 46558, Note_on_c, 0, 56, 0
2, 46562, Note_on_c, 0, 71, 0
2, 46566, Note_on_c, 0, 66, 64
2, 46566, Note_on_c, 0, 54, 64
2, 46566, Note_on_c, 0, 52, 64
2, 46592, Note_on_c, 0, 66, 0
2, 46596, Note_on_c, 0, 70, 64
2, 46618, Note_on_c, 0, 52, 0
2, 46622, Note_on_c, 0, 70, 0
2, 46626, Note_on_c, 0, 66, 64
2, 46626, Note_on_c, 0, 42, 64
2, 46652, Note_on_c, 0, 66, 0
2, 46656, Note_on_c, 0, 70, 64
2, 46671, Note_on_c, 0, 54, 0
2, 46678, Note_on_c, 0, 42, 0
2, 46682, Note_on_c, 0, 70, 0
2, 46686, Note_on_c, 0, 64, 64
2, 46712, Note_on_c, 0, 64, 0
2, 46716, Note_on_c, 0, 73, 64
2, 46742, Note_on_c, 0, 73, 0
2, 46746, Note_on_c, 0, 64, 64
2, 46746, Note_on_c, 0, 55, 64
2, 46746, Note_on_c, 0, 46, 64
2, 46746, Note_on_c, 0, 49, 64
2, 46772, Note_on_c, 0, 64, 0
2, 46776, Note_on_c, 0, 73, 64
2, 46798, Note_on_c, 0, 55, 0
2, 46798, Note_on_c, 0, 49, 0
2, 46798, Note_on_c, 0, 46, 0
2, 46802, Note_on_c, 0, 73, 0
2, 46806, Note_on_c, 0, 63, 64
2, 46832, Note_on_c, 0, 63, 0
2, 46836, Note_on_c, 0, 71, 64
2, 46862, Note_on_c, 0, 71, 0
2, 46866, Note_on_c, 0, 63, 64
2, 46866, Note_on_c, 0, 54, 64
2, 46866, Note_on_c, 0, 47, 64
2, 46892, Note_on_c, 0, 47, 0
2, 46892, Note_on_c, 0, 63, 0
2, 46896, Note_on_c, 0, 71, 64
2, 46896, Note_on_c, 0, 49, 64
2, 46918, Note_on_c, 0, 54, 0
2, 46922, Note_on_c, 0, 49, 0
2, 46922, Note_on_c, 0, 71, 0
2, 46926, Note_on_c, 0, 59, 64
2, 46926, Note_on_c, 0, 54, 64
2, 46926, Note_on_c, 0, 51, 64
2, 46952, Note_on_c, 0, 59, 0
2, 46956, Note_on_c, 0, 70, 64
2, 46978, Note_on_c, 0, 51, 0
2, 46978, Note_on_c, 0, 54, 0
2, 46982, Note_on_c, 0, 70, 0
2, 46986, Note_on_c, 0, 59, 64
2, 46986, Note_on_c, 0, 54, 64
2, 46986, Note_on_c, 0, 51, 64
2, 47012, Note_on_c, 0, 59, 0
2, 47016, Note_on_c, 0, 70, 64
2, 47038, Note_on_c, 0, 51, 0
2, 47038, Note_on_c, 0, 54, 0
2, 47042, Note_on_c, 0, 70, 0
2, 47046, Note_on_c, 0, 64, 64
2, 47046, Note_on_c, 0, 52, 64
2, 47046, Note_on_c, 0, 51, 64
2, 47072, Note_on_c, 0, 64, 0
2, 47076, Note_on_c, 0, 68, 64
2, 47098, Note_on_c, 0, 51, 0
2, 47102, Note_on_c, 0, 68, 0
2, 47106, Note_on_c, 0, 64, 64
2, 47106, Note_on_c, 0, 40, 64
2, 47132, Note_on_c, 0, 64, 0
2, 47136, Note_on_c, 0, 68, 64
2, 47151, Note_on_c, 0, 52, 0
2, 47158, Note_on_c, 0, 40, 0
2, 47162, Note_on_c, 0, 68, 0
2, 47166, Note_on_c, 0, 63, 64
2, 47192, Note_on_c, 0, 63, 0
2, 47196, Note_on_c, 0, 71, 64
2, 47222, Note_on_c, 0, 71, 0
2, 47226, Note_on_c, 0, 63, 64
2, 47226, Note_on_c, 0, 54, 64
2, 47226, Note_on_c, 0, 44, 64
2, 47226, Note_on_c, 0, 47, 64
2, 47252, Note_on_c, 0, 63, 0
2, 47256, Note_on_c, 0, 71, 64
2, 47278, Note_on_c, 0, 54, 0
2, 47278, Note_on_c, 0, 47, 0
2, 47278, Note_on_c, 0, 44, 0
2, 47282, Note_on_c, 0, 71, 0
2, 47286, Note_on_c, 0, 62, 64
2, 47312, Note_on_c, 0, 62, 0
2, 47316, Note_on_c, 0, 70, 64
2, 47342, Note_on_c, 0, 70, 0
2, 47346, Note_on_c, 0, 62, 64
2, 47346, Note_on_c, 0, 53, 64
2, 47346, Note_on_c, 0, 46, 64
2, 47372, Note_on_c, 0, 46, 0
2, 47372, Note_on_c, 0, 62, 0
2, 47376, Note_on_c, 0, 70, 64
2, 47376, Note_on_c, 0, 48, 64
2, 47398, Note_on_c, 0, 53, 0
2, 47402, Note_on_c, 0, 48, 0
2, 47402, Note_on_c, 0, 70, 0
2, 47406, Note_on_c, 0, 58, 64
2, 47406, Note_on_c, 0, 53, 64
2, 47406, Note_on_c, 0, 50, 64
2, 47432, Note_on_c, 0, 58, 0
2, 47436, Note_on_c, 0, 68, 64
2, 47458, Note_on_c, 0, 50, 0
2, 47458, Note_on_c, 0, 53, 0
2, 47462, Note_on_c, 0, 68, 0
2, 47466, Note_on_c, 0, 58, 64
2, 47466, Note_on_c, 0, 52, 64
2, 47466, Note_on_c, 0, 49, 64
2, 47492, Note_on_c, 0, 58, 0
2, 47496, Note_on_c, 0, 68, 64
2, 47518, Note_on_c, 0, 52, 0
2, 47522, Note_on_c, 0, 68, 0
2, 47526, Note_on_c, 0, 67, 64
2, 47526, Note_on_c, 0, 51, 64
2, 47552, Note_on_c, 0, 67, 0
2, 47556, Note_on_c, 0, 63, 64
2, 47556, Note_on_c, 0, 63, 64
2, 47578, Note_on_c, 0, 51, 0
2, 47578, Note_on_c, 0, 49, 0
2, 47582, Note_on_c, 0, 63, 0
2, 47586, Note_on_c, 0, 68, 64
2, 47586, Note_on_c, 0, 68, 64
2, 47586, Note_on_c, 0, 47, 64
2, 47612, Note_on_c, 0, 47, 0
2, 47612, Note_on_c, 0, 68, 0
2, 47616, Note_on_c, 0, 70, 64
2, 47616, Note_on_c, 0, 49, 64
2, 47642, Note_on_c, 0, 49, 0
2, 47642, Note_on_c, 0, 70, 0
2, 47646, Note_on_c, 0, 71, 64
2, 47646, Note_on_c, 0, 51, 64
2, 47672, Note_on_c, 0, 63, 0
2, 47676, Note_on_c, 0, 63, 64
2, 47698, Note_on_c, 0, 68, 0
2, 47698, Note_on_c, 0, 51, 0
2, 47698, Note_on_c, 0, 71, 0
2, 47706, Note_on_c, 0, 67, 64
2, 47706, Note_on_c, 0, 70, 64
2, 47706, Note_on_c, 0, 39, 64
2, 47728, Note_on_c, 0, 63, 0
2, 47736, Note_on_c, 0, 61, 64
2, 47758, Note_on_c, 0, 39, 0
2, 47766, Note_on_c, 0, 44, 64
2, 47818, Note_on_c, 0, 67, 0
2, 47818, Note_on_c, 0, 61, 0
2, 47818, Note_on_c, 0, 70, 0
2, 47826, Note_on_c, 0, 63, 64
2, 47826, Note_on_c, 0, 68, 64
2, 47826, Note_on_c, 0, 59, 64
2, 47844, Note_on_c, 0, 44, 0
2, 47856, Note_on_c, 0, 47, 64
2, 47869, Note_on_c, 0, 47, 0
2, 47871, Note_on_c, 0, 51, 64
2, 47878, Note_on_c, 0, 59, 0
2, 47878, Note_on_c, 0, 63, 0
2, 47878, Note_on_c, 0, 68, 0
2, 47884, Note_on_c, 0, 51, 0
2, 47886, Note_on_c, 0, 56, 64
2, 47991, Note_on_c, 0, 56, 0
2, 47991, End_track
3, 0, Start_track
3, 0, MIDI_port, 0
3, 0, End_track
0, 0, End_of_file
