0, 0, Header, 1, 4, 120
1, 0, Start_track
1, 0, Time_signature, 4, 2, 24, 8
1, 0, Key_signature, 3, "major"
1, 0, Tempo, 652174
1, 0, Marker_t, "(c) Yo Tomita, 1997"
1, 13488, Tempo, 652174
1, 13501, Tempo, 655738
1, 13513, Tempo, 659341
1, 13523, Tempo, 662983
1, 13536, Tempo, 666667
1, 13546, Tempo, 670391
1, 13558, Tempo, 674157
1, 13571, Tempo, 677966
1, 13581, Tempo, 681818
1, 13593, Tempo, 685714
1, 13603, Tempo, 689655
1, 13616, Tempo, 693642
1, 13626, Tempo, 697674
1, 13638, Tempo, 701754
1, 13651, Tempo, 705882
1, 13661, Tempo, 710059
1, 13673, Tempo, 714286
1, 13683, Tempo, 718563
1, 13696, Tempo, 722892
1, 13708, Tempo, 727273
1, 13718, Tempo, 731707
1, 13731, Tempo, 736196
1, 13741, Tempo, 740741
1, 13753, Tempo, 745342
1, 13763, Tempo, 750000
1, 13771, Tempo, 754717
1, 13776, Tempo, 759494
1, 13781, Tempo, 764331
1, 13786, Tempo, 769231
1, 13791, Tempo, 774194
1, 13796, Tempo, 779221
1, 13803, Tempo, 784314
1, 13808, Tempo, 789474
1, 13813, Tempo, 794702
1, 13818, Tempo, 800000
1, 13823, Tempo, 805369
1, 13828, Tempo, 810811
1, 13833, Tempo, 816327
1, 13838, Tempo, 821918
1, 13841, Tempo, 827586
1, 13843, Tempo, 833333
1, 13848, Tempo, 839161
1, 13851, Tempo, 845070
1, 13853, Tempo, 851064
1, 13858, Tempo, 857143
1, 13861, Tempo, 863309
1, 13863, Tempo, 869565
1, 13863, End_track
2, 0, Start_track
2, 0, MIDI_port, 0
2, 0, Title_t, "BWV 888/2"
2, 0, Program_c, 0, 6
2, 1982, Note_on_c, 0, 69, 64
2, 2008, Note_on_c, 0, 69, 0
2, 2012, Note_on_c, 0, 71, 64
2, 2038, Note_on_c, 0, 71, 0
2, 2042, Note_on_c, 0, 73, 64
2, 2068, Note_on_c, 0, 73, 0
2, 2072, Note_on_c, 0, 71, 64
2, 2098, Note_on_c, 0, 71, 0
2, 2102, Note_on_c, 0, 69, 64
2, 2128, Note_on_c, 0, 69, 0
2, 2132, Note_on_c, 0, 73, 64
2, 2158, Note_on_c, 0, 73, 0
2, 2162, Note_on_c, 0, 71, 64
2, 2188, Note_on_c, 0, 71, 0
2, 2192, Note_on_c, 0, 74, 64
2, 2218, Note_on_c, 0, 74, 0
2, 2222, Note_on_c, 0, 73, 64
2, 2308, Note_on_c, 0, 73, 0
2, 2312, Note_on_c, 0, 76, 64
2, 2338, Note_on_c, 0, 76, 0
2, 2342, Note_on_c, 0, 74, 64
2, 2428, Note_on_c, 0, 74, 0
2, 2432, Note_on_c, 0, 78, 64
2, 2458, Note_on_c, 0, 78, 0
2, 2462, Note_on_c, 0, 76, 64
2, 2488, Note_on_c, 0, 76, 0
2, 2492, Note_on_c, 0, 74, 64
2, 2518, Note_on_c, 0, 74, 0
2, 2522, Note_on_c, 0, 76, 64
2, 2548, Note_on_c, 0, 76, 0
2, 2552, Note_on_c, 0, 71, 64
2, 2578, Note_on_c, 0, 71, 0
2, 2582, Note_on_c, 0, 73, 64
2, 2608, Note_on_c, 0, 73, 0
2, 2612, Note_on_c, 0, 74, 64
2, 2638, Note_on_c, 0, 74, 0
2, 2642, Note_on_c, 0, 73, 64
2, 2668, Note_on_c, 0, 73, 0
2, 2672, Note_on_c, 0, 74, 64
2, 2698, Note_on_c, 0, 74, 0
2, 2702, Note_on_c, 0, 76, 64
2, 2728, Note_on_c, 0, 76, 0
2, 2732, Note_on_c, 0, 78, 64
2, 2758, Note_on_c, 0, 78, 0
2, 2762, Note_on_c, 0, 76, 64
2, 2788, Note_on_c, 0, 76, 0
2, 2792, Note_on_c, 0, 81, 64
2, 2818, Note_on_c, 0, 81, 0
2, 2822, Note_on_c, 0, 80, 64
2, 2848, Note_on_c, 0, 80, 0
2, 2852, Note_on_c, 0, 78, 64
2, 2878, Note_on_c, 0, 78, 0
2, 2882, Note_on_c, 0, 80, 64
2, 2908, Note_on_c, 0, 80, 0
2, 2912, Note_on_c, 0, 78, 64
2, 2938, Note_on_c, 0, 78, 0
2, 2942, Note_on_c, 0, 76, 64
2, 2968, Note_on_c, 0, 76, 0
2, 2972, Note_on_c, 0, 75, 64
2, 2998, Note_on_c, 0, 75, 0
2, 3002, Note_on_c, 0, 76, 64
2, 3200, Note_on_c, 0, 76, 0
2, 3212, Note_on_c, 0, 75, 64
2, 3238, Note_on_c, 0, 75, 0
2, 3242, Note_on_c, 0, 76, 64
2, 3320, Note_on_c, 0, 76, 0
2, 3332, Note_on_c, 0, 75, 64
2, 3358, Note_on_c, 0, 75, 0
2, 3362, Note_on_c, 0, 76, 64
2, 3440, Note_on_c, 0, 76, 0
2, 3452, Note_on_c, 0, 73, 64
2, 3478, Note_on_c, 0, 73, 0
2, 3482, Note_on_c, 0, 74, 64
2, 3680, Note_on_c, 0, 74, 0
2, 3692, Note_on_c, 0, 72, 64
2, 3718, Note_on_c, 0, 72, 0
2, 3722, Note_on_c, 0, 73, 64
2, 3920, Note_on_c, 0, 73, 0
2, 3932, Note_on_c, 0, 70, 64
2, 3958, Note_on_c, 0, 70, 0
2, 3962, Note_on_c, 0, 71, 64
2, 4108, Note_on_c, 0, 71, 0
2, 4112, Note_on_c, 0, 65, 64
2, 4138, Note_on_c, 0, 65, 0
2, 4142, Note_on_c, 0, 66, 64
2, 4168, Note_on_c, 0, 66, 0
2, 4172, Note_on_c, 0, 68, 64
2, 4198, Note_on_c, 0, 68, 0
2, 4202, Note_on_c, 0, 69, 64
2, 4228, Note_on_c, 0, 69, 0
2, 4232, Note_on_c, 0, 68, 64
2, 4258, Note_on_c, 0, 68, 0
2, 4262, Note_on_c, 0, 66, 64
2, 4288, Note_on_c, 0, 66, 0
2, 4292, Note_on_c, 0, 69, 64
2, 4318, Note_on_c, 0, 69, 0
2, 4322, Note_on_c, 0, 68, 64
2, 4348, Note_on_c, 0, 68, 0
2, 4352, Note_on_c, 0, 71, 64
2, 4378, Note_on_c, 0, 71, 0
2, 4382, Note_on_c, 0, 69, 64
2, 4468, Note_on_c, 0, 69, 0
2, 4472, Note_on_c, 0, 73, 64
2, 4498, Note_on_c, 0, 73, 0
2, 4502, Note_on_c, 0, 71, 64
2, 4588, Note_on_c, 0, 71, 0
2, 4592, Note_on_c, 0, 74, 64
2, 4618, Note_on_c, 0, 74, 0
2, 4622, Note_on_c, 0, 73, 64
2, 4648, Note_on_c, 0, 73, 0
2, 4652, Note_on_c, 0, 71, 64
2, 4678, Note_on_c, 0, 71, 0
2, 4682, Note_on_c, 0, 73, 64
2, 4708, Note_on_c, 0, 73, 0
2, 4712, Note_on_c, 0, 68, 64
2, 4738, Note_on_c, 0, 68, 0
2, 4742, Note_on_c, 0, 69, 64
2, 4768, Note_on_c, 0, 69, 0
2, 4772, Note_on_c, 0, 71, 64
2, 4798, Note_on_c, 0, 71, 0
2, 4802, Note_on_c, 0, 69, 64
2, 5068, Note_on_c, 0, 69, 0
2, 5072, Note_on_c, 0, 73, 64
2, 5098, Note_on_c, 0, 73, 0
2, 5102, Note_on_c, 0, 71, 64
2, 5128, Note_on_c, 0, 71, 0
2, 5132, Note_on_c, 0, 69, 64
2, 5158, Note_on_c, 0, 69, 0
2, 5162, Note_on_c, 0, 71, 64
2, 5188, Note_on_c, 0, 71, 0
2, 5192, Note_on_c, 0, 66, 64
2, 5218, Note_on_c, 0, 66, 0
2, 5222, Note_on_c, 0, 68, 64
2, 5248, Note_on_c, 0, 68, 0
2, 5252, Note_on_c, 0, 69, 64
2, 5278, Note_on_c, 0, 69, 0
2, 5282, Note_on_c, 0, 68, 64
2, 5600, Note_on_c, 0, 68, 0
2, 5612, Note_on_c, 0, 68, 64
2, 5638, Note_on_c, 0, 68, 0
2, 5642, Note_on_c, 0, 73, 64
2, 5720, Note_on_c, 0, 73, 0
2, 5732, Note_on_c, 0, 75, 64
2, 5758, Note_on_c, 0, 75, 0
2, 5762, Note_on_c, 0, 72, 64
2, 5814, Note_on_c, 0, 72, 0
2, 5882, Note_on_c, 0, 75, 64
2, 6028, Note_on_c, 0, 75, 0
2, 6032, Note_on_c, 0, 72, 64
2, 6058, Note_on_c, 0, 72, 0
2, 6062, Note_on_c, 0, 73, 64
2, 6088, Note_on_c, 0, 73, 0
2, 6092, Note_on_c, 0, 75, 64
2, 6118, Note_on_c, 0, 75, 0
2, 6122, Note_on_c, 0, 73, 64
2, 6148, Note_on_c, 0, 73, 0
2, 6152, Note_on_c, 0, 78, 64
2, 6178, Note_on_c, 0, 78, 0
2, 6182, Note_on_c, 0, 76, 64
2, 6208, Note_on_c, 0, 76, 0
2, 6212, Note_on_c, 0, 75, 64
2, 6238, Note_on_c, 0, 75, 0
2, 6242, Note_on_c, 0, 76, 64
2, 6508, Note_on_c, 0, 76, 0
2, 6512, Note_on_c, 0, 79, 64
2, 6538, Note_on_c, 0, 79, 0
2, 6542, Note_on_c, 0, 78, 64
2, 6568, Note_on_c, 0, 78, 0
2, 6572, Note_on_c, 0, 76, 64
2, 6598, Note_on_c, 0, 76, 0
2, 6602, Note_on_c, 0, 78, 64
2, 6628, Note_on_c, 0, 78, 0
2, 6632, Note_on_c, 0, 73, 64
2, 6658, Note_on_c, 0, 73, 0
2, 6662, Note_on_c, 0, 74, 64
2, 6688, Note_on_c, 0, 74, 0
2, 6692, Note_on_c, 0, 76, 64
2, 6718, Note_on_c, 0, 76, 0
2, 6722, Note_on_c, 0, 74, 64
2, 6988, Note_on_c, 0, 74, 0
2, 6992, Note_on_c, 0, 78, 64
2, 7018, Note_on_c, 0, 78, 0
2, 7022, Note_on_c, 0, 76, 64
2, 7048, Note_on_c, 0, 76, 0
2, 7052, Note_on_c, 0, 74, 64
2, 7078, Note_on_c, 0, 74, 0
2, 7082, Note_on_c, 0, 76, 64
2, 7108, Note_on_c, 0, 76, 0
2, 7112, Note_on_c, 0, 71, 64
2, 7138, Note_on_c, 0, 71, 0
2, 7142, Note_on_c, 0, 73, 64
2, 7168, Note_on_c, 0, 73, 0
2, 7172, Note_on_c, 0, 74, 64
2, 7198, Note_on_c, 0, 74, 0
2, 7202, Note_on_c, 0, 73, 64
2, 7228, Note_on_c, 0, 73, 0
2, 7232, Note_on_c, 0, 74, 64
2, 7258, Note_on_c, 0, 74, 0
2, 7262, Note_on_c, 0, 73, 64
2, 7288, Note_on_c, 0, 73, 0
2, 7292, Note_on_c, 0, 71, 64
2, 7318, Note_on_c, 0, 71, 0
2, 7322, Note_on_c, 0, 69, 64
2, 7348, Note_on_c, 0, 69, 0
2, 7352, Note_on_c, 0, 68, 64
2, 7378, Note_on_c, 0, 68, 0
2, 7382, Note_on_c, 0, 66, 64
2, 7408, Note_on_c, 0, 66, 0
2, 7412, Note_on_c, 0, 64, 64
2, 7438, Note_on_c, 0, 64, 0
2, 7442, Note_on_c, 0, 62, 64
2, 7468, Note_on_c, 0, 62, 0
2, 7472, Note_on_c, 0, 66, 64
2, 7498, Note_on_c, 0, 66, 0
2, 7502, Note_on_c, 0, 68, 64
2, 7528, Note_on_c, 0, 68, 0
2, 7532, Note_on_c, 0, 71, 64
2, 7558, Note_on_c, 0, 71, 0
2, 7562, Note_on_c, 0, 64, 64
2, 7588, Note_on_c, 0, 64, 0
2, 7592, Note_on_c, 0, 68, 64
2, 7618, Note_on_c, 0, 68, 0
2, 7622, Note_on_c, 0, 70, 64
2, 7648, Note_on_c, 0, 70, 0
2, 7652, Note_on_c, 0, 73, 64
2, 7678, Note_on_c, 0, 73, 0
2, 7682, Note_on_c, 0, 71, 64
2, 7880, Note_on_c, 0, 71, 0
2, 7892, Note_on_c, 0, 71, 64
2, 7918, Note_on_c, 0, 71, 0
2, 7922, Note_on_c, 0, 69, 64
2, 8120, Note_on_c, 0, 69, 0
2, 8132, Note_on_c, 0, 69, 64
2, 8158, Note_on_c, 0, 69, 0
2, 8162, Note_on_c, 0, 68, 64
2, 8360, Note_on_c, 0, 68, 0
2, 8372, Note_on_c, 0, 67, 64
2, 8398, Note_on_c, 0, 67, 0
2, 8402, Note_on_c, 0, 66, 64
2, 8507, Note_on_c, 0, 66, 0
2, 8642, Note_on_c, 0, 66, 64
2, 8747, Note_on_c, 0, 66, 0
2, 9152, Note_on_c, 0, 73, 64
2, 9178, Note_on_c, 0, 73, 0
2, 9182, Note_on_c, 0, 74, 64
2, 9208, Note_on_c, 0, 74, 0
2, 9212, Note_on_c, 0, 76, 64
2, 9238, Note_on_c, 0, 76, 0
2, 9242, Note_on_c, 0, 78, 64
2, 9268, Note_on_c, 0, 78, 0
2, 9272, Note_on_c, 0, 76, 64
2, 9298, Note_on_c, 0, 76, 0
2, 9302, Note_on_c, 0, 74, 64
2, 9328, Note_on_c, 0, 74, 0
2, 9332, Note_on_c, 0, 78, 64
2, 9358, Note_on_c, 0, 78, 0
2, 9362, Note_on_c, 0, 76, 64
2, 9388, Note_on_c, 0, 76, 0
2, 9392, Note_on_c, 0, 79, 64
2, 9418, Note_on_c, 0, 79, 0
2, 9422, Note_on_c, 0, 78, 64
2, 9508, Note_on_c, 0, 78, 0
2, 9512, Note_on_c, 0, 81, 64
2, 9538, Note_on_c, 0, 81, 0
2, 9542, Note_on_c, 0, 79, 64
2, 9628, Note_on_c, 0, 79, 0
2, 9632, Note_on_c, 0, 83, 64
2, 9658, Note_on_c, 0, 83, 0
2, 9662, Note_on_c, 0, 81, 64
2, 9688, Note_on_c, 0, 81, 0
2, 9692, Note_on_c, 0, 80, 64
2, 9718, Note_on_c, 0, 80, 0
2, 9722, Note_on_c, 0, 81, 64
2, 9748, Note_on_c, 0, 81, 0
2, 9752, Note_on_c, 0, 76, 64
2, 9778, Note_on_c, 0, 76, 0
2, 9782, Note_on_c, 0, 78, 64
2, 9808, Note_on_c, 0, 78, 0
2, 9812, Note_on_c, 0, 79, 64
2, 9838, Note_on_c, 0, 79, 0
2, 9842, Note_on_c, 0, 78, 64
2, 10108, Note_on_c, 0, 78, 0
2, 10112, Note_on_c, 0, 78, 64
2, 10138, Note_on_c, 0, 78, 0
2, 10142, Note_on_c, 0, 76, 64
2, 10168, Note_on_c, 0, 76, 0
2, 10172, Note_on_c, 0, 75, 64
2, 10198, Note_on_c, 0, 75, 0
2, 10202, Note_on_c, 0, 76, 64
2, 10228, Note_on_c, 0, 76, 0
2, 10232, Note_on_c, 0, 71, 64
2, 10258, Note_on_c, 0, 71, 0
2, 10262, Note_on_c, 0, 73, 64
2, 10288, Note_on_c, 0, 73, 0
2, 10292, Note_on_c, 0, 74, 64
2, 10318, Note_on_c, 0, 74, 0
2, 10322, Note_on_c, 0, 73, 64
2, 10588, Note_on_c, 0, 73, 0
2, 10592, Note_on_c, 0, 72, 64
2, 10618, Note_on_c, 0, 72, 0
2, 10622, Note_on_c, 0, 71, 64
2, 10648, Note_on_c, 0, 71, 0
2, 10652, Note_on_c, 0, 70, 64
2, 10678, Note_on_c, 0, 70, 0
2, 10682, Note_on_c, 0, 71, 64
2, 10708, Note_on_c, 0, 71, 0
2, 10712, Note_on_c, 0, 66, 64
2, 10738, Note_on_c, 0, 66, 0
2, 10742, Note_on_c, 0, 68, 64
2, 10768, Note_on_c, 0, 68, 0
2, 10772, Note_on_c, 0, 69, 64
2, 10798, Note_on_c, 0, 69, 0
2, 10802, Note_on_c, 0, 68, 64
2, 10880, Note_on_c, 0, 68, 0
2, 10892, Note_on_c, 0, 69, 64
2, 10918, Note_on_c, 0, 69, 0
2, 10922, Note_on_c, 0, 71, 64
2, 11000, Note_on_c, 0, 71, 0
2, 11012, Note_on_c, 0, 73, 64
2, 11038, Note_on_c, 0, 73, 0
2, 11042, Note_on_c, 0, 74, 64
2, 11120, Note_on_c, 0, 74, 0
2, 11132, Note_on_c, 0, 75, 64
2, 11158, Note_on_c, 0, 75, 0
2, 11162, Note_on_c, 0, 76, 64
2, 11240, Note_on_c, 0, 76, 0
2, 11252, Note_on_c, 0, 77, 64
2, 11278, Note_on_c, 0, 77, 0
2, 11282, Note_on_c, 0, 78, 64
2, 11548, Note_on_c, 0, 78, 0
2, 11552, Note_on_c, 0, 75, 64
2, 11578, Note_on_c, 0, 75, 0
2, 11582, Note_on_c, 0, 76, 64
2, 11608, Note_on_c, 0, 76, 0
2, 11612, Note_on_c, 0, 78, 64
2, 11638, Note_on_c, 0, 78, 0
2, 11642, Note_on_c, 0, 76, 64
2, 11668, Note_on_c, 0, 76, 0
2, 11672, Note_on_c, 0, 81, 64
2, 11698, Note_on_c, 0, 81, 0
2, 11702, Note_on_c, 0, 80, 64
2, 11728, Note_on_c, 0, 80, 0
2, 11732, Note_on_c, 0, 78, 64
2, 11758, Note_on_c, 0, 78, 0
2, 11762, Note_on_c, 0, 80, 64
2, 11788, Note_on_c, 0, 80, 0
2, 11792, Note_on_c, 0, 78, 64
2, 11818, Note_on_c, 0, 78, 0
2, 11822, Note_on_c, 0, 76, 64
2, 11848, Note_on_c, 0, 76, 0
2, 11852, Note_on_c, 0, 75, 64
2, 11878, Note_on_c, 0, 75, 0
2, 11882, Note_on_c, 0, 76, 64
2, 11908, Note_on_c, 0, 76, 0
2, 11912, Note_on_c, 0, 71, 64
2, 11938, Note_on_c, 0, 71, 0
2, 11942, Note_on_c, 0, 73, 64
2, 11968, Note_on_c, 0, 73, 0
2, 11972, Note_on_c, 0, 74, 64
2, 11998, Note_on_c, 0, 74, 0
2, 12002, Note_on_c, 0, 73, 64
2, 12028, Note_on_c, 0, 73, 0
2, 12032, Note_on_c, 0, 68, 64
2, 12058, Note_on_c, 0, 68, 0
2, 12062, Note_on_c, 0, 69, 64
2, 12088, Note_on_c, 0, 69, 0
2, 12092, Note_on_c, 0, 71, 64
2, 12118, Note_on_c, 0, 71, 0
2, 12122, Note_on_c, 0, 69, 64
2, 12148, Note_on_c, 0, 69, 0
2, 12152, Note_on_c, 0, 74, 64
2, 12178, Note_on_c, 0, 74, 0
2, 12182, Note_on_c, 0, 73, 64
2, 12208, Note_on_c, 0, 73, 0
2, 12212, Note_on_c, 0, 71, 64
2, 12238, Note_on_c, 0, 71, 0
2, 12242, Note_on_c, 0, 73, 64
2, 12268, Note_on_c, 0, 73, 0
2, 12272, Note_on_c, 0, 71, 64
2, 12298, Note_on_c, 0, 71, 0
2, 12302, Note_on_c, 0, 69, 64
2, 12328, Note_on_c, 0, 69, 0
2, 12332, Note_on_c, 0, 68, 64
2, 12358, Note_on_c, 0, 68, 0
2, 12362, Note_on_c, 0, 69, 64
2, 12388, Note_on_c, 0, 69, 0
2, 12392, Note_on_c, 0, 64, 64
2, 12418, Note_on_c, 0, 64, 0
2, 12422, Note_on_c, 0, 66, 64
2, 12448, Note_on_c, 0, 66, 0
2, 12452, Note_on_c, 0, 67, 64
2, 12478, Note_on_c, 0, 67, 0
2, 12482, Note_on_c, 0, 66, 64
2, 12508, Note_on_c, 0, 66, 0
2, 12512, Note_on_c, 0, 69, 64
2, 12538, Note_on_c, 0, 69, 0
2, 12542, Note_on_c, 0, 71, 64
2, 12568, Note_on_c, 0, 71, 0
2, 12572, Note_on_c, 0, 73, 64
2, 12598, Note_on_c, 0, 73, 0
2, 12602, Note_on_c, 0, 74, 64
2, 12748, Note_on_c, 0, 74, 0
2, 12752, Note_on_c, 0, 68, 64
2, 12778, Note_on_c, 0, 68, 0
2, 12782, Note_on_c, 0, 69, 64
2, 12808, Note_on_c, 0, 69, 0
2, 12812, Note_on_c, 0, 71, 64
2, 12838, Note_on_c, 0, 71, 0
2, 12842, Note_on_c, 0, 73, 64
2, 12868, Note_on_c, 0, 73, 0
2, 12872, Note_on_c, 0, 71, 64
2, 12898, Note_on_c, 0, 71, 0
2, 12902, Note_on_c, 0, 69, 64
2, 12928, Note_on_c, 0, 69, 0
2, 12932, Note_on_c, 0, 73, 64
2, 12958, Note_on_c, 0, 73, 0
2, 12962, Note_on_c, 0, 71, 64
2, 12988, Note_on_c, 0, 71, 0
2, 12992, Note_on_c, 0, 74, 64
2, 13018, Note_on_c, 0, 74, 0
2, 13022, Note_on_c, 0, 73, 64
2, 13108, Note_on_c, 0, 73, 0
2, 13112, Note_on_c, 0, 76, 64
2, 13138, Note_on_c, 0, 76, 0
2, 13142, Note_on_c, 0, 74, 64
2, 13228, Note_on_c, 0, 74, 0
2, 13232, Note_on_c, 0, 78, 64
2, 13258, Note_on_c, 0, 78, 0
2, 13262, Note_on_c, 0, 76, 64
2, 13288, Note_on_c, 0, 76, 0
2, 13292, Note_on_c, 0, 75, 64
2, 13318, Note_on_c, 0, 75, 0
2, 13322, Note_on_c, 0, 76, 64
2, 13348, Note_on_c, 0, 76, 0
2, 13352, Note_on_c, 0, 71, 64
2, 13378, Note_on_c, 0, 71, 0
2, 13382, Note_on_c, 0, 73, 64
2, 13408, Note_on_c, 0, 73, 0
2, 13412, Note_on_c, 0, 74, 64
2, 13438, Note_on_c, 0, 74, 0
2, 13442, Note_on_c, 0, 73, 64
2, 13520, Note_on_c, 0, 73, 0
2, 13532, Note_on_c, 0, 71, 64
2, 13558, Note_on_c, 0, 71, 0
2, 13562, Note_on_c, 0, 69, 64
2, 13578, Note_on_c, 0, 68, 64
2, 13585, Note_on_c, 0, 69, 0
2, 13586, Note_on_c, 0, 69, 64
2, 13589, Note_on_c, 0, 68, 0
2, 13594, Note_on_c, 0, 68, 64
2, 13597, Note_on_c, 0, 69, 0
2, 13598, Note_on_c, 0, 69, 64
2, 13605, Note_on_c, 0, 68, 0
2, 13606, Note_on_c, 0, 68, 64
2, 13609, Note_on_c, 0, 69, 0
2, 13652, Note_on_c, 0, 69, 64
2, 13653, Note_on_c, 0, 68, 0
2, 13678, Note_on_c, 0, 69, 0
2, 13682, Note_on_c, 0, 69, 64
2, 13907, Note_on_c, 0, 69, 0
2, 13907, End_track
3, 0, Start_track
3, 0, MIDI_port, 0
3, 0, Title_t, "Fugue in A major"
3, 0, Program_c, 1, 6
3, 782, Note_on_c, 1, 64, 64
3, 808, Note_on_c, 1, 64, 0
3, 812, Note_on_c, 1, 66, 64
3, 838, Note_on_c, 1, 66, 0
3, 842, Note_on_c, 1, 68, 64
3, 868, Note_on_c, 1, 68, 0
3, 872, Note_on_c, 1, 66, 64
3, 898, Note_on_c, 1, 66, 0
3, 902, Note_on_c, 1, 64, 64
3, 928, Note_on_c, 1, 64, 0
3, 932, Note_on_c, 1, 68, 64
3, 958, Note_on_c, 1, 68, 0
3, 962, Note_on_c, 1, 66, 64
3, 988, Note_on_c, 1, 66, 0
3, 992, Note_on_c, 1, 69, 64
3, 1018, Note_on_c, 1, 69, 0
3, 1022, Note_on_c, 1, 68, 64
3, 1108, Note_on_c, 1, 68, 0
3, 1112, Note_on_c, 1, 71, 64
3, 1138, Note_on_c, 1, 71, 0
3, 1142, Note_on_c, 1, 69, 64
3, 1228, Note_on_c, 1, 69, 0
3, 1232, Note_on_c, 1, 73, 64
3, 1258, Note_on_c, 1, 73, 0
3, 1262, Note_on_c, 1, 71, 64
3, 1288, Note_on_c, 1, 71, 0
3, 1292, Note_on_c, 1, 69, 64
3, 1318, Note_on_c, 1, 69, 0
3, 1322, Note_on_c, 1, 71, 64
3, 1348, Note_on_c, 1, 71, 0
3, 1352, Note_on_c, 1, 66, 64
3, 1378, Note_on_c, 1, 66, 0
3, 1382, Note_on_c, 1, 68, 64
3, 1408, Note_on_c, 1, 68, 0
3, 1412, Note_on_c, 1, 69, 64
3, 1438, Note_on_c, 1, 69, 0
3, 1442, Note_on_c, 1, 68, 64
3, 1468, Note_on_c, 1, 68, 0
3, 1472, Note_on_c, 1, 71, 64
3, 1498, Note_on_c, 1, 71, 0
3, 1502, Note_on_c, 1, 69, 64
3, 1528, Note_on_c, 1, 69, 0
3, 1532, Note_on_c, 1, 68, 64
3, 1558, Note_on_c, 1, 68, 0
3, 1562, Note_on_c, 1, 69, 64
3, 1588, Note_on_c, 1, 69, 0
3, 1592, Note_on_c, 1, 64, 64
3, 1618, Note_on_c, 1, 64, 0
3, 1622, Note_on_c, 1, 66, 64
3, 1648, Note_on_c, 1, 66, 0
3, 1652, Note_on_c, 1, 67, 64
3, 1678, Note_on_c, 1, 67, 0
3, 1682, Note_on_c, 1, 66, 64
3, 1708, Note_on_c, 1, 66, 0
3, 1712, Note_on_c, 1, 69, 64
3, 1738, Note_on_c, 1, 69, 0
3, 1742, Note_on_c, 1, 68, 64
3, 1768, Note_on_c, 1, 68, 0
3, 1772, Note_on_c, 1, 66, 64
3, 1798, Note_on_c, 1, 66, 0
3, 1802, Note_on_c, 1, 68, 64
3, 1828, Note_on_c, 1, 68, 0
3, 1832, Note_on_c, 1, 63, 64
3, 1858, Note_on_c, 1, 63, 0
3, 1862, Note_on_c, 1, 64, 64
3, 1888, Note_on_c, 1, 64, 0
3, 1892, Note_on_c, 1, 66, 64
3, 1918, Note_on_c, 1, 66, 0
3, 1922, Note_on_c, 1, 64, 64
3, 2087, Note_on_c, 1, 64, 0
3, 2102, Note_on_c, 1, 66, 64
3, 2154, Note_on_c, 1, 66, 0
3, 2162, Note_on_c, 1, 68, 64
3, 2240, Note_on_c, 1, 68, 0
3, 2252, Note_on_c, 1, 68, 64
3, 2278, Note_on_c, 1, 68, 0
3, 2282, Note_on_c, 1, 69, 64
3, 2360, Note_on_c, 1, 69, 0
3, 2372, Note_on_c, 1, 69, 64
3, 2398, Note_on_c, 1, 69, 0
3, 2402, Note_on_c, 1, 71, 64
3, 2507, Note_on_c, 1, 71, 0
3, 2582, Note_on_c, 1, 68, 64
3, 2634, Note_on_c, 1, 68, 0
3, 2642, Note_on_c, 1, 69, 64
3, 2694, Note_on_c, 1, 69, 0
3, 2702, Note_on_c, 1, 68, 64
3, 2754, Note_on_c, 1, 68, 0
3, 2762, Note_on_c, 1, 69, 64
3, 2814, Note_on_c, 1, 69, 0
3, 2822, Note_on_c, 1, 71, 64
3, 2874, Note_on_c, 1, 71, 0
3, 2882, Note_on_c, 1, 71, 64
3, 3028, Note_on_c, 1, 71, 0
3, 3032, Note_on_c, 1, 69, 64
3, 3058, Note_on_c, 1, 69, 0
3, 3062, Note_on_c, 1, 68, 64
3, 3088, Note_on_c, 1, 68, 0
3, 3092, Note_on_c, 1, 71, 64
3, 3118, Note_on_c, 1, 71, 0
3, 3122, Note_on_c, 1, 69, 64
3, 3148, Note_on_c, 1, 69, 0
3, 3152, Note_on_c, 1, 66, 64
3, 3178, Note_on_c, 1, 66, 0
3, 3182, Note_on_c, 1, 71, 64
3, 3268, Note_on_c, 1, 71, 0
3, 3272, Note_on_c, 1, 68, 64
3, 3298, Note_on_c, 1, 68, 0
3, 3302, Note_on_c, 1, 73, 64
3, 3414, Note_on_c, 1, 73, 0
3, 3422, Note_on_c, 1, 66, 64
3, 3560, Note_on_c, 1, 66, 0
3, 3572, Note_on_c, 1, 66, 64
3, 3598, Note_on_c, 1, 66, 0
3, 3602, Note_on_c, 1, 64, 64
3, 3800, Note_on_c, 1, 64, 0
3, 3812, Note_on_c, 1, 64, 64
3, 3838, Note_on_c, 1, 64, 0
3, 3842, Note_on_c, 1, 63, 64
3, 4040, Note_on_c, 1, 63, 0
3, 4052, Note_on_c, 1, 62, 64
3, 4078, Note_on_c, 1, 62, 0
3, 4082, Note_on_c, 1, 61, 64
3, 4247, Note_on_c, 1, 61, 0
3, 4262, Note_on_c, 1, 63, 64
3, 4314, Note_on_c, 1, 63, 0
3, 4322, Note_on_c, 1, 65, 64
3, 4400, Note_on_c, 1, 65, 0
3, 4412, Note_on_c, 1, 65, 64
3, 4438, Note_on_c, 1, 65, 0
3, 4442, Note_on_c, 1, 66, 64
3, 4520, Note_on_c, 1, 66, 0
3, 4532, Note_on_c, 1, 66, 64
3, 4558, Note_on_c, 1, 66, 0
3, 4562, Note_on_c, 1, 68, 64
3, 4667, Note_on_c, 1, 68, 0
3, 4832, Note_on_c, 1, 68, 64
3, 4858, Note_on_c, 1, 68, 0
3, 4862, Note_on_c, 1, 66, 64
3, 4888, Note_on_c, 1, 66, 0
3, 4892, Note_on_c, 1, 65, 64
3, 4918, Note_on_c, 1, 65, 0
3, 4922, Note_on_c, 1, 66, 64
3, 4948, Note_on_c, 1, 66, 0
3, 4952, Note_on_c, 1, 61, 64
3, 4978, Note_on_c, 1, 61, 0
3, 4982, Note_on_c, 1, 63, 64
3, 5008, Note_on_c, 1, 63, 0
3, 5012, Note_on_c, 1, 64, 64
3, 5038, Note_on_c, 1, 64, 0
3, 5042, Note_on_c, 1, 63, 64
3, 5308, Note_on_c, 1, 63, 0
3, 5312, Note_on_c, 1, 56, 64
3, 5338, Note_on_c, 1, 56, 0
3, 5342, Note_on_c, 1, 61, 64
3, 5368, Note_on_c, 1, 61, 0
3, 5372, Note_on_c, 1, 63, 64
3, 5398, Note_on_c, 1, 63, 0
3, 5402, Note_on_c, 1, 64, 64
3, 5428, Note_on_c, 1, 64, 0
3, 5432, Note_on_c, 1, 63, 64
3, 5458, Note_on_c, 1, 63, 0
3, 5462, Note_on_c, 1, 61, 64
3, 5488, Note_on_c, 1, 61, 0
3, 5492, Note_on_c, 1, 64, 64
3, 5518, Note_on_c, 1, 64, 0
3, 5522, Note_on_c, 1, 63, 64
3, 5548, Note_on_c, 1, 63, 0
3, 5552, Note_on_c, 1, 66, 64
3, 5578, Note_on_c, 1, 66, 0
3, 5582, Note_on_c, 1, 64, 64
3, 5668, Note_on_c, 1, 64, 0
3, 5672, Note_on_c, 1, 68, 64
3, 5698, Note_on_c, 1, 68, 0
3, 5702, Note_on_c, 1, 66, 64
3, 5788, Note_on_c, 1, 66, 0
3, 5792, Note_on_c, 1, 69, 64
3, 5818, Note_on_c, 1, 69, 0
3, 5822, Note_on_c, 1, 68, 64
3, 5848, Note_on_c, 1, 68, 0
3, 5852, Note_on_c, 1, 66, 64
3, 5878, Note_on_c, 1, 66, 0
3, 5882, Note_on_c, 1, 68, 64
3, 5908, Note_on_c, 1, 68, 0
3, 5912, Note_on_c, 1, 63, 64
3, 5938, Note_on_c, 1, 63, 0
3, 5942, Note_on_c, 1, 64, 64
3, 5968, Note_on_c, 1, 64, 0
3, 5972, Note_on_c, 1, 66, 64
3, 5998, Note_on_c, 1, 66, 0
3, 6002, Note_on_c, 1, 64, 64
3, 6080, Note_on_c, 1, 64, 0
3, 6092, Note_on_c, 1, 56, 64
3, 6118, Note_on_c, 1, 56, 0
3, 6122, Note_on_c, 1, 58, 64
3, 6174, Note_on_c, 1, 58, 0
3, 6182, Note_on_c, 1, 60, 64
3, 6234, Note_on_c, 1, 60, 0
3, 6242, Note_on_c, 1, 61, 64
3, 6268, Note_on_c, 1, 61, 0
3, 6272, Note_on_c, 1, 63, 64
3, 6298, Note_on_c, 1, 63, 0
3, 6302, Note_on_c, 1, 61, 64
3, 6328, Note_on_c, 1, 61, 0
3, 6332, Note_on_c, 1, 60, 64
3, 6358, Note_on_c, 1, 60, 0
3, 6362, Note_on_c, 1, 61, 64
3, 6388, Note_on_c, 1, 61, 0
3, 6392, Note_on_c, 1, 56, 64
3, 6418, Note_on_c, 1, 56, 0
3, 6422, Note_on_c, 1, 58, 64
3, 6448, Note_on_c, 1, 58, 0
3, 6452, Note_on_c, 1, 59, 64
3, 6478, Note_on_c, 1, 59, 0
3, 6482, Note_on_c, 1, 58, 64
3, 6534, Note_on_c, 1, 58, 0
3, 6752, Note_on_c, 1, 73, 64
3, 6778, Note_on_c, 1, 73, 0
3, 6782, Note_on_c, 1, 71, 64
3, 6808, Note_on_c, 1, 71, 0
3, 6812, Note_on_c, 1, 70, 64
3, 6838, Note_on_c, 1, 70, 0
3, 6842, Note_on_c, 1, 71, 64
3, 6868, Note_on_c, 1, 71, 0
3, 6872, Note_on_c, 1, 66, 64
3, 6898, Note_on_c, 1, 66, 0
3, 6902, Note_on_c, 1, 68, 64
3, 6928, Note_on_c, 1, 68, 0
3, 6932, Note_on_c, 1, 69, 64
3, 6958, Note_on_c, 1, 69, 0
3, 6962, Note_on_c, 1, 68, 64
3, 7187, Note_on_c, 1, 68, 0
3, 7202, Note_on_c, 1, 69, 64
3, 7254, Note_on_c, 1, 69, 0
3, 7772, Note_on_c, 1, 66, 64
3, 7798, Note_on_c, 1, 66, 0
3, 7802, Note_on_c, 1, 67, 64
3, 8000, Note_on_c, 1, 67, 0
3, 8012, Note_on_c, 1, 65, 64
3, 8038, Note_on_c, 1, 65, 0
3, 8042, Note_on_c, 1, 66, 64
3, 8240, Note_on_c, 1, 66, 0
3, 8252, Note_on_c, 1, 63, 64
3, 8278, Note_on_c, 1, 63, 0
3, 8282, Note_on_c, 1, 64, 64
3, 8454, Note_on_c, 1, 64, 0
3, 8462, Note_on_c, 1, 62, 64
3, 8488, Note_on_c, 1, 62, 0
3, 8492, Note_on_c, 1, 61, 64
3, 8518, Note_on_c, 1, 61, 0
3, 8522, Note_on_c, 1, 59, 64
3, 8548, Note_on_c, 1, 59, 0
3, 8552, Note_on_c, 1, 58, 64
3, 8578, Note_on_c, 1, 58, 0
3, 8582, Note_on_c, 1, 56, 64
3, 8608, Note_on_c, 1, 56, 0
3, 8612, Note_on_c, 1, 54, 64
3, 8638, Note_on_c, 1, 54, 0
3, 8642, Note_on_c, 1, 62, 64
3, 8668, Note_on_c, 1, 62, 0
3, 8672, Note_on_c, 1, 61, 64
3, 8698, Note_on_c, 1, 61, 0
3, 8702, Note_on_c, 1, 59, 64
3, 8728, Note_on_c, 1, 59, 0
3, 8732, Note_on_c, 1, 58, 64
3, 8758, Note_on_c, 1, 58, 0
3, 8762, Note_on_c, 1, 59, 64
3, 8788, Note_on_c, 1, 59, 0
3, 8792, Note_on_c, 1, 64, 64
3, 8818, Note_on_c, 1, 64, 0
3, 8822, Note_on_c, 1, 62, 64
3, 8848, Note_on_c, 1, 62, 0
3, 8852, Note_on_c, 1, 61, 64
3, 8878, Note_on_c, 1, 61, 0
3, 8882, Note_on_c, 1, 62, 64
3, 8908, Note_on_c, 1, 62, 0
3, 8912, Note_on_c, 1, 74, 64
3, 8938, Note_on_c, 1, 74, 0
3, 8942, Note_on_c, 1, 73, 64
3, 8968, Note_on_c, 1, 73, 0
3, 8972, Note_on_c, 1, 71, 64
3, 8998, Note_on_c, 1, 71, 0
3, 9002, Note_on_c, 1, 73, 64
3, 9028, Note_on_c, 1, 73, 0
3, 9032, Note_on_c, 1, 68, 64
3, 9058, Note_on_c, 1, 68, 0
3, 9062, Note_on_c, 1, 69, 64
3, 9088, Note_on_c, 1, 69, 0
3, 9092, Note_on_c, 1, 71, 64
3, 9118, Note_on_c, 1, 71, 0
3, 9122, Note_on_c, 1, 69, 64
3, 9287, Note_on_c, 1, 69, 0
3, 9302, Note_on_c, 1, 71, 64
3, 9354, Note_on_c, 1, 71, 0
3, 9362, Note_on_c, 1, 73, 64
3, 9440, Note_on_c, 1, 73, 0
3, 9452, Note_on_c, 1, 73, 64
3, 9478, Note_on_c, 1, 73, 0
3, 9482, Note_on_c, 1, 74, 64
3, 9560, Note_on_c, 1, 74, 0
3, 9572, Note_on_c, 1, 75, 64
3, 9598, Note_on_c, 1, 75, 0
3, 9602, Note_on_c, 1, 76, 64
3, 9868, Note_on_c, 1, 76, 0
3, 9872, Note_on_c, 1, 76, 64
3, 9898, Note_on_c, 1, 76, 0
3, 9902, Note_on_c, 1, 74, 64
3, 9928, Note_on_c, 1, 74, 0
3, 9932, Note_on_c, 1, 73, 64
3, 9958, Note_on_c, 1, 73, 0
3, 9962, Note_on_c, 1, 74, 64
3, 9988, Note_on_c, 1, 74, 0
3, 9992, Note_on_c, 1, 69, 64
3, 10018, Note_on_c, 1, 69, 0
3, 10022, Note_on_c, 1, 71, 64
3, 10048, Note_on_c, 1, 71, 0
3, 10052, Note_on_c, 1, 73, 64
3, 10078, Note_on_c, 1, 73, 0
3, 10082, Note_on_c, 1, 71, 64
3, 10348, Note_on_c, 1, 71, 0
3, 10352, Note_on_c, 1, 71, 64
3, 10378, Note_on_c, 1, 71, 0
3, 10382, Note_on_c, 1, 69, 64
3, 10408, Note_on_c, 1, 69, 0
3, 10412, Note_on_c, 1, 68, 64
3, 10438, Note_on_c, 1, 68, 0
3, 10442, Note_on_c, 1, 69, 64
3, 10468, Note_on_c, 1, 69, 0
3, 10472, Note_on_c, 1, 64, 64
3, 10498, Note_on_c, 1, 64, 0
3, 10502, Note_on_c, 1, 66, 64
3, 10528, Note_on_c, 1, 66, 0
3, 10532, Note_on_c, 1, 67, 64
3, 10558, Note_on_c, 1, 67, 0
3, 10562, Note_on_c, 1, 66, 64
3, 10828, Note_on_c, 1, 66, 0
3, 10832, Note_on_c, 1, 59, 64
3, 10858, Note_on_c, 1, 59, 0
3, 10862, Note_on_c, 1, 64, 64
3, 10888, Note_on_c, 1, 64, 0
3, 10892, Note_on_c, 1, 66, 64
3, 10918, Note_on_c, 1, 66, 0
3, 10922, Note_on_c, 1, 68, 64
3, 10948, Note_on_c, 1, 68, 0
3, 10952, Note_on_c, 1, 66, 64
3, 10978, Note_on_c, 1, 66, 0
3, 10982, Note_on_c, 1, 64, 64
3, 11008, Note_on_c, 1, 64, 0
3, 11012, Note_on_c, 1, 67, 64
3, 11038, Note_on_c, 1, 67, 0
3, 11042, Note_on_c, 1, 66, 64
3, 11068, Note_on_c, 1, 66, 0
3, 11072, Note_on_c, 1, 69, 64
3, 11098, Note_on_c, 1, 69, 0
3, 11102, Note_on_c, 1, 68, 64
3, 11188, Note_on_c, 1, 68, 0
3, 11192, Note_on_c, 1, 71, 64
3, 11218, Note_on_c, 1, 71, 0
3, 11222, Note_on_c, 1, 69, 64
3, 11308, Note_on_c, 1, 69, 0
3, 11312, Note_on_c, 1, 73, 64
3, 11338, Note_on_c, 1, 73, 0
3, 11342, Note_on_c, 1, 71, 64
3, 11368, Note_on_c, 1, 71, 0
3, 11372, Note_on_c, 1, 69, 64
3, 11398, Note_on_c, 1, 69, 0
3, 11402, Note_on_c, 1, 71, 64
3, 11428, Note_on_c, 1, 71, 0
3, 11432, Note_on_c, 1, 66, 64
3, 11458, Note_on_c, 1, 66, 0
3, 11462, Note_on_c, 1, 68, 64
3, 11488, Note_on_c, 1, 68, 0
3, 11492, Note_on_c, 1, 69, 64
3, 11518, Note_on_c, 1, 69, 0
3, 11522, Note_on_c, 1, 68, 64
3, 11548, Note_on_c, 1, 68, 0
3, 11552, Note_on_c, 1, 69, 64
3, 11578, Note_on_c, 1, 69, 0
3, 11582, Note_on_c, 1, 68, 64
3, 11608, Note_on_c, 1, 68, 0
3, 11612, Note_on_c, 1, 66, 64
3, 11638, Note_on_c, 1, 66, 0
3, 11642, Note_on_c, 1, 68, 64
3, 11668, Note_on_c, 1, 68, 0
3, 11672, Note_on_c, 1, 63, 64
3, 11698, Note_on_c, 1, 63, 0
3, 11702, Note_on_c, 1, 64, 64
3, 11728, Note_on_c, 1, 64, 0
3, 11732, Note_on_c, 1, 66, 64
3, 11758, Note_on_c, 1, 66, 0
3, 11762, Note_on_c, 1, 64, 64
3, 11814, Note_on_c, 1, 64, 0
3, 12032, Note_on_c, 1, 62, 64
3, 12058, Note_on_c, 1, 62, 0
3, 12062, Note_on_c, 1, 61, 64
3, 12088, Note_on_c, 1, 61, 0
3, 12092, Note_on_c, 1, 59, 64
3, 12118, Note_on_c, 1, 59, 0
3, 12122, Note_on_c, 1, 61, 64
3, 12148, Note_on_c, 1, 61, 0
3, 12152, Note_on_c, 1, 56, 64
3, 12178, Note_on_c, 1, 56, 0
3, 12182, Note_on_c, 1, 57, 64
3, 12208, Note_on_c, 1, 57, 0
3, 12212, Note_on_c, 1, 59, 64
3, 12238, Note_on_c, 1, 59, 0
3, 12242, Note_on_c, 1, 57, 64
3, 12294, Note_on_c, 1, 57, 0
3, 12632, Note_on_c, 1, 69, 64
3, 12658, Note_on_c, 1, 69, 0
3, 12662, Note_on_c, 1, 68, 64
3, 12688, Note_on_c, 1, 68, 0
3, 12692, Note_on_c, 1, 66, 64
3, 12718, Note_on_c, 1, 66, 0
3, 12722, Note_on_c, 1, 64, 64
3, 12920, Note_on_c, 1, 64, 0
3, 12932, Note_on_c, 1, 66, 64
3, 12958, Note_on_c, 1, 66, 0
3, 12962, Note_on_c, 1, 68, 64
3, 13040, Note_on_c, 1, 68, 0
3, 13052, Note_on_c, 1, 68, 64
3, 13078, Note_on_c, 1, 68, 0
3, 13082, Note_on_c, 1, 69, 64
3, 13160, Note_on_c, 1, 69, 0
3, 13172, Note_on_c, 1, 69, 64
3, 13198, Note_on_c, 1, 69, 0
3, 13202, Note_on_c, 1, 71, 64
3, 13307, Note_on_c, 1, 71, 0
3, 13472, Note_on_c, 1, 69, 64
3, 13498, Note_on_c, 1, 69, 0
3, 13502, Note_on_c, 1, 68, 64
3, 13528, Note_on_c, 1, 68, 0
3, 13532, Note_on_c, 1, 66, 64
3, 13558, Note_on_c, 1, 66, 0
3, 13562, Note_on_c, 1, 64, 64
3, 13588, Note_on_c, 1, 64, 0
3, 13592, Note_on_c, 1, 62, 64
3, 13618, Note_on_c, 1, 62, 0
3, 13622, Note_on_c, 1, 61, 64
3, 13648, Note_on_c, 1, 61, 0
3, 13652, Note_on_c, 1, 59, 64
3, 13678, Note_on_c, 1, 59, 0
3, 13682, Note_on_c, 1, 61, 64
3, 13907, Note_on_c, 1, 61, 0
3, 13907, End_track
4, 0, Start_track
4, 0, MIDI_port, 0
4, 0, Title_t, "from WTC II"
4, 0, Program_c, 2, 6
4, 62, Note_on_c, 2, 57, 64
4, 88, Note_on_c, 2, 57, 0
4, 92, Note_on_c, 2, 59, 64
4, 118, Note_on_c, 2, 59, 0
4, 122, Note_on_c, 2, 61, 64
4, 148, Note_on_c, 2, 61, 0
4, 152, Note_on_c, 2, 59, 64
4, 178, Note_on_c, 2, 59, 0
4, 182, Note_on_c, 2, 57, 64
4, 208, Note_on_c, 2, 57, 0
4, 212, Note_on_c, 2, 61, 64
4, 238, Note_on_c, 2, 61, 0
4, 242, Note_on_c, 2, 59, 64
4, 268, Note_on_c, 2, 59, 0
4, 272, Note_on_c, 2, 62, 64
4, 298, Note_on_c, 2, 62, 0
4, 302, Note_on_c, 2, 61, 64
4, 388, Note_on_c, 2, 61, 0
4, 392, Note_on_c, 2, 64, 64
4, 418, Note_on_c, 2, 64, 0
4, 422, Note_on_c, 2, 62, 64
4, 508, Note_on_c, 2, 62, 0
4, 512, Note_on_c, 2, 66, 64
4, 538, Note_on_c, 2, 66, 0
4, 542, Note_on_c, 2, 64, 64
4, 568, Note_on_c, 2, 64, 0
4, 572, Note_on_c, 2, 62, 64
4, 598, Note_on_c, 2, 62, 0
4, 602, Note_on_c, 2, 64, 64
4, 628, Note_on_c, 2, 64, 0
4, 632, Note_on_c, 2, 59, 64
4, 658, Note_on_c, 2, 59, 0
4, 662, Note_on_c, 2, 61, 64
4, 688, Note_on_c, 2, 61, 0
4, 692, Note_on_c, 2, 62, 64
4, 718, Note_on_c, 2, 62, 0
4, 722, Note_on_c, 2, 61, 64
4, 774, Note_on_c, 2, 61, 0
4, 782, Note_on_c, 2, 57, 64
4, 834, Note_on_c, 2, 57, 0
4, 842, Note_on_c, 2, 59, 64
4, 894, Note_on_c, 2, 59, 0
4, 902, Note_on_c, 2, 61, 64
4, 954, Note_on_c, 2, 61, 0
4, 962, Note_on_c, 2, 62, 64
4, 1014, Note_on_c, 2, 62, 0
4, 1022, Note_on_c, 2, 59, 64
4, 1048, Note_on_c, 2, 59, 0
4, 1052, Note_on_c, 2, 64, 64
4, 1078, Note_on_c, 2, 64, 0
4, 1082, Note_on_c, 2, 61, 64
4, 1134, Note_on_c, 2, 61, 0
4, 1142, Note_on_c, 2, 66, 64
4, 1168, Note_on_c, 2, 66, 0
4, 1172, Note_on_c, 2, 61, 64
4, 1198, Note_on_c, 2, 61, 0
4, 1202, Note_on_c, 2, 63, 64
4, 1254, Note_on_c, 2, 63, 0
4, 1262, Note_on_c, 2, 64, 64
4, 1374, Note_on_c, 2, 64, 0
4, 1382, Note_on_c, 2, 63, 64
4, 1434, Note_on_c, 2, 63, 0
4, 1442, Note_on_c, 2, 64, 64
4, 1520, Note_on_c, 2, 64, 0
4, 1532, Note_on_c, 2, 59, 64
4, 1558, Note_on_c, 2, 59, 0
4, 1562, Note_on_c, 2, 61, 64
4, 1614, Note_on_c, 2, 61, 0
4, 1622, Note_on_c, 2, 57, 64
4, 1674, Note_on_c, 2, 57, 0
4, 1682, Note_on_c, 2, 62, 64
4, 1760, Note_on_c, 2, 62, 0
4, 1772, Note_on_c, 2, 57, 64
4, 1798, Note_on_c, 2, 57, 0
4, 1802, Note_on_c, 2, 59, 64
4, 1854, Note_on_c, 2, 59, 0
4, 1862, Note_on_c, 2, 56, 64
4, 1914, Note_on_c, 2, 56, 0
4, 1922, Note_on_c, 2, 61, 64
4, 1948, Note_on_c, 2, 61, 0
4, 1952, Note_on_c, 2, 62, 64
4, 1978, Note_on_c, 2, 62, 0
4, 1982, Note_on_c, 2, 61, 64
4, 2008, Note_on_c, 2, 61, 0
4, 2012, Note_on_c, 2, 59, 64
4, 2038, Note_on_c, 2, 59, 0
4, 2042, Note_on_c, 2, 57, 64
4, 2120, Note_on_c, 2, 57, 0
4, 2132, Note_on_c, 2, 57, 64
4, 2158, Note_on_c, 2, 57, 0
4, 2162, Note_on_c, 2, 64, 64
4, 2240, Note_on_c, 2, 64, 0
4, 2252, Note_on_c, 2, 52, 64
4, 2278, Note_on_c, 2, 52, 0
4, 2282, Note_on_c, 2, 54, 64
4, 2360, Note_on_c, 2, 54, 0
4, 2372, Note_on_c, 2, 66, 64
4, 2398, Note_on_c, 2, 66, 0
4, 2402, Note_on_c, 2, 68, 64
4, 2507, Note_on_c, 2, 68, 0
4, 2582, Note_on_c, 2, 64, 64
4, 2634, Note_on_c, 2, 64, 0
4, 2642, Note_on_c, 2, 57, 64
4, 2694, Note_on_c, 2, 57, 0
4, 2702, Note_on_c, 2, 59, 64
4, 2754, Note_on_c, 2, 59, 0
4, 2762, Note_on_c, 2, 61, 64
4, 2814, Note_on_c, 2, 61, 0
4, 2822, Note_on_c, 2, 63, 64
4, 2874, Note_on_c, 2, 63, 0
4, 2882, Note_on_c, 2, 64, 64
4, 2934, Note_on_c, 2, 64, 0
4, 2942, Note_on_c, 2, 52, 64
4, 2968, Note_on_c, 2, 52, 0
4, 2972, Note_on_c, 2, 54, 64
4, 2998, Note_on_c, 2, 54, 0
4, 3002, Note_on_c, 2, 56, 64
4, 3028, Note_on_c, 2, 56, 0
4, 3032, Note_on_c, 2, 54, 64
4, 3058, Note_on_c, 2, 54, 0
4, 3062, Note_on_c, 2, 52, 64
4, 3088, Note_on_c, 2, 52, 0
4, 3092, Note_on_c, 2, 56, 64
4, 3118, Note_on_c, 2, 56, 0
4, 3122, Note_on_c, 2, 54, 64
4, 3148, Note_on_c, 2, 54, 0
4, 3152, Note_on_c, 2, 57, 64
4, 3178, Note_on_c, 2, 57, 0
4, 3182, Note_on_c, 2, 56, 64
4, 3268, Note_on_c, 2, 56, 0
4, 3272, Note_on_c, 2, 59, 64
4, 3298, Note_on_c, 2, 59, 0
4, 3302, Note_on_c, 2, 57, 64
4, 3388, Note_on_c, 2, 57, 0
4, 3392, Note_on_c, 2, 61, 64
4, 3418, Note_on_c, 2, 61, 0
4, 3422, Note_on_c, 2, 59, 64
4, 3448, Note_on_c, 2, 59, 0
4, 3452, Note_on_c, 2, 57, 64
4, 3478, Note_on_c, 2, 57, 0
4, 3482, Note_on_c, 2, 59, 64
4, 3508, Note_on_c, 2, 59, 0
4, 3512, Note_on_c, 2, 54, 64
4, 3538, Note_on_c, 2, 54, 0
4, 3542, Note_on_c, 2, 56, 64
4, 3568, Note_on_c, 2, 56, 0
4, 3572, Note_on_c, 2, 57, 64
4, 3598, Note_on_c, 2, 57, 0
4, 3602, Note_on_c, 2, 56, 64
4, 3628, Note_on_c, 2, 56, 0
4, 3632, Note_on_c, 2, 59, 64
4, 3658, Note_on_c, 2, 59, 0
4, 3662, Note_on_c, 2, 57, 64
4, 3688, Note_on_c, 2, 57, 0
4, 3692, Note_on_c, 2, 56, 64
4, 3718, Note_on_c, 2, 56, 0
4, 3722, Note_on_c, 2, 57, 64
4, 3748, Note_on_c, 2, 57, 0
4, 3752, Note_on_c, 2, 52, 64
4, 3778, Note_on_c, 2, 52, 0
4, 3782, Note_on_c, 2, 54, 64
4, 3808, Note_on_c, 2, 54, 0
4, 3812, Note_on_c, 2, 56, 64
4, 3838, Note_on_c, 2, 56, 0
4, 3842, Note_on_c, 2, 54, 64
4, 3868, Note_on_c, 2, 54, 0
4, 3872, Note_on_c, 2, 57, 64
4, 3898, Note_on_c, 2, 57, 0
4, 3902, Note_on_c, 2, 56, 64
4, 3928, Note_on_c, 2, 56, 0
4, 3932, Note_on_c, 2, 54, 64
4, 3958, Note_on_c, 2, 54, 0
4, 3962, Note_on_c, 2, 56, 64
4, 3988, Note_on_c, 2, 56, 0
4, 3992, Note_on_c, 2, 51, 64
4, 4018, Note_on_c, 2, 51, 0
4, 4022, Note_on_c, 2, 53, 64
4, 4048, Note_on_c, 2, 53, 0
4, 4052, Note_on_c, 2, 54, 64
4, 4078, Note_on_c, 2, 54, 0
4, 4082, Note_on_c, 2, 53, 64
4, 4108, Note_on_c, 2, 53, 0
4, 4112, Note_on_c, 2, 49, 64
4, 4138, Note_on_c, 2, 49, 0
4, 4142, Note_on_c, 2, 51, 64
4, 4168, Note_on_c, 2, 51, 0
4, 4172, Note_on_c, 2, 53, 64
4, 4198, Note_on_c, 2, 53, 0
4, 4202, Note_on_c, 2, 54, 64
4, 4280, Note_on_c, 2, 54, 0
4, 4292, Note_on_c, 2, 54, 64
4, 4318, Note_on_c, 2, 54, 0
4, 4322, Note_on_c, 2, 61, 64
4, 4400, Note_on_c, 2, 61, 0
4, 4412, Note_on_c, 2, 49, 64
4, 4438, Note_on_c, 2, 49, 0
4, 4442, Note_on_c, 2, 50, 64
4, 4520, Note_on_c, 2, 50, 0
4, 4532, Note_on_c, 2, 51, 64
4, 4558, Note_on_c, 2, 51, 0
4, 4562, Note_on_c, 2, 52, 64
4, 4640, Note_on_c, 2, 52, 0
4, 4652, Note_on_c, 2, 56, 64
4, 4678, Note_on_c, 2, 56, 0
4, 4682, Note_on_c, 2, 53, 64
4, 4734, Note_on_c, 2, 53, 0
4, 4742, Note_on_c, 2, 49, 64
4, 4794, Note_on_c, 2, 49, 0
4, 4802, Note_on_c, 2, 54, 64
4, 4880, Note_on_c, 2, 54, 0
4, 4892, Note_on_c, 2, 56, 64
4, 4918, Note_on_c, 2, 56, 0
4, 4922, Note_on_c, 2, 57, 64
4, 4974, Note_on_c, 2, 57, 0
4, 4982, Note_on_c, 2, 54, 64
4, 5034, Note_on_c, 2, 54, 0
4, 5042, Note_on_c, 2, 47, 64
4, 5120, Note_on_c, 2, 47, 0
4, 5132, Note_on_c, 2, 49, 64
4, 5158, Note_on_c, 2, 49, 0
4, 5162, Note_on_c, 2, 51, 64
4, 5214, Note_on_c, 2, 51, 0
4, 5222, Note_on_c, 2, 47, 64
4, 5274, Note_on_c, 2, 47, 0
4, 5282, Note_on_c, 2, 52, 64
4, 5360, Note_on_c, 2, 52, 0
4, 5372, Note_on_c, 2, 51, 64
4, 5398, Note_on_c, 2, 51, 0
4, 5402, Note_on_c, 2, 49, 64
4, 5480, Note_on_c, 2, 49, 0
4, 5492, Note_on_c, 2, 61, 64
4, 5518, Note_on_c, 2, 61, 0
4, 5522, Note_on_c, 2, 60, 64
4, 5548, Note_on_c, 2, 60, 0
4, 5552, Note_on_c, 2, 56, 64
4, 5578, Note_on_c, 2, 56, 0
4, 5582, Note_on_c, 2, 61, 64
4, 5608, Note_on_c, 2, 61, 0
4, 5612, Note_on_c, 2, 59, 64
4, 5638, Note_on_c, 2, 59, 0
4, 5642, Note_on_c, 2, 57, 64
4, 5668, Note_on_c, 2, 57, 0
4, 5672, Note_on_c, 2, 56, 64
4, 5698, Note_on_c, 2, 56, 0
4, 5702, Note_on_c, 2, 57, 64
4, 5728, Note_on_c, 2, 57, 0
4, 5732, Note_on_c, 2, 54, 64
4, 5758, Note_on_c, 2, 54, 0
4, 5762, Note_on_c, 2, 56, 64
4, 5840, Note_on_c, 2, 56, 0
4, 5852, Note_on_c, 2, 51, 64
4, 5878, Note_on_c, 2, 51, 0
4, 5882, Note_on_c, 2, 48, 64
4, 5934, Note_on_c, 2, 48, 0
4, 5942, Note_on_c, 2, 44, 64
4, 5994, Note_on_c, 2, 44, 0
4, 6002, Note_on_c, 2, 49, 64
4, 6294, Note_on_c, 2, 49, 0
4, 6572, Note_on_c, 2, 61, 64
4, 6598, Note_on_c, 2, 61, 0
4, 6602, Note_on_c, 2, 58, 64
4, 6654, Note_on_c, 2, 58, 0
4, 6662, Note_on_c, 2, 54, 64
4, 6714, Note_on_c, 2, 54, 0
4, 6722, Note_on_c, 2, 59, 64
4, 6800, Note_on_c, 2, 59, 0
4, 6812, Note_on_c, 2, 54, 64
4, 6838, Note_on_c, 2, 54, 0
4, 6842, Note_on_c, 2, 50, 64
4, 6894, Note_on_c, 2, 50, 0
4, 6902, Note_on_c, 2, 47, 64
4, 6954, Note_on_c, 2, 47, 0
4, 6962, Note_on_c, 2, 52, 64
4, 7040, Note_on_c, 2, 52, 0
4, 7052, Note_on_c, 2, 47, 64
4, 7078, Note_on_c, 2, 47, 0
4, 7082, Note_on_c, 2, 44, 64
4, 7134, Note_on_c, 2, 44, 0
4, 7142, Note_on_c, 2, 40, 64
4, 7194, Note_on_c, 2, 40, 0
4, 7202, Note_on_c, 2, 33, 64
4, 7228, Note_on_c, 2, 33, 0
4, 7232, Note_on_c, 2, 40, 64
4, 7258, Note_on_c, 2, 40, 0
4, 7262, Note_on_c, 2, 45, 64
4, 7288, Note_on_c, 2, 45, 0
4, 7292, Note_on_c, 2, 47, 64
4, 7318, Note_on_c, 2, 47, 0
4, 7322, Note_on_c, 2, 49, 64
4, 7348, Note_on_c, 2, 49, 0
4, 7352, Note_on_c, 2, 47, 64
4, 7378, Note_on_c, 2, 47, 0
4, 7382, Note_on_c, 2, 45, 64
4, 7408, Note_on_c, 2, 45, 0
4, 7412, Note_on_c, 2, 49, 64
4, 7438, Note_on_c, 2, 49, 0
4, 7442, Note_on_c, 2, 47, 64
4, 7468, Note_on_c, 2, 47, 0
4, 7472, Note_on_c, 2, 50, 64
4, 7498, Note_on_c, 2, 50, 0
4, 7502, Note_on_c, 2, 49, 64
4, 7588, Note_on_c, 2, 49, 0
4, 7592, Note_on_c, 2, 52, 64
4, 7618, Note_on_c, 2, 52, 0
4, 7622, Note_on_c, 2, 50, 64
4, 7708, Note_on_c, 2, 50, 0
4, 7712, Note_on_c, 2, 54, 64
4, 7738, Note_on_c, 2, 54, 0
4, 7742, Note_on_c, 2, 52, 64
4, 7768, Note_on_c, 2, 52, 0
4, 7772, Note_on_c, 2, 51, 64
4, 7798, Note_on_c, 2, 51, 0
4, 7802, Note_on_c, 2, 52, 64
4, 7828, Note_on_c, 2, 52, 0
4, 7832, Note_on_c, 2, 47, 64
4, 7858, Note_on_c, 2, 47, 0
4, 7862, Note_on_c, 2, 49, 64
4, 7888, Note_on_c, 2, 49, 0
4, 7892, Note_on_c, 2, 50, 64
4, 7918, Note_on_c, 2, 50, 0
4, 7922, Note_on_c, 2, 49, 64
4, 7948, Note_on_c, 2, 49, 0
4, 7952, Note_on_c, 2, 52, 64
4, 7978, Note_on_c, 2, 52, 0
4, 7982, Note_on_c, 2, 50, 64
4, 8008, Note_on_c, 2, 50, 0
4, 8012, Note_on_c, 2, 49, 64
4, 8038, Note_on_c, 2, 49, 0
4, 8042, Note_on_c, 2, 50, 64
4, 8068, Note_on_c, 2, 50, 0
4, 8072, Note_on_c, 2, 45, 64
4, 8098, Note_on_c, 2, 45, 0
4, 8102, Note_on_c, 2, 47, 64
4, 8128, Note_on_c, 2, 47, 0
4, 8132, Note_on_c, 2, 49, 64
4, 8158, Note_on_c, 2, 49, 0
4, 8162, Note_on_c, 2, 47, 64
4, 8188, Note_on_c, 2, 47, 0
4, 8192, Note_on_c, 2, 50, 64
4, 8218, Note_on_c, 2, 50, 0
4, 8222, Note_on_c, 2, 49, 64
4, 8248, Note_on_c, 2, 49, 0
4, 8252, Note_on_c, 2, 47, 64
4, 8278, Note_on_c, 2, 47, 0
4, 8282, Note_on_c, 2, 49, 64
4, 8308, Note_on_c, 2, 49, 0
4, 8312, Note_on_c, 2, 44, 64
4, 8338, Note_on_c, 2, 44, 0
4, 8342, Note_on_c, 2, 46, 64
4, 8368, Note_on_c, 2, 46, 0
4, 8372, Note_on_c, 2, 47, 64
4, 8398, Note_on_c, 2, 47, 0
4, 8402, Note_on_c, 2, 46, 64
4, 8428, Note_on_c, 2, 46, 0
4, 8432, Note_on_c, 2, 42, 64
4, 8458, Note_on_c, 2, 42, 0
4, 8462, Note_on_c, 2, 44, 64
4, 8488, Note_on_c, 2, 44, 0
4, 8492, Note_on_c, 2, 46, 64
4, 8518, Note_on_c, 2, 46, 0
4, 8522, Note_on_c, 2, 44, 64
4, 8548, Note_on_c, 2, 44, 0
4, 8552, Note_on_c, 2, 49, 64
4, 8578, Note_on_c, 2, 49, 0
4, 8582, Note_on_c, 2, 47, 64
4, 8608, Note_on_c, 2, 47, 0
4, 8612, Note_on_c, 2, 46, 64
4, 8638, Note_on_c, 2, 46, 0
4, 8642, Note_on_c, 2, 47, 64
4, 8668, Note_on_c, 2, 47, 0
4, 8672, Note_on_c, 2, 49, 64
4, 8698, Note_on_c, 2, 49, 0
4, 8702, Note_on_c, 2, 50, 64
4, 8728, Note_on_c, 2, 50, 0
4, 8732, Note_on_c, 2, 52, 64
4, 8758, Note_on_c, 2, 52, 0
4, 8762, Note_on_c, 2, 50, 64
4, 8788, Note_on_c, 2, 50, 0
4, 8792, Note_on_c, 2, 55, 64
4, 8818, Note_on_c, 2, 55, 0
4, 8822, Note_on_c, 2, 54, 64
4, 8848, Note_on_c, 2, 54, 0
4, 8852, Note_on_c, 2, 52, 64
4, 8878, Note_on_c, 2, 52, 0
4, 8882, Note_on_c, 2, 54, 64
4, 8908, Note_on_c, 2, 54, 0
4, 8912, Note_on_c, 2, 56, 64
4, 8938, Note_on_c, 2, 56, 0
4, 8942, Note_on_c, 2, 57, 64
4, 8968, Note_on_c, 2, 57, 0
4, 8972, Note_on_c, 2, 59, 64
4, 8998, Note_on_c, 2, 59, 0
4, 9002, Note_on_c, 2, 57, 64
4, 9028, Note_on_c, 2, 57, 0
4, 9032, Note_on_c, 2, 62, 64
4, 9058, Note_on_c, 2, 62, 0
4, 9062, Note_on_c, 2, 61, 64
4, 9088, Note_on_c, 2, 61, 0
4, 9092, Note_on_c, 2, 59, 64
4, 9118, Note_on_c, 2, 59, 0
4, 9122, Note_on_c, 2, 61, 64
4, 9148, Note_on_c, 2, 61, 0
4, 9152, Note_on_c, 2, 57, 64
4, 9178, Note_on_c, 2, 57, 0
4, 9182, Note_on_c, 2, 59, 64
4, 9208, Note_on_c, 2, 59, 0
4, 9212, Note_on_c, 2, 61, 64
4, 9238, Note_on_c, 2, 61, 0
4, 9242, Note_on_c, 2, 62, 64
4, 9320, Note_on_c, 2, 62, 0
4, 9332, Note_on_c, 2, 50, 64
4, 9358, Note_on_c, 2, 50, 0
4, 9362, Note_on_c, 2, 57, 64
4, 9440, Note_on_c, 2, 57, 0
4, 9452, Note_on_c, 2, 58, 64
4, 9478, Note_on_c, 2, 58, 0
4, 9482, Note_on_c, 2, 59, 64
4, 9560, Note_on_c, 2, 59, 0
4, 9572, Note_on_c, 2, 47, 64
4, 9598, Note_on_c, 2, 47, 0
4, 9602, Note_on_c, 2, 48, 64
4, 9680, Note_on_c, 2, 48, 0
4, 9692, Note_on_c, 2, 60, 64
4, 9718, Note_on_c, 2, 60, 0
4, 9722, Note_on_c, 2, 61, 64
4, 9800, Note_on_c, 2, 61, 0
4, 9812, Note_on_c, 2, 57, 64
4, 9838, Note_on_c, 2, 57, 0
4, 9842, Note_on_c, 2, 62, 64
4, 9868, Note_on_c, 2, 62, 0
4, 9872, Note_on_c, 2, 61, 64
4, 9898, Note_on_c, 2, 61, 0
4, 9902, Note_on_c, 2, 59, 64
4, 9928, Note_on_c, 2, 59, 0
4, 9932, Note_on_c, 2, 57, 64
4, 9958, Note_on_c, 2, 57, 0
4, 9962, Note_on_c, 2, 59, 64
4, 9988, Note_on_c, 2, 59, 0
4, 9992, Note_on_c, 2, 54, 64
4, 10018, Note_on_c, 2, 54, 0
4, 10022, Note_on_c, 2, 56, 64
4, 10048, Note_on_c, 2, 56, 0
4, 10052, Note_on_c, 2, 57, 64
4, 10078, Note_on_c, 2, 57, 0
4, 10082, Note_on_c, 2, 56, 64
4, 10108, Note_on_c, 2, 56, 0
4, 10112, Note_on_c, 2, 57, 64
4, 10138, Note_on_c, 2, 57, 0
4, 10142, Note_on_c, 2, 56, 64
4, 10168, Note_on_c, 2, 56, 0
4, 10172, Note_on_c, 2, 54, 64
4, 10198, Note_on_c, 2, 54, 0
4, 10202, Note_on_c, 2, 56, 64
4, 10228, Note_on_c, 2, 56, 0
4, 10232, Note_on_c, 2, 59, 64
4, 10258, Note_on_c, 2, 59, 0
4, 10262, Note_on_c, 2, 57, 64
4, 10288, Note_on_c, 2, 57, 0
4, 10292, Note_on_c, 2, 56, 64
4, 10318, Note_on_c, 2, 56, 0
4, 10322, Note_on_c, 2, 57, 64
4, 10348, Note_on_c, 2, 57, 0
4, 10352, Note_on_c, 2, 56, 64
4, 10378, Note_on_c, 2, 56, 0
4, 10382, Note_on_c, 2, 54, 64
4, 10408, Note_on_c, 2, 54, 0
4, 10412, Note_on_c, 2, 52, 64
4, 10438, Note_on_c, 2, 52, 0
4, 10442, Note_on_c, 2, 54, 64
4, 10468, Note_on_c, 2, 54, 0
4, 10472, Note_on_c, 2, 49, 64
4, 10498, Note_on_c, 2, 49, 0
4, 10502, Note_on_c, 2, 51, 64
4, 10528, Note_on_c, 2, 51, 0
4, 10532, Note_on_c, 2, 52, 64
4, 10558, Note_on_c, 2, 52, 0
4, 10562, Note_on_c, 2, 51, 64
4, 10588, Note_on_c, 2, 51, 0
4, 10592, Note_on_c, 2, 52, 64
4, 10618, Note_on_c, 2, 52, 0
4, 10622, Note_on_c, 2, 51, 64
4, 10648, Note_on_c, 2, 51, 0
4, 10652, Note_on_c, 2, 49, 64
4, 10678, Note_on_c, 2, 49, 0
4, 10682, Note_on_c, 2, 51, 64
4, 10708, Note_on_c, 2, 51, 0
4, 10712, Note_on_c, 2, 54, 64
4, 10738, Note_on_c, 2, 54, 0
4, 10742, Note_on_c, 2, 52, 64
4, 10768, Note_on_c, 2, 52, 0
4, 10772, Note_on_c, 2, 51, 64
4, 10798, Note_on_c, 2, 51, 0
4, 10802, Note_on_c, 2, 52, 64
4, 10880, Note_on_c, 2, 52, 0
4, 10892, Note_on_c, 2, 40, 64
4, 10918, Note_on_c, 2, 40, 0
4, 10922, Note_on_c, 2, 52, 64
4, 11000, Note_on_c, 2, 52, 0
4, 11012, Note_on_c, 2, 46, 64
4, 11038, Note_on_c, 2, 46, 0
4, 11042, Note_on_c, 2, 47, 64
4, 11120, Note_on_c, 2, 47, 0
4, 11132, Note_on_c, 2, 59, 64
4, 11158, Note_on_c, 2, 59, 0
4, 11162, Note_on_c, 2, 61, 64
4, 11240, Note_on_c, 2, 61, 0
4, 11252, Note_on_c, 2, 49, 64
4, 11278, Note_on_c, 2, 49, 0
4, 11282, Note_on_c, 2, 50, 64
4, 11360, Note_on_c, 2, 50, 0
4, 11372, Note_on_c, 2, 62, 64
4, 11398, Note_on_c, 2, 62, 0
4, 11402, Note_on_c, 2, 63, 64
4, 11480, Note_on_c, 2, 63, 0
4, 11492, Note_on_c, 2, 51, 64
4, 11518, Note_on_c, 2, 51, 0
4, 11522, Note_on_c, 2, 52, 64
4, 11574, Note_on_c, 2, 52, 0
4, 11792, Note_on_c, 2, 54, 64
4, 11818, Note_on_c, 2, 54, 0
4, 11822, Note_on_c, 2, 56, 64
4, 11848, Note_on_c, 2, 56, 0
4, 11852, Note_on_c, 2, 57, 64
4, 11878, Note_on_c, 2, 57, 0
4, 11882, Note_on_c, 2, 56, 64
4, 11908, Note_on_c, 2, 56, 0
4, 11912, Note_on_c, 2, 59, 64
4, 11938, Note_on_c, 2, 59, 0
4, 11942, Note_on_c, 2, 57, 64
4, 11968, Note_on_c, 2, 57, 0
4, 11972, Note_on_c, 2, 56, 64
4, 11998, Note_on_c, 2, 56, 0
4, 12002, Note_on_c, 2, 57, 64
4, 12107, Note_on_c, 2, 57, 0
4, 12272, Note_on_c, 2, 47, 64
4, 12298, Note_on_c, 2, 47, 0
4, 12302, Note_on_c, 2, 49, 64
4, 12328, Note_on_c, 2, 49, 0
4, 12332, Note_on_c, 2, 50, 64
4, 12358, Note_on_c, 2, 50, 0
4, 12362, Note_on_c, 2, 49, 64
4, 12388, Note_on_c, 2, 49, 0
4, 12392, Note_on_c, 2, 52, 64
4, 12418, Note_on_c, 2, 52, 0
4, 12422, Note_on_c, 2, 50, 64
4, 12448, Note_on_c, 2, 50, 0
4, 12452, Note_on_c, 2, 49, 64
4, 12478, Note_on_c, 2, 49, 0
4, 12482, Note_on_c, 2, 50, 64
4, 12508, Note_on_c, 2, 50, 0
4, 12512, Note_on_c, 2, 49, 64
4, 12538, Note_on_c, 2, 49, 0
4, 12542, Note_on_c, 2, 47, 64
4, 12568, Note_on_c, 2, 47, 0
4, 12572, Note_on_c, 2, 45, 64
4, 12598, Note_on_c, 2, 45, 0
4, 12602, Note_on_c, 2, 47, 64
4, 12628, Note_on_c, 2, 47, 0
4, 12632, Note_on_c, 2, 42, 64
4, 12658, Note_on_c, 2, 42, 0
4, 12662, Note_on_c, 2, 44, 64
4, 12688, Note_on_c, 2, 44, 0
4, 12692, Note_on_c, 2, 45, 64
4, 12718, Note_on_c, 2, 45, 0
4, 12722, Note_on_c, 2, 44, 64
4, 12748, Note_on_c, 2, 44, 0
4, 12752, Note_on_c, 2, 40, 64
4, 12778, Note_on_c, 2, 40, 0
4, 12782, Note_on_c, 2, 42, 64
4, 12808, Note_on_c, 2, 42, 0
4, 12812, Note_on_c, 2, 44, 64
4, 12838, Note_on_c, 2, 44, 0
4, 12842, Note_on_c, 2, 45, 64
4, 12868, Note_on_c, 2, 45, 0
4, 12872, Note_on_c, 2, 47, 64
4, 12898, Note_on_c, 2, 47, 0
4, 12902, Note_on_c, 2, 49, 64
4, 12928, Note_on_c, 2, 49, 0
4, 12932, Note_on_c, 2, 45, 64
4, 12958, Note_on_c, 2, 45, 0
4, 12962, Note_on_c, 2, 52, 64
4, 13040, Note_on_c, 2, 52, 0
4, 13052, Note_on_c, 2, 40, 64
4, 13078, Note_on_c, 2, 40, 0
4, 13082, Note_on_c, 2, 42, 64
4, 13160, Note_on_c, 2, 42, 0
4, 13172, Note_on_c, 2, 54, 64
4, 13198, Note_on_c, 2, 54, 0
4, 13202, Note_on_c, 2, 56, 64
4, 13228, Note_on_c, 2, 56, 0
4, 13232, Note_on_c, 2, 57, 64
4, 13258, Note_on_c, 2, 57, 0
4, 13262, Note_on_c, 2, 56, 64
4, 13288, Note_on_c, 2, 56, 0
4, 13292, Note_on_c, 2, 54, 64
4, 13318, Note_on_c, 2, 54, 0
4, 13322, Note_on_c, 2, 52, 64
4, 13348, Note_on_c, 2, 52, 0
4, 13352, Note_on_c, 2, 50, 64
4, 13378, Note_on_c, 2, 50, 0
4, 13382, Note_on_c, 2, 49, 64
4, 13408, Note_on_c, 2, 49, 0
4, 13412, Note_on_c, 2, 47, 64
4, 13438, Note_on_c, 2, 47, 0
4, 13442, Note_on_c, 2, 45, 64
4, 13494, Note_on_c, 2, 45, 0
4, 13502, Note_on_c, 2, 50, 64
4, 13554, Note_on_c, 2, 50, 0
4, 13562, Note_on_c, 2, 52, 64
4, 13667, Note_on_c, 2, 52, 0
4, 13682, Note_on_c, 2, 45, 64
4, 13907, Note_on_c, 2, 45, 0
4, 13907, End_track
0, 0, End_of_file
