0, 0, Header, 1, 4, 120
1, 0, Start_track
1, 0, Time_signature, 12, 3, 12, 8
1, 0, Key_signature, 3, "major"
1, 0, Tempo, 472441
1, 0, Marker_t, "(c) Yo Tomita, 1997"
1, 0, End_track
2, 0, Start_track
2, 0, MIDI_port, 0
2, 0, Title_t, "BWV 888/1"
2, 0, Program_c, 0, 6
2, 4, Note_on_c, 0, 64, 64
2, 56, Note_on_c, 0, 64, 0
2, 64, Note_on_c, 0, 69, 64
2, 116, Note_on_c, 0, 69, 0
2, 124, Note_on_c, 0, 68, 64
2, 176, Note_on_c, 0, 68, 0
2, 184, Note_on_c, 0, 69, 64
2, 236, Note_on_c, 0, 69, 0
2, 244, Note_on_c, 0, 73, 64
2, 296, Note_on_c, 0, 73, 0
2, 304, Note_on_c, 0, 71, 64
2, 356, Note_on_c, 0, 71, 0
2, 364, Note_on_c, 0, 73, 64
2, 776, Note_on_c, 0, 73, 0
2, 784, Note_on_c, 0, 71, 64
2, 836, Note_on_c, 0, 71, 0
2, 844, Note_on_c, 0, 69, 64
2, 896, Note_on_c, 0, 69, 0
2, 904, Note_on_c, 0, 71, 64
2, 956, Note_on_c, 0, 71, 0
2, 964, Note_on_c, 0, 74, 64
2, 1016, Note_on_c, 0, 74, 0
2, 1024, Note_on_c, 0, 73, 64
2, 1076, Note_on_c, 0, 73, 0
2, 1084, Note_on_c, 0, 74, 64
2, 1496, Note_on_c, 0, 74, 0
2, 1504, Note_on_c, 0, 73, 64
2, 1556, Note_on_c, 0, 73, 0
2, 1564, Note_on_c, 0, 71, 64
2, 1616, Note_on_c, 0, 71, 0
2, 1624, Note_on_c, 0, 73, 64
2, 1676, Note_on_c, 0, 73, 0
2, 1684, Note_on_c, 0, 76, 64
2, 1736, Note_on_c, 0, 76, 0
2, 1744, Note_on_c, 0, 74, 64
2, 1796, Note_on_c, 0, 74, 0
2, 1804, Note_on_c, 0, 76, 64
2, 1856, Note_on_c, 0, 76, 0
2, 1864, Note_on_c, 0, 74, 64
2, 1916, Note_on_c, 0, 74, 0
2, 1924, Note_on_c, 0, 73, 64
2, 1976, Note_on_c, 0, 73, 0
2, 1984, Note_on_c, 0, 74, 64
2, 2036, Note_on_c, 0, 74, 0
2, 2044, Note_on_c, 0, 78, 64
2, 2096, Note_on_c, 0, 78, 0
2, 2104, Note_on_c, 0, 76, 64
2, 2156, Note_on_c, 0, 76, 0
2, 2164, Note_on_c, 0, 78, 64
2, 2396, Note_on_c, 0, 78, 0
2, 2404, Note_on_c, 0, 80, 64
2, 2456, Note_on_c, 0, 80, 0
2, 2464, Note_on_c, 0, 81, 64
2, 2516, Note_on_c, 0, 81, 0
2, 2524, Note_on_c, 0, 83, 64
2, 2576, Note_on_c, 0, 83, 0
2, 2584, Note_on_c, 0, 76, 64
2, 2756, Note_on_c, 0, 76, 0
2, 2764, Note_on_c, 0, 78, 64
2, 2816, Note_on_c, 0, 78, 0
2, 2824, Note_on_c, 0, 80, 64
2, 2876, Note_on_c, 0, 80, 0
2, 2884, Note_on_c, 0, 81, 64
2, 2936, Note_on_c, 0, 81, 0
2, 2944, Note_on_c, 0, 74, 64
2, 3116, Note_on_c, 0, 74, 0
2, 3124, Note_on_c, 0, 76, 64
2, 3176, Note_on_c, 0, 76, 0
2, 3184, Note_on_c, 0, 74, 64
2, 3236, Note_on_c, 0, 74, 0
2, 3244, Note_on_c, 0, 73, 64
2, 3296, Note_on_c, 0, 73, 0
2, 3304, Note_on_c, 0, 74, 64
2, 3356, Note_on_c, 0, 74, 0
2, 3364, Note_on_c, 0, 76, 64
2, 3416, Note_on_c, 0, 76, 0
2, 3424, Note_on_c, 0, 74, 64
2, 3476, Note_on_c, 0, 74, 0
2, 3484, Note_on_c, 0, 76, 64
2, 3536, Note_on_c, 0, 76, 0
2, 3544, Note_on_c, 0, 73, 64
2, 3596, Note_on_c, 0, 73, 0
2, 3604, Note_on_c, 0, 71, 64
2, 3769, Note_on_c, 0, 71, 0
2, 3784, Note_on_c, 0, 76, 64
2, 4016, Note_on_c, 0, 76, 0
2, 4024, Note_on_c, 0, 78, 64
2, 4076, Note_on_c, 0, 78, 0
2, 4084, Note_on_c, 0, 76, 64
2, 4136, Note_on_c, 0, 76, 0
2, 4144, Note_on_c, 0, 76, 100
2, 4164, Note_on_c, 0, 74, 64
2, 4171, Note_on_c, 0, 76, 0
2, 4180, Note_on_c, 0, 76, 64
2, 4191, Note_on_c, 0, 74, 0
2, 4204, Note_on_c, 0, 74, 64
2, 4207, Note_on_c, 0, 76, 0
2, 4264, Note_on_c, 0, 73, 64
2, 4267, Note_on_c, 0, 74, 0
2, 4316, Note_on_c, 0, 73, 0
2, 4324, Note_on_c, 0, 74, 64
2, 4556, Note_on_c, 0, 74, 0
2, 4564, Note_on_c, 0, 74, 64
2, 4616, Note_on_c, 0, 74, 0
2, 4624, Note_on_c, 0, 73, 64
2, 4676, Note_on_c, 0, 73, 0
2, 4684, Note_on_c, 0, 74, 64
2, 4969, Note_on_c, 0, 74, 0
2, 4984, Note_on_c, 0, 83, 64
2, 5036, Note_on_c, 0, 83, 0
2, 5044, Note_on_c, 0, 76, 64
2, 5096, Note_on_c, 0, 76, 0
2, 5104, Note_on_c, 0, 78, 64
2, 5156, Note_on_c, 0, 78, 0
2, 5164, Note_on_c, 0, 76, 64
2, 5216, Note_on_c, 0, 76, 0
2, 5224, Note_on_c, 0, 75, 64
2, 5276, Note_on_c, 0, 75, 0
2, 5284, Note_on_c, 0, 76, 64
2, 5336, Note_on_c, 0, 76, 0
2, 5344, Note_on_c, 0, 78, 64
2, 5396, Note_on_c, 0, 78, 0
2, 5404, Note_on_c, 0, 71, 64
2, 5509, Note_on_c, 0, 71, 0
2, 5524, Note_on_c, 0, 73, 64
2, 5576, Note_on_c, 0, 73, 0
2, 5584, Note_on_c, 0, 69, 64
2, 5636, Note_on_c, 0, 69, 0
2, 5644, Note_on_c, 0, 68, 64
2, 5696, Note_on_c, 0, 68, 0
2, 5704, Note_on_c, 0, 69, 64
2, 5756, Note_on_c, 0, 69, 0
2, 5764, Note_on_c, 0, 68, 64
2, 5869, Note_on_c, 0, 68, 0
2, 5884, Note_on_c, 0, 69, 64
2, 5936, Note_on_c, 0, 69, 0
2, 5944, Note_on_c, 0, 68, 64
2, 5996, Note_on_c, 0, 68, 0
2, 6004, Note_on_c, 0, 66, 64
2, 6030, Note_on_c, 0, 66, 0
2, 6034, Note_on_c, 0, 64, 64
2, 6060, Note_on_c, 0, 64, 0
2, 6064, Note_on_c, 0, 66, 64
2, 6116, Note_on_c, 0, 66, 0
2, 6124, Note_on_c, 0, 83, 64
2, 6176, Note_on_c, 0, 83, 0
2, 6184, Note_on_c, 0, 76, 64
2, 6236, Note_on_c, 0, 76, 0
2, 6244, Note_on_c, 0, 78, 64
2, 6296, Note_on_c, 0, 78, 0
2, 6304, Note_on_c, 0, 76, 64
2, 6356, Note_on_c, 0, 76, 0
2, 6364, Note_on_c, 0, 73, 64
2, 6416, Note_on_c, 0, 73, 0
2, 6424, Note_on_c, 0, 74, 64
2, 6476, Note_on_c, 0, 74, 0
2, 6484, Note_on_c, 0, 73, 64
2, 6589, Note_on_c, 0, 73, 0
2, 6604, Note_on_c, 0, 69, 64
2, 6656, Note_on_c, 0, 69, 0
2, 6664, Note_on_c, 0, 79, 64
2, 6896, Note_on_c, 0, 79, 0
2, 6904, Note_on_c, 0, 73, 64
2, 6956, Note_on_c, 0, 73, 0
2, 6964, Note_on_c, 0, 74, 64
2, 7016, Note_on_c, 0, 74, 0
2, 7024, Note_on_c, 0, 73, 64
2, 7076, Note_on_c, 0, 73, 0
2, 7084, Note_on_c, 0, 70, 64
2, 7136, Note_on_c, 0, 70, 0
2, 7144, Note_on_c, 0, 71, 64
2, 7196, Note_on_c, 0, 71, 0
2, 7204, Note_on_c, 0, 76, 64
2, 7616, Note_on_c, 0, 76, 0
2, 7624, Note_on_c, 0, 74, 64
2, 7676, Note_on_c, 0, 74, 0
2, 7684, Note_on_c, 0, 73, 64
2, 7736, Note_on_c, 0, 73, 0
2, 7744, Note_on_c, 0, 74, 64
2, 7849, Note_on_c, 0, 74, 0
2, 7864, Note_on_c, 0, 76, 64
2, 7916, Note_on_c, 0, 76, 0
2, 7924, Note_on_c, 0, 73, 64
2, 8336, Note_on_c, 0, 73, 0
2, 8344, Note_on_c, 0, 71, 64
2, 8396, Note_on_c, 0, 71, 0
2, 8404, Note_on_c, 0, 69, 64
2, 8456, Note_on_c, 0, 69, 0
2, 8464, Note_on_c, 0, 71, 64
2, 8569, Note_on_c, 0, 71, 0
2, 8584, Note_on_c, 0, 73, 64
2, 8636, Note_on_c, 0, 73, 0
2, 8644, Note_on_c, 0, 69, 64
2, 8929, Note_on_c, 0, 69, 0
2, 8944, Note_on_c, 0, 74, 64
2, 8996, Note_on_c, 0, 74, 0
2, 9004, Note_on_c, 0, 68, 64
2, 9109, Note_on_c, 0, 68, 0
2, 9124, Note_on_c, 0, 73, 64
2, 9176, Note_on_c, 0, 73, 0
2, 9184, Note_on_c, 0, 74, 64
2, 9416, Note_on_c, 0, 74, 0
2, 9424, Note_on_c, 0, 72, 64
2, 9476, Note_on_c, 0, 72, 0
2, 9484, Note_on_c, 0, 73, 64
2, 9536, Note_on_c, 0, 73, 0
2, 9544, Note_on_c, 0, 78, 64
2, 9776, Note_on_c, 0, 78, 0
2, 9784, Note_on_c, 0, 75, 64
2, 9836, Note_on_c, 0, 75, 0
2, 9844, Note_on_c, 0, 77, 64
2, 9896, Note_on_c, 0, 77, 0
2, 9904, Note_on_c, 0, 81, 64
2, 10136, Note_on_c, 0, 81, 0
2, 10144, Note_on_c, 0, 80, 64
2, 10196, Note_on_c, 0, 80, 0
2, 10204, Note_on_c, 0, 78, 64
2, 10256, Note_on_c, 0, 78, 0
2, 10264, Note_on_c, 0, 80, 64
2, 10316, Note_on_c, 0, 80, 0
2, 10324, Note_on_c, 0, 81, 64
2, 10376, Note_on_c, 0, 81, 0
2, 10384, Note_on_c, 0, 83, 64
2, 10436, Note_on_c, 0, 83, 0
2, 10444, Note_on_c, 0, 77, 64
2, 10496, Note_on_c, 0, 77, 0
2, 10504, Note_on_c, 0, 73, 64
2, 10556, Note_on_c, 0, 73, 0
2, 10564, Note_on_c, 0, 78, 64
2, 10676, Note_on_c, 0, 78, 0
2, 10684, Note_on_c, 0, 80, 64
2, 10736, Note_on_c, 0, 80, 0
2, 10744, Note_on_c, 0, 77, 64
2, 10796, Note_on_c, 0, 77, 0
2, 10804, Note_on_c, 0, 78, 64
2, 10909, Note_on_c, 0, 78, 0
2, 10924, Note_on_c, 0, 73, 64
2, 10976, Note_on_c, 0, 73, 0
2, 10984, Note_on_c, 0, 78, 64
2, 11216, Note_on_c, 0, 78, 0
2, 11224, Note_on_c, 0, 76, 64
2, 11276, Note_on_c, 0, 76, 0
2, 11284, Note_on_c, 0, 74, 64
2, 11336, Note_on_c, 0, 74, 0
2, 11344, Note_on_c, 0, 76, 64
2, 11576, Note_on_c, 0, 76, 0
2, 11584, Note_on_c, 0, 68, 64
2, 11636, Note_on_c, 0, 68, 0
2, 11644, Note_on_c, 0, 69, 64
2, 11696, Note_on_c, 0, 69, 0
2, 11704, Note_on_c, 0, 74, 64
2, 11936, Note_on_c, 0, 74, 0
2, 11944, Note_on_c, 0, 73, 64
2, 11996, Note_on_c, 0, 73, 0
2, 12004, Note_on_c, 0, 71, 64
2, 12056, Note_on_c, 0, 71, 0
2, 12064, Note_on_c, 0, 73, 64
2, 12296, Note_on_c, 0, 73, 0
2, 12304, Note_on_c, 0, 71, 64
2, 12356, Note_on_c, 0, 71, 0
2, 12364, Note_on_c, 0, 69, 64
2, 12416, Note_on_c, 0, 69, 0
2, 12424, Note_on_c, 0, 71, 64
2, 12656, Note_on_c, 0, 71, 0
2, 12664, Note_on_c, 0, 68, 64
2, 12716, Note_on_c, 0, 68, 0
2, 12724, Note_on_c, 0, 69, 64
2, 12889, Note_on_c, 0, 69, 0
2, 12904, Note_on_c, 0, 69, 64
2, 12956, Note_on_c, 0, 69, 0
2, 12960, Note_on_c, 0, 69, 64
2, 13011, Note_on_c, 0, 69, 0
2, 13012, Note_on_c, 0, 68, 64
2, 13247, Note_on_c, 0, 68, 0
2, 13684, Note_on_c, 0, 64, 64
2, 13736, Note_on_c, 0, 64, 0
2, 13744, Note_on_c, 0, 69, 64
2, 13796, Note_on_c, 0, 69, 0
2, 13804, Note_on_c, 0, 68, 64
2, 13856, Note_on_c, 0, 68, 0
2, 13864, Note_on_c, 0, 69, 64
2, 13916, Note_on_c, 0, 69, 0
2, 13924, Note_on_c, 0, 73, 64
2, 13976, Note_on_c, 0, 73, 0
2, 13984, Note_on_c, 0, 71, 64
2, 14036, Note_on_c, 0, 71, 0
2, 14044, Note_on_c, 0, 73, 64
2, 14149, Note_on_c, 0, 73, 0
2, 14164, Note_on_c, 0, 71, 64
2, 14216, Note_on_c, 0, 71, 0
2, 14224, Note_on_c, 0, 73, 64
2, 14276, Note_on_c, 0, 73, 0
2, 14284, Note_on_c, 0, 76, 64
2, 14336, Note_on_c, 0, 76, 0
2, 14344, Note_on_c, 0, 74, 64
2, 14396, Note_on_c, 0, 74, 0
2, 14404, Note_on_c, 0, 76, 64
2, 14430, Note_on_c, 0, 76, 0
2, 14434, Note_on_c, 0, 78, 64
2, 14460, Note_on_c, 0, 78, 0
2, 14464, Note_on_c, 0, 79, 64
2, 14689, Note_on_c, 0, 79, 0
2, 14704, Note_on_c, 0, 69, 64
2, 14756, Note_on_c, 0, 69, 0
2, 14764, Note_on_c, 0, 76, 64
2, 14816, Note_on_c, 0, 76, 0
2, 14824, Note_on_c, 0, 69, 64
2, 14876, Note_on_c, 0, 69, 0
2, 14884, Note_on_c, 0, 71, 64
2, 14936, Note_on_c, 0, 71, 0
2, 14944, Note_on_c, 0, 69, 64
2, 14996, Note_on_c, 0, 69, 0
2, 15004, Note_on_c, 0, 66, 64
2, 15056, Note_on_c, 0, 66, 0
2, 15064, Note_on_c, 0, 67, 64
2, 15116, Note_on_c, 0, 67, 0
2, 15124, Note_on_c, 0, 66, 64
2, 15229, Note_on_c, 0, 66, 0
2, 15484, Note_on_c, 0, 62, 64
2, 15536, Note_on_c, 0, 62, 0
2, 15544, Note_on_c, 0, 69, 64
2, 15596, Note_on_c, 0, 69, 0
2, 15604, Note_on_c, 0, 67, 64
2, 15656, Note_on_c, 0, 67, 0
2, 15664, Note_on_c, 0, 69, 64
2, 15716, Note_on_c, 0, 69, 0
2, 15724, Note_on_c, 0, 73, 64
2, 15776, Note_on_c, 0, 73, 0
2, 15784, Note_on_c, 0, 71, 64
2, 15836, Note_on_c, 0, 71, 0
2, 15844, Note_on_c, 0, 73, 64
2, 16256, Note_on_c, 0, 73, 0
2, 16264, Note_on_c, 0, 71, 64
2, 16316, Note_on_c, 0, 71, 0
2, 16324, Note_on_c, 0, 70, 64
2, 16376, Note_on_c, 0, 70, 0
2, 16384, Note_on_c, 0, 71, 64
2, 16436, Note_on_c, 0, 71, 0
2, 16444, Note_on_c, 0, 74, 64
2, 16496, Note_on_c, 0, 74, 0
2, 16504, Note_on_c, 0, 73, 64
2, 16556, Note_on_c, 0, 73, 0
2, 16564, Note_on_c, 0, 74, 64
2, 17336, Note_on_c, 0, 74, 0
2, 17344, Note_on_c, 0, 76, 64
2, 17396, Note_on_c, 0, 76, 0
2, 17404, Note_on_c, 0, 78, 64
2, 17456, Note_on_c, 0, 78, 0
2, 17464, Note_on_c, 0, 79, 64
2, 17696, Note_on_c, 0, 79, 0
2, 17704, Note_on_c, 0, 78, 64
2, 17756, Note_on_c, 0, 78, 0
2, 17764, Note_on_c, 0, 76, 64
2, 17816, Note_on_c, 0, 76, 0
2, 17824, Note_on_c, 0, 78, 64
2, 18056, Note_on_c, 0, 78, 0
2, 18064, Note_on_c, 0, 76, 64
2, 18116, Note_on_c, 0, 76, 0
2, 18124, Note_on_c, 0, 74, 64
2, 18176, Note_on_c, 0, 74, 0
2, 18184, Note_on_c, 0, 76, 64
2, 18469, Note_on_c, 0, 76, 0
2, 18484, Note_on_c, 0, 74, 64
2, 18536, Note_on_c, 0, 74, 0
2, 18544, Note_on_c, 0, 73, 64
2, 18649, Note_on_c, 0, 73, 0
2, 18664, Note_on_c, 0, 74, 64
2, 18776, Note_on_c, 0, 74, 0
2, 18784, Note_on_c, 0, 73, 64
2, 18836, Note_on_c, 0, 73, 0
2, 18844, Note_on_c, 0, 71, 64
2, 18896, Note_on_c, 0, 71, 0
2, 18904, Note_on_c, 0, 73, 64
2, 18956, Note_on_c, 0, 73, 0
2, 18964, Note_on_c, 0, 76, 64
2, 19016, Note_on_c, 0, 76, 0
2, 19024, Note_on_c, 0, 74, 64
2, 19076, Note_on_c, 0, 74, 0
2, 19084, Note_on_c, 0, 76, 64
2, 19369, Note_on_c, 0, 76, 0
2, 19384, Note_on_c, 0, 78, 64
2, 19436, Note_on_c, 0, 78, 0
2, 19444, Note_on_c, 0, 71, 64
2, 19496, Note_on_c, 0, 71, 0
2, 19504, Note_on_c, 0, 76, 64
2, 19556, Note_on_c, 0, 76, 0
2, 19564, Note_on_c, 0, 75, 64
2, 19616, Note_on_c, 0, 75, 0
2, 19624, Note_on_c, 0, 76, 64
2, 19856, Note_on_c, 0, 76, 0
2, 19864, Note_on_c, 0, 74, 64
2, 19916, Note_on_c, 0, 74, 0
2, 19924, Note_on_c, 0, 73, 64
2, 19976, Note_on_c, 0, 73, 0
2, 19984, Note_on_c, 0, 74, 64
2, 20036, Note_on_c, 0, 74, 0
2, 20044, Note_on_c, 0, 78, 64
2, 20096, Note_on_c, 0, 78, 0
2, 20104, Note_on_c, 0, 76, 64
2, 20156, Note_on_c, 0, 76, 0
2, 20164, Note_on_c, 0, 78, 64
2, 20269, Note_on_c, 0, 78, 0
2, 20284, Note_on_c, 0, 76, 64
2, 20336, Note_on_c, 0, 76, 0
2, 20344, Note_on_c, 0, 74, 64
2, 20629, Note_on_c, 0, 74, 0
2, 20644, Note_on_c, 0, 73, 64
2, 20696, Note_on_c, 0, 73, 0
2, 20704, Note_on_c, 0, 66, 64
2, 20809, Note_on_c, 0, 66, 0
2, 20824, Note_on_c, 0, 71, 64
2, 20936, Note_on_c, 0, 71, 0
2, 20944, Note_on_c, 0, 64, 64
2, 20996, Note_on_c, 0, 64, 0
2, 21004, Note_on_c, 0, 69, 64
2, 21116, Note_on_c, 0, 69, 0
2, 21124, Note_on_c, 0, 71, 64
2, 21176, Note_on_c, 0, 71, 0
2, 21184, Note_on_c, 0, 68, 64
2, 21236, Note_on_c, 0, 68, 0
2, 21244, Note_on_c, 0, 69, 64
2, 21409, Note_on_c, 0, 69, 0
2, 21604, Note_on_c, 0, 57, 64
2, 21656, Note_on_c, 0, 57, 0
2, 21664, Note_on_c, 0, 64, 64
2, 21716, Note_on_c, 0, 64, 0
2, 21724, Note_on_c, 0, 62, 64
2, 21776, Note_on_c, 0, 62, 0
2, 21784, Note_on_c, 0, 64, 64
2, 21836, Note_on_c, 0, 64, 0
2, 21844, Note_on_c, 0, 67, 64
2, 21896, Note_on_c, 0, 67, 0
2, 21904, Note_on_c, 0, 66, 64
2, 21956, Note_on_c, 0, 66, 0
2, 21964, Note_on_c, 0, 67, 64
2, 22196, Note_on_c, 0, 67, 0
2, 22204, Note_on_c, 0, 69, 64
2, 22256, Note_on_c, 0, 69, 0
2, 22264, Note_on_c, 0, 61, 64
2, 22316, Note_on_c, 0, 61, 0
2, 22324, Note_on_c, 0, 62, 64
2, 22376, Note_on_c, 0, 62, 0
2, 22384, Note_on_c, 0, 66, 64
2, 22436, Note_on_c, 0, 66, 0
2, 22444, Note_on_c, 0, 64, 64
2, 22496, Note_on_c, 0, 64, 0
2, 22504, Note_on_c, 0, 66, 64
2, 22556, Note_on_c, 0, 66, 0
2, 22564, Note_on_c, 0, 69, 64
2, 22616, Note_on_c, 0, 69, 0
2, 22624, Note_on_c, 0, 67, 64
2, 22676, Note_on_c, 0, 67, 0
2, 22684, Note_on_c, 0, 69, 64
2, 22736, Note_on_c, 0, 69, 0
2, 22744, Note_on_c, 0, 74, 64
2, 22796, Note_on_c, 0, 74, 0
2, 22804, Note_on_c, 0, 73, 64
2, 22856, Note_on_c, 0, 73, 0
2, 22864, Note_on_c, 0, 74, 64
2, 22916, Note_on_c, 0, 74, 0
2, 22924, Note_on_c, 0, 78, 64
2, 22976, Note_on_c, 0, 78, 0
2, 22984, Note_on_c, 0, 76, 64
2, 23036, Note_on_c, 0, 76, 0
2, 23044, Note_on_c, 0, 78, 64
2, 23096, Note_on_c, 0, 78, 0
2, 23104, Note_on_c, 0, 81, 64
2, 23156, Note_on_c, 0, 81, 0
2, 23164, Note_on_c, 0, 80, 64
2, 23216, Note_on_c, 0, 80, 0
2, 23224, Note_on_c, 0, 81, 64
2, 23749, Note_on_c, 0, 81, 0
2, 23749, End_track
3, 0, Start_track
3, 0, MIDI_port, 0
3, 0, Title_t, "Prelude in A major"
3, 0, Program_c, 1, 6
3, 364, Note_on_c, 1, 57, 64
3, 416, Note_on_c, 1, 57, 0
3, 424, Note_on_c, 1, 64, 64
3, 476, Note_on_c, 1, 64, 0
3, 484, Note_on_c, 1, 62, 64
3, 536, Note_on_c, 1, 62, 0
3, 544, Note_on_c, 1, 64, 64
3, 596, Note_on_c, 1, 64, 0
3, 604, Note_on_c, 1, 68, 64
3, 656, Note_on_c, 1, 68, 0
3, 664, Note_on_c, 1, 66, 64
3, 716, Note_on_c, 1, 66, 0
3, 724, Note_on_c, 1, 68, 64
3, 1136, Note_on_c, 1, 68, 0
3, 1144, Note_on_c, 1, 66, 64
3, 1196, Note_on_c, 1, 66, 0
3, 1204, Note_on_c, 1, 64, 64
3, 1256, Note_on_c, 1, 64, 0
3, 1264, Note_on_c, 1, 66, 64
3, 1316, Note_on_c, 1, 66, 0
3, 1324, Note_on_c, 1, 69, 64
3, 1376, Note_on_c, 1, 69, 0
3, 1384, Note_on_c, 1, 68, 64
3, 1436, Note_on_c, 1, 68, 0
3, 1444, Note_on_c, 1, 69, 64
3, 2216, Note_on_c, 1, 69, 0
3, 2224, Note_on_c, 1, 71, 64
3, 2276, Note_on_c, 1, 71, 0
3, 2284, Note_on_c, 1, 73, 64
3, 2336, Note_on_c, 1, 73, 0
3, 2344, Note_on_c, 1, 74, 64
3, 2576, Note_on_c, 1, 74, 0
3, 2584, Note_on_c, 1, 73, 64
3, 2636, Note_on_c, 1, 73, 0
3, 2644, Note_on_c, 1, 71, 64
3, 2696, Note_on_c, 1, 71, 0
3, 2704, Note_on_c, 1, 73, 64
3, 2936, Note_on_c, 1, 73, 0
3, 2944, Note_on_c, 1, 71, 64
3, 2996, Note_on_c, 1, 71, 0
3, 3004, Note_on_c, 1, 69, 64
3, 3056, Note_on_c, 1, 69, 0
3, 3064, Note_on_c, 1, 71, 64
3, 3349, Note_on_c, 1, 71, 0
3, 3364, Note_on_c, 1, 69, 64
3, 3416, Note_on_c, 1, 69, 0
3, 3424, Note_on_c, 1, 68, 64
3, 3529, Note_on_c, 1, 68, 0
3, 3544, Note_on_c, 1, 69, 64
3, 3656, Note_on_c, 1, 69, 0
3, 3664, Note_on_c, 1, 68, 64
3, 3716, Note_on_c, 1, 68, 0
3, 3724, Note_on_c, 1, 66, 64
3, 3776, Note_on_c, 1, 66, 0
3, 3784, Note_on_c, 1, 68, 64
3, 3836, Note_on_c, 1, 68, 0
3, 3844, Note_on_c, 1, 71, 64
3, 3896, Note_on_c, 1, 71, 0
3, 3904, Note_on_c, 1, 69, 64
3, 3956, Note_on_c, 1, 69, 0
3, 3964, Note_on_c, 1, 71, 64
3, 4249, Note_on_c, 1, 71, 0
3, 4264, Note_on_c, 1, 66, 64
3, 4376, Note_on_c, 1, 66, 0
3, 4384, Note_on_c, 1, 71, 64
3, 4436, Note_on_c, 1, 71, 0
3, 4444, Note_on_c, 1, 70, 64
3, 4496, Note_on_c, 1, 70, 0
3, 4504, Note_on_c, 1, 71, 64
3, 4736, Note_on_c, 1, 71, 0
3, 4744, Note_on_c, 1, 69, 64
3, 4796, Note_on_c, 1, 69, 0
3, 4804, Note_on_c, 1, 68, 64
3, 4856, Note_on_c, 1, 68, 0
3, 4864, Note_on_c, 1, 69, 64
3, 4916, Note_on_c, 1, 69, 0
3, 4924, Note_on_c, 1, 73, 64
3, 4976, Note_on_c, 1, 73, 0
3, 4984, Note_on_c, 1, 71, 64
3, 5036, Note_on_c, 1, 71, 0
3, 5044, Note_on_c, 1, 73, 64
3, 5149, Note_on_c, 1, 73, 0
3, 5164, Note_on_c, 1, 71, 64
3, 5216, Note_on_c, 1, 71, 0
3, 5224, Note_on_c, 1, 69, 64
3, 5509, Note_on_c, 1, 69, 0
3, 5524, Note_on_c, 1, 68, 64
3, 5576, Note_on_c, 1, 68, 0
3, 5584, Note_on_c, 1, 66, 64
3, 5816, Note_on_c, 1, 66, 0
3, 5824, Note_on_c, 1, 63, 64
3, 5876, Note_on_c, 1, 63, 0
3, 5884, Note_on_c, 1, 64, 64
3, 5936, Note_on_c, 1, 64, 0
3, 5944, Note_on_c, 1, 64, 64
3, 6049, Note_on_c, 1, 64, 0
3, 6064, Note_on_c, 1, 63, 64
3, 6116, Note_on_c, 1, 63, 0
3, 6124, Note_on_c, 1, 64, 64
3, 6229, Note_on_c, 1, 64, 0
3, 6484, Note_on_c, 1, 69, 64
3, 6536, Note_on_c, 1, 69, 0
3, 6544, Note_on_c, 1, 64, 64
3, 6596, Note_on_c, 1, 64, 0
3, 6604, Note_on_c, 1, 66, 64
3, 6656, Note_on_c, 1, 66, 0
3, 6664, Note_on_c, 1, 64, 64
3, 6716, Note_on_c, 1, 64, 0
3, 6724, Note_on_c, 1, 61, 64
3, 6776, Note_on_c, 1, 61, 0
3, 6784, Note_on_c, 1, 62, 64
3, 6836, Note_on_c, 1, 62, 0
3, 6844, Note_on_c, 1, 61, 64
3, 6896, Note_on_c, 1, 61, 0
3, 7204, Note_on_c, 1, 61, 64
3, 7256, Note_on_c, 1, 61, 0
3, 7264, Note_on_c, 1, 68, 64
3, 7316, Note_on_c, 1, 68, 0
3, 7324, Note_on_c, 1, 66, 64
3, 7376, Note_on_c, 1, 66, 0
3, 7384, Note_on_c, 1, 68, 64
3, 7436, Note_on_c, 1, 68, 0
3, 7444, Note_on_c, 1, 71, 64
3, 7496, Note_on_c, 1, 71, 0
3, 7504, Note_on_c, 1, 70, 64
3, 7556, Note_on_c, 1, 70, 0
3, 7564, Note_on_c, 1, 71, 64
3, 7976, Note_on_c, 1, 71, 0
3, 7984, Note_on_c, 1, 64, 64
3, 8036, Note_on_c, 1, 64, 0
3, 8044, Note_on_c, 1, 62, 64
3, 8096, Note_on_c, 1, 62, 0
3, 8104, Note_on_c, 1, 64, 64
3, 8156, Note_on_c, 1, 64, 0
3, 8164, Note_on_c, 1, 68, 64
3, 8216, Note_on_c, 1, 68, 0
3, 8224, Note_on_c, 1, 66, 64
3, 8276, Note_on_c, 1, 66, 0
3, 8284, Note_on_c, 1, 68, 64
3, 8696, Note_on_c, 1, 68, 0
3, 8704, Note_on_c, 1, 66, 64
3, 8756, Note_on_c, 1, 66, 0
3, 8764, Note_on_c, 1, 65, 64
3, 8816, Note_on_c, 1, 65, 0
3, 8824, Note_on_c, 1, 66, 64
3, 9056, Note_on_c, 1, 66, 0
3, 9064, Note_on_c, 1, 65, 64
3, 9236, Note_on_c, 1, 65, 0
3, 9244, Note_on_c, 1, 66, 64
3, 9296, Note_on_c, 1, 66, 0
3, 9304, Note_on_c, 1, 68, 64
3, 9356, Note_on_c, 1, 68, 0
3, 9364, Note_on_c, 1, 69, 64
3, 9596, Note_on_c, 1, 69, 0
3, 9604, Note_on_c, 1, 68, 64
3, 9656, Note_on_c, 1, 68, 0
3, 9664, Note_on_c, 1, 66, 64
3, 9716, Note_on_c, 1, 66, 0
3, 9724, Note_on_c, 1, 68, 64
3, 9956, Note_on_c, 1, 68, 0
3, 9964, Note_on_c, 1, 65, 64
3, 10016, Note_on_c, 1, 65, 0
3, 10024, Note_on_c, 1, 66, 64
3, 10076, Note_on_c, 1, 66, 0
3, 10084, Note_on_c, 1, 71, 64
3, 10549, Note_on_c, 1, 71, 0
3, 10564, Note_on_c, 1, 69, 64
3, 10616, Note_on_c, 1, 69, 0
3, 10624, Note_on_c, 1, 68, 64
3, 10789, Note_on_c, 1, 68, 0
3, 10804, Note_on_c, 1, 69, 64
3, 11089, Note_on_c, 1, 69, 0
3, 11104, Note_on_c, 1, 69, 64
3, 11156, Note_on_c, 1, 69, 0
3, 11164, Note_on_c, 1, 68, 64
3, 11396, Note_on_c, 1, 68, 0
3, 11404, Note_on_c, 1, 69, 64
3, 11456, Note_on_c, 1, 69, 0
3, 11464, Note_on_c, 1, 68, 64
3, 11516, Note_on_c, 1, 68, 0
3, 11524, Note_on_c, 1, 66, 64
3, 11809, Note_on_c, 1, 66, 0
3, 11824, Note_on_c, 1, 66, 64
3, 11876, Note_on_c, 1, 66, 0
3, 11884, Note_on_c, 1, 64, 64
3, 12169, Note_on_c, 1, 64, 0
3, 12184, Note_on_c, 1, 64, 64
3, 12236, Note_on_c, 1, 64, 0
3, 12244, Note_on_c, 1, 62, 64
3, 12529, Note_on_c, 1, 62, 0
3, 12544, Note_on_c, 1, 62, 64
3, 12596, Note_on_c, 1, 62, 0
3, 12604, Note_on_c, 1, 61, 64
3, 12769, Note_on_c, 1, 61, 0
3, 12784, Note_on_c, 1, 60, 64
3, 12836, Note_on_c, 1, 60, 0
3, 12844, Note_on_c, 1, 59, 64
3, 12896, Note_on_c, 1, 59, 0
3, 12904, Note_on_c, 1, 60, 64
3, 12956, Note_on_c, 1, 60, 0
3, 12964, Note_on_c, 1, 59, 64
3, 13249, Note_on_c, 1, 59, 0
3, 13264, Note_on_c, 1, 64, 64
3, 13316, Note_on_c, 1, 64, 0
3, 13324, Note_on_c, 1, 71, 64
3, 13376, Note_on_c, 1, 71, 0
3, 13384, Note_on_c, 1, 64, 64
3, 13436, Note_on_c, 1, 64, 0
3, 13444, Note_on_c, 1, 66, 64
3, 13496, Note_on_c, 1, 66, 0
3, 13504, Note_on_c, 1, 64, 64
3, 13556, Note_on_c, 1, 64, 0
3, 13564, Note_on_c, 1, 61, 64
3, 13616, Note_on_c, 1, 61, 0
3, 13624, Note_on_c, 1, 62, 64
3, 13676, Note_on_c, 1, 62, 0
3, 13684, Note_on_c, 1, 61, 64
3, 13789, Note_on_c, 1, 61, 0
3, 13804, Note_on_c, 1, 59, 64
3, 13856, Note_on_c, 1, 59, 0
3, 13864, Note_on_c, 1, 61, 64
3, 13969, Note_on_c, 1, 61, 0
3, 13984, Note_on_c, 1, 62, 64
3, 14036, Note_on_c, 1, 62, 0
3, 14044, Note_on_c, 1, 64, 64
3, 14096, Note_on_c, 1, 64, 0
3, 14104, Note_on_c, 1, 69, 64
3, 14156, Note_on_c, 1, 69, 0
3, 14164, Note_on_c, 1, 68, 64
3, 14216, Note_on_c, 1, 68, 0
3, 14224, Note_on_c, 1, 69, 64
3, 14276, Note_on_c, 1, 69, 0
3, 14284, Note_on_c, 1, 73, 64
3, 14336, Note_on_c, 1, 73, 0
3, 14344, Note_on_c, 1, 71, 64
3, 14396, Note_on_c, 1, 71, 0
3, 14404, Note_on_c, 1, 73, 64
3, 14689, Note_on_c, 1, 73, 0
3, 15124, Note_on_c, 1, 57, 64
3, 15176, Note_on_c, 1, 57, 0
3, 15184, Note_on_c, 1, 62, 64
3, 15236, Note_on_c, 1, 62, 0
3, 15244, Note_on_c, 1, 61, 64
3, 15296, Note_on_c, 1, 61, 0
3, 15304, Note_on_c, 1, 62, 64
3, 15356, Note_on_c, 1, 62, 0
3, 15364, Note_on_c, 1, 66, 64
3, 15416, Note_on_c, 1, 66, 0
3, 15424, Note_on_c, 1, 64, 64
3, 15476, Note_on_c, 1, 64, 0
3, 15484, Note_on_c, 1, 66, 64
3, 15896, Note_on_c, 1, 66, 0
3, 15904, Note_on_c, 1, 64, 64
3, 15956, Note_on_c, 1, 64, 0
3, 15964, Note_on_c, 1, 62, 64
3, 16016, Note_on_c, 1, 62, 0
3, 16024, Note_on_c, 1, 64, 64
3, 16076, Note_on_c, 1, 64, 0
3, 16084, Note_on_c, 1, 67, 64
3, 16136, Note_on_c, 1, 67, 0
3, 16144, Note_on_c, 1, 66, 64
3, 16196, Note_on_c, 1, 66, 0
3, 16204, Note_on_c, 1, 67, 64
3, 16616, Note_on_c, 1, 67, 0
3, 16624, Note_on_c, 1, 66, 64
3, 16676, Note_on_c, 1, 66, 0
3, 16684, Note_on_c, 1, 64, 64
3, 16736, Note_on_c, 1, 64, 0
3, 16744, Note_on_c, 1, 66, 64
3, 16796, Note_on_c, 1, 66, 0
3, 16804, Note_on_c, 1, 70, 64
3, 16856, Note_on_c, 1, 70, 0
3, 16864, Note_on_c, 1, 68, 64
3, 16916, Note_on_c, 1, 68, 0
3, 16924, Note_on_c, 1, 70, 64
3, 16976, Note_on_c, 1, 70, 0
3, 16984, Note_on_c, 1, 68, 64
3, 17036, Note_on_c, 1, 68, 0
3, 17044, Note_on_c, 1, 66, 64
3, 17096, Note_on_c, 1, 66, 0
3, 17104, Note_on_c, 1, 68, 64
3, 17156, Note_on_c, 1, 68, 0
3, 17164, Note_on_c, 1, 71, 64
3, 17216, Note_on_c, 1, 71, 0
3, 17224, Note_on_c, 1, 70, 64
3, 17276, Note_on_c, 1, 70, 0
3, 17284, Note_on_c, 1, 71, 64
3, 17516, Note_on_c, 1, 71, 0
3, 17524, Note_on_c, 1, 73, 64
3, 17576, Note_on_c, 1, 73, 0
3, 17584, Note_on_c, 1, 74, 64
3, 17636, Note_on_c, 1, 74, 0
3, 17644, Note_on_c, 1, 76, 64
3, 17696, Note_on_c, 1, 76, 0
3, 17704, Note_on_c, 1, 69, 64
3, 17876, Note_on_c, 1, 69, 0
3, 17884, Note_on_c, 1, 71, 64
3, 17936, Note_on_c, 1, 71, 0
3, 17944, Note_on_c, 1, 73, 64
3, 17996, Note_on_c, 1, 73, 0
3, 18004, Note_on_c, 1, 74, 64
3, 18056, Note_on_c, 1, 74, 0
3, 18064, Note_on_c, 1, 67, 64
3, 18236, Note_on_c, 1, 67, 0
3, 18244, Note_on_c, 1, 69, 64
3, 18296, Note_on_c, 1, 69, 0
3, 18304, Note_on_c, 1, 67, 64
3, 18356, Note_on_c, 1, 67, 0
3, 18364, Note_on_c, 1, 66, 64
3, 18416, Note_on_c, 1, 66, 0
3, 18424, Note_on_c, 1, 67, 64
3, 18476, Note_on_c, 1, 67, 0
3, 18484, Note_on_c, 1, 69, 64
3, 18536, Note_on_c, 1, 69, 0
3, 18544, Note_on_c, 1, 67, 64
3, 18596, Note_on_c, 1, 67, 0
3, 18604, Note_on_c, 1, 69, 64
3, 18656, Note_on_c, 1, 69, 0
3, 18664, Note_on_c, 1, 66, 64
3, 18716, Note_on_c, 1, 66, 0
3, 18724, Note_on_c, 1, 64, 64
3, 18889, Note_on_c, 1, 64, 0
3, 18904, Note_on_c, 1, 69, 64
3, 19136, Note_on_c, 1, 69, 0
3, 19144, Note_on_c, 1, 71, 64
3, 19196, Note_on_c, 1, 71, 0
3, 19204, Note_on_c, 1, 69, 64
3, 19256, Note_on_c, 1, 69, 0
3, 19264, Note_on_c, 1, 67, 64
3, 19316, Note_on_c, 1, 67, 0
3, 19324, Note_on_c, 1, 69, 64
3, 19376, Note_on_c, 1, 69, 0
3, 19384, Note_on_c, 1, 66, 64
3, 19436, Note_on_c, 1, 66, 0
3, 19444, Note_on_c, 1, 67, 64
3, 19676, Note_on_c, 1, 67, 0
3, 19684, Note_on_c, 1, 66, 64
3, 19736, Note_on_c, 1, 66, 0
3, 19744, Note_on_c, 1, 67, 64
3, 19796, Note_on_c, 1, 67, 0
3, 19804, Note_on_c, 1, 66, 64
3, 20089, Note_on_c, 1, 66, 0
3, 20104, Note_on_c, 1, 69, 64
3, 20156, Note_on_c, 1, 69, 0
3, 20164, Note_on_c, 1, 66, 64
3, 20216, Note_on_c, 1, 66, 0
3, 20224, Note_on_c, 1, 68, 64
3, 20276, Note_on_c, 1, 68, 0
3, 20284, Note_on_c, 1, 69, 64
3, 20396, Note_on_c, 1, 69, 0
3, 20404, Note_on_c, 1, 68, 64
3, 20456, Note_on_c, 1, 68, 0
3, 20464, Note_on_c, 1, 71, 64
3, 20516, Note_on_c, 1, 71, 0
3, 20524, Note_on_c, 1, 64, 64
3, 20689, Note_on_c, 1, 64, 0
3, 20704, Note_on_c, 1, 62, 64
3, 20869, Note_on_c, 1, 62, 0
3, 20884, Note_on_c, 1, 61, 64
3, 21049, Note_on_c, 1, 61, 0
3, 21064, Note_on_c, 1, 59, 64
3, 21229, Note_on_c, 1, 59, 0
3, 21244, Note_on_c, 1, 57, 64
3, 21296, Note_on_c, 1, 57, 0
3, 21304, Note_on_c, 1, 52, 64
3, 21356, Note_on_c, 1, 52, 0
3, 21364, Note_on_c, 1, 54, 64
3, 21416, Note_on_c, 1, 54, 0
3, 21424, Note_on_c, 1, 52, 64
3, 21476, Note_on_c, 1, 52, 0
3, 21484, Note_on_c, 1, 49, 64
3, 21536, Note_on_c, 1, 49, 0
3, 21544, Note_on_c, 1, 50, 64
3, 21596, Note_on_c, 1, 50, 0
3, 21604, Note_on_c, 1, 49, 64
3, 21709, Note_on_c, 1, 49, 0
3, 21964, Note_on_c, 1, 64, 64
3, 22016, Note_on_c, 1, 64, 0
3, 22024, Note_on_c, 1, 57, 64
3, 22076, Note_on_c, 1, 57, 0
3, 22084, Note_on_c, 1, 59, 64
3, 22136, Note_on_c, 1, 59, 0
3, 22144, Note_on_c, 1, 57, 64
3, 22196, Note_on_c, 1, 57, 0
3, 22204, Note_on_c, 1, 54, 64
3, 22256, Note_on_c, 1, 54, 0
3, 22264, Note_on_c, 1, 55, 64
3, 22316, Note_on_c, 1, 55, 0
3, 22324, Note_on_c, 1, 54, 64
3, 22376, Note_on_c, 1, 54, 0
3, 22384, Note_on_c, 1, 50, 64
3, 22436, Note_on_c, 1, 50, 0
3, 22444, Note_on_c, 1, 49, 64
3, 22496, Note_on_c, 1, 49, 0
3, 22504, Note_on_c, 1, 50, 64
3, 22556, Note_on_c, 1, 50, 0
3, 22564, Note_on_c, 1, 54, 64
3, 22616, Note_on_c, 1, 54, 0
3, 22624, Note_on_c, 1, 52, 64
3, 22676, Note_on_c, 1, 52, 0
3, 22684, Note_on_c, 1, 54, 64
3, 22736, Note_on_c, 1, 54, 0
3, 22744, Note_on_c, 1, 66, 64
3, 22796, Note_on_c, 1, 66, 0
3, 22804, Note_on_c, 1, 64, 64
3, 22856, Note_on_c, 1, 64, 0
3, 22864, Note_on_c, 1, 66, 64
3, 22916, Note_on_c, 1, 66, 0
3, 22924, Note_on_c, 1, 74, 64
3, 22976, Note_on_c, 1, 74, 0
3, 22984, Note_on_c, 1, 73, 64
3, 23036, Note_on_c, 1, 73, 0
3, 23044, Note_on_c, 1, 74, 64
3, 23044, Note_on_c, 1, 78, 64
3, 23276, Note_on_c, 1, 78, 0
3, 23276, Note_on_c, 1, 74, 0
3, 23284, Note_on_c, 1, 73, 64
3, 23284, Note_on_c, 1, 76, 64
3, 23336, Note_on_c, 1, 76, 0
3, 23336, Note_on_c, 1, 73, 0
3, 23344, Note_on_c, 1, 71, 64
3, 23344, Note_on_c, 1, 74, 64
3, 23396, Note_on_c, 1, 74, 0
3, 23396, Note_on_c, 1, 71, 0
3, 23404, Note_on_c, 1, 73, 64
3, 23404, Note_on_c, 1, 76, 64
3, 23749, Note_on_c, 1, 76, 0
3, 23749, Note_on_c, 1, 73, 0
3, 23749, End_track
4, 0, Start_track
4, 0, MIDI_port, 0
4, 0, Title_t, "from WTC II"
4, 0, Program_c, 2, 6
4, 4, Note_on_c, 2, 57, 64
4, 109, Note_on_c, 2, 57, 0
4, 124, Note_on_c, 2, 52, 64
4, 176, Note_on_c, 2, 52, 0
4, 184, Note_on_c, 2, 49, 64
4, 289, Note_on_c, 2, 49, 0
4, 304, Note_on_c, 2, 52, 64
4, 356, Note_on_c, 2, 52, 0
4, 364, Note_on_c, 2, 45, 64
4, 469, Note_on_c, 2, 45, 0
4, 484, Note_on_c, 2, 47, 64
4, 536, Note_on_c, 2, 47, 0
4, 544, Note_on_c, 2, 49, 64
4, 649, Note_on_c, 2, 49, 0
4, 664, Note_on_c, 2, 45, 64
4, 716, Note_on_c, 2, 45, 0
4, 724, Note_on_c, 2, 52, 64
4, 829, Note_on_c, 2, 52, 0
4, 844, Note_on_c, 2, 40, 64
4, 896, Note_on_c, 2, 40, 0
4, 904, Note_on_c, 2, 40, 64
4, 1009, Note_on_c, 2, 40, 0
4, 1024, Note_on_c, 2, 52, 64
4, 1076, Note_on_c, 2, 52, 0
4, 1084, Note_on_c, 2, 52, 64
4, 1189, Note_on_c, 2, 52, 0
4, 1204, Note_on_c, 2, 50, 64
4, 1256, Note_on_c, 2, 50, 0
4, 1264, Note_on_c, 2, 49, 64
4, 1369, Note_on_c, 2, 49, 0
4, 1384, Note_on_c, 2, 47, 64
4, 1436, Note_on_c, 2, 47, 0
4, 1444, Note_on_c, 2, 45, 64
4, 1496, Note_on_c, 2, 45, 0
4, 1504, Note_on_c, 2, 57, 64
4, 1556, Note_on_c, 2, 57, 0
4, 1564, Note_on_c, 2, 56, 64
4, 1616, Note_on_c, 2, 56, 0
4, 1624, Note_on_c, 2, 57, 64
4, 1676, Note_on_c, 2, 57, 0
4, 1684, Note_on_c, 2, 61, 64
4, 1736, Note_on_c, 2, 61, 0
4, 1744, Note_on_c, 2, 59, 64
4, 1796, Note_on_c, 2, 59, 0
4, 1804, Note_on_c, 2, 61, 64
4, 1856, Note_on_c, 2, 61, 0
4, 1864, Note_on_c, 2, 59, 64
4, 1916, Note_on_c, 2, 59, 0
4, 1924, Note_on_c, 2, 57, 64
4, 1976, Note_on_c, 2, 57, 0
4, 1984, Note_on_c, 2, 59, 64
4, 2036, Note_on_c, 2, 59, 0
4, 2044, Note_on_c, 2, 62, 64
4, 2096, Note_on_c, 2, 62, 0
4, 2104, Note_on_c, 2, 61, 64
4, 2156, Note_on_c, 2, 61, 0
4, 2164, Note_on_c, 2, 62, 64
4, 2269, Note_on_c, 2, 62, 0
4, 2284, Note_on_c, 2, 61, 64
4, 2336, Note_on_c, 2, 61, 0
4, 2344, Note_on_c, 2, 59, 64
4, 2449, Note_on_c, 2, 59, 0
4, 2464, Note_on_c, 2, 57, 64
4, 2516, Note_on_c, 2, 57, 0
4, 2524, Note_on_c, 2, 56, 64
4, 2629, Note_on_c, 2, 56, 0
4, 2704, Note_on_c, 2, 57, 64
4, 2809, Note_on_c, 2, 57, 0
4, 2884, Note_on_c, 2, 54, 64
4, 2989, Note_on_c, 2, 54, 0
4, 3064, Note_on_c, 2, 56, 64
4, 3169, Note_on_c, 2, 56, 0
4, 3244, Note_on_c, 2, 57, 64
4, 3349, Note_on_c, 2, 57, 0
4, 3364, Note_on_c, 2, 49, 64
4, 3416, Note_on_c, 2, 49, 0
4, 3424, Note_on_c, 2, 47, 64
4, 3529, Note_on_c, 2, 47, 0
4, 3544, Note_on_c, 2, 45, 64
4, 3596, Note_on_c, 2, 45, 0
4, 3604, Note_on_c, 2, 40, 64
4, 3656, Note_on_c, 2, 40, 0
4, 3664, Note_on_c, 2, 52, 64
4, 3716, Note_on_c, 2, 52, 0
4, 3724, Note_on_c, 2, 51, 64
4, 3776, Note_on_c, 2, 51, 0
4, 3784, Note_on_c, 2, 52, 64
4, 3836, Note_on_c, 2, 52, 0
4, 3844, Note_on_c, 2, 56, 64
4, 3896, Note_on_c, 2, 56, 0
4, 3904, Note_on_c, 2, 54, 64
4, 3956, Note_on_c, 2, 54, 0
4, 3964, Note_on_c, 2, 56, 64
4, 4196, Note_on_c, 2, 56, 0
4, 4204, Note_on_c, 2, 59, 64
4, 4256, Note_on_c, 2, 59, 0
4, 4264, Note_on_c, 2, 58, 64
4, 4316, Note_on_c, 2, 58, 0
4, 4324, Note_on_c, 2, 59, 64
4, 4376, Note_on_c, 2, 59, 0
4, 4384, Note_on_c, 2, 62, 64
4, 4436, Note_on_c, 2, 62, 0
4, 4444, Note_on_c, 2, 61, 64
4, 4496, Note_on_c, 2, 61, 0
4, 4504, Note_on_c, 2, 62, 64
4, 4556, Note_on_c, 2, 62, 0
4, 4564, Note_on_c, 2, 66, 64
4, 4616, Note_on_c, 2, 66, 0
4, 4624, Note_on_c, 2, 64, 64
4, 4676, Note_on_c, 2, 64, 0
4, 4684, Note_on_c, 2, 66, 64
4, 4916, Note_on_c, 2, 66, 0
4, 4924, Note_on_c, 2, 69, 64
4, 4976, Note_on_c, 2, 69, 0
4, 4984, Note_on_c, 2, 68, 64
4, 5036, Note_on_c, 2, 68, 0
4, 5044, Note_on_c, 2, 69, 64
4, 5149, Note_on_c, 2, 69, 0
4, 5164, Note_on_c, 2, 68, 64
4, 5216, Note_on_c, 2, 68, 0
4, 5224, Note_on_c, 2, 66, 64
4, 5329, Note_on_c, 2, 66, 0
4, 5344, Note_on_c, 2, 64, 64
4, 5396, Note_on_c, 2, 64, 0
4, 5404, Note_on_c, 2, 63, 64
4, 5456, Note_on_c, 2, 63, 0
4, 5464, Note_on_c, 2, 59, 64
4, 5516, Note_on_c, 2, 59, 0
4, 5524, Note_on_c, 2, 64, 64
4, 5576, Note_on_c, 2, 64, 0
4, 5584, Note_on_c, 2, 64, 64
4, 5689, Note_on_c, 2, 64, 0
4, 5704, Note_on_c, 2, 63, 64
4, 5756, Note_on_c, 2, 63, 0
4, 5764, Note_on_c, 2, 64, 64
4, 5816, Note_on_c, 2, 64, 0
4, 5824, Note_on_c, 2, 59, 64
4, 5876, Note_on_c, 2, 59, 0
4, 5884, Note_on_c, 2, 61, 64
4, 5936, Note_on_c, 2, 61, 0
4, 5944, Note_on_c, 2, 59, 64
4, 5996, Note_on_c, 2, 59, 0
4, 6004, Note_on_c, 2, 56, 64
4, 6056, Note_on_c, 2, 56, 0
4, 6064, Note_on_c, 2, 57, 64
4, 6116, Note_on_c, 2, 57, 0
4, 6124, Note_on_c, 2, 56, 64
4, 6409, Note_on_c, 2, 56, 0
4, 6424, Note_on_c, 2, 52, 64
4, 6476, Note_on_c, 2, 52, 0
4, 6484, Note_on_c, 2, 57, 64
4, 6769, Note_on_c, 2, 57, 0
4, 6784, Note_on_c, 2, 59, 64
4, 6836, Note_on_c, 2, 59, 0
4, 6844, Note_on_c, 2, 57, 64
4, 6896, Note_on_c, 2, 57, 0
4, 6904, Note_on_c, 2, 52, 64
4, 6956, Note_on_c, 2, 52, 0
4, 6964, Note_on_c, 2, 54, 64
4, 7016, Note_on_c, 2, 54, 0
4, 7024, Note_on_c, 2, 52, 64
4, 7076, Note_on_c, 2, 52, 0
4, 7084, Note_on_c, 2, 49, 64
4, 7136, Note_on_c, 2, 49, 0
4, 7144, Note_on_c, 2, 50, 64
4, 7196, Note_on_c, 2, 50, 0
4, 7204, Note_on_c, 2, 49, 64
4, 7489, Note_on_c, 2, 49, 0
4, 7504, Note_on_c, 2, 42, 64
4, 7556, Note_on_c, 2, 42, 0
4, 7564, Note_on_c, 2, 47, 64
4, 7616, Note_on_c, 2, 47, 0
4, 7624, Note_on_c, 2, 54, 64
4, 7676, Note_on_c, 2, 54, 0
4, 7684, Note_on_c, 2, 52, 64
4, 7736, Note_on_c, 2, 52, 0
4, 7744, Note_on_c, 2, 54, 64
4, 7796, Note_on_c, 2, 54, 0
4, 7804, Note_on_c, 2, 57, 64
4, 7856, Note_on_c, 2, 57, 0
4, 7864, Note_on_c, 2, 56, 64
4, 7916, Note_on_c, 2, 56, 0
4, 7924, Note_on_c, 2, 57, 64
4, 8089, Note_on_c, 2, 57, 0
4, 8224, Note_on_c, 2, 45, 64
4, 8276, Note_on_c, 2, 45, 0
4, 8284, Note_on_c, 2, 41, 64
4, 8336, Note_on_c, 2, 41, 0
4, 8344, Note_on_c, 2, 50, 64
4, 8396, Note_on_c, 2, 50, 0
4, 8404, Note_on_c, 2, 49, 64
4, 8456, Note_on_c, 2, 49, 0
4, 8464, Note_on_c, 2, 51, 64
4, 8516, Note_on_c, 2, 51, 0
4, 8524, Note_on_c, 2, 54, 64
4, 8576, Note_on_c, 2, 54, 0
4, 8584, Note_on_c, 2, 53, 64
4, 8636, Note_on_c, 2, 53, 0
4, 8644, Note_on_c, 2, 54, 64
4, 8696, Note_on_c, 2, 54, 0
4, 8704, Note_on_c, 2, 57, 64
4, 8756, Note_on_c, 2, 57, 0
4, 8764, Note_on_c, 2, 56, 64
4, 8816, Note_on_c, 2, 56, 0
4, 8824, Note_on_c, 2, 57, 64
4, 8876, Note_on_c, 2, 57, 0
4, 8884, Note_on_c, 2, 61, 64
4, 8936, Note_on_c, 2, 61, 0
4, 8944, Note_on_c, 2, 59, 64
4, 8996, Note_on_c, 2, 59, 0
4, 9004, Note_on_c, 2, 61, 64
4, 10069, Note_on_c, 2, 61, 0
4, 10084, Note_on_c, 2, 62, 64
4, 10316, Note_on_c, 2, 62, 0
4, 10324, Note_on_c, 2, 61, 64
4, 10376, Note_on_c, 2, 61, 0
4, 10384, Note_on_c, 2, 59, 64
4, 10436, Note_on_c, 2, 59, 0
4, 10444, Note_on_c, 2, 61, 64
4, 10729, Note_on_c, 2, 61, 0
4, 10744, Note_on_c, 2, 49, 64
4, 10796, Note_on_c, 2, 49, 0
4, 10804, Note_on_c, 2, 54, 64
4, 10856, Note_on_c, 2, 54, 0
4, 10864, Note_on_c, 2, 57, 64
4, 10916, Note_on_c, 2, 57, 0
4, 10924, Note_on_c, 2, 56, 64
4, 10976, Note_on_c, 2, 56, 0
4, 10984, Note_on_c, 2, 57, 64
4, 11036, Note_on_c, 2, 57, 0
4, 11044, Note_on_c, 2, 61, 64
4, 11096, Note_on_c, 2, 61, 0
4, 11104, Note_on_c, 2, 59, 64
4, 11156, Note_on_c, 2, 59, 0
4, 11164, Note_on_c, 2, 61, 64
4, 11396, Note_on_c, 2, 61, 0
4, 11404, Note_on_c, 2, 59, 64
4, 11456, Note_on_c, 2, 59, 0
4, 11464, Note_on_c, 2, 61, 64
4, 11516, Note_on_c, 2, 61, 0
4, 11524, Note_on_c, 2, 62, 64
4, 11576, Note_on_c, 2, 62, 0
4, 11584, Note_on_c, 2, 59, 64
4, 11636, Note_on_c, 2, 59, 0
4, 11644, Note_on_c, 2, 61, 64
4, 11696, Note_on_c, 2, 61, 0
4, 11704, Note_on_c, 2, 59, 64
4, 11756, Note_on_c, 2, 59, 0
4, 11764, Note_on_c, 2, 56, 64
4, 11816, Note_on_c, 2, 56, 0
4, 11824, Note_on_c, 2, 57, 64
4, 11876, Note_on_c, 2, 57, 0
4, 11884, Note_on_c, 2, 56, 64
4, 11936, Note_on_c, 2, 56, 0
4, 11944, Note_on_c, 2, 52, 64
4, 11996, Note_on_c, 2, 52, 0
4, 12004, Note_on_c, 2, 54, 64
4, 12056, Note_on_c, 2, 54, 0
4, 12064, Note_on_c, 2, 55, 64
4, 12116, Note_on_c, 2, 55, 0
4, 12124, Note_on_c, 2, 57, 64
4, 12176, Note_on_c, 2, 57, 0
4, 12184, Note_on_c, 2, 55, 64
4, 12236, Note_on_c, 2, 55, 0
4, 12244, Note_on_c, 2, 54, 64
4, 12296, Note_on_c, 2, 54, 0
4, 12304, Note_on_c, 2, 50, 64
4, 12356, Note_on_c, 2, 50, 0
4, 12364, Note_on_c, 2, 52, 64
4, 12416, Note_on_c, 2, 52, 0
4, 12424, Note_on_c, 2, 53, 64
4, 12476, Note_on_c, 2, 53, 0
4, 12484, Note_on_c, 2, 55, 64
4, 12536, Note_on_c, 2, 55, 0
4, 12544, Note_on_c, 2, 53, 64
4, 12596, Note_on_c, 2, 53, 0
4, 12604, Note_on_c, 2, 52, 64
4, 12656, Note_on_c, 2, 52, 0
4, 12664, Note_on_c, 2, 53, 64
4, 12716, Note_on_c, 2, 53, 0
4, 12724, Note_on_c, 2, 52, 64
4, 12776, Note_on_c, 2, 52, 0
4, 12784, Note_on_c, 2, 51, 64
4, 12836, Note_on_c, 2, 51, 0
4, 12844, Note_on_c, 2, 52, 64
4, 12896, Note_on_c, 2, 52, 0
4, 12904, Note_on_c, 2, 51, 64
4, 12956, Note_on_c, 2, 51, 0
4, 12964, Note_on_c, 2, 52, 64
4, 13016, Note_on_c, 2, 52, 0
4, 13024, Note_on_c, 2, 47, 64
4, 13076, Note_on_c, 2, 47, 0
4, 13084, Note_on_c, 2, 49, 64
4, 13136, Note_on_c, 2, 49, 0
4, 13144, Note_on_c, 2, 47, 64
4, 13196, Note_on_c, 2, 47, 0
4, 13204, Note_on_c, 2, 44, 64
4, 13256, Note_on_c, 2, 44, 0
4, 13264, Note_on_c, 2, 45, 64
4, 13316, Note_on_c, 2, 45, 0
4, 13324, Note_on_c, 2, 44, 64
4, 13609, Note_on_c, 2, 44, 0
4, 13624, Note_on_c, 2, 40, 64
4, 13676, Note_on_c, 2, 40, 0
4, 13684, Note_on_c, 2, 45, 64
4, 13849, Note_on_c, 2, 45, 0
4, 14044, Note_on_c, 2, 45, 64
4, 14209, Note_on_c, 2, 45, 0
4, 14404, Note_on_c, 2, 57, 64
4, 14456, Note_on_c, 2, 57, 0
4, 14464, Note_on_c, 2, 52, 64
4, 14516, Note_on_c, 2, 52, 0
4, 14524, Note_on_c, 2, 54, 64
4, 14576, Note_on_c, 2, 54, 0
4, 14584, Note_on_c, 2, 52, 64
4, 14636, Note_on_c, 2, 52, 0
4, 14644, Note_on_c, 2, 49, 64
4, 14696, Note_on_c, 2, 49, 0
4, 14704, Note_on_c, 2, 50, 64
4, 14756, Note_on_c, 2, 50, 0
4, 14764, Note_on_c, 2, 49, 64
4, 15049, Note_on_c, 2, 49, 0
4, 15064, Note_on_c, 2, 45, 64
4, 15116, Note_on_c, 2, 45, 0
4, 15124, Note_on_c, 2, 50, 64
4, 15229, Note_on_c, 2, 50, 0
4, 15244, Note_on_c, 2, 45, 64
4, 15296, Note_on_c, 2, 45, 0
4, 15304, Note_on_c, 2, 42, 64
4, 15409, Note_on_c, 2, 42, 0
4, 15424, Note_on_c, 2, 45, 64
4, 15476, Note_on_c, 2, 45, 0
4, 15484, Note_on_c, 2, 38, 64
4, 15589, Note_on_c, 2, 38, 0
4, 15604, Note_on_c, 2, 40, 64
4, 15656, Note_on_c, 2, 40, 0
4, 15664, Note_on_c, 2, 42, 64
4, 15769, Note_on_c, 2, 42, 0
4, 15784, Note_on_c, 2, 38, 64
4, 15836, Note_on_c, 2, 38, 0
4, 15844, Note_on_c, 2, 45, 64
4, 15949, Note_on_c, 2, 45, 0
4, 15964, Note_on_c, 2, 57, 64
4, 16016, Note_on_c, 2, 57, 0
4, 16024, Note_on_c, 2, 57, 64
4, 16129, Note_on_c, 2, 57, 0
4, 16144, Note_on_c, 2, 45, 64
4, 16196, Note_on_c, 2, 45, 0
4, 16204, Note_on_c, 2, 52, 64
4, 16309, Note_on_c, 2, 52, 0
4, 16324, Note_on_c, 2, 64, 64
4, 16376, Note_on_c, 2, 64, 0
4, 16384, Note_on_c, 2, 64, 64
4, 16489, Note_on_c, 2, 64, 0
4, 16504, Note_on_c, 2, 58, 64
4, 16556, Note_on_c, 2, 58, 0
4, 16564, Note_on_c, 2, 59, 64
4, 16616, Note_on_c, 2, 59, 0
4, 16624, Note_on_c, 2, 47, 64
4, 16676, Note_on_c, 2, 47, 0
4, 16684, Note_on_c, 2, 49, 64
4, 16736, Note_on_c, 2, 49, 0
4, 16744, Note_on_c, 2, 50, 64
4, 16796, Note_on_c, 2, 50, 0
4, 16804, Note_on_c, 2, 49, 64
4, 16856, Note_on_c, 2, 49, 0
4, 16864, Note_on_c, 2, 47, 64
4, 16916, Note_on_c, 2, 47, 0
4, 16924, Note_on_c, 2, 54, 64
4, 16976, Note_on_c, 2, 54, 0
4, 16984, Note_on_c, 2, 52, 64
4, 17036, Note_on_c, 2, 52, 0
4, 17044, Note_on_c, 2, 50, 64
4, 17096, Note_on_c, 2, 50, 0
4, 17104, Note_on_c, 2, 52, 64
4, 17156, Note_on_c, 2, 52, 0
4, 17164, Note_on_c, 2, 55, 64
4, 17216, Note_on_c, 2, 55, 0
4, 17224, Note_on_c, 2, 54, 64
4, 17276, Note_on_c, 2, 54, 0
4, 17284, Note_on_c, 2, 55, 64
4, 17389, Note_on_c, 2, 55, 0
4, 17404, Note_on_c, 2, 54, 64
4, 17456, Note_on_c, 2, 54, 0
4, 17464, Note_on_c, 2, 52, 64
4, 17569, Note_on_c, 2, 52, 0
4, 17584, Note_on_c, 2, 50, 64
4, 17636, Note_on_c, 2, 50, 0
4, 17644, Note_on_c, 2, 49, 64
4, 17749, Note_on_c, 2, 49, 0
4, 17824, Note_on_c, 2, 50, 64
4, 17929, Note_on_c, 2, 50, 0
4, 18004, Note_on_c, 2, 47, 64
4, 18109, Note_on_c, 2, 47, 0
4, 18184, Note_on_c, 2, 49, 64
4, 18289, Note_on_c, 2, 49, 0
4, 18364, Note_on_c, 2, 50, 64
4, 18469, Note_on_c, 2, 50, 0
4, 18484, Note_on_c, 2, 42, 64
4, 18536, Note_on_c, 2, 42, 0
4, 18544, Note_on_c, 2, 40, 64
4, 18649, Note_on_c, 2, 40, 0
4, 18664, Note_on_c, 2, 38, 64
4, 18716, Note_on_c, 2, 38, 0
4, 18724, Note_on_c, 2, 45, 64
4, 18776, Note_on_c, 2, 45, 0
4, 18784, Note_on_c, 2, 57, 64
4, 18836, Note_on_c, 2, 57, 0
4, 18844, Note_on_c, 2, 56, 64
4, 18896, Note_on_c, 2, 56, 0
4, 18904, Note_on_c, 2, 57, 64
4, 18956, Note_on_c, 2, 57, 0
4, 18964, Note_on_c, 2, 61, 64
4, 19016, Note_on_c, 2, 61, 0
4, 19024, Note_on_c, 2, 59, 64
4, 19076, Note_on_c, 2, 59, 0
4, 19084, Note_on_c, 2, 61, 64
4, 19369, Note_on_c, 2, 61, 0
4, 19384, Note_on_c, 2, 63, 64
4, 19436, Note_on_c, 2, 63, 0
4, 19444, Note_on_c, 2, 52, 64
4, 19496, Note_on_c, 2, 52, 0
4, 19504, Note_on_c, 2, 55, 64
4, 19556, Note_on_c, 2, 55, 0
4, 19564, Note_on_c, 2, 54, 64
4, 19616, Note_on_c, 2, 54, 0
4, 19624, Note_on_c, 2, 55, 64
4, 19676, Note_on_c, 2, 55, 0
4, 19684, Note_on_c, 2, 59, 64
4, 19736, Note_on_c, 2, 59, 0
4, 19744, Note_on_c, 2, 58, 64
4, 19796, Note_on_c, 2, 58, 0
4, 19804, Note_on_c, 2, 59, 64
4, 20036, Note_on_c, 2, 59, 0
4, 20044, Note_on_c, 2, 62, 64
4, 20096, Note_on_c, 2, 62, 0
4, 20104, Note_on_c, 2, 61, 64
4, 20156, Note_on_c, 2, 61, 0
4, 20164, Note_on_c, 2, 62, 64
4, 20269, Note_on_c, 2, 62, 0
4, 20284, Note_on_c, 2, 61, 64
4, 20336, Note_on_c, 2, 61, 0
4, 20344, Note_on_c, 2, 59, 64
4, 20449, Note_on_c, 2, 59, 0
4, 20464, Note_on_c, 2, 57, 64
4, 20516, Note_on_c, 2, 57, 0
4, 20524, Note_on_c, 2, 56, 64
4, 20576, Note_on_c, 2, 56, 0
4, 20584, Note_on_c, 2, 52, 64
4, 20636, Note_on_c, 2, 52, 0
4, 20644, Note_on_c, 2, 57, 64
4, 20756, Note_on_c, 2, 57, 0
4, 20764, Note_on_c, 2, 54, 64
4, 20816, Note_on_c, 2, 54, 0
4, 20824, Note_on_c, 2, 56, 64
4, 20876, Note_on_c, 2, 56, 0
4, 20884, Note_on_c, 2, 57, 64
4, 20989, Note_on_c, 2, 57, 0
4, 21004, Note_on_c, 2, 54, 64
4, 21056, Note_on_c, 2, 54, 0
4, 21064, Note_on_c, 2, 50, 64
4, 21169, Note_on_c, 2, 50, 0
4, 21184, Note_on_c, 2, 52, 64
4, 21236, Note_on_c, 2, 52, 0
4, 21244, Note_on_c, 2, 45, 64
4, 22789, Note_on_c, 2, 45, 0
4, 22804, Note_on_c, 2, 57, 64
4, 22856, Note_on_c, 2, 57, 0
4, 22864, Note_on_c, 2, 57, 64
4, 22969, Note_on_c, 2, 57, 0
4, 22984, Note_on_c, 2, 45, 64
4, 23036, Note_on_c, 2, 45, 0
4, 23044, Note_on_c, 2, 45, 64
4, 23456, Note_on_c, 2, 45, 0
4, 23464, Note_on_c, 2, 49, 64
4, 23516, Note_on_c, 2, 49, 0
4, 23524, Note_on_c, 2, 52, 64
4, 23576, Note_on_c, 2, 52, 0
4, 23584, Note_on_c, 2, 57, 64
4, 23749, Note_on_c, 2, 57, 0
4, 23749, End_track
0, 0, End_of_file
