0, 0, Header, 1, 4, 120
1, 0, Start_track
1, 0, Time_signature, 4, 2, 24, 8
1, 0, Key_signature, 0, "major"
1, 0, Tempo, 833333
1, 0, Marker_t, "(c) Yo Tomita, 1997"
1, 12790, Tempo, 839161
1, 12807, Tempo, 845070
1, 12822, Tempo, 851064
1, 12840, Tempo, 857143
1, 12855, Tempo, 863309
1, 12870, Tempo, 869565
1, 12887, Tempo, 875912
1, 12902, Tempo, 882353
1, 12917, Tempo, 888889
1, 12935, Tempo, 895522
1, 12950, Tempo, 902256
1, 12965, Tempo, 909091
1, 12982, Tempo, 916031
1, 12997, Tempo, 923077
1, 13015, Tempo, 930233
1, 13030, Tempo, 937500
1, 13045, Tempo, 944882
1, 13062, Tempo, 952381
1, 13077, Tempo, 960000
1, 13092, Tempo, 967742
1, 13110, Tempo, 975610
1, 13125, Tempo, 983607
1, 13140, Tempo, 991736
1, 13147, Tempo, 1000000
1, 13152, Tempo, 1008403
1, 13157, Tempo, 1016949
1, 13165, Tempo, 1025641
1, 13170, Tempo, 1034483
1, 13175, Tempo, 1043478
1, 13180, Tempo, 1052632
1, 13187, Tempo, 1061947
1, 13192, Tempo, 1071429
1, 13197, Tempo, 1081081
1, 13205, Tempo, 1090909
1, 13210, Tempo, 1100917
1, 13215, Tempo, 1111111
1, 13220, Tempo, 1121495
1, 13227, Tempo, 1132075
1, 13232, Tempo, 1142857
1, 13237, Tempo, 1153846
1, 13242, Tempo, 1165049
1, 13247, Tempo, 1176471
1, 13250, Tempo, 1188119
1, 13252, Tempo, 1200000
1, 13255, Tempo, 1212121
1, 13257, Tempo, 1224490
1, 13260, Tempo, 1237113
1, 13265, Tempo, 1250000
1, 13267, Tempo, 1263158
1, 13270, Tempo, 1276596
1, 13272, Tempo, 1290323
1, 13275, Tempo, 1304348
1, 13277, Tempo, 1318681
1, 13282, Tempo, 1333333
1, 13285, Tempo, 1348315
1, 13287, Tempo, 1363636
1, 13290, Tempo, 1379310
1, 13292, Tempo, 1395349
1, 13295, Tempo, 1411765
1, 13295, End_track
2, 0, Start_track
2, 0, MIDI_port, 0
2, 0, Title_t, "BWV 889/2"
2, 0, Program_c, 0, 6
2, 2523, Note_on_c, 0, 76, 64
2, 2582, Note_on_c, 0, 76, 0
2, 2643, Note_on_c, 0, 72, 64
2, 2702, Note_on_c, 0, 72, 0
2, 2763, Note_on_c, 0, 77, 64
2, 2826, Note_on_c, 0, 77, 0
2, 2883, Note_on_c, 0, 68, 64
2, 2946, Note_on_c, 0, 68, 0
2, 3183, Note_on_c, 0, 74, 64
2, 3210, Note_on_c, 0, 74, 0
2, 3243, Note_on_c, 0, 71, 64
2, 3266, Note_on_c, 0, 71, 0
2, 3303, Note_on_c, 0, 76, 64
2, 3326, Note_on_c, 0, 76, 0
2, 3363, Note_on_c, 0, 72, 64
2, 3390, Note_on_c, 0, 72, 0
2, 3423, Note_on_c, 0, 69, 64
2, 3446, Note_on_c, 0, 69, 0
2, 3483, Note_on_c, 0, 66, 64
2, 3506, Note_on_c, 0, 66, 0
2, 3543, Note_on_c, 0, 74, 64
2, 3566, Note_on_c, 0, 74, 0
2, 3603, Note_on_c, 0, 71, 64
2, 3626, Note_on_c, 0, 71, 0
2, 3663, Note_on_c, 0, 67, 64
2, 3686, Note_on_c, 0, 67, 0
2, 3723, Note_on_c, 0, 64, 64
2, 3742, Note_on_c, 0, 64, 0
2, 3783, Note_on_c, 0, 72, 64
2, 3806, Note_on_c, 0, 72, 0
2, 3843, Note_on_c, 0, 69, 64
2, 3895, Note_on_c, 0, 69, 0
2, 3903, Note_on_c, 0, 71, 64
2, 3955, Note_on_c, 0, 71, 0
2, 3963, Note_on_c, 0, 72, 64
2, 4096, Note_on_c, 0, 72, 0
2, 4098, Note_on_c, 0, 72, 64
2, 4111, Note_on_c, 0, 72, 0
2, 4113, Note_on_c, 0, 74, 64
2, 4126, Note_on_c, 0, 74, 0
2, 4128, Note_on_c, 0, 76, 64
2, 4141, Note_on_c, 0, 76, 0
2, 4143, Note_on_c, 0, 77, 64
2, 4156, Note_on_c, 0, 77, 0
2, 4158, Note_on_c, 0, 76, 64
2, 4171, Note_on_c, 0, 76, 0
2, 4173, Note_on_c, 0, 74, 64
2, 4186, Note_on_c, 0, 74, 0
2, 4188, Note_on_c, 0, 72, 64
2, 4201, Note_on_c, 0, 72, 0
2, 4203, Note_on_c, 0, 71, 64
2, 4308, Note_on_c, 0, 71, 0
2, 4383, Note_on_c, 0, 84, 64
2, 4396, Note_on_c, 0, 84, 0
2, 4398, Note_on_c, 0, 83, 64
2, 4411, Note_on_c, 0, 83, 0
2, 4413, Note_on_c, 0, 81, 64
2, 4426, Note_on_c, 0, 81, 0
2, 4428, Note_on_c, 0, 79, 64
2, 4441, Note_on_c, 0, 79, 0
2, 4443, Note_on_c, 0, 77, 64
2, 4495, Note_on_c, 0, 77, 0
2, 4503, Note_on_c, 0, 81, 64
2, 4516, Note_on_c, 0, 81, 0
2, 4518, Note_on_c, 0, 79, 64
2, 4531, Note_on_c, 0, 79, 0
2, 4533, Note_on_c, 0, 77, 64
2, 4546, Note_on_c, 0, 77, 0
2, 4548, Note_on_c, 0, 76, 64
2, 4561, Note_on_c, 0, 76, 0
2, 4563, Note_on_c, 0, 74, 64
2, 4576, Note_on_c, 0, 74, 0
2, 4578, Note_on_c, 0, 76, 64
2, 4591, Note_on_c, 0, 76, 0
2, 4593, Note_on_c, 0, 77, 64
2, 4632, Note_on_c, 0, 77, 0
2, 4638, Note_on_c, 0, 76, 64
2, 4651, Note_on_c, 0, 76, 0
2, 4653, Note_on_c, 0, 74, 64
2, 4666, Note_on_c, 0, 74, 0
2, 4668, Note_on_c, 0, 72, 64
2, 4681, Note_on_c, 0, 72, 0
2, 4683, Note_on_c, 0, 71, 64
2, 4696, Note_on_c, 0, 71, 0
2, 4698, Note_on_c, 0, 72, 64
2, 4711, Note_on_c, 0, 72, 0
2, 4713, Note_on_c, 0, 74, 64
2, 4752, Note_on_c, 0, 74, 0
2, 4758, Note_on_c, 0, 72, 64
2, 4771, Note_on_c, 0, 72, 0
2, 4773, Note_on_c, 0, 71, 64
2, 4786, Note_on_c, 0, 71, 0
2, 4788, Note_on_c, 0, 69, 64
2, 4801, Note_on_c, 0, 69, 0
2, 4803, Note_on_c, 0, 67, 64
2, 4881, Note_on_c, 0, 67, 0
2, 4893, Note_on_c, 0, 69, 64
2, 4906, Note_on_c, 0, 69, 0
2, 4908, Note_on_c, 0, 71, 64
2, 4921, Note_on_c, 0, 71, 0
2, 4923, Note_on_c, 0, 72, 64
2, 4939, Note_on_c, 0, 71, 64
2, 4946, Note_on_c, 0, 71, 0
2, 4946, Note_on_c, 0, 72, 0
2, 4947, Note_on_c, 0, 72, 64
2, 4954, Note_on_c, 0, 72, 0
2, 4955, Note_on_c, 0, 71, 64
2, 4962, Note_on_c, 0, 71, 0
2, 4963, Note_on_c, 0, 72, 64
2, 4970, Note_on_c, 0, 72, 0
2, 4971, Note_on_c, 0, 71, 64
2, 4978, Note_on_c, 0, 71, 0
2, 4979, Note_on_c, 0, 72, 64
2, 4986, Note_on_c, 0, 72, 0
2, 4987, Note_on_c, 0, 71, 64
2, 4994, Note_on_c, 0, 71, 0
2, 4995, Note_on_c, 0, 72, 64
2, 5002, Note_on_c, 0, 72, 0
2, 5003, Note_on_c, 0, 71, 64
2, 5010, Note_on_c, 0, 71, 0
2, 5013, Note_on_c, 0, 69, 64
2, 5026, Note_on_c, 0, 69, 0
2, 5028, Note_on_c, 0, 71, 64
2, 5041, Note_on_c, 0, 71, 0
2, 5043, Note_on_c, 0, 72, 64
2, 5148, Note_on_c, 0, 72, 0
2, 5343, Note_on_c, 0, 67, 64
2, 5370, Note_on_c, 0, 67, 0
2, 5403, Note_on_c, 0, 64, 64
2, 5430, Note_on_c, 0, 64, 0
2, 5463, Note_on_c, 0, 69, 64
2, 5490, Note_on_c, 0, 69, 0
2, 5523, Note_on_c, 0, 66, 64
2, 5601, Note_on_c, 0, 66, 0
2, 5613, Note_on_c, 0, 66, 64
2, 5626, Note_on_c, 0, 66, 0
2, 5628, Note_on_c, 0, 68, 64
2, 5641, Note_on_c, 0, 68, 0
2, 5643, Note_on_c, 0, 69, 64
2, 5663, Note_on_c, 0, 68, 64
2, 5674, Note_on_c, 0, 69, 0
2, 5675, Note_on_c, 0, 69, 64
2, 5682, Note_on_c, 0, 68, 0
2, 5683, Note_on_c, 0, 68, 64
2, 5694, Note_on_c, 0, 69, 0
2, 5695, Note_on_c, 0, 69, 64
2, 5702, Note_on_c, 0, 68, 0
2, 5703, Note_on_c, 0, 68, 64
2, 5714, Note_on_c, 0, 69, 0
2, 5715, Note_on_c, 0, 69, 64
2, 5722, Note_on_c, 0, 68, 0
2, 5723, Note_on_c, 0, 68, 64
2, 5733, Note_on_c, 0, 66, 64
2, 5734, Note_on_c, 0, 69, 0
2, 5742, Note_on_c, 0, 68, 0
2, 5746, Note_on_c, 0, 66, 0
2, 5748, Note_on_c, 0, 68, 64
2, 5761, Note_on_c, 0, 68, 0
2, 5763, Note_on_c, 0, 69, 64
2, 5789, Note_on_c, 0, 69, 0
2, 5793, Note_on_c, 0, 71, 64
2, 5806, Note_on_c, 0, 71, 0
2, 5808, Note_on_c, 0, 72, 64
2, 5821, Note_on_c, 0, 72, 0
2, 5823, Note_on_c, 0, 74, 64
2, 5836, Note_on_c, 0, 74, 0
2, 5838, Note_on_c, 0, 76, 64
2, 5851, Note_on_c, 0, 76, 0
2, 5853, Note_on_c, 0, 78, 64
2, 5866, Note_on_c, 0, 78, 0
2, 5868, Note_on_c, 0, 80, 64
2, 5881, Note_on_c, 0, 80, 0
2, 5883, Note_on_c, 0, 81, 64
2, 5954, Note_on_c, 0, 81, 0
2, 6003, Note_on_c, 0, 79, 64
2, 6070, Note_on_c, 0, 79, 0
2, 6123, Note_on_c, 0, 84, 64
2, 6190, Note_on_c, 0, 84, 0
2, 6243, Note_on_c, 0, 75, 64
2, 6306, Note_on_c, 0, 75, 0
2, 6543, Note_on_c, 0, 81, 64
2, 6570, Note_on_c, 0, 81, 0
2, 6603, Note_on_c, 0, 78, 64
2, 6630, Note_on_c, 0, 78, 0
2, 6663, Note_on_c, 0, 83, 64
2, 6690, Note_on_c, 0, 83, 0
2, 6723, Note_on_c, 0, 79, 64
2, 6754, Note_on_c, 0, 79, 0
2, 6783, Note_on_c, 0, 76, 64
2, 6814, Note_on_c, 0, 76, 0
2, 6843, Note_on_c, 0, 73, 64
2, 6874, Note_on_c, 0, 73, 0
2, 6903, Note_on_c, 0, 81, 64
2, 6934, Note_on_c, 0, 81, 0
2, 6963, Note_on_c, 0, 77, 64
2, 6994, Note_on_c, 0, 77, 0
2, 7038, Note_on_c, 0, 74, 64
2, 7051, Note_on_c, 0, 74, 0
2, 7053, Note_on_c, 0, 76, 64
2, 7066, Note_on_c, 0, 76, 0
2, 7068, Note_on_c, 0, 77, 64
2, 7081, Note_on_c, 0, 77, 0
2, 7083, Note_on_c, 0, 79, 64
2, 7110, Note_on_c, 0, 79, 0
2, 7158, Note_on_c, 0, 77, 64
2, 7171, Note_on_c, 0, 77, 0
2, 7173, Note_on_c, 0, 76, 64
2, 7186, Note_on_c, 0, 76, 0
2, 7188, Note_on_c, 0, 74, 64
2, 7201, Note_on_c, 0, 74, 0
2, 7203, Note_on_c, 0, 72, 64
2, 7230, Note_on_c, 0, 72, 0
2, 7278, Note_on_c, 0, 76, 64
2, 7291, Note_on_c, 0, 76, 0
2, 7293, Note_on_c, 0, 77, 64
2, 7306, Note_on_c, 0, 77, 0
2, 7308, Note_on_c, 0, 79, 64
2, 7321, Note_on_c, 0, 79, 0
2, 7323, Note_on_c, 0, 81, 64
2, 7336, Note_on_c, 0, 81, 0
2, 7338, Note_on_c, 0, 82, 64
2, 7351, Note_on_c, 0, 82, 0
2, 7353, Note_on_c, 0, 81, 64
2, 7366, Note_on_c, 0, 81, 0
2, 7368, Note_on_c, 0, 79, 64
2, 7381, Note_on_c, 0, 79, 0
2, 7383, Note_on_c, 0, 77, 64
2, 7396, Note_on_c, 0, 77, 0
2, 7398, Note_on_c, 0, 76, 64
2, 7411, Note_on_c, 0, 76, 0
2, 7413, Note_on_c, 0, 74, 64
2, 7426, Note_on_c, 0, 74, 0
2, 7428, Note_on_c, 0, 72, 64
2, 7441, Note_on_c, 0, 72, 0
2, 7443, Note_on_c, 0, 71, 64
2, 7456, Note_on_c, 0, 71, 0
2, 7458, Note_on_c, 0, 72, 64
2, 7471, Note_on_c, 0, 72, 0
2, 7473, Note_on_c, 0, 71, 64
2, 7486, Note_on_c, 0, 71, 0
2, 7488, Note_on_c, 0, 69, 64
2, 7501, Note_on_c, 0, 69, 0
2, 7503, Note_on_c, 0, 68, 64
2, 7516, Note_on_c, 0, 68, 0
2, 7518, Note_on_c, 0, 66, 64
2, 7531, Note_on_c, 0, 66, 0
2, 7533, Note_on_c, 0, 64, 64
2, 7546, Note_on_c, 0, 64, 0
2, 7548, Note_on_c, 0, 62, 64
2, 7561, Note_on_c, 0, 62, 0
2, 7563, Note_on_c, 0, 60, 64
2, 7615, Note_on_c, 0, 60, 0
2, 7623, Note_on_c, 0, 72, 64
2, 7675, Note_on_c, 0, 72, 0
2, 7683, Note_on_c, 0, 71, 64
2, 7949, Note_on_c, 0, 71, 0
2, 7953, Note_on_c, 0, 64, 64
2, 7979, Note_on_c, 0, 64, 0
2, 7983, Note_on_c, 0, 69, 64
2, 8069, Note_on_c, 0, 69, 0
2, 8073, Note_on_c, 0, 57, 64
2, 8099, Note_on_c, 0, 57, 0
2, 8103, Note_on_c, 0, 62, 64
2, 8215, Note_on_c, 0, 62, 0
2, 8223, Note_on_c, 0, 77, 64
2, 8254, Note_on_c, 0, 77, 0
2, 8283, Note_on_c, 0, 71, 64
2, 8314, Note_on_c, 0, 71, 0
2, 8343, Note_on_c, 0, 74, 64
2, 8370, Note_on_c, 0, 74, 0
2, 8403, Note_on_c, 0, 68, 64
2, 8474, Note_on_c, 0, 68, 0
2, 8523, Note_on_c, 0, 71, 64
2, 8695, Note_on_c, 0, 71, 0
2, 8703, Note_on_c, 0, 76, 64
2, 8716, Note_on_c, 0, 76, 0
2, 8718, Note_on_c, 0, 74, 64
2, 8731, Note_on_c, 0, 74, 0
2, 8733, Note_on_c, 0, 72, 64
2, 8746, Note_on_c, 0, 72, 0
2, 8748, Note_on_c, 0, 71, 64
2, 8761, Note_on_c, 0, 71, 0
2, 8763, Note_on_c, 0, 69, 64
2, 8789, Note_on_c, 0, 69, 0
2, 8793, Note_on_c, 0, 73, 64
2, 8806, Note_on_c, 0, 73, 0
2, 8808, Note_on_c, 0, 76, 64
2, 8821, Note_on_c, 0, 76, 0
2, 8823, Note_on_c, 0, 79, 64
2, 8875, Note_on_c, 0, 79, 0
2, 8883, Note_on_c, 0, 77, 64
2, 8935, Note_on_c, 0, 77, 0
2, 9153, Note_on_c, 0, 74, 64
2, 9166, Note_on_c, 0, 74, 0
2, 9168, Note_on_c, 0, 72, 64
2, 9181, Note_on_c, 0, 72, 0
2, 9183, Note_on_c, 0, 71, 64
2, 9209, Note_on_c, 0, 71, 0
2, 9213, Note_on_c, 0, 72, 64
2, 9226, Note_on_c, 0, 72, 0
2, 9228, Note_on_c, 0, 74, 64
2, 9241, Note_on_c, 0, 74, 0
2, 9243, Note_on_c, 0, 67, 64
2, 9295, Note_on_c, 0, 67, 0
2, 9303, Note_on_c, 0, 77, 64
2, 9355, Note_on_c, 0, 77, 0
2, 9363, Note_on_c, 0, 76, 64
2, 9415, Note_on_c, 0, 76, 0
2, 9723, Note_on_c, 0, 81, 64
2, 9790, Note_on_c, 0, 81, 0
2, 9843, Note_on_c, 0, 77, 64
2, 9914, Note_on_c, 0, 77, 0
2, 9963, Note_on_c, 0, 82, 64
2, 10034, Note_on_c, 0, 82, 0
2, 10083, Note_on_c, 0, 73, 64
2, 10154, Note_on_c, 0, 73, 0
2, 10383, Note_on_c, 0, 79, 64
2, 10410, Note_on_c, 0, 79, 0
2, 10443, Note_on_c, 0, 76, 64
2, 10478, Note_on_c, 0, 76, 0
2, 10503, Note_on_c, 0, 81, 64
2, 10534, Note_on_c, 0, 81, 0
2, 10563, Note_on_c, 0, 77, 64
2, 10598, Note_on_c, 0, 77, 0
2, 10623, Note_on_c, 0, 74, 64
2, 10654, Note_on_c, 0, 74, 0
2, 10863, Note_on_c, 0, 77, 64
2, 10894, Note_on_c, 0, 77, 0
2, 10923, Note_on_c, 0, 74, 64
2, 10954, Note_on_c, 0, 74, 0
2, 10983, Note_on_c, 0, 79, 64
2, 11010, Note_on_c, 0, 79, 0
2, 11043, Note_on_c, 0, 76, 64
2, 11070, Note_on_c, 0, 76, 0
2, 11103, Note_on_c, 0, 72, 64
2, 11134, Note_on_c, 0, 72, 0
2, 11163, Note_on_c, 0, 69, 64
2, 11194, Note_on_c, 0, 69, 0
2, 11223, Note_on_c, 0, 77, 64
2, 11254, Note_on_c, 0, 77, 0
2, 11283, Note_on_c, 0, 74, 64
2, 11310, Note_on_c, 0, 74, 0
2, 11343, Note_on_c, 0, 71, 64
2, 11374, Note_on_c, 0, 71, 0
2, 11403, Note_on_c, 0, 68, 64
2, 11434, Note_on_c, 0, 68, 0
2, 11463, Note_on_c, 0, 76, 64
2, 11494, Note_on_c, 0, 76, 0
2, 11523, Note_on_c, 0, 72, 64
2, 11695, Note_on_c, 0, 72, 0
2, 11778, Note_on_c, 0, 71, 64
2, 11791, Note_on_c, 0, 71, 0
2, 11793, Note_on_c, 0, 72, 64
2, 11806, Note_on_c, 0, 72, 0
2, 11808, Note_on_c, 0, 74, 64
2, 11821, Note_on_c, 0, 74, 0
2, 11823, Note_on_c, 0, 76, 64
2, 11836, Note_on_c, 0, 76, 0
2, 11838, Note_on_c, 0, 78, 64
2, 11851, Note_on_c, 0, 78, 0
2, 11853, Note_on_c, 0, 80, 64
2, 11866, Note_on_c, 0, 80, 0
2, 11868, Note_on_c, 0, 81, 64
2, 11881, Note_on_c, 0, 81, 0
2, 11883, Note_on_c, 0, 83, 64
2, 11896, Note_on_c, 0, 83, 0
2, 11898, Note_on_c, 0, 81, 64
2, 11911, Note_on_c, 0, 81, 0
2, 11913, Note_on_c, 0, 80, 64
2, 11926, Note_on_c, 0, 80, 0
2, 11928, Note_on_c, 0, 78, 64
2, 11941, Note_on_c, 0, 78, 0
2, 11943, Note_on_c, 0, 76, 64
2, 11956, Note_on_c, 0, 76, 0
2, 11958, Note_on_c, 0, 74, 64
2, 11971, Note_on_c, 0, 74, 0
2, 11973, Note_on_c, 0, 72, 64
2, 11986, Note_on_c, 0, 72, 0
2, 11988, Note_on_c, 0, 71, 64
2, 12001, Note_on_c, 0, 71, 0
2, 12003, Note_on_c, 0, 76, 64
2, 12016, Note_on_c, 0, 76, 0
2, 12018, Note_on_c, 0, 74, 64
2, 12031, Note_on_c, 0, 74, 0
2, 12033, Note_on_c, 0, 72, 64
2, 12046, Note_on_c, 0, 72, 0
2, 12048, Note_on_c, 0, 71, 64
2, 12061, Note_on_c, 0, 71, 0
2, 12063, Note_on_c, 0, 69, 64
2, 12076, Note_on_c, 0, 69, 0
2, 12078, Note_on_c, 0, 68, 64
2, 12091, Note_on_c, 0, 68, 0
2, 12093, Note_on_c, 0, 66, 64
2, 12106, Note_on_c, 0, 66, 0
2, 12108, Note_on_c, 0, 64, 64
2, 12121, Note_on_c, 0, 64, 0
2, 12123, Note_on_c, 0, 69, 64
2, 12136, Note_on_c, 0, 69, 0
2, 12138, Note_on_c, 0, 67, 64
2, 12151, Note_on_c, 0, 67, 0
2, 12153, Note_on_c, 0, 65, 64
2, 12166, Note_on_c, 0, 65, 0
2, 12168, Note_on_c, 0, 64, 64
2, 12181, Note_on_c, 0, 64, 0
2, 12183, Note_on_c, 0, 62, 64
2, 12196, Note_on_c, 0, 62, 0
2, 12198, Note_on_c, 0, 60, 64
2, 12211, Note_on_c, 0, 60, 0
2, 12213, Note_on_c, 0, 59, 64
2, 12226, Note_on_c, 0, 59, 0
2, 12228, Note_on_c, 0, 57, 64
2, 12241, Note_on_c, 0, 57, 0
2, 12243, Note_on_c, 0, 65, 64
2, 12256, Note_on_c, 0, 65, 0
2, 12558, Note_on_c, 0, 64, 64
2, 12571, Note_on_c, 0, 64, 0
2, 12573, Note_on_c, 0, 66, 64
2, 12586, Note_on_c, 0, 66, 0
2, 12588, Note_on_c, 0, 68, 64
2, 12601, Note_on_c, 0, 68, 0
2, 12603, Note_on_c, 0, 69, 64
2, 12623, Note_on_c, 0, 68, 64
2, 12634, Note_on_c, 0, 69, 0
2, 12635, Note_on_c, 0, 69, 64
2, 12642, Note_on_c, 0, 68, 0
2, 12643, Note_on_c, 0, 68, 64
2, 12654, Note_on_c, 0, 69, 0
2, 12655, Note_on_c, 0, 69, 64
2, 12662, Note_on_c, 0, 68, 0
2, 12663, Note_on_c, 0, 68, 64
2, 12674, Note_on_c, 0, 69, 0
2, 12675, Note_on_c, 0, 69, 64
2, 12682, Note_on_c, 0, 68, 0
2, 12683, Note_on_c, 0, 68, 64
2, 12693, Note_on_c, 0, 66, 64
2, 12694, Note_on_c, 0, 69, 0
2, 12702, Note_on_c, 0, 68, 0
2, 12706, Note_on_c, 0, 66, 0
2, 12708, Note_on_c, 0, 68, 64
2, 12721, Note_on_c, 0, 68, 0
2, 12723, Note_on_c, 0, 69, 64
2, 13015, Note_on_c, 0, 69, 0
2, 13023, Note_on_c, 0, 71, 64
2, 13058, Note_on_c, 0, 71, 0
2, 13083, Note_on_c, 0, 64, 64
2, 13118, Note_on_c, 0, 64, 0
2, 13143, Note_on_c, 0, 68, 64
2, 13174, Note_on_c, 0, 68, 0
2, 13203, Note_on_c, 0, 69, 64
2, 13428, Note_on_c, 0, 69, 0
2, 13428, End_track
3, 0, Start_track
3, 0, MIDI_port, 0
3, 0, Title_t, "Fugue in A minor"
3, 0, Program_c, 1, 6
3, 1083, Note_on_c, 1, 69, 64
3, 1154, Note_on_c, 1, 69, 0
3, 1203, Note_on_c, 1, 67, 64
3, 1274, Note_on_c, 1, 67, 0
3, 1323, Note_on_c, 1, 72, 64
3, 1390, Note_on_c, 1, 72, 0
3, 1443, Note_on_c, 1, 63, 64
3, 1514, Note_on_c, 1, 63, 0
3, 1743, Note_on_c, 1, 69, 64
3, 1766, Note_on_c, 1, 69, 0
3, 1803, Note_on_c, 1, 66, 64
3, 1830, Note_on_c, 1, 66, 0
3, 1863, Note_on_c, 1, 71, 64
3, 1890, Note_on_c, 1, 71, 0
3, 1923, Note_on_c, 1, 67, 64
3, 1950, Note_on_c, 1, 67, 0
3, 1983, Note_on_c, 1, 64, 64
3, 2006, Note_on_c, 1, 64, 0
3, 2043, Note_on_c, 1, 61, 64
3, 2070, Note_on_c, 1, 61, 0
3, 2103, Note_on_c, 1, 69, 64
3, 2130, Note_on_c, 1, 69, 0
3, 2163, Note_on_c, 1, 65, 64
3, 2186, Note_on_c, 1, 65, 0
3, 2223, Note_on_c, 1, 62, 64
3, 2246, Note_on_c, 1, 62, 0
3, 2283, Note_on_c, 1, 59, 64
3, 2306, Note_on_c, 1, 59, 0
3, 2343, Note_on_c, 1, 67, 64
3, 2366, Note_on_c, 1, 67, 0
3, 2403, Note_on_c, 1, 64, 64
3, 2430, Note_on_c, 1, 64, 0
3, 2463, Note_on_c, 1, 69, 64
3, 2568, Note_on_c, 1, 69, 0
3, 2583, Note_on_c, 1, 68, 64
3, 2610, Note_on_c, 1, 68, 0
3, 2643, Note_on_c, 1, 57, 64
3, 2695, Note_on_c, 1, 57, 0
3, 2703, Note_on_c, 1, 69, 64
3, 2716, Note_on_c, 1, 69, 0
3, 2718, Note_on_c, 1, 67, 64
3, 2731, Note_on_c, 1, 67, 0
3, 2733, Note_on_c, 1, 65, 64
3, 2746, Note_on_c, 1, 65, 0
3, 2748, Note_on_c, 1, 64, 64
3, 2761, Note_on_c, 1, 64, 0
3, 2763, Note_on_c, 1, 62, 64
3, 2790, Note_on_c, 1, 62, 0
3, 2823, Note_on_c, 1, 65, 64
3, 2836, Note_on_c, 1, 65, 0
3, 2838, Note_on_c, 1, 64, 64
3, 2851, Note_on_c, 1, 64, 0
3, 2853, Note_on_c, 1, 62, 64
3, 2866, Note_on_c, 1, 62, 0
3, 2868, Note_on_c, 1, 60, 64
3, 2881, Note_on_c, 1, 60, 0
3, 2883, Note_on_c, 1, 59, 64
3, 2896, Note_on_c, 1, 59, 0
3, 2898, Note_on_c, 1, 60, 64
3, 2911, Note_on_c, 1, 60, 0
3, 2913, Note_on_c, 1, 62, 64
3, 2958, Note_on_c, 1, 60, 64
3, 2960, Note_on_c, 1, 62, 0
3, 2971, Note_on_c, 1, 60, 0
3, 2973, Note_on_c, 1, 59, 64
3, 2986, Note_on_c, 1, 59, 0
3, 2988, Note_on_c, 1, 57, 64
3, 3001, Note_on_c, 1, 57, 0
3, 3003, Note_on_c, 1, 56, 64
3, 3016, Note_on_c, 1, 56, 0
3, 3018, Note_on_c, 1, 57, 64
3, 3031, Note_on_c, 1, 57, 0
3, 3033, Note_on_c, 1, 59, 64
3, 3078, Note_on_c, 1, 57, 64
3, 3080, Note_on_c, 1, 59, 0
3, 3091, Note_on_c, 1, 57, 0
3, 3093, Note_on_c, 1, 56, 64
3, 3106, Note_on_c, 1, 56, 0
3, 3108, Note_on_c, 1, 54, 64
3, 3121, Note_on_c, 1, 54, 0
3, 3123, Note_on_c, 1, 52, 64
3, 3201, Note_on_c, 1, 52, 0
3, 3213, Note_on_c, 1, 54, 64
3, 3226, Note_on_c, 1, 54, 0
3, 3228, Note_on_c, 1, 56, 64
3, 3241, Note_on_c, 1, 56, 0
3, 3243, Note_on_c, 1, 57, 64
3, 3263, Note_on_c, 1, 56, 64
3, 3274, Note_on_c, 1, 57, 0
3, 3275, Note_on_c, 1, 57, 64
3, 3282, Note_on_c, 1, 56, 0
3, 3283, Note_on_c, 1, 56, 64
3, 3294, Note_on_c, 1, 57, 0
3, 3295, Note_on_c, 1, 57, 64
3, 3302, Note_on_c, 1, 56, 0
3, 3303, Note_on_c, 1, 56, 64
3, 3314, Note_on_c, 1, 57, 0
3, 3315, Note_on_c, 1, 57, 64
3, 3322, Note_on_c, 1, 56, 0
3, 3323, Note_on_c, 1, 56, 64
3, 3333, Note_on_c, 1, 54, 64
3, 3334, Note_on_c, 1, 57, 0
3, 3342, Note_on_c, 1, 56, 0
3, 3346, Note_on_c, 1, 54, 0
3, 3348, Note_on_c, 1, 56, 64
3, 3361, Note_on_c, 1, 56, 0
3, 3363, Note_on_c, 1, 57, 64
3, 3415, Note_on_c, 1, 57, 0
3, 3438, Note_on_c, 1, 57, 64
3, 3451, Note_on_c, 1, 57, 0
3, 3453, Note_on_c, 1, 59, 64
3, 3466, Note_on_c, 1, 59, 0
3, 3468, Note_on_c, 1, 60, 64
3, 3481, Note_on_c, 1, 60, 0
3, 3483, Note_on_c, 1, 62, 64
3, 3514, Note_on_c, 1, 62, 0
3, 3558, Note_on_c, 1, 60, 64
3, 3571, Note_on_c, 1, 60, 0
3, 3573, Note_on_c, 1, 59, 64
3, 3586, Note_on_c, 1, 59, 0
3, 3588, Note_on_c, 1, 57, 64
3, 3601, Note_on_c, 1, 57, 0
3, 3603, Note_on_c, 1, 55, 64
3, 3634, Note_on_c, 1, 55, 0
3, 3678, Note_on_c, 1, 55, 64
3, 3691, Note_on_c, 1, 55, 0
3, 3693, Note_on_c, 1, 57, 64
3, 3706, Note_on_c, 1, 57, 0
3, 3708, Note_on_c, 1, 59, 64
3, 3721, Note_on_c, 1, 59, 0
3, 3723, Note_on_c, 1, 60, 64
3, 3754, Note_on_c, 1, 60, 0
3, 3798, Note_on_c, 1, 58, 64
3, 3811, Note_on_c, 1, 58, 0
3, 3813, Note_on_c, 1, 57, 64
3, 3826, Note_on_c, 1, 57, 0
3, 3828, Note_on_c, 1, 55, 64
3, 3841, Note_on_c, 1, 55, 0
3, 3843, Note_on_c, 1, 53, 64
3, 3869, Note_on_c, 1, 53, 0
3, 3873, Note_on_c, 1, 65, 64
3, 3925, Note_on_c, 1, 65, 0
3, 3933, Note_on_c, 1, 65, 64
3, 3976, Note_on_c, 1, 65, 0
3, 3978, Note_on_c, 1, 64, 64
3, 3991, Note_on_c, 1, 64, 0
3, 3993, Note_on_c, 1, 65, 64
3, 4006, Note_on_c, 1, 65, 0
3, 4008, Note_on_c, 1, 67, 64
3, 4021, Note_on_c, 1, 67, 0
3, 4023, Note_on_c, 1, 69, 64
3, 4036, Note_on_c, 1, 69, 0
3, 4038, Note_on_c, 1, 67, 64
3, 4051, Note_on_c, 1, 67, 0
3, 4053, Note_on_c, 1, 65, 64
3, 4066, Note_on_c, 1, 65, 0
3, 4068, Note_on_c, 1, 64, 64
3, 4081, Note_on_c, 1, 64, 0
3, 4083, Note_on_c, 1, 62, 64
3, 4216, Note_on_c, 1, 62, 0
3, 4218, Note_on_c, 1, 62, 64
3, 4231, Note_on_c, 1, 62, 0
3, 4233, Note_on_c, 1, 64, 64
3, 4246, Note_on_c, 1, 64, 0
3, 4248, Note_on_c, 1, 65, 64
3, 4261, Note_on_c, 1, 65, 0
3, 4263, Note_on_c, 1, 67, 64
3, 4276, Note_on_c, 1, 67, 0
3, 4278, Note_on_c, 1, 65, 64
3, 4291, Note_on_c, 1, 65, 0
3, 4293, Note_on_c, 1, 64, 64
3, 4306, Note_on_c, 1, 64, 0
3, 4308, Note_on_c, 1, 62, 64
3, 4321, Note_on_c, 1, 62, 0
3, 4323, Note_on_c, 1, 60, 64
3, 4342, Note_on_c, 1, 60, 0
3, 4383, Note_on_c, 1, 55, 64
3, 4410, Note_on_c, 1, 55, 0
3, 4443, Note_on_c, 1, 60, 64
3, 4470, Note_on_c, 1, 60, 0
3, 4503, Note_on_c, 1, 65, 64
3, 4526, Note_on_c, 1, 65, 0
3, 4623, Note_on_c, 1, 69, 64
3, 4650, Note_on_c, 1, 69, 0
3, 4683, Note_on_c, 1, 62, 64
3, 4710, Note_on_c, 1, 62, 0
3, 4743, Note_on_c, 1, 65, 64
3, 4770, Note_on_c, 1, 65, 0
3, 4803, Note_on_c, 1, 59, 64
3, 4834, Note_on_c, 1, 59, 0
3, 4863, Note_on_c, 1, 62, 64
3, 4894, Note_on_c, 1, 62, 0
3, 4923, Note_on_c, 1, 65, 64
3, 4954, Note_on_c, 1, 65, 0
3, 4983, Note_on_c, 1, 62, 64
3, 5006, Note_on_c, 1, 62, 0
3, 5043, Note_on_c, 1, 67, 64
3, 5066, Note_on_c, 1, 67, 0
3, 5103, Note_on_c, 1, 60, 64
3, 5122, Note_on_c, 1, 60, 0
3, 5163, Note_on_c, 1, 57, 64
3, 5186, Note_on_c, 1, 57, 0
3, 5223, Note_on_c, 1, 62, 64
3, 5246, Note_on_c, 1, 62, 0
3, 5283, Note_on_c, 1, 59, 64
3, 5361, Note_on_c, 1, 59, 0
3, 5373, Note_on_c, 1, 59, 64
3, 5386, Note_on_c, 1, 59, 0
3, 5388, Note_on_c, 1, 61, 64
3, 5401, Note_on_c, 1, 61, 0
3, 5403, Note_on_c, 1, 62, 64
3, 5427, Note_on_c, 1, 61, 64
3, 5434, Note_on_c, 1, 62, 0
3, 5435, Note_on_c, 1, 62, 64
3, 5442, Note_on_c, 1, 61, 0
3, 5443, Note_on_c, 1, 61, 64
3, 5450, Note_on_c, 1, 62, 0
3, 5451, Note_on_c, 1, 62, 64
3, 5458, Note_on_c, 1, 61, 0
3, 5459, Note_on_c, 1, 61, 64
3, 5466, Note_on_c, 1, 62, 0
3, 5467, Note_on_c, 1, 62, 64
3, 5474, Note_on_c, 1, 61, 0
3, 5475, Note_on_c, 1, 61, 64
3, 5482, Note_on_c, 1, 62, 0
3, 5483, Note_on_c, 1, 62, 64
3, 5486, Note_on_c, 1, 61, 0
3, 5491, Note_on_c, 1, 61, 64
3, 5493, Note_on_c, 1, 59, 64
3, 5498, Note_on_c, 1, 62, 0
3, 5502, Note_on_c, 1, 61, 0
3, 5506, Note_on_c, 1, 59, 0
3, 5508, Note_on_c, 1, 61, 64
3, 5521, Note_on_c, 1, 61, 0
3, 5523, Note_on_c, 1, 62, 64
3, 5628, Note_on_c, 1, 62, 0
3, 5913, Note_on_c, 1, 72, 64
3, 5939, Note_on_c, 1, 72, 0
3, 5943, Note_on_c, 1, 71, 64
3, 5969, Note_on_c, 1, 71, 0
3, 5973, Note_on_c, 1, 78, 64
3, 6029, Note_on_c, 1, 78, 0
3, 6033, Note_on_c, 1, 71, 64
3, 6059, Note_on_c, 1, 71, 0
3, 6063, Note_on_c, 1, 76, 64
3, 6076, Note_on_c, 1, 76, 0
3, 6078, Note_on_c, 1, 74, 64
3, 6091, Note_on_c, 1, 74, 0
3, 6093, Note_on_c, 1, 72, 64
3, 6106, Note_on_c, 1, 72, 0
3, 6108, Note_on_c, 1, 71, 64
3, 6121, Note_on_c, 1, 71, 0
3, 6123, Note_on_c, 1, 69, 64
3, 6150, Note_on_c, 1, 69, 0
3, 6183, Note_on_c, 1, 72, 64
3, 6196, Note_on_c, 1, 72, 0
3, 6198, Note_on_c, 1, 71, 64
3, 6211, Note_on_c, 1, 71, 0
3, 6213, Note_on_c, 1, 69, 64
3, 6226, Note_on_c, 1, 69, 0
3, 6228, Note_on_c, 1, 67, 64
3, 6241, Note_on_c, 1, 67, 0
3, 6243, Note_on_c, 1, 66, 64
3, 6256, Note_on_c, 1, 66, 0
3, 6258, Note_on_c, 1, 67, 64
3, 6271, Note_on_c, 1, 67, 0
3, 6273, Note_on_c, 1, 69, 64
3, 6312, Note_on_c, 1, 69, 0
3, 6318, Note_on_c, 1, 67, 64
3, 6331, Note_on_c, 1, 67, 0
3, 6333, Note_on_c, 1, 66, 64
3, 6346, Note_on_c, 1, 66, 0
3, 6348, Note_on_c, 1, 64, 64
3, 6361, Note_on_c, 1, 64, 0
3, 6363, Note_on_c, 1, 63, 64
3, 6376, Note_on_c, 1, 63, 0
3, 6378, Note_on_c, 1, 64, 64
3, 6391, Note_on_c, 1, 64, 0
3, 6393, Note_on_c, 1, 66, 64
3, 6432, Note_on_c, 1, 66, 0
3, 6438, Note_on_c, 1, 64, 64
3, 6451, Note_on_c, 1, 64, 0
3, 6453, Note_on_c, 1, 63, 64
3, 6466, Note_on_c, 1, 63, 0
3, 6468, Note_on_c, 1, 61, 64
3, 6481, Note_on_c, 1, 61, 0
3, 6483, Note_on_c, 1, 59, 64
3, 6561, Note_on_c, 1, 59, 0
3, 6573, Note_on_c, 1, 61, 64
3, 6586, Note_on_c, 1, 61, 0
3, 6588, Note_on_c, 1, 63, 64
3, 6601, Note_on_c, 1, 63, 0
3, 6603, Note_on_c, 1, 64, 64
3, 6627, Note_on_c, 1, 63, 64
3, 6634, Note_on_c, 1, 64, 0
3, 6635, Note_on_c, 1, 64, 64
3, 6642, Note_on_c, 1, 63, 0
3, 6643, Note_on_c, 1, 63, 64
3, 6650, Note_on_c, 1, 64, 0
3, 6651, Note_on_c, 1, 64, 64
3, 6658, Note_on_c, 1, 63, 0
3, 6659, Note_on_c, 1, 63, 64
3, 6666, Note_on_c, 1, 64, 0
3, 6667, Note_on_c, 1, 64, 64
3, 6674, Note_on_c, 1, 63, 0
3, 6675, Note_on_c, 1, 63, 64
3, 6682, Note_on_c, 1, 64, 0
3, 6690, Note_on_c, 1, 63, 0
3, 6693, Note_on_c, 1, 61, 64
3, 6706, Note_on_c, 1, 61, 0
3, 6708, Note_on_c, 1, 63, 64
3, 6721, Note_on_c, 1, 63, 0
3, 6723, Note_on_c, 1, 64, 64
3, 6775, Note_on_c, 1, 64, 0
3, 7023, Note_on_c, 1, 62, 64
3, 7054, Note_on_c, 1, 62, 0
3, 7083, Note_on_c, 1, 59, 64
3, 7114, Note_on_c, 1, 59, 0
3, 7143, Note_on_c, 1, 67, 64
3, 7174, Note_on_c, 1, 67, 0
3, 7203, Note_on_c, 1, 64, 64
3, 7234, Note_on_c, 1, 64, 0
3, 7578, Note_on_c, 1, 64, 64
3, 7591, Note_on_c, 1, 64, 0
3, 7593, Note_on_c, 1, 65, 64
3, 7606, Note_on_c, 1, 65, 0
3, 7608, Note_on_c, 1, 67, 64
3, 7621, Note_on_c, 1, 67, 0
3, 7623, Note_on_c, 1, 69, 64
3, 7636, Note_on_c, 1, 69, 0
3, 7638, Note_on_c, 1, 67, 64
3, 7651, Note_on_c, 1, 67, 0
3, 7653, Note_on_c, 1, 65, 64
3, 7666, Note_on_c, 1, 65, 0
3, 7668, Note_on_c, 1, 64, 64
3, 7681, Note_on_c, 1, 64, 0
3, 7683, Note_on_c, 1, 62, 64
3, 7718, Note_on_c, 1, 62, 0
3, 7743, Note_on_c, 1, 65, 64
3, 7778, Note_on_c, 1, 65, 0
3, 7803, Note_on_c, 1, 59, 64
3, 7838, Note_on_c, 1, 59, 0
3, 7863, Note_on_c, 1, 62, 64
3, 7902, Note_on_c, 1, 62, 0
3, 7923, Note_on_c, 1, 60, 64
3, 8002, Note_on_c, 1, 60, 0
3, 8043, Note_on_c, 1, 65, 64
3, 8122, Note_on_c, 1, 65, 0
3, 8163, Note_on_c, 1, 56, 64
3, 8234, Note_on_c, 1, 56, 0
3, 8463, Note_on_c, 1, 62, 64
3, 8494, Note_on_c, 1, 62, 0
3, 8523, Note_on_c, 1, 59, 64
3, 8550, Note_on_c, 1, 59, 0
3, 8583, Note_on_c, 1, 64, 64
3, 8610, Note_on_c, 1, 64, 0
3, 8643, Note_on_c, 1, 60, 64
3, 8674, Note_on_c, 1, 60, 0
3, 8943, Note_on_c, 1, 69, 64
3, 8956, Note_on_c, 1, 69, 0
3, 8958, Note_on_c, 1, 67, 64
3, 8971, Note_on_c, 1, 67, 0
3, 8973, Note_on_c, 1, 65, 64
3, 8986, Note_on_c, 1, 65, 0
3, 8988, Note_on_c, 1, 64, 64
3, 9001, Note_on_c, 1, 64, 0
3, 9003, Note_on_c, 1, 62, 64
3, 9029, Note_on_c, 1, 62, 0
3, 9033, Note_on_c, 1, 66, 64
3, 9046, Note_on_c, 1, 66, 0
3, 9048, Note_on_c, 1, 69, 64
3, 9061, Note_on_c, 1, 69, 0
3, 9063, Note_on_c, 1, 72, 64
3, 9115, Note_on_c, 1, 72, 0
3, 9123, Note_on_c, 1, 71, 64
3, 9175, Note_on_c, 1, 71, 0
3, 9393, Note_on_c, 1, 67, 64
3, 9406, Note_on_c, 1, 67, 0
3, 9408, Note_on_c, 1, 65, 64
3, 9421, Note_on_c, 1, 65, 0
3, 9423, Note_on_c, 1, 64, 64
3, 9449, Note_on_c, 1, 64, 0
3, 9453, Note_on_c, 1, 65, 64
3, 9466, Note_on_c, 1, 65, 0
3, 9468, Note_on_c, 1, 67, 64
3, 9481, Note_on_c, 1, 67, 0
3, 9483, Note_on_c, 1, 60, 64
3, 9535, Note_on_c, 1, 60, 0
3, 9543, Note_on_c, 1, 70, 64
3, 9595, Note_on_c, 1, 70, 0
3, 9603, Note_on_c, 1, 69, 64
3, 9629, Note_on_c, 1, 69, 0
3, 9633, Note_on_c, 1, 71, 64
3, 9646, Note_on_c, 1, 71, 0
3, 9648, Note_on_c, 1, 73, 64
3, 9661, Note_on_c, 1, 73, 0
3, 9663, Note_on_c, 1, 74, 64
3, 9775, Note_on_c, 1, 74, 0
3, 9783, Note_on_c, 1, 73, 64
3, 9835, Note_on_c, 1, 73, 0
3, 9843, Note_on_c, 1, 74, 64
3, 9948, Note_on_c, 1, 74, 0
3, 10143, Note_on_c, 1, 70, 64
3, 10166, Note_on_c, 1, 70, 0
3, 10203, Note_on_c, 1, 64, 64
3, 10234, Note_on_c, 1, 64, 0
3, 10263, Note_on_c, 1, 67, 64
3, 10294, Note_on_c, 1, 67, 0
3, 10323, Note_on_c, 1, 61, 64
3, 10358, Note_on_c, 1, 61, 0
3, 10383, Note_on_c, 1, 76, 64
3, 10414, Note_on_c, 1, 76, 0
3, 10443, Note_on_c, 1, 69, 64
3, 10615, Note_on_c, 1, 69, 0
3, 10623, Note_on_c, 1, 69, 64
3, 10675, Note_on_c, 1, 69, 0
3, 10683, Note_on_c, 1, 62, 64
3, 10735, Note_on_c, 1, 62, 0
3, 10743, Note_on_c, 1, 65, 64
3, 10795, Note_on_c, 1, 65, 0
3, 10803, Note_on_c, 1, 59, 64
3, 10855, Note_on_c, 1, 59, 0
3, 10863, Note_on_c, 1, 74, 64
3, 10915, Note_on_c, 1, 74, 0
3, 10923, Note_on_c, 1, 67, 64
3, 11095, Note_on_c, 1, 67, 0
3, 11343, Note_on_c, 1, 62, 64
3, 11395, Note_on_c, 1, 62, 0
3, 11403, Note_on_c, 1, 59, 64
3, 11455, Note_on_c, 1, 59, 0
3, 11463, Note_on_c, 1, 68, 64
3, 11515, Note_on_c, 1, 68, 0
3, 11523, Note_on_c, 1, 69, 64
3, 11628, Note_on_c, 1, 69, 0
3, 11658, Note_on_c, 1, 71, 64
3, 11671, Note_on_c, 1, 71, 0
3, 11673, Note_on_c, 1, 69, 64
3, 11686, Note_on_c, 1, 69, 0
3, 11688, Note_on_c, 1, 67, 64
3, 11701, Note_on_c, 1, 67, 0
3, 11703, Note_on_c, 1, 65, 64
3, 11716, Note_on_c, 1, 65, 0
3, 11718, Note_on_c, 1, 64, 64
3, 11731, Note_on_c, 1, 64, 0
3, 11733, Note_on_c, 1, 62, 64
3, 11746, Note_on_c, 1, 62, 0
3, 11748, Note_on_c, 1, 60, 64
3, 11761, Note_on_c, 1, 60, 0
3, 11763, Note_on_c, 1, 62, 64
3, 11815, Note_on_c, 1, 62, 0
3, 11823, Note_on_c, 1, 59, 64
3, 11849, Note_on_c, 1, 59, 0
3, 11853, Note_on_c, 1, 57, 64
3, 11879, Note_on_c, 1, 57, 0
3, 11883, Note_on_c, 1, 56, 64
3, 11988, Note_on_c, 1, 56, 0
3, 12003, Note_on_c, 1, 57, 64
3, 12108, Note_on_c, 1, 57, 0
3, 12258, Note_on_c, 1, 64, 64
3, 12271, Note_on_c, 1, 64, 0
3, 12273, Note_on_c, 1, 62, 64
3, 12286, Note_on_c, 1, 62, 0
3, 12288, Note_on_c, 1, 60, 64
3, 12301, Note_on_c, 1, 60, 0
3, 12303, Note_on_c, 1, 59, 64
3, 12316, Note_on_c, 1, 59, 0
3, 12318, Note_on_c, 1, 57, 64
3, 12331, Note_on_c, 1, 57, 0
3, 12333, Note_on_c, 1, 56, 64
3, 12346, Note_on_c, 1, 56, 0
3, 12348, Note_on_c, 1, 54, 64
3, 12361, Note_on_c, 1, 54, 0
3, 12363, Note_on_c, 1, 62, 64
3, 12376, Note_on_c, 1, 62, 0
3, 12378, Note_on_c, 1, 60, 64
3, 12391, Note_on_c, 1, 60, 0
3, 12393, Note_on_c, 1, 59, 64
3, 12406, Note_on_c, 1, 59, 0
3, 12408, Note_on_c, 1, 57, 64
3, 12421, Note_on_c, 1, 57, 0
3, 12423, Note_on_c, 1, 56, 64
3, 12436, Note_on_c, 1, 56, 0
3, 12438, Note_on_c, 1, 54, 64
3, 12451, Note_on_c, 1, 54, 0
3, 12453, Note_on_c, 1, 52, 64
3, 12466, Note_on_c, 1, 52, 0
3, 12468, Note_on_c, 1, 51, 64
3, 12481, Note_on_c, 1, 51, 0
3, 12483, Note_on_c, 1, 52, 64
3, 12535, Note_on_c, 1, 52, 0
3, 12798, Note_on_c, 1, 59, 64
3, 12811, Note_on_c, 1, 59, 0
3, 12813, Note_on_c, 1, 60, 64
3, 12826, Note_on_c, 1, 60, 0
3, 12828, Note_on_c, 1, 62, 64
3, 12841, Note_on_c, 1, 62, 0
3, 12843, Note_on_c, 1, 62, 64
3, 12859, Note_on_c, 1, 61, 64
3, 12866, Note_on_c, 1, 62, 0
3, 12867, Note_on_c, 1, 62, 64
3, 12874, Note_on_c, 1, 61, 0
3, 12875, Note_on_c, 1, 61, 64
3, 12882, Note_on_c, 1, 62, 0
3, 12883, Note_on_c, 1, 62, 64
3, 12890, Note_on_c, 1, 61, 0
3, 12891, Note_on_c, 1, 61, 64
3, 12898, Note_on_c, 1, 62, 0
3, 12899, Note_on_c, 1, 62, 64
3, 12906, Note_on_c, 1, 61, 0
3, 12907, Note_on_c, 1, 61, 64
3, 12914, Note_on_c, 1, 62, 0
3, 12915, Note_on_c, 1, 62, 64
3, 12922, Note_on_c, 1, 61, 0
3, 12923, Note_on_c, 1, 61, 64
3, 12930, Note_on_c, 1, 62, 0
3, 12933, Note_on_c, 1, 59, 64
3, 12938, Note_on_c, 1, 61, 0
3, 12946, Note_on_c, 1, 59, 0
3, 12948, Note_on_c, 1, 61, 64
3, 12961, Note_on_c, 1, 61, 0
3, 12963, Note_on_c, 1, 62, 64
3, 12998, Note_on_c, 1, 62, 0
3, 13023, Note_on_c, 1, 65, 64
3, 13046, Note_on_c, 1, 65, 0
3, 13083, Note_on_c, 1, 56, 64
3, 13114, Note_on_c, 1, 56, 0
3, 13143, Note_on_c, 1, 59, 64
3, 13174, Note_on_c, 1, 59, 0
3, 13203, Note_on_c, 1, 61, 64
3, 13428, Note_on_c, 1, 61, 0
3, 13428, End_track
4, 0, Start_track
4, 0, MIDI_port, 0
4, 0, Title_t, "from WTC II"
4, 0, Program_c, 2, 6
4, 123, Note_on_c, 2, 64, 64
4, 194, Note_on_c, 2, 64, 0
4, 243, Note_on_c, 2, 60, 64
4, 314, Note_on_c, 2, 60, 0
4, 363, Note_on_c, 2, 65, 64
4, 434, Note_on_c, 2, 65, 0
4, 483, Note_on_c, 2, 56, 64
4, 554, Note_on_c, 2, 56, 0
4, 783, Note_on_c, 2, 62, 64
4, 814, Note_on_c, 2, 62, 0
4, 843, Note_on_c, 2, 59, 64
4, 874, Note_on_c, 2, 59, 0
4, 903, Note_on_c, 2, 64, 64
4, 934, Note_on_c, 2, 64, 0
4, 963, Note_on_c, 2, 60, 64
4, 994, Note_on_c, 2, 60, 0
4, 1023, Note_on_c, 2, 57, 64
4, 1054, Note_on_c, 2, 57, 0
4, 1083, Note_on_c, 2, 54, 64
4, 1110, Note_on_c, 2, 54, 0
4, 1143, Note_on_c, 2, 63, 64
4, 1166, Note_on_c, 2, 63, 0
4, 1203, Note_on_c, 2, 52, 64
4, 1230, Note_on_c, 2, 52, 0
4, 1263, Note_on_c, 2, 64, 64
4, 1276, Note_on_c, 2, 64, 0
4, 1278, Note_on_c, 2, 62, 64
4, 1291, Note_on_c, 2, 62, 0
4, 1293, Note_on_c, 2, 60, 64
4, 1306, Note_on_c, 2, 60, 0
4, 1308, Note_on_c, 2, 59, 64
4, 1321, Note_on_c, 2, 59, 0
4, 1323, Note_on_c, 2, 57, 64
4, 1350, Note_on_c, 2, 57, 0
4, 1383, Note_on_c, 2, 60, 64
4, 1396, Note_on_c, 2, 60, 0
4, 1398, Note_on_c, 2, 59, 64
4, 1411, Note_on_c, 2, 59, 0
4, 1413, Note_on_c, 2, 57, 64
4, 1426, Note_on_c, 2, 57, 0
4, 1428, Note_on_c, 2, 55, 64
4, 1441, Note_on_c, 2, 55, 0
4, 1443, Note_on_c, 2, 54, 64
4, 1456, Note_on_c, 2, 54, 0
4, 1458, Note_on_c, 2, 55, 64
4, 1471, Note_on_c, 2, 55, 0
4, 1473, Note_on_c, 2, 57, 64
4, 1512, Note_on_c, 2, 57, 0
4, 1518, Note_on_c, 2, 55, 64
4, 1531, Note_on_c, 2, 55, 0
4, 1533, Note_on_c, 2, 54, 64
4, 1546, Note_on_c, 2, 54, 0
4, 1548, Note_on_c, 2, 52, 64
4, 1561, Note_on_c, 2, 52, 0
4, 1563, Note_on_c, 2, 51, 64
4, 1576, Note_on_c, 2, 51, 0
4, 1578, Note_on_c, 2, 52, 64
4, 1591, Note_on_c, 2, 52, 0
4, 1593, Note_on_c, 2, 54, 64
4, 1632, Note_on_c, 2, 54, 0
4, 1638, Note_on_c, 2, 52, 64
4, 1651, Note_on_c, 2, 52, 0
4, 1653, Note_on_c, 2, 51, 64
4, 1666, Note_on_c, 2, 51, 0
4, 1668, Note_on_c, 2, 49, 64
4, 1681, Note_on_c, 2, 49, 0
4, 1683, Note_on_c, 2, 47, 64
4, 1773, Note_on_c, 2, 49, 64
4, 1774, Note_on_c, 2, 47, 0
4, 1786, Note_on_c, 2, 49, 0
4, 1788, Note_on_c, 2, 51, 64
4, 1801, Note_on_c, 2, 51, 0
4, 1803, Note_on_c, 2, 52, 64
4, 1831, Note_on_c, 2, 51, 64
4, 1838, Note_on_c, 2, 52, 0
4, 1839, Note_on_c, 2, 52, 64
4, 1846, Note_on_c, 2, 51, 0
4, 1847, Note_on_c, 2, 51, 64
4, 1854, Note_on_c, 2, 52, 0
4, 1855, Note_on_c, 2, 52, 64
4, 1862, Note_on_c, 2, 51, 0
4, 1863, Note_on_c, 2, 51, 64
4, 1870, Note_on_c, 2, 52, 0
4, 1871, Note_on_c, 2, 52, 64
4, 1878, Note_on_c, 2, 51, 0
4, 1879, Note_on_c, 2, 51, 64
4, 1886, Note_on_c, 2, 52, 0
4, 1893, Note_on_c, 2, 49, 64
4, 1894, Note_on_c, 2, 51, 0
4, 1906, Note_on_c, 2, 49, 0
4, 1908, Note_on_c, 2, 51, 64
4, 1921, Note_on_c, 2, 51, 0
4, 1923, Note_on_c, 2, 52, 64
4, 1975, Note_on_c, 2, 52, 0
4, 1998, Note_on_c, 2, 52, 64
4, 2011, Note_on_c, 2, 52, 0
4, 2013, Note_on_c, 2, 53, 64
4, 2026, Note_on_c, 2, 53, 0
4, 2028, Note_on_c, 2, 55, 64
4, 2041, Note_on_c, 2, 55, 0
4, 2043, Note_on_c, 2, 57, 64
4, 2114, Note_on_c, 2, 57, 0
4, 2118, Note_on_c, 2, 55, 64
4, 2131, Note_on_c, 2, 55, 0
4, 2133, Note_on_c, 2, 53, 64
4, 2146, Note_on_c, 2, 53, 0
4, 2148, Note_on_c, 2, 52, 64
4, 2161, Note_on_c, 2, 52, 0
4, 2163, Note_on_c, 2, 50, 64
4, 2194, Note_on_c, 2, 50, 0
4, 2238, Note_on_c, 2, 50, 64
4, 2251, Note_on_c, 2, 50, 0
4, 2253, Note_on_c, 2, 52, 64
4, 2266, Note_on_c, 2, 52, 0
4, 2268, Note_on_c, 2, 53, 64
4, 2281, Note_on_c, 2, 53, 0
4, 2283, Note_on_c, 2, 55, 64
4, 2318, Note_on_c, 2, 55, 0
4, 2358, Note_on_c, 2, 53, 64
4, 2371, Note_on_c, 2, 53, 0
4, 2373, Note_on_c, 2, 52, 64
4, 2386, Note_on_c, 2, 52, 0
4, 2388, Note_on_c, 2, 50, 64
4, 2401, Note_on_c, 2, 50, 0
4, 2403, Note_on_c, 2, 48, 64
4, 2481, Note_on_c, 2, 48, 0
4, 2493, Note_on_c, 2, 50, 64
4, 2519, Note_on_c, 2, 50, 0
4, 2523, Note_on_c, 2, 52, 64
4, 2549, Note_on_c, 2, 52, 0
4, 2553, Note_on_c, 2, 53, 64
4, 2566, Note_on_c, 2, 53, 0
4, 2568, Note_on_c, 2, 52, 64
4, 2581, Note_on_c, 2, 52, 0
4, 2583, Note_on_c, 2, 50, 64
4, 2609, Note_on_c, 2, 50, 0
4, 2613, Note_on_c, 2, 52, 64
4, 2639, Note_on_c, 2, 52, 0
4, 2643, Note_on_c, 2, 53, 64
4, 2748, Note_on_c, 2, 53, 0
4, 2943, Note_on_c, 2, 53, 64
4, 2962, Note_on_c, 2, 53, 0
4, 3003, Note_on_c, 2, 47, 64
4, 3030, Note_on_c, 2, 47, 0
4, 3063, Note_on_c, 2, 50, 64
4, 3086, Note_on_c, 2, 50, 0
4, 3123, Note_on_c, 2, 44, 64
4, 3150, Note_on_c, 2, 44, 0
4, 3183, Note_on_c, 2, 47, 64
4, 3210, Note_on_c, 2, 47, 0
4, 3243, Note_on_c, 2, 52, 64
4, 3348, Note_on_c, 2, 52, 0
4, 3363, Note_on_c, 2, 45, 64
4, 3415, Note_on_c, 2, 45, 0
4, 3543, Note_on_c, 2, 54, 64
4, 3595, Note_on_c, 2, 54, 0
4, 3603, Note_on_c, 2, 55, 64
4, 3655, Note_on_c, 2, 55, 0
4, 3783, Note_on_c, 2, 52, 64
4, 3835, Note_on_c, 2, 52, 0
4, 3843, Note_on_c, 2, 53, 64
4, 3895, Note_on_c, 2, 53, 0
4, 3903, Note_on_c, 2, 55, 64
4, 3955, Note_on_c, 2, 55, 0
4, 3963, Note_on_c, 2, 57, 64
4, 4015, Note_on_c, 2, 57, 0
4, 4023, Note_on_c, 2, 55, 64
4, 4075, Note_on_c, 2, 55, 0
4, 4083, Note_on_c, 2, 53, 64
4, 4135, Note_on_c, 2, 53, 0
4, 4143, Note_on_c, 2, 50, 64
4, 4195, Note_on_c, 2, 50, 0
4, 4203, Note_on_c, 2, 55, 64
4, 4255, Note_on_c, 2, 55, 0
4, 4263, Note_on_c, 2, 53, 64
4, 4315, Note_on_c, 2, 53, 0
4, 4323, Note_on_c, 2, 52, 64
4, 4390, Note_on_c, 2, 52, 0
4, 4443, Note_on_c, 2, 57, 64
4, 4514, Note_on_c, 2, 57, 0
4, 4563, Note_on_c, 2, 47, 64
4, 4626, Note_on_c, 2, 47, 0
4, 4863, Note_on_c, 2, 53, 64
4, 4890, Note_on_c, 2, 53, 0
4, 4923, Note_on_c, 2, 50, 64
4, 4950, Note_on_c, 2, 50, 0
4, 4983, Note_on_c, 2, 55, 64
4, 5014, Note_on_c, 2, 55, 0
4, 5043, Note_on_c, 2, 52, 64
4, 5121, Note_on_c, 2, 52, 0
4, 5133, Note_on_c, 2, 52, 64
4, 5146, Note_on_c, 2, 52, 0
4, 5148, Note_on_c, 2, 54, 64
4, 5161, Note_on_c, 2, 54, 0
4, 5163, Note_on_c, 2, 55, 64
4, 5183, Note_on_c, 2, 54, 64
4, 5190, Note_on_c, 2, 55, 0
4, 5191, Note_on_c, 2, 55, 64
4, 5198, Note_on_c, 2, 54, 0
4, 5199, Note_on_c, 2, 54, 64
4, 5206, Note_on_c, 2, 55, 0
4, 5207, Note_on_c, 2, 55, 64
4, 5214, Note_on_c, 2, 54, 0
4, 5215, Note_on_c, 2, 54, 64
4, 5222, Note_on_c, 2, 55, 0
4, 5223, Note_on_c, 2, 55, 64
4, 5230, Note_on_c, 2, 54, 0
4, 5231, Note_on_c, 2, 54, 64
4, 5238, Note_on_c, 2, 55, 0
4, 5239, Note_on_c, 2, 55, 64
4, 5246, Note_on_c, 2, 54, 0
4, 5247, Note_on_c, 2, 54, 64
4, 5253, Note_on_c, 2, 52, 64
4, 5254, Note_on_c, 2, 55, 0
4, 5262, Note_on_c, 2, 54, 0
4, 5266, Note_on_c, 2, 52, 0
4, 5268, Note_on_c, 2, 54, 64
4, 5281, Note_on_c, 2, 54, 0
4, 5283, Note_on_c, 2, 55, 64
4, 5335, Note_on_c, 2, 55, 0
4, 5343, Note_on_c, 2, 52, 64
4, 5395, Note_on_c, 2, 52, 0
4, 5403, Note_on_c, 2, 57, 64
4, 5508, Note_on_c, 2, 57, 0
4, 5583, Note_on_c, 2, 50, 64
4, 5606, Note_on_c, 2, 50, 0
4, 5643, Note_on_c, 2, 47, 64
4, 5674, Note_on_c, 2, 47, 0
4, 5703, Note_on_c, 2, 52, 64
4, 5726, Note_on_c, 2, 52, 0
4, 5763, Note_on_c, 2, 48, 64
4, 5794, Note_on_c, 2, 48, 0
4, 5823, Note_on_c, 2, 45, 64
4, 5850, Note_on_c, 2, 45, 0
4, 5883, Note_on_c, 2, 42, 64
4, 5914, Note_on_c, 2, 42, 0
4, 5943, Note_on_c, 2, 51, 64
4, 5966, Note_on_c, 2, 51, 0
4, 6003, Note_on_c, 2, 40, 64
4, 6030, Note_on_c, 2, 40, 0
4, 6303, Note_on_c, 2, 60, 64
4, 6334, Note_on_c, 2, 60, 0
4, 6363, Note_on_c, 2, 54, 64
4, 6394, Note_on_c, 2, 54, 0
4, 6423, Note_on_c, 2, 57, 64
4, 6450, Note_on_c, 2, 57, 0
4, 6483, Note_on_c, 2, 51, 64
4, 6510, Note_on_c, 2, 51, 0
4, 6543, Note_on_c, 2, 54, 64
4, 6570, Note_on_c, 2, 54, 0
4, 6603, Note_on_c, 2, 59, 64
4, 6682, Note_on_c, 2, 59, 0
4, 6723, Note_on_c, 2, 52, 64
4, 6758, Note_on_c, 2, 52, 0
4, 6798, Note_on_c, 2, 40, 64
4, 6811, Note_on_c, 2, 40, 0
4, 6813, Note_on_c, 2, 41, 64
4, 6826, Note_on_c, 2, 41, 0
4, 6828, Note_on_c, 2, 43, 64
4, 6841, Note_on_c, 2, 43, 0
4, 6843, Note_on_c, 2, 45, 64
4, 6870, Note_on_c, 2, 45, 0
4, 6918, Note_on_c, 2, 43, 64
4, 6931, Note_on_c, 2, 43, 0
4, 6933, Note_on_c, 2, 41, 64
4, 6946, Note_on_c, 2, 41, 0
4, 6948, Note_on_c, 2, 40, 64
4, 6961, Note_on_c, 2, 40, 0
4, 6963, Note_on_c, 2, 38, 64
4, 6990, Note_on_c, 2, 38, 0
4, 7263, Note_on_c, 2, 57, 64
4, 7294, Note_on_c, 2, 57, 0
4, 7323, Note_on_c, 2, 53, 64
4, 7358, Note_on_c, 2, 53, 0
4, 7383, Note_on_c, 2, 62, 64
4, 7414, Note_on_c, 2, 62, 0
4, 7443, Note_on_c, 2, 56, 64
4, 7474, Note_on_c, 2, 56, 0
4, 7503, Note_on_c, 2, 52, 64
4, 7542, Note_on_c, 2, 52, 0
4, 7563, Note_on_c, 2, 57, 64
4, 7696, Note_on_c, 2, 57, 0
4, 7698, Note_on_c, 2, 57, 64
4, 7711, Note_on_c, 2, 57, 0
4, 7713, Note_on_c, 2, 59, 64
4, 7726, Note_on_c, 2, 59, 0
4, 7728, Note_on_c, 2, 60, 64
4, 7741, Note_on_c, 2, 60, 0
4, 7743, Note_on_c, 2, 62, 64
4, 7756, Note_on_c, 2, 62, 0
4, 7758, Note_on_c, 2, 60, 64
4, 7771, Note_on_c, 2, 60, 0
4, 7773, Note_on_c, 2, 59, 64
4, 7786, Note_on_c, 2, 59, 0
4, 7788, Note_on_c, 2, 57, 64
4, 7801, Note_on_c, 2, 57, 0
4, 7803, Note_on_c, 2, 56, 64
4, 7816, Note_on_c, 2, 56, 0
4, 7818, Note_on_c, 2, 57, 64
4, 7831, Note_on_c, 2, 57, 0
4, 7833, Note_on_c, 2, 56, 64
4, 7846, Note_on_c, 2, 56, 0
4, 7848, Note_on_c, 2, 54, 64
4, 7861, Note_on_c, 2, 54, 0
4, 7863, Note_on_c, 2, 52, 64
4, 7876, Note_on_c, 2, 52, 0
4, 7878, Note_on_c, 2, 50, 64
4, 7891, Note_on_c, 2, 50, 0
4, 7893, Note_on_c, 2, 48, 64
4, 7906, Note_on_c, 2, 48, 0
4, 7908, Note_on_c, 2, 47, 64
4, 7921, Note_on_c, 2, 47, 0
4, 7923, Note_on_c, 2, 45, 64
4, 7954, Note_on_c, 2, 45, 0
4, 7983, Note_on_c, 2, 57, 64
4, 7996, Note_on_c, 2, 57, 0
4, 7998, Note_on_c, 2, 55, 64
4, 8011, Note_on_c, 2, 55, 0
4, 8013, Note_on_c, 2, 53, 64
4, 8026, Note_on_c, 2, 53, 0
4, 8028, Note_on_c, 2, 52, 64
4, 8041, Note_on_c, 2, 52, 0
4, 8043, Note_on_c, 2, 50, 64
4, 8070, Note_on_c, 2, 50, 0
4, 8103, Note_on_c, 2, 53, 64
4, 8116, Note_on_c, 2, 53, 0
4, 8118, Note_on_c, 2, 52, 64
4, 8131, Note_on_c, 2, 52, 0
4, 8133, Note_on_c, 2, 50, 64
4, 8146, Note_on_c, 2, 50, 0
4, 8148, Note_on_c, 2, 48, 64
4, 8161, Note_on_c, 2, 48, 0
4, 8163, Note_on_c, 2, 47, 64
4, 8176, Note_on_c, 2, 47, 0
4, 8178, Note_on_c, 2, 48, 64
4, 8191, Note_on_c, 2, 48, 0
4, 8193, Note_on_c, 2, 50, 64
4, 8232, Note_on_c, 2, 50, 0
4, 8238, Note_on_c, 2, 48, 64
4, 8251, Note_on_c, 2, 48, 0
4, 8253, Note_on_c, 2, 47, 64
4, 8266, Note_on_c, 2, 47, 0
4, 8268, Note_on_c, 2, 45, 64
4, 8281, Note_on_c, 2, 45, 0
4, 8283, Note_on_c, 2, 44, 64
4, 8296, Note_on_c, 2, 44, 0
4, 8298, Note_on_c, 2, 45, 64
4, 8311, Note_on_c, 2, 45, 0
4, 8313, Note_on_c, 2, 47, 64
4, 8352, Note_on_c, 2, 47, 0
4, 8358, Note_on_c, 2, 45, 64
4, 8371, Note_on_c, 2, 45, 0
4, 8373, Note_on_c, 2, 44, 64
4, 8386, Note_on_c, 2, 44, 0
4, 8388, Note_on_c, 2, 42, 64
4, 8401, Note_on_c, 2, 42, 0
4, 8403, Note_on_c, 2, 40, 64
4, 8481, Note_on_c, 2, 40, 0
4, 8493, Note_on_c, 2, 42, 64
4, 8506, Note_on_c, 2, 42, 0
4, 8508, Note_on_c, 2, 44, 64
4, 8521, Note_on_c, 2, 44, 0
4, 8523, Note_on_c, 2, 45, 64
4, 8547, Note_on_c, 2, 44, 64
4, 8554, Note_on_c, 2, 45, 0
4, 8555, Note_on_c, 2, 45, 64
4, 8566, Note_on_c, 2, 44, 0
4, 8567, Note_on_c, 2, 44, 64
4, 8574, Note_on_c, 2, 45, 0
4, 8575, Note_on_c, 2, 45, 64
4, 8586, Note_on_c, 2, 44, 0
4, 8587, Note_on_c, 2, 44, 64
4, 8594, Note_on_c, 2, 45, 0
4, 8595, Note_on_c, 2, 45, 64
4, 8603, Note_on_c, 2, 44, 64
4, 8606, Note_on_c, 2, 44, 0
4, 8613, Note_on_c, 2, 42, 64
4, 8614, Note_on_c, 2, 45, 0
4, 8622, Note_on_c, 2, 44, 0
4, 8626, Note_on_c, 2, 42, 0
4, 8628, Note_on_c, 2, 44, 64
4, 8641, Note_on_c, 2, 44, 0
4, 8643, Note_on_c, 2, 45, 64
4, 8721, Note_on_c, 2, 45, 0
4, 8733, Note_on_c, 2, 47, 64
4, 8746, Note_on_c, 2, 47, 0
4, 8748, Note_on_c, 2, 48, 64
4, 8761, Note_on_c, 2, 48, 0
4, 8763, Note_on_c, 2, 50, 64
4, 8791, Note_on_c, 2, 49, 64
4, 8798, Note_on_c, 2, 49, 0
4, 8798, Note_on_c, 2, 50, 0
4, 8799, Note_on_c, 2, 50, 64
4, 8806, Note_on_c, 2, 50, 0
4, 8807, Note_on_c, 2, 49, 64
4, 8814, Note_on_c, 2, 49, 0
4, 8815, Note_on_c, 2, 50, 64
4, 8822, Note_on_c, 2, 50, 0
4, 8823, Note_on_c, 2, 49, 64
4, 8830, Note_on_c, 2, 49, 0
4, 8831, Note_on_c, 2, 50, 64
4, 8838, Note_on_c, 2, 50, 0
4, 8839, Note_on_c, 2, 49, 64
4, 8846, Note_on_c, 2, 49, 0
4, 8853, Note_on_c, 2, 47, 64
4, 8866, Note_on_c, 2, 47, 0
4, 8868, Note_on_c, 2, 49, 64
4, 8881, Note_on_c, 2, 49, 0
4, 8883, Note_on_c, 2, 50, 64
4, 8961, Note_on_c, 2, 50, 0
4, 8973, Note_on_c, 2, 52, 64
4, 8986, Note_on_c, 2, 52, 0
4, 8988, Note_on_c, 2, 53, 64
4, 9001, Note_on_c, 2, 53, 0
4, 9003, Note_on_c, 2, 55, 64
4, 9031, Note_on_c, 2, 54, 64
4, 9038, Note_on_c, 2, 55, 0
4, 9039, Note_on_c, 2, 55, 64
4, 9042, Note_on_c, 2, 54, 0
4, 9047, Note_on_c, 2, 54, 64
4, 9050, Note_on_c, 2, 55, 0
4, 9055, Note_on_c, 2, 55, 64
4, 9058, Note_on_c, 2, 54, 0
4, 9063, Note_on_c, 2, 54, 64
4, 9066, Note_on_c, 2, 55, 0
4, 9071, Note_on_c, 2, 55, 64
4, 9074, Note_on_c, 2, 54, 0
4, 9079, Note_on_c, 2, 54, 64
4, 9082, Note_on_c, 2, 55, 0
4, 9090, Note_on_c, 2, 54, 0
4, 9093, Note_on_c, 2, 52, 64
4, 9106, Note_on_c, 2, 52, 0
4, 9108, Note_on_c, 2, 54, 64
4, 9121, Note_on_c, 2, 54, 0
4, 9123, Note_on_c, 2, 55, 64
4, 9201, Note_on_c, 2, 55, 0
4, 9213, Note_on_c, 2, 57, 64
4, 9226, Note_on_c, 2, 57, 0
4, 9228, Note_on_c, 2, 59, 64
4, 9241, Note_on_c, 2, 59, 0
4, 9243, Note_on_c, 2, 60, 64
4, 9267, Note_on_c, 2, 59, 64
4, 9274, Note_on_c, 2, 60, 0
4, 9275, Note_on_c, 2, 60, 64
4, 9278, Note_on_c, 2, 59, 0
4, 9283, Note_on_c, 2, 59, 64
4, 9286, Note_on_c, 2, 60, 0
4, 9291, Note_on_c, 2, 60, 64
4, 9294, Note_on_c, 2, 59, 0
4, 9299, Note_on_c, 2, 59, 64
4, 9302, Note_on_c, 2, 60, 0
4, 9307, Note_on_c, 2, 60, 64
4, 9310, Note_on_c, 2, 59, 0
4, 9315, Note_on_c, 2, 59, 64
4, 9318, Note_on_c, 2, 60, 0
4, 9326, Note_on_c, 2, 59, 0
4, 9333, Note_on_c, 2, 57, 64
4, 9346, Note_on_c, 2, 57, 0
4, 9348, Note_on_c, 2, 59, 64
4, 9361, Note_on_c, 2, 59, 0
4, 9363, Note_on_c, 2, 60, 64
4, 9441, Note_on_c, 2, 60, 0
4, 9453, Note_on_c, 2, 62, 64
4, 9466, Note_on_c, 2, 62, 0
4, 9468, Note_on_c, 2, 64, 64
4, 9481, Note_on_c, 2, 64, 0
4, 9483, Note_on_c, 2, 65, 64
4, 9507, Note_on_c, 2, 64, 64
4, 9514, Note_on_c, 2, 65, 0
4, 9515, Note_on_c, 2, 65, 64
4, 9522, Note_on_c, 2, 64, 0
4, 9523, Note_on_c, 2, 64, 64
4, 9530, Note_on_c, 2, 65, 0
4, 9531, Note_on_c, 2, 65, 64
4, 9538, Note_on_c, 2, 64, 0
4, 9539, Note_on_c, 2, 64, 64
4, 9546, Note_on_c, 2, 65, 0
4, 9547, Note_on_c, 2, 65, 64
4, 9554, Note_on_c, 2, 64, 0
4, 9555, Note_on_c, 2, 64, 64
4, 9562, Note_on_c, 2, 65, 0
4, 9570, Note_on_c, 2, 64, 0
4, 9573, Note_on_c, 2, 62, 64
4, 9586, Note_on_c, 2, 62, 0
4, 9588, Note_on_c, 2, 64, 64
4, 9601, Note_on_c, 2, 64, 0
4, 9603, Note_on_c, 2, 65, 64
4, 9681, Note_on_c, 2, 65, 0
4, 9693, Note_on_c, 2, 67, 64
4, 9706, Note_on_c, 2, 67, 0
4, 9708, Note_on_c, 2, 69, 64
4, 9721, Note_on_c, 2, 69, 0
4, 9723, Note_on_c, 2, 70, 64
4, 9747, Note_on_c, 2, 69, 64
4, 9754, Note_on_c, 2, 70, 0
4, 9755, Note_on_c, 2, 70, 64
4, 9758, Note_on_c, 2, 69, 0
4, 9763, Note_on_c, 2, 69, 64
4, 9766, Note_on_c, 2, 70, 0
4, 9771, Note_on_c, 2, 70, 64
4, 9774, Note_on_c, 2, 69, 0
4, 9779, Note_on_c, 2, 69, 64
4, 9782, Note_on_c, 2, 70, 0
4, 9787, Note_on_c, 2, 70, 64
4, 9790, Note_on_c, 2, 69, 0
4, 9795, Note_on_c, 2, 69, 64
4, 9798, Note_on_c, 2, 70, 0
4, 9806, Note_on_c, 2, 69, 0
4, 9813, Note_on_c, 2, 67, 64
4, 9826, Note_on_c, 2, 67, 0
4, 9828, Note_on_c, 2, 69, 64
4, 9841, Note_on_c, 2, 69, 0
4, 9843, Note_on_c, 2, 70, 64
4, 9869, Note_on_c, 2, 70, 0
4, 9873, Note_on_c, 2, 58, 64
4, 9886, Note_on_c, 2, 58, 0
4, 9888, Note_on_c, 2, 60, 64
4, 9901, Note_on_c, 2, 60, 0
4, 9903, Note_on_c, 2, 62, 64
4, 9916, Note_on_c, 2, 62, 0
4, 9918, Note_on_c, 2, 60, 64
4, 9931, Note_on_c, 2, 60, 0
4, 9933, Note_on_c, 2, 58, 64
4, 9946, Note_on_c, 2, 58, 0
4, 9948, Note_on_c, 2, 57, 64
4, 9961, Note_on_c, 2, 57, 0
4, 9963, Note_on_c, 2, 55, 64
4, 9976, Note_on_c, 2, 55, 0
4, 9978, Note_on_c, 2, 53, 64
4, 9991, Note_on_c, 2, 53, 0
4, 9993, Note_on_c, 2, 55, 64
4, 10006, Note_on_c, 2, 55, 0
4, 10008, Note_on_c, 2, 57, 64
4, 10021, Note_on_c, 2, 57, 0
4, 10023, Note_on_c, 2, 58, 64
4, 10036, Note_on_c, 2, 58, 0
4, 10038, Note_on_c, 2, 57, 64
4, 10051, Note_on_c, 2, 57, 0
4, 10053, Note_on_c, 2, 55, 64
4, 10066, Note_on_c, 2, 55, 0
4, 10068, Note_on_c, 2, 53, 64
4, 10081, Note_on_c, 2, 53, 0
4, 10083, Note_on_c, 2, 52, 64
4, 10096, Note_on_c, 2, 52, 0
4, 10098, Note_on_c, 2, 53, 64
4, 10111, Note_on_c, 2, 53, 0
4, 10113, Note_on_c, 2, 55, 64
4, 10152, Note_on_c, 2, 55, 0
4, 10158, Note_on_c, 2, 53, 64
4, 10171, Note_on_c, 2, 53, 0
4, 10173, Note_on_c, 2, 52, 64
4, 10186, Note_on_c, 2, 52, 0
4, 10188, Note_on_c, 2, 50, 64
4, 10201, Note_on_c, 2, 50, 0
4, 10203, Note_on_c, 2, 49, 64
4, 10216, Note_on_c, 2, 49, 0
4, 10218, Note_on_c, 2, 50, 64
4, 10231, Note_on_c, 2, 50, 0
4, 10233, Note_on_c, 2, 52, 64
4, 10272, Note_on_c, 2, 52, 0
4, 10278, Note_on_c, 2, 50, 64
4, 10291, Note_on_c, 2, 50, 0
4, 10293, Note_on_c, 2, 49, 64
4, 10306, Note_on_c, 2, 49, 0
4, 10308, Note_on_c, 2, 47, 64
4, 10321, Note_on_c, 2, 47, 0
4, 10323, Note_on_c, 2, 45, 64
4, 10401, Note_on_c, 2, 45, 0
4, 10413, Note_on_c, 2, 47, 64
4, 10426, Note_on_c, 2, 47, 0
4, 10428, Note_on_c, 2, 49, 64
4, 10441, Note_on_c, 2, 49, 0
4, 10443, Note_on_c, 2, 50, 64
4, 10455, Note_on_c, 2, 49, 64
4, 10462, Note_on_c, 2, 50, 0
4, 10463, Note_on_c, 2, 50, 64
4, 10474, Note_on_c, 2, 49, 0
4, 10475, Note_on_c, 2, 49, 64
4, 10482, Note_on_c, 2, 50, 0
4, 10483, Note_on_c, 2, 50, 64
4, 10494, Note_on_c, 2, 49, 0
4, 10495, Note_on_c, 2, 49, 64
4, 10502, Note_on_c, 2, 50, 0
4, 10503, Note_on_c, 2, 50, 64
4, 10514, Note_on_c, 2, 49, 0
4, 10515, Note_on_c, 2, 49, 64
4, 10522, Note_on_c, 2, 50, 0
4, 10533, Note_on_c, 2, 47, 64
4, 10534, Note_on_c, 2, 49, 0
4, 10546, Note_on_c, 2, 47, 0
4, 10548, Note_on_c, 2, 49, 64
4, 10561, Note_on_c, 2, 49, 0
4, 10563, Note_on_c, 2, 50, 64
4, 10576, Note_on_c, 2, 50, 0
4, 10578, Note_on_c, 2, 52, 64
4, 10591, Note_on_c, 2, 52, 0
4, 10593, Note_on_c, 2, 53, 64
4, 10632, Note_on_c, 2, 53, 0
4, 10638, Note_on_c, 2, 52, 64
4, 10651, Note_on_c, 2, 52, 0
4, 10653, Note_on_c, 2, 50, 64
4, 10666, Note_on_c, 2, 50, 0
4, 10668, Note_on_c, 2, 48, 64
4, 10681, Note_on_c, 2, 48, 0
4, 10683, Note_on_c, 2, 47, 64
4, 10696, Note_on_c, 2, 47, 0
4, 10698, Note_on_c, 2, 48, 64
4, 10711, Note_on_c, 2, 48, 0
4, 10713, Note_on_c, 2, 50, 64
4, 10752, Note_on_c, 2, 50, 0
4, 10758, Note_on_c, 2, 48, 64
4, 10771, Note_on_c, 2, 48, 0
4, 10773, Note_on_c, 2, 47, 64
4, 10786, Note_on_c, 2, 47, 0
4, 10788, Note_on_c, 2, 45, 64
4, 10801, Note_on_c, 2, 45, 0
4, 10803, Note_on_c, 2, 43, 64
4, 10881, Note_on_c, 2, 43, 0
4, 10893, Note_on_c, 2, 45, 64
4, 10906, Note_on_c, 2, 45, 0
4, 10908, Note_on_c, 2, 47, 64
4, 10921, Note_on_c, 2, 47, 0
4, 10923, Note_on_c, 2, 48, 64
4, 10943, Note_on_c, 2, 47, 64
4, 10950, Note_on_c, 2, 48, 0
4, 10951, Note_on_c, 2, 48, 64
4, 10958, Note_on_c, 2, 47, 0
4, 10959, Note_on_c, 2, 47, 64
4, 10966, Note_on_c, 2, 48, 0
4, 10967, Note_on_c, 2, 48, 64
4, 10974, Note_on_c, 2, 47, 0
4, 10975, Note_on_c, 2, 47, 64
4, 10982, Note_on_c, 2, 48, 0
4, 10983, Note_on_c, 2, 48, 64
4, 10990, Note_on_c, 2, 47, 0
4, 10991, Note_on_c, 2, 47, 64
4, 10998, Note_on_c, 2, 48, 0
4, 10999, Note_on_c, 2, 48, 64
4, 11006, Note_on_c, 2, 47, 0
4, 11007, Note_on_c, 2, 47, 64
4, 11013, Note_on_c, 2, 45, 64
4, 11014, Note_on_c, 2, 48, 0
4, 11022, Note_on_c, 2, 47, 0
4, 11026, Note_on_c, 2, 45, 0
4, 11028, Note_on_c, 2, 47, 64
4, 11041, Note_on_c, 2, 47, 0
4, 11043, Note_on_c, 2, 48, 64
4, 11095, Note_on_c, 2, 48, 0
4, 11118, Note_on_c, 2, 60, 64
4, 11131, Note_on_c, 2, 60, 0
4, 11133, Note_on_c, 2, 62, 64
4, 11146, Note_on_c, 2, 62, 0
4, 11148, Note_on_c, 2, 64, 64
4, 11161, Note_on_c, 2, 64, 0
4, 11163, Note_on_c, 2, 65, 64
4, 11215, Note_on_c, 2, 65, 0
4, 11238, Note_on_c, 2, 64, 64
4, 11251, Note_on_c, 2, 64, 0
4, 11253, Note_on_c, 2, 62, 64
4, 11266, Note_on_c, 2, 62, 0
4, 11268, Note_on_c, 2, 60, 64
4, 11281, Note_on_c, 2, 60, 0
4, 11283, Note_on_c, 2, 59, 64
4, 11335, Note_on_c, 2, 59, 0
4, 11358, Note_on_c, 2, 47, 64
4, 11371, Note_on_c, 2, 47, 0
4, 11373, Note_on_c, 2, 48, 64
4, 11386, Note_on_c, 2, 48, 0
4, 11388, Note_on_c, 2, 50, 64
4, 11401, Note_on_c, 2, 50, 0
4, 11403, Note_on_c, 2, 52, 64
4, 11455, Note_on_c, 2, 52, 0
4, 11478, Note_on_c, 2, 50, 64
4, 11491, Note_on_c, 2, 50, 0
4, 11493, Note_on_c, 2, 48, 64
4, 11506, Note_on_c, 2, 48, 0
4, 11508, Note_on_c, 2, 47, 64
4, 11521, Note_on_c, 2, 47, 0
4, 11523, Note_on_c, 2, 45, 64
4, 11549, Note_on_c, 2, 45, 0
4, 11553, Note_on_c, 2, 47, 64
4, 11566, Note_on_c, 2, 47, 0
4, 11568, Note_on_c, 2, 48, 64
4, 11581, Note_on_c, 2, 48, 0
4, 11583, Note_on_c, 2, 50, 64
4, 11596, Note_on_c, 2, 50, 0
4, 11598, Note_on_c, 2, 52, 64
4, 11611, Note_on_c, 2, 52, 0
4, 11613, Note_on_c, 2, 54, 64
4, 11626, Note_on_c, 2, 54, 0
4, 11628, Note_on_c, 2, 56, 64
4, 11641, Note_on_c, 2, 56, 0
4, 11643, Note_on_c, 2, 57, 64
4, 11815, Note_on_c, 2, 57, 0
4, 11823, Note_on_c, 2, 56, 64
4, 11849, Note_on_c, 2, 56, 0
4, 11853, Note_on_c, 2, 54, 64
4, 11879, Note_on_c, 2, 54, 0
4, 11883, Note_on_c, 2, 52, 64
4, 11935, Note_on_c, 2, 52, 0
4, 11943, Note_on_c, 2, 50, 64
4, 11995, Note_on_c, 2, 50, 0
4, 12003, Note_on_c, 2, 48, 64
4, 12074, Note_on_c, 2, 48, 0
4, 12123, Note_on_c, 2, 53, 64
4, 12194, Note_on_c, 2, 53, 0
4, 12243, Note_on_c, 2, 44, 64
4, 12310, Note_on_c, 2, 44, 0
4, 12543, Note_on_c, 2, 50, 64
4, 12570, Note_on_c, 2, 50, 0
4, 12603, Note_on_c, 2, 47, 64
4, 12634, Note_on_c, 2, 47, 0
4, 12663, Note_on_c, 2, 52, 64
4, 12690, Note_on_c, 2, 52, 0
4, 12723, Note_on_c, 2, 48, 64
4, 12746, Note_on_c, 2, 48, 0
4, 12783, Note_on_c, 2, 45, 64
4, 12810, Note_on_c, 2, 45, 0
4, 12843, Note_on_c, 2, 40, 64
4, 12866, Note_on_c, 2, 40, 0
4, 12903, Note_on_c, 2, 43, 64
4, 12930, Note_on_c, 2, 43, 0
4, 12963, Note_on_c, 2, 41, 64
4, 12976, Note_on_c, 2, 41, 0
4, 12978, Note_on_c, 2, 40, 64
4, 12991, Note_on_c, 2, 40, 0
4, 12993, Note_on_c, 2, 38, 64
4, 13045, Note_on_c, 2, 38, 0
4, 13053, Note_on_c, 2, 40, 64
4, 13066, Note_on_c, 2, 40, 0
4, 13068, Note_on_c, 2, 41, 64
4, 13081, Note_on_c, 2, 41, 0
4, 13083, Note_on_c, 2, 38, 64
4, 13091, Note_on_c, 2, 40, 64
4, 13098, Note_on_c, 2, 38, 0
4, 13099, Note_on_c, 2, 41, 64
4, 13106, Note_on_c, 2, 40, 0
4, 13107, Note_on_c, 2, 40, 64
4, 13114, Note_on_c, 2, 41, 0
4, 13115, Note_on_c, 2, 41, 64
4, 13122, Note_on_c, 2, 40, 0
4, 13123, Note_on_c, 2, 40, 64
4, 13130, Note_on_c, 2, 41, 0
4, 13131, Note_on_c, 2, 41, 64
4, 13138, Note_on_c, 2, 40, 0
4, 13139, Note_on_c, 2, 40, 64
4, 13146, Note_on_c, 2, 41, 0
4, 13147, Note_on_c, 2, 41, 64
4, 13154, Note_on_c, 2, 40, 0
4, 13155, Note_on_c, 2, 40, 64
4, 13162, Note_on_c, 2, 41, 0
4, 13163, Note_on_c, 2, 41, 64
4, 13170, Note_on_c, 2, 41, 0
4, 13170, Note_on_c, 2, 40, 0
4, 13171, Note_on_c, 2, 40, 64
4, 13178, Note_on_c, 2, 40, 0
4, 13179, Note_on_c, 2, 38, 64
4, 13188, Note_on_c, 2, 40, 64
4, 13192, Note_on_c, 2, 38, 0
4, 13201, Note_on_c, 2, 40, 0
4, 13203, Note_on_c, 2, 33, 64
4, 13428, Note_on_c, 2, 33, 0
4, 13428, End_track
0, 0, End_of_file
