0, 0, Header, 1, 3, 120
1, 0, Start_track
1, 0, Time_signature, 4, 2, 24, 8
1, 0, Key_signature, 0, "major"
1, 0, Tempo, 1000000
1, 0, Marker_t, "(c) Yo Tomita, 1997"
1, 30364, Tempo, 995025
1, 30424, Tempo, 1027397
1, 30480, Tempo, 1045296
1, 30534, Tempo, 1060071
1, 30580, Tempo, 1079137
1, 30628, Tempo, 1098901
1, 30664, Tempo, 1142857
1, 30700, Tempo, 1217039
1, 30740, Tempo, 1388889
1, 30776, Tempo, 1392111
1, 30776, End_track
2, 0, Start_track
2, 0, MIDI_port, 0
2, 0, Title_t, "BWV 889/1"
2, 0, Program_c, 0, 6
2, 19, Note_on_c, 0, 72, 64
2, 32, Note_on_c, 0, 72, 0
2, 34, Note_on_c, 0, 74, 64
2, 47, Note_on_c, 0, 74, 0
2, 49, Note_on_c, 0, 76, 64
2, 62, Note_on_c, 0, 76, 0
2, 64, Note_on_c, 0, 77, 64
2, 90, Note_on_c, 0, 77, 0
2, 94, Note_on_c, 0, 72, 64
2, 120, Note_on_c, 0, 72, 0
2, 124, Note_on_c, 0, 71, 64
2, 150, Note_on_c, 0, 71, 0
2, 154, Note_on_c, 0, 75, 64
2, 180, Note_on_c, 0, 75, 0
2, 184, Note_on_c, 0, 76, 64
2, 210, Note_on_c, 0, 76, 0
2, 214, Note_on_c, 0, 70, 64
2, 240, Note_on_c, 0, 70, 0
2, 244, Note_on_c, 0, 69, 64
2, 270, Note_on_c, 0, 69, 0
2, 274, Note_on_c, 0, 73, 64
2, 300, Note_on_c, 0, 73, 0
2, 304, Note_on_c, 0, 74, 64
2, 330, Note_on_c, 0, 74, 0
2, 334, Note_on_c, 0, 68, 64
2, 390, Note_on_c, 0, 68, 0
2, 394, Note_on_c, 0, 69, 64
2, 446, Note_on_c, 0, 69, 0
2, 454, Note_on_c, 0, 71, 64
2, 480, Note_on_c, 0, 71, 0
2, 484, Note_on_c, 0, 64, 64
2, 536, Note_on_c, 0, 64, 0
2, 544, Note_on_c, 0, 69, 64
2, 596, Note_on_c, 0, 69, 0
2, 604, Note_on_c, 0, 68, 64
2, 656, Note_on_c, 0, 68, 0
2, 664, Note_on_c, 0, 67, 64
2, 716, Note_on_c, 0, 67, 0
2, 724, Note_on_c, 0, 66, 64
2, 776, Note_on_c, 0, 66, 0
2, 784, Note_on_c, 0, 65, 64
2, 836, Note_on_c, 0, 65, 0
2, 844, Note_on_c, 0, 64, 64
2, 896, Note_on_c, 0, 64, 0
2, 904, Note_on_c, 0, 62, 64
2, 990, Note_on_c, 0, 62, 0
2, 994, Note_on_c, 0, 60, 64
2, 1007, Note_on_c, 0, 60, 0
2, 1009, Note_on_c, 0, 59, 64
2, 1022, Note_on_c, 0, 59, 0
2, 1024, Note_on_c, 0, 60, 64
2, 1050, Note_on_c, 0, 60, 0
2, 1054, Note_on_c, 0, 69, 64
2, 1110, Note_on_c, 0, 69, 0
2, 1114, Note_on_c, 0, 68, 64
2, 1140, Note_on_c, 0, 68, 0
2, 1144, Note_on_c, 0, 76, 64
2, 1170, Note_on_c, 0, 76, 0
2, 1174, Note_on_c, 0, 67, 64
2, 1230, Note_on_c, 0, 67, 0
2, 1234, Note_on_c, 0, 66, 64
2, 1247, Note_on_c, 0, 66, 0
2, 1249, Note_on_c, 0, 64, 64
2, 1262, Note_on_c, 0, 64, 0
2, 1264, Note_on_c, 0, 63, 64
2, 1290, Note_on_c, 0, 63, 0
2, 1294, Note_on_c, 0, 71, 64
2, 1350, Note_on_c, 0, 71, 0
2, 1354, Note_on_c, 0, 70, 64
2, 1380, Note_on_c, 0, 70, 0
2, 1384, Note_on_c, 0, 78, 64
2, 1410, Note_on_c, 0, 78, 0
2, 1414, Note_on_c, 0, 69, 64
2, 1457, Note_on_c, 0, 69, 0
2, 1459, Note_on_c, 0, 67, 64
2, 1472, Note_on_c, 0, 67, 0
2, 1474, Note_on_c, 0, 69, 64
2, 1487, Note_on_c, 0, 69, 0
2, 1489, Note_on_c, 0, 71, 64
2, 1502, Note_on_c, 0, 71, 0
2, 1504, Note_on_c, 0, 72, 64
2, 1530, Note_on_c, 0, 72, 0
2, 1534, Note_on_c, 0, 67, 64
2, 1560, Note_on_c, 0, 67, 0
2, 1564, Note_on_c, 0, 66, 64
2, 1590, Note_on_c, 0, 66, 0
2, 1594, Note_on_c, 0, 70, 64
2, 1620, Note_on_c, 0, 70, 0
2, 1624, Note_on_c, 0, 71, 64
2, 1650, Note_on_c, 0, 71, 0
2, 1654, Note_on_c, 0, 65, 64
2, 1680, Note_on_c, 0, 65, 0
2, 1684, Note_on_c, 0, 64, 64
2, 1710, Note_on_c, 0, 64, 0
2, 1714, Note_on_c, 0, 68, 64
2, 1740, Note_on_c, 0, 68, 0
2, 1744, Note_on_c, 0, 69, 64
2, 1770, Note_on_c, 0, 69, 0
2, 1774, Note_on_c, 0, 63, 64
2, 1830, Note_on_c, 0, 63, 0
2, 1834, Note_on_c, 0, 64, 64
2, 1886, Note_on_c, 0, 64, 0
2, 1894, Note_on_c, 0, 66, 64
2, 1920, Note_on_c, 0, 66, 0
2, 1924, Note_on_c, 0, 59, 64
2, 1976, Note_on_c, 0, 59, 0
2, 1984, Note_on_c, 0, 76, 64
2, 2036, Note_on_c, 0, 76, 0
2, 2044, Note_on_c, 0, 75, 64
2, 2096, Note_on_c, 0, 75, 0
2, 2104, Note_on_c, 0, 74, 64
2, 2156, Note_on_c, 0, 74, 0
2, 2164, Note_on_c, 0, 73, 64
2, 2216, Note_on_c, 0, 73, 0
2, 2224, Note_on_c, 0, 72, 64
2, 2276, Note_on_c, 0, 72, 0
2, 2284, Note_on_c, 0, 71, 64
2, 2336, Note_on_c, 0, 71, 0
2, 2344, Note_on_c, 0, 69, 64
2, 2430, Note_on_c, 0, 69, 0
2, 2434, Note_on_c, 0, 67, 64
2, 2447, Note_on_c, 0, 67, 0
2, 2449, Note_on_c, 0, 66, 64
2, 2462, Note_on_c, 0, 66, 0
2, 2464, Note_on_c, 0, 67, 64
2, 2490, Note_on_c, 0, 67, 0
2, 2494, Note_on_c, 0, 76, 64
2, 2550, Note_on_c, 0, 76, 0
2, 2554, Note_on_c, 0, 75, 64
2, 2580, Note_on_c, 0, 75, 0
2, 2584, Note_on_c, 0, 83, 64
2, 2610, Note_on_c, 0, 83, 0
2, 2614, Note_on_c, 0, 74, 64
2, 2670, Note_on_c, 0, 74, 0
2, 2674, Note_on_c, 0, 72, 64
2, 2687, Note_on_c, 0, 72, 0
2, 2689, Note_on_c, 0, 71, 64
2, 2702, Note_on_c, 0, 71, 0
2, 2704, Note_on_c, 0, 72, 64
2, 2730, Note_on_c, 0, 72, 0
2, 2734, Note_on_c, 0, 69, 64
2, 2760, Note_on_c, 0, 69, 0
2, 2764, Note_on_c, 0, 71, 64
2, 2816, Note_on_c, 0, 71, 0
2, 2824, Note_on_c, 0, 73, 64
2, 2876, Note_on_c, 0, 73, 0
2, 2884, Note_on_c, 0, 74, 64
2, 2910, Note_on_c, 0, 74, 0
2, 2914, Note_on_c, 0, 62, 64
2, 2940, Note_on_c, 0, 62, 0
2, 2944, Note_on_c, 0, 74, 64
2, 3030, Note_on_c, 0, 74, 0
2, 3034, Note_on_c, 0, 73, 64
2, 3060, Note_on_c, 0, 73, 0
2, 3064, Note_on_c, 0, 81, 64
2, 3090, Note_on_c, 0, 81, 0
2, 3094, Note_on_c, 0, 72, 64
2, 3150, Note_on_c, 0, 72, 0
2, 3154, Note_on_c, 0, 71, 64
2, 3167, Note_on_c, 0, 71, 0
2, 3169, Note_on_c, 0, 69, 64
2, 3182, Note_on_c, 0, 69, 0
2, 3184, Note_on_c, 0, 71, 64
2, 3210, Note_on_c, 0, 71, 0
2, 3214, Note_on_c, 0, 67, 64
2, 3240, Note_on_c, 0, 67, 0
2, 3244, Note_on_c, 0, 69, 64
2, 3296, Note_on_c, 0, 69, 0
2, 3304, Note_on_c, 0, 71, 64
2, 3356, Note_on_c, 0, 71, 0
2, 3364, Note_on_c, 0, 72, 64
2, 3416, Note_on_c, 0, 72, 0
2, 3424, Note_on_c, 0, 84, 64
2, 3476, Note_on_c, 0, 84, 0
2, 3484, Note_on_c, 0, 83, 64
2, 3536, Note_on_c, 0, 83, 0
2, 3544, Note_on_c, 0, 82, 64
2, 3596, Note_on_c, 0, 82, 0
2, 3604, Note_on_c, 0, 81, 64
2, 3656, Note_on_c, 0, 81, 0
2, 3664, Note_on_c, 0, 80, 64
2, 3716, Note_on_c, 0, 80, 0
2, 3724, Note_on_c, 0, 79, 64
2, 3776, Note_on_c, 0, 79, 0
2, 3784, Note_on_c, 0, 77, 64
2, 3857, Note_on_c, 0, 77, 0
2, 3859, Note_on_c, 0, 71, 64
2, 3872, Note_on_c, 0, 71, 0
2, 3874, Note_on_c, 0, 72, 64
2, 3887, Note_on_c, 0, 72, 0
2, 3889, Note_on_c, 0, 74, 64
2, 3902, Note_on_c, 0, 74, 0
2, 3904, Note_on_c, 0, 76, 64
2, 3930, Note_on_c, 0, 76, 0
2, 3934, Note_on_c, 0, 71, 64
2, 3960, Note_on_c, 0, 71, 0
2, 3964, Note_on_c, 0, 70, 64
2, 3990, Note_on_c, 0, 70, 0
2, 3994, Note_on_c, 0, 73, 64
2, 4020, Note_on_c, 0, 73, 0
2, 4024, Note_on_c, 0, 74, 64
2, 4050, Note_on_c, 0, 74, 0
2, 4054, Note_on_c, 0, 69, 64
2, 4080, Note_on_c, 0, 69, 0
2, 4084, Note_on_c, 0, 68, 64
2, 4110, Note_on_c, 0, 68, 0
2, 4114, Note_on_c, 0, 71, 64
2, 4140, Note_on_c, 0, 71, 0
2, 4144, Note_on_c, 0, 72, 64
2, 4170, Note_on_c, 0, 72, 0
2, 4174, Note_on_c, 0, 67, 64
2, 4230, Note_on_c, 0, 67, 0
2, 4234, Note_on_c, 0, 66, 64
2, 4286, Note_on_c, 0, 66, 0
2, 4294, Note_on_c, 0, 67, 64
2, 4307, Note_on_c, 0, 67, 0
2, 4309, Note_on_c, 0, 69, 64
2, 4322, Note_on_c, 0, 69, 0
2, 4324, Note_on_c, 0, 62, 64
2, 4376, Note_on_c, 0, 62, 0
2, 4384, Note_on_c, 0, 67, 64
2, 4436, Note_on_c, 0, 67, 0
2, 4444, Note_on_c, 0, 69, 64
2, 4496, Note_on_c, 0, 69, 0
2, 4504, Note_on_c, 0, 71, 64
2, 4556, Note_on_c, 0, 71, 0
2, 4564, Note_on_c, 0, 72, 64
2, 4616, Note_on_c, 0, 72, 0
2, 4624, Note_on_c, 0, 69, 64
2, 4676, Note_on_c, 0, 69, 0
2, 4684, Note_on_c, 0, 71, 64
2, 4736, Note_on_c, 0, 71, 0
2, 4744, Note_on_c, 0, 73, 64
2, 4796, Note_on_c, 0, 73, 0
2, 4804, Note_on_c, 0, 74, 64
2, 4856, Note_on_c, 0, 74, 0
2, 4864, Note_on_c, 0, 62, 64
2, 4916, Note_on_c, 0, 62, 0
2, 4924, Note_on_c, 0, 61, 64
2, 4976, Note_on_c, 0, 61, 0
2, 4984, Note_on_c, 0, 60, 64
2, 5036, Note_on_c, 0, 60, 0
2, 5044, Note_on_c, 0, 59, 64
2, 5096, Note_on_c, 0, 59, 0
2, 5104, Note_on_c, 0, 58, 64
2, 5156, Note_on_c, 0, 58, 0
2, 5164, Note_on_c, 0, 57, 64
2, 5216, Note_on_c, 0, 57, 0
2, 5224, Note_on_c, 0, 55, 64
2, 5310, Note_on_c, 0, 55, 0
2, 5314, Note_on_c, 0, 53, 64
2, 5327, Note_on_c, 0, 53, 0
2, 5329, Note_on_c, 0, 52, 64
2, 5342, Note_on_c, 0, 52, 0
2, 5344, Note_on_c, 0, 53, 64
2, 5370, Note_on_c, 0, 53, 0
2, 5374, Note_on_c, 0, 62, 64
2, 5430, Note_on_c, 0, 62, 0
2, 5434, Note_on_c, 0, 61, 64
2, 5460, Note_on_c, 0, 61, 0
2, 5464, Note_on_c, 0, 69, 64
2, 5490, Note_on_c, 0, 69, 0
2, 5494, Note_on_c, 0, 60, 64
2, 5550, Note_on_c, 0, 60, 0
2, 5554, Note_on_c, 0, 59, 64
2, 5567, Note_on_c, 0, 59, 0
2, 5569, Note_on_c, 0, 57, 64
2, 5582, Note_on_c, 0, 57, 0
2, 5584, Note_on_c, 0, 56, 64
2, 5610, Note_on_c, 0, 56, 0
2, 5614, Note_on_c, 0, 64, 64
2, 5670, Note_on_c, 0, 64, 0
2, 5674, Note_on_c, 0, 63, 64
2, 5700, Note_on_c, 0, 63, 0
2, 5704, Note_on_c, 0, 71, 64
2, 5730, Note_on_c, 0, 71, 0
2, 5734, Note_on_c, 0, 62, 64
2, 5777, Note_on_c, 0, 62, 0
2, 5779, Note_on_c, 0, 60, 64
2, 5792, Note_on_c, 0, 60, 0
2, 5794, Note_on_c, 0, 62, 64
2, 5807, Note_on_c, 0, 62, 0
2, 5809, Note_on_c, 0, 64, 64
2, 5822, Note_on_c, 0, 64, 0
2, 5824, Note_on_c, 0, 65, 64
2, 5850, Note_on_c, 0, 65, 0
2, 5854, Note_on_c, 0, 60, 64
2, 5880, Note_on_c, 0, 60, 0
2, 5884, Note_on_c, 0, 59, 64
2, 5910, Note_on_c, 0, 59, 0
2, 5914, Note_on_c, 0, 63, 64
2, 5940, Note_on_c, 0, 63, 0
2, 5944, Note_on_c, 0, 64, 64
2, 5970, Note_on_c, 0, 64, 0
2, 5974, Note_on_c, 0, 58, 64
2, 6000, Note_on_c, 0, 58, 0
2, 6004, Note_on_c, 0, 57, 64
2, 6030, Note_on_c, 0, 57, 0
2, 6034, Note_on_c, 0, 61, 64
2, 6060, Note_on_c, 0, 61, 0
2, 6064, Note_on_c, 0, 62, 64
2, 6090, Note_on_c, 0, 62, 0
2, 6094, Note_on_c, 0, 56, 64
2, 6150, Note_on_c, 0, 56, 0
2, 6154, Note_on_c, 0, 57, 64
2, 6206, Note_on_c, 0, 57, 0
2, 6214, Note_on_c, 0, 59, 64
2, 6240, Note_on_c, 0, 59, 0
2, 6244, Note_on_c, 0, 52, 64
2, 6296, Note_on_c, 0, 52, 0
2, 6304, Note_on_c, 0, 64, 64
2, 6356, Note_on_c, 0, 64, 0
2, 6364, Note_on_c, 0, 66, 64
2, 6416, Note_on_c, 0, 66, 0
2, 6424, Note_on_c, 0, 68, 64
2, 6476, Note_on_c, 0, 68, 0
2, 6484, Note_on_c, 0, 69, 64
2, 6510, Note_on_c, 0, 69, 0
2, 6514, Note_on_c, 0, 57, 64
2, 6540, Note_on_c, 0, 57, 0
2, 6544, Note_on_c, 0, 69, 64
2, 6630, Note_on_c, 0, 69, 0
2, 6634, Note_on_c, 0, 68, 64
2, 6660, Note_on_c, 0, 68, 0
2, 6664, Note_on_c, 0, 76, 64
2, 6690, Note_on_c, 0, 76, 0
2, 6694, Note_on_c, 0, 67, 64
2, 6750, Note_on_c, 0, 67, 0
2, 6754, Note_on_c, 0, 66, 64
2, 6767, Note_on_c, 0, 66, 0
2, 6769, Note_on_c, 0, 64, 64
2, 6782, Note_on_c, 0, 64, 0
2, 6784, Note_on_c, 0, 66, 64
2, 6810, Note_on_c, 0, 66, 0
2, 6814, Note_on_c, 0, 62, 64
2, 6840, Note_on_c, 0, 62, 0
2, 6844, Note_on_c, 0, 64, 64
2, 6896, Note_on_c, 0, 64, 0
2, 6904, Note_on_c, 0, 66, 64
2, 6956, Note_on_c, 0, 66, 0
2, 6964, Note_on_c, 0, 67, 64
2, 6990, Note_on_c, 0, 67, 0
2, 6994, Note_on_c, 0, 55, 64
2, 7020, Note_on_c, 0, 55, 0
2, 7024, Note_on_c, 0, 67, 64
2, 7110, Note_on_c, 0, 67, 0
2, 7114, Note_on_c, 0, 66, 64
2, 7140, Note_on_c, 0, 66, 0
2, 7144, Note_on_c, 0, 74, 64
2, 7170, Note_on_c, 0, 74, 0
2, 7174, Note_on_c, 0, 65, 64
2, 7230, Note_on_c, 0, 65, 0
2, 7234, Note_on_c, 0, 64, 64
2, 7247, Note_on_c, 0, 64, 0
2, 7249, Note_on_c, 0, 62, 64
2, 7262, Note_on_c, 0, 62, 0
2, 7264, Note_on_c, 0, 64, 64
2, 7290, Note_on_c, 0, 64, 0
2, 7294, Note_on_c, 0, 76, 64
2, 7350, Note_on_c, 0, 76, 0
2, 7354, Note_on_c, 0, 77, 64
2, 7367, Note_on_c, 0, 77, 0
2, 7369, Note_on_c, 0, 76, 64
2, 7382, Note_on_c, 0, 76, 0
2, 7384, Note_on_c, 0, 74, 64
2, 7397, Note_on_c, 0, 74, 0
2, 7399, Note_on_c, 0, 72, 64
2, 7412, Note_on_c, 0, 72, 0
2, 7414, Note_on_c, 0, 71, 64
2, 7427, Note_on_c, 0, 71, 0
2, 7429, Note_on_c, 0, 69, 64
2, 7442, Note_on_c, 0, 69, 0
2, 7444, Note_on_c, 0, 68, 64
2, 7459, Note_on_c, 0, 64, 64
2, 7472, Note_on_c, 0, 64, 0
2, 7474, Note_on_c, 0, 62, 64
2, 7487, Note_on_c, 0, 62, 0
2, 7489, Note_on_c, 0, 60, 64
2, 7502, Note_on_c, 0, 60, 0
2, 7504, Note_on_c, 0, 59, 64
2, 7517, Note_on_c, 0, 59, 0
2, 7519, Note_on_c, 0, 57, 64
2, 7532, Note_on_c, 0, 57, 0
2, 7534, Note_on_c, 0, 56, 64
2, 7547, Note_on_c, 0, 56, 0
2, 7549, Note_on_c, 0, 54, 64
2, 7562, Note_on_c, 0, 54, 0
2, 7564, Note_on_c, 0, 52, 64
2, 7616, Note_on_c, 0, 52, 0
2, 7624, Note_on_c, 0, 40, 64
2, 7669, Note_on_c, 0, 68, 0
2, 7676, Note_on_c, 0, 40, 0
2, 7699, Note_on_c, 0, 72, 64
2, 7712, Note_on_c, 0, 72, 0
2, 7714, Note_on_c, 0, 74, 64
2, 7727, Note_on_c, 0, 74, 0
2, 7729, Note_on_c, 0, 76, 64
2, 7742, Note_on_c, 0, 76, 0
2, 7744, Note_on_c, 0, 77, 64
2, 7770, Note_on_c, 0, 77, 0
2, 7774, Note_on_c, 0, 72, 64
2, 7800, Note_on_c, 0, 72, 0
2, 7804, Note_on_c, 0, 71, 64
2, 7830, Note_on_c, 0, 71, 0
2, 7834, Note_on_c, 0, 75, 64
2, 7860, Note_on_c, 0, 75, 0
2, 7864, Note_on_c, 0, 76, 64
2, 7890, Note_on_c, 0, 76, 0
2, 7894, Note_on_c, 0, 70, 64
2, 7920, Note_on_c, 0, 70, 0
2, 7924, Note_on_c, 0, 69, 64
2, 7950, Note_on_c, 0, 69, 0
2, 7954, Note_on_c, 0, 73, 64
2, 7980, Note_on_c, 0, 73, 0
2, 7984, Note_on_c, 0, 74, 64
2, 8010, Note_on_c, 0, 74, 0
2, 8014, Note_on_c, 0, 68, 64
2, 8070, Note_on_c, 0, 68, 0
2, 8074, Note_on_c, 0, 69, 64
2, 8126, Note_on_c, 0, 69, 0
2, 8134, Note_on_c, 0, 71, 64
2, 8160, Note_on_c, 0, 71, 0
2, 8164, Note_on_c, 0, 64, 64
2, 8216, Note_on_c, 0, 64, 0
2, 8224, Note_on_c, 0, 69, 64
2, 8276, Note_on_c, 0, 69, 0
2, 8284, Note_on_c, 0, 68, 64
2, 8336, Note_on_c, 0, 68, 0
2, 8344, Note_on_c, 0, 67, 64
2, 8396, Note_on_c, 0, 67, 0
2, 8404, Note_on_c, 0, 66, 64
2, 8456, Note_on_c, 0, 66, 0
2, 8464, Note_on_c, 0, 65, 64
2, 8516, Note_on_c, 0, 65, 0
2, 8524, Note_on_c, 0, 64, 64
2, 8576, Note_on_c, 0, 64, 0
2, 8584, Note_on_c, 0, 62, 64
2, 8670, Note_on_c, 0, 62, 0
2, 8674, Note_on_c, 0, 60, 64
2, 8687, Note_on_c, 0, 60, 0
2, 8689, Note_on_c, 0, 59, 64
2, 8702, Note_on_c, 0, 59, 0
2, 8704, Note_on_c, 0, 60, 64
2, 8730, Note_on_c, 0, 60, 0
2, 8734, Note_on_c, 0, 69, 64
2, 8790, Note_on_c, 0, 69, 0
2, 8794, Note_on_c, 0, 68, 64
2, 8820, Note_on_c, 0, 68, 0
2, 8824, Note_on_c, 0, 76, 64
2, 8850, Note_on_c, 0, 76, 0
2, 8854, Note_on_c, 0, 67, 64
2, 8910, Note_on_c, 0, 67, 0
2, 8914, Note_on_c, 0, 66, 64
2, 8927, Note_on_c, 0, 66, 0
2, 8929, Note_on_c, 0, 64, 64
2, 8942, Note_on_c, 0, 64, 0
2, 8944, Note_on_c, 0, 63, 64
2, 8970, Note_on_c, 0, 63, 0
2, 8974, Note_on_c, 0, 71, 64
2, 9030, Note_on_c, 0, 71, 0
2, 9034, Note_on_c, 0, 70, 64
2, 9060, Note_on_c, 0, 70, 0
2, 9064, Note_on_c, 0, 78, 64
2, 9090, Note_on_c, 0, 78, 0
2, 9094, Note_on_c, 0, 69, 64
2, 9137, Note_on_c, 0, 69, 0
2, 9139, Note_on_c, 0, 67, 64
2, 9152, Note_on_c, 0, 67, 0
2, 9154, Note_on_c, 0, 69, 64
2, 9167, Note_on_c, 0, 69, 0
2, 9169, Note_on_c, 0, 71, 64
2, 9182, Note_on_c, 0, 71, 0
2, 9184, Note_on_c, 0, 72, 64
2, 9210, Note_on_c, 0, 72, 0
2, 9214, Note_on_c, 0, 67, 64
2, 9240, Note_on_c, 0, 67, 0
2, 9244, Note_on_c, 0, 66, 64
2, 9270, Note_on_c, 0, 66, 0
2, 9274, Note_on_c, 0, 70, 64
2, 9300, Note_on_c, 0, 70, 0
2, 9304, Note_on_c, 0, 71, 64
2, 9330, Note_on_c, 0, 71, 0
2, 9334, Note_on_c, 0, 65, 64
2, 9360, Note_on_c, 0, 65, 0
2, 9364, Note_on_c, 0, 64, 64
2, 9390, Note_on_c, 0, 64, 0
2, 9394, Note_on_c, 0, 68, 64
2, 9420, Note_on_c, 0, 68, 0
2, 9424, Note_on_c, 0, 69, 64
2, 9450, Note_on_c, 0, 69, 0
2, 9454, Note_on_c, 0, 63, 64
2, 9510, Note_on_c, 0, 63, 0
2, 9514, Note_on_c, 0, 64, 64
2, 9566, Note_on_c, 0, 64, 0
2, 9574, Note_on_c, 0, 66, 64
2, 9600, Note_on_c, 0, 66, 0
2, 9604, Note_on_c, 0, 59, 64
2, 9656, Note_on_c, 0, 59, 0
2, 9664, Note_on_c, 0, 76, 64
2, 9716, Note_on_c, 0, 76, 0
2, 9724, Note_on_c, 0, 75, 64
2, 9776, Note_on_c, 0, 75, 0
2, 9784, Note_on_c, 0, 74, 64
2, 9836, Note_on_c, 0, 74, 0
2, 9844, Note_on_c, 0, 73, 64
2, 9896, Note_on_c, 0, 73, 0
2, 9904, Note_on_c, 0, 72, 64
2, 9956, Note_on_c, 0, 72, 0
2, 9964, Note_on_c, 0, 71, 64
2, 10016, Note_on_c, 0, 71, 0
2, 10024, Note_on_c, 0, 69, 64
2, 10110, Note_on_c, 0, 69, 0
2, 10114, Note_on_c, 0, 67, 64
2, 10127, Note_on_c, 0, 67, 0
2, 10129, Note_on_c, 0, 66, 64
2, 10142, Note_on_c, 0, 66, 0
2, 10144, Note_on_c, 0, 67, 64
2, 10170, Note_on_c, 0, 67, 0
2, 10174, Note_on_c, 0, 76, 64
2, 10230, Note_on_c, 0, 76, 0
2, 10234, Note_on_c, 0, 75, 64
2, 10260, Note_on_c, 0, 75, 0
2, 10264, Note_on_c, 0, 83, 64
2, 10290, Note_on_c, 0, 83, 0
2, 10294, Note_on_c, 0, 74, 64
2, 10350, Note_on_c, 0, 74, 0
2, 10354, Note_on_c, 0, 72, 64
2, 10367, Note_on_c, 0, 72, 0
2, 10369, Note_on_c, 0, 71, 64
2, 10382, Note_on_c, 0, 71, 0
2, 10384, Note_on_c, 0, 72, 64
2, 10410, Note_on_c, 0, 72, 0
2, 10414, Note_on_c, 0, 69, 64
2, 10440, Note_on_c, 0, 69, 0
2, 10444, Note_on_c, 0, 71, 64
2, 10496, Note_on_c, 0, 71, 0
2, 10504, Note_on_c, 0, 73, 64
2, 10556, Note_on_c, 0, 73, 0
2, 10564, Note_on_c, 0, 74, 64
2, 10590, Note_on_c, 0, 74, 0
2, 10594, Note_on_c, 0, 62, 64
2, 10620, Note_on_c, 0, 62, 0
2, 10624, Note_on_c, 0, 74, 64
2, 10710, Note_on_c, 0, 74, 0
2, 10714, Note_on_c, 0, 73, 64
2, 10740, Note_on_c, 0, 73, 0
2, 10744, Note_on_c, 0, 81, 64
2, 10770, Note_on_c, 0, 81, 0
2, 10774, Note_on_c, 0, 72, 64
2, 10830, Note_on_c, 0, 72, 0
2, 10834, Note_on_c, 0, 71, 64
2, 10847, Note_on_c, 0, 71, 0
2, 10849, Note_on_c, 0, 69, 64
2, 10862, Note_on_c, 0, 69, 0
2, 10864, Note_on_c, 0, 71, 64
2, 10890, Note_on_c, 0, 71, 0
2, 10894, Note_on_c, 0, 67, 64
2, 10920, Note_on_c, 0, 67, 0
2, 10924, Note_on_c, 0, 69, 64
2, 10976, Note_on_c, 0, 69, 0
2, 10984, Note_on_c, 0, 71, 64
2, 11036, Note_on_c, 0, 71, 0
2, 11044, Note_on_c, 0, 72, 64
2, 11096, Note_on_c, 0, 72, 0
2, 11104, Note_on_c, 0, 84, 64
2, 11156, Note_on_c, 0, 84, 0
2, 11164, Note_on_c, 0, 83, 64
2, 11216, Note_on_c, 0, 83, 0
2, 11224, Note_on_c, 0, 82, 64
2, 11276, Note_on_c, 0, 82, 0
2, 11284, Note_on_c, 0, 81, 64
2, 11336, Note_on_c, 0, 81, 0
2, 11344, Note_on_c, 0, 80, 64
2, 11396, Note_on_c, 0, 80, 0
2, 11404, Note_on_c, 0, 79, 64
2, 11456, Note_on_c, 0, 79, 0
2, 11464, Note_on_c, 0, 77, 64
2, 11537, Note_on_c, 0, 77, 0
2, 11539, Note_on_c, 0, 71, 64
2, 11552, Note_on_c, 0, 71, 0
2, 11554, Note_on_c, 0, 72, 64
2, 11567, Note_on_c, 0, 72, 0
2, 11569, Note_on_c, 0, 74, 64
2, 11582, Note_on_c, 0, 74, 0
2, 11584, Note_on_c, 0, 76, 64
2, 11610, Note_on_c, 0, 76, 0
2, 11614, Note_on_c, 0, 71, 64
2, 11640, Note_on_c, 0, 71, 0
2, 11644, Note_on_c, 0, 70, 64
2, 11670, Note_on_c, 0, 70, 0
2, 11674, Note_on_c, 0, 73, 64
2, 11700, Note_on_c, 0, 73, 0
2, 11704, Note_on_c, 0, 74, 64
2, 11730, Note_on_c, 0, 74, 0
2, 11734, Note_on_c, 0, 69, 64
2, 11760, Note_on_c, 0, 69, 0
2, 11764, Note_on_c, 0, 68, 64
2, 11790, Note_on_c, 0, 68, 0
2, 11794, Note_on_c, 0, 71, 64
2, 11820, Note_on_c, 0, 71, 0
2, 11824, Note_on_c, 0, 72, 64
2, 11850, Note_on_c, 0, 72, 0
2, 11854, Note_on_c, 0, 67, 64
2, 11910, Note_on_c, 0, 67, 0
2, 11914, Note_on_c, 0, 66, 64
2, 11966, Note_on_c, 0, 66, 0
2, 11974, Note_on_c, 0, 67, 64
2, 11987, Note_on_c, 0, 67, 0
2, 11989, Note_on_c, 0, 69, 64
2, 12002, Note_on_c, 0, 69, 0
2, 12004, Note_on_c, 0, 62, 64
2, 12056, Note_on_c, 0, 62, 0
2, 12064, Note_on_c, 0, 67, 64
2, 12116, Note_on_c, 0, 67, 0
2, 12124, Note_on_c, 0, 69, 64
2, 12176, Note_on_c, 0, 69, 0
2, 12184, Note_on_c, 0, 71, 64
2, 12236, Note_on_c, 0, 71, 0
2, 12244, Note_on_c, 0, 72, 64
2, 12296, Note_on_c, 0, 72, 0
2, 12304, Note_on_c, 0, 69, 64
2, 12356, Note_on_c, 0, 69, 0
2, 12364, Note_on_c, 0, 71, 64
2, 12416, Note_on_c, 0, 71, 0
2, 12424, Note_on_c, 0, 73, 64
2, 12476, Note_on_c, 0, 73, 0
2, 12484, Note_on_c, 0, 74, 64
2, 12536, Note_on_c, 0, 74, 0
2, 12544, Note_on_c, 0, 62, 64
2, 12596, Note_on_c, 0, 62, 0
2, 12604, Note_on_c, 0, 61, 64
2, 12656, Note_on_c, 0, 61, 0
2, 12664, Note_on_c, 0, 60, 64
2, 12716, Note_on_c, 0, 60, 0
2, 12724, Note_on_c, 0, 59, 64
2, 12776, Note_on_c, 0, 59, 0
2, 12784, Note_on_c, 0, 58, 64
2, 12836, Note_on_c, 0, 58, 0
2, 12844, Note_on_c, 0, 57, 64
2, 12896, Note_on_c, 0, 57, 0
2, 12904, Note_on_c, 0, 55, 64
2, 12990, Note_on_c, 0, 55, 0
2, 12994, Note_on_c, 0, 53, 64
2, 13007, Note_on_c, 0, 53, 0
2, 13009, Note_on_c, 0, 52, 64
2, 13022, Note_on_c, 0, 52, 0
2, 13024, Note_on_c, 0, 53, 64
2, 13050, Note_on_c, 0, 53, 0
2, 13054, Note_on_c, 0, 62, 64
2, 13110, Note_on_c, 0, 62, 0
2, 13114, Note_on_c, 0, 61, 64
2, 13140, Note_on_c, 0, 61, 0
2, 13144, Note_on_c, 0, 69, 64
2, 13170, Note_on_c, 0, 69, 0
2, 13174, Note_on_c, 0, 60, 64
2, 13230, Note_on_c, 0, 60, 0
2, 13234, Note_on_c, 0, 59, 64
2, 13247, Note_on_c, 0, 59, 0
2, 13249, Note_on_c, 0, 57, 64
2, 13262, Note_on_c, 0, 57, 0
2, 13264, Note_on_c, 0, 56, 64
2, 13290, Note_on_c, 0, 56, 0
2, 13294, Note_on_c, 0, 64, 64
2, 13350, Note_on_c, 0, 64, 0
2, 13354, Note_on_c, 0, 63, 64
2, 13380, Note_on_c, 0, 63, 0
2, 13384, Note_on_c, 0, 71, 64
2, 13410, Note_on_c, 0, 71, 0
2, 13414, Note_on_c, 0, 62, 64
2, 13457, Note_on_c, 0, 62, 0
2, 13459, Note_on_c, 0, 60, 64
2, 13472, Note_on_c, 0, 60, 0
2, 13474, Note_on_c, 0, 62, 64
2, 13487, Note_on_c, 0, 62, 0
2, 13489, Note_on_c, 0, 64, 64
2, 13502, Note_on_c, 0, 64, 0
2, 13504, Note_on_c, 0, 65, 64
2, 13530, Note_on_c, 0, 65, 0
2, 13534, Note_on_c, 0, 60, 64
2, 13560, Note_on_c, 0, 60, 0
2, 13564, Note_on_c, 0, 59, 64
2, 13590, Note_on_c, 0, 59, 0
2, 13594, Note_on_c, 0, 63, 64
2, 13620, Note_on_c, 0, 63, 0
2, 13624, Note_on_c, 0, 64, 64
2, 13650, Note_on_c, 0, 64, 0
2, 13654, Note_on_c, 0, 58, 64
2, 13680, Note_on_c, 0, 58, 0
2, 13684, Note_on_c, 0, 57, 64
2, 13710, Note_on_c, 0, 57, 0
2, 13714, Note_on_c, 0, 61, 64
2, 13740, Note_on_c, 0, 61, 0
2, 13744, Note_on_c, 0, 62, 64
2, 13770, Note_on_c, 0, 62, 0
2, 13774, Note_on_c, 0, 56, 64
2, 13830, Note_on_c, 0, 56, 0
2, 13834, Note_on_c, 0, 57, 64
2, 13886, Note_on_c, 0, 57, 0
2, 13894, Note_on_c, 0, 59, 64
2, 13920, Note_on_c, 0, 59, 0
2, 13924, Note_on_c, 0, 52, 64
2, 13976, Note_on_c, 0, 52, 0
2, 13984, Note_on_c, 0, 64, 64
2, 14036, Note_on_c, 0, 64, 0
2, 14044, Note_on_c, 0, 66, 64
2, 14096, Note_on_c, 0, 66, 0
2, 14104, Note_on_c, 0, 68, 64
2, 14156, Note_on_c, 0, 68, 0
2, 14164, Note_on_c, 0, 69, 64
2, 14190, Note_on_c, 0, 69, 0
2, 14194, Note_on_c, 0, 57, 64
2, 14220, Note_on_c, 0, 57, 0
2, 14224, Note_on_c, 0, 69, 64
2, 14310, Note_on_c, 0, 69, 0
2, 14314, Note_on_c, 0, 68, 64
2, 14340, Note_on_c, 0, 68, 0
2, 14344, Note_on_c, 0, 76, 64
2, 14370, Note_on_c, 0, 76, 0
2, 14374, Note_on_c, 0, 67, 64
2, 14430, Note_on_c, 0, 67, 0
2, 14434, Note_on_c, 0, 66, 64
2, 14447, Note_on_c, 0, 66, 0
2, 14449, Note_on_c, 0, 64, 64
2, 14462, Note_on_c, 0, 64, 0
2, 14464, Note_on_c, 0, 66, 64
2, 14490, Note_on_c, 0, 66, 0
2, 14494, Note_on_c, 0, 62, 64
2, 14520, Note_on_c, 0, 62, 0
2, 14524, Note_on_c, 0, 64, 64
2, 14576, Note_on_c, 0, 64, 0
2, 14584, Note_on_c, 0, 66, 64
2, 14636, Note_on_c, 0, 66, 0
2, 14644, Note_on_c, 0, 67, 64
2, 14670, Note_on_c, 0, 67, 0
2, 14674, Note_on_c, 0, 55, 64
2, 14700, Note_on_c, 0, 55, 0
2, 14704, Note_on_c, 0, 67, 64
2, 14790, Note_on_c, 0, 67, 0
2, 14794, Note_on_c, 0, 66, 64
2, 14820, Note_on_c, 0, 66, 0
2, 14824, Note_on_c, 0, 74, 64
2, 14850, Note_on_c, 0, 74, 0
2, 14854, Note_on_c, 0, 65, 64
2, 14910, Note_on_c, 0, 65, 0
2, 14914, Note_on_c, 0, 64, 64
2, 14927, Note_on_c, 0, 64, 0
2, 14929, Note_on_c, 0, 62, 64
2, 14942, Note_on_c, 0, 62, 0
2, 14944, Note_on_c, 0, 64, 64
2, 14970, Note_on_c, 0, 64, 0
2, 14974, Note_on_c, 0, 76, 64
2, 15030, Note_on_c, 0, 76, 0
2, 15034, Note_on_c, 0, 77, 64
2, 15047, Note_on_c, 0, 77, 0
2, 15049, Note_on_c, 0, 76, 64
2, 15062, Note_on_c, 0, 76, 0
2, 15064, Note_on_c, 0, 74, 64
2, 15077, Note_on_c, 0, 74, 0
2, 15079, Note_on_c, 0, 72, 64
2, 15092, Note_on_c, 0, 72, 0
2, 15094, Note_on_c, 0, 71, 64
2, 15107, Note_on_c, 0, 71, 0
2, 15109, Note_on_c, 0, 69, 64
2, 15122, Note_on_c, 0, 69, 0
2, 15124, Note_on_c, 0, 68, 64
2, 15139, Note_on_c, 0, 64, 64
2, 15152, Note_on_c, 0, 64, 0
2, 15154, Note_on_c, 0, 62, 64
2, 15167, Note_on_c, 0, 62, 0
2, 15169, Note_on_c, 0, 60, 64
2, 15182, Note_on_c, 0, 60, 0
2, 15184, Note_on_c, 0, 59, 64
2, 15197, Note_on_c, 0, 59, 0
2, 15199, Note_on_c, 0, 57, 64
2, 15212, Note_on_c, 0, 57, 0
2, 15214, Note_on_c, 0, 56, 64
2, 15227, Note_on_c, 0, 56, 0
2, 15229, Note_on_c, 0, 54, 64
2, 15242, Note_on_c, 0, 54, 0
2, 15244, Note_on_c, 0, 52, 64
2, 15296, Note_on_c, 0, 52, 0
2, 15304, Note_on_c, 0, 40, 64
2, 15349, Note_on_c, 0, 68, 0
2, 15356, Note_on_c, 0, 40, 0
2, 15364, Note_on_c, 0, 76, 64
2, 15416, Note_on_c, 0, 76, 0
2, 15424, Note_on_c, 0, 64, 64
2, 15476, Note_on_c, 0, 64, 0
2, 15484, Note_on_c, 0, 65, 64
2, 15536, Note_on_c, 0, 65, 0
2, 15544, Note_on_c, 0, 66, 64
2, 15596, Note_on_c, 0, 66, 0
2, 15604, Note_on_c, 0, 67, 64
2, 15656, Note_on_c, 0, 67, 0
2, 15664, Note_on_c, 0, 68, 64
2, 15716, Note_on_c, 0, 68, 0
2, 15724, Note_on_c, 0, 69, 64
2, 15776, Note_on_c, 0, 69, 0
2, 15784, Note_on_c, 0, 71, 64
2, 15836, Note_on_c, 0, 71, 0
2, 15844, Note_on_c, 0, 72, 64
2, 15857, Note_on_c, 0, 72, 0
2, 15859, Note_on_c, 0, 77, 64
2, 15872, Note_on_c, 0, 77, 0
2, 15874, Note_on_c, 0, 76, 64
2, 15887, Note_on_c, 0, 76, 0
2, 15889, Note_on_c, 0, 74, 64
2, 15902, Note_on_c, 0, 74, 0
2, 15904, Note_on_c, 0, 73, 64
2, 15930, Note_on_c, 0, 73, 0
2, 15934, Note_on_c, 0, 78, 64
2, 15960, Note_on_c, 0, 78, 0
2, 15964, Note_on_c, 0, 79, 64
2, 15990, Note_on_c, 0, 79, 0
2, 15994, Note_on_c, 0, 75, 64
2, 16020, Note_on_c, 0, 75, 0
2, 16024, Note_on_c, 0, 74, 64
2, 16050, Note_on_c, 0, 74, 0
2, 16054, Note_on_c, 0, 80, 64
2, 16080, Note_on_c, 0, 80, 0
2, 16084, Note_on_c, 0, 81, 64
2, 16110, Note_on_c, 0, 81, 0
2, 16114, Note_on_c, 0, 77, 64
2, 16140, Note_on_c, 0, 77, 0
2, 16144, Note_on_c, 0, 76, 64
2, 16170, Note_on_c, 0, 76, 0
2, 16174, Note_on_c, 0, 82, 64
2, 16230, Note_on_c, 0, 82, 0
2, 16234, Note_on_c, 0, 81, 64
2, 16286, Note_on_c, 0, 81, 0
2, 16294, Note_on_c, 0, 80, 64
2, 16320, Note_on_c, 0, 80, 0
2, 16324, Note_on_c, 0, 81, 64
2, 16337, Note_on_c, 0, 81, 0
2, 16339, Note_on_c, 0, 79, 64
2, 16352, Note_on_c, 0, 79, 0
2, 16354, Note_on_c, 0, 77, 64
2, 16367, Note_on_c, 0, 77, 0
2, 16369, Note_on_c, 0, 76, 64
2, 16382, Note_on_c, 0, 76, 0
2, 16384, Note_on_c, 0, 77, 64
2, 16410, Note_on_c, 0, 77, 0
2, 16414, Note_on_c, 0, 70, 64
2, 16440, Note_on_c, 0, 70, 0
2, 16444, Note_on_c, 0, 69, 64
2, 16470, Note_on_c, 0, 69, 0
2, 16474, Note_on_c, 0, 76, 64
2, 16500, Note_on_c, 0, 76, 0
2, 16504, Note_on_c, 0, 74, 64
2, 16530, Note_on_c, 0, 74, 0
2, 16534, Note_on_c, 0, 68, 64
2, 16577, Note_on_c, 0, 68, 0
2, 16579, Note_on_c, 0, 74, 64
2, 16592, Note_on_c, 0, 74, 0
2, 16594, Note_on_c, 0, 72, 64
2, 16607, Note_on_c, 0, 72, 0
2, 16609, Note_on_c, 0, 71, 64
2, 16622, Note_on_c, 0, 71, 0
2, 16624, Note_on_c, 0, 69, 64
2, 16650, Note_on_c, 0, 69, 0
2, 16654, Note_on_c, 0, 76, 64
2, 16680, Note_on_c, 0, 76, 0
2, 16684, Note_on_c, 0, 74, 64
2, 16710, Note_on_c, 0, 74, 0
2, 16714, Note_on_c, 0, 67, 64
2, 16740, Note_on_c, 0, 67, 0
2, 16744, Note_on_c, 0, 66, 64
2, 16770, Note_on_c, 0, 66, 0
2, 16774, Note_on_c, 0, 72, 64
2, 16800, Note_on_c, 0, 72, 0
2, 16804, Note_on_c, 0, 71, 64
2, 16856, Note_on_c, 0, 71, 0
2, 16864, Note_on_c, 0, 79, 64
2, 16916, Note_on_c, 0, 79, 0
2, 16924, Note_on_c, 0, 77, 64
2, 16976, Note_on_c, 0, 77, 0
2, 16984, Note_on_c, 0, 76, 64
2, 17036, Note_on_c, 0, 76, 0
2, 17044, Note_on_c, 0, 74, 64
2, 17096, Note_on_c, 0, 74, 0
2, 17104, Note_on_c, 0, 77, 64
2, 17156, Note_on_c, 0, 77, 0
2, 17164, Note_on_c, 0, 76, 64
2, 17216, Note_on_c, 0, 76, 0
2, 17224, Note_on_c, 0, 74, 64
2, 17336, Note_on_c, 0, 74, 0
2, 17344, Note_on_c, 0, 72, 64
2, 17370, Note_on_c, 0, 72, 0
2, 17374, Note_on_c, 0, 71, 64
2, 17400, Note_on_c, 0, 71, 0
2, 17404, Note_on_c, 0, 72, 64
2, 17456, Note_on_c, 0, 72, 0
2, 17464, Note_on_c, 0, 73, 64
2, 17516, Note_on_c, 0, 73, 0
2, 17524, Note_on_c, 0, 74, 64
2, 17576, Note_on_c, 0, 74, 0
2, 17584, Note_on_c, 0, 75, 64
2, 17636, Note_on_c, 0, 75, 0
2, 17644, Note_on_c, 0, 76, 64
2, 17696, Note_on_c, 0, 76, 0
2, 17704, Note_on_c, 0, 78, 64
2, 17756, Note_on_c, 0, 78, 0
2, 17764, Note_on_c, 0, 79, 64
2, 17777, Note_on_c, 0, 79, 0
2, 17779, Note_on_c, 0, 77, 64
2, 17792, Note_on_c, 0, 77, 0
2, 17794, Note_on_c, 0, 76, 64
2, 17807, Note_on_c, 0, 76, 0
2, 17809, Note_on_c, 0, 74, 64
2, 17822, Note_on_c, 0, 74, 0
2, 17824, Note_on_c, 0, 73, 64
2, 17850, Note_on_c, 0, 73, 0
2, 17854, Note_on_c, 0, 80, 64
2, 17880, Note_on_c, 0, 80, 0
2, 17884, Note_on_c, 0, 81, 64
2, 17910, Note_on_c, 0, 81, 0
2, 17914, Note_on_c, 0, 75, 64
2, 17940, Note_on_c, 0, 75, 0
2, 17944, Note_on_c, 0, 74, 64
2, 17970, Note_on_c, 0, 74, 0
2, 17974, Note_on_c, 0, 82, 64
2, 18000, Note_on_c, 0, 82, 0
2, 18004, Note_on_c, 0, 83, 64
2, 18030, Note_on_c, 0, 83, 0
2, 18034, Note_on_c, 0, 77, 64
2, 18060, Note_on_c, 0, 77, 0
2, 18064, Note_on_c, 0, 76, 64
2, 18090, Note_on_c, 0, 76, 0
2, 18094, Note_on_c, 0, 74, 64
2, 18150, Note_on_c, 0, 74, 0
2, 18154, Note_on_c, 0, 72, 64
2, 18206, Note_on_c, 0, 72, 0
2, 18214, Note_on_c, 0, 71, 64
2, 18270, Note_on_c, 0, 71, 0
2, 18274, Note_on_c, 0, 69, 64
2, 18287, Note_on_c, 0, 69, 0
2, 18289, Note_on_c, 0, 71, 64
2, 18302, Note_on_c, 0, 71, 0
2, 18304, Note_on_c, 0, 72, 64
2, 18330, Note_on_c, 0, 72, 0
2, 18334, Note_on_c, 0, 63, 64
2, 18360, Note_on_c, 0, 63, 0
2, 18364, Note_on_c, 0, 64, 64
2, 18390, Note_on_c, 0, 64, 0
2, 18394, Note_on_c, 0, 73, 64
2, 18420, Note_on_c, 0, 73, 0
2, 18424, Note_on_c, 0, 74, 64
2, 18450, Note_on_c, 0, 74, 0
2, 18454, Note_on_c, 0, 65, 64
2, 18480, Note_on_c, 0, 65, 0
2, 18484, Note_on_c, 0, 67, 64
2, 18536, Note_on_c, 0, 67, 0
2, 18544, Note_on_c, 0, 74, 64
2, 18596, Note_on_c, 0, 74, 0
2, 18604, Note_on_c, 0, 73, 64
2, 18656, Note_on_c, 0, 73, 0
2, 18664, Note_on_c, 0, 70, 64
2, 18737, Note_on_c, 0, 70, 0
2, 18739, Note_on_c, 0, 69, 64
2, 18752, Note_on_c, 0, 69, 0
2, 18754, Note_on_c, 0, 67, 64
2, 18767, Note_on_c, 0, 67, 0
2, 18769, Note_on_c, 0, 69, 64
2, 18782, Note_on_c, 0, 69, 0
2, 18784, Note_on_c, 0, 70, 64
2, 18810, Note_on_c, 0, 70, 0
2, 18814, Note_on_c, 0, 61, 64
2, 18840, Note_on_c, 0, 61, 0
2, 18844, Note_on_c, 0, 62, 64
2, 18870, Note_on_c, 0, 62, 0
2, 18874, Note_on_c, 0, 71, 64
2, 18900, Note_on_c, 0, 71, 0
2, 18904, Note_on_c, 0, 72, 64
2, 18930, Note_on_c, 0, 72, 0
2, 18934, Note_on_c, 0, 63, 64
2, 18960, Note_on_c, 0, 63, 0
2, 18964, Note_on_c, 0, 65, 64
2, 19016, Note_on_c, 0, 65, 0
2, 19024, Note_on_c, 0, 72, 64
2, 19076, Note_on_c, 0, 72, 0
2, 19084, Note_on_c, 0, 71, 64
2, 19136, Note_on_c, 0, 71, 0
2, 19144, Note_on_c, 0, 68, 64
2, 19217, Note_on_c, 0, 68, 0
2, 19219, Note_on_c, 0, 67, 64
2, 19232, Note_on_c, 0, 67, 0
2, 19234, Note_on_c, 0, 69, 64
2, 19247, Note_on_c, 0, 69, 0
2, 19249, Note_on_c, 0, 71, 64
2, 19262, Note_on_c, 0, 71, 0
2, 19264, Note_on_c, 0, 72, 64
2, 19290, Note_on_c, 0, 72, 0
2, 19294, Note_on_c, 0, 67, 64
2, 19320, Note_on_c, 0, 67, 0
2, 19324, Note_on_c, 0, 66, 64
2, 19350, Note_on_c, 0, 66, 0
2, 19354, Note_on_c, 0, 70, 64
2, 19380, Note_on_c, 0, 70, 0
2, 19384, Note_on_c, 0, 71, 64
2, 19410, Note_on_c, 0, 71, 0
2, 19414, Note_on_c, 0, 65, 64
2, 19440, Note_on_c, 0, 65, 0
2, 19444, Note_on_c, 0, 64, 64
2, 19470, Note_on_c, 0, 64, 0
2, 19474, Note_on_c, 0, 68, 64
2, 19500, Note_on_c, 0, 68, 0
2, 19504, Note_on_c, 0, 69, 64
2, 19530, Note_on_c, 0, 69, 0
2, 19534, Note_on_c, 0, 63, 64
2, 19590, Note_on_c, 0, 63, 0
2, 19594, Note_on_c, 0, 64, 64
2, 19646, Note_on_c, 0, 64, 0
2, 19654, Note_on_c, 0, 65, 64
2, 19680, Note_on_c, 0, 65, 0
2, 19684, Note_on_c, 0, 59, 64
2, 19736, Note_on_c, 0, 59, 0
2, 19744, Note_on_c, 0, 76, 64
2, 19796, Note_on_c, 0, 76, 0
2, 19804, Note_on_c, 0, 77, 64
2, 19856, Note_on_c, 0, 77, 0
2, 19864, Note_on_c, 0, 78, 64
2, 19916, Note_on_c, 0, 78, 0
2, 19924, Note_on_c, 0, 79, 64
2, 19976, Note_on_c, 0, 79, 0
2, 19984, Note_on_c, 0, 80, 64
2, 20036, Note_on_c, 0, 80, 0
2, 20044, Note_on_c, 0, 81, 64
2, 20096, Note_on_c, 0, 81, 0
2, 20104, Note_on_c, 0, 83, 64
2, 20190, Note_on_c, 0, 83, 0
2, 20194, Note_on_c, 0, 81, 64
2, 20207, Note_on_c, 0, 81, 0
2, 20209, Note_on_c, 0, 83, 64
2, 20222, Note_on_c, 0, 83, 0
2, 20224, Note_on_c, 0, 84, 64
2, 20250, Note_on_c, 0, 84, 0
2, 20254, Note_on_c, 0, 76, 64
2, 20310, Note_on_c, 0, 76, 0
2, 20314, Note_on_c, 0, 75, 64
2, 20340, Note_on_c, 0, 75, 0
2, 20344, Note_on_c, 0, 83, 64
2, 20370, Note_on_c, 0, 83, 0
2, 20374, Note_on_c, 0, 74, 64
2, 20417, Note_on_c, 0, 74, 0
2, 20419, Note_on_c, 0, 72, 64
2, 20432, Note_on_c, 0, 72, 0
2, 20434, Note_on_c, 0, 74, 64
2, 20447, Note_on_c, 0, 74, 0
2, 20449, Note_on_c, 0, 76, 64
2, 20462, Note_on_c, 0, 76, 0
2, 20464, Note_on_c, 0, 77, 64
2, 20490, Note_on_c, 0, 77, 0
2, 20494, Note_on_c, 0, 69, 64
2, 20550, Note_on_c, 0, 69, 0
2, 20554, Note_on_c, 0, 68, 64
2, 20580, Note_on_c, 0, 68, 0
2, 20584, Note_on_c, 0, 76, 64
2, 20610, Note_on_c, 0, 76, 0
2, 20614, Note_on_c, 0, 67, 64
2, 20657, Note_on_c, 0, 67, 0
2, 20659, Note_on_c, 0, 65, 64
2, 20672, Note_on_c, 0, 65, 0
2, 20674, Note_on_c, 0, 67, 64
2, 20687, Note_on_c, 0, 67, 0
2, 20689, Note_on_c, 0, 69, 64
2, 20702, Note_on_c, 0, 69, 0
2, 20704, Note_on_c, 0, 70, 64
2, 20730, Note_on_c, 0, 70, 0
2, 20734, Note_on_c, 0, 62, 64
2, 20790, Note_on_c, 0, 62, 0
2, 20794, Note_on_c, 0, 61, 64
2, 20820, Note_on_c, 0, 61, 0
2, 20824, Note_on_c, 0, 69, 64
2, 20850, Note_on_c, 0, 69, 0
2, 20854, Note_on_c, 0, 60, 64
2, 20910, Note_on_c, 0, 60, 0
2, 20914, Note_on_c, 0, 59, 64
2, 20940, Note_on_c, 0, 59, 0
2, 20944, Note_on_c, 0, 68, 64
2, 20970, Note_on_c, 0, 68, 0
2, 20974, Note_on_c, 0, 59, 64
2, 21030, Note_on_c, 0, 59, 0
2, 21034, Note_on_c, 0, 57, 64
2, 21060, Note_on_c, 0, 57, 0
2, 21064, Note_on_c, 0, 65, 64
2, 21090, Note_on_c, 0, 65, 0
2, 21094, Note_on_c, 0, 57, 64
2, 21150, Note_on_c, 0, 57, 0
2, 21154, Note_on_c, 0, 56, 64
2, 21167, Note_on_c, 0, 56, 0
2, 21169, Note_on_c, 0, 54, 64
2, 21182, Note_on_c, 0, 54, 0
2, 21184, Note_on_c, 0, 56, 64
2, 21210, Note_on_c, 0, 56, 0
2, 21214, Note_on_c, 0, 62, 64
2, 21257, Note_on_c, 0, 62, 0
2, 21259, Note_on_c, 0, 60, 64
2, 21272, Note_on_c, 0, 60, 0
2, 21274, Note_on_c, 0, 59, 64
2, 21287, Note_on_c, 0, 59, 0
2, 21289, Note_on_c, 0, 57, 64
2, 21302, Note_on_c, 0, 57, 0
2, 21304, Note_on_c, 0, 59, 64
2, 21330, Note_on_c, 0, 59, 0
2, 21334, Note_on_c, 0, 65, 64
2, 21377, Note_on_c, 0, 65, 0
2, 21379, Note_on_c, 0, 64, 64
2, 21392, Note_on_c, 0, 64, 0
2, 21394, Note_on_c, 0, 62, 64
2, 21407, Note_on_c, 0, 62, 0
2, 21409, Note_on_c, 0, 61, 64
2, 21422, Note_on_c, 0, 61, 0
2, 21424, Note_on_c, 0, 62, 64
2, 21450, Note_on_c, 0, 62, 0
2, 21454, Note_on_c, 0, 71, 64
2, 21497, Note_on_c, 0, 71, 0
2, 21499, Note_on_c, 0, 69, 64
2, 21512, Note_on_c, 0, 69, 0
2, 21514, Note_on_c, 0, 68, 64
2, 21527, Note_on_c, 0, 68, 0
2, 21529, Note_on_c, 0, 66, 64
2, 21542, Note_on_c, 0, 66, 0
2, 21544, Note_on_c, 0, 68, 64
2, 21570, Note_on_c, 0, 68, 0
2, 21574, Note_on_c, 0, 74, 64
2, 21630, Note_on_c, 0, 74, 0
2, 21634, Note_on_c, 0, 72, 64
2, 21647, Note_on_c, 0, 72, 0
2, 21649, Note_on_c, 0, 71, 64
2, 21662, Note_on_c, 0, 71, 0
2, 21664, Note_on_c, 0, 72, 64
2, 21690, Note_on_c, 0, 72, 0
2, 21694, Note_on_c, 0, 69, 64
2, 21720, Note_on_c, 0, 69, 0
2, 21724, Note_on_c, 0, 70, 64
2, 21776, Note_on_c, 0, 70, 0
2, 21784, Note_on_c, 0, 71, 64
2, 21836, Note_on_c, 0, 71, 0
2, 21844, Note_on_c, 0, 72, 64
2, 21896, Note_on_c, 0, 72, 0
2, 21904, Note_on_c, 0, 73, 64
2, 21956, Note_on_c, 0, 73, 0
2, 21964, Note_on_c, 0, 74, 64
2, 22016, Note_on_c, 0, 74, 0
2, 22024, Note_on_c, 0, 76, 64
2, 22097, Note_on_c, 0, 76, 0
2, 22099, Note_on_c, 0, 73, 64
2, 22112, Note_on_c, 0, 73, 0
2, 22114, Note_on_c, 0, 74, 64
2, 22127, Note_on_c, 0, 74, 0
2, 22129, Note_on_c, 0, 76, 64
2, 22142, Note_on_c, 0, 76, 0
2, 22144, Note_on_c, 0, 77, 64
2, 22170, Note_on_c, 0, 77, 0
2, 22174, Note_on_c, 0, 72, 64
2, 22200, Note_on_c, 0, 72, 0
2, 22204, Note_on_c, 0, 71, 64
2, 22230, Note_on_c, 0, 71, 0
2, 22234, Note_on_c, 0, 75, 64
2, 22260, Note_on_c, 0, 75, 0
2, 22264, Note_on_c, 0, 76, 64
2, 22290, Note_on_c, 0, 76, 0
2, 22294, Note_on_c, 0, 70, 64
2, 22320, Note_on_c, 0, 70, 0
2, 22324, Note_on_c, 0, 69, 64
2, 22350, Note_on_c, 0, 69, 0
2, 22354, Note_on_c, 0, 73, 64
2, 22380, Note_on_c, 0, 73, 0
2, 22384, Note_on_c, 0, 74, 64
2, 22410, Note_on_c, 0, 74, 0
2, 22414, Note_on_c, 0, 68, 64
2, 22470, Note_on_c, 0, 68, 0
2, 22474, Note_on_c, 0, 69, 64
2, 22526, Note_on_c, 0, 69, 0
2, 22534, Note_on_c, 0, 71, 64
2, 22560, Note_on_c, 0, 71, 0
2, 22564, Note_on_c, 0, 64, 64
2, 22590, Note_on_c, 0, 64, 0
2, 22594, Note_on_c, 0, 76, 64
2, 22633, Note_on_c, 0, 76, 0
2, 22639, Note_on_c, 0, 74, 64
2, 22652, Note_on_c, 0, 74, 0
2, 22654, Note_on_c, 0, 72, 64
2, 22667, Note_on_c, 0, 72, 0
2, 22669, Note_on_c, 0, 71, 64
2, 22682, Note_on_c, 0, 71, 0
2, 22684, Note_on_c, 0, 74, 64
2, 22697, Note_on_c, 0, 74, 0
2, 22699, Note_on_c, 0, 72, 64
2, 22712, Note_on_c, 0, 72, 0
2, 22714, Note_on_c, 0, 71, 64
2, 22727, Note_on_c, 0, 71, 0
2, 22729, Note_on_c, 0, 69, 64
2, 22742, Note_on_c, 0, 69, 0
2, 22744, Note_on_c, 0, 72, 64
2, 22757, Note_on_c, 0, 72, 0
2, 22759, Note_on_c, 0, 71, 64
2, 22772, Note_on_c, 0, 71, 0
2, 22774, Note_on_c, 0, 69, 64
2, 22787, Note_on_c, 0, 69, 0
2, 22789, Note_on_c, 0, 68, 64
2, 22802, Note_on_c, 0, 68, 0
2, 22804, Note_on_c, 0, 69, 64
2, 23029, Note_on_c, 0, 69, 0
2, 23044, Note_on_c, 0, 76, 64
2, 23096, Note_on_c, 0, 76, 0
2, 23104, Note_on_c, 0, 64, 64
2, 23156, Note_on_c, 0, 64, 0
2, 23164, Note_on_c, 0, 65, 64
2, 23216, Note_on_c, 0, 65, 0
2, 23224, Note_on_c, 0, 66, 64
2, 23276, Note_on_c, 0, 66, 0
2, 23284, Note_on_c, 0, 67, 64
2, 23336, Note_on_c, 0, 67, 0
2, 23344, Note_on_c, 0, 68, 64
2, 23396, Note_on_c, 0, 68, 0
2, 23404, Note_on_c, 0, 69, 64
2, 23456, Note_on_c, 0, 69, 0
2, 23464, Note_on_c, 0, 71, 64
2, 23516, Note_on_c, 0, 71, 0
2, 23524, Note_on_c, 0, 72, 64
2, 23537, Note_on_c, 0, 72, 0
2, 23539, Note_on_c, 0, 77, 64
2, 23552, Note_on_c, 0, 77, 0
2, 23554, Note_on_c, 0, 76, 64
2, 23567, Note_on_c, 0, 76, 0
2, 23569, Note_on_c, 0, 74, 64
2, 23582, Note_on_c, 0, 74, 0
2, 23584, Note_on_c, 0, 73, 64
2, 23610, Note_on_c, 0, 73, 0
2, 23614, Note_on_c, 0, 78, 64
2, 23640, Note_on_c, 0, 78, 0
2, 23644, Note_on_c, 0, 79, 64
2, 23670, Note_on_c, 0, 79, 0
2, 23674, Note_on_c, 0, 75, 64
2, 23700, Note_on_c, 0, 75, 0
2, 23704, Note_on_c, 0, 74, 64
2, 23730, Note_on_c, 0, 74, 0
2, 23734, Note_on_c, 0, 80, 64
2, 23760, Note_on_c, 0, 80, 0
2, 23764, Note_on_c, 0, 81, 64
2, 23790, Note_on_c, 0, 81, 0
2, 23794, Note_on_c, 0, 77, 64
2, 23820, Note_on_c, 0, 77, 0
2, 23824, Note_on_c, 0, 76, 64
2, 23850, Note_on_c, 0, 76, 0
2, 23854, Note_on_c, 0, 82, 64
2, 23910, Note_on_c, 0, 82, 0
2, 23914, Note_on_c, 0, 81, 64
2, 23966, Note_on_c, 0, 81, 0
2, 23974, Note_on_c, 0, 80, 64
2, 24000, Note_on_c, 0, 80, 0
2, 24004, Note_on_c, 0, 81, 64
2, 24017, Note_on_c, 0, 81, 0
2, 24019, Note_on_c, 0, 79, 64
2, 24032, Note_on_c, 0, 79, 0
2, 24034, Note_on_c, 0, 77, 64
2, 24047, Note_on_c, 0, 77, 0
2, 24049, Note_on_c, 0, 76, 64
2, 24062, Note_on_c, 0, 76, 0
2, 24064, Note_on_c, 0, 77, 64
2, 24090, Note_on_c, 0, 77, 0
2, 24094, Note_on_c, 0, 70, 64
2, 24120, Note_on_c, 0, 70, 0
2, 24124, Note_on_c, 0, 69, 64
2, 24150, Note_on_c, 0, 69, 0
2, 24154, Note_on_c, 0, 76, 64
2, 24180, Note_on_c, 0, 76, 0
2, 24184, Note_on_c, 0, 74, 64
2, 24210, Note_on_c, 0, 74, 0
2, 24214, Note_on_c, 0, 68, 64
2, 24257, Note_on_c, 0, 68, 0
2, 24259, Note_on_c, 0, 74, 64
2, 24272, Note_on_c, 0, 74, 0
2, 24274, Note_on_c, 0, 72, 64
2, 24287, Note_on_c, 0, 72, 0
2, 24289, Note_on_c, 0, 71, 64
2, 24302, Note_on_c, 0, 71, 0
2, 24304, Note_on_c, 0, 69, 64
2, 24330, Note_on_c, 0, 69, 0
2, 24334, Note_on_c, 0, 76, 64
2, 24360, Note_on_c, 0, 76, 0
2, 24364, Note_on_c, 0, 74, 64
2, 24390, Note_on_c, 0, 74, 0
2, 24394, Note_on_c, 0, 67, 64
2, 24420, Note_on_c, 0, 67, 0
2, 24424, Note_on_c, 0, 66, 64
2, 24450, Note_on_c, 0, 66, 0
2, 24454, Note_on_c, 0, 72, 64
2, 24480, Note_on_c, 0, 72, 0
2, 24484, Note_on_c, 0, 71, 64
2, 24536, Note_on_c, 0, 71, 0
2, 24544, Note_on_c, 0, 79, 64
2, 24596, Note_on_c, 0, 79, 0
2, 24604, Note_on_c, 0, 77, 64
2, 24656, Note_on_c, 0, 77, 0
2, 24664, Note_on_c, 0, 76, 64
2, 24716, Note_on_c, 0, 76, 0
2, 24724, Note_on_c, 0, 74, 64
2, 24776, Note_on_c, 0, 74, 0
2, 24784, Note_on_c, 0, 77, 64
2, 24836, Note_on_c, 0, 77, 0
2, 24844, Note_on_c, 0, 76, 64
2, 24896, Note_on_c, 0, 76, 0
2, 24904, Note_on_c, 0, 74, 64
2, 25016, Note_on_c, 0, 74, 0
2, 25024, Note_on_c, 0, 72, 64
2, 25050, Note_on_c, 0, 72, 0
2, 25054, Note_on_c, 0, 71, 64
2, 25080, Note_on_c, 0, 71, 0
2, 25084, Note_on_c, 0, 72, 64
2, 25136, Note_on_c, 0, 72, 0
2, 25144, Note_on_c, 0, 73, 64
2, 25196, Note_on_c, 0, 73, 0
2, 25204, Note_on_c, 0, 74, 64
2, 25256, Note_on_c, 0, 74, 0
2, 25264, Note_on_c, 0, 75, 64
2, 25316, Note_on_c, 0, 75, 0
2, 25324, Note_on_c, 0, 76, 64
2, 25376, Note_on_c, 0, 76, 0
2, 25384, Note_on_c, 0, 78, 64
2, 25436, Note_on_c, 0, 78, 0
2, 25444, Note_on_c, 0, 79, 64
2, 25457, Note_on_c, 0, 79, 0
2, 25459, Note_on_c, 0, 77, 64
2, 25472, Note_on_c, 0, 77, 0
2, 25474, Note_on_c, 0, 76, 64
2, 25487, Note_on_c, 0, 76, 0
2, 25489, Note_on_c, 0, 74, 64
2, 25502, Note_on_c, 0, 74, 0
2, 25504, Note_on_c, 0, 73, 64
2, 25530, Note_on_c, 0, 73, 0
2, 25534, Note_on_c, 0, 80, 64
2, 25560, Note_on_c, 0, 80, 0
2, 25564, Note_on_c, 0, 81, 64
2, 25590, Note_on_c, 0, 81, 0
2, 25594, Note_on_c, 0, 75, 64
2, 25620, Note_on_c, 0, 75, 0
2, 25624, Note_on_c, 0, 74, 64
2, 25650, Note_on_c, 0, 74, 0
2, 25654, Note_on_c, 0, 82, 64
2, 25680, Note_on_c, 0, 82, 0
2, 25684, Note_on_c, 0, 83, 64
2, 25710, Note_on_c, 0, 83, 0
2, 25714, Note_on_c, 0, 77, 64
2, 25740, Note_on_c, 0, 77, 0
2, 25744, Note_on_c, 0, 76, 64
2, 25770, Note_on_c, 0, 76, 0
2, 25774, Note_on_c, 0, 74, 64
2, 25830, Note_on_c, 0, 74, 0
2, 25834, Note_on_c, 0, 72, 64
2, 25886, Note_on_c, 0, 72, 0
2, 25894, Note_on_c, 0, 71, 64
2, 25950, Note_on_c, 0, 71, 0
2, 25954, Note_on_c, 0, 69, 64
2, 25967, Note_on_c, 0, 69, 0
2, 25969, Note_on_c, 0, 71, 64
2, 25982, Note_on_c, 0, 71, 0
2, 25984, Note_on_c, 0, 72, 64
2, 26010, Note_on_c, 0, 72, 0
2, 26014, Note_on_c, 0, 63, 64
2, 26040, Note_on_c, 0, 63, 0
2, 26044, Note_on_c, 0, 64, 64
2, 26070, Note_on_c, 0, 64, 0
2, 26074, Note_on_c, 0, 73, 64
2, 26100, Note_on_c, 0, 73, 0
2, 26104, Note_on_c, 0, 74, 64
2, 26130, Note_on_c, 0, 74, 0
2, 26134, Note_on_c, 0, 65, 64
2, 26160, Note_on_c, 0, 65, 0
2, 26164, Note_on_c, 0, 67, 64
2, 26216, Note_on_c, 0, 67, 0
2, 26224, Note_on_c, 0, 74, 64
2, 26276, Note_on_c, 0, 74, 0
2, 26284, Note_on_c, 0, 73, 64
2, 26336, Note_on_c, 0, 73, 0
2, 26344, Note_on_c, 0, 70, 64
2, 26417, Note_on_c, 0, 70, 0
2, 26419, Note_on_c, 0, 69, 64
2, 26432, Note_on_c, 0, 69, 0
2, 26434, Note_on_c, 0, 67, 64
2, 26447, Note_on_c, 0, 67, 0
2, 26449, Note_on_c, 0, 69, 64
2, 26462, Note_on_c, 0, 69, 0
2, 26464, Note_on_c, 0, 70, 64
2, 26490, Note_on_c, 0, 70, 0
2, 26494, Note_on_c, 0, 61, 64
2, 26520, Note_on_c, 0, 61, 0
2, 26524, Note_on_c, 0, 62, 64
2, 26550, Note_on_c, 0, 62, 0
2, 26554, Note_on_c, 0, 71, 64
2, 26580, Note_on_c, 0, 71, 0
2, 26584, Note_on_c, 0, 72, 64
2, 26610, Note_on_c, 0, 72, 0
2, 26614, Note_on_c, 0, 63, 64
2, 26640, Note_on_c, 0, 63, 0
2, 26644, Note_on_c, 0, 65, 64
2, 26696, Note_on_c, 0, 65, 0
2, 26704, Note_on_c, 0, 72, 64
2, 26756, Note_on_c, 0, 72, 0
2, 26764, Note_on_c, 0, 71, 64
2, 26816, Note_on_c, 0, 71, 0
2, 26824, Note_on_c, 0, 68, 64
2, 26897, Note_on_c, 0, 68, 0
2, 26899, Note_on_c, 0, 67, 64
2, 26912, Note_on_c, 0, 67, 0
2, 26914, Note_on_c, 0, 69, 64
2, 26927, Note_on_c, 0, 69, 0
2, 26929, Note_on_c, 0, 71, 64
2, 26942, Note_on_c, 0, 71, 0
2, 26944, Note_on_c, 0, 72, 64
2, 26970, Note_on_c, 0, 72, 0
2, 26974, Note_on_c, 0, 67, 64
2, 27000, Note_on_c, 0, 67, 0
2, 27004, Note_on_c, 0, 66, 64
2, 27030, Note_on_c, 0, 66, 0
2, 27034, Note_on_c, 0, 70, 64
2, 27060, Note_on_c, 0, 70, 0
2, 27064, Note_on_c, 0, 71, 64
2, 27090, Note_on_c, 0, 71, 0
2, 27094, Note_on_c, 0, 65, 64
2, 27120, Note_on_c, 0, 65, 0
2, 27124, Note_on_c, 0, 64, 64
2, 27150, Note_on_c, 0, 64, 0
2, 27154, Note_on_c, 0, 68, 64
2, 27180, Note_on_c, 0, 68, 0
2, 27184, Note_on_c, 0, 69, 64
2, 27210, Note_on_c, 0, 69, 0
2, 27214, Note_on_c, 0, 63, 64
2, 27270, Note_on_c, 0, 63, 0
2, 27274, Note_on_c, 0, 64, 64
2, 27326, Note_on_c, 0, 64, 0
2, 27334, Note_on_c, 0, 65, 64
2, 27360, Note_on_c, 0, 65, 0
2, 27364, Note_on_c, 0, 59, 64
2, 27416, Note_on_c, 0, 59, 0
2, 27424, Note_on_c, 0, 76, 64
2, 27476, Note_on_c, 0, 76, 0
2, 27484, Note_on_c, 0, 77, 64
2, 27536, Note_on_c, 0, 77, 0
2, 27544, Note_on_c, 0, 78, 64
2, 27596, Note_on_c, 0, 78, 0
2, 27604, Note_on_c, 0, 79, 64
2, 27656, Note_on_c, 0, 79, 0
2, 27664, Note_on_c, 0, 80, 64
2, 27716, Note_on_c, 0, 80, 0
2, 27724, Note_on_c, 0, 81, 64
2, 27776, Note_on_c, 0, 81, 0
2, 27784, Note_on_c, 0, 83, 64
2, 27870, Note_on_c, 0, 83, 0
2, 27874, Note_on_c, 0, 81, 64
2, 27887, Note_on_c, 0, 81, 0
2, 27889, Note_on_c, 0, 83, 64
2, 27902, Note_on_c, 0, 83, 0
2, 27904, Note_on_c, 0, 84, 64
2, 27930, Note_on_c, 0, 84, 0
2, 27934, Note_on_c, 0, 76, 64
2, 27990, Note_on_c, 0, 76, 0
2, 27994, Note_on_c, 0, 75, 64
2, 28020, Note_on_c, 0, 75, 0
2, 28024, Note_on_c, 0, 83, 64
2, 28050, Note_on_c, 0, 83, 0
2, 28054, Note_on_c, 0, 74, 64
2, 28097, Note_on_c, 0, 74, 0
2, 28099, Note_on_c, 0, 72, 64
2, 28112, Note_on_c, 0, 72, 0
2, 28114, Note_on_c, 0, 74, 64
2, 28127, Note_on_c, 0, 74, 0
2, 28129, Note_on_c, 0, 76, 64
2, 28142, Note_on_c, 0, 76, 0
2, 28144, Note_on_c, 0, 77, 64
2, 28170, Note_on_c, 0, 77, 0
2, 28174, Note_on_c, 0, 69, 64
2, 28230, Note_on_c, 0, 69, 0
2, 28234, Note_on_c, 0, 68, 64
2, 28260, Note_on_c, 0, 68, 0
2, 28264, Note_on_c, 0, 76, 64
2, 28290, Note_on_c, 0, 76, 0
2, 28294, Note_on_c, 0, 67, 64
2, 28337, Note_on_c, 0, 67, 0
2, 28339, Note_on_c, 0, 65, 64
2, 28352, Note_on_c, 0, 65, 0
2, 28354, Note_on_c, 0, 67, 64
2, 28367, Note_on_c, 0, 67, 0
2, 28369, Note_on_c, 0, 69, 64
2, 28382, Note_on_c, 0, 69, 0
2, 28384, Note_on_c, 0, 70, 64
2, 28410, Note_on_c, 0, 70, 0
2, 28414, Note_on_c, 0, 62, 64
2, 28470, Note_on_c, 0, 62, 0
2, 28474, Note_on_c, 0, 61, 64
2, 28500, Note_on_c, 0, 61, 0
2, 28504, Note_on_c, 0, 69, 64
2, 28530, Note_on_c, 0, 69, 0
2, 28534, Note_on_c, 0, 60, 64
2, 28590, Note_on_c, 0, 60, 0
2, 28594, Note_on_c, 0, 59, 64
2, 28620, Note_on_c, 0, 59, 0
2, 28624, Note_on_c, 0, 68, 64
2, 28650, Note_on_c, 0, 68, 0
2, 28654, Note_on_c, 0, 59, 64
2, 28710, Note_on_c, 0, 59, 0
2, 28714, Note_on_c, 0, 57, 64
2, 28740, Note_on_c, 0, 57, 0
2, 28744, Note_on_c, 0, 65, 64
2, 28770, Note_on_c, 0, 65, 0
2, 28774, Note_on_c, 0, 57, 64
2, 28830, Note_on_c, 0, 57, 0
2, 28834, Note_on_c, 0, 56, 64
2, 28847, Note_on_c, 0, 56, 0
2, 28849, Note_on_c, 0, 54, 64
2, 28862, Note_on_c, 0, 54, 0
2, 28864, Note_on_c, 0, 56, 64
2, 28890, Note_on_c, 0, 56, 0
2, 28894, Note_on_c, 0, 62, 64
2, 28937, Note_on_c, 0, 62, 0
2, 28939, Note_on_c, 0, 60, 64
2, 28952, Note_on_c, 0, 60, 0
2, 28954, Note_on_c, 0, 59, 64
2, 28967, Note_on_c, 0, 59, 0
2, 28969, Note_on_c, 0, 57, 64
2, 28982, Note_on_c, 0, 57, 0
2, 28984, Note_on_c, 0, 59, 64
2, 29010, Note_on_c, 0, 59, 0
2, 29014, Note_on_c, 0, 65, 64
2, 29057, Note_on_c, 0, 65, 0
2, 29059, Note_on_c, 0, 64, 64
2, 29072, Note_on_c, 0, 64, 0
2, 29074, Note_on_c, 0, 62, 64
2, 29087, Note_on_c, 0, 62, 0
2, 29089, Note_on_c, 0, 61, 64
2, 29102, Note_on_c, 0, 61, 0
2, 29104, Note_on_c, 0, 62, 64
2, 29130, Note_on_c, 0, 62, 0
2, 29134, Note_on_c, 0, 71, 64
2, 29177, Note_on_c, 0, 71, 0
2, 29179, Note_on_c, 0, 69, 64
2, 29192, Note_on_c, 0, 69, 0
2, 29194, Note_on_c, 0, 68, 64
2, 29207, Note_on_c, 0, 68, 0
2, 29209, Note_on_c, 0, 66, 64
2, 29222, Note_on_c, 0, 66, 0
2, 29224, Note_on_c, 0, 68, 64
2, 29250, Note_on_c, 0, 68, 0
2, 29254, Note_on_c, 0, 74, 64
2, 29310, Note_on_c, 0, 74, 0
2, 29314, Note_on_c, 0, 72, 64
2, 29327, Note_on_c, 0, 72, 0
2, 29329, Note_on_c, 0, 71, 64
2, 29342, Note_on_c, 0, 71, 0
2, 29344, Note_on_c, 0, 72, 64
2, 29370, Note_on_c, 0, 72, 0
2, 29374, Note_on_c, 0, 69, 64
2, 29400, Note_on_c, 0, 69, 0
2, 29404, Note_on_c, 0, 70, 64
2, 29456, Note_on_c, 0, 70, 0
2, 29464, Note_on_c, 0, 71, 64
2, 29516, Note_on_c, 0, 71, 0
2, 29524, Note_on_c, 0, 72, 64
2, 29576, Note_on_c, 0, 72, 0
2, 29584, Note_on_c, 0, 73, 64
2, 29636, Note_on_c, 0, 73, 0
2, 29644, Note_on_c, 0, 74, 64
2, 29696, Note_on_c, 0, 74, 0
2, 29704, Note_on_c, 0, 76, 64
2, 29777, Note_on_c, 0, 76, 0
2, 29779, Note_on_c, 0, 73, 64
2, 29792, Note_on_c, 0, 73, 0
2, 29794, Note_on_c, 0, 74, 64
2, 29807, Note_on_c, 0, 74, 0
2, 29809, Note_on_c, 0, 76, 64
2, 29822, Note_on_c, 0, 76, 0
2, 29824, Note_on_c, 0, 77, 64
2, 29850, Note_on_c, 0, 77, 0
2, 29854, Note_on_c, 0, 72, 64
2, 29880, Note_on_c, 0, 72, 0
2, 29884, Note_on_c, 0, 71, 64
2, 29910, Note_on_c, 0, 71, 0
2, 29914, Note_on_c, 0, 75, 64
2, 29940, Note_on_c, 0, 75, 0
2, 29944, Note_on_c, 0, 76, 64
2, 29970, Note_on_c, 0, 76, 0
2, 29974, Note_on_c, 0, 70, 64
2, 30000, Note_on_c, 0, 70, 0
2, 30004, Note_on_c, 0, 69, 64
2, 30030, Note_on_c, 0, 69, 0
2, 30034, Note_on_c, 0, 73, 64
2, 30060, Note_on_c, 0, 73, 0
2, 30064, Note_on_c, 0, 74, 64
2, 30090, Note_on_c, 0, 74, 0
2, 30094, Note_on_c, 0, 68, 64
2, 30150, Note_on_c, 0, 68, 0
2, 30154, Note_on_c, 0, 69, 64
2, 30206, Note_on_c, 0, 69, 0
2, 30214, Note_on_c, 0, 71, 64
2, 30240, Note_on_c, 0, 71, 0
2, 30244, Note_on_c, 0, 64, 64
2, 30270, Note_on_c, 0, 64, 0
2, 30274, Note_on_c, 0, 76, 64
2, 30313, Note_on_c, 0, 76, 0
2, 30319, Note_on_c, 0, 74, 64
2, 30332, Note_on_c, 0, 74, 0
2, 30334, Note_on_c, 0, 72, 64
2, 30347, Note_on_c, 0, 72, 0
2, 30349, Note_on_c, 0, 71, 64
2, 30362, Note_on_c, 0, 71, 0
2, 30364, Note_on_c, 0, 74, 64
2, 30377, Note_on_c, 0, 74, 0
2, 30379, Note_on_c, 0, 72, 64
2, 30392, Note_on_c, 0, 72, 0
2, 30394, Note_on_c, 0, 71, 64
2, 30407, Note_on_c, 0, 71, 0
2, 30409, Note_on_c, 0, 69, 64
2, 30422, Note_on_c, 0, 69, 0
2, 30424, Note_on_c, 0, 72, 64
2, 30437, Note_on_c, 0, 72, 0
2, 30439, Note_on_c, 0, 71, 64
2, 30452, Note_on_c, 0, 71, 0
2, 30454, Note_on_c, 0, 69, 64
2, 30467, Note_on_c, 0, 69, 0
2, 30469, Note_on_c, 0, 68, 64
2, 30482, Note_on_c, 0, 68, 0
2, 30484, Note_on_c, 0, 69, 64
2, 30709, Note_on_c, 0, 69, 0
2, 30709, End_track
3, 0, Start_track
3, 0, MIDI_port, 0
3, 0, Title_t, "Prelude in A minor"
3, 0, Program_c, 1, 6
3, 4, Note_on_c, 1, 45, 64
3, 56, Note_on_c, 1, 45, 0
3, 64, Note_on_c, 1, 57, 64
3, 116, Note_on_c, 1, 57, 0
3, 124, Note_on_c, 1, 56, 64
3, 176, Note_on_c, 1, 56, 0
3, 184, Note_on_c, 1, 55, 64
3, 236, Note_on_c, 1, 55, 0
3, 244, Note_on_c, 1, 54, 64
3, 296, Note_on_c, 1, 54, 0
3, 304, Note_on_c, 1, 53, 64
3, 356, Note_on_c, 1, 53, 0
3, 364, Note_on_c, 1, 52, 64
3, 416, Note_on_c, 1, 52, 0
3, 424, Note_on_c, 1, 50, 64
3, 497, Note_on_c, 1, 50, 0
3, 499, Note_on_c, 1, 48, 64
3, 512, Note_on_c, 1, 48, 0
3, 514, Note_on_c, 1, 50, 64
3, 527, Note_on_c, 1, 50, 0
3, 529, Note_on_c, 1, 52, 64
3, 542, Note_on_c, 1, 52, 0
3, 544, Note_on_c, 1, 53, 64
3, 570, Note_on_c, 1, 53, 0
3, 574, Note_on_c, 1, 48, 64
3, 600, Note_on_c, 1, 48, 0
3, 604, Note_on_c, 1, 47, 64
3, 630, Note_on_c, 1, 47, 0
3, 634, Note_on_c, 1, 51, 64
3, 660, Note_on_c, 1, 51, 0
3, 664, Note_on_c, 1, 52, 64
3, 690, Note_on_c, 1, 52, 0
3, 694, Note_on_c, 1, 46, 64
3, 720, Note_on_c, 1, 46, 0
3, 724, Note_on_c, 1, 45, 64
3, 750, Note_on_c, 1, 45, 0
3, 754, Note_on_c, 1, 49, 64
3, 780, Note_on_c, 1, 49, 0
3, 784, Note_on_c, 1, 50, 64
3, 810, Note_on_c, 1, 50, 0
3, 814, Note_on_c, 1, 44, 64
3, 870, Note_on_c, 1, 44, 0
3, 874, Note_on_c, 1, 45, 64
3, 926, Note_on_c, 1, 45, 0
3, 934, Note_on_c, 1, 47, 64
3, 960, Note_on_c, 1, 47, 0
3, 964, Note_on_c, 1, 40, 64
3, 1016, Note_on_c, 1, 40, 0
3, 1024, Note_on_c, 1, 45, 64
3, 1076, Note_on_c, 1, 45, 0
3, 1084, Note_on_c, 1, 47, 64
3, 1136, Note_on_c, 1, 47, 0
3, 1144, Note_on_c, 1, 49, 64
3, 1196, Note_on_c, 1, 49, 0
3, 1204, Note_on_c, 1, 50, 64
3, 1256, Note_on_c, 1, 50, 0
3, 1264, Note_on_c, 1, 47, 64
3, 1316, Note_on_c, 1, 47, 0
3, 1324, Note_on_c, 1, 49, 64
3, 1376, Note_on_c, 1, 49, 0
3, 1384, Note_on_c, 1, 51, 64
3, 1436, Note_on_c, 1, 51, 0
3, 1444, Note_on_c, 1, 52, 64
3, 1496, Note_on_c, 1, 52, 0
3, 1504, Note_on_c, 1, 64, 64
3, 1556, Note_on_c, 1, 64, 0
3, 1564, Note_on_c, 1, 63, 64
3, 1616, Note_on_c, 1, 63, 0
3, 1624, Note_on_c, 1, 62, 64
3, 1676, Note_on_c, 1, 62, 0
3, 1684, Note_on_c, 1, 61, 64
3, 1736, Note_on_c, 1, 61, 0
3, 1744, Note_on_c, 1, 60, 64
3, 1796, Note_on_c, 1, 60, 0
3, 1804, Note_on_c, 1, 59, 64
3, 1856, Note_on_c, 1, 59, 0
3, 1864, Note_on_c, 1, 57, 64
3, 1937, Note_on_c, 1, 57, 0
3, 1939, Note_on_c, 1, 55, 64
3, 1952, Note_on_c, 1, 55, 0
3, 1954, Note_on_c, 1, 57, 64
3, 1967, Note_on_c, 1, 57, 0
3, 1969, Note_on_c, 1, 59, 64
3, 1982, Note_on_c, 1, 59, 0
3, 1984, Note_on_c, 1, 60, 64
3, 2010, Note_on_c, 1, 60, 0
3, 2014, Note_on_c, 1, 55, 64
3, 2040, Note_on_c, 1, 55, 0
3, 2044, Note_on_c, 1, 54, 64
3, 2070, Note_on_c, 1, 54, 0
3, 2074, Note_on_c, 1, 58, 64
3, 2100, Note_on_c, 1, 58, 0
3, 2104, Note_on_c, 1, 59, 64
3, 2130, Note_on_c, 1, 59, 0
3, 2134, Note_on_c, 1, 53, 64
3, 2160, Note_on_c, 1, 53, 0
3, 2164, Note_on_c, 1, 52, 64
3, 2190, Note_on_c, 1, 52, 0
3, 2194, Note_on_c, 1, 56, 64
3, 2220, Note_on_c, 1, 56, 0
3, 2224, Note_on_c, 1, 57, 64
3, 2250, Note_on_c, 1, 57, 0
3, 2254, Note_on_c, 1, 51, 64
3, 2310, Note_on_c, 1, 51, 0
3, 2314, Note_on_c, 1, 52, 64
3, 2366, Note_on_c, 1, 52, 0
3, 2374, Note_on_c, 1, 54, 64
3, 2400, Note_on_c, 1, 54, 0
3, 2404, Note_on_c, 1, 47, 64
3, 2456, Note_on_c, 1, 47, 0
3, 2464, Note_on_c, 1, 52, 64
3, 2516, Note_on_c, 1, 52, 0
3, 2524, Note_on_c, 1, 54, 64
3, 2576, Note_on_c, 1, 54, 0
3, 2584, Note_on_c, 1, 56, 64
3, 2636, Note_on_c, 1, 56, 0
3, 2644, Note_on_c, 1, 57, 64
3, 2670, Note_on_c, 1, 57, 0
3, 2674, Note_on_c, 1, 45, 64
3, 2700, Note_on_c, 1, 45, 0
3, 2704, Note_on_c, 1, 57, 64
3, 2790, Note_on_c, 1, 57, 0
3, 2794, Note_on_c, 1, 56, 64
3, 2820, Note_on_c, 1, 56, 0
3, 2824, Note_on_c, 1, 64, 64
3, 2850, Note_on_c, 1, 64, 0
3, 2854, Note_on_c, 1, 55, 64
3, 2910, Note_on_c, 1, 55, 0
3, 2914, Note_on_c, 1, 54, 64
3, 2927, Note_on_c, 1, 54, 0
3, 2929, Note_on_c, 1, 52, 64
3, 2942, Note_on_c, 1, 52, 0
3, 2944, Note_on_c, 1, 54, 64
3, 2970, Note_on_c, 1, 54, 0
3, 2974, Note_on_c, 1, 50, 64
3, 3000, Note_on_c, 1, 50, 0
3, 3004, Note_on_c, 1, 52, 64
3, 3056, Note_on_c, 1, 52, 0
3, 3064, Note_on_c, 1, 54, 64
3, 3116, Note_on_c, 1, 54, 0
3, 3124, Note_on_c, 1, 55, 64
3, 3150, Note_on_c, 1, 55, 0
3, 3154, Note_on_c, 1, 43, 64
3, 3180, Note_on_c, 1, 43, 0
3, 3184, Note_on_c, 1, 55, 64
3, 3270, Note_on_c, 1, 55, 0
3, 3274, Note_on_c, 1, 54, 64
3, 3300, Note_on_c, 1, 54, 0
3, 3304, Note_on_c, 1, 62, 64
3, 3330, Note_on_c, 1, 62, 0
3, 3334, Note_on_c, 1, 53, 64
3, 3377, Note_on_c, 1, 53, 0
3, 3379, Note_on_c, 1, 52, 64
3, 3392, Note_on_c, 1, 52, 0
3, 3394, Note_on_c, 1, 53, 64
3, 3407, Note_on_c, 1, 53, 0
3, 3409, Note_on_c, 1, 55, 64
3, 3422, Note_on_c, 1, 55, 0
3, 3424, Note_on_c, 1, 57, 64
3, 3450, Note_on_c, 1, 57, 0
3, 3454, Note_on_c, 1, 52, 64
3, 3480, Note_on_c, 1, 52, 0
3, 3484, Note_on_c, 1, 51, 64
3, 3510, Note_on_c, 1, 51, 0
3, 3514, Note_on_c, 1, 54, 64
3, 3540, Note_on_c, 1, 54, 0
3, 3544, Note_on_c, 1, 55, 64
3, 3570, Note_on_c, 1, 55, 0
3, 3574, Note_on_c, 1, 50, 64
3, 3600, Note_on_c, 1, 50, 0
3, 3604, Note_on_c, 1, 49, 64
3, 3630, Note_on_c, 1, 49, 0
3, 3634, Note_on_c, 1, 52, 64
3, 3660, Note_on_c, 1, 52, 0
3, 3664, Note_on_c, 1, 53, 64
3, 3690, Note_on_c, 1, 53, 0
3, 3694, Note_on_c, 1, 48, 64
3, 3750, Note_on_c, 1, 48, 0
3, 3754, Note_on_c, 1, 47, 64
3, 3806, Note_on_c, 1, 47, 0
3, 3814, Note_on_c, 1, 48, 64
3, 3827, Note_on_c, 1, 48, 0
3, 3829, Note_on_c, 1, 50, 64
3, 3842, Note_on_c, 1, 50, 0
3, 3844, Note_on_c, 1, 43, 64
3, 3896, Note_on_c, 1, 43, 0
3, 3904, Note_on_c, 1, 55, 64
3, 3956, Note_on_c, 1, 55, 0
3, 3964, Note_on_c, 1, 54, 64
3, 4016, Note_on_c, 1, 54, 0
3, 4024, Note_on_c, 1, 53, 64
3, 4076, Note_on_c, 1, 53, 0
3, 4084, Note_on_c, 1, 52, 64
3, 4136, Note_on_c, 1, 52, 0
3, 4144, Note_on_c, 1, 51, 64
3, 4196, Note_on_c, 1, 51, 0
3, 4204, Note_on_c, 1, 50, 64
3, 4256, Note_on_c, 1, 50, 0
3, 4264, Note_on_c, 1, 48, 64
3, 4350, Note_on_c, 1, 48, 0
3, 4354, Note_on_c, 1, 47, 64
3, 4367, Note_on_c, 1, 47, 0
3, 4369, Note_on_c, 1, 45, 64
3, 4382, Note_on_c, 1, 45, 0
3, 4384, Note_on_c, 1, 47, 64
3, 4410, Note_on_c, 1, 47, 0
3, 4414, Note_on_c, 1, 55, 64
3, 4470, Note_on_c, 1, 55, 0
3, 4474, Note_on_c, 1, 54, 64
3, 4500, Note_on_c, 1, 54, 0
3, 4504, Note_on_c, 1, 62, 64
3, 4530, Note_on_c, 1, 62, 0
3, 4534, Note_on_c, 1, 53, 64
3, 4590, Note_on_c, 1, 53, 0
3, 4594, Note_on_c, 1, 52, 64
3, 4607, Note_on_c, 1, 52, 0
3, 4609, Note_on_c, 1, 50, 64
3, 4622, Note_on_c, 1, 50, 0
3, 4624, Note_on_c, 1, 49, 64
3, 4650, Note_on_c, 1, 49, 0
3, 4654, Note_on_c, 1, 57, 64
3, 4710, Note_on_c, 1, 57, 0
3, 4714, Note_on_c, 1, 56, 64
3, 4740, Note_on_c, 1, 56, 0
3, 4744, Note_on_c, 1, 64, 64
3, 4770, Note_on_c, 1, 64, 0
3, 4774, Note_on_c, 1, 55, 64
3, 4817, Note_on_c, 1, 55, 0
3, 4819, Note_on_c, 1, 54, 64
3, 4832, Note_on_c, 1, 54, 0
3, 4834, Note_on_c, 1, 55, 64
3, 4847, Note_on_c, 1, 55, 0
3, 4849, Note_on_c, 1, 57, 64
3, 4862, Note_on_c, 1, 57, 0
3, 4864, Note_on_c, 1, 58, 64
3, 4890, Note_on_c, 1, 58, 0
3, 4894, Note_on_c, 1, 53, 64
3, 4920, Note_on_c, 1, 53, 0
3, 4924, Note_on_c, 1, 52, 64
3, 4950, Note_on_c, 1, 52, 0
3, 4954, Note_on_c, 1, 56, 64
3, 4980, Note_on_c, 1, 56, 0
3, 4984, Note_on_c, 1, 57, 64
3, 5010, Note_on_c, 1, 57, 0
3, 5014, Note_on_c, 1, 51, 64
3, 5040, Note_on_c, 1, 51, 0
3, 5044, Note_on_c, 1, 50, 64
3, 5070, Note_on_c, 1, 50, 0
3, 5074, Note_on_c, 1, 54, 64
3, 5100, Note_on_c, 1, 54, 0
3, 5104, Note_on_c, 1, 55, 64
3, 5130, Note_on_c, 1, 55, 0
3, 5134, Note_on_c, 1, 49, 64
3, 5190, Note_on_c, 1, 49, 0
3, 5194, Note_on_c, 1, 50, 64
3, 5246, Note_on_c, 1, 50, 0
3, 5254, Note_on_c, 1, 52, 64
3, 5280, Note_on_c, 1, 52, 0
3, 5284, Note_on_c, 1, 45, 64
3, 5336, Note_on_c, 1, 45, 0
3, 5344, Note_on_c, 1, 50, 64
3, 5396, Note_on_c, 1, 50, 0
3, 5404, Note_on_c, 1, 52, 64
3, 5456, Note_on_c, 1, 52, 0
3, 5464, Note_on_c, 1, 54, 64
3, 5516, Note_on_c, 1, 54, 0
3, 5524, Note_on_c, 1, 55, 64
3, 5576, Note_on_c, 1, 55, 0
3, 5584, Note_on_c, 1, 52, 64
3, 5636, Note_on_c, 1, 52, 0
3, 5644, Note_on_c, 1, 54, 64
3, 5696, Note_on_c, 1, 54, 0
3, 5704, Note_on_c, 1, 56, 64
3, 5756, Note_on_c, 1, 56, 0
3, 5764, Note_on_c, 1, 57, 64
3, 5790, Note_on_c, 1, 57, 0
3, 5794, Note_on_c, 1, 45, 64
3, 5820, Note_on_c, 1, 45, 0
3, 5824, Note_on_c, 1, 57, 64
3, 5876, Note_on_c, 1, 57, 0
3, 5884, Note_on_c, 1, 56, 64
3, 5936, Note_on_c, 1, 56, 0
3, 5944, Note_on_c, 1, 55, 64
3, 5996, Note_on_c, 1, 55, 0
3, 6004, Note_on_c, 1, 54, 64
3, 6056, Note_on_c, 1, 54, 0
3, 6064, Note_on_c, 1, 53, 64
3, 6116, Note_on_c, 1, 53, 0
3, 6124, Note_on_c, 1, 52, 64
3, 6176, Note_on_c, 1, 52, 0
3, 6184, Note_on_c, 1, 50, 64
3, 6270, Note_on_c, 1, 50, 0
3, 6274, Note_on_c, 1, 48, 64
3, 6287, Note_on_c, 1, 48, 0
3, 6289, Note_on_c, 1, 47, 64
3, 6302, Note_on_c, 1, 47, 0
3, 6304, Note_on_c, 1, 48, 64
3, 6330, Note_on_c, 1, 48, 0
3, 6334, Note_on_c, 1, 52, 64
3, 6390, Note_on_c, 1, 52, 0
3, 6394, Note_on_c, 1, 51, 64
3, 6420, Note_on_c, 1, 51, 0
3, 6424, Note_on_c, 1, 59, 64
3, 6450, Note_on_c, 1, 59, 0
3, 6454, Note_on_c, 1, 50, 64
3, 6510, Note_on_c, 1, 50, 0
3, 6514, Note_on_c, 1, 49, 64
3, 6527, Note_on_c, 1, 49, 0
3, 6529, Note_on_c, 1, 47, 64
3, 6542, Note_on_c, 1, 47, 0
3, 6544, Note_on_c, 1, 49, 64
3, 6570, Note_on_c, 1, 49, 0
3, 6574, Note_on_c, 1, 45, 64
3, 6600, Note_on_c, 1, 45, 0
3, 6604, Note_on_c, 1, 47, 64
3, 6656, Note_on_c, 1, 47, 0
3, 6664, Note_on_c, 1, 49, 64
3, 6716, Note_on_c, 1, 49, 0
3, 6724, Note_on_c, 1, 50, 64
3, 6750, Note_on_c, 1, 50, 0
3, 6754, Note_on_c, 1, 38, 64
3, 6780, Note_on_c, 1, 38, 0
3, 6784, Note_on_c, 1, 50, 64
3, 6870, Note_on_c, 1, 50, 0
3, 6874, Note_on_c, 1, 49, 64
3, 6900, Note_on_c, 1, 49, 0
3, 6904, Note_on_c, 1, 57, 64
3, 6930, Note_on_c, 1, 57, 0
3, 6934, Note_on_c, 1, 48, 64
3, 6990, Note_on_c, 1, 48, 0
3, 6994, Note_on_c, 1, 47, 64
3, 7007, Note_on_c, 1, 47, 0
3, 7009, Note_on_c, 1, 45, 64
3, 7022, Note_on_c, 1, 45, 0
3, 7024, Note_on_c, 1, 47, 64
3, 7050, Note_on_c, 1, 47, 0
3, 7054, Note_on_c, 1, 43, 64
3, 7080, Note_on_c, 1, 43, 0
3, 7084, Note_on_c, 1, 45, 64
3, 7136, Note_on_c, 1, 45, 0
3, 7144, Note_on_c, 1, 47, 64
3, 7196, Note_on_c, 1, 47, 0
3, 7204, Note_on_c, 1, 48, 64
3, 7282, Note_on_c, 1, 48, 0
3, 7294, Note_on_c, 1, 47, 64
3, 7307, Note_on_c, 1, 47, 0
3, 7309, Note_on_c, 1, 45, 64
3, 7322, Note_on_c, 1, 45, 0
3, 7324, Note_on_c, 1, 53, 64
3, 7429, Note_on_c, 1, 53, 0
3, 7444, Note_on_c, 1, 52, 64
3, 7470, Note_on_c, 1, 52, 0
3, 7684, Note_on_c, 1, 45, 64
3, 7736, Note_on_c, 1, 45, 0
3, 7744, Note_on_c, 1, 57, 64
3, 7796, Note_on_c, 1, 57, 0
3, 7804, Note_on_c, 1, 56, 64
3, 7856, Note_on_c, 1, 56, 0
3, 7864, Note_on_c, 1, 55, 64
3, 7916, Note_on_c, 1, 55, 0
3, 7924, Note_on_c, 1, 54, 64
3, 7976, Note_on_c, 1, 54, 0
3, 7984, Note_on_c, 1, 53, 64
3, 8036, Note_on_c, 1, 53, 0
3, 8044, Note_on_c, 1, 52, 64
3, 8096, Note_on_c, 1, 52, 0
3, 8104, Note_on_c, 1, 50, 64
3, 8177, Note_on_c, 1, 50, 0
3, 8179, Note_on_c, 1, 48, 64
3, 8192, Note_on_c, 1, 48, 0
3, 8194, Note_on_c, 1, 50, 64
3, 8207, Note_on_c, 1, 50, 0
3, 8209, Note_on_c, 1, 52, 64
3, 8222, Note_on_c, 1, 52, 0
3, 8224, Note_on_c, 1, 53, 64
3, 8250, Note_on_c, 1, 53, 0
3, 8254, Note_on_c, 1, 48, 64
3, 8280, Note_on_c, 1, 48, 0
3, 8284, Note_on_c, 1, 47, 64
3, 8310, Note_on_c, 1, 47, 0
3, 8314, Note_on_c, 1, 51, 64
3, 8340, Note_on_c, 1, 51, 0
3, 8344, Note_on_c, 1, 52, 64
3, 8370, Note_on_c, 1, 52, 0
3, 8374, Note_on_c, 1, 46, 64
3, 8400, Note_on_c, 1, 46, 0
3, 8404, Note_on_c, 1, 45, 64
3, 8430, Note_on_c, 1, 45, 0
3, 8434, Note_on_c, 1, 49, 64
3, 8460, Note_on_c, 1, 49, 0
3, 8464, Note_on_c, 1, 50, 64
3, 8490, Note_on_c, 1, 50, 0
3, 8494, Note_on_c, 1, 44, 64
3, 8550, Note_on_c, 1, 44, 0
3, 8554, Note_on_c, 1, 45, 64
3, 8606, Note_on_c, 1, 45, 0
3, 8614, Note_on_c, 1, 47, 64
3, 8640, Note_on_c, 1, 47, 0
3, 8644, Note_on_c, 1, 40, 64
3, 8696, Note_on_c, 1, 40, 0
3, 8704, Note_on_c, 1, 45, 64
3, 8756, Note_on_c, 1, 45, 0
3, 8764, Note_on_c, 1, 47, 64
3, 8816, Note_on_c, 1, 47, 0
3, 8824, Note_on_c, 1, 49, 64
3, 8876, Note_on_c, 1, 49, 0
3, 8884, Note_on_c, 1, 50, 64
3, 8936, Note_on_c, 1, 50, 0
3, 8944, Note_on_c, 1, 47, 64
3, 8996, Note_on_c, 1, 47, 0
3, 9004, Note_on_c, 1, 49, 64
3, 9056, Note_on_c, 1, 49, 0
3, 9064, Note_on_c, 1, 51, 64
3, 9116, Note_on_c, 1, 51, 0
3, 9124, Note_on_c, 1, 52, 64
3, 9176, Note_on_c, 1, 52, 0
3, 9184, Note_on_c, 1, 64, 64
3, 9236, Note_on_c, 1, 64, 0
3, 9244, Note_on_c, 1, 63, 64
3, 9296, Note_on_c, 1, 63, 0
3, 9304, Note_on_c, 1, 62, 64
3, 9356, Note_on_c, 1, 62, 0
3, 9364, Note_on_c, 1, 61, 64
3, 9416, Note_on_c, 1, 61, 0
3, 9424, Note_on_c, 1, 60, 64
3, 9476, Note_on_c, 1, 60, 0
3, 9484, Note_on_c, 1, 59, 64
3, 9536, Note_on_c, 1, 59, 0
3, 9544, Note_on_c, 1, 57, 64
3, 9617, Note_on_c, 1, 57, 0
3, 9619, Note_on_c, 1, 55, 64
3, 9632, Note_on_c, 1, 55, 0
3, 9634, Note_on_c, 1, 57, 64
3, 9647, Note_on_c, 1, 57, 0
3, 9649, Note_on_c, 1, 59, 64
3, 9662, Note_on_c, 1, 59, 0
3, 9664, Note_on_c, 1, 60, 64
3, 9690, Note_on_c, 1, 60, 0
3, 9694, Note_on_c, 1, 55, 64
3, 9720, Note_on_c, 1, 55, 0
3, 9724, Note_on_c, 1, 54, 64
3, 9750, Note_on_c, 1, 54, 0
3, 9754, Note_on_c, 1, 58, 64
3, 9780, Note_on_c, 1, 58, 0
3, 9784, Note_on_c, 1, 59, 64
3, 9810, Note_on_c, 1, 59, 0
3, 9814, Note_on_c, 1, 53, 64
3, 9840, Note_on_c, 1, 53, 0
3, 9844, Note_on_c, 1, 52, 64
3, 9870, Note_on_c, 1, 52, 0
3, 9874, Note_on_c, 1, 56, 64
3, 9900, Note_on_c, 1, 56, 0
3, 9904, Note_on_c, 1, 57, 64
3, 9930, Note_on_c, 1, 57, 0
3, 9934, Note_on_c, 1, 51, 64
3, 9990, Note_on_c, 1, 51, 0
3, 9994, Note_on_c, 1, 52, 64
3, 10046, Note_on_c, 1, 52, 0
3, 10054, Note_on_c, 1, 54, 64
3, 10080, Note_on_c, 1, 54, 0
3, 10084, Note_on_c, 1, 47, 64
3, 10136, Note_on_c, 1, 47, 0
3, 10144, Note_on_c, 1, 52, 64
3, 10196, Note_on_c, 1, 52, 0
3, 10204, Note_on_c, 1, 54, 64
3, 10256, Note_on_c, 1, 54, 0
3, 10264, Note_on_c, 1, 56, 64
3, 10316, Note_on_c, 1, 56, 0
3, 10324, Note_on_c, 1, 57, 64
3, 10350, Note_on_c, 1, 57, 0
3, 10354, Note_on_c, 1, 45, 64
3, 10380, Note_on_c, 1, 45, 0
3, 10384, Note_on_c, 1, 57, 64
3, 10470, Note_on_c, 1, 57, 0
3, 10474, Note_on_c, 1, 56, 64
3, 10500, Note_on_c, 1, 56, 0
3, 10504, Note_on_c, 1, 64, 64
3, 10530, Note_on_c, 1, 64, 0
3, 10534, Note_on_c, 1, 55, 64
3, 10590, Note_on_c, 1, 55, 0
3, 10594, Note_on_c, 1, 54, 64
3, 10607, Note_on_c, 1, 54, 0
3, 10609, Note_on_c, 1, 52, 64
3, 10622, Note_on_c, 1, 52, 0
3, 10624, Note_on_c, 1, 54, 64
3, 10650, Note_on_c, 1, 54, 0
3, 10654, Note_on_c, 1, 50, 64
3, 10680, Note_on_c, 1, 50, 0
3, 10684, Note_on_c, 1, 52, 64
3, 10736, Note_on_c, 1, 52, 0
3, 10744, Note_on_c, 1, 54, 64
3, 10796, Note_on_c, 1, 54, 0
3, 10804, Note_on_c, 1, 55, 64
3, 10830, Note_on_c, 1, 55, 0
3, 10834, Note_on_c, 1, 43, 64
3, 10860, Note_on_c, 1, 43, 0
3, 10864, Note_on_c, 1, 55, 64
3, 10950, Note_on_c, 1, 55, 0
3, 10954, Note_on_c, 1, 54, 64
3, 10980, Note_on_c, 1, 54, 0
3, 10984, Note_on_c, 1, 62, 64
3, 11010, Note_on_c, 1, 62, 0
3, 11014, Note_on_c, 1, 53, 64
3, 11057, Note_on_c, 1, 53, 0
3, 11059, Note_on_c, 1, 52, 64
3, 11072, Note_on_c, 1, 52, 0
3, 11074, Note_on_c, 1, 53, 64
3, 11087, Note_on_c, 1, 53, 0
3, 11089, Note_on_c, 1, 55, 64
3, 11102, Note_on_c, 1, 55, 0
3, 11104, Note_on_c, 1, 57, 64
3, 11130, Note_on_c, 1, 57, 0
3, 11134, Note_on_c, 1, 52, 64
3, 11160, Note_on_c, 1, 52, 0
3, 11164, Note_on_c, 1, 51, 64
3, 11190, Note_on_c, 1, 51, 0
3, 11194, Note_on_c, 1, 54, 64
3, 11220, Note_on_c, 1, 54, 0
3, 11224, Note_on_c, 1, 55, 64
3, 11250, Note_on_c, 1, 55, 0
3, 11254, Note_on_c, 1, 50, 64
3, 11280, Note_on_c, 1, 50, 0
3, 11284, Note_on_c, 1, 49, 64
3, 11310, Note_on_c, 1, 49, 0
3, 11314, Note_on_c, 1, 52, 64
3, 11340, Note_on_c, 1, 52, 0
3, 11344, Note_on_c, 1, 53, 64
3, 11370, Note_on_c, 1, 53, 0
3, 11374, Note_on_c, 1, 48, 64
3, 11430, Note_on_c, 1, 48, 0
3, 11434, Note_on_c, 1, 47, 64
3, 11486, Note_on_c, 1, 47, 0
3, 11494, Note_on_c, 1, 48, 64
3, 11507, Note_on_c, 1, 48, 0
3, 11509, Note_on_c, 1, 50, 64
3, 11522, Note_on_c, 1, 50, 0
3, 11524, Note_on_c, 1, 43, 64
3, 11576, Note_on_c, 1, 43, 0
3, 11584, Note_on_c, 1, 55, 64
3, 11636, Note_on_c, 1, 55, 0
3, 11644, Note_on_c, 1, 54, 64
3, 11696, Note_on_c, 1, 54, 0
3, 11704, Note_on_c, 1, 53, 64
3, 11756, Note_on_c, 1, 53, 0
3, 11764, Note_on_c, 1, 52, 64
3, 11816, Note_on_c, 1, 52, 0
3, 11824, Note_on_c, 1, 51, 64
3, 11876, Note_on_c, 1, 51, 0
3, 11884, Note_on_c, 1, 50, 64
3, 11936, Note_on_c, 1, 50, 0
3, 11944, Note_on_c, 1, 48, 64
3, 12030, Note_on_c, 1, 48, 0
3, 12034, Note_on_c, 1, 47, 64
3, 12047, Note_on_c, 1, 47, 0
3, 12049, Note_on_c, 1, 45, 64
3, 12062, Note_on_c, 1, 45, 0
3, 12064, Note_on_c, 1, 47, 64
3, 12090, Note_on_c, 1, 47, 0
3, 12094, Note_on_c, 1, 55, 64
3, 12150, Note_on_c, 1, 55, 0
3, 12154, Note_on_c, 1, 54, 64
3, 12180, Note_on_c, 1, 54, 0
3, 12184, Note_on_c, 1, 62, 64
3, 12210, Note_on_c, 1, 62, 0
3, 12214, Note_on_c, 1, 53, 64
3, 12270, Note_on_c, 1, 53, 0
3, 12274, Note_on_c, 1, 52, 64
3, 12287, Note_on_c, 1, 52, 0
3, 12289, Note_on_c, 1, 50, 64
3, 12302, Note_on_c, 1, 50, 0
3, 12304, Note_on_c, 1, 49, 64
3, 12330, Note_on_c, 1, 49, 0
3, 12334, Note_on_c, 1, 57, 64
3, 12390, Note_on_c, 1, 57, 0
3, 12394, Note_on_c, 1, 56, 64
3, 12420, Note_on_c, 1, 56, 0
3, 12424, Note_on_c, 1, 64, 64
3, 12450, Note_on_c, 1, 64, 0
3, 12454, Note_on_c, 1, 55, 64
3, 12497, Note_on_c, 1, 55, 0
3, 12499, Note_on_c, 1, 54, 64
3, 12512, Note_on_c, 1, 54, 0
3, 12514, Note_on_c, 1, 55, 64
3, 12527, Note_on_c, 1, 55, 0
3, 12529, Note_on_c, 1, 57, 64
3, 12542, Note_on_c, 1, 57, 0
3, 12544, Note_on_c, 1, 58, 64
3, 12570, Note_on_c, 1, 58, 0
3, 12574, Note_on_c, 1, 53, 64
3, 12600, Note_on_c, 1, 53, 0
3, 12604, Note_on_c, 1, 52, 64
3, 12630, Note_on_c, 1, 52, 0
3, 12634, Note_on_c, 1, 56, 64
3, 12660, Note_on_c, 1, 56, 0
3, 12664, Note_on_c, 1, 57, 64
3, 12690, Note_on_c, 1, 57, 0
3, 12694, Note_on_c, 1, 51, 64
3, 12720, Note_on_c, 1, 51, 0
3, 12724, Note_on_c, 1, 50, 64
3, 12750, Note_on_c, 1, 50, 0
3, 12754, Note_on_c, 1, 54, 64
3, 12780, Note_on_c, 1, 54, 0
3, 12784, Note_on_c, 1, 55, 64
3, 12810, Note_on_c, 1, 55, 0
3, 12814, Note_on_c, 1, 49, 64
3, 12870, Note_on_c, 1, 49, 0
3, 12874, Note_on_c, 1, 50, 64
3, 12926, Note_on_c, 1, 50, 0
3, 12934, Note_on_c, 1, 52, 64
3, 12960, Note_on_c, 1, 52, 0
3, 12964, Note_on_c, 1, 45, 64
3, 13016, Note_on_c, 1, 45, 0
3, 13024, Note_on_c, 1, 50, 64
3, 13076, Note_on_c, 1, 50, 0
3, 13084, Note_on_c, 1, 52, 64
3, 13136, Note_on_c, 1, 52, 0
3, 13144, Note_on_c, 1, 54, 64
3, 13196, Note_on_c, 1, 54, 0
3, 13204, Note_on_c, 1, 55, 64
3, 13256, Note_on_c, 1, 55, 0
3, 13264, Note_on_c, 1, 52, 64
3, 13316, Note_on_c, 1, 52, 0
3, 13324, Note_on_c, 1, 54, 64
3, 13376, Note_on_c, 1, 54, 0
3, 13384, Note_on_c, 1, 56, 64
3, 13436, Note_on_c, 1, 56, 0
3, 13444, Note_on_c, 1, 57, 64
3, 13470, Note_on_c, 1, 57, 0
3, 13474, Note_on_c, 1, 45, 64
3, 13500, Note_on_c, 1, 45, 0
3, 13504, Note_on_c, 1, 57, 64
3, 13556, Note_on_c, 1, 57, 0
3, 13564, Note_on_c, 1, 56, 64
3, 13616, Note_on_c, 1, 56, 0
3, 13624, Note_on_c, 1, 55, 64
3, 13676, Note_on_c, 1, 55, 0
3, 13684, Note_on_c, 1, 54, 64
3, 13736, Note_on_c, 1, 54, 0
3, 13744, Note_on_c, 1, 53, 64
3, 13796, Note_on_c, 1, 53, 0
3, 13804, Note_on_c, 1, 52, 64
3, 13856, Note_on_c, 1, 52, 0
3, 13864, Note_on_c, 1, 50, 64
3, 13950, Note_on_c, 1, 50, 0
3, 13954, Note_on_c, 1, 48, 64
3, 13967, Note_on_c, 1, 48, 0
3, 13969, Note_on_c, 1, 47, 64
3, 13982, Note_on_c, 1, 47, 0
3, 13984, Note_on_c, 1, 48, 64
3, 14010, Note_on_c, 1, 48, 0
3, 14014, Note_on_c, 1, 52, 64
3, 14070, Note_on_c, 1, 52, 0
3, 14074, Note_on_c, 1, 51, 64
3, 14100, Note_on_c, 1, 51, 0
3, 14104, Note_on_c, 1, 59, 64
3, 14130, Note_on_c, 1, 59, 0
3, 14134, Note_on_c, 1, 50, 64
3, 14190, Note_on_c, 1, 50, 0
3, 14194, Note_on_c, 1, 49, 64
3, 14207, Note_on_c, 1, 49, 0
3, 14209, Note_on_c, 1, 47, 64
3, 14222, Note_on_c, 1, 47, 0
3, 14224, Note_on_c, 1, 49, 64
3, 14250, Note_on_c, 1, 49, 0
3, 14254, Note_on_c, 1, 45, 64
3, 14280, Note_on_c, 1, 45, 0
3, 14284, Note_on_c, 1, 47, 64
3, 14336, Note_on_c, 1, 47, 0
3, 14344, Note_on_c, 1, 49, 64
3, 14396, Note_on_c, 1, 49, 0
3, 14404, Note_on_c, 1, 50, 64
3, 14430, Note_on_c, 1, 50, 0
3, 14434, Note_on_c, 1, 38, 64
3, 14460, Note_on_c, 1, 38, 0
3, 14464, Note_on_c, 1, 50, 64
3, 14550, Note_on_c, 1, 50, 0
3, 14554, Note_on_c, 1, 49, 64
3, 14580, Note_on_c, 1, 49, 0
3, 14584, Note_on_c, 1, 57, 64
3, 14610, Note_on_c, 1, 57, 0
3, 14614, Note_on_c, 1, 48, 64
3, 14670, Note_on_c, 1, 48, 0
3, 14674, Note_on_c, 1, 47, 64
3, 14687, Note_on_c, 1, 47, 0
3, 14689, Note_on_c, 1, 45, 64
3, 14702, Note_on_c, 1, 45, 0
3, 14704, Note_on_c, 1, 47, 64
3, 14730, Note_on_c, 1, 47, 0
3, 14734, Note_on_c, 1, 43, 64
3, 14760, Note_on_c, 1, 43, 0
3, 14764, Note_on_c, 1, 45, 64
3, 14816, Note_on_c, 1, 45, 0
3, 14824, Note_on_c, 1, 47, 64
3, 14876, Note_on_c, 1, 47, 0
3, 14884, Note_on_c, 1, 48, 64
3, 14962, Note_on_c, 1, 48, 0
3, 14974, Note_on_c, 1, 47, 64
3, 14987, Note_on_c, 1, 47, 0
3, 14989, Note_on_c, 1, 45, 64
3, 15002, Note_on_c, 1, 45, 0
3, 15004, Note_on_c, 1, 53, 64
3, 15109, Note_on_c, 1, 53, 0
3, 15124, Note_on_c, 1, 52, 64
3, 15150, Note_on_c, 1, 52, 0
3, 15379, Note_on_c, 1, 60, 64
3, 15392, Note_on_c, 1, 60, 0
3, 15394, Note_on_c, 1, 59, 64
3, 15407, Note_on_c, 1, 59, 0
3, 15409, Note_on_c, 1, 57, 64
3, 15422, Note_on_c, 1, 57, 0
3, 15424, Note_on_c, 1, 56, 64
3, 15450, Note_on_c, 1, 56, 0
3, 15454, Note_on_c, 1, 61, 64
3, 15480, Note_on_c, 1, 61, 0
3, 15484, Note_on_c, 1, 62, 64
3, 15510, Note_on_c, 1, 62, 0
3, 15514, Note_on_c, 1, 58, 64
3, 15540, Note_on_c, 1, 58, 0
3, 15544, Note_on_c, 1, 57, 64
3, 15570, Note_on_c, 1, 57, 0
3, 15574, Note_on_c, 1, 63, 64
3, 15600, Note_on_c, 1, 63, 0
3, 15604, Note_on_c, 1, 64, 64
3, 15630, Note_on_c, 1, 64, 0
3, 15634, Note_on_c, 1, 60, 64
3, 15660, Note_on_c, 1, 60, 0
3, 15664, Note_on_c, 1, 59, 64
3, 15690, Note_on_c, 1, 59, 0
3, 15694, Note_on_c, 1, 65, 64
3, 15750, Note_on_c, 1, 65, 0
3, 15754, Note_on_c, 1, 64, 64
3, 15806, Note_on_c, 1, 64, 0
3, 15814, Note_on_c, 1, 62, 64
3, 15840, Note_on_c, 1, 62, 0
3, 15844, Note_on_c, 1, 69, 64
3, 15896, Note_on_c, 1, 69, 0
3, 15904, Note_on_c, 1, 57, 64
3, 15956, Note_on_c, 1, 57, 0
3, 15964, Note_on_c, 1, 58, 64
3, 16016, Note_on_c, 1, 58, 0
3, 16024, Note_on_c, 1, 59, 64
3, 16076, Note_on_c, 1, 59, 0
3, 16084, Note_on_c, 1, 60, 64
3, 16136, Note_on_c, 1, 60, 0
3, 16144, Note_on_c, 1, 61, 64
3, 16196, Note_on_c, 1, 61, 0
3, 16204, Note_on_c, 1, 62, 64
3, 16256, Note_on_c, 1, 62, 0
3, 16264, Note_on_c, 1, 64, 64
3, 16316, Note_on_c, 1, 64, 0
3, 16324, Note_on_c, 1, 65, 64
3, 16376, Note_on_c, 1, 65, 0
3, 16384, Note_on_c, 1, 62, 64
3, 16436, Note_on_c, 1, 62, 0
3, 16444, Note_on_c, 1, 60, 64
3, 16496, Note_on_c, 1, 60, 0
3, 16504, Note_on_c, 1, 59, 64
3, 16556, Note_on_c, 1, 59, 0
3, 16564, Note_on_c, 1, 57, 64
3, 16616, Note_on_c, 1, 57, 0
3, 16624, Note_on_c, 1, 60, 64
3, 16676, Note_on_c, 1, 60, 0
3, 16684, Note_on_c, 1, 59, 64
3, 16736, Note_on_c, 1, 59, 0
3, 16744, Note_on_c, 1, 57, 64
3, 16796, Note_on_c, 1, 57, 0
3, 16804, Note_on_c, 1, 55, 64
3, 16817, Note_on_c, 1, 55, 0
3, 16819, Note_on_c, 1, 59, 64
3, 16832, Note_on_c, 1, 59, 0
3, 16834, Note_on_c, 1, 60, 64
3, 16847, Note_on_c, 1, 60, 0
3, 16849, Note_on_c, 1, 62, 64
3, 16862, Note_on_c, 1, 62, 0
3, 16864, Note_on_c, 1, 64, 64
3, 16890, Note_on_c, 1, 64, 0
3, 16894, Note_on_c, 1, 58, 64
3, 16920, Note_on_c, 1, 58, 0
3, 16924, Note_on_c, 1, 57, 64
3, 16950, Note_on_c, 1, 57, 0
3, 16954, Note_on_c, 1, 62, 64
3, 16980, Note_on_c, 1, 62, 0
3, 16984, Note_on_c, 1, 61, 64
3, 17010, Note_on_c, 1, 61, 0
3, 17014, Note_on_c, 1, 55, 64
3, 17057, Note_on_c, 1, 55, 0
3, 17059, Note_on_c, 1, 67, 64
3, 17072, Note_on_c, 1, 67, 0
3, 17074, Note_on_c, 1, 65, 64
3, 17087, Note_on_c, 1, 65, 0
3, 17089, Note_on_c, 1, 64, 64
3, 17102, Note_on_c, 1, 64, 0
3, 17104, Note_on_c, 1, 62, 64
3, 17130, Note_on_c, 1, 62, 0
3, 17134, Note_on_c, 1, 68, 64
3, 17160, Note_on_c, 1, 68, 0
3, 17164, Note_on_c, 1, 69, 64
3, 17190, Note_on_c, 1, 69, 0
3, 17194, Note_on_c, 1, 60, 64
3, 17220, Note_on_c, 1, 60, 0
3, 17224, Note_on_c, 1, 59, 64
3, 17250, Note_on_c, 1, 59, 0
3, 17254, Note_on_c, 1, 65, 64
3, 17280, Note_on_c, 1, 65, 0
3, 17284, Note_on_c, 1, 64, 64
3, 17297, Note_on_c, 1, 64, 0
3, 17299, Note_on_c, 1, 62, 64
3, 17312, Note_on_c, 1, 62, 0
3, 17314, Note_on_c, 1, 60, 64
3, 17327, Note_on_c, 1, 60, 0
3, 17329, Note_on_c, 1, 59, 64
3, 17342, Note_on_c, 1, 59, 0
3, 17344, Note_on_c, 1, 57, 64
3, 17370, Note_on_c, 1, 57, 0
3, 17374, Note_on_c, 1, 56, 64
3, 17400, Note_on_c, 1, 56, 0
3, 17404, Note_on_c, 1, 57, 64
3, 17430, Note_on_c, 1, 57, 0
3, 17434, Note_on_c, 1, 53, 64
3, 17460, Note_on_c, 1, 53, 0
3, 17464, Note_on_c, 1, 52, 64
3, 17490, Note_on_c, 1, 52, 0
3, 17494, Note_on_c, 1, 58, 64
3, 17520, Note_on_c, 1, 58, 0
3, 17524, Note_on_c, 1, 59, 64
3, 17550, Note_on_c, 1, 59, 0
3, 17554, Note_on_c, 1, 55, 64
3, 17580, Note_on_c, 1, 55, 0
3, 17584, Note_on_c, 1, 54, 64
3, 17610, Note_on_c, 1, 54, 0
3, 17614, Note_on_c, 1, 60, 64
3, 17670, Note_on_c, 1, 60, 0
3, 17674, Note_on_c, 1, 59, 64
3, 17726, Note_on_c, 1, 59, 0
3, 17734, Note_on_c, 1, 57, 64
3, 17760, Note_on_c, 1, 57, 0
3, 17764, Note_on_c, 1, 64, 64
3, 17816, Note_on_c, 1, 64, 0
3, 17824, Note_on_c, 1, 52, 64
3, 17876, Note_on_c, 1, 52, 0
3, 17884, Note_on_c, 1, 53, 64
3, 17936, Note_on_c, 1, 53, 0
3, 17944, Note_on_c, 1, 54, 64
3, 17996, Note_on_c, 1, 54, 0
3, 18004, Note_on_c, 1, 55, 64
3, 18056, Note_on_c, 1, 55, 0
3, 18064, Note_on_c, 1, 56, 64
3, 18116, Note_on_c, 1, 56, 0
3, 18124, Note_on_c, 1, 57, 64
3, 18176, Note_on_c, 1, 57, 0
3, 18184, Note_on_c, 1, 59, 64
3, 18236, Note_on_c, 1, 59, 0
3, 18244, Note_on_c, 1, 60, 64
3, 18296, Note_on_c, 1, 60, 0
3, 18304, Note_on_c, 1, 57, 64
3, 18356, Note_on_c, 1, 57, 0
3, 18364, Note_on_c, 1, 55, 64
3, 18416, Note_on_c, 1, 55, 0
3, 18424, Note_on_c, 1, 53, 64
3, 18476, Note_on_c, 1, 53, 0
3, 18484, Note_on_c, 1, 52, 64
3, 18497, Note_on_c, 1, 52, 0
3, 18499, Note_on_c, 1, 53, 64
3, 18512, Note_on_c, 1, 53, 0
3, 18514, Note_on_c, 1, 55, 64
3, 18527, Note_on_c, 1, 55, 0
3, 18529, Note_on_c, 1, 57, 64
3, 18542, Note_on_c, 1, 57, 0
3, 18544, Note_on_c, 1, 58, 64
3, 18570, Note_on_c, 1, 58, 0
3, 18574, Note_on_c, 1, 53, 64
3, 18600, Note_on_c, 1, 53, 0
3, 18604, Note_on_c, 1, 52, 64
3, 18630, Note_on_c, 1, 52, 0
3, 18634, Note_on_c, 1, 57, 64
3, 18660, Note_on_c, 1, 57, 0
3, 18664, Note_on_c, 1, 55, 64
3, 18690, Note_on_c, 1, 55, 0
3, 18694, Note_on_c, 1, 50, 64
3, 18720, Note_on_c, 1, 50, 0
3, 18724, Note_on_c, 1, 49, 64
3, 18776, Note_on_c, 1, 49, 0
3, 18784, Note_on_c, 1, 55, 64
3, 18836, Note_on_c, 1, 55, 0
3, 18844, Note_on_c, 1, 53, 64
3, 18896, Note_on_c, 1, 53, 0
3, 18904, Note_on_c, 1, 51, 64
3, 18956, Note_on_c, 1, 51, 0
3, 18964, Note_on_c, 1, 50, 64
3, 18977, Note_on_c, 1, 50, 0
3, 18979, Note_on_c, 1, 51, 64
3, 18992, Note_on_c, 1, 51, 0
3, 18994, Note_on_c, 1, 53, 64
3, 19007, Note_on_c, 1, 53, 0
3, 19009, Note_on_c, 1, 55, 64
3, 19022, Note_on_c, 1, 55, 0
3, 19024, Note_on_c, 1, 56, 64
3, 19050, Note_on_c, 1, 56, 0
3, 19054, Note_on_c, 1, 51, 64
3, 19080, Note_on_c, 1, 51, 0
3, 19084, Note_on_c, 1, 50, 64
3, 19110, Note_on_c, 1, 50, 0
3, 19114, Note_on_c, 1, 55, 64
3, 19140, Note_on_c, 1, 55, 0
3, 19144, Note_on_c, 1, 53, 64
3, 19170, Note_on_c, 1, 53, 0
3, 19174, Note_on_c, 1, 48, 64
3, 19200, Note_on_c, 1, 48, 0
3, 19204, Note_on_c, 1, 47, 64
3, 19256, Note_on_c, 1, 47, 0
3, 19264, Note_on_c, 1, 52, 64
3, 19316, Note_on_c, 1, 52, 0
3, 19324, Note_on_c, 1, 51, 64
3, 19376, Note_on_c, 1, 51, 0
3, 19384, Note_on_c, 1, 50, 64
3, 19436, Note_on_c, 1, 50, 0
3, 19444, Note_on_c, 1, 49, 64
3, 19496, Note_on_c, 1, 49, 0
3, 19504, Note_on_c, 1, 48, 64
3, 19556, Note_on_c, 1, 48, 0
3, 19564, Note_on_c, 1, 47, 64
3, 19616, Note_on_c, 1, 47, 0
3, 19624, Note_on_c, 1, 45, 64
3, 19697, Note_on_c, 1, 45, 0
3, 19699, Note_on_c, 1, 48, 64
3, 19712, Note_on_c, 1, 48, 0
3, 19714, Note_on_c, 1, 47, 64
3, 19727, Note_on_c, 1, 47, 0
3, 19729, Note_on_c, 1, 45, 64
3, 19742, Note_on_c, 1, 45, 0
3, 19744, Note_on_c, 1, 44, 64
3, 19770, Note_on_c, 1, 44, 0
3, 19774, Note_on_c, 1, 49, 64
3, 19800, Note_on_c, 1, 49, 0
3, 19804, Note_on_c, 1, 50, 64
3, 19830, Note_on_c, 1, 50, 0
3, 19834, Note_on_c, 1, 46, 64
3, 19860, Note_on_c, 1, 46, 0
3, 19864, Note_on_c, 1, 45, 64
3, 19890, Note_on_c, 1, 45, 0
3, 19894, Note_on_c, 1, 51, 64
3, 19920, Note_on_c, 1, 51, 0
3, 19924, Note_on_c, 1, 52, 64
3, 19950, Note_on_c, 1, 52, 0
3, 19954, Note_on_c, 1, 48, 64
3, 19980, Note_on_c, 1, 48, 0
3, 19984, Note_on_c, 1, 47, 64
3, 20010, Note_on_c, 1, 47, 0
3, 20014, Note_on_c, 1, 53, 64
3, 20070, Note_on_c, 1, 53, 0
3, 20074, Note_on_c, 1, 52, 64
3, 20126, Note_on_c, 1, 52, 0
3, 20134, Note_on_c, 1, 50, 64
3, 20160, Note_on_c, 1, 50, 0
3, 20164, Note_on_c, 1, 48, 64
3, 20216, Note_on_c, 1, 48, 0
3, 20224, Note_on_c, 1, 52, 64
3, 20276, Note_on_c, 1, 52, 0
3, 20284, Note_on_c, 1, 54, 64
3, 20336, Note_on_c, 1, 54, 0
3, 20344, Note_on_c, 1, 56, 64
3, 20396, Note_on_c, 1, 56, 0
3, 20404, Note_on_c, 1, 57, 64
3, 20456, Note_on_c, 1, 57, 0
3, 20464, Note_on_c, 1, 45, 64
3, 20516, Note_on_c, 1, 45, 0
3, 20524, Note_on_c, 1, 47, 64
3, 20576, Note_on_c, 1, 47, 0
3, 20584, Note_on_c, 1, 49, 64
3, 20636, Note_on_c, 1, 49, 0
3, 20644, Note_on_c, 1, 50, 64
3, 20696, Note_on_c, 1, 50, 0
3, 20704, Note_on_c, 1, 38, 64
3, 20756, Note_on_c, 1, 38, 0
3, 20764, Note_on_c, 1, 40, 64
3, 20816, Note_on_c, 1, 40, 0
3, 20824, Note_on_c, 1, 52, 64
3, 20876, Note_on_c, 1, 52, 0
3, 20884, Note_on_c, 1, 51, 64
3, 20936, Note_on_c, 1, 51, 0
3, 20944, Note_on_c, 1, 50, 64
3, 20996, Note_on_c, 1, 50, 0
3, 21004, Note_on_c, 1, 49, 64
3, 21056, Note_on_c, 1, 49, 0
3, 21064, Note_on_c, 1, 48, 64
3, 21116, Note_on_c, 1, 48, 0
3, 21124, Note_on_c, 1, 47, 64
3, 21176, Note_on_c, 1, 47, 0
3, 21184, Note_on_c, 1, 47, 64
3, 21236, Note_on_c, 1, 47, 0
3, 21244, Note_on_c, 1, 45, 64
3, 21296, Note_on_c, 1, 45, 0
3, 21304, Note_on_c, 1, 45, 64
3, 21356, Note_on_c, 1, 45, 0
3, 21364, Note_on_c, 1, 44, 64
3, 21416, Note_on_c, 1, 44, 0
3, 21424, Note_on_c, 1, 44, 64
3, 21476, Note_on_c, 1, 44, 0
3, 21484, Note_on_c, 1, 40, 64
3, 21536, Note_on_c, 1, 40, 0
3, 21544, Note_on_c, 1, 40, 64
3, 21596, Note_on_c, 1, 40, 0
3, 21604, Note_on_c, 1, 45, 64
3, 21677, Note_on_c, 1, 45, 0
3, 21679, Note_on_c, 1, 50, 64
3, 21692, Note_on_c, 1, 50, 0
3, 21694, Note_on_c, 1, 52, 64
3, 21707, Note_on_c, 1, 52, 0
3, 21709, Note_on_c, 1, 54, 64
3, 21722, Note_on_c, 1, 54, 0
3, 21724, Note_on_c, 1, 55, 64
3, 21750, Note_on_c, 1, 55, 0
3, 21754, Note_on_c, 1, 51, 64
3, 21780, Note_on_c, 1, 51, 0
3, 21784, Note_on_c, 1, 50, 64
3, 21810, Note_on_c, 1, 50, 0
3, 21814, Note_on_c, 1, 56, 64
3, 21840, Note_on_c, 1, 56, 0
3, 21844, Note_on_c, 1, 57, 64
3, 21870, Note_on_c, 1, 57, 0
3, 21874, Note_on_c, 1, 53, 64
3, 21900, Note_on_c, 1, 53, 0
3, 21904, Note_on_c, 1, 52, 64
3, 21930, Note_on_c, 1, 52, 0
3, 21934, Note_on_c, 1, 58, 64
3, 21990, Note_on_c, 1, 58, 0
3, 21994, Note_on_c, 1, 57, 64
3, 22046, Note_on_c, 1, 57, 0
3, 22054, Note_on_c, 1, 55, 64
3, 22080, Note_on_c, 1, 55, 0
3, 22084, Note_on_c, 1, 53, 64
3, 22097, Note_on_c, 1, 53, 0
3, 22099, Note_on_c, 1, 52, 64
3, 22112, Note_on_c, 1, 52, 0
3, 22114, Note_on_c, 1, 53, 64
3, 22127, Note_on_c, 1, 53, 0
3, 22129, Note_on_c, 1, 55, 64
3, 22142, Note_on_c, 1, 55, 0
3, 22144, Note_on_c, 1, 57, 64
3, 22196, Note_on_c, 1, 57, 0
3, 22204, Note_on_c, 1, 56, 64
3, 22256, Note_on_c, 1, 56, 0
3, 22264, Note_on_c, 1, 55, 64
3, 22316, Note_on_c, 1, 55, 0
3, 22324, Note_on_c, 1, 54, 64
3, 22376, Note_on_c, 1, 54, 0
3, 22384, Note_on_c, 1, 53, 64
3, 22436, Note_on_c, 1, 53, 0
3, 22444, Note_on_c, 1, 52, 64
3, 22496, Note_on_c, 1, 52, 0
3, 22504, Note_on_c, 1, 50, 64
3, 22590, Note_on_c, 1, 50, 0
3, 22594, Note_on_c, 1, 48, 64
3, 22607, Note_on_c, 1, 48, 0
3, 22609, Note_on_c, 1, 47, 64
3, 22622, Note_on_c, 1, 47, 0
3, 22624, Note_on_c, 1, 48, 64
3, 22650, Note_on_c, 1, 48, 0
3, 22654, Note_on_c, 1, 45, 64
3, 22680, Note_on_c, 1, 45, 0
3, 22684, Note_on_c, 1, 52, 64
3, 22736, Note_on_c, 1, 52, 0
3, 22744, Note_on_c, 1, 40, 64
3, 22796, Note_on_c, 1, 40, 0
3, 22804, Note_on_c, 1, 45, 64
3, 22830, Note_on_c, 1, 45, 0
3, 22834, Note_on_c, 1, 47, 64
3, 22847, Note_on_c, 1, 47, 0
3, 22849, Note_on_c, 1, 48, 64
3, 22862, Note_on_c, 1, 48, 0
3, 22864, Note_on_c, 1, 50, 64
3, 22877, Note_on_c, 1, 50, 0
3, 22879, Note_on_c, 1, 52, 64
3, 22892, Note_on_c, 1, 52, 0
3, 22894, Note_on_c, 1, 54, 64
3, 22907, Note_on_c, 1, 54, 0
3, 22909, Note_on_c, 1, 56, 64
3, 22922, Note_on_c, 1, 56, 0
3, 22924, Note_on_c, 1, 57, 64
3, 22976, Note_on_c, 1, 57, 0
3, 22984, Note_on_c, 1, 45, 64
3, 23036, Note_on_c, 1, 45, 0
3, 23059, Note_on_c, 1, 60, 64
3, 23072, Note_on_c, 1, 60, 0
3, 23074, Note_on_c, 1, 59, 64
3, 23087, Note_on_c, 1, 59, 0
3, 23089, Note_on_c, 1, 57, 64
3, 23102, Note_on_c, 1, 57, 0
3, 23104, Note_on_c, 1, 56, 64
3, 23130, Note_on_c, 1, 56, 0
3, 23134, Note_on_c, 1, 61, 64
3, 23160, Note_on_c, 1, 61, 0
3, 23164, Note_on_c, 1, 62, 64
3, 23190, Note_on_c, 1, 62, 0
3, 23194, Note_on_c, 1, 58, 64
3, 23220, Note_on_c, 1, 58, 0
3, 23224, Note_on_c, 1, 57, 64
3, 23250, Note_on_c, 1, 57, 0
3, 23254, Note_on_c, 1, 63, 64
3, 23280, Note_on_c, 1, 63, 0
3, 23284, Note_on_c, 1, 64, 64
3, 23310, Note_on_c, 1, 64, 0
3, 23314, Note_on_c, 1, 60, 64
3, 23340, Note_on_c, 1, 60, 0
3, 23344, Note_on_c, 1, 59, 64
3, 23370, Note_on_c, 1, 59, 0
3, 23374, Note_on_c, 1, 65, 64
3, 23430, Note_on_c, 1, 65, 0
3, 23434, Note_on_c, 1, 64, 64
3, 23486, Note_on_c, 1, 64, 0
3, 23494, Note_on_c, 1, 62, 64
3, 23520, Note_on_c, 1, 62, 0
3, 23524, Note_on_c, 1, 69, 64
3, 23576, Note_on_c, 1, 69, 0
3, 23584, Note_on_c, 1, 57, 64
3, 23636, Note_on_c, 1, 57, 0
3, 23644, Note_on_c, 1, 58, 64
3, 23696, Note_on_c, 1, 58, 0
3, 23704, Note_on_c, 1, 59, 64
3, 23756, Note_on_c, 1, 59, 0
3, 23764, Note_on_c, 1, 60, 64
3, 23816, Note_on_c, 1, 60, 0
3, 23824, Note_on_c, 1, 61, 64
3, 23876, Note_on_c, 1, 61, 0
3, 23884, Note_on_c, 1, 62, 64
3, 23936, Note_on_c, 1, 62, 0
3, 23944, Note_on_c, 1, 64, 64
3, 23996, Note_on_c, 1, 64, 0
3, 24004, Note_on_c, 1, 65, 64
3, 24056, Note_on_c, 1, 65, 0
3, 24064, Note_on_c, 1, 62, 64
3, 24116, Note_on_c, 1, 62, 0
3, 24124, Note_on_c, 1, 60, 64
3, 24176, Note_on_c, 1, 60, 0
3, 24184, Note_on_c, 1, 59, 64
3, 24236, Note_on_c, 1, 59, 0
3, 24244, Note_on_c, 1, 57, 64
3, 24296, Note_on_c, 1, 57, 0
3, 24304, Note_on_c, 1, 60, 64
3, 24356, Note_on_c, 1, 60, 0
3, 24364, Note_on_c, 1, 59, 64
3, 24416, Note_on_c, 1, 59, 0
3, 24424, Note_on_c, 1, 57, 64
3, 24476, Note_on_c, 1, 57, 0
3, 24484, Note_on_c, 1, 55, 64
3, 24497, Note_on_c, 1, 55, 0
3, 24499, Note_on_c, 1, 59, 64
3, 24512, Note_on_c, 1, 59, 0
3, 24514, Note_on_c, 1, 60, 64
3, 24527, Note_on_c, 1, 60, 0
3, 24529, Note_on_c, 1, 62, 64
3, 24542, Note_on_c, 1, 62, 0
3, 24544, Note_on_c, 1, 64, 64
3, 24570, Note_on_c, 1, 64, 0
3, 24574, Note_on_c, 1, 58, 64
3, 24600, Note_on_c, 1, 58, 0
3, 24604, Note_on_c, 1, 57, 64
3, 24630, Note_on_c, 1, 57, 0
3, 24634, Note_on_c, 1, 62, 64
3, 24660, Note_on_c, 1, 62, 0
3, 24664, Note_on_c, 1, 61, 64
3, 24690, Note_on_c, 1, 61, 0
3, 24694, Note_on_c, 1, 55, 64
3, 24737, Note_on_c, 1, 55, 0
3, 24739, Note_on_c, 1, 67, 64
3, 24752, Note_on_c, 1, 67, 0
3, 24754, Note_on_c, 1, 65, 64
3, 24767, Note_on_c, 1, 65, 0
3, 24769, Note_on_c, 1, 64, 64
3, 24782, Note_on_c, 1, 64, 0
3, 24784, Note_on_c, 1, 62, 64
3, 24810, Note_on_c, 1, 62, 0
3, 24814, Note_on_c, 1, 68, 64
3, 24840, Note_on_c, 1, 68, 0
3, 24844, Note_on_c, 1, 69, 64
3, 24870, Note_on_c, 1, 69, 0
3, 24874, Note_on_c, 1, 60, 64
3, 24900, Note_on_c, 1, 60, 0
3, 24904, Note_on_c, 1, 59, 64
3, 24930, Note_on_c, 1, 59, 0
3, 24934, Note_on_c, 1, 65, 64
3, 24960, Note_on_c, 1, 65, 0
3, 24964, Note_on_c, 1, 64, 64
3, 24977, Note_on_c, 1, 64, 0
3, 24979, Note_on_c, 1, 62, 64
3, 24992, Note_on_c, 1, 62, 0
3, 24994, Note_on_c, 1, 60, 64
3, 25007, Note_on_c, 1, 60, 0
3, 25009, Note_on_c, 1, 59, 64
3, 25022, Note_on_c, 1, 59, 0
3, 25024, Note_on_c, 1, 57, 64
3, 25050, Note_on_c, 1, 57, 0
3, 25054, Note_on_c, 1, 56, 64
3, 25080, Note_on_c, 1, 56, 0
3, 25084, Note_on_c, 1, 57, 64
3, 25110, Note_on_c, 1, 57, 0
3, 25114, Note_on_c, 1, 53, 64
3, 25140, Note_on_c, 1, 53, 0
3, 25144, Note_on_c, 1, 52, 64
3, 25170, Note_on_c, 1, 52, 0
3, 25174, Note_on_c, 1, 58, 64
3, 25200, Note_on_c, 1, 58, 0
3, 25204, Note_on_c, 1, 59, 64
3, 25230, Note_on_c, 1, 59, 0
3, 25234, Note_on_c, 1, 55, 64
3, 25260, Note_on_c, 1, 55, 0
3, 25264, Note_on_c, 1, 54, 64
3, 25290, Note_on_c, 1, 54, 0
3, 25294, Note_on_c, 1, 60, 64
3, 25350, Note_on_c, 1, 60, 0
3, 25354, Note_on_c, 1, 59, 64
3, 25406, Note_on_c, 1, 59, 0
3, 25414, Note_on_c, 1, 57, 64
3, 25440, Note_on_c, 1, 57, 0
3, 25444, Note_on_c, 1, 64, 64
3, 25496, Note_on_c, 1, 64, 0
3, 25504, Note_on_c, 1, 52, 64
3, 25556, Note_on_c, 1, 52, 0
3, 25564, Note_on_c, 1, 53, 64
3, 25616, Note_on_c, 1, 53, 0
3, 25624, Note_on_c, 1, 54, 64
3, 25676, Note_on_c, 1, 54, 0
3, 25684, Note_on_c, 1, 55, 64
3, 25736, Note_on_c, 1, 55, 0
3, 25744, Note_on_c, 1, 56, 64
3, 25796, Note_on_c, 1, 56, 0
3, 25804, Note_on_c, 1, 57, 64
3, 25856, Note_on_c, 1, 57, 0
3, 25864, Note_on_c, 1, 59, 64
3, 25916, Note_on_c, 1, 59, 0
3, 25924, Note_on_c, 1, 60, 64
3, 25976, Note_on_c, 1, 60, 0
3, 25984, Note_on_c, 1, 57, 64
3, 26036, Note_on_c, 1, 57, 0
3, 26044, Note_on_c, 1, 55, 64
3, 26096, Note_on_c, 1, 55, 0
3, 26104, Note_on_c, 1, 53, 64
3, 26156, Note_on_c, 1, 53, 0
3, 26164, Note_on_c, 1, 52, 64
3, 26177, Note_on_c, 1, 52, 0
3, 26179, Note_on_c, 1, 53, 64
3, 26192, Note_on_c, 1, 53, 0
3, 26194, Note_on_c, 1, 55, 64
3, 26207, Note_on_c, 1, 55, 0
3, 26209, Note_on_c, 1, 57, 64
3, 26222, Note_on_c, 1, 57, 0
3, 26224, Note_on_c, 1, 58, 64
3, 26250, Note_on_c, 1, 58, 0
3, 26254, Note_on_c, 1, 53, 64
3, 26280, Note_on_c, 1, 53, 0
3, 26284, Note_on_c, 1, 52, 64
3, 26310, Note_on_c, 1, 52, 0
3, 26314, Note_on_c, 1, 57, 64
3, 26340, Note_on_c, 1, 57, 0
3, 26344, Note_on_c, 1, 55, 64
3, 26370, Note_on_c, 1, 55, 0
3, 26374, Note_on_c, 1, 50, 64
3, 26400, Note_on_c, 1, 50, 0
3, 26404, Note_on_c, 1, 49, 64
3, 26456, Note_on_c, 1, 49, 0
3, 26464, Note_on_c, 1, 55, 64
3, 26516, Note_on_c, 1, 55, 0
3, 26524, Note_on_c, 1, 53, 64
3, 26576, Note_on_c, 1, 53, 0
3, 26584, Note_on_c, 1, 51, 64
3, 26636, Note_on_c, 1, 51, 0
3, 26644, Note_on_c, 1, 50, 64
3, 26657, Note_on_c, 1, 50, 0
3, 26659, Note_on_c, 1, 51, 64
3, 26672, Note_on_c, 1, 51, 0
3, 26674, Note_on_c, 1, 53, 64
3, 26687, Note_on_c, 1, 53, 0
3, 26689, Note_on_c, 1, 55, 64
3, 26702, Note_on_c, 1, 55, 0
3, 26704, Note_on_c, 1, 56, 64
3, 26730, Note_on_c, 1, 56, 0
3, 26734, Note_on_c, 1, 51, 64
3, 26760, Note_on_c, 1, 51, 0
3, 26764, Note_on_c, 1, 50, 64
3, 26790, Note_on_c, 1, 50, 0
3, 26794, Note_on_c, 1, 55, 64
3, 26820, Note_on_c, 1, 55, 0
3, 26824, Note_on_c, 1, 53, 64
3, 26850, Note_on_c, 1, 53, 0
3, 26854, Note_on_c, 1, 48, 64
3, 26880, Note_on_c, 1, 48, 0
3, 26884, Note_on_c, 1, 47, 64
3, 26936, Note_on_c, 1, 47, 0
3, 26944, Note_on_c, 1, 52, 64
3, 26996, Note_on_c, 1, 52, 0
3, 27004, Note_on_c, 1, 51, 64
3, 27056, Note_on_c, 1, 51, 0
3, 27064, Note_on_c, 1, 50, 64
3, 27116, Note_on_c, 1, 50, 0
3, 27124, Note_on_c, 1, 49, 64
3, 27176, Note_on_c, 1, 49, 0
3, 27184, Note_on_c, 1, 48, 64
3, 27236, Note_on_c, 1, 48, 0
3, 27244, Note_on_c, 1, 47, 64
3, 27296, Note_on_c, 1, 47, 0
3, 27304, Note_on_c, 1, 45, 64
3, 27377, Note_on_c, 1, 45, 0
3, 27379, Note_on_c, 1, 48, 64
3, 27392, Note_on_c, 1, 48, 0
3, 27394, Note_on_c, 1, 47, 64
3, 27407, Note_on_c, 1, 47, 0
3, 27409, Note_on_c, 1, 45, 64
3, 27422, Note_on_c, 1, 45, 0
3, 27424, Note_on_c, 1, 44, 64
3, 27450, Note_on_c, 1, 44, 0
3, 27454, Note_on_c, 1, 49, 64
3, 27480, Note_on_c, 1, 49, 0
3, 27484, Note_on_c, 1, 50, 64
3, 27510, Note_on_c, 1, 50, 0
3, 27514, Note_on_c, 1, 46, 64
3, 27540, Note_on_c, 1, 46, 0
3, 27544, Note_on_c, 1, 45, 64
3, 27570, Note_on_c, 1, 45, 0
3, 27574, Note_on_c, 1, 51, 64
3, 27600, Note_on_c, 1, 51, 0
3, 27604, Note_on_c, 1, 52, 64
3, 27630, Note_on_c, 1, 52, 0
3, 27634, Note_on_c, 1, 48, 64
3, 27660, Note_on_c, 1, 48, 0
3, 27664, Note_on_c, 1, 47, 64
3, 27690, Note_on_c, 1, 47, 0
3, 27694, Note_on_c, 1, 53, 64
3, 27750, Note_on_c, 1, 53, 0
3, 27754, Note_on_c, 1, 52, 64
3, 27806, Note_on_c, 1, 52, 0
3, 27814, Note_on_c, 1, 50, 64
3, 27840, Note_on_c, 1, 50, 0
3, 27844, Note_on_c, 1, 48, 64
3, 27896, Note_on_c, 1, 48, 0
3, 27904, Note_on_c, 1, 52, 64
3, 27956, Note_on_c, 1, 52, 0
3, 27964, Note_on_c, 1, 54, 64
3, 28016, Note_on_c, 1, 54, 0
3, 28024, Note_on_c, 1, 56, 64
3, 28076, Note_on_c, 1, 56, 0
3, 28084, Note_on_c, 1, 57, 64
3, 28136, Note_on_c, 1, 57, 0
3, 28144, Note_on_c, 1, 45, 64
3, 28196, Note_on_c, 1, 45, 0
3, 28204, Note_on_c, 1, 47, 64
3, 28256, Note_on_c, 1, 47, 0
3, 28264, Note_on_c, 1, 49, 64
3, 28316, Note_on_c, 1, 49, 0
3, 28324, Note_on_c, 1, 50, 64
3, 28376, Note_on_c, 1, 50, 0
3, 28384, Note_on_c, 1, 38, 64
3, 28436, Note_on_c, 1, 38, 0
3, 28444, Note_on_c, 1, 40, 64
3, 28496, Note_on_c, 1, 40, 0
3, 28504, Note_on_c, 1, 52, 64
3, 28556, Note_on_c, 1, 52, 0
3, 28564, Note_on_c, 1, 51, 64
3, 28616, Note_on_c, 1, 51, 0
3, 28624, Note_on_c, 1, 50, 64
3, 28676, Note_on_c, 1, 50, 0
3, 28684, Note_on_c, 1, 49, 64
3, 28736, Note_on_c, 1, 49, 0
3, 28744, Note_on_c, 1, 48, 64
3, 28796, Note_on_c, 1, 48, 0
3, 28804, Note_on_c, 1, 47, 64
3, 28856, Note_on_c, 1, 47, 0
3, 28864, Note_on_c, 1, 47, 64
3, 28916, Note_on_c, 1, 47, 0
3, 28924, Note_on_c, 1, 45, 64
3, 28976, Note_on_c, 1, 45, 0
3, 28984, Note_on_c, 1, 45, 64
3, 29036, Note_on_c, 1, 45, 0
3, 29044, Note_on_c, 1, 44, 64
3, 29096, Note_on_c, 1, 44, 0
3, 29104, Note_on_c, 1, 44, 64
3, 29156, Note_on_c, 1, 44, 0
3, 29164, Note_on_c, 1, 40, 64
3, 29216, Note_on_c, 1, 40, 0
3, 29224, Note_on_c, 1, 40, 64
3, 29276, Note_on_c, 1, 40, 0
3, 29284, Note_on_c, 1, 45, 64
3, 29357, Note_on_c, 1, 45, 0
3, 29359, Note_on_c, 1, 50, 64
3, 29372, Note_on_c, 1, 50, 0
3, 29374, Note_on_c, 1, 52, 64
3, 29387, Note_on_c, 1, 52, 0
3, 29389, Note_on_c, 1, 54, 64
3, 29402, Note_on_c, 1, 54, 0
3, 29404, Note_on_c, 1, 55, 64
3, 29430, Note_on_c, 1, 55, 0
3, 29434, Note_on_c, 1, 51, 64
3, 29460, Note_on_c, 1, 51, 0
3, 29464, Note_on_c, 1, 50, 64
3, 29490, Note_on_c, 1, 50, 0
3, 29494, Note_on_c, 1, 56, 64
3, 29520, Note_on_c, 1, 56, 0
3, 29524, Note_on_c, 1, 57, 64
3, 29550, Note_on_c, 1, 57, 0
3, 29554, Note_on_c, 1, 53, 64
3, 29580, Note_on_c, 1, 53, 0
3, 29584, Note_on_c, 1, 52, 64
3, 29610, Note_on_c, 1, 52, 0
3, 29614, Note_on_c, 1, 58, 64
3, 29670, Note_on_c, 1, 58, 0
3, 29674, Note_on_c, 1, 57, 64
3, 29726, Note_on_c, 1, 57, 0
3, 29734, Note_on_c, 1, 55, 64
3, 29760, Note_on_c, 1, 55, 0
3, 29764, Note_on_c, 1, 53, 64
3, 29777, Note_on_c, 1, 53, 0
3, 29779, Note_on_c, 1, 52, 64
3, 29792, Note_on_c, 1, 52, 0
3, 29794, Note_on_c, 1, 53, 64
3, 29807, Note_on_c, 1, 53, 0
3, 29809, Note_on_c, 1, 55, 64
3, 29822, Note_on_c, 1, 55, 0
3, 29824, Note_on_c, 1, 57, 64
3, 29876, Note_on_c, 1, 57, 0
3, 29884, Note_on_c, 1, 56, 64
3, 29936, Note_on_c, 1, 56, 0
3, 29944, Note_on_c, 1, 55, 64
3, 29996, Note_on_c, 1, 55, 0
3, 30004, Note_on_c, 1, 54, 64
3, 30056, Note_on_c, 1, 54, 0
3, 30064, Note_on_c, 1, 53, 64
3, 30116, Note_on_c, 1, 53, 0
3, 30124, Note_on_c, 1, 52, 64
3, 30176, Note_on_c, 1, 52, 0
3, 30184, Note_on_c, 1, 50, 64
3, 30270, Note_on_c, 1, 50, 0
3, 30274, Note_on_c, 1, 48, 64
3, 30287, Note_on_c, 1, 48, 0
3, 30289, Note_on_c, 1, 47, 64
3, 30302, Note_on_c, 1, 47, 0
3, 30304, Note_on_c, 1, 48, 64
3, 30330, Note_on_c, 1, 48, 0
3, 30334, Note_on_c, 1, 45, 64
3, 30360, Note_on_c, 1, 45, 0
3, 30364, Note_on_c, 1, 52, 64
3, 30416, Note_on_c, 1, 52, 0
3, 30424, Note_on_c, 1, 40, 64
3, 30476, Note_on_c, 1, 40, 0
3, 30484, Note_on_c, 1, 45, 64
3, 30510, Note_on_c, 1, 45, 0
3, 30514, Note_on_c, 1, 47, 64
3, 30527, Note_on_c, 1, 47, 0
3, 30529, Note_on_c, 1, 48, 64
3, 30542, Note_on_c, 1, 48, 0
3, 30544, Note_on_c, 1, 50, 64
3, 30557, Note_on_c, 1, 50, 0
3, 30559, Note_on_c, 1, 52, 64
3, 30572, Note_on_c, 1, 52, 0
3, 30574, Note_on_c, 1, 54, 64
3, 30587, Note_on_c, 1, 54, 0
3, 30589, Note_on_c, 1, 56, 64
3, 30602, Note_on_c, 1, 56, 0
3, 30604, Note_on_c, 1, 57, 64
3, 30656, Note_on_c, 1, 57, 0
3, 30664, Note_on_c, 1, 45, 64
3, 30716, Note_on_c, 1, 45, 0
3, 30716, End_track
0, 0, End_of_file
