0, 0, Header, 1, 4, 120
1, 0, Start_track
1, 0, Time_signature, 3, 2, 24, 8
1, 0, Key_signature, -2, "major"
1, 0, Tempo, 555556
1, 0, Marker_t, "(c) Yo Tomita, 1997"
1, 32742, Tempo, 558140
1, 32752, Tempo, 560748
1, 32762, Tempo, 563380
1, 32772, Tempo, 566038
1, 32780, Tempo, 568720
1, 32790, Tempo, 571429
1, 32800, Tempo, 574163
1, 32807, Tempo, 576923
1, 32817, Tempo, 579710
1, 32827, Tempo, 582524
1, 32835, Tempo, 585366
1, 32845, Tempo, 588235
1, 32855, Tempo, 591133
1, 32865, Tempo, 594059
1, 32872, Tempo, 597015
1, 32882, Tempo, 600000
1, 32892, Tempo, 603015
1, 32900, Tempo, 606061
1, 32910, Tempo, 609137
1, 32920, Tempo, 612245
1, 32927, Tempo, 615385
1, 32937, Tempo, 618557
1, 32947, Tempo, 621762
1, 32955, Tempo, 625000
1, 32965, Tempo, 628272
1, 32975, Tempo, 631579
1, 32985, Tempo, 634921
1, 32992, Tempo, 638298
1, 33002, Tempo, 641711
1, 33012, Tempo, 645161
1, 33020, Tempo, 648649
1, 33030, Tempo, 652174
1, 33040, Tempo, 655738
1, 33047, Tempo, 659341
1, 33057, Tempo, 662983
1, 33067, Tempo, 666667
1, 33075, Tempo, 670391
1, 33085, Tempo, 674157
1, 33095, Tempo, 677966
1, 33105, Tempo, 681818
1, 33112, Tempo, 685714
1, 33122, Tempo, 689655
1, 33132, Tempo, 693642
1, 33140, Tempo, 697674
1, 33150, Tempo, 701754
1, 33160, Tempo, 705882
1, 33167, Tempo, 710059
1, 33177, Tempo, 714286
1, 33187, Tempo, 718563
1, 33197, Tempo, 722892
1, 33205, Tempo, 727273
1, 33215, Tempo, 731707
1, 33225, Tempo, 736196
1, 33232, Tempo, 740741
1, 33242, Tempo, 745342
1, 33252, Tempo, 750000
1, 33260, Tempo, 754717
1, 33270, Tempo, 759494
1, 33280, Tempo, 764331
1, 33287, Tempo, 769231
1, 33297, Tempo, 774194
1, 33307, Tempo, 779221
1, 33317, Tempo, 784314
1, 33325, Tempo, 789474
1, 33335, Tempo, 794702
1, 33345, Tempo, 800000
1, 33352, Tempo, 805369
1, 33362, Tempo, 810811
1, 33372, Tempo, 816327
1, 33380, Tempo, 821918
1, 33390, Tempo, 827586
1, 33400, Tempo, 833333
1, 33407, Tempo, 839161
1, 33407, End_track
2, 0, Start_track
2, 0, MIDI_port, 0
2, 0, Title_t, "BWV 890/2"
2, 0, Program_c, 0, 6
2, 1504, Note_on_c, 0, 79, 64
2, 1556, Note_on_c, 0, 79, 0
2, 1564, Note_on_c, 0, 77, 64
2, 1616, Note_on_c, 0, 77, 0
2, 1624, Note_on_c, 0, 75, 64
2, 1676, Note_on_c, 0, 75, 0
2, 1684, Note_on_c, 0, 77, 64
2, 1736, Note_on_c, 0, 77, 0
2, 1744, Note_on_c, 0, 70, 64
2, 1796, Note_on_c, 0, 70, 0
2, 1804, Note_on_c, 0, 69, 64
2, 1856, Note_on_c, 0, 69, 0
2, 1864, Note_on_c, 0, 74, 64
2, 1916, Note_on_c, 0, 74, 0
2, 1924, Note_on_c, 0, 72, 64
2, 1976, Note_on_c, 0, 72, 0
2, 1984, Note_on_c, 0, 70, 64
2, 2036, Note_on_c, 0, 70, 0
2, 2044, Note_on_c, 0, 72, 64
2, 2096, Note_on_c, 0, 72, 0
2, 2104, Note_on_c, 0, 69, 64
2, 2156, Note_on_c, 0, 69, 0
2, 2164, Note_on_c, 0, 65, 64
2, 2216, Note_on_c, 0, 65, 0
2, 2224, Note_on_c, 0, 70, 64
2, 2276, Note_on_c, 0, 70, 0
2, 2284, Note_on_c, 0, 70, 64
2, 2336, Note_on_c, 0, 70, 0
2, 2344, Note_on_c, 0, 69, 64
2, 2396, Note_on_c, 0, 69, 0
2, 2404, Note_on_c, 0, 69, 64
2, 2456, Note_on_c, 0, 69, 0
2, 2464, Note_on_c, 0, 67, 64
2, 2516, Note_on_c, 0, 67, 0
2, 2524, Note_on_c, 0, 67, 64
2, 2576, Note_on_c, 0, 67, 0
2, 2584, Note_on_c, 0, 72, 64
2, 2636, Note_on_c, 0, 72, 0
2, 2644, Note_on_c, 0, 72, 64
2, 2696, Note_on_c, 0, 72, 0
2, 2704, Note_on_c, 0, 70, 64
2, 2756, Note_on_c, 0, 70, 0
2, 2764, Note_on_c, 0, 70, 64
2, 2816, Note_on_c, 0, 70, 0
2, 2824, Note_on_c, 0, 69, 64
2, 2876, Note_on_c, 0, 69, 0
2, 2884, Note_on_c, 0, 69, 64
2, 2989, Note_on_c, 0, 69, 0
2, 3004, Note_on_c, 0, 68, 64
2, 3296, Note_on_c, 0, 68, 0
2, 3304, Note_on_c, 0, 79, 64
2, 3356, Note_on_c, 0, 79, 0
2, 3364, Note_on_c, 0, 77, 64
2, 3416, Note_on_c, 0, 77, 0
2, 3424, Note_on_c, 0, 75, 64
2, 3476, Note_on_c, 0, 75, 0
2, 3484, Note_on_c, 0, 77, 64
2, 3536, Note_on_c, 0, 77, 0
2, 3544, Note_on_c, 0, 68, 64
2, 3596, Note_on_c, 0, 68, 0
2, 3604, Note_on_c, 0, 67, 64
2, 3709, Note_on_c, 0, 67, 0
2, 3724, Note_on_c, 0, 79, 64
2, 4016, Note_on_c, 0, 79, 0
2, 4024, Note_on_c, 0, 77, 64
2, 4076, Note_on_c, 0, 77, 0
2, 4084, Note_on_c, 0, 75, 64
2, 4136, Note_on_c, 0, 75, 0
2, 4144, Note_on_c, 0, 74, 64
2, 4196, Note_on_c, 0, 74, 0
2, 4204, Note_on_c, 0, 75, 64
2, 4256, Note_on_c, 0, 75, 0
2, 4264, Note_on_c, 0, 84, 64
2, 4316, Note_on_c, 0, 84, 0
2, 4324, Note_on_c, 0, 74, 64
2, 4736, Note_on_c, 0, 74, 0
2, 4744, Note_on_c, 0, 75, 64
2, 4796, Note_on_c, 0, 75, 0
2, 4804, Note_on_c, 0, 74, 64
2, 4856, Note_on_c, 0, 74, 0
2, 4864, Note_on_c, 0, 72, 64
2, 4916, Note_on_c, 0, 72, 0
2, 4924, Note_on_c, 0, 74, 64
2, 4976, Note_on_c, 0, 74, 0
2, 4984, Note_on_c, 0, 77, 64
2, 5036, Note_on_c, 0, 77, 0
2, 5044, Note_on_c, 0, 80, 64
2, 5096, Note_on_c, 0, 80, 0
2, 5104, Note_on_c, 0, 79, 64
2, 5156, Note_on_c, 0, 79, 0
2, 5164, Note_on_c, 0, 79, 64
2, 5216, Note_on_c, 0, 79, 0
2, 5224, Note_on_c, 0, 77, 64
2, 5276, Note_on_c, 0, 77, 0
2, 5284, Note_on_c, 0, 77, 64
2, 5336, Note_on_c, 0, 77, 0
2, 5344, Note_on_c, 0, 75, 64
2, 5396, Note_on_c, 0, 75, 0
2, 5404, Note_on_c, 0, 75, 64
2, 5456, Note_on_c, 0, 75, 0
2, 5464, Note_on_c, 0, 74, 64
2, 5516, Note_on_c, 0, 74, 0
2, 5524, Note_on_c, 0, 74, 64
2, 5576, Note_on_c, 0, 74, 0
2, 5584, Note_on_c, 0, 72, 64
2, 5636, Note_on_c, 0, 72, 0
2, 5644, Note_on_c, 0, 72, 64
2, 5696, Note_on_c, 0, 72, 0
2, 5704, Note_on_c, 0, 70, 64
2, 5756, Note_on_c, 0, 70, 0
2, 5764, Note_on_c, 0, 70, 64
2, 6229, Note_on_c, 0, 70, 0
2, 6244, Note_on_c, 0, 69, 64
2, 6536, Note_on_c, 0, 69, 0
2, 6544, Note_on_c, 0, 67, 64
2, 6596, Note_on_c, 0, 67, 0
2, 6604, Note_on_c, 0, 67, 64
2, 6656, Note_on_c, 0, 67, 0
2, 6664, Note_on_c, 0, 65, 64
2, 6716, Note_on_c, 0, 65, 0
2, 6724, Note_on_c, 0, 65, 64
2, 6776, Note_on_c, 0, 65, 0
2, 6784, Note_on_c, 0, 64, 64
2, 6836, Note_on_c, 0, 64, 0
2, 6844, Note_on_c, 0, 64, 64
2, 6949, Note_on_c, 0, 64, 0
2, 6964, Note_on_c, 0, 65, 64
2, 7069, Note_on_c, 0, 65, 0
2, 7084, Note_on_c, 0, 67, 64
2, 7189, Note_on_c, 0, 67, 0
2, 7204, Note_on_c, 0, 69, 64
2, 7256, Note_on_c, 0, 69, 0
2, 7264, Note_on_c, 0, 70, 64
2, 7316, Note_on_c, 0, 70, 0
2, 7324, Note_on_c, 0, 69, 64
2, 7376, Note_on_c, 0, 69, 0
2, 7384, Note_on_c, 0, 67, 64
2, 7436, Note_on_c, 0, 67, 0
2, 7444, Note_on_c, 0, 69, 64
2, 7496, Note_on_c, 0, 69, 0
2, 7504, Note_on_c, 0, 72, 64
2, 7556, Note_on_c, 0, 72, 0
2, 7564, Note_on_c, 0, 77, 64
2, 8509, Note_on_c, 0, 77, 0
2, 8524, Note_on_c, 0, 75, 64
2, 8696, Note_on_c, 0, 75, 0
2, 8704, Note_on_c, 0, 75, 64
2, 8756, Note_on_c, 0, 75, 0
2, 8764, Note_on_c, 0, 74, 64
2, 8816, Note_on_c, 0, 74, 0
2, 8824, Note_on_c, 0, 72, 64
2, 8876, Note_on_c, 0, 72, 0
2, 8884, Note_on_c, 0, 74, 64
2, 8936, Note_on_c, 0, 74, 0
2, 8944, Note_on_c, 0, 70, 64
2, 8996, Note_on_c, 0, 70, 0
2, 9004, Note_on_c, 0, 67, 64
2, 9056, Note_on_c, 0, 67, 0
2, 9064, Note_on_c, 0, 74, 64
2, 9116, Note_on_c, 0, 74, 0
2, 9124, Note_on_c, 0, 72, 64
2, 9176, Note_on_c, 0, 72, 0
2, 9184, Note_on_c, 0, 70, 64
2, 9236, Note_on_c, 0, 70, 0
2, 9244, Note_on_c, 0, 72, 64
2, 9296, Note_on_c, 0, 72, 0
2, 9304, Note_on_c, 0, 69, 64
2, 9356, Note_on_c, 0, 69, 0
2, 9364, Note_on_c, 0, 65, 64
2, 9469, Note_on_c, 0, 65, 0
2, 9484, Note_on_c, 0, 70, 64
2, 9829, Note_on_c, 0, 70, 0
2, 9844, Note_on_c, 0, 69, 64
2, 9949, Note_on_c, 0, 69, 0
2, 10504, Note_on_c, 0, 74, 64
2, 10556, Note_on_c, 0, 74, 0
2, 10564, Note_on_c, 0, 72, 64
2, 10616, Note_on_c, 0, 72, 0
2, 10624, Note_on_c, 0, 70, 64
2, 10676, Note_on_c, 0, 70, 0
2, 10684, Note_on_c, 0, 72, 64
2, 10736, Note_on_c, 0, 72, 0
2, 10744, Note_on_c, 0, 69, 64
2, 10796, Note_on_c, 0, 69, 0
2, 10804, Note_on_c, 0, 65, 64
2, 10856, Note_on_c, 0, 65, 0
2, 10864, Note_on_c, 0, 69, 64
2, 10969, Note_on_c, 0, 69, 0
2, 10984, Note_on_c, 0, 67, 64
2, 11036, Note_on_c, 0, 67, 0
2, 11044, Note_on_c, 0, 65, 64
2, 11096, Note_on_c, 0, 65, 0
2, 11104, Note_on_c, 0, 64, 64
2, 11156, Note_on_c, 0, 64, 0
2, 11164, Note_on_c, 0, 65, 64
2, 11216, Note_on_c, 0, 65, 0
2, 11644, Note_on_c, 0, 60, 64
2, 11696, Note_on_c, 0, 60, 0
2, 11704, Note_on_c, 0, 62, 64
2, 11756, Note_on_c, 0, 62, 0
2, 11764, Note_on_c, 0, 63, 64
2, 11989, Note_on_c, 0, 63, 0
2, 12004, Note_on_c, 0, 62, 64
2, 12056, Note_on_c, 0, 62, 0
2, 12064, Note_on_c, 0, 64, 64
2, 12116, Note_on_c, 0, 64, 0
2, 12124, Note_on_c, 0, 65, 64
2, 12349, Note_on_c, 0, 65, 0
2, 12364, Note_on_c, 0, 64, 64
2, 12416, Note_on_c, 0, 64, 0
2, 12424, Note_on_c, 0, 65, 64
2, 12476, Note_on_c, 0, 65, 0
2, 12484, Note_on_c, 0, 67, 64
2, 12656, Note_on_c, 0, 67, 0
2, 12664, Note_on_c, 0, 65, 64
2, 12716, Note_on_c, 0, 65, 0
2, 12724, Note_on_c, 0, 67, 64
2, 12829, Note_on_c, 0, 67, 0
2, 12844, Note_on_c, 0, 69, 64
2, 12922, Note_on_c, 0, 69, 0
2, 12934, Note_on_c, 0, 70, 64
2, 12947, Note_on_c, 0, 70, 0
2, 12949, Note_on_c, 0, 72, 64
2, 12962, Note_on_c, 0, 72, 0
2, 12964, Note_on_c, 0, 65, 64
2, 13069, Note_on_c, 0, 65, 0
2, 13084, Note_on_c, 0, 63, 64
2, 13189, Note_on_c, 0, 63, 0
2, 13204, Note_on_c, 0, 62, 64
2, 13309, Note_on_c, 0, 62, 0
2, 13324, Note_on_c, 0, 63, 64
2, 13429, Note_on_c, 0, 63, 0
2, 13444, Note_on_c, 0, 60, 64
2, 13549, Note_on_c, 0, 60, 0
2, 13564, Note_on_c, 0, 62, 64
2, 13669, Note_on_c, 0, 62, 0
2, 13684, Note_on_c, 0, 63, 64
2, 13789, Note_on_c, 0, 63, 0
2, 13804, Note_on_c, 0, 62, 64
2, 13909, Note_on_c, 0, 62, 0
2, 13924, Note_on_c, 0, 60, 64
2, 14096, Note_on_c, 0, 60, 0
2, 14104, Note_on_c, 0, 84, 64
2, 14156, Note_on_c, 0, 84, 0
2, 14164, Note_on_c, 0, 82, 64
2, 14216, Note_on_c, 0, 82, 0
2, 14224, Note_on_c, 0, 81, 64
2, 14276, Note_on_c, 0, 81, 0
2, 14284, Note_on_c, 0, 82, 64
2, 14336, Note_on_c, 0, 82, 0
2, 14344, Note_on_c, 0, 77, 64
2, 14396, Note_on_c, 0, 77, 0
2, 14404, Note_on_c, 0, 74, 64
2, 14456, Note_on_c, 0, 74, 0
2, 14464, Note_on_c, 0, 79, 64
2, 14516, Note_on_c, 0, 79, 0
2, 14524, Note_on_c, 0, 77, 64
2, 14576, Note_on_c, 0, 77, 0
2, 14584, Note_on_c, 0, 75, 64
2, 14636, Note_on_c, 0, 75, 0
2, 14644, Note_on_c, 0, 77, 64
2, 14696, Note_on_c, 0, 77, 0
2, 14704, Note_on_c, 0, 74, 64
2, 14756, Note_on_c, 0, 74, 0
2, 14764, Note_on_c, 0, 70, 64
2, 14816, Note_on_c, 0, 70, 0
2, 14824, Note_on_c, 0, 75, 64
2, 14876, Note_on_c, 0, 75, 0
2, 14884, Note_on_c, 0, 75, 64
2, 14936, Note_on_c, 0, 75, 0
2, 14944, Note_on_c, 0, 74, 64
2, 14996, Note_on_c, 0, 74, 0
2, 15004, Note_on_c, 0, 74, 64
2, 15056, Note_on_c, 0, 74, 0
2, 15064, Note_on_c, 0, 72, 64
2, 15116, Note_on_c, 0, 72, 0
2, 15124, Note_on_c, 0, 72, 64
2, 15176, Note_on_c, 0, 72, 0
2, 15184, Note_on_c, 0, 77, 64
2, 15236, Note_on_c, 0, 77, 0
2, 15244, Note_on_c, 0, 77, 64
2, 15296, Note_on_c, 0, 77, 0
2, 15304, Note_on_c, 0, 75, 64
2, 15356, Note_on_c, 0, 75, 0
2, 15364, Note_on_c, 0, 75, 64
2, 15416, Note_on_c, 0, 75, 0
2, 15424, Note_on_c, 0, 74, 64
2, 15476, Note_on_c, 0, 74, 0
2, 15484, Note_on_c, 0, 74, 64
2, 15896, Note_on_c, 0, 74, 0
2, 15904, Note_on_c, 0, 74, 64
2, 15956, Note_on_c, 0, 74, 0
2, 15964, Note_on_c, 0, 72, 64
2, 16016, Note_on_c, 0, 72, 0
2, 16024, Note_on_c, 0, 70, 64
2, 16076, Note_on_c, 0, 70, 0
2, 16084, Note_on_c, 0, 72, 64
2, 16136, Note_on_c, 0, 72, 0
2, 16144, Note_on_c, 0, 69, 64
2, 16196, Note_on_c, 0, 69, 0
2, 16204, Note_on_c, 0, 66, 64
2, 16309, Note_on_c, 0, 66, 0
2, 16324, Note_on_c, 0, 67, 64
2, 16429, Note_on_c, 0, 67, 0
2, 16444, Note_on_c, 0, 69, 64
2, 16669, Note_on_c, 0, 69, 0
2, 16684, Note_on_c, 0, 74, 64
2, 16789, Note_on_c, 0, 74, 0
2, 16804, Note_on_c, 0, 70, 64
2, 16909, Note_on_c, 0, 70, 0
2, 16924, Note_on_c, 0, 67, 64
2, 17029, Note_on_c, 0, 67, 0
2, 17044, Note_on_c, 0, 69, 64
2, 17149, Note_on_c, 0, 69, 0
2, 17164, Note_on_c, 0, 66, 64
2, 17269, Note_on_c, 0, 66, 0
2, 17284, Note_on_c, 0, 67, 64
2, 17629, Note_on_c, 0, 67, 0
2, 17644, Note_on_c, 0, 69, 64
2, 17989, Note_on_c, 0, 69, 0
2, 18004, Note_on_c, 0, 62, 64
2, 18109, Note_on_c, 0, 62, 0
2, 18124, Note_on_c, 0, 74, 64
2, 18469, Note_on_c, 0, 74, 0
2, 18484, Note_on_c, 0, 72, 64
2, 18536, Note_on_c, 0, 72, 0
2, 18544, Note_on_c, 0, 74, 64
2, 18596, Note_on_c, 0, 74, 0
2, 18604, Note_on_c, 0, 75, 64
2, 18776, Note_on_c, 0, 75, 0
2, 18784, Note_on_c, 0, 75, 64
2, 18836, Note_on_c, 0, 75, 0
2, 18844, Note_on_c, 0, 74, 64
2, 18896, Note_on_c, 0, 74, 0
2, 18904, Note_on_c, 0, 72, 64
2, 18956, Note_on_c, 0, 72, 0
2, 18964, Note_on_c, 0, 74, 64
2, 19016, Note_on_c, 0, 74, 0
2, 19024, Note_on_c, 0, 70, 64
2, 19076, Note_on_c, 0, 70, 0
2, 19084, Note_on_c, 0, 67, 64
2, 19136, Note_on_c, 0, 67, 0
2, 19144, Note_on_c, 0, 68, 64
2, 19196, Note_on_c, 0, 68, 0
2, 19204, Note_on_c, 0, 67, 64
2, 19256, Note_on_c, 0, 67, 0
2, 19264, Note_on_c, 0, 65, 64
2, 19316, Note_on_c, 0, 65, 0
2, 19324, Note_on_c, 0, 67, 64
2, 19376, Note_on_c, 0, 67, 0
2, 19384, Note_on_c, 0, 70, 64
2, 19436, Note_on_c, 0, 70, 0
2, 19444, Note_on_c, 0, 63, 64
2, 19496, Note_on_c, 0, 63, 0
2, 19504, Note_on_c, 0, 65, 64
2, 19556, Note_on_c, 0, 65, 0
2, 19564, Note_on_c, 0, 63, 64
2, 19616, Note_on_c, 0, 63, 0
2, 19624, Note_on_c, 0, 62, 64
2, 19676, Note_on_c, 0, 62, 0
2, 19684, Note_on_c, 0, 63, 64
2, 19736, Note_on_c, 0, 63, 0
2, 19744, Note_on_c, 0, 70, 64
2, 19796, Note_on_c, 0, 70, 0
2, 19804, Note_on_c, 0, 75, 64
2, 20149, Note_on_c, 0, 75, 0
2, 20164, Note_on_c, 0, 77, 64
2, 20509, Note_on_c, 0, 77, 0
2, 20524, Note_on_c, 0, 70, 64
2, 20576, Note_on_c, 0, 70, 0
2, 20584, Note_on_c, 0, 73, 64
2, 20636, Note_on_c, 0, 73, 0
2, 20644, Note_on_c, 0, 73, 64
2, 20696, Note_on_c, 0, 73, 0
2, 20704, Note_on_c, 0, 72, 64
2, 20756, Note_on_c, 0, 72, 0
2, 20764, Note_on_c, 0, 72, 64
2, 20816, Note_on_c, 0, 72, 0
2, 20824, Note_on_c, 0, 70, 64
2, 20876, Note_on_c, 0, 70, 0
2, 20884, Note_on_c, 0, 68, 64
2, 21296, Note_on_c, 0, 68, 0
2, 21304, Note_on_c, 0, 67, 64
2, 21356, Note_on_c, 0, 67, 0
2, 21364, Note_on_c, 0, 65, 64
2, 21416, Note_on_c, 0, 65, 0
2, 21424, Note_on_c, 0, 63, 64
2, 21476, Note_on_c, 0, 63, 0
2, 21484, Note_on_c, 0, 65, 64
2, 21536, Note_on_c, 0, 65, 0
2, 21544, Note_on_c, 0, 62, 64
2, 21596, Note_on_c, 0, 62, 0
2, 21604, Note_on_c, 0, 63, 64
2, 21709, Note_on_c, 0, 63, 0
2, 21724, Note_on_c, 0, 67, 64
2, 21829, Note_on_c, 0, 67, 0
2, 21844, Note_on_c, 0, 72, 64
2, 21949, Note_on_c, 0, 72, 0
2, 21964, Note_on_c, 0, 71, 64
2, 22016, Note_on_c, 0, 71, 0
2, 22024, Note_on_c, 0, 72, 64
2, 22076, Note_on_c, 0, 72, 0
2, 22084, Note_on_c, 0, 74, 64
2, 22376, Note_on_c, 0, 74, 0
2, 22384, Note_on_c, 0, 74, 64
2, 22436, Note_on_c, 0, 74, 0
2, 22444, Note_on_c, 0, 72, 64
2, 22496, Note_on_c, 0, 72, 0
2, 22504, Note_on_c, 0, 71, 64
2, 22556, Note_on_c, 0, 71, 0
2, 22564, Note_on_c, 0, 72, 64
2, 22616, Note_on_c, 0, 72, 0
2, 22624, Note_on_c, 0, 67, 64
2, 22676, Note_on_c, 0, 67, 0
2, 22684, Note_on_c, 0, 63, 64
2, 22736, Note_on_c, 0, 63, 0
2, 22744, Note_on_c, 0, 68, 64
2, 22796, Note_on_c, 0, 68, 0
2, 22804, Note_on_c, 0, 67, 64
2, 22856, Note_on_c, 0, 67, 0
2, 22864, Note_on_c, 0, 65, 64
2, 22916, Note_on_c, 0, 65, 0
2, 22924, Note_on_c, 0, 67, 64
2, 22976, Note_on_c, 0, 67, 0
2, 22984, Note_on_c, 0, 63, 64
2, 23036, Note_on_c, 0, 63, 0
2, 23044, Note_on_c, 0, 60, 64
2, 23096, Note_on_c, 0, 60, 0
2, 23104, Note_on_c, 0, 65, 64
2, 23156, Note_on_c, 0, 65, 0
2, 23164, Note_on_c, 0, 65, 64
2, 23216, Note_on_c, 0, 65, 0
2, 23224, Note_on_c, 0, 63, 64
2, 23276, Note_on_c, 0, 63, 0
2, 23284, Note_on_c, 0, 63, 64
2, 23336, Note_on_c, 0, 63, 0
2, 23344, Note_on_c, 0, 62, 64
2, 23396, Note_on_c, 0, 62, 0
2, 23404, Note_on_c, 0, 62, 64
2, 23456, Note_on_c, 0, 62, 0
2, 23464, Note_on_c, 0, 67, 64
2, 23516, Note_on_c, 0, 67, 0
2, 23524, Note_on_c, 0, 67, 64
2, 23576, Note_on_c, 0, 67, 0
2, 23584, Note_on_c, 0, 65, 64
2, 23636, Note_on_c, 0, 65, 0
2, 23644, Note_on_c, 0, 65, 64
2, 23696, Note_on_c, 0, 65, 0
2, 23704, Note_on_c, 0, 63, 64
2, 23756, Note_on_c, 0, 63, 0
2, 23764, Note_on_c, 0, 63, 64
2, 23989, Note_on_c, 0, 63, 0
2, 24004, Note_on_c, 0, 75, 64
2, 24176, Note_on_c, 0, 75, 0
2, 24184, Note_on_c, 0, 77, 64
2, 24236, Note_on_c, 0, 77, 0
2, 24244, Note_on_c, 0, 75, 64
2, 24296, Note_on_c, 0, 75, 0
2, 24304, Note_on_c, 0, 74, 64
2, 24356, Note_on_c, 0, 74, 0
2, 24364, Note_on_c, 0, 75, 64
2, 24416, Note_on_c, 0, 75, 0
2, 24424, Note_on_c, 0, 72, 64
2, 24476, Note_on_c, 0, 72, 0
2, 24484, Note_on_c, 0, 74, 64
2, 24949, Note_on_c, 0, 74, 0
2, 24964, Note_on_c, 0, 72, 64
2, 25016, Note_on_c, 0, 72, 0
2, 25024, Note_on_c, 0, 70, 64
2, 25076, Note_on_c, 0, 70, 0
2, 25084, Note_on_c, 0, 72, 64
2, 25309, Note_on_c, 0, 72, 0
2, 25324, Note_on_c, 0, 70, 64
2, 25376, Note_on_c, 0, 70, 0
2, 25384, Note_on_c, 0, 69, 64
2, 25436, Note_on_c, 0, 69, 0
2, 25444, Note_on_c, 0, 70, 64
2, 25669, Note_on_c, 0, 70, 0
2, 25684, Note_on_c, 0, 68, 64
2, 25736, Note_on_c, 0, 68, 0
2, 25744, Note_on_c, 0, 67, 64
2, 25796, Note_on_c, 0, 67, 0
2, 25804, Note_on_c, 0, 68, 64
2, 26029, Note_on_c, 0, 68, 0
2, 26044, Note_on_c, 0, 67, 64
2, 26096, Note_on_c, 0, 67, 0
2, 26104, Note_on_c, 0, 65, 64
2, 26156, Note_on_c, 0, 65, 0
2, 26164, Note_on_c, 0, 67, 64
2, 26389, Note_on_c, 0, 67, 0
2, 26404, Note_on_c, 0, 65, 64
2, 26456, Note_on_c, 0, 65, 0
2, 26464, Note_on_c, 0, 63, 64
2, 26516, Note_on_c, 0, 63, 0
2, 26524, Note_on_c, 0, 65, 64
2, 26749, Note_on_c, 0, 65, 0
2, 26764, Note_on_c, 0, 63, 64
2, 26816, Note_on_c, 0, 63, 0
2, 26824, Note_on_c, 0, 62, 64
2, 26876, Note_on_c, 0, 62, 0
2, 26884, Note_on_c, 0, 63, 64
2, 27056, Note_on_c, 0, 63, 0
2, 27064, Note_on_c, 0, 65, 64
2, 27116, Note_on_c, 0, 65, 0
2, 27124, Note_on_c, 0, 63, 64
2, 27176, Note_on_c, 0, 63, 0
2, 27184, Note_on_c, 0, 62, 64
2, 27236, Note_on_c, 0, 62, 0
2, 27244, Note_on_c, 0, 63, 64
2, 27296, Note_on_c, 0, 63, 0
2, 27304, Note_on_c, 0, 60, 64
2, 27356, Note_on_c, 0, 60, 0
2, 27364, Note_on_c, 0, 62, 64
2, 27469, Note_on_c, 0, 62, 0
2, 27484, Note_on_c, 0, 64, 64
2, 27709, Note_on_c, 0, 64, 0
2, 27724, Note_on_c, 0, 65, 64
2, 27776, Note_on_c, 0, 65, 0
2, 27784, Note_on_c, 0, 79, 64
2, 27836, Note_on_c, 0, 79, 0
2, 27844, Note_on_c, 0, 77, 64
2, 27896, Note_on_c, 0, 77, 0
2, 27904, Note_on_c, 0, 75, 64
2, 27956, Note_on_c, 0, 75, 0
2, 27964, Note_on_c, 0, 77, 64
2, 28016, Note_on_c, 0, 77, 0
2, 28024, Note_on_c, 0, 72, 64
2, 28076, Note_on_c, 0, 72, 0
2, 28084, Note_on_c, 0, 69, 64
2, 28136, Note_on_c, 0, 69, 0
2, 28144, Note_on_c, 0, 74, 64
2, 28196, Note_on_c, 0, 74, 0
2, 28204, Note_on_c, 0, 72, 64
2, 28256, Note_on_c, 0, 72, 0
2, 28264, Note_on_c, 0, 70, 64
2, 28316, Note_on_c, 0, 70, 0
2, 28324, Note_on_c, 0, 72, 64
2, 28376, Note_on_c, 0, 72, 0
2, 28384, Note_on_c, 0, 69, 64
2, 28436, Note_on_c, 0, 69, 0
2, 28444, Note_on_c, 0, 65, 64
2, 28496, Note_on_c, 0, 65, 0
2, 28504, Note_on_c, 0, 70, 64
2, 28556, Note_on_c, 0, 70, 0
2, 28564, Note_on_c, 0, 70, 64
2, 28616, Note_on_c, 0, 70, 0
2, 28624, Note_on_c, 0, 68, 64
2, 28676, Note_on_c, 0, 68, 0
2, 28684, Note_on_c, 0, 68, 64
2, 28736, Note_on_c, 0, 68, 0
2, 28744, Note_on_c, 0, 67, 64
2, 28796, Note_on_c, 0, 67, 0
2, 28804, Note_on_c, 0, 67, 64
2, 28856, Note_on_c, 0, 67, 0
2, 28864, Note_on_c, 0, 72, 64
2, 28916, Note_on_c, 0, 72, 0
2, 28924, Note_on_c, 0, 72, 64
2, 28976, Note_on_c, 0, 72, 0
2, 28984, Note_on_c, 0, 70, 64
2, 29036, Note_on_c, 0, 70, 0
2, 29044, Note_on_c, 0, 70, 64
2, 29096, Note_on_c, 0, 70, 0
2, 29104, Note_on_c, 0, 69, 64
2, 29156, Note_on_c, 0, 69, 0
2, 29164, Note_on_c, 0, 69, 64
2, 29216, Note_on_c, 0, 69, 0
2, 29224, Note_on_c, 0, 70, 64
2, 29276, Note_on_c, 0, 70, 0
2, 29284, Note_on_c, 0, 72, 64
2, 29629, Note_on_c, 0, 72, 0
2, 29644, Note_on_c, 0, 70, 64
2, 29696, Note_on_c, 0, 70, 0
2, 29704, Note_on_c, 0, 72, 64
2, 29756, Note_on_c, 0, 72, 0
2, 29764, Note_on_c, 0, 74, 64
2, 29989, Note_on_c, 0, 74, 0
2, 30004, Note_on_c, 0, 72, 64
2, 30056, Note_on_c, 0, 72, 0
2, 30064, Note_on_c, 0, 74, 64
2, 30116, Note_on_c, 0, 74, 0
2, 30124, Note_on_c, 0, 75, 64
2, 30296, Note_on_c, 0, 75, 0
2, 30304, Note_on_c, 0, 74, 64
2, 30356, Note_on_c, 0, 74, 0
2, 30364, Note_on_c, 0, 72, 64
2, 30416, Note_on_c, 0, 72, 0
2, 30424, Note_on_c, 0, 70, 64
2, 30476, Note_on_c, 0, 70, 0
2, 30484, Note_on_c, 0, 72, 64
2, 30536, Note_on_c, 0, 72, 0
2, 30544, Note_on_c, 0, 69, 64
2, 30596, Note_on_c, 0, 69, 0
2, 30604, Note_on_c, 0, 70, 64
2, 30656, Note_on_c, 0, 70, 0
2, 30664, Note_on_c, 0, 72, 64
2, 30716, Note_on_c, 0, 72, 0
2, 30724, Note_on_c, 0, 70, 64
2, 30776, Note_on_c, 0, 70, 0
2, 30784, Note_on_c, 0, 69, 64
2, 30836, Note_on_c, 0, 69, 0
2, 30844, Note_on_c, 0, 70, 64
2, 30896, Note_on_c, 0, 70, 0
2, 30904, Note_on_c, 0, 67, 64
2, 30956, Note_on_c, 0, 67, 0
2, 30964, Note_on_c, 0, 75, 64
2, 31429, Note_on_c, 0, 75, 0
2, 31564, Note_on_c, 0, 75, 64
2, 31669, Note_on_c, 0, 75, 0
2, 31684, Note_on_c, 0, 74, 64
2, 31736, Note_on_c, 0, 74, 0
2, 31744, Note_on_c, 0, 69, 64
2, 31796, Note_on_c, 0, 69, 0
2, 31804, Note_on_c, 0, 70, 64
2, 31856, Note_on_c, 0, 70, 0
2, 31864, Note_on_c, 0, 72, 64
2, 31916, Note_on_c, 0, 72, 0
2, 31924, Note_on_c, 0, 74, 64
2, 31976, Note_on_c, 0, 74, 0
2, 31984, Note_on_c, 0, 77, 64
2, 32036, Note_on_c, 0, 77, 0
2, 32044, Note_on_c, 0, 82, 64
2, 32149, Note_on_c, 0, 82, 0
2, 32464, Note_on_c, 0, 79, 64
2, 32516, Note_on_c, 0, 79, 0
2, 32524, Note_on_c, 0, 77, 64
2, 32576, Note_on_c, 0, 77, 0
2, 32584, Note_on_c, 0, 75, 64
2, 32636, Note_on_c, 0, 75, 0
2, 32644, Note_on_c, 0, 77, 64
2, 32696, Note_on_c, 0, 77, 0
2, 32704, Note_on_c, 0, 74, 64
2, 32756, Note_on_c, 0, 74, 0
2, 32764, Note_on_c, 0, 70, 64
2, 32816, Note_on_c, 0, 70, 0
2, 32824, Note_on_c, 0, 74, 64
2, 32929, Note_on_c, 0, 74, 0
2, 32944, Note_on_c, 0, 72, 64
2, 32996, Note_on_c, 0, 72, 0
2, 33004, Note_on_c, 0, 70, 64
2, 33056, Note_on_c, 0, 70, 0
2, 33064, Note_on_c, 0, 69, 64
2, 33116, Note_on_c, 0, 69, 0
2, 33124, Note_on_c, 0, 70, 64
2, 33469, Note_on_c, 0, 70, 0
2, 33469, End_track
3, 0, Start_track
3, 0, MIDI_port, 0
3, 0, Title_t, "Fugue in B flat major"
3, 0, Program_c, 1, 6
3, 64, Note_on_c, 1, 72, 64
3, 116, Note_on_c, 1, 72, 0
3, 124, Note_on_c, 1, 70, 64
3, 176, Note_on_c, 1, 70, 0
3, 184, Note_on_c, 1, 69, 64
3, 236, Note_on_c, 1, 69, 0
3, 244, Note_on_c, 1, 70, 64
3, 296, Note_on_c, 1, 70, 0
3, 304, Note_on_c, 1, 65, 64
3, 356, Note_on_c, 1, 65, 0
3, 364, Note_on_c, 1, 62, 64
3, 416, Note_on_c, 1, 62, 0
3, 424, Note_on_c, 1, 67, 64
3, 476, Note_on_c, 1, 67, 0
3, 484, Note_on_c, 1, 65, 64
3, 536, Note_on_c, 1, 65, 0
3, 544, Note_on_c, 1, 63, 64
3, 596, Note_on_c, 1, 63, 0
3, 604, Note_on_c, 1, 65, 64
3, 656, Note_on_c, 1, 65, 0
3, 664, Note_on_c, 1, 62, 64
3, 716, Note_on_c, 1, 62, 0
3, 724, Note_on_c, 1, 58, 64
3, 776, Note_on_c, 1, 58, 0
3, 784, Note_on_c, 1, 63, 64
3, 836, Note_on_c, 1, 63, 0
3, 844, Note_on_c, 1, 63, 64
3, 896, Note_on_c, 1, 63, 0
3, 904, Note_on_c, 1, 62, 64
3, 956, Note_on_c, 1, 62, 0
3, 964, Note_on_c, 1, 62, 64
3, 1016, Note_on_c, 1, 62, 0
3, 1024, Note_on_c, 1, 60, 64
3, 1076, Note_on_c, 1, 60, 0
3, 1084, Note_on_c, 1, 60, 64
3, 1136, Note_on_c, 1, 60, 0
3, 1144, Note_on_c, 1, 65, 64
3, 1196, Note_on_c, 1, 65, 0
3, 1204, Note_on_c, 1, 65, 64
3, 1256, Note_on_c, 1, 65, 0
3, 1264, Note_on_c, 1, 63, 64
3, 1316, Note_on_c, 1, 63, 0
3, 1324, Note_on_c, 1, 63, 64
3, 1376, Note_on_c, 1, 63, 0
3, 1384, Note_on_c, 1, 62, 64
3, 1436, Note_on_c, 1, 62, 0
3, 1444, Note_on_c, 1, 62, 64
3, 1496, Note_on_c, 1, 62, 0
3, 1504, Note_on_c, 1, 63, 64
3, 1556, Note_on_c, 1, 63, 0
3, 1564, Note_on_c, 1, 62, 64
3, 1616, Note_on_c, 1, 62, 0
3, 1624, Note_on_c, 1, 60, 64
3, 1676, Note_on_c, 1, 60, 0
3, 1684, Note_on_c, 1, 58, 64
3, 1736, Note_on_c, 1, 58, 0
3, 1744, Note_on_c, 1, 62, 64
3, 1796, Note_on_c, 1, 62, 0
3, 1804, Note_on_c, 1, 60, 64
3, 1856, Note_on_c, 1, 60, 0
3, 1864, Note_on_c, 1, 65, 64
3, 1916, Note_on_c, 1, 65, 0
3, 1924, Note_on_c, 1, 63, 64
3, 1976, Note_on_c, 1, 63, 0
3, 1984, Note_on_c, 1, 62, 64
3, 2036, Note_on_c, 1, 62, 0
3, 2044, Note_on_c, 1, 60, 64
3, 2096, Note_on_c, 1, 60, 0
3, 2104, Note_on_c, 1, 63, 64
3, 2156, Note_on_c, 1, 63, 0
3, 2164, Note_on_c, 1, 62, 64
3, 2269, Note_on_c, 1, 62, 0
3, 2284, Note_on_c, 1, 64, 64
3, 2389, Note_on_c, 1, 64, 0
3, 2404, Note_on_c, 1, 65, 64
3, 2629, Note_on_c, 1, 65, 0
3, 2644, Note_on_c, 1, 64, 64
3, 2696, Note_on_c, 1, 64, 0
3, 2704, Note_on_c, 1, 62, 64
3, 2756, Note_on_c, 1, 62, 0
3, 2764, Note_on_c, 1, 64, 64
3, 2869, Note_on_c, 1, 64, 0
3, 2884, Note_on_c, 1, 65, 64
3, 2936, Note_on_c, 1, 65, 0
3, 2944, Note_on_c, 1, 63, 64
3, 2996, Note_on_c, 1, 63, 0
3, 3004, Note_on_c, 1, 62, 64
3, 3056, Note_on_c, 1, 62, 0
3, 3064, Note_on_c, 1, 60, 64
3, 3116, Note_on_c, 1, 60, 0
3, 3124, Note_on_c, 1, 62, 64
3, 3176, Note_on_c, 1, 62, 0
3, 3184, Note_on_c, 1, 65, 64
3, 3236, Note_on_c, 1, 65, 0
3, 3244, Note_on_c, 1, 58, 64
3, 3349, Note_on_c, 1, 58, 0
3, 3364, Note_on_c, 1, 62, 64
3, 3469, Note_on_c, 1, 62, 0
3, 3484, Note_on_c, 1, 58, 64
3, 3589, Note_on_c, 1, 58, 0
3, 3604, Note_on_c, 1, 63, 64
3, 3656, Note_on_c, 1, 63, 0
3, 3664, Note_on_c, 1, 62, 64
3, 3716, Note_on_c, 1, 62, 0
3, 3724, Note_on_c, 1, 60, 64
3, 3776, Note_on_c, 1, 60, 0
3, 3784, Note_on_c, 1, 58, 64
3, 3836, Note_on_c, 1, 58, 0
3, 3844, Note_on_c, 1, 60, 64
3, 3896, Note_on_c, 1, 60, 0
3, 3904, Note_on_c, 1, 63, 64
3, 3956, Note_on_c, 1, 63, 0
3, 3964, Note_on_c, 1, 57, 64
3, 4069, Note_on_c, 1, 57, 0
3, 4084, Note_on_c, 1, 60, 64
3, 4189, Note_on_c, 1, 60, 0
3, 4204, Note_on_c, 1, 65, 64
3, 4309, Note_on_c, 1, 65, 0
3, 4324, Note_on_c, 1, 58, 64
3, 4429, Note_on_c, 1, 58, 0
3, 4444, Note_on_c, 1, 62, 64
3, 4549, Note_on_c, 1, 62, 0
3, 4564, Note_on_c, 1, 65, 64
3, 4669, Note_on_c, 1, 65, 0
3, 4684, Note_on_c, 1, 70, 64
3, 5629, Note_on_c, 1, 70, 0
3, 5644, Note_on_c, 1, 69, 64
3, 5749, Note_on_c, 1, 69, 0
3, 5764, Note_on_c, 1, 70, 64
3, 5816, Note_on_c, 1, 70, 0
3, 5824, Note_on_c, 1, 63, 64
3, 5876, Note_on_c, 1, 63, 0
3, 5884, Note_on_c, 1, 63, 64
3, 5936, Note_on_c, 1, 63, 0
3, 5944, Note_on_c, 1, 62, 64
3, 5996, Note_on_c, 1, 62, 0
3, 6004, Note_on_c, 1, 62, 64
3, 6056, Note_on_c, 1, 62, 0
3, 6064, Note_on_c, 1, 60, 64
3, 6116, Note_on_c, 1, 60, 0
3, 6124, Note_on_c, 1, 60, 64
3, 6176, Note_on_c, 1, 60, 0
3, 6184, Note_on_c, 1, 65, 64
3, 6236, Note_on_c, 1, 65, 0
3, 6244, Note_on_c, 1, 65, 64
3, 6296, Note_on_c, 1, 65, 0
3, 6304, Note_on_c, 1, 63, 64
3, 6356, Note_on_c, 1, 63, 0
3, 6364, Note_on_c, 1, 63, 64
3, 6416, Note_on_c, 1, 63, 0
3, 6424, Note_on_c, 1, 62, 64
3, 6476, Note_on_c, 1, 62, 0
3, 6484, Note_on_c, 1, 62, 64
3, 6829, Note_on_c, 1, 62, 0
3, 6844, Note_on_c, 1, 60, 64
3, 6949, Note_on_c, 1, 60, 0
3, 6964, Note_on_c, 1, 62, 64
3, 7069, Note_on_c, 1, 62, 0
3, 7084, Note_on_c, 1, 64, 64
3, 7189, Note_on_c, 1, 64, 0
3, 7204, Note_on_c, 1, 65, 64
3, 7309, Note_on_c, 1, 65, 0
3, 7624, Note_on_c, 1, 70, 64
3, 7676, Note_on_c, 1, 70, 0
3, 7684, Note_on_c, 1, 69, 64
3, 7736, Note_on_c, 1, 69, 0
3, 7744, Note_on_c, 1, 67, 64
3, 7796, Note_on_c, 1, 67, 0
3, 7804, Note_on_c, 1, 69, 64
3, 7856, Note_on_c, 1, 69, 0
3, 7864, Note_on_c, 1, 72, 64
3, 7916, Note_on_c, 1, 72, 0
3, 7924, Note_on_c, 1, 75, 64
3, 7976, Note_on_c, 1, 75, 0
3, 7984, Note_on_c, 1, 74, 64
3, 8036, Note_on_c, 1, 74, 0
3, 8044, Note_on_c, 1, 74, 64
3, 8096, Note_on_c, 1, 74, 0
3, 8104, Note_on_c, 1, 72, 64
3, 8156, Note_on_c, 1, 72, 0
3, 8164, Note_on_c, 1, 72, 64
3, 8216, Note_on_c, 1, 72, 0
3, 8224, Note_on_c, 1, 70, 64
3, 8276, Note_on_c, 1, 70, 0
3, 8284, Note_on_c, 1, 70, 64
3, 8336, Note_on_c, 1, 70, 0
3, 8344, Note_on_c, 1, 69, 64
3, 8396, Note_on_c, 1, 69, 0
3, 8404, Note_on_c, 1, 69, 64
3, 8456, Note_on_c, 1, 69, 0
3, 8464, Note_on_c, 1, 67, 64
3, 8516, Note_on_c, 1, 67, 0
3, 8524, Note_on_c, 1, 67, 64
3, 8576, Note_on_c, 1, 67, 0
3, 8584, Note_on_c, 1, 65, 64
3, 8636, Note_on_c, 1, 65, 0
3, 8644, Note_on_c, 1, 65, 64
3, 8989, Note_on_c, 1, 65, 0
3, 9004, Note_on_c, 1, 64, 64
3, 9109, Note_on_c, 1, 64, 0
3, 9124, Note_on_c, 1, 63, 64
3, 9349, Note_on_c, 1, 63, 0
3, 9364, Note_on_c, 1, 62, 64
3, 9469, Note_on_c, 1, 62, 0
3, 9484, Note_on_c, 1, 61, 64
3, 9589, Note_on_c, 1, 61, 0
3, 9604, Note_on_c, 1, 58, 64
3, 9709, Note_on_c, 1, 58, 0
3, 9724, Note_on_c, 1, 64, 64
3, 9829, Note_on_c, 1, 64, 0
3, 9844, Note_on_c, 1, 65, 64
3, 9949, Note_on_c, 1, 65, 0
3, 10144, Note_on_c, 1, 68, 64
3, 10196, Note_on_c, 1, 68, 0
3, 10204, Note_on_c, 1, 68, 64
3, 10256, Note_on_c, 1, 68, 0
3, 10264, Note_on_c, 1, 67, 64
3, 10316, Note_on_c, 1, 67, 0
3, 10324, Note_on_c, 1, 67, 64
3, 10376, Note_on_c, 1, 67, 0
3, 10384, Note_on_c, 1, 65, 64
3, 10436, Note_on_c, 1, 65, 0
3, 10444, Note_on_c, 1, 64, 64
3, 10789, Note_on_c, 1, 64, 0
3, 10804, Note_on_c, 1, 65, 64
3, 10909, Note_on_c, 1, 65, 0
3, 10924, Note_on_c, 1, 62, 64
3, 11029, Note_on_c, 1, 62, 0
3, 11044, Note_on_c, 1, 55, 64
3, 11149, Note_on_c, 1, 55, 0
3, 11164, Note_on_c, 1, 57, 64
3, 11216, Note_on_c, 1, 57, 0
3, 11224, Note_on_c, 1, 67, 64
3, 11276, Note_on_c, 1, 67, 0
3, 11284, Note_on_c, 1, 65, 64
3, 11336, Note_on_c, 1, 65, 0
3, 11344, Note_on_c, 1, 64, 64
3, 11396, Note_on_c, 1, 64, 0
3, 11404, Note_on_c, 1, 65, 64
3, 11456, Note_on_c, 1, 65, 0
3, 11464, Note_on_c, 1, 60, 64
3, 11516, Note_on_c, 1, 60, 0
3, 11524, Note_on_c, 1, 57, 64
3, 11576, Note_on_c, 1, 57, 0
3, 11584, Note_on_c, 1, 62, 64
3, 11636, Note_on_c, 1, 62, 0
3, 11644, Note_on_c, 1, 60, 64
3, 11696, Note_on_c, 1, 60, 0
3, 11704, Note_on_c, 1, 58, 64
3, 11756, Note_on_c, 1, 58, 0
3, 11764, Note_on_c, 1, 60, 64
3, 11816, Note_on_c, 1, 60, 0
3, 11824, Note_on_c, 1, 57, 64
3, 11876, Note_on_c, 1, 57, 0
3, 11884, Note_on_c, 1, 53, 64
3, 11936, Note_on_c, 1, 53, 0
3, 11944, Note_on_c, 1, 58, 64
3, 11996, Note_on_c, 1, 58, 0
3, 12004, Note_on_c, 1, 58, 64
3, 12056, Note_on_c, 1, 58, 0
3, 12064, Note_on_c, 1, 57, 64
3, 12116, Note_on_c, 1, 57, 0
3, 12124, Note_on_c, 1, 57, 64
3, 12176, Note_on_c, 1, 57, 0
3, 12184, Note_on_c, 1, 55, 64
3, 12236, Note_on_c, 1, 55, 0
3, 12244, Note_on_c, 1, 55, 64
3, 12296, Note_on_c, 1, 55, 0
3, 12304, Note_on_c, 1, 60, 64
3, 12356, Note_on_c, 1, 60, 0
3, 12364, Note_on_c, 1, 60, 64
3, 12416, Note_on_c, 1, 60, 0
3, 12424, Note_on_c, 1, 58, 64
3, 12476, Note_on_c, 1, 58, 0
3, 12484, Note_on_c, 1, 58, 64
3, 12536, Note_on_c, 1, 58, 0
3, 12544, Note_on_c, 1, 57, 64
3, 12596, Note_on_c, 1, 57, 0
3, 12604, Note_on_c, 1, 57, 64
3, 12709, Note_on_c, 1, 57, 0
3, 12724, Note_on_c, 1, 58, 64
3, 12829, Note_on_c, 1, 58, 0
3, 12844, Note_on_c, 1, 60, 64
3, 13016, Note_on_c, 1, 60, 0
3, 13024, Note_on_c, 1, 58, 64
3, 13076, Note_on_c, 1, 58, 0
3, 13084, Note_on_c, 1, 58, 64
3, 13136, Note_on_c, 1, 58, 0
3, 13144, Note_on_c, 1, 56, 64
3, 13196, Note_on_c, 1, 56, 0
3, 13204, Note_on_c, 1, 56, 64
3, 13256, Note_on_c, 1, 56, 0
3, 13264, Note_on_c, 1, 55, 64
3, 13316, Note_on_c, 1, 55, 0
3, 13324, Note_on_c, 1, 55, 64
3, 13429, Note_on_c, 1, 55, 0
3, 13444, Note_on_c, 1, 57, 64
3, 13549, Note_on_c, 1, 57, 0
3, 13564, Note_on_c, 1, 58, 64
3, 13736, Note_on_c, 1, 58, 0
3, 13744, Note_on_c, 1, 57, 64
3, 13796, Note_on_c, 1, 57, 0
3, 13804, Note_on_c, 1, 57, 64
3, 13856, Note_on_c, 1, 57, 0
3, 13864, Note_on_c, 1, 55, 64
3, 13916, Note_on_c, 1, 55, 0
3, 13924, Note_on_c, 1, 55, 64
3, 13976, Note_on_c, 1, 55, 0
3, 13984, Note_on_c, 1, 53, 64
3, 14036, Note_on_c, 1, 53, 0
3, 14044, Note_on_c, 1, 53, 64
3, 14149, Note_on_c, 1, 53, 0
3, 14524, Note_on_c, 1, 65, 64
3, 14749, Note_on_c, 1, 65, 0
3, 14764, Note_on_c, 1, 67, 64
3, 15109, Note_on_c, 1, 67, 0
3, 15124, Note_on_c, 1, 69, 64
3, 15469, Note_on_c, 1, 69, 0
3, 15484, Note_on_c, 1, 62, 64
3, 15536, Note_on_c, 1, 62, 0
3, 15544, Note_on_c, 1, 72, 64
3, 15596, Note_on_c, 1, 72, 0
3, 15604, Note_on_c, 1, 70, 64
3, 15656, Note_on_c, 1, 70, 0
3, 15664, Note_on_c, 1, 69, 64
3, 15716, Note_on_c, 1, 69, 0
3, 15724, Note_on_c, 1, 70, 64
3, 15776, Note_on_c, 1, 70, 0
3, 15784, Note_on_c, 1, 67, 64
3, 15836, Note_on_c, 1, 67, 0
3, 15844, Note_on_c, 1, 63, 64
3, 16256, Note_on_c, 1, 63, 0
3, 16264, Note_on_c, 1, 62, 64
3, 16316, Note_on_c, 1, 62, 0
3, 16324, Note_on_c, 1, 62, 64
3, 16376, Note_on_c, 1, 62, 0
3, 16384, Note_on_c, 1, 60, 64
3, 16436, Note_on_c, 1, 60, 0
3, 16444, Note_on_c, 1, 60, 64
3, 16496, Note_on_c, 1, 60, 0
3, 16504, Note_on_c, 1, 58, 64
3, 16556, Note_on_c, 1, 58, 0
3, 16564, Note_on_c, 1, 58, 64
3, 16789, Note_on_c, 1, 58, 0
3, 17044, Note_on_c, 1, 60, 64
3, 17149, Note_on_c, 1, 60, 0
3, 17164, Note_on_c, 1, 57, 64
3, 17269, Note_on_c, 1, 57, 0
3, 17284, Note_on_c, 1, 58, 64
3, 17336, Note_on_c, 1, 58, 0
3, 17344, Note_on_c, 1, 55, 64
3, 17396, Note_on_c, 1, 55, 0
3, 17404, Note_on_c, 1, 64, 64
3, 17456, Note_on_c, 1, 64, 0
3, 17464, Note_on_c, 1, 66, 64
3, 17516, Note_on_c, 1, 66, 0
3, 17524, Note_on_c, 1, 67, 64
3, 17749, Note_on_c, 1, 67, 0
3, 17764, Note_on_c, 1, 66, 64
3, 17816, Note_on_c, 1, 66, 0
3, 17824, Note_on_c, 1, 67, 64
3, 17876, Note_on_c, 1, 67, 0
3, 17884, Note_on_c, 1, 69, 64
3, 18056, Note_on_c, 1, 69, 0
3, 18064, Note_on_c, 1, 67, 64
3, 18116, Note_on_c, 1, 67, 0
3, 18124, Note_on_c, 1, 67, 64
3, 18176, Note_on_c, 1, 67, 0
3, 18184, Note_on_c, 1, 65, 64
3, 18236, Note_on_c, 1, 65, 0
3, 18244, Note_on_c, 1, 65, 64
3, 18296, Note_on_c, 1, 65, 0
3, 18304, Note_on_c, 1, 63, 64
3, 18356, Note_on_c, 1, 63, 0
3, 18364, Note_on_c, 1, 63, 64
3, 18416, Note_on_c, 1, 63, 0
3, 18424, Note_on_c, 1, 68, 64
3, 18476, Note_on_c, 1, 68, 0
3, 18484, Note_on_c, 1, 68, 64
3, 18536, Note_on_c, 1, 68, 0
3, 18544, Note_on_c, 1, 67, 64
3, 18596, Note_on_c, 1, 67, 0
3, 18604, Note_on_c, 1, 67, 64
3, 18656, Note_on_c, 1, 67, 0
3, 18664, Note_on_c, 1, 65, 64
3, 18716, Note_on_c, 1, 65, 0
3, 18724, Note_on_c, 1, 65, 64
3, 19136, Note_on_c, 1, 65, 0
3, 19144, Note_on_c, 1, 65, 64
3, 19196, Note_on_c, 1, 65, 0
3, 19204, Note_on_c, 1, 63, 64
3, 19256, Note_on_c, 1, 63, 0
3, 19264, Note_on_c, 1, 62, 64
3, 19316, Note_on_c, 1, 62, 0
3, 19324, Note_on_c, 1, 63, 64
3, 19376, Note_on_c, 1, 63, 0
3, 19384, Note_on_c, 1, 58, 64
3, 19436, Note_on_c, 1, 58, 0
3, 19444, Note_on_c, 1, 55, 64
3, 19496, Note_on_c, 1, 55, 0
3, 19504, Note_on_c, 1, 60, 64
3, 19556, Note_on_c, 1, 60, 0
3, 19564, Note_on_c, 1, 58, 64
3, 19616, Note_on_c, 1, 58, 0
3, 19624, Note_on_c, 1, 56, 64
3, 19676, Note_on_c, 1, 56, 0
3, 19684, Note_on_c, 1, 58, 64
3, 19736, Note_on_c, 1, 58, 0
3, 19744, Note_on_c, 1, 55, 64
3, 19796, Note_on_c, 1, 55, 0
3, 19804, Note_on_c, 1, 51, 64
3, 19856, Note_on_c, 1, 51, 0
3, 19864, Note_on_c, 1, 56, 64
3, 19916, Note_on_c, 1, 56, 0
3, 19924, Note_on_c, 1, 56, 64
3, 19976, Note_on_c, 1, 56, 0
3, 19984, Note_on_c, 1, 55, 64
3, 20036, Note_on_c, 1, 55, 0
3, 20044, Note_on_c, 1, 55, 64
3, 20096, Note_on_c, 1, 55, 0
3, 20104, Note_on_c, 1, 53, 64
3, 20156, Note_on_c, 1, 53, 0
3, 20164, Note_on_c, 1, 53, 64
3, 20216, Note_on_c, 1, 53, 0
3, 20224, Note_on_c, 1, 58, 64
3, 20276, Note_on_c, 1, 58, 0
3, 20284, Note_on_c, 1, 58, 64
3, 20336, Note_on_c, 1, 58, 0
3, 20344, Note_on_c, 1, 56, 64
3, 20396, Note_on_c, 1, 56, 0
3, 20404, Note_on_c, 1, 56, 64
3, 20456, Note_on_c, 1, 56, 0
3, 20464, Note_on_c, 1, 55, 64
3, 20516, Note_on_c, 1, 55, 0
3, 20524, Note_on_c, 1, 55, 64
3, 20629, Note_on_c, 1, 55, 0
3, 20644, Note_on_c, 1, 67, 64
3, 20749, Note_on_c, 1, 67, 0
3, 20764, Note_on_c, 1, 64, 64
3, 20869, Note_on_c, 1, 64, 0
3, 20884, Note_on_c, 1, 60, 64
3, 20989, Note_on_c, 1, 60, 0
3, 21004, Note_on_c, 1, 62, 64
3, 21056, Note_on_c, 1, 62, 0
3, 21064, Note_on_c, 1, 63, 64
3, 21116, Note_on_c, 1, 63, 0
3, 21124, Note_on_c, 1, 65, 64
3, 21229, Note_on_c, 1, 65, 0
3, 21244, Note_on_c, 1, 59, 64
3, 21589, Note_on_c, 1, 59, 0
3, 21604, Note_on_c, 1, 60, 64
3, 21709, Note_on_c, 1, 60, 0
3, 21724, Note_on_c, 1, 63, 64
3, 21829, Note_on_c, 1, 63, 0
3, 21844, Note_on_c, 1, 65, 64
3, 22016, Note_on_c, 1, 65, 0
3, 22024, Note_on_c, 1, 68, 64
3, 22076, Note_on_c, 1, 68, 0
3, 22084, Note_on_c, 1, 67, 64
3, 22136, Note_on_c, 1, 67, 0
3, 22144, Note_on_c, 1, 65, 64
3, 22196, Note_on_c, 1, 65, 0
3, 22204, Note_on_c, 1, 67, 64
3, 22256, Note_on_c, 1, 67, 0
3, 22264, Note_on_c, 1, 62, 64
3, 22316, Note_on_c, 1, 62, 0
3, 22324, Note_on_c, 1, 63, 64
3, 22376, Note_on_c, 1, 63, 0
3, 22384, Note_on_c, 1, 53, 64
3, 22436, Note_on_c, 1, 53, 0
3, 22444, Note_on_c, 1, 51, 64
3, 22496, Note_on_c, 1, 51, 0
3, 22504, Note_on_c, 1, 50, 64
3, 22556, Note_on_c, 1, 50, 0
3, 22564, Note_on_c, 1, 51, 64
3, 22616, Note_on_c, 1, 51, 0
3, 22624, Note_on_c, 1, 55, 64
3, 22676, Note_on_c, 1, 55, 0
3, 22684, Note_on_c, 1, 60, 64
3, 22789, Note_on_c, 1, 60, 0
3, 22804, Note_on_c, 1, 55, 64
3, 22856, Note_on_c, 1, 55, 0
3, 22864, Note_on_c, 1, 56, 64
3, 22916, Note_on_c, 1, 56, 0
3, 22924, Note_on_c, 1, 58, 64
3, 23149, Note_on_c, 1, 58, 0
3, 23164, Note_on_c, 1, 57, 64
3, 23216, Note_on_c, 1, 57, 0
3, 23224, Note_on_c, 1, 59, 64
3, 23276, Note_on_c, 1, 59, 0
3, 23284, Note_on_c, 1, 60, 64
3, 23509, Note_on_c, 1, 60, 0
3, 23524, Note_on_c, 1, 59, 64
3, 23576, Note_on_c, 1, 59, 0
3, 23584, Note_on_c, 1, 60, 64
3, 23636, Note_on_c, 1, 60, 0
3, 23644, Note_on_c, 1, 62, 64
3, 23816, Note_on_c, 1, 62, 0
3, 23824, Note_on_c, 1, 62, 64
3, 23876, Note_on_c, 1, 62, 0
3, 23884, Note_on_c, 1, 60, 64
3, 23936, Note_on_c, 1, 60, 0
3, 23944, Note_on_c, 1, 59, 64
3, 23996, Note_on_c, 1, 59, 0
3, 24004, Note_on_c, 1, 60, 64
3, 24056, Note_on_c, 1, 60, 0
3, 24064, Note_on_c, 1, 55, 64
3, 24116, Note_on_c, 1, 55, 0
3, 24124, Note_on_c, 1, 57, 64
3, 24229, Note_on_c, 1, 57, 0
3, 24244, Note_on_c, 1, 60, 64
3, 24349, Note_on_c, 1, 60, 0
3, 24364, Note_on_c, 1, 65, 64
3, 24589, Note_on_c, 1, 65, 0
3, 24604, Note_on_c, 1, 65, 64
3, 24709, Note_on_c, 1, 65, 0
3, 24724, Note_on_c, 1, 70, 64
3, 24829, Note_on_c, 1, 70, 0
3, 24844, Note_on_c, 1, 67, 64
3, 24949, Note_on_c, 1, 67, 0
3, 24964, Note_on_c, 1, 64, 64
3, 25069, Note_on_c, 1, 64, 0
3, 25084, Note_on_c, 1, 69, 64
3, 25189, Note_on_c, 1, 69, 0
3, 25204, Note_on_c, 1, 62, 64
3, 25429, Note_on_c, 1, 62, 0
3, 25444, Note_on_c, 1, 67, 64
3, 25549, Note_on_c, 1, 67, 0
3, 25564, Note_on_c, 1, 63, 64
3, 25669, Note_on_c, 1, 63, 0
3, 25684, Note_on_c, 1, 60, 64
3, 25789, Note_on_c, 1, 60, 0
3, 25804, Note_on_c, 1, 65, 64
3, 25909, Note_on_c, 1, 65, 0
3, 25924, Note_on_c, 1, 58, 64
3, 26149, Note_on_c, 1, 58, 0
3, 26164, Note_on_c, 1, 63, 64
3, 26269, Note_on_c, 1, 63, 0
3, 26284, Note_on_c, 1, 60, 64
3, 26389, Note_on_c, 1, 60, 0
3, 26404, Note_on_c, 1, 57, 64
3, 26509, Note_on_c, 1, 57, 0
3, 26524, Note_on_c, 1, 62, 64
3, 26629, Note_on_c, 1, 62, 0
3, 26644, Note_on_c, 1, 55, 64
3, 26869, Note_on_c, 1, 55, 0
3, 26884, Note_on_c, 1, 60, 64
3, 26989, Note_on_c, 1, 60, 0
3, 27004, Note_on_c, 1, 53, 64
3, 27109, Note_on_c, 1, 53, 0
3, 27124, Note_on_c, 1, 48, 64
3, 27229, Note_on_c, 1, 48, 0
3, 27244, Note_on_c, 1, 53, 64
3, 27416, Note_on_c, 1, 53, 0
3, 27424, Note_on_c, 1, 60, 64
3, 27476, Note_on_c, 1, 60, 0
3, 27484, Note_on_c, 1, 58, 64
3, 27536, Note_on_c, 1, 58, 0
3, 27544, Note_on_c, 1, 57, 64
3, 27596, Note_on_c, 1, 57, 0
3, 27604, Note_on_c, 1, 58, 64
3, 27656, Note_on_c, 1, 58, 0
3, 27664, Note_on_c, 1, 55, 64
3, 27716, Note_on_c, 1, 55, 0
3, 27724, Note_on_c, 1, 57, 64
3, 27776, Note_on_c, 1, 57, 0
3, 28564, Note_on_c, 1, 62, 64
3, 28616, Note_on_c, 1, 62, 0
3, 28624, Note_on_c, 1, 63, 64
3, 28676, Note_on_c, 1, 63, 0
3, 28684, Note_on_c, 1, 65, 64
3, 28909, Note_on_c, 1, 65, 0
3, 28924, Note_on_c, 1, 63, 64
3, 28976, Note_on_c, 1, 63, 0
3, 28984, Note_on_c, 1, 65, 64
3, 29036, Note_on_c, 1, 65, 0
3, 29044, Note_on_c, 1, 67, 64
3, 29216, Note_on_c, 1, 67, 0
3, 29224, Note_on_c, 1, 65, 64
3, 29276, Note_on_c, 1, 65, 0
3, 29284, Note_on_c, 1, 63, 64
3, 29336, Note_on_c, 1, 63, 0
3, 29344, Note_on_c, 1, 62, 64
3, 29396, Note_on_c, 1, 62, 0
3, 29404, Note_on_c, 1, 63, 64
3, 29456, Note_on_c, 1, 63, 0
3, 29464, Note_on_c, 1, 60, 64
3, 29516, Note_on_c, 1, 60, 0
3, 29524, Note_on_c, 1, 62, 64
3, 29576, Note_on_c, 1, 62, 0
3, 29584, Note_on_c, 1, 67, 64
3, 29636, Note_on_c, 1, 67, 0
3, 29644, Note_on_c, 1, 67, 64
3, 29696, Note_on_c, 1, 67, 0
3, 29704, Note_on_c, 1, 65, 64
3, 29756, Note_on_c, 1, 65, 0
3, 29764, Note_on_c, 1, 65, 64
3, 29816, Note_on_c, 1, 65, 0
3, 29824, Note_on_c, 1, 64, 64
3, 29876, Note_on_c, 1, 64, 0
3, 29884, Note_on_c, 1, 64, 64
3, 29936, Note_on_c, 1, 64, 0
3, 29944, Note_on_c, 1, 69, 64
3, 29996, Note_on_c, 1, 69, 0
3, 30004, Note_on_c, 1, 69, 64
3, 30056, Note_on_c, 1, 69, 0
3, 30064, Note_on_c, 1, 67, 64
3, 30116, Note_on_c, 1, 67, 0
3, 30124, Note_on_c, 1, 67, 64
3, 30176, Note_on_c, 1, 67, 0
3, 30184, Note_on_c, 1, 66, 64
3, 30236, Note_on_c, 1, 66, 0
3, 30244, Note_on_c, 1, 66, 64
3, 30296, Note_on_c, 1, 66, 0
3, 30304, Note_on_c, 1, 67, 64
3, 30356, Note_on_c, 1, 67, 0
3, 30364, Note_on_c, 1, 69, 64
3, 30416, Note_on_c, 1, 69, 0
3, 30424, Note_on_c, 1, 67, 64
3, 30476, Note_on_c, 1, 67, 0
3, 30484, Note_on_c, 1, 69, 64
3, 30536, Note_on_c, 1, 69, 0
3, 30544, Note_on_c, 1, 66, 64
3, 30596, Note_on_c, 1, 66, 0
3, 30604, Note_on_c, 1, 67, 64
3, 30656, Note_on_c, 1, 67, 0
3, 31024, Note_on_c, 1, 70, 64
3, 31076, Note_on_c, 1, 70, 0
3, 31084, Note_on_c, 1, 69, 64
3, 31136, Note_on_c, 1, 69, 0
3, 31144, Note_on_c, 1, 67, 64
3, 31196, Note_on_c, 1, 67, 0
3, 31204, Note_on_c, 1, 67, 64
3, 31256, Note_on_c, 1, 67, 0
3, 31264, Note_on_c, 1, 65, 64
3, 31316, Note_on_c, 1, 65, 0
3, 31324, Note_on_c, 1, 65, 64
3, 31337, Note_on_c, 1, 65, 0
3, 31339, Note_on_c, 1, 69, 64
3, 31352, Note_on_c, 1, 69, 0
3, 31354, Note_on_c, 1, 72, 64
3, 31380, Note_on_c, 1, 72, 0
3, 31384, Note_on_c, 1, 70, 64
3, 31436, Note_on_c, 1, 70, 0
3, 31444, Note_on_c, 1, 69, 64
3, 31496, Note_on_c, 1, 69, 0
3, 31504, Note_on_c, 1, 67, 64
3, 31556, Note_on_c, 1, 67, 0
3, 31564, Note_on_c, 1, 69, 64
3, 31616, Note_on_c, 1, 69, 0
3, 31624, Note_on_c, 1, 65, 64
3, 31909, Note_on_c, 1, 65, 0
3, 32104, Note_on_c, 1, 73, 64
3, 32156, Note_on_c, 1, 73, 0
3, 32164, Note_on_c, 1, 73, 64
3, 32216, Note_on_c, 1, 73, 0
3, 32224, Note_on_c, 1, 72, 64
3, 32276, Note_on_c, 1, 72, 0
3, 32284, Note_on_c, 1, 72, 64
3, 32336, Note_on_c, 1, 72, 0
3, 32344, Note_on_c, 1, 70, 64
3, 32396, Note_on_c, 1, 70, 0
3, 32404, Note_on_c, 1, 69, 64
3, 32749, Note_on_c, 1, 69, 0
3, 32764, Note_on_c, 1, 70, 64
3, 32869, Note_on_c, 1, 70, 0
3, 32884, Note_on_c, 1, 67, 64
3, 32989, Note_on_c, 1, 67, 0
3, 33004, Note_on_c, 1, 60, 64
3, 33109, Note_on_c, 1, 60, 0
3, 33124, Note_on_c, 1, 62, 64
3, 33469, Note_on_c, 1, 62, 0
3, 33469, End_track
4, 0, Start_track
4, 0, MIDI_port, 0
4, 0, Title_t, "from WTC II"
4, 0, Program_c, 2, 6
4, 4384, Note_on_c, 2, 60, 64
4, 4436, Note_on_c, 2, 60, 0
4, 4444, Note_on_c, 2, 58, 64
4, 4496, Note_on_c, 2, 58, 0
4, 4504, Note_on_c, 2, 57, 64
4, 4556, Note_on_c, 2, 57, 0
4, 4564, Note_on_c, 2, 58, 64
4, 4616, Note_on_c, 2, 58, 0
4, 4624, Note_on_c, 2, 53, 64
4, 4676, Note_on_c, 2, 53, 0
4, 4684, Note_on_c, 2, 50, 64
4, 4736, Note_on_c, 2, 50, 0
4, 4744, Note_on_c, 2, 55, 64
4, 4796, Note_on_c, 2, 55, 0
4, 4804, Note_on_c, 2, 53, 64
4, 4856, Note_on_c, 2, 53, 0
4, 4864, Note_on_c, 2, 51, 64
4, 4916, Note_on_c, 2, 51, 0
4, 4924, Note_on_c, 2, 53, 64
4, 4976, Note_on_c, 2, 53, 0
4, 4984, Note_on_c, 2, 50, 64
4, 5036, Note_on_c, 2, 50, 0
4, 5044, Note_on_c, 2, 46, 64
4, 5096, Note_on_c, 2, 46, 0
4, 5104, Note_on_c, 2, 51, 64
4, 5156, Note_on_c, 2, 51, 0
4, 5164, Note_on_c, 2, 51, 64
4, 5216, Note_on_c, 2, 51, 0
4, 5224, Note_on_c, 2, 50, 64
4, 5276, Note_on_c, 2, 50, 0
4, 5284, Note_on_c, 2, 50, 64
4, 5336, Note_on_c, 2, 50, 0
4, 5344, Note_on_c, 2, 48, 64
4, 5396, Note_on_c, 2, 48, 0
4, 5404, Note_on_c, 2, 48, 64
4, 5456, Note_on_c, 2, 48, 0
4, 5464, Note_on_c, 2, 53, 64
4, 5516, Note_on_c, 2, 53, 0
4, 5524, Note_on_c, 2, 53, 64
4, 5576, Note_on_c, 2, 53, 0
4, 5584, Note_on_c, 2, 51, 64
4, 5636, Note_on_c, 2, 51, 0
4, 5644, Note_on_c, 2, 51, 64
4, 5696, Note_on_c, 2, 51, 0
4, 5704, Note_on_c, 2, 50, 64
4, 5756, Note_on_c, 2, 50, 0
4, 5764, Note_on_c, 2, 50, 64
4, 5816, Note_on_c, 2, 50, 0
4, 5824, Note_on_c, 2, 55, 64
4, 5876, Note_on_c, 2, 55, 0
4, 5884, Note_on_c, 2, 55, 64
4, 5936, Note_on_c, 2, 55, 0
4, 5944, Note_on_c, 2, 53, 64
4, 5996, Note_on_c, 2, 53, 0
4, 6004, Note_on_c, 2, 53, 64
4, 6056, Note_on_c, 2, 53, 0
4, 6064, Note_on_c, 2, 51, 64
4, 6116, Note_on_c, 2, 51, 0
4, 6124, Note_on_c, 2, 51, 64
4, 6229, Note_on_c, 2, 51, 0
4, 6244, Note_on_c, 2, 53, 64
4, 6349, Note_on_c, 2, 53, 0
4, 6364, Note_on_c, 2, 41, 64
4, 6469, Note_on_c, 2, 41, 0
4, 6484, Note_on_c, 2, 46, 64
4, 6589, Note_on_c, 2, 46, 0
4, 6604, Note_on_c, 2, 58, 64
4, 6896, Note_on_c, 2, 58, 0
4, 6904, Note_on_c, 2, 57, 64
4, 6956, Note_on_c, 2, 57, 0
4, 6964, Note_on_c, 2, 57, 64
4, 7016, Note_on_c, 2, 57, 0
4, 7024, Note_on_c, 2, 55, 64
4, 7076, Note_on_c, 2, 55, 0
4, 7084, Note_on_c, 2, 55, 64
4, 7136, Note_on_c, 2, 55, 0
4, 7144, Note_on_c, 2, 53, 64
4, 7196, Note_on_c, 2, 53, 0
4, 7204, Note_on_c, 2, 53, 64
4, 7256, Note_on_c, 2, 53, 0
4, 7264, Note_on_c, 2, 55, 64
4, 7316, Note_on_c, 2, 55, 0
4, 7324, Note_on_c, 2, 53, 64
4, 7376, Note_on_c, 2, 53, 0
4, 7384, Note_on_c, 2, 52, 64
4, 7436, Note_on_c, 2, 52, 0
4, 7444, Note_on_c, 2, 53, 64
4, 7496, Note_on_c, 2, 53, 0
4, 7504, Note_on_c, 2, 48, 64
4, 7556, Note_on_c, 2, 48, 0
4, 7564, Note_on_c, 2, 45, 64
4, 7616, Note_on_c, 2, 45, 0
4, 7624, Note_on_c, 2, 50, 64
4, 7676, Note_on_c, 2, 50, 0
4, 7684, Note_on_c, 2, 48, 64
4, 7736, Note_on_c, 2, 48, 0
4, 7744, Note_on_c, 2, 46, 64
4, 7796, Note_on_c, 2, 46, 0
4, 7804, Note_on_c, 2, 48, 64
4, 7856, Note_on_c, 2, 48, 0
4, 7864, Note_on_c, 2, 45, 64
4, 7916, Note_on_c, 2, 45, 0
4, 7924, Note_on_c, 2, 41, 64
4, 7976, Note_on_c, 2, 41, 0
4, 7984, Note_on_c, 2, 46, 64
4, 8036, Note_on_c, 2, 46, 0
4, 8044, Note_on_c, 2, 46, 64
4, 8096, Note_on_c, 2, 46, 0
4, 8104, Note_on_c, 2, 45, 64
4, 8156, Note_on_c, 2, 45, 0
4, 8164, Note_on_c, 2, 45, 64
4, 8216, Note_on_c, 2, 45, 0
4, 8224, Note_on_c, 2, 43, 64
4, 8276, Note_on_c, 2, 43, 0
4, 8284, Note_on_c, 2, 43, 64
4, 8336, Note_on_c, 2, 43, 0
4, 8344, Note_on_c, 2, 48, 64
4, 8396, Note_on_c, 2, 48, 0
4, 8404, Note_on_c, 2, 48, 64
4, 8456, Note_on_c, 2, 48, 0
4, 8464, Note_on_c, 2, 46, 64
4, 8516, Note_on_c, 2, 46, 0
4, 8524, Note_on_c, 2, 46, 64
4, 8576, Note_on_c, 2, 46, 0
4, 8584, Note_on_c, 2, 45, 64
4, 8636, Note_on_c, 2, 45, 0
4, 8644, Note_on_c, 2, 45, 64
4, 8749, Note_on_c, 2, 45, 0
4, 8764, Note_on_c, 2, 46, 64
4, 9109, Note_on_c, 2, 46, 0
4, 9124, Note_on_c, 2, 45, 64
4, 9144, Note_on_c, 2, 43, 64
4, 9147, Note_on_c, 2, 45, 0
4, 9168, Note_on_c, 2, 45, 64
4, 9175, Note_on_c, 2, 43, 0
4, 9359, Note_on_c, 2, 45, 0
4, 9364, Note_on_c, 2, 46, 64
4, 9416, Note_on_c, 2, 46, 0
4, 9424, Note_on_c, 2, 57, 64
4, 9476, Note_on_c, 2, 57, 0
4, 9484, Note_on_c, 2, 55, 64
4, 9536, Note_on_c, 2, 55, 0
4, 9544, Note_on_c, 2, 53, 64
4, 9596, Note_on_c, 2, 53, 0
4, 9604, Note_on_c, 2, 55, 64
4, 9656, Note_on_c, 2, 55, 0
4, 9664, Note_on_c, 2, 52, 64
4, 9716, Note_on_c, 2, 52, 0
4, 9724, Note_on_c, 2, 48, 64
4, 9776, Note_on_c, 2, 48, 0
4, 9784, Note_on_c, 2, 55, 64
4, 9836, Note_on_c, 2, 55, 0
4, 9844, Note_on_c, 2, 53, 64
4, 9896, Note_on_c, 2, 53, 0
4, 9904, Note_on_c, 2, 52, 64
4, 9956, Note_on_c, 2, 52, 0
4, 9964, Note_on_c, 2, 53, 64
4, 10016, Note_on_c, 2, 53, 0
4, 10024, Note_on_c, 2, 50, 64
4, 10076, Note_on_c, 2, 50, 0
4, 10084, Note_on_c, 2, 47, 64
4, 10189, Note_on_c, 2, 47, 0
4, 10204, Note_on_c, 2, 47, 64
4, 10309, Note_on_c, 2, 47, 0
4, 10324, Note_on_c, 2, 47, 64
4, 10429, Note_on_c, 2, 47, 0
4, 10444, Note_on_c, 2, 46, 64
4, 10549, Note_on_c, 2, 46, 0
4, 10564, Note_on_c, 2, 46, 64
4, 10669, Note_on_c, 2, 46, 0
4, 10684, Note_on_c, 2, 46, 64
4, 10789, Note_on_c, 2, 46, 0
4, 10804, Note_on_c, 2, 45, 64
4, 10909, Note_on_c, 2, 45, 0
4, 10924, Note_on_c, 2, 46, 64
4, 11029, Note_on_c, 2, 46, 0
4, 11044, Note_on_c, 2, 48, 64
4, 11149, Note_on_c, 2, 48, 0
4, 11164, Note_on_c, 2, 41, 64
4, 11269, Note_on_c, 2, 41, 0
4, 11644, Note_on_c, 2, 45, 64
4, 11869, Note_on_c, 2, 45, 0
4, 11884, Note_on_c, 2, 46, 64
4, 12229, Note_on_c, 2, 46, 0
4, 12244, Note_on_c, 2, 48, 64
4, 12589, Note_on_c, 2, 48, 0
4, 12604, Note_on_c, 2, 41, 64
4, 12656, Note_on_c, 2, 41, 0
4, 12664, Note_on_c, 2, 53, 64
4, 12716, Note_on_c, 2, 53, 0
4, 12724, Note_on_c, 2, 53, 64
4, 12776, Note_on_c, 2, 53, 0
4, 12784, Note_on_c, 2, 51, 64
4, 12836, Note_on_c, 2, 51, 0
4, 12844, Note_on_c, 2, 51, 64
4, 12896, Note_on_c, 2, 51, 0
4, 12904, Note_on_c, 2, 50, 64
4, 12956, Note_on_c, 2, 50, 0
4, 12964, Note_on_c, 2, 50, 64
4, 13069, Note_on_c, 2, 50, 0
4, 13084, Note_on_c, 2, 48, 64
4, 13189, Note_on_c, 2, 48, 0
4, 13204, Note_on_c, 2, 46, 64
4, 13309, Note_on_c, 2, 46, 0
4, 13384, Note_on_c, 2, 51, 64
4, 13436, Note_on_c, 2, 51, 0
4, 13444, Note_on_c, 2, 51, 64
4, 13496, Note_on_c, 2, 51, 0
4, 13504, Note_on_c, 2, 50, 64
4, 13556, Note_on_c, 2, 50, 0
4, 13564, Note_on_c, 2, 50, 64
4, 13616, Note_on_c, 2, 50, 0
4, 13624, Note_on_c, 2, 48, 64
4, 13676, Note_on_c, 2, 48, 0
4, 13684, Note_on_c, 2, 48, 64
4, 13736, Note_on_c, 2, 48, 0
4, 13744, Note_on_c, 2, 53, 64
4, 13796, Note_on_c, 2, 53, 0
4, 13804, Note_on_c, 2, 53, 64
4, 13856, Note_on_c, 2, 53, 0
4, 13864, Note_on_c, 2, 51, 64
4, 13916, Note_on_c, 2, 51, 0
4, 13924, Note_on_c, 2, 51, 64
4, 13976, Note_on_c, 2, 51, 0
4, 13984, Note_on_c, 2, 50, 64
4, 14036, Note_on_c, 2, 50, 0
4, 14044, Note_on_c, 2, 50, 64
4, 14096, Note_on_c, 2, 50, 0
4, 14104, Note_on_c, 2, 51, 64
4, 14156, Note_on_c, 2, 51, 0
4, 14164, Note_on_c, 2, 50, 64
4, 14216, Note_on_c, 2, 50, 0
4, 14224, Note_on_c, 2, 48, 64
4, 14276, Note_on_c, 2, 48, 0
4, 14284, Note_on_c, 2, 50, 64
4, 14336, Note_on_c, 2, 50, 0
4, 14344, Note_on_c, 2, 53, 64
4, 14396, Note_on_c, 2, 53, 0
4, 14404, Note_on_c, 2, 58, 64
4, 14509, Note_on_c, 2, 58, 0
4, 14524, Note_on_c, 2, 46, 64
4, 14576, Note_on_c, 2, 46, 0
4, 14584, Note_on_c, 2, 48, 64
4, 14636, Note_on_c, 2, 48, 0
4, 14644, Note_on_c, 2, 50, 64
4, 14869, Note_on_c, 2, 50, 0
4, 14884, Note_on_c, 2, 48, 64
4, 14936, Note_on_c, 2, 48, 0
4, 14944, Note_on_c, 2, 50, 64
4, 14996, Note_on_c, 2, 50, 0
4, 15004, Note_on_c, 2, 51, 64
4, 15229, Note_on_c, 2, 51, 0
4, 15244, Note_on_c, 2, 50, 64
4, 15296, Note_on_c, 2, 50, 0
4, 15304, Note_on_c, 2, 51, 64
4, 15356, Note_on_c, 2, 51, 0
4, 15364, Note_on_c, 2, 53, 64
4, 15536, Note_on_c, 2, 53, 0
4, 15544, Note_on_c, 2, 50, 64
4, 15596, Note_on_c, 2, 50, 0
4, 15604, Note_on_c, 2, 52, 64
4, 15656, Note_on_c, 2, 52, 0
4, 15664, Note_on_c, 2, 54, 64
4, 15716, Note_on_c, 2, 54, 0
4, 15724, Note_on_c, 2, 55, 64
4, 15896, Note_on_c, 2, 55, 0
4, 15904, Note_on_c, 2, 58, 64
4, 15956, Note_on_c, 2, 58, 0
4, 15964, Note_on_c, 2, 57, 64
4, 16016, Note_on_c, 2, 57, 0
4, 16024, Note_on_c, 2, 55, 64
4, 16076, Note_on_c, 2, 55, 0
4, 16084, Note_on_c, 2, 57, 64
4, 16136, Note_on_c, 2, 57, 0
4, 16144, Note_on_c, 2, 60, 64
4, 16196, Note_on_c, 2, 60, 0
4, 16204, Note_on_c, 2, 50, 64
4, 16309, Note_on_c, 2, 50, 0
4, 16324, Note_on_c, 2, 52, 64
4, 16429, Note_on_c, 2, 52, 0
4, 16444, Note_on_c, 2, 54, 64
4, 16549, Note_on_c, 2, 54, 0
4, 16564, Note_on_c, 2, 55, 64
4, 16616, Note_on_c, 2, 55, 0
4, 16624, Note_on_c, 2, 57, 64
4, 16676, Note_on_c, 2, 57, 0
4, 16684, Note_on_c, 2, 55, 64
4, 16736, Note_on_c, 2, 55, 0
4, 16744, Note_on_c, 2, 54, 64
4, 16796, Note_on_c, 2, 54, 0
4, 16804, Note_on_c, 2, 55, 64
4, 16856, Note_on_c, 2, 55, 0
4, 16864, Note_on_c, 2, 50, 64
4, 16916, Note_on_c, 2, 50, 0
4, 16924, Note_on_c, 2, 46, 64
4, 16976, Note_on_c, 2, 46, 0
4, 16984, Note_on_c, 2, 51, 64
4, 17036, Note_on_c, 2, 51, 0
4, 17044, Note_on_c, 2, 50, 64
4, 17096, Note_on_c, 2, 50, 0
4, 17104, Note_on_c, 2, 48, 64
4, 17156, Note_on_c, 2, 48, 0
4, 17164, Note_on_c, 2, 50, 64
4, 17216, Note_on_c, 2, 50, 0
4, 17224, Note_on_c, 2, 46, 64
4, 17276, Note_on_c, 2, 46, 0
4, 17284, Note_on_c, 2, 43, 64
4, 17336, Note_on_c, 2, 43, 0
4, 17344, Note_on_c, 2, 48, 64
4, 17396, Note_on_c, 2, 48, 0
4, 17404, Note_on_c, 2, 48, 64
4, 17456, Note_on_c, 2, 48, 0
4, 17464, Note_on_c, 2, 46, 64
4, 17516, Note_on_c, 2, 46, 0
4, 17524, Note_on_c, 2, 46, 64
4, 17576, Note_on_c, 2, 46, 0
4, 17584, Note_on_c, 2, 45, 64
4, 17636, Note_on_c, 2, 45, 0
4, 17644, Note_on_c, 2, 45, 64
4, 17696, Note_on_c, 2, 45, 0
4, 17704, Note_on_c, 2, 50, 64
4, 17756, Note_on_c, 2, 50, 0
4, 17764, Note_on_c, 2, 50, 64
4, 17816, Note_on_c, 2, 50, 0
4, 17824, Note_on_c, 2, 48, 64
4, 17876, Note_on_c, 2, 48, 0
4, 17884, Note_on_c, 2, 48, 64
4, 17936, Note_on_c, 2, 48, 0
4, 17944, Note_on_c, 2, 46, 64
4, 17996, Note_on_c, 2, 46, 0
4, 18004, Note_on_c, 2, 46, 64
4, 18229, Note_on_c, 2, 46, 0
4, 18244, Note_on_c, 2, 47, 64
4, 18349, Note_on_c, 2, 47, 0
4, 18364, Note_on_c, 2, 48, 64
4, 18469, Note_on_c, 2, 48, 0
4, 18484, Note_on_c, 2, 60, 64
4, 18589, Note_on_c, 2, 60, 0
4, 18604, Note_on_c, 2, 58, 64
4, 18709, Note_on_c, 2, 58, 0
4, 18724, Note_on_c, 2, 56, 64
4, 18829, Note_on_c, 2, 56, 0
4, 18844, Note_on_c, 2, 58, 64
4, 18949, Note_on_c, 2, 58, 0
4, 18964, Note_on_c, 2, 46, 64
4, 19069, Note_on_c, 2, 46, 0
4, 19084, Note_on_c, 2, 51, 64
4, 19496, Note_on_c, 2, 51, 0
4, 19504, Note_on_c, 2, 56, 64
4, 19556, Note_on_c, 2, 56, 0
4, 19564, Note_on_c, 2, 55, 64
4, 19616, Note_on_c, 2, 55, 0
4, 19624, Note_on_c, 2, 53, 64
4, 19676, Note_on_c, 2, 53, 0
4, 19684, Note_on_c, 2, 55, 64
4, 19736, Note_on_c, 2, 55, 0
4, 19744, Note_on_c, 2, 51, 64
4, 19796, Note_on_c, 2, 51, 0
4, 19804, Note_on_c, 2, 48, 64
4, 19969, Note_on_c, 2, 48, 0
4, 19984, Note_on_c, 2, 50, 64
4, 20036, Note_on_c, 2, 50, 0
4, 20044, Note_on_c, 2, 51, 64
4, 20269, Note_on_c, 2, 51, 0
4, 20284, Note_on_c, 2, 50, 64
4, 20336, Note_on_c, 2, 50, 0
4, 20344, Note_on_c, 2, 51, 64
4, 20396, Note_on_c, 2, 51, 0
4, 20404, Note_on_c, 2, 53, 64
4, 20629, Note_on_c, 2, 53, 0
4, 20644, Note_on_c, 2, 52, 64
4, 20696, Note_on_c, 2, 52, 0
4, 20704, Note_on_c, 2, 53, 64
4, 20756, Note_on_c, 2, 53, 0
4, 20764, Note_on_c, 2, 55, 64
4, 20936, Note_on_c, 2, 55, 0
4, 20944, Note_on_c, 2, 53, 64
4, 20996, Note_on_c, 2, 53, 0
4, 21004, Note_on_c, 2, 53, 64
4, 21056, Note_on_c, 2, 53, 0
4, 21064, Note_on_c, 2, 51, 64
4, 21116, Note_on_c, 2, 51, 0
4, 21124, Note_on_c, 2, 51, 64
4, 21176, Note_on_c, 2, 51, 0
4, 21184, Note_on_c, 2, 50, 64
4, 21236, Note_on_c, 2, 50, 0
4, 21244, Note_on_c, 2, 50, 64
4, 21349, Note_on_c, 2, 50, 0
4, 21364, Note_on_c, 2, 55, 64
4, 21469, Note_on_c, 2, 55, 0
4, 21484, Note_on_c, 2, 43, 64
4, 21589, Note_on_c, 2, 43, 0
4, 21604, Note_on_c, 2, 48, 64
4, 21656, Note_on_c, 2, 48, 0
4, 21664, Note_on_c, 2, 46, 64
4, 21716, Note_on_c, 2, 46, 0
4, 21724, Note_on_c, 2, 46, 64
4, 21776, Note_on_c, 2, 46, 0
4, 21784, Note_on_c, 2, 44, 64
4, 21836, Note_on_c, 2, 44, 0
4, 21844, Note_on_c, 2, 44, 64
4, 21896, Note_on_c, 2, 44, 0
4, 21904, Note_on_c, 2, 43, 64
4, 21956, Note_on_c, 2, 43, 0
4, 21964, Note_on_c, 2, 43, 64
4, 22069, Note_on_c, 2, 43, 0
4, 22084, Note_on_c, 2, 47, 64
4, 22189, Note_on_c, 2, 47, 0
4, 22204, Note_on_c, 2, 43, 64
4, 22309, Note_on_c, 2, 43, 0
4, 22324, Note_on_c, 2, 48, 64
4, 22736, Note_on_c, 2, 48, 0
4, 22744, Note_on_c, 2, 50, 64
4, 22796, Note_on_c, 2, 50, 0
4, 22804, Note_on_c, 2, 51, 64
4, 23029, Note_on_c, 2, 51, 0
4, 23044, Note_on_c, 2, 53, 64
4, 23389, Note_on_c, 2, 53, 0
4, 23404, Note_on_c, 2, 55, 64
4, 23749, Note_on_c, 2, 55, 0
4, 23764, Note_on_c, 2, 48, 64
4, 23869, Note_on_c, 2, 48, 0
4, 23884, Note_on_c, 2, 51, 64
4, 23989, Note_on_c, 2, 51, 0
4, 24004, Note_on_c, 2, 48, 64
4, 24109, Note_on_c, 2, 48, 0
4, 24124, Note_on_c, 2, 53, 64
4, 24229, Note_on_c, 2, 53, 0
4, 24244, Note_on_c, 2, 57, 64
4, 24349, Note_on_c, 2, 57, 0
4, 24364, Note_on_c, 2, 53, 64
4, 24469, Note_on_c, 2, 53, 0
4, 24484, Note_on_c, 2, 46, 64
4, 24536, Note_on_c, 2, 46, 0
4, 24544, Note_on_c, 2, 60, 64
4, 24596, Note_on_c, 2, 60, 0
4, 24604, Note_on_c, 2, 58, 64
4, 24656, Note_on_c, 2, 58, 0
4, 24664, Note_on_c, 2, 57, 64
4, 24716, Note_on_c, 2, 57, 0
4, 24724, Note_on_c, 2, 58, 64
4, 24776, Note_on_c, 2, 58, 0
4, 24784, Note_on_c, 2, 55, 64
4, 24836, Note_on_c, 2, 55, 0
4, 24844, Note_on_c, 2, 52, 64
4, 24896, Note_on_c, 2, 52, 0
4, 24904, Note_on_c, 2, 57, 64
4, 24956, Note_on_c, 2, 57, 0
4, 24964, Note_on_c, 2, 57, 64
4, 25016, Note_on_c, 2, 57, 0
4, 25024, Note_on_c, 2, 55, 64
4, 25076, Note_on_c, 2, 55, 0
4, 25084, Note_on_c, 2, 55, 64
4, 25136, Note_on_c, 2, 55, 0
4, 25144, Note_on_c, 2, 54, 64
4, 25196, Note_on_c, 2, 54, 0
4, 25204, Note_on_c, 2, 54, 64
4, 25256, Note_on_c, 2, 54, 0
4, 25264, Note_on_c, 2, 57, 64
4, 25316, Note_on_c, 2, 57, 0
4, 25324, Note_on_c, 2, 55, 64
4, 25376, Note_on_c, 2, 55, 0
4, 25384, Note_on_c, 2, 54, 64
4, 25436, Note_on_c, 2, 54, 0
4, 25444, Note_on_c, 2, 55, 64
4, 25496, Note_on_c, 2, 55, 0
4, 25504, Note_on_c, 2, 51, 64
4, 25556, Note_on_c, 2, 51, 0
4, 25564, Note_on_c, 2, 48, 64
4, 25616, Note_on_c, 2, 48, 0
4, 25624, Note_on_c, 2, 53, 64
4, 25676, Note_on_c, 2, 53, 0
4, 25684, Note_on_c, 2, 53, 64
4, 25736, Note_on_c, 2, 53, 0
4, 25744, Note_on_c, 2, 51, 64
4, 25796, Note_on_c, 2, 51, 0
4, 25804, Note_on_c, 2, 51, 64
4, 25856, Note_on_c, 2, 51, 0
4, 25864, Note_on_c, 2, 50, 64
4, 25916, Note_on_c, 2, 50, 0
4, 25924, Note_on_c, 2, 50, 64
4, 25976, Note_on_c, 2, 50, 0
4, 25984, Note_on_c, 2, 53, 64
4, 26036, Note_on_c, 2, 53, 0
4, 26044, Note_on_c, 2, 51, 64
4, 26096, Note_on_c, 2, 51, 0
4, 26104, Note_on_c, 2, 50, 64
4, 26156, Note_on_c, 2, 50, 0
4, 26164, Note_on_c, 2, 51, 64
4, 26216, Note_on_c, 2, 51, 0
4, 26224, Note_on_c, 2, 48, 64
4, 26276, Note_on_c, 2, 48, 0
4, 26284, Note_on_c, 2, 45, 64
4, 26336, Note_on_c, 2, 45, 0
4, 26344, Note_on_c, 2, 50, 64
4, 26396, Note_on_c, 2, 50, 0
4, 26404, Note_on_c, 2, 50, 64
4, 26456, Note_on_c, 2, 50, 0
4, 26464, Note_on_c, 2, 48, 64
4, 26516, Note_on_c, 2, 48, 0
4, 26524, Note_on_c, 2, 48, 64
4, 26576, Note_on_c, 2, 48, 0
4, 26584, Note_on_c, 2, 46, 64
4, 26636, Note_on_c, 2, 46, 0
4, 26644, Note_on_c, 2, 46, 64
4, 26696, Note_on_c, 2, 46, 0
4, 26704, Note_on_c, 2, 48, 64
4, 26756, Note_on_c, 2, 48, 0
4, 26764, Note_on_c, 2, 48, 64
4, 26816, Note_on_c, 2, 48, 0
4, 26824, Note_on_c, 2, 46, 64
4, 26876, Note_on_c, 2, 46, 0
4, 26884, Note_on_c, 2, 46, 64
4, 26936, Note_on_c, 2, 46, 0
4, 26944, Note_on_c, 2, 45, 64
4, 26996, Note_on_c, 2, 45, 0
4, 27004, Note_on_c, 2, 45, 64
4, 27349, Note_on_c, 2, 45, 0
4, 27364, Note_on_c, 2, 46, 64
4, 27469, Note_on_c, 2, 46, 0
4, 27484, Note_on_c, 2, 43, 64
4, 27589, Note_on_c, 2, 43, 0
4, 27604, Note_on_c, 2, 48, 64
4, 27709, Note_on_c, 2, 48, 0
4, 27724, Note_on_c, 2, 41, 64
4, 27889, Note_on_c, 2, 41, 0
4, 27904, Note_on_c, 2, 43, 64
4, 27956, Note_on_c, 2, 43, 0
4, 27964, Note_on_c, 2, 45, 64
4, 28016, Note_on_c, 2, 45, 0
4, 28024, Note_on_c, 2, 46, 64
4, 28076, Note_on_c, 2, 46, 0
4, 28084, Note_on_c, 2, 48, 64
4, 28136, Note_on_c, 2, 48, 0
4, 28144, Note_on_c, 2, 50, 64
4, 28196, Note_on_c, 2, 50, 0
4, 28204, Note_on_c, 2, 51, 64
4, 28256, Note_on_c, 2, 51, 0
4, 28264, Note_on_c, 2, 50, 64
4, 28316, Note_on_c, 2, 50, 0
4, 28324, Note_on_c, 2, 51, 64
4, 28376, Note_on_c, 2, 51, 0
4, 28384, Note_on_c, 2, 48, 64
4, 28436, Note_on_c, 2, 48, 0
4, 28444, Note_on_c, 2, 50, 64
4, 28789, Note_on_c, 2, 50, 0
4, 28804, Note_on_c, 2, 51, 64
4, 29149, Note_on_c, 2, 51, 0
4, 29164, Note_on_c, 2, 53, 64
4, 29509, Note_on_c, 2, 53, 0
4, 29524, Note_on_c, 2, 46, 64
4, 29869, Note_on_c, 2, 46, 0
4, 29884, Note_on_c, 2, 48, 64
4, 30229, Note_on_c, 2, 48, 0
4, 30244, Note_on_c, 2, 50, 64
4, 30589, Note_on_c, 2, 50, 0
4, 30604, Note_on_c, 2, 43, 64
4, 30656, Note_on_c, 2, 43, 0
4, 30664, Note_on_c, 2, 57, 64
4, 30716, Note_on_c, 2, 57, 0
4, 30724, Note_on_c, 2, 55, 64
4, 30776, Note_on_c, 2, 55, 0
4, 30784, Note_on_c, 2, 54, 64
4, 30836, Note_on_c, 2, 54, 0
4, 30844, Note_on_c, 2, 55, 64
4, 30896, Note_on_c, 2, 55, 0
4, 30904, Note_on_c, 2, 51, 64
4, 30956, Note_on_c, 2, 51, 0
4, 30964, Note_on_c, 2, 48, 64
4, 31016, Note_on_c, 2, 48, 0
4, 31024, Note_on_c, 2, 50, 64
4, 31076, Note_on_c, 2, 50, 0
4, 31084, Note_on_c, 2, 48, 64
4, 31136, Note_on_c, 2, 48, 0
4, 31144, Note_on_c, 2, 46, 64
4, 31196, Note_on_c, 2, 46, 0
4, 31204, Note_on_c, 2, 48, 64
4, 31256, Note_on_c, 2, 48, 0
4, 31264, Note_on_c, 2, 45, 64
4, 31316, Note_on_c, 2, 45, 0
4, 31324, Note_on_c, 2, 41, 64
4, 31376, Note_on_c, 2, 41, 0
4, 31384, Note_on_c, 2, 55, 64
4, 31436, Note_on_c, 2, 55, 0
4, 31444, Note_on_c, 2, 53, 64
4, 31496, Note_on_c, 2, 53, 0
4, 31504, Note_on_c, 2, 51, 64
4, 31556, Note_on_c, 2, 51, 0
4, 31564, Note_on_c, 2, 53, 64
4, 31616, Note_on_c, 2, 53, 0
4, 31624, Note_on_c, 2, 50, 64
4, 31676, Note_on_c, 2, 50, 0
4, 31684, Note_on_c, 2, 46, 64
4, 31736, Note_on_c, 2, 46, 0
4, 31744, Note_on_c, 2, 48, 64
4, 31796, Note_on_c, 2, 48, 0
4, 31804, Note_on_c, 2, 46, 64
4, 31856, Note_on_c, 2, 46, 0
4, 31864, Note_on_c, 2, 45, 64
4, 31916, Note_on_c, 2, 45, 0
4, 31924, Note_on_c, 2, 46, 64
4, 31976, Note_on_c, 2, 46, 0
4, 31984, Note_on_c, 2, 43, 64
4, 32036, Note_on_c, 2, 43, 0
4, 32044, Note_on_c, 2, 40, 64
4, 32149, Note_on_c, 2, 40, 0
4, 32164, Note_on_c, 2, 40, 64
4, 32269, Note_on_c, 2, 40, 0
4, 32284, Note_on_c, 2, 40, 64
4, 32389, Note_on_c, 2, 40, 0
4, 32404, Note_on_c, 2, 39, 64
4, 32509, Note_on_c, 2, 39, 0
4, 32524, Note_on_c, 2, 39, 64
4, 32629, Note_on_c, 2, 39, 0
4, 32644, Note_on_c, 2, 39, 64
4, 32749, Note_on_c, 2, 39, 0
4, 32764, Note_on_c, 2, 38, 64
4, 32869, Note_on_c, 2, 38, 0
4, 32884, Note_on_c, 2, 39, 64
4, 32989, Note_on_c, 2, 39, 0
4, 33004, Note_on_c, 2, 41, 64
4, 33109, Note_on_c, 2, 41, 0
4, 33124, Note_on_c, 2, 46, 64
4, 33469, Note_on_c, 2, 46, 0
4, 33469, End_track
0, 0, End_of_file
