0, 0, Header, 1, 4, 120
1, 0, Start_track
1, 0, Time_signature, 12, 4, 6, 8
1, 0, Key_signature, -2, "major"
1, 0, Tempo, 779221
1, 0, Marker_t, "(c) Yo Tomita, 1997"
1, 62520, Tempo, 790514
1, 62554, Tempo, 803213
1, 62578, Tempo, 817439
1, 62612, Tempo, 836820
1, 62638, Tempo, 858369
1, 62668, Tempo, 874636
1, 62704, Tempo, 891530
1, 62732, Tempo, 910470
1, 62732, End_track
2, 0, Start_track
2, 0, MIDI_port, 0
2, 0, Title_t, "BWV 890/1"
2, 0, Program_c, 0, 6
2, 34, Note_on_c, 0, 82, 64
2, 60, Note_on_c, 0, 82, 0
2, 64, Note_on_c, 0, 81, 64
2, 90, Note_on_c, 0, 81, 0
2, 94, Note_on_c, 0, 79, 64
2, 120, Note_on_c, 0, 79, 0
2, 124, Note_on_c, 0, 77, 64
2, 150, Note_on_c, 0, 77, 0
2, 154, Note_on_c, 0, 75, 64
2, 180, Note_on_c, 0, 75, 0
2, 184, Note_on_c, 0, 74, 64
2, 262, Note_on_c, 0, 74, 0
2, 274, Note_on_c, 0, 75, 64
2, 352, Note_on_c, 0, 75, 0
2, 364, Note_on_c, 0, 77, 64
2, 416, Note_on_c, 0, 77, 0
2, 424, Note_on_c, 0, 74, 64
2, 450, Note_on_c, 0, 74, 0
2, 454, Note_on_c, 0, 75, 64
2, 506, Note_on_c, 0, 75, 0
2, 514, Note_on_c, 0, 79, 64
2, 540, Note_on_c, 0, 79, 0
2, 544, Note_on_c, 0, 79, 64
2, 570, Note_on_c, 0, 79, 0
2, 574, Note_on_c, 0, 77, 64
2, 600, Note_on_c, 0, 77, 0
2, 604, Note_on_c, 0, 79, 64
2, 630, Note_on_c, 0, 79, 0
2, 634, Note_on_c, 0, 77, 64
2, 776, Note_on_c, 0, 77, 0
2, 784, Note_on_c, 0, 70, 64
2, 810, Note_on_c, 0, 70, 0
2, 814, Note_on_c, 0, 69, 64
2, 866, Note_on_c, 0, 69, 0
2, 874, Note_on_c, 0, 75, 64
2, 900, Note_on_c, 0, 75, 0
2, 904, Note_on_c, 0, 74, 64
2, 982, Note_on_c, 0, 74, 0
2, 994, Note_on_c, 0, 72, 64
2, 1072, Note_on_c, 0, 72, 0
2, 1084, Note_on_c, 0, 70, 64
2, 1110, Note_on_c, 0, 70, 0
2, 1114, Note_on_c, 0, 72, 64
2, 1140, Note_on_c, 0, 72, 0
2, 1144, Note_on_c, 0, 74, 64
2, 1170, Note_on_c, 0, 74, 0
2, 1174, Note_on_c, 0, 75, 64
2, 1200, Note_on_c, 0, 75, 0
2, 1204, Note_on_c, 0, 77, 64
2, 1230, Note_on_c, 0, 77, 0
2, 1234, Note_on_c, 0, 79, 64
2, 1260, Note_on_c, 0, 79, 0
2, 1264, Note_on_c, 0, 72, 64
2, 1470, Note_on_c, 0, 72, 0
2, 1474, Note_on_c, 0, 69, 64
2, 1500, Note_on_c, 0, 69, 0
2, 1504, Note_on_c, 0, 70, 64
2, 1530, Note_on_c, 0, 70, 0
2, 1534, Note_on_c, 0, 72, 64
2, 1560, Note_on_c, 0, 72, 0
2, 1564, Note_on_c, 0, 74, 64
2, 1590, Note_on_c, 0, 74, 0
2, 1594, Note_on_c, 0, 75, 64
2, 1620, Note_on_c, 0, 75, 0
2, 1624, Note_on_c, 0, 77, 64
2, 1702, Note_on_c, 0, 77, 0
2, 1714, Note_on_c, 0, 75, 64
2, 1792, Note_on_c, 0, 75, 0
2, 1804, Note_on_c, 0, 74, 64
2, 1946, Note_on_c, 0, 74, 0
2, 1954, Note_on_c, 0, 72, 64
2, 1980, Note_on_c, 0, 72, 0
2, 1984, Note_on_c, 0, 70, 64
2, 2190, Note_on_c, 0, 70, 0
2, 2194, Note_on_c, 0, 72, 64
2, 2220, Note_on_c, 0, 72, 0
2, 2224, Note_on_c, 0, 67, 64
2, 2250, Note_on_c, 0, 67, 0
2, 2254, Note_on_c, 0, 69, 64
2, 2422, Note_on_c, 0, 69, 0
2, 2434, Note_on_c, 0, 70, 64
2, 2507, Note_on_c, 0, 70, 0
2, 2509, Note_on_c, 0, 69, 64
2, 2515, Note_on_c, 0, 69, 0
2, 2516, Note_on_c, 0, 70, 64
2, 2523, Note_on_c, 0, 70, 0
2, 2524, Note_on_c, 0, 72, 64
2, 2550, Note_on_c, 0, 72, 0
2, 2554, Note_on_c, 0, 77, 64
2, 2580, Note_on_c, 0, 77, 0
2, 2584, Note_on_c, 0, 76, 64
2, 2610, Note_on_c, 0, 76, 0
2, 2614, Note_on_c, 0, 74, 64
2, 2640, Note_on_c, 0, 74, 0
2, 2644, Note_on_c, 0, 72, 64
2, 2670, Note_on_c, 0, 72, 0
2, 2674, Note_on_c, 0, 70, 64
2, 2700, Note_on_c, 0, 70, 0
2, 2704, Note_on_c, 0, 69, 64
2, 2730, Note_on_c, 0, 69, 0
2, 2734, Note_on_c, 0, 67, 64
2, 2760, Note_on_c, 0, 67, 0
2, 2764, Note_on_c, 0, 69, 64
2, 2790, Note_on_c, 0, 69, 0
2, 2794, Note_on_c, 0, 67, 64
2, 2872, Note_on_c, 0, 67, 0
2, 2884, Note_on_c, 0, 60, 64
2, 2910, Note_on_c, 0, 60, 0
2, 2914, Note_on_c, 0, 64, 64
2, 2940, Note_on_c, 0, 64, 0
2, 2944, Note_on_c, 0, 67, 64
2, 2970, Note_on_c, 0, 67, 0
2, 2974, Note_on_c, 0, 70, 64
2, 3000, Note_on_c, 0, 70, 0
2, 3004, Note_on_c, 0, 69, 64
2, 3030, Note_on_c, 0, 69, 0
2, 3034, Note_on_c, 0, 70, 64
2, 3060, Note_on_c, 0, 70, 0
2, 3064, Note_on_c, 0, 60, 64
2, 3090, Note_on_c, 0, 60, 0
2, 3094, Note_on_c, 0, 64, 64
2, 3120, Note_on_c, 0, 64, 0
2, 3124, Note_on_c, 0, 65, 64
2, 3150, Note_on_c, 0, 65, 0
2, 3154, Note_on_c, 0, 69, 64
2, 3180, Note_on_c, 0, 69, 0
2, 3184, Note_on_c, 0, 67, 64
2, 3210, Note_on_c, 0, 67, 0
2, 3214, Note_on_c, 0, 69, 64
2, 3240, Note_on_c, 0, 69, 0
2, 3244, Note_on_c, 0, 58, 64
2, 3270, Note_on_c, 0, 58, 0
2, 3274, Note_on_c, 0, 62, 64
2, 3300, Note_on_c, 0, 62, 0
2, 3304, Note_on_c, 0, 64, 64
2, 3330, Note_on_c, 0, 64, 0
2, 3334, Note_on_c, 0, 67, 64
2, 3360, Note_on_c, 0, 67, 0
2, 3364, Note_on_c, 0, 65, 64
2, 3390, Note_on_c, 0, 65, 0
2, 3394, Note_on_c, 0, 67, 64
2, 3420, Note_on_c, 0, 67, 0
2, 3424, Note_on_c, 0, 58, 64
2, 3450, Note_on_c, 0, 58, 0
2, 3454, Note_on_c, 0, 57, 64
2, 3480, Note_on_c, 0, 57, 0
2, 3484, Note_on_c, 0, 60, 64
2, 3510, Note_on_c, 0, 60, 0
2, 3514, Note_on_c, 0, 65, 64
2, 3540, Note_on_c, 0, 65, 0
2, 3544, Note_on_c, 0, 69, 64
2, 3570, Note_on_c, 0, 69, 0
2, 3574, Note_on_c, 0, 72, 64
2, 3600, Note_on_c, 0, 72, 0
2, 3604, Note_on_c, 0, 75, 64
2, 3630, Note_on_c, 0, 75, 0
2, 3634, Note_on_c, 0, 74, 64
2, 3660, Note_on_c, 0, 74, 0
2, 3664, Note_on_c, 0, 75, 64
2, 3690, Note_on_c, 0, 75, 0
2, 3694, Note_on_c, 0, 65, 64
2, 3720, Note_on_c, 0, 65, 0
2, 3724, Note_on_c, 0, 69, 64
2, 3750, Note_on_c, 0, 69, 0
2, 3754, Note_on_c, 0, 72, 64
2, 3780, Note_on_c, 0, 72, 0
2, 3784, Note_on_c, 0, 74, 64
2, 3810, Note_on_c, 0, 74, 0
2, 3814, Note_on_c, 0, 72, 64
2, 3840, Note_on_c, 0, 72, 0
2, 3844, Note_on_c, 0, 74, 64
2, 3870, Note_on_c, 0, 74, 0
2, 3874, Note_on_c, 0, 65, 64
2, 3900, Note_on_c, 0, 65, 0
2, 3904, Note_on_c, 0, 69, 64
2, 3930, Note_on_c, 0, 69, 0
2, 3934, Note_on_c, 0, 70, 64
2, 3960, Note_on_c, 0, 70, 0
2, 3964, Note_on_c, 0, 72, 64
2, 3990, Note_on_c, 0, 72, 0
2, 3994, Note_on_c, 0, 70, 64
2, 4020, Note_on_c, 0, 70, 0
2, 4024, Note_on_c, 0, 72, 64
2, 4050, Note_on_c, 0, 72, 0
2, 4054, Note_on_c, 0, 63, 64
2, 4080, Note_on_c, 0, 63, 0
2, 4084, Note_on_c, 0, 67, 64
2, 4110, Note_on_c, 0, 67, 0
2, 4114, Note_on_c, 0, 69, 64
2, 4140, Note_on_c, 0, 69, 0
2, 4144, Note_on_c, 0, 69, 64
2, 4170, Note_on_c, 0, 69, 0
2, 4174, Note_on_c, 0, 70, 64
2, 4200, Note_on_c, 0, 70, 0
2, 4204, Note_on_c, 0, 65, 64
2, 4230, Note_on_c, 0, 65, 0
2, 4234, Note_on_c, 0, 62, 64
2, 4350, Note_on_c, 0, 62, 0
2, 4354, Note_on_c, 0, 60, 64
2, 4380, Note_on_c, 0, 60, 0
2, 4384, Note_on_c, 0, 62, 64
2, 4410, Note_on_c, 0, 62, 0
2, 4414, Note_on_c, 0, 57, 64
2, 4440, Note_on_c, 0, 57, 0
2, 4444, Note_on_c, 0, 62, 64
2, 4470, Note_on_c, 0, 62, 0
2, 4474, Note_on_c, 0, 58, 64
2, 4500, Note_on_c, 0, 58, 0
2, 4504, Note_on_c, 0, 55, 64
2, 4530, Note_on_c, 0, 55, 0
2, 4534, Note_on_c, 0, 62, 64
2, 4560, Note_on_c, 0, 62, 0
2, 4564, Note_on_c, 0, 58, 64
2, 4590, Note_on_c, 0, 58, 0
2, 4594, Note_on_c, 0, 55, 64
2, 4620, Note_on_c, 0, 55, 0
2, 4624, Note_on_c, 0, 62, 64
2, 4650, Note_on_c, 0, 62, 0
2, 4654, Note_on_c, 0, 70, 64
2, 4680, Note_on_c, 0, 70, 0
2, 4684, Note_on_c, 0, 60, 64
2, 4710, Note_on_c, 0, 60, 0
2, 4714, Note_on_c, 0, 58, 64
2, 4740, Note_on_c, 0, 58, 0
2, 4744, Note_on_c, 0, 60, 64
2, 4770, Note_on_c, 0, 60, 0
2, 4774, Note_on_c, 0, 55, 64
2, 4800, Note_on_c, 0, 55, 0
2, 4804, Note_on_c, 0, 60, 64
2, 4830, Note_on_c, 0, 60, 0
2, 4834, Note_on_c, 0, 57, 64
2, 4860, Note_on_c, 0, 57, 0
2, 4864, Note_on_c, 0, 54, 64
2, 4890, Note_on_c, 0, 54, 0
2, 4894, Note_on_c, 0, 60, 64
2, 4920, Note_on_c, 0, 60, 0
2, 4924, Note_on_c, 0, 57, 64
2, 4950, Note_on_c, 0, 57, 0
2, 4954, Note_on_c, 0, 54, 64
2, 4980, Note_on_c, 0, 54, 0
2, 4984, Note_on_c, 0, 60, 64
2, 5010, Note_on_c, 0, 60, 0
2, 5014, Note_on_c, 0, 69, 64
2, 5040, Note_on_c, 0, 69, 0
2, 5044, Note_on_c, 0, 58, 64
2, 5070, Note_on_c, 0, 58, 0
2, 5074, Note_on_c, 0, 57, 64
2, 5100, Note_on_c, 0, 57, 0
2, 5104, Note_on_c, 0, 58, 64
2, 5130, Note_on_c, 0, 58, 0
2, 5134, Note_on_c, 0, 62, 64
2, 5212, Note_on_c, 0, 62, 0
2, 5224, Note_on_c, 0, 67, 64
2, 5302, Note_on_c, 0, 67, 0
2, 5314, Note_on_c, 0, 48, 64
2, 5392, Note_on_c, 0, 48, 0
2, 5404, Note_on_c, 0, 41, 64
2, 5482, Note_on_c, 0, 41, 0
2, 5494, Note_on_c, 0, 60, 64
2, 5572, Note_on_c, 0, 60, 0
2, 5584, Note_on_c, 0, 65, 64
2, 5662, Note_on_c, 0, 65, 0
2, 5674, Note_on_c, 0, 46, 64
2, 5752, Note_on_c, 0, 46, 0
2, 5764, Note_on_c, 0, 39, 64
2, 5842, Note_on_c, 0, 39, 0
2, 5854, Note_on_c, 0, 63, 64
2, 5970, Note_on_c, 0, 63, 0
2, 5974, Note_on_c, 0, 72, 64
2, 6000, Note_on_c, 0, 72, 0
2, 6004, Note_on_c, 0, 70, 64
2, 6030, Note_on_c, 0, 70, 0
2, 6034, Note_on_c, 0, 69, 64
2, 6060, Note_on_c, 0, 69, 0
2, 6064, Note_on_c, 0, 67, 64
2, 6090, Note_on_c, 0, 67, 0
2, 6094, Note_on_c, 0, 65, 64
2, 6120, Note_on_c, 0, 65, 0
2, 6124, Note_on_c, 0, 63, 64
2, 6176, Note_on_c, 0, 63, 0
2, 6184, Note_on_c, 0, 62, 64
2, 6210, Note_on_c, 0, 62, 0
2, 6214, Note_on_c, 0, 70, 64
2, 6330, Note_on_c, 0, 70, 0
2, 6334, Note_on_c, 0, 74, 64
2, 6360, Note_on_c, 0, 74, 0
2, 6364, Note_on_c, 0, 72, 64
2, 6390, Note_on_c, 0, 72, 0
2, 6394, Note_on_c, 0, 70, 64
2, 6420, Note_on_c, 0, 70, 0
2, 6424, Note_on_c, 0, 69, 64
2, 6450, Note_on_c, 0, 69, 0
2, 6454, Note_on_c, 0, 67, 64
2, 6480, Note_on_c, 0, 67, 0
2, 6484, Note_on_c, 0, 65, 64
2, 6510, Note_on_c, 0, 65, 0
2, 6514, Note_on_c, 0, 67, 64
2, 6540, Note_on_c, 0, 67, 0
2, 6544, Note_on_c, 0, 69, 64
2, 6570, Note_on_c, 0, 69, 0
2, 6574, Note_on_c, 0, 70, 64
2, 6600, Note_on_c, 0, 70, 0
2, 6604, Note_on_c, 0, 72, 64
2, 6630, Note_on_c, 0, 72, 0
2, 6634, Note_on_c, 0, 74, 64
2, 6742, Note_on_c, 0, 74, 0
2, 6754, Note_on_c, 0, 72, 64
2, 6806, Note_on_c, 0, 72, 0
2, 6814, Note_on_c, 0, 70, 64
2, 6840, Note_on_c, 0, 70, 0
2, 6844, Note_on_c, 0, 69, 64
2, 6870, Note_on_c, 0, 69, 0
2, 6874, Note_on_c, 0, 70, 64
2, 6900, Note_on_c, 0, 70, 0
2, 6904, Note_on_c, 0, 72, 64
2, 6930, Note_on_c, 0, 72, 0
2, 6934, Note_on_c, 0, 74, 64
2, 6960, Note_on_c, 0, 74, 0
2, 6964, Note_on_c, 0, 76, 64
2, 6990, Note_on_c, 0, 76, 0
2, 6994, Note_on_c, 0, 77, 64
2, 7102, Note_on_c, 0, 77, 0
2, 7114, Note_on_c, 0, 76, 64
2, 7166, Note_on_c, 0, 76, 0
2, 7174, Note_on_c, 0, 74, 64
2, 7200, Note_on_c, 0, 74, 0
2, 7204, Note_on_c, 0, 72, 64
2, 7230, Note_on_c, 0, 72, 0
2, 7234, Note_on_c, 0, 77, 64
2, 7260, Note_on_c, 0, 77, 0
2, 7264, Note_on_c, 0, 76, 64
2, 7290, Note_on_c, 0, 76, 0
2, 7294, Note_on_c, 0, 74, 64
2, 7320, Note_on_c, 0, 74, 0
2, 7324, Note_on_c, 0, 72, 64
2, 7350, Note_on_c, 0, 72, 0
2, 7354, Note_on_c, 0, 70, 64
2, 7380, Note_on_c, 0, 70, 0
2, 7384, Note_on_c, 0, 69, 64
2, 7410, Note_on_c, 0, 69, 0
2, 7414, Note_on_c, 0, 67, 64
2, 7440, Note_on_c, 0, 67, 0
2, 7444, Note_on_c, 0, 69, 64
2, 7470, Note_on_c, 0, 69, 0
2, 7474, Note_on_c, 0, 70, 64
2, 7500, Note_on_c, 0, 70, 0
2, 7504, Note_on_c, 0, 69, 64
2, 7530, Note_on_c, 0, 69, 0
2, 7534, Note_on_c, 0, 67, 64
2, 7560, Note_on_c, 0, 67, 0
2, 7564, Note_on_c, 0, 65, 64
2, 7590, Note_on_c, 0, 65, 0
2, 7594, Note_on_c, 0, 67, 64
2, 7620, Note_on_c, 0, 67, 0
2, 7624, Note_on_c, 0, 69, 64
2, 7650, Note_on_c, 0, 69, 0
2, 7654, Note_on_c, 0, 70, 64
2, 7680, Note_on_c, 0, 70, 0
2, 7684, Note_on_c, 0, 72, 64
2, 7710, Note_on_c, 0, 72, 0
2, 7714, Note_on_c, 0, 74, 64
2, 7740, Note_on_c, 0, 74, 0
2, 7744, Note_on_c, 0, 74, 64
2, 7796, Note_on_c, 0, 74, 0
2, 7804, Note_on_c, 0, 67, 64
2, 7830, Note_on_c, 0, 67, 0
2, 7834, Note_on_c, 0, 69, 64
2, 7860, Note_on_c, 0, 69, 0
2, 7864, Note_on_c, 0, 70, 64
2, 7890, Note_on_c, 0, 70, 0
2, 7894, Note_on_c, 0, 72, 64
2, 7920, Note_on_c, 0, 72, 0
2, 7924, Note_on_c, 0, 72, 64
2, 7976, Note_on_c, 0, 72, 0
2, 7984, Note_on_c, 0, 65, 64
2, 8010, Note_on_c, 0, 65, 0
2, 8014, Note_on_c, 0, 67, 64
2, 8040, Note_on_c, 0, 67, 0
2, 8044, Note_on_c, 0, 69, 64
2, 8070, Note_on_c, 0, 69, 0
2, 8074, Note_on_c, 0, 70, 64
2, 8100, Note_on_c, 0, 70, 0
2, 8104, Note_on_c, 0, 70, 64
2, 8156, Note_on_c, 0, 70, 0
2, 8314, Note_on_c, 0, 65, 64
2, 8340, Note_on_c, 0, 65, 0
2, 8344, Note_on_c, 0, 67, 64
2, 8370, Note_on_c, 0, 67, 0
2, 8374, Note_on_c, 0, 69, 64
2, 8400, Note_on_c, 0, 69, 0
2, 8404, Note_on_c, 0, 70, 64
2, 8430, Note_on_c, 0, 70, 0
2, 8434, Note_on_c, 0, 72, 64
2, 8460, Note_on_c, 0, 72, 0
2, 8464, Note_on_c, 0, 74, 64
2, 8490, Note_on_c, 0, 74, 0
2, 8494, Note_on_c, 0, 70, 64
2, 8520, Note_on_c, 0, 70, 0
2, 8524, Note_on_c, 0, 72, 64
2, 8550, Note_on_c, 0, 72, 0
2, 8554, Note_on_c, 0, 74, 64
2, 8580, Note_on_c, 0, 74, 0
2, 8584, Note_on_c, 0, 76, 64
2, 8610, Note_on_c, 0, 76, 0
2, 8614, Note_on_c, 0, 77, 64
2, 8640, Note_on_c, 0, 77, 0
2, 8644, Note_on_c, 0, 79, 64
2, 8876, Note_on_c, 0, 79, 0
2, 8884, Note_on_c, 0, 72, 64
2, 8910, Note_on_c, 0, 72, 0
2, 8914, Note_on_c, 0, 77, 64
2, 8966, Note_on_c, 0, 77, 0
2, 8974, Note_on_c, 0, 75, 64
2, 9000, Note_on_c, 0, 75, 0
2, 9004, Note_on_c, 0, 74, 64
2, 9236, Note_on_c, 0, 74, 0
2, 9244, Note_on_c, 0, 67, 64
2, 9270, Note_on_c, 0, 67, 0
2, 9274, Note_on_c, 0, 72, 64
2, 9326, Note_on_c, 0, 72, 0
2, 9334, Note_on_c, 0, 70, 64
2, 9360, Note_on_c, 0, 70, 0
2, 9364, Note_on_c, 0, 69, 64
2, 9480, Note_on_c, 0, 69, 0
2, 9484, Note_on_c, 0, 71, 64
2, 9510, Note_on_c, 0, 71, 0
2, 9514, Note_on_c, 0, 72, 64
2, 9540, Note_on_c, 0, 72, 0
2, 9544, Note_on_c, 0, 74, 64
2, 9570, Note_on_c, 0, 74, 0
2, 9574, Note_on_c, 0, 65, 64
2, 9600, Note_on_c, 0, 65, 0
2, 9604, Note_on_c, 0, 67, 64
2, 9630, Note_on_c, 0, 67, 0
2, 9634, Note_on_c, 0, 68, 64
2, 9660, Note_on_c, 0, 68, 0
2, 9664, Note_on_c, 0, 67, 64
2, 9690, Note_on_c, 0, 67, 0
2, 9694, Note_on_c, 0, 65, 64
2, 9720, Note_on_c, 0, 65, 0
2, 9724, Note_on_c, 0, 64, 64
2, 9750, Note_on_c, 0, 64, 0
2, 9754, Note_on_c, 0, 60, 64
2, 9780, Note_on_c, 0, 60, 0
2, 9784, Note_on_c, 0, 59, 64
2, 9810, Note_on_c, 0, 59, 0
2, 9814, Note_on_c, 0, 60, 64
2, 9840, Note_on_c, 0, 60, 0
2, 9844, Note_on_c, 0, 62, 64
2, 9870, Note_on_c, 0, 62, 0
2, 9874, Note_on_c, 0, 64, 64
2, 9900, Note_on_c, 0, 64, 0
2, 9904, Note_on_c, 0, 65, 64
2, 9930, Note_on_c, 0, 65, 0
2, 9934, Note_on_c, 0, 60, 64
2, 9960, Note_on_c, 0, 60, 0
2, 9964, Note_on_c, 0, 59, 64
2, 9990, Note_on_c, 0, 59, 0
2, 9994, Note_on_c, 0, 60, 64
2, 10020, Note_on_c, 0, 60, 0
2, 10024, Note_on_c, 0, 64, 64
2, 10050, Note_on_c, 0, 64, 0
2, 10054, Note_on_c, 0, 65, 64
2, 10080, Note_on_c, 0, 65, 0
2, 10084, Note_on_c, 0, 67, 64
2, 10110, Note_on_c, 0, 67, 0
2, 10114, Note_on_c, 0, 60, 64
2, 10140, Note_on_c, 0, 60, 0
2, 10144, Note_on_c, 0, 59, 64
2, 10170, Note_on_c, 0, 59, 0
2, 10174, Note_on_c, 0, 60, 64
2, 10200, Note_on_c, 0, 60, 0
2, 10204, Note_on_c, 0, 65, 64
2, 10230, Note_on_c, 0, 65, 0
2, 10234, Note_on_c, 0, 67, 64
2, 10260, Note_on_c, 0, 67, 0
2, 10264, Note_on_c, 0, 68, 64
2, 10290, Note_on_c, 0, 68, 0
2, 10294, Note_on_c, 0, 65, 64
2, 10320, Note_on_c, 0, 65, 0
2, 10324, Note_on_c, 0, 67, 64
2, 10350, Note_on_c, 0, 67, 0
2, 10354, Note_on_c, 0, 68, 64
2, 10380, Note_on_c, 0, 68, 0
2, 10384, Note_on_c, 0, 70, 64
2, 10410, Note_on_c, 0, 70, 0
2, 10414, Note_on_c, 0, 72, 64
2, 10440, Note_on_c, 0, 72, 0
2, 10444, Note_on_c, 0, 73, 64
2, 10470, Note_on_c, 0, 73, 0
2, 10474, Note_on_c, 0, 70, 64
2, 10500, Note_on_c, 0, 70, 0
2, 10504, Note_on_c, 0, 72, 64
2, 10530, Note_on_c, 0, 72, 0
2, 10534, Note_on_c, 0, 73, 64
2, 10560, Note_on_c, 0, 73, 0
2, 10564, Note_on_c, 0, 75, 64
2, 10590, Note_on_c, 0, 75, 0
2, 10594, Note_on_c, 0, 77, 64
2, 10620, Note_on_c, 0, 77, 0
2, 10624, Note_on_c, 0, 78, 64
2, 10650, Note_on_c, 0, 78, 0
2, 10654, Note_on_c, 0, 80, 64
2, 10680, Note_on_c, 0, 80, 0
2, 10684, Note_on_c, 0, 82, 64
2, 10710, Note_on_c, 0, 82, 0
2, 10714, Note_on_c, 0, 80, 64
2, 10740, Note_on_c, 0, 80, 0
2, 10744, Note_on_c, 0, 78, 64
2, 10770, Note_on_c, 0, 78, 0
2, 10774, Note_on_c, 0, 77, 64
2, 10800, Note_on_c, 0, 77, 0
2, 10804, Note_on_c, 0, 76, 64
2, 10830, Note_on_c, 0, 76, 0
2, 10834, Note_on_c, 0, 79, 64
2, 10860, Note_on_c, 0, 79, 0
2, 10864, Note_on_c, 0, 70, 64
2, 10890, Note_on_c, 0, 70, 0
2, 10894, Note_on_c, 0, 73, 64
2, 10920, Note_on_c, 0, 73, 0
2, 10924, Note_on_c, 0, 72, 64
2, 10950, Note_on_c, 0, 72, 0
2, 10954, Note_on_c, 0, 70, 64
2, 10980, Note_on_c, 0, 70, 0
2, 10984, Note_on_c, 0, 72, 64
2, 11010, Note_on_c, 0, 72, 0
2, 11014, Note_on_c, 0, 77, 64
2, 11040, Note_on_c, 0, 77, 0
2, 11044, Note_on_c, 0, 69, 64
2, 11070, Note_on_c, 0, 69, 0
2, 11074, Note_on_c, 0, 70, 64
2, 11100, Note_on_c, 0, 70, 0
2, 11104, Note_on_c, 0, 72, 64
2, 11130, Note_on_c, 0, 72, 0
2, 11134, Note_on_c, 0, 74, 64
2, 11160, Note_on_c, 0, 74, 0
2, 11164, Note_on_c, 0, 72, 64
2, 11190, Note_on_c, 0, 72, 0
2, 11194, Note_on_c, 0, 70, 64
2, 11220, Note_on_c, 0, 70, 0
2, 11224, Note_on_c, 0, 69, 64
2, 11250, Note_on_c, 0, 69, 0
2, 11254, Note_on_c, 0, 67, 64
2, 11280, Note_on_c, 0, 67, 0
2, 11284, Note_on_c, 0, 77, 64
2, 11310, Note_on_c, 0, 77, 0
2, 11314, Note_on_c, 0, 76, 64
2, 11340, Note_on_c, 0, 76, 0
2, 11344, Note_on_c, 0, 77, 64
2, 11370, Note_on_c, 0, 77, 0
2, 11374, Note_on_c, 0, 72, 64
2, 11400, Note_on_c, 0, 72, 0
2, 11404, Note_on_c, 0, 69, 64
2, 11430, Note_on_c, 0, 69, 0
2, 11434, Note_on_c, 0, 65, 64
2, 11512, Note_on_c, 0, 65, 0
2, 11554, Note_on_c, 0, 82, 64
2, 11580, Note_on_c, 0, 82, 0
2, 11584, Note_on_c, 0, 81, 64
2, 11610, Note_on_c, 0, 81, 0
2, 11614, Note_on_c, 0, 79, 64
2, 11640, Note_on_c, 0, 79, 0
2, 11644, Note_on_c, 0, 77, 64
2, 11670, Note_on_c, 0, 77, 0
2, 11674, Note_on_c, 0, 75, 64
2, 11700, Note_on_c, 0, 75, 0
2, 11704, Note_on_c, 0, 74, 64
2, 11782, Note_on_c, 0, 74, 0
2, 11794, Note_on_c, 0, 75, 64
2, 11872, Note_on_c, 0, 75, 0
2, 11884, Note_on_c, 0, 77, 64
2, 11936, Note_on_c, 0, 77, 0
2, 11944, Note_on_c, 0, 74, 64
2, 11970, Note_on_c, 0, 74, 0
2, 11974, Note_on_c, 0, 75, 64
2, 12026, Note_on_c, 0, 75, 0
2, 12034, Note_on_c, 0, 79, 64
2, 12060, Note_on_c, 0, 79, 0
2, 12064, Note_on_c, 0, 79, 64
2, 12090, Note_on_c, 0, 79, 0
2, 12094, Note_on_c, 0, 77, 64
2, 12120, Note_on_c, 0, 77, 0
2, 12124, Note_on_c, 0, 79, 64
2, 12150, Note_on_c, 0, 79, 0
2, 12154, Note_on_c, 0, 77, 64
2, 12296, Note_on_c, 0, 77, 0
2, 12304, Note_on_c, 0, 70, 64
2, 12330, Note_on_c, 0, 70, 0
2, 12334, Note_on_c, 0, 69, 64
2, 12386, Note_on_c, 0, 69, 0
2, 12394, Note_on_c, 0, 75, 64
2, 12420, Note_on_c, 0, 75, 0
2, 12424, Note_on_c, 0, 74, 64
2, 12502, Note_on_c, 0, 74, 0
2, 12514, Note_on_c, 0, 72, 64
2, 12592, Note_on_c, 0, 72, 0
2, 12604, Note_on_c, 0, 70, 64
2, 12630, Note_on_c, 0, 70, 0
2, 12634, Note_on_c, 0, 72, 64
2, 12660, Note_on_c, 0, 72, 0
2, 12664, Note_on_c, 0, 74, 64
2, 12690, Note_on_c, 0, 74, 0
2, 12694, Note_on_c, 0, 75, 64
2, 12720, Note_on_c, 0, 75, 0
2, 12724, Note_on_c, 0, 77, 64
2, 12750, Note_on_c, 0, 77, 0
2, 12754, Note_on_c, 0, 79, 64
2, 12780, Note_on_c, 0, 79, 0
2, 12784, Note_on_c, 0, 72, 64
2, 12990, Note_on_c, 0, 72, 0
2, 12994, Note_on_c, 0, 69, 64
2, 13020, Note_on_c, 0, 69, 0
2, 13024, Note_on_c, 0, 70, 64
2, 13050, Note_on_c, 0, 70, 0
2, 13054, Note_on_c, 0, 72, 64
2, 13080, Note_on_c, 0, 72, 0
2, 13084, Note_on_c, 0, 74, 64
2, 13110, Note_on_c, 0, 74, 0
2, 13114, Note_on_c, 0, 75, 64
2, 13140, Note_on_c, 0, 75, 0
2, 13144, Note_on_c, 0, 77, 64
2, 13222, Note_on_c, 0, 77, 0
2, 13234, Note_on_c, 0, 75, 64
2, 13312, Note_on_c, 0, 75, 0
2, 13324, Note_on_c, 0, 74, 64
2, 13466, Note_on_c, 0, 74, 0
2, 13474, Note_on_c, 0, 72, 64
2, 13500, Note_on_c, 0, 72, 0
2, 13504, Note_on_c, 0, 70, 64
2, 13710, Note_on_c, 0, 70, 0
2, 13714, Note_on_c, 0, 72, 64
2, 13740, Note_on_c, 0, 72, 0
2, 13744, Note_on_c, 0, 67, 64
2, 13770, Note_on_c, 0, 67, 0
2, 13774, Note_on_c, 0, 69, 64
2, 13942, Note_on_c, 0, 69, 0
2, 13954, Note_on_c, 0, 70, 64
2, 14027, Note_on_c, 0, 70, 0
2, 14029, Note_on_c, 0, 69, 64
2, 14035, Note_on_c, 0, 69, 0
2, 14036, Note_on_c, 0, 70, 64
2, 14043, Note_on_c, 0, 70, 0
2, 14044, Note_on_c, 0, 72, 64
2, 14070, Note_on_c, 0, 72, 0
2, 14074, Note_on_c, 0, 77, 64
2, 14100, Note_on_c, 0, 77, 0
2, 14104, Note_on_c, 0, 76, 64
2, 14130, Note_on_c, 0, 76, 0
2, 14134, Note_on_c, 0, 74, 64
2, 14160, Note_on_c, 0, 74, 0
2, 14164, Note_on_c, 0, 72, 64
2, 14190, Note_on_c, 0, 72, 0
2, 14194, Note_on_c, 0, 70, 64
2, 14220, Note_on_c, 0, 70, 0
2, 14224, Note_on_c, 0, 69, 64
2, 14250, Note_on_c, 0, 69, 0
2, 14254, Note_on_c, 0, 67, 64
2, 14280, Note_on_c, 0, 67, 0
2, 14284, Note_on_c, 0, 69, 64
2, 14310, Note_on_c, 0, 69, 0
2, 14314, Note_on_c, 0, 67, 64
2, 14392, Note_on_c, 0, 67, 0
2, 14404, Note_on_c, 0, 60, 64
2, 14430, Note_on_c, 0, 60, 0
2, 14434, Note_on_c, 0, 64, 64
2, 14460, Note_on_c, 0, 64, 0
2, 14464, Note_on_c, 0, 67, 64
2, 14490, Note_on_c, 0, 67, 0
2, 14494, Note_on_c, 0, 70, 64
2, 14520, Note_on_c, 0, 70, 0
2, 14524, Note_on_c, 0, 69, 64
2, 14550, Note_on_c, 0, 69, 0
2, 14554, Note_on_c, 0, 70, 64
2, 14580, Note_on_c, 0, 70, 0
2, 14584, Note_on_c, 0, 60, 64
2, 14610, Note_on_c, 0, 60, 0
2, 14614, Note_on_c, 0, 64, 64
2, 14640, Note_on_c, 0, 64, 0
2, 14644, Note_on_c, 0, 65, 64
2, 14670, Note_on_c, 0, 65, 0
2, 14674, Note_on_c, 0, 69, 64
2, 14700, Note_on_c, 0, 69, 0
2, 14704, Note_on_c, 0, 67, 64
2, 14730, Note_on_c, 0, 67, 0
2, 14734, Note_on_c, 0, 69, 64
2, 14760, Note_on_c, 0, 69, 0
2, 14764, Note_on_c, 0, 58, 64
2, 14790, Note_on_c, 0, 58, 0
2, 14794, Note_on_c, 0, 62, 64
2, 14820, Note_on_c, 0, 62, 0
2, 14824, Note_on_c, 0, 64, 64
2, 14850, Note_on_c, 0, 64, 0
2, 14854, Note_on_c, 0, 67, 64
2, 14880, Note_on_c, 0, 67, 0
2, 14884, Note_on_c, 0, 65, 64
2, 14910, Note_on_c, 0, 65, 0
2, 14914, Note_on_c, 0, 67, 64
2, 14940, Note_on_c, 0, 67, 0
2, 14944, Note_on_c, 0, 58, 64
2, 14970, Note_on_c, 0, 58, 0
2, 14974, Note_on_c, 0, 57, 64
2, 15000, Note_on_c, 0, 57, 0
2, 15004, Note_on_c, 0, 60, 64
2, 15030, Note_on_c, 0, 60, 0
2, 15034, Note_on_c, 0, 65, 64
2, 15060, Note_on_c, 0, 65, 0
2, 15064, Note_on_c, 0, 69, 64
2, 15090, Note_on_c, 0, 69, 0
2, 15094, Note_on_c, 0, 72, 64
2, 15120, Note_on_c, 0, 72, 0
2, 15124, Note_on_c, 0, 75, 64
2, 15150, Note_on_c, 0, 75, 0
2, 15154, Note_on_c, 0, 74, 64
2, 15180, Note_on_c, 0, 74, 0
2, 15184, Note_on_c, 0, 75, 64
2, 15210, Note_on_c, 0, 75, 0
2, 15214, Note_on_c, 0, 65, 64
2, 15240, Note_on_c, 0, 65, 0
2, 15244, Note_on_c, 0, 69, 64
2, 15270, Note_on_c, 0, 69, 0
2, 15274, Note_on_c, 0, 72, 64
2, 15300, Note_on_c, 0, 72, 0
2, 15304, Note_on_c, 0, 74, 64
2, 15330, Note_on_c, 0, 74, 0
2, 15334, Note_on_c, 0, 72, 64
2, 15360, Note_on_c, 0, 72, 0
2, 15364, Note_on_c, 0, 74, 64
2, 15390, Note_on_c, 0, 74, 0
2, 15394, Note_on_c, 0, 65, 64
2, 15420, Note_on_c, 0, 65, 0
2, 15424, Note_on_c, 0, 69, 64
2, 15450, Note_on_c, 0, 69, 0
2, 15454, Note_on_c, 0, 70, 64
2, 15480, Note_on_c, 0, 70, 0
2, 15484, Note_on_c, 0, 72, 64
2, 15510, Note_on_c, 0, 72, 0
2, 15514, Note_on_c, 0, 70, 64
2, 15540, Note_on_c, 0, 70, 0
2, 15544, Note_on_c, 0, 72, 64
2, 15570, Note_on_c, 0, 72, 0
2, 15574, Note_on_c, 0, 63, 64
2, 15600, Note_on_c, 0, 63, 0
2, 15604, Note_on_c, 0, 67, 64
2, 15630, Note_on_c, 0, 67, 0
2, 15634, Note_on_c, 0, 69, 64
2, 15660, Note_on_c, 0, 69, 0
2, 15664, Note_on_c, 0, 69, 64
2, 15690, Note_on_c, 0, 69, 0
2, 15694, Note_on_c, 0, 70, 64
2, 15720, Note_on_c, 0, 70, 0
2, 15724, Note_on_c, 0, 65, 64
2, 15750, Note_on_c, 0, 65, 0
2, 15754, Note_on_c, 0, 62, 64
2, 15870, Note_on_c, 0, 62, 0
2, 15874, Note_on_c, 0, 60, 64
2, 15900, Note_on_c, 0, 60, 0
2, 15904, Note_on_c, 0, 62, 64
2, 15930, Note_on_c, 0, 62, 0
2, 15934, Note_on_c, 0, 57, 64
2, 15960, Note_on_c, 0, 57, 0
2, 15964, Note_on_c, 0, 62, 64
2, 15990, Note_on_c, 0, 62, 0
2, 15994, Note_on_c, 0, 58, 64
2, 16020, Note_on_c, 0, 58, 0
2, 16024, Note_on_c, 0, 55, 64
2, 16050, Note_on_c, 0, 55, 0
2, 16054, Note_on_c, 0, 62, 64
2, 16080, Note_on_c, 0, 62, 0
2, 16084, Note_on_c, 0, 58, 64
2, 16110, Note_on_c, 0, 58, 0
2, 16114, Note_on_c, 0, 55, 64
2, 16140, Note_on_c, 0, 55, 0
2, 16144, Note_on_c, 0, 62, 64
2, 16170, Note_on_c, 0, 62, 0
2, 16174, Note_on_c, 0, 70, 64
2, 16200, Note_on_c, 0, 70, 0
2, 16204, Note_on_c, 0, 60, 64
2, 16230, Note_on_c, 0, 60, 0
2, 16234, Note_on_c, 0, 58, 64
2, 16260, Note_on_c, 0, 58, 0
2, 16264, Note_on_c, 0, 60, 64
2, 16290, Note_on_c, 0, 60, 0
2, 16294, Note_on_c, 0, 55, 64
2, 16320, Note_on_c, 0, 55, 0
2, 16324, Note_on_c, 0, 60, 64
2, 16350, Note_on_c, 0, 60, 0
2, 16354, Note_on_c, 0, 57, 64
2, 16380, Note_on_c, 0, 57, 0
2, 16384, Note_on_c, 0, 54, 64
2, 16410, Note_on_c, 0, 54, 0
2, 16414, Note_on_c, 0, 60, 64
2, 16440, Note_on_c, 0, 60, 0
2, 16444, Note_on_c, 0, 57, 64
2, 16470, Note_on_c, 0, 57, 0
2, 16474, Note_on_c, 0, 54, 64
2, 16500, Note_on_c, 0, 54, 0
2, 16504, Note_on_c, 0, 60, 64
2, 16530, Note_on_c, 0, 60, 0
2, 16534, Note_on_c, 0, 69, 64
2, 16560, Note_on_c, 0, 69, 0
2, 16564, Note_on_c, 0, 58, 64
2, 16590, Note_on_c, 0, 58, 0
2, 16594, Note_on_c, 0, 57, 64
2, 16620, Note_on_c, 0, 57, 0
2, 16624, Note_on_c, 0, 58, 64
2, 16650, Note_on_c, 0, 58, 0
2, 16654, Note_on_c, 0, 62, 64
2, 16732, Note_on_c, 0, 62, 0
2, 16744, Note_on_c, 0, 67, 64
2, 16822, Note_on_c, 0, 67, 0
2, 16834, Note_on_c, 0, 48, 64
2, 16912, Note_on_c, 0, 48, 0
2, 16924, Note_on_c, 0, 41, 64
2, 17002, Note_on_c, 0, 41, 0
2, 17014, Note_on_c, 0, 60, 64
2, 17092, Note_on_c, 0, 60, 0
2, 17104, Note_on_c, 0, 65, 64
2, 17182, Note_on_c, 0, 65, 0
2, 17194, Note_on_c, 0, 46, 64
2, 17272, Note_on_c, 0, 46, 0
2, 17284, Note_on_c, 0, 39, 64
2, 17362, Note_on_c, 0, 39, 0
2, 17374, Note_on_c, 0, 63, 64
2, 17490, Note_on_c, 0, 63, 0
2, 17494, Note_on_c, 0, 72, 64
2, 17520, Note_on_c, 0, 72, 0
2, 17524, Note_on_c, 0, 70, 64
2, 17550, Note_on_c, 0, 70, 0
2, 17554, Note_on_c, 0, 69, 64
2, 17580, Note_on_c, 0, 69, 0
2, 17584, Note_on_c, 0, 67, 64
2, 17610, Note_on_c, 0, 67, 0
2, 17614, Note_on_c, 0, 65, 64
2, 17640, Note_on_c, 0, 65, 0
2, 17644, Note_on_c, 0, 63, 64
2, 17696, Note_on_c, 0, 63, 0
2, 17704, Note_on_c, 0, 62, 64
2, 17730, Note_on_c, 0, 62, 0
2, 17734, Note_on_c, 0, 70, 64
2, 17850, Note_on_c, 0, 70, 0
2, 17854, Note_on_c, 0, 74, 64
2, 17880, Note_on_c, 0, 74, 0
2, 17884, Note_on_c, 0, 72, 64
2, 17910, Note_on_c, 0, 72, 0
2, 17914, Note_on_c, 0, 70, 64
2, 17940, Note_on_c, 0, 70, 0
2, 17944, Note_on_c, 0, 69, 64
2, 17970, Note_on_c, 0, 69, 0
2, 17974, Note_on_c, 0, 67, 64
2, 18000, Note_on_c, 0, 67, 0
2, 18004, Note_on_c, 0, 65, 64
2, 18030, Note_on_c, 0, 65, 0
2, 18034, Note_on_c, 0, 67, 64
2, 18060, Note_on_c, 0, 67, 0
2, 18064, Note_on_c, 0, 69, 64
2, 18090, Note_on_c, 0, 69, 0
2, 18094, Note_on_c, 0, 70, 64
2, 18120, Note_on_c, 0, 70, 0
2, 18124, Note_on_c, 0, 72, 64
2, 18150, Note_on_c, 0, 72, 0
2, 18154, Note_on_c, 0, 74, 64
2, 18262, Note_on_c, 0, 74, 0
2, 18274, Note_on_c, 0, 72, 64
2, 18326, Note_on_c, 0, 72, 0
2, 18334, Note_on_c, 0, 70, 64
2, 18360, Note_on_c, 0, 70, 0
2, 18364, Note_on_c, 0, 69, 64
2, 18390, Note_on_c, 0, 69, 0
2, 18394, Note_on_c, 0, 70, 64
2, 18420, Note_on_c, 0, 70, 0
2, 18424, Note_on_c, 0, 72, 64
2, 18450, Note_on_c, 0, 72, 0
2, 18454, Note_on_c, 0, 74, 64
2, 18480, Note_on_c, 0, 74, 0
2, 18484, Note_on_c, 0, 76, 64
2, 18510, Note_on_c, 0, 76, 0
2, 18514, Note_on_c, 0, 77, 64
2, 18622, Note_on_c, 0, 77, 0
2, 18634, Note_on_c, 0, 76, 64
2, 18686, Note_on_c, 0, 76, 0
2, 18694, Note_on_c, 0, 74, 64
2, 18720, Note_on_c, 0, 74, 0
2, 18724, Note_on_c, 0, 72, 64
2, 18750, Note_on_c, 0, 72, 0
2, 18754, Note_on_c, 0, 77, 64
2, 18780, Note_on_c, 0, 77, 0
2, 18784, Note_on_c, 0, 76, 64
2, 18810, Note_on_c, 0, 76, 0
2, 18814, Note_on_c, 0, 74, 64
2, 18840, Note_on_c, 0, 74, 0
2, 18844, Note_on_c, 0, 72, 64
2, 18870, Note_on_c, 0, 72, 0
2, 18874, Note_on_c, 0, 70, 64
2, 18900, Note_on_c, 0, 70, 0
2, 18904, Note_on_c, 0, 69, 64
2, 18930, Note_on_c, 0, 69, 0
2, 18934, Note_on_c, 0, 67, 64
2, 18960, Note_on_c, 0, 67, 0
2, 18964, Note_on_c, 0, 69, 64
2, 18990, Note_on_c, 0, 69, 0
2, 18994, Note_on_c, 0, 70, 64
2, 19020, Note_on_c, 0, 70, 0
2, 19024, Note_on_c, 0, 69, 64
2, 19050, Note_on_c, 0, 69, 0
2, 19054, Note_on_c, 0, 67, 64
2, 19080, Note_on_c, 0, 67, 0
2, 19084, Note_on_c, 0, 65, 64
2, 19110, Note_on_c, 0, 65, 0
2, 19114, Note_on_c, 0, 67, 64
2, 19140, Note_on_c, 0, 67, 0
2, 19144, Note_on_c, 0, 69, 64
2, 19170, Note_on_c, 0, 69, 0
2, 19174, Note_on_c, 0, 70, 64
2, 19200, Note_on_c, 0, 70, 0
2, 19204, Note_on_c, 0, 72, 64
2, 19230, Note_on_c, 0, 72, 0
2, 19234, Note_on_c, 0, 74, 64
2, 19260, Note_on_c, 0, 74, 0
2, 19264, Note_on_c, 0, 74, 64
2, 19316, Note_on_c, 0, 74, 0
2, 19324, Note_on_c, 0, 67, 64
2, 19350, Note_on_c, 0, 67, 0
2, 19354, Note_on_c, 0, 69, 64
2, 19380, Note_on_c, 0, 69, 0
2, 19384, Note_on_c, 0, 70, 64
2, 19410, Note_on_c, 0, 70, 0
2, 19414, Note_on_c, 0, 72, 64
2, 19440, Note_on_c, 0, 72, 0
2, 19444, Note_on_c, 0, 72, 64
2, 19496, Note_on_c, 0, 72, 0
2, 19504, Note_on_c, 0, 65, 64
2, 19530, Note_on_c, 0, 65, 0
2, 19534, Note_on_c, 0, 67, 64
2, 19560, Note_on_c, 0, 67, 0
2, 19564, Note_on_c, 0, 69, 64
2, 19590, Note_on_c, 0, 69, 0
2, 19594, Note_on_c, 0, 70, 64
2, 19620, Note_on_c, 0, 70, 0
2, 19624, Note_on_c, 0, 70, 64
2, 19676, Note_on_c, 0, 70, 0
2, 19834, Note_on_c, 0, 65, 64
2, 19860, Note_on_c, 0, 65, 0
2, 19864, Note_on_c, 0, 67, 64
2, 19890, Note_on_c, 0, 67, 0
2, 19894, Note_on_c, 0, 69, 64
2, 19920, Note_on_c, 0, 69, 0
2, 19924, Note_on_c, 0, 70, 64
2, 19950, Note_on_c, 0, 70, 0
2, 19954, Note_on_c, 0, 72, 64
2, 19980, Note_on_c, 0, 72, 0
2, 19984, Note_on_c, 0, 74, 64
2, 20010, Note_on_c, 0, 74, 0
2, 20014, Note_on_c, 0, 70, 64
2, 20040, Note_on_c, 0, 70, 0
2, 20044, Note_on_c, 0, 72, 64
2, 20070, Note_on_c, 0, 72, 0
2, 20074, Note_on_c, 0, 74, 64
2, 20100, Note_on_c, 0, 74, 0
2, 20104, Note_on_c, 0, 76, 64
2, 20130, Note_on_c, 0, 76, 0
2, 20134, Note_on_c, 0, 77, 64
2, 20160, Note_on_c, 0, 77, 0
2, 20164, Note_on_c, 0, 79, 64
2, 20396, Note_on_c, 0, 79, 0
2, 20404, Note_on_c, 0, 72, 64
2, 20430, Note_on_c, 0, 72, 0
2, 20434, Note_on_c, 0, 77, 64
2, 20486, Note_on_c, 0, 77, 0
2, 20494, Note_on_c, 0, 75, 64
2, 20520, Note_on_c, 0, 75, 0
2, 20524, Note_on_c, 0, 74, 64
2, 20756, Note_on_c, 0, 74, 0
2, 20764, Note_on_c, 0, 67, 64
2, 20790, Note_on_c, 0, 67, 0
2, 20794, Note_on_c, 0, 72, 64
2, 20846, Note_on_c, 0, 72, 0
2, 20854, Note_on_c, 0, 70, 64
2, 20880, Note_on_c, 0, 70, 0
2, 20884, Note_on_c, 0, 69, 64
2, 21000, Note_on_c, 0, 69, 0
2, 21004, Note_on_c, 0, 71, 64
2, 21030, Note_on_c, 0, 71, 0
2, 21034, Note_on_c, 0, 72, 64
2, 21060, Note_on_c, 0, 72, 0
2, 21064, Note_on_c, 0, 74, 64
2, 21090, Note_on_c, 0, 74, 0
2, 21094, Note_on_c, 0, 65, 64
2, 21120, Note_on_c, 0, 65, 0
2, 21124, Note_on_c, 0, 67, 64
2, 21150, Note_on_c, 0, 67, 0
2, 21154, Note_on_c, 0, 68, 64
2, 21180, Note_on_c, 0, 68, 0
2, 21184, Note_on_c, 0, 67, 64
2, 21210, Note_on_c, 0, 67, 0
2, 21214, Note_on_c, 0, 65, 64
2, 21240, Note_on_c, 0, 65, 0
2, 21244, Note_on_c, 0, 64, 64
2, 21270, Note_on_c, 0, 64, 0
2, 21274, Note_on_c, 0, 60, 64
2, 21300, Note_on_c, 0, 60, 0
2, 21304, Note_on_c, 0, 59, 64
2, 21330, Note_on_c, 0, 59, 0
2, 21334, Note_on_c, 0, 60, 64
2, 21360, Note_on_c, 0, 60, 0
2, 21364, Note_on_c, 0, 62, 64
2, 21390, Note_on_c, 0, 62, 0
2, 21394, Note_on_c, 0, 64, 64
2, 21420, Note_on_c, 0, 64, 0
2, 21424, Note_on_c, 0, 65, 64
2, 21450, Note_on_c, 0, 65, 0
2, 21454, Note_on_c, 0, 60, 64
2, 21480, Note_on_c, 0, 60, 0
2, 21484, Note_on_c, 0, 59, 64
2, 21510, Note_on_c, 0, 59, 0
2, 21514, Note_on_c, 0, 60, 64
2, 21540, Note_on_c, 0, 60, 0
2, 21544, Note_on_c, 0, 64, 64
2, 21570, Note_on_c, 0, 64, 0
2, 21574, Note_on_c, 0, 65, 64
2, 21600, Note_on_c, 0, 65, 0
2, 21604, Note_on_c, 0, 67, 64
2, 21630, Note_on_c, 0, 67, 0
2, 21634, Note_on_c, 0, 60, 64
2, 21660, Note_on_c, 0, 60, 0
2, 21664, Note_on_c, 0, 59, 64
2, 21690, Note_on_c, 0, 59, 0
2, 21694, Note_on_c, 0, 60, 64
2, 21720, Note_on_c, 0, 60, 0
2, 21724, Note_on_c, 0, 65, 64
2, 21750, Note_on_c, 0, 65, 0
2, 21754, Note_on_c, 0, 67, 64
2, 21780, Note_on_c, 0, 67, 0
2, 21784, Note_on_c, 0, 68, 64
2, 21810, Note_on_c, 0, 68, 0
2, 21814, Note_on_c, 0, 65, 64
2, 21840, Note_on_c, 0, 65, 0
2, 21844, Note_on_c, 0, 67, 64
2, 21870, Note_on_c, 0, 67, 0
2, 21874, Note_on_c, 0, 68, 64
2, 21900, Note_on_c, 0, 68, 0
2, 21904, Note_on_c, 0, 70, 64
2, 21930, Note_on_c, 0, 70, 0
2, 21934, Note_on_c, 0, 72, 64
2, 21960, Note_on_c, 0, 72, 0
2, 21964, Note_on_c, 0, 73, 64
2, 21990, Note_on_c, 0, 73, 0
2, 21994, Note_on_c, 0, 70, 64
2, 22020, Note_on_c, 0, 70, 0
2, 22024, Note_on_c, 0, 72, 64
2, 22050, Note_on_c, 0, 72, 0
2, 22054, Note_on_c, 0, 73, 64
2, 22080, Note_on_c, 0, 73, 0
2, 22084, Note_on_c, 0, 75, 64
2, 22110, Note_on_c, 0, 75, 0
2, 22114, Note_on_c, 0, 77, 64
2, 22140, Note_on_c, 0, 77, 0
2, 22144, Note_on_c, 0, 78, 64
2, 22170, Note_on_c, 0, 78, 0
2, 22174, Note_on_c, 0, 80, 64
2, 22200, Note_on_c, 0, 80, 0
2, 22204, Note_on_c, 0, 82, 64
2, 22230, Note_on_c, 0, 82, 0
2, 22234, Note_on_c, 0, 80, 64
2, 22260, Note_on_c, 0, 80, 0
2, 22264, Note_on_c, 0, 78, 64
2, 22290, Note_on_c, 0, 78, 0
2, 22294, Note_on_c, 0, 77, 64
2, 22320, Note_on_c, 0, 77, 0
2, 22324, Note_on_c, 0, 76, 64
2, 22350, Note_on_c, 0, 76, 0
2, 22354, Note_on_c, 0, 79, 64
2, 22380, Note_on_c, 0, 79, 0
2, 22384, Note_on_c, 0, 70, 64
2, 22410, Note_on_c, 0, 70, 0
2, 22414, Note_on_c, 0, 73, 64
2, 22440, Note_on_c, 0, 73, 0
2, 22444, Note_on_c, 0, 72, 64
2, 22470, Note_on_c, 0, 72, 0
2, 22474, Note_on_c, 0, 70, 64
2, 22500, Note_on_c, 0, 70, 0
2, 22504, Note_on_c, 0, 72, 64
2, 22530, Note_on_c, 0, 72, 0
2, 22534, Note_on_c, 0, 77, 64
2, 22560, Note_on_c, 0, 77, 0
2, 22564, Note_on_c, 0, 69, 64
2, 22590, Note_on_c, 0, 69, 0
2, 22594, Note_on_c, 0, 70, 64
2, 22620, Note_on_c, 0, 70, 0
2, 22624, Note_on_c, 0, 72, 64
2, 22650, Note_on_c, 0, 72, 0
2, 22654, Note_on_c, 0, 74, 64
2, 22680, Note_on_c, 0, 74, 0
2, 22684, Note_on_c, 0, 72, 64
2, 22710, Note_on_c, 0, 72, 0
2, 22714, Note_on_c, 0, 70, 64
2, 22740, Note_on_c, 0, 70, 0
2, 22744, Note_on_c, 0, 69, 64
2, 22770, Note_on_c, 0, 69, 0
2, 22774, Note_on_c, 0, 67, 64
2, 22800, Note_on_c, 0, 67, 0
2, 22804, Note_on_c, 0, 77, 64
2, 22830, Note_on_c, 0, 77, 0
2, 22834, Note_on_c, 0, 76, 64
2, 22860, Note_on_c, 0, 76, 0
2, 22864, Note_on_c, 0, 77, 64
2, 22890, Note_on_c, 0, 77, 0
2, 22894, Note_on_c, 0, 72, 64
2, 22920, Note_on_c, 0, 72, 0
2, 22924, Note_on_c, 0, 69, 64
2, 22950, Note_on_c, 0, 69, 0
2, 22954, Note_on_c, 0, 65, 64
2, 23032, Note_on_c, 0, 65, 0
2, 23044, Note_on_c, 0, 69, 64
2, 23070, Note_on_c, 0, 69, 0
2, 23074, Note_on_c, 0, 65, 64
2, 23100, Note_on_c, 0, 65, 0
2, 23104, Note_on_c, 0, 64, 64
2, 23130, Note_on_c, 0, 64, 0
2, 23134, Note_on_c, 0, 65, 64
2, 23160, Note_on_c, 0, 65, 0
2, 23164, Note_on_c, 0, 67, 64
2, 23190, Note_on_c, 0, 67, 0
2, 23194, Note_on_c, 0, 69, 64
2, 23220, Note_on_c, 0, 69, 0
2, 23224, Note_on_c, 0, 70, 64
2, 23250, Note_on_c, 0, 70, 0
2, 23254, Note_on_c, 0, 65, 64
2, 23280, Note_on_c, 0, 65, 0
2, 23284, Note_on_c, 0, 64, 64
2, 23310, Note_on_c, 0, 64, 0
2, 23314, Note_on_c, 0, 65, 64
2, 23340, Note_on_c, 0, 65, 0
2, 23344, Note_on_c, 0, 69, 64
2, 23370, Note_on_c, 0, 69, 0
2, 23374, Note_on_c, 0, 70, 64
2, 23400, Note_on_c, 0, 70, 0
2, 23404, Note_on_c, 0, 72, 64
2, 23430, Note_on_c, 0, 72, 0
2, 23434, Note_on_c, 0, 65, 64
2, 23460, Note_on_c, 0, 65, 0
2, 23464, Note_on_c, 0, 64, 64
2, 23490, Note_on_c, 0, 64, 0
2, 23494, Note_on_c, 0, 65, 64
2, 23520, Note_on_c, 0, 65, 0
2, 23524, Note_on_c, 0, 70, 64
2, 23550, Note_on_c, 0, 70, 0
2, 23554, Note_on_c, 0, 72, 64
2, 23580, Note_on_c, 0, 72, 0
2, 23584, Note_on_c, 0, 74, 64
2, 23584, Note_on_c, 0, 74, 64
2, 23610, Note_on_c, 0, 74, 0
2, 23614, Note_on_c, 0, 70, 64
2, 23614, Note_on_c, 0, 70, 64
2, 23640, Note_on_c, 0, 70, 0
2, 23644, Note_on_c, 0, 65, 64
2, 23674, Note_on_c, 0, 62, 64
2, 23726, Note_on_c, 0, 65, 0
2, 23726, Note_on_c, 0, 74, 0
2, 23726, Note_on_c, 0, 70, 0
2, 23734, Note_on_c, 0, 72, 64
2, 23760, Note_on_c, 0, 72, 0
2, 23764, Note_on_c, 0, 71, 64
2, 23790, Note_on_c, 0, 71, 0
2, 23790, Note_on_c, 0, 62, 0
2, 23794, Note_on_c, 0, 67, 64
2, 23820, Note_on_c, 0, 67, 0
2, 23824, Note_on_c, 0, 66, 64
2, 23850, Note_on_c, 0, 66, 0
2, 23854, Note_on_c, 0, 67, 64
2, 23880, Note_on_c, 0, 67, 0
2, 23884, Note_on_c, 0, 69, 64
2, 23910, Note_on_c, 0, 69, 0
2, 23914, Note_on_c, 0, 71, 64
2, 23940, Note_on_c, 0, 71, 0
2, 23944, Note_on_c, 0, 72, 64
2, 23970, Note_on_c, 0, 72, 0
2, 23974, Note_on_c, 0, 67, 64
2, 24000, Note_on_c, 0, 67, 0
2, 24004, Note_on_c, 0, 66, 64
2, 24030, Note_on_c, 0, 66, 0
2, 24034, Note_on_c, 0, 67, 64
2, 24060, Note_on_c, 0, 67, 0
2, 24064, Note_on_c, 0, 71, 64
2, 24090, Note_on_c, 0, 71, 0
2, 24094, Note_on_c, 0, 72, 64
2, 24120, Note_on_c, 0, 72, 0
2, 24124, Note_on_c, 0, 74, 64
2, 24150, Note_on_c, 0, 74, 0
2, 24154, Note_on_c, 0, 67, 64
2, 24180, Note_on_c, 0, 67, 0
2, 24184, Note_on_c, 0, 66, 64
2, 24210, Note_on_c, 0, 66, 0
2, 24214, Note_on_c, 0, 67, 64
2, 24240, Note_on_c, 0, 67, 0
2, 24244, Note_on_c, 0, 72, 64
2, 24270, Note_on_c, 0, 72, 0
2, 24274, Note_on_c, 0, 74, 64
2, 24300, Note_on_c, 0, 74, 0
2, 24304, Note_on_c, 0, 75, 64
2, 24330, Note_on_c, 0, 75, 0
2, 24334, Note_on_c, 0, 72, 64
2, 24360, Note_on_c, 0, 72, 0
2, 24364, Note_on_c, 0, 67, 64
2, 24420, Note_on_c, 0, 67, 0
2, 24424, Note_on_c, 0, 79, 64
2, 24450, Note_on_c, 0, 79, 0
2, 24454, Note_on_c, 0, 77, 64
2, 24480, Note_on_c, 0, 77, 0
2, 24484, Note_on_c, 0, 75, 64
2, 24510, Note_on_c, 0, 75, 0
2, 24514, Note_on_c, 0, 74, 64
2, 24540, Note_on_c, 0, 74, 0
2, 24544, Note_on_c, 0, 72, 64
2, 24570, Note_on_c, 0, 72, 0
2, 24574, Note_on_c, 0, 70, 64
2, 24600, Note_on_c, 0, 70, 0
2, 24604, Note_on_c, 0, 75, 64
2, 24630, Note_on_c, 0, 75, 0
2, 24634, Note_on_c, 0, 72, 64
2, 24660, Note_on_c, 0, 72, 0
2, 24664, Note_on_c, 0, 68, 64
2, 24690, Note_on_c, 0, 68, 0
2, 24694, Note_on_c, 0, 75, 64
2, 24720, Note_on_c, 0, 75, 0
2, 24724, Note_on_c, 0, 72, 64
2, 24750, Note_on_c, 0, 72, 0
2, 24754, Note_on_c, 0, 65, 64
2, 24780, Note_on_c, 0, 65, 0
2, 24784, Note_on_c, 0, 72, 64
2, 24810, Note_on_c, 0, 72, 0
2, 24814, Note_on_c, 0, 75, 64
2, 24840, Note_on_c, 0, 75, 0
2, 24844, Note_on_c, 0, 74, 64
2, 24870, Note_on_c, 0, 74, 0
2, 24874, Note_on_c, 0, 72, 64
2, 24900, Note_on_c, 0, 72, 0
2, 24904, Note_on_c, 0, 70, 64
2, 24930, Note_on_c, 0, 70, 0
2, 24934, Note_on_c, 0, 68, 64
2, 24960, Note_on_c, 0, 68, 0
2, 24964, Note_on_c, 0, 74, 64
2, 24990, Note_on_c, 0, 74, 0
2, 24994, Note_on_c, 0, 70, 64
2, 25020, Note_on_c, 0, 70, 0
2, 25024, Note_on_c, 0, 67, 64
2, 25050, Note_on_c, 0, 67, 0
2, 25054, Note_on_c, 0, 73, 64
2, 25080, Note_on_c, 0, 73, 0
2, 25084, Note_on_c, 0, 70, 64
2, 25110, Note_on_c, 0, 70, 0
2, 25114, Note_on_c, 0, 63, 64
2, 25140, Note_on_c, 0, 63, 0
2, 25144, Note_on_c, 0, 70, 64
2, 25170, Note_on_c, 0, 70, 0
2, 25174, Note_on_c, 0, 73, 64
2, 25200, Note_on_c, 0, 73, 0
2, 25204, Note_on_c, 0, 72, 64
2, 25230, Note_on_c, 0, 72, 0
2, 25234, Note_on_c, 0, 71, 64
2, 25260, Note_on_c, 0, 71, 0
2, 25264, Note_on_c, 0, 72, 64
2, 25290, Note_on_c, 0, 72, 0
2, 25294, Note_on_c, 0, 75, 64
2, 25372, Note_on_c, 0, 75, 0
2, 25384, Note_on_c, 0, 80, 64
2, 25462, Note_on_c, 0, 80, 0
2, 25474, Note_on_c, 0, 53, 64
2, 25552, Note_on_c, 0, 53, 0
2, 25564, Note_on_c, 0, 55, 64
2, 25642, Note_on_c, 0, 55, 0
2, 25654, Note_on_c, 0, 74, 64
2, 25732, Note_on_c, 0, 74, 0
2, 25744, Note_on_c, 0, 79, 64
2, 25822, Note_on_c, 0, 79, 0
2, 25834, Note_on_c, 0, 52, 64
2, 25912, Note_on_c, 0, 52, 0
2, 25924, Note_on_c, 0, 53, 64
2, 26002, Note_on_c, 0, 53, 0
2, 26014, Note_on_c, 0, 77, 64
2, 26130, Note_on_c, 0, 77, 0
2, 26134, Note_on_c, 0, 67, 64
2, 26160, Note_on_c, 0, 67, 0
2, 26164, Note_on_c, 0, 69, 64
2, 26190, Note_on_c, 0, 69, 0
2, 26194, Note_on_c, 0, 71, 64
2, 26220, Note_on_c, 0, 71, 0
2, 26224, Note_on_c, 0, 72, 64
2, 26250, Note_on_c, 0, 72, 0
2, 26254, Note_on_c, 0, 74, 64
2, 26280, Note_on_c, 0, 74, 0
2, 26284, Note_on_c, 0, 75, 64
2, 26310, Note_on_c, 0, 75, 0
2, 26314, Note_on_c, 0, 74, 64
2, 26340, Note_on_c, 0, 74, 0
2, 26344, Note_on_c, 0, 72, 64
2, 26370, Note_on_c, 0, 72, 0
2, 26374, Note_on_c, 0, 70, 64
2, 26400, Note_on_c, 0, 70, 0
2, 26404, Note_on_c, 0, 69, 64
2, 26430, Note_on_c, 0, 69, 0
2, 26434, Note_on_c, 0, 67, 64
2, 26460, Note_on_c, 0, 67, 0
2, 26464, Note_on_c, 0, 66, 64
2, 26490, Note_on_c, 0, 66, 0
2, 26494, Note_on_c, 0, 74, 64
2, 26520, Note_on_c, 0, 74, 0
2, 26524, Note_on_c, 0, 76, 64
2, 26550, Note_on_c, 0, 76, 0
2, 26554, Note_on_c, 0, 78, 64
2, 26580, Note_on_c, 0, 78, 0
2, 26584, Note_on_c, 0, 79, 64
2, 26610, Note_on_c, 0, 79, 0
2, 26614, Note_on_c, 0, 81, 64
2, 26640, Note_on_c, 0, 81, 0
2, 26644, Note_on_c, 0, 79, 64
2, 26696, Note_on_c, 0, 79, 0
2, 26704, Note_on_c, 0, 67, 64
2, 26730, Note_on_c, 0, 67, 0
2, 26734, Note_on_c, 0, 72, 64
2, 26876, Note_on_c, 0, 72, 0
2, 26884, Note_on_c, 0, 69, 64
2, 26910, Note_on_c, 0, 69, 0
2, 26914, Note_on_c, 0, 74, 64
2, 26966, Note_on_c, 0, 74, 0
2, 26974, Note_on_c, 0, 72, 64
2, 27000, Note_on_c, 0, 72, 0
2, 27004, Note_on_c, 0, 70, 64
2, 27082, Note_on_c, 0, 70, 0
2, 27094, Note_on_c, 0, 75, 64
2, 27210, Note_on_c, 0, 75, 0
2, 27214, Note_on_c, 0, 69, 64
2, 27240, Note_on_c, 0, 69, 0
2, 27244, Note_on_c, 0, 70, 64
2, 27270, Note_on_c, 0, 70, 0
2, 27274, Note_on_c, 0, 72, 64
2, 27300, Note_on_c, 0, 72, 0
2, 27304, Note_on_c, 0, 74, 64
2, 27330, Note_on_c, 0, 74, 0
2, 27334, Note_on_c, 0, 75, 64
2, 27360, Note_on_c, 0, 75, 0
2, 27364, Note_on_c, 0, 74, 64
2, 27390, Note_on_c, 0, 74, 0
2, 27394, Note_on_c, 0, 79, 64
2, 27420, Note_on_c, 0, 79, 0
2, 27424, Note_on_c, 0, 77, 64
2, 27450, Note_on_c, 0, 77, 0
2, 27454, Note_on_c, 0, 75, 64
2, 27480, Note_on_c, 0, 75, 0
2, 27484, Note_on_c, 0, 74, 64
2, 27510, Note_on_c, 0, 74, 0
2, 27514, Note_on_c, 0, 72, 64
2, 27540, Note_on_c, 0, 72, 0
2, 27544, Note_on_c, 0, 70, 64
2, 27570, Note_on_c, 0, 70, 0
2, 27574, Note_on_c, 0, 69, 64
2, 27600, Note_on_c, 0, 69, 0
2, 27604, Note_on_c, 0, 70, 64
2, 27630, Note_on_c, 0, 70, 0
2, 27634, Note_on_c, 0, 72, 64
2, 27660, Note_on_c, 0, 72, 0
2, 27664, Note_on_c, 0, 78, 64
2, 27690, Note_on_c, 0, 78, 0
2, 27694, Note_on_c, 0, 81, 64
2, 27720, Note_on_c, 0, 81, 0
2, 27724, Note_on_c, 0, 74, 64
2, 27776, Note_on_c, 0, 74, 0
2, 27784, Note_on_c, 0, 70, 64
2, 27810, Note_on_c, 0, 70, 0
2, 27814, Note_on_c, 0, 72, 64
2, 27840, Note_on_c, 0, 72, 0
2, 27844, Note_on_c, 0, 74, 64
2, 27870, Note_on_c, 0, 74, 0
2, 27874, Note_on_c, 0, 75, 64
2, 27900, Note_on_c, 0, 75, 0
2, 27904, Note_on_c, 0, 75, 64
2, 27956, Note_on_c, 0, 75, 0
2, 27964, Note_on_c, 0, 69, 64
2, 27990, Note_on_c, 0, 69, 0
2, 27994, Note_on_c, 0, 70, 64
2, 28020, Note_on_c, 0, 70, 0
2, 28024, Note_on_c, 0, 72, 64
2, 28050, Note_on_c, 0, 72, 0
2, 28054, Note_on_c, 0, 74, 64
2, 28080, Note_on_c, 0, 74, 0
2, 28084, Note_on_c, 0, 74, 64
2, 28136, Note_on_c, 0, 74, 0
2, 28144, Note_on_c, 0, 67, 64
2, 28170, Note_on_c, 0, 67, 0
2, 28174, Note_on_c, 0, 69, 64
2, 28200, Note_on_c, 0, 69, 0
2, 28204, Note_on_c, 0, 70, 64
2, 28230, Note_on_c, 0, 70, 0
2, 28234, Note_on_c, 0, 72, 64
2, 28260, Note_on_c, 0, 72, 0
2, 28264, Note_on_c, 0, 72, 64
2, 28290, Note_on_c, 0, 72, 0
2, 28294, Note_on_c, 0, 66, 64
2, 28380, Note_on_c, 0, 66, 0
2, 28384, Note_on_c, 0, 67, 64
2, 28410, Note_on_c, 0, 67, 0
2, 28414, Note_on_c, 0, 69, 64
2, 28440, Note_on_c, 0, 69, 0
2, 28444, Note_on_c, 0, 70, 64
2, 28470, Note_on_c, 0, 70, 0
2, 28474, Note_on_c, 0, 72, 64
2, 28474, Note_on_c, 0, 75, 64
2, 28500, Note_on_c, 0, 75, 0
2, 28500, Note_on_c, 0, 72, 0
2, 28504, Note_on_c, 0, 70, 64
2, 28504, Note_on_c, 0, 74, 64
2, 28530, Note_on_c, 0, 74, 0
2, 28530, Note_on_c, 0, 70, 0
2, 28534, Note_on_c, 0, 69, 64
2, 28534, Note_on_c, 0, 72, 64
2, 28560, Note_on_c, 0, 72, 0
2, 28560, Note_on_c, 0, 69, 0
2, 28564, Note_on_c, 0, 67, 64
2, 28564, Note_on_c, 0, 70, 64
2, 28590, Note_on_c, 0, 70, 0
2, 28590, Note_on_c, 0, 67, 0
2, 28594, Note_on_c, 0, 66, 64
2, 28594, Note_on_c, 0, 69, 64
2, 28620, Note_on_c, 0, 69, 0
2, 28620, Note_on_c, 0, 66, 0
2, 28624, Note_on_c, 0, 67, 64
2, 28624, Note_on_c, 0, 67, 64
2, 28702, Note_on_c, 0, 67, 0
2, 28702, Note_on_c, 0, 67, 0
2, 28834, Note_on_c, 0, 82, 64
2, 28860, Note_on_c, 0, 82, 0
2, 28864, Note_on_c, 0, 81, 64
2, 28890, Note_on_c, 0, 81, 0
2, 28894, Note_on_c, 0, 79, 64
2, 28920, Note_on_c, 0, 79, 0
2, 28924, Note_on_c, 0, 77, 64
2, 28950, Note_on_c, 0, 77, 0
2, 28954, Note_on_c, 0, 75, 64
2, 28980, Note_on_c, 0, 75, 0
2, 28984, Note_on_c, 0, 74, 64
2, 29062, Note_on_c, 0, 74, 0
2, 29074, Note_on_c, 0, 75, 64
2, 29152, Note_on_c, 0, 75, 0
2, 29164, Note_on_c, 0, 77, 64
2, 29216, Note_on_c, 0, 77, 0
2, 29224, Note_on_c, 0, 74, 64
2, 29250, Note_on_c, 0, 74, 0
2, 29254, Note_on_c, 0, 75, 64
2, 29306, Note_on_c, 0, 75, 0
2, 29314, Note_on_c, 0, 79, 64
2, 29340, Note_on_c, 0, 79, 0
2, 29344, Note_on_c, 0, 72, 64
2, 29422, Note_on_c, 0, 72, 0
2, 29434, Note_on_c, 0, 77, 64
2, 29550, Note_on_c, 0, 77, 0
2, 29554, Note_on_c, 0, 75, 64
2, 29580, Note_on_c, 0, 75, 0
2, 29584, Note_on_c, 0, 74, 64
2, 29610, Note_on_c, 0, 74, 0
2, 29614, Note_on_c, 0, 75, 64
2, 29730, Note_on_c, 0, 75, 0
2, 29734, Note_on_c, 0, 74, 64
2, 29760, Note_on_c, 0, 74, 0
2, 29764, Note_on_c, 0, 72, 64
2, 29790, Note_on_c, 0, 72, 0
2, 29794, Note_on_c, 0, 74, 64
2, 29910, Note_on_c, 0, 74, 0
2, 29914, Note_on_c, 0, 75, 64
2, 29940, Note_on_c, 0, 75, 0
2, 29944, Note_on_c, 0, 77, 64
2, 29970, Note_on_c, 0, 77, 0
2, 29974, Note_on_c, 0, 79, 64
2, 30000, Note_on_c, 0, 79, 0
2, 30004, Note_on_c, 0, 81, 64
2, 30030, Note_on_c, 0, 81, 0
2, 30034, Note_on_c, 0, 82, 64
2, 30060, Note_on_c, 0, 82, 0
2, 30064, Note_on_c, 0, 70, 64
2, 30142, Note_on_c, 0, 70, 0
2, 30154, Note_on_c, 0, 69, 64
2, 30232, Note_on_c, 0, 69, 0
2, 30244, Note_on_c, 0, 65, 64
2, 30270, Note_on_c, 0, 65, 0
2, 30274, Note_on_c, 0, 69, 64
2, 30300, Note_on_c, 0, 69, 0
2, 30304, Note_on_c, 0, 72, 64
2, 30330, Note_on_c, 0, 72, 0
2, 30334, Note_on_c, 0, 75, 64
2, 30360, Note_on_c, 0, 75, 0
2, 30364, Note_on_c, 0, 74, 64
2, 30390, Note_on_c, 0, 74, 0
2, 30394, Note_on_c, 0, 75, 64
2, 30420, Note_on_c, 0, 75, 0
2, 30424, Note_on_c, 0, 65, 64
2, 30450, Note_on_c, 0, 65, 0
2, 30454, Note_on_c, 0, 69, 64
2, 30480, Note_on_c, 0, 69, 0
2, 30484, Note_on_c, 0, 70, 64
2, 30510, Note_on_c, 0, 70, 0
2, 30514, Note_on_c, 0, 74, 64
2, 30540, Note_on_c, 0, 74, 0
2, 30544, Note_on_c, 0, 72, 64
2, 30570, Note_on_c, 0, 72, 0
2, 30574, Note_on_c, 0, 74, 64
2, 30600, Note_on_c, 0, 74, 0
2, 30604, Note_on_c, 0, 63, 64
2, 30630, Note_on_c, 0, 63, 0
2, 30634, Note_on_c, 0, 67, 64
2, 30660, Note_on_c, 0, 67, 0
2, 30664, Note_on_c, 0, 69, 64
2, 30690, Note_on_c, 0, 69, 0
2, 30694, Note_on_c, 0, 72, 64
2, 30720, Note_on_c, 0, 72, 0
2, 30724, Note_on_c, 0, 70, 64
2, 30750, Note_on_c, 0, 70, 0
2, 30754, Note_on_c, 0, 72, 64
2, 30780, Note_on_c, 0, 72, 0
2, 30784, Note_on_c, 0, 63, 64
2, 30810, Note_on_c, 0, 63, 0
2, 30814, Note_on_c, 0, 62, 64
2, 30840, Note_on_c, 0, 62, 0
2, 30844, Note_on_c, 0, 65, 64
2, 30870, Note_on_c, 0, 65, 0
2, 30874, Note_on_c, 0, 70, 64
2, 30900, Note_on_c, 0, 70, 0
2, 30904, Note_on_c, 0, 74, 64
2, 30930, Note_on_c, 0, 74, 0
2, 30934, Note_on_c, 0, 75, 64
2, 30960, Note_on_c, 0, 75, 0
2, 30964, Note_on_c, 0, 77, 64
2, 30990, Note_on_c, 0, 77, 0
2, 30994, Note_on_c, 0, 75, 64
2, 31020, Note_on_c, 0, 75, 0
2, 31024, Note_on_c, 0, 77, 64
2, 31050, Note_on_c, 0, 77, 0
2, 31054, Note_on_c, 0, 67, 64
2, 31080, Note_on_c, 0, 67, 0
2, 31084, Note_on_c, 0, 71, 64
2, 31110, Note_on_c, 0, 71, 0
2, 31114, Note_on_c, 0, 74, 64
2, 31140, Note_on_c, 0, 74, 0
2, 31144, Note_on_c, 0, 75, 64
2, 31170, Note_on_c, 0, 75, 0
2, 31174, Note_on_c, 0, 74, 64
2, 31200, Note_on_c, 0, 74, 0
2, 31204, Note_on_c, 0, 75, 64
2, 31230, Note_on_c, 0, 75, 0
2, 31234, Note_on_c, 0, 67, 64
2, 31260, Note_on_c, 0, 67, 0
2, 31264, Note_on_c, 0, 71, 64
2, 31290, Note_on_c, 0, 71, 0
2, 31294, Note_on_c, 0, 72, 64
2, 31320, Note_on_c, 0, 72, 0
2, 31324, Note_on_c, 0, 74, 64
2, 31350, Note_on_c, 0, 74, 0
2, 31354, Note_on_c, 0, 72, 64
2, 31380, Note_on_c, 0, 72, 0
2, 31384, Note_on_c, 0, 74, 64
2, 31410, Note_on_c, 0, 74, 0
2, 31414, Note_on_c, 0, 65, 64
2, 31440, Note_on_c, 0, 65, 0
2, 31444, Note_on_c, 0, 68, 64
2, 31470, Note_on_c, 0, 68, 0
2, 31474, Note_on_c, 0, 71, 64
2, 31500, Note_on_c, 0, 71, 0
2, 31504, Note_on_c, 0, 71, 64
2, 31530, Note_on_c, 0, 71, 0
2, 31534, Note_on_c, 0, 72, 64
2, 31560, Note_on_c, 0, 72, 0
2, 31564, Note_on_c, 0, 67, 64
2, 31590, Note_on_c, 0, 67, 0
2, 31594, Note_on_c, 0, 63, 64
2, 31710, Note_on_c, 0, 63, 0
2, 31714, Note_on_c, 0, 75, 64
2, 31740, Note_on_c, 0, 75, 0
2, 31744, Note_on_c, 0, 74, 64
2, 31770, Note_on_c, 0, 74, 0
2, 31774, Note_on_c, 0, 72, 64
2, 31800, Note_on_c, 0, 72, 0
2, 31804, Note_on_c, 0, 70, 64
2, 31830, Note_on_c, 0, 70, 0
2, 31834, Note_on_c, 0, 68, 64
2, 31864, Note_on_c, 0, 68, 0
2, 31864, Note_on_c, 0, 77, 64
2, 32070, Note_on_c, 0, 77, 0
2, 32074, Note_on_c, 0, 70, 64
2, 32100, Note_on_c, 0, 70, 0
2, 32104, Note_on_c, 0, 74, 64
2, 32130, Note_on_c, 0, 74, 0
2, 32134, Note_on_c, 0, 75, 64
2, 32160, Note_on_c, 0, 75, 0
2, 32164, Note_on_c, 0, 77, 64
2, 32190, Note_on_c, 0, 77, 0
2, 32194, Note_on_c, 0, 74, 64
2, 32220, Note_on_c, 0, 74, 0
2, 32224, Note_on_c, 0, 75, 64
2, 32482, Note_on_c, 0, 75, 0
2, 32494, Note_on_c, 0, 74, 64
2, 32572, Note_on_c, 0, 74, 0
2, 32584, Note_on_c, 0, 79, 64
2, 32790, Note_on_c, 0, 79, 0
2, 32794, Note_on_c, 0, 72, 64
2, 32820, Note_on_c, 0, 72, 0
2, 32824, Note_on_c, 0, 76, 64
2, 32850, Note_on_c, 0, 76, 0
2, 32854, Note_on_c, 0, 77, 64
2, 32880, Note_on_c, 0, 77, 0
2, 32884, Note_on_c, 0, 79, 64
2, 32910, Note_on_c, 0, 79, 0
2, 32914, Note_on_c, 0, 76, 64
2, 32940, Note_on_c, 0, 76, 0
2, 32944, Note_on_c, 0, 77, 64
2, 33202, Note_on_c, 0, 77, 0
2, 33214, Note_on_c, 0, 75, 64
2, 33292, Note_on_c, 0, 75, 0
2, 33304, Note_on_c, 0, 74, 64
2, 33690, Note_on_c, 0, 74, 0
2, 33694, Note_on_c, 0, 75, 64
2, 33720, Note_on_c, 0, 75, 0
2, 33724, Note_on_c, 0, 74, 64
2, 33750, Note_on_c, 0, 74, 0
2, 33754, Note_on_c, 0, 72, 64
2, 33780, Note_on_c, 0, 72, 0
2, 33784, Note_on_c, 0, 74, 64
2, 33810, Note_on_c, 0, 74, 0
2, 33814, Note_on_c, 0, 70, 64
2, 33840, Note_on_c, 0, 70, 0
2, 33844, Note_on_c, 0, 72, 64
2, 34050, Note_on_c, 0, 72, 0
2, 34054, Note_on_c, 0, 73, 64
2, 34080, Note_on_c, 0, 73, 0
2, 34084, Note_on_c, 0, 72, 64
2, 34110, Note_on_c, 0, 72, 0
2, 34114, Note_on_c, 0, 70, 64
2, 34140, Note_on_c, 0, 70, 0
2, 34144, Note_on_c, 0, 72, 64
2, 34170, Note_on_c, 0, 72, 0
2, 34174, Note_on_c, 0, 69, 64
2, 34200, Note_on_c, 0, 69, 0
2, 34204, Note_on_c, 0, 70, 64
2, 34230, Note_on_c, 0, 70, 0
2, 34234, Note_on_c, 0, 72, 64
2, 34260, Note_on_c, 0, 72, 0
2, 34264, Note_on_c, 0, 73, 64
2, 34320, Note_on_c, 0, 73, 0
2, 34324, Note_on_c, 0, 72, 64
2, 34350, Note_on_c, 0, 72, 0
2, 34354, Note_on_c, 0, 70, 64
2, 34410, Note_on_c, 0, 70, 0
2, 34414, Note_on_c, 0, 69, 64
2, 34440, Note_on_c, 0, 69, 0
2, 34444, Note_on_c, 0, 67, 64
2, 34470, Note_on_c, 0, 67, 0
2, 34474, Note_on_c, 0, 69, 64
2, 34526, Note_on_c, 0, 69, 0
2, 34594, Note_on_c, 0, 57, 64
2, 34620, Note_on_c, 0, 57, 0
2, 34624, Note_on_c, 0, 58, 64
2, 34650, Note_on_c, 0, 58, 0
2, 34654, Note_on_c, 0, 60, 64
2, 34680, Note_on_c, 0, 60, 0
2, 34684, Note_on_c, 0, 62, 64
2, 34710, Note_on_c, 0, 62, 0
2, 34714, Note_on_c, 0, 63, 64
2, 34740, Note_on_c, 0, 63, 0
2, 34744, Note_on_c, 0, 65, 64
2, 34822, Note_on_c, 0, 65, 0
2, 34834, Note_on_c, 0, 63, 64
2, 34912, Note_on_c, 0, 63, 0
2, 34924, Note_on_c, 0, 62, 64
2, 34976, Note_on_c, 0, 62, 0
2, 34984, Note_on_c, 0, 67, 64
2, 35010, Note_on_c, 0, 67, 0
2, 35014, Note_on_c, 0, 66, 64
2, 35066, Note_on_c, 0, 66, 0
2, 35074, Note_on_c, 0, 72, 64
2, 35100, Note_on_c, 0, 72, 0
2, 35104, Note_on_c, 0, 70, 64
2, 35182, Note_on_c, 0, 70, 0
2, 35194, Note_on_c, 0, 68, 64
2, 35310, Note_on_c, 0, 68, 0
2, 35314, Note_on_c, 0, 67, 64
2, 35340, Note_on_c, 0, 67, 0
2, 35344, Note_on_c, 0, 69, 64
2, 35370, Note_on_c, 0, 69, 0
2, 35374, Note_on_c, 0, 71, 64
2, 35400, Note_on_c, 0, 71, 0
2, 35404, Note_on_c, 0, 72, 64
2, 35430, Note_on_c, 0, 72, 0
2, 35434, Note_on_c, 0, 74, 64
2, 35460, Note_on_c, 0, 74, 0
2, 35464, Note_on_c, 0, 75, 64
2, 35542, Note_on_c, 0, 75, 0
2, 35554, Note_on_c, 0, 74, 64
2, 35632, Note_on_c, 0, 74, 0
2, 35644, Note_on_c, 0, 72, 64
2, 36030, Note_on_c, 0, 72, 0
2, 36034, Note_on_c, 0, 69, 64
2, 36060, Note_on_c, 0, 69, 0
2, 36064, Note_on_c, 0, 70, 64
2, 36120, Note_on_c, 0, 70, 0
2, 36124, Note_on_c, 0, 69, 64
2, 36150, Note_on_c, 0, 69, 0
2, 36154, Note_on_c, 0, 75, 64
2, 36180, Note_on_c, 0, 75, 0
2, 36184, Note_on_c, 0, 74, 64
2, 36442, Note_on_c, 0, 74, 0
2, 36454, Note_on_c, 0, 80, 64
2, 36532, Note_on_c, 0, 80, 0
2, 36544, Note_on_c, 0, 79, 64
2, 36622, Note_on_c, 0, 79, 0
2, 36634, Note_on_c, 0, 77, 64
2, 36712, Note_on_c, 0, 77, 0
2, 36724, Note_on_c, 0, 75, 64
2, 36802, Note_on_c, 0, 75, 0
2, 36814, Note_on_c, 0, 76, 64
2, 36892, Note_on_c, 0, 76, 0
2, 36904, Note_on_c, 0, 77, 64
2, 36956, Note_on_c, 0, 77, 0
2, 36964, Note_on_c, 0, 74, 64
2, 36990, Note_on_c, 0, 74, 0
2, 36994, Note_on_c, 0, 76, 64
2, 37046, Note_on_c, 0, 76, 0
2, 37054, Note_on_c, 0, 79, 64
2, 37080, Note_on_c, 0, 79, 0
2, 37084, Note_on_c, 0, 72, 64
2, 37316, Note_on_c, 0, 72, 0
2, 37324, Note_on_c, 0, 70, 64
2, 37350, Note_on_c, 0, 70, 0
2, 37354, Note_on_c, 0, 69, 64
2, 37406, Note_on_c, 0, 69, 0
2, 37414, Note_on_c, 0, 75, 64
2, 37440, Note_on_c, 0, 75, 0
2, 37444, Note_on_c, 0, 74, 64
2, 37676, Note_on_c, 0, 74, 0
2, 37684, Note_on_c, 0, 75, 64
2, 37710, Note_on_c, 0, 75, 0
2, 37714, Note_on_c, 0, 74, 64
2, 37766, Note_on_c, 0, 74, 0
2, 37774, Note_on_c, 0, 80, 64
2, 37800, Note_on_c, 0, 80, 0
2, 37804, Note_on_c, 0, 79, 64
2, 37834, Note_on_c, 0, 77, 64
2, 37860, Note_on_c, 0, 77, 0
2, 37864, Note_on_c, 0, 75, 64
2, 37882, Note_on_c, 0, 79, 0
2, 37894, Note_on_c, 0, 77, 64
2, 37920, Note_on_c, 0, 75, 0
2, 37924, Note_on_c, 0, 72, 64
2, 37950, Note_on_c, 0, 72, 0
2, 37954, Note_on_c, 0, 74, 64
2, 37972, Note_on_c, 0, 77, 0
2, 37984, Note_on_c, 0, 75, 64
2, 38010, Note_on_c, 0, 74, 0
2, 38014, Note_on_c, 0, 74, 64
2, 38040, Note_on_c, 0, 74, 0
2, 38044, Note_on_c, 0, 72, 64
2, 38062, Note_on_c, 0, 75, 0
2, 38074, Note_on_c, 0, 74, 64
2, 38100, Note_on_c, 0, 72, 0
2, 38104, Note_on_c, 0, 69, 64
2, 38130, Note_on_c, 0, 69, 0
2, 38134, Note_on_c, 0, 70, 64
2, 38160, Note_on_c, 0, 70, 0
2, 38190, Note_on_c, 0, 74, 0
2, 38194, Note_on_c, 0, 74, 64
2, 38220, Note_on_c, 0, 74, 0
2, 38224, Note_on_c, 0, 72, 64
2, 38280, Note_on_c, 0, 72, 0
2, 38284, Note_on_c, 0, 69, 64
2, 38310, Note_on_c, 0, 69, 0
2, 38314, Note_on_c, 0, 70, 64
2, 38370, Note_on_c, 0, 70, 0
2, 38374, Note_on_c, 0, 70, 64
2, 38400, Note_on_c, 0, 70, 0
2, 38404, Note_on_c, 0, 69, 64
2, 38460, Note_on_c, 0, 69, 0
2, 38464, Note_on_c, 0, 65, 64
2, 38490, Note_on_c, 0, 65, 0
2, 38494, Note_on_c, 0, 67, 64
2, 38520, Note_on_c, 0, 67, 0
2, 38524, Note_on_c, 0, 65, 64
2, 38602, Note_on_c, 0, 65, 0
2, 38734, Note_on_c, 0, 53, 64
2, 38760, Note_on_c, 0, 53, 0
2, 38764, Note_on_c, 0, 55, 64
2, 38790, Note_on_c, 0, 55, 0
2, 38794, Note_on_c, 0, 57, 64
2, 38820, Note_on_c, 0, 57, 0
2, 38824, Note_on_c, 0, 58, 64
2, 38850, Note_on_c, 0, 58, 0
2, 38854, Note_on_c, 0, 60, 64
2, 38880, Note_on_c, 0, 60, 0
2, 38884, Note_on_c, 0, 62, 64
2, 38910, Note_on_c, 0, 62, 0
2, 38914, Note_on_c, 0, 63, 64
2, 38940, Note_on_c, 0, 63, 0
2, 38944, Note_on_c, 0, 62, 64
2, 38970, Note_on_c, 0, 62, 0
2, 38974, Note_on_c, 0, 60, 64
2, 39000, Note_on_c, 0, 60, 0
2, 39004, Note_on_c, 0, 58, 64
2, 39030, Note_on_c, 0, 58, 0
2, 39034, Note_on_c, 0, 57, 64
2, 39060, Note_on_c, 0, 57, 0
2, 39064, Note_on_c, 0, 58, 64
2, 39090, Note_on_c, 0, 58, 0
2, 39094, Note_on_c, 0, 68, 64
2, 39120, Note_on_c, 0, 68, 0
2, 39124, Note_on_c, 0, 67, 64
2, 39150, Note_on_c, 0, 67, 0
2, 39154, Note_on_c, 0, 65, 64
2, 39180, Note_on_c, 0, 65, 0
2, 39184, Note_on_c, 0, 63, 64
2, 39210, Note_on_c, 0, 63, 0
2, 39214, Note_on_c, 0, 62, 64
2, 39240, Note_on_c, 0, 62, 0
2, 39244, Note_on_c, 0, 63, 64
2, 39270, Note_on_c, 0, 63, 0
2, 39274, Note_on_c, 0, 58, 64
2, 39300, Note_on_c, 0, 58, 0
2, 39304, Note_on_c, 0, 60, 64
2, 39330, Note_on_c, 0, 60, 0
2, 39334, Note_on_c, 0, 62, 64
2, 39360, Note_on_c, 0, 62, 0
2, 39364, Note_on_c, 0, 63, 64
2, 39390, Note_on_c, 0, 63, 0
2, 39394, Note_on_c, 0, 65, 64
2, 39420, Note_on_c, 0, 65, 0
2, 39424, Note_on_c, 0, 67, 64
2, 39450, Note_on_c, 0, 67, 0
2, 39454, Note_on_c, 0, 63, 64
2, 39480, Note_on_c, 0, 63, 0
2, 39484, Note_on_c, 0, 65, 64
2, 39510, Note_on_c, 0, 65, 0
2, 39514, Note_on_c, 0, 67, 64
2, 39540, Note_on_c, 0, 67, 0
2, 39544, Note_on_c, 0, 69, 64
2, 39570, Note_on_c, 0, 69, 0
2, 39574, Note_on_c, 0, 70, 64
2, 39600, Note_on_c, 0, 70, 0
2, 39604, Note_on_c, 0, 72, 64
2, 39630, Note_on_c, 0, 72, 0
2, 39634, Note_on_c, 0, 74, 64
2, 39660, Note_on_c, 0, 74, 0
2, 39664, Note_on_c, 0, 72, 64
2, 39690, Note_on_c, 0, 72, 0
2, 39694, Note_on_c, 0, 70, 64
2, 39720, Note_on_c, 0, 70, 0
2, 39724, Note_on_c, 0, 69, 64
2, 39750, Note_on_c, 0, 69, 0
2, 39754, Note_on_c, 0, 67, 64
2, 39780, Note_on_c, 0, 67, 0
2, 39784, Note_on_c, 0, 69, 64
2, 39810, Note_on_c, 0, 69, 0
2, 39814, Note_on_c, 0, 79, 64
2, 39840, Note_on_c, 0, 79, 0
2, 39844, Note_on_c, 0, 77, 64
2, 39870, Note_on_c, 0, 77, 0
2, 39874, Note_on_c, 0, 75, 64
2, 39900, Note_on_c, 0, 75, 0
2, 39904, Note_on_c, 0, 74, 64
2, 39930, Note_on_c, 0, 74, 0
2, 39934, Note_on_c, 0, 72, 64
2, 39960, Note_on_c, 0, 72, 0
2, 39964, Note_on_c, 0, 74, 64
2, 39990, Note_on_c, 0, 74, 0
2, 39994, Note_on_c, 0, 69, 64
2, 40020, Note_on_c, 0, 69, 0
2, 40024, Note_on_c, 0, 70, 64
2, 40050, Note_on_c, 0, 70, 0
2, 40054, Note_on_c, 0, 72, 64
2, 40080, Note_on_c, 0, 72, 0
2, 40084, Note_on_c, 0, 74, 64
2, 40110, Note_on_c, 0, 74, 0
2, 40114, Note_on_c, 0, 75, 64
2, 40140, Note_on_c, 0, 75, 0
2, 40144, Note_on_c, 0, 77, 64
2, 40170, Note_on_c, 0, 77, 0
2, 40174, Note_on_c, 0, 74, 64
2, 40200, Note_on_c, 0, 74, 0
2, 40204, Note_on_c, 0, 75, 64
2, 40230, Note_on_c, 0, 75, 0
2, 40234, Note_on_c, 0, 77, 64
2, 40260, Note_on_c, 0, 77, 0
2, 40264, Note_on_c, 0, 79, 64
2, 40290, Note_on_c, 0, 79, 0
2, 40294, Note_on_c, 0, 80, 64
2, 40320, Note_on_c, 0, 80, 0
2, 40324, Note_on_c, 0, 82, 64
2, 40350, Note_on_c, 0, 82, 0
2, 40354, Note_on_c, 0, 84, 64
2, 40380, Note_on_c, 0, 84, 0
2, 40384, Note_on_c, 0, 82, 64
2, 40410, Note_on_c, 0, 82, 0
2, 40414, Note_on_c, 0, 80, 64
2, 40440, Note_on_c, 0, 80, 0
2, 40444, Note_on_c, 0, 79, 64
2, 40470, Note_on_c, 0, 79, 0
2, 40474, Note_on_c, 0, 77, 64
2, 40500, Note_on_c, 0, 77, 0
2, 40504, Note_on_c, 0, 79, 64
2, 40530, Note_on_c, 0, 79, 0
2, 40534, Note_on_c, 0, 80, 64
2, 40560, Note_on_c, 0, 80, 0
2, 40564, Note_on_c, 0, 79, 64
2, 40590, Note_on_c, 0, 79, 0
2, 40594, Note_on_c, 0, 77, 64
2, 40620, Note_on_c, 0, 77, 0
2, 40624, Note_on_c, 0, 75, 64
2, 40650, Note_on_c, 0, 75, 0
2, 40654, Note_on_c, 0, 74, 64
2, 40680, Note_on_c, 0, 74, 0
2, 40684, Note_on_c, 0, 75, 64
2, 41070, Note_on_c, 0, 75, 0
2, 41074, Note_on_c, 0, 65, 64
2, 41100, Note_on_c, 0, 65, 0
2, 41104, Note_on_c, 0, 64, 64
2, 41130, Note_on_c, 0, 64, 0
2, 41134, Note_on_c, 0, 65, 64
2, 41160, Note_on_c, 0, 65, 0
2, 41164, Note_on_c, 0, 67, 64
2, 41190, Note_on_c, 0, 67, 0
2, 41194, Note_on_c, 0, 69, 64
2, 41220, Note_on_c, 0, 69, 0
2, 41224, Note_on_c, 0, 70, 64
2, 41250, Note_on_c, 0, 70, 0
2, 41254, Note_on_c, 0, 65, 64
2, 41280, Note_on_c, 0, 65, 0
2, 41284, Note_on_c, 0, 64, 64
2, 41310, Note_on_c, 0, 64, 0
2, 41314, Note_on_c, 0, 65, 64
2, 41340, Note_on_c, 0, 65, 0
2, 41344, Note_on_c, 0, 69, 64
2, 41370, Note_on_c, 0, 69, 0
2, 41374, Note_on_c, 0, 70, 64
2, 41400, Note_on_c, 0, 70, 0
2, 41404, Note_on_c, 0, 72, 64
2, 41430, Note_on_c, 0, 72, 0
2, 41434, Note_on_c, 0, 65, 64
2, 41460, Note_on_c, 0, 65, 0
2, 41464, Note_on_c, 0, 64, 64
2, 41490, Note_on_c, 0, 64, 0
2, 41494, Note_on_c, 0, 65, 64
2, 41520, Note_on_c, 0, 65, 0
2, 41524, Note_on_c, 0, 70, 64
2, 41550, Note_on_c, 0, 70, 0
2, 41554, Note_on_c, 0, 72, 64
2, 41580, Note_on_c, 0, 72, 0
2, 41584, Note_on_c, 0, 73, 64
2, 41610, Note_on_c, 0, 73, 0
2, 41614, Note_on_c, 0, 70, 64
2, 41640, Note_on_c, 0, 70, 0
2, 41644, Note_on_c, 0, 72, 64
2, 41670, Note_on_c, 0, 72, 0
2, 41674, Note_on_c, 0, 73, 64
2, 41700, Note_on_c, 0, 73, 0
2, 41704, Note_on_c, 0, 75, 64
2, 41730, Note_on_c, 0, 75, 0
2, 41734, Note_on_c, 0, 77, 64
2, 41760, Note_on_c, 0, 77, 0
2, 41764, Note_on_c, 0, 78, 64
2, 41790, Note_on_c, 0, 78, 0
2, 41794, Note_on_c, 0, 75, 64
2, 41820, Note_on_c, 0, 75, 0
2, 41824, Note_on_c, 0, 77, 64
2, 41850, Note_on_c, 0, 77, 0
2, 41854, Note_on_c, 0, 78, 64
2, 41880, Note_on_c, 0, 78, 0
2, 41884, Note_on_c, 0, 80, 64
2, 41910, Note_on_c, 0, 80, 0
2, 41914, Note_on_c, 0, 82, 64
2, 41940, Note_on_c, 0, 82, 0
2, 41944, Note_on_c, 0, 83, 64
2, 41970, Note_on_c, 0, 83, 0
2, 41974, Note_on_c, 0, 82, 64
2, 42000, Note_on_c, 0, 82, 0
2, 42004, Note_on_c, 0, 80, 64
2, 42030, Note_on_c, 0, 80, 0
2, 42034, Note_on_c, 0, 78, 64
2, 42060, Note_on_c, 0, 78, 0
2, 42064, Note_on_c, 0, 77, 64
2, 42090, Note_on_c, 0, 77, 0
2, 42094, Note_on_c, 0, 75, 64
2, 42120, Note_on_c, 0, 75, 0
2, 42124, Note_on_c, 0, 81, 64
2, 42150, Note_on_c, 0, 81, 0
2, 42154, Note_on_c, 0, 84, 64
2, 42180, Note_on_c, 0, 84, 0
2, 42184, Note_on_c, 0, 75, 64
2, 42210, Note_on_c, 0, 75, 0
2, 42214, Note_on_c, 0, 78, 64
2, 42240, Note_on_c, 0, 78, 0
2, 42244, Note_on_c, 0, 77, 64
2, 42270, Note_on_c, 0, 77, 0
2, 42274, Note_on_c, 0, 75, 64
2, 42300, Note_on_c, 0, 75, 0
2, 42304, Note_on_c, 0, 77, 64
2, 42330, Note_on_c, 0, 77, 0
2, 42334, Note_on_c, 0, 82, 64
2, 42360, Note_on_c, 0, 82, 0
2, 42364, Note_on_c, 0, 74, 64
2, 42390, Note_on_c, 0, 74, 0
2, 42394, Note_on_c, 0, 75, 64
2, 42420, Note_on_c, 0, 75, 0
2, 42424, Note_on_c, 0, 77, 64
2, 42450, Note_on_c, 0, 77, 0
2, 42454, Note_on_c, 0, 79, 64
2, 42480, Note_on_c, 0, 79, 0
2, 42484, Note_on_c, 0, 77, 64
2, 42510, Note_on_c, 0, 77, 0
2, 42514, Note_on_c, 0, 75, 64
2, 42540, Note_on_c, 0, 75, 0
2, 42544, Note_on_c, 0, 74, 64
2, 42570, Note_on_c, 0, 74, 0
2, 42574, Note_on_c, 0, 72, 64
2, 42600, Note_on_c, 0, 72, 0
2, 42604, Note_on_c, 0, 82, 64
2, 42630, Note_on_c, 0, 82, 0
2, 42634, Note_on_c, 0, 81, 64
2, 42660, Note_on_c, 0, 81, 0
2, 42664, Note_on_c, 0, 82, 64
2, 42690, Note_on_c, 0, 82, 0
2, 42694, Note_on_c, 0, 77, 64
2, 42720, Note_on_c, 0, 77, 0
2, 42724, Note_on_c, 0, 74, 64
2, 42750, Note_on_c, 0, 74, 0
2, 42754, Note_on_c, 0, 70, 64
2, 42832, Note_on_c, 0, 70, 0
2, 42844, Note_on_c, 0, 69, 64
2, 42870, Note_on_c, 0, 69, 0
2, 42874, Note_on_c, 0, 65, 64
2, 42900, Note_on_c, 0, 65, 0
2, 42904, Note_on_c, 0, 64, 64
2, 42930, Note_on_c, 0, 64, 0
2, 42934, Note_on_c, 0, 65, 64
2, 42960, Note_on_c, 0, 65, 0
2, 42964, Note_on_c, 0, 67, 64
2, 42990, Note_on_c, 0, 67, 0
2, 42994, Note_on_c, 0, 69, 64
2, 43020, Note_on_c, 0, 69, 0
2, 43024, Note_on_c, 0, 70, 64
2, 43050, Note_on_c, 0, 70, 0
2, 43054, Note_on_c, 0, 65, 64
2, 43080, Note_on_c, 0, 65, 0
2, 43084, Note_on_c, 0, 64, 64
2, 43110, Note_on_c, 0, 64, 0
2, 43114, Note_on_c, 0, 65, 64
2, 43140, Note_on_c, 0, 65, 0
2, 43144, Note_on_c, 0, 69, 64
2, 43170, Note_on_c, 0, 69, 0
2, 43174, Note_on_c, 0, 70, 64
2, 43200, Note_on_c, 0, 70, 0
2, 43204, Note_on_c, 0, 72, 64
2, 43230, Note_on_c, 0, 72, 0
2, 43234, Note_on_c, 0, 65, 64
2, 43260, Note_on_c, 0, 65, 0
2, 43264, Note_on_c, 0, 64, 64
2, 43290, Note_on_c, 0, 64, 0
2, 43294, Note_on_c, 0, 65, 64
2, 43320, Note_on_c, 0, 65, 0
2, 43324, Note_on_c, 0, 70, 64
2, 43350, Note_on_c, 0, 70, 0
2, 43354, Note_on_c, 0, 72, 64
2, 43380, Note_on_c, 0, 72, 0
2, 43384, Note_on_c, 0, 74, 64
2, 43384, Note_on_c, 0, 74, 64
2, 43410, Note_on_c, 0, 74, 0
2, 43414, Note_on_c, 0, 70, 64
2, 43414, Note_on_c, 0, 70, 64
2, 43440, Note_on_c, 0, 70, 0
2, 43444, Note_on_c, 0, 65, 64
2, 43474, Note_on_c, 0, 62, 64
2, 43526, Note_on_c, 0, 65, 0
2, 43526, Note_on_c, 0, 74, 0
2, 43526, Note_on_c, 0, 70, 0
2, 43534, Note_on_c, 0, 72, 64
2, 43560, Note_on_c, 0, 72, 0
2, 43564, Note_on_c, 0, 71, 64
2, 43590, Note_on_c, 0, 71, 0
2, 43590, Note_on_c, 0, 62, 0
2, 43594, Note_on_c, 0, 67, 64
2, 43620, Note_on_c, 0, 67, 0
2, 43624, Note_on_c, 0, 66, 64
2, 43650, Note_on_c, 0, 66, 0
2, 43654, Note_on_c, 0, 67, 64
2, 43680, Note_on_c, 0, 67, 0
2, 43684, Note_on_c, 0, 69, 64
2, 43710, Note_on_c, 0, 69, 0
2, 43714, Note_on_c, 0, 71, 64
2, 43740, Note_on_c, 0, 71, 0
2, 43744, Note_on_c, 0, 72, 64
2, 43770, Note_on_c, 0, 72, 0
2, 43774, Note_on_c, 0, 67, 64
2, 43800, Note_on_c, 0, 67, 0
2, 43804, Note_on_c, 0, 66, 64
2, 43830, Note_on_c, 0, 66, 0
2, 43834, Note_on_c, 0, 67, 64
2, 43860, Note_on_c, 0, 67, 0
2, 43864, Note_on_c, 0, 71, 64
2, 43890, Note_on_c, 0, 71, 0
2, 43894, Note_on_c, 0, 72, 64
2, 43920, Note_on_c, 0, 72, 0
2, 43924, Note_on_c, 0, 74, 64
2, 43950, Note_on_c, 0, 74, 0
2, 43954, Note_on_c, 0, 67, 64
2, 43980, Note_on_c, 0, 67, 0
2, 43984, Note_on_c, 0, 66, 64
2, 44010, Note_on_c, 0, 66, 0
2, 44014, Note_on_c, 0, 67, 64
2, 44040, Note_on_c, 0, 67, 0
2, 44044, Note_on_c, 0, 72, 64
2, 44070, Note_on_c, 0, 72, 0
2, 44074, Note_on_c, 0, 74, 64
2, 44100, Note_on_c, 0, 74, 0
2, 44104, Note_on_c, 0, 75, 64
2, 44130, Note_on_c, 0, 75, 0
2, 44134, Note_on_c, 0, 72, 64
2, 44160, Note_on_c, 0, 72, 0
2, 44164, Note_on_c, 0, 67, 64
2, 44220, Note_on_c, 0, 67, 0
2, 44224, Note_on_c, 0, 79, 64
2, 44250, Note_on_c, 0, 79, 0
2, 44254, Note_on_c, 0, 77, 64
2, 44280, Note_on_c, 0, 77, 0
2, 44284, Note_on_c, 0, 75, 64
2, 44310, Note_on_c, 0, 75, 0
2, 44314, Note_on_c, 0, 74, 64
2, 44340, Note_on_c, 0, 74, 0
2, 44344, Note_on_c, 0, 72, 64
2, 44370, Note_on_c, 0, 72, 0
2, 44374, Note_on_c, 0, 70, 64
2, 44400, Note_on_c, 0, 70, 0
2, 44404, Note_on_c, 0, 75, 64
2, 44430, Note_on_c, 0, 75, 0
2, 44434, Note_on_c, 0, 72, 64
2, 44460, Note_on_c, 0, 72, 0
2, 44464, Note_on_c, 0, 68, 64
2, 44490, Note_on_c, 0, 68, 0
2, 44494, Note_on_c, 0, 75, 64
2, 44520, Note_on_c, 0, 75, 0
2, 44524, Note_on_c, 0, 72, 64
2, 44550, Note_on_c, 0, 72, 0
2, 44554, Note_on_c, 0, 65, 64
2, 44580, Note_on_c, 0, 65, 0
2, 44584, Note_on_c, 0, 72, 64
2, 44610, Note_on_c, 0, 72, 0
2, 44614, Note_on_c, 0, 75, 64
2, 44640, Note_on_c, 0, 75, 0
2, 44644, Note_on_c, 0, 74, 64
2, 44670, Note_on_c, 0, 74, 0
2, 44674, Note_on_c, 0, 72, 64
2, 44700, Note_on_c, 0, 72, 0
2, 44704, Note_on_c, 0, 70, 64
2, 44730, Note_on_c, 0, 70, 0
2, 44734, Note_on_c, 0, 68, 64
2, 44760, Note_on_c, 0, 68, 0
2, 44764, Note_on_c, 0, 74, 64
2, 44790, Note_on_c, 0, 74, 0
2, 44794, Note_on_c, 0, 70, 64
2, 44820, Note_on_c, 0, 70, 0
2, 44824, Note_on_c, 0, 67, 64
2, 44850, Note_on_c, 0, 67, 0
2, 44854, Note_on_c, 0, 73, 64
2, 44880, Note_on_c, 0, 73, 0
2, 44884, Note_on_c, 0, 70, 64
2, 44910, Note_on_c, 0, 70, 0
2, 44914, Note_on_c, 0, 63, 64
2, 44940, Note_on_c, 0, 63, 0
2, 44944, Note_on_c, 0, 70, 64
2, 44970, Note_on_c, 0, 70, 0
2, 44974, Note_on_c, 0, 73, 64
2, 45000, Note_on_c, 0, 73, 0
2, 45004, Note_on_c, 0, 72, 64
2, 45030, Note_on_c, 0, 72, 0
2, 45034, Note_on_c, 0, 71, 64
2, 45060, Note_on_c, 0, 71, 0
2, 45064, Note_on_c, 0, 72, 64
2, 45090, Note_on_c, 0, 72, 0
2, 45094, Note_on_c, 0, 75, 64
2, 45172, Note_on_c, 0, 75, 0
2, 45184, Note_on_c, 0, 80, 64
2, 45262, Note_on_c, 0, 80, 0
2, 45274, Note_on_c, 0, 53, 64
2, 45352, Note_on_c, 0, 53, 0
2, 45364, Note_on_c, 0, 55, 64
2, 45442, Note_on_c, 0, 55, 0
2, 45454, Note_on_c, 0, 74, 64
2, 45532, Note_on_c, 0, 74, 0
2, 45544, Note_on_c, 0, 79, 64
2, 45622, Note_on_c, 0, 79, 0
2, 45634, Note_on_c, 0, 52, 64
2, 45712, Note_on_c, 0, 52, 0
2, 45724, Note_on_c, 0, 53, 64
2, 45802, Note_on_c, 0, 53, 0
2, 45814, Note_on_c, 0, 77, 64
2, 45930, Note_on_c, 0, 77, 0
2, 45934, Note_on_c, 0, 67, 64
2, 45960, Note_on_c, 0, 67, 0
2, 45964, Note_on_c, 0, 69, 64
2, 45990, Note_on_c, 0, 69, 0
2, 45994, Note_on_c, 0, 71, 64
2, 46020, Note_on_c, 0, 71, 0
2, 46024, Note_on_c, 0, 72, 64
2, 46050, Note_on_c, 0, 72, 0
2, 46054, Note_on_c, 0, 74, 64
2, 46080, Note_on_c, 0, 74, 0
2, 46084, Note_on_c, 0, 75, 64
2, 46110, Note_on_c, 0, 75, 0
2, 46114, Note_on_c, 0, 74, 64
2, 46140, Note_on_c, 0, 74, 0
2, 46144, Note_on_c, 0, 72, 64
2, 46170, Note_on_c, 0, 72, 0
2, 46174, Note_on_c, 0, 70, 64
2, 46200, Note_on_c, 0, 70, 0
2, 46204, Note_on_c, 0, 69, 64
2, 46230, Note_on_c, 0, 69, 0
2, 46234, Note_on_c, 0, 67, 64
2, 46260, Note_on_c, 0, 67, 0
2, 46264, Note_on_c, 0, 66, 64
2, 46290, Note_on_c, 0, 66, 0
2, 46294, Note_on_c, 0, 74, 64
2, 46320, Note_on_c, 0, 74, 0
2, 46324, Note_on_c, 0, 76, 64
2, 46350, Note_on_c, 0, 76, 0
2, 46354, Note_on_c, 0, 78, 64
2, 46380, Note_on_c, 0, 78, 0
2, 46384, Note_on_c, 0, 79, 64
2, 46410, Note_on_c, 0, 79, 0
2, 46414, Note_on_c, 0, 81, 64
2, 46440, Note_on_c, 0, 81, 0
2, 46444, Note_on_c, 0, 79, 64
2, 46496, Note_on_c, 0, 79, 0
2, 46504, Note_on_c, 0, 67, 64
2, 46530, Note_on_c, 0, 67, 0
2, 46534, Note_on_c, 0, 72, 64
2, 46676, Note_on_c, 0, 72, 0
2, 46684, Note_on_c, 0, 69, 64
2, 46710, Note_on_c, 0, 69, 0
2, 46714, Note_on_c, 0, 74, 64
2, 46766, Note_on_c, 0, 74, 0
2, 46774, Note_on_c, 0, 72, 64
2, 46800, Note_on_c, 0, 72, 0
2, 46804, Note_on_c, 0, 70, 64
2, 46882, Note_on_c, 0, 70, 0
2, 46894, Note_on_c, 0, 75, 64
2, 47010, Note_on_c, 0, 75, 0
2, 47014, Note_on_c, 0, 69, 64
2, 47040, Note_on_c, 0, 69, 0
2, 47044, Note_on_c, 0, 70, 64
2, 47070, Note_on_c, 0, 70, 0
2, 47074, Note_on_c, 0, 72, 64
2, 47100, Note_on_c, 0, 72, 0
2, 47104, Note_on_c, 0, 74, 64
2, 47130, Note_on_c, 0, 74, 0
2, 47134, Note_on_c, 0, 75, 64
2, 47160, Note_on_c, 0, 75, 0
2, 47164, Note_on_c, 0, 74, 64
2, 47190, Note_on_c, 0, 74, 0
2, 47194, Note_on_c, 0, 79, 64
2, 47220, Note_on_c, 0, 79, 0
2, 47224, Note_on_c, 0, 77, 64
2, 47250, Note_on_c, 0, 77, 0
2, 47254, Note_on_c, 0, 75, 64
2, 47280, Note_on_c, 0, 75, 0
2, 47284, Note_on_c, 0, 74, 64
2, 47310, Note_on_c, 0, 74, 0
2, 47314, Note_on_c, 0, 72, 64
2, 47340, Note_on_c, 0, 72, 0
2, 47344, Note_on_c, 0, 70, 64
2, 47370, Note_on_c, 0, 70, 0
2, 47374, Note_on_c, 0, 69, 64
2, 47400, Note_on_c, 0, 69, 0
2, 47404, Note_on_c, 0, 70, 64
2, 47430, Note_on_c, 0, 70, 0
2, 47434, Note_on_c, 0, 72, 64
2, 47460, Note_on_c, 0, 72, 0
2, 47464, Note_on_c, 0, 78, 64
2, 47490, Note_on_c, 0, 78, 0
2, 47494, Note_on_c, 0, 81, 64
2, 47520, Note_on_c, 0, 81, 0
2, 47524, Note_on_c, 0, 74, 64
2, 47576, Note_on_c, 0, 74, 0
2, 47584, Note_on_c, 0, 70, 64
2, 47610, Note_on_c, 0, 70, 0
2, 47614, Note_on_c, 0, 72, 64
2, 47640, Note_on_c, 0, 72, 0
2, 47644, Note_on_c, 0, 74, 64
2, 47670, Note_on_c, 0, 74, 0
2, 47674, Note_on_c, 0, 75, 64
2, 47700, Note_on_c, 0, 75, 0
2, 47704, Note_on_c, 0, 75, 64
2, 47756, Note_on_c, 0, 75, 0
2, 47764, Note_on_c, 0, 69, 64
2, 47790, Note_on_c, 0, 69, 0
2, 47794, Note_on_c, 0, 70, 64
2, 47820, Note_on_c, 0, 70, 0
2, 47824, Note_on_c, 0, 72, 64
2, 47850, Note_on_c, 0, 72, 0
2, 47854, Note_on_c, 0, 74, 64
2, 47880, Note_on_c, 0, 74, 0
2, 47884, Note_on_c, 0, 74, 64
2, 47936, Note_on_c, 0, 74, 0
2, 47944, Note_on_c, 0, 67, 64
2, 47970, Note_on_c, 0, 67, 0
2, 47974, Note_on_c, 0, 69, 64
2, 48000, Note_on_c, 0, 69, 0
2, 48004, Note_on_c, 0, 70, 64
2, 48030, Note_on_c, 0, 70, 0
2, 48034, Note_on_c, 0, 72, 64
2, 48060, Note_on_c, 0, 72, 0
2, 48064, Note_on_c, 0, 72, 64
2, 48090, Note_on_c, 0, 72, 0
2, 48094, Note_on_c, 0, 66, 64
2, 48180, Note_on_c, 0, 66, 0
2, 48184, Note_on_c, 0, 67, 64
2, 48210, Note_on_c, 0, 67, 0
2, 48214, Note_on_c, 0, 69, 64
2, 48240, Note_on_c, 0, 69, 0
2, 48244, Note_on_c, 0, 70, 64
2, 48270, Note_on_c, 0, 70, 0
2, 48274, Note_on_c, 0, 72, 64
2, 48274, Note_on_c, 0, 75, 64
2, 48300, Note_on_c, 0, 75, 0
2, 48300, Note_on_c, 0, 72, 0
2, 48304, Note_on_c, 0, 70, 64
2, 48304, Note_on_c, 0, 74, 64
2, 48330, Note_on_c, 0, 74, 0
2, 48330, Note_on_c, 0, 70, 0
2, 48334, Note_on_c, 0, 69, 64
2, 48334, Note_on_c, 0, 72, 64
2, 48360, Note_on_c, 0, 72, 0
2, 48360, Note_on_c, 0, 69, 0
2, 48364, Note_on_c, 0, 67, 64
2, 48364, Note_on_c, 0, 70, 64
2, 48390, Note_on_c, 0, 70, 0
2, 48390, Note_on_c, 0, 67, 0
2, 48394, Note_on_c, 0, 66, 64
2, 48394, Note_on_c, 0, 69, 64
2, 48420, Note_on_c, 0, 69, 0
2, 48420, Note_on_c, 0, 66, 0
2, 48424, Note_on_c, 0, 67, 64
2, 48424, Note_on_c, 0, 67, 64
2, 48502, Note_on_c, 0, 67, 0
2, 48502, Note_on_c, 0, 67, 0
2, 48634, Note_on_c, 0, 82, 64
2, 48660, Note_on_c, 0, 82, 0
2, 48664, Note_on_c, 0, 81, 64
2, 48690, Note_on_c, 0, 81, 0
2, 48694, Note_on_c, 0, 79, 64
2, 48720, Note_on_c, 0, 79, 0
2, 48724, Note_on_c, 0, 77, 64
2, 48750, Note_on_c, 0, 77, 0
2, 48754, Note_on_c, 0, 75, 64
2, 48780, Note_on_c, 0, 75, 0
2, 48784, Note_on_c, 0, 74, 64
2, 48862, Note_on_c, 0, 74, 0
2, 48874, Note_on_c, 0, 75, 64
2, 48952, Note_on_c, 0, 75, 0
2, 48964, Note_on_c, 0, 77, 64
2, 49016, Note_on_c, 0, 77, 0
2, 49024, Note_on_c, 0, 74, 64
2, 49050, Note_on_c, 0, 74, 0
2, 49054, Note_on_c, 0, 75, 64
2, 49106, Note_on_c, 0, 75, 0
2, 49114, Note_on_c, 0, 79, 64
2, 49140, Note_on_c, 0, 79, 0
2, 49144, Note_on_c, 0, 72, 64
2, 49222, Note_on_c, 0, 72, 0
2, 49234, Note_on_c, 0, 77, 64
2, 49350, Note_on_c, 0, 77, 0
2, 49354, Note_on_c, 0, 75, 64
2, 49380, Note_on_c, 0, 75, 0
2, 49384, Note_on_c, 0, 74, 64
2, 49410, Note_on_c, 0, 74, 0
2, 49414, Note_on_c, 0, 75, 64
2, 49530, Note_on_c, 0, 75, 0
2, 49534, Note_on_c, 0, 74, 64
2, 49560, Note_on_c, 0, 74, 0
2, 49564, Note_on_c, 0, 72, 64
2, 49590, Note_on_c, 0, 72, 0
2, 49594, Note_on_c, 0, 74, 64
2, 49710, Note_on_c, 0, 74, 0
2, 49714, Note_on_c, 0, 75, 64
2, 49740, Note_on_c, 0, 75, 0
2, 49744, Note_on_c, 0, 77, 64
2, 49770, Note_on_c, 0, 77, 0
2, 49774, Note_on_c, 0, 79, 64
2, 49800, Note_on_c, 0, 79, 0
2, 49804, Note_on_c, 0, 81, 64
2, 49830, Note_on_c, 0, 81, 0
2, 49834, Note_on_c, 0, 82, 64
2, 49860, Note_on_c, 0, 82, 0
2, 49864, Note_on_c, 0, 70, 64
2, 49942, Note_on_c, 0, 70, 0
2, 49954, Note_on_c, 0, 69, 64
2, 50032, Note_on_c, 0, 69, 0
2, 50044, Note_on_c, 0, 65, 64
2, 50070, Note_on_c, 0, 65, 0
2, 50074, Note_on_c, 0, 69, 64
2, 50100, Note_on_c, 0, 69, 0
2, 50104, Note_on_c, 0, 72, 64
2, 50130, Note_on_c, 0, 72, 0
2, 50134, Note_on_c, 0, 75, 64
2, 50160, Note_on_c, 0, 75, 0
2, 50164, Note_on_c, 0, 74, 64
2, 50190, Note_on_c, 0, 74, 0
2, 50194, Note_on_c, 0, 75, 64
2, 50220, Note_on_c, 0, 75, 0
2, 50224, Note_on_c, 0, 65, 64
2, 50250, Note_on_c, 0, 65, 0
2, 50254, Note_on_c, 0, 69, 64
2, 50280, Note_on_c, 0, 69, 0
2, 50284, Note_on_c, 0, 70, 64
2, 50310, Note_on_c, 0, 70, 0
2, 50314, Note_on_c, 0, 74, 64
2, 50340, Note_on_c, 0, 74, 0
2, 50344, Note_on_c, 0, 72, 64
2, 50370, Note_on_c, 0, 72, 0
2, 50374, Note_on_c, 0, 74, 64
2, 50400, Note_on_c, 0, 74, 0
2, 50404, Note_on_c, 0, 63, 64
2, 50430, Note_on_c, 0, 63, 0
2, 50434, Note_on_c, 0, 67, 64
2, 50460, Note_on_c, 0, 67, 0
2, 50464, Note_on_c, 0, 69, 64
2, 50490, Note_on_c, 0, 69, 0
2, 50494, Note_on_c, 0, 72, 64
2, 50520, Note_on_c, 0, 72, 0
2, 50524, Note_on_c, 0, 70, 64
2, 50550, Note_on_c, 0, 70, 0
2, 50554, Note_on_c, 0, 72, 64
2, 50580, Note_on_c, 0, 72, 0
2, 50584, Note_on_c, 0, 63, 64
2, 50610, Note_on_c, 0, 63, 0
2, 50614, Note_on_c, 0, 62, 64
2, 50640, Note_on_c, 0, 62, 0
2, 50644, Note_on_c, 0, 65, 64
2, 50670, Note_on_c, 0, 65, 0
2, 50674, Note_on_c, 0, 70, 64
2, 50700, Note_on_c, 0, 70, 0
2, 50704, Note_on_c, 0, 74, 64
2, 50730, Note_on_c, 0, 74, 0
2, 50734, Note_on_c, 0, 75, 64
2, 50760, Note_on_c, 0, 75, 0
2, 50764, Note_on_c, 0, 77, 64
2, 50790, Note_on_c, 0, 77, 0
2, 50794, Note_on_c, 0, 75, 64
2, 50820, Note_on_c, 0, 75, 0
2, 50824, Note_on_c, 0, 77, 64
2, 50850, Note_on_c, 0, 77, 0
2, 50854, Note_on_c, 0, 67, 64
2, 50880, Note_on_c, 0, 67, 0
2, 50884, Note_on_c, 0, 71, 64
2, 50910, Note_on_c, 0, 71, 0
2, 50914, Note_on_c, 0, 74, 64
2, 50940, Note_on_c, 0, 74, 0
2, 50944, Note_on_c, 0, 75, 64
2, 50970, Note_on_c, 0, 75, 0
2, 50974, Note_on_c, 0, 74, 64
2, 51000, Note_on_c, 0, 74, 0
2, 51004, Note_on_c, 0, 75, 64
2, 51030, Note_on_c, 0, 75, 0
2, 51034, Note_on_c, 0, 67, 64
2, 51060, Note_on_c, 0, 67, 0
2, 51064, Note_on_c, 0, 71, 64
2, 51090, Note_on_c, 0, 71, 0
2, 51094, Note_on_c, 0, 72, 64
2, 51120, Note_on_c, 0, 72, 0
2, 51124, Note_on_c, 0, 74, 64
2, 51150, Note_on_c, 0, 74, 0
2, 51154, Note_on_c, 0, 72, 64
2, 51180, Note_on_c, 0, 72, 0
2, 51184, Note_on_c, 0, 74, 64
2, 51210, Note_on_c, 0, 74, 0
2, 51214, Note_on_c, 0, 65, 64
2, 51240, Note_on_c, 0, 65, 0
2, 51244, Note_on_c, 0, 68, 64
2, 51270, Note_on_c, 0, 68, 0
2, 51274, Note_on_c, 0, 71, 64
2, 51300, Note_on_c, 0, 71, 0
2, 51304, Note_on_c, 0, 71, 64
2, 51330, Note_on_c, 0, 71, 0
2, 51334, Note_on_c, 0, 72, 64
2, 51360, Note_on_c, 0, 72, 0
2, 51364, Note_on_c, 0, 67, 64
2, 51390, Note_on_c, 0, 67, 0
2, 51394, Note_on_c, 0, 63, 64
2, 51510, Note_on_c, 0, 63, 0
2, 51514, Note_on_c, 0, 75, 64
2, 51540, Note_on_c, 0, 75, 0
2, 51544, Note_on_c, 0, 74, 64
2, 51570, Note_on_c, 0, 74, 0
2, 51574, Note_on_c, 0, 72, 64
2, 51600, Note_on_c, 0, 72, 0
2, 51604, Note_on_c, 0, 70, 64
2, 51630, Note_on_c, 0, 70, 0
2, 51634, Note_on_c, 0, 68, 64
2, 51664, Note_on_c, 0, 68, 0
2, 51664, Note_on_c, 0, 77, 64
2, 51870, Note_on_c, 0, 77, 0
2, 51874, Note_on_c, 0, 70, 64
2, 51900, Note_on_c, 0, 70, 0
2, 51904, Note_on_c, 0, 74, 64
2, 51930, Note_on_c, 0, 74, 0
2, 51934, Note_on_c, 0, 75, 64
2, 51960, Note_on_c, 0, 75, 0
2, 51964, Note_on_c, 0, 77, 64
2, 51990, Note_on_c, 0, 77, 0
2, 51994, Note_on_c, 0, 74, 64
2, 52020, Note_on_c, 0, 74, 0
2, 52024, Note_on_c, 0, 75, 64
2, 52282, Note_on_c, 0, 75, 0
2, 52294, Note_on_c, 0, 74, 64
2, 52372, Note_on_c, 0, 74, 0
2, 52384, Note_on_c, 0, 79, 64
2, 52590, Note_on_c, 0, 79, 0
2, 52594, Note_on_c, 0, 72, 64
2, 52620, Note_on_c, 0, 72, 0
2, 52624, Note_on_c, 0, 76, 64
2, 52650, Note_on_c, 0, 76, 0
2, 52654, Note_on_c, 0, 77, 64
2, 52680, Note_on_c, 0, 77, 0
2, 52684, Note_on_c, 0, 79, 64
2, 52710, Note_on_c, 0, 79, 0
2, 52714, Note_on_c, 0, 76, 64
2, 52740, Note_on_c, 0, 76, 0
2, 52744, Note_on_c, 0, 77, 64
2, 53002, Note_on_c, 0, 77, 0
2, 53014, Note_on_c, 0, 75, 64
2, 53092, Note_on_c, 0, 75, 0
2, 53104, Note_on_c, 0, 74, 64
2, 53490, Note_on_c, 0, 74, 0
2, 53494, Note_on_c, 0, 75, 64
2, 53520, Note_on_c, 0, 75, 0
2, 53524, Note_on_c, 0, 74, 64
2, 53550, Note_on_c, 0, 74, 0
2, 53554, Note_on_c, 0, 72, 64
2, 53580, Note_on_c, 0, 72, 0
2, 53584, Note_on_c, 0, 74, 64
2, 53610, Note_on_c, 0, 74, 0
2, 53614, Note_on_c, 0, 70, 64
2, 53640, Note_on_c, 0, 70, 0
2, 53644, Note_on_c, 0, 72, 64
2, 53850, Note_on_c, 0, 72, 0
2, 53854, Note_on_c, 0, 73, 64
2, 53880, Note_on_c, 0, 73, 0
2, 53884, Note_on_c, 0, 72, 64
2, 53910, Note_on_c, 0, 72, 0
2, 53914, Note_on_c, 0, 70, 64
2, 53940, Note_on_c, 0, 70, 0
2, 53944, Note_on_c, 0, 72, 64
2, 53970, Note_on_c, 0, 72, 0
2, 53974, Note_on_c, 0, 69, 64
2, 54000, Note_on_c, 0, 69, 0
2, 54004, Note_on_c, 0, 70, 64
2, 54030, Note_on_c, 0, 70, 0
2, 54034, Note_on_c, 0, 72, 64
2, 54060, Note_on_c, 0, 72, 0
2, 54064, Note_on_c, 0, 73, 64
2, 54120, Note_on_c, 0, 73, 0
2, 54124, Note_on_c, 0, 72, 64
2, 54150, Note_on_c, 0, 72, 0
2, 54154, Note_on_c, 0, 70, 64
2, 54210, Note_on_c, 0, 70, 0
2, 54214, Note_on_c, 0, 69, 64
2, 54240, Note_on_c, 0, 69, 0
2, 54244, Note_on_c, 0, 67, 64
2, 54270, Note_on_c, 0, 67, 0
2, 54274, Note_on_c, 0, 69, 64
2, 54326, Note_on_c, 0, 69, 0
2, 54394, Note_on_c, 0, 57, 64
2, 54420, Note_on_c, 0, 57, 0
2, 54424, Note_on_c, 0, 58, 64
2, 54450, Note_on_c, 0, 58, 0
2, 54454, Note_on_c, 0, 60, 64
2, 54480, Note_on_c, 0, 60, 0
2, 54484, Note_on_c, 0, 62, 64
2, 54510, Note_on_c, 0, 62, 0
2, 54514, Note_on_c, 0, 63, 64
2, 54540, Note_on_c, 0, 63, 0
2, 54544, Note_on_c, 0, 65, 64
2, 54622, Note_on_c, 0, 65, 0
2, 54634, Note_on_c, 0, 63, 64
2, 54712, Note_on_c, 0, 63, 0
2, 54724, Note_on_c, 0, 62, 64
2, 54776, Note_on_c, 0, 62, 0
2, 54784, Note_on_c, 0, 67, 64
2, 54810, Note_on_c, 0, 67, 0
2, 54814, Note_on_c, 0, 66, 64
2, 54866, Note_on_c, 0, 66, 0
2, 54874, Note_on_c, 0, 72, 64
2, 54900, Note_on_c, 0, 72, 0
2, 54904, Note_on_c, 0, 70, 64
2, 54982, Note_on_c, 0, 70, 0
2, 54994, Note_on_c, 0, 68, 64
2, 55110, Note_on_c, 0, 68, 0
2, 55114, Note_on_c, 0, 67, 64
2, 55140, Note_on_c, 0, 67, 0
2, 55144, Note_on_c, 0, 69, 64
2, 55170, Note_on_c, 0, 69, 0
2, 55174, Note_on_c, 0, 71, 64
2, 55200, Note_on_c, 0, 71, 0
2, 55204, Note_on_c, 0, 72, 64
2, 55230, Note_on_c, 0, 72, 0
2, 55234, Note_on_c, 0, 74, 64
2, 55260, Note_on_c, 0, 74, 0
2, 55264, Note_on_c, 0, 75, 64
2, 55342, Note_on_c, 0, 75, 0
2, 55354, Note_on_c, 0, 74, 64
2, 55432, Note_on_c, 0, 74, 0
2, 55444, Note_on_c, 0, 72, 64
2, 55830, Note_on_c, 0, 72, 0
2, 55834, Note_on_c, 0, 69, 64
2, 55860, Note_on_c, 0, 69, 0
2, 55864, Note_on_c, 0, 70, 64
2, 55920, Note_on_c, 0, 70, 0
2, 55924, Note_on_c, 0, 69, 64
2, 55950, Note_on_c, 0, 69, 0
2, 55954, Note_on_c, 0, 75, 64
2, 55980, Note_on_c, 0, 75, 0
2, 55984, Note_on_c, 0, 74, 64
2, 56242, Note_on_c, 0, 74, 0
2, 56254, Note_on_c, 0, 80, 64
2, 56332, Note_on_c, 0, 80, 0
2, 56344, Note_on_c, 0, 79, 64
2, 56422, Note_on_c, 0, 79, 0
2, 56434, Note_on_c, 0, 77, 64
2, 56512, Note_on_c, 0, 77, 0
2, 56524, Note_on_c, 0, 75, 64
2, 56602, Note_on_c, 0, 75, 0
2, 56614, Note_on_c, 0, 76, 64
2, 56692, Note_on_c, 0, 76, 0
2, 56704, Note_on_c, 0, 77, 64
2, 56756, Note_on_c, 0, 77, 0
2, 56764, Note_on_c, 0, 74, 64
2, 56790, Note_on_c, 0, 74, 0
2, 56794, Note_on_c, 0, 76, 64
2, 56846, Note_on_c, 0, 76, 0
2, 56854, Note_on_c, 0, 79, 64
2, 56880, Note_on_c, 0, 79, 0
2, 56884, Note_on_c, 0, 72, 64
2, 57116, Note_on_c, 0, 72, 0
2, 57124, Note_on_c, 0, 70, 64
2, 57150, Note_on_c, 0, 70, 0
2, 57154, Note_on_c, 0, 69, 64
2, 57206, Note_on_c, 0, 69, 0
2, 57214, Note_on_c, 0, 75, 64
2, 57240, Note_on_c, 0, 75, 0
2, 57244, Note_on_c, 0, 74, 64
2, 57476, Note_on_c, 0, 74, 0
2, 57484, Note_on_c, 0, 75, 64
2, 57510, Note_on_c, 0, 75, 0
2, 57514, Note_on_c, 0, 74, 64
2, 57566, Note_on_c, 0, 74, 0
2, 57574, Note_on_c, 0, 80, 64
2, 57600, Note_on_c, 0, 80, 0
2, 57604, Note_on_c, 0, 79, 64
2, 57634, Note_on_c, 0, 77, 64
2, 57660, Note_on_c, 0, 77, 0
2, 57664, Note_on_c, 0, 75, 64
2, 57682, Note_on_c, 0, 79, 0
2, 57694, Note_on_c, 0, 77, 64
2, 57720, Note_on_c, 0, 75, 0
2, 57724, Note_on_c, 0, 72, 64
2, 57750, Note_on_c, 0, 72, 0
2, 57754, Note_on_c, 0, 74, 64
2, 57772, Note_on_c, 0, 77, 0
2, 57784, Note_on_c, 0, 75, 64
2, 57810, Note_on_c, 0, 74, 0
2, 57814, Note_on_c, 0, 74, 64
2, 57840, Note_on_c, 0, 74, 0
2, 57844, Note_on_c, 0, 72, 64
2, 57862, Note_on_c, 0, 75, 0
2, 57874, Note_on_c, 0, 74, 64
2, 57900, Note_on_c, 0, 72, 0
2, 57904, Note_on_c, 0, 69, 64
2, 57930, Note_on_c, 0, 69, 0
2, 57934, Note_on_c, 0, 70, 64
2, 57960, Note_on_c, 0, 70, 0
2, 57990, Note_on_c, 0, 74, 0
2, 57994, Note_on_c, 0, 74, 64
2, 58020, Note_on_c, 0, 74, 0
2, 58024, Note_on_c, 0, 72, 64
2, 58080, Note_on_c, 0, 72, 0
2, 58084, Note_on_c, 0, 69, 64
2, 58110, Note_on_c, 0, 69, 0
2, 58114, Note_on_c, 0, 70, 64
2, 58170, Note_on_c, 0, 70, 0
2, 58174, Note_on_c, 0, 70, 64
2, 58200, Note_on_c, 0, 70, 0
2, 58204, Note_on_c, 0, 69, 64
2, 58260, Note_on_c, 0, 69, 0
2, 58264, Note_on_c, 0, 65, 64
2, 58290, Note_on_c, 0, 65, 0
2, 58294, Note_on_c, 0, 67, 64
2, 58320, Note_on_c, 0, 67, 0
2, 58324, Note_on_c, 0, 65, 64
2, 58402, Note_on_c, 0, 65, 0
2, 58534, Note_on_c, 0, 53, 64
2, 58560, Note_on_c, 0, 53, 0
2, 58564, Note_on_c, 0, 55, 64
2, 58590, Note_on_c, 0, 55, 0
2, 58594, Note_on_c, 0, 57, 64
2, 58620, Note_on_c, 0, 57, 0
2, 58624, Note_on_c, 0, 58, 64
2, 58650, Note_on_c, 0, 58, 0
2, 58654, Note_on_c, 0, 60, 64
2, 58680, Note_on_c, 0, 60, 0
2, 58684, Note_on_c, 0, 62, 64
2, 58710, Note_on_c, 0, 62, 0
2, 58714, Note_on_c, 0, 63, 64
2, 58740, Note_on_c, 0, 63, 0
2, 58744, Note_on_c, 0, 62, 64
2, 58770, Note_on_c, 0, 62, 0
2, 58774, Note_on_c, 0, 60, 64
2, 58800, Note_on_c, 0, 60, 0
2, 58804, Note_on_c, 0, 58, 64
2, 58830, Note_on_c, 0, 58, 0
2, 58834, Note_on_c, 0, 57, 64
2, 58860, Note_on_c, 0, 57, 0
2, 58864, Note_on_c, 0, 58, 64
2, 58890, Note_on_c, 0, 58, 0
2, 58894, Note_on_c, 0, 68, 64
2, 58920, Note_on_c, 0, 68, 0
2, 58924, Note_on_c, 0, 67, 64
2, 58950, Note_on_c, 0, 67, 0
2, 58954, Note_on_c, 0, 65, 64
2, 58980, Note_on_c, 0, 65, 0
2, 58984, Note_on_c, 0, 63, 64
2, 59010, Note_on_c, 0, 63, 0
2, 59014, Note_on_c, 0, 62, 64
2, 59040, Note_on_c, 0, 62, 0
2, 59044, Note_on_c, 0, 63, 64
2, 59070, Note_on_c, 0, 63, 0
2, 59074, Note_on_c, 0, 58, 64
2, 59100, Note_on_c, 0, 58, 0
2, 59104, Note_on_c, 0, 60, 64
2, 59130, Note_on_c, 0, 60, 0
2, 59134, Note_on_c, 0, 62, 64
2, 59160, Note_on_c, 0, 62, 0
2, 59164, Note_on_c, 0, 63, 64
2, 59190, Note_on_c, 0, 63, 0
2, 59194, Note_on_c, 0, 65, 64
2, 59220, Note_on_c, 0, 65, 0
2, 59224, Note_on_c, 0, 67, 64
2, 59250, Note_on_c, 0, 67, 0
2, 59254, Note_on_c, 0, 63, 64
2, 59280, Note_on_c, 0, 63, 0
2, 59284, Note_on_c, 0, 65, 64
2, 59310, Note_on_c, 0, 65, 0
2, 59314, Note_on_c, 0, 67, 64
2, 59340, Note_on_c, 0, 67, 0
2, 59344, Note_on_c, 0, 69, 64
2, 59370, Note_on_c, 0, 69, 0
2, 59374, Note_on_c, 0, 70, 64
2, 59400, Note_on_c, 0, 70, 0
2, 59404, Note_on_c, 0, 72, 64
2, 59430, Note_on_c, 0, 72, 0
2, 59434, Note_on_c, 0, 74, 64
2, 59460, Note_on_c, 0, 74, 0
2, 59464, Note_on_c, 0, 72, 64
2, 59490, Note_on_c, 0, 72, 0
2, 59494, Note_on_c, 0, 70, 64
2, 59520, Note_on_c, 0, 70, 0
2, 59524, Note_on_c, 0, 69, 64
2, 59550, Note_on_c, 0, 69, 0
2, 59554, Note_on_c, 0, 67, 64
2, 59580, Note_on_c, 0, 67, 0
2, 59584, Note_on_c, 0, 69, 64
2, 59610, Note_on_c, 0, 69, 0
2, 59614, Note_on_c, 0, 79, 64
2, 59640, Note_on_c, 0, 79, 0
2, 59644, Note_on_c, 0, 77, 64
2, 59670, Note_on_c, 0, 77, 0
2, 59674, Note_on_c, 0, 75, 64
2, 59700, Note_on_c, 0, 75, 0
2, 59704, Note_on_c, 0, 74, 64
2, 59730, Note_on_c, 0, 74, 0
2, 59734, Note_on_c, 0, 72, 64
2, 59760, Note_on_c, 0, 72, 0
2, 59764, Note_on_c, 0, 74, 64
2, 59790, Note_on_c, 0, 74, 0
2, 59794, Note_on_c, 0, 69, 64
2, 59820, Note_on_c, 0, 69, 0
2, 59824, Note_on_c, 0, 70, 64
2, 59850, Note_on_c, 0, 70, 0
2, 59854, Note_on_c, 0, 72, 64
2, 59880, Note_on_c, 0, 72, 0
2, 59884, Note_on_c, 0, 74, 64
2, 59910, Note_on_c, 0, 74, 0
2, 59914, Note_on_c, 0, 75, 64
2, 59940, Note_on_c, 0, 75, 0
2, 59944, Note_on_c, 0, 77, 64
2, 59970, Note_on_c, 0, 77, 0
2, 59974, Note_on_c, 0, 74, 64
2, 60000, Note_on_c, 0, 74, 0
2, 60004, Note_on_c, 0, 75, 64
2, 60030, Note_on_c, 0, 75, 0
2, 60034, Note_on_c, 0, 77, 64
2, 60060, Note_on_c, 0, 77, 0
2, 60064, Note_on_c, 0, 79, 64
2, 60090, Note_on_c, 0, 79, 0
2, 60094, Note_on_c, 0, 80, 64
2, 60120, Note_on_c, 0, 80, 0
2, 60124, Note_on_c, 0, 82, 64
2, 60150, Note_on_c, 0, 82, 0
2, 60154, Note_on_c, 0, 84, 64
2, 60180, Note_on_c, 0, 84, 0
2, 60184, Note_on_c, 0, 82, 64
2, 60210, Note_on_c, 0, 82, 0
2, 60214, Note_on_c, 0, 80, 64
2, 60240, Note_on_c, 0, 80, 0
2, 60244, Note_on_c, 0, 79, 64
2, 60270, Note_on_c, 0, 79, 0
2, 60274, Note_on_c, 0, 77, 64
2, 60300, Note_on_c, 0, 77, 0
2, 60304, Note_on_c, 0, 79, 64
2, 60330, Note_on_c, 0, 79, 0
2, 60334, Note_on_c, 0, 80, 64
2, 60360, Note_on_c, 0, 80, 0
2, 60364, Note_on_c, 0, 79, 64
2, 60390, Note_on_c, 0, 79, 0
2, 60394, Note_on_c, 0, 77, 64
2, 60420, Note_on_c, 0, 77, 0
2, 60424, Note_on_c, 0, 75, 64
2, 60450, Note_on_c, 0, 75, 0
2, 60454, Note_on_c, 0, 74, 64
2, 60480, Note_on_c, 0, 74, 0
2, 60484, Note_on_c, 0, 75, 64
2, 60870, Note_on_c, 0, 75, 0
2, 60874, Note_on_c, 0, 65, 64
2, 60900, Note_on_c, 0, 65, 0
2, 60904, Note_on_c, 0, 64, 64
2, 60930, Note_on_c, 0, 64, 0
2, 60934, Note_on_c, 0, 65, 64
2, 60960, Note_on_c, 0, 65, 0
2, 60964, Note_on_c, 0, 67, 64
2, 60990, Note_on_c, 0, 67, 0
2, 60994, Note_on_c, 0, 69, 64
2, 61020, Note_on_c, 0, 69, 0
2, 61024, Note_on_c, 0, 70, 64
2, 61050, Note_on_c, 0, 70, 0
2, 61054, Note_on_c, 0, 65, 64
2, 61080, Note_on_c, 0, 65, 0
2, 61084, Note_on_c, 0, 64, 64
2, 61110, Note_on_c, 0, 64, 0
2, 61114, Note_on_c, 0, 65, 64
2, 61140, Note_on_c, 0, 65, 0
2, 61144, Note_on_c, 0, 69, 64
2, 61170, Note_on_c, 0, 69, 0
2, 61174, Note_on_c, 0, 70, 64
2, 61200, Note_on_c, 0, 70, 0
2, 61204, Note_on_c, 0, 72, 64
2, 61230, Note_on_c, 0, 72, 0
2, 61234, Note_on_c, 0, 65, 64
2, 61260, Note_on_c, 0, 65, 0
2, 61264, Note_on_c, 0, 64, 64
2, 61290, Note_on_c, 0, 64, 0
2, 61294, Note_on_c, 0, 65, 64
2, 61320, Note_on_c, 0, 65, 0
2, 61324, Note_on_c, 0, 70, 64
2, 61350, Note_on_c, 0, 70, 0
2, 61354, Note_on_c, 0, 72, 64
2, 61380, Note_on_c, 0, 72, 0
2, 61384, Note_on_c, 0, 73, 64
2, 61410, Note_on_c, 0, 73, 0
2, 61414, Note_on_c, 0, 70, 64
2, 61440, Note_on_c, 0, 70, 0
2, 61444, Note_on_c, 0, 72, 64
2, 61470, Note_on_c, 0, 72, 0
2, 61474, Note_on_c, 0, 73, 64
2, 61500, Note_on_c, 0, 73, 0
2, 61504, Note_on_c, 0, 75, 64
2, 61530, Note_on_c, 0, 75, 0
2, 61534, Note_on_c, 0, 77, 64
2, 61560, Note_on_c, 0, 77, 0
2, 61564, Note_on_c, 0, 78, 64
2, 61590, Note_on_c, 0, 78, 0
2, 61594, Note_on_c, 0, 75, 64
2, 61620, Note_on_c, 0, 75, 0
2, 61624, Note_on_c, 0, 77, 64
2, 61650, Note_on_c, 0, 77, 0
2, 61654, Note_on_c, 0, 78, 64
2, 61680, Note_on_c, 0, 78, 0
2, 61684, Note_on_c, 0, 80, 64
2, 61710, Note_on_c, 0, 80, 0
2, 61714, Note_on_c, 0, 82, 64
2, 61740, Note_on_c, 0, 82, 0
2, 61744, Note_on_c, 0, 83, 64
2, 61770, Note_on_c, 0, 83, 0
2, 61774, Note_on_c, 0, 82, 64
2, 61800, Note_on_c, 0, 82, 0
2, 61804, Note_on_c, 0, 80, 64
2, 61830, Note_on_c, 0, 80, 0
2, 61834, Note_on_c, 0, 78, 64
2, 61860, Note_on_c, 0, 78, 0
2, 61864, Note_on_c, 0, 77, 64
2, 61890, Note_on_c, 0, 77, 0
2, 61894, Note_on_c, 0, 75, 64
2, 61920, Note_on_c, 0, 75, 0
2, 61924, Note_on_c, 0, 81, 64
2, 61950, Note_on_c, 0, 81, 0
2, 61954, Note_on_c, 0, 84, 64
2, 61980, Note_on_c, 0, 84, 0
2, 61984, Note_on_c, 0, 75, 64
2, 62010, Note_on_c, 0, 75, 0
2, 62014, Note_on_c, 0, 78, 64
2, 62040, Note_on_c, 0, 78, 0
2, 62044, Note_on_c, 0, 77, 64
2, 62070, Note_on_c, 0, 77, 0
2, 62074, Note_on_c, 0, 75, 64
2, 62100, Note_on_c, 0, 75, 0
2, 62104, Note_on_c, 0, 77, 64
2, 62130, Note_on_c, 0, 77, 0
2, 62134, Note_on_c, 0, 82, 64
2, 62160, Note_on_c, 0, 82, 0
2, 62164, Note_on_c, 0, 74, 64
2, 62190, Note_on_c, 0, 74, 0
2, 62194, Note_on_c, 0, 75, 64
2, 62220, Note_on_c, 0, 75, 0
2, 62224, Note_on_c, 0, 77, 64
2, 62250, Note_on_c, 0, 77, 0
2, 62254, Note_on_c, 0, 79, 64
2, 62280, Note_on_c, 0, 79, 0
2, 62284, Note_on_c, 0, 77, 64
2, 62310, Note_on_c, 0, 77, 0
2, 62314, Note_on_c, 0, 75, 64
2, 62340, Note_on_c, 0, 75, 0
2, 62344, Note_on_c, 0, 74, 64
2, 62370, Note_on_c, 0, 74, 0
2, 62374, Note_on_c, 0, 72, 64
2, 62400, Note_on_c, 0, 72, 0
2, 62404, Note_on_c, 0, 82, 64
2, 62430, Note_on_c, 0, 82, 0
2, 62434, Note_on_c, 0, 81, 64
2, 62460, Note_on_c, 0, 81, 0
2, 62464, Note_on_c, 0, 82, 64
2, 62490, Note_on_c, 0, 82, 0
2, 62494, Note_on_c, 0, 77, 64
2, 62520, Note_on_c, 0, 77, 0
2, 62524, Note_on_c, 0, 74, 64
2, 62550, Note_on_c, 0, 74, 0
2, 62554, Note_on_c, 0, 70, 64
2, 62632, Note_on_c, 0, 70, 0
2, 62632, End_track
3, 0, Start_track
3, 0, MIDI_port, 0
3, 0, Title_t, "Prelude in B flat major"
3, 0, Program_c, 1, 6
3, 214, Note_on_c, 1, 70, 64
3, 240, Note_on_c, 1, 70, 0
3, 244, Note_on_c, 1, 69, 64
3, 270, Note_on_c, 1, 69, 0
3, 274, Note_on_c, 1, 67, 64
3, 300, Note_on_c, 1, 67, 0
3, 304, Note_on_c, 1, 65, 64
3, 330, Note_on_c, 1, 65, 0
3, 334, Note_on_c, 1, 63, 64
3, 360, Note_on_c, 1, 63, 0
3, 364, Note_on_c, 1, 62, 64
3, 416, Note_on_c, 1, 62, 0
3, 424, Note_on_c, 1, 65, 64
3, 450, Note_on_c, 1, 65, 0
3, 454, Note_on_c, 1, 70, 64
3, 506, Note_on_c, 1, 70, 0
3, 514, Note_on_c, 1, 75, 64
3, 540, Note_on_c, 1, 75, 0
3, 544, Note_on_c, 1, 75, 64
3, 660, Note_on_c, 1, 75, 0
3, 664, Note_on_c, 1, 74, 64
3, 690, Note_on_c, 1, 74, 0
3, 694, Note_on_c, 1, 72, 64
3, 720, Note_on_c, 1, 72, 0
3, 724, Note_on_c, 1, 74, 64
3, 802, Note_on_c, 1, 74, 0
3, 814, Note_on_c, 1, 72, 64
3, 892, Note_on_c, 1, 72, 0
3, 904, Note_on_c, 1, 70, 64
3, 930, Note_on_c, 1, 70, 0
3, 934, Note_on_c, 1, 62, 64
3, 960, Note_on_c, 1, 62, 0
3, 964, Note_on_c, 1, 63, 64
3, 990, Note_on_c, 1, 63, 0
3, 994, Note_on_c, 1, 65, 64
3, 1020, Note_on_c, 1, 65, 0
3, 1024, Note_on_c, 1, 67, 64
3, 1050, Note_on_c, 1, 67, 0
3, 1054, Note_on_c, 1, 69, 64
3, 1080, Note_on_c, 1, 69, 0
3, 1084, Note_on_c, 1, 70, 64
3, 1290, Note_on_c, 1, 70, 0
3, 1294, Note_on_c, 1, 69, 64
3, 1320, Note_on_c, 1, 69, 0
3, 1324, Note_on_c, 1, 67, 64
3, 1350, Note_on_c, 1, 67, 0
3, 1354, Note_on_c, 1, 69, 64
3, 1470, Note_on_c, 1, 69, 0
3, 1654, Note_on_c, 1, 65, 64
3, 1680, Note_on_c, 1, 65, 0
3, 1684, Note_on_c, 1, 67, 64
3, 1710, Note_on_c, 1, 67, 0
3, 1714, Note_on_c, 1, 69, 64
3, 1740, Note_on_c, 1, 69, 0
3, 1744, Note_on_c, 1, 70, 64
3, 1770, Note_on_c, 1, 70, 0
3, 1774, Note_on_c, 1, 72, 64
3, 1800, Note_on_c, 1, 72, 0
3, 1804, Note_on_c, 1, 74, 64
3, 1856, Note_on_c, 1, 74, 0
3, 1864, Note_on_c, 1, 67, 64
3, 1890, Note_on_c, 1, 67, 0
3, 1894, Note_on_c, 1, 66, 64
3, 1946, Note_on_c, 1, 66, 0
3, 1954, Note_on_c, 1, 69, 64
3, 2010, Note_on_c, 1, 69, 0
3, 2014, Note_on_c, 1, 62, 64
3, 2040, Note_on_c, 1, 62, 0
3, 2044, Note_on_c, 1, 66, 64
3, 2070, Note_on_c, 1, 66, 0
3, 2074, Note_on_c, 1, 67, 64
3, 2280, Note_on_c, 1, 67, 0
3, 2284, Note_on_c, 1, 60, 64
3, 2310, Note_on_c, 1, 60, 0
3, 2314, Note_on_c, 1, 64, 64
3, 2340, Note_on_c, 1, 64, 0
3, 2344, Note_on_c, 1, 65, 64
3, 2782, Note_on_c, 1, 65, 0
3, 2794, Note_on_c, 1, 64, 64
3, 2872, Note_on_c, 1, 64, 0
3, 6154, Note_on_c, 1, 60, 64
3, 6180, Note_on_c, 1, 60, 0
3, 6184, Note_on_c, 1, 58, 64
3, 6210, Note_on_c, 1, 58, 0
3, 6214, Note_on_c, 1, 57, 64
3, 6240, Note_on_c, 1, 57, 0
3, 6244, Note_on_c, 1, 55, 64
3, 6270, Note_on_c, 1, 55, 0
3, 6274, Note_on_c, 1, 53, 64
3, 6300, Note_on_c, 1, 53, 0
3, 6304, Note_on_c, 1, 52, 64
3, 6356, Note_on_c, 1, 52, 0
3, 6364, Note_on_c, 1, 55, 64
3, 6390, Note_on_c, 1, 55, 0
3, 6394, Note_on_c, 1, 60, 64
3, 6562, Note_on_c, 1, 60, 0
3, 6574, Note_on_c, 1, 53, 64
3, 6626, Note_on_c, 1, 53, 0
3, 6634, Note_on_c, 1, 58, 64
3, 6660, Note_on_c, 1, 58, 0
3, 6664, Note_on_c, 1, 67, 64
3, 6922, Note_on_c, 1, 67, 0
3, 6934, Note_on_c, 1, 65, 64
3, 6986, Note_on_c, 1, 65, 0
3, 6994, Note_on_c, 1, 62, 64
3, 7020, Note_on_c, 1, 62, 0
3, 7024, Note_on_c, 1, 70, 64
3, 7189, Note_on_c, 1, 70, 0
3, 7204, Note_on_c, 1, 72, 64
3, 7256, Note_on_c, 1, 72, 0
3, 7414, Note_on_c, 1, 65, 64
3, 7440, Note_on_c, 1, 65, 0
3, 7444, Note_on_c, 1, 64, 64
3, 7470, Note_on_c, 1, 64, 0
3, 7474, Note_on_c, 1, 62, 64
3, 7500, Note_on_c, 1, 62, 0
3, 7504, Note_on_c, 1, 60, 64
3, 7530, Note_on_c, 1, 60, 0
3, 7534, Note_on_c, 1, 58, 64
3, 7560, Note_on_c, 1, 58, 0
3, 7564, Note_on_c, 1, 57, 64
3, 7616, Note_on_c, 1, 57, 0
3, 7654, Note_on_c, 1, 65, 64
3, 7770, Note_on_c, 1, 65, 0
3, 7774, Note_on_c, 1, 64, 64
3, 7800, Note_on_c, 1, 64, 0
3, 7804, Note_on_c, 1, 62, 64
3, 7830, Note_on_c, 1, 62, 0
3, 7834, Note_on_c, 1, 60, 64
3, 7860, Note_on_c, 1, 60, 0
3, 7864, Note_on_c, 1, 58, 64
3, 7890, Note_on_c, 1, 58, 0
3, 7894, Note_on_c, 1, 57, 64
3, 7920, Note_on_c, 1, 57, 0
3, 7924, Note_on_c, 1, 62, 64
3, 8130, Note_on_c, 1, 62, 0
3, 8134, Note_on_c, 1, 60, 64
3, 8160, Note_on_c, 1, 60, 0
3, 8164, Note_on_c, 1, 62, 64
3, 8190, Note_on_c, 1, 62, 0
3, 8194, Note_on_c, 1, 64, 64
3, 8220, Note_on_c, 1, 64, 0
3, 8224, Note_on_c, 1, 65, 64
3, 8250, Note_on_c, 1, 65, 0
3, 8254, Note_on_c, 1, 67, 64
3, 8280, Note_on_c, 1, 67, 0
3, 8284, Note_on_c, 1, 69, 64
3, 8336, Note_on_c, 1, 69, 0
3, 8674, Note_on_c, 1, 77, 64
3, 8700, Note_on_c, 1, 77, 0
3, 8704, Note_on_c, 1, 76, 64
3, 8730, Note_on_c, 1, 76, 0
3, 8734, Note_on_c, 1, 74, 64
3, 8760, Note_on_c, 1, 74, 0
3, 8764, Note_on_c, 1, 72, 64
3, 8790, Note_on_c, 1, 72, 0
3, 8794, Note_on_c, 1, 70, 64
3, 8820, Note_on_c, 1, 70, 0
3, 8824, Note_on_c, 1, 69, 64
3, 9030, Note_on_c, 1, 69, 0
3, 9034, Note_on_c, 1, 72, 64
3, 9060, Note_on_c, 1, 72, 0
3, 9064, Note_on_c, 1, 70, 64
3, 9090, Note_on_c, 1, 70, 0
3, 9094, Note_on_c, 1, 69, 64
3, 9120, Note_on_c, 1, 69, 0
3, 9124, Note_on_c, 1, 67, 64
3, 9150, Note_on_c, 1, 67, 0
3, 9154, Note_on_c, 1, 65, 64
3, 9180, Note_on_c, 1, 65, 0
3, 9184, Note_on_c, 1, 64, 64
3, 9349, Note_on_c, 1, 64, 0
3, 9424, Note_on_c, 1, 60, 64
3, 9450, Note_on_c, 1, 60, 0
3, 9454, Note_on_c, 1, 65, 64
3, 9532, Note_on_c, 1, 65, 0
3, 9604, Note_on_c, 1, 50, 64
3, 9630, Note_on_c, 1, 50, 0
3, 9634, Note_on_c, 1, 53, 64
3, 9686, Note_on_c, 1, 53, 0
3, 9694, Note_on_c, 1, 56, 64
3, 9720, Note_on_c, 1, 56, 0
3, 9724, Note_on_c, 1, 55, 64
3, 9866, Note_on_c, 1, 55, 0
3, 11734, Note_on_c, 1, 70, 64
3, 11760, Note_on_c, 1, 70, 0
3, 11764, Note_on_c, 1, 69, 64
3, 11790, Note_on_c, 1, 69, 0
3, 11794, Note_on_c, 1, 67, 64
3, 11820, Note_on_c, 1, 67, 0
3, 11824, Note_on_c, 1, 65, 64
3, 11850, Note_on_c, 1, 65, 0
3, 11854, Note_on_c, 1, 63, 64
3, 11880, Note_on_c, 1, 63, 0
3, 11884, Note_on_c, 1, 62, 64
3, 11936, Note_on_c, 1, 62, 0
3, 11944, Note_on_c, 1, 65, 64
3, 11970, Note_on_c, 1, 65, 0
3, 11974, Note_on_c, 1, 70, 64
3, 12026, Note_on_c, 1, 70, 0
3, 12034, Note_on_c, 1, 75, 64
3, 12060, Note_on_c, 1, 75, 0
3, 12064, Note_on_c, 1, 75, 64
3, 12180, Note_on_c, 1, 75, 0
3, 12184, Note_on_c, 1, 74, 64
3, 12210, Note_on_c, 1, 74, 0
3, 12214, Note_on_c, 1, 72, 64
3, 12240, Note_on_c, 1, 72, 0
3, 12244, Note_on_c, 1, 74, 64
3, 12322, Note_on_c, 1, 74, 0
3, 12334, Note_on_c, 1, 72, 64
3, 12412, Note_on_c, 1, 72, 0
3, 12424, Note_on_c, 1, 70, 64
3, 12450, Note_on_c, 1, 70, 0
3, 12454, Note_on_c, 1, 62, 64
3, 12480, Note_on_c, 1, 62, 0
3, 12484, Note_on_c, 1, 63, 64
3, 12510, Note_on_c, 1, 63, 0
3, 12514, Note_on_c, 1, 65, 64
3, 12540, Note_on_c, 1, 65, 0
3, 12544, Note_on_c, 1, 67, 64
3, 12570, Note_on_c, 1, 67, 0
3, 12574, Note_on_c, 1, 69, 64
3, 12600, Note_on_c, 1, 69, 0
3, 12604, Note_on_c, 1, 70, 64
3, 12810, Note_on_c, 1, 70, 0
3, 12814, Note_on_c, 1, 69, 64
3, 12840, Note_on_c, 1, 69, 0
3, 12844, Note_on_c, 1, 67, 64
3, 12870, Note_on_c, 1, 67, 0
3, 12874, Note_on_c, 1, 69, 64
3, 12990, Note_on_c, 1, 69, 0
3, 13174, Note_on_c, 1, 65, 64
3, 13200, Note_on_c, 1, 65, 0
3, 13204, Note_on_c, 1, 67, 64
3, 13230, Note_on_c, 1, 67, 0
3, 13234, Note_on_c, 1, 69, 64
3, 13260, Note_on_c, 1, 69, 0
3, 13264, Note_on_c, 1, 70, 64
3, 13290, Note_on_c, 1, 70, 0
3, 13294, Note_on_c, 1, 72, 64
3, 13320, Note_on_c, 1, 72, 0
3, 13324, Note_on_c, 1, 74, 64
3, 13376, Note_on_c, 1, 74, 0
3, 13384, Note_on_c, 1, 67, 64
3, 13410, Note_on_c, 1, 67, 0
3, 13414, Note_on_c, 1, 66, 64
3, 13466, Note_on_c, 1, 66, 0
3, 13474, Note_on_c, 1, 69, 64
3, 13530, Note_on_c, 1, 69, 0
3, 13534, Note_on_c, 1, 62, 64
3, 13560, Note_on_c, 1, 62, 0
3, 13564, Note_on_c, 1, 66, 64
3, 13590, Note_on_c, 1, 66, 0
3, 13594, Note_on_c, 1, 67, 64
3, 13800, Note_on_c, 1, 67, 0
3, 13804, Note_on_c, 1, 60, 64
3, 13830, Note_on_c, 1, 60, 0
3, 13834, Note_on_c, 1, 64, 64
3, 13860, Note_on_c, 1, 64, 0
3, 13864, Note_on_c, 1, 65, 64
3, 14302, Note_on_c, 1, 65, 0
3, 14314, Note_on_c, 1, 64, 64
3, 14392, Note_on_c, 1, 64, 0
3, 17674, Note_on_c, 1, 60, 64
3, 17700, Note_on_c, 1, 60, 0
3, 17704, Note_on_c, 1, 58, 64
3, 17730, Note_on_c, 1, 58, 0
3, 17734, Note_on_c, 1, 57, 64
3, 17760, Note_on_c, 1, 57, 0
3, 17764, Note_on_c, 1, 55, 64
3, 17790, Note_on_c, 1, 55, 0
3, 17794, Note_on_c, 1, 53, 64
3, 17820, Note_on_c, 1, 53, 0
3, 17824, Note_on_c, 1, 52, 64
3, 17876, Note_on_c, 1, 52, 0
3, 17884, Note_on_c, 1, 55, 64
3, 17910, Note_on_c, 1, 55, 0
3, 17914, Note_on_c, 1, 60, 64
3, 18082, Note_on_c, 1, 60, 0
3, 18094, Note_on_c, 1, 53, 64
3, 18146, Note_on_c, 1, 53, 0
3, 18154, Note_on_c, 1, 58, 64
3, 18180, Note_on_c, 1, 58, 0
3, 18184, Note_on_c, 1, 67, 64
3, 18442, Note_on_c, 1, 67, 0
3, 18454, Note_on_c, 1, 65, 64
3, 18506, Note_on_c, 1, 65, 0
3, 18514, Note_on_c, 1, 62, 64
3, 18540, Note_on_c, 1, 62, 0
3, 18544, Note_on_c, 1, 70, 64
3, 18709, Note_on_c, 1, 70, 0
3, 18724, Note_on_c, 1, 72, 64
3, 18776, Note_on_c, 1, 72, 0
3, 18934, Note_on_c, 1, 65, 64
3, 18960, Note_on_c, 1, 65, 0
3, 18964, Note_on_c, 1, 64, 64
3, 18990, Note_on_c, 1, 64, 0
3, 18994, Note_on_c, 1, 62, 64
3, 19020, Note_on_c, 1, 62, 0
3, 19024, Note_on_c, 1, 60, 64
3, 19050, Note_on_c, 1, 60, 0
3, 19054, Note_on_c, 1, 58, 64
3, 19080, Note_on_c, 1, 58, 0
3, 19084, Note_on_c, 1, 57, 64
3, 19136, Note_on_c, 1, 57, 0
3, 19174, Note_on_c, 1, 65, 64
3, 19290, Note_on_c, 1, 65, 0
3, 19294, Note_on_c, 1, 64, 64
3, 19320, Note_on_c, 1, 64, 0
3, 19324, Note_on_c, 1, 62, 64
3, 19350, Note_on_c, 1, 62, 0
3, 19354, Note_on_c, 1, 60, 64
3, 19380, Note_on_c, 1, 60, 0
3, 19384, Note_on_c, 1, 58, 64
3, 19410, Note_on_c, 1, 58, 0
3, 19414, Note_on_c, 1, 57, 64
3, 19440, Note_on_c, 1, 57, 0
3, 19444, Note_on_c, 1, 62, 64
3, 19650, Note_on_c, 1, 62, 0
3, 19654, Note_on_c, 1, 60, 64
3, 19680, Note_on_c, 1, 60, 0
3, 19684, Note_on_c, 1, 62, 64
3, 19710, Note_on_c, 1, 62, 0
3, 19714, Note_on_c, 1, 64, 64
3, 19740, Note_on_c, 1, 64, 0
3, 19744, Note_on_c, 1, 65, 64
3, 19770, Note_on_c, 1, 65, 0
3, 19774, Note_on_c, 1, 67, 64
3, 19800, Note_on_c, 1, 67, 0
3, 19804, Note_on_c, 1, 69, 64
3, 19856, Note_on_c, 1, 69, 0
3, 20194, Note_on_c, 1, 77, 64
3, 20220, Note_on_c, 1, 77, 0
3, 20224, Note_on_c, 1, 76, 64
3, 20250, Note_on_c, 1, 76, 0
3, 20254, Note_on_c, 1, 74, 64
3, 20280, Note_on_c, 1, 74, 0
3, 20284, Note_on_c, 1, 72, 64
3, 20310, Note_on_c, 1, 72, 0
3, 20314, Note_on_c, 1, 70, 64
3, 20340, Note_on_c, 1, 70, 0
3, 20344, Note_on_c, 1, 69, 64
3, 20550, Note_on_c, 1, 69, 0
3, 20554, Note_on_c, 1, 72, 64
3, 20580, Note_on_c, 1, 72, 0
3, 20584, Note_on_c, 1, 70, 64
3, 20610, Note_on_c, 1, 70, 0
3, 20614, Note_on_c, 1, 69, 64
3, 20640, Note_on_c, 1, 69, 0
3, 20644, Note_on_c, 1, 67, 64
3, 20670, Note_on_c, 1, 67, 0
3, 20674, Note_on_c, 1, 65, 64
3, 20700, Note_on_c, 1, 65, 0
3, 20704, Note_on_c, 1, 64, 64
3, 20869, Note_on_c, 1, 64, 0
3, 20944, Note_on_c, 1, 60, 64
3, 20970, Note_on_c, 1, 60, 0
3, 20974, Note_on_c, 1, 65, 64
3, 21052, Note_on_c, 1, 65, 0
3, 21124, Note_on_c, 1, 50, 64
3, 21150, Note_on_c, 1, 50, 0
3, 21154, Note_on_c, 1, 53, 64
3, 21206, Note_on_c, 1, 53, 0
3, 21214, Note_on_c, 1, 56, 64
3, 21240, Note_on_c, 1, 56, 0
3, 21244, Note_on_c, 1, 55, 64
3, 21386, Note_on_c, 1, 55, 0
3, 26794, Note_on_c, 1, 63, 64
3, 26820, Note_on_c, 1, 63, 0
3, 26824, Note_on_c, 1, 62, 64
3, 27030, Note_on_c, 1, 62, 0
3, 27034, Note_on_c, 1, 74, 64
3, 27060, Note_on_c, 1, 74, 0
3, 27064, Note_on_c, 1, 72, 64
3, 27090, Note_on_c, 1, 72, 0
3, 27094, Note_on_c, 1, 70, 64
3, 27120, Note_on_c, 1, 70, 0
3, 27124, Note_on_c, 1, 69, 64
3, 27150, Note_on_c, 1, 69, 0
3, 27154, Note_on_c, 1, 67, 64
3, 27180, Note_on_c, 1, 67, 0
3, 27184, Note_on_c, 1, 65, 64
3, 27300, Note_on_c, 1, 65, 0
3, 27574, Note_on_c, 1, 67, 64
3, 27600, Note_on_c, 1, 67, 0
3, 27604, Note_on_c, 1, 65, 64
3, 27630, Note_on_c, 1, 65, 0
3, 27634, Note_on_c, 1, 63, 64
3, 27660, Note_on_c, 1, 63, 0
3, 27664, Note_on_c, 1, 62, 64
3, 27690, Note_on_c, 1, 62, 0
3, 27694, Note_on_c, 1, 60, 64
3, 27720, Note_on_c, 1, 60, 0
3, 27724, Note_on_c, 1, 58, 64
3, 27776, Note_on_c, 1, 58, 0
3, 27784, Note_on_c, 1, 62, 64
3, 27810, Note_on_c, 1, 62, 0
3, 27814, Note_on_c, 1, 67, 64
3, 27930, Note_on_c, 1, 67, 0
3, 27934, Note_on_c, 1, 65, 64
3, 27960, Note_on_c, 1, 65, 0
3, 27964, Note_on_c, 1, 63, 64
3, 27990, Note_on_c, 1, 63, 0
3, 27994, Note_on_c, 1, 62, 64
3, 28020, Note_on_c, 1, 62, 0
3, 28024, Note_on_c, 1, 60, 64
3, 28050, Note_on_c, 1, 60, 0
3, 28054, Note_on_c, 1, 58, 64
3, 28080, Note_on_c, 1, 58, 0
3, 28084, Note_on_c, 1, 63, 64
3, 28290, Note_on_c, 1, 63, 0
3, 28294, Note_on_c, 1, 63, 64
3, 28320, Note_on_c, 1, 63, 0
3, 28324, Note_on_c, 1, 62, 64
3, 28350, Note_on_c, 1, 62, 0
3, 28354, Note_on_c, 1, 60, 64
3, 28380, Note_on_c, 1, 60, 0
3, 28384, Note_on_c, 1, 58, 64
3, 28410, Note_on_c, 1, 58, 0
3, 28414, Note_on_c, 1, 57, 64
3, 28440, Note_on_c, 1, 57, 0
3, 28444, Note_on_c, 1, 55, 64
3, 28470, Note_on_c, 1, 55, 0
3, 28474, Note_on_c, 1, 54, 64
3, 28500, Note_on_c, 1, 54, 0
3, 28504, Note_on_c, 1, 55, 64
3, 28530, Note_on_c, 1, 55, 0
3, 28534, Note_on_c, 1, 57, 64
3, 28560, Note_on_c, 1, 57, 0
3, 28564, Note_on_c, 1, 58, 64
3, 28590, Note_on_c, 1, 58, 0
3, 28594, Note_on_c, 1, 60, 64
3, 28650, Note_on_c, 1, 60, 0
3, 28654, Note_on_c, 1, 58, 64
3, 28680, Note_on_c, 1, 58, 0
3, 28684, Note_on_c, 1, 57, 64
3, 28710, Note_on_c, 1, 57, 0
3, 28714, Note_on_c, 1, 58, 64
3, 28766, Note_on_c, 1, 58, 0
3, 29014, Note_on_c, 1, 70, 64
3, 29040, Note_on_c, 1, 70, 0
3, 29044, Note_on_c, 1, 68, 64
3, 29070, Note_on_c, 1, 68, 0
3, 29074, Note_on_c, 1, 67, 64
3, 29100, Note_on_c, 1, 67, 0
3, 29104, Note_on_c, 1, 65, 64
3, 29130, Note_on_c, 1, 65, 0
3, 29134, Note_on_c, 1, 63, 64
3, 29160, Note_on_c, 1, 63, 0
3, 29164, Note_on_c, 1, 62, 64
3, 29216, Note_on_c, 1, 62, 0
3, 29224, Note_on_c, 1, 65, 64
3, 29250, Note_on_c, 1, 65, 0
3, 29254, Note_on_c, 1, 70, 64
3, 29396, Note_on_c, 1, 70, 0
3, 29404, Note_on_c, 1, 69, 64
3, 29486, Note_on_c, 1, 69, 0
3, 29494, Note_on_c, 1, 68, 64
3, 29520, Note_on_c, 1, 68, 0
3, 29524, Note_on_c, 1, 67, 64
3, 29640, Note_on_c, 1, 67, 0
3, 29644, Note_on_c, 1, 72, 64
3, 29670, Note_on_c, 1, 72, 0
3, 29674, Note_on_c, 1, 69, 64
3, 29700, Note_on_c, 1, 69, 0
3, 29704, Note_on_c, 1, 65, 64
3, 29820, Note_on_c, 1, 65, 0
3, 29824, Note_on_c, 1, 67, 64
3, 29850, Note_on_c, 1, 67, 0
3, 29854, Note_on_c, 1, 69, 64
3, 29880, Note_on_c, 1, 69, 0
3, 29884, Note_on_c, 1, 70, 64
3, 30000, Note_on_c, 1, 70, 0
3, 30004, Note_on_c, 1, 72, 64
3, 30030, Note_on_c, 1, 72, 0
3, 30034, Note_on_c, 1, 74, 64
3, 30060, Note_on_c, 1, 74, 0
3, 30064, Note_on_c, 1, 74, 64
3, 30090, Note_on_c, 1, 74, 0
3, 30094, Note_on_c, 1, 72, 64
3, 30120, Note_on_c, 1, 72, 0
3, 30124, Note_on_c, 1, 74, 64
3, 30150, Note_on_c, 1, 74, 0
3, 30154, Note_on_c, 1, 72, 64
3, 30232, Note_on_c, 1, 72, 0
3, 31864, Note_on_c, 1, 68, 64
3, 32122, Note_on_c, 1, 68, 0
3, 32134, Note_on_c, 1, 67, 64
3, 32212, Note_on_c, 1, 67, 0
3, 32224, Note_on_c, 1, 65, 64
3, 32430, Note_on_c, 1, 65, 0
3, 32434, Note_on_c, 1, 65, 64
3, 32460, Note_on_c, 1, 65, 0
3, 32464, Note_on_c, 1, 69, 64
3, 32490, Note_on_c, 1, 69, 0
3, 32494, Note_on_c, 1, 70, 64
3, 32520, Note_on_c, 1, 70, 0
3, 32524, Note_on_c, 1, 72, 64
3, 32550, Note_on_c, 1, 72, 0
3, 32554, Note_on_c, 1, 69, 64
3, 32580, Note_on_c, 1, 69, 0
3, 32584, Note_on_c, 1, 70, 64
3, 32842, Note_on_c, 1, 70, 0
3, 32854, Note_on_c, 1, 68, 64
3, 32932, Note_on_c, 1, 68, 0
3, 32944, Note_on_c, 1, 67, 64
3, 33150, Note_on_c, 1, 67, 0
3, 33154, Note_on_c, 1, 67, 64
3, 33180, Note_on_c, 1, 67, 0
3, 33184, Note_on_c, 1, 71, 64
3, 33210, Note_on_c, 1, 71, 0
3, 33214, Note_on_c, 1, 72, 64
3, 33240, Note_on_c, 1, 72, 0
3, 33244, Note_on_c, 1, 74, 64
3, 33270, Note_on_c, 1, 74, 0
3, 33274, Note_on_c, 1, 71, 64
3, 33300, Note_on_c, 1, 71, 0
3, 33304, Note_on_c, 1, 72, 64
3, 33510, Note_on_c, 1, 72, 0
3, 33514, Note_on_c, 1, 70, 64
3, 33540, Note_on_c, 1, 70, 0
3, 33544, Note_on_c, 1, 69, 64
3, 33570, Note_on_c, 1, 69, 0
3, 33574, Note_on_c, 1, 67, 64
3, 33600, Note_on_c, 1, 67, 0
3, 33604, Note_on_c, 1, 69, 64
3, 33630, Note_on_c, 1, 69, 0
3, 33634, Note_on_c, 1, 66, 64
3, 33660, Note_on_c, 1, 66, 0
3, 33664, Note_on_c, 1, 67, 64
3, 33870, Note_on_c, 1, 67, 0
3, 33874, Note_on_c, 1, 69, 64
3, 33900, Note_on_c, 1, 69, 0
3, 33904, Note_on_c, 1, 67, 64
3, 33930, Note_on_c, 1, 67, 0
3, 33934, Note_on_c, 1, 65, 64
3, 33960, Note_on_c, 1, 65, 0
3, 33964, Note_on_c, 1, 66, 64
3, 33990, Note_on_c, 1, 66, 0
3, 33994, Note_on_c, 1, 63, 64
3, 34020, Note_on_c, 1, 63, 0
3, 34024, Note_on_c, 1, 65, 64
3, 34282, Note_on_c, 1, 65, 0
3, 34294, Note_on_c, 1, 64, 64
3, 34372, Note_on_c, 1, 64, 0
3, 34384, Note_on_c, 1, 65, 64
3, 34526, Note_on_c, 1, 65, 0
3, 34774, Note_on_c, 1, 53, 64
3, 34800, Note_on_c, 1, 53, 0
3, 34804, Note_on_c, 1, 55, 64
3, 34830, Note_on_c, 1, 55, 0
3, 34834, Note_on_c, 1, 57, 64
3, 34860, Note_on_c, 1, 57, 0
3, 34864, Note_on_c, 1, 58, 64
3, 34890, Note_on_c, 1, 58, 0
3, 34894, Note_on_c, 1, 60, 64
3, 34920, Note_on_c, 1, 60, 0
3, 34924, Note_on_c, 1, 62, 64
3, 35130, Note_on_c, 1, 62, 0
3, 35134, Note_on_c, 1, 69, 64
3, 35160, Note_on_c, 1, 69, 0
3, 35164, Note_on_c, 1, 67, 64
3, 35190, Note_on_c, 1, 67, 0
3, 35194, Note_on_c, 1, 65, 64
3, 35220, Note_on_c, 1, 65, 0
3, 35224, Note_on_c, 1, 63, 64
3, 35250, Note_on_c, 1, 63, 0
3, 35254, Note_on_c, 1, 62, 64
3, 35280, Note_on_c, 1, 62, 0
3, 35284, Note_on_c, 1, 63, 64
3, 35336, Note_on_c, 1, 63, 0
3, 35494, Note_on_c, 1, 63, 64
3, 35520, Note_on_c, 1, 63, 0
3, 35524, Note_on_c, 1, 65, 64
3, 35550, Note_on_c, 1, 65, 0
3, 35554, Note_on_c, 1, 67, 64
3, 35580, Note_on_c, 1, 67, 0
3, 35584, Note_on_c, 1, 69, 64
3, 35610, Note_on_c, 1, 69, 0
3, 35614, Note_on_c, 1, 70, 64
3, 35640, Note_on_c, 1, 70, 0
3, 35644, Note_on_c, 1, 72, 64
3, 35696, Note_on_c, 1, 72, 0
3, 35704, Note_on_c, 1, 65, 64
3, 35730, Note_on_c, 1, 65, 0
3, 35734, Note_on_c, 1, 64, 64
3, 35786, Note_on_c, 1, 64, 0
3, 35794, Note_on_c, 1, 70, 64
3, 35820, Note_on_c, 1, 70, 0
3, 35824, Note_on_c, 1, 69, 64
3, 35850, Note_on_c, 1, 69, 0
3, 35854, Note_on_c, 1, 70, 64
3, 35880, Note_on_c, 1, 70, 0
3, 35884, Note_on_c, 1, 69, 64
3, 35910, Note_on_c, 1, 69, 0
3, 35914, Note_on_c, 1, 67, 64
3, 35940, Note_on_c, 1, 67, 0
3, 35944, Note_on_c, 1, 65, 64
3, 35970, Note_on_c, 1, 65, 0
3, 35974, Note_on_c, 1, 63, 64
3, 36000, Note_on_c, 1, 63, 0
3, 36004, Note_on_c, 1, 65, 64
3, 36082, Note_on_c, 1, 65, 0
3, 36094, Note_on_c, 1, 63, 64
3, 36172, Note_on_c, 1, 63, 0
3, 36214, Note_on_c, 1, 62, 64
3, 36240, Note_on_c, 1, 62, 0
3, 36244, Note_on_c, 1, 67, 64
3, 36300, Note_on_c, 1, 67, 0
3, 36304, Note_on_c, 1, 66, 64
3, 36330, Note_on_c, 1, 66, 0
3, 36334, Note_on_c, 1, 72, 64
3, 36360, Note_on_c, 1, 72, 0
3, 36364, Note_on_c, 1, 70, 64
3, 36442, Note_on_c, 1, 70, 0
3, 36454, Note_on_c, 1, 71, 64
3, 36532, Note_on_c, 1, 71, 0
3, 36544, Note_on_c, 1, 72, 64
3, 36596, Note_on_c, 1, 72, 0
3, 36604, Note_on_c, 1, 69, 64
3, 36630, Note_on_c, 1, 69, 0
3, 36634, Note_on_c, 1, 71, 64
3, 36686, Note_on_c, 1, 71, 0
3, 36694, Note_on_c, 1, 74, 64
3, 36720, Note_on_c, 1, 74, 0
3, 36724, Note_on_c, 1, 67, 64
3, 36802, Note_on_c, 1, 67, 0
3, 36814, Note_on_c, 1, 73, 64
3, 36892, Note_on_c, 1, 73, 0
3, 36904, Note_on_c, 1, 72, 64
3, 36982, Note_on_c, 1, 72, 0
3, 36994, Note_on_c, 1, 70, 64
3, 37136, Note_on_c, 1, 70, 0
3, 37144, Note_on_c, 1, 69, 64
3, 37170, Note_on_c, 1, 69, 0
3, 37174, Note_on_c, 1, 67, 64
3, 37226, Note_on_c, 1, 67, 0
3, 37234, Note_on_c, 1, 72, 64
3, 37260, Note_on_c, 1, 72, 0
3, 37264, Note_on_c, 1, 65, 64
3, 37496, Note_on_c, 1, 65, 0
3, 37504, Note_on_c, 1, 67, 64
3, 37530, Note_on_c, 1, 67, 0
3, 37534, Note_on_c, 1, 66, 64
3, 37586, Note_on_c, 1, 66, 0
3, 37594, Note_on_c, 1, 72, 64
3, 37620, Note_on_c, 1, 72, 0
3, 37624, Note_on_c, 1, 70, 64
3, 37882, Note_on_c, 1, 70, 0
3, 37894, Note_on_c, 1, 68, 64
3, 37972, Note_on_c, 1, 68, 0
3, 37984, Note_on_c, 1, 67, 64
3, 38062, Note_on_c, 1, 67, 0
3, 38074, Note_on_c, 1, 65, 64
3, 38152, Note_on_c, 1, 65, 0
3, 38164, Note_on_c, 1, 63, 64
3, 38164, Note_on_c, 1, 67, 64
3, 38242, Note_on_c, 1, 67, 0
3, 38242, Note_on_c, 1, 63, 0
3, 38254, Note_on_c, 1, 61, 64
3, 38254, Note_on_c, 1, 65, 64
3, 38332, Note_on_c, 1, 65, 0
3, 38332, Note_on_c, 1, 61, 0
3, 38344, Note_on_c, 1, 60, 64
3, 38344, Note_on_c, 1, 63, 64
3, 38422, Note_on_c, 1, 63, 0
3, 38422, Note_on_c, 1, 60, 0
3, 38434, Note_on_c, 1, 58, 64
3, 38434, Note_on_c, 1, 61, 64
3, 38512, Note_on_c, 1, 61, 0
3, 38512, Note_on_c, 1, 58, 0
3, 38524, Note_on_c, 1, 57, 64
3, 38524, Note_on_c, 1, 60, 64
3, 38602, Note_on_c, 1, 60, 0
3, 38602, Note_on_c, 1, 57, 0
3, 40774, Note_on_c, 1, 74, 64
3, 40852, Note_on_c, 1, 74, 0
3, 40864, Note_on_c, 1, 72, 64
3, 40942, Note_on_c, 1, 72, 0
3, 40954, Note_on_c, 1, 70, 64
3, 41032, Note_on_c, 1, 70, 0
3, 41044, Note_on_c, 1, 69, 64
3, 41096, Note_on_c, 1, 69, 0
3, 46594, Note_on_c, 1, 63, 64
3, 46620, Note_on_c, 1, 63, 0
3, 46624, Note_on_c, 1, 62, 64
3, 46830, Note_on_c, 1, 62, 0
3, 46834, Note_on_c, 1, 74, 64
3, 46860, Note_on_c, 1, 74, 0
3, 46864, Note_on_c, 1, 72, 64
3, 46890, Note_on_c, 1, 72, 0
3, 46894, Note_on_c, 1, 70, 64
3, 46920, Note_on_c, 1, 70, 0
3, 46924, Note_on_c, 1, 69, 64
3, 46950, Note_on_c, 1, 69, 0
3, 46954, Note_on_c, 1, 67, 64
3, 46980, Note_on_c, 1, 67, 0
3, 46984, Note_on_c, 1, 65, 64
3, 47100, Note_on_c, 1, 65, 0
3, 47374, Note_on_c, 1, 67, 64
3, 47400, Note_on_c, 1, 67, 0
3, 47404, Note_on_c, 1, 65, 64
3, 47430, Note_on_c, 1, 65, 0
3, 47434, Note_on_c, 1, 63, 64
3, 47460, Note_on_c, 1, 63, 0
3, 47464, Note_on_c, 1, 62, 64
3, 47490, Note_on_c, 1, 62, 0
3, 47494, Note_on_c, 1, 60, 64
3, 47520, Note_on_c, 1, 60, 0
3, 47524, Note_on_c, 1, 58, 64
3, 47576, Note_on_c, 1, 58, 0
3, 47584, Note_on_c, 1, 62, 64
3, 47610, Note_on_c, 1, 62, 0
3, 47614, Note_on_c, 1, 67, 64
3, 47730, Note_on_c, 1, 67, 0
3, 47734, Note_on_c, 1, 65, 64
3, 47760, Note_on_c, 1, 65, 0
3, 47764, Note_on_c, 1, 63, 64
3, 47790, Note_on_c, 1, 63, 0
3, 47794, Note_on_c, 1, 62, 64
3, 47820, Note_on_c, 1, 62, 0
3, 47824, Note_on_c, 1, 60, 64
3, 47850, Note_on_c, 1, 60, 0
3, 47854, Note_on_c, 1, 58, 64
3, 47880, Note_on_c, 1, 58, 0
3, 47884, Note_on_c, 1, 63, 64
3, 48090, Note_on_c, 1, 63, 0
3, 48094, Note_on_c, 1, 63, 64
3, 48120, Note_on_c, 1, 63, 0
3, 48124, Note_on_c, 1, 62, 64
3, 48150, Note_on_c, 1, 62, 0
3, 48154, Note_on_c, 1, 60, 64
3, 48180, Note_on_c, 1, 60, 0
3, 48184, Note_on_c, 1, 58, 64
3, 48210, Note_on_c, 1, 58, 0
3, 48214, Note_on_c, 1, 57, 64
3, 48240, Note_on_c, 1, 57, 0
3, 48244, Note_on_c, 1, 55, 64
3, 48270, Note_on_c, 1, 55, 0
3, 48274, Note_on_c, 1, 54, 64
3, 48300, Note_on_c, 1, 54, 0
3, 48304, Note_on_c, 1, 55, 64
3, 48330, Note_on_c, 1, 55, 0
3, 48334, Note_on_c, 1, 57, 64
3, 48360, Note_on_c, 1, 57, 0
3, 48364, Note_on_c, 1, 58, 64
3, 48390, Note_on_c, 1, 58, 0
3, 48394, Note_on_c, 1, 60, 64
3, 48450, Note_on_c, 1, 60, 0
3, 48454, Note_on_c, 1, 58, 64
3, 48480, Note_on_c, 1, 58, 0
3, 48484, Note_on_c, 1, 57, 64
3, 48510, Note_on_c, 1, 57, 0
3, 48514, Note_on_c, 1, 58, 64
3, 48566, Note_on_c, 1, 58, 0
3, 48814, Note_on_c, 1, 70, 64
3, 48840, Note_on_c, 1, 70, 0
3, 48844, Note_on_c, 1, 68, 64
3, 48870, Note_on_c, 1, 68, 0
3, 48874, Note_on_c, 1, 67, 64
3, 48900, Note_on_c, 1, 67, 0
3, 48904, Note_on_c, 1, 65, 64
3, 48930, Note_on_c, 1, 65, 0
3, 48934, Note_on_c, 1, 63, 64
3, 48960, Note_on_c, 1, 63, 0
3, 48964, Note_on_c, 1, 62, 64
3, 49016, Note_on_c, 1, 62, 0
3, 49024, Note_on_c, 1, 65, 64
3, 49050, Note_on_c, 1, 65, 0
3, 49054, Note_on_c, 1, 70, 64
3, 49196, Note_on_c, 1, 70, 0
3, 49204, Note_on_c, 1, 69, 64
3, 49286, Note_on_c, 1, 69, 0
3, 49294, Note_on_c, 1, 68, 64
3, 49320, Note_on_c, 1, 68, 0
3, 49324, Note_on_c, 1, 67, 64
3, 49440, Note_on_c, 1, 67, 0
3, 49444, Note_on_c, 1, 72, 64
3, 49470, Note_on_c, 1, 72, 0
3, 49474, Note_on_c, 1, 69, 64
3, 49500, Note_on_c, 1, 69, 0
3, 49504, Note_on_c, 1, 65, 64
3, 49620, Note_on_c, 1, 65, 0
3, 49624, Note_on_c, 1, 67, 64
3, 49650, Note_on_c, 1, 67, 0
3, 49654, Note_on_c, 1, 69, 64
3, 49680, Note_on_c, 1, 69, 0
3, 49684, Note_on_c, 1, 70, 64
3, 49800, Note_on_c, 1, 70, 0
3, 49804, Note_on_c, 1, 72, 64
3, 49830, Note_on_c, 1, 72, 0
3, 49834, Note_on_c, 1, 74, 64
3, 49860, Note_on_c, 1, 74, 0
3, 49864, Note_on_c, 1, 74, 64
3, 49890, Note_on_c, 1, 74, 0
3, 49894, Note_on_c, 1, 72, 64
3, 49920, Note_on_c, 1, 72, 0
3, 49924, Note_on_c, 1, 74, 64
3, 49950, Note_on_c, 1, 74, 0
3, 49954, Note_on_c, 1, 72, 64
3, 50032, Note_on_c, 1, 72, 0
3, 51664, Note_on_c, 1, 68, 64
3, 51922, Note_on_c, 1, 68, 0
3, 51934, Note_on_c, 1, 67, 64
3, 52012, Note_on_c, 1, 67, 0
3, 52024, Note_on_c, 1, 65, 64
3, 52230, Note_on_c, 1, 65, 0
3, 52234, Note_on_c, 1, 65, 64
3, 52260, Note_on_c, 1, 65, 0
3, 52264, Note_on_c, 1, 69, 64
3, 52290, Note_on_c, 1, 69, 0
3, 52294, Note_on_c, 1, 70, 64
3, 52320, Note_on_c, 1, 70, 0
3, 52324, Note_on_c, 1, 72, 64
3, 52350, Note_on_c, 1, 72, 0
3, 52354, Note_on_c, 1, 69, 64
3, 52380, Note_on_c, 1, 69, 0
3, 52384, Note_on_c, 1, 70, 64
3, 52642, Note_on_c, 1, 70, 0
3, 52654, Note_on_c, 1, 68, 64
3, 52732, Note_on_c, 1, 68, 0
3, 52744, Note_on_c, 1, 67, 64
3, 52950, Note_on_c, 1, 67, 0
3, 52954, Note_on_c, 1, 67, 64
3, 52980, Note_on_c, 1, 67, 0
3, 52984, Note_on_c, 1, 71, 64
3, 53010, Note_on_c, 1, 71, 0
3, 53014, Note_on_c, 1, 72, 64
3, 53040, Note_on_c, 1, 72, 0
3, 53044, Note_on_c, 1, 74, 64
3, 53070, Note_on_c, 1, 74, 0
3, 53074, Note_on_c, 1, 71, 64
3, 53100, Note_on_c, 1, 71, 0
3, 53104, Note_on_c, 1, 72, 64
3, 53310, Note_on_c, 1, 72, 0
3, 53314, Note_on_c, 1, 70, 64
3, 53340, Note_on_c, 1, 70, 0
3, 53344, Note_on_c, 1, 69, 64
3, 53370, Note_on_c, 1, 69, 0
3, 53374, Note_on_c, 1, 67, 64
3, 53400, Note_on_c, 1, 67, 0
3, 53404, Note_on_c, 1, 69, 64
3, 53430, Note_on_c, 1, 69, 0
3, 53434, Note_on_c, 1, 66, 64
3, 53460, Note_on_c, 1, 66, 0
3, 53464, Note_on_c, 1, 67, 64
3, 53670, Note_on_c, 1, 67, 0
3, 53674, Note_on_c, 1, 69, 64
3, 53700, Note_on_c, 1, 69, 0
3, 53704, Note_on_c, 1, 67, 64
3, 53730, Note_on_c, 1, 67, 0
3, 53734, Note_on_c, 1, 65, 64
3, 53760, Note_on_c, 1, 65, 0
3, 53764, Note_on_c, 1, 66, 64
3, 53790, Note_on_c, 1, 66, 0
3, 53794, Note_on_c, 1, 63, 64
3, 53820, Note_on_c, 1, 63, 0
3, 53824, Note_on_c, 1, 65, 64
3, 54082, Note_on_c, 1, 65, 0
3, 54094, Note_on_c, 1, 64, 64
3, 54172, Note_on_c, 1, 64, 0
3, 54184, Note_on_c, 1, 65, 64
3, 54326, Note_on_c, 1, 65, 0
3, 54574, Note_on_c, 1, 53, 64
3, 54600, Note_on_c, 1, 53, 0
3, 54604, Note_on_c, 1, 55, 64
3, 54630, Note_on_c, 1, 55, 0
3, 54634, Note_on_c, 1, 57, 64
3, 54660, Note_on_c, 1, 57, 0
3, 54664, Note_on_c, 1, 58, 64
3, 54690, Note_on_c, 1, 58, 0
3, 54694, Note_on_c, 1, 60, 64
3, 54720, Note_on_c, 1, 60, 0
3, 54724, Note_on_c, 1, 62, 64
3, 54930, Note_on_c, 1, 62, 0
3, 54934, Note_on_c, 1, 69, 64
3, 54960, Note_on_c, 1, 69, 0
3, 54964, Note_on_c, 1, 67, 64
3, 54990, Note_on_c, 1, 67, 0
3, 54994, Note_on_c, 1, 65, 64
3, 55020, Note_on_c, 1, 65, 0
3, 55024, Note_on_c, 1, 63, 64
3, 55050, Note_on_c, 1, 63, 0
3, 55054, Note_on_c, 1, 62, 64
3, 55080, Note_on_c, 1, 62, 0
3, 55084, Note_on_c, 1, 63, 64
3, 55136, Note_on_c, 1, 63, 0
3, 55294, Note_on_c, 1, 63, 64
3, 55320, Note_on_c, 1, 63, 0
3, 55324, Note_on_c, 1, 65, 64
3, 55350, Note_on_c, 1, 65, 0
3, 55354, Note_on_c, 1, 67, 64
3, 55380, Note_on_c, 1, 67, 0
3, 55384, Note_on_c, 1, 69, 64
3, 55410, Note_on_c, 1, 69, 0
3, 55414, Note_on_c, 1, 70, 64
3, 55440, Note_on_c, 1, 70, 0
3, 55444, Note_on_c, 1, 72, 64
3, 55496, Note_on_c, 1, 72, 0
3, 55504, Note_on_c, 1, 65, 64
3, 55530, Note_on_c, 1, 65, 0
3, 55534, Note_on_c, 1, 64, 64
3, 55586, Note_on_c, 1, 64, 0
3, 55594, Note_on_c, 1, 70, 64
3, 55620, Note_on_c, 1, 70, 0
3, 55624, Note_on_c, 1, 69, 64
3, 55650, Note_on_c, 1, 69, 0
3, 55654, Note_on_c, 1, 70, 64
3, 55680, Note_on_c, 1, 70, 0
3, 55684, Note_on_c, 1, 69, 64
3, 55710, Note_on_c, 1, 69, 0
3, 55714, Note_on_c, 1, 67, 64
3, 55740, Note_on_c, 1, 67, 0
3, 55744, Note_on_c, 1, 65, 64
3, 55770, Note_on_c, 1, 65, 0
3, 55774, Note_on_c, 1, 63, 64
3, 55800, Note_on_c, 1, 63, 0
3, 55804, Note_on_c, 1, 65, 64
3, 55882, Note_on_c, 1, 65, 0
3, 55894, Note_on_c, 1, 63, 64
3, 55972, Note_on_c, 1, 63, 0
3, 56014, Note_on_c, 1, 62, 64
3, 56040, Note_on_c, 1, 62, 0
3, 56044, Note_on_c, 1, 67, 64
3, 56100, Note_on_c, 1, 67, 0
3, 56104, Note_on_c, 1, 66, 64
3, 56130, Note_on_c, 1, 66, 0
3, 56134, Note_on_c, 1, 72, 64
3, 56160, Note_on_c, 1, 72, 0
3, 56164, Note_on_c, 1, 70, 64
3, 56242, Note_on_c, 1, 70, 0
3, 56254, Note_on_c, 1, 71, 64
3, 56332, Note_on_c, 1, 71, 0
3, 56344, Note_on_c, 1, 72, 64
3, 56396, Note_on_c, 1, 72, 0
3, 56404, Note_on_c, 1, 69, 64
3, 56430, Note_on_c, 1, 69, 0
3, 56434, Note_on_c, 1, 71, 64
3, 56486, Note_on_c, 1, 71, 0
3, 56494, Note_on_c, 1, 74, 64
3, 56520, Note_on_c, 1, 74, 0
3, 56524, Note_on_c, 1, 67, 64
3, 56602, Note_on_c, 1, 67, 0
3, 56614, Note_on_c, 1, 73, 64
3, 56692, Note_on_c, 1, 73, 0
3, 56704, Note_on_c, 1, 72, 64
3, 56782, Note_on_c, 1, 72, 0
3, 56794, Note_on_c, 1, 70, 64
3, 56936, Note_on_c, 1, 70, 0
3, 56944, Note_on_c, 1, 69, 64
3, 56970, Note_on_c, 1, 69, 0
3, 56974, Note_on_c, 1, 67, 64
3, 57026, Note_on_c, 1, 67, 0
3, 57034, Note_on_c, 1, 72, 64
3, 57060, Note_on_c, 1, 72, 0
3, 57064, Note_on_c, 1, 65, 64
3, 57296, Note_on_c, 1, 65, 0
3, 57304, Note_on_c, 1, 67, 64
3, 57330, Note_on_c, 1, 67, 0
3, 57334, Note_on_c, 1, 66, 64
3, 57386, Note_on_c, 1, 66, 0
3, 57394, Note_on_c, 1, 72, 64
3, 57420, Note_on_c, 1, 72, 0
3, 57424, Note_on_c, 1, 70, 64
3, 57682, Note_on_c, 1, 70, 0
3, 57694, Note_on_c, 1, 68, 64
3, 57772, Note_on_c, 1, 68, 0
3, 57784, Note_on_c, 1, 67, 64
3, 57862, Note_on_c, 1, 67, 0
3, 57874, Note_on_c, 1, 65, 64
3, 57952, Note_on_c, 1, 65, 0
3, 57964, Note_on_c, 1, 63, 64
3, 57964, Note_on_c, 1, 67, 64
3, 58042, Note_on_c, 1, 67, 0
3, 58042, Note_on_c, 1, 63, 0
3, 58054, Note_on_c, 1, 61, 64
3, 58054, Note_on_c, 1, 65, 64
3, 58132, Note_on_c, 1, 65, 0
3, 58132, Note_on_c, 1, 61, 0
3, 58144, Note_on_c, 1, 60, 64
3, 58144, Note_on_c, 1, 63, 64
3, 58222, Note_on_c, 1, 63, 0
3, 58222, Note_on_c, 1, 60, 0
3, 58234, Note_on_c, 1, 58, 64
3, 58234, Note_on_c, 1, 61, 64
3, 58312, Note_on_c, 1, 61, 0
3, 58312, Note_on_c, 1, 58, 0
3, 58324, Note_on_c, 1, 57, 64
3, 58324, Note_on_c, 1, 60, 64
3, 58402, Note_on_c, 1, 60, 0
3, 58402, Note_on_c, 1, 57, 0
3, 60574, Note_on_c, 1, 74, 64
3, 60652, Note_on_c, 1, 74, 0
3, 60664, Note_on_c, 1, 72, 64
3, 60742, Note_on_c, 1, 72, 0
3, 60754, Note_on_c, 1, 70, 64
3, 60832, Note_on_c, 1, 70, 0
3, 60844, Note_on_c, 1, 69, 64
3, 60896, Note_on_c, 1, 69, 0
3, 60896, End_track
4, 0, Start_track
4, 0, MIDI_port, 0
4, 0, Title_t, "from WTC II"
4, 0, Program_c, 2, 6
4, 4, Note_on_c, 2, 58, 64
4, 390, Note_on_c, 2, 58, 0
4, 394, Note_on_c, 2, 58, 64
4, 420, Note_on_c, 2, 58, 0
4, 424, Note_on_c, 2, 56, 64
4, 450, Note_on_c, 2, 56, 0
4, 454, Note_on_c, 2, 55, 64
4, 480, Note_on_c, 2, 55, 0
4, 484, Note_on_c, 2, 53, 64
4, 510, Note_on_c, 2, 53, 0
4, 514, Note_on_c, 2, 51, 64
4, 540, Note_on_c, 2, 51, 0
4, 544, Note_on_c, 2, 58, 64
4, 570, Note_on_c, 2, 58, 0
4, 574, Note_on_c, 2, 57, 64
4, 600, Note_on_c, 2, 57, 0
4, 604, Note_on_c, 2, 58, 64
4, 630, Note_on_c, 2, 58, 0
4, 634, Note_on_c, 2, 46, 64
4, 750, Note_on_c, 2, 46, 0
4, 754, Note_on_c, 2, 50, 64
4, 780, Note_on_c, 2, 50, 0
4, 784, Note_on_c, 2, 51, 64
4, 810, Note_on_c, 2, 51, 0
4, 814, Note_on_c, 2, 53, 64
4, 840, Note_on_c, 2, 53, 0
4, 844, Note_on_c, 2, 55, 64
4, 870, Note_on_c, 2, 55, 0
4, 874, Note_on_c, 2, 57, 64
4, 900, Note_on_c, 2, 57, 0
4, 904, Note_on_c, 2, 58, 64
4, 982, Note_on_c, 2, 58, 0
4, 994, Note_on_c, 2, 57, 64
4, 1072, Note_on_c, 2, 57, 0
4, 1084, Note_on_c, 2, 55, 64
4, 1136, Note_on_c, 2, 55, 0
4, 1144, Note_on_c, 2, 53, 64
4, 1170, Note_on_c, 2, 53, 0
4, 1174, Note_on_c, 2, 55, 64
4, 1226, Note_on_c, 2, 55, 0
4, 1234, Note_on_c, 2, 51, 64
4, 1260, Note_on_c, 2, 51, 0
4, 1264, Note_on_c, 2, 53, 64
4, 1380, Note_on_c, 2, 53, 0
4, 1384, Note_on_c, 2, 57, 64
4, 1410, Note_on_c, 2, 57, 0
4, 1414, Note_on_c, 2, 60, 64
4, 1440, Note_on_c, 2, 60, 0
4, 1444, Note_on_c, 2, 65, 64
4, 1522, Note_on_c, 2, 65, 0
4, 1534, Note_on_c, 2, 63, 64
4, 1612, Note_on_c, 2, 63, 0
4, 1624, Note_on_c, 2, 62, 64
4, 1702, Note_on_c, 2, 62, 0
4, 1714, Note_on_c, 2, 60, 64
4, 1792, Note_on_c, 2, 60, 0
4, 1804, Note_on_c, 2, 58, 64
4, 1830, Note_on_c, 2, 58, 0
4, 1834, Note_on_c, 2, 46, 64
4, 1860, Note_on_c, 2, 46, 0
4, 1864, Note_on_c, 2, 48, 64
4, 1890, Note_on_c, 2, 48, 0
4, 1894, Note_on_c, 2, 50, 64
4, 1920, Note_on_c, 2, 50, 0
4, 1924, Note_on_c, 2, 52, 64
4, 1950, Note_on_c, 2, 52, 0
4, 1954, Note_on_c, 2, 54, 64
4, 1980, Note_on_c, 2, 54, 0
4, 1984, Note_on_c, 2, 55, 64
4, 2100, Note_on_c, 2, 55, 0
4, 2104, Note_on_c, 2, 58, 64
4, 2130, Note_on_c, 2, 58, 0
4, 2134, Note_on_c, 2, 50, 64
4, 2160, Note_on_c, 2, 50, 0
4, 2164, Note_on_c, 2, 52, 64
4, 2242, Note_on_c, 2, 52, 0
4, 2254, Note_on_c, 2, 53, 64
4, 2370, Note_on_c, 2, 53, 0
4, 2374, Note_on_c, 2, 53, 64
4, 2400, Note_on_c, 2, 53, 0
4, 2404, Note_on_c, 2, 52, 64
4, 2430, Note_on_c, 2, 52, 0
4, 2434, Note_on_c, 2, 50, 64
4, 2460, Note_on_c, 2, 50, 0
4, 2464, Note_on_c, 2, 48, 64
4, 2490, Note_on_c, 2, 48, 0
4, 2494, Note_on_c, 2, 46, 64
4, 2520, Note_on_c, 2, 46, 0
4, 2524, Note_on_c, 2, 45, 64
4, 2602, Note_on_c, 2, 45, 0
4, 2614, Note_on_c, 2, 46, 64
4, 2692, Note_on_c, 2, 46, 0
4, 2704, Note_on_c, 2, 48, 64
4, 2820, Note_on_c, 2, 48, 0
4, 2824, Note_on_c, 2, 52, 64
4, 2850, Note_on_c, 2, 52, 0
4, 2854, Note_on_c, 2, 55, 64
4, 2880, Note_on_c, 2, 55, 0
4, 2884, Note_on_c, 2, 58, 64
4, 2910, Note_on_c, 2, 58, 0
4, 2914, Note_on_c, 2, 57, 64
4, 2940, Note_on_c, 2, 57, 0
4, 2944, Note_on_c, 2, 58, 64
4, 2970, Note_on_c, 2, 58, 0
4, 2974, Note_on_c, 2, 48, 64
4, 3000, Note_on_c, 2, 48, 0
4, 3004, Note_on_c, 2, 52, 64
4, 3030, Note_on_c, 2, 52, 0
4, 3034, Note_on_c, 2, 55, 64
4, 3060, Note_on_c, 2, 55, 0
4, 3064, Note_on_c, 2, 57, 64
4, 3090, Note_on_c, 2, 57, 0
4, 3094, Note_on_c, 2, 55, 64
4, 3120, Note_on_c, 2, 55, 0
4, 3124, Note_on_c, 2, 57, 64
4, 3150, Note_on_c, 2, 57, 0
4, 3154, Note_on_c, 2, 48, 64
4, 3180, Note_on_c, 2, 48, 0
4, 3184, Note_on_c, 2, 52, 64
4, 3210, Note_on_c, 2, 52, 0
4, 3214, Note_on_c, 2, 53, 64
4, 3240, Note_on_c, 2, 53, 0
4, 3244, Note_on_c, 2, 55, 64
4, 3270, Note_on_c, 2, 55, 0
4, 3274, Note_on_c, 2, 53, 64
4, 3300, Note_on_c, 2, 53, 0
4, 3304, Note_on_c, 2, 55, 64
4, 3330, Note_on_c, 2, 55, 0
4, 3334, Note_on_c, 2, 48, 64
4, 3360, Note_on_c, 2, 48, 0
4, 3364, Note_on_c, 2, 50, 64
4, 3390, Note_on_c, 2, 50, 0
4, 3394, Note_on_c, 2, 52, 64
4, 3420, Note_on_c, 2, 52, 0
4, 3424, Note_on_c, 2, 53, 64
4, 3540, Note_on_c, 2, 53, 0
4, 3544, Note_on_c, 2, 48, 64
4, 3570, Note_on_c, 2, 48, 0
4, 3574, Note_on_c, 2, 45, 64
4, 3600, Note_on_c, 2, 45, 0
4, 3604, Note_on_c, 2, 41, 64
4, 3630, Note_on_c, 2, 41, 0
4, 3634, Note_on_c, 2, 45, 64
4, 3660, Note_on_c, 2, 45, 0
4, 3664, Note_on_c, 2, 48, 64
4, 3690, Note_on_c, 2, 48, 0
4, 3694, Note_on_c, 2, 51, 64
4, 3720, Note_on_c, 2, 51, 0
4, 3724, Note_on_c, 2, 50, 64
4, 3750, Note_on_c, 2, 50, 0
4, 3754, Note_on_c, 2, 51, 64
4, 3780, Note_on_c, 2, 51, 0
4, 3784, Note_on_c, 2, 41, 64
4, 3810, Note_on_c, 2, 41, 0
4, 3814, Note_on_c, 2, 45, 64
4, 3840, Note_on_c, 2, 45, 0
4, 3844, Note_on_c, 2, 46, 64
4, 3870, Note_on_c, 2, 46, 0
4, 3874, Note_on_c, 2, 50, 64
4, 3900, Note_on_c, 2, 50, 0
4, 3904, Note_on_c, 2, 48, 64
4, 3930, Note_on_c, 2, 48, 0
4, 3934, Note_on_c, 2, 50, 64
4, 3960, Note_on_c, 2, 50, 0
4, 3964, Note_on_c, 2, 39, 64
4, 3990, Note_on_c, 2, 39, 0
4, 3994, Note_on_c, 2, 43, 64
4, 4020, Note_on_c, 2, 43, 0
4, 4024, Note_on_c, 2, 45, 64
4, 4050, Note_on_c, 2, 45, 0
4, 4054, Note_on_c, 2, 48, 64
4, 4080, Note_on_c, 2, 48, 0
4, 4084, Note_on_c, 2, 46, 64
4, 4110, Note_on_c, 2, 46, 0
4, 4114, Note_on_c, 2, 48, 64
4, 4140, Note_on_c, 2, 48, 0
4, 4144, Note_on_c, 2, 39, 64
4, 4170, Note_on_c, 2, 39, 0
4, 4174, Note_on_c, 2, 38, 64
4, 4200, Note_on_c, 2, 38, 0
4, 4204, Note_on_c, 2, 41, 64
4, 4230, Note_on_c, 2, 41, 0
4, 4234, Note_on_c, 2, 46, 64
4, 4260, Note_on_c, 2, 46, 0
4, 4264, Note_on_c, 2, 50, 64
4, 4290, Note_on_c, 2, 50, 0
4, 4294, Note_on_c, 2, 53, 64
4, 4320, Note_on_c, 2, 53, 0
4, 4324, Note_on_c, 2, 58, 64
4, 4402, Note_on_c, 2, 58, 0
4, 4414, Note_on_c, 2, 65, 64
4, 4492, Note_on_c, 2, 65, 0
4, 4504, Note_on_c, 2, 70, 64
4, 4582, Note_on_c, 2, 70, 0
4, 4594, Note_on_c, 2, 51, 64
4, 4672, Note_on_c, 2, 51, 0
4, 4684, Note_on_c, 2, 45, 64
4, 4762, Note_on_c, 2, 45, 0
4, 4774, Note_on_c, 2, 63, 64
4, 4852, Note_on_c, 2, 63, 0
4, 4864, Note_on_c, 2, 69, 64
4, 4942, Note_on_c, 2, 69, 0
4, 4954, Note_on_c, 2, 50, 64
4, 5032, Note_on_c, 2, 50, 0
4, 5044, Note_on_c, 2, 43, 64
4, 5122, Note_on_c, 2, 43, 0
4, 5134, Note_on_c, 2, 53, 64
4, 5160, Note_on_c, 2, 53, 0
4, 5164, Note_on_c, 2, 58, 64
4, 5190, Note_on_c, 2, 58, 0
4, 5194, Note_on_c, 2, 55, 64
4, 5220, Note_on_c, 2, 55, 0
4, 5224, Note_on_c, 2, 52, 64
4, 5250, Note_on_c, 2, 52, 0
4, 5254, Note_on_c, 2, 58, 64
4, 5280, Note_on_c, 2, 58, 0
4, 5284, Note_on_c, 2, 55, 64
4, 5310, Note_on_c, 2, 55, 0
4, 5314, Note_on_c, 2, 52, 64
4, 5340, Note_on_c, 2, 52, 0
4, 5344, Note_on_c, 2, 58, 64
4, 5370, Note_on_c, 2, 58, 0
4, 5374, Note_on_c, 2, 67, 64
4, 5400, Note_on_c, 2, 67, 0
4, 5404, Note_on_c, 2, 56, 64
4, 5430, Note_on_c, 2, 56, 0
4, 5434, Note_on_c, 2, 55, 64
4, 5460, Note_on_c, 2, 55, 0
4, 5464, Note_on_c, 2, 56, 64
4, 5490, Note_on_c, 2, 56, 0
4, 5494, Note_on_c, 2, 51, 64
4, 5520, Note_on_c, 2, 51, 0
4, 5524, Note_on_c, 2, 56, 64
4, 5550, Note_on_c, 2, 56, 0
4, 5554, Note_on_c, 2, 53, 64
4, 5580, Note_on_c, 2, 53, 0
4, 5584, Note_on_c, 2, 50, 64
4, 5610, Note_on_c, 2, 50, 0
4, 5614, Note_on_c, 2, 56, 64
4, 5640, Note_on_c, 2, 56, 0
4, 5644, Note_on_c, 2, 53, 64
4, 5670, Note_on_c, 2, 53, 0
4, 5674, Note_on_c, 2, 50, 64
4, 5700, Note_on_c, 2, 50, 0
4, 5704, Note_on_c, 2, 56, 64
4, 5730, Note_on_c, 2, 56, 0
4, 5734, Note_on_c, 2, 65, 64
4, 5760, Note_on_c, 2, 65, 0
4, 5764, Note_on_c, 2, 55, 64
4, 5790, Note_on_c, 2, 55, 0
4, 5794, Note_on_c, 2, 65, 64
4, 5820, Note_on_c, 2, 65, 0
4, 5824, Note_on_c, 2, 63, 64
4, 5850, Note_on_c, 2, 63, 0
4, 5854, Note_on_c, 2, 62, 64
4, 5880, Note_on_c, 2, 62, 0
4, 5884, Note_on_c, 2, 60, 64
4, 5910, Note_on_c, 2, 60, 0
4, 5914, Note_on_c, 2, 58, 64
4, 5940, Note_on_c, 2, 58, 0
4, 5944, Note_on_c, 2, 57, 64
4, 6022, Note_on_c, 2, 57, 0
4, 6034, Note_on_c, 2, 53, 64
4, 6112, Note_on_c, 2, 53, 0
4, 6124, Note_on_c, 2, 46, 64
4, 6289, Note_on_c, 2, 46, 0
4, 6304, Note_on_c, 2, 48, 64
4, 6469, Note_on_c, 2, 48, 0
4, 6484, Note_on_c, 2, 50, 64
4, 6649, Note_on_c, 2, 50, 0
4, 6664, Note_on_c, 2, 52, 64
4, 6690, Note_on_c, 2, 52, 0
4, 6694, Note_on_c, 2, 55, 64
4, 6720, Note_on_c, 2, 55, 0
4, 6724, Note_on_c, 2, 53, 64
4, 6750, Note_on_c, 2, 53, 0
4, 6754, Note_on_c, 2, 52, 64
4, 6780, Note_on_c, 2, 52, 0
4, 6784, Note_on_c, 2, 50, 64
4, 6810, Note_on_c, 2, 50, 0
4, 6814, Note_on_c, 2, 48, 64
4, 6840, Note_on_c, 2, 48, 0
4, 6844, Note_on_c, 2, 53, 64
4, 7009, Note_on_c, 2, 53, 0
4, 7024, Note_on_c, 2, 55, 64
4, 7050, Note_on_c, 2, 55, 0
4, 7054, Note_on_c, 2, 58, 64
4, 7080, Note_on_c, 2, 58, 0
4, 7084, Note_on_c, 2, 57, 64
4, 7110, Note_on_c, 2, 57, 0
4, 7114, Note_on_c, 2, 55, 64
4, 7140, Note_on_c, 2, 55, 0
4, 7144, Note_on_c, 2, 53, 64
4, 7170, Note_on_c, 2, 53, 0
4, 7174, Note_on_c, 2, 52, 64
4, 7200, Note_on_c, 2, 52, 0
4, 7204, Note_on_c, 2, 57, 64
4, 7230, Note_on_c, 2, 57, 0
4, 7234, Note_on_c, 2, 55, 64
4, 7260, Note_on_c, 2, 55, 0
4, 7264, Note_on_c, 2, 57, 64
4, 7290, Note_on_c, 2, 57, 0
4, 7294, Note_on_c, 2, 58, 64
4, 7320, Note_on_c, 2, 58, 0
4, 7324, Note_on_c, 2, 57, 64
4, 7350, Note_on_c, 2, 57, 0
4, 7354, Note_on_c, 2, 55, 64
4, 7380, Note_on_c, 2, 55, 0
4, 7384, Note_on_c, 2, 53, 64
4, 7564, Note_on_c, 2, 53, 0
4, 7594, Note_on_c, 2, 53, 64
4, 7620, Note_on_c, 2, 53, 0
4, 7624, Note_on_c, 2, 51, 64
4, 7650, Note_on_c, 2, 51, 0
4, 7654, Note_on_c, 2, 50, 64
4, 7680, Note_on_c, 2, 50, 0
4, 7684, Note_on_c, 2, 48, 64
4, 7710, Note_on_c, 2, 48, 0
4, 7714, Note_on_c, 2, 46, 64
4, 7740, Note_on_c, 2, 46, 0
4, 7744, Note_on_c, 2, 48, 64
4, 7796, Note_on_c, 2, 48, 0
4, 7954, Note_on_c, 2, 50, 64
4, 7980, Note_on_c, 2, 50, 0
4, 7984, Note_on_c, 2, 48, 64
4, 8010, Note_on_c, 2, 48, 0
4, 8014, Note_on_c, 2, 46, 64
4, 8040, Note_on_c, 2, 46, 0
4, 8044, Note_on_c, 2, 45, 64
4, 8070, Note_on_c, 2, 45, 0
4, 8074, Note_on_c, 2, 43, 64
4, 8100, Note_on_c, 2, 43, 0
4, 8104, Note_on_c, 2, 48, 64
4, 8156, Note_on_c, 2, 48, 0
4, 8164, Note_on_c, 2, 46, 64
4, 8190, Note_on_c, 2, 46, 0
4, 8194, Note_on_c, 2, 45, 64
4, 8246, Note_on_c, 2, 45, 0
4, 8254, Note_on_c, 2, 43, 64
4, 8280, Note_on_c, 2, 43, 0
4, 8284, Note_on_c, 2, 41, 64
4, 8336, Note_on_c, 2, 41, 0
4, 8344, Note_on_c, 2, 51, 64
4, 8370, Note_on_c, 2, 51, 0
4, 8374, Note_on_c, 2, 50, 64
4, 8426, Note_on_c, 2, 50, 0
4, 8434, Note_on_c, 2, 48, 64
4, 8460, Note_on_c, 2, 48, 0
4, 8464, Note_on_c, 2, 46, 64
4, 8516, Note_on_c, 2, 46, 0
4, 8524, Note_on_c, 2, 57, 64
4, 8550, Note_on_c, 2, 57, 0
4, 8554, Note_on_c, 2, 55, 64
4, 8606, Note_on_c, 2, 55, 0
4, 8614, Note_on_c, 2, 53, 64
4, 8640, Note_on_c, 2, 53, 0
4, 8644, Note_on_c, 2, 52, 64
4, 8696, Note_on_c, 2, 52, 0
4, 8704, Note_on_c, 2, 55, 64
4, 8730, Note_on_c, 2, 55, 0
4, 8734, Note_on_c, 2, 52, 64
4, 8786, Note_on_c, 2, 52, 0
4, 8794, Note_on_c, 2, 48, 64
4, 8820, Note_on_c, 2, 48, 0
4, 8824, Note_on_c, 2, 53, 64
4, 8850, Note_on_c, 2, 53, 0
4, 8854, Note_on_c, 2, 67, 64
4, 8880, Note_on_c, 2, 67, 0
4, 8884, Note_on_c, 2, 65, 64
4, 8910, Note_on_c, 2, 65, 0
4, 8914, Note_on_c, 2, 63, 64
4, 8940, Note_on_c, 2, 63, 0
4, 8944, Note_on_c, 2, 62, 64
4, 8970, Note_on_c, 2, 62, 0
4, 8974, Note_on_c, 2, 60, 64
4, 9000, Note_on_c, 2, 60, 0
4, 9004, Note_on_c, 2, 58, 64
4, 9082, Note_on_c, 2, 58, 0
4, 9094, Note_on_c, 2, 59, 64
4, 9172, Note_on_c, 2, 59, 0
4, 9184, Note_on_c, 2, 60, 64
4, 9210, Note_on_c, 2, 60, 0
4, 9214, Note_on_c, 2, 62, 64
4, 9240, Note_on_c, 2, 62, 0
4, 9244, Note_on_c, 2, 60, 64
4, 9270, Note_on_c, 2, 60, 0
4, 9274, Note_on_c, 2, 58, 64
4, 9300, Note_on_c, 2, 58, 0
4, 9304, Note_on_c, 2, 57, 64
4, 9330, Note_on_c, 2, 57, 0
4, 9334, Note_on_c, 2, 55, 64
4, 9360, Note_on_c, 2, 55, 0
4, 9364, Note_on_c, 2, 53, 64
4, 9390, Note_on_c, 2, 53, 0
4, 9394, Note_on_c, 2, 55, 64
4, 9420, Note_on_c, 2, 55, 0
4, 9424, Note_on_c, 2, 53, 64
4, 9450, Note_on_c, 2, 53, 0
4, 9454, Note_on_c, 2, 51, 64
4, 9480, Note_on_c, 2, 51, 0
4, 9484, Note_on_c, 2, 50, 64
4, 9510, Note_on_c, 2, 50, 0
4, 9514, Note_on_c, 2, 48, 64
4, 9540, Note_on_c, 2, 48, 0
4, 9544, Note_on_c, 2, 47, 64
4, 9709, Note_on_c, 2, 47, 0
4, 9724, Note_on_c, 2, 48, 64
4, 9866, Note_on_c, 2, 48, 0
4, 9874, Note_on_c, 2, 58, 64
4, 9900, Note_on_c, 2, 58, 0
4, 9904, Note_on_c, 2, 56, 64
4, 9956, Note_on_c, 2, 56, 0
4, 9964, Note_on_c, 2, 55, 64
4, 9990, Note_on_c, 2, 55, 0
4, 9994, Note_on_c, 2, 56, 64
4, 10020, Note_on_c, 2, 56, 0
4, 10024, Note_on_c, 2, 60, 64
4, 10050, Note_on_c, 2, 60, 0
4, 10054, Note_on_c, 2, 53, 64
4, 10080, Note_on_c, 2, 53, 0
4, 10084, Note_on_c, 2, 52, 64
4, 10136, Note_on_c, 2, 52, 0
4, 10144, Note_on_c, 2, 50, 64
4, 10170, Note_on_c, 2, 50, 0
4, 10174, Note_on_c, 2, 52, 64
4, 10200, Note_on_c, 2, 52, 0
4, 10204, Note_on_c, 2, 55, 64
4, 10230, Note_on_c, 2, 55, 0
4, 10234, Note_on_c, 2, 48, 64
4, 10260, Note_on_c, 2, 48, 0
4, 10264, Note_on_c, 2, 53, 64
4, 10290, Note_on_c, 2, 53, 0
4, 10294, Note_on_c, 2, 56, 64
4, 10320, Note_on_c, 2, 56, 0
4, 10324, Note_on_c, 2, 51, 64
4, 10350, Note_on_c, 2, 51, 0
4, 10354, Note_on_c, 2, 49, 64
4, 10380, Note_on_c, 2, 49, 0
4, 10384, Note_on_c, 2, 53, 64
4, 10410, Note_on_c, 2, 53, 0
4, 10414, Note_on_c, 2, 48, 64
4, 10440, Note_on_c, 2, 48, 0
4, 10444, Note_on_c, 2, 46, 64
4, 10470, Note_on_c, 2, 46, 0
4, 10474, Note_on_c, 2, 49, 64
4, 10500, Note_on_c, 2, 49, 0
4, 10504, Note_on_c, 2, 53, 64
4, 10530, Note_on_c, 2, 53, 0
4, 10534, Note_on_c, 2, 58, 64
4, 10676, Note_on_c, 2, 58, 0
4, 10684, Note_on_c, 2, 46, 64
4, 10710, Note_on_c, 2, 46, 0
4, 10714, Note_on_c, 2, 58, 64
4, 10766, Note_on_c, 2, 58, 0
4, 10774, Note_on_c, 2, 59, 64
4, 10800, Note_on_c, 2, 59, 0
4, 10804, Note_on_c, 2, 60, 64
4, 10830, Note_on_c, 2, 60, 0
4, 10834, Note_on_c, 2, 48, 64
4, 10860, Note_on_c, 2, 48, 0
4, 10864, Note_on_c, 2, 50, 64
4, 10890, Note_on_c, 2, 50, 0
4, 10894, Note_on_c, 2, 52, 64
4, 10920, Note_on_c, 2, 52, 0
4, 10924, Note_on_c, 2, 53, 64
4, 10950, Note_on_c, 2, 53, 0
4, 10954, Note_on_c, 2, 55, 64
4, 10980, Note_on_c, 2, 55, 0
4, 10984, Note_on_c, 2, 57, 64
4, 11010, Note_on_c, 2, 57, 0
4, 11014, Note_on_c, 2, 58, 64
4, 11040, Note_on_c, 2, 58, 0
4, 11044, Note_on_c, 2, 60, 64
4, 11070, Note_on_c, 2, 60, 0
4, 11074, Note_on_c, 2, 62, 64
4, 11100, Note_on_c, 2, 62, 0
4, 11104, Note_on_c, 2, 60, 64
4, 11130, Note_on_c, 2, 60, 0
4, 11134, Note_on_c, 2, 58, 64
4, 11160, Note_on_c, 2, 58, 0
4, 11164, Note_on_c, 2, 57, 64
4, 11190, Note_on_c, 2, 57, 0
4, 11194, Note_on_c, 2, 55, 64
4, 11220, Note_on_c, 2, 55, 0
4, 11224, Note_on_c, 2, 53, 64
4, 11250, Note_on_c, 2, 53, 0
4, 11254, Note_on_c, 2, 60, 64
4, 11280, Note_on_c, 2, 60, 0
4, 11284, Note_on_c, 2, 48, 64
4, 11336, Note_on_c, 2, 48, 0
4, 11344, Note_on_c, 2, 41, 64
4, 11370, Note_on_c, 2, 41, 0
4, 11374, Note_on_c, 2, 45, 64
4, 11400, Note_on_c, 2, 45, 0
4, 11404, Note_on_c, 2, 48, 64
4, 11430, Note_on_c, 2, 48, 0
4, 11434, Note_on_c, 2, 53, 64
4, 11512, Note_on_c, 2, 53, 0
4, 11524, Note_on_c, 2, 58, 64
4, 11910, Note_on_c, 2, 58, 0
4, 11914, Note_on_c, 2, 58, 64
4, 11940, Note_on_c, 2, 58, 0
4, 11944, Note_on_c, 2, 56, 64
4, 11970, Note_on_c, 2, 56, 0
4, 11974, Note_on_c, 2, 55, 64
4, 12000, Note_on_c, 2, 55, 0
4, 12004, Note_on_c, 2, 53, 64
4, 12030, Note_on_c, 2, 53, 0
4, 12034, Note_on_c, 2, 51, 64
4, 12060, Note_on_c, 2, 51, 0
4, 12064, Note_on_c, 2, 58, 64
4, 12090, Note_on_c, 2, 58, 0
4, 12094, Note_on_c, 2, 57, 64
4, 12120, Note_on_c, 2, 57, 0
4, 12124, Note_on_c, 2, 58, 64
4, 12150, Note_on_c, 2, 58, 0
4, 12154, Note_on_c, 2, 46, 64
4, 12270, Note_on_c, 2, 46, 0
4, 12274, Note_on_c, 2, 50, 64
4, 12300, Note_on_c, 2, 50, 0
4, 12304, Note_on_c, 2, 51, 64
4, 12330, Note_on_c, 2, 51, 0
4, 12334, Note_on_c, 2, 53, 64
4, 12360, Note_on_c, 2, 53, 0
4, 12364, Note_on_c, 2, 55, 64
4, 12390, Note_on_c, 2, 55, 0
4, 12394, Note_on_c, 2, 57, 64
4, 12420, Note_on_c, 2, 57, 0
4, 12424, Note_on_c, 2, 58, 64
4, 12502, Note_on_c, 2, 58, 0
4, 12514, Note_on_c, 2, 57, 64
4, 12592, Note_on_c, 2, 57, 0
4, 12604, Note_on_c, 2, 55, 64
4, 12656, Note_on_c, 2, 55, 0
4, 12664, Note_on_c, 2, 53, 64
4, 12690, Note_on_c, 2, 53, 0
4, 12694, Note_on_c, 2, 55, 64
4, 12746, Note_on_c, 2, 55, 0
4, 12754, Note_on_c, 2, 51, 64
4, 12780, Note_on_c, 2, 51, 0
4, 12784, Note_on_c, 2, 53, 64
4, 12900, Note_on_c, 2, 53, 0
4, 12904, Note_on_c, 2, 57, 64
4, 12930, Note_on_c, 2, 57, 0
4, 12934, Note_on_c, 2, 60, 64
4, 12960, Note_on_c, 2, 60, 0
4, 12964, Note_on_c, 2, 65, 64
4, 13042, Note_on_c, 2, 65, 0
4, 13054, Note_on_c, 2, 63, 64
4, 13132, Note_on_c, 2, 63, 0
4, 13144, Note_on_c, 2, 62, 64
4, 13222, Note_on_c, 2, 62, 0
4, 13234, Note_on_c, 2, 60, 64
4, 13312, Note_on_c, 2, 60, 0
4, 13324, Note_on_c, 2, 58, 64
4, 13350, Note_on_c, 2, 58, 0
4, 13354, Note_on_c, 2, 46, 64
4, 13380, Note_on_c, 2, 46, 0
4, 13384, Note_on_c, 2, 48, 64
4, 13410, Note_on_c, 2, 48, 0
4, 13414, Note_on_c, 2, 50, 64
4, 13440, Note_on_c, 2, 50, 0
4, 13444, Note_on_c, 2, 52, 64
4, 13470, Note_on_c, 2, 52, 0
4, 13474, Note_on_c, 2, 54, 64
4, 13500, Note_on_c, 2, 54, 0
4, 13504, Note_on_c, 2, 55, 64
4, 13620, Note_on_c, 2, 55, 0
4, 13624, Note_on_c, 2, 58, 64
4, 13650, Note_on_c, 2, 58, 0
4, 13654, Note_on_c, 2, 50, 64
4, 13680, Note_on_c, 2, 50, 0
4, 13684, Note_on_c, 2, 52, 64
4, 13762, Note_on_c, 2, 52, 0
4, 13774, Note_on_c, 2, 53, 64
4, 13890, Note_on_c, 2, 53, 0
4, 13894, Note_on_c, 2, 53, 64
4, 13920, Note_on_c, 2, 53, 0
4, 13924, Note_on_c, 2, 52, 64
4, 13950, Note_on_c, 2, 52, 0
4, 13954, Note_on_c, 2, 50, 64
4, 13980, Note_on_c, 2, 50, 0
4, 13984, Note_on_c, 2, 48, 64
4, 14010, Note_on_c, 2, 48, 0
4, 14014, Note_on_c, 2, 46, 64
4, 14040, Note_on_c, 2, 46, 0
4, 14044, Note_on_c, 2, 45, 64
4, 14122, Note_on_c, 2, 45, 0
4, 14134, Note_on_c, 2, 46, 64
4, 14212, Note_on_c, 2, 46, 0
4, 14224, Note_on_c, 2, 48, 64
4, 14340, Note_on_c, 2, 48, 0
4, 14344, Note_on_c, 2, 52, 64
4, 14370, Note_on_c, 2, 52, 0
4, 14374, Note_on_c, 2, 55, 64
4, 14400, Note_on_c, 2, 55, 0
4, 14404, Note_on_c, 2, 58, 64
4, 14430, Note_on_c, 2, 58, 0
4, 14434, Note_on_c, 2, 57, 64
4, 14460, Note_on_c, 2, 57, 0
4, 14464, Note_on_c, 2, 58, 64
4, 14490, Note_on_c, 2, 58, 0
4, 14494, Note_on_c, 2, 48, 64
4, 14520, Note_on_c, 2, 48, 0
4, 14524, Note_on_c, 2, 52, 64
4, 14550, Note_on_c, 2, 52, 0
4, 14554, Note_on_c, 2, 55, 64
4, 14580, Note_on_c, 2, 55, 0
4, 14584, Note_on_c, 2, 57, 64
4, 14610, Note_on_c, 2, 57, 0
4, 14614, Note_on_c, 2, 55, 64
4, 14640, Note_on_c, 2, 55, 0
4, 14644, Note_on_c, 2, 57, 64
4, 14670, Note_on_c, 2, 57, 0
4, 14674, Note_on_c, 2, 48, 64
4, 14700, Note_on_c, 2, 48, 0
4, 14704, Note_on_c, 2, 52, 64
4, 14730, Note_on_c, 2, 52, 0
4, 14734, Note_on_c, 2, 53, 64
4, 14760, Note_on_c, 2, 53, 0
4, 14764, Note_on_c, 2, 55, 64
4, 14790, Note_on_c, 2, 55, 0
4, 14794, Note_on_c, 2, 53, 64
4, 14820, Note_on_c, 2, 53, 0
4, 14824, Note_on_c, 2, 55, 64
4, 14850, Note_on_c, 2, 55, 0
4, 14854, Note_on_c, 2, 48, 64
4, 14880, Note_on_c, 2, 48, 0
4, 14884, Note_on_c, 2, 50, 64
4, 14910, Note_on_c, 2, 50, 0
4, 14914, Note_on_c, 2, 52, 64
4, 14940, Note_on_c, 2, 52, 0
4, 14944, Note_on_c, 2, 53, 64
4, 15060, Note_on_c, 2, 53, 0
4, 15064, Note_on_c, 2, 48, 64
4, 15090, Note_on_c, 2, 48, 0
4, 15094, Note_on_c, 2, 45, 64
4, 15120, Note_on_c, 2, 45, 0
4, 15124, Note_on_c, 2, 41, 64
4, 15150, Note_on_c, 2, 41, 0
4, 15154, Note_on_c, 2, 45, 64
4, 15180, Note_on_c, 2, 45, 0
4, 15184, Note_on_c, 2, 48, 64
4, 15210, Note_on_c, 2, 48, 0
4, 15214, Note_on_c, 2, 51, 64
4, 15240, Note_on_c, 2, 51, 0
4, 15244, Note_on_c, 2, 50, 64
4, 15270, Note_on_c, 2, 50, 0
4, 15274, Note_on_c, 2, 51, 64
4, 15300, Note_on_c, 2, 51, 0
4, 15304, Note_on_c, 2, 41, 64
4, 15330, Note_on_c, 2, 41, 0
4, 15334, Note_on_c, 2, 45, 64
4, 15360, Note_on_c, 2, 45, 0
4, 15364, Note_on_c, 2, 46, 64
4, 15390, Note_on_c, 2, 46, 0
4, 15394, Note_on_c, 2, 50, 64
4, 15420, Note_on_c, 2, 50, 0
4, 15424, Note_on_c, 2, 48, 64
4, 15450, Note_on_c, 2, 48, 0
4, 15454, Note_on_c, 2, 50, 64
4, 15480, Note_on_c, 2, 50, 0
4, 15484, Note_on_c, 2, 39, 64
4, 15510, Note_on_c, 2, 39, 0
4, 15514, Note_on_c, 2, 43, 64
4, 15540, Note_on_c, 2, 43, 0
4, 15544, Note_on_c, 2, 45, 64
4, 15570, Note_on_c, 2, 45, 0
4, 15574, Note_on_c, 2, 48, 64
4, 15600, Note_on_c, 2, 48, 0
4, 15604, Note_on_c, 2, 46, 64
4, 15630, Note_on_c, 2, 46, 0
4, 15634, Note_on_c, 2, 48, 64
4, 15660, Note_on_c, 2, 48, 0
4, 15664, Note_on_c, 2, 39, 64
4, 15690, Note_on_c, 2, 39, 0
4, 15694, Note_on_c, 2, 38, 64
4, 15720, Note_on_c, 2, 38, 0
4, 15724, Note_on_c, 2, 41, 64
4, 15750, Note_on_c, 2, 41, 0
4, 15754, Note_on_c, 2, 46, 64
4, 15780, Note_on_c, 2, 46, 0
4, 15784, Note_on_c, 2, 50, 64
4, 15810, Note_on_c, 2, 50, 0
4, 15814, Note_on_c, 2, 53, 64
4, 15840, Note_on_c, 2, 53, 0
4, 15844, Note_on_c, 2, 58, 64
4, 15922, Note_on_c, 2, 58, 0
4, 15934, Note_on_c, 2, 65, 64
4, 16012, Note_on_c, 2, 65, 0
4, 16024, Note_on_c, 2, 70, 64
4, 16102, Note_on_c, 2, 70, 0
4, 16114, Note_on_c, 2, 51, 64
4, 16192, Note_on_c, 2, 51, 0
4, 16204, Note_on_c, 2, 45, 64
4, 16282, Note_on_c, 2, 45, 0
4, 16294, Note_on_c, 2, 63, 64
4, 16372, Note_on_c, 2, 63, 0
4, 16384, Note_on_c, 2, 69, 64
4, 16462, Note_on_c, 2, 69, 0
4, 16474, Note_on_c, 2, 50, 64
4, 16552, Note_on_c, 2, 50, 0
4, 16564, Note_on_c, 2, 43, 64
4, 16642, Note_on_c, 2, 43, 0
4, 16654, Note_on_c, 2, 53, 64
4, 16680, Note_on_c, 2, 53, 0
4, 16684, Note_on_c, 2, 58, 64
4, 16710, Note_on_c, 2, 58, 0
4, 16714, Note_on_c, 2, 55, 64
4, 16740, Note_on_c, 2, 55, 0
4, 16744, Note_on_c, 2, 52, 64
4, 16770, Note_on_c, 2, 52, 0
4, 16774, Note_on_c, 2, 58, 64
4, 16800, Note_on_c, 2, 58, 0
4, 16804, Note_on_c, 2, 55, 64
4, 16830, Note_on_c, 2, 55, 0
4, 16834, Note_on_c, 2, 52, 64
4, 16860, Note_on_c, 2, 52, 0
4, 16864, Note_on_c, 2, 58, 64
4, 16890, Note_on_c, 2, 58, 0
4, 16894, Note_on_c, 2, 67, 64
4, 16920, Note_on_c, 2, 67, 0
4, 16924, Note_on_c, 2, 56, 64
4, 16950, Note_on_c, 2, 56, 0
4, 16954, Note_on_c, 2, 55, 64
4, 16980, Note_on_c, 2, 55, 0
4, 16984, Note_on_c, 2, 56, 64
4, 17010, Note_on_c, 2, 56, 0
4, 17014, Note_on_c, 2, 51, 64
4, 17040, Note_on_c, 2, 51, 0
4, 17044, Note_on_c, 2, 56, 64
4, 17070, Note_on_c, 2, 56, 0
4, 17074, Note_on_c, 2, 53, 64
4, 17100, Note_on_c, 2, 53, 0
4, 17104, Note_on_c, 2, 50, 64
4, 17130, Note_on_c, 2, 50, 0
4, 17134, Note_on_c, 2, 56, 64
4, 17160, Note_on_c, 2, 56, 0
4, 17164, Note_on_c, 2, 53, 64
4, 17190, Note_on_c, 2, 53, 0
4, 17194, Note_on_c, 2, 50, 64
4, 17220, Note_on_c, 2, 50, 0
4, 17224, Note_on_c, 2, 56, 64
4, 17250, Note_on_c, 2, 56, 0
4, 17254, Note_on_c, 2, 65, 64
4, 17280, Note_on_c, 2, 65, 0
4, 17284, Note_on_c, 2, 55, 64
4, 17310, Note_on_c, 2, 55, 0
4, 17314, Note_on_c, 2, 65, 64
4, 17340, Note_on_c, 2, 65, 0
4, 17344, Note_on_c, 2, 63, 64
4, 17370, Note_on_c, 2, 63, 0
4, 17374, Note_on_c, 2, 62, 64
4, 17400, Note_on_c, 2, 62, 0
4, 17404, Note_on_c, 2, 60, 64
4, 17430, Note_on_c, 2, 60, 0
4, 17434, Note_on_c, 2, 58, 64
4, 17460, Note_on_c, 2, 58, 0
4, 17464, Note_on_c, 2, 57, 64
4, 17542, Note_on_c, 2, 57, 0
4, 17554, Note_on_c, 2, 53, 64
4, 17632, Note_on_c, 2, 53, 0
4, 17644, Note_on_c, 2, 46, 64
4, 17809, Note_on_c, 2, 46, 0
4, 17824, Note_on_c, 2, 48, 64
4, 17989, Note_on_c, 2, 48, 0
4, 18004, Note_on_c, 2, 50, 64
4, 18169, Note_on_c, 2, 50, 0
4, 18184, Note_on_c, 2, 52, 64
4, 18210, Note_on_c, 2, 52, 0
4, 18214, Note_on_c, 2, 55, 64
4, 18240, Note_on_c, 2, 55, 0
4, 18244, Note_on_c, 2, 53, 64
4, 18270, Note_on_c, 2, 53, 0
4, 18274, Note_on_c, 2, 52, 64
4, 18300, Note_on_c, 2, 52, 0
4, 18304, Note_on_c, 2, 50, 64
4, 18330, Note_on_c, 2, 50, 0
4, 18334, Note_on_c, 2, 48, 64
4, 18360, Note_on_c, 2, 48, 0
4, 18364, Note_on_c, 2, 53, 64
4, 18529, Note_on_c, 2, 53, 0
4, 18544, Note_on_c, 2, 55, 64
4, 18570, Note_on_c, 2, 55, 0
4, 18574, Note_on_c, 2, 58, 64
4, 18600, Note_on_c, 2, 58, 0
4, 18604, Note_on_c, 2, 57, 64
4, 18630, Note_on_c, 2, 57, 0
4, 18634, Note_on_c, 2, 55, 64
4, 18660, Note_on_c, 2, 55, 0
4, 18664, Note_on_c, 2, 53, 64
4, 18690, Note_on_c, 2, 53, 0
4, 18694, Note_on_c, 2, 52, 64
4, 18720, Note_on_c, 2, 52, 0
4, 18724, Note_on_c, 2, 57, 64
4, 18750, Note_on_c, 2, 57, 0
4, 18754, Note_on_c, 2, 55, 64
4, 18780, Note_on_c, 2, 55, 0
4, 18784, Note_on_c, 2, 57, 64
4, 18810, Note_on_c, 2, 57, 0
4, 18814, Note_on_c, 2, 58, 64
4, 18840, Note_on_c, 2, 58, 0
4, 18844, Note_on_c, 2, 57, 64
4, 18870, Note_on_c, 2, 57, 0
4, 18874, Note_on_c, 2, 55, 64
4, 18900, Note_on_c, 2, 55, 0
4, 18904, Note_on_c, 2, 53, 64
4, 19084, Note_on_c, 2, 53, 0
4, 19114, Note_on_c, 2, 53, 64
4, 19140, Note_on_c, 2, 53, 0
4, 19144, Note_on_c, 2, 51, 64
4, 19170, Note_on_c, 2, 51, 0
4, 19174, Note_on_c, 2, 50, 64
4, 19200, Note_on_c, 2, 50, 0
4, 19204, Note_on_c, 2, 48, 64
4, 19230, Note_on_c, 2, 48, 0
4, 19234, Note_on_c, 2, 46, 64
4, 19260, Note_on_c, 2, 46, 0
4, 19264, Note_on_c, 2, 48, 64
4, 19316, Note_on_c, 2, 48, 0
4, 19474, Note_on_c, 2, 50, 64
4, 19500, Note_on_c, 2, 50, 0
4, 19504, Note_on_c, 2, 48, 64
4, 19530, Note_on_c, 2, 48, 0
4, 19534, Note_on_c, 2, 46, 64
4, 19560, Note_on_c, 2, 46, 0
4, 19564, Note_on_c, 2, 45, 64
4, 19590, Note_on_c, 2, 45, 0
4, 19594, Note_on_c, 2, 43, 64
4, 19620, Note_on_c, 2, 43, 0
4, 19624, Note_on_c, 2, 48, 64
4, 19676, Note_on_c, 2, 48, 0
4, 19684, Note_on_c, 2, 46, 64
4, 19710, Note_on_c, 2, 46, 0
4, 19714, Note_on_c, 2, 45, 64
4, 19766, Note_on_c, 2, 45, 0
4, 19774, Note_on_c, 2, 43, 64
4, 19800, Note_on_c, 2, 43, 0
4, 19804, Note_on_c, 2, 41, 64
4, 19856, Note_on_c, 2, 41, 0
4, 19864, Note_on_c, 2, 51, 64
4, 19890, Note_on_c, 2, 51, 0
4, 19894, Note_on_c, 2, 50, 64
4, 19946, Note_on_c, 2, 50, 0
4, 19954, Note_on_c, 2, 48, 64
4, 19980, Note_on_c, 2, 48, 0
4, 19984, Note_on_c, 2, 46, 64
4, 20036, Note_on_c, 2, 46, 0
4, 20044, Note_on_c, 2, 57, 64
4, 20070, Note_on_c, 2, 57, 0
4, 20074, Note_on_c, 2, 55, 64
4, 20126, Note_on_c, 2, 55, 0
4, 20134, Note_on_c, 2, 53, 64
4, 20160, Note_on_c, 2, 53, 0
4, 20164, Note_on_c, 2, 52, 64
4, 20216, Note_on_c, 2, 52, 0
4, 20224, Note_on_c, 2, 55, 64
4, 20250, Note_on_c, 2, 55, 0
4, 20254, Note_on_c, 2, 52, 64
4, 20306, Note_on_c, 2, 52, 0
4, 20314, Note_on_c, 2, 48, 64
4, 20340, Note_on_c, 2, 48, 0
4, 20344, Note_on_c, 2, 53, 64
4, 20370, Note_on_c, 2, 53, 0
4, 20374, Note_on_c, 2, 67, 64
4, 20400, Note_on_c, 2, 67, 0
4, 20404, Note_on_c, 2, 65, 64
4, 20430, Note_on_c, 2, 65, 0
4, 20434, Note_on_c, 2, 63, 64
4, 20460, Note_on_c, 2, 63, 0
4, 20464, Note_on_c, 2, 62, 64
4, 20490, Note_on_c, 2, 62, 0
4, 20494, Note_on_c, 2, 60, 64
4, 20520, Note_on_c, 2, 60, 0
4, 20524, Note_on_c, 2, 58, 64
4, 20602, Note_on_c, 2, 58, 0
4, 20614, Note_on_c, 2, 59, 64
4, 20692, Note_on_c, 2, 59, 0
4, 20704, Note_on_c, 2, 60, 64
4, 20730, Note_on_c, 2, 60, 0
4, 20734, Note_on_c, 2, 62, 64
4, 20760, Note_on_c, 2, 62, 0
4, 20764, Note_on_c, 2, 60, 64
4, 20790, Note_on_c, 2, 60, 0
4, 20794, Note_on_c, 2, 58, 64
4, 20820, Note_on_c, 2, 58, 0
4, 20824, Note_on_c, 2, 57, 64
4, 20850, Note_on_c, 2, 57, 0
4, 20854, Note_on_c, 2, 55, 64
4, 20880, Note_on_c, 2, 55, 0
4, 20884, Note_on_c, 2, 53, 64
4, 20910, Note_on_c, 2, 53, 0
4, 20914, Note_on_c, 2, 55, 64
4, 20940, Note_on_c, 2, 55, 0
4, 20944, Note_on_c, 2, 53, 64
4, 20970, Note_on_c, 2, 53, 0
4, 20974, Note_on_c, 2, 51, 64
4, 21000, Note_on_c, 2, 51, 0
4, 21004, Note_on_c, 2, 50, 64
4, 21030, Note_on_c, 2, 50, 0
4, 21034, Note_on_c, 2, 48, 64
4, 21060, Note_on_c, 2, 48, 0
4, 21064, Note_on_c, 2, 47, 64
4, 21229, Note_on_c, 2, 47, 0
4, 21244, Note_on_c, 2, 48, 64
4, 21386, Note_on_c, 2, 48, 0
4, 21394, Note_on_c, 2, 58, 64
4, 21420, Note_on_c, 2, 58, 0
4, 21424, Note_on_c, 2, 56, 64
4, 21476, Note_on_c, 2, 56, 0
4, 21484, Note_on_c, 2, 55, 64
4, 21510, Note_on_c, 2, 55, 0
4, 21514, Note_on_c, 2, 56, 64
4, 21540, Note_on_c, 2, 56, 0
4, 21544, Note_on_c, 2, 60, 64
4, 21570, Note_on_c, 2, 60, 0
4, 21574, Note_on_c, 2, 53, 64
4, 21600, Note_on_c, 2, 53, 0
4, 21604, Note_on_c, 2, 52, 64
4, 21656, Note_on_c, 2, 52, 0
4, 21664, Note_on_c, 2, 50, 64
4, 21690, Note_on_c, 2, 50, 0
4, 21694, Note_on_c, 2, 52, 64
4, 21720, Note_on_c, 2, 52, 0
4, 21724, Note_on_c, 2, 55, 64
4, 21750, Note_on_c, 2, 55, 0
4, 21754, Note_on_c, 2, 48, 64
4, 21780, Note_on_c, 2, 48, 0
4, 21784, Note_on_c, 2, 53, 64
4, 21810, Note_on_c, 2, 53, 0
4, 21814, Note_on_c, 2, 56, 64
4, 21840, Note_on_c, 2, 56, 0
4, 21844, Note_on_c, 2, 51, 64
4, 21870, Note_on_c, 2, 51, 0
4, 21874, Note_on_c, 2, 49, 64
4, 21900, Note_on_c, 2, 49, 0
4, 21904, Note_on_c, 2, 53, 64
4, 21930, Note_on_c, 2, 53, 0
4, 21934, Note_on_c, 2, 48, 64
4, 21960, Note_on_c, 2, 48, 0
4, 21964, Note_on_c, 2, 46, 64
4, 21990, Note_on_c, 2, 46, 0
4, 21994, Note_on_c, 2, 49, 64
4, 22020, Note_on_c, 2, 49, 0
4, 22024, Note_on_c, 2, 53, 64
4, 22050, Note_on_c, 2, 53, 0
4, 22054, Note_on_c, 2, 58, 64
4, 22196, Note_on_c, 2, 58, 0
4, 22204, Note_on_c, 2, 46, 64
4, 22230, Note_on_c, 2, 46, 0
4, 22234, Note_on_c, 2, 58, 64
4, 22286, Note_on_c, 2, 58, 0
4, 22294, Note_on_c, 2, 59, 64
4, 22320, Note_on_c, 2, 59, 0
4, 22324, Note_on_c, 2, 60, 64
4, 22350, Note_on_c, 2, 60, 0
4, 22354, Note_on_c, 2, 48, 64
4, 22380, Note_on_c, 2, 48, 0
4, 22384, Note_on_c, 2, 50, 64
4, 22410, Note_on_c, 2, 50, 0
4, 22414, Note_on_c, 2, 52, 64
4, 22440, Note_on_c, 2, 52, 0
4, 22444, Note_on_c, 2, 53, 64
4, 22470, Note_on_c, 2, 53, 0
4, 22474, Note_on_c, 2, 55, 64
4, 22500, Note_on_c, 2, 55, 0
4, 22504, Note_on_c, 2, 57, 64
4, 22530, Note_on_c, 2, 57, 0
4, 22534, Note_on_c, 2, 58, 64
4, 22560, Note_on_c, 2, 58, 0
4, 22564, Note_on_c, 2, 60, 64
4, 22590, Note_on_c, 2, 60, 0
4, 22594, Note_on_c, 2, 62, 64
4, 22620, Note_on_c, 2, 62, 0
4, 22624, Note_on_c, 2, 60, 64
4, 22650, Note_on_c, 2, 60, 0
4, 22654, Note_on_c, 2, 58, 64
4, 22680, Note_on_c, 2, 58, 0
4, 22684, Note_on_c, 2, 57, 64
4, 22710, Note_on_c, 2, 57, 0
4, 22714, Note_on_c, 2, 55, 64
4, 22740, Note_on_c, 2, 55, 0
4, 22744, Note_on_c, 2, 53, 64
4, 22770, Note_on_c, 2, 53, 0
4, 22774, Note_on_c, 2, 60, 64
4, 22800, Note_on_c, 2, 60, 0
4, 22804, Note_on_c, 2, 48, 64
4, 22856, Note_on_c, 2, 48, 0
4, 22864, Note_on_c, 2, 41, 64
4, 22890, Note_on_c, 2, 41, 0
4, 22894, Note_on_c, 2, 45, 64
4, 22920, Note_on_c, 2, 45, 0
4, 22924, Note_on_c, 2, 48, 64
4, 22950, Note_on_c, 2, 48, 0
4, 22954, Note_on_c, 2, 53, 64
4, 23032, Note_on_c, 2, 53, 0
4, 23044, Note_on_c, 2, 41, 64
4, 23070, Note_on_c, 2, 41, 0
4, 23074, Note_on_c, 2, 57, 64
4, 23100, Note_on_c, 2, 57, 0
4, 23104, Note_on_c, 2, 55, 64
4, 23130, Note_on_c, 2, 55, 0
4, 23134, Note_on_c, 2, 57, 64
4, 23160, Note_on_c, 2, 57, 0
4, 23164, Note_on_c, 2, 58, 64
4, 23190, Note_on_c, 2, 58, 0
4, 23194, Note_on_c, 2, 60, 64
4, 23220, Note_on_c, 2, 60, 0
4, 23224, Note_on_c, 2, 43, 64
4, 23250, Note_on_c, 2, 43, 0
4, 23254, Note_on_c, 2, 62, 64
4, 23280, Note_on_c, 2, 62, 0
4, 23284, Note_on_c, 2, 60, 64
4, 23310, Note_on_c, 2, 60, 0
4, 23314, Note_on_c, 2, 58, 64
4, 23340, Note_on_c, 2, 58, 0
4, 23344, Note_on_c, 2, 57, 64
4, 23370, Note_on_c, 2, 57, 0
4, 23374, Note_on_c, 2, 55, 64
4, 23400, Note_on_c, 2, 55, 0
4, 23404, Note_on_c, 2, 45, 64
4, 23430, Note_on_c, 2, 45, 0
4, 23434, Note_on_c, 2, 57, 64
4, 23460, Note_on_c, 2, 57, 0
4, 23464, Note_on_c, 2, 58, 64
4, 23490, Note_on_c, 2, 58, 0
4, 23494, Note_on_c, 2, 57, 64
4, 23520, Note_on_c, 2, 57, 0
4, 23524, Note_on_c, 2, 55, 64
4, 23550, Note_on_c, 2, 55, 0
4, 23554, Note_on_c, 2, 53, 64
4, 23580, Note_on_c, 2, 53, 0
4, 23584, Note_on_c, 2, 46, 64
4, 23610, Note_on_c, 2, 46, 0
4, 23614, Note_on_c, 2, 50, 64
4, 23640, Note_on_c, 2, 50, 0
4, 23644, Note_on_c, 2, 51, 64
4, 23670, Note_on_c, 2, 51, 0
4, 23674, Note_on_c, 2, 53, 64
4, 23700, Note_on_c, 2, 53, 0
4, 23704, Note_on_c, 2, 55, 64
4, 23730, Note_on_c, 2, 55, 0
4, 23734, Note_on_c, 2, 56, 64
4, 23760, Note_on_c, 2, 56, 0
4, 23764, Note_on_c, 2, 43, 64
4, 23790, Note_on_c, 2, 43, 0
4, 23794, Note_on_c, 2, 59, 64
4, 23820, Note_on_c, 2, 59, 0
4, 23824, Note_on_c, 2, 57, 64
4, 23850, Note_on_c, 2, 57, 0
4, 23854, Note_on_c, 2, 59, 64
4, 23880, Note_on_c, 2, 59, 0
4, 23884, Note_on_c, 2, 60, 64
4, 23910, Note_on_c, 2, 60, 0
4, 23914, Note_on_c, 2, 62, 64
4, 23940, Note_on_c, 2, 62, 0
4, 23944, Note_on_c, 2, 45, 64
4, 23970, Note_on_c, 2, 45, 0
4, 23974, Note_on_c, 2, 63, 64
4, 24000, Note_on_c, 2, 63, 0
4, 24004, Note_on_c, 2, 62, 64
4, 24030, Note_on_c, 2, 62, 0
4, 24034, Note_on_c, 2, 60, 64
4, 24060, Note_on_c, 2, 60, 0
4, 24064, Note_on_c, 2, 59, 64
4, 24090, Note_on_c, 2, 59, 0
4, 24094, Note_on_c, 2, 57, 64
4, 24120, Note_on_c, 2, 57, 0
4, 24124, Note_on_c, 2, 47, 64
4, 24150, Note_on_c, 2, 47, 0
4, 24154, Note_on_c, 2, 59, 64
4, 24180, Note_on_c, 2, 59, 0
4, 24184, Note_on_c, 2, 60, 64
4, 24210, Note_on_c, 2, 60, 0
4, 24214, Note_on_c, 2, 59, 64
4, 24240, Note_on_c, 2, 59, 0
4, 24244, Note_on_c, 2, 57, 64
4, 24270, Note_on_c, 2, 57, 0
4, 24274, Note_on_c, 2, 55, 64
4, 24300, Note_on_c, 2, 55, 0
4, 24304, Note_on_c, 2, 48, 64
4, 24330, Note_on_c, 2, 48, 0
4, 24334, Note_on_c, 2, 51, 64
4, 24360, Note_on_c, 2, 51, 0
4, 24364, Note_on_c, 2, 53, 64
4, 24390, Note_on_c, 2, 53, 0
4, 24394, Note_on_c, 2, 55, 64
4, 24420, Note_on_c, 2, 55, 0
4, 24424, Note_on_c, 2, 57, 64
4, 24450, Note_on_c, 2, 57, 0
4, 24454, Note_on_c, 2, 59, 64
4, 24480, Note_on_c, 2, 59, 0
4, 24484, Note_on_c, 2, 60, 64
4, 24562, Note_on_c, 2, 60, 0
4, 24574, Note_on_c, 2, 79, 64
4, 24652, Note_on_c, 2, 79, 0
4, 24664, Note_on_c, 2, 84, 64
4, 24742, Note_on_c, 2, 84, 0
4, 24754, Note_on_c, 2, 56, 64
4, 24832, Note_on_c, 2, 56, 0
4, 24844, Note_on_c, 2, 58, 64
4, 24922, Note_on_c, 2, 58, 0
4, 24934, Note_on_c, 2, 77, 64
4, 25012, Note_on_c, 2, 77, 0
4, 25024, Note_on_c, 2, 82, 64
4, 25102, Note_on_c, 2, 82, 0
4, 25114, Note_on_c, 2, 55, 64
4, 25192, Note_on_c, 2, 55, 0
4, 25204, Note_on_c, 2, 56, 64
4, 25282, Note_on_c, 2, 56, 0
4, 25294, Note_on_c, 2, 67, 64
4, 25320, Note_on_c, 2, 67, 0
4, 25324, Note_on_c, 2, 72, 64
4, 25350, Note_on_c, 2, 72, 0
4, 25354, Note_on_c, 2, 68, 64
4, 25380, Note_on_c, 2, 68, 0
4, 25384, Note_on_c, 2, 65, 64
4, 25410, Note_on_c, 2, 65, 0
4, 25414, Note_on_c, 2, 72, 64
4, 25440, Note_on_c, 2, 72, 0
4, 25444, Note_on_c, 2, 68, 64
4, 25470, Note_on_c, 2, 68, 0
4, 25474, Note_on_c, 2, 62, 64
4, 25500, Note_on_c, 2, 62, 0
4, 25504, Note_on_c, 2, 68, 64
4, 25530, Note_on_c, 2, 68, 0
4, 25534, Note_on_c, 2, 72, 64
4, 25560, Note_on_c, 2, 72, 0
4, 25564, Note_on_c, 2, 71, 64
4, 25590, Note_on_c, 2, 71, 0
4, 25594, Note_on_c, 2, 69, 64
4, 25620, Note_on_c, 2, 69, 0
4, 25624, Note_on_c, 2, 67, 64
4, 25650, Note_on_c, 2, 67, 0
4, 25654, Note_on_c, 2, 65, 64
4, 25680, Note_on_c, 2, 65, 0
4, 25684, Note_on_c, 2, 71, 64
4, 25710, Note_on_c, 2, 71, 0
4, 25714, Note_on_c, 2, 67, 64
4, 25740, Note_on_c, 2, 67, 0
4, 25744, Note_on_c, 2, 64, 64
4, 25770, Note_on_c, 2, 64, 0
4, 25774, Note_on_c, 2, 70, 64
4, 25800, Note_on_c, 2, 70, 0
4, 25804, Note_on_c, 2, 67, 64
4, 25830, Note_on_c, 2, 67, 0
4, 25834, Note_on_c, 2, 60, 64
4, 25860, Note_on_c, 2, 60, 0
4, 25864, Note_on_c, 2, 67, 64
4, 25890, Note_on_c, 2, 67, 0
4, 25894, Note_on_c, 2, 70, 64
4, 25920, Note_on_c, 2, 70, 0
4, 25924, Note_on_c, 2, 68, 64
4, 25950, Note_on_c, 2, 68, 0
4, 25954, Note_on_c, 2, 67, 64
4, 25980, Note_on_c, 2, 67, 0
4, 25984, Note_on_c, 2, 65, 64
4, 26010, Note_on_c, 2, 65, 0
4, 26014, Note_on_c, 2, 63, 64
4, 26040, Note_on_c, 2, 63, 0
4, 26044, Note_on_c, 2, 62, 64
4, 26070, Note_on_c, 2, 62, 0
4, 26074, Note_on_c, 2, 60, 64
4, 26100, Note_on_c, 2, 60, 0
4, 26104, Note_on_c, 2, 59, 64
4, 26182, Note_on_c, 2, 59, 0
4, 26194, Note_on_c, 2, 55, 64
4, 26272, Note_on_c, 2, 55, 0
4, 26284, Note_on_c, 2, 60, 64
4, 26362, Note_on_c, 2, 60, 0
4, 26374, Note_on_c, 2, 61, 64
4, 26452, Note_on_c, 2, 61, 0
4, 26464, Note_on_c, 2, 62, 64
4, 26580, Note_on_c, 2, 62, 0
4, 26584, Note_on_c, 2, 60, 64
4, 26610, Note_on_c, 2, 60, 0
4, 26614, Note_on_c, 2, 58, 64
4, 26640, Note_on_c, 2, 58, 0
4, 26644, Note_on_c, 2, 63, 64
4, 26670, Note_on_c, 2, 63, 0
4, 26674, Note_on_c, 2, 62, 64
4, 26700, Note_on_c, 2, 62, 0
4, 26704, Note_on_c, 2, 60, 64
4, 26730, Note_on_c, 2, 60, 0
4, 26734, Note_on_c, 2, 58, 64
4, 26760, Note_on_c, 2, 58, 0
4, 26764, Note_on_c, 2, 57, 64
4, 26790, Note_on_c, 2, 57, 0
4, 26794, Note_on_c, 2, 55, 64
4, 26820, Note_on_c, 2, 55, 0
4, 26824, Note_on_c, 2, 54, 64
4, 26850, Note_on_c, 2, 54, 0
4, 26854, Note_on_c, 2, 57, 64
4, 26880, Note_on_c, 2, 57, 0
4, 26884, Note_on_c, 2, 55, 64
4, 26910, Note_on_c, 2, 55, 0
4, 26914, Note_on_c, 2, 54, 64
4, 26940, Note_on_c, 2, 54, 0
4, 26944, Note_on_c, 2, 52, 64
4, 26970, Note_on_c, 2, 52, 0
4, 26974, Note_on_c, 2, 50, 64
4, 27000, Note_on_c, 2, 50, 0
4, 27004, Note_on_c, 2, 55, 64
4, 27120, Note_on_c, 2, 55, 0
4, 27124, Note_on_c, 2, 57, 64
4, 27150, Note_on_c, 2, 57, 0
4, 27154, Note_on_c, 2, 58, 64
4, 27180, Note_on_c, 2, 58, 0
4, 27184, Note_on_c, 2, 57, 64
4, 27210, Note_on_c, 2, 57, 0
4, 27214, Note_on_c, 2, 60, 64
4, 27240, Note_on_c, 2, 60, 0
4, 27244, Note_on_c, 2, 58, 64
4, 27270, Note_on_c, 2, 58, 0
4, 27274, Note_on_c, 2, 57, 64
4, 27300, Note_on_c, 2, 57, 0
4, 27304, Note_on_c, 2, 55, 64
4, 27330, Note_on_c, 2, 55, 0
4, 27334, Note_on_c, 2, 53, 64
4, 27360, Note_on_c, 2, 53, 0
4, 27364, Note_on_c, 2, 58, 64
4, 27390, Note_on_c, 2, 58, 0
4, 27394, Note_on_c, 2, 57, 64
4, 27420, Note_on_c, 2, 57, 0
4, 27424, Note_on_c, 2, 58, 64
4, 27450, Note_on_c, 2, 58, 0
4, 27454, Note_on_c, 2, 60, 64
4, 27480, Note_on_c, 2, 60, 0
4, 27484, Note_on_c, 2, 66, 64
4, 27510, Note_on_c, 2, 66, 0
4, 27514, Note_on_c, 2, 69, 64
4, 27540, Note_on_c, 2, 69, 0
4, 27544, Note_on_c, 2, 62, 64
4, 27570, Note_on_c, 2, 62, 0
4, 27754, Note_on_c, 2, 55, 64
4, 27780, Note_on_c, 2, 55, 0
4, 27784, Note_on_c, 2, 53, 64
4, 27810, Note_on_c, 2, 53, 0
4, 27814, Note_on_c, 2, 51, 64
4, 27840, Note_on_c, 2, 51, 0
4, 27844, Note_on_c, 2, 50, 64
4, 27870, Note_on_c, 2, 50, 0
4, 27874, Note_on_c, 2, 48, 64
4, 27900, Note_on_c, 2, 48, 0
4, 27904, Note_on_c, 2, 53, 64
4, 27956, Note_on_c, 2, 53, 0
4, 28114, Note_on_c, 2, 51, 64
4, 28140, Note_on_c, 2, 51, 0
4, 28144, Note_on_c, 2, 50, 64
4, 28170, Note_on_c, 2, 50, 0
4, 28174, Note_on_c, 2, 48, 64
4, 28200, Note_on_c, 2, 48, 0
4, 28204, Note_on_c, 2, 46, 64
4, 28230, Note_on_c, 2, 46, 0
4, 28234, Note_on_c, 2, 45, 64
4, 28260, Note_on_c, 2, 45, 0
4, 28264, Note_on_c, 2, 50, 64
4, 28342, Note_on_c, 2, 50, 0
4, 28354, Note_on_c, 2, 51, 64
4, 28496, Note_on_c, 2, 51, 0
4, 28504, Note_on_c, 2, 46, 64
4, 28530, Note_on_c, 2, 46, 0
4, 28534, Note_on_c, 2, 48, 64
4, 28586, Note_on_c, 2, 48, 0
4, 28594, Note_on_c, 2, 50, 64
4, 28620, Note_on_c, 2, 50, 0
4, 28624, Note_on_c, 2, 55, 64
4, 28740, Note_on_c, 2, 55, 0
4, 28744, Note_on_c, 2, 53, 64
4, 28770, Note_on_c, 2, 53, 0
4, 28774, Note_on_c, 2, 51, 64
4, 28800, Note_on_c, 2, 51, 0
4, 28804, Note_on_c, 2, 50, 64
4, 28882, Note_on_c, 2, 50, 0
4, 28894, Note_on_c, 2, 51, 64
4, 28972, Note_on_c, 2, 51, 0
4, 28984, Note_on_c, 2, 53, 64
4, 29062, Note_on_c, 2, 53, 0
4, 29074, Note_on_c, 2, 55, 64
4, 29152, Note_on_c, 2, 55, 0
4, 29164, Note_on_c, 2, 56, 64
4, 29190, Note_on_c, 2, 56, 0
4, 29194, Note_on_c, 2, 58, 64
4, 29220, Note_on_c, 2, 58, 0
4, 29224, Note_on_c, 2, 56, 64
4, 29250, Note_on_c, 2, 56, 0
4, 29254, Note_on_c, 2, 55, 64
4, 29280, Note_on_c, 2, 55, 0
4, 29284, Note_on_c, 2, 53, 64
4, 29310, Note_on_c, 2, 53, 0
4, 29314, Note_on_c, 2, 51, 64
4, 29340, Note_on_c, 2, 51, 0
4, 29344, Note_on_c, 2, 53, 64
4, 29370, Note_on_c, 2, 53, 0
4, 29374, Note_on_c, 2, 55, 64
4, 29400, Note_on_c, 2, 55, 0
4, 29404, Note_on_c, 2, 53, 64
4, 29430, Note_on_c, 2, 53, 0
4, 29434, Note_on_c, 2, 51, 64
4, 29460, Note_on_c, 2, 51, 0
4, 29464, Note_on_c, 2, 50, 64
4, 29490, Note_on_c, 2, 50, 0
4, 29494, Note_on_c, 2, 48, 64
4, 29520, Note_on_c, 2, 48, 0
4, 29524, Note_on_c, 2, 47, 64
4, 29576, Note_on_c, 2, 47, 0
4, 29614, Note_on_c, 2, 48, 64
4, 29666, Note_on_c, 2, 48, 0
4, 29704, Note_on_c, 2, 45, 64
4, 29756, Note_on_c, 2, 45, 0
4, 29794, Note_on_c, 2, 46, 64
4, 29820, Note_on_c, 2, 46, 0
4, 29824, Note_on_c, 2, 58, 64
4, 29850, Note_on_c, 2, 58, 0
4, 29854, Note_on_c, 2, 57, 64
4, 29880, Note_on_c, 2, 57, 0
4, 29884, Note_on_c, 2, 55, 64
4, 29910, Note_on_c, 2, 55, 0
4, 29914, Note_on_c, 2, 53, 64
4, 29940, Note_on_c, 2, 53, 0
4, 29944, Note_on_c, 2, 51, 64
4, 29970, Note_on_c, 2, 51, 0
4, 29974, Note_on_c, 2, 50, 64
4, 30000, Note_on_c, 2, 50, 0
4, 30004, Note_on_c, 2, 48, 64
4, 30030, Note_on_c, 2, 48, 0
4, 30034, Note_on_c, 2, 46, 64
4, 30060, Note_on_c, 2, 46, 0
4, 30064, Note_on_c, 2, 53, 64
4, 30180, Note_on_c, 2, 53, 0
4, 30184, Note_on_c, 2, 57, 64
4, 30210, Note_on_c, 2, 57, 0
4, 30214, Note_on_c, 2, 60, 64
4, 30240, Note_on_c, 2, 60, 0
4, 30244, Note_on_c, 2, 63, 64
4, 30270, Note_on_c, 2, 63, 0
4, 30274, Note_on_c, 2, 62, 64
4, 30300, Note_on_c, 2, 62, 0
4, 30304, Note_on_c, 2, 63, 64
4, 30330, Note_on_c, 2, 63, 0
4, 30334, Note_on_c, 2, 53, 64
4, 30360, Note_on_c, 2, 53, 0
4, 30364, Note_on_c, 2, 57, 64
4, 30390, Note_on_c, 2, 57, 0
4, 30394, Note_on_c, 2, 60, 64
4, 30420, Note_on_c, 2, 60, 0
4, 30424, Note_on_c, 2, 62, 64
4, 30450, Note_on_c, 2, 62, 0
4, 30454, Note_on_c, 2, 60, 64
4, 30480, Note_on_c, 2, 60, 0
4, 30484, Note_on_c, 2, 62, 64
4, 30510, Note_on_c, 2, 62, 0
4, 30514, Note_on_c, 2, 53, 64
4, 30540, Note_on_c, 2, 53, 0
4, 30544, Note_on_c, 2, 57, 64
4, 30570, Note_on_c, 2, 57, 0
4, 30574, Note_on_c, 2, 58, 64
4, 30600, Note_on_c, 2, 58, 0
4, 30604, Note_on_c, 2, 60, 64
4, 30630, Note_on_c, 2, 60, 0
4, 30634, Note_on_c, 2, 58, 64
4, 30660, Note_on_c, 2, 58, 0
4, 30664, Note_on_c, 2, 60, 64
4, 30690, Note_on_c, 2, 60, 0
4, 30694, Note_on_c, 2, 53, 64
4, 30720, Note_on_c, 2, 53, 0
4, 30724, Note_on_c, 2, 55, 64
4, 30750, Note_on_c, 2, 55, 0
4, 30754, Note_on_c, 2, 57, 64
4, 30780, Note_on_c, 2, 57, 0
4, 30784, Note_on_c, 2, 58, 64
4, 30810, Note_on_c, 2, 58, 0
4, 30814, Note_on_c, 2, 53, 64
4, 30840, Note_on_c, 2, 53, 0
4, 30844, Note_on_c, 2, 50, 64
4, 30870, Note_on_c, 2, 50, 0
4, 30874, Note_on_c, 2, 46, 64
4, 30900, Note_on_c, 2, 46, 0
4, 30904, Note_on_c, 2, 53, 64
4, 30930, Note_on_c, 2, 53, 0
4, 30934, Note_on_c, 2, 44, 64
4, 30960, Note_on_c, 2, 44, 0
4, 30964, Note_on_c, 2, 43, 64
4, 30990, Note_on_c, 2, 43, 0
4, 30994, Note_on_c, 2, 47, 64
4, 31020, Note_on_c, 2, 47, 0
4, 31024, Note_on_c, 2, 50, 64
4, 31050, Note_on_c, 2, 50, 0
4, 31054, Note_on_c, 2, 53, 64
4, 31080, Note_on_c, 2, 53, 0
4, 31084, Note_on_c, 2, 51, 64
4, 31110, Note_on_c, 2, 51, 0
4, 31114, Note_on_c, 2, 53, 64
4, 31140, Note_on_c, 2, 53, 0
4, 31144, Note_on_c, 2, 43, 64
4, 31170, Note_on_c, 2, 43, 0
4, 31174, Note_on_c, 2, 47, 64
4, 31200, Note_on_c, 2, 47, 0
4, 31204, Note_on_c, 2, 48, 64
4, 31230, Note_on_c, 2, 48, 0
4, 31234, Note_on_c, 2, 51, 64
4, 31260, Note_on_c, 2, 51, 0
4, 31264, Note_on_c, 2, 50, 64
4, 31290, Note_on_c, 2, 50, 0
4, 31294, Note_on_c, 2, 51, 64
4, 31320, Note_on_c, 2, 51, 0
4, 31324, Note_on_c, 2, 41, 64
4, 31350, Note_on_c, 2, 41, 0
4, 31354, Note_on_c, 2, 44, 64
4, 31380, Note_on_c, 2, 44, 0
4, 31384, Note_on_c, 2, 47, 64
4, 31410, Note_on_c, 2, 47, 0
4, 31414, Note_on_c, 2, 50, 64
4, 31440, Note_on_c, 2, 50, 0
4, 31444, Note_on_c, 2, 48, 64
4, 31470, Note_on_c, 2, 48, 0
4, 31474, Note_on_c, 2, 50, 64
4, 31500, Note_on_c, 2, 50, 0
4, 31504, Note_on_c, 2, 41, 64
4, 31530, Note_on_c, 2, 41, 0
4, 31534, Note_on_c, 2, 39, 64
4, 31560, Note_on_c, 2, 39, 0
4, 31564, Note_on_c, 2, 43, 64
4, 31590, Note_on_c, 2, 43, 0
4, 31594, Note_on_c, 2, 48, 64
4, 31620, Note_on_c, 2, 48, 0
4, 31624, Note_on_c, 2, 51, 64
4, 31650, Note_on_c, 2, 51, 0
4, 31654, Note_on_c, 2, 55, 64
4, 31680, Note_on_c, 2, 55, 0
4, 31684, Note_on_c, 2, 60, 64
4, 31800, Note_on_c, 2, 60, 0
4, 31804, Note_on_c, 2, 62, 64
4, 31830, Note_on_c, 2, 62, 0
4, 31834, Note_on_c, 2, 63, 64
4, 31860, Note_on_c, 2, 63, 0
4, 31864, Note_on_c, 2, 62, 64
4, 31890, Note_on_c, 2, 62, 0
4, 31894, Note_on_c, 2, 58, 64
4, 31920, Note_on_c, 2, 58, 0
4, 31924, Note_on_c, 2, 60, 64
4, 31950, Note_on_c, 2, 60, 0
4, 31954, Note_on_c, 2, 62, 64
4, 31980, Note_on_c, 2, 62, 0
4, 31984, Note_on_c, 2, 63, 64
4, 32010, Note_on_c, 2, 63, 0
4, 32014, Note_on_c, 2, 65, 64
4, 32040, Note_on_c, 2, 65, 0
4, 32044, Note_on_c, 2, 55, 64
4, 32160, Note_on_c, 2, 55, 0
4, 32164, Note_on_c, 2, 57, 64
4, 32190, Note_on_c, 2, 57, 0
4, 32194, Note_on_c, 2, 58, 64
4, 32220, Note_on_c, 2, 58, 0
4, 32224, Note_on_c, 2, 57, 64
4, 32250, Note_on_c, 2, 57, 0
4, 32254, Note_on_c, 2, 53, 64
4, 32280, Note_on_c, 2, 53, 0
4, 32284, Note_on_c, 2, 55, 64
4, 32310, Note_on_c, 2, 55, 0
4, 32314, Note_on_c, 2, 57, 64
4, 32340, Note_on_c, 2, 57, 0
4, 32344, Note_on_c, 2, 58, 64
4, 32370, Note_on_c, 2, 58, 0
4, 32374, Note_on_c, 2, 60, 64
4, 32400, Note_on_c, 2, 60, 0
4, 32404, Note_on_c, 2, 50, 64
4, 32520, Note_on_c, 2, 50, 0
4, 32524, Note_on_c, 2, 52, 64
4, 32550, Note_on_c, 2, 52, 0
4, 32554, Note_on_c, 2, 53, 64
4, 32580, Note_on_c, 2, 53, 0
4, 32584, Note_on_c, 2, 52, 64
4, 32610, Note_on_c, 2, 52, 0
4, 32614, Note_on_c, 2, 48, 64
4, 32640, Note_on_c, 2, 48, 0
4, 32644, Note_on_c, 2, 50, 64
4, 32670, Note_on_c, 2, 50, 0
4, 32674, Note_on_c, 2, 52, 64
4, 32700, Note_on_c, 2, 52, 0
4, 32704, Note_on_c, 2, 53, 64
4, 32730, Note_on_c, 2, 53, 0
4, 32734, Note_on_c, 2, 55, 64
4, 32760, Note_on_c, 2, 55, 0
4, 32764, Note_on_c, 2, 44, 64
4, 32880, Note_on_c, 2, 44, 0
4, 32884, Note_on_c, 2, 46, 64
4, 32910, Note_on_c, 2, 46, 0
4, 32914, Note_on_c, 2, 48, 64
4, 32940, Note_on_c, 2, 48, 0
4, 32944, Note_on_c, 2, 47, 64
4, 32970, Note_on_c, 2, 47, 0
4, 32974, Note_on_c, 2, 43, 64
4, 33000, Note_on_c, 2, 43, 0
4, 33004, Note_on_c, 2, 45, 64
4, 33030, Note_on_c, 2, 45, 0
4, 33034, Note_on_c, 2, 47, 64
4, 33060, Note_on_c, 2, 47, 0
4, 33064, Note_on_c, 2, 48, 64
4, 33090, Note_on_c, 2, 48, 0
4, 33094, Note_on_c, 2, 50, 64
4, 33120, Note_on_c, 2, 50, 0
4, 33124, Note_on_c, 2, 39, 64
4, 33240, Note_on_c, 2, 39, 0
4, 33244, Note_on_c, 2, 41, 64
4, 33270, Note_on_c, 2, 41, 0
4, 33274, Note_on_c, 2, 43, 64
4, 33300, Note_on_c, 2, 43, 0
4, 33304, Note_on_c, 2, 42, 64
4, 33330, Note_on_c, 2, 42, 0
4, 33334, Note_on_c, 2, 38, 64
4, 33360, Note_on_c, 2, 38, 0
4, 33364, Note_on_c, 2, 40, 64
4, 33390, Note_on_c, 2, 40, 0
4, 33394, Note_on_c, 2, 42, 64
4, 33420, Note_on_c, 2, 42, 0
4, 33424, Note_on_c, 2, 43, 64
4, 33450, Note_on_c, 2, 43, 0
4, 33454, Note_on_c, 2, 45, 64
4, 33480, Note_on_c, 2, 45, 0
4, 33484, Note_on_c, 2, 46, 64
4, 33510, Note_on_c, 2, 46, 0
4, 33514, Note_on_c, 2, 43, 64
4, 33540, Note_on_c, 2, 43, 0
4, 33544, Note_on_c, 2, 45, 64
4, 33570, Note_on_c, 2, 45, 0
4, 33574, Note_on_c, 2, 46, 64
4, 33600, Note_on_c, 2, 46, 0
4, 33604, Note_on_c, 2, 48, 64
4, 33630, Note_on_c, 2, 48, 0
4, 33634, Note_on_c, 2, 50, 64
4, 33660, Note_on_c, 2, 50, 0
4, 33664, Note_on_c, 2, 51, 64
4, 33690, Note_on_c, 2, 51, 0
4, 33694, Note_on_c, 2, 48, 64
4, 33720, Note_on_c, 2, 48, 0
4, 33724, Note_on_c, 2, 50, 64
4, 33750, Note_on_c, 2, 50, 0
4, 33754, Note_on_c, 2, 51, 64
4, 33780, Note_on_c, 2, 51, 0
4, 33784, Note_on_c, 2, 53, 64
4, 33810, Note_on_c, 2, 53, 0
4, 33814, Note_on_c, 2, 55, 64
4, 33840, Note_on_c, 2, 55, 0
4, 33844, Note_on_c, 2, 45, 64
4, 33870, Note_on_c, 2, 45, 0
4, 33874, Note_on_c, 2, 41, 64
4, 33900, Note_on_c, 2, 41, 0
4, 33904, Note_on_c, 2, 43, 64
4, 33930, Note_on_c, 2, 43, 0
4, 33934, Note_on_c, 2, 45, 64
4, 33960, Note_on_c, 2, 45, 0
4, 33964, Note_on_c, 2, 46, 64
4, 33990, Note_on_c, 2, 46, 0
4, 33994, Note_on_c, 2, 48, 64
4, 34020, Note_on_c, 2, 48, 0
4, 34024, Note_on_c, 2, 49, 64
4, 34050, Note_on_c, 2, 49, 0
4, 34054, Note_on_c, 2, 46, 64
4, 34080, Note_on_c, 2, 46, 0
4, 34084, Note_on_c, 2, 48, 64
4, 34110, Note_on_c, 2, 48, 0
4, 34114, Note_on_c, 2, 49, 64
4, 34140, Note_on_c, 2, 49, 0
4, 34144, Note_on_c, 2, 51, 64
4, 34170, Note_on_c, 2, 51, 0
4, 34174, Note_on_c, 2, 53, 64
4, 34200, Note_on_c, 2, 53, 0
4, 34204, Note_on_c, 2, 42, 64
4, 34282, Note_on_c, 2, 42, 0
4, 34294, Note_on_c, 2, 43, 64
4, 34372, Note_on_c, 2, 43, 0
4, 34384, Note_on_c, 2, 41, 64
4, 34410, Note_on_c, 2, 41, 0
4, 34414, Note_on_c, 2, 45, 64
4, 34440, Note_on_c, 2, 45, 0
4, 34444, Note_on_c, 2, 46, 64
4, 34470, Note_on_c, 2, 46, 0
4, 34474, Note_on_c, 2, 48, 64
4, 34500, Note_on_c, 2, 48, 0
4, 34504, Note_on_c, 2, 50, 64
4, 34530, Note_on_c, 2, 50, 0
4, 34534, Note_on_c, 2, 51, 64
4, 34560, Note_on_c, 2, 51, 0
4, 34564, Note_on_c, 2, 53, 64
4, 34642, Note_on_c, 2, 53, 0
4, 34654, Note_on_c, 2, 51, 64
4, 34732, Note_on_c, 2, 51, 0
4, 34744, Note_on_c, 2, 50, 64
4, 34822, Note_on_c, 2, 50, 0
4, 34834, Note_on_c, 2, 48, 64
4, 34912, Note_on_c, 2, 48, 0
4, 34924, Note_on_c, 2, 46, 64
4, 34950, Note_on_c, 2, 46, 0
4, 34954, Note_on_c, 2, 60, 64
4, 34980, Note_on_c, 2, 60, 0
4, 34984, Note_on_c, 2, 58, 64
4, 35010, Note_on_c, 2, 58, 0
4, 35014, Note_on_c, 2, 57, 64
4, 35040, Note_on_c, 2, 57, 0
4, 35044, Note_on_c, 2, 55, 64
4, 35070, Note_on_c, 2, 55, 0
4, 35074, Note_on_c, 2, 54, 64
4, 35100, Note_on_c, 2, 54, 0
4, 35104, Note_on_c, 2, 55, 64
4, 35182, Note_on_c, 2, 55, 0
4, 35194, Note_on_c, 2, 58, 64
4, 35272, Note_on_c, 2, 58, 0
4, 35284, Note_on_c, 2, 51, 64
4, 35362, Note_on_c, 2, 51, 0
4, 35374, Note_on_c, 2, 50, 64
4, 35452, Note_on_c, 2, 50, 0
4, 35464, Note_on_c, 2, 48, 64
4, 35542, Note_on_c, 2, 48, 0
4, 35554, Note_on_c, 2, 46, 64
4, 35632, Note_on_c, 2, 46, 0
4, 35644, Note_on_c, 2, 45, 64
4, 35670, Note_on_c, 2, 45, 0
4, 35674, Note_on_c, 2, 58, 64
4, 35700, Note_on_c, 2, 58, 0
4, 35704, Note_on_c, 2, 57, 64
4, 35730, Note_on_c, 2, 57, 0
4, 35734, Note_on_c, 2, 55, 64
4, 35760, Note_on_c, 2, 55, 0
4, 35764, Note_on_c, 2, 53, 64
4, 35790, Note_on_c, 2, 53, 0
4, 35794, Note_on_c, 2, 52, 64
4, 35820, Note_on_c, 2, 52, 0
4, 35824, Note_on_c, 2, 53, 64
4, 35850, Note_on_c, 2, 53, 0
4, 35854, Note_on_c, 2, 41, 64
4, 35880, Note_on_c, 2, 41, 0
4, 35884, Note_on_c, 2, 43, 64
4, 35910, Note_on_c, 2, 43, 0
4, 35914, Note_on_c, 2, 45, 64
4, 35940, Note_on_c, 2, 45, 0
4, 35944, Note_on_c, 2, 46, 64
4, 35970, Note_on_c, 2, 46, 0
4, 35974, Note_on_c, 2, 48, 64
4, 36000, Note_on_c, 2, 48, 0
4, 36004, Note_on_c, 2, 50, 64
4, 36082, Note_on_c, 2, 50, 0
4, 36094, Note_on_c, 2, 48, 64
4, 36172, Note_on_c, 2, 48, 0
4, 36184, Note_on_c, 2, 46, 64
4, 36262, Note_on_c, 2, 46, 0
4, 36274, Note_on_c, 2, 45, 64
4, 36352, Note_on_c, 2, 45, 0
4, 36364, Note_on_c, 2, 43, 64
4, 36390, Note_on_c, 2, 43, 0
4, 36394, Note_on_c, 2, 68, 64
4, 36420, Note_on_c, 2, 68, 0
4, 36424, Note_on_c, 2, 67, 64
4, 36450, Note_on_c, 2, 67, 0
4, 36454, Note_on_c, 2, 65, 64
4, 36480, Note_on_c, 2, 65, 0
4, 36484, Note_on_c, 2, 63, 64
4, 36510, Note_on_c, 2, 63, 0
4, 36514, Note_on_c, 2, 62, 64
4, 36540, Note_on_c, 2, 62, 0
4, 36544, Note_on_c, 2, 63, 64
4, 36570, Note_on_c, 2, 63, 0
4, 36574, Note_on_c, 2, 65, 64
4, 36600, Note_on_c, 2, 65, 0
4, 36604, Note_on_c, 2, 63, 64
4, 36630, Note_on_c, 2, 63, 0
4, 36634, Note_on_c, 2, 62, 64
4, 36660, Note_on_c, 2, 62, 0
4, 36664, Note_on_c, 2, 60, 64
4, 36690, Note_on_c, 2, 60, 0
4, 36694, Note_on_c, 2, 59, 64
4, 36720, Note_on_c, 2, 59, 0
4, 36724, Note_on_c, 2, 60, 64
4, 36750, Note_on_c, 2, 60, 0
4, 36754, Note_on_c, 2, 62, 64
4, 36780, Note_on_c, 2, 62, 0
4, 36784, Note_on_c, 2, 60, 64
4, 36810, Note_on_c, 2, 60, 0
4, 36814, Note_on_c, 2, 58, 64
4, 36840, Note_on_c, 2, 58, 0
4, 36844, Note_on_c, 2, 57, 64
4, 36870, Note_on_c, 2, 57, 0
4, 36874, Note_on_c, 2, 55, 64
4, 36900, Note_on_c, 2, 55, 0
4, 36904, Note_on_c, 2, 57, 64
4, 36930, Note_on_c, 2, 57, 0
4, 36934, Note_on_c, 2, 58, 64
4, 36960, Note_on_c, 2, 58, 0
4, 36964, Note_on_c, 2, 57, 64
4, 36990, Note_on_c, 2, 57, 0
4, 36994, Note_on_c, 2, 55, 64
4, 37020, Note_on_c, 2, 55, 0
4, 37024, Note_on_c, 2, 53, 64
4, 37050, Note_on_c, 2, 53, 0
4, 37054, Note_on_c, 2, 52, 64
4, 37080, Note_on_c, 2, 52, 0
4, 37084, Note_on_c, 2, 53, 64
4, 37110, Note_on_c, 2, 53, 0
4, 37114, Note_on_c, 2, 55, 64
4, 37140, Note_on_c, 2, 55, 0
4, 37144, Note_on_c, 2, 53, 64
4, 37170, Note_on_c, 2, 53, 0
4, 37174, Note_on_c, 2, 51, 64
4, 37200, Note_on_c, 2, 51, 0
4, 37204, Note_on_c, 2, 50, 64
4, 37230, Note_on_c, 2, 50, 0
4, 37234, Note_on_c, 2, 48, 64
4, 37260, Note_on_c, 2, 48, 0
4, 37264, Note_on_c, 2, 50, 64
4, 37290, Note_on_c, 2, 50, 0
4, 37294, Note_on_c, 2, 51, 64
4, 37320, Note_on_c, 2, 51, 0
4, 37324, Note_on_c, 2, 50, 64
4, 37350, Note_on_c, 2, 50, 0
4, 37354, Note_on_c, 2, 48, 64
4, 37380, Note_on_c, 2, 48, 0
4, 37384, Note_on_c, 2, 46, 64
4, 37410, Note_on_c, 2, 46, 0
4, 37414, Note_on_c, 2, 45, 64
4, 37440, Note_on_c, 2, 45, 0
4, 37444, Note_on_c, 2, 46, 64
4, 37470, Note_on_c, 2, 46, 0
4, 37474, Note_on_c, 2, 48, 64
4, 37500, Note_on_c, 2, 48, 0
4, 37504, Note_on_c, 2, 46, 64
4, 37530, Note_on_c, 2, 46, 0
4, 37534, Note_on_c, 2, 45, 64
4, 37560, Note_on_c, 2, 45, 0
4, 37564, Note_on_c, 2, 43, 64
4, 37590, Note_on_c, 2, 43, 0
4, 37594, Note_on_c, 2, 42, 64
4, 37620, Note_on_c, 2, 42, 0
4, 37624, Note_on_c, 2, 43, 64
4, 37650, Note_on_c, 2, 43, 0
4, 37654, Note_on_c, 2, 45, 64
4, 37680, Note_on_c, 2, 45, 0
4, 37684, Note_on_c, 2, 43, 64
4, 37710, Note_on_c, 2, 43, 0
4, 37714, Note_on_c, 2, 41, 64
4, 37740, Note_on_c, 2, 41, 0
4, 37744, Note_on_c, 2, 39, 64
4, 37770, Note_on_c, 2, 39, 0
4, 37774, Note_on_c, 2, 38, 64
4, 37800, Note_on_c, 2, 38, 0
4, 37804, Note_on_c, 2, 39, 64
4, 37856, Note_on_c, 2, 39, 0
4, 38164, Note_on_c, 2, 51, 64
4, 38242, Note_on_c, 2, 51, 0
4, 38524, Note_on_c, 2, 51, 64
4, 38602, Note_on_c, 2, 51, 0
4, 38734, Note_on_c, 2, 51, 64
4, 38760, Note_on_c, 2, 51, 0
4, 38764, Note_on_c, 2, 50, 64
4, 38790, Note_on_c, 2, 50, 0
4, 38794, Note_on_c, 2, 48, 64
4, 38820, Note_on_c, 2, 48, 0
4, 38824, Note_on_c, 2, 46, 64
4, 38850, Note_on_c, 2, 46, 0
4, 38854, Note_on_c, 2, 45, 64
4, 38880, Note_on_c, 2, 45, 0
4, 38884, Note_on_c, 2, 46, 64
4, 38910, Note_on_c, 2, 46, 0
4, 38914, Note_on_c, 2, 41, 64
4, 38940, Note_on_c, 2, 41, 0
4, 38944, Note_on_c, 2, 43, 64
4, 38970, Note_on_c, 2, 43, 0
4, 38974, Note_on_c, 2, 45, 64
4, 39000, Note_on_c, 2, 45, 0
4, 39004, Note_on_c, 2, 46, 64
4, 39030, Note_on_c, 2, 46, 0
4, 39034, Note_on_c, 2, 48, 64
4, 39060, Note_on_c, 2, 48, 0
4, 39064, Note_on_c, 2, 50, 64
4, 39090, Note_on_c, 2, 50, 0
4, 39094, Note_on_c, 2, 46, 64
4, 39120, Note_on_c, 2, 46, 0
4, 39124, Note_on_c, 2, 48, 64
4, 39150, Note_on_c, 2, 48, 0
4, 39154, Note_on_c, 2, 50, 64
4, 39180, Note_on_c, 2, 50, 0
4, 39184, Note_on_c, 2, 51, 64
4, 39210, Note_on_c, 2, 51, 0
4, 39214, Note_on_c, 2, 53, 64
4, 39240, Note_on_c, 2, 53, 0
4, 39244, Note_on_c, 2, 55, 64
4, 39270, Note_on_c, 2, 55, 0
4, 39274, Note_on_c, 2, 56, 64
4, 39300, Note_on_c, 2, 56, 0
4, 39304, Note_on_c, 2, 55, 64
4, 39330, Note_on_c, 2, 55, 0
4, 39334, Note_on_c, 2, 53, 64
4, 39360, Note_on_c, 2, 53, 0
4, 39364, Note_on_c, 2, 51, 64
4, 39390, Note_on_c, 2, 51, 0
4, 39394, Note_on_c, 2, 50, 64
4, 39420, Note_on_c, 2, 50, 0
4, 39424, Note_on_c, 2, 51, 64
4, 39450, Note_on_c, 2, 51, 0
4, 39454, Note_on_c, 2, 62, 64
4, 39480, Note_on_c, 2, 62, 0
4, 39484, Note_on_c, 2, 60, 64
4, 39510, Note_on_c, 2, 60, 0
4, 39514, Note_on_c, 2, 58, 64
4, 39540, Note_on_c, 2, 58, 0
4, 39544, Note_on_c, 2, 57, 64
4, 39570, Note_on_c, 2, 57, 0
4, 39574, Note_on_c, 2, 55, 64
4, 39600, Note_on_c, 2, 55, 0
4, 39604, Note_on_c, 2, 57, 64
4, 39630, Note_on_c, 2, 57, 0
4, 39634, Note_on_c, 2, 52, 64
4, 39660, Note_on_c, 2, 52, 0
4, 39664, Note_on_c, 2, 53, 64
4, 39690, Note_on_c, 2, 53, 0
4, 39694, Note_on_c, 2, 55, 64
4, 39720, Note_on_c, 2, 55, 0
4, 39724, Note_on_c, 2, 57, 64
4, 39750, Note_on_c, 2, 57, 0
4, 39754, Note_on_c, 2, 58, 64
4, 39780, Note_on_c, 2, 58, 0
4, 39784, Note_on_c, 2, 60, 64
4, 39810, Note_on_c, 2, 60, 0
4, 39814, Note_on_c, 2, 57, 64
4, 39840, Note_on_c, 2, 57, 0
4, 39844, Note_on_c, 2, 58, 64
4, 39870, Note_on_c, 2, 58, 0
4, 39874, Note_on_c, 2, 60, 64
4, 39900, Note_on_c, 2, 60, 0
4, 39904, Note_on_c, 2, 62, 64
4, 39930, Note_on_c, 2, 62, 0
4, 39934, Note_on_c, 2, 63, 64
4, 39960, Note_on_c, 2, 63, 0
4, 39964, Note_on_c, 2, 65, 64
4, 39990, Note_on_c, 2, 65, 0
4, 39994, Note_on_c, 2, 67, 64
4, 40020, Note_on_c, 2, 67, 0
4, 40024, Note_on_c, 2, 65, 64
4, 40050, Note_on_c, 2, 65, 0
4, 40054, Note_on_c, 2, 63, 64
4, 40080, Note_on_c, 2, 63, 0
4, 40084, Note_on_c, 2, 62, 64
4, 40110, Note_on_c, 2, 62, 0
4, 40114, Note_on_c, 2, 60, 64
4, 40140, Note_on_c, 2, 60, 0
4, 40144, Note_on_c, 2, 62, 64
4, 40170, Note_on_c, 2, 62, 0
4, 40174, Note_on_c, 2, 72, 64
4, 40200, Note_on_c, 2, 72, 0
4, 40204, Note_on_c, 2, 70, 64
4, 40230, Note_on_c, 2, 70, 0
4, 40234, Note_on_c, 2, 68, 64
4, 40260, Note_on_c, 2, 68, 0
4, 40264, Note_on_c, 2, 67, 64
4, 40290, Note_on_c, 2, 67, 0
4, 40294, Note_on_c, 2, 65, 64
4, 40320, Note_on_c, 2, 65, 0
4, 40324, Note_on_c, 2, 67, 64
4, 40350, Note_on_c, 2, 67, 0
4, 40354, Note_on_c, 2, 68, 64
4, 40380, Note_on_c, 2, 68, 0
4, 40384, Note_on_c, 2, 67, 64
4, 40410, Note_on_c, 2, 67, 0
4, 40414, Note_on_c, 2, 65, 64
4, 40440, Note_on_c, 2, 65, 0
4, 40444, Note_on_c, 2, 63, 64
4, 40470, Note_on_c, 2, 63, 0
4, 40474, Note_on_c, 2, 62, 64
4, 40500, Note_on_c, 2, 62, 0
4, 40504, Note_on_c, 2, 63, 64
4, 40530, Note_on_c, 2, 63, 0
4, 40534, Note_on_c, 2, 65, 64
4, 40560, Note_on_c, 2, 65, 0
4, 40564, Note_on_c, 2, 63, 64
4, 40590, Note_on_c, 2, 63, 0
4, 40594, Note_on_c, 2, 62, 64
4, 40620, Note_on_c, 2, 62, 0
4, 40624, Note_on_c, 2, 60, 64
4, 40650, Note_on_c, 2, 60, 0
4, 40654, Note_on_c, 2, 59, 64
4, 40680, Note_on_c, 2, 59, 0
4, 40684, Note_on_c, 2, 60, 64
4, 40710, Note_on_c, 2, 60, 0
4, 40714, Note_on_c, 2, 62, 64
4, 40740, Note_on_c, 2, 62, 0
4, 40744, Note_on_c, 2, 60, 64
4, 40770, Note_on_c, 2, 60, 0
4, 40774, Note_on_c, 2, 58, 64
4, 40800, Note_on_c, 2, 58, 0
4, 40804, Note_on_c, 2, 57, 64
4, 40830, Note_on_c, 2, 57, 0
4, 40834, Note_on_c, 2, 55, 64
4, 40860, Note_on_c, 2, 55, 0
4, 40864, Note_on_c, 2, 57, 64
4, 40890, Note_on_c, 2, 57, 0
4, 40894, Note_on_c, 2, 45, 64
4, 40920, Note_on_c, 2, 45, 0
4, 40924, Note_on_c, 2, 46, 64
4, 40950, Note_on_c, 2, 46, 0
4, 40954, Note_on_c, 2, 48, 64
4, 40980, Note_on_c, 2, 48, 0
4, 40984, Note_on_c, 2, 50, 64
4, 41010, Note_on_c, 2, 50, 0
4, 41014, Note_on_c, 2, 51, 64
4, 41040, Note_on_c, 2, 51, 0
4, 41044, Note_on_c, 2, 41, 64
4, 41186, Note_on_c, 2, 41, 0
4, 41194, Note_on_c, 2, 63, 64
4, 41220, Note_on_c, 2, 63, 0
4, 41224, Note_on_c, 2, 61, 64
4, 41276, Note_on_c, 2, 61, 0
4, 41284, Note_on_c, 2, 60, 64
4, 41310, Note_on_c, 2, 60, 0
4, 41314, Note_on_c, 2, 61, 64
4, 41340, Note_on_c, 2, 61, 0
4, 41344, Note_on_c, 2, 65, 64
4, 41370, Note_on_c, 2, 65, 0
4, 41374, Note_on_c, 2, 58, 64
4, 41400, Note_on_c, 2, 58, 0
4, 41404, Note_on_c, 2, 57, 64
4, 41456, Note_on_c, 2, 57, 0
4, 41464, Note_on_c, 2, 55, 64
4, 41490, Note_on_c, 2, 55, 0
4, 41494, Note_on_c, 2, 57, 64
4, 41520, Note_on_c, 2, 57, 0
4, 41524, Note_on_c, 2, 60, 64
4, 41550, Note_on_c, 2, 60, 0
4, 41554, Note_on_c, 2, 53, 64
4, 41580, Note_on_c, 2, 53, 0
4, 41584, Note_on_c, 2, 58, 64
4, 41610, Note_on_c, 2, 58, 0
4, 41614, Note_on_c, 2, 61, 64
4, 41640, Note_on_c, 2, 61, 0
4, 41644, Note_on_c, 2, 56, 64
4, 41670, Note_on_c, 2, 56, 0
4, 41674, Note_on_c, 2, 54, 64
4, 41700, Note_on_c, 2, 54, 0
4, 41704, Note_on_c, 2, 58, 64
4, 41730, Note_on_c, 2, 58, 0
4, 41734, Note_on_c, 2, 53, 64
4, 41760, Note_on_c, 2, 53, 0
4, 41764, Note_on_c, 2, 51, 64
4, 41880, Note_on_c, 2, 51, 0
4, 41884, Note_on_c, 2, 46, 64
4, 41910, Note_on_c, 2, 46, 0
4, 41914, Note_on_c, 2, 42, 64
4, 41940, Note_on_c, 2, 42, 0
4, 41944, Note_on_c, 2, 39, 64
4, 41970, Note_on_c, 2, 39, 0
4, 41974, Note_on_c, 2, 42, 64
4, 42000, Note_on_c, 2, 42, 0
4, 42004, Note_on_c, 2, 46, 64
4, 42030, Note_on_c, 2, 46, 0
4, 42034, Note_on_c, 2, 51, 64
4, 42060, Note_on_c, 2, 51, 0
4, 42064, Note_on_c, 2, 53, 64
4, 42090, Note_on_c, 2, 53, 0
4, 42094, Note_on_c, 2, 54, 64
4, 42150, Note_on_c, 2, 54, 0
4, 42154, Note_on_c, 2, 53, 64
4, 42180, Note_on_c, 2, 53, 0
4, 42184, Note_on_c, 2, 55, 64
4, 42210, Note_on_c, 2, 55, 0
4, 42214, Note_on_c, 2, 57, 64
4, 42240, Note_on_c, 2, 57, 0
4, 42244, Note_on_c, 2, 58, 64
4, 42270, Note_on_c, 2, 58, 0
4, 42274, Note_on_c, 2, 60, 64
4, 42300, Note_on_c, 2, 60, 0
4, 42304, Note_on_c, 2, 62, 64
4, 42330, Note_on_c, 2, 62, 0
4, 42334, Note_on_c, 2, 63, 64
4, 42360, Note_on_c, 2, 63, 0
4, 42364, Note_on_c, 2, 65, 64
4, 42390, Note_on_c, 2, 65, 0
4, 42394, Note_on_c, 2, 67, 64
4, 42420, Note_on_c, 2, 67, 0
4, 42424, Note_on_c, 2, 65, 64
4, 42450, Note_on_c, 2, 65, 0
4, 42454, Note_on_c, 2, 63, 64
4, 42480, Note_on_c, 2, 63, 0
4, 42484, Note_on_c, 2, 62, 64
4, 42510, Note_on_c, 2, 62, 0
4, 42514, Note_on_c, 2, 60, 64
4, 42540, Note_on_c, 2, 60, 0
4, 42544, Note_on_c, 2, 58, 64
4, 42570, Note_on_c, 2, 58, 0
4, 42574, Note_on_c, 2, 65, 64
4, 42626, Note_on_c, 2, 65, 0
4, 42634, Note_on_c, 2, 53, 64
4, 42660, Note_on_c, 2, 53, 0
4, 42664, Note_on_c, 2, 46, 64
4, 42690, Note_on_c, 2, 46, 0
4, 42694, Note_on_c, 2, 50, 64
4, 42720, Note_on_c, 2, 50, 0
4, 42724, Note_on_c, 2, 53, 64
4, 42750, Note_on_c, 2, 53, 0
4, 42754, Note_on_c, 2, 58, 64
4, 42832, Note_on_c, 2, 58, 0
4, 42844, Note_on_c, 2, 41, 64
4, 42870, Note_on_c, 2, 41, 0
4, 42874, Note_on_c, 2, 57, 64
4, 42900, Note_on_c, 2, 57, 0
4, 42904, Note_on_c, 2, 55, 64
4, 42930, Note_on_c, 2, 55, 0
4, 42934, Note_on_c, 2, 57, 64
4, 42960, Note_on_c, 2, 57, 0
4, 42964, Note_on_c, 2, 58, 64
4, 42990, Note_on_c, 2, 58, 0
4, 42994, Note_on_c, 2, 60, 64
4, 43020, Note_on_c, 2, 60, 0
4, 43024, Note_on_c, 2, 43, 64
4, 43050, Note_on_c, 2, 43, 0
4, 43054, Note_on_c, 2, 62, 64
4, 43080, Note_on_c, 2, 62, 0
4, 43084, Note_on_c, 2, 60, 64
4, 43110, Note_on_c, 2, 60, 0
4, 43114, Note_on_c, 2, 58, 64
4, 43140, Note_on_c, 2, 58, 0
4, 43144, Note_on_c, 2, 57, 64
4, 43170, Note_on_c, 2, 57, 0
4, 43174, Note_on_c, 2, 55, 64
4, 43200, Note_on_c, 2, 55, 0
4, 43204, Note_on_c, 2, 45, 64
4, 43230, Note_on_c, 2, 45, 0
4, 43234, Note_on_c, 2, 57, 64
4, 43260, Note_on_c, 2, 57, 0
4, 43264, Note_on_c, 2, 58, 64
4, 43290, Note_on_c, 2, 58, 0
4, 43294, Note_on_c, 2, 57, 64
4, 43320, Note_on_c, 2, 57, 0
4, 43324, Note_on_c, 2, 55, 64
4, 43350, Note_on_c, 2, 55, 0
4, 43354, Note_on_c, 2, 53, 64
4, 43380, Note_on_c, 2, 53, 0
4, 43384, Note_on_c, 2, 46, 64
4, 43410, Note_on_c, 2, 46, 0
4, 43414, Note_on_c, 2, 50, 64
4, 43440, Note_on_c, 2, 50, 0
4, 43444, Note_on_c, 2, 51, 64
4, 43470, Note_on_c, 2, 51, 0
4, 43474, Note_on_c, 2, 53, 64
4, 43500, Note_on_c, 2, 53, 0
4, 43504, Note_on_c, 2, 55, 64
4, 43530, Note_on_c, 2, 55, 0
4, 43534, Note_on_c, 2, 56, 64
4, 43560, Note_on_c, 2, 56, 0
4, 43564, Note_on_c, 2, 43, 64
4, 43590, Note_on_c, 2, 43, 0
4, 43594, Note_on_c, 2, 59, 64
4, 43620, Note_on_c, 2, 59, 0
4, 43624, Note_on_c, 2, 57, 64
4, 43650, Note_on_c, 2, 57, 0
4, 43654, Note_on_c, 2, 59, 64
4, 43680, Note_on_c, 2, 59, 0
4, 43684, Note_on_c, 2, 60, 64
4, 43710, Note_on_c, 2, 60, 0
4, 43714, Note_on_c, 2, 62, 64
4, 43740, Note_on_c, 2, 62, 0
4, 43744, Note_on_c, 2, 45, 64
4, 43770, Note_on_c, 2, 45, 0
4, 43774, Note_on_c, 2, 63, 64
4, 43800, Note_on_c, 2, 63, 0
4, 43804, Note_on_c, 2, 62, 64
4, 43830, Note_on_c, 2, 62, 0
4, 43834, Note_on_c, 2, 60, 64
4, 43860, Note_on_c, 2, 60, 0
4, 43864, Note_on_c, 2, 59, 64
4, 43890, Note_on_c, 2, 59, 0
4, 43894, Note_on_c, 2, 57, 64
4, 43920, Note_on_c, 2, 57, 0
4, 43924, Note_on_c, 2, 47, 64
4, 43950, Note_on_c, 2, 47, 0
4, 43954, Note_on_c, 2, 59, 64
4, 43980, Note_on_c, 2, 59, 0
4, 43984, Note_on_c, 2, 60, 64
4, 44010, Note_on_c, 2, 60, 0
4, 44014, Note_on_c, 2, 59, 64
4, 44040, Note_on_c, 2, 59, 0
4, 44044, Note_on_c, 2, 57, 64
4, 44070, Note_on_c, 2, 57, 0
4, 44074, Note_on_c, 2, 55, 64
4, 44100, Note_on_c, 2, 55, 0
4, 44104, Note_on_c, 2, 48, 64
4, 44130, Note_on_c, 2, 48, 0
4, 44134, Note_on_c, 2, 51, 64
4, 44160, Note_on_c, 2, 51, 0
4, 44164, Note_on_c, 2, 53, 64
4, 44190, Note_on_c, 2, 53, 0
4, 44194, Note_on_c, 2, 55, 64
4, 44220, Note_on_c, 2, 55, 0
4, 44224, Note_on_c, 2, 57, 64
4, 44250, Note_on_c, 2, 57, 0
4, 44254, Note_on_c, 2, 59, 64
4, 44280, Note_on_c, 2, 59, 0
4, 44284, Note_on_c, 2, 60, 64
4, 44362, Note_on_c, 2, 60, 0
4, 44374, Note_on_c, 2, 79, 64
4, 44452, Note_on_c, 2, 79, 0
4, 44464, Note_on_c, 2, 84, 64
4, 44542, Note_on_c, 2, 84, 0
4, 44554, Note_on_c, 2, 56, 64
4, 44632, Note_on_c, 2, 56, 0
4, 44644, Note_on_c, 2, 58, 64
4, 44722, Note_on_c, 2, 58, 0
4, 44734, Note_on_c, 2, 77, 64
4, 44812, Note_on_c, 2, 77, 0
4, 44824, Note_on_c, 2, 82, 64
4, 44902, Note_on_c, 2, 82, 0
4, 44914, Note_on_c, 2, 55, 64
4, 44992, Note_on_c, 2, 55, 0
4, 45004, Note_on_c, 2, 56, 64
4, 45082, Note_on_c, 2, 56, 0
4, 45094, Note_on_c, 2, 67, 64
4, 45120, Note_on_c, 2, 67, 0
4, 45124, Note_on_c, 2, 72, 64
4, 45150, Note_on_c, 2, 72, 0
4, 45154, Note_on_c, 2, 68, 64
4, 45180, Note_on_c, 2, 68, 0
4, 45184, Note_on_c, 2, 65, 64
4, 45210, Note_on_c, 2, 65, 0
4, 45214, Note_on_c, 2, 72, 64
4, 45240, Note_on_c, 2, 72, 0
4, 45244, Note_on_c, 2, 68, 64
4, 45270, Note_on_c, 2, 68, 0
4, 45274, Note_on_c, 2, 62, 64
4, 45300, Note_on_c, 2, 62, 0
4, 45304, Note_on_c, 2, 68, 64
4, 45330, Note_on_c, 2, 68, 0
4, 45334, Note_on_c, 2, 72, 64
4, 45360, Note_on_c, 2, 72, 0
4, 45364, Note_on_c, 2, 71, 64
4, 45390, Note_on_c, 2, 71, 0
4, 45394, Note_on_c, 2, 69, 64
4, 45420, Note_on_c, 2, 69, 0
4, 45424, Note_on_c, 2, 67, 64
4, 45450, Note_on_c, 2, 67, 0
4, 45454, Note_on_c, 2, 65, 64
4, 45480, Note_on_c, 2, 65, 0
4, 45484, Note_on_c, 2, 71, 64
4, 45510, Note_on_c, 2, 71, 0
4, 45514, Note_on_c, 2, 67, 64
4, 45540, Note_on_c, 2, 67, 0
4, 45544, Note_on_c, 2, 64, 64
4, 45570, Note_on_c, 2, 64, 0
4, 45574, Note_on_c, 2, 70, 64
4, 45600, Note_on_c, 2, 70, 0
4, 45604, Note_on_c, 2, 67, 64
4, 45630, Note_on_c, 2, 67, 0
4, 45634, Note_on_c, 2, 60, 64
4, 45660, Note_on_c, 2, 60, 0
4, 45664, Note_on_c, 2, 67, 64
4, 45690, Note_on_c, 2, 67, 0
4, 45694, Note_on_c, 2, 70, 64
4, 45720, Note_on_c, 2, 70, 0
4, 45724, Note_on_c, 2, 68, 64
4, 45750, Note_on_c, 2, 68, 0
4, 45754, Note_on_c, 2, 67, 64
4, 45780, Note_on_c, 2, 67, 0
4, 45784, Note_on_c, 2, 65, 64
4, 45810, Note_on_c, 2, 65, 0
4, 45814, Note_on_c, 2, 63, 64
4, 45840, Note_on_c, 2, 63, 0
4, 45844, Note_on_c, 2, 62, 64
4, 45870, Note_on_c, 2, 62, 0
4, 45874, Note_on_c, 2, 60, 64
4, 45900, Note_on_c, 2, 60, 0
4, 45904, Note_on_c, 2, 59, 64
4, 45982, Note_on_c, 2, 59, 0
4, 45994, Note_on_c, 2, 55, 64
4, 46072, Note_on_c, 2, 55, 0
4, 46084, Note_on_c, 2, 60, 64
4, 46162, Note_on_c, 2, 60, 0
4, 46174, Note_on_c, 2, 61, 64
4, 46252, Note_on_c, 2, 61, 0
4, 46264, Note_on_c, 2, 62, 64
4, 46380, Note_on_c, 2, 62, 0
4, 46384, Note_on_c, 2, 60, 64
4, 46410, Note_on_c, 2, 60, 0
4, 46414, Note_on_c, 2, 58, 64
4, 46440, Note_on_c, 2, 58, 0
4, 46444, Note_on_c, 2, 63, 64
4, 46470, Note_on_c, 2, 63, 0
4, 46474, Note_on_c, 2, 62, 64
4, 46500, Note_on_c, 2, 62, 0
4, 46504, Note_on_c, 2, 60, 64
4, 46530, Note_on_c, 2, 60, 0
4, 46534, Note_on_c, 2, 58, 64
4, 46560, Note_on_c, 2, 58, 0
4, 46564, Note_on_c, 2, 57, 64
4, 46590, Note_on_c, 2, 57, 0
4, 46594, Note_on_c, 2, 55, 64
4, 46620, Note_on_c, 2, 55, 0
4, 46624, Note_on_c, 2, 54, 64
4, 46650, Note_on_c, 2, 54, 0
4, 46654, Note_on_c, 2, 57, 64
4, 46680, Note_on_c, 2, 57, 0
4, 46684, Note_on_c, 2, 55, 64
4, 46710, Note_on_c, 2, 55, 0
4, 46714, Note_on_c, 2, 54, 64
4, 46740, Note_on_c, 2, 54, 0
4, 46744, Note_on_c, 2, 52, 64
4, 46770, Note_on_c, 2, 52, 0
4, 46774, Note_on_c, 2, 50, 64
4, 46800, Note_on_c, 2, 50, 0
4, 46804, Note_on_c, 2, 55, 64
4, 46920, Note_on_c, 2, 55, 0
4, 46924, Note_on_c, 2, 57, 64
4, 46950, Note_on_c, 2, 57, 0
4, 46954, Note_on_c, 2, 58, 64
4, 46980, Note_on_c, 2, 58, 0
4, 46984, Note_on_c, 2, 57, 64
4, 47010, Note_on_c, 2, 57, 0
4, 47014, Note_on_c, 2, 60, 64
4, 47040, Note_on_c, 2, 60, 0
4, 47044, Note_on_c, 2, 58, 64
4, 47070, Note_on_c, 2, 58, 0
4, 47074, Note_on_c, 2, 57, 64
4, 47100, Note_on_c, 2, 57, 0
4, 47104, Note_on_c, 2, 55, 64
4, 47130, Note_on_c, 2, 55, 0
4, 47134, Note_on_c, 2, 53, 64
4, 47160, Note_on_c, 2, 53, 0
4, 47164, Note_on_c, 2, 58, 64
4, 47190, Note_on_c, 2, 58, 0
4, 47194, Note_on_c, 2, 57, 64
4, 47220, Note_on_c, 2, 57, 0
4, 47224, Note_on_c, 2, 58, 64
4, 47250, Note_on_c, 2, 58, 0
4, 47254, Note_on_c, 2, 60, 64
4, 47280, Note_on_c, 2, 60, 0
4, 47284, Note_on_c, 2, 66, 64
4, 47310, Note_on_c, 2, 66, 0
4, 47314, Note_on_c, 2, 69, 64
4, 47340, Note_on_c, 2, 69, 0
4, 47344, Note_on_c, 2, 62, 64
4, 47370, Note_on_c, 2, 62, 0
4, 47554, Note_on_c, 2, 55, 64
4, 47580, Note_on_c, 2, 55, 0
4, 47584, Note_on_c, 2, 53, 64
4, 47610, Note_on_c, 2, 53, 0
4, 47614, Note_on_c, 2, 51, 64
4, 47640, Note_on_c, 2, 51, 0
4, 47644, Note_on_c, 2, 50, 64
4, 47670, Note_on_c, 2, 50, 0
4, 47674, Note_on_c, 2, 48, 64
4, 47700, Note_on_c, 2, 48, 0
4, 47704, Note_on_c, 2, 53, 64
4, 47756, Note_on_c, 2, 53, 0
4, 47914, Note_on_c, 2, 51, 64
4, 47940, Note_on_c, 2, 51, 0
4, 47944, Note_on_c, 2, 50, 64
4, 47970, Note_on_c, 2, 50, 0
4, 47974, Note_on_c, 2, 48, 64
4, 48000, Note_on_c, 2, 48, 0
4, 48004, Note_on_c, 2, 46, 64
4, 48030, Note_on_c, 2, 46, 0
4, 48034, Note_on_c, 2, 45, 64
4, 48060, Note_on_c, 2, 45, 0
4, 48064, Note_on_c, 2, 50, 64
4, 48142, Note_on_c, 2, 50, 0
4, 48154, Note_on_c, 2, 51, 64
4, 48296, Note_on_c, 2, 51, 0
4, 48304, Note_on_c, 2, 46, 64
4, 48330, Note_on_c, 2, 46, 0
4, 48334, Note_on_c, 2, 48, 64
4, 48386, Note_on_c, 2, 48, 0
4, 48394, Note_on_c, 2, 50, 64
4, 48420, Note_on_c, 2, 50, 0
4, 48424, Note_on_c, 2, 55, 64
4, 48540, Note_on_c, 2, 55, 0
4, 48544, Note_on_c, 2, 53, 64
4, 48570, Note_on_c, 2, 53, 0
4, 48574, Note_on_c, 2, 51, 64
4, 48600, Note_on_c, 2, 51, 0
4, 48604, Note_on_c, 2, 50, 64
4, 48682, Note_on_c, 2, 50, 0
4, 48694, Note_on_c, 2, 51, 64
4, 48772, Note_on_c, 2, 51, 0
4, 48784, Note_on_c, 2, 53, 64
4, 48862, Note_on_c, 2, 53, 0
4, 48874, Note_on_c, 2, 55, 64
4, 48952, Note_on_c, 2, 55, 0
4, 48964, Note_on_c, 2, 56, 64
4, 48990, Note_on_c, 2, 56, 0
4, 48994, Note_on_c, 2, 58, 64
4, 49020, Note_on_c, 2, 58, 0
4, 49024, Note_on_c, 2, 56, 64
4, 49050, Note_on_c, 2, 56, 0
4, 49054, Note_on_c, 2, 55, 64
4, 49080, Note_on_c, 2, 55, 0
4, 49084, Note_on_c, 2, 53, 64
4, 49110, Note_on_c, 2, 53, 0
4, 49114, Note_on_c, 2, 51, 64
4, 49140, Note_on_c, 2, 51, 0
4, 49144, Note_on_c, 2, 53, 64
4, 49170, Note_on_c, 2, 53, 0
4, 49174, Note_on_c, 2, 55, 64
4, 49200, Note_on_c, 2, 55, 0
4, 49204, Note_on_c, 2, 53, 64
4, 49230, Note_on_c, 2, 53, 0
4, 49234, Note_on_c, 2, 51, 64
4, 49260, Note_on_c, 2, 51, 0
4, 49264, Note_on_c, 2, 50, 64
4, 49290, Note_on_c, 2, 50, 0
4, 49294, Note_on_c, 2, 48, 64
4, 49320, Note_on_c, 2, 48, 0
4, 49324, Note_on_c, 2, 47, 64
4, 49376, Note_on_c, 2, 47, 0
4, 49414, Note_on_c, 2, 48, 64
4, 49466, Note_on_c, 2, 48, 0
4, 49504, Note_on_c, 2, 45, 64
4, 49556, Note_on_c, 2, 45, 0
4, 49594, Note_on_c, 2, 46, 64
4, 49620, Note_on_c, 2, 46, 0
4, 49624, Note_on_c, 2, 58, 64
4, 49650, Note_on_c, 2, 58, 0
4, 49654, Note_on_c, 2, 57, 64
4, 49680, Note_on_c, 2, 57, 0
4, 49684, Note_on_c, 2, 55, 64
4, 49710, Note_on_c, 2, 55, 0
4, 49714, Note_on_c, 2, 53, 64
4, 49740, Note_on_c, 2, 53, 0
4, 49744, Note_on_c, 2, 51, 64
4, 49770, Note_on_c, 2, 51, 0
4, 49774, Note_on_c, 2, 50, 64
4, 49800, Note_on_c, 2, 50, 0
4, 49804, Note_on_c, 2, 48, 64
4, 49830, Note_on_c, 2, 48, 0
4, 49834, Note_on_c, 2, 46, 64
4, 49860, Note_on_c, 2, 46, 0
4, 49864, Note_on_c, 2, 53, 64
4, 49980, Note_on_c, 2, 53, 0
4, 49984, Note_on_c, 2, 57, 64
4, 50010, Note_on_c, 2, 57, 0
4, 50014, Note_on_c, 2, 60, 64
4, 50040, Note_on_c, 2, 60, 0
4, 50044, Note_on_c, 2, 63, 64
4, 50070, Note_on_c, 2, 63, 0
4, 50074, Note_on_c, 2, 62, 64
4, 50100, Note_on_c, 2, 62, 0
4, 50104, Note_on_c, 2, 63, 64
4, 50130, Note_on_c, 2, 63, 0
4, 50134, Note_on_c, 2, 53, 64
4, 50160, Note_on_c, 2, 53, 0
4, 50164, Note_on_c, 2, 57, 64
4, 50190, Note_on_c, 2, 57, 0
4, 50194, Note_on_c, 2, 60, 64
4, 50220, Note_on_c, 2, 60, 0
4, 50224, Note_on_c, 2, 62, 64
4, 50250, Note_on_c, 2, 62, 0
4, 50254, Note_on_c, 2, 60, 64
4, 50280, Note_on_c, 2, 60, 0
4, 50284, Note_on_c, 2, 62, 64
4, 50310, Note_on_c, 2, 62, 0
4, 50314, Note_on_c, 2, 53, 64
4, 50340, Note_on_c, 2, 53, 0
4, 50344, Note_on_c, 2, 57, 64
4, 50370, Note_on_c, 2, 57, 0
4, 50374, Note_on_c, 2, 58, 64
4, 50400, Note_on_c, 2, 58, 0
4, 50404, Note_on_c, 2, 60, 64
4, 50430, Note_on_c, 2, 60, 0
4, 50434, Note_on_c, 2, 58, 64
4, 50460, Note_on_c, 2, 58, 0
4, 50464, Note_on_c, 2, 60, 64
4, 50490, Note_on_c, 2, 60, 0
4, 50494, Note_on_c, 2, 53, 64
4, 50520, Note_on_c, 2, 53, 0
4, 50524, Note_on_c, 2, 55, 64
4, 50550, Note_on_c, 2, 55, 0
4, 50554, Note_on_c, 2, 57, 64
4, 50580, Note_on_c, 2, 57, 0
4, 50584, Note_on_c, 2, 58, 64
4, 50610, Note_on_c, 2, 58, 0
4, 50614, Note_on_c, 2, 53, 64
4, 50640, Note_on_c, 2, 53, 0
4, 50644, Note_on_c, 2, 50, 64
4, 50670, Note_on_c, 2, 50, 0
4, 50674, Note_on_c, 2, 46, 64
4, 50700, Note_on_c, 2, 46, 0
4, 50704, Note_on_c, 2, 53, 64
4, 50730, Note_on_c, 2, 53, 0
4, 50734, Note_on_c, 2, 44, 64
4, 50760, Note_on_c, 2, 44, 0
4, 50764, Note_on_c, 2, 43, 64
4, 50790, Note_on_c, 2, 43, 0
4, 50794, Note_on_c, 2, 47, 64
4, 50820, Note_on_c, 2, 47, 0
4, 50824, Note_on_c, 2, 50, 64
4, 50850, Note_on_c, 2, 50, 0
4, 50854, Note_on_c, 2, 53, 64
4, 50880, Note_on_c, 2, 53, 0
4, 50884, Note_on_c, 2, 51, 64
4, 50910, Note_on_c, 2, 51, 0
4, 50914, Note_on_c, 2, 53, 64
4, 50940, Note_on_c, 2, 53, 0
4, 50944, Note_on_c, 2, 43, 64
4, 50970, Note_on_c, 2, 43, 0
4, 50974, Note_on_c, 2, 47, 64
4, 51000, Note_on_c, 2, 47, 0
4, 51004, Note_on_c, 2, 48, 64
4, 51030, Note_on_c, 2, 48, 0
4, 51034, Note_on_c, 2, 51, 64
4, 51060, Note_on_c, 2, 51, 0
4, 51064, Note_on_c, 2, 50, 64
4, 51090, Note_on_c, 2, 50, 0
4, 51094, Note_on_c, 2, 51, 64
4, 51120, Note_on_c, 2, 51, 0
4, 51124, Note_on_c, 2, 41, 64
4, 51150, Note_on_c, 2, 41, 0
4, 51154, Note_on_c, 2, 44, 64
4, 51180, Note_on_c, 2, 44, 0
4, 51184, Note_on_c, 2, 47, 64
4, 51210, Note_on_c, 2, 47, 0
4, 51214, Note_on_c, 2, 50, 64
4, 51240, Note_on_c, 2, 50, 0
4, 51244, Note_on_c, 2, 48, 64
4, 51270, Note_on_c, 2, 48, 0
4, 51274, Note_on_c, 2, 50, 64
4, 51300, Note_on_c, 2, 50, 0
4, 51304, Note_on_c, 2, 41, 64
4, 51330, Note_on_c, 2, 41, 0
4, 51334, Note_on_c, 2, 39, 64
4, 51360, Note_on_c, 2, 39, 0
4, 51364, Note_on_c, 2, 43, 64
4, 51390, Note_on_c, 2, 43, 0
4, 51394, Note_on_c, 2, 48, 64
4, 51420, Note_on_c, 2, 48, 0
4, 51424, Note_on_c, 2, 51, 64
4, 51450, Note_on_c, 2, 51, 0
4, 51454, Note_on_c, 2, 55, 64
4, 51480, Note_on_c, 2, 55, 0
4, 51484, Note_on_c, 2, 60, 64
4, 51600, Note_on_c, 2, 60, 0
4, 51604, Note_on_c, 2, 62, 64
4, 51630, Note_on_c, 2, 62, 0
4, 51634, Note_on_c, 2, 63, 64
4, 51660, Note_on_c, 2, 63, 0
4, 51664, Note_on_c, 2, 62, 64
4, 51690, Note_on_c, 2, 62, 0
4, 51694, Note_on_c, 2, 58, 64
4, 51720, Note_on_c, 2, 58, 0
4, 51724, Note_on_c, 2, 60, 64
4, 51750, Note_on_c, 2, 60, 0
4, 51754, Note_on_c, 2, 62, 64
4, 51780, Note_on_c, 2, 62, 0
4, 51784, Note_on_c, 2, 63, 64
4, 51810, Note_on_c, 2, 63, 0
4, 51814, Note_on_c, 2, 65, 64
4, 51840, Note_on_c, 2, 65, 0
4, 51844, Note_on_c, 2, 55, 64
4, 51960, Note_on_c, 2, 55, 0
4, 51964, Note_on_c, 2, 57, 64
4, 51990, Note_on_c, 2, 57, 0
4, 51994, Note_on_c, 2, 58, 64
4, 52020, Note_on_c, 2, 58, 0
4, 52024, Note_on_c, 2, 57, 64
4, 52050, Note_on_c, 2, 57, 0
4, 52054, Note_on_c, 2, 53, 64
4, 52080, Note_on_c, 2, 53, 0
4, 52084, Note_on_c, 2, 55, 64
4, 52110, Note_on_c, 2, 55, 0
4, 52114, Note_on_c, 2, 57, 64
4, 52140, Note_on_c, 2, 57, 0
4, 52144, Note_on_c, 2, 58, 64
4, 52170, Note_on_c, 2, 58, 0
4, 52174, Note_on_c, 2, 60, 64
4, 52200, Note_on_c, 2, 60, 0
4, 52204, Note_on_c, 2, 50, 64
4, 52320, Note_on_c, 2, 50, 0
4, 52324, Note_on_c, 2, 52, 64
4, 52350, Note_on_c, 2, 52, 0
4, 52354, Note_on_c, 2, 53, 64
4, 52380, Note_on_c, 2, 53, 0
4, 52384, Note_on_c, 2, 52, 64
4, 52410, Note_on_c, 2, 52, 0
4, 52414, Note_on_c, 2, 48, 64
4, 52440, Note_on_c, 2, 48, 0
4, 52444, Note_on_c, 2, 50, 64
4, 52470, Note_on_c, 2, 50, 0
4, 52474, Note_on_c, 2, 52, 64
4, 52500, Note_on_c, 2, 52, 0
4, 52504, Note_on_c, 2, 53, 64
4, 52530, Note_on_c, 2, 53, 0
4, 52534, Note_on_c, 2, 55, 64
4, 52560, Note_on_c, 2, 55, 0
4, 52564, Note_on_c, 2, 44, 64
4, 52680, Note_on_c, 2, 44, 0
4, 52684, Note_on_c, 2, 46, 64
4, 52710, Note_on_c, 2, 46, 0
4, 52714, Note_on_c, 2, 48, 64
4, 52740, Note_on_c, 2, 48, 0
4, 52744, Note_on_c, 2, 47, 64
4, 52770, Note_on_c, 2, 47, 0
4, 52774, Note_on_c, 2, 43, 64
4, 52800, Note_on_c, 2, 43, 0
4, 52804, Note_on_c, 2, 45, 64
4, 52830, Note_on_c, 2, 45, 0
4, 52834, Note_on_c, 2, 47, 64
4, 52860, Note_on_c, 2, 47, 0
4, 52864, Note_on_c, 2, 48, 64
4, 52890, Note_on_c, 2, 48, 0
4, 52894, Note_on_c, 2, 50, 64
4, 52920, Note_on_c, 2, 50, 0
4, 52924, Note_on_c, 2, 39, 64
4, 53040, Note_on_c, 2, 39, 0
4, 53044, Note_on_c, 2, 41, 64
4, 53070, Note_on_c, 2, 41, 0
4, 53074, Note_on_c, 2, 43, 64
4, 53100, Note_on_c, 2, 43, 0
4, 53104, Note_on_c, 2, 42, 64
4, 53130, Note_on_c, 2, 42, 0
4, 53134, Note_on_c, 2, 38, 64
4, 53160, Note_on_c, 2, 38, 0
4, 53164, Note_on_c, 2, 40, 64
4, 53190, Note_on_c, 2, 40, 0
4, 53194, Note_on_c, 2, 42, 64
4, 53220, Note_on_c, 2, 42, 0
4, 53224, Note_on_c, 2, 43, 64
4, 53250, Note_on_c, 2, 43, 0
4, 53254, Note_on_c, 2, 45, 64
4, 53280, Note_on_c, 2, 45, 0
4, 53284, Note_on_c, 2, 46, 64
4, 53310, Note_on_c, 2, 46, 0
4, 53314, Note_on_c, 2, 43, 64
4, 53340, Note_on_c, 2, 43, 0
4, 53344, Note_on_c, 2, 45, 64
4, 53370, Note_on_c, 2, 45, 0
4, 53374, Note_on_c, 2, 46, 64
4, 53400, Note_on_c, 2, 46, 0
4, 53404, Note_on_c, 2, 48, 64
4, 53430, Note_on_c, 2, 48, 0
4, 53434, Note_on_c, 2, 50, 64
4, 53460, Note_on_c, 2, 50, 0
4, 53464, Note_on_c, 2, 51, 64
4, 53490, Note_on_c, 2, 51, 0
4, 53494, Note_on_c, 2, 48, 64
4, 53520, Note_on_c, 2, 48, 0
4, 53524, Note_on_c, 2, 50, 64
4, 53550, Note_on_c, 2, 50, 0
4, 53554, Note_on_c, 2, 51, 64
4, 53580, Note_on_c, 2, 51, 0
4, 53584, Note_on_c, 2, 53, 64
4, 53610, Note_on_c, 2, 53, 0
4, 53614, Note_on_c, 2, 55, 64
4, 53640, Note_on_c, 2, 55, 0
4, 53644, Note_on_c, 2, 45, 64
4, 53670, Note_on_c, 2, 45, 0
4, 53674, Note_on_c, 2, 41, 64
4, 53700, Note_on_c, 2, 41, 0
4, 53704, Note_on_c, 2, 43, 64
4, 53730, Note_on_c, 2, 43, 0
4, 53734, Note_on_c, 2, 45, 64
4, 53760, Note_on_c, 2, 45, 0
4, 53764, Note_on_c, 2, 46, 64
4, 53790, Note_on_c, 2, 46, 0
4, 53794, Note_on_c, 2, 48, 64
4, 53820, Note_on_c, 2, 48, 0
4, 53824, Note_on_c, 2, 49, 64
4, 53850, Note_on_c, 2, 49, 0
4, 53854, Note_on_c, 2, 46, 64
4, 53880, Note_on_c, 2, 46, 0
4, 53884, Note_on_c, 2, 48, 64
4, 53910, Note_on_c, 2, 48, 0
4, 53914, Note_on_c, 2, 49, 64
4, 53940, Note_on_c, 2, 49, 0
4, 53944, Note_on_c, 2, 51, 64
4, 53970, Note_on_c, 2, 51, 0
4, 53974, Note_on_c, 2, 53, 64
4, 54000, Note_on_c, 2, 53, 0
4, 54004, Note_on_c, 2, 42, 64
4, 54082, Note_on_c, 2, 42, 0
4, 54094, Note_on_c, 2, 43, 64
4, 54172, Note_on_c, 2, 43, 0
4, 54184, Note_on_c, 2, 41, 64
4, 54210, Note_on_c, 2, 41, 0
4, 54214, Note_on_c, 2, 45, 64
4, 54240, Note_on_c, 2, 45, 0
4, 54244, Note_on_c, 2, 46, 64
4, 54270, Note_on_c, 2, 46, 0
4, 54274, Note_on_c, 2, 48, 64
4, 54300, Note_on_c, 2, 48, 0
4, 54304, Note_on_c, 2, 50, 64
4, 54330, Note_on_c, 2, 50, 0
4, 54334, Note_on_c, 2, 51, 64
4, 54360, Note_on_c, 2, 51, 0
4, 54364, Note_on_c, 2, 53, 64
4, 54442, Note_on_c, 2, 53, 0
4, 54454, Note_on_c, 2, 51, 64
4, 54532, Note_on_c, 2, 51, 0
4, 54544, Note_on_c, 2, 50, 64
4, 54622, Note_on_c, 2, 50, 0
4, 54634, Note_on_c, 2, 48, 64
4, 54712, Note_on_c, 2, 48, 0
4, 54724, Note_on_c, 2, 46, 64
4, 54750, Note_on_c, 2, 46, 0
4, 54754, Note_on_c, 2, 60, 64
4, 54780, Note_on_c, 2, 60, 0
4, 54784, Note_on_c, 2, 58, 64
4, 54810, Note_on_c, 2, 58, 0
4, 54814, Note_on_c, 2, 57, 64
4, 54840, Note_on_c, 2, 57, 0
4, 54844, Note_on_c, 2, 55, 64
4, 54870, Note_on_c, 2, 55, 0
4, 54874, Note_on_c, 2, 54, 64
4, 54900, Note_on_c, 2, 54, 0
4, 54904, Note_on_c, 2, 55, 64
4, 54982, Note_on_c, 2, 55, 0
4, 54994, Note_on_c, 2, 58, 64
4, 55072, Note_on_c, 2, 58, 0
4, 55084, Note_on_c, 2, 51, 64
4, 55162, Note_on_c, 2, 51, 0
4, 55174, Note_on_c, 2, 50, 64
4, 55252, Note_on_c, 2, 50, 0
4, 55264, Note_on_c, 2, 48, 64
4, 55342, Note_on_c, 2, 48, 0
4, 55354, Note_on_c, 2, 46, 64
4, 55432, Note_on_c, 2, 46, 0
4, 55444, Note_on_c, 2, 45, 64
4, 55470, Note_on_c, 2, 45, 0
4, 55474, Note_on_c, 2, 58, 64
4, 55500, Note_on_c, 2, 58, 0
4, 55504, Note_on_c, 2, 57, 64
4, 55530, Note_on_c, 2, 57, 0
4, 55534, Note_on_c, 2, 55, 64
4, 55560, Note_on_c, 2, 55, 0
4, 55564, Note_on_c, 2, 53, 64
4, 55590, Note_on_c, 2, 53, 0
4, 55594, Note_on_c, 2, 52, 64
4, 55620, Note_on_c, 2, 52, 0
4, 55624, Note_on_c, 2, 53, 64
4, 55650, Note_on_c, 2, 53, 0
4, 55654, Note_on_c, 2, 41, 64
4, 55680, Note_on_c, 2, 41, 0
4, 55684, Note_on_c, 2, 43, 64
4, 55710, Note_on_c, 2, 43, 0
4, 55714, Note_on_c, 2, 45, 64
4, 55740, Note_on_c, 2, 45, 0
4, 55744, Note_on_c, 2, 46, 64
4, 55770, Note_on_c, 2, 46, 0
4, 55774, Note_on_c, 2, 48, 64
4, 55800, Note_on_c, 2, 48, 0
4, 55804, Note_on_c, 2, 50, 64
4, 55882, Note_on_c, 2, 50, 0
4, 55894, Note_on_c, 2, 48, 64
4, 55972, Note_on_c, 2, 48, 0
4, 55984, Note_on_c, 2, 46, 64
4, 56062, Note_on_c, 2, 46, 0
4, 56074, Note_on_c, 2, 45, 64
4, 56152, Note_on_c, 2, 45, 0
4, 56164, Note_on_c, 2, 43, 64
4, 56190, Note_on_c, 2, 43, 0
4, 56194, Note_on_c, 2, 68, 64
4, 56220, Note_on_c, 2, 68, 0
4, 56224, Note_on_c, 2, 67, 64
4, 56250, Note_on_c, 2, 67, 0
4, 56254, Note_on_c, 2, 65, 64
4, 56280, Note_on_c, 2, 65, 0
4, 56284, Note_on_c, 2, 63, 64
4, 56310, Note_on_c, 2, 63, 0
4, 56314, Note_on_c, 2, 62, 64
4, 56340, Note_on_c, 2, 62, 0
4, 56344, Note_on_c, 2, 63, 64
4, 56370, Note_on_c, 2, 63, 0
4, 56374, Note_on_c, 2, 65, 64
4, 56400, Note_on_c, 2, 65, 0
4, 56404, Note_on_c, 2, 63, 64
4, 56430, Note_on_c, 2, 63, 0
4, 56434, Note_on_c, 2, 62, 64
4, 56460, Note_on_c, 2, 62, 0
4, 56464, Note_on_c, 2, 60, 64
4, 56490, Note_on_c, 2, 60, 0
4, 56494, Note_on_c, 2, 59, 64
4, 56520, Note_on_c, 2, 59, 0
4, 56524, Note_on_c, 2, 60, 64
4, 56550, Note_on_c, 2, 60, 0
4, 56554, Note_on_c, 2, 62, 64
4, 56580, Note_on_c, 2, 62, 0
4, 56584, Note_on_c, 2, 60, 64
4, 56610, Note_on_c, 2, 60, 0
4, 56614, Note_on_c, 2, 58, 64
4, 56640, Note_on_c, 2, 58, 0
4, 56644, Note_on_c, 2, 57, 64
4, 56670, Note_on_c, 2, 57, 0
4, 56674, Note_on_c, 2, 55, 64
4, 56700, Note_on_c, 2, 55, 0
4, 56704, Note_on_c, 2, 57, 64
4, 56730, Note_on_c, 2, 57, 0
4, 56734, Note_on_c, 2, 58, 64
4, 56760, Note_on_c, 2, 58, 0
4, 56764, Note_on_c, 2, 57, 64
4, 56790, Note_on_c, 2, 57, 0
4, 56794, Note_on_c, 2, 55, 64
4, 56820, Note_on_c, 2, 55, 0
4, 56824, Note_on_c, 2, 53, 64
4, 56850, Note_on_c, 2, 53, 0
4, 56854, Note_on_c, 2, 52, 64
4, 56880, Note_on_c, 2, 52, 0
4, 56884, Note_on_c, 2, 53, 64
4, 56910, Note_on_c, 2, 53, 0
4, 56914, Note_on_c, 2, 55, 64
4, 56940, Note_on_c, 2, 55, 0
4, 56944, Note_on_c, 2, 53, 64
4, 56970, Note_on_c, 2, 53, 0
4, 56974, Note_on_c, 2, 51, 64
4, 57000, Note_on_c, 2, 51, 0
4, 57004, Note_on_c, 2, 50, 64
4, 57030, Note_on_c, 2, 50, 0
4, 57034, Note_on_c, 2, 48, 64
4, 57060, Note_on_c, 2, 48, 0
4, 57064, Note_on_c, 2, 50, 64
4, 57090, Note_on_c, 2, 50, 0
4, 57094, Note_on_c, 2, 51, 64
4, 57120, Note_on_c, 2, 51, 0
4, 57124, Note_on_c, 2, 50, 64
4, 57150, Note_on_c, 2, 50, 0
4, 57154, Note_on_c, 2, 48, 64
4, 57180, Note_on_c, 2, 48, 0
4, 57184, Note_on_c, 2, 46, 64
4, 57210, Note_on_c, 2, 46, 0
4, 57214, Note_on_c, 2, 45, 64
4, 57240, Note_on_c, 2, 45, 0
4, 57244, Note_on_c, 2, 46, 64
4, 57270, Note_on_c, 2, 46, 0
4, 57274, Note_on_c, 2, 48, 64
4, 57300, Note_on_c, 2, 48, 0
4, 57304, Note_on_c, 2, 46, 64
4, 57330, Note_on_c, 2, 46, 0
4, 57334, Note_on_c, 2, 45, 64
4, 57360, Note_on_c, 2, 45, 0
4, 57364, Note_on_c, 2, 43, 64
4, 57390, Note_on_c, 2, 43, 0
4, 57394, Note_on_c, 2, 42, 64
4, 57420, Note_on_c, 2, 42, 0
4, 57424, Note_on_c, 2, 43, 64
4, 57450, Note_on_c, 2, 43, 0
4, 57454, Note_on_c, 2, 45, 64
4, 57480, Note_on_c, 2, 45, 0
4, 57484, Note_on_c, 2, 43, 64
4, 57510, Note_on_c, 2, 43, 0
4, 57514, Note_on_c, 2, 41, 64
4, 57540, Note_on_c, 2, 41, 0
4, 57544, Note_on_c, 2, 39, 64
4, 57570, Note_on_c, 2, 39, 0
4, 57574, Note_on_c, 2, 38, 64
4, 57600, Note_on_c, 2, 38, 0
4, 57604, Note_on_c, 2, 39, 64
4, 57656, Note_on_c, 2, 39, 0
4, 57964, Note_on_c, 2, 51, 64
4, 58042, Note_on_c, 2, 51, 0
4, 58324, Note_on_c, 2, 51, 64
4, 58402, Note_on_c, 2, 51, 0
4, 58534, Note_on_c, 2, 51, 64
4, 58560, Note_on_c, 2, 51, 0
4, 58564, Note_on_c, 2, 50, 64
4, 58590, Note_on_c, 2, 50, 0
4, 58594, Note_on_c, 2, 48, 64
4, 58620, Note_on_c, 2, 48, 0
4, 58624, Note_on_c, 2, 46, 64
4, 58650, Note_on_c, 2, 46, 0
4, 58654, Note_on_c, 2, 45, 64
4, 58680, Note_on_c, 2, 45, 0
4, 58684, Note_on_c, 2, 46, 64
4, 58710, Note_on_c, 2, 46, 0
4, 58714, Note_on_c, 2, 41, 64
4, 58740, Note_on_c, 2, 41, 0
4, 58744, Note_on_c, 2, 43, 64
4, 58770, Note_on_c, 2, 43, 0
4, 58774, Note_on_c, 2, 45, 64
4, 58800, Note_on_c, 2, 45, 0
4, 58804, Note_on_c, 2, 46, 64
4, 58830, Note_on_c, 2, 46, 0
4, 58834, Note_on_c, 2, 48, 64
4, 58860, Note_on_c, 2, 48, 0
4, 58864, Note_on_c, 2, 50, 64
4, 58890, Note_on_c, 2, 50, 0
4, 58894, Note_on_c, 2, 46, 64
4, 58920, Note_on_c, 2, 46, 0
4, 58924, Note_on_c, 2, 48, 64
4, 58950, Note_on_c, 2, 48, 0
4, 58954, Note_on_c, 2, 50, 64
4, 58980, Note_on_c, 2, 50, 0
4, 58984, Note_on_c, 2, 51, 64
4, 59010, Note_on_c, 2, 51, 0
4, 59014, Note_on_c, 2, 53, 64
4, 59040, Note_on_c, 2, 53, 0
4, 59044, Note_on_c, 2, 55, 64
4, 59070, Note_on_c, 2, 55, 0
4, 59074, Note_on_c, 2, 56, 64
4, 59100, Note_on_c, 2, 56, 0
4, 59104, Note_on_c, 2, 55, 64
4, 59130, Note_on_c, 2, 55, 0
4, 59134, Note_on_c, 2, 53, 64
4, 59160, Note_on_c, 2, 53, 0
4, 59164, Note_on_c, 2, 51, 64
4, 59190, Note_on_c, 2, 51, 0
4, 59194, Note_on_c, 2, 50, 64
4, 59220, Note_on_c, 2, 50, 0
4, 59224, Note_on_c, 2, 51, 64
4, 59250, Note_on_c, 2, 51, 0
4, 59254, Note_on_c, 2, 62, 64
4, 59280, Note_on_c, 2, 62, 0
4, 59284, Note_on_c, 2, 60, 64
4, 59310, Note_on_c, 2, 60, 0
4, 59314, Note_on_c, 2, 58, 64
4, 59340, Note_on_c, 2, 58, 0
4, 59344, Note_on_c, 2, 57, 64
4, 59370, Note_on_c, 2, 57, 0
4, 59374, Note_on_c, 2, 55, 64
4, 59400, Note_on_c, 2, 55, 0
4, 59404, Note_on_c, 2, 57, 64
4, 59430, Note_on_c, 2, 57, 0
4, 59434, Note_on_c, 2, 52, 64
4, 59460, Note_on_c, 2, 52, 0
4, 59464, Note_on_c, 2, 53, 64
4, 59490, Note_on_c, 2, 53, 0
4, 59494, Note_on_c, 2, 55, 64
4, 59520, Note_on_c, 2, 55, 0
4, 59524, Note_on_c, 2, 57, 64
4, 59550, Note_on_c, 2, 57, 0
4, 59554, Note_on_c, 2, 58, 64
4, 59580, Note_on_c, 2, 58, 0
4, 59584, Note_on_c, 2, 60, 64
4, 59610, Note_on_c, 2, 60, 0
4, 59614, Note_on_c, 2, 57, 64
4, 59640, Note_on_c, 2, 57, 0
4, 59644, Note_on_c, 2, 58, 64
4, 59670, Note_on_c, 2, 58, 0
4, 59674, Note_on_c, 2, 60, 64
4, 59700, Note_on_c, 2, 60, 0
4, 59704, Note_on_c, 2, 62, 64
4, 59730, Note_on_c, 2, 62, 0
4, 59734, Note_on_c, 2, 63, 64
4, 59760, Note_on_c, 2, 63, 0
4, 59764, Note_on_c, 2, 65, 64
4, 59790, Note_on_c, 2, 65, 0
4, 59794, Note_on_c, 2, 67, 64
4, 59820, Note_on_c, 2, 67, 0
4, 59824, Note_on_c, 2, 65, 64
4, 59850, Note_on_c, 2, 65, 0
4, 59854, Note_on_c, 2, 63, 64
4, 59880, Note_on_c, 2, 63, 0
4, 59884, Note_on_c, 2, 62, 64
4, 59910, Note_on_c, 2, 62, 0
4, 59914, Note_on_c, 2, 60, 64
4, 59940, Note_on_c, 2, 60, 0
4, 59944, Note_on_c, 2, 62, 64
4, 59970, Note_on_c, 2, 62, 0
4, 59974, Note_on_c, 2, 72, 64
4, 60000, Note_on_c, 2, 72, 0
4, 60004, Note_on_c, 2, 70, 64
4, 60030, Note_on_c, 2, 70, 0
4, 60034, Note_on_c, 2, 68, 64
4, 60060, Note_on_c, 2, 68, 0
4, 60064, Note_on_c, 2, 67, 64
4, 60090, Note_on_c, 2, 67, 0
4, 60094, Note_on_c, 2, 65, 64
4, 60120, Note_on_c, 2, 65, 0
4, 60124, Note_on_c, 2, 67, 64
4, 60150, Note_on_c, 2, 67, 0
4, 60154, Note_on_c, 2, 68, 64
4, 60180, Note_on_c, 2, 68, 0
4, 60184, Note_on_c, 2, 67, 64
4, 60210, Note_on_c, 2, 67, 0
4, 60214, Note_on_c, 2, 65, 64
4, 60240, Note_on_c, 2, 65, 0
4, 60244, Note_on_c, 2, 63, 64
4, 60270, Note_on_c, 2, 63, 0
4, 60274, Note_on_c, 2, 62, 64
4, 60300, Note_on_c, 2, 62, 0
4, 60304, Note_on_c, 2, 63, 64
4, 60330, Note_on_c, 2, 63, 0
4, 60334, Note_on_c, 2, 65, 64
4, 60360, Note_on_c, 2, 65, 0
4, 60364, Note_on_c, 2, 63, 64
4, 60390, Note_on_c, 2, 63, 0
4, 60394, Note_on_c, 2, 62, 64
4, 60420, Note_on_c, 2, 62, 0
4, 60424, Note_on_c, 2, 60, 64
4, 60450, Note_on_c, 2, 60, 0
4, 60454, Note_on_c, 2, 59, 64
4, 60480, Note_on_c, 2, 59, 0
4, 60484, Note_on_c, 2, 60, 64
4, 60510, Note_on_c, 2, 60, 0
4, 60514, Note_on_c, 2, 62, 64
4, 60540, Note_on_c, 2, 62, 0
4, 60544, Note_on_c, 2, 60, 64
4, 60570, Note_on_c, 2, 60, 0
4, 60574, Note_on_c, 2, 58, 64
4, 60600, Note_on_c, 2, 58, 0
4, 60604, Note_on_c, 2, 57, 64
4, 60630, Note_on_c, 2, 57, 0
4, 60634, Note_on_c, 2, 55, 64
4, 60660, Note_on_c, 2, 55, 0
4, 60664, Note_on_c, 2, 57, 64
4, 60690, Note_on_c, 2, 57, 0
4, 60694, Note_on_c, 2, 45, 64
4, 60720, Note_on_c, 2, 45, 0
4, 60724, Note_on_c, 2, 46, 64
4, 60750, Note_on_c, 2, 46, 0
4, 60754, Note_on_c, 2, 48, 64
4, 60780, Note_on_c, 2, 48, 0
4, 60784, Note_on_c, 2, 50, 64
4, 60810, Note_on_c, 2, 50, 0
4, 60814, Note_on_c, 2, 51, 64
4, 60840, Note_on_c, 2, 51, 0
4, 60844, Note_on_c, 2, 41, 64
4, 60986, Note_on_c, 2, 41, 0
4, 60994, Note_on_c, 2, 63, 64
4, 61020, Note_on_c, 2, 63, 0
4, 61024, Note_on_c, 2, 61, 64
4, 61076, Note_on_c, 2, 61, 0
4, 61084, Note_on_c, 2, 60, 64
4, 61110, Note_on_c, 2, 60, 0
4, 61114, Note_on_c, 2, 61, 64
4, 61140, Note_on_c, 2, 61, 0
4, 61144, Note_on_c, 2, 65, 64
4, 61170, Note_on_c, 2, 65, 0
4, 61174, Note_on_c, 2, 58, 64
4, 61200, Note_on_c, 2, 58, 0
4, 61204, Note_on_c, 2, 57, 64
4, 61256, Note_on_c, 2, 57, 0
4, 61264, Note_on_c, 2, 55, 64
4, 61290, Note_on_c, 2, 55, 0
4, 61294, Note_on_c, 2, 57, 64
4, 61320, Note_on_c, 2, 57, 0
4, 61324, Note_on_c, 2, 60, 64
4, 61350, Note_on_c, 2, 60, 0
4, 61354, Note_on_c, 2, 53, 64
4, 61380, Note_on_c, 2, 53, 0
4, 61384, Note_on_c, 2, 58, 64
4, 61410, Note_on_c, 2, 58, 0
4, 61414, Note_on_c, 2, 61, 64
4, 61440, Note_on_c, 2, 61, 0
4, 61444, Note_on_c, 2, 56, 64
4, 61470, Note_on_c, 2, 56, 0
4, 61474, Note_on_c, 2, 54, 64
4, 61500, Note_on_c, 2, 54, 0
4, 61504, Note_on_c, 2, 58, 64
4, 61530, Note_on_c, 2, 58, 0
4, 61534, Note_on_c, 2, 53, 64
4, 61560, Note_on_c, 2, 53, 0
4, 61564, Note_on_c, 2, 51, 64
4, 61680, Note_on_c, 2, 51, 0
4, 61684, Note_on_c, 2, 46, 64
4, 61710, Note_on_c, 2, 46, 0
4, 61714, Note_on_c, 2, 42, 64
4, 61740, Note_on_c, 2, 42, 0
4, 61744, Note_on_c, 2, 39, 64
4, 61770, Note_on_c, 2, 39, 0
4, 61774, Note_on_c, 2, 42, 64
4, 61800, Note_on_c, 2, 42, 0
4, 61804, Note_on_c, 2, 46, 64
4, 61830, Note_on_c, 2, 46, 0
4, 61834, Note_on_c, 2, 51, 64
4, 61860, Note_on_c, 2, 51, 0
4, 61864, Note_on_c, 2, 53, 64
4, 61890, Note_on_c, 2, 53, 0
4, 61894, Note_on_c, 2, 54, 64
4, 61950, Note_on_c, 2, 54, 0
4, 61954, Note_on_c, 2, 53, 64
4, 61980, Note_on_c, 2, 53, 0
4, 61984, Note_on_c, 2, 55, 64
4, 62010, Note_on_c, 2, 55, 0
4, 62014, Note_on_c, 2, 57, 64
4, 62040, Note_on_c, 2, 57, 0
4, 62044, Note_on_c, 2, 58, 64
4, 62070, Note_on_c, 2, 58, 0
4, 62074, Note_on_c, 2, 60, 64
4, 62100, Note_on_c, 2, 60, 0
4, 62104, Note_on_c, 2, 62, 64
4, 62130, Note_on_c, 2, 62, 0
4, 62134, Note_on_c, 2, 63, 64
4, 62160, Note_on_c, 2, 63, 0
4, 62164, Note_on_c, 2, 65, 64
4, 62190, Note_on_c, 2, 65, 0
4, 62194, Note_on_c, 2, 67, 64
4, 62220, Note_on_c, 2, 67, 0
4, 62224, Note_on_c, 2, 65, 64
4, 62250, Note_on_c, 2, 65, 0
4, 62254, Note_on_c, 2, 63, 64
4, 62280, Note_on_c, 2, 63, 0
4, 62284, Note_on_c, 2, 62, 64
4, 62310, Note_on_c, 2, 62, 0
4, 62314, Note_on_c, 2, 60, 64
4, 62340, Note_on_c, 2, 60, 0
4, 62344, Note_on_c, 2, 58, 64
4, 62370, Note_on_c, 2, 58, 0
4, 62374, Note_on_c, 2, 65, 64
4, 62426, Note_on_c, 2, 65, 0
4, 62434, Note_on_c, 2, 53, 64
4, 62460, Note_on_c, 2, 53, 0
4, 62464, Note_on_c, 2, 46, 64
4, 62490, Note_on_c, 2, 46, 0
4, 62494, Note_on_c, 2, 50, 64
4, 62520, Note_on_c, 2, 50, 0
4, 62524, Note_on_c, 2, 53, 64
4, 62550, Note_on_c, 2, 53, 0
4, 62554, Note_on_c, 2, 58, 64
4, 62632, Note_on_c, 2, 58, 0
4, 62632, End_track
0, 0, End_of_file
