0, 0, Header, 1, 5, 120
1, 0, Start_track
1, 0, Time_signature, 3, 1, 48, 8
1, 0, Key_signature, -5, "major"
1, 0, Tempo, 535714
1, 0, Marker_t, "(c) Yo Tomita, 1997"
1, 71247, Tempo, 540541
1, 71260, Tempo, 542986
1, 71272, Tempo, 545455
1, 71285, Tempo, 547945
1, 71297, Tempo, 550459
1, 71310, Tempo, 552995
1, 71322, Tempo, 555556
1, 71332, Tempo, 558140
1, 71345, Tempo, 560748
1, 71357, Tempo, 563380
1, 71370, Tempo, 566038
1, 71382, Tempo, 568720
1, 71395, Tempo, 571429
1, 71407, Tempo, 574163
1, 71417, Tempo, 576923
1, 71430, Tempo, 579710
1, 71442, Tempo, 582524
1, 71455, Tempo, 585366
1, 71467, Tempo, 588235
1, 71480, Tempo, 591133
1, 71490, Tempo, 594059
1, 71502, Tempo, 597015
1, 71515, Tempo, 600000
1, 71527, Tempo, 603015
1, 71540, Tempo, 606061
1, 71552, Tempo, 609137
1, 71565, Tempo, 612245
1, 71575, Tempo, 615385
1, 71587, Tempo, 618557
1, 71600, Tempo, 621762
1, 71612, Tempo, 625000
1, 71625, Tempo, 628272
1, 71637, Tempo, 631579
1, 71647, Tempo, 634921
1, 71660, Tempo, 638298
1, 71665, Tempo, 645161
1, 71675, Tempo, 648649
1, 71682, Tempo, 652174
1, 71690, Tempo, 655738
1, 71697, Tempo, 659341
1, 71705, Tempo, 662983
1, 71715, Tempo, 666667
1, 71722, Tempo, 670391
1, 71730, Tempo, 674157
1, 71737, Tempo, 677966
1, 71745, Tempo, 681818
1, 71752, Tempo, 685714
1, 71762, Tempo, 689655
1, 71770, Tempo, 693642
1, 71777, Tempo, 697674
1, 71785, Tempo, 701754
1, 71792, Tempo, 705882
1, 71800, Tempo, 710059
1, 71810, Tempo, 714286
1, 71817, Tempo, 718563
1, 71825, Tempo, 722892
1, 71832, Tempo, 727273
1, 71840, Tempo, 731707
1, 71847, Tempo, 736196
1, 71857, Tempo, 740741
1, 71865, Tempo, 745342
1, 71872, Tempo, 750000
1, 71880, Tempo, 754717
1, 71887, Tempo, 759494
1, 71895, Tempo, 764331
1, 71905, Tempo, 769231
1, 71912, Tempo, 774194
1, 71920, Tempo, 779221
1, 71927, Tempo, 784314
1, 71935, Tempo, 789474
1, 71942, Tempo, 794702
1, 71952, Tempo, 800000
1, 71960, Tempo, 805369
1, 71967, Tempo, 810811
1, 71975, Tempo, 816327
1, 71982, Tempo, 821918
1, 71990, Tempo, 827586
1, 72000, Tempo, 833333
1, 72007, Tempo, 839161
1, 72015, Tempo, 845070
1, 72022, Tempo, 851064
1, 72030, Tempo, 857143
1, 72037, Tempo, 863309
1, 72045, Tempo, 869565
1, 72050, Tempo, 875912
1, 72055, Tempo, 882353
1, 72060, Tempo, 888889
1, 72065, Tempo, 895522
1, 72070, Tempo, 902256
1, 72075, Tempo, 909091
1, 72080, Tempo, 916031
1, 72085, Tempo, 923077
1, 72090, Tempo, 930233
1, 72095, Tempo, 937500
1, 72100, Tempo, 944882
1, 72107, Tempo, 952381
1, 72112, Tempo, 960000
1, 72117, Tempo, 967742
1, 72122, Tempo, 975610
1, 72127, Tempo, 983607
1, 72132, Tempo, 991736
1, 72137, Tempo, 1000000
1, 72142, Tempo, 1008403
1, 72147, Tempo, 1016949
1, 72152, Tempo, 1025641
1, 72157, Tempo, 1034483
1, 72157, End_track
2, 0, Start_track
2, 0, MIDI_port, 0
2, 0, Title_t, "BWV 891/2"
2, 0, Program_c, 0, 6
2, 2884, Note_on_c, 0, 65, 64
2, 3109, Note_on_c, 0, 65, 0
2, 3124, Note_on_c, 0, 67, 64
2, 3349, Note_on_c, 0, 67, 0
2, 3484, Note_on_c, 0, 68, 64
2, 3589, Note_on_c, 0, 68, 0
2, 3604, Note_on_c, 0, 70, 64
2, 3709, Note_on_c, 0, 70, 0
2, 3724, Note_on_c, 0, 64, 64
2, 3829, Note_on_c, 0, 64, 0
2, 3844, Note_on_c, 0, 65, 64
2, 4069, Note_on_c, 0, 65, 0
2, 4204, Note_on_c, 0, 67, 64
2, 4309, Note_on_c, 0, 67, 0
2, 4324, Note_on_c, 0, 68, 64
2, 4376, Note_on_c, 0, 68, 0
2, 4384, Note_on_c, 0, 65, 64
2, 4436, Note_on_c, 0, 65, 0
2, 4444, Note_on_c, 0, 67, 64
2, 4496, Note_on_c, 0, 67, 0
2, 4504, Note_on_c, 0, 68, 64
2, 4556, Note_on_c, 0, 68, 0
2, 4564, Note_on_c, 0, 70, 64
2, 4616, Note_on_c, 0, 70, 0
2, 4624, Note_on_c, 0, 67, 64
2, 4676, Note_on_c, 0, 67, 0
2, 4684, Note_on_c, 0, 68, 64
2, 4736, Note_on_c, 0, 68, 0
2, 4744, Note_on_c, 0, 70, 64
2, 4796, Note_on_c, 0, 70, 0
2, 4804, Note_on_c, 0, 72, 64
2, 4856, Note_on_c, 0, 72, 0
2, 4864, Note_on_c, 0, 68, 64
2, 4916, Note_on_c, 0, 68, 0
2, 4924, Note_on_c, 0, 70, 64
2, 4976, Note_on_c, 0, 70, 0
2, 4984, Note_on_c, 0, 72, 64
2, 5036, Note_on_c, 0, 72, 0
2, 5044, Note_on_c, 0, 73, 64
2, 5096, Note_on_c, 0, 73, 0
2, 5104, Note_on_c, 0, 70, 64
2, 5156, Note_on_c, 0, 70, 0
2, 5164, Note_on_c, 0, 72, 64
2, 5269, Note_on_c, 0, 72, 0
2, 5404, Note_on_c, 0, 73, 64
2, 5509, Note_on_c, 0, 73, 0
2, 5524, Note_on_c, 0, 67, 64
2, 5629, Note_on_c, 0, 67, 0
2, 5644, Note_on_c, 0, 69, 64
2, 5696, Note_on_c, 0, 69, 0
2, 5704, Note_on_c, 0, 70, 64
2, 5756, Note_on_c, 0, 70, 0
2, 5764, Note_on_c, 0, 69, 64
2, 5869, Note_on_c, 0, 69, 0
2, 5884, Note_on_c, 0, 77, 64
2, 5989, Note_on_c, 0, 77, 0
2, 6124, Note_on_c, 0, 70, 64
2, 6229, Note_on_c, 0, 70, 0
2, 6244, Note_on_c, 0, 65, 64
2, 6349, Note_on_c, 0, 65, 0
2, 6364, Note_on_c, 0, 67, 64
2, 6416, Note_on_c, 0, 67, 0
2, 6424, Note_on_c, 0, 68, 64
2, 6476, Note_on_c, 0, 68, 0
2, 6484, Note_on_c, 0, 67, 64
2, 6589, Note_on_c, 0, 67, 0
2, 6604, Note_on_c, 0, 75, 64
2, 6829, Note_on_c, 0, 75, 0
2, 6844, Note_on_c, 0, 69, 64
2, 7069, Note_on_c, 0, 69, 0
2, 7084, Note_on_c, 0, 70, 64
2, 7136, Note_on_c, 0, 70, 0
2, 7144, Note_on_c, 0, 72, 64
2, 7196, Note_on_c, 0, 72, 0
2, 7204, Note_on_c, 0, 65, 64
2, 7309, Note_on_c, 0, 65, 0
2, 7324, Note_on_c, 0, 70, 64
2, 7549, Note_on_c, 0, 70, 0
2, 7564, Note_on_c, 0, 69, 64
2, 7616, Note_on_c, 0, 69, 0
2, 7624, Note_on_c, 0, 67, 64
2, 7676, Note_on_c, 0, 67, 0
2, 7684, Note_on_c, 0, 69, 64
2, 7789, Note_on_c, 0, 69, 0
2, 7804, Note_on_c, 0, 70, 64
2, 7909, Note_on_c, 0, 70, 0
2, 7924, Note_on_c, 0, 72, 64
2, 7976, Note_on_c, 0, 72, 0
2, 7984, Note_on_c, 0, 73, 64
2, 8036, Note_on_c, 0, 73, 0
2, 8044, Note_on_c, 0, 75, 64
2, 8269, Note_on_c, 0, 75, 0
2, 8284, Note_on_c, 0, 73, 64
2, 8389, Note_on_c, 0, 73, 0
2, 8404, Note_on_c, 0, 72, 64
2, 8456, Note_on_c, 0, 72, 0
2, 8464, Note_on_c, 0, 75, 64
2, 8516, Note_on_c, 0, 75, 0
2, 8524, Note_on_c, 0, 78, 64
2, 8629, Note_on_c, 0, 78, 0
2, 8644, Note_on_c, 0, 77, 64
2, 8749, Note_on_c, 0, 77, 0
2, 8884, Note_on_c, 0, 72, 64
2, 8989, Note_on_c, 0, 72, 0
2, 9124, Note_on_c, 0, 73, 64
2, 9229, Note_on_c, 0, 73, 0
2, 9364, Note_on_c, 0, 75, 64
2, 9656, Note_on_c, 0, 75, 0
2, 9664, Note_on_c, 0, 73, 64
2, 9716, Note_on_c, 0, 73, 0
2, 9724, Note_on_c, 0, 72, 64
2, 9776, Note_on_c, 0, 72, 0
2, 9784, Note_on_c, 0, 73, 64
2, 9836, Note_on_c, 0, 73, 0
2, 9844, Note_on_c, 0, 75, 64
2, 9949, Note_on_c, 0, 75, 0
2, 9964, Note_on_c, 0, 72, 64
2, 10069, Note_on_c, 0, 72, 0
2, 10084, Note_on_c, 0, 77, 64
2, 10189, Note_on_c, 0, 77, 0
2, 10204, Note_on_c, 0, 74, 64
2, 10309, Note_on_c, 0, 74, 0
2, 10324, Note_on_c, 0, 70, 64
2, 10376, Note_on_c, 0, 70, 0
2, 10384, Note_on_c, 0, 68, 64
2, 10436, Note_on_c, 0, 68, 0
2, 10444, Note_on_c, 0, 70, 64
2, 10496, Note_on_c, 0, 70, 0
2, 10504, Note_on_c, 0, 72, 64
2, 10556, Note_on_c, 0, 72, 0
2, 10564, Note_on_c, 0, 73, 64
2, 10669, Note_on_c, 0, 73, 0
2, 10684, Note_on_c, 0, 70, 64
2, 10789, Note_on_c, 0, 70, 0
2, 10804, Note_on_c, 0, 75, 64
2, 10909, Note_on_c, 0, 75, 0
2, 10924, Note_on_c, 0, 72, 64
2, 11029, Note_on_c, 0, 72, 0
2, 11044, Note_on_c, 0, 68, 64
2, 11149, Note_on_c, 0, 68, 0
2, 11164, Note_on_c, 0, 73, 64
2, 11269, Note_on_c, 0, 73, 0
2, 11284, Note_on_c, 0, 72, 64
2, 11389, Note_on_c, 0, 72, 0
2, 11404, Note_on_c, 0, 64, 64
2, 11509, Note_on_c, 0, 64, 0
2, 11524, Note_on_c, 0, 65, 64
2, 11869, Note_on_c, 0, 65, 0
2, 11884, Note_on_c, 0, 64, 64
2, 11936, Note_on_c, 0, 64, 0
2, 11944, Note_on_c, 0, 62, 64
2, 11996, Note_on_c, 0, 62, 0
2, 12004, Note_on_c, 0, 64, 64
2, 12109, Note_on_c, 0, 64, 0
2, 12124, Note_on_c, 0, 72, 64
2, 12229, Note_on_c, 0, 72, 0
2, 12244, Note_on_c, 0, 73, 64
2, 12349, Note_on_c, 0, 73, 0
2, 12364, Note_on_c, 0, 72, 64
2, 12589, Note_on_c, 0, 72, 0
2, 12604, Note_on_c, 0, 71, 64
2, 12709, Note_on_c, 0, 71, 0
2, 12724, Note_on_c, 0, 72, 64
2, 13069, Note_on_c, 0, 72, 0
2, 13204, Note_on_c, 0, 76, 64
2, 13309, Note_on_c, 0, 76, 0
2, 13444, Note_on_c, 0, 77, 64
2, 13549, Note_on_c, 0, 77, 0
2, 13684, Note_on_c, 0, 79, 64
2, 14509, Note_on_c, 0, 79, 0
2, 14524, Note_on_c, 0, 77, 64
2, 14576, Note_on_c, 0, 77, 0
2, 14584, Note_on_c, 0, 76, 64
2, 14636, Note_on_c, 0, 76, 0
2, 14644, Note_on_c, 0, 77, 64
2, 15949, Note_on_c, 0, 77, 0
2, 15964, Note_on_c, 0, 78, 64
2, 16016, Note_on_c, 0, 78, 0
2, 16024, Note_on_c, 0, 77, 64
2, 16076, Note_on_c, 0, 77, 0
2, 16084, Note_on_c, 0, 75, 64
2, 17389, Note_on_c, 0, 75, 0
2, 17404, Note_on_c, 0, 73, 64
2, 17456, Note_on_c, 0, 73, 0
2, 17464, Note_on_c, 0, 72, 64
2, 17516, Note_on_c, 0, 72, 0
2, 17524, Note_on_c, 0, 73, 64
2, 17629, Note_on_c, 0, 73, 0
2, 17644, Note_on_c, 0, 77, 64
2, 17749, Note_on_c, 0, 77, 0
2, 17764, Note_on_c, 0, 70, 64
2, 17869, Note_on_c, 0, 70, 0
2, 17884, Note_on_c, 0, 73, 64
2, 18109, Note_on_c, 0, 73, 0
2, 18124, Note_on_c, 0, 72, 64
2, 18176, Note_on_c, 0, 72, 0
2, 18184, Note_on_c, 0, 73, 64
2, 18236, Note_on_c, 0, 73, 0
2, 18244, Note_on_c, 0, 75, 64
2, 18349, Note_on_c, 0, 75, 0
2, 18364, Note_on_c, 0, 72, 64
2, 18469, Note_on_c, 0, 72, 0
2, 18484, Note_on_c, 0, 69, 64
2, 18589, Note_on_c, 0, 69, 0
2, 18604, Note_on_c, 0, 72, 64
2, 18829, Note_on_c, 0, 72, 0
2, 18844, Note_on_c, 0, 70, 64
2, 18949, Note_on_c, 0, 70, 0
2, 19084, Note_on_c, 0, 78, 64
2, 19256, Note_on_c, 0, 78, 0
2, 19264, Note_on_c, 0, 77, 64
2, 19316, Note_on_c, 0, 77, 0
2, 19324, Note_on_c, 0, 75, 64
2, 19376, Note_on_c, 0, 75, 0
2, 19384, Note_on_c, 0, 73, 64
2, 19436, Note_on_c, 0, 73, 0
2, 19444, Note_on_c, 0, 72, 64
2, 19496, Note_on_c, 0, 72, 0
2, 19504, Note_on_c, 0, 73, 64
2, 19556, Note_on_c, 0, 73, 0
2, 19564, Note_on_c, 0, 75, 64
2, 19669, Note_on_c, 0, 75, 0
2, 19804, Note_on_c, 0, 82, 64
2, 19909, Note_on_c, 0, 82, 0
2, 19924, Note_on_c, 0, 84, 64
2, 20029, Note_on_c, 0, 84, 0
2, 20044, Note_on_c, 0, 75, 64
2, 20269, Note_on_c, 0, 75, 0
2, 20284, Note_on_c, 0, 73, 64
2, 20389, Note_on_c, 0, 73, 0
2, 20404, Note_on_c, 0, 78, 64
2, 20509, Note_on_c, 0, 78, 0
2, 20644, Note_on_c, 0, 77, 64
2, 20749, Note_on_c, 0, 77, 0
2, 20884, Note_on_c, 0, 82, 64
2, 20989, Note_on_c, 0, 82, 0
2, 21124, Note_on_c, 0, 81, 64
2, 21589, Note_on_c, 0, 81, 0
2, 21604, Note_on_c, 0, 82, 64
2, 21709, Note_on_c, 0, 82, 0
2, 23044, Note_on_c, 0, 73, 64
2, 23269, Note_on_c, 0, 73, 0
2, 23284, Note_on_c, 0, 75, 64
2, 23509, Note_on_c, 0, 75, 0
2, 23644, Note_on_c, 0, 77, 64
2, 23749, Note_on_c, 0, 77, 0
2, 23764, Note_on_c, 0, 78, 64
2, 23869, Note_on_c, 0, 78, 0
2, 23884, Note_on_c, 0, 72, 64
2, 23989, Note_on_c, 0, 72, 0
2, 24004, Note_on_c, 0, 73, 64
2, 24229, Note_on_c, 0, 73, 0
2, 24364, Note_on_c, 0, 75, 64
2, 24469, Note_on_c, 0, 75, 0
2, 24484, Note_on_c, 0, 77, 64
2, 24536, Note_on_c, 0, 77, 0
2, 24544, Note_on_c, 0, 73, 64
2, 24596, Note_on_c, 0, 73, 0
2, 24604, Note_on_c, 0, 75, 64
2, 24656, Note_on_c, 0, 75, 0
2, 24664, Note_on_c, 0, 77, 64
2, 24716, Note_on_c, 0, 77, 0
2, 24724, Note_on_c, 0, 78, 64
2, 24776, Note_on_c, 0, 78, 0
2, 24784, Note_on_c, 0, 75, 64
2, 24836, Note_on_c, 0, 75, 0
2, 24844, Note_on_c, 0, 77, 64
2, 24896, Note_on_c, 0, 77, 0
2, 24904, Note_on_c, 0, 78, 64
2, 24956, Note_on_c, 0, 78, 0
2, 24964, Note_on_c, 0, 80, 64
2, 25016, Note_on_c, 0, 80, 0
2, 25024, Note_on_c, 0, 77, 64
2, 25076, Note_on_c, 0, 77, 0
2, 25084, Note_on_c, 0, 78, 64
2, 25136, Note_on_c, 0, 78, 0
2, 25144, Note_on_c, 0, 80, 64
2, 25196, Note_on_c, 0, 80, 0
2, 25204, Note_on_c, 0, 82, 64
2, 25256, Note_on_c, 0, 82, 0
2, 25264, Note_on_c, 0, 78, 64
2, 25316, Note_on_c, 0, 78, 0
2, 25324, Note_on_c, 0, 80, 64
2, 25429, Note_on_c, 0, 80, 0
2, 25564, Note_on_c, 0, 82, 64
2, 25669, Note_on_c, 0, 82, 0
2, 25684, Note_on_c, 0, 75, 64
2, 25789, Note_on_c, 0, 75, 0
2, 25804, Note_on_c, 0, 77, 64
2, 25856, Note_on_c, 0, 77, 0
2, 25864, Note_on_c, 0, 78, 64
2, 25916, Note_on_c, 0, 78, 0
2, 25924, Note_on_c, 0, 77, 64
2, 26029, Note_on_c, 0, 77, 0
2, 26164, Note_on_c, 0, 78, 64
2, 26269, Note_on_c, 0, 78, 0
2, 26404, Note_on_c, 0, 80, 64
2, 26509, Note_on_c, 0, 80, 0
2, 26764, Note_on_c, 0, 78, 64
2, 26869, Note_on_c, 0, 78, 0
2, 26884, Note_on_c, 0, 77, 64
2, 26989, Note_on_c, 0, 77, 0
2, 27004, Note_on_c, 0, 76, 64
2, 27229, Note_on_c, 0, 76, 0
2, 27244, Note_on_c, 0, 75, 64
2, 27296, Note_on_c, 0, 75, 0
2, 27304, Note_on_c, 0, 73, 64
2, 27356, Note_on_c, 0, 73, 0
2, 27364, Note_on_c, 0, 75, 64
2, 27469, Note_on_c, 0, 75, 0
2, 27484, Note_on_c, 0, 77, 64
2, 27536, Note_on_c, 0, 77, 0
2, 27544, Note_on_c, 0, 78, 64
2, 27596, Note_on_c, 0, 78, 0
2, 27604, Note_on_c, 0, 77, 64
2, 27709, Note_on_c, 0, 77, 0
2, 27724, Note_on_c, 0, 79, 64
2, 27776, Note_on_c, 0, 79, 0
2, 27784, Note_on_c, 0, 80, 64
2, 27836, Note_on_c, 0, 80, 0
2, 27844, Note_on_c, 0, 79, 64
2, 28069, Note_on_c, 0, 79, 0
2, 28084, Note_on_c, 0, 80, 64
2, 28189, Note_on_c, 0, 80, 0
2, 28924, Note_on_c, 0, 77, 64
2, 29029, Note_on_c, 0, 77, 0
2, 29044, Note_on_c, 0, 76, 64
2, 29149, Note_on_c, 0, 76, 0
2, 29164, Note_on_c, 0, 75, 64
2, 29389, Note_on_c, 0, 75, 0
2, 29404, Note_on_c, 0, 73, 64
2, 29456, Note_on_c, 0, 73, 0
2, 29464, Note_on_c, 0, 72, 64
2, 29516, Note_on_c, 0, 72, 0
2, 29524, Note_on_c, 0, 73, 64
2, 29629, Note_on_c, 0, 73, 0
2, 29644, Note_on_c, 0, 82, 64
2, 29749, Note_on_c, 0, 82, 0
2, 29764, Note_on_c, 0, 81, 64
2, 29869, Note_on_c, 0, 81, 0
2, 29884, Note_on_c, 0, 80, 64
2, 29989, Note_on_c, 0, 80, 0
2, 30004, Note_on_c, 0, 78, 64
2, 30056, Note_on_c, 0, 78, 0
2, 30064, Note_on_c, 0, 75, 64
2, 30116, Note_on_c, 0, 75, 0
2, 30124, Note_on_c, 0, 77, 64
2, 30229, Note_on_c, 0, 77, 0
2, 30244, Note_on_c, 0, 78, 64
2, 30349, Note_on_c, 0, 78, 0
2, 30364, Note_on_c, 0, 72, 64
2, 30469, Note_on_c, 0, 72, 0
2, 30484, Note_on_c, 0, 73, 64
2, 30589, Note_on_c, 0, 73, 0
2, 30604, Note_on_c, 0, 74, 64
2, 30709, Note_on_c, 0, 74, 0
2, 30724, Note_on_c, 0, 75, 64
2, 30829, Note_on_c, 0, 75, 0
2, 30844, Note_on_c, 0, 72, 64
2, 30949, Note_on_c, 0, 72, 0
2, 30964, Note_on_c, 0, 73, 64
2, 31069, Note_on_c, 0, 73, 0
2, 31204, Note_on_c, 0, 69, 64
2, 31309, Note_on_c, 0, 69, 0
2, 31444, Note_on_c, 0, 70, 64
2, 31549, Note_on_c, 0, 70, 0
2, 31684, Note_on_c, 0, 75, 64
2, 31789, Note_on_c, 0, 75, 0
2, 31804, Note_on_c, 0, 73, 64
2, 31976, Note_on_c, 0, 73, 0
2, 31984, Note_on_c, 0, 72, 64
2, 32036, Note_on_c, 0, 72, 0
2, 32044, Note_on_c, 0, 73, 64
2, 32096, Note_on_c, 0, 73, 0
2, 32104, Note_on_c, 0, 75, 64
2, 32156, Note_on_c, 0, 75, 0
2, 32164, Note_on_c, 0, 69, 64
2, 32389, Note_on_c, 0, 69, 0
2, 32404, Note_on_c, 0, 70, 64
2, 32629, Note_on_c, 0, 70, 0
2, 36724, Note_on_c, 0, 73, 64
2, 36949, Note_on_c, 0, 73, 0
2, 36964, Note_on_c, 0, 72, 64
2, 37189, Note_on_c, 0, 72, 0
2, 37324, Note_on_c, 0, 70, 64
2, 37429, Note_on_c, 0, 70, 0
2, 37444, Note_on_c, 0, 69, 64
2, 37549, Note_on_c, 0, 69, 0
2, 37564, Note_on_c, 0, 75, 64
2, 37669, Note_on_c, 0, 75, 0
2, 37684, Note_on_c, 0, 73, 64
2, 37909, Note_on_c, 0, 73, 0
2, 38044, Note_on_c, 0, 71, 64
2, 38149, Note_on_c, 0, 71, 0
2, 38164, Note_on_c, 0, 70, 64
2, 38216, Note_on_c, 0, 70, 0
2, 38224, Note_on_c, 0, 73, 64
2, 38276, Note_on_c, 0, 73, 0
2, 38284, Note_on_c, 0, 71, 64
2, 38336, Note_on_c, 0, 71, 0
2, 38344, Note_on_c, 0, 70, 64
2, 38396, Note_on_c, 0, 70, 0
2, 38404, Note_on_c, 0, 68, 64
2, 38456, Note_on_c, 0, 68, 0
2, 38464, Note_on_c, 0, 71, 64
2, 38516, Note_on_c, 0, 71, 0
2, 38524, Note_on_c, 0, 70, 64
2, 38576, Note_on_c, 0, 70, 0
2, 38584, Note_on_c, 0, 68, 64
2, 38636, Note_on_c, 0, 68, 0
2, 38644, Note_on_c, 0, 66, 64
2, 38696, Note_on_c, 0, 66, 0
2, 38704, Note_on_c, 0, 70, 64
2, 38756, Note_on_c, 0, 70, 0
2, 38764, Note_on_c, 0, 68, 64
2, 38816, Note_on_c, 0, 68, 0
2, 38824, Note_on_c, 0, 66, 64
2, 38876, Note_on_c, 0, 66, 0
2, 38884, Note_on_c, 0, 65, 64
2, 38936, Note_on_c, 0, 65, 0
2, 38944, Note_on_c, 0, 68, 64
2, 38996, Note_on_c, 0, 68, 0
2, 39004, Note_on_c, 0, 66, 64
2, 39109, Note_on_c, 0, 66, 0
2, 39244, Note_on_c, 0, 65, 64
2, 39349, Note_on_c, 0, 65, 0
2, 39364, Note_on_c, 0, 71, 64
2, 39469, Note_on_c, 0, 71, 0
2, 39484, Note_on_c, 0, 70, 64
2, 39536, Note_on_c, 0, 70, 0
2, 39544, Note_on_c, 0, 68, 64
2, 39596, Note_on_c, 0, 68, 0
2, 39604, Note_on_c, 0, 70, 64
2, 39709, Note_on_c, 0, 70, 0
2, 39724, Note_on_c, 0, 75, 64
2, 39949, Note_on_c, 0, 75, 0
2, 39964, Note_on_c, 0, 73, 64
2, 40016, Note_on_c, 0, 73, 0
2, 40024, Note_on_c, 0, 71, 64
2, 40076, Note_on_c, 0, 71, 0
2, 40084, Note_on_c, 0, 73, 64
2, 40189, Note_on_c, 0, 73, 0
2, 40204, Note_on_c, 0, 78, 64
2, 40429, Note_on_c, 0, 78, 0
2, 40444, Note_on_c, 0, 76, 64
2, 40496, Note_on_c, 0, 76, 0
2, 40504, Note_on_c, 0, 75, 64
2, 40556, Note_on_c, 0, 75, 0
2, 40564, Note_on_c, 0, 73, 64
2, 40616, Note_on_c, 0, 73, 0
2, 40624, Note_on_c, 0, 71, 64
2, 40676, Note_on_c, 0, 71, 0
2, 40684, Note_on_c, 0, 70, 64
2, 40736, Note_on_c, 0, 70, 0
2, 40744, Note_on_c, 0, 68, 64
2, 40796, Note_on_c, 0, 68, 0
2, 40804, Note_on_c, 0, 70, 64
2, 41149, Note_on_c, 0, 70, 0
2, 41164, Note_on_c, 0, 68, 64
2, 41389, Note_on_c, 0, 68, 0
2, 41404, Note_on_c, 0, 67, 64
2, 41509, Note_on_c, 0, 67, 0
2, 41524, Note_on_c, 0, 68, 64
2, 41869, Note_on_c, 0, 68, 0
2, 41884, Note_on_c, 0, 80, 64
2, 41989, Note_on_c, 0, 80, 0
2, 42004, Note_on_c, 0, 79, 64
2, 42109, Note_on_c, 0, 79, 0
2, 42124, Note_on_c, 0, 78, 64
2, 42229, Note_on_c, 0, 78, 0
2, 42244, Note_on_c, 0, 77, 64
2, 42349, Note_on_c, 0, 77, 0
2, 42364, Note_on_c, 0, 76, 64
2, 42469, Note_on_c, 0, 76, 0
2, 42484, Note_on_c, 0, 75, 64
2, 43309, Note_on_c, 0, 75, 0
2, 43324, Note_on_c, 0, 73, 64
2, 43376, Note_on_c, 0, 73, 0
2, 43384, Note_on_c, 0, 71, 64
2, 43436, Note_on_c, 0, 71, 0
2, 43444, Note_on_c, 0, 73, 64
2, 43496, Note_on_c, 0, 73, 0
2, 43504, Note_on_c, 0, 76, 64
2, 43556, Note_on_c, 0, 76, 0
2, 43564, Note_on_c, 0, 75, 64
2, 43616, Note_on_c, 0, 75, 0
2, 43624, Note_on_c, 0, 73, 64
2, 43676, Note_on_c, 0, 73, 0
2, 43684, Note_on_c, 0, 71, 64
2, 43736, Note_on_c, 0, 71, 0
2, 43744, Note_on_c, 0, 70, 64
2, 43796, Note_on_c, 0, 70, 0
2, 43804, Note_on_c, 0, 68, 64
2, 43856, Note_on_c, 0, 68, 0
2, 43864, Note_on_c, 0, 67, 64
2, 43916, Note_on_c, 0, 67, 0
2, 43924, Note_on_c, 0, 68, 64
2, 44696, Note_on_c, 0, 68, 0
2, 44704, Note_on_c, 0, 70, 64
2, 44756, Note_on_c, 0, 70, 0
2, 44764, Note_on_c, 0, 68, 64
2, 44816, Note_on_c, 0, 68, 0
2, 44824, Note_on_c, 0, 66, 64
2, 44876, Note_on_c, 0, 66, 0
2, 44884, Note_on_c, 0, 68, 64
2, 44936, Note_on_c, 0, 68, 0
2, 44944, Note_on_c, 0, 70, 64
2, 44996, Note_on_c, 0, 70, 0
2, 45004, Note_on_c, 0, 71, 64
2, 45229, Note_on_c, 0, 71, 0
2, 45244, Note_on_c, 0, 70, 64
2, 45296, Note_on_c, 0, 70, 0
2, 45304, Note_on_c, 0, 68, 64
2, 45356, Note_on_c, 0, 68, 0
2, 45364, Note_on_c, 0, 70, 64
2, 46136, Note_on_c, 0, 70, 0
2, 46144, Note_on_c, 0, 72, 64
2, 46196, Note_on_c, 0, 72, 0
2, 46204, Note_on_c, 0, 70, 64
2, 46256, Note_on_c, 0, 70, 0
2, 46264, Note_on_c, 0, 69, 64
2, 46316, Note_on_c, 0, 69, 0
2, 46324, Note_on_c, 0, 70, 64
2, 46376, Note_on_c, 0, 70, 0
2, 46384, Note_on_c, 0, 72, 64
2, 46436, Note_on_c, 0, 72, 0
2, 46444, Note_on_c, 0, 73, 64
2, 46669, Note_on_c, 0, 73, 0
2, 46684, Note_on_c, 0, 72, 64
2, 46736, Note_on_c, 0, 72, 0
2, 46744, Note_on_c, 0, 70, 64
2, 46796, Note_on_c, 0, 70, 0
2, 46804, Note_on_c, 0, 72, 64
2, 46856, Note_on_c, 0, 72, 0
2, 46864, Note_on_c, 0, 73, 64
2, 46916, Note_on_c, 0, 73, 0
2, 46924, Note_on_c, 0, 72, 64
2, 46976, Note_on_c, 0, 72, 0
2, 46984, Note_on_c, 0, 70, 64
2, 47036, Note_on_c, 0, 70, 0
2, 47044, Note_on_c, 0, 72, 64
2, 47096, Note_on_c, 0, 72, 0
2, 47104, Note_on_c, 0, 73, 64
2, 47156, Note_on_c, 0, 73, 0
2, 47164, Note_on_c, 0, 75, 64
2, 47389, Note_on_c, 0, 75, 0
2, 47404, Note_on_c, 0, 73, 64
2, 47456, Note_on_c, 0, 73, 0
2, 47464, Note_on_c, 0, 72, 64
2, 47516, Note_on_c, 0, 72, 0
2, 47524, Note_on_c, 0, 73, 64
2, 47629, Note_on_c, 0, 73, 0
2, 47764, Note_on_c, 0, 78, 64
2, 47989, Note_on_c, 0, 78, 0
2, 48004, Note_on_c, 0, 77, 64
2, 48229, Note_on_c, 0, 77, 0
2, 48364, Note_on_c, 0, 75, 64
2, 48469, Note_on_c, 0, 75, 0
2, 48484, Note_on_c, 0, 74, 64
2, 48589, Note_on_c, 0, 74, 0
2, 48604, Note_on_c, 0, 80, 64
2, 48709, Note_on_c, 0, 80, 0
2, 48724, Note_on_c, 0, 78, 64
2, 48949, Note_on_c, 0, 78, 0
2, 49084, Note_on_c, 0, 77, 64
2, 49189, Note_on_c, 0, 77, 0
2, 49204, Note_on_c, 0, 75, 64
2, 49256, Note_on_c, 0, 75, 0
2, 49264, Note_on_c, 0, 78, 64
2, 49316, Note_on_c, 0, 78, 0
2, 49324, Note_on_c, 0, 77, 64
2, 49376, Note_on_c, 0, 77, 0
2, 49384, Note_on_c, 0, 75, 64
2, 49436, Note_on_c, 0, 75, 0
2, 49444, Note_on_c, 0, 73, 64
2, 49496, Note_on_c, 0, 73, 0
2, 49504, Note_on_c, 0, 77, 64
2, 49556, Note_on_c, 0, 77, 0
2, 49564, Note_on_c, 0, 75, 64
2, 49616, Note_on_c, 0, 75, 0
2, 49624, Note_on_c, 0, 73, 64
2, 49676, Note_on_c, 0, 73, 0
2, 49684, Note_on_c, 0, 72, 64
2, 49736, Note_on_c, 0, 72, 0
2, 49744, Note_on_c, 0, 75, 64
2, 49796, Note_on_c, 0, 75, 0
2, 49804, Note_on_c, 0, 73, 64
2, 49856, Note_on_c, 0, 73, 0
2, 49864, Note_on_c, 0, 72, 64
2, 49916, Note_on_c, 0, 72, 0
2, 49924, Note_on_c, 0, 70, 64
2, 49976, Note_on_c, 0, 70, 0
2, 49984, Note_on_c, 0, 73, 64
2, 50036, Note_on_c, 0, 73, 0
2, 50044, Note_on_c, 0, 72, 64
2, 50149, Note_on_c, 0, 72, 0
2, 50284, Note_on_c, 0, 70, 64
2, 50389, Note_on_c, 0, 70, 0
2, 50404, Note_on_c, 0, 77, 64
2, 50509, Note_on_c, 0, 77, 0
2, 50524, Note_on_c, 0, 75, 64
2, 50576, Note_on_c, 0, 75, 0
2, 50584, Note_on_c, 0, 73, 64
2, 50636, Note_on_c, 0, 73, 0
2, 50644, Note_on_c, 0, 75, 64
2, 50989, Note_on_c, 0, 75, 0
2, 51004, Note_on_c, 0, 73, 64
2, 51056, Note_on_c, 0, 73, 0
2, 51064, Note_on_c, 0, 72, 64
2, 51116, Note_on_c, 0, 72, 0
2, 51124, Note_on_c, 0, 73, 64
2, 51176, Note_on_c, 0, 73, 0
2, 51184, Note_on_c, 0, 75, 64
2, 51236, Note_on_c, 0, 75, 0
2, 51244, Note_on_c, 0, 73, 64
2, 51296, Note_on_c, 0, 73, 0
2, 51304, Note_on_c, 0, 72, 64
2, 51356, Note_on_c, 0, 72, 0
2, 51364, Note_on_c, 0, 70, 64
2, 51469, Note_on_c, 0, 70, 0
2, 51484, Note_on_c, 0, 82, 64
2, 51709, Note_on_c, 0, 82, 0
2, 51724, Note_on_c, 0, 80, 64
2, 51776, Note_on_c, 0, 80, 0
2, 51784, Note_on_c, 0, 79, 64
2, 51836, Note_on_c, 0, 79, 0
2, 51844, Note_on_c, 0, 80, 64
2, 52189, Note_on_c, 0, 80, 0
2, 52204, Note_on_c, 0, 79, 64
2, 52429, Note_on_c, 0, 79, 0
2, 52444, Note_on_c, 0, 77, 64
2, 52549, Note_on_c, 0, 77, 0
2, 52564, Note_on_c, 0, 76, 64
2, 52789, Note_on_c, 0, 76, 0
2, 52804, Note_on_c, 0, 75, 64
2, 52909, Note_on_c, 0, 75, 0
2, 52924, Note_on_c, 0, 81, 64
2, 53029, Note_on_c, 0, 81, 0
2, 53044, Note_on_c, 0, 82, 64
2, 53149, Note_on_c, 0, 82, 0
2, 53164, Note_on_c, 0, 76, 64
2, 53269, Note_on_c, 0, 76, 0
2, 53284, Note_on_c, 0, 77, 64
2, 53389, Note_on_c, 0, 77, 0
2, 53524, Note_on_c, 0, 76, 64
2, 53629, Note_on_c, 0, 76, 0
2, 53764, Note_on_c, 0, 77, 64
2, 53869, Note_on_c, 0, 77, 0
2, 54004, Note_on_c, 0, 70, 64
2, 54109, Note_on_c, 0, 70, 0
2, 54124, Note_on_c, 0, 72, 64
2, 54176, Note_on_c, 0, 72, 0
2, 54184, Note_on_c, 0, 70, 64
2, 54236, Note_on_c, 0, 70, 0
2, 54244, Note_on_c, 0, 68, 64
2, 54349, Note_on_c, 0, 68, 0
2, 54364, Note_on_c, 0, 70, 64
2, 54416, Note_on_c, 0, 70, 0
2, 54424, Note_on_c, 0, 68, 64
2, 54476, Note_on_c, 0, 68, 0
2, 54484, Note_on_c, 0, 67, 64
2, 54589, Note_on_c, 0, 67, 0
2, 54844, Note_on_c, 0, 67, 64
2, 54949, Note_on_c, 0, 67, 0
2, 54964, Note_on_c, 0, 73, 64
2, 55069, Note_on_c, 0, 73, 0
2, 55084, Note_on_c, 0, 72, 64
2, 55136, Note_on_c, 0, 72, 0
2, 55144, Note_on_c, 0, 70, 64
2, 55196, Note_on_c, 0, 70, 0
2, 55204, Note_on_c, 0, 72, 64
2, 55549, Note_on_c, 0, 72, 0
2, 55564, Note_on_c, 0, 70, 64
2, 55616, Note_on_c, 0, 70, 0
2, 55624, Note_on_c, 0, 68, 64
2, 55676, Note_on_c, 0, 68, 0
2, 55684, Note_on_c, 0, 73, 64
2, 56029, Note_on_c, 0, 73, 0
2, 56044, Note_on_c, 0, 72, 64
2, 56096, Note_on_c, 0, 72, 0
2, 56104, Note_on_c, 0, 70, 64
2, 56156, Note_on_c, 0, 70, 0
2, 56164, Note_on_c, 0, 75, 64
2, 56509, Note_on_c, 0, 75, 0
2, 56524, Note_on_c, 0, 73, 64
2, 56576, Note_on_c, 0, 73, 0
2, 56584, Note_on_c, 0, 72, 64
2, 56636, Note_on_c, 0, 72, 0
2, 56644, Note_on_c, 0, 77, 64
2, 56749, Note_on_c, 0, 77, 0
2, 56884, Note_on_c, 0, 75, 64
2, 57109, Note_on_c, 0, 75, 0
2, 57124, Note_on_c, 0, 73, 64
2, 57349, Note_on_c, 0, 73, 0
2, 57484, Note_on_c, 0, 72, 64
2, 57589, Note_on_c, 0, 72, 0
2, 57604, Note_on_c, 0, 70, 64
2, 57709, Note_on_c, 0, 70, 0
2, 57724, Note_on_c, 0, 77, 64
2, 57829, Note_on_c, 0, 77, 0
2, 57844, Note_on_c, 0, 75, 64
2, 58069, Note_on_c, 0, 75, 0
2, 58204, Note_on_c, 0, 73, 64
2, 58309, Note_on_c, 0, 73, 0
2, 58324, Note_on_c, 0, 72, 64
2, 58376, Note_on_c, 0, 72, 0
2, 58384, Note_on_c, 0, 75, 64
2, 58436, Note_on_c, 0, 75, 0
2, 58444, Note_on_c, 0, 73, 64
2, 58496, Note_on_c, 0, 73, 0
2, 58504, Note_on_c, 0, 72, 64
2, 58556, Note_on_c, 0, 72, 0
2, 58564, Note_on_c, 0, 70, 64
2, 58616, Note_on_c, 0, 70, 0
2, 58624, Note_on_c, 0, 73, 64
2, 58676, Note_on_c, 0, 73, 0
2, 58684, Note_on_c, 0, 72, 64
2, 58736, Note_on_c, 0, 72, 0
2, 58744, Note_on_c, 0, 70, 64
2, 58796, Note_on_c, 0, 70, 0
2, 58804, Note_on_c, 0, 68, 64
2, 58856, Note_on_c, 0, 68, 0
2, 58864, Note_on_c, 0, 72, 64
2, 58916, Note_on_c, 0, 72, 0
2, 58924, Note_on_c, 0, 70, 64
2, 58976, Note_on_c, 0, 70, 0
2, 58984, Note_on_c, 0, 68, 64
2, 59036, Note_on_c, 0, 68, 0
2, 59044, Note_on_c, 0, 67, 64
2, 59096, Note_on_c, 0, 67, 0
2, 59104, Note_on_c, 0, 70, 64
2, 59156, Note_on_c, 0, 70, 0
2, 59164, Note_on_c, 0, 68, 64
2, 59269, Note_on_c, 0, 68, 0
2, 59404, Note_on_c, 0, 67, 64
2, 59509, Note_on_c, 0, 67, 0
2, 59524, Note_on_c, 0, 73, 64
2, 59629, Note_on_c, 0, 73, 0
2, 59644, Note_on_c, 0, 72, 64
2, 59696, Note_on_c, 0, 72, 0
2, 59704, Note_on_c, 0, 70, 64
2, 59756, Note_on_c, 0, 70, 0
2, 59764, Note_on_c, 0, 72, 64
2, 59869, Note_on_c, 0, 72, 0
2, 59884, Note_on_c, 0, 73, 64
2, 59989, Note_on_c, 0, 73, 0
2, 60004, Note_on_c, 0, 66, 64
2, 60349, Note_on_c, 0, 66, 0
2, 60364, Note_on_c, 0, 66, 64
2, 60469, Note_on_c, 0, 66, 0
2, 60484, Note_on_c, 0, 75, 64
2, 60589, Note_on_c, 0, 75, 0
2, 60604, Note_on_c, 0, 73, 64
2, 60656, Note_on_c, 0, 73, 0
2, 60664, Note_on_c, 0, 72, 64
2, 60716, Note_on_c, 0, 72, 0
2, 60724, Note_on_c, 0, 73, 64
2, 60829, Note_on_c, 0, 73, 0
2, 60844, Note_on_c, 0, 75, 64
2, 60949, Note_on_c, 0, 75, 0
2, 60964, Note_on_c, 0, 68, 64
2, 61309, Note_on_c, 0, 68, 0
2, 61324, Note_on_c, 0, 68, 64
2, 61429, Note_on_c, 0, 68, 0
2, 61444, Note_on_c, 0, 77, 64
2, 61549, Note_on_c, 0, 77, 0
2, 61564, Note_on_c, 0, 75, 64
2, 61616, Note_on_c, 0, 75, 0
2, 61624, Note_on_c, 0, 74, 64
2, 61676, Note_on_c, 0, 74, 0
2, 61684, Note_on_c, 0, 75, 64
2, 61789, Note_on_c, 0, 75, 0
2, 61804, Note_on_c, 0, 77, 64
2, 61909, Note_on_c, 0, 77, 0
2, 61924, Note_on_c, 0, 70, 64
2, 62269, Note_on_c, 0, 70, 0
2, 62284, Note_on_c, 0, 69, 64
2, 62336, Note_on_c, 0, 69, 0
2, 62344, Note_on_c, 0, 67, 64
2, 62396, Note_on_c, 0, 67, 0
2, 62404, Note_on_c, 0, 69, 64
2, 62509, Note_on_c, 0, 69, 0
2, 62524, Note_on_c, 0, 70, 64
2, 62629, Note_on_c, 0, 70, 0
2, 62644, Note_on_c, 0, 63, 64
2, 63229, Note_on_c, 0, 63, 0
2, 63244, Note_on_c, 0, 61, 64
2, 63296, Note_on_c, 0, 61, 0
2, 63304, Note_on_c, 0, 60, 64
2, 63356, Note_on_c, 0, 60, 0
2, 63364, Note_on_c, 0, 61, 64
2, 63469, Note_on_c, 0, 61, 0
2, 63484, Note_on_c, 0, 70, 64
2, 63709, Note_on_c, 0, 70, 0
2, 63724, Note_on_c, 0, 69, 64
2, 63829, Note_on_c, 0, 69, 0
2, 63844, Note_on_c, 0, 70, 64
2, 64009, Note_on_c, 0, 70, 0
2, 64024, Note_on_c, 0, 68, 64
2, 64076, Note_on_c, 0, 68, 0
2, 64084, Note_on_c, 0, 66, 64
2, 64309, Note_on_c, 0, 66, 0
2, 64324, Note_on_c, 0, 65, 64
2, 64429, Note_on_c, 0, 65, 0
2, 64444, Note_on_c, 0, 74, 64
2, 64549, Note_on_c, 0, 74, 0
2, 64564, Note_on_c, 0, 75, 64
2, 64669, Note_on_c, 0, 75, 0
2, 64684, Note_on_c, 0, 73, 64
2, 64736, Note_on_c, 0, 73, 0
2, 64744, Note_on_c, 0, 72, 64
2, 64796, Note_on_c, 0, 72, 0
2, 64804, Note_on_c, 0, 77, 64
2, 64909, Note_on_c, 0, 77, 0
2, 65044, Note_on_c, 0, 66, 64
2, 65149, Note_on_c, 0, 66, 0
2, 65284, Note_on_c, 0, 65, 64
2, 65389, Note_on_c, 0, 65, 0
2, 65524, Note_on_c, 0, 63, 64
2, 65629, Note_on_c, 0, 63, 0
2, 66604, Note_on_c, 0, 70, 64
2, 66709, Note_on_c, 0, 70, 0
2, 66724, Note_on_c, 0, 75, 64
2, 67069, Note_on_c, 0, 75, 0
2, 67084, Note_on_c, 0, 73, 64
2, 67136, Note_on_c, 0, 73, 0
2, 67144, Note_on_c, 0, 72, 64
2, 67196, Note_on_c, 0, 72, 0
2, 67204, Note_on_c, 0, 73, 64
2, 67789, Note_on_c, 0, 73, 0
2, 67804, Note_on_c, 0, 72, 64
2, 67856, Note_on_c, 0, 72, 0
2, 67864, Note_on_c, 0, 70, 64
2, 67916, Note_on_c, 0, 70, 0
2, 67924, Note_on_c, 0, 72, 64
2, 68149, Note_on_c, 0, 72, 0
2, 68404, Note_on_c, 0, 70, 64
2, 68629, Note_on_c, 0, 70, 0
2, 68644, Note_on_c, 0, 72, 64
2, 68869, Note_on_c, 0, 72, 0
2, 69004, Note_on_c, 0, 73, 64
2, 69109, Note_on_c, 0, 73, 0
2, 69124, Note_on_c, 0, 75, 64
2, 69229, Note_on_c, 0, 75, 0
2, 69244, Note_on_c, 0, 69, 64
2, 69349, Note_on_c, 0, 69, 0
2, 69364, Note_on_c, 0, 70, 64
2, 69589, Note_on_c, 0, 70, 0
2, 69724, Note_on_c, 0, 72, 64
2, 69829, Note_on_c, 0, 72, 0
2, 69844, Note_on_c, 0, 73, 64
2, 69896, Note_on_c, 0, 73, 0
2, 69904, Note_on_c, 0, 70, 64
2, 69956, Note_on_c, 0, 70, 0
2, 69964, Note_on_c, 0, 72, 64
2, 70016, Note_on_c, 0, 72, 0
2, 70024, Note_on_c, 0, 73, 64
2, 70076, Note_on_c, 0, 73, 0
2, 70084, Note_on_c, 0, 75, 64
2, 70136, Note_on_c, 0, 75, 0
2, 70144, Note_on_c, 0, 72, 64
2, 70196, Note_on_c, 0, 72, 0
2, 70204, Note_on_c, 0, 73, 64
2, 70256, Note_on_c, 0, 73, 0
2, 70264, Note_on_c, 0, 75, 64
2, 70316, Note_on_c, 0, 75, 0
2, 70324, Note_on_c, 0, 77, 64
2, 70376, Note_on_c, 0, 77, 0
2, 70384, Note_on_c, 0, 73, 64
2, 70436, Note_on_c, 0, 73, 0
2, 70444, Note_on_c, 0, 75, 64
2, 70496, Note_on_c, 0, 75, 0
2, 70504, Note_on_c, 0, 77, 64
2, 70556, Note_on_c, 0, 77, 0
2, 70564, Note_on_c, 0, 75, 64
2, 70564, Note_on_c, 0, 78, 64
2, 70616, Note_on_c, 0, 78, 0
2, 70616, Note_on_c, 0, 75, 0
2, 70624, Note_on_c, 0, 75, 64
2, 70676, Note_on_c, 0, 75, 0
2, 70684, Note_on_c, 0, 77, 64
2, 70789, Note_on_c, 0, 77, 0
2, 70924, Note_on_c, 0, 78, 64
2, 71029, Note_on_c, 0, 78, 0
2, 71044, Note_on_c, 0, 72, 64
2, 71149, Note_on_c, 0, 72, 0
2, 71164, Note_on_c, 0, 73, 64
2, 71216, Note_on_c, 0, 73, 0
2, 71224, Note_on_c, 0, 75, 64
2, 71276, Note_on_c, 0, 75, 0
2, 71284, Note_on_c, 0, 73, 64
2, 71389, Note_on_c, 0, 73, 0
2, 71404, Note_on_c, 0, 72, 64
2, 71509, Note_on_c, 0, 72, 0
2, 71524, Note_on_c, 0, 70, 64
2, 71749, Note_on_c, 0, 70, 0
2, 71764, Note_on_c, 0, 70, 64
2, 71800, Note_on_c, 0, 69, 64
2, 71807, Note_on_c, 0, 70, 0
2, 71812, Note_on_c, 0, 70, 64
2, 71819, Note_on_c, 0, 69, 0
2, 71824, Note_on_c, 0, 69, 64
2, 71831, Note_on_c, 0, 70, 0
2, 71836, Note_on_c, 0, 70, 64
2, 71843, Note_on_c, 0, 69, 0
2, 71848, Note_on_c, 0, 69, 64
2, 71855, Note_on_c, 0, 70, 0
2, 71860, Note_on_c, 0, 70, 64
2, 71867, Note_on_c, 0, 69, 0
2, 71872, Note_on_c, 0, 69, 64
2, 71879, Note_on_c, 0, 70, 0
2, 71939, Note_on_c, 0, 69, 0
2, 71944, Note_on_c, 0, 70, 64
2, 71996, Note_on_c, 0, 70, 0
2, 72004, Note_on_c, 0, 70, 64
2, 72709, Note_on_c, 0, 70, 0
2, 72709, End_track
3, 0, Start_track
3, 0, MIDI_port, 0
3, 0, Title_t, "Fugue in B flat minor"
3, 0, Program_c, 1, 6
3, 4, Note_on_c, 1, 58, 64
3, 229, Note_on_c, 1, 58, 0
3, 244, Note_on_c, 1, 60, 64
3, 469, Note_on_c, 1, 60, 0
3, 604, Note_on_c, 1, 61, 64
3, 709, Note_on_c, 1, 61, 0
3, 724, Note_on_c, 1, 63, 64
3, 829, Note_on_c, 1, 63, 0
3, 844, Note_on_c, 1, 57, 64
3, 949, Note_on_c, 1, 57, 0
3, 964, Note_on_c, 1, 58, 64
3, 1189, Note_on_c, 1, 58, 0
3, 1324, Note_on_c, 1, 60, 64
3, 1429, Note_on_c, 1, 60, 0
3, 1444, Note_on_c, 1, 61, 64
3, 1496, Note_on_c, 1, 61, 0
3, 1504, Note_on_c, 1, 58, 64
3, 1556, Note_on_c, 1, 58, 0
3, 1564, Note_on_c, 1, 60, 64
3, 1616, Note_on_c, 1, 60, 0
3, 1624, Note_on_c, 1, 61, 64
3, 1676, Note_on_c, 1, 61, 0
3, 1684, Note_on_c, 1, 63, 64
3, 1736, Note_on_c, 1, 63, 0
3, 1744, Note_on_c, 1, 60, 64
3, 1796, Note_on_c, 1, 60, 0
3, 1804, Note_on_c, 1, 61, 64
3, 1856, Note_on_c, 1, 61, 0
3, 1864, Note_on_c, 1, 63, 64
3, 1916, Note_on_c, 1, 63, 0
3, 1924, Note_on_c, 1, 65, 64
3, 1976, Note_on_c, 1, 65, 0
3, 1984, Note_on_c, 1, 61, 64
3, 2036, Note_on_c, 1, 61, 0
3, 2044, Note_on_c, 1, 63, 64
3, 2096, Note_on_c, 1, 63, 0
3, 2104, Note_on_c, 1, 65, 64
3, 2156, Note_on_c, 1, 65, 0
3, 2164, Note_on_c, 1, 66, 64
3, 2216, Note_on_c, 1, 66, 0
3, 2224, Note_on_c, 1, 63, 64
3, 2276, Note_on_c, 1, 63, 0
3, 2284, Note_on_c, 1, 65, 64
3, 2389, Note_on_c, 1, 65, 0
3, 2524, Note_on_c, 1, 66, 64
3, 2629, Note_on_c, 1, 66, 0
3, 2644, Note_on_c, 1, 60, 64
3, 2749, Note_on_c, 1, 60, 0
3, 2764, Note_on_c, 1, 61, 64
3, 2816, Note_on_c, 1, 61, 0
3, 2824, Note_on_c, 1, 63, 64
3, 2876, Note_on_c, 1, 63, 0
3, 2884, Note_on_c, 1, 61, 64
3, 2989, Note_on_c, 1, 61, 0
3, 3004, Note_on_c, 1, 57, 64
3, 3109, Note_on_c, 1, 57, 0
3, 3124, Note_on_c, 1, 58, 64
3, 3229, Note_on_c, 1, 58, 0
3, 3244, Note_on_c, 1, 59, 64
3, 3349, Note_on_c, 1, 59, 0
3, 3364, Note_on_c, 1, 60, 64
3, 3589, Note_on_c, 1, 60, 0
3, 3724, Note_on_c, 1, 60, 64
3, 3829, Note_on_c, 1, 60, 0
3, 3844, Note_on_c, 1, 61, 64
3, 3949, Note_on_c, 1, 61, 0
3, 3964, Note_on_c, 1, 62, 64
3, 4069, Note_on_c, 1, 62, 0
3, 4084, Note_on_c, 1, 63, 64
3, 4189, Note_on_c, 1, 63, 0
3, 4204, Note_on_c, 1, 64, 64
3, 4309, Note_on_c, 1, 64, 0
3, 4324, Note_on_c, 1, 65, 64
3, 5149, Note_on_c, 1, 65, 0
3, 5164, Note_on_c, 1, 64, 64
3, 5216, Note_on_c, 1, 64, 0
3, 5224, Note_on_c, 1, 62, 64
3, 5276, Note_on_c, 1, 62, 0
3, 5284, Note_on_c, 1, 64, 64
3, 5509, Note_on_c, 1, 64, 0
3, 5644, Note_on_c, 1, 63, 64
3, 5869, Note_on_c, 1, 63, 0
3, 5884, Note_on_c, 1, 62, 64
3, 5936, Note_on_c, 1, 62, 0
3, 5944, Note_on_c, 1, 60, 64
3, 5996, Note_on_c, 1, 60, 0
3, 6004, Note_on_c, 1, 62, 64
3, 6229, Note_on_c, 1, 62, 0
3, 6364, Note_on_c, 1, 61, 64
3, 6589, Note_on_c, 1, 61, 0
3, 6604, Note_on_c, 1, 60, 64
3, 6656, Note_on_c, 1, 60, 0
3, 6664, Note_on_c, 1, 58, 64
3, 6716, Note_on_c, 1, 58, 0
3, 6724, Note_on_c, 1, 60, 64
3, 6829, Note_on_c, 1, 60, 0
3, 6844, Note_on_c, 1, 66, 64
3, 6949, Note_on_c, 1, 66, 0
3, 6964, Note_on_c, 1, 65, 64
3, 7069, Note_on_c, 1, 65, 0
3, 7084, Note_on_c, 1, 63, 64
3, 7309, Note_on_c, 1, 63, 0
3, 7324, Note_on_c, 1, 62, 64
3, 7429, Note_on_c, 1, 62, 0
3, 7444, Note_on_c, 1, 63, 64
3, 7549, Note_on_c, 1, 63, 0
3, 7564, Note_on_c, 1, 64, 64
3, 7669, Note_on_c, 1, 64, 0
3, 7684, Note_on_c, 1, 65, 64
3, 7909, Note_on_c, 1, 65, 0
3, 8044, Note_on_c, 1, 65, 64
3, 8149, Note_on_c, 1, 65, 0
3, 8164, Note_on_c, 1, 66, 64
3, 8269, Note_on_c, 1, 66, 0
3, 8284, Note_on_c, 1, 67, 64
3, 8389, Note_on_c, 1, 67, 0
3, 8404, Note_on_c, 1, 68, 64
3, 8509, Note_on_c, 1, 68, 0
3, 8524, Note_on_c, 1, 69, 64
3, 8629, Note_on_c, 1, 69, 0
3, 8644, Note_on_c, 1, 70, 64
3, 9469, Note_on_c, 1, 70, 0
3, 9484, Note_on_c, 1, 69, 64
3, 9536, Note_on_c, 1, 69, 0
3, 9544, Note_on_c, 1, 67, 64
3, 9596, Note_on_c, 1, 67, 0
3, 9604, Note_on_c, 1, 69, 64
3, 9829, Note_on_c, 1, 69, 0
3, 9964, Note_on_c, 1, 68, 64
3, 10189, Note_on_c, 1, 68, 0
3, 10204, Note_on_c, 1, 67, 64
3, 10256, Note_on_c, 1, 67, 0
3, 10264, Note_on_c, 1, 65, 64
3, 10316, Note_on_c, 1, 65, 0
3, 10324, Note_on_c, 1, 67, 64
3, 10549, Note_on_c, 1, 67, 0
3, 10684, Note_on_c, 1, 66, 64
3, 10909, Note_on_c, 1, 66, 0
3, 10924, Note_on_c, 1, 65, 64
3, 10976, Note_on_c, 1, 65, 0
3, 10984, Note_on_c, 1, 63, 64
3, 11036, Note_on_c, 1, 63, 0
3, 11044, Note_on_c, 1, 65, 64
3, 11389, Note_on_c, 1, 65, 0
3, 11404, Note_on_c, 1, 58, 64
3, 11509, Note_on_c, 1, 58, 0
3, 11524, Note_on_c, 1, 60, 64
3, 11629, Note_on_c, 1, 60, 0
3, 11644, Note_on_c, 1, 61, 64
3, 11696, Note_on_c, 1, 61, 0
3, 11704, Note_on_c, 1, 63, 64
3, 11756, Note_on_c, 1, 63, 0
3, 11764, Note_on_c, 1, 61, 64
3, 11869, Note_on_c, 1, 61, 0
3, 12364, Note_on_c, 1, 68, 64
3, 12589, Note_on_c, 1, 68, 0
3, 12604, Note_on_c, 1, 67, 64
3, 12656, Note_on_c, 1, 67, 0
3, 12664, Note_on_c, 1, 65, 64
3, 12716, Note_on_c, 1, 65, 0
3, 12724, Note_on_c, 1, 67, 64
3, 12776, Note_on_c, 1, 67, 0
3, 12784, Note_on_c, 1, 68, 64
3, 12836, Note_on_c, 1, 68, 0
3, 12844, Note_on_c, 1, 70, 64
3, 12949, Note_on_c, 1, 70, 0
3, 12964, Note_on_c, 1, 68, 64
3, 13069, Note_on_c, 1, 68, 0
3, 13204, Note_on_c, 1, 67, 64
3, 13309, Note_on_c, 1, 67, 0
3, 13444, Note_on_c, 1, 68, 64
3, 13549, Note_on_c, 1, 68, 0
3, 13684, Note_on_c, 1, 70, 64
3, 13789, Note_on_c, 1, 70, 0
3, 13924, Note_on_c, 1, 67, 64
3, 14029, Note_on_c, 1, 67, 0
3, 14164, Note_on_c, 1, 72, 64
3, 14269, Note_on_c, 1, 72, 0
3, 14404, Note_on_c, 1, 60, 64
3, 14509, Note_on_c, 1, 60, 0
3, 14644, Note_on_c, 1, 72, 64
3, 14749, Note_on_c, 1, 72, 0
3, 14884, Note_on_c, 1, 65, 64
3, 14989, Note_on_c, 1, 65, 0
3, 15124, Note_on_c, 1, 70, 64
3, 15176, Note_on_c, 1, 70, 0
3, 15184, Note_on_c, 1, 72, 64
3, 15236, Note_on_c, 1, 72, 0
3, 15244, Note_on_c, 1, 73, 64
3, 15349, Note_on_c, 1, 73, 0
3, 15484, Note_on_c, 1, 70, 64
3, 15589, Note_on_c, 1, 70, 0
3, 15604, Note_on_c, 1, 65, 64
3, 15709, Note_on_c, 1, 65, 0
3, 15724, Note_on_c, 1, 66, 64
3, 15776, Note_on_c, 1, 66, 0
3, 15784, Note_on_c, 1, 68, 64
3, 15836, Note_on_c, 1, 68, 0
3, 15844, Note_on_c, 1, 66, 64
3, 15949, Note_on_c, 1, 66, 0
3, 15964, Note_on_c, 1, 63, 64
3, 16069, Note_on_c, 1, 63, 0
3, 16084, Note_on_c, 1, 70, 64
3, 16189, Note_on_c, 1, 70, 0
3, 16324, Note_on_c, 1, 63, 64
3, 16429, Note_on_c, 1, 63, 0
3, 16564, Note_on_c, 1, 68, 64
3, 16616, Note_on_c, 1, 68, 0
3, 16624, Note_on_c, 1, 70, 64
3, 16676, Note_on_c, 1, 70, 0
3, 16684, Note_on_c, 1, 72, 64
3, 16789, Note_on_c, 1, 72, 0
3, 16924, Note_on_c, 1, 68, 64
3, 17029, Note_on_c, 1, 68, 0
3, 17044, Note_on_c, 1, 63, 64
3, 17149, Note_on_c, 1, 63, 0
3, 17164, Note_on_c, 1, 65, 64
3, 17216, Note_on_c, 1, 65, 0
3, 17224, Note_on_c, 1, 66, 64
3, 17276, Note_on_c, 1, 66, 0
3, 17284, Note_on_c, 1, 65, 64
3, 17389, Note_on_c, 1, 65, 0
3, 17404, Note_on_c, 1, 66, 64
3, 17509, Note_on_c, 1, 66, 0
3, 17524, Note_on_c, 1, 68, 64
3, 17869, Note_on_c, 1, 68, 0
3, 17884, Note_on_c, 1, 66, 64
3, 17936, Note_on_c, 1, 66, 0
3, 17944, Note_on_c, 1, 65, 64
3, 17996, Note_on_c, 1, 65, 0
3, 18004, Note_on_c, 1, 66, 64
3, 18109, Note_on_c, 1, 66, 0
3, 18124, Note_on_c, 1, 63, 64
3, 18229, Note_on_c, 1, 63, 0
3, 18364, Note_on_c, 1, 66, 64
3, 18589, Note_on_c, 1, 66, 0
3, 18604, Note_on_c, 1, 65, 64
3, 18656, Note_on_c, 1, 65, 0
3, 18664, Note_on_c, 1, 63, 64
3, 18716, Note_on_c, 1, 63, 0
3, 18724, Note_on_c, 1, 61, 64
3, 18829, Note_on_c, 1, 61, 0
3, 18964, Note_on_c, 1, 69, 64
3, 19189, Note_on_c, 1, 69, 0
3, 19204, Note_on_c, 1, 70, 64
3, 19429, Note_on_c, 1, 70, 0
3, 19564, Note_on_c, 1, 72, 64
3, 19669, Note_on_c, 1, 72, 0
3, 19684, Note_on_c, 1, 73, 64
3, 19789, Note_on_c, 1, 73, 0
3, 19804, Note_on_c, 1, 67, 64
3, 19909, Note_on_c, 1, 67, 0
3, 19924, Note_on_c, 1, 69, 64
3, 20149, Note_on_c, 1, 69, 0
3, 20284, Note_on_c, 1, 70, 64
3, 20389, Note_on_c, 1, 70, 0
3, 20404, Note_on_c, 1, 72, 64
3, 20456, Note_on_c, 1, 72, 0
3, 20464, Note_on_c, 1, 69, 64
3, 20516, Note_on_c, 1, 69, 0
3, 20524, Note_on_c, 1, 70, 64
3, 20576, Note_on_c, 1, 70, 0
3, 20584, Note_on_c, 1, 72, 64
3, 20636, Note_on_c, 1, 72, 0
3, 20644, Note_on_c, 1, 73, 64
3, 20696, Note_on_c, 1, 73, 0
3, 20704, Note_on_c, 1, 70, 64
3, 20756, Note_on_c, 1, 70, 0
3, 20764, Note_on_c, 1, 72, 64
3, 20816, Note_on_c, 1, 72, 0
3, 20824, Note_on_c, 1, 73, 64
3, 20876, Note_on_c, 1, 73, 0
3, 20884, Note_on_c, 1, 75, 64
3, 20936, Note_on_c, 1, 75, 0
3, 20944, Note_on_c, 1, 72, 64
3, 20996, Note_on_c, 1, 72, 0
3, 21004, Note_on_c, 1, 73, 64
3, 21056, Note_on_c, 1, 73, 0
3, 21064, Note_on_c, 1, 75, 64
3, 21116, Note_on_c, 1, 75, 0
3, 21124, Note_on_c, 1, 77, 64
3, 21176, Note_on_c, 1, 77, 0
3, 21184, Note_on_c, 1, 73, 64
3, 21236, Note_on_c, 1, 73, 0
3, 21244, Note_on_c, 1, 75, 64
3, 21349, Note_on_c, 1, 75, 0
3, 21484, Note_on_c, 1, 77, 64
3, 21589, Note_on_c, 1, 77, 0
3, 21604, Note_on_c, 1, 70, 64
3, 21709, Note_on_c, 1, 70, 0
3, 21724, Note_on_c, 1, 72, 64
3, 21776, Note_on_c, 1, 72, 0
3, 21784, Note_on_c, 1, 73, 64
3, 21836, Note_on_c, 1, 73, 0
3, 21844, Note_on_c, 1, 72, 64
3, 21949, Note_on_c, 1, 72, 0
3, 21964, Note_on_c, 1, 70, 64
3, 22069, Note_on_c, 1, 70, 0
3, 22084, Note_on_c, 1, 69, 64
3, 22189, Note_on_c, 1, 69, 0
3, 22204, Note_on_c, 1, 70, 64
3, 22256, Note_on_c, 1, 70, 0
3, 22264, Note_on_c, 1, 72, 64
3, 22316, Note_on_c, 1, 72, 0
3, 22324, Note_on_c, 1, 70, 64
3, 22429, Note_on_c, 1, 70, 0
3, 22444, Note_on_c, 1, 68, 64
3, 22549, Note_on_c, 1, 68, 0
3, 22564, Note_on_c, 1, 67, 64
3, 22669, Note_on_c, 1, 67, 0
3, 22684, Note_on_c, 1, 68, 64
3, 22736, Note_on_c, 1, 68, 0
3, 22744, Note_on_c, 1, 70, 64
3, 22796, Note_on_c, 1, 70, 0
3, 22804, Note_on_c, 1, 68, 64
3, 22909, Note_on_c, 1, 68, 0
3, 22924, Note_on_c, 1, 66, 64
3, 23029, Note_on_c, 1, 66, 0
3, 23044, Note_on_c, 1, 65, 64
3, 23149, Note_on_c, 1, 65, 0
3, 23164, Note_on_c, 1, 63, 64
3, 23216, Note_on_c, 1, 63, 0
3, 23224, Note_on_c, 1, 65, 64
3, 23276, Note_on_c, 1, 65, 0
3, 23284, Note_on_c, 1, 66, 64
3, 23389, Note_on_c, 1, 66, 0
3, 23404, Note_on_c, 1, 65, 64
3, 23456, Note_on_c, 1, 65, 0
3, 23464, Note_on_c, 1, 63, 64
3, 23516, Note_on_c, 1, 63, 0
3, 23524, Note_on_c, 1, 61, 64
3, 23629, Note_on_c, 1, 61, 0
3, 23644, Note_on_c, 1, 73, 64
3, 23749, Note_on_c, 1, 73, 0
3, 23764, Note_on_c, 1, 72, 64
3, 23816, Note_on_c, 1, 72, 0
3, 23824, Note_on_c, 1, 70, 64
3, 23876, Note_on_c, 1, 70, 0
3, 23884, Note_on_c, 1, 68, 64
3, 23936, Note_on_c, 1, 68, 0
3, 23944, Note_on_c, 1, 66, 64
3, 23996, Note_on_c, 1, 66, 0
3, 24004, Note_on_c, 1, 65, 64
3, 24056, Note_on_c, 1, 65, 0
3, 24064, Note_on_c, 1, 63, 64
3, 24116, Note_on_c, 1, 63, 0
3, 24124, Note_on_c, 1, 61, 64
3, 24229, Note_on_c, 1, 61, 0
3, 24244, Note_on_c, 1, 68, 64
3, 24949, Note_on_c, 1, 68, 0
3, 24964, Note_on_c, 1, 73, 64
3, 25669, Note_on_c, 1, 73, 0
3, 25684, Note_on_c, 1, 72, 64
3, 25909, Note_on_c, 1, 72, 0
3, 26044, Note_on_c, 1, 73, 64
3, 26149, Note_on_c, 1, 73, 0
3, 26164, Note_on_c, 1, 72, 64
3, 26269, Note_on_c, 1, 72, 0
3, 26284, Note_on_c, 1, 71, 64
3, 26509, Note_on_c, 1, 71, 0
3, 26524, Note_on_c, 1, 70, 64
3, 26576, Note_on_c, 1, 70, 0
3, 26584, Note_on_c, 1, 68, 64
3, 26636, Note_on_c, 1, 68, 0
3, 26644, Note_on_c, 1, 70, 64
3, 26749, Note_on_c, 1, 70, 0
3, 26884, Note_on_c, 1, 71, 64
3, 26989, Note_on_c, 1, 71, 0
3, 27124, Note_on_c, 1, 73, 64
3, 27229, Note_on_c, 1, 73, 0
3, 27244, Note_on_c, 1, 70, 64
3, 27349, Note_on_c, 1, 70, 0
3, 27364, Note_on_c, 1, 66, 64
3, 27469, Note_on_c, 1, 66, 0
3, 27604, Note_on_c, 1, 68, 64
3, 27709, Note_on_c, 1, 68, 0
3, 27844, Note_on_c, 1, 70, 64
3, 27949, Note_on_c, 1, 70, 0
3, 28204, Note_on_c, 1, 68, 64
3, 28309, Note_on_c, 1, 68, 0
3, 28324, Note_on_c, 1, 67, 64
3, 28429, Note_on_c, 1, 67, 0
3, 28444, Note_on_c, 1, 66, 64
3, 28669, Note_on_c, 1, 66, 0
3, 28684, Note_on_c, 1, 65, 64
3, 28736, Note_on_c, 1, 65, 0
3, 28744, Note_on_c, 1, 63, 64
3, 28796, Note_on_c, 1, 63, 0
3, 28804, Note_on_c, 1, 65, 64
3, 28909, Note_on_c, 1, 65, 0
3, 28924, Note_on_c, 1, 67, 64
3, 28976, Note_on_c, 1, 67, 0
3, 28984, Note_on_c, 1, 68, 64
3, 29036, Note_on_c, 1, 68, 0
3, 29044, Note_on_c, 1, 67, 64
3, 29149, Note_on_c, 1, 67, 0
3, 29164, Note_on_c, 1, 69, 64
3, 29216, Note_on_c, 1, 69, 0
3, 29224, Note_on_c, 1, 70, 64
3, 29276, Note_on_c, 1, 70, 0
3, 29284, Note_on_c, 1, 72, 64
3, 29389, Note_on_c, 1, 72, 0
3, 29404, Note_on_c, 1, 69, 64
3, 29509, Note_on_c, 1, 69, 0
3, 29524, Note_on_c, 1, 70, 64
3, 29629, Note_on_c, 1, 70, 0
3, 29644, Note_on_c, 1, 73, 64
3, 29749, Note_on_c, 1, 73, 0
3, 29764, Note_on_c, 1, 72, 64
3, 29869, Note_on_c, 1, 72, 0
3, 29884, Note_on_c, 1, 71, 64
3, 29989, Note_on_c, 1, 71, 0
3, 30004, Note_on_c, 1, 70, 64
3, 30229, Note_on_c, 1, 70, 0
3, 30364, Note_on_c, 1, 70, 64
3, 30469, Note_on_c, 1, 70, 0
3, 30484, Note_on_c, 1, 69, 64
3, 30589, Note_on_c, 1, 69, 0
3, 30604, Note_on_c, 1, 68, 64
3, 30709, Note_on_c, 1, 68, 0
3, 30724, Note_on_c, 1, 67, 64
3, 30829, Note_on_c, 1, 67, 0
3, 30844, Note_on_c, 1, 66, 64
3, 30949, Note_on_c, 1, 66, 0
3, 30964, Note_on_c, 1, 65, 64
3, 31909, Note_on_c, 1, 65, 0
3, 32404, Note_on_c, 1, 70, 64
3, 32629, Note_on_c, 1, 70, 0
3, 32644, Note_on_c, 1, 68, 64
3, 32869, Note_on_c, 1, 68, 0
3, 33004, Note_on_c, 1, 66, 64
3, 33109, Note_on_c, 1, 66, 0
3, 33124, Note_on_c, 1, 65, 64
3, 33229, Note_on_c, 1, 65, 0
3, 33244, Note_on_c, 1, 71, 64
3, 33349, Note_on_c, 1, 71, 0
3, 33364, Note_on_c, 1, 70, 64
3, 33589, Note_on_c, 1, 70, 0
3, 33724, Note_on_c, 1, 68, 64
3, 33829, Note_on_c, 1, 68, 0
3, 33844, Note_on_c, 1, 66, 64
3, 33896, Note_on_c, 1, 66, 0
3, 33904, Note_on_c, 1, 70, 64
3, 33956, Note_on_c, 1, 70, 0
3, 33964, Note_on_c, 1, 68, 64
3, 34016, Note_on_c, 1, 68, 0
3, 34024, Note_on_c, 1, 66, 64
3, 34076, Note_on_c, 1, 66, 0
3, 34084, Note_on_c, 1, 65, 64
3, 34136, Note_on_c, 1, 65, 0
3, 34144, Note_on_c, 1, 68, 64
3, 34196, Note_on_c, 1, 68, 0
3, 34204, Note_on_c, 1, 66, 64
3, 34256, Note_on_c, 1, 66, 0
3, 34264, Note_on_c, 1, 65, 64
3, 34316, Note_on_c, 1, 65, 0
3, 34324, Note_on_c, 1, 63, 64
3, 34376, Note_on_c, 1, 63, 0
3, 34384, Note_on_c, 1, 66, 64
3, 34436, Note_on_c, 1, 66, 0
3, 34444, Note_on_c, 1, 65, 64
3, 34496, Note_on_c, 1, 65, 0
3, 34504, Note_on_c, 1, 63, 64
3, 34556, Note_on_c, 1, 63, 0
3, 34564, Note_on_c, 1, 62, 64
3, 34616, Note_on_c, 1, 62, 0
3, 34624, Note_on_c, 1, 65, 64
3, 34676, Note_on_c, 1, 65, 0
3, 34684, Note_on_c, 1, 63, 64
3, 34789, Note_on_c, 1, 63, 0
3, 34924, Note_on_c, 1, 62, 64
3, 35029, Note_on_c, 1, 62, 0
3, 35044, Note_on_c, 1, 68, 64
3, 35149, Note_on_c, 1, 68, 0
3, 35164, Note_on_c, 1, 66, 64
3, 35216, Note_on_c, 1, 66, 0
3, 35224, Note_on_c, 1, 65, 64
3, 35276, Note_on_c, 1, 65, 0
3, 35284, Note_on_c, 1, 66, 64
3, 35336, Note_on_c, 1, 66, 0
3, 35344, Note_on_c, 1, 68, 64
3, 35396, Note_on_c, 1, 68, 0
3, 35404, Note_on_c, 1, 70, 64
3, 35629, Note_on_c, 1, 70, 0
3, 35644, Note_on_c, 1, 69, 64
3, 35696, Note_on_c, 1, 69, 0
3, 35704, Note_on_c, 1, 70, 64
3, 35756, Note_on_c, 1, 70, 0
3, 35764, Note_on_c, 1, 72, 64
3, 35869, Note_on_c, 1, 72, 0
3, 35884, Note_on_c, 1, 63, 64
3, 36109, Note_on_c, 1, 63, 0
3, 36124, Note_on_c, 1, 61, 64
3, 36229, Note_on_c, 1, 61, 0
3, 36244, Note_on_c, 1, 70, 64
3, 36589, Note_on_c, 1, 70, 0
3, 36604, Note_on_c, 1, 68, 64
3, 36776, Note_on_c, 1, 68, 0
3, 36784, Note_on_c, 1, 65, 64
3, 36836, Note_on_c, 1, 65, 0
3, 36844, Note_on_c, 1, 70, 64
3, 36949, Note_on_c, 1, 70, 0
3, 36964, Note_on_c, 1, 69, 64
3, 37069, Note_on_c, 1, 69, 0
3, 37084, Note_on_c, 1, 68, 64
3, 37189, Note_on_c, 1, 68, 0
3, 37204, Note_on_c, 1, 67, 64
3, 37429, Note_on_c, 1, 67, 0
3, 37564, Note_on_c, 1, 66, 64
3, 37669, Note_on_c, 1, 66, 0
3, 37684, Note_on_c, 1, 65, 64
3, 37789, Note_on_c, 1, 65, 0
3, 37804, Note_on_c, 1, 64, 64
3, 37909, Note_on_c, 1, 64, 0
3, 37924, Note_on_c, 1, 63, 64
3, 38029, Note_on_c, 1, 63, 0
3, 38044, Note_on_c, 1, 62, 64
3, 38149, Note_on_c, 1, 62, 0
3, 38164, Note_on_c, 1, 61, 64
3, 38749, Note_on_c, 1, 61, 0
3, 38764, Note_on_c, 1, 59, 64
3, 38989, Note_on_c, 1, 59, 0
3, 39004, Note_on_c, 1, 58, 64
3, 39056, Note_on_c, 1, 58, 0
3, 39064, Note_on_c, 1, 56, 64
3, 39116, Note_on_c, 1, 56, 0
3, 39124, Note_on_c, 1, 54, 64
3, 39176, Note_on_c, 1, 54, 0
3, 39184, Note_on_c, 1, 58, 64
3, 39236, Note_on_c, 1, 58, 0
3, 39244, Note_on_c, 1, 56, 64
3, 39296, Note_on_c, 1, 56, 0
3, 39304, Note_on_c, 1, 54, 64
3, 39356, Note_on_c, 1, 54, 0
3, 39364, Note_on_c, 1, 53, 64
3, 39416, Note_on_c, 1, 53, 0
3, 39424, Note_on_c, 1, 56, 64
3, 39476, Note_on_c, 1, 56, 0
3, 39484, Note_on_c, 1, 55, 64
3, 39536, Note_on_c, 1, 55, 0
3, 39544, Note_on_c, 1, 53, 64
3, 39596, Note_on_c, 1, 53, 0
3, 39604, Note_on_c, 1, 55, 64
3, 39829, Note_on_c, 1, 55, 0
3, 39844, Note_on_c, 1, 56, 64
3, 40069, Note_on_c, 1, 56, 0
3, 40084, Note_on_c, 1, 58, 64
3, 40309, Note_on_c, 1, 58, 0
3, 40324, Note_on_c, 1, 59, 64
3, 40549, Note_on_c, 1, 59, 0
3, 40564, Note_on_c, 1, 58, 64
3, 40909, Note_on_c, 1, 58, 0
3, 40924, Note_on_c, 1, 64, 64
3, 41029, Note_on_c, 1, 64, 0
3, 41044, Note_on_c, 1, 63, 64
3, 41749, Note_on_c, 1, 63, 0
3, 41884, Note_on_c, 1, 74, 64
3, 41989, Note_on_c, 1, 74, 0
3, 42004, Note_on_c, 1, 75, 64
3, 42056, Note_on_c, 1, 75, 0
3, 42064, Note_on_c, 1, 70, 64
3, 42116, Note_on_c, 1, 70, 0
3, 42124, Note_on_c, 1, 75, 64
3, 42296, Note_on_c, 1, 75, 0
3, 42304, Note_on_c, 1, 73, 64
3, 42356, Note_on_c, 1, 73, 0
3, 42364, Note_on_c, 1, 71, 64
3, 42416, Note_on_c, 1, 71, 0
3, 42424, Note_on_c, 1, 70, 64
3, 42476, Note_on_c, 1, 70, 0
3, 42484, Note_on_c, 1, 71, 64
3, 42589, Note_on_c, 1, 71, 0
3, 42724, Note_on_c, 1, 73, 64
3, 42829, Note_on_c, 1, 73, 0
3, 42964, Note_on_c, 1, 71, 64
3, 43069, Note_on_c, 1, 71, 0
3, 43204, Note_on_c, 1, 70, 64
3, 43309, Note_on_c, 1, 70, 0
3, 43684, Note_on_c, 1, 64, 64
3, 44029, Note_on_c, 1, 64, 0
3, 44044, Note_on_c, 1, 63, 64
3, 44096, Note_on_c, 1, 63, 0
3, 44104, Note_on_c, 1, 61, 64
3, 44156, Note_on_c, 1, 61, 0
3, 44164, Note_on_c, 1, 63, 64
3, 44216, Note_on_c, 1, 63, 0
3, 44224, Note_on_c, 1, 65, 64
3, 44276, Note_on_c, 1, 65, 0
3, 44284, Note_on_c, 1, 66, 64
3, 44509, Note_on_c, 1, 66, 0
3, 44524, Note_on_c, 1, 65, 64
3, 44576, Note_on_c, 1, 65, 0
3, 44584, Note_on_c, 1, 63, 64
3, 44636, Note_on_c, 1, 63, 0
3, 44644, Note_on_c, 1, 65, 64
3, 45416, Note_on_c, 1, 65, 0
3, 45424, Note_on_c, 1, 66, 64
3, 45476, Note_on_c, 1, 66, 0
3, 45484, Note_on_c, 1, 65, 64
3, 45536, Note_on_c, 1, 65, 0
3, 45544, Note_on_c, 1, 63, 64
3, 45596, Note_on_c, 1, 63, 0
3, 45604, Note_on_c, 1, 65, 64
3, 45656, Note_on_c, 1, 65, 0
3, 45664, Note_on_c, 1, 66, 64
3, 45716, Note_on_c, 1, 66, 0
3, 45724, Note_on_c, 1, 68, 64
3, 45949, Note_on_c, 1, 68, 0
3, 45964, Note_on_c, 1, 66, 64
3, 46016, Note_on_c, 1, 66, 0
3, 46024, Note_on_c, 1, 65, 64
3, 46076, Note_on_c, 1, 65, 0
3, 46084, Note_on_c, 1, 66, 64
3, 47029, Note_on_c, 1, 66, 0
3, 47044, Note_on_c, 1, 65, 64
3, 47389, Note_on_c, 1, 65, 0
3, 47404, Note_on_c, 1, 69, 64
3, 47509, Note_on_c, 1, 69, 0
3, 47524, Note_on_c, 1, 70, 64
3, 47576, Note_on_c, 1, 70, 0
3, 47584, Note_on_c, 1, 72, 64
3, 47636, Note_on_c, 1, 72, 0
3, 47644, Note_on_c, 1, 73, 64
3, 47869, Note_on_c, 1, 73, 0
3, 47884, Note_on_c, 1, 72, 64
3, 47989, Note_on_c, 1, 72, 0
3, 48004, Note_on_c, 1, 73, 64
3, 48109, Note_on_c, 1, 73, 0
3, 48124, Note_on_c, 1, 65, 64
3, 48229, Note_on_c, 1, 65, 0
3, 48244, Note_on_c, 1, 63, 64
3, 48349, Note_on_c, 1, 63, 0
3, 48364, Note_on_c, 1, 72, 64
3, 48469, Note_on_c, 1, 72, 0
3, 48484, Note_on_c, 1, 70, 64
3, 48589, Note_on_c, 1, 70, 0
3, 48604, Note_on_c, 1, 74, 64
3, 48709, Note_on_c, 1, 74, 0
3, 48724, Note_on_c, 1, 75, 64
3, 48829, Note_on_c, 1, 75, 0
3, 48844, Note_on_c, 1, 72, 64
3, 49016, Note_on_c, 1, 72, 0
3, 49024, Note_on_c, 1, 69, 64
3, 49076, Note_on_c, 1, 69, 0
3, 49084, Note_on_c, 1, 70, 64
3, 49309, Note_on_c, 1, 70, 0
3, 49324, Note_on_c, 1, 69, 64
3, 49429, Note_on_c, 1, 69, 0
3, 49444, Note_on_c, 1, 70, 64
3, 49549, Note_on_c, 1, 70, 0
3, 51844, Note_on_c, 1, 72, 64
3, 52069, Note_on_c, 1, 72, 0
3, 52084, Note_on_c, 1, 70, 64
3, 52309, Note_on_c, 1, 70, 0
3, 52444, Note_on_c, 1, 68, 64
3, 52549, Note_on_c, 1, 68, 0
3, 52564, Note_on_c, 1, 67, 64
3, 52669, Note_on_c, 1, 67, 0
3, 52684, Note_on_c, 1, 73, 64
3, 52789, Note_on_c, 1, 73, 0
3, 52804, Note_on_c, 1, 72, 64
3, 53029, Note_on_c, 1, 72, 0
3, 53164, Note_on_c, 1, 70, 64
3, 53269, Note_on_c, 1, 70, 0
3, 53284, Note_on_c, 1, 68, 64
3, 53336, Note_on_c, 1, 68, 0
3, 53344, Note_on_c, 1, 72, 64
3, 53396, Note_on_c, 1, 72, 0
3, 53404, Note_on_c, 1, 70, 64
3, 53456, Note_on_c, 1, 70, 0
3, 53464, Note_on_c, 1, 68, 64
3, 53516, Note_on_c, 1, 68, 0
3, 53524, Note_on_c, 1, 67, 64
3, 53576, Note_on_c, 1, 67, 0
3, 53584, Note_on_c, 1, 70, 64
3, 53636, Note_on_c, 1, 70, 0
3, 53644, Note_on_c, 1, 68, 64
3, 53696, Note_on_c, 1, 68, 0
3, 53704, Note_on_c, 1, 67, 64
3, 53756, Note_on_c, 1, 67, 0
3, 53764, Note_on_c, 1, 65, 64
3, 53816, Note_on_c, 1, 65, 0
3, 53824, Note_on_c, 1, 68, 64
3, 53876, Note_on_c, 1, 68, 0
3, 53884, Note_on_c, 1, 67, 64
3, 53936, Note_on_c, 1, 67, 0
3, 53944, Note_on_c, 1, 65, 64
3, 53996, Note_on_c, 1, 65, 0
3, 54004, Note_on_c, 1, 64, 64
3, 54056, Note_on_c, 1, 64, 0
3, 54064, Note_on_c, 1, 67, 64
3, 54116, Note_on_c, 1, 67, 0
3, 54124, Note_on_c, 1, 65, 64
3, 54229, Note_on_c, 1, 65, 0
3, 54364, Note_on_c, 1, 64, 64
3, 54469, Note_on_c, 1, 64, 0
3, 54484, Note_on_c, 1, 70, 64
3, 54589, Note_on_c, 1, 70, 0
3, 54604, Note_on_c, 1, 68, 64
3, 54656, Note_on_c, 1, 68, 0
3, 54664, Note_on_c, 1, 67, 64
3, 54716, Note_on_c, 1, 67, 0
3, 54724, Note_on_c, 1, 68, 64
3, 54776, Note_on_c, 1, 68, 0
3, 54784, Note_on_c, 1, 65, 64
3, 54836, Note_on_c, 1, 65, 0
3, 54844, Note_on_c, 1, 67, 64
3, 54949, Note_on_c, 1, 67, 0
3, 55084, Note_on_c, 1, 67, 64
3, 55309, Note_on_c, 1, 67, 0
3, 55324, Note_on_c, 1, 65, 64
3, 55376, Note_on_c, 1, 65, 0
3, 55384, Note_on_c, 1, 64, 64
3, 55436, Note_on_c, 1, 64, 0
3, 55444, Note_on_c, 1, 68, 64
3, 55789, Note_on_c, 1, 68, 0
3, 55804, Note_on_c, 1, 67, 64
3, 55856, Note_on_c, 1, 67, 0
3, 55864, Note_on_c, 1, 65, 64
3, 55916, Note_on_c, 1, 65, 0
3, 55924, Note_on_c, 1, 70, 64
3, 56269, Note_on_c, 1, 70, 0
3, 56284, Note_on_c, 1, 68, 64
3, 56336, Note_on_c, 1, 68, 0
3, 56344, Note_on_c, 1, 67, 64
3, 56396, Note_on_c, 1, 67, 0
3, 56404, Note_on_c, 1, 72, 64
3, 56749, Note_on_c, 1, 72, 0
3, 56764, Note_on_c, 1, 70, 64
3, 56816, Note_on_c, 1, 70, 0
3, 56824, Note_on_c, 1, 68, 64
3, 56876, Note_on_c, 1, 68, 0
3, 56884, Note_on_c, 1, 67, 64
3, 56989, Note_on_c, 1, 67, 0
3, 57004, Note_on_c, 1, 68, 64
3, 57109, Note_on_c, 1, 68, 0
3, 57124, Note_on_c, 1, 70, 64
3, 57229, Note_on_c, 1, 70, 0
3, 57244, Note_on_c, 1, 58, 64
3, 57349, Note_on_c, 1, 58, 0
3, 57364, Note_on_c, 1, 60, 64
3, 57469, Note_on_c, 1, 60, 0
3, 57484, Note_on_c, 1, 68, 64
3, 57709, Note_on_c, 1, 68, 0
3, 57724, Note_on_c, 1, 67, 64
3, 57829, Note_on_c, 1, 67, 0
3, 57844, Note_on_c, 1, 68, 64
3, 57949, Note_on_c, 1, 68, 0
3, 58084, Note_on_c, 1, 70, 64
3, 58189, Note_on_c, 1, 70, 0
3, 58324, Note_on_c, 1, 63, 64
3, 58429, Note_on_c, 1, 63, 0
3, 58444, Note_on_c, 1, 68, 64
3, 58549, Note_on_c, 1, 68, 0
3, 58564, Note_on_c, 1, 67, 64
3, 58669, Note_on_c, 1, 67, 0
3, 58684, Note_on_c, 1, 66, 64
3, 58789, Note_on_c, 1, 66, 0
3, 58804, Note_on_c, 1, 65, 64
3, 58909, Note_on_c, 1, 65, 0
3, 58924, Note_on_c, 1, 64, 64
3, 59029, Note_on_c, 1, 64, 0
3, 59044, Note_on_c, 1, 63, 64
3, 59149, Note_on_c, 1, 63, 0
3, 63604, Note_on_c, 1, 66, 64
3, 63829, Note_on_c, 1, 66, 0
3, 63844, Note_on_c, 1, 65, 64
3, 64069, Note_on_c, 1, 65, 0
3, 64204, Note_on_c, 1, 63, 64
3, 64309, Note_on_c, 1, 63, 0
3, 64324, Note_on_c, 1, 62, 64
3, 64429, Note_on_c, 1, 62, 0
3, 64444, Note_on_c, 1, 68, 64
3, 64549, Note_on_c, 1, 68, 0
3, 64564, Note_on_c, 1, 66, 64
3, 64789, Note_on_c, 1, 66, 0
3, 64924, Note_on_c, 1, 65, 64
3, 65029, Note_on_c, 1, 65, 0
3, 65044, Note_on_c, 1, 63, 64
3, 65096, Note_on_c, 1, 63, 0
3, 65104, Note_on_c, 1, 66, 64
3, 65156, Note_on_c, 1, 66, 0
3, 65164, Note_on_c, 1, 65, 64
3, 65216, Note_on_c, 1, 65, 0
3, 65224, Note_on_c, 1, 63, 64
3, 65276, Note_on_c, 1, 63, 0
3, 65284, Note_on_c, 1, 61, 64
3, 65336, Note_on_c, 1, 61, 0
3, 65344, Note_on_c, 1, 65, 64
3, 65396, Note_on_c, 1, 65, 0
3, 65404, Note_on_c, 1, 63, 64
3, 65456, Note_on_c, 1, 63, 0
3, 65464, Note_on_c, 1, 61, 64
3, 65516, Note_on_c, 1, 61, 0
3, 65524, Note_on_c, 1, 60, 64
3, 65576, Note_on_c, 1, 60, 0
3, 65584, Note_on_c, 1, 63, 64
3, 65636, Note_on_c, 1, 63, 0
3, 65644, Note_on_c, 1, 61, 64
3, 65696, Note_on_c, 1, 61, 0
3, 65704, Note_on_c, 1, 60, 64
3, 65756, Note_on_c, 1, 60, 0
3, 65764, Note_on_c, 1, 58, 64
3, 65816, Note_on_c, 1, 58, 0
3, 65824, Note_on_c, 1, 61, 64
3, 65876, Note_on_c, 1, 61, 0
3, 65884, Note_on_c, 1, 60, 64
3, 65989, Note_on_c, 1, 60, 0
3, 66124, Note_on_c, 1, 58, 64
3, 66229, Note_on_c, 1, 58, 0
3, 66244, Note_on_c, 1, 65, 64
3, 66349, Note_on_c, 1, 65, 0
3, 66364, Note_on_c, 1, 63, 64
3, 66416, Note_on_c, 1, 63, 0
3, 66424, Note_on_c, 1, 62, 64
3, 66476, Note_on_c, 1, 62, 0
3, 66484, Note_on_c, 1, 63, 64
3, 66709, Note_on_c, 1, 63, 0
3, 66844, Note_on_c, 1, 63, 64
3, 66949, Note_on_c, 1, 63, 0
3, 66964, Note_on_c, 1, 72, 64
3, 67309, Note_on_c, 1, 72, 0
3, 67324, Note_on_c, 1, 70, 64
3, 67376, Note_on_c, 1, 70, 0
3, 67384, Note_on_c, 1, 69, 64
3, 67436, Note_on_c, 1, 69, 0
3, 67444, Note_on_c, 1, 70, 64
3, 68029, Note_on_c, 1, 70, 0
3, 68044, Note_on_c, 1, 69, 64
3, 68096, Note_on_c, 1, 69, 0
3, 68104, Note_on_c, 1, 67, 64
3, 68156, Note_on_c, 1, 67, 0
3, 68164, Note_on_c, 1, 69, 64
3, 68389, Note_on_c, 1, 69, 0
3, 68404, Note_on_c, 1, 61, 64
3, 68629, Note_on_c, 1, 61, 0
3, 68644, Note_on_c, 1, 63, 64
3, 68869, Note_on_c, 1, 63, 0
3, 69004, Note_on_c, 1, 65, 64
3, 69109, Note_on_c, 1, 65, 0
3, 69124, Note_on_c, 1, 66, 64
3, 69229, Note_on_c, 1, 66, 0
3, 69244, Note_on_c, 1, 60, 64
3, 69349, Note_on_c, 1, 60, 0
3, 69364, Note_on_c, 1, 62, 64
3, 69589, Note_on_c, 1, 62, 0
3, 69724, Note_on_c, 1, 69, 64
3, 69829, Note_on_c, 1, 69, 0
3, 69844, Note_on_c, 1, 70, 64
3, 69896, Note_on_c, 1, 70, 0
3, 69904, Note_on_c, 1, 67, 64
3, 69956, Note_on_c, 1, 67, 0
3, 69964, Note_on_c, 1, 69, 64
3, 70016, Note_on_c, 1, 69, 0
3, 70024, Note_on_c, 1, 70, 64
3, 70076, Note_on_c, 1, 70, 0
3, 70084, Note_on_c, 1, 72, 64
3, 70136, Note_on_c, 1, 72, 0
3, 70144, Note_on_c, 1, 69, 64
3, 70196, Note_on_c, 1, 69, 0
3, 70204, Note_on_c, 1, 70, 64
3, 70256, Note_on_c, 1, 70, 0
3, 70264, Note_on_c, 1, 72, 64
3, 70316, Note_on_c, 1, 72, 0
3, 70324, Note_on_c, 1, 73, 64
3, 70376, Note_on_c, 1, 73, 0
3, 70384, Note_on_c, 1, 70, 64
3, 70436, Note_on_c, 1, 70, 0
3, 70444, Note_on_c, 1, 72, 64
3, 70496, Note_on_c, 1, 72, 0
3, 70504, Note_on_c, 1, 73, 64
3, 70556, Note_on_c, 1, 73, 0
3, 70564, Note_on_c, 1, 75, 64
3, 70616, Note_on_c, 1, 75, 0
3, 70624, Note_on_c, 1, 72, 64
3, 70676, Note_on_c, 1, 72, 0
3, 70684, Note_on_c, 1, 73, 64
3, 70789, Note_on_c, 1, 73, 0
3, 70924, Note_on_c, 1, 75, 64
3, 71029, Note_on_c, 1, 75, 0
3, 71044, Note_on_c, 1, 69, 64
3, 71149, Note_on_c, 1, 69, 0
3, 71164, Note_on_c, 1, 70, 64
3, 71216, Note_on_c, 1, 70, 0
3, 71224, Note_on_c, 1, 72, 64
3, 71276, Note_on_c, 1, 72, 0
3, 71284, Note_on_c, 1, 70, 64
3, 71389, Note_on_c, 1, 70, 0
3, 71404, Note_on_c, 1, 66, 64
3, 71509, Note_on_c, 1, 66, 0
3, 71524, Note_on_c, 1, 65, 64
3, 71989, Note_on_c, 1, 65, 0
3, 72004, Note_on_c, 1, 65, 64
3, 72709, Note_on_c, 1, 65, 0
3, 72709, End_track
4, 0, Start_track
4, 0, MIDI_port, 0
4, 0, Title_t, "from WTC II"
4, 0, Program_c, 2, 6
4, 11524, Note_on_c, 2, 53, 64
4, 11749, Note_on_c, 2, 53, 0
4, 11764, Note_on_c, 2, 55, 64
4, 11989, Note_on_c, 2, 55, 0
4, 12124, Note_on_c, 2, 56, 64
4, 12229, Note_on_c, 2, 56, 0
4, 12244, Note_on_c, 2, 58, 64
4, 12349, Note_on_c, 2, 58, 0
4, 12364, Note_on_c, 2, 52, 64
4, 12469, Note_on_c, 2, 52, 0
4, 12484, Note_on_c, 2, 53, 64
4, 12709, Note_on_c, 2, 53, 0
4, 12844, Note_on_c, 2, 55, 64
4, 12949, Note_on_c, 2, 55, 0
4, 12964, Note_on_c, 2, 56, 64
4, 13016, Note_on_c, 2, 56, 0
4, 13024, Note_on_c, 2, 53, 64
4, 13076, Note_on_c, 2, 53, 0
4, 13084, Note_on_c, 2, 55, 64
4, 13136, Note_on_c, 2, 55, 0
4, 13144, Note_on_c, 2, 56, 64
4, 13196, Note_on_c, 2, 56, 0
4, 13204, Note_on_c, 2, 58, 64
4, 13256, Note_on_c, 2, 58, 0
4, 13264, Note_on_c, 2, 55, 64
4, 13316, Note_on_c, 2, 55, 0
4, 13324, Note_on_c, 2, 56, 64
4, 13376, Note_on_c, 2, 56, 0
4, 13384, Note_on_c, 2, 58, 64
4, 13436, Note_on_c, 2, 58, 0
4, 13444, Note_on_c, 2, 60, 64
4, 13496, Note_on_c, 2, 60, 0
4, 13504, Note_on_c, 2, 56, 64
4, 13556, Note_on_c, 2, 56, 0
4, 13564, Note_on_c, 2, 58, 64
4, 13616, Note_on_c, 2, 58, 0
4, 13624, Note_on_c, 2, 60, 64
4, 13676, Note_on_c, 2, 60, 0
4, 13684, Note_on_c, 2, 61, 64
4, 13736, Note_on_c, 2, 61, 0
4, 13744, Note_on_c, 2, 58, 64
4, 13796, Note_on_c, 2, 58, 0
4, 13804, Note_on_c, 2, 60, 64
4, 13909, Note_on_c, 2, 60, 0
4, 14044, Note_on_c, 2, 61, 64
4, 14149, Note_on_c, 2, 61, 0
4, 14164, Note_on_c, 2, 55, 64
4, 14269, Note_on_c, 2, 55, 0
4, 14284, Note_on_c, 2, 56, 64
4, 14336, Note_on_c, 2, 56, 0
4, 14344, Note_on_c, 2, 58, 64
4, 14396, Note_on_c, 2, 58, 0
4, 14404, Note_on_c, 2, 56, 64
4, 14509, Note_on_c, 2, 56, 0
4, 14764, Note_on_c, 2, 65, 64
4, 14869, Note_on_c, 2, 65, 0
4, 14884, Note_on_c, 2, 60, 64
4, 14989, Note_on_c, 2, 60, 0
4, 15004, Note_on_c, 2, 61, 64
4, 15056, Note_on_c, 2, 61, 0
4, 15064, Note_on_c, 2, 63, 64
4, 15116, Note_on_c, 2, 63, 0
4, 15124, Note_on_c, 2, 61, 64
4, 15229, Note_on_c, 2, 61, 0
4, 15244, Note_on_c, 2, 53, 64
4, 15349, Note_on_c, 2, 53, 0
4, 15364, Note_on_c, 2, 58, 64
4, 15469, Note_on_c, 2, 58, 0
4, 15604, Note_on_c, 2, 59, 64
4, 15709, Note_on_c, 2, 59, 0
4, 15844, Note_on_c, 2, 58, 64
4, 15949, Note_on_c, 2, 58, 0
4, 16204, Note_on_c, 2, 63, 64
4, 16309, Note_on_c, 2, 63, 0
4, 16324, Note_on_c, 2, 58, 64
4, 16429, Note_on_c, 2, 58, 0
4, 16444, Note_on_c, 2, 60, 64
4, 16496, Note_on_c, 2, 60, 0
4, 16504, Note_on_c, 2, 61, 64
4, 16556, Note_on_c, 2, 61, 0
4, 16564, Note_on_c, 2, 60, 64
4, 16669, Note_on_c, 2, 60, 0
4, 16684, Note_on_c, 2, 51, 64
4, 16789, Note_on_c, 2, 51, 0
4, 16804, Note_on_c, 2, 56, 64
4, 16909, Note_on_c, 2, 56, 0
4, 17044, Note_on_c, 2, 48, 64
4, 17149, Note_on_c, 2, 48, 0
4, 17284, Note_on_c, 2, 49, 64
4, 17389, Note_on_c, 2, 49, 0
4, 17404, Note_on_c, 2, 51, 64
4, 17509, Note_on_c, 2, 51, 0
4, 17524, Note_on_c, 2, 53, 64
4, 17629, Note_on_c, 2, 53, 0
4, 17644, Note_on_c, 2, 49, 64
4, 17749, Note_on_c, 2, 49, 0
4, 17764, Note_on_c, 2, 54, 64
4, 17869, Note_on_c, 2, 54, 0
4, 17884, Note_on_c, 2, 58, 64
4, 17989, Note_on_c, 2, 58, 0
4, 18004, Note_on_c, 2, 51, 64
4, 18109, Note_on_c, 2, 51, 0
4, 18124, Note_on_c, 2, 54, 64
4, 18229, Note_on_c, 2, 54, 0
4, 18244, Note_on_c, 2, 48, 64
4, 18349, Note_on_c, 2, 48, 0
4, 18364, Note_on_c, 2, 51, 64
4, 18469, Note_on_c, 2, 51, 0
4, 18484, Note_on_c, 2, 53, 64
4, 18589, Note_on_c, 2, 53, 0
4, 18604, Note_on_c, 2, 57, 64
4, 18709, Note_on_c, 2, 57, 0
4, 18724, Note_on_c, 2, 58, 64
4, 18949, Note_on_c, 2, 58, 0
4, 18964, Note_on_c, 2, 60, 64
4, 19189, Note_on_c, 2, 60, 0
4, 19324, Note_on_c, 2, 61, 64
4, 19429, Note_on_c, 2, 61, 0
4, 19444, Note_on_c, 2, 63, 64
4, 19549, Note_on_c, 2, 63, 0
4, 19564, Note_on_c, 2, 57, 64
4, 19669, Note_on_c, 2, 57, 0
4, 19684, Note_on_c, 2, 58, 64
4, 19909, Note_on_c, 2, 58, 0
4, 20044, Note_on_c, 2, 60, 64
4, 20149, Note_on_c, 2, 60, 0
4, 20164, Note_on_c, 2, 61, 64
4, 20216, Note_on_c, 2, 61, 0
4, 20224, Note_on_c, 2, 58, 64
4, 20276, Note_on_c, 2, 58, 0
4, 20284, Note_on_c, 2, 60, 64
4, 20336, Note_on_c, 2, 60, 0
4, 20344, Note_on_c, 2, 61, 64
4, 20396, Note_on_c, 2, 61, 0
4, 20404, Note_on_c, 2, 63, 64
4, 20456, Note_on_c, 2, 63, 0
4, 20464, Note_on_c, 2, 60, 64
4, 20516, Note_on_c, 2, 60, 0
4, 20524, Note_on_c, 2, 61, 64
4, 20576, Note_on_c, 2, 61, 0
4, 20584, Note_on_c, 2, 63, 64
4, 20636, Note_on_c, 2, 63, 0
4, 20644, Note_on_c, 2, 65, 64
4, 20696, Note_on_c, 2, 65, 0
4, 20704, Note_on_c, 2, 61, 64
4, 20756, Note_on_c, 2, 61, 0
4, 20764, Note_on_c, 2, 63, 64
4, 20816, Note_on_c, 2, 63, 0
4, 20824, Note_on_c, 2, 65, 64
4, 20876, Note_on_c, 2, 65, 0
4, 20884, Note_on_c, 2, 66, 64
4, 20936, Note_on_c, 2, 66, 0
4, 20944, Note_on_c, 2, 63, 64
4, 20996, Note_on_c, 2, 63, 0
4, 21004, Note_on_c, 2, 65, 64
4, 21109, Note_on_c, 2, 65, 0
4, 21244, Note_on_c, 2, 66, 64
4, 21349, Note_on_c, 2, 66, 0
4, 21364, Note_on_c, 2, 60, 64
4, 21469, Note_on_c, 2, 60, 0
4, 21484, Note_on_c, 2, 61, 64
4, 21536, Note_on_c, 2, 61, 0
4, 21544, Note_on_c, 2, 63, 64
4, 21596, Note_on_c, 2, 63, 0
4, 21604, Note_on_c, 2, 61, 64
4, 21709, Note_on_c, 2, 61, 0
4, 21724, Note_on_c, 2, 58, 64
4, 21829, Note_on_c, 2, 58, 0
4, 21844, Note_on_c, 2, 63, 64
4, 21949, Note_on_c, 2, 63, 0
4, 21964, Note_on_c, 2, 65, 64
4, 22016, Note_on_c, 2, 65, 0
4, 22024, Note_on_c, 2, 66, 64
4, 22076, Note_on_c, 2, 66, 0
4, 22084, Note_on_c, 2, 65, 64
4, 22189, Note_on_c, 2, 65, 0
4, 22204, Note_on_c, 2, 63, 64
4, 22309, Note_on_c, 2, 63, 0
4, 22324, Note_on_c, 2, 62, 64
4, 22429, Note_on_c, 2, 62, 0
4, 22444, Note_on_c, 2, 63, 64
4, 22496, Note_on_c, 2, 63, 0
4, 22504, Note_on_c, 2, 65, 64
4, 22556, Note_on_c, 2, 65, 0
4, 22564, Note_on_c, 2, 63, 64
4, 22669, Note_on_c, 2, 63, 0
4, 22684, Note_on_c, 2, 61, 64
4, 22789, Note_on_c, 2, 61, 0
4, 22804, Note_on_c, 2, 60, 64
4, 22909, Note_on_c, 2, 60, 0
4, 22924, Note_on_c, 2, 61, 64
4, 22976, Note_on_c, 2, 61, 0
4, 22984, Note_on_c, 2, 63, 64
4, 23036, Note_on_c, 2, 63, 0
4, 23044, Note_on_c, 2, 61, 64
4, 23149, Note_on_c, 2, 61, 0
4, 23164, Note_on_c, 2, 60, 64
4, 23216, Note_on_c, 2, 60, 0
4, 23224, Note_on_c, 2, 58, 64
4, 23276, Note_on_c, 2, 58, 0
4, 23284, Note_on_c, 2, 56, 64
4, 24296, Note_on_c, 2, 56, 0
4, 24304, Note_on_c, 2, 54, 64
4, 24356, Note_on_c, 2, 54, 0
4, 24364, Note_on_c, 2, 53, 64
4, 24416, Note_on_c, 2, 53, 0
4, 24424, Note_on_c, 2, 51, 64
4, 24476, Note_on_c, 2, 51, 0
4, 24484, Note_on_c, 2, 49, 64
4, 24589, Note_on_c, 2, 49, 0
4, 24604, Note_on_c, 2, 61, 64
4, 24709, Note_on_c, 2, 61, 0
4, 24724, Note_on_c, 2, 60, 64
4, 24829, Note_on_c, 2, 60, 0
4, 24964, Note_on_c, 2, 56, 64
4, 25069, Note_on_c, 2, 56, 0
4, 25204, Note_on_c, 2, 63, 64
4, 25309, Note_on_c, 2, 63, 0
4, 25444, Note_on_c, 2, 65, 64
4, 25549, Note_on_c, 2, 65, 0
4, 25564, Note_on_c, 2, 63, 64
4, 25616, Note_on_c, 2, 63, 0
4, 25624, Note_on_c, 2, 61, 64
4, 25676, Note_on_c, 2, 61, 0
4, 25684, Note_on_c, 2, 68, 64
4, 26149, Note_on_c, 2, 68, 0
4, 27484, Note_on_c, 2, 63, 64
4, 27589, Note_on_c, 2, 63, 0
4, 27604, Note_on_c, 2, 62, 64
4, 27709, Note_on_c, 2, 62, 0
4, 27724, Note_on_c, 2, 61, 64
4, 27949, Note_on_c, 2, 61, 0
4, 27964, Note_on_c, 2, 60, 64
4, 28016, Note_on_c, 2, 60, 0
4, 28024, Note_on_c, 2, 58, 64
4, 28076, Note_on_c, 2, 58, 0
4, 28084, Note_on_c, 2, 60, 64
4, 28189, Note_on_c, 2, 60, 0
4, 28204, Note_on_c, 2, 58, 64
4, 28256, Note_on_c, 2, 58, 0
4, 28264, Note_on_c, 2, 56, 64
4, 28316, Note_on_c, 2, 56, 0
4, 28324, Note_on_c, 2, 61, 64
4, 28429, Note_on_c, 2, 61, 0
4, 28444, Note_on_c, 2, 60, 64
4, 28496, Note_on_c, 2, 60, 0
4, 28504, Note_on_c, 2, 58, 64
4, 28556, Note_on_c, 2, 58, 0
4, 28564, Note_on_c, 2, 63, 64
4, 28669, Note_on_c, 2, 63, 0
4, 28684, Note_on_c, 2, 61, 64
4, 28736, Note_on_c, 2, 61, 0
4, 28744, Note_on_c, 2, 60, 64
4, 28796, Note_on_c, 2, 60, 0
4, 28804, Note_on_c, 2, 61, 64
4, 28909, Note_on_c, 2, 61, 0
4, 29524, Note_on_c, 2, 65, 64
4, 29749, Note_on_c, 2, 65, 0
4, 29764, Note_on_c, 2, 63, 64
4, 29989, Note_on_c, 2, 63, 0
4, 30124, Note_on_c, 2, 61, 64
4, 30229, Note_on_c, 2, 61, 0
4, 30244, Note_on_c, 2, 60, 64
4, 30349, Note_on_c, 2, 60, 0
4, 30364, Note_on_c, 2, 66, 64
4, 30469, Note_on_c, 2, 66, 0
4, 30484, Note_on_c, 2, 65, 64
4, 30709, Note_on_c, 2, 65, 0
4, 30844, Note_on_c, 2, 63, 64
4, 30949, Note_on_c, 2, 63, 0
4, 30964, Note_on_c, 2, 61, 64
4, 31016, Note_on_c, 2, 61, 0
4, 31024, Note_on_c, 2, 65, 64
4, 31076, Note_on_c, 2, 65, 0
4, 31084, Note_on_c, 2, 63, 64
4, 31136, Note_on_c, 2, 63, 0
4, 31144, Note_on_c, 2, 61, 64
4, 31196, Note_on_c, 2, 61, 0
4, 31204, Note_on_c, 2, 60, 64
4, 31256, Note_on_c, 2, 60, 0
4, 31264, Note_on_c, 2, 63, 64
4, 31316, Note_on_c, 2, 63, 0
4, 31324, Note_on_c, 2, 61, 64
4, 31376, Note_on_c, 2, 61, 0
4, 31384, Note_on_c, 2, 60, 64
4, 31436, Note_on_c, 2, 60, 0
4, 31444, Note_on_c, 2, 58, 64
4, 31496, Note_on_c, 2, 58, 0
4, 31504, Note_on_c, 2, 61, 64
4, 31556, Note_on_c, 2, 61, 0
4, 31564, Note_on_c, 2, 60, 64
4, 31616, Note_on_c, 2, 60, 0
4, 31624, Note_on_c, 2, 58, 64
4, 31676, Note_on_c, 2, 58, 0
4, 31684, Note_on_c, 2, 57, 64
4, 31736, Note_on_c, 2, 57, 0
4, 31744, Note_on_c, 2, 60, 64
4, 31796, Note_on_c, 2, 60, 0
4, 31804, Note_on_c, 2, 58, 64
4, 31909, Note_on_c, 2, 58, 0
4, 32044, Note_on_c, 2, 57, 64
4, 32149, Note_on_c, 2, 57, 0
4, 32164, Note_on_c, 2, 63, 64
4, 32269, Note_on_c, 2, 63, 0
4, 32284, Note_on_c, 2, 61, 64
4, 32336, Note_on_c, 2, 61, 0
4, 32344, Note_on_c, 2, 60, 64
4, 32396, Note_on_c, 2, 60, 0
4, 32404, Note_on_c, 2, 61, 64
4, 32509, Note_on_c, 2, 61, 0
4, 32524, Note_on_c, 2, 66, 64
4, 32629, Note_on_c, 2, 66, 0
4, 32644, Note_on_c, 2, 65, 64
4, 32749, Note_on_c, 2, 65, 0
4, 32764, Note_on_c, 2, 64, 64
4, 32869, Note_on_c, 2, 64, 0
4, 32884, Note_on_c, 2, 63, 64
4, 33109, Note_on_c, 2, 63, 0
4, 33244, Note_on_c, 2, 63, 64
4, 33349, Note_on_c, 2, 63, 0
4, 33364, Note_on_c, 2, 62, 64
4, 33469, Note_on_c, 2, 62, 0
4, 33484, Note_on_c, 2, 61, 64
4, 33589, Note_on_c, 2, 61, 0
4, 33604, Note_on_c, 2, 60, 64
4, 33709, Note_on_c, 2, 60, 0
4, 33724, Note_on_c, 2, 59, 64
4, 33829, Note_on_c, 2, 59, 0
4, 33844, Note_on_c, 2, 58, 64
4, 34669, Note_on_c, 2, 58, 0
4, 34684, Note_on_c, 2, 58, 64
4, 34789, Note_on_c, 2, 58, 0
4, 34804, Note_on_c, 2, 56, 64
4, 34856, Note_on_c, 2, 56, 0
4, 34864, Note_on_c, 2, 58, 64
4, 34916, Note_on_c, 2, 58, 0
4, 34924, Note_on_c, 2, 59, 64
4, 35029, Note_on_c, 2, 59, 0
4, 35044, Note_on_c, 2, 53, 64
4, 35149, Note_on_c, 2, 53, 0
4, 35164, Note_on_c, 2, 62, 64
4, 35269, Note_on_c, 2, 62, 0
4, 35284, Note_on_c, 2, 63, 64
4, 35389, Note_on_c, 2, 63, 0
4, 35404, Note_on_c, 2, 65, 64
4, 35509, Note_on_c, 2, 65, 0
4, 35524, Note_on_c, 2, 66, 64
4, 35629, Note_on_c, 2, 66, 0
4, 35644, Note_on_c, 2, 60, 64
4, 35696, Note_on_c, 2, 60, 0
4, 35704, Note_on_c, 2, 61, 64
4, 35756, Note_on_c, 2, 61, 0
4, 35764, Note_on_c, 2, 63, 64
4, 35869, Note_on_c, 2, 63, 0
4, 35884, Note_on_c, 2, 57, 64
4, 35989, Note_on_c, 2, 57, 0
4, 36004, Note_on_c, 2, 58, 64
4, 36056, Note_on_c, 2, 58, 0
4, 36064, Note_on_c, 2, 60, 64
4, 36116, Note_on_c, 2, 60, 0
4, 36124, Note_on_c, 2, 61, 64
4, 36349, Note_on_c, 2, 61, 0
4, 36364, Note_on_c, 2, 60, 64
4, 36416, Note_on_c, 2, 60, 0
4, 36424, Note_on_c, 2, 61, 64
4, 36476, Note_on_c, 2, 61, 0
4, 36484, Note_on_c, 2, 63, 64
4, 36589, Note_on_c, 2, 63, 0
4, 36604, Note_on_c, 2, 54, 64
4, 36709, Note_on_c, 2, 54, 0
4, 36724, Note_on_c, 2, 53, 64
4, 36829, Note_on_c, 2, 53, 0
4, 36844, Note_on_c, 2, 55, 64
4, 37069, Note_on_c, 2, 55, 0
4, 37084, Note_on_c, 2, 53, 64
4, 37309, Note_on_c, 2, 53, 0
4, 37324, Note_on_c, 2, 52, 64
4, 37429, Note_on_c, 2, 52, 0
4, 37444, Note_on_c, 2, 53, 64
4, 37549, Note_on_c, 2, 53, 0
4, 37564, Note_on_c, 2, 57, 64
4, 37669, Note_on_c, 2, 57, 0
4, 37684, Note_on_c, 2, 58, 64
4, 37789, Note_on_c, 2, 58, 0
4, 37804, Note_on_c, 2, 56, 64
4, 37856, Note_on_c, 2, 56, 0
4, 37864, Note_on_c, 2, 55, 64
4, 37916, Note_on_c, 2, 55, 0
4, 37924, Note_on_c, 2, 56, 64
4, 38029, Note_on_c, 2, 56, 0
4, 38044, Note_on_c, 2, 54, 64
4, 38096, Note_on_c, 2, 54, 0
4, 38104, Note_on_c, 2, 53, 64
4, 38156, Note_on_c, 2, 53, 0
4, 38164, Note_on_c, 2, 54, 64
4, 38269, Note_on_c, 2, 54, 0
4, 38404, Note_on_c, 2, 53, 64
4, 38509, Note_on_c, 2, 53, 0
4, 38644, Note_on_c, 2, 51, 64
4, 38749, Note_on_c, 2, 51, 0
4, 38884, Note_on_c, 2, 49, 64
4, 39709, Note_on_c, 2, 49, 0
4, 39724, Note_on_c, 2, 47, 64
4, 39776, Note_on_c, 2, 47, 0
4, 39784, Note_on_c, 2, 46, 64
4, 39836, Note_on_c, 2, 46, 0
4, 39844, Note_on_c, 2, 47, 64
4, 39949, Note_on_c, 2, 47, 0
4, 39964, Note_on_c, 2, 52, 64
4, 40189, Note_on_c, 2, 52, 0
4, 40204, Note_on_c, 2, 51, 64
4, 40256, Note_on_c, 2, 51, 0
4, 40264, Note_on_c, 2, 49, 64
4, 40316, Note_on_c, 2, 49, 0
4, 40324, Note_on_c, 2, 51, 64
4, 40429, Note_on_c, 2, 51, 0
4, 40444, Note_on_c, 2, 56, 64
4, 40669, Note_on_c, 2, 56, 0
4, 40684, Note_on_c, 2, 55, 64
4, 40736, Note_on_c, 2, 55, 0
4, 40744, Note_on_c, 2, 53, 64
4, 40796, Note_on_c, 2, 53, 0
4, 40804, Note_on_c, 2, 55, 64
4, 40909, Note_on_c, 2, 55, 0
4, 40924, Note_on_c, 2, 56, 64
4, 40976, Note_on_c, 2, 56, 0
4, 40984, Note_on_c, 2, 58, 64
4, 41036, Note_on_c, 2, 58, 0
4, 41044, Note_on_c, 2, 59, 64
4, 41269, Note_on_c, 2, 59, 0
4, 41284, Note_on_c, 2, 58, 64
4, 41509, Note_on_c, 2, 58, 0
4, 41524, Note_on_c, 2, 56, 64
4, 41629, Note_on_c, 2, 56, 0
4, 41644, Note_on_c, 2, 58, 64
4, 41696, Note_on_c, 2, 58, 0
4, 41704, Note_on_c, 2, 59, 64
4, 41756, Note_on_c, 2, 59, 0
4, 41764, Note_on_c, 2, 61, 64
4, 41869, Note_on_c, 2, 61, 0
4, 42124, Note_on_c, 2, 63, 64
4, 42229, Note_on_c, 2, 63, 0
4, 42244, Note_on_c, 2, 65, 64
4, 42349, Note_on_c, 2, 65, 0
4, 42364, Note_on_c, 2, 67, 64
4, 42469, Note_on_c, 2, 67, 0
4, 42484, Note_on_c, 2, 68, 64
4, 42589, Note_on_c, 2, 68, 0
4, 42724, Note_on_c, 2, 67, 64
4, 42829, Note_on_c, 2, 67, 0
4, 42964, Note_on_c, 2, 68, 64
4, 43069, Note_on_c, 2, 68, 0
4, 43204, Note_on_c, 2, 63, 64
4, 43309, Note_on_c, 2, 63, 0
4, 47524, Note_on_c, 2, 65, 64
4, 47749, Note_on_c, 2, 65, 0
4, 47764, Note_on_c, 2, 63, 64
4, 47989, Note_on_c, 2, 63, 0
4, 48124, Note_on_c, 2, 61, 64
4, 48229, Note_on_c, 2, 61, 0
4, 48244, Note_on_c, 2, 60, 64
4, 48349, Note_on_c, 2, 60, 0
4, 48364, Note_on_c, 2, 66, 64
4, 48469, Note_on_c, 2, 66, 0
4, 48484, Note_on_c, 2, 65, 64
4, 48709, Note_on_c, 2, 65, 0
4, 48844, Note_on_c, 2, 63, 64
4, 48949, Note_on_c, 2, 63, 0
4, 48964, Note_on_c, 2, 61, 64
4, 49016, Note_on_c, 2, 61, 0
4, 49024, Note_on_c, 2, 65, 64
4, 49076, Note_on_c, 2, 65, 0
4, 49084, Note_on_c, 2, 63, 64
4, 49136, Note_on_c, 2, 63, 0
4, 49144, Note_on_c, 2, 61, 64
4, 49196, Note_on_c, 2, 61, 0
4, 49204, Note_on_c, 2, 60, 64
4, 49256, Note_on_c, 2, 60, 0
4, 49264, Note_on_c, 2, 63, 64
4, 49316, Note_on_c, 2, 63, 0
4, 49324, Note_on_c, 2, 61, 64
4, 49376, Note_on_c, 2, 61, 0
4, 49384, Note_on_c, 2, 60, 64
4, 49436, Note_on_c, 2, 60, 0
4, 49444, Note_on_c, 2, 58, 64
4, 49496, Note_on_c, 2, 58, 0
4, 49504, Note_on_c, 2, 61, 64
4, 49556, Note_on_c, 2, 61, 0
4, 49564, Note_on_c, 2, 60, 64
4, 49616, Note_on_c, 2, 60, 0
4, 49624, Note_on_c, 2, 58, 64
4, 49676, Note_on_c, 2, 58, 0
4, 49684, Note_on_c, 2, 57, 64
4, 49736, Note_on_c, 2, 57, 0
4, 49744, Note_on_c, 2, 60, 64
4, 49796, Note_on_c, 2, 60, 0
4, 49804, Note_on_c, 2, 58, 64
4, 49909, Note_on_c, 2, 58, 0
4, 50044, Note_on_c, 2, 57, 64
4, 50149, Note_on_c, 2, 57, 0
4, 50164, Note_on_c, 2, 63, 64
4, 50269, Note_on_c, 2, 63, 0
4, 50284, Note_on_c, 2, 61, 64
4, 50336, Note_on_c, 2, 61, 0
4, 50344, Note_on_c, 2, 60, 64
4, 50396, Note_on_c, 2, 60, 0
4, 50404, Note_on_c, 2, 61, 64
4, 50749, Note_on_c, 2, 61, 0
4, 50764, Note_on_c, 2, 60, 64
4, 50816, Note_on_c, 2, 60, 0
4, 50824, Note_on_c, 2, 58, 64
4, 50876, Note_on_c, 2, 58, 0
4, 50884, Note_on_c, 2, 60, 64
4, 50989, Note_on_c, 2, 60, 0
4, 51004, Note_on_c, 2, 65, 64
4, 51229, Note_on_c, 2, 65, 0
4, 51244, Note_on_c, 2, 64, 64
4, 51349, Note_on_c, 2, 64, 0
4, 51364, Note_on_c, 2, 65, 64
4, 51469, Note_on_c, 2, 65, 0
4, 51484, Note_on_c, 2, 56, 64
4, 51589, Note_on_c, 2, 56, 0
4, 51604, Note_on_c, 2, 55, 64
4, 51656, Note_on_c, 2, 55, 0
4, 51664, Note_on_c, 2, 56, 64
4, 51716, Note_on_c, 2, 56, 0
4, 51724, Note_on_c, 2, 58, 64
4, 51829, Note_on_c, 2, 58, 0
4, 51844, Note_on_c, 2, 56, 64
4, 51896, Note_on_c, 2, 56, 0
4, 51904, Note_on_c, 2, 58, 64
4, 51956, Note_on_c, 2, 58, 0
4, 51964, Note_on_c, 2, 56, 64
4, 52016, Note_on_c, 2, 56, 0
4, 52024, Note_on_c, 2, 55, 64
4, 52076, Note_on_c, 2, 55, 0
4, 52084, Note_on_c, 2, 53, 64
4, 52136, Note_on_c, 2, 53, 0
4, 52144, Note_on_c, 2, 52, 64
4, 52196, Note_on_c, 2, 52, 0
4, 52204, Note_on_c, 2, 53, 64
4, 52256, Note_on_c, 2, 53, 0
4, 52264, Note_on_c, 2, 55, 64
4, 52316, Note_on_c, 2, 55, 0
4, 52324, Note_on_c, 2, 56, 64
4, 52376, Note_on_c, 2, 56, 0
4, 52384, Note_on_c, 2, 55, 64
4, 52436, Note_on_c, 2, 55, 0
4, 52444, Note_on_c, 2, 56, 64
4, 52496, Note_on_c, 2, 56, 0
4, 52504, Note_on_c, 2, 58, 64
4, 52556, Note_on_c, 2, 58, 0
4, 52564, Note_on_c, 2, 60, 64
4, 52669, Note_on_c, 2, 60, 0
4, 52924, Note_on_c, 2, 54, 64
4, 53029, Note_on_c, 2, 54, 0
4, 53044, Note_on_c, 2, 53, 64
4, 53149, Note_on_c, 2, 53, 0
4, 53164, Note_on_c, 2, 55, 64
4, 53269, Note_on_c, 2, 55, 0
4, 53284, Note_on_c, 2, 56, 64
4, 53336, Note_on_c, 2, 56, 0
4, 53344, Note_on_c, 2, 58, 64
4, 53396, Note_on_c, 2, 58, 0
4, 53404, Note_on_c, 2, 60, 64
4, 53509, Note_on_c, 2, 60, 0
4, 54124, Note_on_c, 2, 60, 64
4, 54229, Note_on_c, 2, 60, 0
4, 54244, Note_on_c, 2, 61, 64
4, 54349, Note_on_c, 2, 61, 0
4, 54364, Note_on_c, 2, 58, 64
4, 54469, Note_on_c, 2, 58, 0
4, 54484, Note_on_c, 2, 52, 64
4, 54589, Note_on_c, 2, 52, 0
4, 54604, Note_on_c, 2, 53, 64
4, 54829, Note_on_c, 2, 53, 0
4, 54844, Note_on_c, 2, 61, 64
4, 54949, Note_on_c, 2, 61, 0
4, 54964, Note_on_c, 2, 52, 64
4, 55309, Note_on_c, 2, 52, 0
4, 55324, Note_on_c, 2, 50, 64
4, 55376, Note_on_c, 2, 50, 0
4, 55384, Note_on_c, 2, 48, 64
4, 55436, Note_on_c, 2, 48, 0
4, 55444, Note_on_c, 2, 53, 64
4, 55789, Note_on_c, 2, 53, 0
4, 55804, Note_on_c, 2, 51, 64
4, 55856, Note_on_c, 2, 51, 0
4, 55864, Note_on_c, 2, 49, 64
4, 55916, Note_on_c, 2, 49, 0
4, 55924, Note_on_c, 2, 55, 64
4, 56269, Note_on_c, 2, 55, 0
4, 56284, Note_on_c, 2, 53, 64
4, 56336, Note_on_c, 2, 53, 0
4, 56344, Note_on_c, 2, 51, 64
4, 56396, Note_on_c, 2, 51, 0
4, 56404, Note_on_c, 2, 56, 64
4, 56749, Note_on_c, 2, 56, 0
4, 56764, Note_on_c, 2, 55, 64
4, 56816, Note_on_c, 2, 55, 0
4, 56824, Note_on_c, 2, 53, 64
4, 56876, Note_on_c, 2, 53, 0
4, 56884, Note_on_c, 2, 58, 64
4, 56989, Note_on_c, 2, 58, 0
4, 57004, Note_on_c, 2, 60, 64
4, 57109, Note_on_c, 2, 60, 0
4, 57124, Note_on_c, 2, 55, 64
4, 57349, Note_on_c, 2, 55, 0
4, 57364, Note_on_c, 2, 56, 64
4, 57589, Note_on_c, 2, 56, 0
4, 57724, Note_on_c, 2, 58, 64
4, 57829, Note_on_c, 2, 58, 0
4, 57844, Note_on_c, 2, 60, 64
4, 57949, Note_on_c, 2, 60, 0
4, 57964, Note_on_c, 2, 53, 64
4, 58069, Note_on_c, 2, 53, 0
4, 58084, Note_on_c, 2, 55, 64
4, 58309, Note_on_c, 2, 55, 0
4, 58444, Note_on_c, 2, 56, 64
4, 58549, Note_on_c, 2, 56, 0
4, 58564, Note_on_c, 2, 58, 64
4, 58616, Note_on_c, 2, 58, 0
4, 58624, Note_on_c, 2, 55, 64
4, 58676, Note_on_c, 2, 55, 0
4, 58684, Note_on_c, 2, 56, 64
4, 58736, Note_on_c, 2, 56, 0
4, 58744, Note_on_c, 2, 58, 64
4, 58796, Note_on_c, 2, 58, 0
4, 58804, Note_on_c, 2, 60, 64
4, 58856, Note_on_c, 2, 60, 0
4, 58864, Note_on_c, 2, 56, 64
4, 58916, Note_on_c, 2, 56, 0
4, 58924, Note_on_c, 2, 58, 64
4, 58976, Note_on_c, 2, 58, 0
4, 58984, Note_on_c, 2, 60, 64
4, 59036, Note_on_c, 2, 60, 0
4, 59044, Note_on_c, 2, 61, 64
4, 59096, Note_on_c, 2, 61, 0
4, 59104, Note_on_c, 2, 58, 64
4, 59156, Note_on_c, 2, 58, 0
4, 59164, Note_on_c, 2, 60, 64
4, 59216, Note_on_c, 2, 60, 0
4, 59224, Note_on_c, 2, 61, 64
4, 59276, Note_on_c, 2, 61, 0
4, 59284, Note_on_c, 2, 63, 64
4, 59336, Note_on_c, 2, 63, 0
4, 59344, Note_on_c, 2, 60, 64
4, 59396, Note_on_c, 2, 60, 0
4, 59404, Note_on_c, 2, 61, 64
4, 59509, Note_on_c, 2, 61, 0
4, 59644, Note_on_c, 2, 63, 64
4, 59749, Note_on_c, 2, 63, 0
4, 59764, Note_on_c, 2, 56, 64
4, 59869, Note_on_c, 2, 56, 0
4, 59884, Note_on_c, 2, 58, 64
4, 59936, Note_on_c, 2, 58, 0
4, 59944, Note_on_c, 2, 60, 64
4, 59996, Note_on_c, 2, 60, 0
4, 60004, Note_on_c, 2, 58, 64
4, 60109, Note_on_c, 2, 58, 0
4, 60124, Note_on_c, 2, 60, 64
4, 60176, Note_on_c, 2, 60, 0
4, 60184, Note_on_c, 2, 61, 64
4, 60236, Note_on_c, 2, 61, 0
4, 60244, Note_on_c, 2, 63, 64
4, 60589, Note_on_c, 2, 63, 0
4, 60604, Note_on_c, 2, 66, 64
4, 60829, Note_on_c, 2, 66, 0
4, 60844, Note_on_c, 2, 65, 64
4, 60896, Note_on_c, 2, 65, 0
4, 60904, Note_on_c, 2, 63, 64
4, 60956, Note_on_c, 2, 63, 0
4, 60964, Note_on_c, 2, 65, 64
4, 61069, Note_on_c, 2, 65, 0
4, 61084, Note_on_c, 2, 68, 64
4, 61189, Note_on_c, 2, 68, 0
4, 61204, Note_on_c, 2, 62, 64
4, 61309, Note_on_c, 2, 62, 0
4, 61564, Note_on_c, 2, 58, 64
4, 61669, Note_on_c, 2, 58, 0
4, 61684, Note_on_c, 2, 68, 64
4, 61789, Note_on_c, 2, 68, 0
4, 61804, Note_on_c, 2, 66, 64
4, 61856, Note_on_c, 2, 66, 0
4, 61864, Note_on_c, 2, 65, 64
4, 61916, Note_on_c, 2, 65, 0
4, 61924, Note_on_c, 2, 66, 64
4, 61976, Note_on_c, 2, 66, 0
4, 61984, Note_on_c, 2, 65, 64
4, 62036, Note_on_c, 2, 65, 0
4, 62044, Note_on_c, 2, 66, 64
4, 62149, Note_on_c, 2, 66, 0
4, 62164, Note_on_c, 2, 60, 64
4, 62509, Note_on_c, 2, 60, 0
4, 62524, Note_on_c, 2, 58, 64
4, 62644, Note_on_c, 2, 58, 0
4, 62764, Note_on_c, 2, 57, 64
4, 62816, Note_on_c, 2, 57, 0
4, 62824, Note_on_c, 2, 55, 64
4, 62876, Note_on_c, 2, 55, 0
4, 62884, Note_on_c, 2, 57, 64
4, 62989, Note_on_c, 2, 57, 0
4, 63004, Note_on_c, 2, 60, 64
4, 63109, Note_on_c, 2, 60, 0
4, 63124, Note_on_c, 2, 53, 64
4, 63469, Note_on_c, 2, 53, 0
4, 63484, Note_on_c, 2, 51, 64
4, 63536, Note_on_c, 2, 51, 0
4, 63544, Note_on_c, 2, 49, 64
4, 63596, Note_on_c, 2, 49, 0
4, 63604, Note_on_c, 2, 51, 64
4, 63709, Note_on_c, 2, 51, 0
4, 63724, Note_on_c, 2, 63, 64
4, 63949, Note_on_c, 2, 63, 0
4, 63964, Note_on_c, 2, 61, 64
4, 64189, Note_on_c, 2, 61, 0
4, 64204, Note_on_c, 2, 60, 64
4, 64429, Note_on_c, 2, 60, 0
4, 64444, Note_on_c, 2, 59, 64
4, 64549, Note_on_c, 2, 59, 0
4, 64564, Note_on_c, 2, 58, 64
4, 64669, Note_on_c, 2, 58, 0
4, 64684, Note_on_c, 2, 57, 64
4, 64789, Note_on_c, 2, 57, 0
4, 64804, Note_on_c, 2, 58, 64
4, 65629, Note_on_c, 2, 58, 0
4, 65644, Note_on_c, 2, 57, 64
4, 65749, Note_on_c, 2, 57, 0
4, 65764, Note_on_c, 2, 58, 64
4, 65989, Note_on_c, 2, 58, 0
4, 66004, Note_on_c, 2, 56, 64
4, 66469, Note_on_c, 2, 56, 0
4, 66484, Note_on_c, 2, 55, 64
4, 66709, Note_on_c, 2, 55, 0
4, 66724, Note_on_c, 2, 54, 64
4, 66949, Note_on_c, 2, 54, 0
4, 66964, Note_on_c, 2, 53, 64
4, 67496, Note_on_c, 2, 53, 0
4, 67504, Note_on_c, 2, 54, 64
4, 67556, Note_on_c, 2, 54, 0
4, 67564, Note_on_c, 2, 53, 64
4, 67616, Note_on_c, 2, 53, 0
4, 67624, Note_on_c, 2, 52, 64
4, 67676, Note_on_c, 2, 52, 0
4, 67684, Note_on_c, 2, 53, 64
4, 68029, Note_on_c, 2, 53, 0
4, 68044, Note_on_c, 2, 60, 64
4, 68149, Note_on_c, 2, 60, 0
4, 68164, Note_on_c, 2, 65, 64
4, 68389, Note_on_c, 2, 65, 0
4, 68644, Note_on_c, 2, 54, 64
4, 68869, Note_on_c, 2, 54, 0
4, 68884, Note_on_c, 2, 53, 64
4, 69109, Note_on_c, 2, 53, 0
4, 69244, Note_on_c, 2, 51, 64
4, 69349, Note_on_c, 2, 51, 0
4, 69364, Note_on_c, 2, 50, 64
4, 69469, Note_on_c, 2, 50, 0
4, 69484, Note_on_c, 2, 56, 64
4, 69589, Note_on_c, 2, 56, 0
4, 69604, Note_on_c, 2, 54, 64
4, 69829, Note_on_c, 2, 54, 0
4, 69964, Note_on_c, 2, 53, 64
4, 70069, Note_on_c, 2, 53, 0
4, 70084, Note_on_c, 2, 51, 64
4, 70136, Note_on_c, 2, 51, 0
4, 70144, Note_on_c, 2, 54, 64
4, 70196, Note_on_c, 2, 54, 0
4, 70204, Note_on_c, 2, 53, 64
4, 70256, Note_on_c, 2, 53, 0
4, 70264, Note_on_c, 2, 51, 64
4, 70316, Note_on_c, 2, 51, 0
4, 70324, Note_on_c, 2, 49, 64
4, 70376, Note_on_c, 2, 49, 0
4, 70384, Note_on_c, 2, 53, 64
4, 70436, Note_on_c, 2, 53, 0
4, 70444, Note_on_c, 2, 51, 64
4, 70496, Note_on_c, 2, 51, 0
4, 70504, Note_on_c, 2, 49, 64
4, 70556, Note_on_c, 2, 49, 0
4, 70564, Note_on_c, 2, 48, 64
4, 70616, Note_on_c, 2, 48, 0
4, 70624, Note_on_c, 2, 51, 64
4, 70676, Note_on_c, 2, 51, 0
4, 70684, Note_on_c, 2, 49, 64
4, 70736, Note_on_c, 2, 49, 0
4, 70744, Note_on_c, 2, 48, 64
4, 70796, Note_on_c, 2, 48, 0
4, 70804, Note_on_c, 2, 46, 64
4, 70856, Note_on_c, 2, 46, 0
4, 70864, Note_on_c, 2, 49, 64
4, 70916, Note_on_c, 2, 49, 0
4, 70924, Note_on_c, 2, 48, 64
4, 71029, Note_on_c, 2, 48, 0
4, 71164, Note_on_c, 2, 53, 64
4, 71269, Note_on_c, 2, 53, 0
4, 71284, Note_on_c, 2, 65, 64
4, 71389, Note_on_c, 2, 65, 0
4, 71404, Note_on_c, 2, 63, 64
4, 71509, Note_on_c, 2, 63, 0
4, 71524, Note_on_c, 2, 61, 64
4, 71749, Note_on_c, 2, 61, 0
4, 71764, Note_on_c, 2, 60, 64
4, 71989, Note_on_c, 2, 60, 0
4, 72004, Note_on_c, 2, 62, 64
4, 72709, Note_on_c, 2, 62, 0
4, 72709, End_track
5, 0, Start_track
5, 0, MIDI_port, 0
5, 0, Program_c, 3, 6
5, 7204, Note_on_c, 3, 46, 64
5, 7429, Note_on_c, 3, 46, 0
5, 7444, Note_on_c, 3, 48, 64
5, 7669, Note_on_c, 3, 48, 0
5, 7804, Note_on_c, 3, 49, 64
5, 7909, Note_on_c, 3, 49, 0
5, 7924, Note_on_c, 3, 51, 64
5, 8029, Note_on_c, 3, 51, 0
5, 8044, Note_on_c, 3, 45, 64
5, 8149, Note_on_c, 3, 45, 0
5, 8164, Note_on_c, 3, 46, 64
5, 8389, Note_on_c, 3, 46, 0
5, 8524, Note_on_c, 3, 48, 64
5, 8629, Note_on_c, 3, 48, 0
5, 8644, Note_on_c, 3, 49, 64
5, 8696, Note_on_c, 3, 49, 0
5, 8704, Note_on_c, 3, 46, 64
5, 8756, Note_on_c, 3, 46, 0
5, 8764, Note_on_c, 3, 48, 64
5, 8816, Note_on_c, 3, 48, 0
5, 8824, Note_on_c, 3, 49, 64
5, 8876, Note_on_c, 3, 49, 0
5, 8884, Note_on_c, 3, 51, 64
5, 8936, Note_on_c, 3, 51, 0
5, 8944, Note_on_c, 3, 48, 64
5, 8996, Note_on_c, 3, 48, 0
5, 9004, Note_on_c, 3, 49, 64
5, 9056, Note_on_c, 3, 49, 0
5, 9064, Note_on_c, 3, 51, 64
5, 9116, Note_on_c, 3, 51, 0
5, 9124, Note_on_c, 3, 53, 64
5, 9176, Note_on_c, 3, 53, 0
5, 9184, Note_on_c, 3, 49, 64
5, 9236, Note_on_c, 3, 49, 0
5, 9244, Note_on_c, 3, 51, 64
5, 9296, Note_on_c, 3, 51, 0
5, 9304, Note_on_c, 3, 53, 64
5, 9356, Note_on_c, 3, 53, 0
5, 9364, Note_on_c, 3, 54, 64
5, 9416, Note_on_c, 3, 54, 0
5, 9424, Note_on_c, 3, 51, 64
5, 9476, Note_on_c, 3, 51, 0
5, 9484, Note_on_c, 3, 53, 64
5, 9589, Note_on_c, 3, 53, 0
5, 9724, Note_on_c, 3, 54, 64
5, 9829, Note_on_c, 3, 54, 0
5, 9844, Note_on_c, 3, 48, 64
5, 9949, Note_on_c, 3, 48, 0
5, 9964, Note_on_c, 3, 50, 64
5, 10016, Note_on_c, 3, 50, 0
5, 10024, Note_on_c, 3, 51, 64
5, 10076, Note_on_c, 3, 51, 0
5, 10084, Note_on_c, 3, 50, 64
5, 10189, Note_on_c, 3, 50, 0
5, 10204, Note_on_c, 3, 58, 64
5, 10309, Note_on_c, 3, 58, 0
5, 10444, Note_on_c, 3, 51, 64
5, 10549, Note_on_c, 3, 51, 0
5, 10564, Note_on_c, 3, 46, 64
5, 10669, Note_on_c, 3, 46, 0
5, 10684, Note_on_c, 3, 48, 64
5, 10736, Note_on_c, 3, 48, 0
5, 10744, Note_on_c, 3, 49, 64
5, 10796, Note_on_c, 3, 49, 0
5, 10804, Note_on_c, 3, 48, 64
5, 10909, Note_on_c, 3, 48, 0
5, 10924, Note_on_c, 3, 44, 64
5, 11029, Note_on_c, 3, 44, 0
5, 11044, Note_on_c, 3, 49, 64
5, 11149, Note_on_c, 3, 49, 0
5, 11164, Note_on_c, 3, 48, 64
5, 11216, Note_on_c, 3, 48, 0
5, 11224, Note_on_c, 3, 46, 64
5, 11276, Note_on_c, 3, 46, 0
5, 11284, Note_on_c, 3, 44, 64
5, 11389, Note_on_c, 3, 44, 0
5, 11404, Note_on_c, 3, 43, 64
5, 11509, Note_on_c, 3, 43, 0
5, 11524, Note_on_c, 3, 44, 64
5, 11629, Note_on_c, 3, 44, 0
5, 11644, Note_on_c, 3, 45, 64
5, 11749, Note_on_c, 3, 45, 0
5, 11764, Note_on_c, 3, 46, 64
5, 11869, Note_on_c, 3, 46, 0
5, 11884, Note_on_c, 3, 47, 64
5, 11989, Note_on_c, 3, 47, 0
5, 12004, Note_on_c, 3, 48, 64
5, 12229, Note_on_c, 3, 48, 0
5, 12364, Note_on_c, 3, 48, 64
5, 12469, Note_on_c, 3, 48, 0
5, 12484, Note_on_c, 3, 49, 64
5, 12589, Note_on_c, 3, 49, 0
5, 12604, Note_on_c, 3, 50, 64
5, 12709, Note_on_c, 3, 50, 0
5, 12724, Note_on_c, 3, 51, 64
5, 12829, Note_on_c, 3, 51, 0
5, 12844, Note_on_c, 3, 52, 64
5, 12949, Note_on_c, 3, 52, 0
5, 12964, Note_on_c, 3, 53, 64
5, 13789, Note_on_c, 3, 53, 0
5, 13804, Note_on_c, 3, 52, 64
5, 13856, Note_on_c, 3, 52, 0
5, 13864, Note_on_c, 3, 50, 64
5, 13916, Note_on_c, 3, 50, 0
5, 13924, Note_on_c, 3, 52, 64
5, 14389, Note_on_c, 3, 52, 0
5, 14404, Note_on_c, 3, 53, 64
5, 14456, Note_on_c, 3, 53, 0
5, 14464, Note_on_c, 3, 52, 64
5, 14516, Note_on_c, 3, 52, 0
5, 14524, Note_on_c, 3, 53, 64
5, 14576, Note_on_c, 3, 53, 0
5, 14584, Note_on_c, 3, 55, 64
5, 14636, Note_on_c, 3, 55, 0
5, 14644, Note_on_c, 3, 56, 64
5, 14749, Note_on_c, 3, 56, 0
5, 14884, Note_on_c, 3, 57, 64
5, 14989, Note_on_c, 3, 57, 0
5, 15124, Note_on_c, 3, 58, 64
5, 15229, Note_on_c, 3, 58, 0
5, 15244, Note_on_c, 3, 46, 64
5, 15296, Note_on_c, 3, 46, 0
5, 15304, Note_on_c, 3, 48, 64
5, 15356, Note_on_c, 3, 48, 0
5, 15364, Note_on_c, 3, 49, 64
5, 15469, Note_on_c, 3, 49, 0
5, 15604, Note_on_c, 3, 50, 64
5, 15709, Note_on_c, 3, 50, 0
5, 15844, Note_on_c, 3, 51, 64
5, 15896, Note_on_c, 3, 51, 0
5, 15904, Note_on_c, 3, 50, 64
5, 15956, Note_on_c, 3, 50, 0
5, 15964, Note_on_c, 3, 51, 64
5, 16016, Note_on_c, 3, 51, 0
5, 16024, Note_on_c, 3, 53, 64
5, 16076, Note_on_c, 3, 53, 0
5, 16084, Note_on_c, 3, 54, 64
5, 16189, Note_on_c, 3, 54, 0
5, 16324, Note_on_c, 3, 55, 64
5, 16429, Note_on_c, 3, 55, 0
5, 16564, Note_on_c, 3, 56, 64
5, 16669, Note_on_c, 3, 56, 0
5, 16684, Note_on_c, 3, 44, 64
5, 16736, Note_on_c, 3, 44, 0
5, 16744, Note_on_c, 3, 46, 64
5, 16796, Note_on_c, 3, 46, 0
5, 16804, Note_on_c, 3, 48, 64
5, 16909, Note_on_c, 3, 48, 0
5, 17044, Note_on_c, 3, 44, 64
5, 17149, Note_on_c, 3, 44, 0
5, 17284, Note_on_c, 3, 37, 64
5, 17389, Note_on_c, 3, 37, 0
5, 23284, Note_on_c, 3, 48, 64
5, 23509, Note_on_c, 3, 48, 0
5, 23524, Note_on_c, 3, 49, 64
5, 23749, Note_on_c, 3, 49, 0
5, 23884, Note_on_c, 3, 51, 64
5, 23989, Note_on_c, 3, 51, 0
5, 24004, Note_on_c, 3, 53, 64
5, 24109, Note_on_c, 3, 53, 0
5, 24124, Note_on_c, 3, 46, 64
5, 24229, Note_on_c, 3, 46, 0
5, 24244, Note_on_c, 3, 48, 64
5, 24469, Note_on_c, 3, 48, 0
5, 24604, Note_on_c, 3, 49, 64
5, 24709, Note_on_c, 3, 49, 0
5, 24724, Note_on_c, 3, 51, 64
5, 24776, Note_on_c, 3, 51, 0
5, 24784, Note_on_c, 3, 48, 64
5, 24836, Note_on_c, 3, 48, 0
5, 24844, Note_on_c, 3, 49, 64
5, 24896, Note_on_c, 3, 49, 0
5, 24904, Note_on_c, 3, 51, 64
5, 24956, Note_on_c, 3, 51, 0
5, 24964, Note_on_c, 3, 53, 64
5, 25016, Note_on_c, 3, 53, 0
5, 25024, Note_on_c, 3, 49, 64
5, 25076, Note_on_c, 3, 49, 0
5, 25084, Note_on_c, 3, 51, 64
5, 25136, Note_on_c, 3, 51, 0
5, 25144, Note_on_c, 3, 53, 64
5, 25196, Note_on_c, 3, 53, 0
5, 25204, Note_on_c, 3, 54, 64
5, 25256, Note_on_c, 3, 54, 0
5, 25264, Note_on_c, 3, 51, 64
5, 25316, Note_on_c, 3, 51, 0
5, 25324, Note_on_c, 3, 53, 64
5, 25376, Note_on_c, 3, 53, 0
5, 25384, Note_on_c, 3, 54, 64
5, 25436, Note_on_c, 3, 54, 0
5, 25444, Note_on_c, 3, 56, 64
5, 25496, Note_on_c, 3, 56, 0
5, 25504, Note_on_c, 3, 53, 64
5, 25556, Note_on_c, 3, 53, 0
5, 25564, Note_on_c, 3, 54, 64
5, 25669, Note_on_c, 3, 54, 0
5, 25804, Note_on_c, 3, 56, 64
5, 25909, Note_on_c, 3, 56, 0
5, 25924, Note_on_c, 3, 49, 64
5, 26029, Note_on_c, 3, 49, 0
5, 26044, Note_on_c, 3, 51, 64
5, 26096, Note_on_c, 3, 51, 0
5, 26104, Note_on_c, 3, 53, 64
5, 26156, Note_on_c, 3, 53, 0
5, 26164, Note_on_c, 3, 51, 64
5, 26269, Note_on_c, 3, 51, 0
5, 26284, Note_on_c, 3, 53, 64
5, 26336, Note_on_c, 3, 53, 0
5, 26344, Note_on_c, 3, 54, 64
5, 26396, Note_on_c, 3, 54, 0
5, 26404, Note_on_c, 3, 53, 64
5, 26509, Note_on_c, 3, 53, 0
5, 26524, Note_on_c, 3, 49, 64
5, 26629, Note_on_c, 3, 49, 0
5, 26644, Note_on_c, 3, 54, 64
5, 26749, Note_on_c, 3, 54, 0
5, 26764, Note_on_c, 3, 56, 64
5, 26816, Note_on_c, 3, 56, 0
5, 26824, Note_on_c, 3, 58, 64
5, 26876, Note_on_c, 3, 58, 0
5, 26884, Note_on_c, 3, 56, 64
5, 26989, Note_on_c, 3, 56, 0
5, 27004, Note_on_c, 3, 58, 64
5, 27056, Note_on_c, 3, 58, 0
5, 27064, Note_on_c, 3, 59, 64
5, 27116, Note_on_c, 3, 59, 0
5, 27124, Note_on_c, 3, 58, 64
5, 27229, Note_on_c, 3, 58, 0
5, 27244, Note_on_c, 3, 54, 64
5, 27349, Note_on_c, 3, 54, 0
5, 27364, Note_on_c, 3, 59, 64
5, 27469, Note_on_c, 3, 59, 0
5, 27604, Note_on_c, 3, 59, 64
5, 27709, Note_on_c, 3, 59, 0
5, 27844, Note_on_c, 3, 58, 64
5, 27949, Note_on_c, 3, 58, 0
5, 27964, Note_on_c, 3, 51, 64
5, 28069, Note_on_c, 3, 51, 0
5, 28084, Note_on_c, 3, 56, 64
5, 28189, Note_on_c, 3, 56, 0
5, 28204, Note_on_c, 3, 53, 64
5, 28309, Note_on_c, 3, 53, 0
5, 28324, Note_on_c, 3, 46, 64
5, 28429, Note_on_c, 3, 46, 0
5, 28444, Note_on_c, 3, 51, 64
5, 28549, Note_on_c, 3, 51, 0
5, 28564, Note_on_c, 3, 48, 64
5, 28669, Note_on_c, 3, 48, 0
5, 28684, Note_on_c, 3, 44, 64
5, 28789, Note_on_c, 3, 44, 0
5, 28804, Note_on_c, 3, 49, 64
5, 28909, Note_on_c, 3, 49, 0
5, 28924, Note_on_c, 3, 61, 64
5, 29149, Note_on_c, 3, 61, 0
5, 29164, Note_on_c, 3, 60, 64
5, 29216, Note_on_c, 3, 60, 0
5, 29224, Note_on_c, 3, 58, 64
5, 29276, Note_on_c, 3, 58, 0
5, 29284, Note_on_c, 3, 57, 64
5, 29389, Note_on_c, 3, 57, 0
5, 29404, Note_on_c, 3, 53, 64
5, 29509, Note_on_c, 3, 53, 0
5, 29524, Note_on_c, 3, 58, 64
5, 30109, Note_on_c, 3, 58, 0
5, 30124, Note_on_c, 3, 58, 64
5, 30229, Note_on_c, 3, 58, 0
5, 30244, Note_on_c, 3, 51, 64
5, 30296, Note_on_c, 3, 51, 0
5, 30304, Note_on_c, 3, 49, 64
5, 30356, Note_on_c, 3, 49, 0
5, 30364, Note_on_c, 3, 51, 64
5, 30469, Note_on_c, 3, 51, 0
5, 30484, Note_on_c, 3, 53, 64
5, 30589, Note_on_c, 3, 53, 0
5, 30604, Note_on_c, 3, 41, 64
5, 30709, Note_on_c, 3, 41, 0
5, 30724, Note_on_c, 3, 43, 64
5, 30829, Note_on_c, 3, 43, 0
5, 30844, Note_on_c, 3, 45, 64
5, 30949, Note_on_c, 3, 45, 0
5, 30964, Note_on_c, 3, 46, 64
5, 31069, Note_on_c, 3, 46, 0
5, 31204, Note_on_c, 3, 51, 64
5, 31309, Note_on_c, 3, 51, 0
5, 31444, Note_on_c, 3, 49, 64
5, 31549, Note_on_c, 3, 49, 0
5, 31684, Note_on_c, 3, 48, 64
5, 31789, Note_on_c, 3, 48, 0
5, 31804, Note_on_c, 3, 49, 64
5, 31856, Note_on_c, 3, 49, 0
5, 31864, Note_on_c, 3, 51, 64
5, 31916, Note_on_c, 3, 51, 0
5, 31924, Note_on_c, 3, 53, 64
5, 32149, Note_on_c, 3, 53, 0
5, 32164, Note_on_c, 3, 41, 64
5, 32389, Note_on_c, 3, 41, 0
5, 32404, Note_on_c, 3, 46, 64
5, 32629, Note_on_c, 3, 46, 0
5, 32764, Note_on_c, 3, 46, 64
5, 32869, Note_on_c, 3, 46, 0
5, 32884, Note_on_c, 3, 47, 64
5, 32989, Note_on_c, 3, 47, 0
5, 33004, Note_on_c, 3, 48, 64
5, 33109, Note_on_c, 3, 48, 0
5, 33124, Note_on_c, 3, 50, 64
5, 33176, Note_on_c, 3, 50, 0
5, 33184, Note_on_c, 3, 53, 64
5, 33236, Note_on_c, 3, 53, 0
5, 33244, Note_on_c, 3, 56, 64
5, 33469, Note_on_c, 3, 56, 0
5, 33484, Note_on_c, 3, 55, 64
5, 33589, Note_on_c, 3, 55, 0
5, 33604, Note_on_c, 3, 56, 64
5, 33709, Note_on_c, 3, 56, 0
5, 33724, Note_on_c, 3, 50, 64
5, 33829, Note_on_c, 3, 50, 0
5, 33844, Note_on_c, 3, 51, 64
5, 33949, Note_on_c, 3, 51, 0
5, 34084, Note_on_c, 3, 53, 64
5, 34189, Note_on_c, 3, 53, 0
5, 34324, Note_on_c, 3, 54, 64
5, 34429, Note_on_c, 3, 54, 0
5, 34564, Note_on_c, 3, 56, 64
5, 34669, Note_on_c, 3, 56, 0
5, 34684, Note_on_c, 3, 54, 64
5, 34789, Note_on_c, 3, 54, 0
5, 34804, Note_on_c, 3, 53, 64
5, 34856, Note_on_c, 3, 53, 0
5, 34864, Note_on_c, 3, 54, 64
5, 34916, Note_on_c, 3, 54, 0
5, 34924, Note_on_c, 3, 56, 64
5, 35029, Note_on_c, 3, 56, 0
5, 35044, Note_on_c, 3, 50, 64
5, 35149, Note_on_c, 3, 50, 0
5, 35164, Note_on_c, 3, 46, 64
5, 35269, Note_on_c, 3, 46, 0
5, 35284, Note_on_c, 3, 51, 64
5, 35389, Note_on_c, 3, 51, 0
5, 35404, Note_on_c, 3, 49, 64
5, 35509, Note_on_c, 3, 49, 0
5, 35524, Note_on_c, 3, 48, 64
5, 35576, Note_on_c, 3, 48, 0
5, 35584, Note_on_c, 3, 49, 64
5, 35636, Note_on_c, 3, 49, 0
5, 35644, Note_on_c, 3, 51, 64
5, 35749, Note_on_c, 3, 51, 0
5, 35764, Note_on_c, 3, 45, 64
5, 35816, Note_on_c, 3, 45, 0
5, 35824, Note_on_c, 3, 48, 64
5, 35876, Note_on_c, 3, 48, 0
5, 35884, Note_on_c, 3, 53, 64
5, 35936, Note_on_c, 3, 53, 0
5, 35944, Note_on_c, 3, 51, 64
5, 35996, Note_on_c, 3, 51, 0
5, 36004, Note_on_c, 3, 49, 64
5, 36056, Note_on_c, 3, 49, 0
5, 36064, Note_on_c, 3, 53, 64
5, 36116, Note_on_c, 3, 53, 0
5, 36124, Note_on_c, 3, 58, 64
5, 36176, Note_on_c, 3, 58, 0
5, 36184, Note_on_c, 3, 56, 64
5, 36236, Note_on_c, 3, 56, 0
5, 36244, Note_on_c, 3, 54, 64
5, 36296, Note_on_c, 3, 54, 0
5, 36304, Note_on_c, 3, 53, 64
5, 36356, Note_on_c, 3, 53, 0
5, 36364, Note_on_c, 3, 51, 64
5, 36416, Note_on_c, 3, 51, 0
5, 36424, Note_on_c, 3, 49, 64
5, 36476, Note_on_c, 3, 49, 0
5, 36484, Note_on_c, 3, 48, 64
5, 36536, Note_on_c, 3, 48, 0
5, 36544, Note_on_c, 3, 49, 64
5, 36596, Note_on_c, 3, 49, 0
5, 36604, Note_on_c, 3, 51, 64
5, 36656, Note_on_c, 3, 51, 0
5, 36664, Note_on_c, 3, 48, 64
5, 36716, Note_on_c, 3, 48, 0
5, 36724, Note_on_c, 3, 49, 64
5, 36829, Note_on_c, 3, 49, 0
5, 36844, Note_on_c, 3, 46, 64
5, 36949, Note_on_c, 3, 46, 0
5, 36964, Note_on_c, 3, 48, 64
5, 37429, Note_on_c, 3, 48, 0
5, 37444, Note_on_c, 3, 41, 64
5, 37549, Note_on_c, 3, 41, 0
5, 41044, Note_on_c, 3, 51, 64
5, 41269, Note_on_c, 3, 51, 0
5, 41284, Note_on_c, 3, 49, 64
5, 41509, Note_on_c, 3, 49, 0
5, 41644, Note_on_c, 3, 47, 64
5, 41749, Note_on_c, 3, 47, 0
5, 41764, Note_on_c, 3, 46, 64
5, 41869, Note_on_c, 3, 46, 0
5, 41884, Note_on_c, 3, 52, 64
5, 41989, Note_on_c, 3, 52, 0
5, 42004, Note_on_c, 3, 51, 64
5, 42229, Note_on_c, 3, 51, 0
5, 42364, Note_on_c, 3, 49, 64
5, 42469, Note_on_c, 3, 49, 0
5, 42484, Note_on_c, 3, 47, 64
5, 42536, Note_on_c, 3, 47, 0
5, 42544, Note_on_c, 3, 51, 64
5, 42596, Note_on_c, 3, 51, 0
5, 42604, Note_on_c, 3, 49, 64
5, 42656, Note_on_c, 3, 49, 0
5, 42664, Note_on_c, 3, 47, 64
5, 42716, Note_on_c, 3, 47, 0
5, 42724, Note_on_c, 3, 46, 64
5, 42776, Note_on_c, 3, 46, 0
5, 42784, Note_on_c, 3, 49, 64
5, 42836, Note_on_c, 3, 49, 0
5, 42844, Note_on_c, 3, 47, 64
5, 42896, Note_on_c, 3, 47, 0
5, 42904, Note_on_c, 3, 46, 64
5, 42956, Note_on_c, 3, 46, 0
5, 42964, Note_on_c, 3, 44, 64
5, 43016, Note_on_c, 3, 44, 0
5, 43024, Note_on_c, 3, 47, 64
5, 43076, Note_on_c, 3, 47, 0
5, 43084, Note_on_c, 3, 46, 64
5, 43136, Note_on_c, 3, 46, 0
5, 43144, Note_on_c, 3, 44, 64
5, 43196, Note_on_c, 3, 44, 0
5, 43204, Note_on_c, 3, 43, 64
5, 43256, Note_on_c, 3, 43, 0
5, 43264, Note_on_c, 3, 46, 64
5, 43316, Note_on_c, 3, 46, 0
5, 43324, Note_on_c, 3, 44, 64
5, 43429, Note_on_c, 3, 44, 0
5, 43564, Note_on_c, 3, 43, 64
5, 43669, Note_on_c, 3, 43, 0
5, 43684, Note_on_c, 3, 49, 64
5, 43789, Note_on_c, 3, 49, 0
5, 43804, Note_on_c, 3, 47, 64
5, 43856, Note_on_c, 3, 47, 0
5, 43864, Note_on_c, 3, 46, 64
5, 43916, Note_on_c, 3, 46, 0
5, 43924, Note_on_c, 3, 47, 64
5, 44029, Note_on_c, 3, 47, 0
5, 44044, Note_on_c, 3, 59, 64
5, 44096, Note_on_c, 3, 59, 0
5, 44104, Note_on_c, 3, 58, 64
5, 44156, Note_on_c, 3, 58, 0
5, 44164, Note_on_c, 3, 59, 64
5, 44269, Note_on_c, 3, 59, 0
5, 44284, Note_on_c, 3, 63, 64
5, 44389, Note_on_c, 3, 63, 0
5, 44404, Note_on_c, 3, 60, 64
5, 44509, Note_on_c, 3, 60, 0
5, 44524, Note_on_c, 3, 56, 64
5, 44629, Note_on_c, 3, 56, 0
5, 44644, Note_on_c, 3, 61, 64
5, 44749, Note_on_c, 3, 61, 0
5, 44764, Note_on_c, 3, 56, 64
5, 44869, Note_on_c, 3, 56, 0
5, 44884, Note_on_c, 3, 53, 64
5, 44989, Note_on_c, 3, 53, 0
5, 45004, Note_on_c, 3, 49, 64
5, 45109, Note_on_c, 3, 49, 0
5, 45124, Note_on_c, 3, 53, 64
5, 45229, Note_on_c, 3, 53, 0
5, 45244, Note_on_c, 3, 56, 64
5, 45349, Note_on_c, 3, 56, 0
5, 45364, Note_on_c, 3, 50, 64
5, 45469, Note_on_c, 3, 50, 0
5, 45484, Note_on_c, 3, 62, 64
5, 45536, Note_on_c, 3, 62, 0
5, 45544, Note_on_c, 3, 60, 64
5, 45596, Note_on_c, 3, 60, 0
5, 45604, Note_on_c, 3, 62, 64
5, 45709, Note_on_c, 3, 62, 0
5, 45724, Note_on_c, 3, 65, 64
5, 45829, Note_on_c, 3, 65, 0
5, 45844, Note_on_c, 3, 62, 64
5, 45949, Note_on_c, 3, 62, 0
5, 45964, Note_on_c, 3, 58, 64
5, 46069, Note_on_c, 3, 58, 0
5, 46084, Note_on_c, 3, 63, 64
5, 46189, Note_on_c, 3, 63, 0
5, 46204, Note_on_c, 3, 51, 64
5, 46309, Note_on_c, 3, 51, 0
5, 46324, Note_on_c, 3, 54, 64
5, 46429, Note_on_c, 3, 54, 0
5, 46444, Note_on_c, 3, 58, 64
5, 46549, Note_on_c, 3, 58, 0
5, 46564, Note_on_c, 3, 51, 64
5, 46669, Note_on_c, 3, 51, 0
5, 46684, Note_on_c, 3, 54, 64
5, 46789, Note_on_c, 3, 54, 0
5, 46804, Note_on_c, 3, 45, 64
5, 46909, Note_on_c, 3, 45, 0
5, 46924, Note_on_c, 3, 57, 64
5, 47096, Note_on_c, 3, 57, 0
5, 47104, Note_on_c, 3, 58, 64
5, 47156, Note_on_c, 3, 58, 0
5, 47164, Note_on_c, 3, 57, 64
5, 47216, Note_on_c, 3, 57, 0
5, 47224, Note_on_c, 3, 55, 64
5, 47276, Note_on_c, 3, 55, 0
5, 47284, Note_on_c, 3, 57, 64
5, 47389, Note_on_c, 3, 57, 0
5, 47404, Note_on_c, 3, 53, 64
5, 47509, Note_on_c, 3, 53, 0
5, 47524, Note_on_c, 3, 58, 64
5, 47816, Note_on_c, 3, 58, 0
5, 47824, Note_on_c, 3, 60, 64
5, 47876, Note_on_c, 3, 60, 0
5, 47884, Note_on_c, 3, 58, 64
5, 47936, Note_on_c, 3, 58, 0
5, 47944, Note_on_c, 3, 57, 64
5, 47996, Note_on_c, 3, 57, 0
5, 48004, Note_on_c, 3, 58, 64
5, 48296, Note_on_c, 3, 58, 0
5, 48304, Note_on_c, 3, 60, 64
5, 48356, Note_on_c, 3, 60, 0
5, 48364, Note_on_c, 3, 58, 64
5, 48416, Note_on_c, 3, 58, 0
5, 48424, Note_on_c, 3, 57, 64
5, 48476, Note_on_c, 3, 57, 0
5, 48484, Note_on_c, 3, 58, 64
5, 48776, Note_on_c, 3, 58, 0
5, 48784, Note_on_c, 3, 60, 64
5, 48836, Note_on_c, 3, 60, 0
5, 48844, Note_on_c, 3, 58, 64
5, 48896, Note_on_c, 3, 58, 0
5, 48904, Note_on_c, 3, 57, 64
5, 48956, Note_on_c, 3, 57, 0
5, 48964, Note_on_c, 3, 58, 64
5, 49189, Note_on_c, 3, 58, 0
5, 49324, Note_on_c, 3, 53, 64
5, 49429, Note_on_c, 3, 53, 0
5, 49444, Note_on_c, 3, 54, 64
5, 49789, Note_on_c, 3, 54, 0
5, 49804, Note_on_c, 3, 53, 64
5, 49856, Note_on_c, 3, 53, 0
5, 49864, Note_on_c, 3, 51, 64
5, 49916, Note_on_c, 3, 51, 0
5, 49924, Note_on_c, 3, 53, 64
5, 50509, Note_on_c, 3, 53, 0
5, 50524, Note_on_c, 3, 53, 64
5, 50629, Note_on_c, 3, 53, 0
5, 50644, Note_on_c, 3, 54, 64
5, 50749, Note_on_c, 3, 54, 0
5, 50764, Note_on_c, 3, 55, 64
5, 50869, Note_on_c, 3, 55, 0
5, 50884, Note_on_c, 3, 56, 64
5, 50989, Note_on_c, 3, 56, 0
5, 51004, Note_on_c, 3, 57, 64
5, 51109, Note_on_c, 3, 57, 0
5, 51124, Note_on_c, 3, 58, 64
5, 51229, Note_on_c, 3, 58, 0
5, 51244, Note_on_c, 3, 46, 64
5, 51296, Note_on_c, 3, 46, 0
5, 51304, Note_on_c, 3, 48, 64
5, 51356, Note_on_c, 3, 48, 0
5, 51364, Note_on_c, 3, 49, 64
5, 51469, Note_on_c, 3, 49, 0
5, 51484, Note_on_c, 3, 50, 64
5, 51589, Note_on_c, 3, 50, 0
5, 51604, Note_on_c, 3, 51, 64
5, 51709, Note_on_c, 3, 51, 0
5, 51724, Note_on_c, 3, 52, 64
5, 51829, Note_on_c, 3, 52, 0
5, 51844, Note_on_c, 3, 53, 64
5, 51949, Note_on_c, 3, 53, 0
5, 51964, Note_on_c, 3, 51, 64
5, 52069, Note_on_c, 3, 51, 0
5, 52084, Note_on_c, 3, 49, 64
5, 52309, Note_on_c, 3, 49, 0
5, 52324, Note_on_c, 3, 48, 64
5, 52549, Note_on_c, 3, 48, 0
5, 52684, Note_on_c, 3, 46, 64
5, 52789, Note_on_c, 3, 46, 0
5, 52804, Note_on_c, 3, 45, 64
5, 52909, Note_on_c, 3, 45, 0
5, 52924, Note_on_c, 3, 51, 64
5, 53029, Note_on_c, 3, 51, 0
5, 53044, Note_on_c, 3, 49, 64
5, 53269, Note_on_c, 3, 49, 0
5, 53404, Note_on_c, 3, 48, 64
5, 53509, Note_on_c, 3, 48, 0
5, 53524, Note_on_c, 3, 46, 64
5, 53576, Note_on_c, 3, 46, 0
5, 53584, Note_on_c, 3, 49, 64
5, 53636, Note_on_c, 3, 49, 0
5, 53644, Note_on_c, 3, 48, 64
5, 53696, Note_on_c, 3, 48, 0
5, 53704, Note_on_c, 3, 46, 64
5, 53756, Note_on_c, 3, 46, 0
5, 53764, Note_on_c, 3, 44, 64
5, 53816, Note_on_c, 3, 44, 0
5, 53824, Note_on_c, 3, 48, 64
5, 53876, Note_on_c, 3, 48, 0
5, 53884, Note_on_c, 3, 46, 64
5, 53936, Note_on_c, 3, 46, 0
5, 53944, Note_on_c, 3, 44, 64
5, 53996, Note_on_c, 3, 44, 0
5, 54004, Note_on_c, 3, 43, 64
5, 54056, Note_on_c, 3, 43, 0
5, 54064, Note_on_c, 3, 46, 64
5, 54116, Note_on_c, 3, 46, 0
5, 54124, Note_on_c, 3, 44, 64
5, 54176, Note_on_c, 3, 44, 0
5, 54184, Note_on_c, 3, 43, 64
5, 54236, Note_on_c, 3, 43, 0
5, 54244, Note_on_c, 3, 41, 64
5, 54296, Note_on_c, 3, 41, 0
5, 54304, Note_on_c, 3, 44, 64
5, 54356, Note_on_c, 3, 44, 0
5, 54364, Note_on_c, 3, 43, 64
5, 54469, Note_on_c, 3, 43, 0
5, 54604, Note_on_c, 3, 41, 64
5, 54709, Note_on_c, 3, 41, 0
5, 54724, Note_on_c, 3, 48, 64
5, 54829, Note_on_c, 3, 48, 0
5, 54844, Note_on_c, 3, 46, 64
5, 54896, Note_on_c, 3, 46, 0
5, 54904, Note_on_c, 3, 44, 64
5, 54956, Note_on_c, 3, 44, 0
5, 54964, Note_on_c, 3, 46, 64
5, 55069, Note_on_c, 3, 46, 0
5, 55084, Note_on_c, 3, 43, 64
5, 55189, Note_on_c, 3, 43, 0
5, 55204, Note_on_c, 3, 44, 64
5, 55549, Note_on_c, 3, 44, 0
5, 55564, Note_on_c, 3, 43, 64
5, 55616, Note_on_c, 3, 43, 0
5, 55624, Note_on_c, 3, 41, 64
5, 55676, Note_on_c, 3, 41, 0
5, 55684, Note_on_c, 3, 46, 64
5, 56029, Note_on_c, 3, 46, 0
5, 56044, Note_on_c, 3, 44, 64
5, 56096, Note_on_c, 3, 44, 0
5, 56104, Note_on_c, 3, 43, 64
5, 56156, Note_on_c, 3, 43, 0
5, 56164, Note_on_c, 3, 48, 64
5, 56509, Note_on_c, 3, 48, 0
5, 56524, Note_on_c, 3, 46, 64
5, 56576, Note_on_c, 3, 46, 0
5, 56584, Note_on_c, 3, 44, 64
5, 56636, Note_on_c, 3, 44, 0
5, 56644, Note_on_c, 3, 49, 64
5, 56884, Note_on_c, 3, 49, 0
5, 57004, Note_on_c, 3, 48, 64
5, 57109, Note_on_c, 3, 48, 0
5, 57124, Note_on_c, 3, 46, 64
5, 57229, Note_on_c, 3, 46, 0
5, 57244, Note_on_c, 3, 51, 64
5, 57469, Note_on_c, 3, 51, 0
5, 57484, Note_on_c, 3, 50, 64
5, 57589, Note_on_c, 3, 50, 0
5, 57604, Note_on_c, 3, 51, 64
5, 57709, Note_on_c, 3, 51, 0
5, 57724, Note_on_c, 3, 49, 64
5, 57829, Note_on_c, 3, 49, 0
5, 57844, Note_on_c, 3, 48, 64
5, 57896, Note_on_c, 3, 48, 0
5, 57904, Note_on_c, 3, 51, 64
5, 57956, Note_on_c, 3, 51, 0
5, 57964, Note_on_c, 3, 49, 64
5, 58016, Note_on_c, 3, 49, 0
5, 58024, Note_on_c, 3, 48, 64
5, 58076, Note_on_c, 3, 48, 0
5, 58084, Note_on_c, 3, 46, 64
5, 58136, Note_on_c, 3, 46, 0
5, 58144, Note_on_c, 3, 49, 64
5, 58196, Note_on_c, 3, 49, 0
5, 58204, Note_on_c, 3, 48, 64
5, 58256, Note_on_c, 3, 48, 0
5, 58264, Note_on_c, 3, 46, 64
5, 58316, Note_on_c, 3, 46, 0
5, 58324, Note_on_c, 3, 44, 64
5, 58429, Note_on_c, 3, 44, 0
5, 58804, Note_on_c, 3, 56, 64
5, 59149, Note_on_c, 3, 56, 0
5, 59164, Note_on_c, 3, 56, 64
5, 59269, Note_on_c, 3, 56, 0
5, 59284, Note_on_c, 3, 55, 64
5, 59336, Note_on_c, 3, 55, 0
5, 59344, Note_on_c, 3, 56, 64
5, 59396, Note_on_c, 3, 56, 0
5, 59404, Note_on_c, 3, 58, 64
5, 59509, Note_on_c, 3, 58, 0
5, 59524, Note_on_c, 3, 51, 64
5, 59629, Note_on_c, 3, 51, 0
5, 59644, Note_on_c, 3, 54, 64
5, 59869, Note_on_c, 3, 54, 0
5, 59884, Note_on_c, 3, 53, 64
5, 60109, Note_on_c, 3, 53, 0
5, 60124, Note_on_c, 3, 51, 64
5, 60229, Note_on_c, 3, 51, 0
5, 60244, Note_on_c, 3, 46, 64
5, 60349, Note_on_c, 3, 46, 0
5, 60364, Note_on_c, 3, 48, 64
5, 60416, Note_on_c, 3, 48, 0
5, 60424, Note_on_c, 3, 49, 64
5, 60476, Note_on_c, 3, 49, 0
5, 60484, Note_on_c, 3, 48, 64
5, 60589, Note_on_c, 3, 48, 0
5, 60604, Note_on_c, 3, 44, 64
5, 60709, Note_on_c, 3, 44, 0
5, 60724, Note_on_c, 3, 46, 64
5, 60829, Note_on_c, 3, 46, 0
5, 60844, Note_on_c, 3, 48, 64
5, 60949, Note_on_c, 3, 48, 0
5, 60964, Note_on_c, 3, 49, 64
5, 61069, Note_on_c, 3, 49, 0
5, 61084, Note_on_c, 3, 47, 64
5, 61189, Note_on_c, 3, 47, 0
5, 61204, Note_on_c, 3, 46, 64
5, 61309, Note_on_c, 3, 46, 0
5, 61324, Note_on_c, 3, 44, 64
5, 61376, Note_on_c, 3, 44, 0
5, 61384, Note_on_c, 3, 43, 64
5, 61436, Note_on_c, 3, 43, 0
5, 61444, Note_on_c, 3, 44, 64
5, 61549, Note_on_c, 3, 44, 0
5, 61564, Note_on_c, 3, 46, 64
5, 61669, Note_on_c, 3, 46, 0
5, 61684, Note_on_c, 3, 48, 64
5, 61789, Note_on_c, 3, 48, 0
5, 61804, Note_on_c, 3, 50, 64
5, 61909, Note_on_c, 3, 50, 0
5, 61924, Note_on_c, 3, 51, 64
5, 61976, Note_on_c, 3, 51, 0
5, 61984, Note_on_c, 3, 50, 64
5, 62036, Note_on_c, 3, 50, 0
5, 62044, Note_on_c, 3, 51, 64
5, 62096, Note_on_c, 3, 51, 0
5, 62104, Note_on_c, 3, 53, 64
5, 62156, Note_on_c, 3, 53, 0
5, 62164, Note_on_c, 3, 54, 64
5, 62269, Note_on_c, 3, 54, 0
5, 62284, Note_on_c, 3, 53, 64
5, 62389, Note_on_c, 3, 53, 0
5, 62404, Note_on_c, 3, 51, 64
5, 62509, Note_on_c, 3, 51, 0
5, 62524, Note_on_c, 3, 49, 64
5, 62629, Note_on_c, 3, 49, 0
5, 62644, Note_on_c, 3, 48, 64
5, 62749, Note_on_c, 3, 48, 0
5, 62764, Note_on_c, 3, 49, 64
5, 62869, Note_on_c, 3, 49, 0
5, 62884, Note_on_c, 3, 48, 64
5, 62989, Note_on_c, 3, 48, 0
5, 63004, Note_on_c, 3, 46, 64
5, 63109, Note_on_c, 3, 46, 0
5, 63124, Note_on_c, 3, 45, 64
5, 63229, Note_on_c, 3, 45, 0
5, 63244, Note_on_c, 3, 41, 64
5, 63349, Note_on_c, 3, 41, 0
5, 63364, Note_on_c, 3, 46, 64
5, 63589, Note_on_c, 3, 46, 0
5, 63604, Note_on_c, 3, 48, 64
5, 63829, Note_on_c, 3, 48, 0
5, 63964, Note_on_c, 3, 49, 64
5, 64069, Note_on_c, 3, 49, 0
5, 64084, Note_on_c, 3, 51, 64
5, 64189, Note_on_c, 3, 51, 0
5, 64204, Note_on_c, 3, 45, 64
5, 64309, Note_on_c, 3, 45, 0
5, 64324, Note_on_c, 3, 46, 64
5, 64549, Note_on_c, 3, 46, 0
5, 64684, Note_on_c, 3, 48, 64
5, 64789, Note_on_c, 3, 48, 0
5, 64804, Note_on_c, 3, 49, 64
5, 64856, Note_on_c, 3, 49, 0
5, 64864, Note_on_c, 3, 46, 64
5, 64916, Note_on_c, 3, 46, 0
5, 64924, Note_on_c, 3, 48, 64
5, 64976, Note_on_c, 3, 48, 0
5, 64984, Note_on_c, 3, 49, 64
5, 65036, Note_on_c, 3, 49, 0
5, 65044, Note_on_c, 3, 51, 64
5, 65096, Note_on_c, 3, 51, 0
5, 65104, Note_on_c, 3, 48, 64
5, 65156, Note_on_c, 3, 48, 0
5, 65164, Note_on_c, 3, 49, 64
5, 65216, Note_on_c, 3, 49, 0
5, 65224, Note_on_c, 3, 51, 64
5, 65276, Note_on_c, 3, 51, 0
5, 65284, Note_on_c, 3, 53, 64
5, 65336, Note_on_c, 3, 53, 0
5, 65344, Note_on_c, 3, 49, 64
5, 65396, Note_on_c, 3, 49, 0
5, 65404, Note_on_c, 3, 51, 64
5, 65456, Note_on_c, 3, 51, 0
5, 65464, Note_on_c, 3, 53, 64
5, 65516, Note_on_c, 3, 53, 0
5, 65524, Note_on_c, 3, 54, 64
5, 65576, Note_on_c, 3, 54, 0
5, 65584, Note_on_c, 3, 51, 64
5, 65636, Note_on_c, 3, 51, 0
5, 65644, Note_on_c, 3, 53, 64
5, 65749, Note_on_c, 3, 53, 0
5, 65884, Note_on_c, 3, 54, 64
5, 65989, Note_on_c, 3, 54, 0
5, 66004, Note_on_c, 3, 48, 64
5, 66109, Note_on_c, 3, 48, 0
5, 66124, Note_on_c, 3, 50, 64
5, 66176, Note_on_c, 3, 50, 0
5, 66184, Note_on_c, 3, 51, 64
5, 66236, Note_on_c, 3, 51, 0
5, 66244, Note_on_c, 3, 50, 64
5, 66349, Note_on_c, 3, 50, 0
5, 66364, Note_on_c, 3, 46, 64
5, 66469, Note_on_c, 3, 46, 0
5, 66484, Note_on_c, 3, 51, 64
5, 66589, Note_on_c, 3, 51, 0
5, 66604, Note_on_c, 3, 49, 64
5, 66709, Note_on_c, 3, 49, 0
5, 66724, Note_on_c, 3, 48, 64
5, 66829, Note_on_c, 3, 48, 0
5, 66844, Note_on_c, 3, 46, 64
5, 66949, Note_on_c, 3, 46, 0
5, 66964, Note_on_c, 3, 45, 64
5, 67069, Note_on_c, 3, 45, 0
5, 67084, Note_on_c, 3, 41, 64
5, 67189, Note_on_c, 3, 41, 0
5, 67204, Note_on_c, 3, 46, 64
5, 67309, Note_on_c, 3, 46, 0
5, 67324, Note_on_c, 3, 48, 64
5, 67429, Note_on_c, 3, 48, 0
5, 67444, Note_on_c, 3, 49, 64
5, 67549, Note_on_c, 3, 49, 0
5, 67564, Note_on_c, 3, 46, 64
5, 67669, Note_on_c, 3, 46, 0
5, 67684, Note_on_c, 3, 53, 64
5, 67789, Note_on_c, 3, 53, 0
5, 67804, Note_on_c, 3, 41, 64
5, 67909, Note_on_c, 3, 41, 0
5, 67924, Note_on_c, 3, 53, 64
5, 68216, Note_on_c, 3, 53, 0
5, 68224, Note_on_c, 3, 54, 64
5, 68276, Note_on_c, 3, 54, 0
5, 68284, Note_on_c, 3, 51, 64
5, 68336, Note_on_c, 3, 51, 0
5, 68344, Note_on_c, 3, 53, 64
5, 68396, Note_on_c, 3, 53, 0
5, 68404, Note_on_c, 3, 54, 64
5, 68456, Note_on_c, 3, 54, 0
5, 68464, Note_on_c, 3, 56, 64
5, 68516, Note_on_c, 3, 56, 0
5, 68524, Note_on_c, 3, 54, 64
5, 68576, Note_on_c, 3, 54, 0
5, 68584, Note_on_c, 3, 53, 64
5, 68636, Note_on_c, 3, 53, 0
5, 68644, Note_on_c, 3, 51, 64
5, 68869, Note_on_c, 3, 51, 0
5, 68884, Note_on_c, 3, 49, 64
5, 69109, Note_on_c, 3, 49, 0
5, 69244, Note_on_c, 3, 48, 64
5, 69349, Note_on_c, 3, 48, 0
5, 69364, Note_on_c, 3, 46, 64
5, 69469, Note_on_c, 3, 46, 0
5, 69484, Note_on_c, 3, 53, 64
5, 69589, Note_on_c, 3, 53, 0
5, 69604, Note_on_c, 3, 51, 64
5, 69829, Note_on_c, 3, 51, 0
5, 69964, Note_on_c, 3, 49, 64
5, 70069, Note_on_c, 3, 49, 0
5, 70084, Note_on_c, 3, 48, 64
5, 70136, Note_on_c, 3, 48, 0
5, 70144, Note_on_c, 3, 51, 64
5, 70196, Note_on_c, 3, 51, 0
5, 70204, Note_on_c, 3, 49, 64
5, 70256, Note_on_c, 3, 49, 0
5, 70264, Note_on_c, 3, 48, 64
5, 70316, Note_on_c, 3, 48, 0
5, 70324, Note_on_c, 3, 46, 64
5, 70376, Note_on_c, 3, 46, 0
5, 70384, Note_on_c, 3, 49, 64
5, 70436, Note_on_c, 3, 49, 0
5, 70444, Note_on_c, 3, 48, 64
5, 70496, Note_on_c, 3, 48, 0
5, 70504, Note_on_c, 3, 46, 64
5, 70556, Note_on_c, 3, 46, 0
5, 70564, Note_on_c, 3, 45, 64
5, 70616, Note_on_c, 3, 45, 0
5, 70624, Note_on_c, 3, 48, 64
5, 70676, Note_on_c, 3, 48, 0
5, 70684, Note_on_c, 3, 46, 64
5, 70736, Note_on_c, 3, 46, 0
5, 70744, Note_on_c, 3, 45, 64
5, 70796, Note_on_c, 3, 45, 0
5, 70804, Note_on_c, 3, 43, 64
5, 70856, Note_on_c, 3, 43, 0
5, 70864, Note_on_c, 3, 46, 64
5, 70916, Note_on_c, 3, 46, 0
5, 70924, Note_on_c, 3, 45, 64
5, 71029, Note_on_c, 3, 45, 0
5, 71164, Note_on_c, 3, 41, 64
5, 71269, Note_on_c, 3, 41, 0
5, 71284, Note_on_c, 3, 46, 64
5, 71389, Note_on_c, 3, 46, 0
5, 71404, Note_on_c, 3, 51, 64
5, 71509, Note_on_c, 3, 51, 0
5, 71524, Note_on_c, 3, 53, 64
5, 71749, Note_on_c, 3, 53, 0
5, 71764, Note_on_c, 3, 41, 64
5, 71989, Note_on_c, 3, 41, 0
5, 72004, Note_on_c, 3, 46, 64
5, 72709, Note_on_c, 3, 46, 0
5, 72709, End_track
0, 0, End_of_file
