0, 0, Header, 1, 4, 120
1, 0, Start_track
1, 0, Time_signature, 2, 1, 48, 8
1, 0, Key_signature, -5, "major"
1, 0, Tempo, 476190
1, 0, Marker_t, "Sequenced by Yo Tomita for WTC II project"
1, 38940, Tempo, 508044
1, 38998, Tempo, 517688
1, 39052, Tempo, 526316
1, 39104, Tempo, 537153
1, 39156, Tempo, 549451
1, 39218, Tempo, 561272
1, 39292, Tempo, 575264
1, 39348, Tempo, 587659
1, 39410, Tempo, 633580
1, 39486, Tempo, 692042
1, 39566, Tempo, 719424
1, 39566, End_track
2, 0, Start_track
2, 0, MIDI_port, 0
2, 0, Title_t, "BWV 891/1"
2, 0, Program_c, 0, 6
2, 1207, Note_on_c, 0, 82, 64
2, 1259, Note_on_c, 0, 82, 0
2, 1267, Note_on_c, 0, 80, 64
2, 1319, Note_on_c, 0, 80, 0
2, 1327, Note_on_c, 0, 78, 64
2, 1379, Note_on_c, 0, 78, 0
2, 1387, Note_on_c, 0, 77, 64
2, 1439, Note_on_c, 0, 77, 0
2, 1447, Note_on_c, 0, 78, 64
2, 1499, Note_on_c, 0, 78, 0
2, 1507, Note_on_c, 0, 77, 64
2, 1559, Note_on_c, 0, 77, 0
2, 1567, Note_on_c, 0, 75, 64
2, 1619, Note_on_c, 0, 75, 0
2, 1627, Note_on_c, 0, 73, 64
2, 1679, Note_on_c, 0, 73, 0
2, 1687, Note_on_c, 0, 72, 64
2, 1739, Note_on_c, 0, 72, 0
2, 1747, Note_on_c, 0, 77, 64
2, 1799, Note_on_c, 0, 77, 0
2, 1807, Note_on_c, 0, 75, 64
2, 1859, Note_on_c, 0, 75, 0
2, 1867, Note_on_c, 0, 77, 64
2, 1919, Note_on_c, 0, 77, 0
2, 1927, Note_on_c, 0, 73, 64
2, 2032, Note_on_c, 0, 73, 0
2, 2047, Note_on_c, 0, 65, 64
2, 2152, Note_on_c, 0, 65, 0
2, 2227, Note_on_c, 0, 73, 64
2, 2279, Note_on_c, 0, 73, 0
2, 2287, Note_on_c, 0, 72, 64
2, 2339, Note_on_c, 0, 72, 0
2, 2347, Note_on_c, 0, 73, 64
2, 2399, Note_on_c, 0, 73, 0
2, 2407, Note_on_c, 0, 75, 64
2, 2512, Note_on_c, 0, 75, 0
2, 2527, Note_on_c, 0, 70, 64
2, 2632, Note_on_c, 0, 70, 0
2, 2647, Note_on_c, 0, 72, 64
2, 2872, Note_on_c, 0, 72, 0
2, 2887, Note_on_c, 0, 73, 64
2, 2992, Note_on_c, 0, 73, 0
2, 3367, Note_on_c, 0, 80, 64
2, 3419, Note_on_c, 0, 80, 0
2, 3427, Note_on_c, 0, 79, 64
2, 3479, Note_on_c, 0, 79, 0
2, 3487, Note_on_c, 0, 77, 64
2, 3539, Note_on_c, 0, 77, 0
2, 3547, Note_on_c, 0, 76, 64
2, 3599, Note_on_c, 0, 76, 0
2, 3607, Note_on_c, 0, 77, 64
2, 3712, Note_on_c, 0, 77, 0
2, 3727, Note_on_c, 0, 72, 64
2, 3832, Note_on_c, 0, 72, 0
2, 3847, Note_on_c, 0, 73, 64
2, 3952, Note_on_c, 0, 73, 0
2, 3967, Note_on_c, 0, 70, 64
2, 4072, Note_on_c, 0, 70, 0
2, 4087, Note_on_c, 0, 67, 64
2, 4192, Note_on_c, 0, 67, 0
2, 4207, Note_on_c, 0, 72, 64
2, 4312, Note_on_c, 0, 72, 0
2, 4327, Note_on_c, 0, 68, 64
2, 4432, Note_on_c, 0, 68, 0
2, 4447, Note_on_c, 0, 65, 64
2, 4552, Note_on_c, 0, 65, 0
2, 4567, Note_on_c, 0, 77, 64
2, 4672, Note_on_c, 0, 77, 0
2, 4687, Note_on_c, 0, 77, 64
2, 4792, Note_on_c, 0, 77, 0
2, 4807, Note_on_c, 0, 77, 64
2, 4912, Note_on_c, 0, 77, 0
2, 4927, Note_on_c, 0, 76, 64
2, 4979, Note_on_c, 0, 76, 0
2, 4987, Note_on_c, 0, 77, 64
2, 5039, Note_on_c, 0, 77, 0
2, 5047, Note_on_c, 0, 79, 64
2, 5152, Note_on_c, 0, 79, 0
2, 5167, Note_on_c, 0, 79, 64
2, 5272, Note_on_c, 0, 79, 0
2, 5287, Note_on_c, 0, 79, 64
2, 5392, Note_on_c, 0, 79, 0
2, 5407, Note_on_c, 0, 77, 64
2, 5459, Note_on_c, 0, 77, 0
2, 5467, Note_on_c, 0, 79, 64
2, 5519, Note_on_c, 0, 79, 0
2, 5527, Note_on_c, 0, 80, 64
2, 5632, Note_on_c, 0, 80, 0
2, 5647, Note_on_c, 0, 80, 64
2, 5752, Note_on_c, 0, 80, 0
2, 5767, Note_on_c, 0, 80, 64
2, 5872, Note_on_c, 0, 80, 0
2, 5887, Note_on_c, 0, 77, 64
2, 5992, Note_on_c, 0, 77, 0
2, 6007, Note_on_c, 0, 79, 64
2, 6112, Note_on_c, 0, 79, 0
2, 6127, Note_on_c, 0, 82, 64
2, 6232, Note_on_c, 0, 82, 0
2, 6247, Note_on_c, 0, 82, 64
2, 6352, Note_on_c, 0, 82, 0
2, 6367, Note_on_c, 0, 76, 64
2, 6472, Note_on_c, 0, 76, 0
2, 6487, Note_on_c, 0, 77, 64
2, 6952, Note_on_c, 0, 77, 0
2, 6967, Note_on_c, 0, 76, 64
2, 7192, Note_on_c, 0, 76, 0
2, 7207, Note_on_c, 0, 77, 64
2, 7312, Note_on_c, 0, 77, 0
2, 7327, Note_on_c, 0, 72, 64
2, 7432, Note_on_c, 0, 72, 0
2, 7447, Note_on_c, 0, 68, 64
2, 7499, Note_on_c, 0, 68, 0
2, 7507, Note_on_c, 0, 75, 64
2, 7559, Note_on_c, 0, 75, 0
2, 7567, Note_on_c, 0, 74, 64
2, 7619, Note_on_c, 0, 74, 0
2, 7627, Note_on_c, 0, 75, 64
2, 7679, Note_on_c, 0, 75, 0
2, 7687, Note_on_c, 0, 77, 64
2, 7792, Note_on_c, 0, 77, 0
2, 7807, Note_on_c, 0, 70, 64
2, 7912, Note_on_c, 0, 70, 0
2, 7927, Note_on_c, 0, 68, 64
2, 8032, Note_on_c, 0, 68, 0
2, 8047, Note_on_c, 0, 77, 64
2, 8272, Note_on_c, 0, 77, 0
2, 8287, Note_on_c, 0, 75, 64
2, 8339, Note_on_c, 0, 75, 0
2, 8347, Note_on_c, 0, 77, 64
2, 8399, Note_on_c, 0, 77, 0
2, 8407, Note_on_c, 0, 78, 64
2, 8512, Note_on_c, 0, 78, 0
2, 8527, Note_on_c, 0, 70, 64
2, 8632, Note_on_c, 0, 70, 0
2, 8647, Note_on_c, 0, 68, 64
2, 8699, Note_on_c, 0, 68, 0
2, 8707, Note_on_c, 0, 70, 64
2, 8759, Note_on_c, 0, 70, 0
2, 8767, Note_on_c, 0, 72, 64
2, 8819, Note_on_c, 0, 72, 0
2, 8827, Note_on_c, 0, 73, 64
2, 8879, Note_on_c, 0, 73, 0
2, 8887, Note_on_c, 0, 75, 64
2, 8939, Note_on_c, 0, 75, 0
2, 8947, Note_on_c, 0, 77, 64
2, 8999, Note_on_c, 0, 77, 0
2, 9007, Note_on_c, 0, 78, 64
2, 9059, Note_on_c, 0, 78, 0
2, 9067, Note_on_c, 0, 75, 64
2, 9119, Note_on_c, 0, 75, 0
2, 9127, Note_on_c, 0, 77, 64
2, 9232, Note_on_c, 0, 77, 0
2, 9247, Note_on_c, 0, 66, 64
2, 9352, Note_on_c, 0, 66, 0
2, 9367, Note_on_c, 0, 65, 64
2, 9472, Note_on_c, 0, 65, 0
2, 9487, Note_on_c, 0, 73, 64
2, 9592, Note_on_c, 0, 73, 0
2, 9607, Note_on_c, 0, 70, 64
2, 9952, Note_on_c, 0, 70, 0
2, 9967, Note_on_c, 0, 75, 64
2, 10019, Note_on_c, 0, 75, 0
2, 10027, Note_on_c, 0, 73, 64
2, 10079, Note_on_c, 0, 73, 0
2, 10087, Note_on_c, 0, 72, 64
2, 10432, Note_on_c, 0, 72, 0
2, 10447, Note_on_c, 0, 70, 64
2, 10619, Note_on_c, 0, 70, 0
2, 10627, Note_on_c, 0, 72, 64
2, 10679, Note_on_c, 0, 72, 0
2, 10687, Note_on_c, 0, 73, 64
2, 10739, Note_on_c, 0, 73, 0
2, 10747, Note_on_c, 0, 75, 64
2, 10799, Note_on_c, 0, 75, 0
2, 10807, Note_on_c, 0, 69, 64
2, 10859, Note_on_c, 0, 69, 0
2, 10867, Note_on_c, 0, 78, 64
2, 10919, Note_on_c, 0, 78, 0
2, 10927, Note_on_c, 0, 77, 64
2, 10979, Note_on_c, 0, 77, 0
2, 10987, Note_on_c, 0, 75, 64
2, 11039, Note_on_c, 0, 75, 0
2, 11047, Note_on_c, 0, 73, 64
2, 11099, Note_on_c, 0, 73, 0
2, 11107, Note_on_c, 0, 77, 64
2, 11159, Note_on_c, 0, 77, 0
2, 11167, Note_on_c, 0, 75, 64
2, 11219, Note_on_c, 0, 75, 0
2, 11227, Note_on_c, 0, 73, 64
2, 11279, Note_on_c, 0, 73, 0
2, 11287, Note_on_c, 0, 72, 64
2, 11339, Note_on_c, 0, 72, 0
2, 11347, Note_on_c, 0, 70, 64
2, 11399, Note_on_c, 0, 70, 0
2, 11407, Note_on_c, 0, 69, 64
2, 11459, Note_on_c, 0, 69, 0
2, 11467, Note_on_c, 0, 72, 64
2, 11519, Note_on_c, 0, 72, 0
2, 11527, Note_on_c, 0, 70, 64
2, 11632, Note_on_c, 0, 70, 0
2, 11647, Note_on_c, 0, 73, 64
2, 11699, Note_on_c, 0, 73, 0
2, 11707, Note_on_c, 0, 72, 64
2, 11759, Note_on_c, 0, 72, 0
2, 11767, Note_on_c, 0, 73, 64
2, 11872, Note_on_c, 0, 73, 0
2, 11887, Note_on_c, 0, 73, 64
2, 11992, Note_on_c, 0, 73, 0
2, 12007, Note_on_c, 0, 73, 64
2, 12112, Note_on_c, 0, 73, 0
2, 12127, Note_on_c, 0, 72, 64
2, 12179, Note_on_c, 0, 72, 0
2, 12187, Note_on_c, 0, 73, 64
2, 12239, Note_on_c, 0, 73, 0
2, 12247, Note_on_c, 0, 75, 64
2, 12352, Note_on_c, 0, 75, 0
2, 12367, Note_on_c, 0, 75, 64
2, 12472, Note_on_c, 0, 75, 0
2, 12487, Note_on_c, 0, 75, 64
2, 12592, Note_on_c, 0, 75, 0
2, 12607, Note_on_c, 0, 73, 64
2, 12659, Note_on_c, 0, 73, 0
2, 12667, Note_on_c, 0, 75, 64
2, 12719, Note_on_c, 0, 75, 0
2, 12727, Note_on_c, 0, 77, 64
2, 12779, Note_on_c, 0, 77, 0
2, 12787, Note_on_c, 0, 80, 64
2, 12839, Note_on_c, 0, 80, 0
2, 12847, Note_on_c, 0, 78, 64
2, 12899, Note_on_c, 0, 78, 0
2, 12907, Note_on_c, 0, 77, 64
2, 12959, Note_on_c, 0, 77, 0
2, 12967, Note_on_c, 0, 75, 64
2, 13019, Note_on_c, 0, 75, 0
2, 13027, Note_on_c, 0, 73, 64
2, 13079, Note_on_c, 0, 73, 0
2, 13087, Note_on_c, 0, 72, 64
2, 13139, Note_on_c, 0, 72, 0
2, 13147, Note_on_c, 0, 75, 64
2, 13199, Note_on_c, 0, 75, 0
2, 13207, Note_on_c, 0, 68, 64
2, 13432, Note_on_c, 0, 68, 0
2, 13447, Note_on_c, 0, 73, 64
2, 13672, Note_on_c, 0, 73, 0
2, 13987, Note_on_c, 0, 70, 64
2, 14039, Note_on_c, 0, 70, 0
2, 14047, Note_on_c, 0, 72, 64
2, 14099, Note_on_c, 0, 72, 0
2, 14107, Note_on_c, 0, 73, 64
2, 14159, Note_on_c, 0, 73, 0
2, 14167, Note_on_c, 0, 75, 64
2, 14219, Note_on_c, 0, 75, 0
2, 14227, Note_on_c, 0, 77, 64
2, 14279, Note_on_c, 0, 77, 0
2, 14287, Note_on_c, 0, 78, 64
2, 14339, Note_on_c, 0, 78, 0
2, 14347, Note_on_c, 0, 75, 64
2, 14399, Note_on_c, 0, 75, 0
2, 14407, Note_on_c, 0, 77, 64
2, 14459, Note_on_c, 0, 77, 0
2, 14467, Note_on_c, 0, 75, 64
2, 14519, Note_on_c, 0, 75, 0
2, 14527, Note_on_c, 0, 73, 64
2, 14579, Note_on_c, 0, 73, 0
2, 14587, Note_on_c, 0, 72, 64
2, 14639, Note_on_c, 0, 72, 0
2, 14647, Note_on_c, 0, 73, 64
2, 14752, Note_on_c, 0, 73, 0
2, 14767, Note_on_c, 0, 68, 64
2, 14872, Note_on_c, 0, 68, 0
2, 14887, Note_on_c, 0, 70, 64
2, 14992, Note_on_c, 0, 70, 0
2, 15007, Note_on_c, 0, 66, 64
2, 15112, Note_on_c, 0, 66, 0
2, 15127, Note_on_c, 0, 63, 64
2, 15232, Note_on_c, 0, 63, 0
2, 15247, Note_on_c, 0, 68, 64
2, 15352, Note_on_c, 0, 68, 0
2, 15367, Note_on_c, 0, 65, 64
2, 15472, Note_on_c, 0, 65, 0
2, 15487, Note_on_c, 0, 61, 64
2, 15592, Note_on_c, 0, 61, 0
2, 15607, Note_on_c, 0, 73, 64
2, 15712, Note_on_c, 0, 73, 0
2, 15727, Note_on_c, 0, 73, 64
2, 15832, Note_on_c, 0, 73, 0
2, 15847, Note_on_c, 0, 73, 64
2, 15952, Note_on_c, 0, 73, 0
2, 15967, Note_on_c, 0, 72, 64
2, 16019, Note_on_c, 0, 72, 0
2, 16027, Note_on_c, 0, 73, 64
2, 16079, Note_on_c, 0, 73, 0
2, 16087, Note_on_c, 0, 75, 64
2, 16192, Note_on_c, 0, 75, 0
2, 16207, Note_on_c, 0, 75, 64
2, 16312, Note_on_c, 0, 75, 0
2, 16327, Note_on_c, 0, 75, 64
2, 16432, Note_on_c, 0, 75, 0
2, 16447, Note_on_c, 0, 73, 64
2, 16499, Note_on_c, 0, 73, 0
2, 16507, Note_on_c, 0, 75, 64
2, 16559, Note_on_c, 0, 75, 0
2, 16567, Note_on_c, 0, 77, 64
2, 16672, Note_on_c, 0, 77, 0
2, 16687, Note_on_c, 0, 77, 64
2, 16792, Note_on_c, 0, 77, 0
2, 16807, Note_on_c, 0, 77, 64
2, 16912, Note_on_c, 0, 77, 0
2, 16927, Note_on_c, 0, 75, 64
2, 16979, Note_on_c, 0, 75, 0
2, 16987, Note_on_c, 0, 77, 64
2, 17039, Note_on_c, 0, 77, 0
2, 17047, Note_on_c, 0, 79, 64
2, 17099, Note_on_c, 0, 79, 0
2, 17107, Note_on_c, 0, 80, 64
2, 17159, Note_on_c, 0, 80, 0
2, 17167, Note_on_c, 0, 82, 64
2, 17219, Note_on_c, 0, 82, 0
2, 17227, Note_on_c, 0, 79, 64
2, 17279, Note_on_c, 0, 79, 0
2, 17287, Note_on_c, 0, 80, 64
2, 18352, Note_on_c, 0, 80, 0
2, 18367, Note_on_c, 0, 79, 64
2, 18419, Note_on_c, 0, 79, 0
2, 18427, Note_on_c, 0, 80, 64
2, 18479, Note_on_c, 0, 80, 0
2, 18487, Note_on_c, 0, 82, 64
2, 18592, Note_on_c, 0, 82, 0
2, 18607, Note_on_c, 0, 73, 64
2, 18832, Note_on_c, 0, 73, 0
2, 18847, Note_on_c, 0, 72, 64
2, 18899, Note_on_c, 0, 72, 0
2, 18907, Note_on_c, 0, 73, 64
2, 18959, Note_on_c, 0, 73, 0
2, 18967, Note_on_c, 0, 75, 64
2, 19072, Note_on_c, 0, 75, 0
2, 19087, Note_on_c, 0, 66, 64
2, 19259, Note_on_c, 0, 66, 0
2, 19267, Note_on_c, 0, 65, 64
2, 19319, Note_on_c, 0, 65, 0
2, 19327, Note_on_c, 0, 67, 64
2, 19379, Note_on_c, 0, 67, 0
2, 19387, Note_on_c, 0, 68, 64
2, 19439, Note_on_c, 0, 68, 0
2, 19447, Note_on_c, 0, 70, 64
2, 19499, Note_on_c, 0, 70, 0
2, 19507, Note_on_c, 0, 72, 64
2, 19559, Note_on_c, 0, 72, 0
2, 19567, Note_on_c, 0, 73, 64
2, 19619, Note_on_c, 0, 73, 0
2, 19627, Note_on_c, 0, 70, 64
2, 19679, Note_on_c, 0, 70, 0
2, 19687, Note_on_c, 0, 72, 64
2, 19912, Note_on_c, 0, 72, 0
2, 20227, Note_on_c, 0, 75, 64
2, 20279, Note_on_c, 0, 75, 0
2, 20287, Note_on_c, 0, 73, 64
2, 20339, Note_on_c, 0, 73, 0
2, 20347, Note_on_c, 0, 72, 64
2, 20399, Note_on_c, 0, 72, 0
2, 20407, Note_on_c, 0, 70, 64
2, 20459, Note_on_c, 0, 70, 0
2, 20467, Note_on_c, 0, 68, 64
2, 20519, Note_on_c, 0, 68, 0
2, 20527, Note_on_c, 0, 67, 64
2, 20579, Note_on_c, 0, 67, 0
2, 20587, Note_on_c, 0, 70, 64
2, 20639, Note_on_c, 0, 70, 0
2, 20647, Note_on_c, 0, 63, 64
2, 20872, Note_on_c, 0, 63, 0
2, 21007, Note_on_c, 0, 66, 64
2, 21112, Note_on_c, 0, 66, 0
2, 21127, Note_on_c, 0, 65, 64
2, 21232, Note_on_c, 0, 65, 0
2, 21247, Note_on_c, 0, 70, 64
2, 21352, Note_on_c, 0, 70, 0
2, 21487, Note_on_c, 0, 68, 64
2, 21592, Note_on_c, 0, 68, 0
2, 21607, Note_on_c, 0, 66, 64
2, 21712, Note_on_c, 0, 66, 0
2, 21727, Note_on_c, 0, 71, 64
2, 21832, Note_on_c, 0, 71, 0
2, 21967, Note_on_c, 0, 70, 64
2, 22072, Note_on_c, 0, 70, 0
2, 22087, Note_on_c, 0, 68, 64
2, 22192, Note_on_c, 0, 68, 0
2, 22207, Note_on_c, 0, 73, 64
2, 22312, Note_on_c, 0, 73, 0
2, 22447, Note_on_c, 0, 71, 64
2, 22552, Note_on_c, 0, 71, 0
2, 22567, Note_on_c, 0, 70, 64
2, 22792, Note_on_c, 0, 70, 0
2, 23647, Note_on_c, 0, 73, 64
2, 23752, Note_on_c, 0, 73, 0
2, 23767, Note_on_c, 0, 78, 64
2, 23872, Note_on_c, 0, 78, 0
2, 23887, Note_on_c, 0, 78, 64
2, 23992, Note_on_c, 0, 78, 0
2, 24007, Note_on_c, 0, 78, 64
2, 24112, Note_on_c, 0, 78, 0
2, 24127, Note_on_c, 0, 77, 64
2, 24179, Note_on_c, 0, 77, 0
2, 24187, Note_on_c, 0, 78, 64
2, 24239, Note_on_c, 0, 78, 0
2, 24247, Note_on_c, 0, 80, 64
2, 24352, Note_on_c, 0, 80, 0
2, 24367, Note_on_c, 0, 80, 64
2, 24472, Note_on_c, 0, 80, 0
2, 24487, Note_on_c, 0, 80, 64
2, 24592, Note_on_c, 0, 80, 0
2, 24607, Note_on_c, 0, 78, 64
2, 24659, Note_on_c, 0, 78, 0
2, 24667, Note_on_c, 0, 77, 64
2, 24719, Note_on_c, 0, 77, 0
2, 24727, Note_on_c, 0, 78, 64
2, 25072, Note_on_c, 0, 78, 0
2, 25087, Note_on_c, 0, 83, 64
2, 25139, Note_on_c, 0, 83, 0
2, 25147, Note_on_c, 0, 82, 64
2, 25199, Note_on_c, 0, 82, 0
2, 25207, Note_on_c, 0, 80, 64
2, 25259, Note_on_c, 0, 80, 0
2, 25267, Note_on_c, 0, 78, 64
2, 25319, Note_on_c, 0, 78, 0
2, 25327, Note_on_c, 0, 77, 64
2, 25379, Note_on_c, 0, 77, 0
2, 25387, Note_on_c, 0, 80, 64
2, 25439, Note_on_c, 0, 80, 0
2, 25447, Note_on_c, 0, 74, 64
2, 25499, Note_on_c, 0, 74, 0
2, 25507, Note_on_c, 0, 72, 64
2, 25559, Note_on_c, 0, 72, 0
2, 25567, Note_on_c, 0, 74, 64
2, 25619, Note_on_c, 0, 74, 0
2, 25627, Note_on_c, 0, 75, 64
2, 25679, Note_on_c, 0, 75, 0
2, 25687, Note_on_c, 0, 77, 64
2, 25739, Note_on_c, 0, 77, 0
2, 25747, Note_on_c, 0, 78, 64
2, 25799, Note_on_c, 0, 78, 0
2, 25807, Note_on_c, 0, 80, 64
2, 25859, Note_on_c, 0, 80, 0
2, 25867, Note_on_c, 0, 77, 64
2, 25919, Note_on_c, 0, 77, 0
2, 25927, Note_on_c, 0, 78, 64
2, 25979, Note_on_c, 0, 78, 0
2, 25987, Note_on_c, 0, 77, 64
2, 26039, Note_on_c, 0, 77, 0
2, 26047, Note_on_c, 0, 75, 64
2, 26099, Note_on_c, 0, 75, 0
2, 26107, Note_on_c, 0, 74, 64
2, 26159, Note_on_c, 0, 74, 0
2, 26167, Note_on_c, 0, 75, 64
2, 26272, Note_on_c, 0, 75, 0
2, 26287, Note_on_c, 0, 70, 64
2, 26392, Note_on_c, 0, 70, 0
2, 26407, Note_on_c, 0, 71, 64
2, 26512, Note_on_c, 0, 71, 0
2, 26527, Note_on_c, 0, 68, 64
2, 26632, Note_on_c, 0, 68, 0
2, 26647, Note_on_c, 0, 65, 64
2, 26752, Note_on_c, 0, 65, 0
2, 26767, Note_on_c, 0, 70, 64
2, 26872, Note_on_c, 0, 70, 0
2, 26887, Note_on_c, 0, 66, 64
2, 26992, Note_on_c, 0, 66, 0
2, 27007, Note_on_c, 0, 63, 64
2, 27112, Note_on_c, 0, 63, 0
2, 27127, Note_on_c, 0, 75, 64
2, 27232, Note_on_c, 0, 75, 0
2, 27247, Note_on_c, 0, 75, 64
2, 27352, Note_on_c, 0, 75, 0
2, 27367, Note_on_c, 0, 75, 64
2, 27472, Note_on_c, 0, 75, 0
2, 27487, Note_on_c, 0, 74, 64
2, 27539, Note_on_c, 0, 74, 0
2, 27547, Note_on_c, 0, 75, 64
2, 27599, Note_on_c, 0, 75, 0
2, 27607, Note_on_c, 0, 77, 64
2, 27712, Note_on_c, 0, 77, 0
2, 27727, Note_on_c, 0, 77, 64
2, 27832, Note_on_c, 0, 77, 0
2, 27847, Note_on_c, 0, 77, 64
2, 27952, Note_on_c, 0, 77, 0
2, 27967, Note_on_c, 0, 75, 64
2, 28019, Note_on_c, 0, 75, 0
2, 28027, Note_on_c, 0, 74, 64
2, 28079, Note_on_c, 0, 74, 0
2, 28087, Note_on_c, 0, 75, 64
2, 28379, Note_on_c, 0, 75, 0
2, 28387, Note_on_c, 0, 73, 64
2, 28439, Note_on_c, 0, 73, 0
2, 28447, Note_on_c, 0, 71, 64
2, 28499, Note_on_c, 0, 71, 0
2, 28507, Note_on_c, 0, 70, 64
2, 28559, Note_on_c, 0, 70, 0
2, 28567, Note_on_c, 0, 71, 64
2, 28619, Note_on_c, 0, 71, 0
2, 28627, Note_on_c, 0, 68, 64
2, 28679, Note_on_c, 0, 68, 0
2, 28687, Note_on_c, 0, 70, 64
2, 28739, Note_on_c, 0, 70, 0
2, 28747, Note_on_c, 0, 71, 64
2, 28859, Note_on_c, 0, 71, 0
2, 28867, Note_on_c, 0, 70, 64
2, 28919, Note_on_c, 0, 70, 0
2, 28927, Note_on_c, 0, 72, 64
2, 28979, Note_on_c, 0, 72, 0
2, 28987, Note_on_c, 0, 74, 64
2, 29039, Note_on_c, 0, 74, 0
2, 29047, Note_on_c, 0, 75, 64
2, 29099, Note_on_c, 0, 75, 0
2, 29107, Note_on_c, 0, 77, 64
2, 29159, Note_on_c, 0, 77, 0
2, 29167, Note_on_c, 0, 78, 64
2, 29219, Note_on_c, 0, 78, 0
2, 29227, Note_on_c, 0, 75, 64
2, 29279, Note_on_c, 0, 75, 0
2, 29287, Note_on_c, 0, 77, 64
2, 29392, Note_on_c, 0, 77, 0
2, 29407, Note_on_c, 0, 65, 64
2, 29512, Note_on_c, 0, 65, 0
2, 29527, Note_on_c, 0, 70, 64
2, 29992, Note_on_c, 0, 70, 0
2, 30007, Note_on_c, 0, 69, 64
2, 30232, Note_on_c, 0, 69, 0
2, 30247, Note_on_c, 0, 70, 64
2, 30299, Note_on_c, 0, 70, 0
2, 30307, Note_on_c, 0, 69, 64
2, 30359, Note_on_c, 0, 69, 0
2, 30367, Note_on_c, 0, 70, 64
2, 30419, Note_on_c, 0, 70, 0
2, 30427, Note_on_c, 0, 72, 64
2, 30479, Note_on_c, 0, 72, 0
2, 30487, Note_on_c, 0, 73, 64
2, 30539, Note_on_c, 0, 73, 0
2, 30547, Note_on_c, 0, 75, 64
2, 30599, Note_on_c, 0, 75, 0
2, 30607, Note_on_c, 0, 77, 64
2, 30659, Note_on_c, 0, 77, 0
2, 30667, Note_on_c, 0, 73, 64
2, 30719, Note_on_c, 0, 73, 0
2, 30727, Note_on_c, 0, 75, 64
2, 30779, Note_on_c, 0, 75, 0
2, 30787, Note_on_c, 0, 73, 64
2, 30839, Note_on_c, 0, 73, 0
2, 30847, Note_on_c, 0, 72, 64
2, 30899, Note_on_c, 0, 72, 0
2, 30907, Note_on_c, 0, 73, 64
2, 30959, Note_on_c, 0, 73, 0
2, 30967, Note_on_c, 0, 75, 64
2, 31019, Note_on_c, 0, 75, 0
2, 31027, Note_on_c, 0, 77, 64
2, 31079, Note_on_c, 0, 77, 0
2, 31087, Note_on_c, 0, 78, 64
2, 31139, Note_on_c, 0, 78, 0
2, 31147, Note_on_c, 0, 75, 64
2, 31199, Note_on_c, 0, 75, 0
2, 31207, Note_on_c, 0, 77, 64
2, 31432, Note_on_c, 0, 77, 0
2, 31567, Note_on_c, 0, 82, 64
2, 31619, Note_on_c, 0, 82, 0
2, 31627, Note_on_c, 0, 77, 64
2, 31679, Note_on_c, 0, 77, 0
2, 31687, Note_on_c, 0, 78, 64
2, 31739, Note_on_c, 0, 78, 0
2, 31747, Note_on_c, 0, 80, 64
2, 31799, Note_on_c, 0, 80, 0
2, 31807, Note_on_c, 0, 78, 64
2, 31859, Note_on_c, 0, 78, 0
2, 31867, Note_on_c, 0, 77, 64
2, 31919, Note_on_c, 0, 77, 0
2, 31927, Note_on_c, 0, 75, 64
2, 31979, Note_on_c, 0, 75, 0
2, 31987, Note_on_c, 0, 73, 64
2, 32039, Note_on_c, 0, 73, 0
2, 32047, Note_on_c, 0, 72, 64
2, 32099, Note_on_c, 0, 72, 0
2, 32107, Note_on_c, 0, 75, 64
2, 32159, Note_on_c, 0, 75, 0
2, 32167, Note_on_c, 0, 69, 64
2, 32272, Note_on_c, 0, 69, 0
2, 32287, Note_on_c, 0, 72, 64
2, 32392, Note_on_c, 0, 72, 0
2, 32407, Note_on_c, 0, 77, 64
2, 32512, Note_on_c, 0, 77, 0
2, 32527, Note_on_c, 0, 73, 64
2, 32632, Note_on_c, 0, 73, 0
2, 32647, Note_on_c, 0, 75, 64
2, 32699, Note_on_c, 0, 75, 0
2, 32707, Note_on_c, 0, 77, 64
2, 32759, Note_on_c, 0, 77, 0
2, 32767, Note_on_c, 0, 78, 64
2, 32819, Note_on_c, 0, 78, 0
2, 32827, Note_on_c, 0, 75, 64
2, 32879, Note_on_c, 0, 75, 0
2, 32887, Note_on_c, 0, 72, 64
2, 32939, Note_on_c, 0, 72, 0
2, 32947, Note_on_c, 0, 78, 64
2, 32999, Note_on_c, 0, 78, 0
2, 33007, Note_on_c, 0, 77, 64
2, 33059, Note_on_c, 0, 77, 0
2, 33067, Note_on_c, 0, 75, 64
2, 33119, Note_on_c, 0, 75, 0
2, 33127, Note_on_c, 0, 73, 64
2, 33352, Note_on_c, 0, 73, 0
2, 33367, Note_on_c, 0, 72, 64
2, 33472, Note_on_c, 0, 72, 0
2, 33487, Note_on_c, 0, 77, 64
2, 33592, Note_on_c, 0, 77, 0
2, 33607, Note_on_c, 0, 70, 64
2, 33832, Note_on_c, 0, 70, 0
2, 33847, Note_on_c, 0, 68, 64
2, 33952, Note_on_c, 0, 68, 0
2, 33967, Note_on_c, 0, 73, 64
2, 34072, Note_on_c, 0, 73, 0
2, 34087, Note_on_c, 0, 66, 64
2, 34619, Note_on_c, 0, 66, 0
2, 34627, Note_on_c, 0, 65, 64
2, 34679, Note_on_c, 0, 65, 0
2, 34687, Note_on_c, 0, 63, 64
2, 34739, Note_on_c, 0, 63, 0
2, 34747, Note_on_c, 0, 61, 64
2, 34799, Note_on_c, 0, 61, 0
2, 34807, Note_on_c, 0, 60, 64
2, 34859, Note_on_c, 0, 60, 0
2, 34867, Note_on_c, 0, 61, 64
2, 34919, Note_on_c, 0, 61, 0
2, 34927, Note_on_c, 0, 63, 64
2, 34979, Note_on_c, 0, 63, 0
2, 34987, Note_on_c, 0, 60, 64
2, 35039, Note_on_c, 0, 60, 0
2, 35047, Note_on_c, 0, 61, 64
2, 35099, Note_on_c, 0, 61, 0
2, 35107, Note_on_c, 0, 63, 64
2, 35159, Note_on_c, 0, 63, 0
2, 35167, Note_on_c, 0, 65, 64
2, 35219, Note_on_c, 0, 65, 0
2, 35227, Note_on_c, 0, 67, 64
2, 35279, Note_on_c, 0, 67, 0
2, 35287, Note_on_c, 0, 69, 64
2, 35339, Note_on_c, 0, 69, 0
2, 35347, Note_on_c, 0, 70, 64
2, 35399, Note_on_c, 0, 70, 0
2, 35407, Note_on_c, 0, 72, 64
2, 35459, Note_on_c, 0, 72, 0
2, 35467, Note_on_c, 0, 69, 64
2, 35519, Note_on_c, 0, 69, 0
2, 35527, Note_on_c, 0, 70, 64
2, 35579, Note_on_c, 0, 70, 0
2, 35587, Note_on_c, 0, 72, 64
2, 35639, Note_on_c, 0, 72, 0
2, 35647, Note_on_c, 0, 73, 64
2, 35699, Note_on_c, 0, 73, 0
2, 35707, Note_on_c, 0, 70, 64
2, 35759, Note_on_c, 0, 70, 0
2, 35767, Note_on_c, 0, 72, 64
2, 35819, Note_on_c, 0, 72, 0
2, 35827, Note_on_c, 0, 73, 64
2, 35879, Note_on_c, 0, 73, 0
2, 35887, Note_on_c, 0, 75, 64
2, 35939, Note_on_c, 0, 75, 0
2, 35947, Note_on_c, 0, 72, 64
2, 35999, Note_on_c, 0, 72, 0
2, 36007, Note_on_c, 0, 73, 64
2, 36059, Note_on_c, 0, 73, 0
2, 36067, Note_on_c, 0, 75, 64
2, 36119, Note_on_c, 0, 75, 0
2, 36127, Note_on_c, 0, 77, 64
2, 36179, Note_on_c, 0, 77, 0
2, 36187, Note_on_c, 0, 79, 64
2, 36239, Note_on_c, 0, 79, 0
2, 36247, Note_on_c, 0, 81, 64
2, 36299, Note_on_c, 0, 81, 0
2, 36307, Note_on_c, 0, 82, 64
2, 36359, Note_on_c, 0, 82, 0
2, 36367, Note_on_c, 0, 84, 64
2, 36419, Note_on_c, 0, 84, 0
2, 36427, Note_on_c, 0, 81, 64
2, 36479, Note_on_c, 0, 81, 0
2, 36487, Note_on_c, 0, 82, 64
2, 38032, Note_on_c, 0, 82, 0
2, 38047, Note_on_c, 0, 81, 64
2, 38099, Note_on_c, 0, 81, 0
2, 38107, Note_on_c, 0, 82, 64
2, 38159, Note_on_c, 0, 82, 0
2, 38167, Note_on_c, 0, 84, 64
2, 38272, Note_on_c, 0, 84, 0
2, 38287, Note_on_c, 0, 75, 64
2, 38512, Note_on_c, 0, 75, 0
2, 38527, Note_on_c, 0, 73, 64
2, 38579, Note_on_c, 0, 73, 0
2, 38587, Note_on_c, 0, 75, 64
2, 38639, Note_on_c, 0, 75, 0
2, 38647, Note_on_c, 0, 77, 64
2, 38699, Note_on_c, 0, 77, 0
2, 38707, Note_on_c, 0, 75, 64
2, 38733, Note_on_c, 0, 75, 0
2, 38737, Note_on_c, 0, 73, 64
2, 38763, Note_on_c, 0, 73, 0
2, 38767, Note_on_c, 0, 75, 64
2, 38819, Note_on_c, 0, 75, 0
2, 38827, Note_on_c, 0, 69, 64
2, 38879, Note_on_c, 0, 69, 0
2, 38887, Note_on_c, 0, 70, 64
2, 39052, Note_on_c, 0, 70, 0
2, 39067, Note_on_c, 0, 72, 64
2, 39119, Note_on_c, 0, 72, 0
2, 39127, Note_on_c, 0, 69, 64
2, 39292, Note_on_c, 0, 69, 0
2, 39307, Note_on_c, 0, 70, 64
2, 39359, Note_on_c, 0, 70, 0
2, 39367, Note_on_c, 0, 70, 64
2, 39832, Note_on_c, 0, 70, 0
2, 39832, End_track
3, 0, Start_track
3, 0, MIDI_port, 0
3, 0, Title_t, "Prelude in B flat minor"
3, 0, Program_c, 1, 6
3, 7, Note_on_c, 1, 73, 64
3, 59, Note_on_c, 1, 73, 0
3, 67, Note_on_c, 1, 72, 64
3, 119, Note_on_c, 1, 72, 0
3, 127, Note_on_c, 1, 70, 64
3, 179, Note_on_c, 1, 70, 0
3, 187, Note_on_c, 1, 69, 64
3, 239, Note_on_c, 1, 69, 0
3, 247, Note_on_c, 1, 70, 64
3, 352, Note_on_c, 1, 70, 0
3, 367, Note_on_c, 1, 65, 64
3, 472, Note_on_c, 1, 65, 0
3, 487, Note_on_c, 1, 66, 64
3, 592, Note_on_c, 1, 66, 0
3, 607, Note_on_c, 1, 63, 64
3, 712, Note_on_c, 1, 63, 0
3, 727, Note_on_c, 1, 60, 64
3, 832, Note_on_c, 1, 60, 0
3, 847, Note_on_c, 1, 65, 64
3, 952, Note_on_c, 1, 65, 0
3, 967, Note_on_c, 1, 61, 64
3, 1072, Note_on_c, 1, 61, 0
3, 1087, Note_on_c, 1, 58, 64
3, 1192, Note_on_c, 1, 58, 0
3, 1207, Note_on_c, 1, 70, 64
3, 1312, Note_on_c, 1, 70, 0
3, 1327, Note_on_c, 1, 70, 64
3, 1432, Note_on_c, 1, 70, 0
3, 1447, Note_on_c, 1, 70, 64
3, 1552, Note_on_c, 1, 70, 0
3, 1567, Note_on_c, 1, 69, 64
3, 1619, Note_on_c, 1, 69, 0
3, 1627, Note_on_c, 1, 70, 64
3, 1679, Note_on_c, 1, 70, 0
3, 1687, Note_on_c, 1, 72, 64
3, 1792, Note_on_c, 1, 72, 0
3, 1807, Note_on_c, 1, 72, 64
3, 1912, Note_on_c, 1, 72, 0
3, 1927, Note_on_c, 1, 72, 64
3, 2032, Note_on_c, 1, 72, 0
3, 2047, Note_on_c, 1, 70, 64
3, 2099, Note_on_c, 1, 70, 0
3, 2107, Note_on_c, 1, 69, 64
3, 2159, Note_on_c, 1, 69, 0
3, 2167, Note_on_c, 1, 70, 64
3, 2459, Note_on_c, 1, 70, 0
3, 2467, Note_on_c, 1, 68, 64
3, 2519, Note_on_c, 1, 68, 0
3, 2527, Note_on_c, 1, 66, 64
3, 2579, Note_on_c, 1, 66, 0
3, 2587, Note_on_c, 1, 65, 64
3, 2639, Note_on_c, 1, 65, 0
3, 2647, Note_on_c, 1, 66, 64
3, 2699, Note_on_c, 1, 66, 0
3, 2707, Note_on_c, 1, 63, 64
3, 2759, Note_on_c, 1, 63, 0
3, 2767, Note_on_c, 1, 65, 64
3, 2819, Note_on_c, 1, 65, 0
3, 2827, Note_on_c, 1, 66, 64
3, 2939, Note_on_c, 1, 66, 0
3, 2947, Note_on_c, 1, 65, 64
3, 2999, Note_on_c, 1, 65, 0
3, 3007, Note_on_c, 1, 67, 64
3, 3059, Note_on_c, 1, 67, 0
3, 3067, Note_on_c, 1, 69, 64
3, 3119, Note_on_c, 1, 69, 0
3, 3127, Note_on_c, 1, 70, 64
3, 3179, Note_on_c, 1, 70, 0
3, 3187, Note_on_c, 1, 72, 64
3, 3239, Note_on_c, 1, 72, 0
3, 3247, Note_on_c, 1, 73, 64
3, 3299, Note_on_c, 1, 73, 0
3, 3307, Note_on_c, 1, 70, 64
3, 3359, Note_on_c, 1, 70, 0
3, 3367, Note_on_c, 1, 72, 64
3, 3472, Note_on_c, 1, 72, 0
3, 3487, Note_on_c, 1, 60, 64
3, 3592, Note_on_c, 1, 60, 0
3, 3607, Note_on_c, 1, 65, 64
3, 4072, Note_on_c, 1, 65, 0
3, 4087, Note_on_c, 1, 64, 64
3, 4312, Note_on_c, 1, 64, 0
3, 4327, Note_on_c, 1, 65, 64
3, 4379, Note_on_c, 1, 65, 0
3, 4387, Note_on_c, 1, 64, 64
3, 4439, Note_on_c, 1, 64, 0
3, 4447, Note_on_c, 1, 65, 64
3, 4499, Note_on_c, 1, 65, 0
3, 4507, Note_on_c, 1, 67, 64
3, 4559, Note_on_c, 1, 67, 0
3, 4567, Note_on_c, 1, 68, 64
3, 4619, Note_on_c, 1, 68, 0
3, 4627, Note_on_c, 1, 70, 64
3, 4679, Note_on_c, 1, 70, 0
3, 4687, Note_on_c, 1, 72, 64
3, 4739, Note_on_c, 1, 72, 0
3, 4747, Note_on_c, 1, 68, 64
3, 4799, Note_on_c, 1, 68, 0
3, 4807, Note_on_c, 1, 70, 64
3, 4859, Note_on_c, 1, 70, 0
3, 4867, Note_on_c, 1, 68, 64
3, 4919, Note_on_c, 1, 68, 0
3, 4927, Note_on_c, 1, 67, 64
3, 4979, Note_on_c, 1, 67, 0
3, 4987, Note_on_c, 1, 68, 64
3, 5039, Note_on_c, 1, 68, 0
3, 5047, Note_on_c, 1, 70, 64
3, 5099, Note_on_c, 1, 70, 0
3, 5107, Note_on_c, 1, 72, 64
3, 5159, Note_on_c, 1, 72, 0
3, 5167, Note_on_c, 1, 73, 64
3, 5219, Note_on_c, 1, 73, 0
3, 5227, Note_on_c, 1, 70, 64
3, 5279, Note_on_c, 1, 70, 0
3, 5287, Note_on_c, 1, 72, 64
3, 5512, Note_on_c, 1, 72, 0
3, 5647, Note_on_c, 1, 77, 64
3, 5699, Note_on_c, 1, 77, 0
3, 5707, Note_on_c, 1, 72, 64
3, 5759, Note_on_c, 1, 72, 0
3, 5767, Note_on_c, 1, 73, 64
3, 5819, Note_on_c, 1, 73, 0
3, 5827, Note_on_c, 1, 75, 64
3, 5879, Note_on_c, 1, 75, 0
3, 5887, Note_on_c, 1, 73, 64
3, 5939, Note_on_c, 1, 73, 0
3, 5947, Note_on_c, 1, 72, 64
3, 5999, Note_on_c, 1, 72, 0
3, 6007, Note_on_c, 1, 70, 64
3, 6059, Note_on_c, 1, 70, 0
3, 6067, Note_on_c, 1, 68, 64
3, 6119, Note_on_c, 1, 68, 0
3, 6127, Note_on_c, 1, 67, 64
3, 6179, Note_on_c, 1, 67, 0
3, 6187, Note_on_c, 1, 70, 64
3, 6239, Note_on_c, 1, 70, 0
3, 6247, Note_on_c, 1, 64, 64
3, 6352, Note_on_c, 1, 64, 0
3, 6367, Note_on_c, 1, 67, 64
3, 6472, Note_on_c, 1, 67, 0
3, 6487, Note_on_c, 1, 60, 64
3, 6592, Note_on_c, 1, 60, 0
3, 6607, Note_on_c, 1, 72, 64
3, 6712, Note_on_c, 1, 72, 0
3, 6727, Note_on_c, 1, 70, 64
3, 6779, Note_on_c, 1, 70, 0
3, 6787, Note_on_c, 1, 72, 64
3, 6839, Note_on_c, 1, 72, 0
3, 6847, Note_on_c, 1, 73, 64
3, 6899, Note_on_c, 1, 73, 0
3, 6907, Note_on_c, 1, 70, 64
3, 6959, Note_on_c, 1, 70, 0
3, 6967, Note_on_c, 1, 67, 64
3, 7019, Note_on_c, 1, 67, 0
3, 7027, Note_on_c, 1, 73, 64
3, 7079, Note_on_c, 1, 73, 0
3, 7087, Note_on_c, 1, 72, 64
3, 7139, Note_on_c, 1, 72, 0
3, 7147, Note_on_c, 1, 70, 64
3, 7199, Note_on_c, 1, 70, 0
3, 7207, Note_on_c, 1, 68, 64
3, 7432, Note_on_c, 1, 68, 0
3, 7567, Note_on_c, 1, 59, 64
3, 7672, Note_on_c, 1, 59, 0
3, 7687, Note_on_c, 1, 58, 64
3, 7739, Note_on_c, 1, 58, 0
3, 7747, Note_on_c, 1, 60, 64
3, 7799, Note_on_c, 1, 60, 0
3, 7807, Note_on_c, 1, 62, 64
3, 7859, Note_on_c, 1, 62, 0
3, 7867, Note_on_c, 1, 63, 64
3, 7919, Note_on_c, 1, 63, 0
3, 7927, Note_on_c, 1, 65, 64
3, 7979, Note_on_c, 1, 65, 0
3, 7987, Note_on_c, 1, 66, 64
3, 8039, Note_on_c, 1, 66, 0
3, 8047, Note_on_c, 1, 68, 64
3, 8099, Note_on_c, 1, 68, 0
3, 8107, Note_on_c, 1, 65, 64
3, 8159, Note_on_c, 1, 65, 0
3, 8167, Note_on_c, 1, 66, 64
3, 8392, Note_on_c, 1, 66, 0
3, 8527, Note_on_c, 1, 66, 64
3, 8752, Note_on_c, 1, 66, 0
3, 8767, Note_on_c, 1, 57, 64
3, 8872, Note_on_c, 1, 57, 0
3, 8887, Note_on_c, 1, 56, 64
3, 8992, Note_on_c, 1, 56, 0
3, 9007, Note_on_c, 1, 72, 64
3, 9112, Note_on_c, 1, 72, 0
3, 9127, Note_on_c, 1, 73, 64
3, 9232, Note_on_c, 1, 73, 0
3, 9247, Note_on_c, 1, 63, 64
3, 9352, Note_on_c, 1, 63, 0
3, 9367, Note_on_c, 1, 61, 64
3, 9472, Note_on_c, 1, 61, 0
3, 9727, Note_on_c, 1, 61, 64
3, 9832, Note_on_c, 1, 61, 0
3, 9847, Note_on_c, 1, 66, 64
3, 10192, Note_on_c, 1, 66, 0
3, 10207, Note_on_c, 1, 65, 64
3, 10259, Note_on_c, 1, 65, 0
3, 10267, Note_on_c, 1, 63, 64
3, 10319, Note_on_c, 1, 63, 0
3, 10327, Note_on_c, 1, 61, 64
3, 10552, Note_on_c, 1, 61, 0
3, 10567, Note_on_c, 1, 60, 64
3, 10792, Note_on_c, 1, 60, 0
3, 11107, Note_on_c, 1, 58, 64
3, 11159, Note_on_c, 1, 58, 0
3, 11167, Note_on_c, 1, 60, 64
3, 11219, Note_on_c, 1, 60, 0
3, 11227, Note_on_c, 1, 61, 64
3, 11279, Note_on_c, 1, 61, 0
3, 11287, Note_on_c, 1, 63, 64
3, 11339, Note_on_c, 1, 63, 0
3, 11347, Note_on_c, 1, 65, 64
3, 11399, Note_on_c, 1, 65, 0
3, 11407, Note_on_c, 1, 66, 64
3, 11459, Note_on_c, 1, 66, 0
3, 11467, Note_on_c, 1, 63, 64
3, 11519, Note_on_c, 1, 63, 0
3, 11527, Note_on_c, 1, 65, 64
3, 11632, Note_on_c, 1, 65, 0
3, 11767, Note_on_c, 1, 73, 64
3, 11819, Note_on_c, 1, 73, 0
3, 11827, Note_on_c, 1, 72, 64
3, 11879, Note_on_c, 1, 72, 0
3, 11887, Note_on_c, 1, 70, 64
3, 11939, Note_on_c, 1, 70, 0
3, 11947, Note_on_c, 1, 69, 64
3, 11999, Note_on_c, 1, 69, 0
3, 12007, Note_on_c, 1, 70, 64
3, 12299, Note_on_c, 1, 70, 0
3, 12307, Note_on_c, 1, 69, 64
3, 12359, Note_on_c, 1, 69, 0
3, 12367, Note_on_c, 1, 67, 64
3, 12419, Note_on_c, 1, 67, 0
3, 12427, Note_on_c, 1, 69, 64
3, 12479, Note_on_c, 1, 69, 0
3, 12487, Note_on_c, 1, 70, 64
3, 12592, Note_on_c, 1, 70, 0
3, 12607, Note_on_c, 1, 65, 64
3, 12712, Note_on_c, 1, 65, 0
3, 12727, Note_on_c, 1, 61, 64
3, 12832, Note_on_c, 1, 61, 0
3, 12847, Note_on_c, 1, 63, 64
3, 12899, Note_on_c, 1, 63, 0
3, 12907, Note_on_c, 1, 65, 64
3, 12959, Note_on_c, 1, 65, 0
3, 12967, Note_on_c, 1, 66, 64
3, 13259, Note_on_c, 1, 66, 0
3, 13267, Note_on_c, 1, 65, 64
3, 13319, Note_on_c, 1, 65, 0
3, 13327, Note_on_c, 1, 63, 64
3, 13379, Note_on_c, 1, 63, 0
3, 13387, Note_on_c, 1, 66, 64
3, 13439, Note_on_c, 1, 66, 0
3, 13447, Note_on_c, 1, 65, 64
3, 13499, Note_on_c, 1, 65, 0
3, 13507, Note_on_c, 1, 63, 64
3, 13559, Note_on_c, 1, 63, 0
3, 13567, Note_on_c, 1, 61, 64
3, 13619, Note_on_c, 1, 61, 0
3, 13627, Note_on_c, 1, 63, 64
3, 13679, Note_on_c, 1, 63, 0
3, 13687, Note_on_c, 1, 65, 64
3, 13739, Note_on_c, 1, 65, 0
3, 13747, Note_on_c, 1, 66, 64
3, 13799, Note_on_c, 1, 66, 0
3, 13807, Note_on_c, 1, 68, 64
3, 13859, Note_on_c, 1, 68, 0
3, 13867, Note_on_c, 1, 65, 64
3, 13919, Note_on_c, 1, 65, 0
3, 13927, Note_on_c, 1, 66, 64
3, 14152, Note_on_c, 1, 66, 0
3, 14287, Note_on_c, 1, 61, 64
3, 14392, Note_on_c, 1, 61, 0
3, 14407, Note_on_c, 1, 60, 64
3, 14459, Note_on_c, 1, 60, 0
3, 14467, Note_on_c, 1, 66, 64
3, 14519, Note_on_c, 1, 66, 0
3, 14527, Note_on_c, 1, 65, 64
3, 14579, Note_on_c, 1, 65, 0
3, 14587, Note_on_c, 1, 63, 64
3, 14639, Note_on_c, 1, 63, 0
3, 14647, Note_on_c, 1, 65, 64
3, 14992, Note_on_c, 1, 65, 0
3, 15007, Note_on_c, 1, 63, 64
3, 15059, Note_on_c, 1, 63, 0
3, 15067, Note_on_c, 1, 61, 64
3, 15119, Note_on_c, 1, 61, 0
3, 15127, Note_on_c, 1, 60, 64
3, 15179, Note_on_c, 1, 60, 0
3, 15187, Note_on_c, 1, 61, 64
3, 15239, Note_on_c, 1, 61, 0
3, 15247, Note_on_c, 1, 58, 64
3, 15299, Note_on_c, 1, 58, 0
3, 15307, Note_on_c, 1, 60, 64
3, 15359, Note_on_c, 1, 60, 0
3, 15367, Note_on_c, 1, 61, 64
3, 15472, Note_on_c, 1, 61, 0
3, 15607, Note_on_c, 1, 70, 64
3, 15659, Note_on_c, 1, 70, 0
3, 15667, Note_on_c, 1, 68, 64
3, 15719, Note_on_c, 1, 68, 0
3, 15727, Note_on_c, 1, 66, 64
3, 15779, Note_on_c, 1, 66, 0
3, 15787, Note_on_c, 1, 65, 64
3, 15839, Note_on_c, 1, 65, 0
3, 15847, Note_on_c, 1, 66, 64
3, 15952, Note_on_c, 1, 66, 0
3, 15967, Note_on_c, 1, 63, 64
3, 16072, Note_on_c, 1, 63, 0
3, 16087, Note_on_c, 1, 68, 64
3, 16139, Note_on_c, 1, 68, 0
3, 16147, Note_on_c, 1, 66, 64
3, 16199, Note_on_c, 1, 66, 0
3, 16207, Note_on_c, 1, 65, 64
3, 16259, Note_on_c, 1, 65, 0
3, 16267, Note_on_c, 1, 63, 64
3, 16319, Note_on_c, 1, 63, 0
3, 16327, Note_on_c, 1, 65, 64
3, 16379, Note_on_c, 1, 65, 0
3, 16387, Note_on_c, 1, 63, 64
3, 16439, Note_on_c, 1, 63, 0
3, 16447, Note_on_c, 1, 65, 64
3, 16499, Note_on_c, 1, 65, 0
3, 16507, Note_on_c, 1, 66, 64
3, 16559, Note_on_c, 1, 66, 0
3, 16567, Note_on_c, 1, 68, 64
3, 16619, Note_on_c, 1, 68, 0
3, 16627, Note_on_c, 1, 70, 64
3, 16679, Note_on_c, 1, 70, 0
3, 16687, Note_on_c, 1, 72, 64
3, 16739, Note_on_c, 1, 72, 0
3, 16747, Note_on_c, 1, 68, 64
3, 16799, Note_on_c, 1, 68, 0
3, 16807, Note_on_c, 1, 73, 64
3, 17392, Note_on_c, 1, 73, 0
3, 17407, Note_on_c, 1, 75, 64
3, 17459, Note_on_c, 1, 75, 0
3, 17467, Note_on_c, 1, 73, 64
3, 17519, Note_on_c, 1, 73, 0
3, 17527, Note_on_c, 1, 72, 64
3, 17632, Note_on_c, 1, 72, 0
3, 17647, Note_on_c, 1, 75, 64
3, 17752, Note_on_c, 1, 75, 0
3, 17767, Note_on_c, 1, 68, 64
3, 17872, Note_on_c, 1, 68, 0
3, 17887, Note_on_c, 1, 77, 64
3, 17939, Note_on_c, 1, 77, 0
3, 17947, Note_on_c, 1, 75, 64
3, 17999, Note_on_c, 1, 75, 0
3, 18007, Note_on_c, 1, 73, 64
3, 18112, Note_on_c, 1, 73, 0
3, 18127, Note_on_c, 1, 72, 64
3, 18232, Note_on_c, 1, 72, 0
3, 18247, Note_on_c, 1, 70, 64
3, 18472, Note_on_c, 1, 70, 0
3, 18607, Note_on_c, 1, 70, 64
3, 18832, Note_on_c, 1, 70, 0
3, 18847, Note_on_c, 1, 68, 64
3, 18952, Note_on_c, 1, 68, 0
3, 19087, Note_on_c, 1, 63, 64
3, 19312, Note_on_c, 1, 63, 0
3, 19327, Note_on_c, 1, 61, 64
3, 19379, Note_on_c, 1, 61, 0
3, 19387, Note_on_c, 1, 60, 64
3, 19439, Note_on_c, 1, 60, 0
3, 19447, Note_on_c, 1, 58, 64
3, 19499, Note_on_c, 1, 58, 0
3, 19507, Note_on_c, 1, 56, 64
3, 19559, Note_on_c, 1, 56, 0
3, 19567, Note_on_c, 1, 55, 64
3, 19619, Note_on_c, 1, 55, 0
3, 19627, Note_on_c, 1, 58, 64
3, 19679, Note_on_c, 1, 58, 0
3, 19687, Note_on_c, 1, 56, 64
3, 19739, Note_on_c, 1, 56, 0
3, 19747, Note_on_c, 1, 63, 64
3, 19799, Note_on_c, 1, 63, 0
3, 19807, Note_on_c, 1, 65, 64
3, 19859, Note_on_c, 1, 65, 0
3, 19867, Note_on_c, 1, 67, 64
3, 19919, Note_on_c, 1, 67, 0
3, 19927, Note_on_c, 1, 68, 64
3, 19979, Note_on_c, 1, 68, 0
3, 19987, Note_on_c, 1, 70, 64
3, 20039, Note_on_c, 1, 70, 0
3, 20047, Note_on_c, 1, 72, 64
3, 20099, Note_on_c, 1, 72, 0
3, 20107, Note_on_c, 1, 68, 64
3, 20159, Note_on_c, 1, 68, 0
3, 20167, Note_on_c, 1, 77, 64
3, 20272, Note_on_c, 1, 77, 0
3, 20767, Note_on_c, 1, 56, 64
3, 20872, Note_on_c, 1, 56, 0
3, 20887, Note_on_c, 1, 63, 64
3, 20992, Note_on_c, 1, 63, 0
3, 21007, Note_on_c, 1, 63, 64
3, 21112, Note_on_c, 1, 63, 0
3, 21127, Note_on_c, 1, 63, 64
3, 21232, Note_on_c, 1, 63, 0
3, 21247, Note_on_c, 1, 62, 64
3, 21299, Note_on_c, 1, 62, 0
3, 21307, Note_on_c, 1, 63, 64
3, 21359, Note_on_c, 1, 63, 0
3, 21367, Note_on_c, 1, 65, 64
3, 21472, Note_on_c, 1, 65, 0
3, 21487, Note_on_c, 1, 65, 64
3, 21592, Note_on_c, 1, 65, 0
3, 21607, Note_on_c, 1, 65, 64
3, 21712, Note_on_c, 1, 65, 0
3, 21727, Note_on_c, 1, 63, 64
3, 21779, Note_on_c, 1, 63, 0
3, 21787, Note_on_c, 1, 65, 64
3, 21839, Note_on_c, 1, 65, 0
3, 21847, Note_on_c, 1, 66, 64
3, 21952, Note_on_c, 1, 66, 0
3, 21967, Note_on_c, 1, 66, 64
3, 22072, Note_on_c, 1, 66, 0
3, 22087, Note_on_c, 1, 66, 64
3, 22192, Note_on_c, 1, 66, 0
3, 22207, Note_on_c, 1, 65, 64
3, 22259, Note_on_c, 1, 65, 0
3, 22267, Note_on_c, 1, 66, 64
3, 22319, Note_on_c, 1, 66, 0
3, 22327, Note_on_c, 1, 68, 64
3, 22432, Note_on_c, 1, 68, 0
3, 22447, Note_on_c, 1, 68, 64
3, 22619, Note_on_c, 1, 68, 0
3, 22627, Note_on_c, 1, 68, 64
3, 22679, Note_on_c, 1, 68, 0
3, 22687, Note_on_c, 1, 66, 64
3, 22739, Note_on_c, 1, 66, 0
3, 22747, Note_on_c, 1, 65, 64
3, 22799, Note_on_c, 1, 65, 0
3, 22807, Note_on_c, 1, 66, 64
3, 22912, Note_on_c, 1, 66, 0
3, 22927, Note_on_c, 1, 61, 64
3, 23032, Note_on_c, 1, 61, 0
3, 23047, Note_on_c, 1, 63, 64
3, 23152, Note_on_c, 1, 63, 0
3, 23167, Note_on_c, 1, 59, 64
3, 23272, Note_on_c, 1, 59, 0
3, 23287, Note_on_c, 1, 56, 64
3, 23392, Note_on_c, 1, 56, 0
3, 23407, Note_on_c, 1, 61, 64
3, 23512, Note_on_c, 1, 61, 0
3, 23527, Note_on_c, 1, 58, 64
3, 23752, Note_on_c, 1, 58, 0
3, 23887, Note_on_c, 1, 70, 64
3, 23992, Note_on_c, 1, 70, 0
3, 24007, Note_on_c, 1, 71, 64
3, 24232, Note_on_c, 1, 71, 0
3, 24367, Note_on_c, 1, 71, 64
3, 24472, Note_on_c, 1, 71, 0
3, 24487, Note_on_c, 1, 70, 64
3, 24832, Note_on_c, 1, 70, 0
3, 24847, Note_on_c, 1, 75, 64
3, 24952, Note_on_c, 1, 75, 0
3, 24967, Note_on_c, 1, 68, 64
3, 25072, Note_on_c, 1, 68, 0
3, 25327, Note_on_c, 1, 68, 64
3, 25499, Note_on_c, 1, 68, 0
3, 25507, Note_on_c, 1, 70, 64
3, 25559, Note_on_c, 1, 70, 0
3, 25567, Note_on_c, 1, 68, 64
3, 25619, Note_on_c, 1, 68, 0
3, 25627, Note_on_c, 1, 66, 64
3, 25679, Note_on_c, 1, 66, 0
3, 25687, Note_on_c, 1, 65, 64
3, 25739, Note_on_c, 1, 65, 0
3, 25747, Note_on_c, 1, 63, 64
3, 25799, Note_on_c, 1, 63, 0
3, 25807, Note_on_c, 1, 62, 64
3, 25859, Note_on_c, 1, 62, 0
3, 25867, Note_on_c, 1, 65, 64
3, 25919, Note_on_c, 1, 65, 0
3, 25927, Note_on_c, 1, 63, 64
3, 26032, Note_on_c, 1, 63, 0
3, 27127, Note_on_c, 1, 75, 64
3, 27179, Note_on_c, 1, 75, 0
3, 27187, Note_on_c, 1, 73, 64
3, 27239, Note_on_c, 1, 73, 0
3, 27247, Note_on_c, 1, 71, 64
3, 27299, Note_on_c, 1, 71, 0
3, 27307, Note_on_c, 1, 70, 64
3, 27359, Note_on_c, 1, 70, 0
3, 27367, Note_on_c, 1, 71, 64
3, 27419, Note_on_c, 1, 71, 0
3, 27427, Note_on_c, 1, 70, 64
3, 27479, Note_on_c, 1, 70, 0
3, 27487, Note_on_c, 1, 68, 64
3, 27539, Note_on_c, 1, 68, 0
3, 27547, Note_on_c, 1, 66, 64
3, 27599, Note_on_c, 1, 66, 0
3, 27607, Note_on_c, 1, 65, 64
3, 27712, Note_on_c, 1, 65, 0
3, 27727, Note_on_c, 1, 70, 64
3, 27832, Note_on_c, 1, 70, 0
3, 27847, Note_on_c, 1, 66, 64
3, 27952, Note_on_c, 1, 66, 0
3, 27967, Note_on_c, 1, 70, 64
3, 28072, Note_on_c, 1, 70, 0
3, 28147, Note_on_c, 1, 66, 64
3, 28199, Note_on_c, 1, 66, 0
3, 28207, Note_on_c, 1, 65, 64
3, 28259, Note_on_c, 1, 65, 0
3, 28267, Note_on_c, 1, 66, 64
3, 28319, Note_on_c, 1, 66, 0
3, 28327, Note_on_c, 1, 68, 64
3, 28432, Note_on_c, 1, 68, 0
3, 28447, Note_on_c, 1, 63, 64
3, 28552, Note_on_c, 1, 63, 0
3, 28567, Note_on_c, 1, 65, 64
3, 28792, Note_on_c, 1, 65, 0
3, 28807, Note_on_c, 1, 66, 64
3, 29032, Note_on_c, 1, 66, 0
3, 29167, Note_on_c, 1, 72, 64
3, 29272, Note_on_c, 1, 72, 0
3, 29287, Note_on_c, 1, 73, 64
3, 29339, Note_on_c, 1, 73, 0
3, 29347, Note_on_c, 1, 72, 64
3, 29399, Note_on_c, 1, 72, 0
3, 29407, Note_on_c, 1, 70, 64
3, 29459, Note_on_c, 1, 70, 0
3, 29467, Note_on_c, 1, 69, 64
3, 29519, Note_on_c, 1, 69, 0
3, 29527, Note_on_c, 1, 70, 64
3, 29632, Note_on_c, 1, 70, 0
3, 29647, Note_on_c, 1, 65, 64
3, 29752, Note_on_c, 1, 65, 0
3, 29767, Note_on_c, 1, 66, 64
3, 29872, Note_on_c, 1, 66, 0
3, 29887, Note_on_c, 1, 63, 64
3, 29992, Note_on_c, 1, 63, 0
3, 30007, Note_on_c, 1, 60, 64
3, 30112, Note_on_c, 1, 60, 0
3, 30127, Note_on_c, 1, 65, 64
3, 30232, Note_on_c, 1, 65, 0
3, 30247, Note_on_c, 1, 61, 64
3, 30352, Note_on_c, 1, 61, 0
3, 30367, Note_on_c, 1, 58, 64
3, 30472, Note_on_c, 1, 58, 0
3, 30487, Note_on_c, 1, 70, 64
3, 30592, Note_on_c, 1, 70, 0
3, 30607, Note_on_c, 1, 70, 64
3, 30712, Note_on_c, 1, 70, 0
3, 30727, Note_on_c, 1, 70, 64
3, 30832, Note_on_c, 1, 70, 0
3, 30847, Note_on_c, 1, 69, 64
3, 30899, Note_on_c, 1, 69, 0
3, 30907, Note_on_c, 1, 70, 64
3, 30959, Note_on_c, 1, 70, 0
3, 30967, Note_on_c, 1, 72, 64
3, 31072, Note_on_c, 1, 72, 0
3, 31087, Note_on_c, 1, 72, 64
3, 31192, Note_on_c, 1, 72, 0
3, 31207, Note_on_c, 1, 72, 64
3, 31312, Note_on_c, 1, 72, 0
3, 31327, Note_on_c, 1, 70, 64
3, 31379, Note_on_c, 1, 70, 0
3, 31387, Note_on_c, 1, 72, 64
3, 31439, Note_on_c, 1, 72, 0
3, 31447, Note_on_c, 1, 73, 64
3, 31552, Note_on_c, 1, 73, 0
3, 31567, Note_on_c, 1, 73, 64
3, 31672, Note_on_c, 1, 73, 0
3, 31687, Note_on_c, 1, 73, 64
3, 31792, Note_on_c, 1, 73, 0
3, 31807, Note_on_c, 1, 58, 64
3, 31912, Note_on_c, 1, 58, 0
3, 31927, Note_on_c, 1, 60, 64
3, 32032, Note_on_c, 1, 60, 0
3, 32047, Note_on_c, 1, 63, 64
3, 32152, Note_on_c, 1, 63, 0
3, 32167, Note_on_c, 1, 63, 64
3, 32272, Note_on_c, 1, 63, 0
3, 32287, Note_on_c, 1, 57, 64
3, 32392, Note_on_c, 1, 57, 0
3, 32407, Note_on_c, 1, 58, 64
3, 32512, Note_on_c, 1, 58, 0
3, 32527, Note_on_c, 1, 70, 64
3, 32632, Note_on_c, 1, 70, 0
3, 32647, Note_on_c, 1, 70, 64
3, 32872, Note_on_c, 1, 70, 0
3, 32887, Note_on_c, 1, 69, 64
3, 33112, Note_on_c, 1, 69, 0
3, 33127, Note_on_c, 1, 70, 64
3, 33179, Note_on_c, 1, 70, 0
3, 33187, Note_on_c, 1, 65, 64
3, 33239, Note_on_c, 1, 65, 0
3, 33247, Note_on_c, 1, 70, 64
3, 33472, Note_on_c, 1, 70, 0
3, 33487, Note_on_c, 1, 68, 64
3, 33659, Note_on_c, 1, 68, 0
3, 33667, Note_on_c, 1, 61, 64
3, 33719, Note_on_c, 1, 61, 0
3, 33727, Note_on_c, 1, 66, 64
3, 33952, Note_on_c, 1, 66, 0
3, 33967, Note_on_c, 1, 65, 64
3, 34192, Note_on_c, 1, 65, 0
3, 34207, Note_on_c, 1, 63, 64
3, 34259, Note_on_c, 1, 63, 0
3, 34267, Note_on_c, 1, 61, 64
3, 34319, Note_on_c, 1, 61, 0
3, 34327, Note_on_c, 1, 60, 64
3, 34432, Note_on_c, 1, 60, 0
3, 34447, Note_on_c, 1, 58, 64
3, 34552, Note_on_c, 1, 58, 0
3, 34567, Note_on_c, 1, 57, 64
3, 34672, Note_on_c, 1, 57, 0
3, 34687, Note_on_c, 1, 58, 64
3, 34912, Note_on_c, 1, 58, 0
3, 34927, Note_on_c, 1, 57, 64
3, 35032, Note_on_c, 1, 57, 0
3, 35047, Note_on_c, 1, 58, 64
3, 35099, Note_on_c, 1, 58, 0
3, 35107, Note_on_c, 1, 60, 64
3, 35159, Note_on_c, 1, 60, 0
3, 35167, Note_on_c, 1, 61, 64
3, 35219, Note_on_c, 1, 61, 0
3, 35227, Note_on_c, 1, 58, 64
3, 35279, Note_on_c, 1, 58, 0
3, 35287, Note_on_c, 1, 60, 64
3, 35339, Note_on_c, 1, 60, 0
3, 35347, Note_on_c, 1, 61, 64
3, 35399, Note_on_c, 1, 61, 0
3, 35407, Note_on_c, 1, 63, 64
3, 35459, Note_on_c, 1, 63, 0
3, 35467, Note_on_c, 1, 60, 64
3, 35519, Note_on_c, 1, 60, 0
3, 35527, Note_on_c, 1, 61, 64
3, 35579, Note_on_c, 1, 61, 0
3, 35587, Note_on_c, 1, 63, 64
3, 35639, Note_on_c, 1, 63, 0
3, 35647, Note_on_c, 1, 65, 64
3, 35699, Note_on_c, 1, 65, 0
3, 35707, Note_on_c, 1, 67, 64
3, 35759, Note_on_c, 1, 67, 0
3, 35767, Note_on_c, 1, 69, 64
3, 35819, Note_on_c, 1, 69, 0
3, 35827, Note_on_c, 1, 70, 64
3, 35879, Note_on_c, 1, 70, 0
3, 35887, Note_on_c, 1, 72, 64
3, 35939, Note_on_c, 1, 72, 0
3, 35947, Note_on_c, 1, 69, 64
3, 35999, Note_on_c, 1, 69, 0
3, 36007, Note_on_c, 1, 70, 64
3, 36059, Note_on_c, 1, 70, 0
3, 36067, Note_on_c, 1, 72, 64
3, 36119, Note_on_c, 1, 72, 0
3, 36127, Note_on_c, 1, 73, 64
3, 36179, Note_on_c, 1, 73, 0
3, 36187, Note_on_c, 1, 70, 64
3, 36239, Note_on_c, 1, 70, 0
3, 36247, Note_on_c, 1, 72, 64
3, 36299, Note_on_c, 1, 72, 0
3, 36307, Note_on_c, 1, 73, 64
3, 36359, Note_on_c, 1, 73, 0
3, 36367, Note_on_c, 1, 75, 64
3, 36419, Note_on_c, 1, 75, 0
3, 36427, Note_on_c, 1, 72, 64
3, 36479, Note_on_c, 1, 72, 0
3, 36487, Note_on_c, 1, 74, 64
3, 36539, Note_on_c, 1, 74, 0
3, 36547, Note_on_c, 1, 72, 64
3, 36599, Note_on_c, 1, 72, 0
3, 36607, Note_on_c, 1, 74, 64
3, 36659, Note_on_c, 1, 74, 0
3, 36667, Note_on_c, 1, 75, 64
3, 36719, Note_on_c, 1, 75, 0
3, 36727, Note_on_c, 1, 77, 64
3, 36779, Note_on_c, 1, 77, 0
3, 36787, Note_on_c, 1, 78, 64
3, 36839, Note_on_c, 1, 78, 0
3, 36847, Note_on_c, 1, 80, 64
3, 36899, Note_on_c, 1, 80, 0
3, 36907, Note_on_c, 1, 77, 64
3, 36959, Note_on_c, 1, 77, 0
3, 36967, Note_on_c, 1, 78, 64
3, 37072, Note_on_c, 1, 78, 0
3, 37087, Note_on_c, 1, 77, 64
3, 37139, Note_on_c, 1, 77, 0
3, 37147, Note_on_c, 1, 75, 64
3, 37199, Note_on_c, 1, 75, 0
3, 37207, Note_on_c, 1, 74, 64
3, 37312, Note_on_c, 1, 74, 0
3, 37327, Note_on_c, 1, 77, 64
3, 37432, Note_on_c, 1, 77, 0
3, 37447, Note_on_c, 1, 70, 64
3, 37552, Note_on_c, 1, 70, 0
3, 37567, Note_on_c, 1, 78, 64
3, 37619, Note_on_c, 1, 78, 0
3, 37627, Note_on_c, 1, 77, 64
3, 37679, Note_on_c, 1, 77, 0
3, 37687, Note_on_c, 1, 75, 64
3, 37792, Note_on_c, 1, 75, 0
3, 37807, Note_on_c, 1, 73, 64
3, 37912, Note_on_c, 1, 73, 0
3, 37927, Note_on_c, 1, 72, 64
3, 38152, Note_on_c, 1, 72, 0
3, 38287, Note_on_c, 1, 72, 64
3, 38512, Note_on_c, 1, 72, 0
3, 38527, Note_on_c, 1, 70, 64
3, 38632, Note_on_c, 1, 70, 0
3, 38767, Note_on_c, 1, 66, 64
3, 38872, Note_on_c, 1, 66, 0
3, 38887, Note_on_c, 1, 65, 64
3, 39052, Note_on_c, 1, 65, 0
3, 39067, Note_on_c, 1, 66, 64
3, 39119, Note_on_c, 1, 66, 0
3, 39127, Note_on_c, 1, 60, 64
3, 39352, Note_on_c, 1, 60, 0
3, 39367, Note_on_c, 1, 62, 64
3, 39832, Note_on_c, 1, 62, 0
3, 39832, End_track
4, 0, Start_track
4, 0, MIDI_port, 0
4, 0, Title_t, "from WTC II"
4, 0, Program_c, 2, 6
4, 7, Note_on_c, 2, 46, 64
4, 232, Note_on_c, 2, 46, 0
4, 247, Note_on_c, 2, 58, 64
4, 712, Note_on_c, 2, 58, 0
4, 727, Note_on_c, 2, 57, 64
4, 952, Note_on_c, 2, 57, 0
4, 967, Note_on_c, 2, 58, 64
4, 1019, Note_on_c, 2, 58, 0
4, 1027, Note_on_c, 2, 56, 64
4, 1079, Note_on_c, 2, 56, 0
4, 1087, Note_on_c, 2, 54, 64
4, 1139, Note_on_c, 2, 54, 0
4, 1147, Note_on_c, 2, 53, 64
4, 1199, Note_on_c, 2, 53, 0
4, 1207, Note_on_c, 2, 54, 64
4, 1259, Note_on_c, 2, 54, 0
4, 1267, Note_on_c, 2, 53, 64
4, 1319, Note_on_c, 2, 53, 0
4, 1327, Note_on_c, 2, 51, 64
4, 1379, Note_on_c, 2, 51, 0
4, 1387, Note_on_c, 2, 49, 64
4, 1439, Note_on_c, 2, 49, 0
4, 1447, Note_on_c, 2, 51, 64
4, 1499, Note_on_c, 2, 51, 0
4, 1507, Note_on_c, 2, 49, 64
4, 1559, Note_on_c, 2, 49, 0
4, 1567, Note_on_c, 2, 48, 64
4, 1619, Note_on_c, 2, 48, 0
4, 1627, Note_on_c, 2, 46, 64
4, 1679, Note_on_c, 2, 46, 0
4, 1687, Note_on_c, 2, 45, 64
4, 1739, Note_on_c, 2, 45, 0
4, 1747, Note_on_c, 2, 41, 64
4, 1799, Note_on_c, 2, 41, 0
4, 1807, Note_on_c, 2, 43, 64
4, 1859, Note_on_c, 2, 43, 0
4, 1867, Note_on_c, 2, 45, 64
4, 1919, Note_on_c, 2, 45, 0
4, 1927, Note_on_c, 2, 46, 64
4, 1979, Note_on_c, 2, 46, 0
4, 1987, Note_on_c, 2, 48, 64
4, 2039, Note_on_c, 2, 48, 0
4, 2047, Note_on_c, 2, 49, 64
4, 2099, Note_on_c, 2, 49, 0
4, 2107, Note_on_c, 2, 51, 64
4, 2159, Note_on_c, 2, 51, 0
4, 2167, Note_on_c, 2, 49, 64
4, 2272, Note_on_c, 2, 49, 0
4, 2287, Note_on_c, 2, 54, 64
4, 2392, Note_on_c, 2, 54, 0
4, 2407, Note_on_c, 2, 48, 64
4, 2459, Note_on_c, 2, 48, 0
4, 2467, Note_on_c, 2, 49, 64
4, 2519, Note_on_c, 2, 49, 0
4, 2527, Note_on_c, 2, 51, 64
4, 2579, Note_on_c, 2, 51, 0
4, 2587, Note_on_c, 2, 53, 64
4, 2639, Note_on_c, 2, 53, 0
4, 2647, Note_on_c, 2, 51, 64
4, 2752, Note_on_c, 2, 51, 0
4, 2767, Note_on_c, 2, 56, 64
4, 2872, Note_on_c, 2, 56, 0
4, 2887, Note_on_c, 2, 49, 64
4, 2992, Note_on_c, 2, 49, 0
4, 3007, Note_on_c, 2, 48, 64
4, 3112, Note_on_c, 2, 48, 0
4, 3127, Note_on_c, 2, 49, 64
4, 3232, Note_on_c, 2, 49, 0
4, 3247, Note_on_c, 2, 46, 64
4, 3352, Note_on_c, 2, 46, 0
4, 3367, Note_on_c, 2, 53, 64
4, 3472, Note_on_c, 2, 53, 0
4, 3487, Note_on_c, 2, 56, 64
4, 3592, Note_on_c, 2, 56, 0
4, 3607, Note_on_c, 2, 61, 64
4, 3659, Note_on_c, 2, 61, 0
4, 3667, Note_on_c, 2, 60, 64
4, 3719, Note_on_c, 2, 60, 0
4, 3727, Note_on_c, 2, 58, 64
4, 3779, Note_on_c, 2, 58, 0
4, 3787, Note_on_c, 2, 56, 64
4, 3839, Note_on_c, 2, 56, 0
4, 3847, Note_on_c, 2, 58, 64
4, 3899, Note_on_c, 2, 58, 0
4, 3907, Note_on_c, 2, 55, 64
4, 3959, Note_on_c, 2, 55, 0
4, 3967, Note_on_c, 2, 56, 64
4, 4019, Note_on_c, 2, 56, 0
4, 4027, Note_on_c, 2, 58, 64
4, 4079, Note_on_c, 2, 58, 0
4, 4087, Note_on_c, 2, 60, 64
4, 4139, Note_on_c, 2, 60, 0
4, 4147, Note_on_c, 2, 58, 64
4, 4199, Note_on_c, 2, 58, 0
4, 4207, Note_on_c, 2, 56, 64
4, 4259, Note_on_c, 2, 56, 0
4, 4267, Note_on_c, 2, 55, 64
4, 4319, Note_on_c, 2, 55, 0
4, 4327, Note_on_c, 2, 53, 64
4, 4619, Note_on_c, 2, 53, 0
4, 4627, Note_on_c, 2, 55, 64
4, 4679, Note_on_c, 2, 55, 0
4, 4687, Note_on_c, 2, 56, 64
4, 4739, Note_on_c, 2, 56, 0
4, 4747, Note_on_c, 2, 53, 64
4, 4799, Note_on_c, 2, 53, 0
4, 4807, Note_on_c, 2, 55, 64
4, 4859, Note_on_c, 2, 55, 0
4, 4867, Note_on_c, 2, 56, 64
4, 4919, Note_on_c, 2, 56, 0
4, 4927, Note_on_c, 2, 58, 64
4, 5032, Note_on_c, 2, 58, 0
4, 5047, Note_on_c, 2, 52, 64
4, 5152, Note_on_c, 2, 52, 0
4, 5167, Note_on_c, 2, 53, 64
4, 5219, Note_on_c, 2, 53, 0
4, 5227, Note_on_c, 2, 55, 64
4, 5279, Note_on_c, 2, 55, 0
4, 5287, Note_on_c, 2, 56, 64
4, 5339, Note_on_c, 2, 56, 0
4, 5347, Note_on_c, 2, 58, 64
4, 5399, Note_on_c, 2, 58, 0
4, 5407, Note_on_c, 2, 56, 64
4, 5459, Note_on_c, 2, 56, 0
4, 5467, Note_on_c, 2, 55, 64
4, 5519, Note_on_c, 2, 55, 0
4, 5527, Note_on_c, 2, 53, 64
4, 5579, Note_on_c, 2, 53, 0
4, 5587, Note_on_c, 2, 51, 64
4, 5639, Note_on_c, 2, 51, 0
4, 5647, Note_on_c, 2, 49, 64
4, 5699, Note_on_c, 2, 49, 0
4, 5707, Note_on_c, 2, 53, 64
4, 5759, Note_on_c, 2, 53, 0
4, 5767, Note_on_c, 2, 46, 64
4, 5992, Note_on_c, 2, 46, 0
4, 6307, Note_on_c, 2, 61, 64
4, 6359, Note_on_c, 2, 61, 0
4, 6367, Note_on_c, 2, 60, 64
4, 6419, Note_on_c, 2, 60, 0
4, 6427, Note_on_c, 2, 58, 64
4, 6479, Note_on_c, 2, 58, 0
4, 6487, Note_on_c, 2, 56, 64
4, 6539, Note_on_c, 2, 56, 0
4, 6547, Note_on_c, 2, 55, 64
4, 6599, Note_on_c, 2, 55, 0
4, 6607, Note_on_c, 2, 53, 64
4, 6659, Note_on_c, 2, 53, 0
4, 6667, Note_on_c, 2, 56, 64
4, 6719, Note_on_c, 2, 56, 0
4, 6727, Note_on_c, 2, 49, 64
4, 6832, Note_on_c, 2, 49, 0
4, 6847, Note_on_c, 2, 46, 64
4, 6952, Note_on_c, 2, 46, 0
4, 6967, Note_on_c, 2, 48, 64
4, 7072, Note_on_c, 2, 48, 0
4, 7087, Note_on_c, 2, 36, 64
4, 7192, Note_on_c, 2, 36, 0
4, 7207, Note_on_c, 2, 41, 64
4, 7259, Note_on_c, 2, 41, 0
4, 7267, Note_on_c, 2, 48, 64
4, 7319, Note_on_c, 2, 48, 0
4, 7327, Note_on_c, 2, 50, 64
4, 7379, Note_on_c, 2, 50, 0
4, 7387, Note_on_c, 2, 52, 64
4, 7439, Note_on_c, 2, 52, 0
4, 7447, Note_on_c, 2, 53, 64
4, 7499, Note_on_c, 2, 53, 0
4, 7507, Note_on_c, 2, 54, 64
4, 7559, Note_on_c, 2, 54, 0
4, 7567, Note_on_c, 2, 56, 64
4, 7619, Note_on_c, 2, 56, 0
4, 7627, Note_on_c, 2, 53, 64
4, 7679, Note_on_c, 2, 53, 0
4, 7687, Note_on_c, 2, 50, 64
4, 7912, Note_on_c, 2, 50, 0
4, 8047, Note_on_c, 2, 46, 64
4, 8152, Note_on_c, 2, 46, 0
4, 8167, Note_on_c, 2, 39, 64
4, 8219, Note_on_c, 2, 39, 0
4, 8227, Note_on_c, 2, 46, 64
4, 8279, Note_on_c, 2, 46, 0
4, 8287, Note_on_c, 2, 48, 64
4, 8339, Note_on_c, 2, 48, 0
4, 8347, Note_on_c, 2, 50, 64
4, 8399, Note_on_c, 2, 50, 0
4, 8407, Note_on_c, 2, 51, 64
4, 8459, Note_on_c, 2, 51, 0
4, 8467, Note_on_c, 2, 53, 64
4, 8519, Note_on_c, 2, 53, 0
4, 8527, Note_on_c, 2, 54, 64
4, 8579, Note_on_c, 2, 54, 0
4, 8587, Note_on_c, 2, 51, 64
4, 8639, Note_on_c, 2, 51, 0
4, 8647, Note_on_c, 2, 48, 64
4, 8752, Note_on_c, 2, 48, 0
4, 8767, Note_on_c, 2, 51, 64
4, 8872, Note_on_c, 2, 51, 0
4, 8887, Note_on_c, 2, 48, 64
4, 8992, Note_on_c, 2, 48, 0
4, 9007, Note_on_c, 2, 44, 64
4, 9112, Note_on_c, 2, 44, 0
4, 9127, Note_on_c, 2, 37, 64
4, 9179, Note_on_c, 2, 37, 0
4, 9187, Note_on_c, 2, 44, 64
4, 9239, Note_on_c, 2, 44, 0
4, 9247, Note_on_c, 2, 46, 64
4, 9299, Note_on_c, 2, 46, 0
4, 9307, Note_on_c, 2, 48, 64
4, 9359, Note_on_c, 2, 48, 0
4, 9367, Note_on_c, 2, 49, 64
4, 9419, Note_on_c, 2, 49, 0
4, 9427, Note_on_c, 2, 51, 64
4, 9479, Note_on_c, 2, 51, 0
4, 9487, Note_on_c, 2, 53, 64
4, 9539, Note_on_c, 2, 53, 0
4, 9547, Note_on_c, 2, 49, 64
4, 9599, Note_on_c, 2, 49, 0
4, 9607, Note_on_c, 2, 54, 64
4, 9659, Note_on_c, 2, 54, 0
4, 9667, Note_on_c, 2, 56, 64
4, 9719, Note_on_c, 2, 56, 0
4, 9727, Note_on_c, 2, 54, 64
4, 9779, Note_on_c, 2, 54, 0
4, 9787, Note_on_c, 2, 53, 64
4, 9839, Note_on_c, 2, 53, 0
4, 9847, Note_on_c, 2, 51, 64
4, 9899, Note_on_c, 2, 51, 0
4, 9907, Note_on_c, 2, 49, 64
4, 9959, Note_on_c, 2, 49, 0
4, 9967, Note_on_c, 2, 48, 64
4, 10019, Note_on_c, 2, 48, 0
4, 10027, Note_on_c, 2, 51, 64
4, 10079, Note_on_c, 2, 51, 0
4, 10087, Note_on_c, 2, 45, 64
4, 10139, Note_on_c, 2, 45, 0
4, 10147, Note_on_c, 2, 41, 64
4, 10199, Note_on_c, 2, 41, 0
4, 10207, Note_on_c, 2, 43, 64
4, 10259, Note_on_c, 2, 43, 0
4, 10267, Note_on_c, 2, 45, 64
4, 10319, Note_on_c, 2, 45, 0
4, 10327, Note_on_c, 2, 46, 64
4, 10379, Note_on_c, 2, 46, 0
4, 10387, Note_on_c, 2, 48, 64
4, 10439, Note_on_c, 2, 48, 0
4, 10447, Note_on_c, 2, 49, 64
4, 10499, Note_on_c, 2, 49, 0
4, 10507, Note_on_c, 2, 46, 64
4, 10559, Note_on_c, 2, 46, 0
4, 10567, Note_on_c, 2, 51, 64
4, 10672, Note_on_c, 2, 51, 0
4, 10687, Note_on_c, 2, 48, 64
4, 10792, Note_on_c, 2, 48, 0
4, 10807, Note_on_c, 2, 53, 64
4, 10912, Note_on_c, 2, 53, 0
4, 10927, Note_on_c, 2, 41, 64
4, 11032, Note_on_c, 2, 41, 0
4, 11047, Note_on_c, 2, 46, 64
4, 11152, Note_on_c, 2, 46, 0
4, 11407, Note_on_c, 2, 60, 64
4, 11512, Note_on_c, 2, 60, 0
4, 11527, Note_on_c, 2, 61, 64
4, 11579, Note_on_c, 2, 61, 0
4, 11587, Note_on_c, 2, 60, 64
4, 11639, Note_on_c, 2, 60, 0
4, 11647, Note_on_c, 2, 58, 64
4, 11699, Note_on_c, 2, 58, 0
4, 11707, Note_on_c, 2, 57, 64
4, 11759, Note_on_c, 2, 57, 0
4, 11767, Note_on_c, 2, 58, 64
4, 11872, Note_on_c, 2, 58, 0
4, 11887, Note_on_c, 2, 53, 64
4, 11992, Note_on_c, 2, 53, 0
4, 12007, Note_on_c, 2, 54, 64
4, 12112, Note_on_c, 2, 54, 0
4, 12127, Note_on_c, 2, 51, 64
4, 12232, Note_on_c, 2, 51, 0
4, 12247, Note_on_c, 2, 48, 64
4, 12352, Note_on_c, 2, 48, 0
4, 12367, Note_on_c, 2, 53, 64
4, 12472, Note_on_c, 2, 53, 0
4, 12487, Note_on_c, 2, 49, 64
4, 12592, Note_on_c, 2, 49, 0
4, 12607, Note_on_c, 2, 46, 64
4, 12712, Note_on_c, 2, 46, 0
4, 12727, Note_on_c, 2, 58, 64
4, 12832, Note_on_c, 2, 58, 0
4, 12847, Note_on_c, 2, 58, 64
4, 12952, Note_on_c, 2, 58, 0
4, 12967, Note_on_c, 2, 58, 64
4, 13072, Note_on_c, 2, 58, 0
4, 13087, Note_on_c, 2, 56, 64
4, 13139, Note_on_c, 2, 56, 0
4, 13147, Note_on_c, 2, 58, 64
4, 13199, Note_on_c, 2, 58, 0
4, 13207, Note_on_c, 2, 60, 64
4, 13312, Note_on_c, 2, 60, 0
4, 13327, Note_on_c, 2, 60, 64
4, 13432, Note_on_c, 2, 60, 0
4, 13447, Note_on_c, 2, 60, 64
4, 13552, Note_on_c, 2, 60, 0
4, 13567, Note_on_c, 2, 58, 64
4, 13619, Note_on_c, 2, 58, 0
4, 13627, Note_on_c, 2, 60, 64
4, 13679, Note_on_c, 2, 60, 0
4, 13687, Note_on_c, 2, 61, 64
4, 13792, Note_on_c, 2, 61, 0
4, 13807, Note_on_c, 2, 61, 64
4, 13912, Note_on_c, 2, 61, 0
4, 13927, Note_on_c, 2, 61, 64
4, 14032, Note_on_c, 2, 61, 0
4, 14047, Note_on_c, 2, 60, 64
4, 14099, Note_on_c, 2, 60, 0
4, 14107, Note_on_c, 2, 58, 64
4, 14159, Note_on_c, 2, 58, 0
4, 14167, Note_on_c, 2, 60, 64
4, 14272, Note_on_c, 2, 60, 0
4, 14287, Note_on_c, 2, 63, 64
4, 14392, Note_on_c, 2, 63, 0
4, 14407, Note_on_c, 2, 56, 64
4, 14632, Note_on_c, 2, 56, 0
4, 14707, Note_on_c, 2, 49, 64
4, 14759, Note_on_c, 2, 49, 0
4, 14767, Note_on_c, 2, 51, 64
4, 14819, Note_on_c, 2, 51, 0
4, 14827, Note_on_c, 2, 53, 64
4, 14879, Note_on_c, 2, 53, 0
4, 14887, Note_on_c, 2, 54, 64
4, 14939, Note_on_c, 2, 54, 0
4, 14947, Note_on_c, 2, 56, 64
4, 14999, Note_on_c, 2, 56, 0
4, 15007, Note_on_c, 2, 58, 64
4, 15059, Note_on_c, 2, 58, 0
4, 15067, Note_on_c, 2, 54, 64
4, 15119, Note_on_c, 2, 54, 0
4, 15127, Note_on_c, 2, 56, 64
4, 15352, Note_on_c, 2, 56, 0
4, 15367, Note_on_c, 2, 49, 64
4, 15419, Note_on_c, 2, 49, 0
4, 15427, Note_on_c, 2, 53, 64
4, 15479, Note_on_c, 2, 53, 0
4, 15487, Note_on_c, 2, 54, 64
4, 15539, Note_on_c, 2, 54, 0
4, 15547, Note_on_c, 2, 56, 64
4, 15599, Note_on_c, 2, 56, 0
4, 15607, Note_on_c, 2, 58, 64
4, 15659, Note_on_c, 2, 58, 0
4, 15667, Note_on_c, 2, 60, 64
4, 15719, Note_on_c, 2, 60, 0
4, 15727, Note_on_c, 2, 61, 64
4, 15779, Note_on_c, 2, 61, 0
4, 15787, Note_on_c, 2, 58, 64
4, 15839, Note_on_c, 2, 58, 0
4, 15847, Note_on_c, 2, 63, 64
4, 15899, Note_on_c, 2, 63, 0
4, 15907, Note_on_c, 2, 65, 64
4, 15959, Note_on_c, 2, 65, 0
4, 15967, Note_on_c, 2, 63, 64
4, 16019, Note_on_c, 2, 63, 0
4, 16027, Note_on_c, 2, 61, 64
4, 16079, Note_on_c, 2, 61, 0
4, 16087, Note_on_c, 2, 60, 64
4, 16192, Note_on_c, 2, 60, 0
4, 16207, Note_on_c, 2, 56, 64
4, 16312, Note_on_c, 2, 56, 0
4, 16327, Note_on_c, 2, 61, 64
4, 16552, Note_on_c, 2, 61, 0
4, 16687, Note_on_c, 2, 56, 64
4, 16792, Note_on_c, 2, 56, 0
4, 16807, Note_on_c, 2, 58, 64
4, 16859, Note_on_c, 2, 58, 0
4, 16867, Note_on_c, 2, 56, 64
4, 16919, Note_on_c, 2, 56, 0
4, 16927, Note_on_c, 2, 55, 64
4, 16979, Note_on_c, 2, 55, 0
4, 16987, Note_on_c, 2, 53, 64
4, 17039, Note_on_c, 2, 53, 0
4, 17047, Note_on_c, 2, 51, 64
4, 17099, Note_on_c, 2, 51, 0
4, 17107, Note_on_c, 2, 49, 64
4, 17159, Note_on_c, 2, 49, 0
4, 17167, Note_on_c, 2, 48, 64
4, 17219, Note_on_c, 2, 48, 0
4, 17227, Note_on_c, 2, 46, 64
4, 17279, Note_on_c, 2, 46, 0
4, 17287, Note_on_c, 2, 44, 64
4, 17339, Note_on_c, 2, 44, 0
4, 17347, Note_on_c, 2, 46, 64
4, 17399, Note_on_c, 2, 46, 0
4, 17407, Note_on_c, 2, 48, 64
4, 17459, Note_on_c, 2, 48, 0
4, 17467, Note_on_c, 2, 49, 64
4, 17519, Note_on_c, 2, 49, 0
4, 17527, Note_on_c, 2, 51, 64
4, 17579, Note_on_c, 2, 51, 0
4, 17587, Note_on_c, 2, 53, 64
4, 17639, Note_on_c, 2, 53, 0
4, 17647, Note_on_c, 2, 54, 64
4, 17699, Note_on_c, 2, 54, 0
4, 17707, Note_on_c, 2, 51, 64
4, 17759, Note_on_c, 2, 51, 0
4, 17767, Note_on_c, 2, 53, 64
4, 17819, Note_on_c, 2, 53, 0
4, 17827, Note_on_c, 2, 51, 64
4, 17879, Note_on_c, 2, 51, 0
4, 17887, Note_on_c, 2, 49, 64
4, 17939, Note_on_c, 2, 49, 0
4, 17947, Note_on_c, 2, 51, 64
4, 17999, Note_on_c, 2, 51, 0
4, 18007, Note_on_c, 2, 53, 64
4, 18059, Note_on_c, 2, 53, 0
4, 18067, Note_on_c, 2, 55, 64
4, 18119, Note_on_c, 2, 55, 0
4, 18127, Note_on_c, 2, 56, 64
4, 18179, Note_on_c, 2, 56, 0
4, 18187, Note_on_c, 2, 53, 64
4, 18239, Note_on_c, 2, 53, 0
4, 18247, Note_on_c, 2, 61, 64
4, 18299, Note_on_c, 2, 61, 0
4, 18307, Note_on_c, 2, 60, 64
4, 18359, Note_on_c, 2, 60, 0
4, 18367, Note_on_c, 2, 58, 64
4, 18419, Note_on_c, 2, 58, 0
4, 18427, Note_on_c, 2, 56, 64
4, 18479, Note_on_c, 2, 56, 0
4, 18487, Note_on_c, 2, 55, 64
4, 18539, Note_on_c, 2, 55, 0
4, 18547, Note_on_c, 2, 53, 64
4, 18599, Note_on_c, 2, 53, 0
4, 18607, Note_on_c, 2, 51, 64
4, 18659, Note_on_c, 2, 51, 0
4, 18667, Note_on_c, 2, 55, 64
4, 18719, Note_on_c, 2, 55, 0
4, 18727, Note_on_c, 2, 48, 64
4, 18779, Note_on_c, 2, 48, 0
4, 18787, Note_on_c, 2, 53, 64
4, 18839, Note_on_c, 2, 53, 0
4, 18847, Note_on_c, 2, 51, 64
4, 18899, Note_on_c, 2, 51, 0
4, 18907, Note_on_c, 2, 49, 64
4, 18959, Note_on_c, 2, 49, 0
4, 18967, Note_on_c, 2, 48, 64
4, 19019, Note_on_c, 2, 48, 0
4, 19027, Note_on_c, 2, 46, 64
4, 19079, Note_on_c, 2, 46, 0
4, 19087, Note_on_c, 2, 44, 64
4, 19139, Note_on_c, 2, 44, 0
4, 19147, Note_on_c, 2, 48, 64
4, 19199, Note_on_c, 2, 48, 0
4, 19207, Note_on_c, 2, 37, 64
4, 19312, Note_on_c, 2, 37, 0
4, 19327, Note_on_c, 2, 53, 64
4, 19432, Note_on_c, 2, 53, 0
4, 19447, Note_on_c, 2, 49, 64
4, 19552, Note_on_c, 2, 49, 0
4, 19567, Note_on_c, 2, 51, 64
4, 19672, Note_on_c, 2, 51, 0
4, 19687, Note_on_c, 2, 56, 64
4, 19739, Note_on_c, 2, 56, 0
4, 19747, Note_on_c, 2, 55, 64
4, 19799, Note_on_c, 2, 55, 0
4, 19807, Note_on_c, 2, 53, 64
4, 19859, Note_on_c, 2, 53, 0
4, 19867, Note_on_c, 2, 51, 64
4, 19919, Note_on_c, 2, 51, 0
4, 19927, Note_on_c, 2, 53, 64
4, 20032, Note_on_c, 2, 53, 0
4, 20047, Note_on_c, 2, 48, 64
4, 20152, Note_on_c, 2, 48, 0
4, 20167, Note_on_c, 2, 49, 64
4, 20272, Note_on_c, 2, 49, 0
4, 20287, Note_on_c, 2, 46, 64
4, 20392, Note_on_c, 2, 46, 0
4, 20407, Note_on_c, 2, 43, 64
4, 20512, Note_on_c, 2, 43, 0
4, 20527, Note_on_c, 2, 51, 64
4, 20632, Note_on_c, 2, 51, 0
4, 20647, Note_on_c, 2, 48, 64
4, 20699, Note_on_c, 2, 48, 0
4, 20707, Note_on_c, 2, 46, 64
4, 20759, Note_on_c, 2, 46, 0
4, 20767, Note_on_c, 2, 44, 64
4, 20819, Note_on_c, 2, 44, 0
4, 20827, Note_on_c, 2, 46, 64
4, 20879, Note_on_c, 2, 46, 0
4, 20887, Note_on_c, 2, 48, 64
4, 20939, Note_on_c, 2, 48, 0
4, 20947, Note_on_c, 2, 50, 64
4, 20999, Note_on_c, 2, 50, 0
4, 21007, Note_on_c, 2, 51, 64
4, 21059, Note_on_c, 2, 51, 0
4, 21067, Note_on_c, 2, 48, 64
4, 21119, Note_on_c, 2, 48, 0
4, 21127, Note_on_c, 2, 50, 64
4, 21179, Note_on_c, 2, 50, 0
4, 21187, Note_on_c, 2, 48, 64
4, 21239, Note_on_c, 2, 48, 0
4, 21247, Note_on_c, 2, 46, 64
4, 21299, Note_on_c, 2, 46, 0
4, 21307, Note_on_c, 2, 48, 64
4, 21359, Note_on_c, 2, 48, 0
4, 21367, Note_on_c, 2, 50, 64
4, 21419, Note_on_c, 2, 50, 0
4, 21427, Note_on_c, 2, 51, 64
4, 21479, Note_on_c, 2, 51, 0
4, 21487, Note_on_c, 2, 53, 64
4, 21539, Note_on_c, 2, 53, 0
4, 21547, Note_on_c, 2, 50, 64
4, 21599, Note_on_c, 2, 50, 0
4, 21607, Note_on_c, 2, 51, 64
4, 21659, Note_on_c, 2, 51, 0
4, 21667, Note_on_c, 2, 53, 64
4, 21719, Note_on_c, 2, 53, 0
4, 21727, Note_on_c, 2, 54, 64
4, 21779, Note_on_c, 2, 54, 0
4, 21787, Note_on_c, 2, 53, 64
4, 21839, Note_on_c, 2, 53, 0
4, 21847, Note_on_c, 2, 51, 64
4, 21899, Note_on_c, 2, 51, 0
4, 21907, Note_on_c, 2, 49, 64
4, 21959, Note_on_c, 2, 49, 0
4, 21967, Note_on_c, 2, 47, 64
4, 22019, Note_on_c, 2, 47, 0
4, 22027, Note_on_c, 2, 46, 64
4, 22079, Note_on_c, 2, 46, 0
4, 22087, Note_on_c, 2, 47, 64
4, 22139, Note_on_c, 2, 47, 0
4, 22147, Note_on_c, 2, 51, 64
4, 22199, Note_on_c, 2, 51, 0
4, 22207, Note_on_c, 2, 49, 64
4, 22259, Note_on_c, 2, 49, 0
4, 22267, Note_on_c, 2, 47, 64
4, 22319, Note_on_c, 2, 47, 0
4, 22327, Note_on_c, 2, 46, 64
4, 22379, Note_on_c, 2, 46, 0
4, 22387, Note_on_c, 2, 44, 64
4, 22439, Note_on_c, 2, 44, 0
4, 22447, Note_on_c, 2, 42, 64
4, 22499, Note_on_c, 2, 42, 0
4, 22507, Note_on_c, 2, 41, 64
4, 22559, Note_on_c, 2, 41, 0
4, 22567, Note_on_c, 2, 42, 64
4, 22672, Note_on_c, 2, 42, 0
4, 22687, Note_on_c, 2, 44, 64
4, 22792, Note_on_c, 2, 44, 0
4, 22807, Note_on_c, 2, 46, 64
4, 22859, Note_on_c, 2, 46, 0
4, 22867, Note_on_c, 2, 42, 64
4, 22919, Note_on_c, 2, 42, 0
4, 22927, Note_on_c, 2, 44, 64
4, 22979, Note_on_c, 2, 44, 0
4, 22987, Note_on_c, 2, 46, 64
4, 23039, Note_on_c, 2, 46, 0
4, 23047, Note_on_c, 2, 47, 64
4, 23099, Note_on_c, 2, 47, 0
4, 23107, Note_on_c, 2, 49, 64
4, 23159, Note_on_c, 2, 49, 0
4, 23167, Note_on_c, 2, 51, 64
4, 23219, Note_on_c, 2, 51, 0
4, 23227, Note_on_c, 2, 47, 64
4, 23279, Note_on_c, 2, 47, 0
4, 23287, Note_on_c, 2, 49, 64
4, 23339, Note_on_c, 2, 49, 0
4, 23347, Note_on_c, 2, 51, 64
4, 23399, Note_on_c, 2, 51, 0
4, 23407, Note_on_c, 2, 53, 64
4, 23459, Note_on_c, 2, 53, 0
4, 23467, Note_on_c, 2, 49, 64
4, 23519, Note_on_c, 2, 49, 0
4, 23527, Note_on_c, 2, 54, 64
4, 23579, Note_on_c, 2, 54, 0
4, 23587, Note_on_c, 2, 56, 64
4, 23639, Note_on_c, 2, 56, 0
4, 23647, Note_on_c, 2, 54, 64
4, 23699, Note_on_c, 2, 54, 0
4, 23707, Note_on_c, 2, 53, 64
4, 23759, Note_on_c, 2, 53, 0
4, 23767, Note_on_c, 2, 51, 64
4, 23819, Note_on_c, 2, 51, 0
4, 23827, Note_on_c, 2, 53, 64
4, 23879, Note_on_c, 2, 53, 0
4, 23887, Note_on_c, 2, 54, 64
4, 23939, Note_on_c, 2, 54, 0
4, 23947, Note_on_c, 2, 51, 64
4, 23999, Note_on_c, 2, 51, 0
4, 24007, Note_on_c, 2, 56, 64
4, 24059, Note_on_c, 2, 56, 0
4, 24067, Note_on_c, 2, 58, 64
4, 24119, Note_on_c, 2, 58, 0
4, 24127, Note_on_c, 2, 56, 64
4, 24179, Note_on_c, 2, 56, 0
4, 24187, Note_on_c, 2, 54, 64
4, 24239, Note_on_c, 2, 54, 0
4, 24247, Note_on_c, 2, 53, 64
4, 24299, Note_on_c, 2, 53, 0
4, 24307, Note_on_c, 2, 54, 64
4, 24359, Note_on_c, 2, 54, 0
4, 24367, Note_on_c, 2, 56, 64
4, 24419, Note_on_c, 2, 56, 0
4, 24427, Note_on_c, 2, 53, 64
4, 24479, Note_on_c, 2, 53, 0
4, 24487, Note_on_c, 2, 50, 64
4, 24539, Note_on_c, 2, 50, 0
4, 24547, Note_on_c, 2, 46, 64
4, 24599, Note_on_c, 2, 46, 0
4, 24607, Note_on_c, 2, 48, 64
4, 24659, Note_on_c, 2, 48, 0
4, 24667, Note_on_c, 2, 50, 64
4, 24719, Note_on_c, 2, 50, 0
4, 24727, Note_on_c, 2, 51, 64
4, 24779, Note_on_c, 2, 51, 0
4, 24787, Note_on_c, 2, 53, 64
4, 24839, Note_on_c, 2, 53, 0
4, 24847, Note_on_c, 2, 54, 64
4, 24899, Note_on_c, 2, 54, 0
4, 24907, Note_on_c, 2, 51, 64
4, 24959, Note_on_c, 2, 51, 0
4, 24967, Note_on_c, 2, 59, 64
4, 25019, Note_on_c, 2, 59, 0
4, 25027, Note_on_c, 2, 58, 64
4, 25079, Note_on_c, 2, 58, 0
4, 25087, Note_on_c, 2, 56, 64
4, 25139, Note_on_c, 2, 56, 0
4, 25147, Note_on_c, 2, 58, 64
4, 25199, Note_on_c, 2, 58, 0
4, 25207, Note_on_c, 2, 59, 64
4, 25432, Note_on_c, 2, 59, 0
4, 25447, Note_on_c, 2, 58, 64
4, 25912, Note_on_c, 2, 58, 0
4, 26047, Note_on_c, 2, 51, 64
4, 26099, Note_on_c, 2, 51, 0
4, 26107, Note_on_c, 2, 53, 64
4, 26159, Note_on_c, 2, 53, 0
4, 26167, Note_on_c, 2, 54, 64
4, 26219, Note_on_c, 2, 54, 0
4, 26227, Note_on_c, 2, 51, 64
4, 26279, Note_on_c, 2, 51, 0
4, 26287, Note_on_c, 2, 54, 64
4, 26339, Note_on_c, 2, 54, 0
4, 26347, Note_on_c, 2, 58, 64
4, 26399, Note_on_c, 2, 58, 0
4, 26407, Note_on_c, 2, 63, 64
4, 26459, Note_on_c, 2, 63, 0
4, 26467, Note_on_c, 2, 62, 64
4, 26519, Note_on_c, 2, 62, 0
4, 26527, Note_on_c, 2, 63, 64
4, 26752, Note_on_c, 2, 63, 0
4, 26767, Note_on_c, 2, 62, 64
4, 26872, Note_on_c, 2, 62, 0
4, 26887, Note_on_c, 2, 63, 64
4, 26939, Note_on_c, 2, 63, 0
4, 26947, Note_on_c, 2, 61, 64
4, 26999, Note_on_c, 2, 61, 0
4, 27007, Note_on_c, 2, 59, 64
4, 27059, Note_on_c, 2, 59, 0
4, 27067, Note_on_c, 2, 58, 64
4, 27119, Note_on_c, 2, 58, 0
4, 27127, Note_on_c, 2, 59, 64
4, 27179, Note_on_c, 2, 59, 0
4, 27187, Note_on_c, 2, 58, 64
4, 27239, Note_on_c, 2, 58, 0
4, 27247, Note_on_c, 2, 56, 64
4, 27299, Note_on_c, 2, 56, 0
4, 27307, Note_on_c, 2, 54, 64
4, 27359, Note_on_c, 2, 54, 0
4, 27367, Note_on_c, 2, 56, 64
4, 27419, Note_on_c, 2, 56, 0
4, 27427, Note_on_c, 2, 54, 64
4, 27479, Note_on_c, 2, 54, 0
4, 27487, Note_on_c, 2, 53, 64
4, 27539, Note_on_c, 2, 53, 0
4, 27547, Note_on_c, 2, 51, 64
4, 27599, Note_on_c, 2, 51, 0
4, 27607, Note_on_c, 2, 50, 64
4, 27659, Note_on_c, 2, 50, 0
4, 27667, Note_on_c, 2, 46, 64
4, 27719, Note_on_c, 2, 46, 0
4, 27727, Note_on_c, 2, 48, 64
4, 27779, Note_on_c, 2, 48, 0
4, 27787, Note_on_c, 2, 50, 64
4, 27839, Note_on_c, 2, 50, 0
4, 27847, Note_on_c, 2, 51, 64
4, 27899, Note_on_c, 2, 51, 0
4, 27907, Note_on_c, 2, 53, 64
4, 27959, Note_on_c, 2, 53, 0
4, 27967, Note_on_c, 2, 54, 64
4, 28019, Note_on_c, 2, 54, 0
4, 28027, Note_on_c, 2, 56, 64
4, 28079, Note_on_c, 2, 56, 0
4, 28087, Note_on_c, 2, 54, 64
4, 28192, Note_on_c, 2, 54, 0
4, 28207, Note_on_c, 2, 59, 64
4, 28312, Note_on_c, 2, 59, 0
4, 28327, Note_on_c, 2, 53, 64
4, 28379, Note_on_c, 2, 53, 0
4, 28387, Note_on_c, 2, 54, 64
4, 28439, Note_on_c, 2, 54, 0
4, 28447, Note_on_c, 2, 56, 64
4, 28499, Note_on_c, 2, 56, 0
4, 28507, Note_on_c, 2, 58, 64
4, 28559, Note_on_c, 2, 58, 0
4, 28567, Note_on_c, 2, 56, 64
4, 28672, Note_on_c, 2, 56, 0
4, 28687, Note_on_c, 2, 61, 64
4, 28792, Note_on_c, 2, 61, 0
4, 28807, Note_on_c, 2, 54, 64
4, 28912, Note_on_c, 2, 54, 0
4, 28927, Note_on_c, 2, 53, 64
4, 29032, Note_on_c, 2, 53, 0
4, 29047, Note_on_c, 2, 54, 64
4, 29152, Note_on_c, 2, 54, 0
4, 29167, Note_on_c, 2, 51, 64
4, 29272, Note_on_c, 2, 51, 0
4, 29287, Note_on_c, 2, 58, 64
4, 29392, Note_on_c, 2, 58, 0
4, 29407, Note_on_c, 2, 61, 64
4, 29512, Note_on_c, 2, 61, 0
4, 29527, Note_on_c, 2, 54, 64
4, 29579, Note_on_c, 2, 54, 0
4, 29587, Note_on_c, 2, 53, 64
4, 29639, Note_on_c, 2, 53, 0
4, 29647, Note_on_c, 2, 51, 64
4, 29699, Note_on_c, 2, 51, 0
4, 29707, Note_on_c, 2, 49, 64
4, 29759, Note_on_c, 2, 49, 0
4, 29767, Note_on_c, 2, 51, 64
4, 29819, Note_on_c, 2, 51, 0
4, 29827, Note_on_c, 2, 48, 64
4, 29879, Note_on_c, 2, 48, 0
4, 29887, Note_on_c, 2, 49, 64
4, 29939, Note_on_c, 2, 49, 0
4, 29947, Note_on_c, 2, 51, 64
4, 29999, Note_on_c, 2, 51, 0
4, 30007, Note_on_c, 2, 53, 64
4, 30059, Note_on_c, 2, 53, 0
4, 30067, Note_on_c, 2, 51, 64
4, 30119, Note_on_c, 2, 51, 0
4, 30127, Note_on_c, 2, 49, 64
4, 30179, Note_on_c, 2, 49, 0
4, 30187, Note_on_c, 2, 48, 64
4, 30239, Note_on_c, 2, 48, 0
4, 30247, Note_on_c, 2, 46, 64
4, 30539, Note_on_c, 2, 46, 0
4, 30547, Note_on_c, 2, 48, 64
4, 30599, Note_on_c, 2, 48, 0
4, 30607, Note_on_c, 2, 49, 64
4, 30659, Note_on_c, 2, 49, 0
4, 30667, Note_on_c, 2, 46, 64
4, 30719, Note_on_c, 2, 46, 0
4, 30727, Note_on_c, 2, 48, 64
4, 30779, Note_on_c, 2, 48, 0
4, 30787, Note_on_c, 2, 49, 64
4, 30839, Note_on_c, 2, 49, 0
4, 30847, Note_on_c, 2, 51, 64
4, 30952, Note_on_c, 2, 51, 0
4, 30967, Note_on_c, 2, 45, 64
4, 31072, Note_on_c, 2, 45, 0
4, 31087, Note_on_c, 2, 46, 64
4, 31139, Note_on_c, 2, 46, 0
4, 31147, Note_on_c, 2, 48, 64
4, 31199, Note_on_c, 2, 48, 0
4, 31207, Note_on_c, 2, 49, 64
4, 31259, Note_on_c, 2, 49, 0
4, 31267, Note_on_c, 2, 51, 64
4, 31319, Note_on_c, 2, 51, 0
4, 31327, Note_on_c, 2, 49, 64
4, 31379, Note_on_c, 2, 49, 0
4, 31387, Note_on_c, 2, 48, 64
4, 31439, Note_on_c, 2, 48, 0
4, 31447, Note_on_c, 2, 46, 64
4, 31499, Note_on_c, 2, 46, 0
4, 31507, Note_on_c, 2, 44, 64
4, 31559, Note_on_c, 2, 44, 0
4, 31567, Note_on_c, 2, 42, 64
4, 31619, Note_on_c, 2, 42, 0
4, 31627, Note_on_c, 2, 46, 64
4, 31679, Note_on_c, 2, 46, 0
4, 31687, Note_on_c, 2, 39, 64
4, 31792, Note_on_c, 2, 39, 0
4, 32227, Note_on_c, 2, 54, 64
4, 32279, Note_on_c, 2, 54, 0
4, 32287, Note_on_c, 2, 53, 64
4, 32339, Note_on_c, 2, 53, 0
4, 32347, Note_on_c, 2, 51, 64
4, 32399, Note_on_c, 2, 51, 0
4, 32407, Note_on_c, 2, 49, 64
4, 32459, Note_on_c, 2, 49, 0
4, 32467, Note_on_c, 2, 48, 64
4, 32519, Note_on_c, 2, 48, 0
4, 32527, Note_on_c, 2, 46, 64
4, 32579, Note_on_c, 2, 46, 0
4, 32587, Note_on_c, 2, 49, 64
4, 32639, Note_on_c, 2, 49, 0
4, 32647, Note_on_c, 2, 42, 64
4, 32752, Note_on_c, 2, 42, 0
4, 32767, Note_on_c, 2, 39, 64
4, 32872, Note_on_c, 2, 39, 0
4, 32887, Note_on_c, 2, 41, 64
4, 32992, Note_on_c, 2, 41, 0
4, 33007, Note_on_c, 2, 53, 64
4, 33112, Note_on_c, 2, 53, 0
4, 33127, Note_on_c, 2, 46, 64
4, 33179, Note_on_c, 2, 46, 0
4, 33187, Note_on_c, 2, 48, 64
4, 33239, Note_on_c, 2, 48, 0
4, 33247, Note_on_c, 2, 49, 64
4, 33299, Note_on_c, 2, 49, 0
4, 33307, Note_on_c, 2, 51, 64
4, 33359, Note_on_c, 2, 51, 0
4, 33367, Note_on_c, 2, 53, 64
4, 33419, Note_on_c, 2, 53, 0
4, 33427, Note_on_c, 2, 54, 64
4, 33479, Note_on_c, 2, 54, 0
4, 33487, Note_on_c, 2, 56, 64
4, 33539, Note_on_c, 2, 56, 0
4, 33547, Note_on_c, 2, 53, 64
4, 33599, Note_on_c, 2, 53, 0
4, 33607, Note_on_c, 2, 54, 64
4, 33659, Note_on_c, 2, 54, 0
4, 33667, Note_on_c, 2, 56, 64
4, 33719, Note_on_c, 2, 56, 0
4, 33727, Note_on_c, 2, 58, 64
4, 33779, Note_on_c, 2, 58, 0
4, 33787, Note_on_c, 2, 60, 64
4, 33839, Note_on_c, 2, 60, 0
4, 33847, Note_on_c, 2, 61, 64
4, 33899, Note_on_c, 2, 61, 0
4, 33907, Note_on_c, 2, 63, 64
4, 33959, Note_on_c, 2, 63, 0
4, 33967, Note_on_c, 2, 61, 64
4, 34019, Note_on_c, 2, 61, 0
4, 34027, Note_on_c, 2, 60, 64
4, 34079, Note_on_c, 2, 60, 0
4, 34087, Note_on_c, 2, 58, 64
4, 34139, Note_on_c, 2, 58, 0
4, 34147, Note_on_c, 2, 56, 64
4, 34199, Note_on_c, 2, 56, 0
4, 34207, Note_on_c, 2, 54, 64
4, 34259, Note_on_c, 2, 54, 0
4, 34267, Note_on_c, 2, 53, 64
4, 34319, Note_on_c, 2, 53, 0
4, 34327, Note_on_c, 2, 51, 64
4, 34379, Note_on_c, 2, 51, 0
4, 34387, Note_on_c, 2, 53, 64
4, 34439, Note_on_c, 2, 53, 0
4, 34447, Note_on_c, 2, 54, 64
4, 34499, Note_on_c, 2, 54, 0
4, 34507, Note_on_c, 2, 51, 64
4, 34559, Note_on_c, 2, 51, 0
4, 34567, Note_on_c, 2, 53, 64
4, 35752, Note_on_c, 2, 53, 0
4, 35767, Note_on_c, 2, 65, 64
4, 36539, Note_on_c, 2, 65, 0
4, 36547, Note_on_c, 2, 66, 64
4, 36599, Note_on_c, 2, 66, 0
4, 36607, Note_on_c, 2, 65, 64
4, 36659, Note_on_c, 2, 65, 0
4, 36667, Note_on_c, 2, 63, 64
4, 36719, Note_on_c, 2, 63, 0
4, 36727, Note_on_c, 2, 62, 64
4, 36779, Note_on_c, 2, 62, 0
4, 36787, Note_on_c, 2, 60, 64
4, 36839, Note_on_c, 2, 60, 0
4, 36847, Note_on_c, 2, 58, 64
4, 36899, Note_on_c, 2, 58, 0
4, 36907, Note_on_c, 2, 62, 64
4, 36959, Note_on_c, 2, 62, 0
4, 36967, Note_on_c, 2, 51, 64
4, 37019, Note_on_c, 2, 51, 0
4, 37027, Note_on_c, 2, 53, 64
4, 37079, Note_on_c, 2, 53, 0
4, 37087, Note_on_c, 2, 54, 64
4, 37139, Note_on_c, 2, 54, 0
4, 37147, Note_on_c, 2, 56, 64
4, 37199, Note_on_c, 2, 56, 0
4, 37207, Note_on_c, 2, 58, 64
4, 37259, Note_on_c, 2, 58, 0
4, 37267, Note_on_c, 2, 60, 64
4, 37319, Note_on_c, 2, 60, 0
4, 37327, Note_on_c, 2, 62, 64
4, 37379, Note_on_c, 2, 62, 0
4, 37387, Note_on_c, 2, 58, 64
4, 37439, Note_on_c, 2, 58, 0
4, 37447, Note_on_c, 2, 66, 64
4, 37499, Note_on_c, 2, 66, 0
4, 37507, Note_on_c, 2, 65, 64
4, 37559, Note_on_c, 2, 65, 0
4, 37567, Note_on_c, 2, 63, 64
4, 37619, Note_on_c, 2, 63, 0
4, 37627, Note_on_c, 2, 65, 64
4, 37679, Note_on_c, 2, 65, 0
4, 37687, Note_on_c, 2, 66, 64
4, 37739, Note_on_c, 2, 66, 0
4, 37747, Note_on_c, 2, 68, 64
4, 37799, Note_on_c, 2, 68, 0
4, 37807, Note_on_c, 2, 70, 64
4, 37859, Note_on_c, 2, 70, 0
4, 37867, Note_on_c, 2, 66, 64
4, 37919, Note_on_c, 2, 66, 0
4, 37927, Note_on_c, 2, 63, 64
4, 37979, Note_on_c, 2, 63, 0
4, 37987, Note_on_c, 2, 61, 64
4, 38039, Note_on_c, 2, 61, 0
4, 38047, Note_on_c, 2, 60, 64
4, 38099, Note_on_c, 2, 60, 0
4, 38107, Note_on_c, 2, 58, 64
4, 38159, Note_on_c, 2, 58, 0
4, 38167, Note_on_c, 2, 57, 64
4, 38219, Note_on_c, 2, 57, 0
4, 38227, Note_on_c, 2, 55, 64
4, 38279, Note_on_c, 2, 55, 0
4, 38287, Note_on_c, 2, 53, 64
4, 38339, Note_on_c, 2, 53, 0
4, 38347, Note_on_c, 2, 57, 64
4, 38399, Note_on_c, 2, 57, 0
4, 38407, Note_on_c, 2, 49, 64
4, 38459, Note_on_c, 2, 49, 0
4, 38467, Note_on_c, 2, 54, 64
4, 38519, Note_on_c, 2, 54, 0
4, 38527, Note_on_c, 2, 53, 64
4, 38579, Note_on_c, 2, 53, 0
4, 38587, Note_on_c, 2, 51, 64
4, 38639, Note_on_c, 2, 51, 0
4, 38647, Note_on_c, 2, 49, 64
4, 38699, Note_on_c, 2, 49, 0
4, 38707, Note_on_c, 2, 48, 64
4, 38759, Note_on_c, 2, 48, 0
4, 38767, Note_on_c, 2, 46, 64
4, 38819, Note_on_c, 2, 46, 0
4, 38827, Note_on_c, 2, 48, 64
4, 38879, Note_on_c, 2, 48, 0
4, 38887, Note_on_c, 2, 49, 64
4, 38939, Note_on_c, 2, 49, 0
4, 38947, Note_on_c, 2, 48, 64
4, 38999, Note_on_c, 2, 48, 0
4, 39007, Note_on_c, 2, 49, 64
4, 39059, Note_on_c, 2, 49, 0
4, 39067, Note_on_c, 2, 51, 64
4, 39119, Note_on_c, 2, 51, 0
4, 39127, Note_on_c, 2, 53, 64
4, 39179, Note_on_c, 2, 53, 0
4, 39187, Note_on_c, 2, 51, 64
4, 39239, Note_on_c, 2, 51, 0
4, 39247, Note_on_c, 2, 53, 64
4, 39299, Note_on_c, 2, 53, 0
4, 39307, Note_on_c, 2, 41, 64
4, 39359, Note_on_c, 2, 41, 0
4, 39367, Note_on_c, 2, 46, 64
4, 39832, Note_on_c, 2, 46, 0
4, 39832, End_track
0, 0, End_of_file
