0, 0, Header, 1, 2, 120
1, 0, Start_track
1, 0, Time_signature, 4, 2, 24, 8
1, 0, Key_signature, 5, "major"
1, 0, Tempo, 625000
1, 0, Marker_t, "(c) Yo Tomita, 1997"
1, 21268, Tempo, 631579
1, 21362, Tempo, 638978
1, 21436, Tempo, 647948
1, 21512, Tempo, 671141
1, 21572, Tempo, 690449
1, 21624, Tempo, 715990
1, 21694, Tempo, 749064
1, 21694, End_track
2, 0, Start_track
2, 0, MIDI_port, 0
2, 0, Title_t, "BWV 892/1"
2, 0, Program_c, 0, 6
2, 4, Note_on_c, 0, 47, 64
2, 34, Note_on_c, 0, 59, 64
2, 56, Note_on_c, 0, 47, 0
2, 60, Note_on_c, 0, 59, 0
2, 64, Note_on_c, 0, 61, 64
2, 90, Note_on_c, 0, 61, 0
2, 94, Note_on_c, 0, 63, 64
2, 120, Note_on_c, 0, 63, 0
2, 124, Note_on_c, 0, 64, 64
2, 150, Note_on_c, 0, 64, 0
2, 154, Note_on_c, 0, 66, 64
2, 180, Note_on_c, 0, 66, 0
2, 184, Note_on_c, 0, 68, 64
2, 210, Note_on_c, 0, 68, 0
2, 214, Note_on_c, 0, 70, 64
2, 240, Note_on_c, 0, 70, 0
2, 244, Note_on_c, 0, 71, 64
2, 256, Note_on_c, 0, 70, 100
2, 263, Note_on_c, 0, 71, 0
2, 268, Note_on_c, 0, 71, 100
2, 274, Note_on_c, 0, 59, 64
2, 275, Note_on_c, 0, 70, 0
2, 300, Note_on_c, 0, 59, 0
2, 304, Note_on_c, 0, 58, 64
2, 330, Note_on_c, 0, 58, 0
2, 334, Note_on_c, 0, 73, 64
2, 334, Note_on_c, 0, 56, 64
2, 339, Note_on_c, 0, 71, 0
2, 360, Note_on_c, 0, 56, 0
2, 360, Note_on_c, 0, 73, 0
2, 364, Note_on_c, 0, 75, 64
2, 364, Note_on_c, 0, 54, 64
2, 380, Note_on_c, 0, 73, 64
2, 390, Note_on_c, 0, 54, 0
2, 391, Note_on_c, 0, 75, 0
2, 394, Note_on_c, 0, 52, 64
2, 396, Note_on_c, 0, 75, 64
2, 399, Note_on_c, 0, 73, 0
2, 408, Note_on_c, 0, 73, 64
2, 415, Note_on_c, 0, 75, 0
2, 420, Note_on_c, 0, 52, 0
2, 424, Note_on_c, 0, 75, 64
2, 424, Note_on_c, 0, 51, 64
2, 427, Note_on_c, 0, 73, 0
2, 436, Note_on_c, 0, 73, 64
2, 443, Note_on_c, 0, 75, 0
2, 450, Note_on_c, 0, 51, 0
2, 454, Note_on_c, 0, 71, 64
2, 454, Note_on_c, 0, 49, 64
2, 455, Note_on_c, 0, 73, 0
2, 468, Note_on_c, 0, 73, 64
2, 473, Note_on_c, 0, 71, 0
2, 480, Note_on_c, 0, 49, 0
2, 481, Note_on_c, 0, 73, 0
2, 484, Note_on_c, 0, 75, 64
2, 484, Note_on_c, 0, 47, 64
2, 510, Note_on_c, 0, 75, 0
2, 514, Note_on_c, 0, 70, 64
2, 536, Note_on_c, 0, 47, 0
2, 540, Note_on_c, 0, 70, 0
2, 544, Note_on_c, 0, 71, 64
2, 570, Note_on_c, 0, 71, 0
2, 574, Note_on_c, 0, 75, 64
2, 600, Note_on_c, 0, 75, 0
2, 604, Note_on_c, 0, 51, 64
2, 604, Note_on_c, 0, 76, 64
2, 628, Note_on_c, 0, 49, 64
2, 634, Note_on_c, 0, 70, 64
2, 635, Note_on_c, 0, 76, 0
2, 635, Note_on_c, 0, 51, 0
2, 640, Note_on_c, 0, 51, 64
2, 647, Note_on_c, 0, 49, 0
2, 652, Note_on_c, 0, 49, 64
2, 659, Note_on_c, 0, 51, 0
2, 660, Note_on_c, 0, 70, 0
2, 664, Note_on_c, 0, 51, 64
2, 664, Note_on_c, 0, 71, 64
2, 671, Note_on_c, 0, 49, 0
2, 680, Note_on_c, 0, 49, 64
2, 683, Note_on_c, 0, 51, 0
2, 690, Note_on_c, 0, 71, 0
2, 694, Note_on_c, 0, 76, 64
2, 694, Note_on_c, 0, 47, 64
2, 699, Note_on_c, 0, 49, 0
2, 708, Note_on_c, 0, 49, 64
2, 713, Note_on_c, 0, 47, 0
2, 720, Note_on_c, 0, 76, 0
2, 721, Note_on_c, 0, 49, 0
2, 724, Note_on_c, 0, 78, 64
2, 724, Note_on_c, 0, 51, 64
2, 750, Note_on_c, 0, 78, 0
2, 754, Note_on_c, 0, 71, 64
2, 776, Note_on_c, 0, 51, 0
2, 780, Note_on_c, 0, 71, 0
2, 784, Note_on_c, 0, 80, 64
2, 810, Note_on_c, 0, 80, 0
2, 814, Note_on_c, 0, 78, 64
2, 814, Note_on_c, 0, 52, 64
2, 840, Note_on_c, 0, 52, 0
2, 840, Note_on_c, 0, 78, 0
2, 844, Note_on_c, 0, 54, 64
2, 844, Note_on_c, 0, 76, 64
2, 860, Note_on_c, 0, 52, 64
2, 870, Note_on_c, 0, 76, 0
2, 871, Note_on_c, 0, 54, 0
2, 874, Note_on_c, 0, 75, 64
2, 876, Note_on_c, 0, 54, 64
2, 879, Note_on_c, 0, 52, 0
2, 888, Note_on_c, 0, 52, 64
2, 895, Note_on_c, 0, 54, 0
2, 900, Note_on_c, 0, 75, 0
2, 900, Note_on_c, 0, 54, 64
2, 904, Note_on_c, 0, 73, 64
2, 907, Note_on_c, 0, 52, 0
2, 916, Note_on_c, 0, 52, 64
2, 919, Note_on_c, 0, 54, 0
2, 928, Note_on_c, 0, 51, 64
2, 930, Note_on_c, 0, 73, 0
2, 934, Note_on_c, 0, 71, 64
2, 935, Note_on_c, 0, 52, 0
2, 944, Note_on_c, 0, 52, 64
2, 951, Note_on_c, 0, 51, 0
2, 960, Note_on_c, 0, 71, 0
2, 963, Note_on_c, 0, 52, 0
2, 964, Note_on_c, 0, 70, 64
2, 964, Note_on_c, 0, 54, 64
2, 990, Note_on_c, 0, 70, 0
2, 994, Note_on_c, 0, 65, 64
2, 1016, Note_on_c, 0, 54, 0
2, 1020, Note_on_c, 0, 65, 0
2, 1024, Note_on_c, 0, 66, 64
2, 1024, Note_on_c, 0, 58, 64
2, 1050, Note_on_c, 0, 66, 0
2, 1054, Note_on_c, 0, 73, 64
2, 1076, Note_on_c, 0, 58, 0
2, 1080, Note_on_c, 0, 73, 0
2, 1084, Note_on_c, 0, 70, 64
2, 1084, Note_on_c, 0, 61, 64
2, 1110, Note_on_c, 0, 70, 0
2, 1114, Note_on_c, 0, 73, 64
2, 1136, Note_on_c, 0, 61, 0
2, 1140, Note_on_c, 0, 73, 0
2, 1144, Note_on_c, 0, 66, 64
2, 1144, Note_on_c, 0, 58, 64
2, 1170, Note_on_c, 0, 66, 0
2, 1174, Note_on_c, 0, 73, 64
2, 1196, Note_on_c, 0, 58, 0
2, 1200, Note_on_c, 0, 73, 0
2, 1204, Note_on_c, 0, 70, 64
2, 1204, Note_on_c, 0, 54, 64
2, 1230, Note_on_c, 0, 70, 0
2, 1234, Note_on_c, 0, 65, 64
2, 1256, Note_on_c, 0, 54, 0
2, 1260, Note_on_c, 0, 65, 0
2, 1264, Note_on_c, 0, 66, 64
2, 1264, Note_on_c, 0, 58, 64
2, 1290, Note_on_c, 0, 66, 0
2, 1294, Note_on_c, 0, 73, 64
2, 1316, Note_on_c, 0, 58, 0
2, 1320, Note_on_c, 0, 73, 0
2, 1324, Note_on_c, 0, 70, 64
2, 1324, Note_on_c, 0, 61, 64
2, 1350, Note_on_c, 0, 70, 0
2, 1354, Note_on_c, 0, 73, 64
2, 1376, Note_on_c, 0, 61, 0
2, 1380, Note_on_c, 0, 73, 0
2, 1384, Note_on_c, 0, 66, 64
2, 1384, Note_on_c, 0, 52, 64
2, 1410, Note_on_c, 0, 66, 0
2, 1414, Note_on_c, 0, 73, 64
2, 1436, Note_on_c, 0, 52, 0
2, 1440, Note_on_c, 0, 73, 0
2, 1444, Note_on_c, 0, 71, 64
2, 1444, Note_on_c, 0, 51, 64
2, 1470, Note_on_c, 0, 71, 0
2, 1474, Note_on_c, 0, 65, 64
2, 1496, Note_on_c, 0, 51, 0
2, 1500, Note_on_c, 0, 65, 0
2, 1504, Note_on_c, 0, 66, 64
2, 1504, Note_on_c, 0, 59, 64
2, 1530, Note_on_c, 0, 66, 0
2, 1534, Note_on_c, 0, 75, 64
2, 1556, Note_on_c, 0, 59, 0
2, 1560, Note_on_c, 0, 75, 0
2, 1564, Note_on_c, 0, 71, 64
2, 1564, Note_on_c, 0, 63, 64
2, 1590, Note_on_c, 0, 71, 0
2, 1594, Note_on_c, 0, 75, 64
2, 1616, Note_on_c, 0, 63, 0
2, 1620, Note_on_c, 0, 75, 0
2, 1624, Note_on_c, 0, 66, 64
2, 1624, Note_on_c, 0, 59, 64
2, 1650, Note_on_c, 0, 66, 0
2, 1654, Note_on_c, 0, 75, 64
2, 1676, Note_on_c, 0, 59, 0
2, 1680, Note_on_c, 0, 75, 0
2, 1684, Note_on_c, 0, 71, 64
2, 1684, Note_on_c, 0, 54, 64
2, 1710, Note_on_c, 0, 71, 0
2, 1714, Note_on_c, 0, 65, 64
2, 1736, Note_on_c, 0, 54, 0
2, 1740, Note_on_c, 0, 65, 0
2, 1744, Note_on_c, 0, 66, 64
2, 1744, Note_on_c, 0, 59, 64
2, 1770, Note_on_c, 0, 66, 0
2, 1774, Note_on_c, 0, 75, 64
2, 1796, Note_on_c, 0, 59, 0
2, 1800, Note_on_c, 0, 75, 0
2, 1804, Note_on_c, 0, 71, 64
2, 1804, Note_on_c, 0, 63, 64
2, 1830, Note_on_c, 0, 71, 0
2, 1834, Note_on_c, 0, 75, 64
2, 1856, Note_on_c, 0, 63, 0
2, 1860, Note_on_c, 0, 75, 0
2, 1864, Note_on_c, 0, 66, 64
2, 1864, Note_on_c, 0, 59, 64
2, 1890, Note_on_c, 0, 66, 0
2, 1894, Note_on_c, 0, 75, 64
2, 1916, Note_on_c, 0, 59, 0
2, 1920, Note_on_c, 0, 75, 0
2, 1924, Note_on_c, 0, 73, 64
2, 1924, Note_on_c, 0, 46, 64
2, 1950, Note_on_c, 0, 73, 0
2, 1954, Note_on_c, 0, 65, 64
2, 1976, Note_on_c, 0, 46, 0
2, 1980, Note_on_c, 0, 65, 0
2, 1984, Note_on_c, 0, 66, 64
2, 1984, Note_on_c, 0, 61, 64
2, 2010, Note_on_c, 0, 66, 0
2, 2014, Note_on_c, 0, 76, 64
2, 2036, Note_on_c, 0, 61, 0
2, 2040, Note_on_c, 0, 76, 0
2, 2044, Note_on_c, 0, 73, 64
2, 2044, Note_on_c, 0, 64, 64
2, 2070, Note_on_c, 0, 73, 0
2, 2074, Note_on_c, 0, 76, 64
2, 2096, Note_on_c, 0, 64, 0
2, 2100, Note_on_c, 0, 76, 0
2, 2104, Note_on_c, 0, 70, 64
2, 2104, Note_on_c, 0, 61, 64
2, 2130, Note_on_c, 0, 70, 0
2, 2134, Note_on_c, 0, 76, 64
2, 2156, Note_on_c, 0, 61, 0
2, 2160, Note_on_c, 0, 76, 0
2, 2164, Note_on_c, 0, 73, 64
2, 2164, Note_on_c, 0, 58, 64
2, 2190, Note_on_c, 0, 73, 0
2, 2194, Note_on_c, 0, 65, 64
2, 2216, Note_on_c, 0, 58, 0
2, 2220, Note_on_c, 0, 65, 0
2, 2224, Note_on_c, 0, 66, 64
2, 2224, Note_on_c, 0, 61, 64
2, 2250, Note_on_c, 0, 66, 0
2, 2254, Note_on_c, 0, 76, 64
2, 2276, Note_on_c, 0, 61, 0
2, 2280, Note_on_c, 0, 76, 0
2, 2284, Note_on_c, 0, 73, 64
2, 2284, Note_on_c, 0, 58, 64
2, 2310, Note_on_c, 0, 73, 0
2, 2314, Note_on_c, 0, 76, 64
2, 2336, Note_on_c, 0, 58, 0
2, 2340, Note_on_c, 0, 76, 0
2, 2344, Note_on_c, 0, 70, 64
2, 2344, Note_on_c, 0, 54, 64
2, 2370, Note_on_c, 0, 70, 0
2, 2374, Note_on_c, 0, 76, 64
2, 2396, Note_on_c, 0, 54, 0
2, 2400, Note_on_c, 0, 76, 0
2, 2404, Note_on_c, 0, 75, 64
2, 2404, Note_on_c, 0, 47, 64
2, 2430, Note_on_c, 0, 75, 0
2, 2434, Note_on_c, 0, 70, 64
2, 2456, Note_on_c, 0, 47, 0
2, 2460, Note_on_c, 0, 70, 0
2, 2464, Note_on_c, 0, 71, 64
2, 2464, Note_on_c, 0, 63, 64
2, 2490, Note_on_c, 0, 71, 0
2, 2494, Note_on_c, 0, 78, 64
2, 2516, Note_on_c, 0, 63, 0
2, 2520, Note_on_c, 0, 78, 0
2, 2524, Note_on_c, 0, 75, 64
2, 2524, Note_on_c, 0, 66, 64
2, 2550, Note_on_c, 0, 75, 0
2, 2554, Note_on_c, 0, 78, 64
2, 2576, Note_on_c, 0, 66, 0
2, 2580, Note_on_c, 0, 78, 0
2, 2584, Note_on_c, 0, 71, 64
2, 2584, Note_on_c, 0, 63, 64
2, 2610, Note_on_c, 0, 71, 0
2, 2614, Note_on_c, 0, 78, 64
2, 2636, Note_on_c, 0, 63, 0
2, 2640, Note_on_c, 0, 78, 0
2, 2644, Note_on_c, 0, 75, 64
2, 2644, Note_on_c, 0, 59, 64
2, 2670, Note_on_c, 0, 75, 0
2, 2674, Note_on_c, 0, 70, 64
2, 2696, Note_on_c, 0, 59, 0
2, 2700, Note_on_c, 0, 70, 0
2, 2704, Note_on_c, 0, 71, 64
2, 2704, Note_on_c, 0, 63, 64
2, 2730, Note_on_c, 0, 71, 0
2, 2734, Note_on_c, 0, 78, 64
2, 2756, Note_on_c, 0, 63, 0
2, 2760, Note_on_c, 0, 78, 0
2, 2764, Note_on_c, 0, 75, 64
2, 2764, Note_on_c, 0, 59, 64
2, 2790, Note_on_c, 0, 75, 0
2, 2794, Note_on_c, 0, 78, 64
2, 2816, Note_on_c, 0, 59, 0
2, 2820, Note_on_c, 0, 78, 0
2, 2824, Note_on_c, 0, 71, 64
2, 2824, Note_on_c, 0, 54, 64
2, 2850, Note_on_c, 0, 71, 0
2, 2854, Note_on_c, 0, 78, 64
2, 2876, Note_on_c, 0, 54, 0
2, 2880, Note_on_c, 0, 78, 0
2, 2884, Note_on_c, 0, 81, 64
2, 2884, Note_on_c, 0, 51, 64
2, 2910, Note_on_c, 0, 81, 0
2, 2914, Note_on_c, 0, 76, 64
2, 2936, Note_on_c, 0, 51, 0
2, 2940, Note_on_c, 0, 76, 0
2, 2944, Note_on_c, 0, 78, 64
2, 2944, Note_on_c, 0, 59, 64
2, 2970, Note_on_c, 0, 78, 0
2, 2974, Note_on_c, 0, 81, 64
2, 2996, Note_on_c, 0, 59, 0
2, 3000, Note_on_c, 0, 81, 0
2, 3004, Note_on_c, 0, 75, 64
2, 3004, Note_on_c, 0, 54, 64
2, 3030, Note_on_c, 0, 75, 0
2, 3034, Note_on_c, 0, 78, 64
2, 3056, Note_on_c, 0, 54, 0
2, 3060, Note_on_c, 0, 78, 0
2, 3064, Note_on_c, 0, 71, 64
2, 3064, Note_on_c, 0, 51, 64
2, 3090, Note_on_c, 0, 71, 0
2, 3094, Note_on_c, 0, 78, 64
2, 3116, Note_on_c, 0, 51, 0
2, 3120, Note_on_c, 0, 78, 0
2, 3124, Note_on_c, 0, 81, 64
2, 3124, Note_on_c, 0, 47, 64
2, 3150, Note_on_c, 0, 81, 0
2, 3154, Note_on_c, 0, 78, 64
2, 3176, Note_on_c, 0, 47, 0
2, 3180, Note_on_c, 0, 78, 0
2, 3184, Note_on_c, 0, 76, 64
2, 3184, Note_on_c, 0, 54, 64
2, 3210, Note_on_c, 0, 76, 0
2, 3214, Note_on_c, 0, 75, 64
2, 3236, Note_on_c, 0, 54, 0
2, 3240, Note_on_c, 0, 75, 0
2, 3244, Note_on_c, 0, 76, 64
2, 3244, Note_on_c, 0, 59, 64
2, 3270, Note_on_c, 0, 76, 0
2, 3274, Note_on_c, 0, 75, 64
2, 3296, Note_on_c, 0, 59, 0
2, 3300, Note_on_c, 0, 75, 0
2, 3304, Note_on_c, 0, 73, 64
2, 3304, Note_on_c, 0, 51, 64
2, 3330, Note_on_c, 0, 73, 0
2, 3334, Note_on_c, 0, 71, 64
2, 3356, Note_on_c, 0, 51, 0
2, 3360, Note_on_c, 0, 71, 0
2, 3364, Note_on_c, 0, 80, 64
2, 3364, Note_on_c, 0, 52, 64
2, 3390, Note_on_c, 0, 80, 0
2, 3394, Note_on_c, 0, 76, 64
2, 3416, Note_on_c, 0, 52, 0
2, 3420, Note_on_c, 0, 76, 0
2, 3424, Note_on_c, 0, 75, 64
2, 3424, Note_on_c, 0, 56, 64
2, 3450, Note_on_c, 0, 75, 0
2, 3454, Note_on_c, 0, 73, 64
2, 3476, Note_on_c, 0, 56, 0
2, 3480, Note_on_c, 0, 73, 0
2, 3484, Note_on_c, 0, 75, 64
2, 3484, Note_on_c, 0, 46, 64
2, 3510, Note_on_c, 0, 75, 0
2, 3514, Note_on_c, 0, 73, 64
2, 3536, Note_on_c, 0, 46, 0
2, 3540, Note_on_c, 0, 73, 0
2, 3544, Note_on_c, 0, 71, 64
2, 3544, Note_on_c, 0, 56, 64
2, 3570, Note_on_c, 0, 71, 0
2, 3574, Note_on_c, 0, 70, 64
2, 3596, Note_on_c, 0, 56, 0
2, 3600, Note_on_c, 0, 70, 0
2, 3604, Note_on_c, 0, 78, 64
2, 3604, Note_on_c, 0, 51, 64
2, 3630, Note_on_c, 0, 78, 0
2, 3634, Note_on_c, 0, 75, 64
2, 3656, Note_on_c, 0, 51, 0
2, 3660, Note_on_c, 0, 75, 0
2, 3664, Note_on_c, 0, 73, 64
2, 3664, Note_on_c, 0, 54, 64
2, 3690, Note_on_c, 0, 73, 0
2, 3694, Note_on_c, 0, 71, 64
2, 3716, Note_on_c, 0, 54, 0
2, 3720, Note_on_c, 0, 71, 0
2, 3724, Note_on_c, 0, 73, 64
2, 3724, Note_on_c, 0, 44, 64
2, 3750, Note_on_c, 0, 73, 0
2, 3754, Note_on_c, 0, 71, 64
2, 3776, Note_on_c, 0, 44, 0
2, 3780, Note_on_c, 0, 71, 0
2, 3784, Note_on_c, 0, 70, 64
2, 3784, Note_on_c, 0, 54, 64
2, 3810, Note_on_c, 0, 70, 0
2, 3814, Note_on_c, 0, 68, 64
2, 3836, Note_on_c, 0, 54, 0
2, 3840, Note_on_c, 0, 68, 0
2, 3844, Note_on_c, 0, 76, 64
2, 3844, Note_on_c, 0, 49, 64
2, 3870, Note_on_c, 0, 49, 0
2, 3870, Note_on_c, 0, 76, 0
2, 3874, Note_on_c, 0, 75, 64
2, 3874, Note_on_c, 0, 51, 64
2, 3900, Note_on_c, 0, 51, 0
2, 3900, Note_on_c, 0, 75, 0
2, 3904, Note_on_c, 0, 73, 64
2, 3904, Note_on_c, 0, 52, 64
2, 3930, Note_on_c, 0, 52, 0
2, 3930, Note_on_c, 0, 73, 0
2, 3934, Note_on_c, 0, 75, 64
2, 3934, Note_on_c, 0, 54, 64
2, 3960, Note_on_c, 0, 54, 0
2, 3960, Note_on_c, 0, 75, 0
2, 3964, Note_on_c, 0, 76, 64
2, 3964, Note_on_c, 0, 56, 64
2, 3990, Note_on_c, 0, 56, 0
2, 3994, Note_on_c, 0, 58, 64
2, 4016, Note_on_c, 0, 76, 0
2, 4020, Note_on_c, 0, 58, 0
2, 4024, Note_on_c, 0, 68, 64
2, 4024, Note_on_c, 0, 59, 64
2, 4050, Note_on_c, 0, 59, 0
2, 4054, Note_on_c, 0, 56, 64
2, 4076, Note_on_c, 0, 68, 0
2, 4080, Note_on_c, 0, 56, 0
2, 4084, Note_on_c, 0, 66, 64
2, 4084, Note_on_c, 0, 58, 64
2, 4110, Note_on_c, 0, 66, 0
2, 4114, Note_on_c, 0, 68, 64
2, 4136, Note_on_c, 0, 58, 0
2, 4140, Note_on_c, 0, 68, 0
2, 4144, Note_on_c, 0, 70, 64
2, 4144, Note_on_c, 0, 61, 64
2, 4170, Note_on_c, 0, 70, 0
2, 4174, Note_on_c, 0, 71, 64
2, 4196, Note_on_c, 0, 61, 0
2, 4200, Note_on_c, 0, 71, 0
2, 4204, Note_on_c, 0, 73, 64
2, 4204, Note_on_c, 0, 58, 64
2, 4230, Note_on_c, 0, 73, 0
2, 4234, Note_on_c, 0, 75, 64
2, 4256, Note_on_c, 0, 58, 0
2, 4260, Note_on_c, 0, 75, 0
2, 4264, Note_on_c, 0, 76, 64
2, 4264, Note_on_c, 0, 54, 64
2, 4290, Note_on_c, 0, 76, 0
2, 4294, Note_on_c, 0, 73, 64
2, 4316, Note_on_c, 0, 54, 0
2, 4320, Note_on_c, 0, 73, 0
2, 4324, Note_on_c, 0, 75, 64
2, 4324, Note_on_c, 0, 59, 64
2, 4350, Note_on_c, 0, 75, 0
2, 4354, Note_on_c, 0, 76, 64
2, 4376, Note_on_c, 0, 59, 0
2, 4380, Note_on_c, 0, 76, 0
2, 4384, Note_on_c, 0, 75, 64
2, 4384, Note_on_c, 0, 47, 64
2, 4410, Note_on_c, 0, 75, 0
2, 4414, Note_on_c, 0, 73, 64
2, 4436, Note_on_c, 0, 47, 0
2, 4440, Note_on_c, 0, 73, 0
2, 4444, Note_on_c, 0, 71, 64
2, 4444, Note_on_c, 0, 59, 64
2, 4460, Note_on_c, 0, 58, 64
2, 4470, Note_on_c, 0, 71, 0
2, 4471, Note_on_c, 0, 59, 0
2, 4474, Note_on_c, 0, 70, 64
2, 4476, Note_on_c, 0, 59, 64
2, 4487, Note_on_c, 0, 58, 0
2, 4500, Note_on_c, 0, 70, 0
2, 4504, Note_on_c, 0, 68, 64
2, 4530, Note_on_c, 0, 68, 0
2, 4534, Note_on_c, 0, 66, 64
2, 4560, Note_on_c, 0, 66, 0
2, 4564, Note_on_c, 0, 65, 64
2, 4590, Note_on_c, 0, 65, 0
2, 4594, Note_on_c, 0, 61, 64
2, 4594, Note_on_c, 0, 58, 64
2, 4595, Note_on_c, 0, 59, 0
2, 4620, Note_on_c, 0, 58, 0
2, 4620, Note_on_c, 0, 61, 0
2, 4624, Note_on_c, 0, 65, 64
2, 4624, Note_on_c, 0, 56, 64
2, 4650, Note_on_c, 0, 56, 0
2, 4650, Note_on_c, 0, 65, 0
2, 4654, Note_on_c, 0, 68, 64
2, 4654, Note_on_c, 0, 54, 64
2, 4680, Note_on_c, 0, 54, 0
2, 4680, Note_on_c, 0, 68, 0
2, 4684, Note_on_c, 0, 73, 64
2, 4684, Note_on_c, 0, 53, 64
2, 4710, Note_on_c, 0, 53, 0
2, 4714, Note_on_c, 0, 49, 64
2, 4740, Note_on_c, 0, 49, 0
2, 4744, Note_on_c, 0, 53, 64
2, 4770, Note_on_c, 0, 53, 0
2, 4774, Note_on_c, 0, 56, 64
2, 4800, Note_on_c, 0, 56, 0
2, 4804, Note_on_c, 0, 58, 64
2, 4830, Note_on_c, 0, 73, 0
2, 4834, Note_on_c, 0, 71, 64
2, 4856, Note_on_c, 0, 58, 0
2, 4860, Note_on_c, 0, 71, 0
2, 4864, Note_on_c, 0, 70, 64
2, 4864, Note_on_c, 0, 61, 64
2, 4890, Note_on_c, 0, 70, 0
2, 4894, Note_on_c, 0, 68, 64
2, 4916, Note_on_c, 0, 61, 0
2, 4920, Note_on_c, 0, 68, 0
2, 4924, Note_on_c, 0, 66, 64
2, 4924, Note_on_c, 0, 51, 64
2, 4950, Note_on_c, 0, 66, 0
2, 4954, Note_on_c, 0, 65, 64
2, 4976, Note_on_c, 0, 51, 0
2, 4980, Note_on_c, 0, 65, 0
2, 4984, Note_on_c, 0, 63, 64
2, 4984, Note_on_c, 0, 54, 64
2, 5010, Note_on_c, 0, 63, 0
2, 5014, Note_on_c, 0, 73, 64
2, 5036, Note_on_c, 0, 54, 0
2, 5040, Note_on_c, 0, 73, 0
2, 5044, Note_on_c, 0, 71, 64
2, 5044, Note_on_c, 0, 56, 64
2, 5070, Note_on_c, 0, 71, 0
2, 5074, Note_on_c, 0, 70, 64
2, 5096, Note_on_c, 0, 56, 0
2, 5100, Note_on_c, 0, 70, 0
2, 5104, Note_on_c, 0, 68, 64
2, 5104, Note_on_c, 0, 59, 64
2, 5130, Note_on_c, 0, 68, 0
2, 5134, Note_on_c, 0, 66, 64
2, 5156, Note_on_c, 0, 59, 0
2, 5160, Note_on_c, 0, 66, 0
2, 5164, Note_on_c, 0, 65, 64
2, 5164, Note_on_c, 0, 49, 64
2, 5190, Note_on_c, 0, 65, 0
2, 5194, Note_on_c, 0, 63, 64
2, 5216, Note_on_c, 0, 49, 0
2, 5220, Note_on_c, 0, 63, 0
2, 5224, Note_on_c, 0, 61, 64
2, 5224, Note_on_c, 0, 61, 64
2, 5224, Note_on_c, 0, 53, 64
2, 5250, Note_on_c, 0, 61, 0
2, 5254, Note_on_c, 0, 71, 64
2, 5276, Note_on_c, 0, 53, 0
2, 5280, Note_on_c, 0, 71, 0
2, 5284, Note_on_c, 0, 66, 64
2, 5284, Note_on_c, 0, 70, 64
2, 5284, Note_on_c, 0, 54, 64
2, 5310, Note_on_c, 0, 54, 0
2, 5314, Note_on_c, 0, 42, 64
2, 5340, Note_on_c, 0, 42, 0
2, 5344, Note_on_c, 0, 44, 64
2, 5370, Note_on_c, 0, 44, 0
2, 5374, Note_on_c, 0, 46, 64
2, 5389, Note_on_c, 0, 61, 0
2, 5389, Note_on_c, 0, 70, 0
2, 5389, Note_on_c, 0, 66, 0
2, 5400, Note_on_c, 0, 46, 0
2, 5404, Note_on_c, 0, 47, 64
2, 5430, Note_on_c, 0, 47, 0
2, 5434, Note_on_c, 0, 49, 64
2, 5460, Note_on_c, 0, 49, 0
2, 5464, Note_on_c, 0, 51, 64
2, 5490, Note_on_c, 0, 51, 0
2, 5494, Note_on_c, 0, 53, 64
2, 5520, Note_on_c, 0, 53, 0
2, 5524, Note_on_c, 0, 54, 64
2, 5550, Note_on_c, 0, 54, 0
2, 5554, Note_on_c, 0, 56, 64
2, 5580, Note_on_c, 0, 56, 0
2, 5584, Note_on_c, 0, 73, 64
2, 5584, Note_on_c, 0, 70, 64
2, 5584, Note_on_c, 0, 54, 64
2, 5610, Note_on_c, 0, 54, 0
2, 5614, Note_on_c, 0, 52, 64
2, 5636, Note_on_c, 0, 70, 0
2, 5636, Note_on_c, 0, 73, 0
2, 5640, Note_on_c, 0, 52, 0
2, 5644, Note_on_c, 0, 78, 64
2, 5644, Note_on_c, 0, 72, 64
2, 5644, Note_on_c, 0, 51, 64
2, 5670, Note_on_c, 0, 51, 0
2, 5674, Note_on_c, 0, 56, 64
2, 5696, Note_on_c, 0, 78, 0
2, 5700, Note_on_c, 0, 56, 0
2, 5704, Note_on_c, 0, 75, 64
2, 5704, Note_on_c, 0, 54, 64
2, 5730, Note_on_c, 0, 54, 0
2, 5734, Note_on_c, 0, 56, 64
2, 5749, Note_on_c, 0, 72, 0
2, 5756, Note_on_c, 0, 75, 0
2, 5760, Note_on_c, 0, 56, 0
2, 5764, Note_on_c, 0, 76, 64
2, 5764, Note_on_c, 0, 73, 64
2, 5764, Note_on_c, 0, 49, 64
2, 5790, Note_on_c, 0, 49, 0
2, 5794, Note_on_c, 0, 51, 64
2, 5816, Note_on_c, 0, 73, 0
2, 5820, Note_on_c, 0, 51, 0
2, 5824, Note_on_c, 0, 68, 64
2, 5824, Note_on_c, 0, 52, 64
2, 5850, Note_on_c, 0, 52, 0
2, 5854, Note_on_c, 0, 49, 64
2, 5876, Note_on_c, 0, 68, 0
2, 5880, Note_on_c, 0, 49, 0
2, 5884, Note_on_c, 0, 69, 64
2, 5884, Note_on_c, 0, 54, 64
2, 5910, Note_on_c, 0, 54, 0
2, 5914, Note_on_c, 0, 52, 64
2, 5936, Note_on_c, 0, 69, 0
2, 5940, Note_on_c, 0, 52, 0
2, 5944, Note_on_c, 0, 70, 64
2, 5944, Note_on_c, 0, 51, 64
2, 5970, Note_on_c, 0, 51, 0
2, 5974, Note_on_c, 0, 49, 64
2, 5996, Note_on_c, 0, 70, 0
2, 6000, Note_on_c, 0, 49, 0
2, 6004, Note_on_c, 0, 71, 64
2, 6004, Note_on_c, 0, 47, 64
2, 6030, Note_on_c, 0, 47, 0
2, 6034, Note_on_c, 0, 49, 64
2, 6056, Note_on_c, 0, 76, 0
2, 6060, Note_on_c, 0, 49, 0
2, 6064, Note_on_c, 0, 75, 64
2, 6064, Note_on_c, 0, 47, 64
2, 6090, Note_on_c, 0, 47, 0
2, 6094, Note_on_c, 0, 46, 64
2, 6116, Note_on_c, 0, 75, 0
2, 6120, Note_on_c, 0, 46, 0
2, 6124, Note_on_c, 0, 76, 64
2, 6124, Note_on_c, 0, 44, 64
2, 6150, Note_on_c, 0, 44, 0
2, 6154, Note_on_c, 0, 49, 64
2, 6176, Note_on_c, 0, 76, 0
2, 6180, Note_on_c, 0, 49, 0
2, 6184, Note_on_c, 0, 77, 64
2, 6184, Note_on_c, 0, 47, 64
2, 6210, Note_on_c, 0, 47, 0
2, 6214, Note_on_c, 0, 49, 64
2, 6236, Note_on_c, 0, 77, 0
2, 6240, Note_on_c, 0, 49, 0
2, 6244, Note_on_c, 0, 78, 64
2, 6244, Note_on_c, 0, 42, 64
2, 6270, Note_on_c, 0, 42, 0
2, 6274, Note_on_c, 0, 49, 64
2, 6296, Note_on_c, 0, 71, 0
2, 6300, Note_on_c, 0, 49, 0
2, 6304, Note_on_c, 0, 70, 64
2, 6304, Note_on_c, 0, 54, 64
2, 6330, Note_on_c, 0, 54, 0
2, 6334, Note_on_c, 0, 52, 64
2, 6356, Note_on_c, 0, 70, 0
2, 6360, Note_on_c, 0, 52, 0
2, 6364, Note_on_c, 0, 71, 64
2, 6364, Note_on_c, 0, 51, 64
2, 6390, Note_on_c, 0, 51, 0
2, 6394, Note_on_c, 0, 56, 64
2, 6416, Note_on_c, 0, 71, 0
2, 6420, Note_on_c, 0, 56, 0
2, 6424, Note_on_c, 0, 72, 64
2, 6424, Note_on_c, 0, 54, 64
2, 6450, Note_on_c, 0, 54, 0
2, 6454, Note_on_c, 0, 56, 64
2, 6476, Note_on_c, 0, 72, 0
2, 6480, Note_on_c, 0, 56, 0
2, 6484, Note_on_c, 0, 73, 64
2, 6484, Note_on_c, 0, 49, 64
2, 6510, Note_on_c, 0, 49, 0
2, 6514, Note_on_c, 0, 51, 64
2, 6536, Note_on_c, 0, 78, 0
2, 6540, Note_on_c, 0, 51, 0
2, 6544, Note_on_c, 0, 77, 64
2, 6544, Note_on_c, 0, 49, 64
2, 6570, Note_on_c, 0, 49, 0
2, 6574, Note_on_c, 0, 47, 64
2, 6596, Note_on_c, 0, 77, 0
2, 6600, Note_on_c, 0, 47, 0
2, 6604, Note_on_c, 0, 78, 64
2, 6604, Note_on_c, 0, 46, 64
2, 6630, Note_on_c, 0, 46, 0
2, 6634, Note_on_c, 0, 51, 64
2, 6656, Note_on_c, 0, 78, 0
2, 6660, Note_on_c, 0, 51, 0
2, 6664, Note_on_c, 0, 79, 64
2, 6664, Note_on_c, 0, 49, 64
2, 6690, Note_on_c, 0, 49, 0
2, 6694, Note_on_c, 0, 51, 64
2, 6716, Note_on_c, 0, 79, 0
2, 6720, Note_on_c, 0, 51, 0
2, 6724, Note_on_c, 0, 80, 64
2, 6724, Note_on_c, 0, 44, 64
2, 6750, Note_on_c, 0, 73, 0
2, 6754, Note_on_c, 0, 73, 64
2, 6776, Note_on_c, 0, 44, 0
2, 6780, Note_on_c, 0, 73, 0
2, 6784, Note_on_c, 0, 71, 64
2, 6784, Note_on_c, 0, 51, 64
2, 6810, Note_on_c, 0, 71, 0
2, 6814, Note_on_c, 0, 70, 64
2, 6836, Note_on_c, 0, 51, 0
2, 6840, Note_on_c, 0, 70, 0
2, 6844, Note_on_c, 0, 71, 64
2, 6844, Note_on_c, 0, 56, 64
2, 6870, Note_on_c, 0, 71, 0
2, 6870, Note_on_c, 0, 80, 0
2, 6874, Note_on_c, 0, 75, 64
2, 6896, Note_on_c, 0, 56, 0
2, 6900, Note_on_c, 0, 75, 0
2, 6904, Note_on_c, 0, 80, 64
2, 6904, Note_on_c, 0, 47, 64
2, 6930, Note_on_c, 0, 80, 0
2, 6934, Note_on_c, 0, 78, 64
2, 6956, Note_on_c, 0, 47, 0
2, 6960, Note_on_c, 0, 78, 0
2, 6964, Note_on_c, 0, 76, 64
2, 6964, Note_on_c, 0, 49, 64
2, 6990, Note_on_c, 0, 76, 0
2, 6994, Note_on_c, 0, 75, 64
2, 7016, Note_on_c, 0, 49, 0
2, 7020, Note_on_c, 0, 75, 0
2, 7024, Note_on_c, 0, 73, 64
2, 7024, Note_on_c, 0, 51, 64
2, 7050, Note_on_c, 0, 73, 0
2, 7054, Note_on_c, 0, 71, 64
2, 7076, Note_on_c, 0, 51, 0
2, 7080, Note_on_c, 0, 71, 0
2, 7084, Note_on_c, 0, 70, 64
2, 7084, Note_on_c, 0, 52, 64
2, 7110, Note_on_c, 0, 70, 0
2, 7114, Note_on_c, 0, 71, 64
2, 7136, Note_on_c, 0, 52, 0
2, 7140, Note_on_c, 0, 71, 0
2, 7144, Note_on_c, 0, 73, 64
2, 7144, Note_on_c, 0, 46, 64
2, 7170, Note_on_c, 0, 73, 0
2, 7174, Note_on_c, 0, 68, 64
2, 7196, Note_on_c, 0, 46, 0
2, 7200, Note_on_c, 0, 68, 0
2, 7204, Note_on_c, 0, 67, 64
2, 7204, Note_on_c, 0, 51, 64
2, 7230, Note_on_c, 0, 67, 0
2, 7234, Note_on_c, 0, 68, 64
2, 7256, Note_on_c, 0, 51, 0
2, 7260, Note_on_c, 0, 68, 0
2, 7264, Note_on_c, 0, 70, 64
2, 7264, Note_on_c, 0, 49, 64
2, 7290, Note_on_c, 0, 70, 0
2, 7294, Note_on_c, 0, 64, 64
2, 7316, Note_on_c, 0, 49, 0
2, 7320, Note_on_c, 0, 64, 0
2, 7324, Note_on_c, 0, 63, 64
2, 7324, Note_on_c, 0, 47, 64
2, 7350, Note_on_c, 0, 63, 0
2, 7354, Note_on_c, 0, 61, 64
2, 7376, Note_on_c, 0, 47, 0
2, 7380, Note_on_c, 0, 61, 0
2, 7384, Note_on_c, 0, 59, 64
2, 7384, Note_on_c, 0, 43, 64
2, 7410, Note_on_c, 0, 59, 0
2, 7414, Note_on_c, 0, 58, 64
2, 7436, Note_on_c, 0, 43, 0
2, 7440, Note_on_c, 0, 58, 0
2, 7444, Note_on_c, 0, 59, 64
2, 7444, Note_on_c, 0, 44, 64
2, 7470, Note_on_c, 0, 59, 0
2, 7474, Note_on_c, 0, 63, 64
2, 7496, Note_on_c, 0, 44, 0
2, 7500, Note_on_c, 0, 63, 0
2, 7504, Note_on_c, 0, 68, 64
2, 7504, Note_on_c, 0, 40, 64
2, 7530, Note_on_c, 0, 68, 0
2, 7534, Note_on_c, 0, 59, 64
2, 7556, Note_on_c, 0, 40, 0
2, 7560, Note_on_c, 0, 59, 0
2, 7564, Note_on_c, 0, 58, 64
2, 7564, Note_on_c, 0, 37, 64
2, 7590, Note_on_c, 0, 58, 0
2, 7594, Note_on_c, 0, 68, 64
2, 7616, Note_on_c, 0, 37, 0
2, 7620, Note_on_c, 0, 68, 0
2, 7624, Note_on_c, 0, 58, 64
2, 7624, Note_on_c, 0, 39, 64
2, 7650, Note_on_c, 0, 58, 0
2, 7654, Note_on_c, 0, 67, 64
2, 7676, Note_on_c, 0, 39, 0
2, 7680, Note_on_c, 0, 67, 0
2, 7684, Note_on_c, 0, 68, 64
2, 7684, Note_on_c, 0, 44, 64
2, 7710, Note_on_c, 0, 68, 0
2, 7714, Note_on_c, 0, 59, 64
2, 7740, Note_on_c, 0, 59, 0
2, 7744, Note_on_c, 0, 61, 64
2, 7770, Note_on_c, 0, 61, 0
2, 7774, Note_on_c, 0, 63, 64
2, 7789, Note_on_c, 0, 44, 0
2, 7800, Note_on_c, 0, 63, 0
2, 7804, Note_on_c, 0, 56, 64
2, 7830, Note_on_c, 0, 56, 0
2, 7834, Note_on_c, 0, 51, 64
2, 7860, Note_on_c, 0, 51, 0
2, 7864, Note_on_c, 0, 53, 64
2, 7890, Note_on_c, 0, 53, 0
2, 7894, Note_on_c, 0, 55, 64
2, 7920, Note_on_c, 0, 55, 0
2, 7924, Note_on_c, 0, 56, 64
2, 7950, Note_on_c, 0, 56, 0
2, 7954, Note_on_c, 0, 58, 64
2, 7980, Note_on_c, 0, 58, 0
2, 7984, Note_on_c, 0, 59, 64
2, 8010, Note_on_c, 0, 59, 0
2, 8014, Note_on_c, 0, 61, 64
2, 8040, Note_on_c, 0, 61, 0
2, 8044, Note_on_c, 0, 59, 64
2, 8070, Note_on_c, 0, 59, 0
2, 8074, Note_on_c, 0, 58, 64
2, 8100, Note_on_c, 0, 58, 0
2, 8104, Note_on_c, 0, 56, 64
2, 8130, Note_on_c, 0, 56, 0
2, 8134, Note_on_c, 0, 54, 64
2, 8160, Note_on_c, 0, 54, 0
2, 8164, Note_on_c, 0, 53, 64
2, 8164, Note_on_c, 0, 37, 64
2, 8190, Note_on_c, 0, 53, 0
2, 8194, Note_on_c, 0, 56, 64
2, 8216, Note_on_c, 0, 37, 0
2, 8220, Note_on_c, 0, 56, 0
2, 8224, Note_on_c, 0, 58, 64
2, 8250, Note_on_c, 0, 58, 0
2, 8254, Note_on_c, 0, 59, 64
2, 8280, Note_on_c, 0, 59, 0
2, 8284, Note_on_c, 0, 49, 64
2, 8310, Note_on_c, 0, 49, 0
2, 8314, Note_on_c, 0, 51, 64
2, 8340, Note_on_c, 0, 51, 0
2, 8344, Note_on_c, 0, 53, 64
2, 8370, Note_on_c, 0, 53, 0
2, 8374, Note_on_c, 0, 54, 64
2, 8400, Note_on_c, 0, 54, 0
2, 8404, Note_on_c, 0, 56, 64
2, 8430, Note_on_c, 0, 56, 0
2, 8434, Note_on_c, 0, 58, 64
2, 8460, Note_on_c, 0, 58, 0
2, 8464, Note_on_c, 0, 59, 64
2, 8490, Note_on_c, 0, 59, 0
2, 8494, Note_on_c, 0, 61, 64
2, 8520, Note_on_c, 0, 61, 0
2, 8524, Note_on_c, 0, 63, 64
2, 8550, Note_on_c, 0, 63, 0
2, 8554, Note_on_c, 0, 65, 64
2, 8580, Note_on_c, 0, 65, 0
2, 8584, Note_on_c, 0, 66, 64
2, 8610, Note_on_c, 0, 66, 0
2, 8614, Note_on_c, 0, 68, 64
2, 8640, Note_on_c, 0, 68, 0
2, 8644, Note_on_c, 0, 70, 64
2, 8644, Note_on_c, 0, 42, 64
2, 8670, Note_on_c, 0, 70, 0
2, 8674, Note_on_c, 0, 66, 64
2, 8696, Note_on_c, 0, 42, 0
2, 8700, Note_on_c, 0, 66, 0
2, 8704, Note_on_c, 0, 65, 64
2, 8730, Note_on_c, 0, 65, 0
2, 8734, Note_on_c, 0, 63, 64
2, 8760, Note_on_c, 0, 63, 0
2, 8764, Note_on_c, 0, 61, 64
2, 8790, Note_on_c, 0, 61, 0
2, 8794, Note_on_c, 0, 59, 64
2, 8820, Note_on_c, 0, 59, 0
2, 8824, Note_on_c, 0, 58, 64
2, 8850, Note_on_c, 0, 58, 0
2, 8854, Note_on_c, 0, 56, 64
2, 8880, Note_on_c, 0, 56, 0
2, 8884, Note_on_c, 0, 54, 64
2, 8910, Note_on_c, 0, 54, 0
2, 8914, Note_on_c, 0, 56, 64
2, 8940, Note_on_c, 0, 56, 0
2, 8944, Note_on_c, 0, 58, 64
2, 8970, Note_on_c, 0, 58, 0
2, 8974, Note_on_c, 0, 59, 64
2, 9000, Note_on_c, 0, 59, 0
2, 9004, Note_on_c, 0, 58, 64
2, 9030, Note_on_c, 0, 58, 0
2, 9034, Note_on_c, 0, 56, 64
2, 9060, Note_on_c, 0, 56, 0
2, 9064, Note_on_c, 0, 54, 64
2, 9090, Note_on_c, 0, 54, 0
2, 9094, Note_on_c, 0, 52, 64
2, 9120, Note_on_c, 0, 52, 0
2, 9124, Note_on_c, 0, 51, 64
2, 9124, Note_on_c, 0, 35, 64
2, 9150, Note_on_c, 0, 51, 0
2, 9154, Note_on_c, 0, 54, 64
2, 9176, Note_on_c, 0, 35, 0
2, 9180, Note_on_c, 0, 54, 0
2, 9184, Note_on_c, 0, 56, 64
2, 9210, Note_on_c, 0, 56, 0
2, 9214, Note_on_c, 0, 57, 64
2, 9240, Note_on_c, 0, 57, 0
2, 9244, Note_on_c, 0, 47, 64
2, 9270, Note_on_c, 0, 47, 0
2, 9274, Note_on_c, 0, 49, 64
2, 9300, Note_on_c, 0, 49, 0
2, 9304, Note_on_c, 0, 51, 64
2, 9330, Note_on_c, 0, 51, 0
2, 9334, Note_on_c, 0, 52, 64
2, 9360, Note_on_c, 0, 52, 0
2, 9364, Note_on_c, 0, 54, 64
2, 9390, Note_on_c, 0, 54, 0
2, 9394, Note_on_c, 0, 56, 64
2, 9420, Note_on_c, 0, 56, 0
2, 9424, Note_on_c, 0, 57, 64
2, 9450, Note_on_c, 0, 57, 0
2, 9454, Note_on_c, 0, 59, 64
2, 9480, Note_on_c, 0, 59, 0
2, 9484, Note_on_c, 0, 61, 64
2, 9510, Note_on_c, 0, 61, 0
2, 9514, Note_on_c, 0, 63, 64
2, 9540, Note_on_c, 0, 63, 0
2, 9544, Note_on_c, 0, 64, 64
2, 9570, Note_on_c, 0, 64, 0
2, 9574, Note_on_c, 0, 66, 64
2, 9600, Note_on_c, 0, 66, 0
2, 9604, Note_on_c, 0, 68, 64
2, 9604, Note_on_c, 0, 40, 64
2, 9630, Note_on_c, 0, 68, 0
2, 9634, Note_on_c, 0, 64, 64
2, 9656, Note_on_c, 0, 40, 0
2, 9660, Note_on_c, 0, 64, 0
2, 9664, Note_on_c, 0, 63, 64
2, 9690, Note_on_c, 0, 63, 0
2, 9694, Note_on_c, 0, 61, 64
2, 9720, Note_on_c, 0, 61, 0
2, 9724, Note_on_c, 0, 59, 64
2, 9750, Note_on_c, 0, 59, 0
2, 9754, Note_on_c, 0, 57, 64
2, 9780, Note_on_c, 0, 57, 0
2, 9784, Note_on_c, 0, 56, 64
2, 9810, Note_on_c, 0, 56, 0
2, 9814, Note_on_c, 0, 54, 64
2, 9840, Note_on_c, 0, 54, 0
2, 9844, Note_on_c, 0, 52, 64
2, 9870, Note_on_c, 0, 52, 0
2, 9874, Note_on_c, 0, 63, 64
2, 9874, Note_on_c, 0, 54, 64
2, 9900, Note_on_c, 0, 54, 0
2, 9900, Note_on_c, 0, 63, 0
2, 9904, Note_on_c, 0, 64, 64
2, 9904, Note_on_c, 0, 56, 64
2, 9930, Note_on_c, 0, 56, 0
2, 9930, Note_on_c, 0, 64, 0
2, 9934, Note_on_c, 0, 66, 64
2, 9934, Note_on_c, 0, 57, 64
2, 9960, Note_on_c, 0, 57, 0
2, 9960, Note_on_c, 0, 66, 0
2, 9964, Note_on_c, 0, 64, 64
2, 9964, Note_on_c, 0, 56, 64
2, 9990, Note_on_c, 0, 56, 0
2, 9990, Note_on_c, 0, 64, 0
2, 9994, Note_on_c, 0, 63, 64
2, 9994, Note_on_c, 0, 54, 64
2, 10020, Note_on_c, 0, 54, 0
2, 10020, Note_on_c, 0, 63, 0
2, 10024, Note_on_c, 0, 61, 64
2, 10024, Note_on_c, 0, 52, 64
2, 10050, Note_on_c, 0, 52, 0
2, 10050, Note_on_c, 0, 61, 0
2, 10054, Note_on_c, 0, 59, 64
2, 10054, Note_on_c, 0, 51, 64
2, 10080, Note_on_c, 0, 51, 0
2, 10080, Note_on_c, 0, 59, 0
2, 10084, Note_on_c, 0, 58, 64
2, 10084, Note_on_c, 0, 49, 64
2, 10084, Note_on_c, 0, 42, 64
2, 10110, Note_on_c, 0, 58, 0
2, 10114, Note_on_c, 0, 61, 64
2, 10136, Note_on_c, 0, 42, 0
2, 10136, Note_on_c, 0, 49, 0
2, 10140, Note_on_c, 0, 61, 0
2, 10144, Note_on_c, 0, 63, 64
2, 10170, Note_on_c, 0, 63, 0
2, 10174, Note_on_c, 0, 64, 64
2, 10200, Note_on_c, 0, 64, 0
2, 10204, Note_on_c, 0, 54, 64
2, 10230, Note_on_c, 0, 54, 0
2, 10234, Note_on_c, 0, 56, 64
2, 10260, Note_on_c, 0, 56, 0
2, 10264, Note_on_c, 0, 58, 64
2, 10290, Note_on_c, 0, 58, 0
2, 10294, Note_on_c, 0, 59, 64
2, 10320, Note_on_c, 0, 59, 0
2, 10324, Note_on_c, 0, 61, 64
2, 10350, Note_on_c, 0, 61, 0
2, 10354, Note_on_c, 0, 63, 64
2, 10380, Note_on_c, 0, 63, 0
2, 10384, Note_on_c, 0, 64, 64
2, 10410, Note_on_c, 0, 64, 0
2, 10414, Note_on_c, 0, 66, 64
2, 10440, Note_on_c, 0, 66, 0
2, 10444, Note_on_c, 0, 68, 64
2, 10470, Note_on_c, 0, 68, 0
2, 10474, Note_on_c, 0, 70, 64
2, 10500, Note_on_c, 0, 70, 0
2, 10504, Note_on_c, 0, 71, 64
2, 10530, Note_on_c, 0, 71, 0
2, 10534, Note_on_c, 0, 73, 64
2, 10560, Note_on_c, 0, 73, 0
2, 10564, Note_on_c, 0, 75, 64
2, 10564, Note_on_c, 0, 47, 64
2, 10590, Note_on_c, 0, 75, 0
2, 10594, Note_on_c, 0, 71, 64
2, 10616, Note_on_c, 0, 47, 0
2, 10620, Note_on_c, 0, 71, 0
2, 10624, Note_on_c, 0, 70, 64
2, 10650, Note_on_c, 0, 70, 0
2, 10654, Note_on_c, 0, 68, 64
2, 10680, Note_on_c, 0, 68, 0
2, 10684, Note_on_c, 0, 66, 64
2, 10710, Note_on_c, 0, 66, 0
2, 10714, Note_on_c, 0, 64, 64
2, 10740, Note_on_c, 0, 64, 0
2, 10744, Note_on_c, 0, 63, 64
2, 10770, Note_on_c, 0, 63, 0
2, 10774, Note_on_c, 0, 61, 64
2, 10800, Note_on_c, 0, 61, 0
2, 10804, Note_on_c, 0, 59, 64
2, 10830, Note_on_c, 0, 59, 0
2, 10834, Note_on_c, 0, 63, 64
2, 10860, Note_on_c, 0, 63, 0
2, 10864, Note_on_c, 0, 75, 64
2, 10864, Note_on_c, 0, 54, 64
2, 10876, Note_on_c, 0, 76, 64
2, 10883, Note_on_c, 0, 75, 0
2, 10884, Note_on_c, 0, 78, 64
2, 10890, Note_on_c, 0, 54, 0
2, 10891, Note_on_c, 0, 76, 0
2, 10894, Note_on_c, 0, 63, 64
2, 10920, Note_on_c, 0, 63, 0
2, 10923, Note_on_c, 0, 78, 0
2, 10924, Note_on_c, 0, 76, 64
2, 10924, Note_on_c, 0, 59, 64
2, 10948, Note_on_c, 0, 75, 64
2, 10950, Note_on_c, 0, 59, 0
2, 10954, Note_on_c, 0, 63, 64
2, 10959, Note_on_c, 0, 76, 0
2, 10980, Note_on_c, 0, 63, 0
2, 10983, Note_on_c, 0, 75, 0
2, 10984, Note_on_c, 0, 73, 64
2, 10984, Note_on_c, 0, 54, 64
2, 11008, Note_on_c, 0, 71, 64
2, 11010, Note_on_c, 0, 54, 0
2, 11014, Note_on_c, 0, 63, 64
2, 11015, Note_on_c, 0, 73, 0
2, 11039, Note_on_c, 0, 71, 0
2, 11040, Note_on_c, 0, 63, 0
2, 11044, Note_on_c, 0, 83, 64
2, 11044, Note_on_c, 0, 56, 64
2, 11070, Note_on_c, 0, 56, 0
2, 11074, Note_on_c, 0, 59, 64
2, 11100, Note_on_c, 0, 59, 0
2, 11104, Note_on_c, 0, 80, 64
2, 11104, Note_on_c, 0, 51, 64
2, 11130, Note_on_c, 0, 51, 0
2, 11134, Note_on_c, 0, 59, 64
2, 11156, Note_on_c, 0, 80, 0
2, 11160, Note_on_c, 0, 59, 0
2, 11164, Note_on_c, 0, 75, 64
2, 11164, Note_on_c, 0, 56, 64
2, 11190, Note_on_c, 0, 56, 0
2, 11194, Note_on_c, 0, 59, 64
2, 11216, Note_on_c, 0, 75, 0
2, 11220, Note_on_c, 0, 59, 0
2, 11224, Note_on_c, 0, 78, 64
2, 11224, Note_on_c, 0, 51, 64
2, 11250, Note_on_c, 0, 51, 0
2, 11254, Note_on_c, 0, 59, 64
2, 11276, Note_on_c, 0, 78, 0
2, 11280, Note_on_c, 0, 59, 0
2, 11284, Note_on_c, 0, 77, 64
2, 11284, Note_on_c, 0, 56, 64
2, 11310, Note_on_c, 0, 56, 0
2, 11314, Note_on_c, 0, 61, 64
2, 11336, Note_on_c, 0, 77, 0
2, 11336, Note_on_c, 0, 83, 0
2, 11340, Note_on_c, 0, 61, 0
2, 11344, Note_on_c, 0, 80, 64
2, 11344, Note_on_c, 0, 53, 64
2, 11370, Note_on_c, 0, 53, 0
2, 11374, Note_on_c, 0, 61, 64
2, 11396, Note_on_c, 0, 80, 0
2, 11400, Note_on_c, 0, 61, 0
2, 11404, Note_on_c, 0, 78, 64
2, 11404, Note_on_c, 0, 56, 64
2, 11424, Note_on_c, 0, 77, 64
2, 11430, Note_on_c, 0, 56, 0
2, 11434, Note_on_c, 0, 61, 64
2, 11435, Note_on_c, 0, 78, 0
2, 11460, Note_on_c, 0, 61, 0
2, 11464, Note_on_c, 0, 75, 64
2, 11464, Note_on_c, 0, 53, 64
2, 11467, Note_on_c, 0, 77, 0
2, 11488, Note_on_c, 0, 73, 64
2, 11490, Note_on_c, 0, 53, 0
2, 11494, Note_on_c, 0, 61, 64
2, 11495, Note_on_c, 0, 75, 0
2, 11520, Note_on_c, 0, 61, 0
2, 11523, Note_on_c, 0, 73, 0
2, 11524, Note_on_c, 0, 82, 64
2, 11524, Note_on_c, 0, 54, 64
2, 11550, Note_on_c, 0, 54, 0
2, 11554, Note_on_c, 0, 58, 64
2, 11580, Note_on_c, 0, 58, 0
2, 11584, Note_on_c, 0, 78, 64
2, 11584, Note_on_c, 0, 49, 64
2, 11610, Note_on_c, 0, 49, 0
2, 11614, Note_on_c, 0, 58, 64
2, 11636, Note_on_c, 0, 78, 0
2, 11640, Note_on_c, 0, 58, 0
2, 11644, Note_on_c, 0, 73, 64
2, 11644, Note_on_c, 0, 54, 64
2, 11670, Note_on_c, 0, 54, 0
2, 11674, Note_on_c, 0, 58, 64
2, 11696, Note_on_c, 0, 73, 0
2, 11700, Note_on_c, 0, 58, 0
2, 11704, Note_on_c, 0, 76, 64
2, 11704, Note_on_c, 0, 49, 64
2, 11730, Note_on_c, 0, 49, 0
2, 11734, Note_on_c, 0, 58, 64
2, 11756, Note_on_c, 0, 76, 0
2, 11760, Note_on_c, 0, 58, 0
2, 11764, Note_on_c, 0, 75, 64
2, 11764, Note_on_c, 0, 54, 64
2, 11790, Note_on_c, 0, 54, 0
2, 11794, Note_on_c, 0, 59, 64
2, 11816, Note_on_c, 0, 75, 0
2, 11816, Note_on_c, 0, 82, 0
2, 11820, Note_on_c, 0, 59, 0
2, 11824, Note_on_c, 0, 78, 64
2, 11824, Note_on_c, 0, 51, 64
2, 11850, Note_on_c, 0, 51, 0
2, 11854, Note_on_c, 0, 59, 64
2, 11876, Note_on_c, 0, 78, 0
2, 11880, Note_on_c, 0, 59, 0
2, 11884, Note_on_c, 0, 76, 64
2, 11884, Note_on_c, 0, 54, 64
2, 11908, Note_on_c, 0, 75, 64
2, 11910, Note_on_c, 0, 54, 0
2, 11914, Note_on_c, 0, 59, 64
2, 11919, Note_on_c, 0, 76, 0
2, 11940, Note_on_c, 0, 59, 0
2, 11943, Note_on_c, 0, 75, 0
2, 11944, Note_on_c, 0, 73, 64
2, 11944, Note_on_c, 0, 51, 64
2, 11968, Note_on_c, 0, 71, 64
2, 11970, Note_on_c, 0, 51, 0
2, 11974, Note_on_c, 0, 59, 64
2, 11979, Note_on_c, 0, 73, 0
2, 12000, Note_on_c, 0, 59, 0
2, 12003, Note_on_c, 0, 71, 0
2, 12004, Note_on_c, 0, 77, 64
2, 12004, Note_on_c, 0, 56, 64
2, 12030, Note_on_c, 0, 56, 0
2, 12030, Note_on_c, 0, 77, 0
2, 12034, Note_on_c, 0, 78, 64
2, 12034, Note_on_c, 0, 61, 64
2, 12060, Note_on_c, 0, 61, 0
2, 12060, Note_on_c, 0, 78, 0
2, 12064, Note_on_c, 0, 80, 64
2, 12064, Note_on_c, 0, 71, 64
2, 12064, Note_on_c, 0, 53, 64
2, 12090, Note_on_c, 0, 53, 0
2, 12090, Note_on_c, 0, 71, 0
2, 12094, Note_on_c, 0, 70, 64
2, 12094, Note_on_c, 0, 61, 64
2, 12120, Note_on_c, 0, 61, 0
2, 12120, Note_on_c, 0, 70, 0
2, 12124, Note_on_c, 0, 71, 64
2, 12124, Note_on_c, 0, 56, 64
2, 12150, Note_on_c, 0, 56, 0
2, 12154, Note_on_c, 0, 61, 64
2, 12169, Note_on_c, 0, 80, 0
2, 12180, Note_on_c, 0, 61, 0
2, 12184, Note_on_c, 0, 73, 64
2, 12184, Note_on_c, 0, 53, 64
2, 12210, Note_on_c, 0, 53, 0
2, 12214, Note_on_c, 0, 61, 64
2, 12229, Note_on_c, 0, 71, 0
2, 12236, Note_on_c, 0, 73, 0
2, 12240, Note_on_c, 0, 61, 0
2, 12244, Note_on_c, 0, 79, 64
2, 12244, Note_on_c, 0, 58, 64
2, 12257, Note_on_c, 0, 79, 0
2, 12259, Note_on_c, 0, 80, 64
2, 12270, Note_on_c, 0, 58, 0
2, 12272, Note_on_c, 0, 80, 0
2, 12274, Note_on_c, 0, 82, 64
2, 12274, Note_on_c, 0, 63, 64
2, 12300, Note_on_c, 0, 63, 0
2, 12300, Note_on_c, 0, 82, 0
2, 12304, Note_on_c, 0, 73, 64
2, 12304, Note_on_c, 0, 70, 64
2, 12304, Note_on_c, 0, 55, 64
2, 12330, Note_on_c, 0, 55, 0
2, 12330, Note_on_c, 0, 70, 0
2, 12334, Note_on_c, 0, 68, 64
2, 12334, Note_on_c, 0, 63, 64
2, 12360, Note_on_c, 0, 63, 0
2, 12360, Note_on_c, 0, 68, 0
2, 12364, Note_on_c, 0, 70, 64
2, 12364, Note_on_c, 0, 58, 64
2, 12390, Note_on_c, 0, 58, 0
2, 12394, Note_on_c, 0, 63, 64
2, 12409, Note_on_c, 0, 73, 0
2, 12416, Note_on_c, 0, 70, 0
2, 12420, Note_on_c, 0, 63, 0
2, 12424, Note_on_c, 0, 82, 64
2, 12424, Note_on_c, 0, 73, 64
2, 12424, Note_on_c, 0, 55, 64
2, 12450, Note_on_c, 0, 55, 0
2, 12454, Note_on_c, 0, 63, 64
2, 12476, Note_on_c, 0, 73, 0
2, 12476, Note_on_c, 0, 82, 0
2, 12480, Note_on_c, 0, 63, 0
2, 12484, Note_on_c, 0, 82, 64
2, 12484, Note_on_c, 0, 73, 64
2, 12484, Note_on_c, 0, 59, 64
2, 12510, Note_on_c, 0, 59, 0
2, 12514, Note_on_c, 0, 63, 64
2, 12536, Note_on_c, 0, 73, 0
2, 12536, Note_on_c, 0, 82, 0
2, 12540, Note_on_c, 0, 63, 0
2, 12544, Note_on_c, 0, 80, 64
2, 12544, Note_on_c, 0, 71, 64
2, 12544, Note_on_c, 0, 56, 64
2, 12570, Note_on_c, 0, 56, 0
2, 12574, Note_on_c, 0, 63, 64
2, 12596, Note_on_c, 0, 71, 0
2, 12596, Note_on_c, 0, 80, 0
2, 12600, Note_on_c, 0, 63, 0
2, 12604, Note_on_c, 0, 80, 64
2, 12604, Note_on_c, 0, 75, 64
2, 12604, Note_on_c, 0, 59, 64
2, 12630, Note_on_c, 0, 59, 0
2, 12634, Note_on_c, 0, 63, 64
2, 12656, Note_on_c, 0, 75, 0
2, 12656, Note_on_c, 0, 80, 0
2, 12660, Note_on_c, 0, 63, 0
2, 12664, Note_on_c, 0, 78, 64
2, 12664, Note_on_c, 0, 75, 64
2, 12664, Note_on_c, 0, 56, 64
2, 12690, Note_on_c, 0, 56, 0
2, 12694, Note_on_c, 0, 63, 64
2, 12716, Note_on_c, 0, 75, 0
2, 12716, Note_on_c, 0, 78, 0
2, 12720, Note_on_c, 0, 63, 0
2, 12724, Note_on_c, 0, 80, 64
2, 12724, Note_on_c, 0, 75, 64
2, 12724, Note_on_c, 0, 60, 64
2, 12744, Note_on_c, 0, 78, 64
2, 12750, Note_on_c, 0, 60, 0
2, 12751, Note_on_c, 0, 80, 0
2, 12754, Note_on_c, 0, 63, 64
2, 12756, Note_on_c, 0, 80, 64
2, 12763, Note_on_c, 0, 78, 0
2, 12768, Note_on_c, 0, 78, 64
2, 12775, Note_on_c, 0, 80, 0
2, 12780, Note_on_c, 0, 63, 0
2, 12780, Note_on_c, 0, 80, 64
2, 12784, Note_on_c, 0, 57, 64
2, 12787, Note_on_c, 0, 78, 0
2, 12792, Note_on_c, 0, 78, 64
2, 12799, Note_on_c, 0, 80, 0
2, 12804, Note_on_c, 0, 80, 64
2, 12810, Note_on_c, 0, 57, 0
2, 12811, Note_on_c, 0, 78, 0
2, 12814, Note_on_c, 0, 63, 64
2, 12816, Note_on_c, 0, 78, 64
2, 12823, Note_on_c, 0, 80, 0
2, 12828, Note_on_c, 0, 80, 64
2, 12835, Note_on_c, 0, 78, 0
2, 12840, Note_on_c, 0, 63, 0
2, 12840, Note_on_c, 0, 78, 64
2, 12844, Note_on_c, 0, 60, 64
2, 12847, Note_on_c, 0, 80, 0
2, 12852, Note_on_c, 0, 80, 64
2, 12859, Note_on_c, 0, 78, 0
2, 12864, Note_on_c, 0, 78, 64
2, 12870, Note_on_c, 0, 60, 0
2, 12871, Note_on_c, 0, 80, 0
2, 12874, Note_on_c, 0, 63, 64
2, 12876, Note_on_c, 0, 80, 64
2, 12883, Note_on_c, 0, 78, 0
2, 12888, Note_on_c, 0, 78, 64
2, 12895, Note_on_c, 0, 80, 0
2, 12900, Note_on_c, 0, 63, 0
2, 12904, Note_on_c, 0, 77, 64
2, 12904, Note_on_c, 0, 57, 64
2, 12907, Note_on_c, 0, 78, 0
2, 12930, Note_on_c, 0, 57, 0
2, 12930, Note_on_c, 0, 77, 0
2, 12934, Note_on_c, 0, 78, 64
2, 12934, Note_on_c, 0, 63, 64
2, 12960, Note_on_c, 0, 63, 0
2, 12960, Note_on_c, 0, 78, 0
2, 12964, Note_on_c, 0, 77, 64
2, 12964, Note_on_c, 0, 58, 64
2, 12990, Note_on_c, 0, 75, 0
2, 12994, Note_on_c, 0, 75, 64
2, 13020, Note_on_c, 0, 75, 0
2, 13024, Note_on_c, 0, 74, 64
2, 13050, Note_on_c, 0, 74, 0
2, 13054, Note_on_c, 0, 72, 64
2, 13080, Note_on_c, 0, 72, 0
2, 13084, Note_on_c, 0, 74, 64
2, 13110, Note_on_c, 0, 74, 0
2, 13114, Note_on_c, 0, 70, 64
2, 13140, Note_on_c, 0, 70, 0
2, 13144, Note_on_c, 0, 71, 64
2, 13170, Note_on_c, 0, 71, 0
2, 13174, Note_on_c, 0, 68, 64
2, 13189, Note_on_c, 0, 77, 0
2, 13200, Note_on_c, 0, 68, 0
2, 13204, Note_on_c, 0, 65, 64
2, 13230, Note_on_c, 0, 65, 0
2, 13230, Note_on_c, 0, 58, 0
2, 13234, Note_on_c, 0, 66, 64
2, 13234, Note_on_c, 0, 51, 64
2, 13260, Note_on_c, 0, 51, 0
2, 13260, Note_on_c, 0, 66, 0
2, 13264, Note_on_c, 0, 68, 64
2, 13264, Note_on_c, 0, 53, 64
2, 13290, Note_on_c, 0, 53, 0
2, 13290, Note_on_c, 0, 68, 0
2, 13294, Note_on_c, 0, 70, 64
2, 13294, Note_on_c, 0, 54, 64
2, 13320, Note_on_c, 0, 54, 0
2, 13320, Note_on_c, 0, 70, 0
2, 13324, Note_on_c, 0, 68, 64
2, 13324, Note_on_c, 0, 53, 64
2, 13350, Note_on_c, 0, 53, 0
2, 13350, Note_on_c, 0, 68, 0
2, 13354, Note_on_c, 0, 66, 64
2, 13354, Note_on_c, 0, 51, 64
2, 13380, Note_on_c, 0, 51, 0
2, 13380, Note_on_c, 0, 66, 0
2, 13384, Note_on_c, 0, 65, 64
2, 13384, Note_on_c, 0, 50, 64
2, 13410, Note_on_c, 0, 50, 0
2, 13410, Note_on_c, 0, 65, 0
2, 13414, Note_on_c, 0, 63, 64
2, 13414, Note_on_c, 0, 48, 64
2, 13440, Note_on_c, 0, 48, 0
2, 13440, Note_on_c, 0, 63, 0
2, 13444, Note_on_c, 0, 62, 64
2, 13444, Note_on_c, 0, 53, 64
2, 13444, Note_on_c, 0, 46, 64
2, 13470, Note_on_c, 0, 62, 0
2, 13474, Note_on_c, 0, 65, 64
2, 13496, Note_on_c, 0, 46, 0
2, 13496, Note_on_c, 0, 53, 0
2, 13500, Note_on_c, 0, 65, 0
2, 13504, Note_on_c, 0, 66, 64
2, 13530, Note_on_c, 0, 66, 0
2, 13534, Note_on_c, 0, 68, 64
2, 13560, Note_on_c, 0, 68, 0
2, 13564, Note_on_c, 0, 58, 64
2, 13590, Note_on_c, 0, 58, 0
2, 13594, Note_on_c, 0, 60, 64
2, 13620, Note_on_c, 0, 60, 0
2, 13624, Note_on_c, 0, 62, 64
2, 13650, Note_on_c, 0, 62, 0
2, 13654, Note_on_c, 0, 63, 64
2, 13680, Note_on_c, 0, 63, 0
2, 13684, Note_on_c, 0, 65, 64
2, 13710, Note_on_c, 0, 65, 0
2, 13714, Note_on_c, 0, 66, 64
2, 13740, Note_on_c, 0, 66, 0
2, 13744, Note_on_c, 0, 68, 64
2, 13770, Note_on_c, 0, 68, 0
2, 13774, Note_on_c, 0, 70, 64
2, 13800, Note_on_c, 0, 70, 0
2, 13804, Note_on_c, 0, 72, 64
2, 13830, Note_on_c, 0, 72, 0
2, 13834, Note_on_c, 0, 74, 64
2, 13860, Note_on_c, 0, 74, 0
2, 13864, Note_on_c, 0, 75, 64
2, 13890, Note_on_c, 0, 75, 0
2, 13894, Note_on_c, 0, 77, 64
2, 13920, Note_on_c, 0, 77, 0
2, 13924, Note_on_c, 0, 78, 64
2, 13924, Note_on_c, 0, 51, 64
2, 13950, Note_on_c, 0, 78, 0
2, 13954, Note_on_c, 0, 75, 64
2, 13976, Note_on_c, 0, 51, 0
2, 13980, Note_on_c, 0, 75, 0
2, 13984, Note_on_c, 0, 70, 64
2, 14010, Note_on_c, 0, 70, 0
2, 14014, Note_on_c, 0, 66, 64
2, 14040, Note_on_c, 0, 66, 0
2, 14044, Note_on_c, 0, 63, 64
2, 14070, Note_on_c, 0, 63, 0
2, 14074, Note_on_c, 0, 61, 64
2, 14100, Note_on_c, 0, 61, 0
2, 14104, Note_on_c, 0, 60, 64
2, 14130, Note_on_c, 0, 60, 0
2, 14134, Note_on_c, 0, 58, 64
2, 14160, Note_on_c, 0, 58, 0
2, 14164, Note_on_c, 0, 60, 64
2, 14164, Note_on_c, 0, 56, 64
2, 14190, Note_on_c, 0, 60, 0
2, 14194, Note_on_c, 0, 63, 64
2, 14216, Note_on_c, 0, 56, 0
2, 14220, Note_on_c, 0, 63, 0
2, 14224, Note_on_c, 0, 68, 64
2, 14250, Note_on_c, 0, 68, 0
2, 14254, Note_on_c, 0, 72, 64
2, 14280, Note_on_c, 0, 72, 0
2, 14284, Note_on_c, 0, 75, 64
2, 14310, Note_on_c, 0, 75, 0
2, 14314, Note_on_c, 0, 78, 64
2, 14340, Note_on_c, 0, 78, 0
2, 14344, Note_on_c, 0, 76, 64
2, 14370, Note_on_c, 0, 76, 0
2, 14374, Note_on_c, 0, 75, 64
2, 14400, Note_on_c, 0, 75, 0
2, 14404, Note_on_c, 0, 76, 64
2, 14404, Note_on_c, 0, 49, 64
2, 14430, Note_on_c, 0, 76, 0
2, 14434, Note_on_c, 0, 73, 64
2, 14456, Note_on_c, 0, 49, 0
2, 14460, Note_on_c, 0, 73, 0
2, 14464, Note_on_c, 0, 68, 64
2, 14490, Note_on_c, 0, 68, 0
2, 14494, Note_on_c, 0, 64, 64
2, 14520, Note_on_c, 0, 64, 0
2, 14524, Note_on_c, 0, 61, 64
2, 14550, Note_on_c, 0, 61, 0
2, 14554, Note_on_c, 0, 59, 64
2, 14580, Note_on_c, 0, 59, 0
2, 14584, Note_on_c, 0, 58, 64
2, 14610, Note_on_c, 0, 58, 0
2, 14614, Note_on_c, 0, 56, 64
2, 14640, Note_on_c, 0, 56, 0
2, 14644, Note_on_c, 0, 58, 64
2, 14644, Note_on_c, 0, 54, 64
2, 14670, Note_on_c, 0, 58, 0
2, 14674, Note_on_c, 0, 61, 64
2, 14696, Note_on_c, 0, 54, 0
2, 14700, Note_on_c, 0, 61, 0
2, 14704, Note_on_c, 0, 66, 64
2, 14730, Note_on_c, 0, 66, 0
2, 14734, Note_on_c, 0, 70, 64
2, 14760, Note_on_c, 0, 70, 0
2, 14764, Note_on_c, 0, 73, 64
2, 14790, Note_on_c, 0, 73, 0
2, 14794, Note_on_c, 0, 76, 64
2, 14820, Note_on_c, 0, 76, 0
2, 14824, Note_on_c, 0, 75, 64
2, 14850, Note_on_c, 0, 75, 0
2, 14854, Note_on_c, 0, 73, 64
2, 14880, Note_on_c, 0, 73, 0
2, 14884, Note_on_c, 0, 75, 64
2, 14884, Note_on_c, 0, 54, 64
2, 14884, Note_on_c, 0, 47, 64
2, 14910, Note_on_c, 0, 75, 0
2, 14914, Note_on_c, 0, 71, 64
2, 14936, Note_on_c, 0, 47, 0
2, 14936, Note_on_c, 0, 54, 0
2, 14940, Note_on_c, 0, 71, 0
2, 14944, Note_on_c, 0, 66, 64
2, 14970, Note_on_c, 0, 66, 0
2, 14974, Note_on_c, 0, 63, 64
2, 15000, Note_on_c, 0, 63, 0
2, 15004, Note_on_c, 0, 59, 64
2, 15030, Note_on_c, 0, 59, 0
2, 15034, Note_on_c, 0, 57, 64
2, 15060, Note_on_c, 0, 57, 0
2, 15064, Note_on_c, 0, 56, 64
2, 15090, Note_on_c, 0, 56, 0
2, 15094, Note_on_c, 0, 54, 64
2, 15120, Note_on_c, 0, 54, 0
2, 15124, Note_on_c, 0, 56, 64
2, 15124, Note_on_c, 0, 53, 64
2, 15150, Note_on_c, 0, 56, 0
2, 15154, Note_on_c, 0, 59, 64
2, 15176, Note_on_c, 0, 53, 0
2, 15180, Note_on_c, 0, 59, 0
2, 15184, Note_on_c, 0, 62, 64
2, 15210, Note_on_c, 0, 62, 0
2, 15214, Note_on_c, 0, 65, 64
2, 15240, Note_on_c, 0, 65, 0
2, 15244, Note_on_c, 0, 68, 64
2, 15270, Note_on_c, 0, 68, 0
2, 15274, Note_on_c, 0, 71, 64
2, 15300, Note_on_c, 0, 71, 0
2, 15304, Note_on_c, 0, 70, 64
2, 15330, Note_on_c, 0, 70, 0
2, 15334, Note_on_c, 0, 68, 64
2, 15360, Note_on_c, 0, 68, 0
2, 15364, Note_on_c, 0, 70, 64
2, 15364, Note_on_c, 0, 54, 64
2, 15390, Note_on_c, 0, 70, 0
2, 15394, Note_on_c, 0, 63, 64
2, 15416, Note_on_c, 0, 54, 0
2, 15420, Note_on_c, 0, 63, 0
2, 15424, Note_on_c, 0, 64, 64
2, 15424, Note_on_c, 0, 42, 64
2, 15450, Note_on_c, 0, 64, 0
2, 15454, Note_on_c, 0, 73, 64
2, 15476, Note_on_c, 0, 42, 0
2, 15480, Note_on_c, 0, 73, 0
2, 15484, Note_on_c, 0, 70, 64
2, 15484, Note_on_c, 0, 46, 64
2, 15510, Note_on_c, 0, 70, 0
2, 15514, Note_on_c, 0, 73, 64
2, 15536, Note_on_c, 0, 46, 0
2, 15540, Note_on_c, 0, 73, 0
2, 15544, Note_on_c, 0, 64, 64
2, 15544, Note_on_c, 0, 49, 64
2, 15570, Note_on_c, 0, 64, 0
2, 15574, Note_on_c, 0, 73, 64
2, 15596, Note_on_c, 0, 49, 0
2, 15600, Note_on_c, 0, 73, 0
2, 15604, Note_on_c, 0, 70, 64
2, 15604, Note_on_c, 0, 54, 64
2, 15630, Note_on_c, 0, 70, 0
2, 15634, Note_on_c, 0, 63, 64
2, 15656, Note_on_c, 0, 54, 0
2, 15660, Note_on_c, 0, 63, 0
2, 15664, Note_on_c, 0, 64, 64
2, 15664, Note_on_c, 0, 58, 64
2, 15690, Note_on_c, 0, 64, 0
2, 15694, Note_on_c, 0, 73, 64
2, 15716, Note_on_c, 0, 58, 0
2, 15720, Note_on_c, 0, 73, 0
2, 15724, Note_on_c, 0, 70, 64
2, 15724, Note_on_c, 0, 61, 64
2, 15750, Note_on_c, 0, 70, 0
2, 15754, Note_on_c, 0, 73, 64
2, 15776, Note_on_c, 0, 61, 0
2, 15780, Note_on_c, 0, 73, 0
2, 15784, Note_on_c, 0, 64, 64
2, 15784, Note_on_c, 0, 58, 64
2, 15810, Note_on_c, 0, 64, 0
2, 15814, Note_on_c, 0, 73, 64
2, 15836, Note_on_c, 0, 58, 0
2, 15840, Note_on_c, 0, 73, 0
2, 15844, Note_on_c, 0, 66, 64
2, 15844, Note_on_c, 0, 59, 64
2, 15870, Note_on_c, 0, 66, 0
2, 15874, Note_on_c, 0, 61, 64
2, 15896, Note_on_c, 0, 59, 0
2, 15900, Note_on_c, 0, 61, 0
2, 15904, Note_on_c, 0, 62, 64
2, 15904, Note_on_c, 0, 54, 64
2, 15930, Note_on_c, 0, 62, 0
2, 15934, Note_on_c, 0, 73, 64
2, 15956, Note_on_c, 0, 54, 0
2, 15960, Note_on_c, 0, 73, 0
2, 15964, Note_on_c, 0, 66, 64
2, 15964, Note_on_c, 0, 50, 64
2, 15990, Note_on_c, 0, 66, 0
2, 15994, Note_on_c, 0, 73, 64
2, 16016, Note_on_c, 0, 50, 0
2, 16020, Note_on_c, 0, 73, 0
2, 16024, Note_on_c, 0, 62, 64
2, 16024, Note_on_c, 0, 54, 64
2, 16050, Note_on_c, 0, 62, 0
2, 16054, Note_on_c, 0, 73, 64
2, 16076, Note_on_c, 0, 54, 0
2, 16080, Note_on_c, 0, 73, 0
2, 16084, Note_on_c, 0, 66, 64
2, 16084, Note_on_c, 0, 50, 64
2, 16110, Note_on_c, 0, 66, 0
2, 16114, Note_on_c, 0, 61, 64
2, 16136, Note_on_c, 0, 50, 0
2, 16140, Note_on_c, 0, 61, 0
2, 16144, Note_on_c, 0, 62, 64
2, 16144, Note_on_c, 0, 47, 64
2, 16170, Note_on_c, 0, 62, 0
2, 16174, Note_on_c, 0, 71, 64
2, 16196, Note_on_c, 0, 47, 0
2, 16200, Note_on_c, 0, 71, 0
2, 16204, Note_on_c, 0, 66, 64
2, 16204, Note_on_c, 0, 50, 64
2, 16230, Note_on_c, 0, 66, 0
2, 16234, Note_on_c, 0, 71, 64
2, 16256, Note_on_c, 0, 50, 0
2, 16260, Note_on_c, 0, 71, 0
2, 16264, Note_on_c, 0, 62, 64
2, 16264, Note_on_c, 0, 54, 64
2, 16290, Note_on_c, 0, 62, 0
2, 16294, Note_on_c, 0, 71, 64
2, 16316, Note_on_c, 0, 54, 0
2, 16320, Note_on_c, 0, 71, 0
2, 16324, Note_on_c, 0, 62, 64
2, 16324, Note_on_c, 0, 42, 64
2, 16350, Note_on_c, 0, 62, 0
2, 16354, Note_on_c, 0, 58, 64
2, 16376, Note_on_c, 0, 42, 0
2, 16380, Note_on_c, 0, 58, 0
2, 16384, Note_on_c, 0, 59, 64
2, 16384, Note_on_c, 0, 56, 64
2, 16384, Note_on_c, 0, 42, 64
2, 16410, Note_on_c, 0, 59, 0
2, 16414, Note_on_c, 0, 65, 64
2, 16436, Note_on_c, 0, 42, 0
2, 16436, Note_on_c, 0, 56, 0
2, 16440, Note_on_c, 0, 65, 0
2, 16444, Note_on_c, 0, 62, 64
2, 16444, Note_on_c, 0, 56, 64
2, 16444, Note_on_c, 0, 42, 64
2, 16470, Note_on_c, 0, 62, 0
2, 16474, Note_on_c, 0, 65, 64
2, 16496, Note_on_c, 0, 42, 0
2, 16496, Note_on_c, 0, 56, 0
2, 16500, Note_on_c, 0, 65, 0
2, 16504, Note_on_c, 0, 59, 64
2, 16504, Note_on_c, 0, 56, 64
2, 16504, Note_on_c, 0, 42, 64
2, 16530, Note_on_c, 0, 59, 0
2, 16534, Note_on_c, 0, 65, 64
2, 16556, Note_on_c, 0, 42, 0
2, 16556, Note_on_c, 0, 56, 0
2, 16560, Note_on_c, 0, 65, 0
2, 16564, Note_on_c, 0, 62, 64
2, 16564, Note_on_c, 0, 56, 64
2, 16564, Note_on_c, 0, 42, 64
2, 16590, Note_on_c, 0, 62, 0
2, 16594, Note_on_c, 0, 58, 64
2, 16616, Note_on_c, 0, 42, 0
2, 16616, Note_on_c, 0, 56, 0
2, 16620, Note_on_c, 0, 58, 0
2, 16624, Note_on_c, 0, 59, 64
2, 16624, Note_on_c, 0, 56, 64
2, 16624, Note_on_c, 0, 42, 64
2, 16650, Note_on_c, 0, 59, 0
2, 16654, Note_on_c, 0, 65, 64
2, 16676, Note_on_c, 0, 42, 0
2, 16676, Note_on_c, 0, 56, 0
2, 16680, Note_on_c, 0, 65, 0
2, 16684, Note_on_c, 0, 62, 64
2, 16684, Note_on_c, 0, 56, 64
2, 16684, Note_on_c, 0, 42, 64
2, 16710, Note_on_c, 0, 62, 0
2, 16714, Note_on_c, 0, 65, 64
2, 16736, Note_on_c, 0, 42, 0
2, 16736, Note_on_c, 0, 56, 0
2, 16740, Note_on_c, 0, 65, 0
2, 16744, Note_on_c, 0, 59, 64
2, 16744, Note_on_c, 0, 56, 64
2, 16744, Note_on_c, 0, 42, 64
2, 16770, Note_on_c, 0, 59, 0
2, 16774, Note_on_c, 0, 65, 64
2, 16796, Note_on_c, 0, 42, 0
2, 16796, Note_on_c, 0, 56, 0
2, 16800, Note_on_c, 0, 65, 0
2, 16804, Note_on_c, 0, 62, 64
2, 16804, Note_on_c, 0, 62, 64
2, 16804, Note_on_c, 0, 54, 64
2, 16804, Note_on_c, 0, 42, 64
2, 16830, Note_on_c, 0, 62, 0
2, 16834, Note_on_c, 0, 58, 64
2, 16860, Note_on_c, 0, 58, 0
2, 16864, Note_on_c, 0, 59, 64
2, 16890, Note_on_c, 0, 59, 0
2, 16894, Note_on_c, 0, 66, 64
2, 16909, Note_on_c, 0, 62, 0
2, 16920, Note_on_c, 0, 66, 0
2, 16924, Note_on_c, 0, 61, 64
2, 16924, Note_on_c, 0, 58, 64
2, 16950, Note_on_c, 0, 61, 0
2, 16954, Note_on_c, 0, 66, 64
2, 16976, Note_on_c, 0, 58, 0
2, 16980, Note_on_c, 0, 66, 0
2, 16984, Note_on_c, 0, 59, 64
2, 16984, Note_on_c, 0, 56, 64
2, 17010, Note_on_c, 0, 59, 0
2, 17014, Note_on_c, 0, 65, 64
2, 17036, Note_on_c, 0, 56, 0
2, 17040, Note_on_c, 0, 65, 0
2, 17044, Note_on_c, 0, 66, 64
2, 17044, Note_on_c, 0, 58, 64
2, 17044, Note_on_c, 0, 61, 64
2, 17070, Note_on_c, 0, 42, 0
2, 17074, Note_on_c, 0, 44, 64
2, 17096, Note_on_c, 0, 58, 0
2, 17096, Note_on_c, 0, 61, 0
2, 17096, Note_on_c, 0, 54, 0
2, 17096, Note_on_c, 0, 66, 0
2, 17100, Note_on_c, 0, 44, 0
2, 17104, Note_on_c, 0, 46, 64
2, 17130, Note_on_c, 0, 46, 0
2, 17134, Note_on_c, 0, 47, 64
2, 17160, Note_on_c, 0, 47, 0
2, 17164, Note_on_c, 0, 49, 64
2, 17190, Note_on_c, 0, 49, 0
2, 17194, Note_on_c, 0, 51, 64
2, 17220, Note_on_c, 0, 51, 0
2, 17224, Note_on_c, 0, 52, 64
2, 17250, Note_on_c, 0, 52, 0
2, 17254, Note_on_c, 0, 49, 64
2, 17280, Note_on_c, 0, 49, 0
2, 17284, Note_on_c, 0, 51, 64
2, 17310, Note_on_c, 0, 51, 0
2, 17314, Note_on_c, 0, 71, 64
2, 17314, Note_on_c, 0, 47, 64
2, 17340, Note_on_c, 0, 47, 0
2, 17340, Note_on_c, 0, 71, 0
2, 17344, Note_on_c, 0, 70, 64
2, 17344, Note_on_c, 0, 49, 64
2, 17370, Note_on_c, 0, 49, 0
2, 17370, Note_on_c, 0, 70, 0
2, 17374, Note_on_c, 0, 68, 64
2, 17374, Note_on_c, 0, 51, 64
2, 17400, Note_on_c, 0, 51, 0
2, 17400, Note_on_c, 0, 68, 0
2, 17404, Note_on_c, 0, 66, 64
2, 17404, Note_on_c, 0, 52, 64
2, 17430, Note_on_c, 0, 52, 0
2, 17430, Note_on_c, 0, 66, 0
2, 17434, Note_on_c, 0, 64, 64
2, 17434, Note_on_c, 0, 54, 64
2, 17460, Note_on_c, 0, 54, 0
2, 17460, Note_on_c, 0, 64, 0
2, 17464, Note_on_c, 0, 63, 64
2, 17464, Note_on_c, 0, 56, 64
2, 17490, Note_on_c, 0, 56, 0
2, 17490, Note_on_c, 0, 63, 0
2, 17494, Note_on_c, 0, 61, 64
2, 17494, Note_on_c, 0, 58, 64
2, 17520, Note_on_c, 0, 58, 0
2, 17520, Note_on_c, 0, 61, 0
2, 17524, Note_on_c, 0, 59, 64
2, 17524, Note_on_c, 0, 63, 64
2, 17550, Note_on_c, 0, 63, 0
2, 17554, Note_on_c, 0, 71, 64
2, 17576, Note_on_c, 0, 59, 0
2, 17580, Note_on_c, 0, 71, 0
2, 17584, Note_on_c, 0, 73, 64
2, 17610, Note_on_c, 0, 73, 0
2, 17614, Note_on_c, 0, 75, 64
2, 17640, Note_on_c, 0, 75, 0
2, 17644, Note_on_c, 0, 63, 64
2, 17644, Note_on_c, 0, 76, 64
2, 17660, Note_on_c, 0, 61, 64
2, 17667, Note_on_c, 0, 63, 0
2, 17670, Note_on_c, 0, 76, 0
2, 17672, Note_on_c, 0, 63, 64
2, 17674, Note_on_c, 0, 78, 64
2, 17675, Note_on_c, 0, 61, 0
2, 17684, Note_on_c, 0, 61, 64
2, 17687, Note_on_c, 0, 63, 0
2, 17692, Note_on_c, 0, 63, 64
2, 17699, Note_on_c, 0, 61, 0
2, 17700, Note_on_c, 0, 78, 0
2, 17704, Note_on_c, 0, 61, 64
2, 17704, Note_on_c, 0, 80, 64
2, 17707, Note_on_c, 0, 63, 0
2, 17712, Note_on_c, 0, 63, 64
2, 17719, Note_on_c, 0, 61, 0
2, 17720, Note_on_c, 0, 61, 64
2, 17727, Note_on_c, 0, 63, 0
2, 17730, Note_on_c, 0, 80, 0
2, 17734, Note_on_c, 0, 82, 64
2, 17734, Note_on_c, 0, 59, 64
2, 17735, Note_on_c, 0, 61, 0
2, 17747, Note_on_c, 0, 59, 0
2, 17749, Note_on_c, 0, 61, 64
2, 17760, Note_on_c, 0, 82, 0
2, 17762, Note_on_c, 0, 61, 0
2, 17764, Note_on_c, 0, 83, 64
2, 17764, Note_on_c, 0, 63, 64
2, 17790, Note_on_c, 0, 83, 0
2, 17794, Note_on_c, 0, 78, 64
2, 17816, Note_on_c, 0, 63, 0
2, 17820, Note_on_c, 0, 78, 0
2, 17824, Note_on_c, 0, 75, 64
2, 17850, Note_on_c, 0, 75, 0
2, 17854, Note_on_c, 0, 71, 64
2, 17880, Note_on_c, 0, 71, 0
2, 17884, Note_on_c, 0, 66, 64
2, 17884, Note_on_c, 0, 73, 64
2, 17904, Note_on_c, 0, 65, 64
2, 17910, Note_on_c, 0, 73, 0
2, 17914, Note_on_c, 0, 83, 64
2, 17915, Note_on_c, 0, 66, 0
2, 17916, Note_on_c, 0, 66, 64
2, 17923, Note_on_c, 0, 65, 0
2, 17928, Note_on_c, 0, 65, 64
2, 17935, Note_on_c, 0, 66, 0
2, 17939, Note_on_c, 0, 65, 0
2, 17940, Note_on_c, 0, 83, 0
2, 17940, Note_on_c, 0, 66, 64
2, 17944, Note_on_c, 0, 81, 64
2, 17948, Note_on_c, 0, 65, 64
2, 17951, Note_on_c, 0, 66, 0
2, 17956, Note_on_c, 0, 66, 64
2, 17959, Note_on_c, 0, 65, 0
2, 17967, Note_on_c, 0, 66, 0
2, 17968, Note_on_c, 0, 65, 64
2, 17970, Note_on_c, 0, 81, 0
2, 17974, Note_on_c, 0, 80, 64
2, 17974, Note_on_c, 0, 63, 64
2, 17979, Note_on_c, 0, 65, 0
2, 17987, Note_on_c, 0, 63, 0
2, 17989, Note_on_c, 0, 65, 64
2, 18000, Note_on_c, 0, 80, 0
2, 18002, Note_on_c, 0, 65, 0
2, 18004, Note_on_c, 0, 81, 64
2, 18004, Note_on_c, 0, 66, 64
2, 18030, Note_on_c, 0, 66, 0
2, 18034, Note_on_c, 0, 64, 64
2, 18056, Note_on_c, 0, 81, 0
2, 18060, Note_on_c, 0, 64, 0
2, 18064, Note_on_c, 0, 78, 64
2, 18064, Note_on_c, 0, 63, 64
2, 18090, Note_on_c, 0, 63, 0
2, 18094, Note_on_c, 0, 61, 64
2, 18116, Note_on_c, 0, 78, 0
2, 18120, Note_on_c, 0, 61, 0
2, 18124, Note_on_c, 0, 75, 64
2, 18124, Note_on_c, 0, 59, 64
2, 18150, Note_on_c, 0, 59, 0
2, 18154, Note_on_c, 0, 57, 64
2, 18176, Note_on_c, 0, 75, 0
2, 18180, Note_on_c, 0, 57, 0
2, 18184, Note_on_c, 0, 81, 64
2, 18184, Note_on_c, 0, 56, 64
2, 18210, Note_on_c, 0, 56, 0
2, 18214, Note_on_c, 0, 54, 64
2, 18236, Note_on_c, 0, 81, 0
2, 18240, Note_on_c, 0, 54, 0
2, 18244, Note_on_c, 0, 80, 64
2, 18244, Note_on_c, 0, 52, 64
2, 18270, Note_on_c, 0, 80, 0
2, 18274, Note_on_c, 0, 76, 64
2, 18296, Note_on_c, 0, 52, 0
2, 18300, Note_on_c, 0, 76, 0
2, 18304, Note_on_c, 0, 71, 64
2, 18304, Note_on_c, 0, 63, 64
2, 18330, Note_on_c, 0, 71, 0
2, 18334, Note_on_c, 0, 68, 64
2, 18356, Note_on_c, 0, 63, 0
2, 18360, Note_on_c, 0, 68, 0
2, 18364, Note_on_c, 0, 70, 64
2, 18364, Note_on_c, 0, 61, 64
2, 18390, Note_on_c, 0, 70, 0
2, 18394, Note_on_c, 0, 80, 64
2, 18416, Note_on_c, 0, 61, 0
2, 18420, Note_on_c, 0, 80, 0
2, 18424, Note_on_c, 0, 78, 64
2, 18424, Note_on_c, 0, 58, 64
2, 18450, Note_on_c, 0, 78, 0
2, 18454, Note_on_c, 0, 76, 64
2, 18476, Note_on_c, 0, 58, 0
2, 18480, Note_on_c, 0, 76, 0
2, 18484, Note_on_c, 0, 78, 64
2, 18484, Note_on_c, 0, 63, 64
2, 18510, Note_on_c, 0, 63, 0
2, 18514, Note_on_c, 0, 61, 64
2, 18536, Note_on_c, 0, 78, 0
2, 18540, Note_on_c, 0, 61, 0
2, 18544, Note_on_c, 0, 75, 64
2, 18544, Note_on_c, 0, 60, 64
2, 18570, Note_on_c, 0, 60, 0
2, 18574, Note_on_c, 0, 58, 64
2, 18596, Note_on_c, 0, 75, 0
2, 18600, Note_on_c, 0, 58, 0
2, 18604, Note_on_c, 0, 72, 64
2, 18604, Note_on_c, 0, 56, 64
2, 18630, Note_on_c, 0, 56, 0
2, 18634, Note_on_c, 0, 54, 64
2, 18656, Note_on_c, 0, 72, 0
2, 18660, Note_on_c, 0, 54, 0
2, 18664, Note_on_c, 0, 78, 64
2, 18664, Note_on_c, 0, 52, 64
2, 18690, Note_on_c, 0, 52, 0
2, 18694, Note_on_c, 0, 51, 64
2, 18716, Note_on_c, 0, 78, 0
2, 18720, Note_on_c, 0, 51, 0
2, 18724, Note_on_c, 0, 76, 64
2, 18724, Note_on_c, 0, 49, 64
2, 18750, Note_on_c, 0, 76, 0
2, 18754, Note_on_c, 0, 73, 64
2, 18776, Note_on_c, 0, 49, 0
2, 18780, Note_on_c, 0, 73, 0
2, 18784, Note_on_c, 0, 68, 64
2, 18784, Note_on_c, 0, 59, 64
2, 18810, Note_on_c, 0, 68, 0
2, 18814, Note_on_c, 0, 64, 64
2, 18836, Note_on_c, 0, 59, 0
2, 18840, Note_on_c, 0, 64, 0
2, 18844, Note_on_c, 0, 66, 64
2, 18844, Note_on_c, 0, 58, 64
2, 18870, Note_on_c, 0, 66, 0
2, 18874, Note_on_c, 0, 76, 64
2, 18896, Note_on_c, 0, 58, 0
2, 18900, Note_on_c, 0, 76, 0
2, 18904, Note_on_c, 0, 75, 64
2, 18904, Note_on_c, 0, 54, 64
2, 18930, Note_on_c, 0, 75, 0
2, 18934, Note_on_c, 0, 73, 64
2, 18956, Note_on_c, 0, 54, 0
2, 18960, Note_on_c, 0, 73, 0
2, 18964, Note_on_c, 0, 75, 64
2, 18964, Note_on_c, 0, 47, 64
2, 18990, Note_on_c, 0, 75, 0
2, 18994, Note_on_c, 0, 71, 64
2, 19016, Note_on_c, 0, 47, 0
2, 19020, Note_on_c, 0, 71, 0
2, 19024, Note_on_c, 0, 70, 64
2, 19024, Note_on_c, 0, 51, 64
2, 19050, Note_on_c, 0, 70, 0
2, 19054, Note_on_c, 0, 68, 64
2, 19076, Note_on_c, 0, 51, 0
2, 19080, Note_on_c, 0, 68, 0
2, 19084, Note_on_c, 0, 70, 64
2, 19084, Note_on_c, 0, 53, 64
2, 19110, Note_on_c, 0, 70, 0
2, 19114, Note_on_c, 0, 68, 64
2, 19136, Note_on_c, 0, 53, 0
2, 19140, Note_on_c, 0, 68, 0
2, 19144, Note_on_c, 0, 66, 64
2, 19144, Note_on_c, 0, 56, 64
2, 19170, Note_on_c, 0, 66, 0
2, 19174, Note_on_c, 0, 65, 64
2, 19196, Note_on_c, 0, 56, 0
2, 19200, Note_on_c, 0, 65, 0
2, 19204, Note_on_c, 0, 73, 64
2, 19204, Note_on_c, 0, 46, 64
2, 19230, Note_on_c, 0, 73, 0
2, 19234, Note_on_c, 0, 70, 64
2, 19256, Note_on_c, 0, 46, 0
2, 19260, Note_on_c, 0, 70, 0
2, 19264, Note_on_c, 0, 68, 64
2, 19264, Note_on_c, 0, 49, 64
2, 19290, Note_on_c, 0, 68, 0
2, 19294, Note_on_c, 0, 66, 64
2, 19316, Note_on_c, 0, 49, 0
2, 19320, Note_on_c, 0, 66, 0
2, 19324, Note_on_c, 0, 68, 64
2, 19324, Note_on_c, 0, 51, 64
2, 19350, Note_on_c, 0, 68, 0
2, 19354, Note_on_c, 0, 66, 64
2, 19376, Note_on_c, 0, 51, 0
2, 19380, Note_on_c, 0, 66, 0
2, 19384, Note_on_c, 0, 65, 64
2, 19384, Note_on_c, 0, 54, 64
2, 19410, Note_on_c, 0, 65, 0
2, 19414, Note_on_c, 0, 63, 64
2, 19436, Note_on_c, 0, 54, 0
2, 19440, Note_on_c, 0, 63, 0
2, 19444, Note_on_c, 0, 71, 64
2, 19444, Note_on_c, 0, 44, 64
2, 19470, Note_on_c, 0, 71, 0
2, 19474, Note_on_c, 0, 68, 64
2, 19496, Note_on_c, 0, 44, 0
2, 19500, Note_on_c, 0, 68, 0
2, 19504, Note_on_c, 0, 66, 64
2, 19504, Note_on_c, 0, 47, 64
2, 19530, Note_on_c, 0, 66, 0
2, 19534, Note_on_c, 0, 65, 64
2, 19556, Note_on_c, 0, 47, 0
2, 19560, Note_on_c, 0, 65, 0
2, 19564, Note_on_c, 0, 66, 64
2, 19564, Note_on_c, 0, 49, 64
2, 19590, Note_on_c, 0, 66, 0
2, 19594, Note_on_c, 0, 65, 64
2, 19616, Note_on_c, 0, 49, 0
2, 19620, Note_on_c, 0, 65, 0
2, 19624, Note_on_c, 0, 63, 64
2, 19624, Note_on_c, 0, 53, 64
2, 19650, Note_on_c, 0, 63, 0
2, 19654, Note_on_c, 0, 61, 64
2, 19676, Note_on_c, 0, 53, 0
2, 19680, Note_on_c, 0, 61, 0
2, 19684, Note_on_c, 0, 70, 64
2, 19684, Note_on_c, 0, 42, 64
2, 19710, Note_on_c, 0, 42, 0
2, 19710, Note_on_c, 0, 70, 0
2, 19714, Note_on_c, 0, 68, 64
2, 19714, Note_on_c, 0, 44, 64
2, 19740, Note_on_c, 0, 44, 0
2, 19740, Note_on_c, 0, 68, 0
2, 19744, Note_on_c, 0, 66, 64
2, 19744, Note_on_c, 0, 46, 64
2, 19770, Note_on_c, 0, 46, 0
2, 19770, Note_on_c, 0, 66, 0
2, 19774, Note_on_c, 0, 68, 64
2, 19774, Note_on_c, 0, 47, 64
2, 19800, Note_on_c, 0, 47, 0
2, 19800, Note_on_c, 0, 68, 0
2, 19804, Note_on_c, 0, 70, 64
2, 19804, Note_on_c, 0, 49, 64
2, 19830, Note_on_c, 0, 49, 0
2, 19834, Note_on_c, 0, 51, 64
2, 19856, Note_on_c, 0, 70, 0
2, 19860, Note_on_c, 0, 51, 0
2, 19864, Note_on_c, 0, 61, 64
2, 19864, Note_on_c, 0, 52, 64
2, 19890, Note_on_c, 0, 52, 0
2, 19894, Note_on_c, 0, 49, 64
2, 19916, Note_on_c, 0, 61, 0
2, 19920, Note_on_c, 0, 49, 0
2, 19924, Note_on_c, 0, 59, 64
2, 19924, Note_on_c, 0, 51, 64
2, 19950, Note_on_c, 0, 59, 0
2, 19954, Note_on_c, 0, 61, 64
2, 19976, Note_on_c, 0, 51, 0
2, 19980, Note_on_c, 0, 61, 0
2, 19984, Note_on_c, 0, 63, 64
2, 19984, Note_on_c, 0, 54, 64
2, 20010, Note_on_c, 0, 63, 0
2, 20014, Note_on_c, 0, 64, 64
2, 20036, Note_on_c, 0, 54, 0
2, 20040, Note_on_c, 0, 64, 0
2, 20044, Note_on_c, 0, 66, 64
2, 20044, Note_on_c, 0, 51, 64
2, 20070, Note_on_c, 0, 66, 0
2, 20074, Note_on_c, 0, 68, 64
2, 20096, Note_on_c, 0, 51, 0
2, 20100, Note_on_c, 0, 68, 0
2, 20104, Note_on_c, 0, 69, 64
2, 20104, Note_on_c, 0, 47, 64
2, 20130, Note_on_c, 0, 69, 0
2, 20134, Note_on_c, 0, 66, 64
2, 20156, Note_on_c, 0, 47, 0
2, 20160, Note_on_c, 0, 66, 0
2, 20164, Note_on_c, 0, 68, 64
2, 20164, Note_on_c, 0, 52, 64
2, 20190, Note_on_c, 0, 68, 0
2, 20194, Note_on_c, 0, 69, 64
2, 20216, Note_on_c, 0, 52, 0
2, 20220, Note_on_c, 0, 69, 0
2, 20224, Note_on_c, 0, 68, 64
2, 20224, Note_on_c, 0, 40, 64
2, 20250, Note_on_c, 0, 68, 0
2, 20254, Note_on_c, 0, 66, 64
2, 20276, Note_on_c, 0, 40, 0
2, 20280, Note_on_c, 0, 66, 0
2, 20284, Note_on_c, 0, 64, 64
2, 20284, Note_on_c, 0, 52, 64
2, 20296, Note_on_c, 0, 51, 64
2, 20307, Note_on_c, 0, 52, 0
2, 20310, Note_on_c, 0, 64, 0
2, 20312, Note_on_c, 0, 52, 64
2, 20314, Note_on_c, 0, 63, 64
2, 20319, Note_on_c, 0, 51, 0
2, 20340, Note_on_c, 0, 63, 0
2, 20344, Note_on_c, 0, 61, 64
2, 20370, Note_on_c, 0, 61, 0
2, 20374, Note_on_c, 0, 59, 64
2, 20400, Note_on_c, 0, 59, 0
2, 20404, Note_on_c, 0, 58, 64
2, 20430, Note_on_c, 0, 58, 0
2, 20434, Note_on_c, 0, 66, 64
2, 20460, Note_on_c, 0, 66, 0
2, 20463, Note_on_c, 0, 52, 0
2, 20464, Note_on_c, 0, 59, 64
2, 20464, Note_on_c, 0, 51, 64
2, 20490, Note_on_c, 0, 59, 0
2, 20494, Note_on_c, 0, 66, 64
2, 20516, Note_on_c, 0, 51, 0
2, 20520, Note_on_c, 0, 66, 0
2, 20524, Note_on_c, 0, 64, 64
2, 20524, Note_on_c, 0, 49, 64
2, 20550, Note_on_c, 0, 64, 0
2, 20554, Note_on_c, 0, 59, 64
2, 20576, Note_on_c, 0, 49, 0
2, 20580, Note_on_c, 0, 59, 0
2, 20584, Note_on_c, 0, 58, 64
2, 20584, Note_on_c, 0, 54, 64
2, 20610, Note_on_c, 0, 58, 0
2, 20614, Note_on_c, 0, 64, 64
2, 20636, Note_on_c, 0, 54, 0
2, 20640, Note_on_c, 0, 64, 0
2, 20644, Note_on_c, 0, 63, 64
2, 20644, Note_on_c, 0, 47, 64
2, 20670, Note_on_c, 0, 63, 0
2, 20674, Note_on_c, 0, 61, 64
2, 20696, Note_on_c, 0, 47, 0
2, 20700, Note_on_c, 0, 61, 0
2, 20704, Note_on_c, 0, 59, 64
2, 20704, Note_on_c, 0, 49, 64
2, 20730, Note_on_c, 0, 59, 0
2, 20734, Note_on_c, 0, 58, 64
2, 20756, Note_on_c, 0, 49, 0
2, 20760, Note_on_c, 0, 58, 0
2, 20764, Note_on_c, 0, 59, 64
2, 20764, Note_on_c, 0, 51, 64
2, 20790, Note_on_c, 0, 59, 0
2, 20794, Note_on_c, 0, 63, 64
2, 20816, Note_on_c, 0, 51, 0
2, 20820, Note_on_c, 0, 63, 0
2, 20824, Note_on_c, 0, 66, 64
2, 20824, Note_on_c, 0, 47, 64
2, 20850, Note_on_c, 0, 66, 0
2, 20854, Note_on_c, 0, 57, 64
2, 20876, Note_on_c, 0, 47, 0
2, 20880, Note_on_c, 0, 57, 0
2, 20884, Note_on_c, 0, 56, 64
2, 20884, Note_on_c, 0, 40, 64
2, 20910, Note_on_c, 0, 56, 0
2, 20914, Note_on_c, 0, 66, 64
2, 20936, Note_on_c, 0, 40, 0
2, 20940, Note_on_c, 0, 66, 0
2, 20944, Note_on_c, 0, 64, 64
2, 20944, Note_on_c, 0, 44, 64
2, 20970, Note_on_c, 0, 64, 0
2, 20974, Note_on_c, 0, 63, 64
2, 20996, Note_on_c, 0, 44, 0
2, 21000, Note_on_c, 0, 63, 0
2, 21004, Note_on_c, 0, 61, 64
2, 21004, Note_on_c, 0, 40, 64
2, 21030, Note_on_c, 0, 61, 0
2, 21034, Note_on_c, 0, 63, 64
2, 21056, Note_on_c, 0, 40, 0
2, 21060, Note_on_c, 0, 63, 0
2, 21064, Note_on_c, 0, 64, 64
2, 21064, Note_on_c, 0, 37, 64
2, 21090, Note_on_c, 0, 64, 0
2, 21094, Note_on_c, 0, 59, 64
2, 21116, Note_on_c, 0, 37, 0
2, 21120, Note_on_c, 0, 59, 0
2, 21124, Note_on_c, 0, 58, 64
2, 21124, Note_on_c, 0, 42, 64
2, 21150, Note_on_c, 0, 58, 0
2, 21154, Note_on_c, 0, 59, 64
2, 21176, Note_on_c, 0, 42, 0
2, 21180, Note_on_c, 0, 59, 0
2, 21184, Note_on_c, 0, 61, 64
2, 21184, Note_on_c, 0, 40, 64
2, 21210, Note_on_c, 0, 61, 0
2, 21214, Note_on_c, 0, 56, 64
2, 21236, Note_on_c, 0, 40, 0
2, 21240, Note_on_c, 0, 56, 0
2, 21244, Note_on_c, 0, 54, 64
2, 21244, Note_on_c, 0, 39, 64
2, 21270, Note_on_c, 0, 54, 0
2, 21274, Note_on_c, 0, 52, 64
2, 21296, Note_on_c, 0, 39, 0
2, 21300, Note_on_c, 0, 52, 0
2, 21304, Note_on_c, 0, 51, 64
2, 21304, Note_on_c, 0, 46, 64
2, 21330, Note_on_c, 0, 51, 0
2, 21334, Note_on_c, 0, 49, 64
2, 21356, Note_on_c, 0, 46, 0
2, 21360, Note_on_c, 0, 49, 0
2, 21364, Note_on_c, 0, 51, 64
2, 21364, Note_on_c, 0, 47, 64
2, 21390, Note_on_c, 0, 51, 0
2, 21394, Note_on_c, 0, 54, 64
2, 21416, Note_on_c, 0, 47, 0
2, 21420, Note_on_c, 0, 54, 0
2, 21424, Note_on_c, 0, 59, 64
2, 21424, Note_on_c, 0, 44, 64
2, 21450, Note_on_c, 0, 59, 0
2, 21454, Note_on_c, 0, 51, 64
2, 21476, Note_on_c, 0, 44, 0
2, 21480, Note_on_c, 0, 51, 0
2, 21484, Note_on_c, 0, 49, 64
2, 21484, Note_on_c, 0, 40, 64
2, 21510, Note_on_c, 0, 49, 0
2, 21514, Note_on_c, 0, 59, 64
2, 21536, Note_on_c, 0, 40, 0
2, 21540, Note_on_c, 0, 59, 0
2, 21544, Note_on_c, 0, 52, 64
2, 21544, Note_on_c, 0, 42, 64
2, 21570, Note_on_c, 0, 52, 0
2, 21574, Note_on_c, 0, 58, 64
2, 21596, Note_on_c, 0, 42, 0
2, 21600, Note_on_c, 0, 58, 0
2, 21604, Note_on_c, 0, 35, 64
2, 21612, Note_on_c, 0, 47, 64
2, 21620, Note_on_c, 0, 51, 64
2, 21628, Note_on_c, 0, 54, 64
2, 21636, Note_on_c, 0, 59, 64
2, 21651, Note_on_c, 0, 47, 0
2, 21655, Note_on_c, 0, 51, 0
2, 21656, Note_on_c, 0, 35, 0
2, 21659, Note_on_c, 0, 54, 0
2, 21667, Note_on_c, 0, 59, 0
2, 21667, End_track
0, 0, End_of_file
