0, 0, Header, 1, 5, 120
1, 0, Start_track
1, 0, Time_signature, 2, 1, 48, 8
1, 0, Key_signature, 5, "major"
1, 0, Tempo, 500000
1, 0, Marker_t, "(c) Yo Tomita, 1997"
1, 48670, Tempo, 506329
1, 48685, Tempo, 508475
1, 48697, Tempo, 510638
1, 48712, Tempo, 512821
1, 48725, Tempo, 515021
1, 48740, Tempo, 517241
1, 48752, Tempo, 519481
1, 48767, Tempo, 521739
1, 48780, Tempo, 524017
1, 48795, Tempo, 526316
1, 48807, Tempo, 528634
1, 48822, Tempo, 530973
1, 48835, Tempo, 533333
1, 48850, Tempo, 535714
1, 48862, Tempo, 538117
1, 48877, Tempo, 540541
1, 48890, Tempo, 542986
1, 48905, Tempo, 545455
1, 48917, Tempo, 547945
1, 48932, Tempo, 550459
1, 48945, Tempo, 552995
1, 48960, Tempo, 555556
1, 48972, Tempo, 558140
1, 48987, Tempo, 560748
1, 49000, Tempo, 563380
1, 49015, Tempo, 566038
1, 49027, Tempo, 568720
1, 49042, Tempo, 571429
1, 49055, Tempo, 574163
1, 49070, Tempo, 576923
1, 49082, Tempo, 579710
1, 49097, Tempo, 582524
1, 49110, Tempo, 585366
1, 49125, Tempo, 588235
1, 49137, Tempo, 591133
1, 49152, Tempo, 594059
1, 49165, Tempo, 597015
1, 49180, Tempo, 600000
1, 49192, Tempo, 603015
1, 49207, Tempo, 606061
1, 49220, Tempo, 609137
1, 49235, Tempo, 612245
1, 49247, Tempo, 615385
1, 49262, Tempo, 618557
1, 49275, Tempo, 621762
1, 49282, Tempo, 625000
1, 49287, Tempo, 628272
1, 49292, Tempo, 631579
1, 49297, Tempo, 634921
1, 49302, Tempo, 638298
1, 49310, Tempo, 641711
1, 49315, Tempo, 645161
1, 49320, Tempo, 648649
1, 49325, Tempo, 652174
1, 49330, Tempo, 655738
1, 49335, Tempo, 659341
1, 49342, Tempo, 662983
1, 49347, Tempo, 666667
1, 49352, Tempo, 670391
1, 49357, Tempo, 674157
1, 49362, Tempo, 677966
1, 49370, Tempo, 681818
1, 49375, Tempo, 685714
1, 49380, Tempo, 689655
1, 49385, Tempo, 693642
1, 49390, Tempo, 697674
1, 49395, Tempo, 701754
1, 49400, Tempo, 705882
1, 49402, Tempo, 710059
1, 49405, Tempo, 714286
1, 49407, Tempo, 718563
1, 49412, Tempo, 722892
1, 49415, Tempo, 727273
1, 49417, Tempo, 731707
1, 49420, Tempo, 736196
1, 49422, Tempo, 740741
1, 49427, Tempo, 745342
1, 49430, Tempo, 750000
1, 49432, Tempo, 754717
1, 49435, Tempo, 759494
1, 49440, Tempo, 764331
1, 49442, Tempo, 769231
1, 49445, Tempo, 774194
1, 49447, Tempo, 779221
1, 49450, Tempo, 784314
1, 49455, Tempo, 789474
1, 49457, Tempo, 794702
1, 49460, Tempo, 800000
1, 49462, Tempo, 805369
1, 49467, Tempo, 810811
1, 49470, Tempo, 816327
1, 49472, Tempo, 821918
1, 49475, Tempo, 827586
1, 49477, Tempo, 833333
1, 49482, Tempo, 839161
1, 49485, Tempo, 845070
1, 49487, Tempo, 851064
1, 49490, Tempo, 857143
1, 49495, Tempo, 863309
1, 49497, Tempo, 869565
1, 49500, Tempo, 875912
1, 49502, Tempo, 882353
1, 49505, Tempo, 888889
1, 49510, Tempo, 895522
1, 49512, Tempo, 902256
1, 49515, Tempo, 909091
1, 49517, Tempo, 916031
1, 49520, Tempo, 923077
1, 49525, Tempo, 930233
1, 49527, Tempo, 937500
1, 49530, Tempo, 944882
1, 49532, Tempo, 952381
1, 49535, Tempo, 960000
1, 49540, Tempo, 967742
1, 49542, Tempo, 975610
1, 49545, Tempo, 983607
1, 49547, Tempo, 991736
1, 49550, Tempo, 1000000
1, 49552, Tempo, 1008403
1, 49555, Tempo, 1016949
1, 49557, Tempo, 1025641
1, 49560, Tempo, 1034483
1, 49562, Tempo, 1043478
1, 49565, Tempo, 1052632
1, 49567, Tempo, 1061947
1, 49570, Tempo, 1071429
1, 49572, Tempo, 1081081
1, 49575, Tempo, 1090909
1, 49577, Tempo, 1100917
1, 49580, Tempo, 1111111
1, 49582, Tempo, 1121495
1, 49585, Tempo, 1132075
1, 49587, Tempo, 1142857
1, 49590, Tempo, 1153846
1, 49592, Tempo, 1165049
1, 49595, Tempo, 1176471
1, 49597, Tempo, 1188119
1, 49600, Tempo, 1200000
1, 49602, Tempo, 1212121
1, 49605, Tempo, 1224490
1, 49607, Tempo, 1237113
1, 49607, End_track
2, 0, Start_track
2, 0, MIDI_port, 0
2, 0, Title_t, "BWV 892/2"
2, 0, Program_c, 0, 6
2, 6244, Note_on_c, 0, 66, 64
2, 6469, Note_on_c, 0, 66, 0
2, 6484, Note_on_c, 0, 70, 64
2, 6709, Note_on_c, 0, 70, 0
2, 6724, Note_on_c, 0, 75, 64
2, 6949, Note_on_c, 0, 75, 0
2, 6964, Note_on_c, 0, 71, 64
2, 7189, Note_on_c, 0, 71, 0
2, 7204, Note_on_c, 0, 68, 64
2, 7429, Note_on_c, 0, 68, 0
2, 7444, Note_on_c, 0, 77, 64
2, 7669, Note_on_c, 0, 77, 0
2, 7684, Note_on_c, 0, 78, 64
2, 7789, Note_on_c, 0, 78, 0
2, 7804, Note_on_c, 0, 77, 64
2, 7856, Note_on_c, 0, 77, 0
2, 7864, Note_on_c, 0, 75, 64
2, 7916, Note_on_c, 0, 75, 0
2, 7924, Note_on_c, 0, 73, 64
2, 8029, Note_on_c, 0, 73, 0
2, 8044, Note_on_c, 0, 71, 64
2, 8149, Note_on_c, 0, 71, 0
2, 8164, Note_on_c, 0, 70, 64
2, 8216, Note_on_c, 0, 70, 0
2, 8224, Note_on_c, 0, 68, 64
2, 8276, Note_on_c, 0, 68, 0
2, 8284, Note_on_c, 0, 71, 64
2, 8509, Note_on_c, 0, 71, 0
2, 8524, Note_on_c, 0, 70, 64
2, 8576, Note_on_c, 0, 70, 0
2, 8584, Note_on_c, 0, 68, 64
2, 8636, Note_on_c, 0, 68, 0
2, 8644, Note_on_c, 0, 66, 64
2, 8696, Note_on_c, 0, 66, 0
2, 8704, Note_on_c, 0, 68, 64
2, 8756, Note_on_c, 0, 68, 0
2, 8764, Note_on_c, 0, 69, 64
2, 8989, Note_on_c, 0, 69, 0
2, 9004, Note_on_c, 0, 68, 64
2, 9056, Note_on_c, 0, 68, 0
2, 9064, Note_on_c, 0, 66, 64
2, 9116, Note_on_c, 0, 66, 0
2, 9124, Note_on_c, 0, 64, 64
2, 9176, Note_on_c, 0, 64, 0
2, 9184, Note_on_c, 0, 71, 64
2, 9236, Note_on_c, 0, 71, 0
2, 9244, Note_on_c, 0, 75, 64
2, 9469, Note_on_c, 0, 75, 0
2, 9484, Note_on_c, 0, 73, 64
2, 9536, Note_on_c, 0, 73, 0
2, 9544, Note_on_c, 0, 71, 64
2, 9596, Note_on_c, 0, 71, 0
2, 9604, Note_on_c, 0, 70, 64
2, 9656, Note_on_c, 0, 70, 0
2, 9664, Note_on_c, 0, 76, 64
2, 9716, Note_on_c, 0, 76, 0
2, 9724, Note_on_c, 0, 80, 64
2, 9949, Note_on_c, 0, 80, 0
2, 9964, Note_on_c, 0, 78, 64
2, 10016, Note_on_c, 0, 78, 0
2, 10024, Note_on_c, 0, 76, 64
2, 10076, Note_on_c, 0, 76, 0
2, 10084, Note_on_c, 0, 75, 64
2, 10669, Note_on_c, 0, 75, 0
2, 10684, Note_on_c, 0, 79, 64
2, 10789, Note_on_c, 0, 79, 0
2, 10804, Note_on_c, 0, 80, 64
2, 10909, Note_on_c, 0, 80, 0
2, 10924, Note_on_c, 0, 73, 64
2, 11029, Note_on_c, 0, 73, 0
2, 11044, Note_on_c, 0, 71, 64
2, 11576, Note_on_c, 0, 71, 0
2, 11584, Note_on_c, 0, 70, 64
2, 11636, Note_on_c, 0, 70, 0
2, 11644, Note_on_c, 0, 71, 64
2, 11929, Note_on_c, 0, 71, 0
2, 11944, Note_on_c, 0, 70, 64
2, 11996, Note_on_c, 0, 70, 0
2, 12004, Note_on_c, 0, 68, 64
2, 12056, Note_on_c, 0, 68, 0
2, 12064, Note_on_c, 0, 71, 64
2, 12116, Note_on_c, 0, 71, 0
2, 12124, Note_on_c, 0, 75, 64
2, 12349, Note_on_c, 0, 75, 0
2, 12364, Note_on_c, 0, 73, 64
2, 12416, Note_on_c, 0, 73, 0
2, 12424, Note_on_c, 0, 71, 64
2, 12476, Note_on_c, 0, 71, 0
2, 12484, Note_on_c, 0, 70, 64
2, 12709, Note_on_c, 0, 70, 0
2, 13084, Note_on_c, 0, 78, 64
2, 13136, Note_on_c, 0, 78, 0
2, 13144, Note_on_c, 0, 76, 64
2, 13196, Note_on_c, 0, 76, 0
2, 13204, Note_on_c, 0, 75, 64
2, 13256, Note_on_c, 0, 75, 0
2, 13264, Note_on_c, 0, 76, 64
2, 13316, Note_on_c, 0, 76, 0
2, 13324, Note_on_c, 0, 78, 64
2, 13376, Note_on_c, 0, 78, 0
2, 13384, Note_on_c, 0, 75, 64
2, 13436, Note_on_c, 0, 75, 0
2, 13444, Note_on_c, 0, 71, 64
2, 13496, Note_on_c, 0, 71, 0
2, 13504, Note_on_c, 0, 73, 64
2, 13556, Note_on_c, 0, 73, 0
2, 13564, Note_on_c, 0, 75, 64
2, 13616, Note_on_c, 0, 75, 0
2, 13624, Note_on_c, 0, 71, 64
2, 13676, Note_on_c, 0, 71, 0
2, 13684, Note_on_c, 0, 68, 64
2, 13736, Note_on_c, 0, 68, 0
2, 13744, Note_on_c, 0, 70, 64
2, 13796, Note_on_c, 0, 70, 0
2, 13804, Note_on_c, 0, 71, 64
2, 13976, Note_on_c, 0, 71, 0
2, 13984, Note_on_c, 0, 68, 64
2, 14036, Note_on_c, 0, 68, 0
2, 14044, Note_on_c, 0, 70, 64
2, 14096, Note_on_c, 0, 70, 0
2, 14104, Note_on_c, 0, 71, 64
2, 14156, Note_on_c, 0, 71, 0
2, 14164, Note_on_c, 0, 73, 64
2, 14456, Note_on_c, 0, 73, 0
2, 14464, Note_on_c, 0, 66, 64
2, 14516, Note_on_c, 0, 66, 0
2, 14524, Note_on_c, 0, 68, 64
2, 14576, Note_on_c, 0, 68, 0
2, 14584, Note_on_c, 0, 70, 64
2, 14636, Note_on_c, 0, 70, 0
2, 14644, Note_on_c, 0, 71, 64
2, 15109, Note_on_c, 0, 71, 0
2, 15124, Note_on_c, 0, 70, 64
2, 15176, Note_on_c, 0, 70, 0
2, 15184, Note_on_c, 0, 71, 64
2, 15236, Note_on_c, 0, 71, 0
2, 15244, Note_on_c, 0, 73, 64
2, 15296, Note_on_c, 0, 73, 0
2, 15304, Note_on_c, 0, 70, 64
2, 15356, Note_on_c, 0, 70, 0
2, 15364, Note_on_c, 0, 66, 64
2, 15469, Note_on_c, 0, 66, 0
2, 15484, Note_on_c, 0, 83, 64
2, 15536, Note_on_c, 0, 83, 0
2, 15544, Note_on_c, 0, 82, 64
2, 15596, Note_on_c, 0, 82, 0
2, 15604, Note_on_c, 0, 80, 64
2, 15656, Note_on_c, 0, 80, 0
2, 15664, Note_on_c, 0, 82, 64
2, 15716, Note_on_c, 0, 82, 0
2, 15724, Note_on_c, 0, 83, 64
2, 15776, Note_on_c, 0, 83, 0
2, 15784, Note_on_c, 0, 80, 64
2, 15836, Note_on_c, 0, 80, 0
2, 15844, Note_on_c, 0, 76, 64
2, 15896, Note_on_c, 0, 76, 0
2, 15904, Note_on_c, 0, 78, 64
2, 15956, Note_on_c, 0, 78, 0
2, 15964, Note_on_c, 0, 80, 64
2, 16016, Note_on_c, 0, 80, 0
2, 16024, Note_on_c, 0, 76, 64
2, 16076, Note_on_c, 0, 76, 0
2, 16084, Note_on_c, 0, 73, 64
2, 16136, Note_on_c, 0, 73, 0
2, 16144, Note_on_c, 0, 75, 64
2, 16196, Note_on_c, 0, 75, 0
2, 16204, Note_on_c, 0, 76, 64
2, 16429, Note_on_c, 0, 76, 0
2, 16444, Note_on_c, 0, 75, 64
2, 16496, Note_on_c, 0, 75, 0
2, 16504, Note_on_c, 0, 73, 64
2, 16556, Note_on_c, 0, 73, 0
2, 16564, Note_on_c, 0, 71, 64
2, 16804, Note_on_c, 0, 71, 0
2, 16924, Note_on_c, 0, 73, 64
2, 16976, Note_on_c, 0, 73, 0
2, 16984, Note_on_c, 0, 71, 64
2, 17036, Note_on_c, 0, 71, 0
2, 17044, Note_on_c, 0, 70, 64
2, 17149, Note_on_c, 0, 70, 0
2, 17164, Note_on_c, 0, 68, 64
2, 17269, Note_on_c, 0, 68, 0
2, 17284, Note_on_c, 0, 67, 64
2, 17389, Note_on_c, 0, 67, 0
2, 17644, Note_on_c, 0, 68, 64
2, 17696, Note_on_c, 0, 68, 0
2, 17704, Note_on_c, 0, 67, 64
2, 17756, Note_on_c, 0, 67, 0
2, 17764, Note_on_c, 0, 68, 64
2, 17869, Note_on_c, 0, 68, 0
2, 19684, Note_on_c, 0, 66, 64
2, 19909, Note_on_c, 0, 66, 0
2, 19924, Note_on_c, 0, 70, 64
2, 20149, Note_on_c, 0, 70, 0
2, 20164, Note_on_c, 0, 75, 64
2, 20389, Note_on_c, 0, 75, 0
2, 20404, Note_on_c, 0, 71, 64
2, 20629, Note_on_c, 0, 71, 0
2, 20644, Note_on_c, 0, 68, 64
2, 20869, Note_on_c, 0, 68, 0
2, 20884, Note_on_c, 0, 77, 64
2, 21109, Note_on_c, 0, 77, 0
2, 21124, Note_on_c, 0, 78, 64
2, 21416, Note_on_c, 0, 78, 0
2, 21424, Note_on_c, 0, 77, 64
2, 21476, Note_on_c, 0, 77, 0
2, 21484, Note_on_c, 0, 78, 64
2, 21536, Note_on_c, 0, 78, 0
2, 21544, Note_on_c, 0, 80, 64
2, 21596, Note_on_c, 0, 80, 0
2, 21604, Note_on_c, 0, 82, 64
2, 21896, Note_on_c, 0, 82, 0
2, 21904, Note_on_c, 0, 82, 64
2, 21956, Note_on_c, 0, 82, 0
2, 21964, Note_on_c, 0, 80, 64
2, 22016, Note_on_c, 0, 80, 0
2, 22024, Note_on_c, 0, 78, 64
2, 22076, Note_on_c, 0, 78, 0
2, 22084, Note_on_c, 0, 77, 64
2, 22189, Note_on_c, 0, 77, 0
2, 22204, Note_on_c, 0, 79, 64
2, 22256, Note_on_c, 0, 79, 0
2, 22264, Note_on_c, 0, 80, 64
2, 22316, Note_on_c, 0, 80, 0
2, 22324, Note_on_c, 0, 79, 64
2, 22376, Note_on_c, 0, 79, 0
2, 22384, Note_on_c, 0, 80, 64
2, 22436, Note_on_c, 0, 80, 0
2, 22444, Note_on_c, 0, 82, 64
2, 22496, Note_on_c, 0, 82, 0
2, 22504, Note_on_c, 0, 79, 64
2, 22556, Note_on_c, 0, 79, 0
2, 22564, Note_on_c, 0, 75, 64
2, 22789, Note_on_c, 0, 75, 0
2, 23164, Note_on_c, 0, 80, 64
2, 23216, Note_on_c, 0, 80, 0
2, 23224, Note_on_c, 0, 78, 64
2, 23276, Note_on_c, 0, 78, 0
2, 23284, Note_on_c, 0, 76, 64
2, 23336, Note_on_c, 0, 76, 0
2, 23344, Note_on_c, 0, 78, 64
2, 23396, Note_on_c, 0, 78, 0
2, 23404, Note_on_c, 0, 80, 64
2, 23456, Note_on_c, 0, 80, 0
2, 23464, Note_on_c, 0, 76, 64
2, 23516, Note_on_c, 0, 76, 0
2, 23524, Note_on_c, 0, 73, 64
2, 23576, Note_on_c, 0, 73, 0
2, 23584, Note_on_c, 0, 75, 64
2, 23636, Note_on_c, 0, 75, 0
2, 23644, Note_on_c, 0, 76, 64
2, 23696, Note_on_c, 0, 76, 0
2, 23704, Note_on_c, 0, 73, 64
2, 23756, Note_on_c, 0, 73, 0
2, 23764, Note_on_c, 0, 70, 64
2, 23816, Note_on_c, 0, 70, 0
2, 23824, Note_on_c, 0, 71, 64
2, 23876, Note_on_c, 0, 71, 0
2, 23884, Note_on_c, 0, 73, 64
2, 24056, Note_on_c, 0, 73, 0
2, 24064, Note_on_c, 0, 70, 64
2, 24116, Note_on_c, 0, 70, 0
2, 24124, Note_on_c, 0, 71, 64
2, 24409, Note_on_c, 0, 71, 0
2, 24424, Note_on_c, 0, 71, 64
2, 24476, Note_on_c, 0, 71, 0
2, 24484, Note_on_c, 0, 71, 64
2, 24536, Note_on_c, 0, 71, 0
2, 24544, Note_on_c, 0, 68, 64
2, 24596, Note_on_c, 0, 68, 0
2, 24604, Note_on_c, 0, 70, 64
2, 24889, Note_on_c, 0, 70, 0
2, 24904, Note_on_c, 0, 69, 64
2, 24956, Note_on_c, 0, 69, 0
2, 24964, Note_on_c, 0, 69, 64
2, 25016, Note_on_c, 0, 69, 0
2, 25024, Note_on_c, 0, 67, 64
2, 25076, Note_on_c, 0, 67, 0
2, 25084, Note_on_c, 0, 68, 64
2, 25256, Note_on_c, 0, 68, 0
2, 25264, Note_on_c, 0, 72, 64
2, 25316, Note_on_c, 0, 72, 0
2, 25324, Note_on_c, 0, 73, 64
2, 25549, Note_on_c, 0, 73, 0
2, 25564, Note_on_c, 0, 73, 64
2, 25669, Note_on_c, 0, 73, 0
2, 25684, Note_on_c, 0, 75, 64
2, 26029, Note_on_c, 0, 75, 0
2, 26044, Note_on_c, 0, 69, 64
2, 26269, Note_on_c, 0, 69, 0
2, 26284, Note_on_c, 0, 68, 64
2, 26336, Note_on_c, 0, 68, 0
2, 26344, Note_on_c, 0, 66, 64
2, 26396, Note_on_c, 0, 66, 0
2, 26404, Note_on_c, 0, 64, 64
2, 26509, Note_on_c, 0, 64, 0
2, 26524, Note_on_c, 0, 68, 64
2, 26629, Note_on_c, 0, 68, 0
2, 26644, Note_on_c, 0, 73, 64
2, 26989, Note_on_c, 0, 73, 0
2, 27004, Note_on_c, 0, 78, 64
2, 27056, Note_on_c, 0, 78, 0
2, 27064, Note_on_c, 0, 76, 64
2, 27116, Note_on_c, 0, 76, 0
2, 27124, Note_on_c, 0, 78, 64
2, 27229, Note_on_c, 0, 78, 0
2, 27244, Note_on_c, 0, 75, 64
2, 27349, Note_on_c, 0, 75, 0
2, 27364, Note_on_c, 0, 71, 64
2, 27469, Note_on_c, 0, 71, 0
2, 27484, Note_on_c, 0, 73, 64
2, 27536, Note_on_c, 0, 73, 0
2, 27544, Note_on_c, 0, 75, 64
2, 27596, Note_on_c, 0, 75, 0
2, 27604, Note_on_c, 0, 76, 64
2, 27709, Note_on_c, 0, 76, 0
2, 27724, Note_on_c, 0, 69, 64
2, 27829, Note_on_c, 0, 69, 0
2, 27844, Note_on_c, 0, 68, 64
2, 28009, Note_on_c, 0, 68, 0
2, 28024, Note_on_c, 0, 69, 64
2, 28076, Note_on_c, 0, 69, 0
2, 28084, Note_on_c, 0, 66, 64
2, 28309, Note_on_c, 0, 66, 0
2, 28324, Note_on_c, 0, 64, 64
2, 28549, Note_on_c, 0, 64, 0
2, 28684, Note_on_c, 0, 83, 64
2, 28736, Note_on_c, 0, 83, 0
2, 28744, Note_on_c, 0, 81, 64
2, 28796, Note_on_c, 0, 81, 0
2, 28804, Note_on_c, 0, 80, 64
2, 28856, Note_on_c, 0, 80, 0
2, 28864, Note_on_c, 0, 81, 64
2, 28916, Note_on_c, 0, 81, 0
2, 28924, Note_on_c, 0, 83, 64
2, 28976, Note_on_c, 0, 83, 0
2, 28984, Note_on_c, 0, 80, 64
2, 29036, Note_on_c, 0, 80, 0
2, 29044, Note_on_c, 0, 76, 64
2, 29096, Note_on_c, 0, 76, 0
2, 29104, Note_on_c, 0, 78, 64
2, 29156, Note_on_c, 0, 78, 0
2, 29164, Note_on_c, 0, 80, 64
2, 29216, Note_on_c, 0, 80, 0
2, 29224, Note_on_c, 0, 76, 64
2, 29276, Note_on_c, 0, 76, 0
2, 29284, Note_on_c, 0, 73, 64
2, 29336, Note_on_c, 0, 73, 0
2, 29344, Note_on_c, 0, 75, 64
2, 29396, Note_on_c, 0, 75, 0
2, 29404, Note_on_c, 0, 76, 64
2, 29629, Note_on_c, 0, 76, 0
2, 29644, Note_on_c, 0, 75, 64
2, 29869, Note_on_c, 0, 75, 0
2, 29884, Note_on_c, 0, 80, 64
2, 30056, Note_on_c, 0, 80, 0
2, 30064, Note_on_c, 0, 78, 64
2, 30116, Note_on_c, 0, 78, 0
2, 30124, Note_on_c, 0, 80, 64
2, 30229, Note_on_c, 0, 80, 0
2, 30244, Note_on_c, 0, 78, 64
2, 30829, Note_on_c, 0, 78, 0
2, 30844, Note_on_c, 0, 76, 64
2, 31016, Note_on_c, 0, 76, 0
2, 31024, Note_on_c, 0, 75, 64
2, 31076, Note_on_c, 0, 75, 0
2, 31084, Note_on_c, 0, 76, 64
2, 31189, Note_on_c, 0, 76, 0
2, 31204, Note_on_c, 0, 75, 64
2, 31789, Note_on_c, 0, 75, 0
2, 31804, Note_on_c, 0, 73, 64
2, 31976, Note_on_c, 0, 73, 0
2, 31984, Note_on_c, 0, 71, 64
2, 32036, Note_on_c, 0, 71, 0
2, 32044, Note_on_c, 0, 73, 64
2, 32149, Note_on_c, 0, 73, 0
2, 32164, Note_on_c, 0, 71, 64
2, 32329, Note_on_c, 0, 71, 0
2, 32344, Note_on_c, 0, 71, 64
2, 32396, Note_on_c, 0, 71, 0
2, 32404, Note_on_c, 0, 76, 64
2, 32569, Note_on_c, 0, 76, 0
2, 32584, Note_on_c, 0, 76, 64
2, 32636, Note_on_c, 0, 76, 0
2, 32644, Note_on_c, 0, 75, 64
2, 32809, Note_on_c, 0, 75, 0
2, 32824, Note_on_c, 0, 75, 64
2, 32876, Note_on_c, 0, 75, 0
2, 32884, Note_on_c, 0, 80, 64
2, 33049, Note_on_c, 0, 80, 0
2, 33064, Note_on_c, 0, 80, 64
2, 33116, Note_on_c, 0, 80, 0
2, 33124, Note_on_c, 0, 78, 64
2, 33289, Note_on_c, 0, 78, 0
2, 33304, Note_on_c, 0, 78, 64
2, 33356, Note_on_c, 0, 78, 0
2, 33364, Note_on_c, 0, 83, 64
2, 33529, Note_on_c, 0, 83, 0
2, 33544, Note_on_c, 0, 83, 64
2, 33596, Note_on_c, 0, 83, 0
2, 33604, Note_on_c, 0, 82, 64
2, 33769, Note_on_c, 0, 82, 0
2, 33784, Note_on_c, 0, 73, 64
2, 33836, Note_on_c, 0, 73, 0
2, 33844, Note_on_c, 0, 81, 64
2, 34009, Note_on_c, 0, 81, 0
2, 34024, Note_on_c, 0, 78, 64
2, 34076, Note_on_c, 0, 78, 0
2, 34084, Note_on_c, 0, 80, 64
2, 34616, Note_on_c, 0, 80, 0
2, 34624, Note_on_c, 0, 80, 64
2, 34676, Note_on_c, 0, 80, 0
2, 34684, Note_on_c, 0, 78, 64
2, 34736, Note_on_c, 0, 78, 0
2, 34744, Note_on_c, 0, 76, 64
2, 34796, Note_on_c, 0, 76, 0
2, 34804, Note_on_c, 0, 75, 64
2, 34856, Note_on_c, 0, 75, 0
2, 34864, Note_on_c, 0, 76, 64
2, 34916, Note_on_c, 0, 76, 0
2, 34924, Note_on_c, 0, 78, 64
2, 34976, Note_on_c, 0, 78, 0
2, 34984, Note_on_c, 0, 75, 64
2, 35036, Note_on_c, 0, 75, 0
2, 35044, Note_on_c, 0, 76, 64
2, 35509, Note_on_c, 0, 76, 0
2, 35524, Note_on_c, 0, 75, 64
2, 35869, Note_on_c, 0, 75, 0
2, 35884, Note_on_c, 0, 73, 64
2, 35989, Note_on_c, 0, 73, 0
2, 36004, Note_on_c, 0, 71, 64
2, 36296, Note_on_c, 0, 71, 0
2, 36304, Note_on_c, 0, 71, 64
2, 36356, Note_on_c, 0, 71, 0
2, 36364, Note_on_c, 0, 76, 64
2, 36416, Note_on_c, 0, 76, 0
2, 36424, Note_on_c, 0, 78, 64
2, 36476, Note_on_c, 0, 78, 0
2, 36484, Note_on_c, 0, 80, 64
2, 36776, Note_on_c, 0, 80, 0
2, 36784, Note_on_c, 0, 80, 64
2, 36836, Note_on_c, 0, 80, 0
2, 36844, Note_on_c, 0, 78, 64
2, 36896, Note_on_c, 0, 78, 0
2, 36904, Note_on_c, 0, 76, 64
2, 36956, Note_on_c, 0, 76, 0
2, 36964, Note_on_c, 0, 75, 64
2, 37976, Note_on_c, 0, 75, 0
2, 37984, Note_on_c, 0, 75, 64
2, 38036, Note_on_c, 0, 75, 0
2, 38044, Note_on_c, 0, 74, 64
2, 38096, Note_on_c, 0, 74, 0
2, 38104, Note_on_c, 0, 72, 64
2, 38156, Note_on_c, 0, 72, 0
2, 38164, Note_on_c, 0, 74, 64
2, 38216, Note_on_c, 0, 74, 0
2, 38224, Note_on_c, 0, 75, 64
2, 38276, Note_on_c, 0, 75, 0
2, 38284, Note_on_c, 0, 77, 64
2, 38336, Note_on_c, 0, 77, 0
2, 38344, Note_on_c, 0, 78, 64
2, 38396, Note_on_c, 0, 78, 0
2, 38404, Note_on_c, 0, 80, 64
2, 38629, Note_on_c, 0, 80, 0
2, 38644, Note_on_c, 0, 78, 64
2, 39176, Note_on_c, 0, 78, 0
2, 39184, Note_on_c, 0, 78, 64
2, 39236, Note_on_c, 0, 78, 0
2, 39244, Note_on_c, 0, 77, 64
2, 39296, Note_on_c, 0, 77, 0
2, 39304, Note_on_c, 0, 75, 64
2, 39356, Note_on_c, 0, 75, 0
2, 39364, Note_on_c, 0, 74, 64
2, 39656, Note_on_c, 0, 74, 0
2, 39664, Note_on_c, 0, 70, 64
2, 39716, Note_on_c, 0, 70, 0
2, 39724, Note_on_c, 0, 75, 64
2, 39896, Note_on_c, 0, 75, 0
2, 39904, Note_on_c, 0, 72, 64
2, 39956, Note_on_c, 0, 72, 0
2, 39964, Note_on_c, 0, 74, 64
2, 40016, Note_on_c, 0, 74, 0
2, 40024, Note_on_c, 0, 77, 64
2, 40076, Note_on_c, 0, 77, 0
2, 40084, Note_on_c, 0, 68, 64
2, 40136, Note_on_c, 0, 68, 0
2, 40144, Note_on_c, 0, 71, 64
2, 40196, Note_on_c, 0, 71, 0
2, 40204, Note_on_c, 0, 70, 64
2, 40256, Note_on_c, 0, 70, 0
2, 40264, Note_on_c, 0, 68, 64
2, 40316, Note_on_c, 0, 68, 0
2, 40324, Note_on_c, 0, 66, 64
2, 40789, Note_on_c, 0, 66, 0
2, 44164, Note_on_c, 0, 71, 64
2, 44389, Note_on_c, 0, 71, 0
2, 44404, Note_on_c, 0, 75, 64
2, 44629, Note_on_c, 0, 75, 0
2, 44644, Note_on_c, 0, 80, 64
2, 44869, Note_on_c, 0, 80, 0
2, 44884, Note_on_c, 0, 76, 64
2, 45109, Note_on_c, 0, 76, 0
2, 45124, Note_on_c, 0, 73, 64
2, 45349, Note_on_c, 0, 73, 0
2, 45364, Note_on_c, 0, 82, 64
2, 45589, Note_on_c, 0, 82, 0
2, 45604, Note_on_c, 0, 83, 64
2, 45829, Note_on_c, 0, 83, 0
2, 45844, Note_on_c, 0, 76, 64
2, 46616, Note_on_c, 0, 76, 0
2, 46624, Note_on_c, 0, 75, 64
2, 46676, Note_on_c, 0, 75, 0
2, 46684, Note_on_c, 0, 76, 64
2, 46736, Note_on_c, 0, 76, 0
2, 46744, Note_on_c, 0, 75, 64
2, 46796, Note_on_c, 0, 75, 0
2, 46804, Note_on_c, 0, 76, 64
2, 46909, Note_on_c, 0, 76, 0
2, 47044, Note_on_c, 0, 75, 64
2, 47096, Note_on_c, 0, 75, 0
2, 47104, Note_on_c, 0, 73, 64
2, 47156, Note_on_c, 0, 73, 0
2, 47164, Note_on_c, 0, 75, 64
2, 47216, Note_on_c, 0, 75, 0
2, 47224, Note_on_c, 0, 73, 64
2, 47276, Note_on_c, 0, 73, 0
2, 47284, Note_on_c, 0, 75, 64
2, 47389, Note_on_c, 0, 75, 0
2, 47584, Note_on_c, 0, 65, 64
2, 47636, Note_on_c, 0, 65, 0
2, 47644, Note_on_c, 0, 74, 64
2, 47696, Note_on_c, 0, 74, 0
2, 47704, Note_on_c, 0, 73, 64
2, 47756, Note_on_c, 0, 73, 0
2, 47764, Note_on_c, 0, 71, 64
2, 47816, Note_on_c, 0, 71, 0
2, 47824, Note_on_c, 0, 73, 64
2, 47876, Note_on_c, 0, 73, 0
2, 47884, Note_on_c, 0, 74, 64
2, 47936, Note_on_c, 0, 74, 0
2, 47944, Note_on_c, 0, 71, 64
2, 47996, Note_on_c, 0, 71, 0
2, 48004, Note_on_c, 0, 68, 64
2, 48056, Note_on_c, 0, 68, 0
2, 48064, Note_on_c, 0, 69, 64
2, 48116, Note_on_c, 0, 69, 0
2, 48124, Note_on_c, 0, 71, 64
2, 48176, Note_on_c, 0, 71, 0
2, 48184, Note_on_c, 0, 68, 64
2, 48236, Note_on_c, 0, 68, 0
2, 48244, Note_on_c, 0, 65, 64
2, 48296, Note_on_c, 0, 65, 0
2, 48304, Note_on_c, 0, 74, 64
2, 48356, Note_on_c, 0, 74, 0
2, 48364, Note_on_c, 0, 73, 64
2, 48416, Note_on_c, 0, 73, 0
2, 48424, Note_on_c, 0, 71, 64
2, 48476, Note_on_c, 0, 71, 0
2, 48484, Note_on_c, 0, 70, 64
2, 48709, Note_on_c, 0, 70, 0
2, 48784, Note_on_c, 0, 66, 64
2, 48836, Note_on_c, 0, 66, 0
2, 48844, Note_on_c, 0, 71, 64
2, 49069, Note_on_c, 0, 71, 0
2, 49084, Note_on_c, 0, 70, 64
2, 49136, Note_on_c, 0, 70, 0
2, 49144, Note_on_c, 0, 68, 64
2, 49196, Note_on_c, 0, 68, 0
2, 49204, Note_on_c, 0, 70, 64
2, 49429, Note_on_c, 0, 70, 0
2, 49444, Note_on_c, 0, 71, 64
2, 49909, Note_on_c, 0, 71, 0
2, 49909, End_track
3, 0, Start_track
3, 0, MIDI_port, 0
3, 0, Title_t, "Fugue in B major"
3, 0, Program_c, 1, 6
3, 4324, Note_on_c, 1, 59, 64
3, 4549, Note_on_c, 1, 59, 0
3, 4564, Note_on_c, 1, 63, 64
3, 4789, Note_on_c, 1, 63, 0
3, 4804, Note_on_c, 1, 68, 64
3, 5029, Note_on_c, 1, 68, 0
3, 5044, Note_on_c, 1, 64, 64
3, 5269, Note_on_c, 1, 64, 0
3, 5284, Note_on_c, 1, 61, 64
3, 5509, Note_on_c, 1, 61, 0
3, 5524, Note_on_c, 1, 70, 64
3, 5749, Note_on_c, 1, 70, 0
3, 5764, Note_on_c, 1, 71, 64
3, 5869, Note_on_c, 1, 71, 0
3, 5884, Note_on_c, 1, 70, 64
3, 5936, Note_on_c, 1, 70, 0
3, 5944, Note_on_c, 1, 68, 64
3, 5996, Note_on_c, 1, 68, 0
3, 6004, Note_on_c, 1, 66, 64
3, 6109, Note_on_c, 1, 66, 0
3, 6124, Note_on_c, 1, 64, 64
3, 6229, Note_on_c, 1, 64, 0
3, 6244, Note_on_c, 1, 63, 64
3, 6296, Note_on_c, 1, 63, 0
3, 6304, Note_on_c, 1, 61, 64
3, 6356, Note_on_c, 1, 61, 0
3, 6364, Note_on_c, 1, 64, 64
3, 6589, Note_on_c, 1, 64, 0
3, 6604, Note_on_c, 1, 63, 64
3, 6656, Note_on_c, 1, 63, 0
3, 6664, Note_on_c, 1, 61, 64
3, 6716, Note_on_c, 1, 61, 0
3, 6724, Note_on_c, 1, 59, 64
3, 6776, Note_on_c, 1, 59, 0
3, 6784, Note_on_c, 1, 66, 64
3, 6836, Note_on_c, 1, 66, 0
3, 6844, Note_on_c, 1, 70, 64
3, 7069, Note_on_c, 1, 70, 0
3, 7084, Note_on_c, 1, 68, 64
3, 7136, Note_on_c, 1, 68, 0
3, 7144, Note_on_c, 1, 66, 64
3, 7196, Note_on_c, 1, 66, 0
3, 7204, Note_on_c, 1, 65, 64
3, 7256, Note_on_c, 1, 65, 0
3, 7264, Note_on_c, 1, 71, 64
3, 7316, Note_on_c, 1, 71, 0
3, 7324, Note_on_c, 1, 75, 64
3, 7549, Note_on_c, 1, 75, 0
3, 7564, Note_on_c, 1, 73, 64
3, 7616, Note_on_c, 1, 73, 0
3, 7624, Note_on_c, 1, 71, 64
3, 7676, Note_on_c, 1, 71, 0
3, 7684, Note_on_c, 1, 70, 64
3, 7789, Note_on_c, 1, 70, 0
3, 7804, Note_on_c, 1, 71, 64
3, 7909, Note_on_c, 1, 71, 0
3, 7924, Note_on_c, 1, 70, 64
3, 8029, Note_on_c, 1, 70, 0
3, 8044, Note_on_c, 1, 68, 64
3, 8149, Note_on_c, 1, 68, 0
3, 8164, Note_on_c, 1, 66, 64
3, 8269, Note_on_c, 1, 66, 0
3, 8284, Note_on_c, 1, 65, 64
3, 8336, Note_on_c, 1, 65, 0
3, 8344, Note_on_c, 1, 63, 64
3, 8396, Note_on_c, 1, 63, 0
3, 8404, Note_on_c, 1, 61, 64
3, 8456, Note_on_c, 1, 61, 0
3, 8464, Note_on_c, 1, 63, 64
3, 8516, Note_on_c, 1, 63, 0
3, 8524, Note_on_c, 1, 64, 64
3, 8749, Note_on_c, 1, 64, 0
3, 8764, Note_on_c, 1, 63, 64
3, 8816, Note_on_c, 1, 63, 0
3, 8824, Note_on_c, 1, 61, 64
3, 8876, Note_on_c, 1, 61, 0
3, 8884, Note_on_c, 1, 59, 64
3, 8936, Note_on_c, 1, 59, 0
3, 8944, Note_on_c, 1, 61, 64
3, 8996, Note_on_c, 1, 61, 0
3, 9004, Note_on_c, 1, 63, 64
3, 9109, Note_on_c, 1, 63, 0
3, 9124, Note_on_c, 1, 64, 64
3, 9289, Note_on_c, 1, 64, 0
3, 9304, Note_on_c, 1, 66, 64
3, 9356, Note_on_c, 1, 66, 0
3, 9364, Note_on_c, 1, 68, 64
3, 9589, Note_on_c, 1, 68, 0
3, 9604, Note_on_c, 1, 70, 64
3, 9769, Note_on_c, 1, 70, 0
3, 9784, Note_on_c, 1, 71, 64
3, 9836, Note_on_c, 1, 71, 0
3, 9844, Note_on_c, 1, 73, 64
3, 10136, Note_on_c, 1, 73, 0
3, 10144, Note_on_c, 1, 73, 64
3, 10196, Note_on_c, 1, 73, 0
3, 10204, Note_on_c, 1, 71, 64
3, 10256, Note_on_c, 1, 71, 0
3, 10264, Note_on_c, 1, 70, 64
3, 10316, Note_on_c, 1, 70, 0
3, 10324, Note_on_c, 1, 68, 64
3, 10376, Note_on_c, 1, 68, 0
3, 10384, Note_on_c, 1, 67, 64
3, 10436, Note_on_c, 1, 67, 0
3, 10444, Note_on_c, 1, 68, 64
3, 10496, Note_on_c, 1, 68, 0
3, 10504, Note_on_c, 1, 67, 64
3, 10556, Note_on_c, 1, 67, 0
3, 10564, Note_on_c, 1, 68, 64
3, 10616, Note_on_c, 1, 68, 0
3, 10624, Note_on_c, 1, 71, 64
3, 10676, Note_on_c, 1, 71, 0
3, 10684, Note_on_c, 1, 70, 64
3, 10736, Note_on_c, 1, 70, 0
3, 10744, Note_on_c, 1, 73, 64
3, 10796, Note_on_c, 1, 73, 0
3, 10804, Note_on_c, 1, 71, 64
3, 10909, Note_on_c, 1, 71, 0
3, 10924, Note_on_c, 1, 70, 64
3, 11096, Note_on_c, 1, 70, 0
3, 11104, Note_on_c, 1, 70, 64
3, 11156, Note_on_c, 1, 70, 0
3, 11164, Note_on_c, 1, 68, 64
3, 11216, Note_on_c, 1, 68, 0
3, 11224, Note_on_c, 1, 66, 64
3, 11276, Note_on_c, 1, 66, 0
3, 11284, Note_on_c, 1, 65, 64
3, 11336, Note_on_c, 1, 65, 0
3, 11344, Note_on_c, 1, 66, 64
3, 11396, Note_on_c, 1, 66, 0
3, 11404, Note_on_c, 1, 65, 64
3, 11456, Note_on_c, 1, 65, 0
3, 11464, Note_on_c, 1, 66, 64
3, 11516, Note_on_c, 1, 66, 0
3, 11524, Note_on_c, 1, 68, 64
3, 11749, Note_on_c, 1, 68, 0
3, 11764, Note_on_c, 1, 61, 64
3, 11869, Note_on_c, 1, 61, 0
3, 11884, Note_on_c, 1, 66, 64
3, 12229, Note_on_c, 1, 66, 0
3, 12244, Note_on_c, 1, 65, 64
3, 12469, Note_on_c, 1, 65, 0
3, 12484, Note_on_c, 1, 66, 64
3, 12709, Note_on_c, 1, 66, 0
3, 16324, Note_on_c, 1, 59, 64
3, 16549, Note_on_c, 1, 59, 0
3, 16564, Note_on_c, 1, 63, 64
3, 16789, Note_on_c, 1, 63, 0
3, 16804, Note_on_c, 1, 68, 64
3, 17029, Note_on_c, 1, 68, 0
3, 17044, Note_on_c, 1, 64, 64
3, 17269, Note_on_c, 1, 64, 0
3, 17284, Note_on_c, 1, 61, 64
3, 17509, Note_on_c, 1, 61, 0
3, 17524, Note_on_c, 1, 70, 64
3, 17749, Note_on_c, 1, 70, 0
3, 17764, Note_on_c, 1, 71, 64
3, 18056, Note_on_c, 1, 71, 0
3, 18064, Note_on_c, 1, 71, 64
3, 18116, Note_on_c, 1, 71, 0
3, 18124, Note_on_c, 1, 70, 64
3, 18176, Note_on_c, 1, 70, 0
3, 18184, Note_on_c, 1, 68, 64
3, 18236, Note_on_c, 1, 68, 0
3, 18244, Note_on_c, 1, 66, 64
3, 18536, Note_on_c, 1, 66, 0
3, 18544, Note_on_c, 1, 69, 64
3, 18596, Note_on_c, 1, 69, 0
3, 18604, Note_on_c, 1, 68, 64
3, 18656, Note_on_c, 1, 68, 0
3, 18664, Note_on_c, 1, 66, 64
3, 18716, Note_on_c, 1, 66, 0
3, 18724, Note_on_c, 1, 65, 64
3, 18776, Note_on_c, 1, 65, 0
3, 18784, Note_on_c, 1, 66, 64
3, 18836, Note_on_c, 1, 66, 0
3, 18844, Note_on_c, 1, 68, 64
3, 18896, Note_on_c, 1, 68, 0
3, 18904, Note_on_c, 1, 65, 64
3, 18956, Note_on_c, 1, 65, 0
3, 18964, Note_on_c, 1, 66, 64
3, 19429, Note_on_c, 1, 66, 0
3, 19444, Note_on_c, 1, 65, 64
3, 19669, Note_on_c, 1, 65, 0
3, 19684, Note_on_c, 1, 66, 64
3, 19909, Note_on_c, 1, 66, 0
3, 20284, Note_on_c, 1, 71, 64
3, 20336, Note_on_c, 1, 71, 0
3, 20344, Note_on_c, 1, 70, 64
3, 20396, Note_on_c, 1, 70, 0
3, 20404, Note_on_c, 1, 68, 64
3, 20456, Note_on_c, 1, 68, 0
3, 20464, Note_on_c, 1, 70, 64
3, 20516, Note_on_c, 1, 70, 0
3, 20524, Note_on_c, 1, 71, 64
3, 20576, Note_on_c, 1, 71, 0
3, 20584, Note_on_c, 1, 68, 64
3, 20636, Note_on_c, 1, 68, 0
3, 20644, Note_on_c, 1, 65, 64
3, 20696, Note_on_c, 1, 65, 0
3, 20704, Note_on_c, 1, 66, 64
3, 20756, Note_on_c, 1, 66, 0
3, 20764, Note_on_c, 1, 68, 64
3, 20816, Note_on_c, 1, 68, 0
3, 20824, Note_on_c, 1, 65, 64
3, 20876, Note_on_c, 1, 65, 0
3, 20884, Note_on_c, 1, 62, 64
3, 20936, Note_on_c, 1, 62, 0
3, 20944, Note_on_c, 1, 63, 64
3, 20996, Note_on_c, 1, 63, 0
3, 21004, Note_on_c, 1, 65, 64
3, 21176, Note_on_c, 1, 65, 0
3, 21184, Note_on_c, 1, 63, 64
3, 21236, Note_on_c, 1, 63, 0
3, 21244, Note_on_c, 1, 65, 64
3, 21296, Note_on_c, 1, 65, 0
3, 21304, Note_on_c, 1, 66, 64
3, 21356, Note_on_c, 1, 66, 0
3, 21364, Note_on_c, 1, 68, 64
3, 21656, Note_on_c, 1, 68, 0
3, 21664, Note_on_c, 1, 66, 64
3, 21716, Note_on_c, 1, 66, 0
3, 21724, Note_on_c, 1, 68, 64
3, 21776, Note_on_c, 1, 68, 0
3, 21784, Note_on_c, 1, 70, 64
3, 21836, Note_on_c, 1, 70, 0
3, 21844, Note_on_c, 1, 71, 64
3, 22136, Note_on_c, 1, 71, 0
3, 22144, Note_on_c, 1, 71, 64
3, 22196, Note_on_c, 1, 71, 0
3, 22204, Note_on_c, 1, 70, 64
3, 22256, Note_on_c, 1, 70, 0
3, 22264, Note_on_c, 1, 68, 64
3, 22316, Note_on_c, 1, 68, 0
3, 22324, Note_on_c, 1, 70, 64
3, 22376, Note_on_c, 1, 70, 0
3, 22384, Note_on_c, 1, 71, 64
3, 22436, Note_on_c, 1, 71, 0
3, 22444, Note_on_c, 1, 73, 64
3, 22616, Note_on_c, 1, 73, 0
3, 22624, Note_on_c, 1, 73, 64
3, 22676, Note_on_c, 1, 73, 0
3, 22684, Note_on_c, 1, 71, 64
3, 22736, Note_on_c, 1, 71, 0
3, 22744, Note_on_c, 1, 70, 64
3, 22796, Note_on_c, 1, 70, 0
3, 22804, Note_on_c, 1, 68, 64
3, 22856, Note_on_c, 1, 68, 0
3, 22864, Note_on_c, 1, 70, 64
3, 22916, Note_on_c, 1, 70, 0
3, 22924, Note_on_c, 1, 71, 64
3, 22976, Note_on_c, 1, 71, 0
3, 22984, Note_on_c, 1, 68, 64
3, 23036, Note_on_c, 1, 68, 0
3, 23044, Note_on_c, 1, 61, 64
3, 23096, Note_on_c, 1, 61, 0
3, 23104, Note_on_c, 1, 60, 64
3, 23156, Note_on_c, 1, 60, 0
3, 23164, Note_on_c, 1, 61, 64
3, 23389, Note_on_c, 1, 61, 0
3, 23404, Note_on_c, 1, 68, 64
3, 23629, Note_on_c, 1, 68, 0
3, 23644, Note_on_c, 1, 67, 64
3, 23749, Note_on_c, 1, 67, 0
3, 23944, Note_on_c, 1, 70, 64
3, 23996, Note_on_c, 1, 70, 0
3, 24004, Note_on_c, 1, 63, 64
3, 24169, Note_on_c, 1, 63, 0
3, 24184, Note_on_c, 1, 66, 64
3, 24236, Note_on_c, 1, 66, 0
3, 24244, Note_on_c, 1, 65, 64
3, 24296, Note_on_c, 1, 65, 0
3, 24304, Note_on_c, 1, 68, 64
3, 24356, Note_on_c, 1, 68, 0
3, 24364, Note_on_c, 1, 61, 64
3, 24649, Note_on_c, 1, 61, 0
3, 24664, Note_on_c, 1, 64, 64
3, 24716, Note_on_c, 1, 64, 0
3, 24724, Note_on_c, 1, 63, 64
3, 24776, Note_on_c, 1, 63, 0
3, 24784, Note_on_c, 1, 66, 64
3, 24836, Note_on_c, 1, 66, 0
3, 24844, Note_on_c, 1, 59, 64
3, 25129, Note_on_c, 1, 59, 0
3, 25144, Note_on_c, 1, 60, 64
3, 25196, Note_on_c, 1, 60, 0
3, 25204, Note_on_c, 1, 64, 64
3, 25369, Note_on_c, 1, 64, 0
3, 25384, Note_on_c, 1, 65, 64
3, 25436, Note_on_c, 1, 65, 0
3, 25444, Note_on_c, 1, 66, 64
3, 25549, Note_on_c, 1, 66, 0
3, 25564, Note_on_c, 1, 69, 64
3, 25616, Note_on_c, 1, 69, 0
3, 25624, Note_on_c, 1, 68, 64
3, 25676, Note_on_c, 1, 68, 0
3, 25684, Note_on_c, 1, 66, 64
3, 25736, Note_on_c, 1, 66, 0
3, 25744, Note_on_c, 1, 68, 64
3, 25796, Note_on_c, 1, 68, 0
3, 25804, Note_on_c, 1, 69, 64
3, 25856, Note_on_c, 1, 69, 0
3, 25864, Note_on_c, 1, 66, 64
3, 25916, Note_on_c, 1, 66, 0
3, 25924, Note_on_c, 1, 63, 64
3, 25976, Note_on_c, 1, 63, 0
3, 25984, Note_on_c, 1, 64, 64
3, 26036, Note_on_c, 1, 64, 0
3, 26044, Note_on_c, 1, 66, 64
3, 26096, Note_on_c, 1, 66, 0
3, 26104, Note_on_c, 1, 63, 64
3, 26156, Note_on_c, 1, 63, 0
3, 26164, Note_on_c, 1, 60, 64
3, 26216, Note_on_c, 1, 60, 0
3, 26224, Note_on_c, 1, 61, 64
3, 26276, Note_on_c, 1, 61, 0
3, 26284, Note_on_c, 1, 63, 64
3, 26509, Note_on_c, 1, 63, 0
3, 26524, Note_on_c, 1, 61, 64
3, 26749, Note_on_c, 1, 61, 0
3, 26764, Note_on_c, 1, 64, 64
3, 26869, Note_on_c, 1, 64, 0
3, 26884, Note_on_c, 1, 69, 64
3, 27109, Note_on_c, 1, 69, 0
3, 27244, Note_on_c, 1, 69, 64
3, 27469, Note_on_c, 1, 69, 0
3, 27484, Note_on_c, 1, 68, 64
3, 27536, Note_on_c, 1, 68, 0
3, 27544, Note_on_c, 1, 69, 64
3, 27596, Note_on_c, 1, 69, 0
3, 27604, Note_on_c, 1, 71, 64
3, 27709, Note_on_c, 1, 71, 0
3, 27724, Note_on_c, 1, 66, 64
3, 27896, Note_on_c, 1, 66, 0
3, 27904, Note_on_c, 1, 63, 64
3, 27956, Note_on_c, 1, 63, 0
3, 27964, Note_on_c, 1, 64, 64
3, 28136, Note_on_c, 1, 64, 0
3, 28144, Note_on_c, 1, 61, 64
3, 28196, Note_on_c, 1, 61, 0
3, 28204, Note_on_c, 1, 63, 64
3, 28309, Note_on_c, 1, 63, 0
3, 28324, Note_on_c, 1, 64, 64
3, 28376, Note_on_c, 1, 64, 0
3, 28384, Note_on_c, 1, 71, 64
3, 28436, Note_on_c, 1, 71, 0
3, 28444, Note_on_c, 1, 76, 64
3, 28616, Note_on_c, 1, 76, 0
3, 28624, Note_on_c, 1, 73, 64
3, 28676, Note_on_c, 1, 73, 0
3, 28684, Note_on_c, 1, 75, 64
3, 28789, Note_on_c, 1, 75, 0
3, 28924, Note_on_c, 1, 68, 64
3, 29164, Note_on_c, 1, 68, 0
3, 29164, Note_on_c, 1, 64, 64
3, 29269, Note_on_c, 1, 64, 0
3, 29404, Note_on_c, 1, 73, 64
3, 29456, Note_on_c, 1, 73, 0
3, 29464, Note_on_c, 1, 71, 64
3, 29516, Note_on_c, 1, 71, 0
3, 29524, Note_on_c, 1, 70, 64
3, 29576, Note_on_c, 1, 70, 0
3, 29584, Note_on_c, 1, 71, 64
3, 29636, Note_on_c, 1, 71, 0
3, 29644, Note_on_c, 1, 73, 64
3, 29696, Note_on_c, 1, 73, 0
3, 29704, Note_on_c, 1, 70, 64
3, 29756, Note_on_c, 1, 70, 0
3, 29764, Note_on_c, 1, 71, 64
3, 29989, Note_on_c, 1, 71, 0
3, 30004, Note_on_c, 1, 70, 64
3, 30296, Note_on_c, 1, 70, 0
3, 30304, Note_on_c, 1, 76, 64
3, 30356, Note_on_c, 1, 76, 0
3, 30364, Note_on_c, 1, 75, 64
3, 30416, Note_on_c, 1, 75, 0
3, 30424, Note_on_c, 1, 73, 64
3, 30476, Note_on_c, 1, 73, 0
3, 30484, Note_on_c, 1, 72, 64
3, 30536, Note_on_c, 1, 72, 0
3, 30544, Note_on_c, 1, 73, 64
3, 30596, Note_on_c, 1, 73, 0
3, 30604, Note_on_c, 1, 75, 64
3, 30656, Note_on_c, 1, 75, 0
3, 30664, Note_on_c, 1, 72, 64
3, 30716, Note_on_c, 1, 72, 0
3, 30724, Note_on_c, 1, 68, 64
3, 30949, Note_on_c, 1, 68, 0
3, 30964, Note_on_c, 1, 67, 64
3, 31129, Note_on_c, 1, 67, 0
3, 31144, Note_on_c, 1, 73, 64
3, 31256, Note_on_c, 1, 73, 0
3, 31264, Note_on_c, 1, 73, 64
3, 31316, Note_on_c, 1, 73, 0
3, 31324, Note_on_c, 1, 71, 64
3, 31376, Note_on_c, 1, 71, 0
3, 31384, Note_on_c, 1, 70, 64
3, 31436, Note_on_c, 1, 70, 0
3, 31444, Note_on_c, 1, 68, 64
3, 31496, Note_on_c, 1, 68, 0
3, 31504, Note_on_c, 1, 70, 64
3, 31556, Note_on_c, 1, 70, 0
3, 31564, Note_on_c, 1, 71, 64
3, 31616, Note_on_c, 1, 71, 0
3, 31624, Note_on_c, 1, 68, 64
3, 31676, Note_on_c, 1, 68, 0
3, 31684, Note_on_c, 1, 65, 64
3, 31789, Note_on_c, 1, 65, 0
3, 31804, Note_on_c, 1, 67, 64
3, 31856, Note_on_c, 1, 67, 0
3, 31864, Note_on_c, 1, 68, 64
3, 31916, Note_on_c, 1, 68, 0
3, 31924, Note_on_c, 1, 70, 64
3, 32089, Note_on_c, 1, 70, 0
3, 32104, Note_on_c, 1, 70, 64
3, 32216, Note_on_c, 1, 70, 0
3, 32224, Note_on_c, 1, 67, 64
3, 32276, Note_on_c, 1, 67, 0
3, 32284, Note_on_c, 1, 68, 64
3, 32456, Note_on_c, 1, 68, 0
3, 32464, Note_on_c, 1, 68, 64
3, 32516, Note_on_c, 1, 68, 0
3, 32524, Note_on_c, 1, 73, 64
3, 32696, Note_on_c, 1, 73, 0
3, 32704, Note_on_c, 1, 70, 64
3, 32756, Note_on_c, 1, 70, 0
3, 32764, Note_on_c, 1, 71, 64
3, 32936, Note_on_c, 1, 71, 0
3, 32944, Note_on_c, 1, 71, 64
3, 32996, Note_on_c, 1, 71, 0
3, 33004, Note_on_c, 1, 76, 64
3, 33176, Note_on_c, 1, 76, 0
3, 33184, Note_on_c, 1, 73, 64
3, 33236, Note_on_c, 1, 73, 0
3, 33244, Note_on_c, 1, 75, 64
3, 33416, Note_on_c, 1, 75, 0
3, 33424, Note_on_c, 1, 75, 64
3, 33476, Note_on_c, 1, 75, 0
3, 33484, Note_on_c, 1, 80, 64
3, 33656, Note_on_c, 1, 80, 0
3, 33664, Note_on_c, 1, 77, 64
3, 33716, Note_on_c, 1, 77, 0
3, 33724, Note_on_c, 1, 78, 64
3, 33870, Note_on_c, 1, 78, 0
3, 33874, Note_on_c, 1, 80, 64
3, 33900, Note_on_c, 1, 80, 0
3, 33904, Note_on_c, 1, 78, 64
3, 33930, Note_on_c, 1, 78, 0
3, 33934, Note_on_c, 1, 76, 64
3, 33960, Note_on_c, 1, 76, 0
3, 33964, Note_on_c, 1, 75, 64
3, 34136, Note_on_c, 1, 75, 0
3, 34144, Note_on_c, 1, 76, 64
3, 34196, Note_on_c, 1, 76, 0
3, 34204, Note_on_c, 1, 78, 64
3, 34256, Note_on_c, 1, 78, 0
3, 34264, Note_on_c, 1, 75, 64
3, 34316, Note_on_c, 1, 75, 0
3, 34324, Note_on_c, 1, 76, 64
3, 34376, Note_on_c, 1, 76, 0
3, 34384, Note_on_c, 1, 72, 64
3, 34436, Note_on_c, 1, 72, 0
3, 34444, Note_on_c, 1, 73, 64
3, 34496, Note_on_c, 1, 73, 0
3, 34504, Note_on_c, 1, 76, 64
3, 34556, Note_on_c, 1, 76, 0
3, 34564, Note_on_c, 1, 70, 64
3, 34789, Note_on_c, 1, 70, 0
3, 34804, Note_on_c, 1, 71, 64
3, 35096, Note_on_c, 1, 71, 0
3, 35104, Note_on_c, 1, 73, 64
3, 35156, Note_on_c, 1, 73, 0
3, 35164, Note_on_c, 1, 75, 64
3, 35216, Note_on_c, 1, 75, 0
3, 35224, Note_on_c, 1, 71, 64
3, 35276, Note_on_c, 1, 71, 0
3, 35284, Note_on_c, 1, 73, 64
3, 35336, Note_on_c, 1, 73, 0
3, 35344, Note_on_c, 1, 68, 64
3, 35396, Note_on_c, 1, 68, 0
3, 35404, Note_on_c, 1, 70, 64
3, 35456, Note_on_c, 1, 70, 0
3, 35464, Note_on_c, 1, 73, 64
3, 35516, Note_on_c, 1, 73, 0
3, 35524, Note_on_c, 1, 66, 64
3, 35629, Note_on_c, 1, 66, 0
3, 35644, Note_on_c, 1, 71, 64
3, 35749, Note_on_c, 1, 71, 0
3, 35764, Note_on_c, 1, 70, 64
3, 36109, Note_on_c, 1, 70, 0
3, 36124, Note_on_c, 1, 68, 64
3, 36176, Note_on_c, 1, 68, 0
3, 36184, Note_on_c, 1, 67, 64
3, 36236, Note_on_c, 1, 67, 0
3, 36244, Note_on_c, 1, 68, 64
3, 36409, Note_on_c, 1, 68, 0
3, 36424, Note_on_c, 1, 71, 64
3, 36476, Note_on_c, 1, 71, 0
3, 36484, Note_on_c, 1, 76, 64
3, 36776, Note_on_c, 1, 76, 0
3, 36784, Note_on_c, 1, 76, 64
3, 36836, Note_on_c, 1, 76, 0
3, 36844, Note_on_c, 1, 75, 64
3, 36896, Note_on_c, 1, 75, 0
3, 36904, Note_on_c, 1, 73, 64
3, 36956, Note_on_c, 1, 73, 0
3, 36964, Note_on_c, 1, 71, 64
3, 37256, Note_on_c, 1, 71, 0
3, 37264, Note_on_c, 1, 67, 64
3, 37316, Note_on_c, 1, 67, 0
3, 37324, Note_on_c, 1, 68, 64
3, 37376, Note_on_c, 1, 68, 0
3, 37384, Note_on_c, 1, 70, 64
3, 37436, Note_on_c, 1, 70, 0
3, 37444, Note_on_c, 1, 71, 64
3, 37496, Note_on_c, 1, 71, 0
3, 37504, Note_on_c, 1, 70, 64
3, 37556, Note_on_c, 1, 70, 0
3, 37564, Note_on_c, 1, 73, 64
3, 37616, Note_on_c, 1, 73, 0
3, 37624, Note_on_c, 1, 67, 64
3, 37676, Note_on_c, 1, 67, 0
3, 37684, Note_on_c, 1, 68, 64
3, 37909, Note_on_c, 1, 68, 0
3, 38524, Note_on_c, 1, 77, 64
3, 38749, Note_on_c, 1, 77, 0
3, 38764, Note_on_c, 1, 75, 64
3, 38816, Note_on_c, 1, 75, 0
3, 38824, Note_on_c, 1, 73, 64
3, 38876, Note_on_c, 1, 73, 0
3, 38884, Note_on_c, 1, 71, 64
3, 38989, Note_on_c, 1, 71, 0
3, 39004, Note_on_c, 1, 75, 64
3, 39109, Note_on_c, 1, 75, 0
3, 39124, Note_on_c, 1, 68, 64
3, 39416, Note_on_c, 1, 68, 0
3, 39424, Note_on_c, 1, 71, 64
3, 39476, Note_on_c, 1, 71, 0
3, 39484, Note_on_c, 1, 70, 64
3, 39536, Note_on_c, 1, 70, 0
3, 39544, Note_on_c, 1, 68, 64
3, 39596, Note_on_c, 1, 68, 0
3, 39604, Note_on_c, 1, 66, 64
3, 39829, Note_on_c, 1, 66, 0
3, 39844, Note_on_c, 1, 65, 64
3, 40376, Note_on_c, 1, 65, 0
3, 40384, Note_on_c, 1, 65, 64
3, 40436, Note_on_c, 1, 65, 0
3, 40444, Note_on_c, 1, 63, 64
3, 40496, Note_on_c, 1, 63, 0
3, 40504, Note_on_c, 1, 62, 64
3, 40556, Note_on_c, 1, 62, 0
3, 40564, Note_on_c, 1, 63, 64
3, 40789, Note_on_c, 1, 63, 0
3, 40924, Note_on_c, 1, 66, 64
3, 40976, Note_on_c, 1, 66, 0
3, 40984, Note_on_c, 1, 64, 64
3, 41036, Note_on_c, 1, 64, 0
3, 41044, Note_on_c, 1, 63, 64
3, 41096, Note_on_c, 1, 63, 0
3, 41104, Note_on_c, 1, 64, 64
3, 41156, Note_on_c, 1, 64, 0
3, 41164, Note_on_c, 1, 66, 64
3, 41216, Note_on_c, 1, 66, 0
3, 41224, Note_on_c, 1, 63, 64
3, 41276, Note_on_c, 1, 63, 0
3, 41284, Note_on_c, 1, 59, 64
3, 41336, Note_on_c, 1, 59, 0
3, 41344, Note_on_c, 1, 61, 64
3, 41396, Note_on_c, 1, 61, 0
3, 41404, Note_on_c, 1, 63, 64
3, 41456, Note_on_c, 1, 63, 0
3, 41464, Note_on_c, 1, 59, 64
3, 41516, Note_on_c, 1, 59, 0
3, 41524, Note_on_c, 1, 56, 64
3, 41576, Note_on_c, 1, 56, 0
3, 41584, Note_on_c, 1, 58, 64
3, 41636, Note_on_c, 1, 58, 0
3, 41644, Note_on_c, 1, 59, 64
3, 41816, Note_on_c, 1, 59, 0
3, 41824, Note_on_c, 1, 59, 64
3, 41876, Note_on_c, 1, 59, 0
3, 41884, Note_on_c, 1, 58, 64
3, 41936, Note_on_c, 1, 58, 0
3, 41944, Note_on_c, 1, 56, 64
3, 41996, Note_on_c, 1, 56, 0
3, 42004, Note_on_c, 1, 58, 64
3, 42109, Note_on_c, 1, 58, 0
3, 42124, Note_on_c, 1, 69, 64
3, 42349, Note_on_c, 1, 69, 0
3, 42364, Note_on_c, 1, 69, 64
3, 42469, Note_on_c, 1, 69, 0
3, 42484, Note_on_c, 1, 68, 64
3, 42589, Note_on_c, 1, 68, 0
3, 42604, Note_on_c, 1, 66, 64
3, 42829, Note_on_c, 1, 66, 0
3, 42844, Note_on_c, 1, 64, 64
3, 42896, Note_on_c, 1, 64, 0
3, 42904, Note_on_c, 1, 63, 64
3, 42956, Note_on_c, 1, 63, 0
3, 42964, Note_on_c, 1, 64, 64
3, 43016, Note_on_c, 1, 64, 0
3, 43024, Note_on_c, 1, 66, 64
3, 43076, Note_on_c, 1, 66, 0
3, 43084, Note_on_c, 1, 68, 64
3, 43309, Note_on_c, 1, 68, 0
3, 43324, Note_on_c, 1, 68, 64
3, 43429, Note_on_c, 1, 68, 0
3, 43444, Note_on_c, 1, 66, 64
3, 43549, Note_on_c, 1, 66, 0
3, 43564, Note_on_c, 1, 64, 64
3, 43789, Note_on_c, 1, 64, 0
3, 43804, Note_on_c, 1, 63, 64
3, 43856, Note_on_c, 1, 63, 0
3, 43864, Note_on_c, 1, 61, 64
3, 43916, Note_on_c, 1, 61, 0
3, 43924, Note_on_c, 1, 63, 64
3, 43976, Note_on_c, 1, 63, 0
3, 43984, Note_on_c, 1, 64, 64
3, 44036, Note_on_c, 1, 64, 0
3, 44044, Note_on_c, 1, 66, 64
3, 44216, Note_on_c, 1, 66, 0
3, 44224, Note_on_c, 1, 68, 64
3, 44276, Note_on_c, 1, 68, 0
3, 44284, Note_on_c, 1, 66, 64
3, 44336, Note_on_c, 1, 66, 0
3, 44344, Note_on_c, 1, 64, 64
3, 44396, Note_on_c, 1, 64, 0
3, 44404, Note_on_c, 1, 63, 64
3, 44509, Note_on_c, 1, 63, 0
3, 44524, Note_on_c, 1, 71, 64
3, 44749, Note_on_c, 1, 71, 0
3, 44764, Note_on_c, 1, 68, 64
3, 44989, Note_on_c, 1, 68, 0
3, 45004, Note_on_c, 1, 73, 64
3, 45109, Note_on_c, 1, 73, 0
3, 45124, Note_on_c, 1, 66, 64
3, 45176, Note_on_c, 1, 66, 0
3, 45184, Note_on_c, 1, 68, 64
3, 45236, Note_on_c, 1, 68, 0
3, 45244, Note_on_c, 1, 70, 64
3, 45296, Note_on_c, 1, 70, 0
3, 45304, Note_on_c, 1, 66, 64
3, 45356, Note_on_c, 1, 66, 0
3, 45364, Note_on_c, 1, 73, 64
3, 45416, Note_on_c, 1, 73, 0
3, 45424, Note_on_c, 1, 76, 64
3, 45476, Note_on_c, 1, 76, 0
3, 45484, Note_on_c, 1, 75, 64
3, 45536, Note_on_c, 1, 75, 0
3, 45544, Note_on_c, 1, 73, 64
3, 45596, Note_on_c, 1, 73, 0
3, 45604, Note_on_c, 1, 78, 64
3, 45656, Note_on_c, 1, 78, 0
3, 45664, Note_on_c, 1, 76, 64
3, 45716, Note_on_c, 1, 76, 0
3, 45724, Note_on_c, 1, 75, 64
3, 45776, Note_on_c, 1, 75, 0
3, 45784, Note_on_c, 1, 78, 64
3, 45836, Note_on_c, 1, 78, 0
3, 45844, Note_on_c, 1, 71, 64
3, 46136, Note_on_c, 1, 71, 0
3, 46144, Note_on_c, 1, 70, 64
3, 46196, Note_on_c, 1, 70, 0
3, 46204, Note_on_c, 1, 68, 64
3, 46256, Note_on_c, 1, 68, 0
3, 46264, Note_on_c, 1, 71, 64
3, 46316, Note_on_c, 1, 71, 0
3, 46324, Note_on_c, 1, 70, 64
3, 46376, Note_on_c, 1, 70, 0
3, 46384, Note_on_c, 1, 71, 64
3, 46436, Note_on_c, 1, 71, 0
3, 46444, Note_on_c, 1, 73, 64
3, 46496, Note_on_c, 1, 73, 0
3, 46504, Note_on_c, 1, 70, 64
3, 46556, Note_on_c, 1, 70, 0
3, 46564, Note_on_c, 1, 66, 64
3, 46909, Note_on_c, 1, 66, 0
3, 47044, Note_on_c, 1, 71, 64
3, 47389, Note_on_c, 1, 71, 0
3, 47884, Note_on_c, 1, 65, 64
3, 47989, Note_on_c, 1, 65, 0
3, 48004, Note_on_c, 1, 65, 64
3, 48229, Note_on_c, 1, 65, 0
3, 48364, Note_on_c, 1, 61, 64
3, 48536, Note_on_c, 1, 61, 0
3, 48544, Note_on_c, 1, 68, 64
3, 48596, Note_on_c, 1, 68, 0
3, 48604, Note_on_c, 1, 66, 64
3, 48656, Note_on_c, 1, 66, 0
3, 48664, Note_on_c, 1, 64, 64
3, 48716, Note_on_c, 1, 64, 0
3, 48724, Note_on_c, 1, 63, 64
3, 48889, Note_on_c, 1, 63, 0
3, 48904, Note_on_c, 1, 62, 64
3, 48956, Note_on_c, 1, 62, 0
3, 48964, Note_on_c, 1, 61, 64
3, 49016, Note_on_c, 1, 61, 0
3, 49024, Note_on_c, 1, 63, 64
3, 49076, Note_on_c, 1, 63, 0
3, 49084, Note_on_c, 1, 64, 64
3, 49256, Note_on_c, 1, 64, 0
3, 49264, Note_on_c, 1, 68, 64
3, 49316, Note_on_c, 1, 68, 0
3, 49324, Note_on_c, 1, 66, 64
3, 49376, Note_on_c, 1, 66, 0
3, 49384, Note_on_c, 1, 64, 64
3, 49436, Note_on_c, 1, 64, 0
3, 49444, Note_on_c, 1, 63, 64
3, 49909, Note_on_c, 1, 63, 0
3, 49909, End_track
4, 0, Start_track
4, 0, MIDI_port, 0
4, 0, Title_t, "from WTC II"
4, 0, Program_c, 2, 6
4, 1924, Note_on_c, 2, 54, 64
4, 2149, Note_on_c, 2, 54, 0
4, 2164, Note_on_c, 2, 58, 64
4, 2389, Note_on_c, 2, 58, 0
4, 2404, Note_on_c, 2, 63, 64
4, 2629, Note_on_c, 2, 63, 0
4, 2644, Note_on_c, 2, 59, 64
4, 2869, Note_on_c, 2, 59, 0
4, 2884, Note_on_c, 2, 56, 64
4, 3109, Note_on_c, 2, 56, 0
4, 3124, Note_on_c, 2, 65, 64
4, 3349, Note_on_c, 2, 65, 0
4, 3364, Note_on_c, 2, 66, 64
4, 3469, Note_on_c, 2, 66, 0
4, 3484, Note_on_c, 2, 65, 64
4, 3536, Note_on_c, 2, 65, 0
4, 3544, Note_on_c, 2, 63, 64
4, 3596, Note_on_c, 2, 63, 0
4, 3604, Note_on_c, 2, 61, 64
4, 3709, Note_on_c, 2, 61, 0
4, 3724, Note_on_c, 2, 59, 64
4, 3829, Note_on_c, 2, 59, 0
4, 3844, Note_on_c, 2, 58, 64
4, 3896, Note_on_c, 2, 58, 0
4, 3904, Note_on_c, 2, 56, 64
4, 3956, Note_on_c, 2, 56, 0
4, 3964, Note_on_c, 2, 59, 64
4, 4189, Note_on_c, 2, 59, 0
4, 4204, Note_on_c, 2, 58, 64
4, 4256, Note_on_c, 2, 58, 0
4, 4264, Note_on_c, 2, 56, 64
4, 4316, Note_on_c, 2, 56, 0
4, 4324, Note_on_c, 2, 54, 64
4, 4376, Note_on_c, 2, 54, 0
4, 4384, Note_on_c, 2, 56, 64
4, 4436, Note_on_c, 2, 56, 0
4, 4444, Note_on_c, 2, 57, 64
4, 4669, Note_on_c, 2, 57, 0
4, 4684, Note_on_c, 2, 56, 64
4, 4736, Note_on_c, 2, 56, 0
4, 4744, Note_on_c, 2, 54, 64
4, 4796, Note_on_c, 2, 54, 0
4, 4804, Note_on_c, 2, 52, 64
4, 4856, Note_on_c, 2, 52, 0
4, 4864, Note_on_c, 2, 59, 64
4, 4916, Note_on_c, 2, 59, 0
4, 4924, Note_on_c, 2, 63, 64
4, 5149, Note_on_c, 2, 63, 0
4, 5164, Note_on_c, 2, 61, 64
4, 5216, Note_on_c, 2, 61, 0
4, 5224, Note_on_c, 2, 59, 64
4, 5276, Note_on_c, 2, 59, 0
4, 5284, Note_on_c, 2, 58, 64
4, 5336, Note_on_c, 2, 58, 0
4, 5344, Note_on_c, 2, 64, 64
4, 5396, Note_on_c, 2, 64, 0
4, 5404, Note_on_c, 2, 68, 64
4, 5629, Note_on_c, 2, 68, 0
4, 5644, Note_on_c, 2, 66, 64
4, 5696, Note_on_c, 2, 66, 0
4, 5704, Note_on_c, 2, 64, 64
4, 5756, Note_on_c, 2, 64, 0
4, 5764, Note_on_c, 2, 63, 64
4, 5869, Note_on_c, 2, 63, 0
4, 5884, Note_on_c, 2, 64, 64
4, 5989, Note_on_c, 2, 64, 0
4, 6004, Note_on_c, 2, 63, 64
4, 6109, Note_on_c, 2, 63, 0
4, 6124, Note_on_c, 2, 61, 64
4, 6229, Note_on_c, 2, 61, 0
4, 6244, Note_on_c, 2, 59, 64
4, 6349, Note_on_c, 2, 59, 0
4, 6364, Note_on_c, 2, 58, 64
4, 6416, Note_on_c, 2, 58, 0
4, 6424, Note_on_c, 2, 56, 64
4, 6476, Note_on_c, 2, 56, 0
4, 6484, Note_on_c, 2, 54, 64
4, 6889, Note_on_c, 2, 54, 0
4, 6904, Note_on_c, 2, 55, 64
4, 6956, Note_on_c, 2, 55, 0
4, 6964, Note_on_c, 2, 56, 64
4, 7016, Note_on_c, 2, 56, 0
4, 7024, Note_on_c, 2, 58, 64
4, 7076, Note_on_c, 2, 58, 0
4, 7084, Note_on_c, 2, 59, 64
4, 7136, Note_on_c, 2, 59, 0
4, 7144, Note_on_c, 2, 56, 64
4, 7196, Note_on_c, 2, 56, 0
4, 7204, Note_on_c, 2, 61, 64
4, 7369, Note_on_c, 2, 61, 0
4, 7384, Note_on_c, 2, 59, 64
4, 7436, Note_on_c, 2, 59, 0
4, 7444, Note_on_c, 2, 58, 64
4, 7496, Note_on_c, 2, 58, 0
4, 7504, Note_on_c, 2, 56, 64
4, 7556, Note_on_c, 2, 56, 0
4, 7564, Note_on_c, 2, 58, 64
4, 7669, Note_on_c, 2, 58, 0
4, 7684, Note_on_c, 2, 63, 64
4, 7789, Note_on_c, 2, 63, 0
4, 7804, Note_on_c, 2, 51, 64
4, 8029, Note_on_c, 2, 51, 0
4, 8044, Note_on_c, 2, 53, 64
4, 8149, Note_on_c, 2, 53, 0
4, 8164, Note_on_c, 2, 54, 64
4, 8269, Note_on_c, 2, 54, 0
4, 8284, Note_on_c, 2, 56, 64
4, 8389, Note_on_c, 2, 56, 0
4, 8404, Note_on_c, 2, 58, 64
4, 8509, Note_on_c, 2, 58, 0
4, 8524, Note_on_c, 2, 54, 64
4, 8629, Note_on_c, 2, 54, 0
4, 8644, Note_on_c, 2, 59, 64
4, 8749, Note_on_c, 2, 59, 0
4, 8764, Note_on_c, 2, 54, 64
4, 8816, Note_on_c, 2, 54, 0
4, 8824, Note_on_c, 2, 52, 64
4, 8876, Note_on_c, 2, 52, 0
4, 8884, Note_on_c, 2, 54, 64
4, 8989, Note_on_c, 2, 54, 0
4, 9004, Note_on_c, 2, 59, 64
4, 9289, Note_on_c, 2, 59, 0
4, 9304, Note_on_c, 2, 58, 64
4, 9356, Note_on_c, 2, 58, 0
4, 9364, Note_on_c, 2, 59, 64
4, 9416, Note_on_c, 2, 59, 0
4, 9424, Note_on_c, 2, 56, 64
4, 9476, Note_on_c, 2, 56, 0
4, 9484, Note_on_c, 2, 58, 64
4, 9536, Note_on_c, 2, 58, 0
4, 9544, Note_on_c, 2, 59, 64
4, 9596, Note_on_c, 2, 59, 0
4, 9604, Note_on_c, 2, 61, 64
4, 9896, Note_on_c, 2, 61, 0
4, 9904, Note_on_c, 2, 61, 64
4, 9956, Note_on_c, 2, 61, 0
4, 9964, Note_on_c, 2, 66, 64
4, 10189, Note_on_c, 2, 66, 0
4, 10204, Note_on_c, 2, 66, 64
4, 10256, Note_on_c, 2, 66, 0
4, 10264, Note_on_c, 2, 64, 64
4, 10316, Note_on_c, 2, 64, 0
4, 10324, Note_on_c, 2, 63, 64
4, 10429, Note_on_c, 2, 63, 0
4, 10444, Note_on_c, 2, 61, 64
4, 10549, Note_on_c, 2, 61, 0
4, 10564, Note_on_c, 2, 59, 64
4, 10669, Note_on_c, 2, 59, 0
4, 10684, Note_on_c, 2, 61, 64
4, 10789, Note_on_c, 2, 61, 0
4, 10804, Note_on_c, 2, 63, 64
4, 10909, Note_on_c, 2, 63, 0
4, 10924, Note_on_c, 2, 64, 64
4, 11029, Note_on_c, 2, 64, 0
4, 11044, Note_on_c, 2, 63, 64
4, 11209, Note_on_c, 2, 63, 0
4, 11224, Note_on_c, 2, 61, 64
4, 11276, Note_on_c, 2, 61, 0
4, 11284, Note_on_c, 2, 59, 64
4, 11389, Note_on_c, 2, 59, 0
4, 11404, Note_on_c, 2, 62, 64
4, 11509, Note_on_c, 2, 62, 0
4, 11524, Note_on_c, 2, 61, 64
4, 11689, Note_on_c, 2, 61, 0
4, 11704, Note_on_c, 2, 56, 64
4, 11756, Note_on_c, 2, 56, 0
4, 11764, Note_on_c, 2, 58, 64
4, 11816, Note_on_c, 2, 58, 0
4, 11824, Note_on_c, 2, 59, 64
4, 11876, Note_on_c, 2, 59, 0
4, 11884, Note_on_c, 2, 61, 64
4, 12109, Note_on_c, 2, 61, 0
4, 12124, Note_on_c, 2, 59, 64
4, 12176, Note_on_c, 2, 59, 0
4, 12184, Note_on_c, 2, 58, 64
4, 12236, Note_on_c, 2, 58, 0
4, 12244, Note_on_c, 2, 56, 64
4, 12296, Note_on_c, 2, 56, 0
4, 12304, Note_on_c, 2, 54, 64
4, 12356, Note_on_c, 2, 54, 0
4, 12364, Note_on_c, 2, 56, 64
4, 12469, Note_on_c, 2, 56, 0
4, 12484, Note_on_c, 2, 54, 64
4, 12709, Note_on_c, 2, 54, 0
4, 12724, Note_on_c, 2, 58, 64
4, 12949, Note_on_c, 2, 58, 0
4, 12964, Note_on_c, 2, 63, 64
4, 13189, Note_on_c, 2, 63, 0
4, 13204, Note_on_c, 2, 59, 64
4, 13429, Note_on_c, 2, 59, 0
4, 13444, Note_on_c, 2, 56, 64
4, 13669, Note_on_c, 2, 56, 0
4, 13684, Note_on_c, 2, 65, 64
4, 13909, Note_on_c, 2, 65, 0
4, 13924, Note_on_c, 2, 66, 64
4, 14216, Note_on_c, 2, 66, 0
4, 14224, Note_on_c, 2, 64, 64
4, 14276, Note_on_c, 2, 64, 0
4, 14284, Note_on_c, 2, 63, 64
4, 14336, Note_on_c, 2, 63, 0
4, 14344, Note_on_c, 2, 61, 64
4, 14396, Note_on_c, 2, 61, 0
4, 14404, Note_on_c, 2, 63, 64
4, 14749, Note_on_c, 2, 63, 0
4, 14764, Note_on_c, 2, 63, 64
4, 14869, Note_on_c, 2, 63, 0
4, 14884, Note_on_c, 2, 61, 64
4, 14936, Note_on_c, 2, 61, 0
4, 14944, Note_on_c, 2, 63, 64
4, 14996, Note_on_c, 2, 63, 0
4, 15004, Note_on_c, 2, 64, 64
4, 15229, Note_on_c, 2, 64, 0
4, 15244, Note_on_c, 2, 58, 64
4, 15349, Note_on_c, 2, 58, 0
4, 15364, Note_on_c, 2, 59, 64
4, 16136, Note_on_c, 2, 59, 0
4, 16144, Note_on_c, 2, 58, 64
4, 16196, Note_on_c, 2, 58, 0
4, 16204, Note_on_c, 2, 56, 64
4, 16256, Note_on_c, 2, 56, 0
4, 16264, Note_on_c, 2, 58, 64
4, 16316, Note_on_c, 2, 58, 0
4, 16324, Note_on_c, 2, 59, 64
4, 16376, Note_on_c, 2, 59, 0
4, 16384, Note_on_c, 2, 54, 64
4, 16436, Note_on_c, 2, 54, 0
4, 16444, Note_on_c, 2, 59, 64
4, 16496, Note_on_c, 2, 59, 0
4, 16504, Note_on_c, 2, 58, 64
4, 16556, Note_on_c, 2, 58, 0
4, 16564, Note_on_c, 2, 56, 64
4, 16616, Note_on_c, 2, 56, 0
4, 16624, Note_on_c, 2, 58, 64
4, 16676, Note_on_c, 2, 58, 0
4, 16684, Note_on_c, 2, 59, 64
4, 16736, Note_on_c, 2, 59, 0
4, 16744, Note_on_c, 2, 56, 64
4, 16796, Note_on_c, 2, 56, 0
4, 16804, Note_on_c, 2, 52, 64
4, 16909, Note_on_c, 2, 52, 0
4, 17404, Note_on_c, 2, 64, 64
4, 17509, Note_on_c, 2, 64, 0
4, 17524, Note_on_c, 2, 63, 64
4, 17629, Note_on_c, 2, 63, 0
4, 17644, Note_on_c, 2, 61, 64
4, 17749, Note_on_c, 2, 61, 0
4, 17764, Note_on_c, 2, 63, 64
4, 17989, Note_on_c, 2, 63, 0
4, 18004, Note_on_c, 2, 64, 64
4, 18229, Note_on_c, 2, 64, 0
4, 18244, Note_on_c, 2, 63, 64
4, 18296, Note_on_c, 2, 63, 0
4, 18304, Note_on_c, 2, 61, 64
4, 18356, Note_on_c, 2, 61, 0
4, 18364, Note_on_c, 2, 59, 64
4, 18416, Note_on_c, 2, 59, 0
4, 18424, Note_on_c, 2, 61, 64
4, 18476, Note_on_c, 2, 61, 0
4, 18484, Note_on_c, 2, 62, 64
4, 18709, Note_on_c, 2, 62, 0
4, 18724, Note_on_c, 2, 61, 64
4, 19016, Note_on_c, 2, 61, 0
4, 19024, Note_on_c, 2, 59, 64
4, 19076, Note_on_c, 2, 59, 0
4, 19084, Note_on_c, 2, 58, 64
4, 19136, Note_on_c, 2, 58, 0
4, 19144, Note_on_c, 2, 59, 64
4, 19196, Note_on_c, 2, 59, 0
4, 19204, Note_on_c, 2, 56, 64
4, 19496, Note_on_c, 2, 56, 0
4, 19504, Note_on_c, 2, 56, 64
4, 19556, Note_on_c, 2, 56, 0
4, 19564, Note_on_c, 2, 58, 64
4, 19616, Note_on_c, 2, 58, 0
4, 19624, Note_on_c, 2, 59, 64
4, 19676, Note_on_c, 2, 59, 0
4, 19684, Note_on_c, 2, 61, 64
4, 19976, Note_on_c, 2, 61, 0
4, 19984, Note_on_c, 2, 64, 64
4, 20036, Note_on_c, 2, 64, 0
4, 20044, Note_on_c, 2, 63, 64
4, 20096, Note_on_c, 2, 63, 0
4, 20104, Note_on_c, 2, 61, 64
4, 20156, Note_on_c, 2, 61, 0
4, 20164, Note_on_c, 2, 59, 64
4, 20389, Note_on_c, 2, 59, 0
4, 20764, Note_on_c, 2, 59, 64
4, 20869, Note_on_c, 2, 59, 0
4, 20884, Note_on_c, 2, 58, 64
4, 21049, Note_on_c, 2, 58, 0
4, 21064, Note_on_c, 2, 56, 64
4, 21116, Note_on_c, 2, 56, 0
4, 21124, Note_on_c, 2, 54, 64
4, 21229, Note_on_c, 2, 54, 0
4, 24964, Note_on_c, 2, 52, 64
4, 25189, Note_on_c, 2, 52, 0
4, 25204, Note_on_c, 2, 56, 64
4, 25429, Note_on_c, 2, 56, 0
4, 25444, Note_on_c, 2, 61, 64
4, 25669, Note_on_c, 2, 61, 0
4, 25684, Note_on_c, 2, 57, 64
4, 25909, Note_on_c, 2, 57, 0
4, 25924, Note_on_c, 2, 54, 64
4, 26149, Note_on_c, 2, 54, 0
4, 26164, Note_on_c, 2, 63, 64
4, 26389, Note_on_c, 2, 63, 0
4, 26404, Note_on_c, 2, 64, 64
4, 26749, Note_on_c, 2, 64, 0
4, 26764, Note_on_c, 2, 61, 64
4, 26869, Note_on_c, 2, 61, 0
4, 26884, Note_on_c, 2, 66, 64
4, 27109, Note_on_c, 2, 66, 0
4, 27244, Note_on_c, 2, 66, 64
4, 27349, Note_on_c, 2, 66, 0
4, 27364, Note_on_c, 2, 63, 64
4, 27469, Note_on_c, 2, 63, 0
4, 27484, Note_on_c, 2, 64, 64
4, 27589, Note_on_c, 2, 64, 0
4, 27724, Note_on_c, 2, 61, 64
4, 27829, Note_on_c, 2, 61, 0
4, 27844, Note_on_c, 2, 59, 64
4, 28249, Note_on_c, 2, 59, 0
4, 28264, Note_on_c, 2, 57, 64
4, 28316, Note_on_c, 2, 57, 0
4, 28324, Note_on_c, 2, 56, 64
4, 28549, Note_on_c, 2, 56, 0
4, 28564, Note_on_c, 2, 59, 64
4, 28789, Note_on_c, 2, 59, 0
4, 28804, Note_on_c, 2, 64, 64
4, 29029, Note_on_c, 2, 64, 0
4, 29044, Note_on_c, 2, 61, 64
4, 29269, Note_on_c, 2, 61, 0
4, 29284, Note_on_c, 2, 58, 64
4, 29509, Note_on_c, 2, 58, 0
4, 29524, Note_on_c, 2, 67, 64
4, 29749, Note_on_c, 2, 67, 0
4, 29764, Note_on_c, 2, 68, 64
4, 29816, Note_on_c, 2, 68, 0
4, 29824, Note_on_c, 2, 66, 64
4, 29876, Note_on_c, 2, 66, 0
4, 29884, Note_on_c, 2, 65, 64
4, 29936, Note_on_c, 2, 65, 0
4, 29944, Note_on_c, 2, 63, 64
4, 29996, Note_on_c, 2, 63, 0
4, 30004, Note_on_c, 2, 62, 64
4, 30056, Note_on_c, 2, 62, 0
4, 30064, Note_on_c, 2, 63, 64
4, 30116, Note_on_c, 2, 63, 0
4, 30124, Note_on_c, 2, 65, 64
4, 30176, Note_on_c, 2, 65, 0
4, 30184, Note_on_c, 2, 62, 64
4, 30236, Note_on_c, 2, 62, 0
4, 30244, Note_on_c, 2, 63, 64
4, 30536, Note_on_c, 2, 63, 0
4, 30544, Note_on_c, 2, 64, 64
4, 30596, Note_on_c, 2, 64, 0
4, 30604, Note_on_c, 2, 66, 64
4, 30656, Note_on_c, 2, 66, 0
4, 30664, Note_on_c, 2, 63, 64
4, 30716, Note_on_c, 2, 63, 0
4, 30724, Note_on_c, 2, 64, 64
4, 30776, Note_on_c, 2, 64, 0
4, 30784, Note_on_c, 2, 63, 64
4, 30836, Note_on_c, 2, 63, 0
4, 30844, Note_on_c, 2, 61, 64
4, 30896, Note_on_c, 2, 61, 0
4, 30904, Note_on_c, 2, 59, 64
4, 30956, Note_on_c, 2, 59, 0
4, 30964, Note_on_c, 2, 58, 64
4, 31016, Note_on_c, 2, 58, 0
4, 31024, Note_on_c, 2, 59, 64
4, 31076, Note_on_c, 2, 59, 0
4, 31084, Note_on_c, 2, 61, 64
4, 31136, Note_on_c, 2, 61, 0
4, 31144, Note_on_c, 2, 58, 64
4, 31196, Note_on_c, 2, 58, 0
4, 31204, Note_on_c, 2, 59, 64
4, 31496, Note_on_c, 2, 59, 0
4, 31504, Note_on_c, 2, 61, 64
4, 31556, Note_on_c, 2, 61, 0
4, 31564, Note_on_c, 2, 63, 64
4, 31616, Note_on_c, 2, 63, 0
4, 31624, Note_on_c, 2, 59, 64
4, 31676, Note_on_c, 2, 59, 0
4, 31684, Note_on_c, 2, 61, 64
4, 31736, Note_on_c, 2, 61, 0
4, 31744, Note_on_c, 2, 59, 64
4, 31796, Note_on_c, 2, 59, 0
4, 31804, Note_on_c, 2, 58, 64
4, 31856, Note_on_c, 2, 58, 0
4, 31864, Note_on_c, 2, 56, 64
4, 31916, Note_on_c, 2, 56, 0
4, 31924, Note_on_c, 2, 55, 64
4, 31976, Note_on_c, 2, 55, 0
4, 31984, Note_on_c, 2, 56, 64
4, 32036, Note_on_c, 2, 56, 0
4, 32044, Note_on_c, 2, 58, 64
4, 32096, Note_on_c, 2, 58, 0
4, 32104, Note_on_c, 2, 55, 64
4, 32156, Note_on_c, 2, 55, 0
4, 32164, Note_on_c, 2, 56, 64
4, 32310, Note_on_c, 2, 56, 0
4, 32314, Note_on_c, 2, 54, 64
4, 32340, Note_on_c, 2, 54, 0
4, 32344, Note_on_c, 2, 52, 64
4, 32370, Note_on_c, 2, 52, 0
4, 32374, Note_on_c, 2, 51, 64
4, 32400, Note_on_c, 2, 51, 0
4, 32404, Note_on_c, 2, 49, 64
4, 32456, Note_on_c, 2, 49, 0
4, 32464, Note_on_c, 2, 59, 64
4, 32516, Note_on_c, 2, 59, 0
4, 32524, Note_on_c, 2, 58, 64
4, 32576, Note_on_c, 2, 58, 0
4, 32584, Note_on_c, 2, 54, 64
4, 32636, Note_on_c, 2, 54, 0
4, 32644, Note_on_c, 2, 59, 64
4, 32790, Note_on_c, 2, 59, 0
4, 32794, Note_on_c, 2, 58, 64
4, 32820, Note_on_c, 2, 58, 0
4, 32824, Note_on_c, 2, 56, 64
4, 32850, Note_on_c, 2, 56, 0
4, 32854, Note_on_c, 2, 54, 64
4, 32880, Note_on_c, 2, 54, 0
4, 32884, Note_on_c, 2, 52, 64
4, 32936, Note_on_c, 2, 52, 0
4, 32944, Note_on_c, 2, 63, 64
4, 32996, Note_on_c, 2, 63, 0
4, 33004, Note_on_c, 2, 61, 64
4, 33056, Note_on_c, 2, 61, 0
4, 33064, Note_on_c, 2, 58, 64
4, 33116, Note_on_c, 2, 58, 0
4, 33124, Note_on_c, 2, 63, 64
4, 33270, Note_on_c, 2, 63, 0
4, 33274, Note_on_c, 2, 61, 64
4, 33300, Note_on_c, 2, 61, 0
4, 33304, Note_on_c, 2, 59, 64
4, 33330, Note_on_c, 2, 59, 0
4, 33334, Note_on_c, 2, 58, 64
4, 33360, Note_on_c, 2, 58, 0
4, 33364, Note_on_c, 2, 56, 64
4, 33416, Note_on_c, 2, 56, 0
4, 33424, Note_on_c, 2, 66, 64
4, 33476, Note_on_c, 2, 66, 0
4, 33484, Note_on_c, 2, 65, 64
4, 33536, Note_on_c, 2, 65, 0
4, 33544, Note_on_c, 2, 61, 64
4, 33596, Note_on_c, 2, 61, 0
4, 33604, Note_on_c, 2, 66, 64
4, 33656, Note_on_c, 2, 66, 0
4, 33664, Note_on_c, 2, 68, 64
4, 33716, Note_on_c, 2, 68, 0
4, 33724, Note_on_c, 2, 70, 64
4, 33776, Note_on_c, 2, 70, 0
4, 33784, Note_on_c, 2, 66, 64
4, 33836, Note_on_c, 2, 66, 0
4, 33844, Note_on_c, 2, 63, 64
4, 33896, Note_on_c, 2, 63, 0
4, 33904, Note_on_c, 2, 64, 64
4, 33956, Note_on_c, 2, 64, 0
4, 33964, Note_on_c, 2, 66, 64
4, 34016, Note_on_c, 2, 66, 0
4, 34024, Note_on_c, 2, 63, 64
4, 34076, Note_on_c, 2, 63, 0
4, 34084, Note_on_c, 2, 60, 64
4, 34136, Note_on_c, 2, 60, 0
4, 34144, Note_on_c, 2, 61, 64
4, 34196, Note_on_c, 2, 61, 0
4, 34204, Note_on_c, 2, 63, 64
4, 34256, Note_on_c, 2, 63, 0
4, 34264, Note_on_c, 2, 60, 64
4, 34316, Note_on_c, 2, 60, 0
4, 34324, Note_on_c, 2, 61, 64
4, 34376, Note_on_c, 2, 61, 0
4, 34384, Note_on_c, 2, 63, 64
4, 34436, Note_on_c, 2, 63, 0
4, 34444, Note_on_c, 2, 64, 64
4, 34616, Note_on_c, 2, 64, 0
4, 34624, Note_on_c, 2, 64, 64
4, 34676, Note_on_c, 2, 64, 0
4, 34684, Note_on_c, 2, 63, 64
4, 34736, Note_on_c, 2, 63, 0
4, 34744, Note_on_c, 2, 61, 64
4, 34796, Note_on_c, 2, 61, 0
4, 34804, Note_on_c, 2, 59, 64
4, 34856, Note_on_c, 2, 59, 0
4, 34864, Note_on_c, 2, 61, 64
4, 34916, Note_on_c, 2, 61, 0
4, 34924, Note_on_c, 2, 63, 64
4, 34976, Note_on_c, 2, 63, 0
4, 34984, Note_on_c, 2, 59, 64
4, 35036, Note_on_c, 2, 59, 0
4, 35044, Note_on_c, 2, 56, 64
4, 35096, Note_on_c, 2, 56, 0
4, 35104, Note_on_c, 2, 58, 64
4, 35156, Note_on_c, 2, 58, 0
4, 35164, Note_on_c, 2, 59, 64
4, 35216, Note_on_c, 2, 59, 0
4, 35224, Note_on_c, 2, 56, 64
4, 35276, Note_on_c, 2, 56, 0
4, 35284, Note_on_c, 2, 58, 64
4, 35336, Note_on_c, 2, 58, 0
4, 35344, Note_on_c, 2, 59, 64
4, 35396, Note_on_c, 2, 59, 0
4, 35404, Note_on_c, 2, 61, 64
4, 35576, Note_on_c, 2, 61, 0
4, 35584, Note_on_c, 2, 59, 64
4, 35636, Note_on_c, 2, 59, 0
4, 35644, Note_on_c, 2, 58, 64
4, 35696, Note_on_c, 2, 58, 0
4, 35704, Note_on_c, 2, 56, 64
4, 35756, Note_on_c, 2, 56, 0
4, 35764, Note_on_c, 2, 55, 64
4, 35816, Note_on_c, 2, 55, 0
4, 35824, Note_on_c, 2, 56, 64
4, 35876, Note_on_c, 2, 56, 0
4, 35884, Note_on_c, 2, 58, 64
4, 35936, Note_on_c, 2, 58, 0
4, 35944, Note_on_c, 2, 55, 64
4, 35996, Note_on_c, 2, 55, 0
4, 36004, Note_on_c, 2, 56, 64
4, 36056, Note_on_c, 2, 56, 0
4, 36064, Note_on_c, 2, 59, 64
4, 36116, Note_on_c, 2, 59, 0
4, 36124, Note_on_c, 2, 61, 64
4, 36176, Note_on_c, 2, 61, 0
4, 36184, Note_on_c, 2, 63, 64
4, 36236, Note_on_c, 2, 63, 0
4, 36244, Note_on_c, 2, 64, 64
4, 36349, Note_on_c, 2, 64, 0
4, 36364, Note_on_c, 2, 59, 64
4, 36536, Note_on_c, 2, 59, 0
4, 36544, Note_on_c, 2, 56, 64
4, 36596, Note_on_c, 2, 56, 0
4, 36604, Note_on_c, 2, 58, 64
4, 36656, Note_on_c, 2, 58, 0
4, 36664, Note_on_c, 2, 59, 64
4, 36716, Note_on_c, 2, 59, 0
4, 36724, Note_on_c, 2, 61, 64
4, 36829, Note_on_c, 2, 61, 0
4, 36844, Note_on_c, 2, 66, 64
4, 37016, Note_on_c, 2, 66, 0
4, 37024, Note_on_c, 2, 68, 64
4, 37076, Note_on_c, 2, 68, 0
4, 37084, Note_on_c, 2, 66, 64
4, 37136, Note_on_c, 2, 66, 0
4, 37144, Note_on_c, 2, 64, 64
4, 37196, Note_on_c, 2, 64, 0
4, 37204, Note_on_c, 2, 63, 64
4, 37496, Note_on_c, 2, 63, 0
4, 37504, Note_on_c, 2, 64, 64
4, 37556, Note_on_c, 2, 64, 0
4, 37564, Note_on_c, 2, 63, 64
4, 37616, Note_on_c, 2, 63, 0
4, 37624, Note_on_c, 2, 61, 64
4, 37676, Note_on_c, 2, 61, 0
4, 37684, Note_on_c, 2, 59, 64
4, 38029, Note_on_c, 2, 59, 0
4, 40324, Note_on_c, 2, 54, 64
4, 40549, Note_on_c, 2, 54, 0
4, 40564, Note_on_c, 2, 58, 64
4, 40789, Note_on_c, 2, 58, 0
4, 40804, Note_on_c, 2, 63, 64
4, 41029, Note_on_c, 2, 63, 0
4, 41044, Note_on_c, 2, 59, 64
4, 41269, Note_on_c, 2, 59, 0
4, 41284, Note_on_c, 2, 56, 64
4, 41509, Note_on_c, 2, 56, 0
4, 41524, Note_on_c, 2, 65, 64
4, 41749, Note_on_c, 2, 65, 0
4, 41764, Note_on_c, 2, 66, 64
4, 42056, Note_on_c, 2, 66, 0
4, 42064, Note_on_c, 2, 61, 64
4, 42116, Note_on_c, 2, 61, 0
4, 42124, Note_on_c, 2, 66, 64
4, 42349, Note_on_c, 2, 66, 0
4, 42364, Note_on_c, 2, 60, 64
4, 42416, Note_on_c, 2, 60, 0
4, 42424, Note_on_c, 2, 66, 64
4, 42476, Note_on_c, 2, 66, 0
4, 42484, Note_on_c, 2, 64, 64
4, 42589, Note_on_c, 2, 64, 0
4, 42604, Note_on_c, 2, 63, 64
4, 42829, Note_on_c, 2, 63, 0
4, 42844, Note_on_c, 2, 61, 64
4, 42896, Note_on_c, 2, 61, 0
4, 42904, Note_on_c, 2, 60, 64
4, 42956, Note_on_c, 2, 60, 0
4, 42964, Note_on_c, 2, 61, 64
4, 43016, Note_on_c, 2, 61, 0
4, 43024, Note_on_c, 2, 63, 64
4, 43076, Note_on_c, 2, 63, 0
4, 43084, Note_on_c, 2, 64, 64
4, 43309, Note_on_c, 2, 64, 0
4, 43324, Note_on_c, 2, 58, 64
4, 43376, Note_on_c, 2, 58, 0
4, 43384, Note_on_c, 2, 64, 64
4, 43436, Note_on_c, 2, 64, 0
4, 43444, Note_on_c, 2, 63, 64
4, 43549, Note_on_c, 2, 63, 0
4, 43564, Note_on_c, 2, 61, 64
4, 43789, Note_on_c, 2, 61, 0
4, 43804, Note_on_c, 2, 59, 64
4, 43856, Note_on_c, 2, 59, 0
4, 43864, Note_on_c, 2, 58, 64
4, 43916, Note_on_c, 2, 58, 0
4, 43924, Note_on_c, 2, 59, 64
4, 43976, Note_on_c, 2, 59, 0
4, 43984, Note_on_c, 2, 61, 64
4, 44036, Note_on_c, 2, 61, 0
4, 44044, Note_on_c, 2, 63, 64
4, 44216, Note_on_c, 2, 63, 0
4, 44224, Note_on_c, 2, 64, 64
4, 44276, Note_on_c, 2, 64, 0
4, 44284, Note_on_c, 2, 63, 64
4, 44336, Note_on_c, 2, 63, 0
4, 44344, Note_on_c, 2, 61, 64
4, 44396, Note_on_c, 2, 61, 0
4, 44404, Note_on_c, 2, 59, 64
4, 44456, Note_on_c, 2, 59, 0
4, 44464, Note_on_c, 2, 61, 64
4, 44516, Note_on_c, 2, 61, 0
4, 44524, Note_on_c, 2, 59, 64
4, 44576, Note_on_c, 2, 59, 0
4, 44584, Note_on_c, 2, 57, 64
4, 44636, Note_on_c, 2, 57, 0
4, 44644, Note_on_c, 2, 56, 64
4, 44696, Note_on_c, 2, 56, 0
4, 44704, Note_on_c, 2, 59, 64
4, 44756, Note_on_c, 2, 59, 0
4, 44764, Note_on_c, 2, 64, 64
4, 44816, Note_on_c, 2, 64, 0
4, 44824, Note_on_c, 2, 63, 64
4, 44876, Note_on_c, 2, 63, 0
4, 44884, Note_on_c, 2, 61, 64
4, 44936, Note_on_c, 2, 61, 0
4, 44944, Note_on_c, 2, 63, 64
4, 44996, Note_on_c, 2, 63, 0
4, 45004, Note_on_c, 2, 64, 64
4, 45056, Note_on_c, 2, 64, 0
4, 45064, Note_on_c, 2, 61, 64
4, 45116, Note_on_c, 2, 61, 0
4, 45124, Note_on_c, 2, 58, 64
4, 45176, Note_on_c, 2, 58, 0
4, 45184, Note_on_c, 2, 59, 64
4, 45236, Note_on_c, 2, 59, 0
4, 45244, Note_on_c, 2, 61, 64
4, 45296, Note_on_c, 2, 61, 0
4, 45304, Note_on_c, 2, 58, 64
4, 45356, Note_on_c, 2, 58, 0
4, 45364, Note_on_c, 2, 54, 64
4, 45416, Note_on_c, 2, 54, 0
4, 45424, Note_on_c, 2, 56, 64
4, 45476, Note_on_c, 2, 56, 0
4, 45484, Note_on_c, 2, 58, 64
4, 45656, Note_on_c, 2, 58, 0
4, 45664, Note_on_c, 2, 54, 64
4, 45716, Note_on_c, 2, 54, 0
4, 45724, Note_on_c, 2, 59, 64
4, 45776, Note_on_c, 2, 59, 0
4, 45784, Note_on_c, 2, 58, 64
4, 45836, Note_on_c, 2, 58, 0
4, 45844, Note_on_c, 2, 56, 64
4, 46136, Note_on_c, 2, 56, 0
4, 46144, Note_on_c, 2, 54, 64
4, 46196, Note_on_c, 2, 54, 0
4, 46204, Note_on_c, 2, 52, 64
4, 46256, Note_on_c, 2, 52, 0
4, 46264, Note_on_c, 2, 56, 64
4, 46316, Note_on_c, 2, 56, 0
4, 46324, Note_on_c, 2, 61, 64
4, 46616, Note_on_c, 2, 61, 0
4, 46624, Note_on_c, 2, 59, 64
4, 46676, Note_on_c, 2, 59, 0
4, 46684, Note_on_c, 2, 61, 64
4, 46736, Note_on_c, 2, 61, 0
4, 46744, Note_on_c, 2, 59, 64
4, 46796, Note_on_c, 2, 59, 0
4, 46804, Note_on_c, 2, 61, 64
4, 46909, Note_on_c, 2, 61, 0
4, 47044, Note_on_c, 2, 66, 64
4, 47096, Note_on_c, 2, 66, 0
4, 47104, Note_on_c, 2, 64, 64
4, 47156, Note_on_c, 2, 64, 0
4, 47164, Note_on_c, 2, 66, 64
4, 47216, Note_on_c, 2, 66, 0
4, 47224, Note_on_c, 2, 64, 64
4, 47276, Note_on_c, 2, 64, 0
4, 47284, Note_on_c, 2, 66, 64
4, 47389, Note_on_c, 2, 66, 0
4, 47644, Note_on_c, 2, 59, 64
4, 47749, Note_on_c, 2, 59, 0
4, 47764, Note_on_c, 2, 62, 64
4, 47989, Note_on_c, 2, 62, 0
4, 48004, Note_on_c, 2, 62, 64
4, 48229, Note_on_c, 2, 62, 0
4, 48364, Note_on_c, 2, 56, 64
4, 48469, Note_on_c, 2, 56, 0
4, 48484, Note_on_c, 2, 54, 64
4, 48589, Note_on_c, 2, 54, 0
4, 49144, Note_on_c, 2, 49, 64
4, 49196, Note_on_c, 2, 49, 0
4, 49204, Note_on_c, 2, 54, 64
4, 49909, Note_on_c, 2, 54, 0
4, 49909, End_track
5, 0, Start_track
5, 0, MIDI_port, 0
5, 0, Title_t, "by J. S. Bach"
5, 0, Program_c, 3, 6
5, 4, Note_on_c, 3, 47, 64
5, 229, Note_on_c, 3, 47, 0
5, 244, Note_on_c, 3, 51, 64
5, 469, Note_on_c, 3, 51, 0
5, 484, Note_on_c, 3, 56, 64
5, 709, Note_on_c, 3, 56, 0
5, 724, Note_on_c, 3, 52, 64
5, 949, Note_on_c, 3, 52, 0
5, 964, Note_on_c, 3, 49, 64
5, 1189, Note_on_c, 3, 49, 0
5, 1204, Note_on_c, 3, 58, 64
5, 1429, Note_on_c, 3, 58, 0
5, 1444, Note_on_c, 3, 59, 64
5, 1549, Note_on_c, 3, 59, 0
5, 1564, Note_on_c, 3, 58, 64
5, 1616, Note_on_c, 3, 58, 0
5, 1624, Note_on_c, 3, 56, 64
5, 1676, Note_on_c, 3, 56, 0
5, 1684, Note_on_c, 3, 54, 64
5, 1789, Note_on_c, 3, 54, 0
5, 1804, Note_on_c, 3, 52, 64
5, 1909, Note_on_c, 3, 52, 0
5, 1924, Note_on_c, 3, 51, 64
5, 1976, Note_on_c, 3, 51, 0
5, 1984, Note_on_c, 3, 49, 64
5, 2036, Note_on_c, 3, 49, 0
5, 2044, Note_on_c, 3, 52, 64
5, 2269, Note_on_c, 3, 52, 0
5, 2284, Note_on_c, 3, 51, 64
5, 2336, Note_on_c, 3, 51, 0
5, 2344, Note_on_c, 3, 49, 64
5, 2396, Note_on_c, 3, 49, 0
5, 2404, Note_on_c, 3, 47, 64
5, 2456, Note_on_c, 3, 47, 0
5, 2464, Note_on_c, 3, 54, 64
5, 2516, Note_on_c, 3, 54, 0
5, 2524, Note_on_c, 3, 58, 64
5, 2749, Note_on_c, 3, 58, 0
5, 2764, Note_on_c, 3, 56, 64
5, 2816, Note_on_c, 3, 56, 0
5, 2824, Note_on_c, 3, 54, 64
5, 2876, Note_on_c, 3, 54, 0
5, 2884, Note_on_c, 3, 53, 64
5, 2936, Note_on_c, 3, 53, 0
5, 2944, Note_on_c, 3, 59, 64
5, 2996, Note_on_c, 3, 59, 0
5, 3004, Note_on_c, 3, 63, 64
5, 3229, Note_on_c, 3, 63, 0
5, 3244, Note_on_c, 3, 61, 64
5, 3296, Note_on_c, 3, 61, 0
5, 3304, Note_on_c, 3, 59, 64
5, 3356, Note_on_c, 3, 59, 0
5, 3364, Note_on_c, 3, 58, 64
5, 3469, Note_on_c, 3, 58, 0
5, 3484, Note_on_c, 3, 59, 64
5, 3589, Note_on_c, 3, 59, 0
5, 3604, Note_on_c, 3, 58, 64
5, 3709, Note_on_c, 3, 58, 0
5, 3724, Note_on_c, 3, 56, 64
5, 3829, Note_on_c, 3, 56, 0
5, 3844, Note_on_c, 3, 54, 64
5, 3949, Note_on_c, 3, 54, 0
5, 3964, Note_on_c, 3, 53, 64
5, 4016, Note_on_c, 3, 53, 0
5, 4024, Note_on_c, 3, 51, 64
5, 4076, Note_on_c, 3, 51, 0
5, 4084, Note_on_c, 3, 49, 64
5, 4136, Note_on_c, 3, 49, 0
5, 4144, Note_on_c, 3, 51, 64
5, 4196, Note_on_c, 3, 51, 0
5, 4204, Note_on_c, 3, 52, 64
5, 4429, Note_on_c, 3, 52, 0
5, 4444, Note_on_c, 3, 51, 64
5, 4496, Note_on_c, 3, 51, 0
5, 4504, Note_on_c, 3, 49, 64
5, 4556, Note_on_c, 3, 49, 0
5, 4564, Note_on_c, 3, 47, 64
5, 4969, Note_on_c, 3, 47, 0
5, 4984, Note_on_c, 3, 48, 64
5, 5036, Note_on_c, 3, 48, 0
5, 5044, Note_on_c, 3, 49, 64
5, 5096, Note_on_c, 3, 49, 0
5, 5104, Note_on_c, 3, 51, 64
5, 5156, Note_on_c, 3, 51, 0
5, 5164, Note_on_c, 3, 52, 64
5, 5216, Note_on_c, 3, 52, 0
5, 5224, Note_on_c, 3, 49, 64
5, 5276, Note_on_c, 3, 49, 0
5, 5284, Note_on_c, 3, 54, 64
5, 5449, Note_on_c, 3, 54, 0
5, 5464, Note_on_c, 3, 52, 64
5, 5516, Note_on_c, 3, 52, 0
5, 5524, Note_on_c, 3, 51, 64
5, 5576, Note_on_c, 3, 51, 0
5, 5584, Note_on_c, 3, 49, 64
5, 5636, Note_on_c, 3, 49, 0
5, 5644, Note_on_c, 3, 51, 64
5, 5749, Note_on_c, 3, 51, 0
5, 5764, Note_on_c, 3, 56, 64
5, 5869, Note_on_c, 3, 56, 0
5, 5884, Note_on_c, 3, 44, 64
5, 6109, Note_on_c, 3, 44, 0
5, 6124, Note_on_c, 3, 46, 64
5, 6229, Note_on_c, 3, 46, 0
5, 6244, Note_on_c, 3, 47, 64
5, 6349, Note_on_c, 3, 47, 0
5, 8644, Note_on_c, 3, 47, 64
5, 8869, Note_on_c, 3, 47, 0
5, 8884, Note_on_c, 3, 51, 64
5, 9109, Note_on_c, 3, 51, 0
5, 9124, Note_on_c, 3, 56, 64
5, 9349, Note_on_c, 3, 56, 0
5, 9364, Note_on_c, 3, 52, 64
5, 9589, Note_on_c, 3, 52, 0
5, 9604, Note_on_c, 3, 49, 64
5, 9829, Note_on_c, 3, 49, 0
5, 9844, Note_on_c, 3, 58, 64
5, 10069, Note_on_c, 3, 58, 0
5, 10084, Note_on_c, 3, 59, 64
5, 10189, Note_on_c, 3, 59, 0
5, 10204, Note_on_c, 3, 63, 64
5, 10256, Note_on_c, 3, 63, 0
5, 10264, Note_on_c, 3, 61, 64
5, 10316, Note_on_c, 3, 61, 0
5, 10324, Note_on_c, 3, 59, 64
5, 10429, Note_on_c, 3, 59, 0
5, 10444, Note_on_c, 3, 58, 64
5, 10549, Note_on_c, 3, 58, 0
5, 10564, Note_on_c, 3, 56, 64
5, 10856, Note_on_c, 3, 56, 0
5, 10864, Note_on_c, 3, 55, 64
5, 10916, Note_on_c, 3, 55, 0
5, 10924, Note_on_c, 3, 56, 64
5, 10976, Note_on_c, 3, 56, 0
5, 10984, Note_on_c, 3, 55, 64
5, 11036, Note_on_c, 3, 55, 0
5, 11044, Note_on_c, 3, 56, 64
5, 11149, Note_on_c, 3, 56, 0
5, 11164, Note_on_c, 3, 59, 64
5, 11216, Note_on_c, 3, 59, 0
5, 11224, Note_on_c, 3, 58, 64
5, 11276, Note_on_c, 3, 58, 0
5, 11284, Note_on_c, 3, 56, 64
5, 11389, Note_on_c, 3, 56, 0
5, 11404, Note_on_c, 3, 54, 64
5, 11509, Note_on_c, 3, 54, 0
5, 11524, Note_on_c, 3, 53, 64
5, 11749, Note_on_c, 3, 53, 0
5, 11764, Note_on_c, 3, 54, 64
5, 11989, Note_on_c, 3, 54, 0
5, 12004, Note_on_c, 3, 49, 64
5, 12469, Note_on_c, 3, 49, 0
5, 12484, Note_on_c, 3, 42, 64
5, 12709, Note_on_c, 3, 42, 0
5, 14524, Note_on_c, 3, 59, 64
5, 14576, Note_on_c, 3, 59, 0
5, 14584, Note_on_c, 3, 58, 64
5, 14636, Note_on_c, 3, 58, 0
5, 14644, Note_on_c, 3, 56, 64
5, 14696, Note_on_c, 3, 56, 0
5, 14704, Note_on_c, 3, 58, 64
5, 14756, Note_on_c, 3, 58, 0
5, 14764, Note_on_c, 3, 59, 64
5, 14816, Note_on_c, 3, 59, 0
5, 14824, Note_on_c, 3, 56, 64
5, 14876, Note_on_c, 3, 56, 0
5, 14884, Note_on_c, 3, 52, 64
5, 14936, Note_on_c, 3, 52, 0
5, 14944, Note_on_c, 3, 54, 64
5, 14996, Note_on_c, 3, 54, 0
5, 15004, Note_on_c, 3, 56, 64
5, 15056, Note_on_c, 3, 56, 0
5, 15064, Note_on_c, 3, 52, 64
5, 15116, Note_on_c, 3, 52, 0
5, 15124, Note_on_c, 3, 49, 64
5, 15176, Note_on_c, 3, 49, 0
5, 15184, Note_on_c, 3, 51, 64
5, 15236, Note_on_c, 3, 51, 0
5, 15244, Note_on_c, 3, 52, 64
5, 15416, Note_on_c, 3, 52, 0
5, 15424, Note_on_c, 3, 49, 64
5, 15476, Note_on_c, 3, 49, 0
5, 15484, Note_on_c, 3, 51, 64
5, 15589, Note_on_c, 3, 51, 0
5, 15604, Note_on_c, 3, 52, 64
5, 15709, Note_on_c, 3, 52, 0
5, 15724, Note_on_c, 3, 47, 64
5, 15829, Note_on_c, 3, 47, 0
5, 15844, Note_on_c, 3, 49, 64
5, 15896, Note_on_c, 3, 49, 0
5, 15904, Note_on_c, 3, 51, 64
5, 15956, Note_on_c, 3, 51, 0
5, 15964, Note_on_c, 3, 52, 64
5, 16016, Note_on_c, 3, 52, 0
5, 16024, Note_on_c, 3, 49, 64
5, 16076, Note_on_c, 3, 49, 0
5, 16084, Note_on_c, 3, 54, 64
5, 16309, Note_on_c, 3, 54, 0
5, 16324, Note_on_c, 3, 47, 64
5, 16429, Note_on_c, 3, 47, 0
5, 16864, Note_on_c, 3, 47, 64
5, 16916, Note_on_c, 3, 47, 0
5, 16924, Note_on_c, 3, 52, 64
5, 16976, Note_on_c, 3, 52, 0
5, 16984, Note_on_c, 3, 51, 64
5, 17036, Note_on_c, 3, 51, 0
5, 17044, Note_on_c, 3, 49, 64
5, 17096, Note_on_c, 3, 49, 0
5, 17104, Note_on_c, 3, 51, 64
5, 17156, Note_on_c, 3, 51, 0
5, 17164, Note_on_c, 3, 52, 64
5, 17216, Note_on_c, 3, 52, 0
5, 17224, Note_on_c, 3, 49, 64
5, 17276, Note_on_c, 3, 49, 0
5, 17284, Note_on_c, 3, 46, 64
5, 17336, Note_on_c, 3, 46, 0
5, 17344, Note_on_c, 3, 47, 64
5, 17396, Note_on_c, 3, 47, 0
5, 17404, Note_on_c, 3, 49, 64
5, 17456, Note_on_c, 3, 49, 0
5, 17464, Note_on_c, 3, 46, 64
5, 17516, Note_on_c, 3, 46, 0
5, 17524, Note_on_c, 3, 43, 64
5, 17576, Note_on_c, 3, 43, 0
5, 17584, Note_on_c, 3, 44, 64
5, 17636, Note_on_c, 3, 44, 0
5, 17644, Note_on_c, 3, 46, 64
5, 17816, Note_on_c, 3, 46, 0
5, 17824, Note_on_c, 3, 44, 64
5, 17876, Note_on_c, 3, 44, 0
5, 17884, Note_on_c, 3, 46, 64
5, 17936, Note_on_c, 3, 46, 0
5, 17944, Note_on_c, 3, 47, 64
5, 17996, Note_on_c, 3, 47, 0
5, 18004, Note_on_c, 3, 49, 64
5, 18296, Note_on_c, 3, 49, 0
5, 18304, Note_on_c, 3, 42, 64
5, 18356, Note_on_c, 3, 42, 0
5, 18364, Note_on_c, 3, 44, 64
5, 18416, Note_on_c, 3, 44, 0
5, 18424, Note_on_c, 3, 46, 64
5, 18476, Note_on_c, 3, 46, 0
5, 18484, Note_on_c, 3, 47, 64
5, 18776, Note_on_c, 3, 47, 0
5, 18784, Note_on_c, 3, 46, 64
5, 18836, Note_on_c, 3, 46, 0
5, 18844, Note_on_c, 3, 47, 64
5, 18896, Note_on_c, 3, 47, 0
5, 18904, Note_on_c, 3, 49, 64
5, 18956, Note_on_c, 3, 49, 0
5, 18964, Note_on_c, 3, 51, 64
5, 19069, Note_on_c, 3, 51, 0
5, 19084, Note_on_c, 3, 49, 64
5, 19189, Note_on_c, 3, 49, 0
5, 19204, Note_on_c, 3, 47, 64
5, 19256, Note_on_c, 3, 47, 0
5, 19264, Note_on_c, 3, 44, 64
5, 19316, Note_on_c, 3, 44, 0
5, 19324, Note_on_c, 3, 46, 64
5, 19376, Note_on_c, 3, 46, 0
5, 19384, Note_on_c, 3, 47, 64
5, 19436, Note_on_c, 3, 47, 0
5, 19444, Note_on_c, 3, 49, 64
5, 19549, Note_on_c, 3, 49, 0
5, 19564, Note_on_c, 3, 47, 64
5, 19736, Note_on_c, 3, 47, 0
5, 19744, Note_on_c, 3, 47, 64
5, 19796, Note_on_c, 3, 47, 0
5, 19804, Note_on_c, 3, 46, 64
5, 19856, Note_on_c, 3, 46, 0
5, 19864, Note_on_c, 3, 44, 64
5, 19916, Note_on_c, 3, 44, 0
5, 19924, Note_on_c, 3, 42, 64
5, 20029, Note_on_c, 3, 42, 0
5, 20224, Note_on_c, 3, 51, 64
5, 20276, Note_on_c, 3, 51, 0
5, 20284, Note_on_c, 3, 53, 64
5, 20336, Note_on_c, 3, 53, 0
5, 20344, Note_on_c, 3, 55, 64
5, 20396, Note_on_c, 3, 55, 0
5, 20404, Note_on_c, 3, 56, 64
5, 20456, Note_on_c, 3, 56, 0
5, 20464, Note_on_c, 3, 55, 64
5, 20516, Note_on_c, 3, 55, 0
5, 20524, Note_on_c, 3, 56, 64
5, 20749, Note_on_c, 3, 56, 0
5, 20764, Note_on_c, 3, 56, 64
5, 20989, Note_on_c, 3, 56, 0
5, 21004, Note_on_c, 3, 50, 64
5, 21109, Note_on_c, 3, 50, 0
5, 21124, Note_on_c, 3, 51, 64
5, 21229, Note_on_c, 3, 51, 0
5, 22564, Note_on_c, 3, 44, 64
5, 22789, Note_on_c, 3, 44, 0
5, 22804, Note_on_c, 3, 47, 64
5, 23029, Note_on_c, 3, 47, 0
5, 23044, Note_on_c, 3, 52, 64
5, 23269, Note_on_c, 3, 52, 0
5, 23284, Note_on_c, 3, 49, 64
5, 23509, Note_on_c, 3, 49, 0
5, 23524, Note_on_c, 3, 46, 64
5, 23749, Note_on_c, 3, 46, 0
5, 23764, Note_on_c, 3, 55, 64
5, 23989, Note_on_c, 3, 55, 0
5, 24004, Note_on_c, 3, 56, 64
5, 24296, Note_on_c, 3, 56, 0
5, 24304, Note_on_c, 3, 54, 64
5, 24356, Note_on_c, 3, 54, 0
5, 24364, Note_on_c, 3, 53, 64
5, 24416, Note_on_c, 3, 53, 0
5, 24424, Note_on_c, 3, 56, 64
5, 24476, Note_on_c, 3, 56, 0
5, 24484, Note_on_c, 3, 54, 64
5, 24776, Note_on_c, 3, 54, 0
5, 24784, Note_on_c, 3, 52, 64
5, 24836, Note_on_c, 3, 52, 0
5, 24844, Note_on_c, 3, 51, 64
5, 24896, Note_on_c, 3, 51, 0
5, 24904, Note_on_c, 3, 54, 64
5, 24956, Note_on_c, 3, 54, 0
5, 24964, Note_on_c, 3, 52, 64
5, 25129, Note_on_c, 3, 52, 0
5, 25144, Note_on_c, 3, 51, 64
5, 25196, Note_on_c, 3, 51, 0
5, 25204, Note_on_c, 3, 49, 64
5, 25256, Note_on_c, 3, 49, 0
5, 25264, Note_on_c, 3, 51, 64
5, 25316, Note_on_c, 3, 51, 0
5, 25324, Note_on_c, 3, 52, 64
5, 25376, Note_on_c, 3, 52, 0
5, 25384, Note_on_c, 3, 49, 64
5, 25436, Note_on_c, 3, 49, 0
5, 25444, Note_on_c, 3, 45, 64
5, 25496, Note_on_c, 3, 45, 0
5, 25504, Note_on_c, 3, 49, 64
5, 25556, Note_on_c, 3, 49, 0
5, 25564, Note_on_c, 3, 54, 64
5, 25789, Note_on_c, 3, 54, 0
5, 25804, Note_on_c, 3, 48, 64
5, 25976, Note_on_c, 3, 48, 0
5, 25984, Note_on_c, 3, 49, 64
5, 26036, Note_on_c, 3, 49, 0
5, 26044, Note_on_c, 3, 51, 64
5, 26096, Note_on_c, 3, 51, 0
5, 26104, Note_on_c, 3, 48, 64
5, 26156, Note_on_c, 3, 48, 0
5, 26164, Note_on_c, 3, 44, 64
5, 26216, Note_on_c, 3, 44, 0
5, 26224, Note_on_c, 3, 46, 64
5, 26276, Note_on_c, 3, 46, 0
5, 26284, Note_on_c, 3, 48, 64
5, 26336, Note_on_c, 3, 48, 0
5, 26344, Note_on_c, 3, 44, 64
5, 26396, Note_on_c, 3, 44, 0
5, 26404, Note_on_c, 3, 49, 64
5, 26456, Note_on_c, 3, 49, 0
5, 26464, Note_on_c, 3, 51, 64
5, 26516, Note_on_c, 3, 51, 0
5, 26524, Note_on_c, 3, 52, 64
5, 26576, Note_on_c, 3, 52, 0
5, 26584, Note_on_c, 3, 49, 64
5, 26636, Note_on_c, 3, 49, 0
5, 26644, Note_on_c, 3, 45, 64
5, 26696, Note_on_c, 3, 45, 0
5, 26704, Note_on_c, 3, 47, 64
5, 26756, Note_on_c, 3, 47, 0
5, 26764, Note_on_c, 3, 49, 64
5, 26816, Note_on_c, 3, 49, 0
5, 26824, Note_on_c, 3, 45, 64
5, 26876, Note_on_c, 3, 45, 0
5, 26884, Note_on_c, 3, 42, 64
5, 26936, Note_on_c, 3, 42, 0
5, 26944, Note_on_c, 3, 44, 64
5, 26996, Note_on_c, 3, 44, 0
5, 27004, Note_on_c, 3, 45, 64
5, 27056, Note_on_c, 3, 45, 0
5, 27064, Note_on_c, 3, 42, 64
5, 27116, Note_on_c, 3, 42, 0
5, 27124, Note_on_c, 3, 39, 64
5, 27176, Note_on_c, 3, 39, 0
5, 27184, Note_on_c, 3, 40, 64
5, 27236, Note_on_c, 3, 40, 0
5, 27244, Note_on_c, 3, 42, 64
5, 27296, Note_on_c, 3, 42, 0
5, 27304, Note_on_c, 3, 39, 64
5, 27356, Note_on_c, 3, 39, 0
5, 27364, Note_on_c, 3, 44, 64
5, 27416, Note_on_c, 3, 44, 0
5, 27424, Note_on_c, 3, 42, 64
5, 27476, Note_on_c, 3, 42, 0
5, 27484, Note_on_c, 3, 40, 64
5, 27536, Note_on_c, 3, 40, 0
5, 27544, Note_on_c, 3, 42, 64
5, 27596, Note_on_c, 3, 42, 0
5, 27604, Note_on_c, 3, 44, 64
5, 27656, Note_on_c, 3, 44, 0
5, 27664, Note_on_c, 3, 42, 64
5, 27716, Note_on_c, 3, 42, 0
5, 27724, Note_on_c, 3, 44, 64
5, 27776, Note_on_c, 3, 44, 0
5, 27784, Note_on_c, 3, 45, 64
5, 27836, Note_on_c, 3, 45, 0
5, 27844, Note_on_c, 3, 47, 64
5, 28309, Note_on_c, 3, 47, 0
5, 28324, Note_on_c, 3, 52, 64
5, 28549, Note_on_c, 3, 52, 0
5, 35524, Note_on_c, 3, 47, 64
5, 35749, Note_on_c, 3, 47, 0
5, 35764, Note_on_c, 3, 51, 64
5, 35989, Note_on_c, 3, 51, 0
5, 36004, Note_on_c, 3, 56, 64
5, 36229, Note_on_c, 3, 56, 0
5, 36244, Note_on_c, 3, 52, 64
5, 36469, Note_on_c, 3, 52, 0
5, 36484, Note_on_c, 3, 49, 64
5, 36709, Note_on_c, 3, 49, 0
5, 36724, Note_on_c, 3, 58, 64
5, 36949, Note_on_c, 3, 58, 0
5, 36964, Note_on_c, 3, 59, 64
5, 37256, Note_on_c, 3, 59, 0
5, 37264, Note_on_c, 3, 61, 64
5, 37316, Note_on_c, 3, 61, 0
5, 37324, Note_on_c, 3, 59, 64
5, 37376, Note_on_c, 3, 59, 0
5, 37384, Note_on_c, 3, 58, 64
5, 37436, Note_on_c, 3, 58, 0
5, 37444, Note_on_c, 3, 56, 64
5, 37736, Note_on_c, 3, 56, 0
5, 37744, Note_on_c, 3, 58, 64
5, 37796, Note_on_c, 3, 58, 0
5, 37804, Note_on_c, 3, 56, 64
5, 37856, Note_on_c, 3, 56, 0
5, 37864, Note_on_c, 3, 54, 64
5, 37916, Note_on_c, 3, 54, 0
5, 37924, Note_on_c, 3, 53, 64
5, 38216, Note_on_c, 3, 53, 0
5, 38224, Note_on_c, 3, 54, 64
5, 38276, Note_on_c, 3, 54, 0
5, 38284, Note_on_c, 3, 53, 64
5, 38336, Note_on_c, 3, 53, 0
5, 38344, Note_on_c, 3, 51, 64
5, 38396, Note_on_c, 3, 51, 0
5, 38404, Note_on_c, 3, 50, 64
5, 38456, Note_on_c, 3, 50, 0
5, 38464, Note_on_c, 3, 46, 64
5, 38516, Note_on_c, 3, 46, 0
5, 38524, Note_on_c, 3, 48, 64
5, 38576, Note_on_c, 3, 48, 0
5, 38584, Note_on_c, 3, 50, 64
5, 38636, Note_on_c, 3, 50, 0
5, 38644, Note_on_c, 3, 51, 64
5, 38696, Note_on_c, 3, 51, 0
5, 38704, Note_on_c, 3, 53, 64
5, 38756, Note_on_c, 3, 53, 0
5, 38764, Note_on_c, 3, 54, 64
5, 38816, Note_on_c, 3, 54, 0
5, 38824, Note_on_c, 3, 51, 64
5, 38876, Note_on_c, 3, 51, 0
5, 38884, Note_on_c, 3, 56, 64
5, 38936, Note_on_c, 3, 56, 0
5, 38944, Note_on_c, 3, 54, 64
5, 38996, Note_on_c, 3, 54, 0
5, 39004, Note_on_c, 3, 56, 64
5, 39056, Note_on_c, 3, 56, 0
5, 39064, Note_on_c, 3, 58, 64
5, 39116, Note_on_c, 3, 58, 0
5, 39124, Note_on_c, 3, 59, 64
5, 39176, Note_on_c, 3, 59, 0
5, 39184, Note_on_c, 3, 58, 64
5, 39236, Note_on_c, 3, 58, 0
5, 39244, Note_on_c, 3, 59, 64
5, 39296, Note_on_c, 3, 59, 0
5, 39304, Note_on_c, 3, 56, 64
5, 39356, Note_on_c, 3, 56, 0
5, 39364, Note_on_c, 3, 58, 64
5, 39769, Note_on_c, 3, 58, 0
5, 39784, Note_on_c, 3, 57, 64
5, 39836, Note_on_c, 3, 57, 0
5, 39844, Note_on_c, 3, 58, 64
5, 40069, Note_on_c, 3, 58, 0
5, 40084, Note_on_c, 3, 46, 64
5, 40309, Note_on_c, 3, 46, 0
5, 40324, Note_on_c, 3, 51, 64
5, 40616, Note_on_c, 3, 51, 0
5, 40624, Note_on_c, 3, 52, 64
5, 40676, Note_on_c, 3, 52, 0
5, 40684, Note_on_c, 3, 51, 64
5, 40736, Note_on_c, 3, 51, 0
5, 40744, Note_on_c, 3, 49, 64
5, 40796, Note_on_c, 3, 49, 0
5, 40804, Note_on_c, 3, 47, 64
5, 40856, Note_on_c, 3, 47, 0
5, 40864, Note_on_c, 3, 46, 64
5, 40916, Note_on_c, 3, 46, 0
5, 40924, Note_on_c, 3, 47, 64
5, 41096, Note_on_c, 3, 47, 0
5, 41104, Note_on_c, 3, 49, 64
5, 41156, Note_on_c, 3, 49, 0
5, 41164, Note_on_c, 3, 51, 64
5, 41336, Note_on_c, 3, 51, 0
5, 41344, Note_on_c, 3, 49, 64
5, 41396, Note_on_c, 3, 49, 0
5, 41404, Note_on_c, 3, 47, 64
5, 41456, Note_on_c, 3, 47, 0
5, 41464, Note_on_c, 3, 51, 64
5, 41516, Note_on_c, 3, 51, 0
5, 41524, Note_on_c, 3, 49, 64
5, 41576, Note_on_c, 3, 49, 0
5, 41584, Note_on_c, 3, 47, 64
5, 41636, Note_on_c, 3, 47, 0
5, 41644, Note_on_c, 3, 46, 64
5, 41696, Note_on_c, 3, 46, 0
5, 41704, Note_on_c, 3, 44, 64
5, 41756, Note_on_c, 3, 44, 0
5, 41764, Note_on_c, 3, 42, 64
5, 41816, Note_on_c, 3, 42, 0
5, 41824, Note_on_c, 3, 49, 64
5, 41876, Note_on_c, 3, 49, 0
5, 41884, Note_on_c, 3, 54, 64
5, 42056, Note_on_c, 3, 54, 0
5, 42064, Note_on_c, 3, 52, 64
5, 42116, Note_on_c, 3, 52, 0
5, 42124, Note_on_c, 3, 51, 64
5, 42176, Note_on_c, 3, 51, 0
5, 42184, Note_on_c, 3, 49, 64
5, 42236, Note_on_c, 3, 49, 0
5, 42244, Note_on_c, 3, 48, 64
5, 42296, Note_on_c, 3, 48, 0
5, 42304, Note_on_c, 3, 49, 64
5, 42356, Note_on_c, 3, 49, 0
5, 42364, Note_on_c, 3, 51, 64
5, 42416, Note_on_c, 3, 51, 0
5, 42424, Note_on_c, 3, 48, 64
5, 42476, Note_on_c, 3, 48, 0
5, 42484, Note_on_c, 3, 44, 64
5, 42536, Note_on_c, 3, 44, 0
5, 42544, Note_on_c, 3, 46, 64
5, 42596, Note_on_c, 3, 46, 0
5, 42604, Note_on_c, 3, 48, 64
5, 42656, Note_on_c, 3, 48, 0
5, 42664, Note_on_c, 3, 44, 64
5, 42716, Note_on_c, 3, 44, 0
5, 42724, Note_on_c, 3, 49, 64
5, 42776, Note_on_c, 3, 49, 0
5, 42784, Note_on_c, 3, 51, 64
5, 42836, Note_on_c, 3, 51, 0
5, 42844, Note_on_c, 3, 52, 64
5, 43016, Note_on_c, 3, 52, 0
5, 43024, Note_on_c, 3, 51, 64
5, 43076, Note_on_c, 3, 51, 0
5, 43084, Note_on_c, 3, 49, 64
5, 43136, Note_on_c, 3, 49, 0
5, 43144, Note_on_c, 3, 47, 64
5, 43196, Note_on_c, 3, 47, 0
5, 43204, Note_on_c, 3, 46, 64
5, 43256, Note_on_c, 3, 46, 0
5, 43264, Note_on_c, 3, 47, 64
5, 43316, Note_on_c, 3, 47, 0
5, 43324, Note_on_c, 3, 49, 64
5, 43376, Note_on_c, 3, 49, 0
5, 43384, Note_on_c, 3, 46, 64
5, 43436, Note_on_c, 3, 46, 0
5, 43444, Note_on_c, 3, 42, 64
5, 43496, Note_on_c, 3, 42, 0
5, 43504, Note_on_c, 3, 44, 64
5, 43556, Note_on_c, 3, 44, 0
5, 43564, Note_on_c, 3, 46, 64
5, 43616, Note_on_c, 3, 46, 0
5, 43624, Note_on_c, 3, 42, 64
5, 43676, Note_on_c, 3, 42, 0
5, 43684, Note_on_c, 3, 47, 64
5, 43736, Note_on_c, 3, 47, 0
5, 43744, Note_on_c, 3, 49, 64
5, 43796, Note_on_c, 3, 49, 0
5, 43804, Note_on_c, 3, 51, 64
5, 43976, Note_on_c, 3, 51, 0
5, 43984, Note_on_c, 3, 49, 64
5, 44036, Note_on_c, 3, 49, 0
5, 44044, Note_on_c, 3, 47, 64
5, 44096, Note_on_c, 3, 47, 0
5, 44104, Note_on_c, 3, 51, 64
5, 44156, Note_on_c, 3, 51, 0
5, 44164, Note_on_c, 3, 56, 64
5, 44456, Note_on_c, 3, 56, 0
5, 44464, Note_on_c, 3, 57, 64
5, 44516, Note_on_c, 3, 57, 0
5, 44524, Note_on_c, 3, 56, 64
5, 44576, Note_on_c, 3, 56, 0
5, 44584, Note_on_c, 3, 54, 64
5, 44636, Note_on_c, 3, 54, 0
5, 44644, Note_on_c, 3, 52, 64
5, 45469, Note_on_c, 3, 52, 0
5, 45484, Note_on_c, 3, 54, 64
5, 45536, Note_on_c, 3, 54, 0
5, 45544, Note_on_c, 3, 52, 64
5, 45596, Note_on_c, 3, 52, 0
5, 45604, Note_on_c, 3, 51, 64
5, 45896, Note_on_c, 3, 51, 0
5, 45904, Note_on_c, 3, 49, 64
5, 45956, Note_on_c, 3, 49, 0
5, 45964, Note_on_c, 3, 47, 64
5, 46016, Note_on_c, 3, 47, 0
5, 46024, Note_on_c, 3, 51, 64
5, 46076, Note_on_c, 3, 51, 0
5, 46084, Note_on_c, 3, 49, 64
5, 46376, Note_on_c, 3, 49, 0
5, 46384, Note_on_c, 3, 51, 64
5, 46436, Note_on_c, 3, 51, 0
5, 46444, Note_on_c, 3, 52, 64
5, 46496, Note_on_c, 3, 52, 0
5, 46504, Note_on_c, 3, 49, 64
5, 46556, Note_on_c, 3, 49, 0
5, 46564, Note_on_c, 3, 58, 64
5, 46856, Note_on_c, 3, 58, 0
5, 46864, Note_on_c, 3, 56, 64
5, 46916, Note_on_c, 3, 56, 0
5, 46924, Note_on_c, 3, 54, 64
5, 46976, Note_on_c, 3, 54, 0
5, 46984, Note_on_c, 3, 56, 64
5, 47036, Note_on_c, 3, 56, 0
5, 47044, Note_on_c, 3, 57, 64
5, 47336, Note_on_c, 3, 57, 0
5, 47344, Note_on_c, 3, 56, 64
5, 47396, Note_on_c, 3, 56, 0
5, 47404, Note_on_c, 3, 54, 64
5, 47456, Note_on_c, 3, 54, 0
5, 47464, Note_on_c, 3, 57, 64
5, 47516, Note_on_c, 3, 57, 0
5, 47524, Note_on_c, 3, 56, 64
5, 47989, Note_on_c, 3, 56, 0
5, 48004, Note_on_c, 3, 59, 64
5, 48229, Note_on_c, 3, 59, 0
5, 48364, Note_on_c, 3, 53, 64
5, 48469, Note_on_c, 3, 53, 0
5, 48484, Note_on_c, 3, 54, 64
5, 48536, Note_on_c, 3, 54, 0
5, 48544, Note_on_c, 3, 52, 64
5, 48596, Note_on_c, 3, 52, 0
5, 48604, Note_on_c, 3, 51, 64
5, 48656, Note_on_c, 3, 51, 0
5, 48664, Note_on_c, 3, 49, 64
5, 48716, Note_on_c, 3, 49, 0
5, 48724, Note_on_c, 3, 47, 64
5, 48776, Note_on_c, 3, 47, 0
5, 48784, Note_on_c, 3, 49, 64
5, 48836, Note_on_c, 3, 49, 0
5, 48844, Note_on_c, 3, 51, 64
5, 48896, Note_on_c, 3, 51, 0
5, 48904, Note_on_c, 3, 41, 64
5, 48956, Note_on_c, 3, 41, 0
5, 48964, Note_on_c, 3, 42, 64
5, 49429, Note_on_c, 3, 42, 0
5, 49444, Note_on_c, 3, 47, 64
5, 49909, Note_on_c, 3, 47, 0
5, 49909, End_track
0, 0, End_of_file
