0, 0, Header, 1, 3, 120
1, 0, Start_track
1, 0, Time_signature, 2, 1, 48, 8
1, 0, Key_signature, 2, "major"
1, 0, Tempo, 422535
1, 0, Marker_t, "(c) Yo Tomita, 1997"
1, 26629, Tempo, 421644
1, 26636, Tempo, 423131
1, 26641, Tempo, 424628
1, 26646, Tempo, 426136
1, 26651, Tempo, 427655
1, 26656, Tempo, 429185
1, 26662, Tempo, 430725
1, 26667, Tempo, 432277
1, 26672, Tempo, 433839
1, 26677, Tempo, 435414
1, 26682, Tempo, 436999
1, 26687, Tempo, 438596
1, 26693, Tempo, 440205
1, 26698, Tempo, 441826
1, 26703, Tempo, 443459
1, 26708, Tempo, 445104
1, 26713, Tempo, 446761
1, 26718, Tempo, 448430
1, 26724, Tempo, 450113
1, 26729, Tempo, 451807
1, 26734, Tempo, 453515
1, 26739, Tempo, 455235
1, 26744, Tempo, 456969
1, 26749, Tempo, 458716
1, 26756, Tempo, 460476
1, 26761, Tempo, 462250
1, 26766, Tempo, 464037
1, 26771, Tempo, 465839
1, 26776, Tempo, 467654
1, 26781, Tempo, 469484
1, 26787, Tempo, 471328
1, 26792, Tempo, 473186
1, 26797, Tempo, 475059
1, 26802, Tempo, 476948
1, 26807, Tempo, 478851
1, 26813, Tempo, 480769
1, 26818, Tempo, 482703
1, 26823, Tempo, 484653
1, 26828, Tempo, 486618
1, 26833, Tempo, 488599
1, 26838, Tempo, 490597
1, 26844, Tempo, 492611
1, 26849, Tempo, 494641
1, 26854, Tempo, 496689
1, 26859, Tempo, 498753
1, 26864, Tempo, 500835
1, 26869, Tempo, 502934
1, 26876, Tempo, 505051
1, 26881, Tempo, 507185
1, 26886, Tempo, 509338
1, 26891, Tempo, 511509
1, 26896, Tempo, 513699
1, 26901, Tempo, 515907
1, 26907, Tempo, 518135
1, 26912, Tempo, 520382
1, 26917, Tempo, 522648
1, 26922, Tempo, 524934
1, 26927, Tempo, 527241
1, 26932, Tempo, 529568
1, 26938, Tempo, 531915
1, 26943, Tempo, 534283
1, 26948, Tempo, 536673
1, 26953, Tempo, 539084
1, 26958, Tempo, 541516
1, 26964, Tempo, 543971
1, 26969, Tempo, 546448
1, 26974, Tempo, 548948
1, 26977, Tempo, 554017
1, 26979, Tempo, 556586
1, 26981, Tempo, 559180
1, 26982, Tempo, 561798
1, 26983, Tempo, 564440
1, 26984, Tempo, 567108
1, 26986, Tempo, 569801
1, 26987, Tempo, 572519
1, 26988, Tempo, 575264
1, 26991, Tempo, 578035
1, 26992, Tempo, 580833
1, 26993, Tempo, 583658
1, 26994, Tempo, 586510
1, 26996, Tempo, 589391
1, 26997, Tempo, 592300
1, 26998, Tempo, 595238
1, 26999, Tempo, 598205
1, 27002, Tempo, 601202
1, 27003, Tempo, 604230
1, 27004, Tempo, 607287
1, 27006, Tempo, 610376
1, 27007, Tempo, 613497
1, 27008, Tempo, 616650
1, 27009, Tempo, 619835
1, 27011, Tempo, 623053
1, 27013, Tempo, 626305
1, 27014, Tempo, 629591
1, 27016, Tempo, 632911
1, 27017, Tempo, 636267
1, 27018, Tempo, 639659
1, 27019, Tempo, 643087
1, 27021, Tempo, 646552
1, 27022, Tempo, 650054
1, 27024, Tempo, 653595
1, 27026, Tempo, 657174
1, 27027, Tempo, 660793
1, 27028, Tempo, 664452
1, 27029, Tempo, 668151
1, 27031, Tempo, 671892
1, 27032, Tempo, 675676
1, 27033, Tempo, 679502
1, 27036, Tempo, 683371
1, 27037, Tempo, 687285
1, 27038, Tempo, 691244
1, 27039, Tempo, 695249
1, 27041, Tempo, 699301
1, 27042, Tempo, 703400
1, 27043, Tempo, 707547
1, 27044, Tempo, 711744
1, 27047, Tempo, 715990
1, 27048, Tempo, 720288
1, 27049, Tempo, 724638
1, 27051, Tempo, 729040
1, 27052, Tempo, 733496
1, 27053, Tempo, 738007
1, 27054, Tempo, 742574
1, 27056, Tempo, 747198
1, 27058, Tempo, 751880
1, 27059, Tempo, 756620
1, 27061, Tempo, 761421
1, 27062, Tempo, 766284
1, 27063, Tempo, 771208
1, 27064, Tempo, 776197
1, 27066, Tempo, 781250
1, 27067, Tempo, 786370
1, 27069, Tempo, 791557
1, 27071, Tempo, 796813
1, 27072, Tempo, 802139
1, 27073, Tempo, 807537
1, 27074, Tempo, 813008
1, 27076, Tempo, 818554
1, 27077, Tempo, 824176
1, 27078, Tempo, 829876
1, 27081, Tempo, 835655
1, 27082, Tempo, 841515
1, 27083, Tempo, 847458
1, 27084, Tempo, 853485
1, 27086, Tempo, 859599
1, 27087, Tempo, 865801
1, 27088, Tempo, 872093
1, 27089, Tempo, 878477
1, 27092, Tempo, 884956
1, 27093, Tempo, 891530
1, 27094, Tempo, 898204
1, 27096, Tempo, 904977
1, 27097, Tempo, 911854
1, 27098, Tempo, 918836
1, 27099, Tempo, 925926
1, 27101, Tempo, 933126
1, 27103, Tempo, 940439
1, 27104, Tempo, 947867
1, 27106, Tempo, 955414
1, 27107, Tempo, 963082
1, 27108, Tempo, 970874
1, 27109, Tempo, 978793
1, 27111, Tempo, 986842
1, 27112, Tempo, 995025
1, 27114, Tempo, 1003344
1, 27116, Tempo, 1011804
1, 27117, Tempo, 1020408
1, 27118, Tempo, 1029160
1, 27119, Tempo, 1038062
1, 27121, Tempo, 1047120
1, 27122, Tempo, 1056338
1, 27123, Tempo, 1065719
1, 27127, Tempo, 428571
1, 29265, Tempo, 863309
1, 29290, Tempo, 437956
1, 29293, Tempo, 442804
1, 29363, Tempo, 444444
1, 29430, Tempo, 446097
1, 29497, Tempo, 447761
1, 29563, Tempo, 449438
1, 29633, Tempo, 451128
1, 29700, Tempo, 452830
1, 29751, Tempo, 863309
1, 29767, Tempo, 454545
1, 29833, Tempo, 456274
1, 29903, Tempo, 458015
1, 29970, Tempo, 459770
1, 30037, Tempo, 461538
1, 30103, Tempo, 463320
1, 30173, Tempo, 465116
1, 30232, Tempo, 857143
1, 30248, Tempo, 863309
1, 30250, Tempo, 468750
1, 30307, Tempo, 468750
1, 30352, Tempo, 863309
1, 30373, Tempo, 470588
1, 30443, Tempo, 472441
1, 30510, Tempo, 474308
1, 30577, Tempo, 476190
1, 30643, Tempo, 478088
1, 30713, Tempo, 480000
1, 30780, Tempo, 481928
1, 30847, Tempo, 483871
1, 30913, Tempo, 485830
1, 30915, Tempo, 485830
1, 30920, Tempo, 487805
1, 30926, Tempo, 489796
1, 30931, Tempo, 491803
1, 30936, Tempo, 493827
1, 30941, Tempo, 495868
1, 30946, Tempo, 497925
1, 30951, Tempo, 500000
1, 30956, Tempo, 502092
1, 30961, Tempo, 504202
1, 30966, Tempo, 506329
1, 30972, Tempo, 508475
1, 30977, Tempo, 510638
1, 30982, Tempo, 512821
1, 30987, Tempo, 515021
1, 30992, Tempo, 517241
1, 30997, Tempo, 519481
1, 31002, Tempo, 521739
1, 31007, Tempo, 524017
1, 31012, Tempo, 526316
1, 31018, Tempo, 528634
1, 31023, Tempo, 530973
1, 31028, Tempo, 533333
1, 31033, Tempo, 535714
1, 31038, Tempo, 538117
1, 31043, Tempo, 540541
1, 31048, Tempo, 542986
1, 31053, Tempo, 545455
1, 31058, Tempo, 547945
1, 31065, Tempo, 552995
1, 31068, Tempo, 555556
1, 31071, Tempo, 558140
1, 31073, Tempo, 560748
1, 31076, Tempo, 563380
1, 31078, Tempo, 566038
1, 31081, Tempo, 568720
1, 31083, Tempo, 571429
1, 31086, Tempo, 574163
1, 31089, Tempo, 576923
1, 31091, Tempo, 579710
1, 31094, Tempo, 582524
1, 31096, Tempo, 585366
1, 31099, Tempo, 588235
1, 31101, Tempo, 591133
1, 31104, Tempo, 594059
1, 31106, Tempo, 597015
1, 31109, Tempo, 600000
1, 31112, Tempo, 603015
1, 31114, Tempo, 612245
1, 31116, Tempo, 615385
1, 31117, Tempo, 618557
1, 31119, Tempo, 621762
1, 31120, Tempo, 625000
1, 31122, Tempo, 628272
1, 31123, Tempo, 631579
1, 31125, Tempo, 634921
1, 31126, Tempo, 638298
1, 31128, Tempo, 641711
1, 31129, Tempo, 645161
1, 31130, Tempo, 648649
1, 31132, Tempo, 652174
1, 31133, Tempo, 655738
1, 31135, Tempo, 659341
1, 31136, Tempo, 662983
1, 31138, Tempo, 666667
1, 31139, Tempo, 670391
1, 31141, Tempo, 674157
1, 31142, Tempo, 677966
1, 31144, Tempo, 681818
1, 31145, Tempo, 685714
1, 31146, Tempo, 689655
1, 31148, Tempo, 693642
1, 31149, Tempo, 697674
1, 31151, Tempo, 701754
1, 31152, Tempo, 705882
1, 31154, Tempo, 710059
1, 31155, Tempo, 714286
1, 31157, Tempo, 718563
1, 31158, Tempo, 722892
1, 31159, Tempo, 722892
1, 31160, Tempo, 727273
1, 31161, Tempo, 731707
1, 31162, Tempo, 736196
1, 31163, Tempo, 740741
1, 31164, Tempo, 750000
1, 31165, Tempo, 754717
1, 31166, Tempo, 759494
1, 31167, Tempo, 764331
1, 31168, Tempo, 774194
1, 31169, Tempo, 779221
1, 31170, Tempo, 784314
1, 31171, Tempo, 789474
1, 31172, Tempo, 794702
1, 31173, Tempo, 805369
1, 31174, Tempo, 810811
1, 31175, Tempo, 816327
1, 31176, Tempo, 821918
1, 31177, Tempo, 833333
1, 31178, Tempo, 839161
1, 31179, Tempo, 845070
1, 31180, Tempo, 851064
1, 31181, Tempo, 857143
1, 31182, Tempo, 869565
1, 31183, Tempo, 875912
1, 31184, Tempo, 882353
1, 31185, Tempo, 888889
1, 31186, Tempo, 902256
1, 31187, Tempo, 909091
1, 31188, Tempo, 916031
1, 31189, Tempo, 923077
1, 31190, Tempo, 937500
1, 31216, Tempo, 779221
1, 31218, Tempo, 638298
1, 31223, Tempo, 634921
1, 31223, End_track
2, 0, Start_track
2, 0, MIDI_port, 0
2, 0, Title_t, "BWV 893/1"
2, 0, Program_c, 0, 6
2, 5, Note_on_c, 0, 62, 64
2, 64, Note_on_c, 0, 62, 0
2, 65, Note_on_c, 0, 66, 64
2, 117, Note_on_c, 0, 66, 0
2, 125, Note_on_c, 0, 59, 64
2, 185, Note_on_c, 0, 61, 64
2, 186, Note_on_c, 0, 59, 0
2, 237, Note_on_c, 0, 61, 0
2, 245, Note_on_c, 0, 62, 64
2, 304, Note_on_c, 0, 62, 0
2, 305, Note_on_c, 0, 66, 64
2, 357, Note_on_c, 0, 66, 0
2, 365, Note_on_c, 0, 59, 64
2, 424, Note_on_c, 0, 59, 0
2, 425, Note_on_c, 0, 62, 64
2, 477, Note_on_c, 0, 62, 0
2, 485, Note_on_c, 0, 61, 64
2, 540, Note_on_c, 0, 61, 0
2, 545, Note_on_c, 0, 66, 64
2, 605, Note_on_c, 0, 67, 64
2, 608, Note_on_c, 0, 66, 0
2, 635, Note_on_c, 0, 66, 64
2, 642, Note_on_c, 0, 67, 0
2, 665, Note_on_c, 0, 65, 64
2, 674, Note_on_c, 0, 66, 0
2, 695, Note_on_c, 0, 66, 64
2, 702, Note_on_c, 0, 65, 0
2, 725, Note_on_c, 0, 70, 64
2, 732, Note_on_c, 0, 66, 0
2, 777, Note_on_c, 0, 70, 0
2, 785, Note_on_c, 0, 66, 64
2, 837, Note_on_c, 0, 66, 0
2, 845, Note_on_c, 0, 73, 64
2, 889, Note_on_c, 0, 73, 0
2, 905, Note_on_c, 0, 64, 64
2, 949, Note_on_c, 0, 64, 0
2, 965, Note_on_c, 0, 62, 64
2, 1025, Note_on_c, 0, 66, 64
2, 1028, Note_on_c, 0, 62, 0
2, 1077, Note_on_c, 0, 66, 0
2, 1085, Note_on_c, 0, 59, 64
2, 1145, Note_on_c, 0, 61, 64
2, 1146, Note_on_c, 0, 59, 0
2, 1197, Note_on_c, 0, 61, 0
2, 1205, Note_on_c, 0, 62, 64
2, 1257, Note_on_c, 0, 62, 0
2, 1265, Note_on_c, 0, 66, 64
2, 1317, Note_on_c, 0, 66, 0
2, 1325, Note_on_c, 0, 59, 64
2, 1385, Note_on_c, 0, 62, 64
2, 1386, Note_on_c, 0, 59, 0
2, 1437, Note_on_c, 0, 62, 0
2, 1445, Note_on_c, 0, 61, 64
2, 1505, Note_on_c, 0, 66, 64
2, 1510, Note_on_c, 0, 61, 0
2, 1557, Note_on_c, 0, 66, 0
2, 1565, Note_on_c, 0, 61, 64
2, 1617, Note_on_c, 0, 61, 0
2, 1625, Note_on_c, 0, 58, 64
2, 1677, Note_on_c, 0, 58, 0
2, 1685, Note_on_c, 0, 54, 64
2, 1737, Note_on_c, 0, 54, 0
2, 2045, Note_on_c, 0, 74, 64
2, 2128, Note_on_c, 0, 74, 0
2, 2165, Note_on_c, 0, 71, 64
2, 2256, Note_on_c, 0, 71, 0
2, 2285, Note_on_c, 0, 66, 64
2, 2366, Note_on_c, 0, 66, 0
2, 2525, Note_on_c, 0, 76, 64
2, 2612, Note_on_c, 0, 76, 0
2, 2645, Note_on_c, 0, 73, 64
2, 2734, Note_on_c, 0, 73, 0
2, 2765, Note_on_c, 0, 66, 64
2, 2846, Note_on_c, 0, 66, 0
2, 3005, Note_on_c, 0, 78, 64
2, 3185, Note_on_c, 0, 76, 64
2, 3199, Note_on_c, 0, 78, 0
2, 3215, Note_on_c, 0, 74, 64
2, 3229, Note_on_c, 0, 76, 0
2, 3245, Note_on_c, 0, 76, 64
2, 3259, Note_on_c, 0, 74, 0
2, 3275, Note_on_c, 0, 74, 64
2, 3289, Note_on_c, 0, 76, 0
2, 3305, Note_on_c, 0, 73, 64
2, 3319, Note_on_c, 0, 74, 0
2, 3335, Note_on_c, 0, 71, 64
2, 3349, Note_on_c, 0, 73, 0
2, 3361, Note_on_c, 0, 71, 0
2, 3365, Note_on_c, 0, 71, 64
2, 3470, Note_on_c, 0, 71, 0
2, 3476, Note_on_c, 0, 71, 64
2, 3494, Note_on_c, 0, 70, 58
2, 3505, Note_on_c, 0, 71, 0
2, 3508, Note_on_c, 0, 71, 58
2, 3517, Note_on_c, 0, 70, 0
2, 3522, Note_on_c, 0, 70, 58
2, 3535, Note_on_c, 0, 71, 0
2, 3595, Note_on_c, 0, 70, 0
2, 3665, Note_on_c, 0, 64, 64
2, 3695, Note_on_c, 0, 62, 64
2, 3700, Note_on_c, 0, 64, 0
2, 3725, Note_on_c, 0, 61, 64
2, 3730, Note_on_c, 0, 62, 0
2, 3755, Note_on_c, 0, 62, 64
2, 3760, Note_on_c, 0, 61, 0
2, 3785, Note_on_c, 0, 64, 64
2, 3786, Note_on_c, 0, 62, 0
2, 3836, Note_on_c, 0, 64, 0
2, 3845, Note_on_c, 0, 62, 56
2, 3888, Note_on_c, 0, 62, 0
2, 3910, Note_on_c, 0, 71, 64
2, 3935, Note_on_c, 0, 73, 64
2, 3945, Note_on_c, 0, 71, 0
2, 3965, Note_on_c, 0, 74, 64
2, 3970, Note_on_c, 0, 73, 0
2, 3995, Note_on_c, 0, 73, 64
2, 4000, Note_on_c, 0, 74, 0
2, 4025, Note_on_c, 0, 71, 64
2, 4030, Note_on_c, 0, 73, 0
2, 4108, Note_on_c, 0, 71, 0
2, 4150, Note_on_c, 0, 78, 64
2, 4243, Note_on_c, 0, 78, 0
2, 4270, Note_on_c, 0, 69, 64
2, 4373, Note_on_c, 0, 69, 0
2, 4390, Note_on_c, 0, 71, 64
2, 4415, Note_on_c, 0, 69, 64
2, 4425, Note_on_c, 0, 71, 0
2, 4445, Note_on_c, 0, 68, 64
2, 4448, Note_on_c, 0, 69, 0
2, 4475, Note_on_c, 0, 69, 64
2, 4480, Note_on_c, 0, 68, 0
2, 4505, Note_on_c, 0, 71, 64
2, 4510, Note_on_c, 0, 69, 0
2, 4617, Note_on_c, 0, 71, 0
2, 4632, Note_on_c, 0, 62, 64
2, 4737, Note_on_c, 0, 62, 0
2, 4750, Note_on_c, 0, 71, 64
2, 4791, Note_on_c, 0, 71, 0
2, 4805, Note_on_c, 0, 61, 64
2, 4840, Note_on_c, 0, 61, 0
2, 4872, Note_on_c, 0, 69, 64
2, 4895, Note_on_c, 0, 71, 64
2, 4907, Note_on_c, 0, 69, 0
2, 4925, Note_on_c, 0, 73, 64
2, 4930, Note_on_c, 0, 71, 0
2, 4955, Note_on_c, 0, 71, 64
2, 4958, Note_on_c, 0, 73, 0
2, 4985, Note_on_c, 0, 69, 64
2, 4992, Note_on_c, 0, 71, 0
2, 5097, Note_on_c, 0, 69, 0
2, 5110, Note_on_c, 0, 76, 64
2, 5215, Note_on_c, 0, 76, 0
2, 5230, Note_on_c, 0, 67, 64
2, 5331, Note_on_c, 0, 67, 0
2, 5352, Note_on_c, 0, 69, 64
2, 5375, Note_on_c, 0, 67, 64
2, 5385, Note_on_c, 0, 69, 0
2, 5405, Note_on_c, 0, 66, 64
2, 5408, Note_on_c, 0, 67, 0
2, 5435, Note_on_c, 0, 67, 64
2, 5440, Note_on_c, 0, 66, 0
2, 5465, Note_on_c, 0, 69, 64
2, 5470, Note_on_c, 0, 67, 0
2, 5577, Note_on_c, 0, 69, 0
2, 5585, Note_on_c, 0, 61, 64
2, 5690, Note_on_c, 0, 61, 0
2, 5705, Note_on_c, 0, 69, 64
2, 5757, Note_on_c, 0, 69, 0
2, 5765, Note_on_c, 0, 59, 64
2, 5802, Note_on_c, 0, 59, 0
2, 5832, Note_on_c, 0, 66, 64
2, 5937, Note_on_c, 0, 66, 0
2, 5950, Note_on_c, 0, 69, 64
2, 6062, Note_on_c, 0, 69, 0
2, 6070, Note_on_c, 0, 67, 64
2, 6095, Note_on_c, 0, 66, 64
2, 6101, Note_on_c, 0, 67, 0
2, 6125, Note_on_c, 0, 67, 64
2, 6132, Note_on_c, 0, 66, 0
2, 6155, Note_on_c, 0, 66, 64
2, 6166, Note_on_c, 0, 67, 0
2, 6185, Note_on_c, 0, 64, 64
2, 6188, Note_on_c, 0, 66, 0
2, 6215, Note_on_c, 0, 62, 64
2, 6220, Note_on_c, 0, 64, 0
2, 6245, Note_on_c, 0, 61, 64
2, 6256, Note_on_c, 0, 62, 0
2, 6282, Note_on_c, 0, 61, 0
2, 6305, Note_on_c, 0, 67, 64
2, 6410, Note_on_c, 0, 67, 0
2, 6425, Note_on_c, 0, 71, 64
2, 6537, Note_on_c, 0, 71, 0
2, 6548, Note_on_c, 0, 69, 64
2, 6575, Note_on_c, 0, 67, 64
2, 6583, Note_on_c, 0, 69, 0
2, 6605, Note_on_c, 0, 69, 64
2, 6610, Note_on_c, 0, 67, 0
2, 6635, Note_on_c, 0, 67, 64
2, 6642, Note_on_c, 0, 69, 0
2, 6665, Note_on_c, 0, 66, 64
2, 6670, Note_on_c, 0, 67, 0
2, 6695, Note_on_c, 0, 64, 64
2, 6702, Note_on_c, 0, 66, 0
2, 6725, Note_on_c, 0, 62, 64
2, 6734, Note_on_c, 0, 64, 0
2, 6777, Note_on_c, 0, 62, 0
2, 6790, Note_on_c, 0, 69, 64
2, 6895, Note_on_c, 0, 69, 0
2, 6910, Note_on_c, 0, 72, 64
2, 7022, Note_on_c, 0, 72, 0
2, 7030, Note_on_c, 0, 71, 64
2, 7055, Note_on_c, 0, 69, 64
2, 7056, Note_on_c, 0, 71, 0
2, 7085, Note_on_c, 0, 71, 64
2, 7090, Note_on_c, 0, 69, 0
2, 7115, Note_on_c, 0, 69, 64
2, 7118, Note_on_c, 0, 71, 0
2, 7145, Note_on_c, 0, 67, 64
2, 7150, Note_on_c, 0, 69, 0
2, 7175, Note_on_c, 0, 66, 64
2, 7180, Note_on_c, 0, 67, 0
2, 7205, Note_on_c, 0, 64, 64
2, 7210, Note_on_c, 0, 66, 0
2, 7257, Note_on_c, 0, 64, 0
2, 7272, Note_on_c, 0, 71, 64
2, 7377, Note_on_c, 0, 71, 0
2, 7396, Note_on_c, 0, 74, 64
2, 7508, Note_on_c, 0, 74, 0
2, 7516, Note_on_c, 0, 73, 64
2, 7538, Note_on_c, 0, 71, 64
2, 7542, Note_on_c, 0, 73, 0
2, 7565, Note_on_c, 0, 73, 64
2, 7573, Note_on_c, 0, 71, 0
2, 7595, Note_on_c, 0, 71, 64
2, 7602, Note_on_c, 0, 73, 0
2, 7625, Note_on_c, 0, 69, 64
2, 7630, Note_on_c, 0, 71, 0
2, 7655, Note_on_c, 0, 67, 64
2, 7660, Note_on_c, 0, 69, 0
2, 7681, Note_on_c, 0, 67, 0
2, 7685, Note_on_c, 0, 66, 64
2, 7745, Note_on_c, 0, 69, 64
2, 7746, Note_on_c, 0, 66, 0
2, 7797, Note_on_c, 0, 69, 0
2, 7805, Note_on_c, 0, 62, 64
2, 7865, Note_on_c, 0, 64, 64
2, 7868, Note_on_c, 0, 62, 0
2, 7917, Note_on_c, 0, 64, 0
2, 7925, Note_on_c, 0, 66, 64
2, 7985, Note_on_c, 0, 69, 64
2, 7986, Note_on_c, 0, 66, 0
2, 8037, Note_on_c, 0, 69, 0
2, 8045, Note_on_c, 0, 62, 64
2, 8097, Note_on_c, 0, 62, 0
2, 8105, Note_on_c, 0, 66, 64
2, 8157, Note_on_c, 0, 66, 0
2, 8165, Note_on_c, 0, 64, 64
2, 8225, Note_on_c, 0, 69, 64
2, 8226, Note_on_c, 0, 64, 0
2, 8277, Note_on_c, 0, 69, 0
2, 8285, Note_on_c, 0, 71, 64
2, 8315, Note_on_c, 0, 69, 64
2, 8320, Note_on_c, 0, 71, 0
2, 8345, Note_on_c, 0, 68, 64
2, 8352, Note_on_c, 0, 69, 0
2, 8375, Note_on_c, 0, 69, 64
2, 8382, Note_on_c, 0, 68, 0
2, 8405, Note_on_c, 0, 73, 64
2, 8408, Note_on_c, 0, 69, 0
2, 8457, Note_on_c, 0, 73, 0
2, 8465, Note_on_c, 0, 69, 64
2, 8517, Note_on_c, 0, 69, 0
2, 8525, Note_on_c, 0, 76, 64
2, 8577, Note_on_c, 0, 76, 0
2, 8585, Note_on_c, 0, 67, 64
2, 8637, Note_on_c, 0, 67, 0
2, 8645, Note_on_c, 0, 66, 64
2, 8705, Note_on_c, 0, 69, 64
2, 8708, Note_on_c, 0, 66, 0
2, 8757, Note_on_c, 0, 69, 0
2, 8765, Note_on_c, 0, 62, 64
2, 8825, Note_on_c, 0, 64, 64
2, 8832, Note_on_c, 0, 62, 0
2, 8877, Note_on_c, 0, 64, 0
2, 8885, Note_on_c, 0, 66, 64
2, 8945, Note_on_c, 0, 69, 64
2, 8948, Note_on_c, 0, 66, 0
2, 8997, Note_on_c, 0, 69, 0
2, 9005, Note_on_c, 0, 62, 64
2, 9057, Note_on_c, 0, 62, 0
2, 9065, Note_on_c, 0, 66, 64
2, 9117, Note_on_c, 0, 66, 0
2, 9125, Note_on_c, 0, 64, 64
2, 9177, Note_on_c, 0, 64, 0
2, 9185, Note_on_c, 0, 69, 64
2, 9237, Note_on_c, 0, 69, 0
2, 9245, Note_on_c, 0, 64, 64
2, 9297, Note_on_c, 0, 64, 0
2, 9305, Note_on_c, 0, 61, 64
2, 9357, Note_on_c, 0, 61, 0
2, 9365, Note_on_c, 0, 57, 64
2, 9417, Note_on_c, 0, 57, 0
2, 9725, Note_on_c, 0, 69, 64
2, 9830, Note_on_c, 0, 69, 0
2, 9845, Note_on_c, 0, 71, 64
2, 9875, Note_on_c, 0, 69, 64
2, 9882, Note_on_c, 0, 71, 0
2, 9905, Note_on_c, 0, 68, 64
2, 9910, Note_on_c, 0, 69, 0
2, 9935, Note_on_c, 0, 69, 64
2, 9942, Note_on_c, 0, 68, 0
2, 9961, Note_on_c, 0, 69, 0
2, 9965, Note_on_c, 0, 78, 64
2, 10020, Note_on_c, 0, 78, 0
2, 10205, Note_on_c, 0, 69, 64
2, 10325, Note_on_c, 0, 71, 64
2, 10328, Note_on_c, 0, 69, 0
2, 10355, Note_on_c, 0, 69, 64
2, 10362, Note_on_c, 0, 71, 0
2, 10385, Note_on_c, 0, 68, 64
2, 10392, Note_on_c, 0, 69, 0
2, 10415, Note_on_c, 0, 69, 64
2, 10422, Note_on_c, 0, 68, 0
2, 10441, Note_on_c, 0, 69, 0
2, 10445, Note_on_c, 0, 79, 64
2, 10502, Note_on_c, 0, 79, 0
2, 10685, Note_on_c, 0, 69, 64
2, 10805, Note_on_c, 0, 71, 64
2, 10812, Note_on_c, 0, 69, 0
2, 10835, Note_on_c, 0, 69, 64
2, 10840, Note_on_c, 0, 71, 0
2, 10865, Note_on_c, 0, 68, 64
2, 10874, Note_on_c, 0, 69, 0
2, 10895, Note_on_c, 0, 69, 64
2, 10900, Note_on_c, 0, 68, 0
2, 10921, Note_on_c, 0, 69, 0
2, 10925, Note_on_c, 0, 81, 64
2, 10977, Note_on_c, 0, 81, 0
2, 10985, Note_on_c, 0, 74, 64
2, 11026, Note_on_c, 0, 74, 0
2, 11045, Note_on_c, 0, 74, 64
2, 11150, Note_on_c, 0, 74, 0
2, 11158, Note_on_c, 0, 73, 64
2, 11178, Note_on_c, 0, 74, 64
2, 11189, Note_on_c, 0, 73, 0
2, 11192, Note_on_c, 0, 73, 64
2, 11201, Note_on_c, 0, 74, 0
2, 11204, Note_on_c, 0, 74, 64
2, 11213, Note_on_c, 0, 73, 0
2, 11218, Note_on_c, 0, 73, 64
2, 11225, Note_on_c, 0, 74, 0
2, 11277, Note_on_c, 0, 73, 0
2, 11315, Note_on_c, 0, 71, 64
2, 11345, Note_on_c, 0, 73, 64
2, 11352, Note_on_c, 0, 71, 0
2, 11375, Note_on_c, 0, 75, 64
2, 11382, Note_on_c, 0, 73, 0
2, 11405, Note_on_c, 0, 76, 64
2, 11414, Note_on_c, 0, 75, 0
2, 11435, Note_on_c, 0, 75, 64
2, 11442, Note_on_c, 0, 76, 0
2, 11465, Note_on_c, 0, 73, 64
2, 11472, Note_on_c, 0, 75, 0
2, 11495, Note_on_c, 0, 75, 64
2, 11502, Note_on_c, 0, 73, 0
2, 11521, Note_on_c, 0, 75, 0
2, 11525, Note_on_c, 0, 76, 64
2, 11585, Note_on_c, 0, 79, 64
2, 11592, Note_on_c, 0, 76, 0
2, 11637, Note_on_c, 0, 79, 0
2, 11645, Note_on_c, 0, 71, 64
2, 11705, Note_on_c, 0, 75, 64
2, 11712, Note_on_c, 0, 71, 0
2, 11757, Note_on_c, 0, 75, 0
2, 11765, Note_on_c, 0, 76, 64
2, 11825, Note_on_c, 0, 79, 64
2, 11834, Note_on_c, 0, 76, 0
2, 11877, Note_on_c, 0, 79, 0
2, 11885, Note_on_c, 0, 71, 64
2, 11945, Note_on_c, 0, 76, 64
2, 11948, Note_on_c, 0, 71, 0
2, 11984, Note_on_c, 0, 76, 0
2, 12005, Note_on_c, 0, 76, 64
2, 12125, Note_on_c, 0, 75, 64
2, 12138, Note_on_c, 0, 76, 0
2, 12177, Note_on_c, 0, 75, 0
2, 12185, Note_on_c, 0, 78, 64
2, 12232, Note_on_c, 0, 78, 0
2, 12245, Note_on_c, 0, 71, 64
2, 12365, Note_on_c, 0, 69, 64
2, 12372, Note_on_c, 0, 71, 0
2, 12417, Note_on_c, 0, 69, 0
2, 12425, Note_on_c, 0, 78, 64
2, 12477, Note_on_c, 0, 78, 0
2, 12485, Note_on_c, 0, 78, 64
2, 12515, Note_on_c, 0, 76, 64
2, 12524, Note_on_c, 0, 78, 0
2, 12545, Note_on_c, 0, 75, 64
2, 12556, Note_on_c, 0, 76, 0
2, 12605, Note_on_c, 0, 76, 64
2, 12616, Note_on_c, 0, 75, 0
2, 12648, Note_on_c, 0, 76, 0
2, 12665, Note_on_c, 0, 69, 64
2, 12706, Note_on_c, 0, 69, 0
2, 12725, Note_on_c, 0, 69, 64
2, 12845, Note_on_c, 0, 67, 64
2, 12854, Note_on_c, 0, 69, 0
2, 12897, Note_on_c, 0, 67, 0
2, 12905, Note_on_c, 0, 76, 64
2, 12950, Note_on_c, 0, 76, 0
2, 12965, Note_on_c, 0, 76, 64
2, 13025, Note_on_c, 0, 75, 64
2, 13028, Note_on_c, 0, 76, 0
2, 13066, Note_on_c, 0, 75, 0
2, 13085, Note_on_c, 0, 81, 64
2, 13240, Note_on_c, 0, 79, 64
2, 13248, Note_on_c, 0, 81, 0
2, 13265, Note_on_c, 0, 78, 64
2, 13283, Note_on_c, 0, 79, 0
2, 13295, Note_on_c, 0, 76, 64
2, 13306, Note_on_c, 0, 78, 0
2, 13325, Note_on_c, 0, 75, 64
2, 13342, Note_on_c, 0, 76, 0
2, 13355, Note_on_c, 0, 73, 64
2, 13364, Note_on_c, 0, 75, 0
2, 13385, Note_on_c, 0, 71, 64
2, 13390, Note_on_c, 0, 73, 0
2, 13415, Note_on_c, 0, 69, 64
2, 13418, Note_on_c, 0, 71, 0
2, 13441, Note_on_c, 0, 69, 0
2, 13445, Note_on_c, 0, 67, 64
2, 13505, Note_on_c, 0, 71, 64
2, 13514, Note_on_c, 0, 67, 0
2, 13557, Note_on_c, 0, 71, 0
2, 13565, Note_on_c, 0, 64, 64
2, 13625, Note_on_c, 0, 66, 64
2, 13628, Note_on_c, 0, 64, 0
2, 13677, Note_on_c, 0, 66, 0
2, 13685, Note_on_c, 0, 67, 64
2, 13745, Note_on_c, 0, 71, 64
2, 13754, Note_on_c, 0, 67, 0
2, 13797, Note_on_c, 0, 71, 0
2, 13805, Note_on_c, 0, 64, 64
2, 13865, Note_on_c, 0, 67, 64
2, 13870, Note_on_c, 0, 64, 0
2, 13917, Note_on_c, 0, 67, 0
2, 13925, Note_on_c, 0, 66, 64
2, 13985, Note_on_c, 0, 71, 64
2, 13992, Note_on_c, 0, 66, 0
2, 14037, Note_on_c, 0, 71, 0
2, 14045, Note_on_c, 0, 72, 64
2, 14075, Note_on_c, 0, 71, 64
2, 14084, Note_on_c, 0, 72, 0
2, 14105, Note_on_c, 0, 70, 64
2, 14116, Note_on_c, 0, 71, 0
2, 14135, Note_on_c, 0, 71, 64
2, 14142, Note_on_c, 0, 70, 0
2, 14161, Note_on_c, 0, 71, 0
2, 14165, Note_on_c, 0, 75, 64
2, 14225, Note_on_c, 0, 71, 64
2, 14230, Note_on_c, 0, 75, 0
2, 14277, Note_on_c, 0, 71, 0
2, 14285, Note_on_c, 0, 78, 64
2, 14337, Note_on_c, 0, 78, 0
2, 14345, Note_on_c, 0, 69, 64
2, 14397, Note_on_c, 0, 69, 0
2, 14405, Note_on_c, 0, 67, 64
2, 14465, Note_on_c, 0, 71, 64
2, 14470, Note_on_c, 0, 67, 0
2, 14517, Note_on_c, 0, 71, 0
2, 14525, Note_on_c, 0, 64, 64
2, 14584, Note_on_c, 0, 64, 0
2, 14585, Note_on_c, 0, 66, 64
2, 14637, Note_on_c, 0, 66, 0
2, 14645, Note_on_c, 0, 67, 64
2, 14705, Note_on_c, 0, 71, 64
2, 14710, Note_on_c, 0, 67, 0
2, 14757, Note_on_c, 0, 71, 0
2, 14765, Note_on_c, 0, 64, 64
2, 14817, Note_on_c, 0, 64, 0
2, 14825, Note_on_c, 0, 67, 64
2, 14877, Note_on_c, 0, 67, 0
2, 14885, Note_on_c, 0, 66, 64
2, 14937, Note_on_c, 0, 66, 0
2, 14945, Note_on_c, 0, 71, 64
2, 14997, Note_on_c, 0, 71, 0
2, 15005, Note_on_c, 0, 66, 64
2, 15057, Note_on_c, 0, 66, 0
2, 15065, Note_on_c, 0, 63, 64
2, 15117, Note_on_c, 0, 63, 0
2, 15125, Note_on_c, 0, 59, 64
2, 15208, Note_on_c, 0, 59, 0
2, 15245, Note_on_c, 0, 75, 64
2, 15266, Note_on_c, 0, 76, 64
2, 15276, Note_on_c, 0, 75, 0
2, 15286, Note_on_c, 0, 75, 64
2, 15297, Note_on_c, 0, 76, 0
2, 15308, Note_on_c, 0, 73, 64
2, 15317, Note_on_c, 0, 75, 0
2, 15332, Note_on_c, 0, 75, 64
2, 15339, Note_on_c, 0, 73, 0
2, 15363, Note_on_c, 0, 75, 0
2, 15365, Note_on_c, 0, 76, 64
2, 15470, Note_on_c, 0, 76, 0
2, 15485, Note_on_c, 0, 71, 64
2, 15590, Note_on_c, 0, 71, 0
2, 15605, Note_on_c, 0, 79, 64
2, 15631, Note_on_c, 0, 79, 0
2, 15635, Note_on_c, 0, 78, 64
2, 15661, Note_on_c, 0, 78, 0
2, 15665, Note_on_c, 0, 76, 64
2, 15691, Note_on_c, 0, 76, 0
2, 15695, Note_on_c, 0, 78, 64
2, 15721, Note_on_c, 0, 78, 0
2, 15725, Note_on_c, 0, 79, 64
2, 15777, Note_on_c, 0, 79, 0
2, 15785, Note_on_c, 0, 71, 64
2, 15837, Note_on_c, 0, 71, 0
2, 15845, Note_on_c, 0, 71, 64
2, 15856, Note_on_c, 0, 69, 64
2, 15866, Note_on_c, 0, 71, 0
2, 15872, Note_on_c, 0, 71, 64
2, 15875, Note_on_c, 0, 69, 0
2, 15884, Note_on_c, 0, 69, 64
2, 15887, Note_on_c, 0, 71, 0
2, 15905, Note_on_c, 0, 69, 0
2, 15905, Note_on_c, 0, 68, 64
2, 15957, Note_on_c, 0, 68, 0
2, 15965, Note_on_c, 0, 69, 64
2, 16017, Note_on_c, 0, 69, 0
2, 16025, Note_on_c, 0, 73, 64
2, 16077, Note_on_c, 0, 73, 0
2, 16085, Note_on_c, 0, 73, 64
2, 16137, Note_on_c, 0, 73, 0
2, 16145, Note_on_c, 0, 76, 64
2, 16197, Note_on_c, 0, 76, 0
2, 16205, Note_on_c, 0, 81, 64
2, 16257, Note_on_c, 0, 81, 0
2, 16265, Note_on_c, 0, 73, 64
2, 16317, Note_on_c, 0, 73, 0
2, 16325, Note_on_c, 0, 74, 64
2, 16430, Note_on_c, 0, 74, 0
2, 16445, Note_on_c, 0, 69, 64
2, 16550, Note_on_c, 0, 69, 0
2, 16565, Note_on_c, 0, 78, 64
2, 16591, Note_on_c, 0, 78, 0
2, 16595, Note_on_c, 0, 76, 64
2, 16621, Note_on_c, 0, 76, 0
2, 16625, Note_on_c, 0, 74, 64
2, 16651, Note_on_c, 0, 74, 0
2, 16655, Note_on_c, 0, 76, 64
2, 16681, Note_on_c, 0, 76, 0
2, 16685, Note_on_c, 0, 78, 64
2, 16737, Note_on_c, 0, 78, 0
2, 16745, Note_on_c, 0, 69, 64
2, 16797, Note_on_c, 0, 69, 0
2, 16805, Note_on_c, 0, 69, 64
2, 16814, Note_on_c, 0, 67, 64
2, 16824, Note_on_c, 0, 69, 0
2, 16828, Note_on_c, 0, 69, 64
2, 16833, Note_on_c, 0, 67, 0
2, 16842, Note_on_c, 0, 67, 64
2, 16847, Note_on_c, 0, 69, 0
2, 16861, Note_on_c, 0, 67, 0
2, 16865, Note_on_c, 0, 66, 64
2, 16917, Note_on_c, 0, 66, 0
2, 16925, Note_on_c, 0, 67, 64
2, 16977, Note_on_c, 0, 67, 0
2, 16985, Note_on_c, 0, 71, 64
2, 17037, Note_on_c, 0, 71, 0
2, 17045, Note_on_c, 0, 71, 64
2, 17097, Note_on_c, 0, 71, 0
2, 17105, Note_on_c, 0, 74, 64
2, 17157, Note_on_c, 0, 74, 0
2, 17165, Note_on_c, 0, 79, 64
2, 17217, Note_on_c, 0, 79, 0
2, 17225, Note_on_c, 0, 71, 64
2, 17277, Note_on_c, 0, 71, 0
2, 17285, Note_on_c, 0, 73, 64
2, 17337, Note_on_c, 0, 73, 0
2, 17345, Note_on_c, 0, 79, 64
2, 17450, Note_on_c, 0, 79, 0
2, 17465, Note_on_c, 0, 78, 64
2, 17517, Note_on_c, 0, 78, 0
2, 17525, Note_on_c, 0, 70, 64
2, 17577, Note_on_c, 0, 70, 0
2, 17585, Note_on_c, 0, 76, 64
2, 17690, Note_on_c, 0, 76, 0
2, 17705, Note_on_c, 0, 74, 64
2, 17757, Note_on_c, 0, 74, 0
2, 17765, Note_on_c, 0, 65, 64
2, 17870, Note_on_c, 0, 65, 0
2, 17885, Note_on_c, 0, 66, 64
2, 17990, Note_on_c, 0, 66, 0
2, 18005, Note_on_c, 0, 68, 64
2, 18110, Note_on_c, 0, 68, 0
2, 18125, Note_on_c, 0, 69, 64
2, 18230, Note_on_c, 0, 69, 0
2, 18245, Note_on_c, 0, 71, 64
2, 18350, Note_on_c, 0, 71, 0
2, 18365, Note_on_c, 0, 73, 64
2, 18470, Note_on_c, 0, 73, 0
2, 18485, Note_on_c, 0, 74, 64
2, 18537, Note_on_c, 0, 74, 0
2, 18545, Note_on_c, 0, 65, 64
2, 18650, Note_on_c, 0, 65, 0
2, 18665, Note_on_c, 0, 66, 64
2, 18717, Note_on_c, 0, 66, 0
2, 18725, Note_on_c, 0, 68, 64
2, 18777, Note_on_c, 0, 68, 0
2, 18785, Note_on_c, 0, 59, 64
2, 18890, Note_on_c, 0, 59, 0
2, 18905, Note_on_c, 0, 62, 64
2, 19017, Note_on_c, 0, 62, 0
2, 19025, Note_on_c, 0, 61, 64
2, 19130, Note_on_c, 0, 61, 0
2, 19145, Note_on_c, 0, 59, 64
2, 19190, Note_on_c, 0, 59, 0
2, 19205, Note_on_c, 0, 57, 64
2, 19264, Note_on_c, 0, 57, 0
2, 19265, Note_on_c, 0, 61, 64
2, 19317, Note_on_c, 0, 61, 0
2, 19325, Note_on_c, 0, 54, 64
2, 19385, Note_on_c, 0, 56, 64
2, 19386, Note_on_c, 0, 54, 0
2, 19437, Note_on_c, 0, 56, 0
2, 19445, Note_on_c, 0, 57, 64
2, 19505, Note_on_c, 0, 61, 64
2, 19506, Note_on_c, 0, 57, 0
2, 19557, Note_on_c, 0, 61, 0
2, 19565, Note_on_c, 0, 54, 64
2, 19625, Note_on_c, 0, 57, 64
2, 19630, Note_on_c, 0, 54, 0
2, 19677, Note_on_c, 0, 57, 0
2, 19685, Note_on_c, 0, 56, 64
2, 19737, Note_on_c, 0, 56, 0
2, 19745, Note_on_c, 0, 61, 64
2, 19805, Note_on_c, 0, 62, 64
2, 19808, Note_on_c, 0, 61, 0
2, 19835, Note_on_c, 0, 61, 64
2, 19842, Note_on_c, 0, 62, 0
2, 19865, Note_on_c, 0, 60, 64
2, 19870, Note_on_c, 0, 61, 0
2, 19895, Note_on_c, 0, 61, 64
2, 19900, Note_on_c, 0, 60, 0
2, 19921, Note_on_c, 0, 61, 0
2, 19925, Note_on_c, 0, 65, 64
2, 19977, Note_on_c, 0, 65, 0
2, 19985, Note_on_c, 0, 61, 64
2, 20037, Note_on_c, 0, 61, 0
2, 20045, Note_on_c, 0, 68, 64
2, 20097, Note_on_c, 0, 68, 0
2, 20105, Note_on_c, 0, 59, 64
2, 20157, Note_on_c, 0, 59, 0
2, 20165, Note_on_c, 0, 57, 64
2, 20254, Note_on_c, 0, 57, 0
2, 20285, Note_on_c, 0, 61, 64
2, 20374, Note_on_c, 0, 61, 0
2, 20405, Note_on_c, 0, 66, 64
2, 20486, Note_on_c, 0, 66, 0
2, 20525, Note_on_c, 0, 69, 64
2, 20604, Note_on_c, 0, 69, 0
2, 20645, Note_on_c, 0, 65, 64
2, 20728, Note_on_c, 0, 65, 0
2, 20765, Note_on_c, 0, 68, 64
2, 20844, Note_on_c, 0, 68, 0
2, 20885, Note_on_c, 0, 71, 64
2, 20968, Note_on_c, 0, 71, 0
2, 21005, Note_on_c, 0, 74, 64
2, 21082, Note_on_c, 0, 74, 0
2, 21125, Note_on_c, 0, 73, 64
2, 21177, Note_on_c, 0, 73, 0
2, 21185, Note_on_c, 0, 66, 64
2, 21215, Note_on_c, 0, 68, 64
2, 21216, Note_on_c, 0, 66, 0
2, 21245, Note_on_c, 0, 69, 64
2, 21248, Note_on_c, 0, 68, 0
2, 21275, Note_on_c, 0, 68, 64
2, 21276, Note_on_c, 0, 69, 0
2, 21305, Note_on_c, 0, 66, 64
2, 21308, Note_on_c, 0, 68, 0
2, 21417, Note_on_c, 0, 66, 0
2, 21425, Note_on_c, 0, 73, 64
2, 21518, Note_on_c, 0, 73, 0
2, 21545, Note_on_c, 0, 64, 64
2, 21665, Note_on_c, 0, 66, 64
2, 21666, Note_on_c, 0, 64, 0
2, 21695, Note_on_c, 0, 64, 64
2, 21700, Note_on_c, 0, 66, 0
2, 21725, Note_on_c, 0, 62, 64
2, 21730, Note_on_c, 0, 64, 0
2, 21755, Note_on_c, 0, 64, 64
2, 21762, Note_on_c, 0, 62, 0
2, 21785, Note_on_c, 0, 66, 64
2, 21788, Note_on_c, 0, 64, 0
2, 21886, Note_on_c, 0, 66, 0
2, 21905, Note_on_c, 0, 57, 64
2, 22010, Note_on_c, 0, 57, 0
2, 22025, Note_on_c, 0, 66, 64
2, 22062, Note_on_c, 0, 66, 0
2, 22085, Note_on_c, 0, 55, 64
2, 22124, Note_on_c, 0, 55, 0
2, 22146, Note_on_c, 0, 64, 64
2, 22175, Note_on_c, 0, 66, 64
2, 22177, Note_on_c, 0, 64, 0
2, 22205, Note_on_c, 0, 67, 64
2, 22210, Note_on_c, 0, 66, 0
2, 22236, Note_on_c, 0, 66, 64
2, 22242, Note_on_c, 0, 67, 0
2, 22265, Note_on_c, 0, 64, 64
2, 22271, Note_on_c, 0, 66, 0
2, 22360, Note_on_c, 0, 64, 0
2, 22385, Note_on_c, 0, 71, 64
2, 22472, Note_on_c, 0, 71, 0
2, 22505, Note_on_c, 0, 62, 64
2, 22602, Note_on_c, 0, 62, 0
2, 22632, Note_on_c, 0, 64, 64
2, 22655, Note_on_c, 0, 62, 64
2, 22663, Note_on_c, 0, 64, 0
2, 22685, Note_on_c, 0, 61, 64
2, 22688, Note_on_c, 0, 62, 0
2, 22715, Note_on_c, 0, 62, 64
2, 22720, Note_on_c, 0, 61, 0
2, 22745, Note_on_c, 0, 64, 64
2, 22750, Note_on_c, 0, 62, 0
2, 22840, Note_on_c, 0, 64, 0
2, 22865, Note_on_c, 0, 55, 64
2, 22970, Note_on_c, 0, 55, 0
2, 22985, Note_on_c, 0, 64, 64
2, 23037, Note_on_c, 0, 64, 0
2, 23045, Note_on_c, 0, 54, 64
2, 23086, Note_on_c, 0, 54, 0
2, 23105, Note_on_c, 0, 61, 64
2, 23210, Note_on_c, 0, 61, 0
2, 23225, Note_on_c, 0, 64, 64
2, 23346, Note_on_c, 0, 62, 64
2, 23354, Note_on_c, 0, 64, 0
2, 23375, Note_on_c, 0, 61, 64
2, 23377, Note_on_c, 0, 62, 0
2, 23405, Note_on_c, 0, 62, 64
2, 23410, Note_on_c, 0, 61, 0
2, 23435, Note_on_c, 0, 61, 64
2, 23440, Note_on_c, 0, 62, 0
2, 23465, Note_on_c, 0, 59, 64
2, 23468, Note_on_c, 0, 61, 0
2, 23495, Note_on_c, 0, 58, 64
2, 23500, Note_on_c, 0, 59, 0
2, 23521, Note_on_c, 0, 58, 0
2, 23525, Note_on_c, 0, 59, 64
2, 23566, Note_on_c, 0, 59, 0
2, 23585, Note_on_c, 0, 66, 64
2, 23678, Note_on_c, 0, 66, 0
2, 23705, Note_on_c, 0, 69, 64
2, 23802, Note_on_c, 0, 69, 0
2, 23830, Note_on_c, 0, 67, 64
2, 23855, Note_on_c, 0, 66, 64
2, 23861, Note_on_c, 0, 67, 0
2, 23885, Note_on_c, 0, 67, 64
2, 23890, Note_on_c, 0, 66, 0
2, 23915, Note_on_c, 0, 66, 64
2, 23920, Note_on_c, 0, 67, 0
2, 23945, Note_on_c, 0, 64, 64
2, 23948, Note_on_c, 0, 66, 0
2, 23975, Note_on_c, 0, 62, 64
2, 23980, Note_on_c, 0, 64, 0
2, 24001, Note_on_c, 0, 62, 0
2, 24005, Note_on_c, 0, 64, 64
2, 24042, Note_on_c, 0, 64, 0
2, 24065, Note_on_c, 0, 71, 64
2, 24154, Note_on_c, 0, 71, 0
2, 24185, Note_on_c, 0, 74, 64
2, 24308, Note_on_c, 0, 73, 64
2, 24312, Note_on_c, 0, 74, 0
2, 24334, Note_on_c, 0, 73, 0
2, 24335, Note_on_c, 0, 71, 64
2, 24365, Note_on_c, 0, 73, 64
2, 24370, Note_on_c, 0, 71, 0
2, 24395, Note_on_c, 0, 71, 64
2, 24402, Note_on_c, 0, 73, 0
2, 24425, Note_on_c, 0, 70, 64
2, 24430, Note_on_c, 0, 71, 0
2, 24455, Note_on_c, 0, 68, 64
2, 24458, Note_on_c, 0, 70, 0
2, 24481, Note_on_c, 0, 68, 0
2, 24485, Note_on_c, 0, 70, 64
2, 24526, Note_on_c, 0, 70, 0
2, 24545, Note_on_c, 0, 76, 64
2, 24650, Note_on_c, 0, 76, 0
2, 24665, Note_on_c, 0, 79, 64
2, 24792, Note_on_c, 0, 78, 64
2, 24802, Note_on_c, 0, 79, 0
2, 24816, Note_on_c, 0, 76, 64
2, 24825, Note_on_c, 0, 78, 0
2, 24845, Note_on_c, 0, 78, 64
2, 24849, Note_on_c, 0, 76, 0
2, 24875, Note_on_c, 0, 76, 64
2, 24880, Note_on_c, 0, 78, 0
2, 24905, Note_on_c, 0, 74, 64
2, 24910, Note_on_c, 0, 76, 0
2, 24935, Note_on_c, 0, 73, 64
2, 24940, Note_on_c, 0, 74, 0
2, 24961, Note_on_c, 0, 73, 0
2, 24965, Note_on_c, 0, 74, 64
2, 25004, Note_on_c, 0, 74, 0
2, 25025, Note_on_c, 0, 70, 64
2, 25118, Note_on_c, 0, 70, 0
2, 25145, Note_on_c, 0, 71, 64
2, 25205, Note_on_c, 0, 73, 64
2, 25206, Note_on_c, 0, 71, 0
2, 25294, Note_on_c, 0, 75, 64
2, 25298, Note_on_c, 0, 73, 0
2, 25325, Note_on_c, 0, 76, 64
2, 25327, Note_on_c, 0, 75, 0
2, 25355, Note_on_c, 0, 75, 64
2, 25364, Note_on_c, 0, 76, 0
2, 25385, Note_on_c, 0, 73, 64
2, 25392, Note_on_c, 0, 75, 0
2, 25415, Note_on_c, 0, 75, 64
2, 25420, Note_on_c, 0, 73, 0
2, 25445, Note_on_c, 0, 76, 64
2, 25450, Note_on_c, 0, 75, 0
2, 25486, Note_on_c, 0, 76, 0
2, 25505, Note_on_c, 0, 70, 64
2, 25610, Note_on_c, 0, 70, 0
2, 25625, Note_on_c, 0, 71, 64
2, 25677, Note_on_c, 0, 71, 0
2, 25685, Note_on_c, 0, 74, 64
2, 25726, Note_on_c, 0, 74, 0
2, 25746, Note_on_c, 0, 70, 64
2, 25851, Note_on_c, 0, 70, 0
2, 25865, Note_on_c, 0, 71, 64
2, 25910, Note_on_c, 0, 71, 0
2, 25925, Note_on_c, 0, 79, 64
2, 25955, Note_on_c, 0, 78, 64
2, 25960, Note_on_c, 0, 79, 0
2, 25985, Note_on_c, 0, 76, 64
2, 25992, Note_on_c, 0, 78, 0
2, 26090, Note_on_c, 0, 76, 0
2, 26105, Note_on_c, 0, 76, 64
2, 26195, Note_on_c, 0, 78, 64
2, 26198, Note_on_c, 0, 76, 0
2, 26225, Note_on_c, 0, 76, 64
2, 26230, Note_on_c, 0, 78, 0
2, 26255, Note_on_c, 0, 75, 64
2, 26260, Note_on_c, 0, 76, 0
2, 26285, Note_on_c, 0, 76, 64
2, 26294, Note_on_c, 0, 75, 0
2, 26337, Note_on_c, 0, 76, 0
2, 26345, Note_on_c, 0, 76, 64
2, 26431, Note_on_c, 0, 76, 0
2, 26435, Note_on_c, 0, 69, 64
2, 26465, Note_on_c, 0, 67, 64
2, 26476, Note_on_c, 0, 69, 0
2, 26495, Note_on_c, 0, 66, 64
2, 26502, Note_on_c, 0, 67, 0
2, 26525, Note_on_c, 0, 67, 64
2, 26530, Note_on_c, 0, 66, 0
2, 26564, Note_on_c, 0, 67, 0
2, 26586, Note_on_c, 0, 76, 64
2, 26698, Note_on_c, 0, 76, 0
2, 26705, Note_on_c, 0, 67, 64
2, 26705, Note_on_c, 0, 64, 64
2, 26810, Note_on_c, 0, 64, 0
2, 26810, Note_on_c, 0, 67, 0
2, 26825, Note_on_c, 0, 67, 64
2, 26825, Note_on_c, 0, 64, 64
2, 26937, Note_on_c, 0, 67, 0
2, 26945, Note_on_c, 0, 66, 64
2, 26971, Note_on_c, 0, 66, 0
2, 26975, Note_on_c, 0, 74, 64
2, 27001, Note_on_c, 0, 74, 0
2, 27010, Note_on_c, 0, 74, 64
2, 27056, Note_on_c, 0, 73, 64
2, 27065, Note_on_c, 0, 74, 0
2, 27109, Note_on_c, 0, 73, 0
2, 27110, Note_on_c, 0, 64, 0
2, 27190, Note_on_c, 0, 64, 64
2, 27214, Note_on_c, 0, 66, 64
2, 27223, Note_on_c, 0, 64, 0
2, 27245, Note_on_c, 0, 67, 64
2, 27249, Note_on_c, 0, 66, 0
2, 27275, Note_on_c, 0, 66, 64
2, 27282, Note_on_c, 0, 67, 0
2, 27305, Note_on_c, 0, 64, 64
2, 27310, Note_on_c, 0, 66, 0
2, 27344, Note_on_c, 0, 64, 0
2, 27365, Note_on_c, 0, 62, 64
2, 27425, Note_on_c, 0, 66, 64
2, 27434, Note_on_c, 0, 62, 0
2, 27485, Note_on_c, 0, 70, 64
2, 27490, Note_on_c, 0, 66, 0
2, 27545, Note_on_c, 0, 71, 64
2, 27556, Note_on_c, 0, 70, 0
2, 27598, Note_on_c, 0, 71, 0
2, 27605, Note_on_c, 0, 74, 64
2, 27665, Note_on_c, 0, 73, 64
2, 27676, Note_on_c, 0, 74, 0
2, 27725, Note_on_c, 0, 71, 64
2, 27732, Note_on_c, 0, 73, 0
2, 27785, Note_on_c, 0, 70, 64
2, 27792, Note_on_c, 0, 71, 0
2, 27830, Note_on_c, 0, 70, 0
2, 27845, Note_on_c, 0, 71, 64
2, 27938, Note_on_c, 0, 71, 0
2, 27965, Note_on_c, 0, 66, 64
2, 28052, Note_on_c, 0, 66, 0
2, 28085, Note_on_c, 0, 67, 64
2, 28115, Note_on_c, 0, 66, 64
2, 28124, Note_on_c, 0, 67, 0
2, 28145, Note_on_c, 0, 65, 64
2, 28152, Note_on_c, 0, 66, 0
2, 28175, Note_on_c, 0, 66, 64
2, 28182, Note_on_c, 0, 65, 0
2, 28201, Note_on_c, 0, 66, 0
2, 28205, Note_on_c, 0, 74, 64
2, 28258, Note_on_c, 0, 74, 0
2, 28445, Note_on_c, 0, 66, 64
2, 28538, Note_on_c, 0, 66, 0
2, 28565, Note_on_c, 0, 67, 64
2, 28595, Note_on_c, 0, 66, 64
2, 28612, Note_on_c, 0, 67, 0
2, 28625, Note_on_c, 0, 65, 64
2, 28632, Note_on_c, 0, 66, 0
2, 28655, Note_on_c, 0, 66, 64
2, 28662, Note_on_c, 0, 65, 0
2, 28681, Note_on_c, 0, 66, 0
2, 28686, Note_on_c, 0, 76, 64
2, 28743, Note_on_c, 0, 76, 0
2, 28925, Note_on_c, 0, 66, 64
2, 29024, Note_on_c, 0, 66, 0
2, 29045, Note_on_c, 0, 67, 64
2, 29075, Note_on_c, 0, 66, 64
2, 29086, Note_on_c, 0, 67, 0
2, 29105, Note_on_c, 0, 65, 64
2, 29110, Note_on_c, 0, 66, 0
2, 29135, Note_on_c, 0, 66, 64
2, 29140, Note_on_c, 0, 65, 0
2, 29161, Note_on_c, 0, 66, 0
2, 29166, Note_on_c, 0, 78, 64
2, 29201, Note_on_c, 0, 78, 0
2, 29225, Note_on_c, 0, 69, 64
2, 29256, Note_on_c, 0, 69, 0
2, 29285, Note_on_c, 0, 69, 64
2, 29285, Note_on_c, 0, 59, 64
2, 29285, Note_on_c, 0, 64, 64
2, 29390, Note_on_c, 0, 69, 0
2, 29405, Note_on_c, 0, 68, 64
2, 29510, Note_on_c, 0, 68, 0
2, 29510, Note_on_c, 0, 64, 0
2, 29510, Note_on_c, 0, 59, 0
2, 29585, Note_on_c, 0, 68, 64
2, 29615, Note_on_c, 0, 70, 64
2, 29626, Note_on_c, 0, 68, 0
2, 29645, Note_on_c, 0, 71, 64
2, 29658, Note_on_c, 0, 70, 0
2, 29675, Note_on_c, 0, 73, 64
2, 29680, Note_on_c, 0, 71, 0
2, 29705, Note_on_c, 0, 74, 64
2, 29714, Note_on_c, 0, 73, 0
2, 29735, Note_on_c, 0, 76, 64
2, 29746, Note_on_c, 0, 74, 0
2, 29761, Note_on_c, 0, 76, 0
2, 29765, Note_on_c, 0, 71, 64
2, 29765, Note_on_c, 0, 64, 64
2, 29765, Note_on_c, 0, 67, 64
2, 29870, Note_on_c, 0, 71, 0
2, 29885, Note_on_c, 0, 70, 64
2, 29990, Note_on_c, 0, 70, 0
2, 29990, Note_on_c, 0, 67, 0
2, 29990, Note_on_c, 0, 64, 0
2, 30065, Note_on_c, 0, 70, 64
2, 30091, Note_on_c, 0, 70, 0
2, 30095, Note_on_c, 0, 71, 64
2, 30121, Note_on_c, 0, 71, 0
2, 30125, Note_on_c, 0, 73, 64
2, 30151, Note_on_c, 0, 73, 0
2, 30155, Note_on_c, 0, 71, 64
2, 30181, Note_on_c, 0, 71, 0
2, 30185, Note_on_c, 0, 70, 64
2, 30237, Note_on_c, 0, 70, 0
2, 30245, Note_on_c, 0, 77, 64
2, 30245, Note_on_c, 0, 71, 64
2, 30245, Note_on_c, 0, 74, 64
2, 30304, Note_on_c, 0, 74, 0
2, 30304, Note_on_c, 0, 71, 0
2, 30304, Note_on_c, 0, 77, 0
2, 30365, Note_on_c, 0, 78, 64
2, 30365, Note_on_c, 0, 66, 64
2, 30365, Note_on_c, 0, 73, 64
2, 30424, Note_on_c, 0, 73, 0
2, 30424, Note_on_c, 0, 66, 0
2, 30424, Note_on_c, 0, 78, 0
2, 30785, Note_on_c, 0, 71, 64
2, 30815, Note_on_c, 0, 69, 64
2, 30826, Note_on_c, 0, 71, 0
2, 30845, Note_on_c, 0, 67, 64
2, 30856, Note_on_c, 0, 69, 0
2, 30875, Note_on_c, 0, 66, 64
2, 30886, Note_on_c, 0, 67, 0
2, 30905, Note_on_c, 0, 64, 64
2, 30910, Note_on_c, 0, 66, 0
2, 30950, Note_on_c, 0, 64, 0
2, 30965, Note_on_c, 0, 62, 64
2, 31025, Note_on_c, 0, 71, 64
2, 31070, Note_on_c, 0, 62, 0
2, 31085, Note_on_c, 0, 61, 64
2, 31085, Note_on_c, 0, 64, 64
2, 31130, Note_on_c, 0, 71, 0
2, 31145, Note_on_c, 0, 70, 64
2, 31190, Note_on_c, 0, 64, 0
2, 31190, Note_on_c, 0, 61, 0
2, 31197, Note_on_c, 0, 70, 0
2, 31212, Note_on_c, 0, 59, 64
2, 31218, Note_on_c, 0, 62, 64
2, 31224, Note_on_c, 0, 66, 64
2, 31238, Note_on_c, 0, 71, 64
2, 31677, Note_on_c, 0, 71, 0
2, 31677, Note_on_c, 0, 59, 0
2, 31677, Note_on_c, 0, 62, 0
2, 31677, Note_on_c, 0, 66, 0
2, 31677, End_track
3, 0, Start_track
3, 0, MIDI_port, 0
3, 0, Title_t, "Prelude in B minor"
3, 0, Program_c, 1, 6
3, 5, Note_on_c, 1, 47, 64
3, 94, Note_on_c, 1, 47, 0
3, 125, Note_on_c, 1, 50, 64
3, 214, Note_on_c, 1, 50, 0
3, 245, Note_on_c, 1, 54, 64
3, 395, Note_on_c, 1, 55, 64
3, 402, Note_on_c, 1, 54, 0
3, 425, Note_on_c, 1, 54, 64
3, 438, Note_on_c, 1, 55, 0
3, 455, Note_on_c, 1, 53, 64
3, 466, Note_on_c, 1, 54, 0
3, 485, Note_on_c, 1, 54, 64
3, 494, Note_on_c, 1, 53, 0
3, 590, Note_on_c, 1, 54, 0
3, 605, Note_on_c, 1, 46, 64
3, 694, Note_on_c, 1, 46, 0
3, 725, Note_on_c, 1, 49, 64
3, 814, Note_on_c, 1, 49, 0
3, 845, Note_on_c, 1, 54, 64
3, 934, Note_on_c, 1, 54, 0
3, 965, Note_on_c, 1, 47, 64
3, 1054, Note_on_c, 1, 47, 0
3, 1085, Note_on_c, 1, 50, 64
3, 1174, Note_on_c, 1, 50, 0
3, 1205, Note_on_c, 1, 54, 64
3, 1355, Note_on_c, 1, 55, 64
3, 1369, Note_on_c, 1, 54, 0
3, 1385, Note_on_c, 1, 54, 64
3, 1390, Note_on_c, 1, 55, 0
3, 1415, Note_on_c, 1, 53, 64
3, 1422, Note_on_c, 1, 54, 0
3, 1445, Note_on_c, 1, 54, 64
3, 1450, Note_on_c, 1, 53, 0
3, 1519, Note_on_c, 1, 54, 0
3, 1565, Note_on_c, 1, 42, 64
3, 1639, Note_on_c, 1, 42, 0
3, 1745, Note_on_c, 1, 52, 64
3, 1797, Note_on_c, 1, 52, 0
3, 1805, Note_on_c, 1, 50, 64
3, 1857, Note_on_c, 1, 50, 0
3, 1865, Note_on_c, 1, 49, 64
3, 1917, Note_on_c, 1, 49, 0
3, 1925, Note_on_c, 1, 50, 64
3, 1985, Note_on_c, 1, 54, 64
3, 1988, Note_on_c, 1, 50, 0
3, 2037, Note_on_c, 1, 54, 0
3, 2045, Note_on_c, 1, 47, 64
3, 2105, Note_on_c, 1, 49, 64
3, 2106, Note_on_c, 1, 47, 0
3, 2157, Note_on_c, 1, 49, 0
3, 2165, Note_on_c, 1, 50, 64
3, 2225, Note_on_c, 1, 54, 64
3, 2228, Note_on_c, 1, 50, 0
3, 2277, Note_on_c, 1, 54, 0
3, 2285, Note_on_c, 1, 47, 64
3, 2345, Note_on_c, 1, 50, 64
3, 2346, Note_on_c, 1, 47, 0
3, 2397, Note_on_c, 1, 50, 0
3, 2405, Note_on_c, 1, 49, 64
3, 2465, Note_on_c, 1, 54, 64
3, 2468, Note_on_c, 1, 49, 0
3, 2525, Note_on_c, 1, 55, 64
3, 2539, Note_on_c, 1, 54, 0
3, 2555, Note_on_c, 1, 54, 64
3, 2569, Note_on_c, 1, 55, 0
3, 2585, Note_on_c, 1, 53, 64
3, 2599, Note_on_c, 1, 54, 0
3, 2615, Note_on_c, 1, 54, 64
3, 2629, Note_on_c, 1, 53, 0
3, 2645, Note_on_c, 1, 58, 64
3, 2650, Note_on_c, 1, 54, 0
3, 2697, Note_on_c, 1, 58, 0
3, 2705, Note_on_c, 1, 54, 64
3, 2757, Note_on_c, 1, 54, 0
3, 2765, Note_on_c, 1, 61, 64
3, 2817, Note_on_c, 1, 61, 0
3, 2825, Note_on_c, 1, 52, 64
3, 2877, Note_on_c, 1, 52, 0
3, 2885, Note_on_c, 1, 50, 64
3, 2945, Note_on_c, 1, 54, 64
3, 2946, Note_on_c, 1, 50, 0
3, 2997, Note_on_c, 1, 54, 0
3, 3005, Note_on_c, 1, 47, 64
3, 3064, Note_on_c, 1, 47, 0
3, 3065, Note_on_c, 1, 49, 64
3, 3117, Note_on_c, 1, 49, 0
3, 3125, Note_on_c, 1, 50, 64
3, 3177, Note_on_c, 1, 50, 0
3, 3185, Note_on_c, 1, 54, 64
3, 3237, Note_on_c, 1, 54, 0
3, 3245, Note_on_c, 1, 47, 64
3, 3300, Note_on_c, 1, 47, 0
3, 3305, Note_on_c, 1, 50, 64
3, 3357, Note_on_c, 1, 50, 0
3, 3365, Note_on_c, 1, 49, 64
3, 3425, Note_on_c, 1, 54, 64
3, 3426, Note_on_c, 1, 49, 0
3, 3477, Note_on_c, 1, 54, 0
3, 3485, Note_on_c, 1, 49, 64
3, 3537, Note_on_c, 1, 49, 0
3, 3545, Note_on_c, 1, 46, 64
3, 3597, Note_on_c, 1, 46, 0
3, 3605, Note_on_c, 1, 42, 64
3, 3684, Note_on_c, 1, 42, 0
3, 3725, Note_on_c, 1, 58, 64
3, 3802, Note_on_c, 1, 58, 0
3, 3845, Note_on_c, 1, 47, 64
3, 3926, Note_on_c, 1, 47, 0
3, 3965, Note_on_c, 1, 59, 64
3, 4072, Note_on_c, 1, 59, 0
3, 4085, Note_on_c, 1, 61, 64
3, 4200, Note_on_c, 1, 61, 0
3, 4205, Note_on_c, 1, 63, 64
3, 4316, Note_on_c, 1, 63, 0
3, 4325, Note_on_c, 1, 64, 64
3, 4396, Note_on_c, 1, 64, 0
3, 4445, Note_on_c, 1, 52, 64
3, 4556, Note_on_c, 1, 52, 0
3, 4565, Note_on_c, 1, 54, 64
3, 4680, Note_on_c, 1, 54, 0
3, 4685, Note_on_c, 1, 56, 64
3, 4796, Note_on_c, 1, 56, 0
3, 4805, Note_on_c, 1, 45, 64
3, 4878, Note_on_c, 1, 45, 0
3, 4925, Note_on_c, 1, 57, 64
3, 5030, Note_on_c, 1, 57, 0
3, 5045, Note_on_c, 1, 59, 64
3, 5150, Note_on_c, 1, 59, 0
3, 5165, Note_on_c, 1, 61, 64
3, 5270, Note_on_c, 1, 61, 0
3, 5285, Note_on_c, 1, 62, 64
3, 5380, Note_on_c, 1, 62, 0
3, 5405, Note_on_c, 1, 50, 64
3, 5510, Note_on_c, 1, 50, 0
3, 5525, Note_on_c, 1, 52, 64
3, 5630, Note_on_c, 1, 52, 0
3, 5645, Note_on_c, 1, 54, 64
3, 5750, Note_on_c, 1, 54, 0
3, 5765, Note_on_c, 1, 43, 64
3, 5854, Note_on_c, 1, 43, 0
3, 5885, Note_on_c, 1, 47, 64
3, 5976, Note_on_c, 1, 47, 0
3, 6005, Note_on_c, 1, 50, 64
3, 6096, Note_on_c, 1, 50, 0
3, 6125, Note_on_c, 1, 52, 64
3, 6216, Note_on_c, 1, 52, 0
3, 6245, Note_on_c, 1, 45, 64
3, 6328, Note_on_c, 1, 45, 0
3, 6365, Note_on_c, 1, 49, 64
3, 6452, Note_on_c, 1, 49, 0
3, 6485, Note_on_c, 1, 52, 64
3, 6574, Note_on_c, 1, 52, 0
3, 6605, Note_on_c, 1, 54, 64
3, 6694, Note_on_c, 1, 54, 0
3, 6725, Note_on_c, 1, 47, 64
3, 6830, Note_on_c, 1, 47, 0
3, 6850, Note_on_c, 1, 50, 64
3, 6955, Note_on_c, 1, 50, 0
3, 6968, Note_on_c, 1, 54, 64
3, 7073, Note_on_c, 1, 54, 0
3, 7085, Note_on_c, 1, 55, 64
3, 7190, Note_on_c, 1, 55, 0
3, 7205, Note_on_c, 1, 49, 64
3, 7310, Note_on_c, 1, 49, 0
3, 7326, Note_on_c, 1, 52, 64
3, 7431, Note_on_c, 1, 52, 0
3, 7456, Note_on_c, 1, 55, 64
3, 7561, Note_on_c, 1, 55, 0
3, 7565, Note_on_c, 1, 57, 64
3, 7670, Note_on_c, 1, 57, 0
3, 7685, Note_on_c, 1, 50, 64
3, 7780, Note_on_c, 1, 50, 0
3, 7805, Note_on_c, 1, 54, 64
3, 7896, Note_on_c, 1, 54, 0
3, 7925, Note_on_c, 1, 57, 64
3, 8078, Note_on_c, 1, 57, 0
3, 8078, Note_on_c, 1, 59, 64
3, 8112, Note_on_c, 1, 57, 64
3, 8113, Note_on_c, 1, 59, 0
3, 8135, Note_on_c, 1, 56, 64
3, 8141, Note_on_c, 1, 57, 0
3, 8161, Note_on_c, 1, 56, 0
3, 8165, Note_on_c, 1, 57, 64
3, 8252, Note_on_c, 1, 57, 0
3, 8285, Note_on_c, 1, 49, 64
3, 8376, Note_on_c, 1, 49, 0
3, 8405, Note_on_c, 1, 52, 64
3, 8490, Note_on_c, 1, 52, 0
3, 8525, Note_on_c, 1, 57, 64
3, 8630, Note_on_c, 1, 57, 0
3, 8645, Note_on_c, 1, 50, 64
3, 8730, Note_on_c, 1, 50, 0
3, 8765, Note_on_c, 1, 54, 64
3, 8850, Note_on_c, 1, 54, 0
3, 8885, Note_on_c, 1, 57, 64
3, 9031, Note_on_c, 1, 57, 0
3, 9035, Note_on_c, 1, 59, 64
3, 9065, Note_on_c, 1, 57, 64
3, 9072, Note_on_c, 1, 59, 0
3, 9095, Note_on_c, 1, 56, 64
3, 9098, Note_on_c, 1, 57, 0
3, 9121, Note_on_c, 1, 56, 0
3, 9125, Note_on_c, 1, 57, 64
3, 9230, Note_on_c, 1, 57, 0
3, 9245, Note_on_c, 1, 45, 64
3, 9350, Note_on_c, 1, 45, 0
3, 9425, Note_on_c, 1, 55, 64
3, 9477, Note_on_c, 1, 55, 0
3, 9485, Note_on_c, 1, 54, 64
3, 9537, Note_on_c, 1, 54, 0
3, 9545, Note_on_c, 1, 52, 64
3, 9597, Note_on_c, 1, 52, 0
3, 9605, Note_on_c, 1, 54, 64
3, 9665, Note_on_c, 1, 57, 64
3, 9672, Note_on_c, 1, 54, 0
3, 9717, Note_on_c, 1, 57, 0
3, 9725, Note_on_c, 1, 50, 64
3, 9785, Note_on_c, 1, 52, 64
3, 9788, Note_on_c, 1, 50, 0
3, 9837, Note_on_c, 1, 52, 0
3, 9845, Note_on_c, 1, 54, 64
3, 9905, Note_on_c, 1, 57, 64
3, 9914, Note_on_c, 1, 54, 0
3, 9957, Note_on_c, 1, 57, 0
3, 9965, Note_on_c, 1, 50, 64
3, 10025, Note_on_c, 1, 54, 64
3, 10034, Note_on_c, 1, 50, 0
3, 10077, Note_on_c, 1, 54, 0
3, 10085, Note_on_c, 1, 52, 64
3, 10145, Note_on_c, 1, 57, 64
3, 10154, Note_on_c, 1, 52, 0
3, 10197, Note_on_c, 1, 57, 0
3, 10205, Note_on_c, 1, 59, 64
3, 10235, Note_on_c, 1, 57, 64
3, 10242, Note_on_c, 1, 59, 0
3, 10265, Note_on_c, 1, 56, 64
3, 10274, Note_on_c, 1, 57, 0
3, 10295, Note_on_c, 1, 57, 64
3, 10302, Note_on_c, 1, 56, 0
3, 10321, Note_on_c, 1, 57, 0
3, 10325, Note_on_c, 1, 61, 64
3, 10385, Note_on_c, 1, 57, 64
3, 10392, Note_on_c, 1, 61, 0
3, 10437, Note_on_c, 1, 57, 0
3, 10445, Note_on_c, 1, 64, 64
3, 10497, Note_on_c, 1, 64, 0
3, 10505, Note_on_c, 1, 55, 64
3, 10552, Note_on_c, 1, 55, 0
3, 10565, Note_on_c, 1, 54, 64
3, 10625, Note_on_c, 1, 57, 64
3, 10636, Note_on_c, 1, 54, 0
3, 10677, Note_on_c, 1, 57, 0
3, 10685, Note_on_c, 1, 50, 64
3, 10745, Note_on_c, 1, 52, 64
3, 10750, Note_on_c, 1, 50, 0
3, 10797, Note_on_c, 1, 52, 0
3, 10805, Note_on_c, 1, 54, 64
3, 10865, Note_on_c, 1, 57, 64
3, 10878, Note_on_c, 1, 54, 0
3, 10917, Note_on_c, 1, 57, 0
3, 10925, Note_on_c, 1, 50, 64
3, 10985, Note_on_c, 1, 54, 64
3, 10996, Note_on_c, 1, 50, 0
3, 11037, Note_on_c, 1, 54, 0
3, 11045, Note_on_c, 1, 52, 64
3, 11097, Note_on_c, 1, 52, 0
3, 11105, Note_on_c, 1, 57, 64
3, 11157, Note_on_c, 1, 57, 0
3, 11165, Note_on_c, 1, 52, 64
3, 11217, Note_on_c, 1, 52, 0
3, 11225, Note_on_c, 1, 49, 64
3, 11277, Note_on_c, 1, 49, 0
3, 11285, Note_on_c, 1, 45, 64
3, 11337, Note_on_c, 1, 45, 0
3, 11345, Note_on_c, 1, 57, 64
3, 11397, Note_on_c, 1, 57, 0
3, 11405, Note_on_c, 1, 55, 64
3, 11457, Note_on_c, 1, 55, 0
3, 11465, Note_on_c, 1, 54, 64
3, 11517, Note_on_c, 1, 54, 0
3, 11525, Note_on_c, 1, 55, 64
3, 11577, Note_on_c, 1, 55, 0
3, 11585, Note_on_c, 1, 59, 64
3, 11637, Note_on_c, 1, 59, 0
3, 11645, Note_on_c, 1, 52, 64
3, 11697, Note_on_c, 1, 52, 0
3, 11705, Note_on_c, 1, 54, 64
3, 11757, Note_on_c, 1, 54, 0
3, 11765, Note_on_c, 1, 55, 64
3, 11817, Note_on_c, 1, 55, 0
3, 11825, Note_on_c, 1, 59, 64
3, 11877, Note_on_c, 1, 59, 0
3, 11885, Note_on_c, 1, 52, 64
3, 11937, Note_on_c, 1, 52, 0
3, 11945, Note_on_c, 1, 55, 64
3, 11997, Note_on_c, 1, 55, 0
3, 12005, Note_on_c, 1, 54, 64
3, 12057, Note_on_c, 1, 54, 0
3, 12065, Note_on_c, 1, 59, 64
3, 12117, Note_on_c, 1, 59, 0
3, 12125, Note_on_c, 1, 60, 64
3, 12151, Note_on_c, 1, 60, 0
3, 12155, Note_on_c, 1, 59, 64
3, 12181, Note_on_c, 1, 59, 0
3, 12185, Note_on_c, 1, 58, 64
3, 12211, Note_on_c, 1, 58, 0
3, 12215, Note_on_c, 1, 59, 64
3, 12241, Note_on_c, 1, 59, 0
3, 12245, Note_on_c, 1, 63, 64
3, 12297, Note_on_c, 1, 63, 0
3, 12305, Note_on_c, 1, 59, 64
3, 12357, Note_on_c, 1, 59, 0
3, 12365, Note_on_c, 1, 66, 64
3, 12417, Note_on_c, 1, 66, 0
3, 12425, Note_on_c, 1, 57, 64
3, 12477, Note_on_c, 1, 57, 0
3, 12485, Note_on_c, 1, 55, 64
3, 12537, Note_on_c, 1, 55, 0
3, 12545, Note_on_c, 1, 59, 64
3, 12597, Note_on_c, 1, 59, 0
3, 12605, Note_on_c, 1, 52, 64
3, 12657, Note_on_c, 1, 52, 0
3, 12665, Note_on_c, 1, 54, 64
3, 12717, Note_on_c, 1, 54, 0
3, 12725, Note_on_c, 1, 55, 64
3, 12777, Note_on_c, 1, 55, 0
3, 12785, Note_on_c, 1, 59, 64
3, 12837, Note_on_c, 1, 59, 0
3, 12845, Note_on_c, 1, 52, 64
3, 12897, Note_on_c, 1, 52, 0
3, 12905, Note_on_c, 1, 55, 64
3, 12957, Note_on_c, 1, 55, 0
3, 12965, Note_on_c, 1, 54, 64
3, 13017, Note_on_c, 1, 54, 0
3, 13025, Note_on_c, 1, 59, 64
3, 13077, Note_on_c, 1, 59, 0
3, 13085, Note_on_c, 1, 54, 64
3, 13137, Note_on_c, 1, 54, 0
3, 13145, Note_on_c, 1, 51, 64
3, 13197, Note_on_c, 1, 51, 0
3, 13205, Note_on_c, 1, 47, 64
3, 13310, Note_on_c, 1, 47, 0
3, 13565, Note_on_c, 1, 55, 64
3, 13648, Note_on_c, 1, 55, 0
3, 13685, Note_on_c, 1, 52, 64
3, 13772, Note_on_c, 1, 52, 0
3, 13805, Note_on_c, 1, 47, 64
3, 13894, Note_on_c, 1, 47, 0
3, 14045, Note_on_c, 1, 57, 64
3, 14128, Note_on_c, 1, 57, 0
3, 14165, Note_on_c, 1, 54, 64
3, 14250, Note_on_c, 1, 54, 0
3, 14285, Note_on_c, 1, 47, 64
3, 14364, Note_on_c, 1, 47, 0
3, 14525, Note_on_c, 1, 59, 64
3, 14542, Note_on_c, 1, 58, 64
3, 14546, Note_on_c, 1, 59, 0
3, 14560, Note_on_c, 1, 59, 64
3, 14563, Note_on_c, 1, 58, 0
3, 14705, Note_on_c, 1, 59, 0
3, 14705, Note_on_c, 1, 57, 64
3, 14731, Note_on_c, 1, 57, 0
3, 14735, Note_on_c, 1, 55, 64
3, 14761, Note_on_c, 1, 55, 0
3, 14765, Note_on_c, 1, 57, 64
3, 14791, Note_on_c, 1, 57, 0
3, 14795, Note_on_c, 1, 55, 64
3, 14821, Note_on_c, 1, 55, 0
3, 14825, Note_on_c, 1, 54, 64
3, 14851, Note_on_c, 1, 54, 0
3, 14855, Note_on_c, 1, 52, 64
3, 14881, Note_on_c, 1, 52, 0
3, 14885, Note_on_c, 1, 52, 64
3, 14990, Note_on_c, 1, 52, 0
3, 15002, Note_on_c, 1, 51, 64
3, 15014, Note_on_c, 1, 52, 64
3, 15027, Note_on_c, 1, 51, 0
3, 15030, Note_on_c, 1, 51, 64
3, 15039, Note_on_c, 1, 52, 0
3, 15044, Note_on_c, 1, 52, 64
3, 15055, Note_on_c, 1, 51, 0
3, 15058, Note_on_c, 1, 51, 64
3, 15069, Note_on_c, 1, 52, 0
3, 15117, Note_on_c, 1, 51, 0
3, 15185, Note_on_c, 1, 57, 64
3, 15211, Note_on_c, 1, 57, 0
3, 15215, Note_on_c, 1, 55, 64
3, 15241, Note_on_c, 1, 55, 0
3, 15245, Note_on_c, 1, 54, 64
3, 15271, Note_on_c, 1, 54, 0
3, 15275, Note_on_c, 1, 55, 64
3, 15301, Note_on_c, 1, 55, 0
3, 15305, Note_on_c, 1, 57, 64
3, 15357, Note_on_c, 1, 57, 0
3, 15365, Note_on_c, 1, 55, 64
3, 15417, Note_on_c, 1, 55, 0
3, 15425, Note_on_c, 1, 64, 64
3, 15451, Note_on_c, 1, 64, 0
3, 15455, Note_on_c, 1, 66, 64
3, 15481, Note_on_c, 1, 66, 0
3, 15485, Note_on_c, 1, 67, 64
3, 15511, Note_on_c, 1, 67, 0
3, 15515, Note_on_c, 1, 66, 64
3, 15541, Note_on_c, 1, 66, 0
3, 15545, Note_on_c, 1, 64, 64
3, 15657, Note_on_c, 1, 64, 0
3, 15665, Note_on_c, 1, 71, 64
3, 15770, Note_on_c, 1, 71, 0
3, 15785, Note_on_c, 1, 62, 64
3, 15897, Note_on_c, 1, 62, 0
3, 15905, Note_on_c, 1, 64, 64
3, 15931, Note_on_c, 1, 64, 0
3, 15935, Note_on_c, 1, 62, 64
3, 15961, Note_on_c, 1, 62, 0
3, 15965, Note_on_c, 1, 61, 64
3, 15991, Note_on_c, 1, 61, 0
3, 15995, Note_on_c, 1, 62, 64
3, 16021, Note_on_c, 1, 62, 0
3, 16025, Note_on_c, 1, 64, 64
3, 16137, Note_on_c, 1, 64, 0
3, 16145, Note_on_c, 1, 55, 64
3, 16250, Note_on_c, 1, 55, 0
3, 16265, Note_on_c, 1, 64, 64
3, 16317, Note_on_c, 1, 64, 0
3, 16325, Note_on_c, 1, 54, 64
3, 16377, Note_on_c, 1, 54, 0
3, 16385, Note_on_c, 1, 62, 64
3, 16411, Note_on_c, 1, 62, 0
3, 16415, Note_on_c, 1, 64, 64
3, 16441, Note_on_c, 1, 64, 0
3, 16445, Note_on_c, 1, 66, 64
3, 16471, Note_on_c, 1, 66, 0
3, 16475, Note_on_c, 1, 64, 64
3, 16501, Note_on_c, 1, 64, 0
3, 16505, Note_on_c, 1, 62, 64
3, 16617, Note_on_c, 1, 62, 0
3, 16625, Note_on_c, 1, 69, 64
3, 16730, Note_on_c, 1, 69, 0
3, 16745, Note_on_c, 1, 60, 64
3, 16857, Note_on_c, 1, 60, 0
3, 16865, Note_on_c, 1, 62, 64
3, 16891, Note_on_c, 1, 62, 0
3, 16895, Note_on_c, 1, 60, 64
3, 16921, Note_on_c, 1, 60, 0
3, 16925, Note_on_c, 1, 59, 64
3, 16951, Note_on_c, 1, 59, 0
3, 16955, Note_on_c, 1, 60, 64
3, 16981, Note_on_c, 1, 60, 0
3, 16985, Note_on_c, 1, 62, 64
3, 17097, Note_on_c, 1, 62, 0
3, 17105, Note_on_c, 1, 54, 64
3, 17210, Note_on_c, 1, 54, 0
3, 17225, Note_on_c, 1, 62, 64
3, 17277, Note_on_c, 1, 62, 0
3, 17285, Note_on_c, 1, 52, 64
3, 17390, Note_on_c, 1, 52, 0
3, 17405, Note_on_c, 1, 50, 64
3, 17510, Note_on_c, 1, 50, 0
3, 17525, Note_on_c, 1, 49, 64
3, 17630, Note_on_c, 1, 49, 0
3, 17645, Note_on_c, 1, 47, 64
3, 17750, Note_on_c, 1, 47, 0
3, 17828, Note_on_c, 1, 62, 64
3, 17933, Note_on_c, 1, 62, 0
3, 17952, Note_on_c, 1, 61, 64
3, 17991, Note_on_c, 1, 61, 0
3, 18005, Note_on_c, 1, 53, 64
3, 18057, Note_on_c, 1, 53, 0
3, 18068, Note_on_c, 1, 59, 64
3, 18173, Note_on_c, 1, 59, 0
3, 18188, Note_on_c, 1, 57, 64
3, 18225, Note_on_c, 1, 57, 0
3, 18245, Note_on_c, 1, 50, 64
3, 18297, Note_on_c, 1, 50, 0
3, 18305, Note_on_c, 1, 56, 64
3, 18410, Note_on_c, 1, 56, 0
3, 18425, Note_on_c, 1, 54, 64
3, 18477, Note_on_c, 1, 54, 0
3, 18485, Note_on_c, 1, 47, 64
3, 18560, Note_on_c, 1, 47, 0
3, 18605, Note_on_c, 1, 59, 64
3, 18682, Note_on_c, 1, 59, 0
3, 18725, Note_on_c, 1, 53, 64
3, 18802, Note_on_c, 1, 53, 0
3, 18845, Note_on_c, 1, 56, 64
3, 18924, Note_on_c, 1, 56, 0
3, 18965, Note_on_c, 1, 49, 64
3, 19044, Note_on_c, 1, 49, 0
3, 19085, Note_on_c, 1, 53, 64
3, 19166, Note_on_c, 1, 53, 0
3, 19205, Note_on_c, 1, 42, 64
3, 19298, Note_on_c, 1, 42, 0
3, 19325, Note_on_c, 1, 45, 64
3, 19418, Note_on_c, 1, 45, 0
3, 19445, Note_on_c, 1, 49, 64
3, 19598, Note_on_c, 1, 50, 64
3, 19604, Note_on_c, 1, 49, 0
3, 19625, Note_on_c, 1, 49, 64
3, 19631, Note_on_c, 1, 50, 0
3, 19655, Note_on_c, 1, 48, 64
3, 19660, Note_on_c, 1, 49, 0
3, 19681, Note_on_c, 1, 48, 0
3, 19685, Note_on_c, 1, 49, 64
3, 19790, Note_on_c, 1, 49, 0
3, 19805, Note_on_c, 1, 41, 64
3, 19886, Note_on_c, 1, 41, 0
3, 19925, Note_on_c, 1, 44, 64
3, 20010, Note_on_c, 1, 44, 0
3, 20045, Note_on_c, 1, 49, 64
3, 20134, Note_on_c, 1, 49, 0
3, 20165, Note_on_c, 1, 42, 64
3, 20217, Note_on_c, 1, 42, 0
3, 20225, Note_on_c, 1, 49, 64
3, 20277, Note_on_c, 1, 49, 0
3, 20285, Note_on_c, 1, 54, 64
3, 20337, Note_on_c, 1, 54, 0
3, 20345, Note_on_c, 1, 56, 64
3, 20397, Note_on_c, 1, 56, 0
3, 20405, Note_on_c, 1, 57, 64
3, 20457, Note_on_c, 1, 57, 0
3, 20465, Note_on_c, 1, 61, 64
3, 20517, Note_on_c, 1, 61, 0
3, 20525, Note_on_c, 1, 54, 64
3, 20577, Note_on_c, 1, 54, 0
3, 20585, Note_on_c, 1, 57, 64
3, 20637, Note_on_c, 1, 57, 0
3, 20645, Note_on_c, 1, 56, 64
3, 20697, Note_on_c, 1, 56, 0
3, 20705, Note_on_c, 1, 61, 64
3, 20765, Note_on_c, 1, 62, 64
3, 20770, Note_on_c, 1, 61, 0
3, 20795, Note_on_c, 1, 61, 64
3, 20802, Note_on_c, 1, 62, 0
3, 20825, Note_on_c, 1, 60, 64
3, 20830, Note_on_c, 1, 61, 0
3, 20855, Note_on_c, 1, 61, 64
3, 20858, Note_on_c, 1, 60, 0
3, 20881, Note_on_c, 1, 61, 0
3, 20885, Note_on_c, 1, 65, 64
3, 20945, Note_on_c, 1, 61, 64
3, 20946, Note_on_c, 1, 65, 0
3, 20997, Note_on_c, 1, 61, 0
3, 21005, Note_on_c, 1, 68, 64
3, 21065, Note_on_c, 1, 59, 64
3, 21068, Note_on_c, 1, 68, 0
3, 21117, Note_on_c, 1, 59, 0
3, 21125, Note_on_c, 1, 57, 64
3, 21212, Note_on_c, 1, 57, 0
3, 21245, Note_on_c, 1, 54, 64
3, 21350, Note_on_c, 1, 54, 0
3, 21365, Note_on_c, 1, 56, 64
3, 21470, Note_on_c, 1, 56, 0
3, 21485, Note_on_c, 1, 58, 64
3, 21590, Note_on_c, 1, 58, 0
3, 21605, Note_on_c, 1, 59, 64
3, 21710, Note_on_c, 1, 59, 0
3, 21725, Note_on_c, 1, 47, 64
3, 21830, Note_on_c, 1, 47, 0
3, 21845, Note_on_c, 1, 49, 64
3, 21950, Note_on_c, 1, 49, 0
3, 21965, Note_on_c, 1, 51, 64
3, 22070, Note_on_c, 1, 51, 0
3, 22085, Note_on_c, 1, 40, 64
3, 22190, Note_on_c, 1, 40, 0
3, 22205, Note_on_c, 1, 52, 64
3, 22310, Note_on_c, 1, 52, 0
3, 22325, Note_on_c, 1, 54, 64
3, 22430, Note_on_c, 1, 54, 0
3, 22445, Note_on_c, 1, 55, 64
3, 22550, Note_on_c, 1, 55, 0
3, 22565, Note_on_c, 1, 57, 64
3, 22670, Note_on_c, 1, 57, 0
3, 22685, Note_on_c, 1, 45, 64
3, 22790, Note_on_c, 1, 45, 0
3, 22805, Note_on_c, 1, 47, 64
3, 22910, Note_on_c, 1, 47, 0
3, 22925, Note_on_c, 1, 49, 64
3, 23030, Note_on_c, 1, 49, 0
3, 23045, Note_on_c, 1, 38, 64
3, 23150, Note_on_c, 1, 38, 0
3, 23165, Note_on_c, 1, 42, 64
3, 23270, Note_on_c, 1, 42, 0
3, 23285, Note_on_c, 1, 45, 64
3, 23390, Note_on_c, 1, 45, 0
3, 23405, Note_on_c, 1, 50, 64
3, 23510, Note_on_c, 1, 50, 0
3, 23525, Note_on_c, 1, 43, 64
3, 23630, Note_on_c, 1, 43, 0
3, 23645, Note_on_c, 1, 47, 64
3, 23750, Note_on_c, 1, 47, 0
3, 23765, Note_on_c, 1, 50, 64
3, 23870, Note_on_c, 1, 50, 0
3, 23885, Note_on_c, 1, 55, 64
3, 23990, Note_on_c, 1, 55, 0
3, 24005, Note_on_c, 1, 49, 64
3, 24110, Note_on_c, 1, 49, 0
3, 24125, Note_on_c, 1, 52, 64
3, 24230, Note_on_c, 1, 52, 0
3, 24245, Note_on_c, 1, 55, 64
3, 24350, Note_on_c, 1, 55, 0
3, 24365, Note_on_c, 1, 61, 64
3, 24470, Note_on_c, 1, 61, 0
3, 24485, Note_on_c, 1, 54, 64
3, 24590, Note_on_c, 1, 54, 0
3, 24605, Note_on_c, 1, 58, 64
3, 24710, Note_on_c, 1, 58, 0
3, 24725, Note_on_c, 1, 61, 64
3, 24830, Note_on_c, 1, 61, 0
3, 24845, Note_on_c, 1, 66, 64
3, 24950, Note_on_c, 1, 66, 0
3, 24965, Note_on_c, 1, 59, 64
3, 25070, Note_on_c, 1, 59, 0
3, 25085, Note_on_c, 1, 67, 64
3, 25190, Note_on_c, 1, 67, 0
3, 25205, Note_on_c, 1, 57, 64
3, 25257, Note_on_c, 1, 57, 0
3, 25265, Note_on_c, 1, 67, 64
3, 25317, Note_on_c, 1, 67, 0
3, 25325, Note_on_c, 1, 66, 64
3, 25377, Note_on_c, 1, 66, 0
3, 25385, Note_on_c, 1, 57, 64
3, 25437, Note_on_c, 1, 57, 0
3, 25445, Note_on_c, 1, 55, 64
3, 25550, Note_on_c, 1, 55, 0
3, 25565, Note_on_c, 1, 64, 64
3, 25670, Note_on_c, 1, 64, 0
3, 25685, Note_on_c, 1, 54, 64
3, 25737, Note_on_c, 1, 54, 0
3, 25745, Note_on_c, 1, 64, 64
3, 25797, Note_on_c, 1, 64, 0
3, 25805, Note_on_c, 1, 62, 64
3, 25857, Note_on_c, 1, 62, 0
3, 25865, Note_on_c, 1, 54, 64
3, 25917, Note_on_c, 1, 54, 0
3, 25925, Note_on_c, 1, 52, 64
3, 25977, Note_on_c, 1, 52, 0
3, 25985, Note_on_c, 1, 62, 64
3, 26037, Note_on_c, 1, 62, 0
3, 26045, Note_on_c, 1, 60, 64
3, 26097, Note_on_c, 1, 60, 0
3, 26105, Note_on_c, 1, 52, 64
3, 26157, Note_on_c, 1, 52, 0
3, 26165, Note_on_c, 1, 50, 64
3, 26217, Note_on_c, 1, 50, 0
3, 26225, Note_on_c, 1, 60, 64
3, 26277, Note_on_c, 1, 60, 0
3, 26285, Note_on_c, 1, 59, 64
3, 26337, Note_on_c, 1, 59, 0
3, 26345, Note_on_c, 1, 50, 64
3, 26397, Note_on_c, 1, 50, 0
3, 26405, Note_on_c, 1, 49, 64
3, 26457, Note_on_c, 1, 49, 0
3, 26465, Note_on_c, 1, 59, 64
3, 26517, Note_on_c, 1, 59, 0
3, 26525, Note_on_c, 1, 58, 64
3, 26577, Note_on_c, 1, 58, 0
3, 26585, Note_on_c, 1, 49, 64
3, 26637, Note_on_c, 1, 49, 0
3, 26645, Note_on_c, 1, 47, 64
3, 26697, Note_on_c, 1, 47, 0
3, 26705, Note_on_c, 1, 58, 64
3, 26757, Note_on_c, 1, 58, 0
3, 26765, Note_on_c, 1, 59, 64
3, 26817, Note_on_c, 1, 59, 0
3, 26825, Note_on_c, 1, 47, 64
3, 26877, Note_on_c, 1, 47, 0
3, 26885, Note_on_c, 1, 46, 64
3, 27110, Note_on_c, 1, 46, 0
3, 27245, Note_on_c, 1, 58, 64
3, 27350, Note_on_c, 1, 58, 0
3, 27365, Note_on_c, 1, 59, 64
3, 27470, Note_on_c, 1, 59, 0
3, 27485, Note_on_c, 1, 55, 64
3, 27590, Note_on_c, 1, 55, 0
3, 27605, Note_on_c, 1, 52, 64
3, 27710, Note_on_c, 1, 52, 0
3, 27725, Note_on_c, 1, 54, 64
3, 27830, Note_on_c, 1, 54, 0
3, 27845, Note_on_c, 1, 50, 64
3, 27897, Note_on_c, 1, 50, 0
3, 27905, Note_on_c, 1, 54, 64
3, 27957, Note_on_c, 1, 54, 0
3, 27965, Note_on_c, 1, 47, 64
3, 28017, Note_on_c, 1, 47, 0
3, 28025, Note_on_c, 1, 49, 64
3, 28077, Note_on_c, 1, 49, 0
3, 28085, Note_on_c, 1, 50, 64
3, 28137, Note_on_c, 1, 50, 0
3, 28145, Note_on_c, 1, 54, 64
3, 28197, Note_on_c, 1, 54, 0
3, 28205, Note_on_c, 1, 47, 64
3, 28257, Note_on_c, 1, 47, 0
3, 28265, Note_on_c, 1, 50, 64
3, 28317, Note_on_c, 1, 50, 0
3, 28325, Note_on_c, 1, 49, 64
3, 28377, Note_on_c, 1, 49, 0
3, 28385, Note_on_c, 1, 54, 64
3, 28437, Note_on_c, 1, 54, 0
3, 28445, Note_on_c, 1, 55, 64
3, 28471, Note_on_c, 1, 55, 0
3, 28475, Note_on_c, 1, 54, 64
3, 28501, Note_on_c, 1, 54, 0
3, 28505, Note_on_c, 1, 53, 64
3, 28531, Note_on_c, 1, 53, 0
3, 28535, Note_on_c, 1, 54, 64
3, 28561, Note_on_c, 1, 54, 0
3, 28565, Note_on_c, 1, 58, 64
3, 28617, Note_on_c, 1, 58, 0
3, 28625, Note_on_c, 1, 54, 64
3, 28677, Note_on_c, 1, 54, 0
3, 28685, Note_on_c, 1, 61, 64
3, 28737, Note_on_c, 1, 61, 0
3, 28745, Note_on_c, 1, 52, 64
3, 28797, Note_on_c, 1, 52, 0
3, 28805, Note_on_c, 1, 50, 64
3, 28857, Note_on_c, 1, 50, 0
3, 28865, Note_on_c, 1, 54, 64
3, 28917, Note_on_c, 1, 54, 0
3, 28925, Note_on_c, 1, 47, 64
3, 28977, Note_on_c, 1, 47, 0
3, 28985, Note_on_c, 1, 49, 64
3, 29037, Note_on_c, 1, 49, 0
3, 29045, Note_on_c, 1, 50, 64
3, 29097, Note_on_c, 1, 50, 0
3, 29105, Note_on_c, 1, 54, 64
3, 29157, Note_on_c, 1, 54, 0
3, 29165, Note_on_c, 1, 47, 64
3, 29217, Note_on_c, 1, 47, 0
3, 29225, Note_on_c, 1, 49, 64
3, 29277, Note_on_c, 1, 49, 0
3, 29285, Note_on_c, 1, 50, 64
3, 29390, Note_on_c, 1, 50, 0
3, 29405, Note_on_c, 1, 38, 64
3, 29510, Note_on_c, 1, 38, 0
3, 29645, Note_on_c, 1, 50, 64
3, 29750, Note_on_c, 1, 50, 0
3, 29765, Note_on_c, 1, 49, 64
3, 29870, Note_on_c, 1, 49, 0
3, 29885, Note_on_c, 1, 61, 64
3, 29990, Note_on_c, 1, 61, 0
3, 30065, Note_on_c, 1, 61, 64
3, 30091, Note_on_c, 1, 61, 0
3, 30095, Note_on_c, 1, 62, 64
3, 30121, Note_on_c, 1, 62, 0
3, 30125, Note_on_c, 1, 64, 64
3, 30151, Note_on_c, 1, 64, 0
3, 30155, Note_on_c, 1, 62, 64
3, 30181, Note_on_c, 1, 62, 0
3, 30185, Note_on_c, 1, 61, 64
3, 30237, Note_on_c, 1, 61, 0
3, 30245, Note_on_c, 1, 68, 64
3, 30245, Note_on_c, 1, 59, 64
3, 30319, Note_on_c, 1, 59, 0
3, 30319, Note_on_c, 1, 68, 0
3, 30365, Note_on_c, 1, 61, 64
3, 30365, Note_on_c, 1, 58, 64
3, 30439, Note_on_c, 1, 58, 0
3, 30439, Note_on_c, 1, 61, 0
3, 30545, Note_on_c, 1, 54, 64
3, 30571, Note_on_c, 1, 54, 0
3, 30575, Note_on_c, 1, 56, 64
3, 30601, Note_on_c, 1, 56, 0
3, 30605, Note_on_c, 1, 58, 64
3, 30631, Note_on_c, 1, 58, 0
3, 30635, Note_on_c, 1, 59, 64
3, 30661, Note_on_c, 1, 59, 0
3, 30665, Note_on_c, 1, 61, 64
3, 30706, Note_on_c, 1, 61, 0
3, 30725, Note_on_c, 1, 50, 64
3, 30830, Note_on_c, 1, 50, 0
3, 30845, Note_on_c, 1, 52, 64
3, 30950, Note_on_c, 1, 52, 0
3, 30965, Note_on_c, 1, 54, 64
3, 31070, Note_on_c, 1, 54, 0
3, 31085, Note_on_c, 1, 42, 64
3, 31190, Note_on_c, 1, 42, 0
3, 31205, Note_on_c, 1, 47, 64
3, 31670, Note_on_c, 1, 47, 0
3, 31670, End_track
0, 0, End_of_file
