0, 0, Header, 1, 4, 120
1, 0, Start_track
1, 0, Time_signature, 3, 3, 12, 8
1, 0, Key_signature, 2, "major"
1, 0, Tempo, 681818
1, 0, Marker_t, "(c) Yo Tomita, 1997"
1, 17829, Tempo, 685714
1, 17834, Tempo, 689655
1, 17839, Tempo, 693642
1, 17844, Tempo, 697674
1, 17849, Tempo, 701754
1, 17854, Tempo, 705882
1, 17859, Tempo, 710059
1, 17864, Tempo, 714286
1, 17869, Tempo, 718563
1, 17874, Tempo, 722892
1, 17879, Tempo, 727273
1, 17884, Tempo, 731707
1, 17889, Tempo, 736196
1, 17894, Tempo, 740741
1, 17899, Tempo, 745342
1, 17904, Tempo, 750000
1, 17909, Tempo, 754717
1, 17914, Tempo, 759494
1, 17919, Tempo, 764331
1, 17924, Tempo, 769231
1, 17929, Tempo, 774194
1, 17934, Tempo, 779221
1, 17939, Tempo, 784314
1, 17944, Tempo, 789474
1, 17949, Tempo, 794702
1, 17954, Tempo, 800000
1, 17959, Tempo, 805369
1, 17964, Tempo, 810811
1, 17969, Tempo, 816327
1, 17974, Tempo, 821918
1, 17979, Tempo, 827586
1, 17984, Tempo, 833333
1, 17989, Tempo, 839161
1, 17994, Tempo, 845070
1, 17999, Tempo, 851064
1, 18001, Tempo, 857143
1, 18006, Tempo, 863309
1, 18011, Tempo, 869565
1, 18016, Tempo, 875912
1, 18021, Tempo, 882353
1, 18026, Tempo, 888889
1, 18031, Tempo, 895522
1, 18036, Tempo, 902256
1, 18041, Tempo, 909091
1, 18046, Tempo, 916031
1, 18051, Tempo, 923077
1, 18056, Tempo, 930233
1, 18061, Tempo, 937500
1, 18066, Tempo, 944882
1, 18071, Tempo, 952381
1, 18076, Tempo, 960000
1, 18081, Tempo, 967742
1, 18086, Tempo, 975610
1, 18091, Tempo, 983607
1, 18096, Tempo, 991736
1, 18101, Tempo, 1000000
1, 18106, Tempo, 1008403
1, 18111, Tempo, 1016949
1, 18116, Tempo, 1025641
1, 18121, Tempo, 1034483
1, 18126, Tempo, 1043478
1, 18131, Tempo, 1052632
1, 18136, Tempo, 1061947
1, 18141, Tempo, 1071429
1, 18146, Tempo, 1081081
1, 18151, Tempo, 1090909
1, 18156, Tempo, 1100917
1, 18161, Tempo, 1111111
1, 18166, Tempo, 1121495
1, 18169, Tempo, 1132075
1, 18169, End_track
2, 0, Start_track
2, 0, MIDI_port, 0
2, 0, Title_t, "BWV 893/2"
2, 0, Program_c, 0, 6
2, 1200, Note_on_c, 0, 71, 64
2, 1234, Note_on_c, 0, 71, 0
2, 1260, Note_on_c, 0, 69, 64
2, 1294, Note_on_c, 0, 69, 0
2, 1320, Note_on_c, 0, 66, 64
2, 1354, Note_on_c, 0, 66, 0
2, 1380, Note_on_c, 0, 65, 64
2, 1419, Note_on_c, 0, 65, 0
2, 1440, Note_on_c, 0, 66, 64
2, 1500, Note_on_c, 0, 68, 64
2, 1504, Note_on_c, 0, 66, 0
2, 1530, Note_on_c, 0, 69, 64
2, 1534, Note_on_c, 0, 68, 0
2, 1560, Note_on_c, 0, 71, 64
2, 1564, Note_on_c, 0, 69, 0
2, 1590, Note_on_c, 0, 73, 64
2, 1594, Note_on_c, 0, 71, 0
2, 1616, Note_on_c, 0, 73, 0
2, 1620, Note_on_c, 0, 74, 64
2, 1654, Note_on_c, 0, 74, 0
2, 1680, Note_on_c, 0, 62, 64
2, 1714, Note_on_c, 0, 62, 0
2, 1740, Note_on_c, 0, 74, 64
2, 1774, Note_on_c, 0, 74, 0
2, 1800, Note_on_c, 0, 73, 64
2, 1834, Note_on_c, 0, 73, 0
2, 1860, Note_on_c, 0, 61, 64
2, 1894, Note_on_c, 0, 61, 0
2, 1920, Note_on_c, 0, 73, 64
2, 1954, Note_on_c, 0, 73, 0
2, 1980, Note_on_c, 0, 71, 64
2, 2039, Note_on_c, 0, 71, 0
2, 2040, Note_on_c, 0, 73, 64
2, 2070, Note_on_c, 0, 71, 64
2, 2074, Note_on_c, 0, 73, 0
2, 2100, Note_on_c, 0, 69, 64
2, 2104, Note_on_c, 0, 71, 0
2, 2126, Note_on_c, 0, 69, 0
2, 2130, Note_on_c, 0, 68, 64
2, 2156, Note_on_c, 0, 68, 0
2, 2160, Note_on_c, 0, 69, 64
2, 2186, Note_on_c, 0, 69, 0
2, 2190, Note_on_c, 0, 73, 64
2, 2220, Note_on_c, 0, 71, 64
2, 2224, Note_on_c, 0, 73, 0
2, 2250, Note_on_c, 0, 69, 64
2, 2254, Note_on_c, 0, 71, 0
2, 2276, Note_on_c, 0, 69, 0
2, 2280, Note_on_c, 0, 68, 64
2, 2306, Note_on_c, 0, 68, 0
2, 2310, Note_on_c, 0, 66, 64
2, 2336, Note_on_c, 0, 66, 0
2, 2340, Note_on_c, 0, 67, 64
2, 2392, Note_on_c, 0, 67, 0
2, 2400, Note_on_c, 0, 69, 64
2, 2430, Note_on_c, 0, 67, 64
2, 2434, Note_on_c, 0, 69, 0
2, 2460, Note_on_c, 0, 66, 64
2, 2464, Note_on_c, 0, 67, 0
2, 2486, Note_on_c, 0, 66, 0
2, 2490, Note_on_c, 0, 64, 64
2, 2516, Note_on_c, 0, 64, 0
2, 2520, Note_on_c, 0, 66, 64
2, 2546, Note_on_c, 0, 66, 0
2, 2550, Note_on_c, 0, 69, 64
2, 2580, Note_on_c, 0, 67, 64
2, 2584, Note_on_c, 0, 69, 0
2, 2609, Note_on_c, 0, 67, 0
2, 2610, Note_on_c, 0, 66, 64
2, 2636, Note_on_c, 0, 66, 0
2, 2640, Note_on_c, 0, 64, 64
2, 2666, Note_on_c, 0, 64, 0
2, 2670, Note_on_c, 0, 62, 64
2, 2696, Note_on_c, 0, 62, 0
2, 2700, Note_on_c, 0, 64, 64
2, 2752, Note_on_c, 0, 64, 0
2, 2760, Note_on_c, 0, 66, 64
2, 2786, Note_on_c, 0, 66, 0
2, 2790, Note_on_c, 0, 64, 64
2, 2816, Note_on_c, 0, 64, 0
2, 2820, Note_on_c, 0, 62, 64
2, 2846, Note_on_c, 0, 62, 0
2, 2850, Note_on_c, 0, 61, 64
2, 2876, Note_on_c, 0, 61, 0
2, 2880, Note_on_c, 0, 62, 64
2, 2906, Note_on_c, 0, 62, 0
2, 2910, Note_on_c, 0, 64, 64
2, 2936, Note_on_c, 0, 64, 0
2, 2940, Note_on_c, 0, 66, 64
2, 2966, Note_on_c, 0, 66, 0
2, 2970, Note_on_c, 0, 67, 64
2, 2996, Note_on_c, 0, 67, 0
2, 3000, Note_on_c, 0, 66, 64
2, 3292, Note_on_c, 0, 66, 0
2, 3300, Note_on_c, 0, 64, 64
2, 3334, Note_on_c, 0, 64, 0
2, 3360, Note_on_c, 0, 69, 64
2, 3472, Note_on_c, 0, 69, 0
2, 3480, Note_on_c, 0, 66, 64
2, 3514, Note_on_c, 0, 66, 0
2, 3540, Note_on_c, 0, 62, 64
2, 3652, Note_on_c, 0, 62, 0
2, 3660, Note_on_c, 0, 61, 64
2, 3694, Note_on_c, 0, 61, 0
2, 3720, Note_on_c, 0, 66, 64
2, 3832, Note_on_c, 0, 66, 0
2, 3900, Note_on_c, 0, 68, 64
2, 3952, Note_on_c, 0, 68, 0
2, 3960, Note_on_c, 0, 69, 64
2, 3986, Note_on_c, 0, 69, 0
2, 3990, Note_on_c, 0, 73, 64
2, 4016, Note_on_c, 0, 73, 0
2, 4020, Note_on_c, 0, 71, 64
2, 4046, Note_on_c, 0, 71, 0
2, 4050, Note_on_c, 0, 69, 64
2, 4076, Note_on_c, 0, 69, 0
2, 4080, Note_on_c, 0, 68, 64
2, 4106, Note_on_c, 0, 68, 0
2, 4110, Note_on_c, 0, 66, 64
2, 4136, Note_on_c, 0, 66, 0
2, 4140, Note_on_c, 0, 68, 64
2, 4166, Note_on_c, 0, 68, 0
2, 4170, Note_on_c, 0, 70, 64
2, 4196, Note_on_c, 0, 70, 0
2, 4200, Note_on_c, 0, 71, 64
2, 4215, Note_on_c, 0, 70, 64
2, 4224, Note_on_c, 0, 71, 0
2, 4225, Note_on_c, 0, 71, 64
2, 4234, Note_on_c, 0, 70, 0
2, 4235, Note_on_c, 0, 70, 64
2, 4244, Note_on_c, 0, 71, 0
2, 4245, Note_on_c, 0, 71, 64
2, 4254, Note_on_c, 0, 70, 0
2, 4255, Note_on_c, 0, 70, 64
2, 4264, Note_on_c, 0, 71, 0
2, 4265, Note_on_c, 0, 71, 64
2, 4274, Note_on_c, 0, 70, 0
2, 4275, Note_on_c, 0, 70, 64
2, 4284, Note_on_c, 0, 71, 0
2, 4290, Note_on_c, 0, 68, 64
2, 4294, Note_on_c, 0, 70, 0
2, 4303, Note_on_c, 0, 68, 0
2, 4305, Note_on_c, 0, 70, 64
2, 4318, Note_on_c, 0, 70, 0
2, 4320, Note_on_c, 0, 71, 64
2, 4346, Note_on_c, 0, 71, 0
2, 4350, Note_on_c, 0, 74, 64
2, 4376, Note_on_c, 0, 74, 0
2, 4380, Note_on_c, 0, 73, 64
2, 4406, Note_on_c, 0, 73, 0
2, 4410, Note_on_c, 0, 71, 64
2, 4436, Note_on_c, 0, 71, 0
2, 4440, Note_on_c, 0, 69, 64
2, 4466, Note_on_c, 0, 69, 0
2, 4470, Note_on_c, 0, 68, 64
2, 4496, Note_on_c, 0, 68, 0
2, 4500, Note_on_c, 0, 69, 64
2, 4526, Note_on_c, 0, 69, 0
2, 4530, Note_on_c, 0, 71, 64
2, 4556, Note_on_c, 0, 71, 0
2, 4560, Note_on_c, 0, 73, 64
2, 4575, Note_on_c, 0, 71, 64
2, 4584, Note_on_c, 0, 73, 0
2, 4585, Note_on_c, 0, 73, 64
2, 4594, Note_on_c, 0, 71, 0
2, 4595, Note_on_c, 0, 71, 64
2, 4604, Note_on_c, 0, 73, 0
2, 4605, Note_on_c, 0, 73, 64
2, 4614, Note_on_c, 0, 71, 0
2, 4615, Note_on_c, 0, 71, 64
2, 4624, Note_on_c, 0, 73, 0
2, 4625, Note_on_c, 0, 73, 64
2, 4634, Note_on_c, 0, 71, 0
2, 4635, Note_on_c, 0, 71, 64
2, 4644, Note_on_c, 0, 73, 0
2, 4650, Note_on_c, 0, 69, 64
2, 4654, Note_on_c, 0, 71, 0
2, 4663, Note_on_c, 0, 69, 0
2, 4665, Note_on_c, 0, 71, 64
2, 4678, Note_on_c, 0, 71, 0
2, 4680, Note_on_c, 0, 73, 64
2, 4886, Note_on_c, 0, 73, 0
2, 4890, Note_on_c, 0, 74, 64
2, 4916, Note_on_c, 0, 74, 0
2, 4920, Note_on_c, 0, 73, 64
2, 4946, Note_on_c, 0, 73, 0
2, 4950, Note_on_c, 0, 71, 64
2, 4976, Note_on_c, 0, 71, 0
2, 4980, Note_on_c, 0, 69, 64
2, 5006, Note_on_c, 0, 69, 0
2, 5010, Note_on_c, 0, 68, 64
2, 5036, Note_on_c, 0, 68, 0
2, 5040, Note_on_c, 0, 69, 64
2, 5074, Note_on_c, 0, 69, 0
2, 5100, Note_on_c, 0, 66, 64
2, 5134, Note_on_c, 0, 66, 0
2, 5160, Note_on_c, 0, 65, 64
2, 5194, Note_on_c, 0, 65, 0
2, 5220, Note_on_c, 0, 66, 64
2, 5314, Note_on_c, 0, 66, 0
2, 5340, Note_on_c, 0, 71, 64
2, 5459, Note_on_c, 0, 71, 0
2, 5460, Note_on_c, 0, 65, 64
2, 5494, Note_on_c, 0, 65, 0
2, 5520, Note_on_c, 0, 66, 64
2, 5554, Note_on_c, 0, 66, 0
2, 5580, Note_on_c, 0, 62, 64
2, 5614, Note_on_c, 0, 62, 0
2, 5640, Note_on_c, 0, 61, 64
2, 5865, Note_on_c, 0, 61, 0
2, 5880, Note_on_c, 0, 66, 64
2, 5914, Note_on_c, 0, 66, 0
2, 5940, Note_on_c, 0, 62, 64
2, 5974, Note_on_c, 0, 62, 0
2, 6000, Note_on_c, 0, 64, 64
2, 6034, Note_on_c, 0, 64, 0
2, 6060, Note_on_c, 0, 66, 64
2, 6179, Note_on_c, 0, 66, 0
2, 6180, Note_on_c, 0, 64, 64
2, 6240, Note_on_c, 0, 62, 64
2, 6244, Note_on_c, 0, 64, 0
2, 6300, Note_on_c, 0, 61, 64
2, 6304, Note_on_c, 0, 62, 0
2, 6352, Note_on_c, 0, 61, 0
2, 6420, Note_on_c, 0, 81, 64
2, 6454, Note_on_c, 0, 81, 0
2, 6480, Note_on_c, 0, 78, 64
2, 6514, Note_on_c, 0, 78, 0
2, 6540, Note_on_c, 0, 74, 64
2, 6574, Note_on_c, 0, 74, 0
2, 6600, Note_on_c, 0, 73, 64
2, 6634, Note_on_c, 0, 73, 0
2, 6660, Note_on_c, 0, 74, 64
2, 6719, Note_on_c, 0, 74, 0
2, 6720, Note_on_c, 0, 76, 64
2, 6750, Note_on_c, 0, 78, 64
2, 6754, Note_on_c, 0, 76, 0
2, 6780, Note_on_c, 0, 79, 64
2, 6784, Note_on_c, 0, 78, 0
2, 6810, Note_on_c, 0, 81, 64
2, 6814, Note_on_c, 0, 79, 0
2, 6836, Note_on_c, 0, 81, 0
2, 6840, Note_on_c, 0, 83, 64
2, 6869, Note_on_c, 0, 83, 0
2, 6900, Note_on_c, 0, 71, 64
2, 6934, Note_on_c, 0, 71, 0
2, 6960, Note_on_c, 0, 83, 64
2, 6989, Note_on_c, 0, 83, 0
2, 7020, Note_on_c, 0, 81, 64
2, 7054, Note_on_c, 0, 81, 0
2, 7080, Note_on_c, 0, 69, 64
2, 7114, Note_on_c, 0, 69, 0
2, 7140, Note_on_c, 0, 81, 64
2, 7174, Note_on_c, 0, 81, 0
2, 7200, Note_on_c, 0, 79, 64
2, 7259, Note_on_c, 0, 79, 0
2, 7260, Note_on_c, 0, 81, 64
2, 7290, Note_on_c, 0, 79, 64
2, 7294, Note_on_c, 0, 81, 0
2, 7319, Note_on_c, 0, 79, 0
2, 7320, Note_on_c, 0, 78, 64
2, 7350, Note_on_c, 0, 76, 64
2, 7354, Note_on_c, 0, 78, 0
2, 7379, Note_on_c, 0, 76, 0
2, 7380, Note_on_c, 0, 78, 64
2, 7406, Note_on_c, 0, 78, 0
2, 7410, Note_on_c, 0, 81, 64
2, 7439, Note_on_c, 0, 81, 0
2, 7440, Note_on_c, 0, 79, 64
2, 7466, Note_on_c, 0, 79, 0
2, 7470, Note_on_c, 0, 78, 64
2, 7496, Note_on_c, 0, 78, 0
2, 7500, Note_on_c, 0, 76, 64
2, 7526, Note_on_c, 0, 76, 0
2, 7530, Note_on_c, 0, 74, 64
2, 7556, Note_on_c, 0, 74, 0
2, 7560, Note_on_c, 0, 73, 64
2, 7619, Note_on_c, 0, 73, 0
2, 7620, Note_on_c, 0, 74, 64
2, 7680, Note_on_c, 0, 76, 64
2, 7684, Note_on_c, 0, 74, 0
2, 7800, Note_on_c, 0, 74, 64
2, 7804, Note_on_c, 0, 76, 0
2, 7859, Note_on_c, 0, 74, 0
2, 7860, Note_on_c, 0, 73, 64
2, 7920, Note_on_c, 0, 71, 64
2, 7924, Note_on_c, 0, 73, 0
2, 7979, Note_on_c, 0, 71, 0
2, 7980, Note_on_c, 0, 69, 64
2, 8040, Note_on_c, 0, 71, 64
2, 8044, Note_on_c, 0, 69, 0
2, 8100, Note_on_c, 0, 73, 64
2, 8104, Note_on_c, 0, 71, 0
2, 8160, Note_on_c, 0, 76, 64
2, 8164, Note_on_c, 0, 73, 0
2, 8219, Note_on_c, 0, 76, 0
2, 8220, Note_on_c, 0, 74, 64
2, 8272, Note_on_c, 0, 74, 0
2, 8280, Note_on_c, 0, 73, 64
2, 8486, Note_on_c, 0, 73, 0
2, 8490, Note_on_c, 0, 73, 64
2, 8516, Note_on_c, 0, 73, 0
2, 8520, Note_on_c, 0, 62, 64
2, 8546, Note_on_c, 0, 62, 0
2, 8550, Note_on_c, 0, 73, 64
2, 8576, Note_on_c, 0, 73, 0
2, 8580, Note_on_c, 0, 62, 64
2, 8606, Note_on_c, 0, 62, 0
2, 8610, Note_on_c, 0, 71, 64
2, 8636, Note_on_c, 0, 71, 0
2, 8640, Note_on_c, 0, 61, 64
2, 8666, Note_on_c, 0, 61, 0
2, 8670, Note_on_c, 0, 71, 64
2, 8696, Note_on_c, 0, 71, 0
2, 8700, Note_on_c, 0, 61, 64
2, 8726, Note_on_c, 0, 61, 0
2, 8730, Note_on_c, 0, 71, 64
2, 8756, Note_on_c, 0, 71, 0
2, 8760, Note_on_c, 0, 61, 64
2, 8786, Note_on_c, 0, 61, 0
2, 8790, Note_on_c, 0, 69, 64
2, 8816, Note_on_c, 0, 69, 0
2, 8820, Note_on_c, 0, 59, 64
2, 8846, Note_on_c, 0, 59, 0
2, 8850, Note_on_c, 0, 69, 64
2, 8876, Note_on_c, 0, 69, 0
2, 8880, Note_on_c, 0, 68, 64
2, 8906, Note_on_c, 0, 68, 0
2, 8910, Note_on_c, 0, 71, 64
2, 8936, Note_on_c, 0, 71, 0
2, 8940, Note_on_c, 0, 64, 64
2, 8966, Note_on_c, 0, 64, 0
2, 8970, Note_on_c, 0, 68, 64
2, 8996, Note_on_c, 0, 68, 0
2, 9000, Note_on_c, 0, 69, 64
2, 9039, Note_on_c, 0, 69, 0
2, 9060, Note_on_c, 0, 64, 64
2, 9119, Note_on_c, 0, 64, 0
2, 9120, Note_on_c, 0, 66, 64
2, 9179, Note_on_c, 0, 66, 0
2, 9180, Note_on_c, 0, 67, 64
2, 9240, Note_on_c, 0, 68, 64
2, 9244, Note_on_c, 0, 67, 0
2, 9300, Note_on_c, 0, 70, 64
2, 9304, Note_on_c, 0, 68, 0
2, 9359, Note_on_c, 0, 70, 0
2, 9360, Note_on_c, 0, 71, 64
2, 9399, Note_on_c, 0, 71, 0
2, 9420, Note_on_c, 0, 66, 64
2, 9479, Note_on_c, 0, 66, 0
2, 9480, Note_on_c, 0, 68, 64
2, 9539, Note_on_c, 0, 68, 0
2, 9540, Note_on_c, 0, 69, 64
2, 9599, Note_on_c, 0, 69, 0
2, 9600, Note_on_c, 0, 70, 64
2, 9660, Note_on_c, 0, 72, 64
2, 9664, Note_on_c, 0, 70, 0
2, 9720, Note_on_c, 0, 73, 64
2, 9724, Note_on_c, 0, 72, 0
2, 9952, Note_on_c, 0, 73, 0
2, 9960, Note_on_c, 0, 69, 64
2, 9994, Note_on_c, 0, 69, 0
2, 10020, Note_on_c, 0, 68, 64
2, 10054, Note_on_c, 0, 68, 0
2, 10080, Note_on_c, 0, 66, 64
2, 10132, Note_on_c, 0, 66, 0
2, 10290, Note_on_c, 0, 81, 64
2, 10316, Note_on_c, 0, 81, 0
2, 10320, Note_on_c, 0, 71, 64
2, 10346, Note_on_c, 0, 71, 0
2, 10350, Note_on_c, 0, 81, 64
2, 10376, Note_on_c, 0, 81, 0
2, 10380, Note_on_c, 0, 71, 64
2, 10406, Note_on_c, 0, 71, 0
2, 10410, Note_on_c, 0, 80, 64
2, 10436, Note_on_c, 0, 80, 0
2, 10440, Note_on_c, 0, 69, 64
2, 10466, Note_on_c, 0, 69, 0
2, 10470, Note_on_c, 0, 80, 64
2, 10496, Note_on_c, 0, 80, 0
2, 10500, Note_on_c, 0, 69, 64
2, 10526, Note_on_c, 0, 69, 0
2, 10530, Note_on_c, 0, 80, 64
2, 10556, Note_on_c, 0, 80, 0
2, 10560, Note_on_c, 0, 69, 64
2, 10586, Note_on_c, 0, 69, 0
2, 10590, Note_on_c, 0, 78, 64
2, 10616, Note_on_c, 0, 78, 0
2, 10620, Note_on_c, 0, 68, 64
2, 10646, Note_on_c, 0, 68, 0
2, 10650, Note_on_c, 0, 78, 64
2, 10676, Note_on_c, 0, 78, 0
2, 10680, Note_on_c, 0, 77, 64
2, 10706, Note_on_c, 0, 77, 0
2, 10710, Note_on_c, 0, 80, 64
2, 10736, Note_on_c, 0, 80, 0
2, 10740, Note_on_c, 0, 73, 64
2, 10766, Note_on_c, 0, 73, 0
2, 10770, Note_on_c, 0, 77, 64
2, 10796, Note_on_c, 0, 77, 0
2, 10800, Note_on_c, 0, 78, 64
2, 10829, Note_on_c, 0, 78, 0
2, 10860, Note_on_c, 0, 73, 64
2, 10889, Note_on_c, 0, 73, 0
2, 10920, Note_on_c, 0, 78, 64
2, 11009, Note_on_c, 0, 78, 0
2, 11010, Note_on_c, 0, 76, 64
2, 11040, Note_on_c, 0, 75, 64
2, 11044, Note_on_c, 0, 76, 0
2, 11069, Note_on_c, 0, 75, 0
2, 11070, Note_on_c, 0, 73, 64
2, 11096, Note_on_c, 0, 73, 0
2, 11100, Note_on_c, 0, 71, 64
2, 11212, Note_on_c, 0, 71, 0
2, 11220, Note_on_c, 0, 71, 64
2, 11249, Note_on_c, 0, 71, 0
2, 11280, Note_on_c, 0, 76, 64
2, 11366, Note_on_c, 0, 76, 0
2, 11370, Note_on_c, 0, 74, 64
2, 11396, Note_on_c, 0, 74, 0
2, 11400, Note_on_c, 0, 73, 64
2, 11426, Note_on_c, 0, 73, 0
2, 11430, Note_on_c, 0, 71, 64
2, 11456, Note_on_c, 0, 71, 0
2, 11460, Note_on_c, 0, 69, 64
2, 11572, Note_on_c, 0, 69, 0
2, 11580, Note_on_c, 0, 69, 64
2, 11619, Note_on_c, 0, 69, 0
2, 11640, Note_on_c, 0, 74, 64
2, 11778, Note_on_c, 0, 74, 0
2, 11790, Note_on_c, 0, 74, 64
2, 11816, Note_on_c, 0, 74, 0
2, 11820, Note_on_c, 0, 73, 64
2, 11846, Note_on_c, 0, 73, 0
2, 11850, Note_on_c, 0, 71, 64
2, 11876, Note_on_c, 0, 71, 0
2, 11880, Note_on_c, 0, 70, 64
2, 11932, Note_on_c, 0, 70, 0
2, 11940, Note_on_c, 0, 71, 64
2, 11992, Note_on_c, 0, 71, 0
2, 12000, Note_on_c, 0, 73, 64
2, 12052, Note_on_c, 0, 73, 0
2, 12060, Note_on_c, 0, 74, 64
2, 12266, Note_on_c, 0, 74, 0
2, 12270, Note_on_c, 0, 73, 64
2, 12300, Note_on_c, 0, 74, 64
2, 12304, Note_on_c, 0, 73, 0
2, 12330, Note_on_c, 0, 76, 64
2, 12334, Note_on_c, 0, 74, 0
2, 12360, Note_on_c, 0, 78, 64
2, 12364, Note_on_c, 0, 76, 0
2, 12390, Note_on_c, 0, 79, 64
2, 12399, Note_on_c, 0, 78, 0
2, 12416, Note_on_c, 0, 79, 0
2, 12420, Note_on_c, 0, 70, 64
2, 12525, Note_on_c, 0, 70, 0
2, 13170, Note_on_c, 0, 79, 64
2, 13196, Note_on_c, 0, 79, 0
2, 13200, Note_on_c, 0, 69, 64
2, 13226, Note_on_c, 0, 69, 0
2, 13230, Note_on_c, 0, 79, 64
2, 13256, Note_on_c, 0, 79, 0
2, 13260, Note_on_c, 0, 69, 64
2, 13286, Note_on_c, 0, 69, 0
2, 13290, Note_on_c, 0, 78, 64
2, 13316, Note_on_c, 0, 78, 0
2, 13320, Note_on_c, 0, 67, 64
2, 13346, Note_on_c, 0, 67, 0
2, 13350, Note_on_c, 0, 78, 64
2, 13376, Note_on_c, 0, 78, 0
2, 13380, Note_on_c, 0, 67, 64
2, 13406, Note_on_c, 0, 67, 0
2, 13410, Note_on_c, 0, 78, 64
2, 13436, Note_on_c, 0, 78, 0
2, 13440, Note_on_c, 0, 67, 64
2, 13466, Note_on_c, 0, 67, 0
2, 13470, Note_on_c, 0, 76, 64
2, 13496, Note_on_c, 0, 76, 0
2, 13500, Note_on_c, 0, 66, 64
2, 13526, Note_on_c, 0, 66, 0
2, 13530, Note_on_c, 0, 76, 64
2, 13556, Note_on_c, 0, 76, 0
2, 13560, Note_on_c, 0, 75, 64
2, 13586, Note_on_c, 0, 75, 0
2, 13590, Note_on_c, 0, 78, 64
2, 13616, Note_on_c, 0, 78, 0
2, 13620, Note_on_c, 0, 71, 64
2, 13646, Note_on_c, 0, 71, 0
2, 13650, Note_on_c, 0, 75, 64
2, 13676, Note_on_c, 0, 75, 0
2, 13680, Note_on_c, 0, 76, 64
2, 13706, Note_on_c, 0, 76, 0
2, 13710, Note_on_c, 0, 75, 64
2, 13736, Note_on_c, 0, 75, 0
2, 13740, Note_on_c, 0, 76, 64
2, 13766, Note_on_c, 0, 76, 0
2, 13770, Note_on_c, 0, 79, 64
2, 13796, Note_on_c, 0, 79, 0
2, 13800, Note_on_c, 0, 83, 64
2, 13826, Note_on_c, 0, 83, 0
2, 13830, Note_on_c, 0, 74, 64
2, 13856, Note_on_c, 0, 74, 0
2, 13860, Note_on_c, 0, 73, 64
2, 13886, Note_on_c, 0, 73, 0
2, 13890, Note_on_c, 0, 71, 64
2, 13916, Note_on_c, 0, 71, 0
2, 13920, Note_on_c, 0, 73, 64
2, 13946, Note_on_c, 0, 73, 0
2, 13950, Note_on_c, 0, 76, 64
2, 13976, Note_on_c, 0, 76, 0
2, 13980, Note_on_c, 0, 69, 64
2, 14006, Note_on_c, 0, 69, 0
2, 14010, Note_on_c, 0, 73, 64
2, 14036, Note_on_c, 0, 73, 0
2, 14040, Note_on_c, 0, 74, 64
2, 14066, Note_on_c, 0, 74, 0
2, 14070, Note_on_c, 0, 73, 64
2, 14096, Note_on_c, 0, 73, 0
2, 14100, Note_on_c, 0, 74, 64
2, 14126, Note_on_c, 0, 74, 0
2, 14130, Note_on_c, 0, 78, 64
2, 14156, Note_on_c, 0, 78, 0
2, 14160, Note_on_c, 0, 81, 64
2, 14186, Note_on_c, 0, 81, 0
2, 14190, Note_on_c, 0, 73, 64
2, 14216, Note_on_c, 0, 73, 0
2, 14220, Note_on_c, 0, 71, 64
2, 14246, Note_on_c, 0, 71, 0
2, 14250, Note_on_c, 0, 70, 64
2, 14276, Note_on_c, 0, 70, 0
2, 14280, Note_on_c, 0, 71, 64
2, 14306, Note_on_c, 0, 71, 0
2, 14310, Note_on_c, 0, 74, 64
2, 14336, Note_on_c, 0, 74, 0
2, 14340, Note_on_c, 0, 73, 64
2, 14366, Note_on_c, 0, 73, 0
2, 14370, Note_on_c, 0, 71, 64
2, 14396, Note_on_c, 0, 71, 0
2, 14400, Note_on_c, 0, 70, 64
2, 14426, Note_on_c, 0, 70, 0
2, 14430, Note_on_c, 0, 71, 64
2, 14456, Note_on_c, 0, 71, 0
2, 14460, Note_on_c, 0, 73, 64
2, 14486, Note_on_c, 0, 73, 0
2, 14490, Note_on_c, 0, 74, 64
2, 14516, Note_on_c, 0, 74, 0
2, 14520, Note_on_c, 0, 76, 64
2, 14632, Note_on_c, 0, 76, 0
2, 14640, Note_on_c, 0, 73, 64
2, 14674, Note_on_c, 0, 73, 0
2, 14700, Note_on_c, 0, 78, 64
2, 14729, Note_on_c, 0, 78, 0
2, 14760, Note_on_c, 0, 74, 64
2, 14794, Note_on_c, 0, 74, 0
2, 14820, Note_on_c, 0, 71, 64
2, 14849, Note_on_c, 0, 71, 0
2, 14880, Note_on_c, 0, 70, 64
2, 14909, Note_on_c, 0, 70, 0
2, 14940, Note_on_c, 0, 71, 64
2, 14992, Note_on_c, 0, 71, 0
2, 15000, Note_on_c, 0, 73, 64
2, 15026, Note_on_c, 0, 73, 0
2, 15030, Note_on_c, 0, 74, 64
2, 15056, Note_on_c, 0, 74, 0
2, 15060, Note_on_c, 0, 76, 64
2, 15086, Note_on_c, 0, 76, 0
2, 15090, Note_on_c, 0, 78, 64
2, 15116, Note_on_c, 0, 78, 0
2, 15120, Note_on_c, 0, 79, 64
2, 15154, Note_on_c, 0, 79, 0
2, 15180, Note_on_c, 0, 67, 64
2, 15214, Note_on_c, 0, 67, 0
2, 15240, Note_on_c, 0, 79, 64
2, 15274, Note_on_c, 0, 79, 0
2, 15300, Note_on_c, 0, 78, 64
2, 15334, Note_on_c, 0, 78, 0
2, 15360, Note_on_c, 0, 66, 64
2, 15394, Note_on_c, 0, 66, 0
2, 15420, Note_on_c, 0, 78, 64
2, 15454, Note_on_c, 0, 78, 0
2, 15480, Note_on_c, 0, 76, 64
2, 15532, Note_on_c, 0, 76, 0
2, 15540, Note_on_c, 0, 78, 64
2, 15566, Note_on_c, 0, 78, 0
2, 15570, Note_on_c, 0, 76, 64
2, 15596, Note_on_c, 0, 76, 0
2, 15600, Note_on_c, 0, 74, 64
2, 15626, Note_on_c, 0, 74, 0
2, 15630, Note_on_c, 0, 73, 64
2, 15656, Note_on_c, 0, 73, 0
2, 15660, Note_on_c, 0, 74, 64
2, 15712, Note_on_c, 0, 74, 0
2, 15720, Note_on_c, 0, 76, 64
2, 15779, Note_on_c, 0, 76, 0
2, 15780, Note_on_c, 0, 78, 64
2, 15899, Note_on_c, 0, 78, 0
2, 15900, Note_on_c, 0, 76, 64
2, 15959, Note_on_c, 0, 76, 0
2, 15960, Note_on_c, 0, 74, 64
2, 16020, Note_on_c, 0, 73, 64
2, 16024, Note_on_c, 0, 74, 0
2, 16080, Note_on_c, 0, 74, 64
2, 16084, Note_on_c, 0, 73, 0
2, 16140, Note_on_c, 0, 76, 64
2, 16144, Note_on_c, 0, 74, 0
2, 16259, Note_on_c, 0, 76, 0
2, 16260, Note_on_c, 0, 74, 64
2, 16319, Note_on_c, 0, 74, 0
2, 16320, Note_on_c, 0, 73, 64
2, 16379, Note_on_c, 0, 73, 0
2, 16380, Note_on_c, 0, 71, 64
2, 16499, Note_on_c, 0, 71, 0
2, 16500, Note_on_c, 0, 73, 64
2, 16559, Note_on_c, 0, 73, 0
2, 16560, Note_on_c, 0, 74, 64
2, 16594, Note_on_c, 0, 74, 0
2, 16620, Note_on_c, 0, 69, 64
2, 16679, Note_on_c, 0, 69, 0
2, 16680, Note_on_c, 0, 71, 64
2, 16739, Note_on_c, 0, 71, 0
2, 16740, Note_on_c, 0, 72, 64
2, 16799, Note_on_c, 0, 72, 0
2, 16800, Note_on_c, 0, 73, 64
2, 16859, Note_on_c, 0, 73, 0
2, 16860, Note_on_c, 0, 75, 64
2, 16920, Note_on_c, 0, 76, 64
2, 16924, Note_on_c, 0, 75, 0
2, 16959, Note_on_c, 0, 76, 0
2, 16980, Note_on_c, 0, 71, 64
2, 17039, Note_on_c, 0, 71, 0
2, 17040, Note_on_c, 0, 73, 64
2, 17099, Note_on_c, 0, 73, 0
2, 17100, Note_on_c, 0, 74, 64
2, 17159, Note_on_c, 0, 74, 0
2, 17160, Note_on_c, 0, 75, 64
2, 17219, Note_on_c, 0, 75, 0
2, 17220, Note_on_c, 0, 77, 64
2, 17279, Note_on_c, 0, 77, 0
2, 17280, Note_on_c, 0, 78, 64
2, 17385, Note_on_c, 0, 78, 0
2, 17790, Note_on_c, 0, 78, 64
2, 17816, Note_on_c, 0, 78, 0
2, 17820, Note_on_c, 0, 76, 64
2, 17846, Note_on_c, 0, 76, 0
2, 17850, Note_on_c, 0, 74, 64
2, 17876, Note_on_c, 0, 74, 0
2, 17880, Note_on_c, 0, 73, 64
2, 17906, Note_on_c, 0, 73, 0
2, 17910, Note_on_c, 0, 71, 64
2, 17936, Note_on_c, 0, 71, 0
2, 17940, Note_on_c, 0, 73, 64
2, 17966, Note_on_c, 0, 73, 0
2, 17970, Note_on_c, 0, 70, 64
2, 17996, Note_on_c, 0, 70, 0
2, 18000, Note_on_c, 0, 70, 64
2, 18060, Note_on_c, 0, 71, 64
2, 18064, Note_on_c, 0, 70, 0
2, 18239, Note_on_c, 0, 71, 0
2, 18239, End_track
3, 0, Start_track
3, 0, MIDI_port, 0
3, 0, Title_t, "Fugue in B minor"
3, 0, Program_c, 1, 6
3, 120, Note_on_c, 1, 66, 64
3, 154, Note_on_c, 1, 66, 0
3, 180, Note_on_c, 1, 62, 64
3, 214, Note_on_c, 1, 62, 0
3, 240, Note_on_c, 1, 59, 64
3, 274, Note_on_c, 1, 59, 0
3, 300, Note_on_c, 1, 58, 64
3, 334, Note_on_c, 1, 58, 0
3, 360, Note_on_c, 1, 59, 64
3, 419, Note_on_c, 1, 59, 0
3, 420, Note_on_c, 1, 61, 64
3, 450, Note_on_c, 1, 62, 64
3, 454, Note_on_c, 1, 61, 0
3, 480, Note_on_c, 1, 64, 64
3, 484, Note_on_c, 1, 62, 0
3, 510, Note_on_c, 1, 66, 64
3, 514, Note_on_c, 1, 64, 0
3, 540, Note_on_c, 1, 67, 64
3, 544, Note_on_c, 1, 66, 0
3, 574, Note_on_c, 1, 67, 0
3, 600, Note_on_c, 1, 55, 64
3, 634, Note_on_c, 1, 55, 0
3, 660, Note_on_c, 1, 67, 64
3, 694, Note_on_c, 1, 67, 0
3, 720, Note_on_c, 1, 66, 64
3, 754, Note_on_c, 1, 66, 0
3, 780, Note_on_c, 1, 54, 64
3, 814, Note_on_c, 1, 54, 0
3, 840, Note_on_c, 1, 66, 64
3, 874, Note_on_c, 1, 66, 0
3, 900, Note_on_c, 1, 64, 64
3, 959, Note_on_c, 1, 64, 0
3, 960, Note_on_c, 1, 66, 64
3, 986, Note_on_c, 1, 66, 0
3, 990, Note_on_c, 1, 64, 64
3, 1016, Note_on_c, 1, 64, 0
3, 1020, Note_on_c, 1, 62, 64
3, 1049, Note_on_c, 1, 62, 0
3, 1050, Note_on_c, 1, 61, 64
3, 1076, Note_on_c, 1, 61, 0
3, 1080, Note_on_c, 1, 62, 64
3, 1106, Note_on_c, 1, 62, 0
3, 1110, Note_on_c, 1, 66, 64
3, 1136, Note_on_c, 1, 66, 0
3, 1140, Note_on_c, 1, 64, 64
3, 1166, Note_on_c, 1, 64, 0
3, 1170, Note_on_c, 1, 62, 64
3, 1196, Note_on_c, 1, 62, 0
3, 1200, Note_on_c, 1, 61, 64
3, 1226, Note_on_c, 1, 61, 0
3, 1230, Note_on_c, 1, 59, 64
3, 1256, Note_on_c, 1, 59, 0
3, 1260, Note_on_c, 1, 61, 64
3, 1286, Note_on_c, 1, 61, 0
3, 1290, Note_on_c, 1, 59, 64
3, 1320, Note_on_c, 1, 61, 64
3, 1324, Note_on_c, 1, 59, 0
3, 1350, Note_on_c, 1, 62, 64
3, 1354, Note_on_c, 1, 61, 0
3, 1380, Note_on_c, 1, 61, 64
3, 1384, Note_on_c, 1, 62, 0
3, 1409, Note_on_c, 1, 61, 0
3, 1410, Note_on_c, 1, 59, 64
3, 1436, Note_on_c, 1, 59, 0
3, 1440, Note_on_c, 1, 57, 64
3, 1474, Note_on_c, 1, 57, 0
3, 1500, Note_on_c, 1, 54, 64
3, 1534, Note_on_c, 1, 54, 0
3, 1560, Note_on_c, 1, 53, 64
3, 1599, Note_on_c, 1, 53, 0
3, 1620, Note_on_c, 1, 54, 64
3, 1649, Note_on_c, 1, 54, 0
3, 1650, Note_on_c, 1, 56, 64
3, 1676, Note_on_c, 1, 56, 0
3, 1680, Note_on_c, 1, 57, 64
3, 1700, Note_on_c, 1, 56, 64
3, 1709, Note_on_c, 1, 57, 0
3, 1710, Note_on_c, 1, 57, 64
3, 1719, Note_on_c, 1, 56, 0
3, 1720, Note_on_c, 1, 56, 64
3, 1729, Note_on_c, 1, 57, 0
3, 1730, Note_on_c, 1, 57, 64
3, 1739, Note_on_c, 1, 56, 0
3, 1740, Note_on_c, 1, 56, 64
3, 1749, Note_on_c, 1, 57, 0
3, 1750, Note_on_c, 1, 57, 64
3, 1759, Note_on_c, 1, 56, 0
3, 1760, Note_on_c, 1, 56, 64
3, 1769, Note_on_c, 1, 57, 0
3, 1770, Note_on_c, 1, 54, 64
3, 1779, Note_on_c, 1, 56, 0
3, 1783, Note_on_c, 1, 54, 0
3, 1785, Note_on_c, 1, 56, 64
3, 1798, Note_on_c, 1, 56, 0
3, 1800, Note_on_c, 1, 57, 64
3, 1826, Note_on_c, 1, 57, 0
3, 1830, Note_on_c, 1, 59, 64
3, 1856, Note_on_c, 1, 59, 0
3, 1860, Note_on_c, 1, 57, 64
3, 1886, Note_on_c, 1, 57, 0
3, 1890, Note_on_c, 1, 56, 64
3, 1916, Note_on_c, 1, 56, 0
3, 1920, Note_on_c, 1, 54, 64
3, 1946, Note_on_c, 1, 54, 0
3, 1950, Note_on_c, 1, 52, 64
3, 1976, Note_on_c, 1, 52, 0
3, 1980, Note_on_c, 1, 51, 64
3, 2006, Note_on_c, 1, 51, 0
3, 2010, Note_on_c, 1, 53, 64
3, 2036, Note_on_c, 1, 53, 0
3, 2040, Note_on_c, 1, 54, 64
3, 2055, Note_on_c, 1, 53, 64
3, 2064, Note_on_c, 1, 54, 0
3, 2065, Note_on_c, 1, 54, 64
3, 2074, Note_on_c, 1, 53, 0
3, 2075, Note_on_c, 1, 53, 64
3, 2084, Note_on_c, 1, 54, 0
3, 2085, Note_on_c, 1, 54, 64
3, 2094, Note_on_c, 1, 53, 0
3, 2095, Note_on_c, 1, 53, 64
3, 2104, Note_on_c, 1, 54, 0
3, 2105, Note_on_c, 1, 54, 64
3, 2114, Note_on_c, 1, 53, 0
3, 2115, Note_on_c, 1, 53, 64
3, 2124, Note_on_c, 1, 54, 0
3, 2130, Note_on_c, 1, 51, 64
3, 2134, Note_on_c, 1, 53, 0
3, 2143, Note_on_c, 1, 51, 0
3, 2145, Note_on_c, 1, 53, 64
3, 2158, Note_on_c, 1, 53, 0
3, 2160, Note_on_c, 1, 54, 64
3, 2212, Note_on_c, 1, 54, 0
3, 2220, Note_on_c, 1, 56, 64
3, 2272, Note_on_c, 1, 56, 0
3, 2280, Note_on_c, 1, 57, 64
3, 2332, Note_on_c, 1, 57, 0
3, 2340, Note_on_c, 1, 59, 64
3, 2366, Note_on_c, 1, 59, 0
3, 2370, Note_on_c, 1, 61, 64
3, 2396, Note_on_c, 1, 61, 0
3, 2400, Note_on_c, 1, 62, 64
3, 2415, Note_on_c, 1, 61, 64
3, 2424, Note_on_c, 1, 62, 0
3, 2425, Note_on_c, 1, 62, 64
3, 2434, Note_on_c, 1, 61, 0
3, 2435, Note_on_c, 1, 61, 64
3, 2444, Note_on_c, 1, 62, 0
3, 2445, Note_on_c, 1, 62, 64
3, 2454, Note_on_c, 1, 61, 0
3, 2455, Note_on_c, 1, 61, 64
3, 2464, Note_on_c, 1, 62, 0
3, 2465, Note_on_c, 1, 62, 64
3, 2474, Note_on_c, 1, 61, 0
3, 2475, Note_on_c, 1, 61, 64
3, 2484, Note_on_c, 1, 62, 0
3, 2490, Note_on_c, 1, 59, 64
3, 2494, Note_on_c, 1, 61, 0
3, 2503, Note_on_c, 1, 59, 0
3, 2505, Note_on_c, 1, 61, 64
3, 2518, Note_on_c, 1, 61, 0
3, 2520, Note_on_c, 1, 62, 64
3, 2554, Note_on_c, 1, 62, 0
3, 2580, Note_on_c, 1, 58, 64
3, 2614, Note_on_c, 1, 58, 0
3, 2640, Note_on_c, 1, 59, 64
3, 2759, Note_on_c, 1, 59, 0
3, 2760, Note_on_c, 1, 58, 64
3, 2789, Note_on_c, 1, 58, 0
3, 2790, Note_on_c, 1, 56, 64
3, 2819, Note_on_c, 1, 56, 0
3, 2820, Note_on_c, 1, 58, 64
3, 2880, Note_on_c, 1, 59, 64
3, 2884, Note_on_c, 1, 58, 0
3, 2932, Note_on_c, 1, 59, 0
3, 3030, Note_on_c, 1, 64, 64
3, 3056, Note_on_c, 1, 64, 0
3, 3060, Note_on_c, 1, 62, 64
3, 3094, Note_on_c, 1, 62, 0
3, 3120, Note_on_c, 1, 59, 64
3, 3154, Note_on_c, 1, 59, 0
3, 3180, Note_on_c, 1, 58, 64
3, 3214, Note_on_c, 1, 58, 0
3, 3240, Note_on_c, 1, 59, 64
3, 3269, Note_on_c, 1, 59, 0
3, 3270, Note_on_c, 1, 61, 64
3, 3296, Note_on_c, 1, 61, 0
3, 3300, Note_on_c, 1, 62, 64
3, 3315, Note_on_c, 1, 61, 64
3, 3324, Note_on_c, 1, 62, 0
3, 3325, Note_on_c, 1, 62, 64
3, 3334, Note_on_c, 1, 61, 0
3, 3335, Note_on_c, 1, 61, 64
3, 3344, Note_on_c, 1, 62, 0
3, 3345, Note_on_c, 1, 62, 64
3, 3354, Note_on_c, 1, 61, 0
3, 3355, Note_on_c, 1, 61, 64
3, 3364, Note_on_c, 1, 62, 0
3, 3365, Note_on_c, 1, 62, 64
3, 3374, Note_on_c, 1, 61, 0
3, 3375, Note_on_c, 1, 61, 64
3, 3384, Note_on_c, 1, 62, 0
3, 3390, Note_on_c, 1, 59, 64
3, 3394, Note_on_c, 1, 61, 0
3, 3403, Note_on_c, 1, 59, 0
3, 3405, Note_on_c, 1, 61, 64
3, 3418, Note_on_c, 1, 61, 0
3, 3420, Note_on_c, 1, 62, 64
3, 3446, Note_on_c, 1, 62, 0
3, 3450, Note_on_c, 1, 64, 64
3, 3480, Note_on_c, 1, 62, 64
3, 3484, Note_on_c, 1, 64, 0
3, 3510, Note_on_c, 1, 61, 64
3, 3514, Note_on_c, 1, 62, 0
3, 3539, Note_on_c, 1, 61, 0
3, 3540, Note_on_c, 1, 59, 64
3, 3566, Note_on_c, 1, 59, 0
3, 3570, Note_on_c, 1, 57, 64
3, 3596, Note_on_c, 1, 57, 0
3, 3600, Note_on_c, 1, 56, 64
3, 3626, Note_on_c, 1, 56, 0
3, 3630, Note_on_c, 1, 58, 64
3, 3656, Note_on_c, 1, 58, 0
3, 3660, Note_on_c, 1, 59, 64
3, 3675, Note_on_c, 1, 58, 64
3, 3684, Note_on_c, 1, 59, 0
3, 3685, Note_on_c, 1, 59, 64
3, 3694, Note_on_c, 1, 58, 0
3, 3695, Note_on_c, 1, 58, 64
3, 3704, Note_on_c, 1, 59, 0
3, 3705, Note_on_c, 1, 59, 64
3, 3714, Note_on_c, 1, 58, 0
3, 3715, Note_on_c, 1, 58, 64
3, 3724, Note_on_c, 1, 59, 0
3, 3725, Note_on_c, 1, 59, 64
3, 3734, Note_on_c, 1, 58, 0
3, 3735, Note_on_c, 1, 58, 64
3, 3744, Note_on_c, 1, 59, 0
3, 3750, Note_on_c, 1, 56, 64
3, 3754, Note_on_c, 1, 58, 0
3, 3763, Note_on_c, 1, 56, 0
3, 3765, Note_on_c, 1, 58, 64
3, 3778, Note_on_c, 1, 58, 0
3, 3780, Note_on_c, 1, 59, 64
3, 3885, Note_on_c, 1, 59, 0
3, 4800, Note_on_c, 1, 61, 64
3, 4834, Note_on_c, 1, 61, 0
3, 4860, Note_on_c, 1, 57, 64
3, 4894, Note_on_c, 1, 57, 0
3, 4920, Note_on_c, 1, 54, 64
3, 4954, Note_on_c, 1, 54, 0
3, 4980, Note_on_c, 1, 53, 64
3, 5014, Note_on_c, 1, 53, 0
3, 5040, Note_on_c, 1, 54, 64
3, 5100, Note_on_c, 1, 56, 64
3, 5104, Note_on_c, 1, 54, 0
3, 5130, Note_on_c, 1, 57, 64
3, 5134, Note_on_c, 1, 56, 0
3, 5159, Note_on_c, 1, 57, 0
3, 5160, Note_on_c, 1, 59, 64
3, 5189, Note_on_c, 1, 59, 0
3, 5190, Note_on_c, 1, 61, 64
3, 5216, Note_on_c, 1, 61, 0
3, 5220, Note_on_c, 1, 62, 64
3, 5249, Note_on_c, 1, 62, 0
3, 5280, Note_on_c, 1, 50, 64
3, 5314, Note_on_c, 1, 50, 0
3, 5340, Note_on_c, 1, 62, 64
3, 5374, Note_on_c, 1, 62, 0
3, 5400, Note_on_c, 1, 61, 64
3, 5434, Note_on_c, 1, 61, 0
3, 5460, Note_on_c, 1, 49, 64
3, 5494, Note_on_c, 1, 49, 0
3, 5520, Note_on_c, 1, 61, 64
3, 5554, Note_on_c, 1, 61, 0
3, 5580, Note_on_c, 1, 59, 64
3, 5639, Note_on_c, 1, 59, 0
3, 5640, Note_on_c, 1, 61, 64
3, 5669, Note_on_c, 1, 61, 0
3, 5670, Note_on_c, 1, 59, 64
3, 5699, Note_on_c, 1, 59, 0
3, 5700, Note_on_c, 1, 57, 64
3, 5726, Note_on_c, 1, 57, 0
3, 5730, Note_on_c, 1, 56, 64
3, 5756, Note_on_c, 1, 56, 0
3, 5760, Note_on_c, 1, 57, 64
3, 5819, Note_on_c, 1, 57, 0
3, 5820, Note_on_c, 1, 59, 64
3, 5879, Note_on_c, 1, 59, 0
3, 5880, Note_on_c, 1, 61, 64
3, 6000, Note_on_c, 1, 59, 64
3, 6004, Note_on_c, 1, 61, 0
3, 6059, Note_on_c, 1, 59, 0
3, 6060, Note_on_c, 1, 57, 64
3, 6119, Note_on_c, 1, 57, 0
3, 6120, Note_on_c, 1, 55, 64
3, 6179, Note_on_c, 1, 55, 0
3, 6180, Note_on_c, 1, 57, 64
3, 6240, Note_on_c, 1, 59, 64
3, 6244, Note_on_c, 1, 57, 0
3, 6360, Note_on_c, 1, 57, 64
3, 6369, Note_on_c, 1, 59, 0
3, 6412, Note_on_c, 1, 57, 0
3, 6870, Note_on_c, 1, 66, 64
3, 6896, Note_on_c, 1, 66, 0
3, 6900, Note_on_c, 1, 55, 64
3, 6926, Note_on_c, 1, 55, 0
3, 6930, Note_on_c, 1, 66, 64
3, 6956, Note_on_c, 1, 66, 0
3, 6960, Note_on_c, 1, 55, 64
3, 6986, Note_on_c, 1, 55, 0
3, 6990, Note_on_c, 1, 64, 64
3, 7016, Note_on_c, 1, 64, 0
3, 7020, Note_on_c, 1, 54, 64
3, 7046, Note_on_c, 1, 54, 0
3, 7050, Note_on_c, 1, 64, 64
3, 7076, Note_on_c, 1, 64, 0
3, 7080, Note_on_c, 1, 54, 64
3, 7106, Note_on_c, 1, 54, 0
3, 7110, Note_on_c, 1, 64, 64
3, 7136, Note_on_c, 1, 64, 0
3, 7140, Note_on_c, 1, 54, 64
3, 7166, Note_on_c, 1, 54, 0
3, 7170, Note_on_c, 1, 62, 64
3, 7196, Note_on_c, 1, 62, 0
3, 7200, Note_on_c, 1, 52, 64
3, 7226, Note_on_c, 1, 52, 0
3, 7230, Note_on_c, 1, 62, 64
3, 7256, Note_on_c, 1, 62, 0
3, 7260, Note_on_c, 1, 61, 64
3, 7286, Note_on_c, 1, 61, 0
3, 7290, Note_on_c, 1, 64, 64
3, 7316, Note_on_c, 1, 64, 0
3, 7320, Note_on_c, 1, 57, 64
3, 7346, Note_on_c, 1, 57, 0
3, 7350, Note_on_c, 1, 61, 64
3, 7376, Note_on_c, 1, 61, 0
3, 7380, Note_on_c, 1, 62, 64
3, 7406, Note_on_c, 1, 62, 0
3, 7410, Note_on_c, 1, 61, 64
3, 7436, Note_on_c, 1, 61, 0
3, 7440, Note_on_c, 1, 62, 64
3, 7466, Note_on_c, 1, 62, 0
3, 7470, Note_on_c, 1, 64, 64
3, 7496, Note_on_c, 1, 64, 0
3, 7500, Note_on_c, 1, 66, 64
3, 7526, Note_on_c, 1, 66, 0
3, 7530, Note_on_c, 1, 68, 64
3, 7556, Note_on_c, 1, 68, 0
3, 7560, Note_on_c, 1, 69, 64
3, 7586, Note_on_c, 1, 69, 0
3, 7590, Note_on_c, 1, 68, 64
3, 7616, Note_on_c, 1, 68, 0
3, 7620, Note_on_c, 1, 69, 64
3, 7646, Note_on_c, 1, 69, 0
3, 7650, Note_on_c, 1, 71, 64
3, 7676, Note_on_c, 1, 71, 0
3, 7680, Note_on_c, 1, 69, 64
3, 7706, Note_on_c, 1, 69, 0
3, 7710, Note_on_c, 1, 68, 64
3, 7736, Note_on_c, 1, 68, 0
3, 7740, Note_on_c, 1, 66, 64
3, 7766, Note_on_c, 1, 66, 0
3, 7770, Note_on_c, 1, 64, 64
3, 7796, Note_on_c, 1, 64, 0
3, 7800, Note_on_c, 1, 66, 64
3, 7826, Note_on_c, 1, 66, 0
3, 7830, Note_on_c, 1, 68, 64
3, 7856, Note_on_c, 1, 68, 0
3, 7860, Note_on_c, 1, 69, 64
3, 7886, Note_on_c, 1, 69, 0
3, 7890, Note_on_c, 1, 66, 64
3, 7916, Note_on_c, 1, 66, 0
3, 7920, Note_on_c, 1, 68, 64
3, 7946, Note_on_c, 1, 68, 0
3, 7950, Note_on_c, 1, 64, 64
3, 7976, Note_on_c, 1, 64, 0
3, 7980, Note_on_c, 1, 66, 64
3, 8006, Note_on_c, 1, 66, 0
3, 8010, Note_on_c, 1, 64, 64
3, 8036, Note_on_c, 1, 64, 0
3, 8040, Note_on_c, 1, 68, 64
3, 8066, Note_on_c, 1, 68, 0
3, 8070, Note_on_c, 1, 64, 64
3, 8096, Note_on_c, 1, 64, 0
3, 8100, Note_on_c, 1, 69, 64
3, 8126, Note_on_c, 1, 69, 0
3, 8130, Note_on_c, 1, 64, 64
3, 8156, Note_on_c, 1, 64, 0
3, 8160, Note_on_c, 1, 73, 64
3, 8186, Note_on_c, 1, 73, 0
3, 8190, Note_on_c, 1, 64, 64
3, 8216, Note_on_c, 1, 64, 0
3, 8220, Note_on_c, 1, 71, 64
3, 8246, Note_on_c, 1, 71, 0
3, 8250, Note_on_c, 1, 64, 64
3, 8276, Note_on_c, 1, 64, 0
3, 8280, Note_on_c, 1, 69, 64
3, 8370, Note_on_c, 1, 68, 64
3, 8374, Note_on_c, 1, 69, 0
3, 8400, Note_on_c, 1, 66, 64
3, 8404, Note_on_c, 1, 68, 0
3, 8429, Note_on_c, 1, 66, 0
3, 8430, Note_on_c, 1, 64, 64
3, 8456, Note_on_c, 1, 64, 0
3, 8460, Note_on_c, 1, 62, 64
3, 8489, Note_on_c, 1, 62, 0
3, 8520, Note_on_c, 1, 69, 64
3, 8554, Note_on_c, 1, 69, 0
3, 8580, Note_on_c, 1, 68, 64
3, 8614, Note_on_c, 1, 68, 0
3, 8700, Note_on_c, 1, 68, 64
3, 8734, Note_on_c, 1, 68, 0
3, 8760, Note_on_c, 1, 66, 64
3, 8794, Note_on_c, 1, 66, 0
3, 8880, Note_on_c, 1, 64, 64
3, 8940, Note_on_c, 1, 62, 64
3, 8944, Note_on_c, 1, 64, 0
3, 9059, Note_on_c, 1, 62, 0
3, 9060, Note_on_c, 1, 61, 64
3, 9120, Note_on_c, 1, 60, 64
3, 9124, Note_on_c, 1, 61, 0
3, 9239, Note_on_c, 1, 60, 0
3, 9240, Note_on_c, 1, 59, 64
3, 9274, Note_on_c, 1, 59, 0
3, 9300, Note_on_c, 1, 64, 64
3, 9420, Note_on_c, 1, 63, 64
3, 9424, Note_on_c, 1, 64, 0
3, 9479, Note_on_c, 1, 63, 0
3, 9480, Note_on_c, 1, 62, 64
3, 9600, Note_on_c, 1, 61, 64
3, 9604, Note_on_c, 1, 62, 0
3, 9634, Note_on_c, 1, 61, 0
3, 9660, Note_on_c, 1, 66, 64
3, 9780, Note_on_c, 1, 65, 64
3, 9784, Note_on_c, 1, 66, 0
3, 9819, Note_on_c, 1, 65, 0
3, 9840, Note_on_c, 1, 73, 64
3, 9874, Note_on_c, 1, 73, 0
3, 9900, Note_on_c, 1, 69, 64
3, 9934, Note_on_c, 1, 69, 0
3, 9960, Note_on_c, 1, 66, 64
3, 9994, Note_on_c, 1, 66, 0
3, 10020, Note_on_c, 1, 65, 64
3, 10054, Note_on_c, 1, 65, 0
3, 10080, Note_on_c, 1, 66, 64
3, 10140, Note_on_c, 1, 68, 64
3, 10144, Note_on_c, 1, 66, 0
3, 10170, Note_on_c, 1, 70, 64
3, 10174, Note_on_c, 1, 68, 0
3, 10200, Note_on_c, 1, 71, 64
3, 10204, Note_on_c, 1, 70, 0
3, 10230, Note_on_c, 1, 73, 64
3, 10234, Note_on_c, 1, 71, 0
3, 10260, Note_on_c, 1, 74, 64
3, 10269, Note_on_c, 1, 73, 0
3, 10289, Note_on_c, 1, 74, 0
3, 10320, Note_on_c, 1, 62, 64
3, 10354, Note_on_c, 1, 62, 0
3, 10380, Note_on_c, 1, 74, 64
3, 10409, Note_on_c, 1, 74, 0
3, 10440, Note_on_c, 1, 73, 64
3, 10474, Note_on_c, 1, 73, 0
3, 10500, Note_on_c, 1, 61, 64
3, 10529, Note_on_c, 1, 61, 0
3, 10560, Note_on_c, 1, 73, 64
3, 10594, Note_on_c, 1, 73, 0
3, 10620, Note_on_c, 1, 71, 64
3, 10680, Note_on_c, 1, 73, 64
3, 10684, Note_on_c, 1, 71, 0
3, 10710, Note_on_c, 1, 71, 64
3, 10714, Note_on_c, 1, 73, 0
3, 10740, Note_on_c, 1, 69, 64
3, 10744, Note_on_c, 1, 71, 0
3, 10770, Note_on_c, 1, 68, 64
3, 10774, Note_on_c, 1, 69, 0
3, 10796, Note_on_c, 1, 68, 0
3, 10800, Note_on_c, 1, 69, 64
3, 11126, Note_on_c, 1, 69, 0
3, 11130, Note_on_c, 1, 69, 64
3, 11160, Note_on_c, 1, 67, 64
3, 11164, Note_on_c, 1, 69, 0
3, 11190, Note_on_c, 1, 66, 64
3, 11194, Note_on_c, 1, 67, 0
3, 11220, Note_on_c, 1, 64, 64
3, 11229, Note_on_c, 1, 66, 0
3, 11254, Note_on_c, 1, 64, 0
3, 11280, Note_on_c, 1, 67, 64
3, 11486, Note_on_c, 1, 67, 0
3, 11490, Note_on_c, 1, 67, 64
3, 11520, Note_on_c, 1, 66, 64
3, 11529, Note_on_c, 1, 67, 0
3, 11550, Note_on_c, 1, 64, 64
3, 11554, Note_on_c, 1, 66, 0
3, 11580, Note_on_c, 1, 62, 64
3, 11584, Note_on_c, 1, 64, 0
3, 11609, Note_on_c, 1, 62, 0
3, 11640, Note_on_c, 1, 66, 64
3, 11726, Note_on_c, 1, 66, 0
3, 11730, Note_on_c, 1, 66, 64
3, 11760, Note_on_c, 1, 64, 64
3, 11769, Note_on_c, 1, 66, 0
3, 11906, Note_on_c, 1, 64, 0
3, 11910, Note_on_c, 1, 64, 64
3, 11940, Note_on_c, 1, 62, 64
3, 11944, Note_on_c, 1, 64, 0
3, 11970, Note_on_c, 1, 61, 64
3, 11974, Note_on_c, 1, 62, 0
3, 12000, Note_on_c, 1, 59, 64
3, 12004, Note_on_c, 1, 61, 0
3, 12030, Note_on_c, 1, 58, 64
3, 12034, Note_on_c, 1, 59, 0
3, 12056, Note_on_c, 1, 58, 0
3, 12060, Note_on_c, 1, 59, 64
3, 12094, Note_on_c, 1, 59, 0
3, 12120, Note_on_c, 1, 66, 64
3, 12154, Note_on_c, 1, 66, 0
3, 12180, Note_on_c, 1, 71, 64
3, 12299, Note_on_c, 1, 71, 0
3, 12300, Note_on_c, 1, 59, 64
3, 12334, Note_on_c, 1, 59, 0
3, 12360, Note_on_c, 1, 64, 64
3, 12450, Note_on_c, 1, 67, 64
3, 12454, Note_on_c, 1, 64, 0
3, 12480, Note_on_c, 1, 66, 64
3, 12484, Note_on_c, 1, 67, 0
3, 12510, Note_on_c, 1, 64, 64
3, 12514, Note_on_c, 1, 66, 0
3, 12540, Note_on_c, 1, 62, 64
3, 12544, Note_on_c, 1, 64, 0
3, 12570, Note_on_c, 1, 61, 64
3, 12574, Note_on_c, 1, 62, 0
3, 12596, Note_on_c, 1, 61, 0
3, 12600, Note_on_c, 1, 62, 64
3, 12629, Note_on_c, 1, 62, 0
3, 12660, Note_on_c, 1, 59, 64
3, 12689, Note_on_c, 1, 59, 0
3, 12720, Note_on_c, 1, 58, 64
3, 12754, Note_on_c, 1, 58, 0
3, 12780, Note_on_c, 1, 59, 64
3, 12840, Note_on_c, 1, 61, 64
3, 12844, Note_on_c, 1, 59, 0
3, 12870, Note_on_c, 1, 63, 64
3, 12874, Note_on_c, 1, 61, 0
3, 12900, Note_on_c, 1, 64, 64
3, 12904, Note_on_c, 1, 63, 0
3, 12930, Note_on_c, 1, 66, 64
3, 12934, Note_on_c, 1, 64, 0
3, 12960, Note_on_c, 1, 67, 64
3, 12964, Note_on_c, 1, 66, 0
3, 12994, Note_on_c, 1, 67, 0
3, 13020, Note_on_c, 1, 64, 64
3, 13054, Note_on_c, 1, 64, 0
3, 13080, Note_on_c, 1, 63, 64
3, 13114, Note_on_c, 1, 63, 0
3, 13140, Note_on_c, 1, 64, 64
3, 13174, Note_on_c, 1, 64, 0
3, 13260, Note_on_c, 1, 64, 64
3, 13294, Note_on_c, 1, 64, 0
3, 13320, Note_on_c, 1, 63, 64
3, 13349, Note_on_c, 1, 63, 0
3, 13440, Note_on_c, 1, 64, 64
3, 13474, Note_on_c, 1, 64, 0
3, 13500, Note_on_c, 1, 66, 64
3, 13665, Note_on_c, 1, 66, 0
3, 13680, Note_on_c, 1, 59, 64
3, 13709, Note_on_c, 1, 59, 0
3, 13800, Note_on_c, 1, 64, 64
3, 13834, Note_on_c, 1, 64, 0
3, 13860, Note_on_c, 1, 69, 64
3, 13894, Note_on_c, 1, 69, 0
3, 14040, Note_on_c, 1, 57, 64
3, 14074, Note_on_c, 1, 57, 0
3, 14160, Note_on_c, 1, 62, 64
3, 14189, Note_on_c, 1, 62, 0
3, 14220, Note_on_c, 1, 67, 64
3, 14452, Note_on_c, 1, 67, 0
3, 14550, Note_on_c, 1, 67, 64
3, 14580, Note_on_c, 1, 66, 64
3, 14584, Note_on_c, 1, 67, 0
3, 14614, Note_on_c, 1, 66, 0
3, 14640, Note_on_c, 1, 70, 64
3, 14745, Note_on_c, 1, 70, 0
3, 14760, Note_on_c, 1, 71, 64
3, 14812, Note_on_c, 1, 71, 0
3, 15150, Note_on_c, 1, 74, 64
3, 15176, Note_on_c, 1, 74, 0
3, 15180, Note_on_c, 1, 64, 64
3, 15206, Note_on_c, 1, 64, 0
3, 15210, Note_on_c, 1, 74, 64
3, 15236, Note_on_c, 1, 74, 0
3, 15240, Note_on_c, 1, 64, 64
3, 15266, Note_on_c, 1, 64, 0
3, 15270, Note_on_c, 1, 73, 64
3, 15296, Note_on_c, 1, 73, 0
3, 15300, Note_on_c, 1, 62, 64
3, 15326, Note_on_c, 1, 62, 0
3, 15330, Note_on_c, 1, 73, 64
3, 15356, Note_on_c, 1, 73, 0
3, 15360, Note_on_c, 1, 62, 64
3, 15386, Note_on_c, 1, 62, 0
3, 15390, Note_on_c, 1, 73, 64
3, 15416, Note_on_c, 1, 73, 0
3, 15420, Note_on_c, 1, 62, 64
3, 15446, Note_on_c, 1, 62, 0
3, 15450, Note_on_c, 1, 71, 64
3, 15476, Note_on_c, 1, 71, 0
3, 15480, Note_on_c, 1, 61, 64
3, 15532, Note_on_c, 1, 61, 0
3, 15540, Note_on_c, 1, 73, 64
3, 15720, Note_on_c, 1, 71, 64
3, 15724, Note_on_c, 1, 73, 0
3, 15780, Note_on_c, 1, 69, 64
3, 15784, Note_on_c, 1, 71, 0
3, 15840, Note_on_c, 1, 67, 64
3, 15844, Note_on_c, 1, 69, 0
3, 15900, Note_on_c, 1, 69, 64
3, 15904, Note_on_c, 1, 67, 0
3, 15960, Note_on_c, 1, 71, 64
3, 15964, Note_on_c, 1, 69, 0
3, 16080, Note_on_c, 1, 69, 64
3, 16084, Note_on_c, 1, 71, 0
3, 16140, Note_on_c, 1, 67, 64
3, 16144, Note_on_c, 1, 69, 0
3, 16200, Note_on_c, 1, 66, 64
3, 16204, Note_on_c, 1, 67, 0
3, 16260, Note_on_c, 1, 67, 64
3, 16264, Note_on_c, 1, 66, 0
3, 16320, Note_on_c, 1, 69, 64
3, 16324, Note_on_c, 1, 67, 0
3, 16432, Note_on_c, 1, 69, 0
3, 16440, Note_on_c, 1, 62, 64
3, 16474, Note_on_c, 1, 62, 0
3, 16500, Note_on_c, 1, 67, 64
3, 16620, Note_on_c, 1, 66, 64
3, 16624, Note_on_c, 1, 67, 0
3, 16680, Note_on_c, 1, 65, 64
3, 16684, Note_on_c, 1, 66, 0
3, 16800, Note_on_c, 1, 64, 64
3, 16804, Note_on_c, 1, 65, 0
3, 16834, Note_on_c, 1, 64, 0
3, 16860, Note_on_c, 1, 69, 64
3, 16980, Note_on_c, 1, 68, 64
3, 16984, Note_on_c, 1, 69, 0
3, 17040, Note_on_c, 1, 67, 64
3, 17044, Note_on_c, 1, 68, 0
3, 17160, Note_on_c, 1, 66, 64
3, 17164, Note_on_c, 1, 67, 0
3, 17194, Note_on_c, 1, 66, 0
3, 17220, Note_on_c, 1, 71, 64
3, 17339, Note_on_c, 1, 71, 0
3, 17340, Note_on_c, 1, 70, 64
3, 17379, Note_on_c, 1, 70, 0
3, 17400, Note_on_c, 1, 66, 64
3, 17434, Note_on_c, 1, 66, 0
3, 17460, Note_on_c, 1, 62, 64
3, 17494, Note_on_c, 1, 62, 0
3, 17520, Note_on_c, 1, 59, 64
3, 17554, Note_on_c, 1, 59, 0
3, 17580, Note_on_c, 1, 58, 64
3, 17614, Note_on_c, 1, 58, 0
3, 17640, Note_on_c, 1, 59, 64
3, 17666, Note_on_c, 1, 59, 0
3, 17670, Note_on_c, 1, 71, 64
3, 17700, Note_on_c, 1, 70, 64
3, 17709, Note_on_c, 1, 71, 0
3, 17730, Note_on_c, 1, 71, 64
3, 17739, Note_on_c, 1, 70, 0
3, 17760, Note_on_c, 1, 73, 64
3, 17769, Note_on_c, 1, 71, 0
3, 17812, Note_on_c, 1, 73, 0
3, 17880, Note_on_c, 1, 66, 64
3, 17909, Note_on_c, 1, 66, 0
3, 17940, Note_on_c, 1, 64, 64
3, 17969, Note_on_c, 1, 64, 0
3, 18000, Note_on_c, 1, 64, 64
3, 18060, Note_on_c, 1, 63, 64
3, 18064, Note_on_c, 1, 64, 0
3, 18239, Note_on_c, 1, 63, 0
3, 18239, End_track
4, 0, Start_track
4, 0, MIDI_port, 0
4, 0, Title_t, "from WTC II"
4, 0, Program_c, 2, 6
4, 2820, Note_on_c, 2, 54, 64
4, 2854, Note_on_c, 2, 54, 0
4, 2880, Note_on_c, 2, 50, 64
4, 2914, Note_on_c, 2, 50, 0
4, 2940, Note_on_c, 2, 47, 64
4, 2974, Note_on_c, 2, 47, 0
4, 3000, Note_on_c, 2, 46, 64
4, 3034, Note_on_c, 2, 46, 0
4, 3060, Note_on_c, 2, 47, 64
4, 3112, Note_on_c, 2, 47, 0
4, 3120, Note_on_c, 2, 49, 64
4, 3146, Note_on_c, 2, 49, 0
4, 3150, Note_on_c, 2, 50, 64
4, 3176, Note_on_c, 2, 50, 0
4, 3180, Note_on_c, 2, 52, 64
4, 3206, Note_on_c, 2, 52, 0
4, 3210, Note_on_c, 2, 54, 64
4, 3236, Note_on_c, 2, 54, 0
4, 3240, Note_on_c, 2, 55, 64
4, 3274, Note_on_c, 2, 55, 0
4, 3300, Note_on_c, 2, 43, 64
4, 3329, Note_on_c, 2, 43, 0
4, 3360, Note_on_c, 2, 55, 64
4, 3394, Note_on_c, 2, 55, 0
4, 3420, Note_on_c, 2, 54, 64
4, 3454, Note_on_c, 2, 54, 0
4, 3480, Note_on_c, 2, 42, 64
4, 3514, Note_on_c, 2, 42, 0
4, 3540, Note_on_c, 2, 54, 64
4, 3574, Note_on_c, 2, 54, 0
4, 3600, Note_on_c, 2, 52, 64
4, 3652, Note_on_c, 2, 52, 0
4, 3660, Note_on_c, 2, 54, 64
4, 3686, Note_on_c, 2, 54, 0
4, 3690, Note_on_c, 2, 52, 64
4, 3716, Note_on_c, 2, 52, 0
4, 3720, Note_on_c, 2, 50, 64
4, 3746, Note_on_c, 2, 50, 0
4, 3750, Note_on_c, 2, 49, 64
4, 3776, Note_on_c, 2, 49, 0
4, 3780, Note_on_c, 2, 50, 64
4, 3806, Note_on_c, 2, 50, 0
4, 3810, Note_on_c, 2, 54, 64
4, 3836, Note_on_c, 2, 54, 0
4, 3840, Note_on_c, 2, 52, 64
4, 3866, Note_on_c, 2, 52, 0
4, 3870, Note_on_c, 2, 50, 64
4, 3896, Note_on_c, 2, 50, 0
4, 3900, Note_on_c, 2, 49, 64
4, 3926, Note_on_c, 2, 49, 0
4, 3930, Note_on_c, 2, 47, 64
4, 3956, Note_on_c, 2, 47, 0
4, 3960, Note_on_c, 2, 49, 64
4, 3986, Note_on_c, 2, 49, 0
4, 3990, Note_on_c, 2, 51, 64
4, 4016, Note_on_c, 2, 51, 0
4, 4020, Note_on_c, 2, 52, 64
4, 4035, Note_on_c, 2, 51, 64
4, 4044, Note_on_c, 2, 52, 0
4, 4045, Note_on_c, 2, 52, 64
4, 4054, Note_on_c, 2, 51, 0
4, 4055, Note_on_c, 2, 51, 64
4, 4064, Note_on_c, 2, 52, 0
4, 4065, Note_on_c, 2, 52, 64
4, 4079, Note_on_c, 2, 51, 0
4, 4080, Note_on_c, 2, 51, 64
4, 4089, Note_on_c, 2, 52, 0
4, 4090, Note_on_c, 2, 52, 64
4, 4100, Note_on_c, 2, 51, 64
4, 4104, Note_on_c, 2, 51, 0
4, 4110, Note_on_c, 2, 49, 64
4, 4114, Note_on_c, 2, 52, 0
4, 4123, Note_on_c, 2, 49, 0
4, 4124, Note_on_c, 2, 51, 0
4, 4125, Note_on_c, 2, 51, 64
4, 4138, Note_on_c, 2, 51, 0
4, 4140, Note_on_c, 2, 52, 64
4, 4166, Note_on_c, 2, 52, 0
4, 4170, Note_on_c, 2, 55, 64
4, 4196, Note_on_c, 2, 55, 0
4, 4200, Note_on_c, 2, 54, 64
4, 4226, Note_on_c, 2, 54, 0
4, 4230, Note_on_c, 2, 52, 64
4, 4256, Note_on_c, 2, 52, 0
4, 4260, Note_on_c, 2, 50, 64
4, 4286, Note_on_c, 2, 50, 0
4, 4290, Note_on_c, 2, 49, 64
4, 4316, Note_on_c, 2, 49, 0
4, 4320, Note_on_c, 2, 51, 64
4, 4346, Note_on_c, 2, 51, 0
4, 4350, Note_on_c, 2, 53, 64
4, 4376, Note_on_c, 2, 53, 0
4, 4380, Note_on_c, 2, 54, 64
4, 4395, Note_on_c, 2, 53, 64
4, 4404, Note_on_c, 2, 54, 0
4, 4405, Note_on_c, 2, 54, 64
4, 4414, Note_on_c, 2, 53, 0
4, 4415, Note_on_c, 2, 53, 64
4, 4424, Note_on_c, 2, 54, 0
4, 4425, Note_on_c, 2, 54, 64
4, 4434, Note_on_c, 2, 53, 0
4, 4435, Note_on_c, 2, 53, 64
4, 4444, Note_on_c, 2, 54, 0
4, 4445, Note_on_c, 2, 54, 64
4, 4454, Note_on_c, 2, 53, 0
4, 4455, Note_on_c, 2, 53, 64
4, 4464, Note_on_c, 2, 54, 0
4, 4470, Note_on_c, 2, 51, 64
4, 4474, Note_on_c, 2, 53, 0
4, 4483, Note_on_c, 2, 51, 0
4, 4485, Note_on_c, 2, 53, 64
4, 4498, Note_on_c, 2, 53, 0
4, 4500, Note_on_c, 2, 54, 64
4, 4526, Note_on_c, 2, 54, 0
4, 4530, Note_on_c, 2, 57, 64
4, 4556, Note_on_c, 2, 57, 0
4, 4560, Note_on_c, 2, 56, 64
4, 4586, Note_on_c, 2, 56, 0
4, 4590, Note_on_c, 2, 54, 64
4, 4616, Note_on_c, 2, 54, 0
4, 4620, Note_on_c, 2, 53, 64
4, 4646, Note_on_c, 2, 53, 0
4, 4650, Note_on_c, 2, 51, 64
4, 4676, Note_on_c, 2, 51, 0
4, 4680, Note_on_c, 2, 53, 64
4, 4706, Note_on_c, 2, 53, 0
4, 4710, Note_on_c, 2, 56, 64
4, 4736, Note_on_c, 2, 56, 0
4, 4740, Note_on_c, 2, 54, 64
4, 4766, Note_on_c, 2, 54, 0
4, 4770, Note_on_c, 2, 53, 64
4, 4796, Note_on_c, 2, 53, 0
4, 4800, Note_on_c, 2, 51, 64
4, 4826, Note_on_c, 2, 51, 0
4, 4830, Note_on_c, 2, 49, 64
4, 4856, Note_on_c, 2, 49, 0
4, 4860, Note_on_c, 2, 54, 64
4, 4912, Note_on_c, 2, 54, 0
4, 4920, Note_on_c, 2, 45, 64
4, 4949, Note_on_c, 2, 45, 0
4, 4980, Note_on_c, 2, 49, 64
4, 5009, Note_on_c, 2, 49, 0
4, 5040, Note_on_c, 2, 42, 64
4, 5074, Note_on_c, 2, 42, 0
4, 5250, Note_on_c, 2, 57, 64
4, 5276, Note_on_c, 2, 57, 0
4, 5280, Note_on_c, 2, 47, 64
4, 5306, Note_on_c, 2, 47, 0
4, 5310, Note_on_c, 2, 57, 64
4, 5336, Note_on_c, 2, 57, 0
4, 5340, Note_on_c, 2, 47, 64
4, 5366, Note_on_c, 2, 47, 0
4, 5370, Note_on_c, 2, 56, 64
4, 5396, Note_on_c, 2, 56, 0
4, 5400, Note_on_c, 2, 45, 64
4, 5426, Note_on_c, 2, 45, 0
4, 5430, Note_on_c, 2, 56, 64
4, 5456, Note_on_c, 2, 56, 0
4, 5460, Note_on_c, 2, 45, 64
4, 5486, Note_on_c, 2, 45, 0
4, 5490, Note_on_c, 2, 56, 64
4, 5516, Note_on_c, 2, 56, 0
4, 5520, Note_on_c, 2, 45, 64
4, 5546, Note_on_c, 2, 45, 0
4, 5550, Note_on_c, 2, 54, 64
4, 5576, Note_on_c, 2, 54, 0
4, 5580, Note_on_c, 2, 44, 64
4, 5606, Note_on_c, 2, 44, 0
4, 5610, Note_on_c, 2, 54, 64
4, 5636, Note_on_c, 2, 54, 0
4, 5640, Note_on_c, 2, 53, 64
4, 5666, Note_on_c, 2, 53, 0
4, 5670, Note_on_c, 2, 56, 64
4, 5696, Note_on_c, 2, 56, 0
4, 5700, Note_on_c, 2, 49, 64
4, 5726, Note_on_c, 2, 49, 0
4, 5730, Note_on_c, 2, 53, 64
4, 5756, Note_on_c, 2, 53, 0
4, 5760, Note_on_c, 2, 42, 64
4, 5786, Note_on_c, 2, 42, 0
4, 5790, Note_on_c, 2, 54, 64
4, 5816, Note_on_c, 2, 54, 0
4, 5820, Note_on_c, 2, 44, 64
4, 5846, Note_on_c, 2, 44, 0
4, 5850, Note_on_c, 2, 54, 64
4, 5876, Note_on_c, 2, 54, 0
4, 5880, Note_on_c, 2, 45, 64
4, 5906, Note_on_c, 2, 45, 0
4, 5910, Note_on_c, 2, 54, 64
4, 5936, Note_on_c, 2, 54, 0
4, 5940, Note_on_c, 2, 47, 64
4, 5966, Note_on_c, 2, 47, 0
4, 5970, Note_on_c, 2, 54, 64
4, 5996, Note_on_c, 2, 54, 0
4, 6000, Note_on_c, 2, 49, 64
4, 6026, Note_on_c, 2, 49, 0
4, 6030, Note_on_c, 2, 54, 64
4, 6056, Note_on_c, 2, 54, 0
4, 6060, Note_on_c, 2, 50, 64
4, 6086, Note_on_c, 2, 50, 0
4, 6090, Note_on_c, 2, 54, 64
4, 6116, Note_on_c, 2, 54, 0
4, 6120, Note_on_c, 2, 40, 64
4, 6146, Note_on_c, 2, 40, 0
4, 6150, Note_on_c, 2, 52, 64
4, 6176, Note_on_c, 2, 52, 0
4, 6180, Note_on_c, 2, 42, 64
4, 6206, Note_on_c, 2, 42, 0
4, 6210, Note_on_c, 2, 52, 64
4, 6236, Note_on_c, 2, 52, 0
4, 6240, Note_on_c, 2, 43, 64
4, 6266, Note_on_c, 2, 43, 0
4, 6270, Note_on_c, 2, 52, 64
4, 6296, Note_on_c, 2, 52, 0
4, 6300, Note_on_c, 2, 45, 64
4, 6326, Note_on_c, 2, 45, 0
4, 6330, Note_on_c, 2, 52, 64
4, 6356, Note_on_c, 2, 52, 0
4, 6360, Note_on_c, 2, 47, 64
4, 6386, Note_on_c, 2, 47, 0
4, 6390, Note_on_c, 2, 52, 64
4, 6416, Note_on_c, 2, 52, 0
4, 6420, Note_on_c, 2, 49, 64
4, 6446, Note_on_c, 2, 49, 0
4, 6450, Note_on_c, 2, 52, 64
4, 6476, Note_on_c, 2, 52, 0
4, 6480, Note_on_c, 2, 50, 64
4, 6506, Note_on_c, 2, 50, 0
4, 6510, Note_on_c, 2, 52, 64
4, 6536, Note_on_c, 2, 52, 0
4, 6540, Note_on_c, 2, 54, 64
4, 6566, Note_on_c, 2, 54, 0
4, 6570, Note_on_c, 2, 55, 64
4, 6596, Note_on_c, 2, 55, 0
4, 6600, Note_on_c, 2, 57, 64
4, 6626, Note_on_c, 2, 57, 0
4, 6630, Note_on_c, 2, 55, 64
4, 6656, Note_on_c, 2, 55, 0
4, 6660, Note_on_c, 2, 54, 64
4, 6686, Note_on_c, 2, 54, 0
4, 6690, Note_on_c, 2, 57, 64
4, 6716, Note_on_c, 2, 57, 0
4, 6720, Note_on_c, 2, 55, 64
4, 6746, Note_on_c, 2, 55, 0
4, 6750, Note_on_c, 2, 54, 64
4, 6776, Note_on_c, 2, 54, 0
4, 6780, Note_on_c, 2, 52, 64
4, 6806, Note_on_c, 2, 52, 0
4, 6810, Note_on_c, 2, 50, 64
4, 6836, Note_on_c, 2, 50, 0
4, 6840, Note_on_c, 2, 55, 64
4, 6892, Note_on_c, 2, 55, 0
4, 6960, Note_on_c, 2, 52, 64
4, 6994, Note_on_c, 2, 52, 0
4, 7020, Note_on_c, 2, 54, 64
4, 7072, Note_on_c, 2, 54, 0
4, 7140, Note_on_c, 2, 50, 64
4, 7169, Note_on_c, 2, 50, 0
4, 7200, Note_on_c, 2, 52, 64
4, 7234, Note_on_c, 2, 52, 0
4, 7260, Note_on_c, 2, 57, 64
4, 7365, Note_on_c, 2, 57, 0
4, 7380, Note_on_c, 2, 50, 64
4, 7432, Note_on_c, 2, 50, 0
4, 7500, Note_on_c, 2, 59, 64
4, 7552, Note_on_c, 2, 59, 0
4, 7560, Note_on_c, 2, 66, 64
4, 7612, Note_on_c, 2, 66, 0
4, 7680, Note_on_c, 2, 61, 64
4, 7732, Note_on_c, 2, 61, 0
4, 7740, Note_on_c, 2, 62, 64
4, 7792, Note_on_c, 2, 62, 0
4, 7860, Note_on_c, 2, 63, 64
4, 7912, Note_on_c, 2, 63, 0
4, 7920, Note_on_c, 2, 64, 64
4, 7972, Note_on_c, 2, 64, 0
4, 8040, Note_on_c, 2, 52, 64
4, 8074, Note_on_c, 2, 52, 0
4, 8100, Note_on_c, 2, 49, 64
4, 8129, Note_on_c, 2, 49, 0
4, 8160, Note_on_c, 2, 45, 64
4, 8194, Note_on_c, 2, 45, 0
4, 8220, Note_on_c, 2, 44, 64
4, 8254, Note_on_c, 2, 44, 0
4, 8280, Note_on_c, 2, 45, 64
4, 8332, Note_on_c, 2, 45, 0
4, 8340, Note_on_c, 2, 47, 64
4, 8366, Note_on_c, 2, 47, 0
4, 8370, Note_on_c, 2, 49, 64
4, 8396, Note_on_c, 2, 49, 0
4, 8400, Note_on_c, 2, 50, 64
4, 8426, Note_on_c, 2, 50, 0
4, 8430, Note_on_c, 2, 52, 64
4, 8456, Note_on_c, 2, 52, 0
4, 8460, Note_on_c, 2, 54, 64
4, 8494, Note_on_c, 2, 54, 0
4, 8520, Note_on_c, 2, 42, 64
4, 8554, Note_on_c, 2, 42, 0
4, 8580, Note_on_c, 2, 54, 64
4, 8614, Note_on_c, 2, 54, 0
4, 8640, Note_on_c, 2, 52, 64
4, 8674, Note_on_c, 2, 52, 0
4, 8700, Note_on_c, 2, 40, 64
4, 8734, Note_on_c, 2, 40, 0
4, 8760, Note_on_c, 2, 52, 64
4, 8794, Note_on_c, 2, 52, 0
4, 8820, Note_on_c, 2, 50, 64
4, 8872, Note_on_c, 2, 50, 0
4, 8880, Note_on_c, 2, 52, 64
4, 8906, Note_on_c, 2, 52, 0
4, 8910, Note_on_c, 2, 50, 64
4, 8936, Note_on_c, 2, 50, 0
4, 8940, Note_on_c, 2, 49, 64
4, 8966, Note_on_c, 2, 49, 0
4, 8970, Note_on_c, 2, 47, 64
4, 8996, Note_on_c, 2, 47, 0
4, 9000, Note_on_c, 2, 49, 64
4, 9026, Note_on_c, 2, 49, 0
4, 9030, Note_on_c, 2, 52, 64
4, 9056, Note_on_c, 2, 52, 0
4, 9060, Note_on_c, 2, 57, 64
4, 9086, Note_on_c, 2, 57, 0
4, 9090, Note_on_c, 2, 52, 64
4, 9116, Note_on_c, 2, 52, 0
4, 9120, Note_on_c, 2, 51, 64
4, 9146, Note_on_c, 2, 51, 0
4, 9150, Note_on_c, 2, 57, 64
4, 9176, Note_on_c, 2, 57, 0
4, 9180, Note_on_c, 2, 52, 64
4, 9206, Note_on_c, 2, 52, 0
4, 9210, Note_on_c, 2, 55, 64
4, 9236, Note_on_c, 2, 55, 0
4, 9240, Note_on_c, 2, 54, 64
4, 9266, Note_on_c, 2, 54, 0
4, 9270, Note_on_c, 2, 52, 64
4, 9296, Note_on_c, 2, 52, 0
4, 9300, Note_on_c, 2, 50, 64
4, 9326, Note_on_c, 2, 50, 0
4, 9330, Note_on_c, 2, 49, 64
4, 9356, Note_on_c, 2, 49, 0
4, 9360, Note_on_c, 2, 51, 64
4, 9386, Note_on_c, 2, 51, 0
4, 9390, Note_on_c, 2, 54, 64
4, 9416, Note_on_c, 2, 54, 0
4, 9420, Note_on_c, 2, 59, 64
4, 9446, Note_on_c, 2, 59, 0
4, 9450, Note_on_c, 2, 54, 64
4, 9476, Note_on_c, 2, 54, 0
4, 9480, Note_on_c, 2, 53, 64
4, 9506, Note_on_c, 2, 53, 0
4, 9510, Note_on_c, 2, 59, 64
4, 9536, Note_on_c, 2, 59, 0
4, 9540, Note_on_c, 2, 54, 64
4, 9566, Note_on_c, 2, 54, 0
4, 9570, Note_on_c, 2, 57, 64
4, 9596, Note_on_c, 2, 57, 0
4, 9600, Note_on_c, 2, 56, 64
4, 9626, Note_on_c, 2, 56, 0
4, 9630, Note_on_c, 2, 54, 64
4, 9656, Note_on_c, 2, 54, 0
4, 9660, Note_on_c, 2, 53, 64
4, 9686, Note_on_c, 2, 53, 0
4, 9690, Note_on_c, 2, 51, 64
4, 9716, Note_on_c, 2, 51, 0
4, 9720, Note_on_c, 2, 49, 64
4, 9746, Note_on_c, 2, 49, 0
4, 9750, Note_on_c, 2, 50, 64
4, 9776, Note_on_c, 2, 50, 0
4, 9780, Note_on_c, 2, 49, 64
4, 9806, Note_on_c, 2, 49, 0
4, 9810, Note_on_c, 2, 47, 64
4, 9836, Note_on_c, 2, 47, 0
4, 9840, Note_on_c, 2, 45, 64
4, 9866, Note_on_c, 2, 45, 0
4, 9870, Note_on_c, 2, 44, 64
4, 9896, Note_on_c, 2, 44, 0
4, 9900, Note_on_c, 2, 42, 64
4, 9926, Note_on_c, 2, 42, 0
4, 9930, Note_on_c, 2, 54, 64
4, 9956, Note_on_c, 2, 54, 0
4, 9960, Note_on_c, 2, 56, 64
4, 9986, Note_on_c, 2, 56, 0
4, 9990, Note_on_c, 2, 57, 64
4, 10020, Note_on_c, 2, 59, 64
4, 10024, Note_on_c, 2, 57, 0
4, 10050, Note_on_c, 2, 61, 64
4, 10054, Note_on_c, 2, 59, 0
4, 10080, Note_on_c, 2, 62, 64
4, 10089, Note_on_c, 2, 61, 0
4, 10110, Note_on_c, 2, 64, 64
4, 10119, Note_on_c, 2, 62, 0
4, 10140, Note_on_c, 2, 62, 64
4, 10149, Note_on_c, 2, 64, 0
4, 10170, Note_on_c, 2, 61, 64
4, 10174, Note_on_c, 2, 62, 0
4, 10199, Note_on_c, 2, 61, 0
4, 10200, Note_on_c, 2, 59, 64
4, 10226, Note_on_c, 2, 59, 0
4, 10230, Note_on_c, 2, 58, 64
4, 10256, Note_on_c, 2, 58, 0
4, 10260, Note_on_c, 2, 59, 64
4, 10312, Note_on_c, 2, 59, 0
4, 10380, Note_on_c, 2, 52, 64
4, 10432, Note_on_c, 2, 52, 0
4, 10440, Note_on_c, 2, 57, 64
4, 10492, Note_on_c, 2, 57, 0
4, 10560, Note_on_c, 2, 62, 64
4, 10672, Note_on_c, 2, 62, 0
4, 10680, Note_on_c, 2, 61, 64
4, 10826, Note_on_c, 2, 61, 0
4, 10830, Note_on_c, 2, 59, 64
4, 10856, Note_on_c, 2, 59, 0
4, 10860, Note_on_c, 2, 57, 64
4, 10886, Note_on_c, 2, 57, 0
4, 10890, Note_on_c, 2, 56, 64
4, 10916, Note_on_c, 2, 56, 0
4, 10920, Note_on_c, 2, 54, 64
4, 10946, Note_on_c, 2, 54, 0
4, 10950, Note_on_c, 2, 52, 64
4, 10976, Note_on_c, 2, 52, 0
4, 10980, Note_on_c, 2, 51, 64
4, 11009, Note_on_c, 2, 51, 0
4, 11040, Note_on_c, 2, 59, 64
4, 11186, Note_on_c, 2, 59, 0
4, 11190, Note_on_c, 2, 57, 64
4, 11216, Note_on_c, 2, 57, 0
4, 11220, Note_on_c, 2, 55, 64
4, 11246, Note_on_c, 2, 55, 0
4, 11250, Note_on_c, 2, 54, 64
4, 11276, Note_on_c, 2, 54, 0
4, 11280, Note_on_c, 2, 52, 64
4, 11306, Note_on_c, 2, 52, 0
4, 11310, Note_on_c, 2, 50, 64
4, 11336, Note_on_c, 2, 50, 0
4, 11340, Note_on_c, 2, 49, 64
4, 11369, Note_on_c, 2, 49, 0
4, 11400, Note_on_c, 2, 57, 64
4, 11546, Note_on_c, 2, 57, 0
4, 11550, Note_on_c, 2, 55, 64
4, 11576, Note_on_c, 2, 55, 0
4, 11580, Note_on_c, 2, 54, 64
4, 11606, Note_on_c, 2, 54, 0
4, 11610, Note_on_c, 2, 52, 64
4, 11636, Note_on_c, 2, 52, 0
4, 11640, Note_on_c, 2, 50, 64
4, 11666, Note_on_c, 2, 50, 0
4, 11670, Note_on_c, 2, 49, 64
4, 11696, Note_on_c, 2, 49, 0
4, 11700, Note_on_c, 2, 47, 64
4, 11734, Note_on_c, 2, 47, 0
4, 11760, Note_on_c, 2, 55, 64
4, 11932, Note_on_c, 2, 55, 0
4, 11940, Note_on_c, 2, 54, 64
4, 12086, Note_on_c, 2, 54, 0
4, 12090, Note_on_c, 2, 52, 64
4, 12116, Note_on_c, 2, 52, 0
4, 12120, Note_on_c, 2, 50, 64
4, 12146, Note_on_c, 2, 50, 0
4, 12150, Note_on_c, 2, 49, 64
4, 12176, Note_on_c, 2, 49, 0
4, 12180, Note_on_c, 2, 47, 64
4, 12206, Note_on_c, 2, 47, 0
4, 12210, Note_on_c, 2, 45, 64
4, 12236, Note_on_c, 2, 45, 0
4, 12240, Note_on_c, 2, 43, 64
4, 12274, Note_on_c, 2, 43, 0
4, 12300, Note_on_c, 2, 55, 64
4, 12420, Note_on_c, 2, 54, 64
4, 12424, Note_on_c, 2, 55, 0
4, 12525, Note_on_c, 2, 54, 0
4, 12630, Note_on_c, 2, 47, 64
4, 12656, Note_on_c, 2, 47, 0
4, 12660, Note_on_c, 2, 49, 64
4, 12686, Note_on_c, 2, 49, 0
4, 12690, Note_on_c, 2, 50, 64
4, 12716, Note_on_c, 2, 50, 0
4, 12720, Note_on_c, 2, 52, 64
4, 12746, Note_on_c, 2, 52, 0
4, 12750, Note_on_c, 2, 54, 64
4, 12776, Note_on_c, 2, 54, 0
4, 12780, Note_on_c, 2, 55, 64
4, 12809, Note_on_c, 2, 55, 0
4, 12840, Note_on_c, 2, 52, 64
4, 12874, Note_on_c, 2, 52, 0
4, 12900, Note_on_c, 2, 51, 64
4, 12934, Note_on_c, 2, 51, 0
4, 12960, Note_on_c, 2, 52, 64
4, 13019, Note_on_c, 2, 52, 0
4, 13020, Note_on_c, 2, 54, 64
4, 13050, Note_on_c, 2, 55, 64
4, 13054, Note_on_c, 2, 54, 0
4, 13080, Note_on_c, 2, 57, 64
4, 13084, Note_on_c, 2, 55, 0
4, 13110, Note_on_c, 2, 59, 64
4, 13114, Note_on_c, 2, 57, 0
4, 13136, Note_on_c, 2, 59, 0
4, 13140, Note_on_c, 2, 60, 64
4, 13174, Note_on_c, 2, 60, 0
4, 13200, Note_on_c, 2, 48, 64
4, 13234, Note_on_c, 2, 48, 0
4, 13260, Note_on_c, 2, 60, 64
4, 13289, Note_on_c, 2, 60, 0
4, 13320, Note_on_c, 2, 59, 64
4, 13354, Note_on_c, 2, 59, 0
4, 13380, Note_on_c, 2, 47, 64
4, 13414, Note_on_c, 2, 47, 0
4, 13440, Note_on_c, 2, 59, 64
4, 13479, Note_on_c, 2, 59, 0
4, 13500, Note_on_c, 2, 57, 64
4, 13560, Note_on_c, 2, 59, 64
4, 13564, Note_on_c, 2, 57, 0
4, 13589, Note_on_c, 2, 59, 0
4, 13590, Note_on_c, 2, 57, 64
4, 13619, Note_on_c, 2, 57, 0
4, 13620, Note_on_c, 2, 55, 64
4, 13646, Note_on_c, 2, 55, 0
4, 13650, Note_on_c, 2, 54, 64
4, 13679, Note_on_c, 2, 54, 0
4, 13680, Note_on_c, 2, 55, 64
4, 13714, Note_on_c, 2, 55, 0
4, 13740, Note_on_c, 2, 43, 64
4, 13769, Note_on_c, 2, 43, 0
4, 13800, Note_on_c, 2, 55, 64
4, 13920, Note_on_c, 2, 57, 64
4, 13924, Note_on_c, 2, 55, 0
4, 13950, Note_on_c, 2, 55, 64
4, 13954, Note_on_c, 2, 57, 0
4, 13980, Note_on_c, 2, 54, 64
4, 13984, Note_on_c, 2, 55, 0
4, 14010, Note_on_c, 2, 52, 64
4, 14014, Note_on_c, 2, 54, 0
4, 14036, Note_on_c, 2, 52, 0
4, 14040, Note_on_c, 2, 54, 64
4, 14074, Note_on_c, 2, 54, 0
4, 14100, Note_on_c, 2, 42, 64
4, 14134, Note_on_c, 2, 42, 0
4, 14160, Note_on_c, 2, 54, 64
4, 14279, Note_on_c, 2, 54, 0
4, 14280, Note_on_c, 2, 52, 64
4, 14340, Note_on_c, 2, 50, 64
4, 14344, Note_on_c, 2, 52, 0
4, 14400, Note_on_c, 2, 49, 64
4, 14404, Note_on_c, 2, 50, 0
4, 14426, Note_on_c, 2, 49, 0
4, 14430, Note_on_c, 2, 50, 64
4, 14456, Note_on_c, 2, 50, 0
4, 14460, Note_on_c, 2, 52, 64
4, 14486, Note_on_c, 2, 52, 0
4, 14490, Note_on_c, 2, 54, 64
4, 14516, Note_on_c, 2, 54, 0
4, 14520, Note_on_c, 2, 55, 64
4, 14546, Note_on_c, 2, 55, 0
4, 14550, Note_on_c, 2, 47, 64
4, 14576, Note_on_c, 2, 47, 0
4, 14580, Note_on_c, 2, 46, 64
4, 14606, Note_on_c, 2, 46, 0
4, 14610, Note_on_c, 2, 55, 64
4, 14636, Note_on_c, 2, 55, 0
4, 14640, Note_on_c, 2, 54, 64
4, 14666, Note_on_c, 2, 54, 0
4, 14670, Note_on_c, 2, 52, 64
4, 14696, Note_on_c, 2, 52, 0
4, 14700, Note_on_c, 2, 50, 64
4, 14726, Note_on_c, 2, 50, 0
4, 14730, Note_on_c, 2, 49, 64
4, 14756, Note_on_c, 2, 49, 0
4, 14760, Note_on_c, 2, 47, 64
4, 14786, Note_on_c, 2, 47, 0
4, 14790, Note_on_c, 2, 49, 64
4, 14816, Note_on_c, 2, 49, 0
4, 14820, Note_on_c, 2, 50, 64
4, 14846, Note_on_c, 2, 50, 0
4, 14850, Note_on_c, 2, 52, 64
4, 14876, Note_on_c, 2, 52, 0
4, 14880, Note_on_c, 2, 54, 64
4, 14906, Note_on_c, 2, 54, 0
4, 14910, Note_on_c, 2, 52, 64
4, 14936, Note_on_c, 2, 52, 0
4, 14940, Note_on_c, 2, 50, 64
4, 14966, Note_on_c, 2, 50, 0
4, 14970, Note_on_c, 2, 54, 64
4, 14996, Note_on_c, 2, 54, 0
4, 15000, Note_on_c, 2, 52, 64
4, 15026, Note_on_c, 2, 52, 0
4, 15030, Note_on_c, 2, 50, 64
4, 15056, Note_on_c, 2, 50, 0
4, 15060, Note_on_c, 2, 49, 64
4, 15086, Note_on_c, 2, 49, 0
4, 15090, Note_on_c, 2, 47, 64
4, 15116, Note_on_c, 2, 47, 0
4, 15120, Note_on_c, 2, 52, 64
4, 15172, Note_on_c, 2, 52, 0
4, 15240, Note_on_c, 2, 57, 64
4, 15292, Note_on_c, 2, 57, 0
4, 15300, Note_on_c, 2, 50, 64
4, 15352, Note_on_c, 2, 50, 0
4, 15420, Note_on_c, 2, 55, 64
4, 15472, Note_on_c, 2, 55, 0
4, 15480, Note_on_c, 2, 49, 64
4, 15506, Note_on_c, 2, 49, 0
4, 15510, Note_on_c, 2, 59, 64
4, 15536, Note_on_c, 2, 59, 0
4, 15540, Note_on_c, 2, 58, 64
4, 15566, Note_on_c, 2, 58, 0
4, 15570, Note_on_c, 2, 61, 64
4, 15596, Note_on_c, 2, 61, 0
4, 15600, Note_on_c, 2, 54, 64
4, 15626, Note_on_c, 2, 54, 0
4, 15630, Note_on_c, 2, 58, 64
4, 15656, Note_on_c, 2, 58, 0
4, 15660, Note_on_c, 2, 47, 64
4, 15686, Note_on_c, 2, 47, 0
4, 15690, Note_on_c, 2, 59, 64
4, 15716, Note_on_c, 2, 59, 0
4, 15720, Note_on_c, 2, 49, 64
4, 15746, Note_on_c, 2, 49, 0
4, 15750, Note_on_c, 2, 59, 64
4, 15776, Note_on_c, 2, 59, 0
4, 15780, Note_on_c, 2, 50, 64
4, 15806, Note_on_c, 2, 50, 0
4, 15810, Note_on_c, 2, 59, 64
4, 15836, Note_on_c, 2, 59, 0
4, 15840, Note_on_c, 2, 52, 64
4, 15866, Note_on_c, 2, 52, 0
4, 15870, Note_on_c, 2, 59, 64
4, 15896, Note_on_c, 2, 59, 0
4, 15900, Note_on_c, 2, 54, 64
4, 15926, Note_on_c, 2, 54, 0
4, 15930, Note_on_c, 2, 59, 64
4, 15956, Note_on_c, 2, 59, 0
4, 15960, Note_on_c, 2, 55, 64
4, 15986, Note_on_c, 2, 55, 0
4, 15990, Note_on_c, 2, 59, 64
4, 16016, Note_on_c, 2, 59, 0
4, 16020, Note_on_c, 2, 45, 64
4, 16046, Note_on_c, 2, 45, 0
4, 16050, Note_on_c, 2, 57, 64
4, 16076, Note_on_c, 2, 57, 0
4, 16080, Note_on_c, 2, 47, 64
4, 16106, Note_on_c, 2, 47, 0
4, 16110, Note_on_c, 2, 57, 64
4, 16136, Note_on_c, 2, 57, 0
4, 16140, Note_on_c, 2, 49, 64
4, 16166, Note_on_c, 2, 49, 0
4, 16170, Note_on_c, 2, 57, 64
4, 16196, Note_on_c, 2, 57, 0
4, 16200, Note_on_c, 2, 50, 64
4, 16226, Note_on_c, 2, 50, 0
4, 16230, Note_on_c, 2, 57, 64
4, 16256, Note_on_c, 2, 57, 0
4, 16260, Note_on_c, 2, 52, 64
4, 16286, Note_on_c, 2, 52, 0
4, 16290, Note_on_c, 2, 57, 64
4, 16316, Note_on_c, 2, 57, 0
4, 16320, Note_on_c, 2, 54, 64
4, 16346, Note_on_c, 2, 54, 0
4, 16350, Note_on_c, 2, 57, 64
4, 16376, Note_on_c, 2, 57, 0
4, 16380, Note_on_c, 2, 55, 64
4, 16406, Note_on_c, 2, 55, 0
4, 16410, Note_on_c, 2, 59, 64
4, 16436, Note_on_c, 2, 59, 0
4, 16440, Note_on_c, 2, 57, 64
4, 16466, Note_on_c, 2, 57, 0
4, 16470, Note_on_c, 2, 55, 64
4, 16496, Note_on_c, 2, 55, 0
4, 16500, Note_on_c, 2, 54, 64
4, 16526, Note_on_c, 2, 54, 0
4, 16530, Note_on_c, 2, 52, 64
4, 16556, Note_on_c, 2, 52, 0
4, 16560, Note_on_c, 2, 54, 64
4, 16586, Note_on_c, 2, 54, 0
4, 16590, Note_on_c, 2, 57, 64
4, 16616, Note_on_c, 2, 57, 0
4, 16620, Note_on_c, 2, 62, 64
4, 16646, Note_on_c, 2, 62, 0
4, 16650, Note_on_c, 2, 57, 64
4, 16676, Note_on_c, 2, 57, 0
4, 16680, Note_on_c, 2, 56, 64
4, 16706, Note_on_c, 2, 56, 0
4, 16710, Note_on_c, 2, 62, 64
4, 16736, Note_on_c, 2, 62, 0
4, 16740, Note_on_c, 2, 57, 64
4, 16766, Note_on_c, 2, 57, 0
4, 16770, Note_on_c, 2, 60, 64
4, 16796, Note_on_c, 2, 60, 0
4, 16800, Note_on_c, 2, 59, 64
4, 16826, Note_on_c, 2, 59, 0
4, 16830, Note_on_c, 2, 57, 64
4, 16856, Note_on_c, 2, 57, 0
4, 16860, Note_on_c, 2, 55, 64
4, 16886, Note_on_c, 2, 55, 0
4, 16890, Note_on_c, 2, 54, 64
4, 16916, Note_on_c, 2, 54, 0
4, 16920, Note_on_c, 2, 56, 64
4, 16946, Note_on_c, 2, 56, 0
4, 16950, Note_on_c, 2, 59, 64
4, 16976, Note_on_c, 2, 59, 0
4, 16980, Note_on_c, 2, 64, 64
4, 17006, Note_on_c, 2, 64, 0
4, 17010, Note_on_c, 2, 59, 64
4, 17036, Note_on_c, 2, 59, 0
4, 17040, Note_on_c, 2, 58, 64
4, 17066, Note_on_c, 2, 58, 0
4, 17070, Note_on_c, 2, 64, 64
4, 17096, Note_on_c, 2, 64, 0
4, 17100, Note_on_c, 2, 59, 64
4, 17126, Note_on_c, 2, 59, 0
4, 17130, Note_on_c, 2, 62, 64
4, 17156, Note_on_c, 2, 62, 0
4, 17160, Note_on_c, 2, 61, 64
4, 17186, Note_on_c, 2, 61, 0
4, 17190, Note_on_c, 2, 59, 64
4, 17216, Note_on_c, 2, 59, 0
4, 17220, Note_on_c, 2, 58, 64
4, 17246, Note_on_c, 2, 58, 0
4, 17250, Note_on_c, 2, 56, 64
4, 17276, Note_on_c, 2, 56, 0
4, 17280, Note_on_c, 2, 54, 64
4, 17306, Note_on_c, 2, 54, 0
4, 17310, Note_on_c, 2, 55, 64
4, 17336, Note_on_c, 2, 55, 0
4, 17340, Note_on_c, 2, 54, 64
4, 17366, Note_on_c, 2, 54, 0
4, 17370, Note_on_c, 2, 52, 64
4, 17396, Note_on_c, 2, 52, 0
4, 17400, Note_on_c, 2, 50, 64
4, 17426, Note_on_c, 2, 50, 0
4, 17430, Note_on_c, 2, 49, 64
4, 17456, Note_on_c, 2, 49, 0
4, 17460, Note_on_c, 2, 47, 64
4, 17486, Note_on_c, 2, 47, 0
4, 17490, Note_on_c, 2, 49, 64
4, 17516, Note_on_c, 2, 49, 0
4, 17520, Note_on_c, 2, 50, 64
4, 17546, Note_on_c, 2, 50, 0
4, 17550, Note_on_c, 2, 52, 64
4, 17576, Note_on_c, 2, 52, 0
4, 17580, Note_on_c, 2, 54, 64
4, 17606, Note_on_c, 2, 54, 0
4, 17610, Note_on_c, 2, 52, 64
4, 17636, Note_on_c, 2, 52, 0
4, 17640, Note_on_c, 2, 50, 64
4, 17674, Note_on_c, 2, 50, 0
4, 17700, Note_on_c, 2, 47, 64
4, 17729, Note_on_c, 2, 47, 0
4, 17760, Note_on_c, 2, 46, 64
4, 17794, Note_on_c, 2, 46, 0
4, 17820, Note_on_c, 2, 47, 64
4, 17849, Note_on_c, 2, 47, 0
4, 17880, Note_on_c, 2, 38, 64
4, 17914, Note_on_c, 2, 38, 0
4, 17940, Note_on_c, 2, 42, 64
4, 17969, Note_on_c, 2, 42, 0
4, 18000, Note_on_c, 2, 35, 64
4, 18239, Note_on_c, 2, 35, 0
4, 18239, End_track
0, 0, End_of_file
