0, 0, Header, 1, 17, 120
1, 0, Start_track
1, 0, Title_t, "untitled"
1, 0, SMPTE_offset, 96, 0, 3, 0, 0
1, 0, Time_signature, 3, 2, 24, 8
1, 0, Key_signature, 0, "major"
1, 0, Tempo, 857143
1, 0, End_track
2, 0, Start_track
2, 0, MIDI_port, 0
2, 0, Title_t, "Solo Flute"
2, 0, Program_c, 0, 73
2, 0, Control_c, 0, 7, 100
2, 0, Control_c, 0, 10, 64
2, 0, Note_on_c, 0, 69, 100
2, 60, Note_on_c, 0, 69, 0
2, 60, Note_on_c, 0, 71, 100
2, 120, Note_on_c, 0, 71, 0
2, 120, Note_on_c, 0, 72, 100
2, 180, Note_on_c, 0, 72, 0
2, 180, Note_on_c, 0, 76, 100
2, 240, Note_on_c, 0, 76, 0
2, 240, Note_on_c, 0, 68, 100
2, 300, Note_on_c, 0, 68, 0
2, 300, Note_on_c, 0, 69, 100
2, 360, Note_on_c, 0, 69, 0
2, 360, Note_on_c, 0, 65, 100
2, 600, Note_on_c, 0, 65, 0
2, 600, Note_on_c, 0, 64, 100
2, 660, Note_on_c, 0, 64, 0
2, 660, Note_on_c, 0, 66, 100
2, 720, Note_on_c, 0, 66, 0
2, 720, Note_on_c, 0, 68, 100
2, 780, Note_on_c, 0, 68, 0
2, 780, Note_on_c, 0, 69, 100
2, 840, Note_on_c, 0, 69, 0
2, 840, Note_on_c, 0, 71, 100
2, 900, Note_on_c, 0, 71, 0
2, 900, Note_on_c, 0, 74, 100
2, 960, Note_on_c, 0, 74, 0
2, 960, Note_on_c, 0, 77, 100
2, 1020, Note_on_c, 0, 77, 0
2, 1020, Note_on_c, 0, 76, 100
2, 1080, Note_on_c, 0, 76, 0
2, 1080, Note_on_c, 0, 74, 100
2, 1140, Note_on_c, 0, 74, 0
2, 1140, Note_on_c, 0, 71, 100
2, 1200, Note_on_c, 0, 71, 0
2, 1200, Note_on_c, 0, 72, 100
2, 1260, Note_on_c, 0, 72, 0
2, 1260, Note_on_c, 0, 69, 100
2, 1320, Note_on_c, 0, 69, 0
2, 1320, Note_on_c, 0, 71, 100
2, 1440, Note_on_c, 0, 71, 0
2, 1440, Note_on_c, 0, 69, 100
2, 1500, Note_on_c, 0, 69, 0
2, 1500, Note_on_c, 0, 71, 100
2, 1560, Note_on_c, 0, 71, 0
2, 1560, Note_on_c, 0, 72, 100
2, 1620, Note_on_c, 0, 72, 0
2, 1620, Note_on_c, 0, 76, 100
2, 1680, Note_on_c, 0, 76, 0
2, 1680, Note_on_c, 0, 68, 100
2, 1740, Note_on_c, 0, 68, 0
2, 1740, Note_on_c, 0, 69, 100
2, 1800, Note_on_c, 0, 69, 0
2, 1800, Note_on_c, 0, 77, 100
2, 1920, Note_on_c, 0, 77, 0
2, 1920, Note_on_c, 0, 76, 100
2, 1920, Pitch_bend_c, 0, 12288
2, 1930, Pitch_bend_c, 0, 8192
2, 1940, Pitch_bend_c, 0, 12288
2, 1950, Pitch_bend_c, 0, 8192
2, 2040, Note_on_c, 0, 76, 0
2, 2040, Note_on_c, 0, 74, 100
2, 2160, Note_on_c, 0, 74, 0
2, 2160, Note_on_c, 0, 67, 100
2, 2220, Note_on_c, 0, 67, 0
2, 2220, Note_on_c, 0, 69, 100
2, 2280, Note_on_c, 0, 69, 0
2, 2280, Note_on_c, 0, 71, 100
2, 2340, Note_on_c, 0, 71, 0
2, 2340, Note_on_c, 0, 74, 100
2, 2400, Note_on_c, 0, 74, 0
2, 2400, Note_on_c, 0, 66, 100
2, 2460, Note_on_c, 0, 66, 0
2, 2460, Note_on_c, 0, 67, 100
2, 2520, Note_on_c, 0, 67, 0
2, 2520, Note_on_c, 0, 76, 100
2, 2640, Note_on_c, 0, 76, 0
2, 2640, Pitch_bend_c, 0, 16383
2, 2640, Note_on_c, 0, 74, 85
2, 2650, Pitch_bend_c, 0, 8192
2, 2660, Pitch_bend_c, 0, 16383
2, 2670, Pitch_bend_c, 0, 8192
2, 2760, Note_on_c, 0, 74, 0
2, 2760, Note_on_c, 0, 72, 100
2, 2820, Note_on_c, 0, 72, 0
2, 2820, Note_on_c, 0, 76, 100
2, 2880, Note_on_c, 0, 76, 0
2, 2880, Note_on_c, 0, 79, 100
2, 2940, Note_on_c, 0, 79, 0
2, 2940, Note_on_c, 0, 76, 100
2, 3000, Note_on_c, 0, 76, 0
2, 3000, Note_on_c, 0, 74, 100
2, 3060, Note_on_c, 0, 74, 0
2, 3060, Note_on_c, 0, 72, 100
2, 3120, Note_on_c, 0, 72, 0
2, 3120, Note_on_c, 0, 71, 100
2, 3180, Note_on_c, 0, 71, 0
2, 3180, Note_on_c, 0, 72, 100
2, 3240, Note_on_c, 0, 72, 0
2, 3240, Note_on_c, 0, 67, 100
2, 3420, Note_on_c, 0, 67, 0
2, 3420, Note_on_c, 0, 69, 100
2, 3450, Note_on_c, 0, 69, 0
2, 3450, Note_on_c, 0, 71, 100
2, 3480, Note_on_c, 0, 71, 0
2, 3480, Note_on_c, 0, 72, 100
2, 3510, Note_on_c, 0, 72, 0
2, 3510, Note_on_c, 0, 74, 100
2, 3540, Note_on_c, 0, 74, 0
2, 3540, Note_on_c, 0, 76, 100
2, 3570, Note_on_c, 0, 76, 0
2, 3570, Note_on_c, 0, 77, 100
2, 3600, Note_on_c, 0, 77, 0
2, 3600, Note_on_c, 0, 79, 100
2, 3630, Note_on_c, 0, 79, 0
2, 3630, Note_on_c, 0, 77, 100
2, 3660, Note_on_c, 0, 77, 0
2, 3660, Note_on_c, 0, 76, 100
2, 3690, Note_on_c, 0, 76, 0
2, 3690, Note_on_c, 0, 79, 100
2, 3720, Note_on_c, 0, 79, 0
2, 3720, Note_on_c, 0, 77, 100
2, 3750, Note_on_c, 0, 77, 0
2, 3750, Note_on_c, 0, 76, 100
2, 3780, Note_on_c, 0, 76, 0
2, 3780, Note_on_c, 0, 74, 100
2, 3810, Note_on_c, 0, 74, 0
2, 3810, Note_on_c, 0, 77, 100
2, 3840, Note_on_c, 0, 77, 0
2, 3840, Note_on_c, 0, 76, 100
2, 3870, Note_on_c, 0, 76, 0
2, 3870, Note_on_c, 0, 74, 100
2, 3900, Note_on_c, 0, 74, 0
2, 3900, Note_on_c, 0, 72, 100
2, 3930, Note_on_c, 0, 72, 0
2, 3930, Note_on_c, 0, 76, 100
2, 3960, Note_on_c, 0, 76, 0
2, 3960, Note_on_c, 0, 69, 100
2, 4140, Note_on_c, 0, 69, 0
2, 4140, Note_on_c, 0, 71, 100
2, 4170, Note_on_c, 0, 71, 0
2, 4170, Note_on_c, 0, 72, 100
2, 4200, Note_on_c, 0, 72, 0
2, 4200, Note_on_c, 0, 74, 100
2, 4230, Note_on_c, 0, 74, 0
2, 4230, Note_on_c, 0, 76, 100
2, 4260, Note_on_c, 0, 76, 0
2, 4260, Note_on_c, 0, 77, 100
2, 4290, Note_on_c, 0, 77, 0
2, 4290, Note_on_c, 0, 79, 100
2, 4320, Note_on_c, 0, 79, 0
2, 4320, Note_on_c, 0, 81, 100
2, 4350, Note_on_c, 0, 81, 0
2, 4350, Note_on_c, 0, 79, 100
2, 4380, Note_on_c, 0, 79, 0
2, 4380, Note_on_c, 0, 77, 100
2, 4410, Note_on_c, 0, 77, 0
2, 4410, Note_on_c, 0, 81, 100
2, 4440, Note_on_c, 0, 81, 0
2, 4440, Note_on_c, 0, 79, 100
2, 4470, Note_on_c, 0, 79, 0
2, 4470, Note_on_c, 0, 77, 100
2, 4500, Note_on_c, 0, 77, 0
2, 4500, Note_on_c, 0, 76, 100
2, 4530, Note_on_c, 0, 76, 0
2, 4530, Note_on_c, 0, 79, 100
2, 4560, Note_on_c, 0, 79, 0
2, 4560, Note_on_c, 0, 77, 100
2, 4590, Note_on_c, 0, 77, 0
2, 4590, Note_on_c, 0, 76, 100
2, 4620, Note_on_c, 0, 76, 0
2, 4620, Note_on_c, 0, 74, 100
2, 4650, Note_on_c, 0, 74, 0
2, 4650, Note_on_c, 0, 77, 100
2, 4680, Note_on_c, 0, 77, 0
2, 4680, Note_on_c, 0, 83, 100
2, 4740, Note_on_c, 0, 83, 0
2, 4740, Note_on_c, 0, 84, 100
2, 4770, Note_on_c, 0, 84, 0
2, 4770, Note_on_c, 0, 86, 100
2, 4800, Note_on_c, 0, 86, 0
2, 4800, Note_on_c, 0, 84, 100
2, 4830, Note_on_c, 0, 84, 0
2, 4830, Note_on_c, 0, 83, 100
2, 4860, Note_on_c, 0, 83, 0
2, 4860, Note_on_c, 0, 81, 100
2, 4890, Note_on_c, 0, 81, 0
2, 4890, Note_on_c, 0, 79, 100
2, 4920, Note_on_c, 0, 79, 0
2, 4920, Note_on_c, 0, 77, 100
2, 4950, Note_on_c, 0, 77, 0
2, 4950, Note_on_c, 0, 76, 100
2, 4980, Note_on_c, 0, 76, 0
2, 4980, Note_on_c, 0, 77, 100
2, 5010, Note_on_c, 0, 77, 0
2, 5010, Note_on_c, 0, 71, 100
2, 5040, Note_on_c, 0, 71, 0
2, 5040, Note_on_c, 0, 76, 100
2, 5100, Note_on_c, 0, 76, 0
2, 5100, Note_on_c, 0, 74, 100
2, 5130, Note_on_c, 0, 74, 0
2, 5130, Note_on_c, 0, 72, 100
2, 5160, Note_on_c, 0, 72, 0
2, 5160, Note_on_c, 0, 79, 100
2, 5220, Note_on_c, 0, 79, 0
2, 5220, Note_on_c, 0, 81, 100
2, 5280, Note_on_c, 0, 81, 0
2, 5280, Pitch_bend_c, 0, 8192
2, 5280, Note_on_c, 0, 76, 100
2, 5290, Pitch_bend_c, 0, 12288
2, 5300, Pitch_bend_c, 0, 8192
2, 5340, Note_on_c, 0, 76, 0
2, 5340, Note_on_c, 0, 74, 100
2, 5370, Note_on_c, 0, 74, 0
2, 5370, Note_on_c, 0, 72, 100
2, 5400, Note_on_c, 0, 72, 0
2, 5400, Note_on_c, 0, 72, 100
2, 5640, Note_on_c, 0, 72, 0
2, 5760, Note_on_c, 0, 76, 100
2, 5820, Note_on_c, 0, 76, 0
2, 5820, Note_on_c, 0, 72, 100
2, 5880, Note_on_c, 0, 72, 0
2, 5880, Note_on_c, 0, 71, 100
2, 5940, Note_on_c, 0, 71, 0
2, 5940, Note_on_c, 0, 72, 100
2, 6000, Note_on_c, 0, 72, 0
2, 6000, Note_on_c, 0, 81, 100
2, 6060, Note_on_c, 0, 81, 0
2, 6060, Note_on_c, 0, 79, 100
2, 6120, Note_on_c, 0, 79, 0
2, 6120, Note_on_c, 0, 76, 100
2, 6360, Note_on_c, 0, 76, 0
2, 6360, Note_on_c, 0, 74, 100
2, 6420, Note_on_c, 0, 74, 0
2, 6420, Note_on_c, 0, 76, 100
2, 6480, Note_on_c, 0, 76, 0
2, 6480, Note_on_c, 0, 77, 100
2, 6540, Note_on_c, 0, 77, 0
2, 6540, Note_on_c, 0, 74, 100
2, 6600, Note_on_c, 0, 74, 0
2, 6600, Note_on_c, 0, 68, 100
2, 6660, Note_on_c, 0, 68, 0
2, 6660, Note_on_c, 0, 76, 100
2, 6720, Note_on_c, 0, 76, 0
2, 6720, Note_on_c, 0, 83, 100
2, 6780, Note_on_c, 0, 83, 0
2, 6780, Note_on_c, 0, 74, 100
2, 6840, Note_on_c, 0, 74, 0
2, 6840, Note_on_c, 0, 72, 100
2, 6960, Note_on_c, 0, 72, 0
2, 6960, Note_on_c, 0, 71, 100
2, 7020, Note_on_c, 0, 71, 0
2, 7020, Note_on_c, 0, 72, 100
2, 7080, Note_on_c, 0, 72, 0
2, 7080, Note_on_c, 0, 69, 100
2, 7200, Note_on_c, 0, 69, 0
2, 7200, Note_on_c, 0, 81, 100
2, 7260, Note_on_c, 0, 81, 0
2, 7260, Note_on_c, 0, 79, 100
2, 7290, Note_on_c, 0, 79, 0
2, 7290, Note_on_c, 0, 77, 100
2, 7320, Note_on_c, 0, 77, 0
2, 7320, Note_on_c, 0, 76, 100
2, 7380, Note_on_c, 0, 76, 0
2, 7380, Note_on_c, 0, 74, 100
2, 7440, Note_on_c, 0, 74, 0
2, 7440, Note_on_c, 0, 73, 100
2, 7500, Note_on_c, 0, 73, 0
2, 7500, Note_on_c, 0, 74, 100
2, 7560, Note_on_c, 0, 74, 0
2, 7560, Note_on_c, 0, 82, 100
2, 7620, Note_on_c, 0, 82, 0
2, 7620, Note_on_c, 0, 81, 100
2, 7650, Note_on_c, 0, 81, 0
2, 7650, Note_on_c, 0, 79, 100
2, 7680, Note_on_c, 0, 79, 0
2, 7680, Note_on_c, 0, 77, 100
2, 7740, Note_on_c, 0, 77, 0
2, 7740, Note_on_c, 0, 76, 100
2, 7800, Note_on_c, 0, 76, 0
2, 7800, Note_on_c, 0, 81, 100
2, 7860, Note_on_c, 0, 81, 0
2, 7860, Note_on_c, 0, 69, 100
2, 7920, Note_on_c, 0, 69, 0
2, 7920, Note_on_c, 0, 65, 100
2, 7950, Note_on_c, 0, 65, 0
2, 7950, Note_on_c, 0, 81, 100
2, 7980, Note_on_c, 0, 81, 0
2, 7980, Note_on_c, 0, 79, 100
2, 8010, Note_on_c, 0, 79, 0
2, 8010, Note_on_c, 0, 77, 100
2, 8040, Note_on_c, 0, 77, 0
2, 8040, Note_on_c, 0, 76, 100
2, 8100, Note_on_c, 0, 76, 0
2, 8100, Note_on_c, 0, 74, 100
2, 8160, Note_on_c, 0, 74, 0
2, 8160, Note_on_c, 0, 73, 100
2, 8220, Note_on_c, 0, 73, 0
2, 8220, Note_on_c, 0, 74, 100
2, 8280, Note_on_c, 0, 74, 0
2, 8280, Note_on_c, 0, 67, 100
2, 8340, Note_on_c, 0, 67, 0
2, 8340, Note_on_c, 0, 82, 100
2, 8370, Note_on_c, 0, 82, 0
2, 8370, Note_on_c, 0, 81, 100
2, 8400, Note_on_c, 0, 81, 0
2, 8400, Note_on_c, 0, 79, 100
2, 8460, Note_on_c, 0, 79, 0
2, 8460, Note_on_c, 0, 77, 100
2, 8490, Note_on_c, 0, 77, 0
2, 8490, Note_on_c, 0, 76, 100
2, 8520, Note_on_c, 0, 76, 0
2, 8520, Note_on_c, 0, 85, 100
2, 8580, Note_on_c, 0, 85, 0
2, 8580, Note_on_c, 0, 83, 100
2, 8610, Note_on_c, 0, 83, 0
2, 8610, Note_on_c, 0, 85, 100
2, 8640, Note_on_c, 0, 85, 0
2, 8640, Note_on_c, 0, 86, 100
2, 8700, Note_on_c, 0, 86, 0
2, 8700, Note_on_c, 0, 74, 100
2, 8730, Note_on_c, 0, 74, 0
2, 8730, Note_on_c, 0, 76, 100
2, 8760, Note_on_c, 0, 76, 0
2, 8760, Note_on_c, 0, 77, 100
2, 8820, Note_on_c, 0, 77, 0
2, 8820, Note_on_c, 0, 81, 100
2, 8880, Note_on_c, 0, 81, 0
2, 8880, Note_on_c, 0, 79, 100
2, 8910, Note_on_c, 0, 79, 0
2, 8910, Note_on_c, 0, 77, 100
2, 8940, Note_on_c, 0, 77, 0
2, 8940, Note_on_c, 0, 76, 100
2, 8970, Note_on_c, 0, 76, 0
2, 8970, Note_on_c, 0, 77, 100
2, 9000, Note_on_c, 0, 77, 0
2, 9000, Note_on_c, 0, 74, 100
2, 9060, Note_on_c, 0, 74, 0
2, 9060, Note_on_c, 0, 69, 100
2, 9120, Note_on_c, 0, 69, 0
2, 9120, Note_on_c, 0, 65, 100
2, 9180, Note_on_c, 0, 65, 0
2, 9180, Note_on_c, 0, 62, 100
2, 9240, Note_on_c, 0, 62, 0
2, 9240, Note_on_c, 0, 65, 100
2, 9300, Note_on_c, 0, 65, 0
2, 9300, Note_on_c, 0, 69, 100
2, 9360, Note_on_c, 0, 69, 0
2, 9360, Note_on_c, 0, 71, 100
2, 9420, Note_on_c, 0, 71, 0
2, 9420, Note_on_c, 0, 72, 100
2, 9480, Note_on_c, 0, 72, 0
2, 9480, Note_on_c, 0, 74, 100
2, 9540, Note_on_c, 0, 74, 0
2, 9540, Note_on_c, 0, 77, 100
2, 9600, Note_on_c, 0, 77, 0
2, 9600, Note_on_c, 0, 81, 100
2, 9660, Note_on_c, 0, 81, 0
2, 9660, Note_on_c, 0, 79, 100
2, 9720, Note_on_c, 0, 79, 0
2, 9720, Note_on_c, 0, 77, 100
2, 9780, Note_on_c, 0, 77, 0
2, 9780, Note_on_c, 0, 76, 100
2, 9840, Note_on_c, 0, 76, 0
2, 9840, Note_on_c, 0, 74, 100
2, 9900, Note_on_c, 0, 74, 0
2, 9900, Note_on_c, 0, 72, 100
2, 9960, Note_on_c, 0, 72, 0
2, 9960, Note_on_c, 0, 80, 100
2, 10020, Note_on_c, 0, 80, 0
2, 10020, Note_on_c, 0, 81, 100
2, 10080, Note_on_c, 0, 81, 0
2, 10080, Note_on_c, 0, 68, 100
2, 10140, Note_on_c, 0, 68, 0
2, 10140, Note_on_c, 0, 69, 100
2, 10200, Note_on_c, 0, 69, 0
2, 10200, Note_on_c, 0, 71, 100
2, 10260, Note_on_c, 0, 71, 0
2, 10260, Note_on_c, 0, 72, 100
2, 10320, Note_on_c, 0, 72, 0
2, 10320, Note_on_c, 0, 77, 100
2, 10380, Note_on_c, 0, 77, 0
2, 10380, Note_on_c, 0, 76, 100
2, 10440, Note_on_c, 0, 76, 0
2, 10440, Note_on_c, 0, 74, 100
2, 10500, Note_on_c, 0, 74, 0
2, 10500, Note_on_c, 0, 72, 100
2, 10560, Note_on_c, 0, 72, 0
2, 10560, Note_on_c, 0, 71, 100
2, 10620, Note_on_c, 0, 71, 0
2, 10620, Note_on_c, 0, 69, 100
2, 10680, Note_on_c, 0, 69, 0
2, 10680, Note_on_c, 0, 81, 100
2, 10740, Note_on_c, 0, 81, 0
2, 10740, Note_on_c, 0, 84, 100
2, 10800, Note_on_c, 0, 84, 0
2, 10800, Note_on_c, 0, 74, 100
2, 10860, Note_on_c, 0, 74, 0
2, 10860, Note_on_c, 0, 84, 100
2, 10920, Note_on_c, 0, 84, 0
2, 10920, Note_on_c, 0, 83, 100
2, 10980, Note_on_c, 0, 83, 0
2, 10980, Note_on_c, 0, 86, 100
2, 11040, Note_on_c, 0, 86, 0
2, 11040, Note_on_c, 0, 80, 100
2, 11100, Note_on_c, 0, 80, 0
2, 11100, Note_on_c, 0, 81, 100
2, 11160, Note_on_c, 0, 81, 0
2, 11160, Note_on_c, 0, 74, 100
2, 11220, Note_on_c, 0, 74, 0
2, 11220, Note_on_c, 0, 84, 100
2, 11280, Note_on_c, 0, 84, 0
2, 11280, Note_on_c, 0, 83, 100
2, 11340, Note_on_c, 0, 83, 0
2, 11340, Note_on_c, 0, 86, 100
2, 11400, Note_on_c, 0, 86, 0
2, 11400, Note_on_c, 0, 80, 100
2, 11460, Note_on_c, 0, 80, 0
2, 11460, Note_on_c, 0, 81, 100
2, 11520, Note_on_c, 0, 81, 0
2, 11520, Note_on_c, 0, 71, 100
2, 11580, Note_on_c, 0, 71, 0
2, 11580, Note_on_c, 0, 77, 100
2, 11610, Note_on_c, 0, 77, 0
2, 11610, Note_on_c, 0, 76, 100
2, 11640, Note_on_c, 0, 76, 0
2, 11640, Note_on_c, 0, 74, 100
2, 11700, Note_on_c, 0, 74, 0
2, 11700, Note_on_c, 0, 72, 100
2, 11760, Note_on_c, 0, 72, 0
2, 11760, Note_on_c, 0, 71, 100
2, 11820, Note_on_c, 0, 71, 0
2, 11820, Note_on_c, 0, 72, 100
2, 11850, Note_on_c, 0, 72, 0
2, 11850, Note_on_c, 0, 74, 100
2, 11880, Note_on_c, 0, 74, 0
2, 11880, Note_on_c, 0, 68, 100
2, 12060, Note_on_c, 0, 68, 0
2, 12060, Note_on_c, 0, 66, 100
2, 12120, Note_on_c, 0, 66, 0
2, 12120, Note_on_c, 0, 64, 100
2, 12240, Note_on_c, 0, 64, 0
2, 12240, Note_on_c, 0, 69, 100
2, 12300, Note_on_c, 0, 69, 0
2, 12300, Note_on_c, 0, 71, 100
2, 12360, Note_on_c, 0, 71, 0
2, 12360, Note_on_c, 0, 72, 100
2, 12420, Note_on_c, 0, 72, 0
2, 12420, Note_on_c, 0, 76, 100
2, 12480, Note_on_c, 0, 76, 0
2, 12480, Note_on_c, 0, 68, 100
2, 12540, Note_on_c, 0, 68, 0
2, 12540, Note_on_c, 0, 69, 100
2, 12600, Note_on_c, 0, 69, 0
2, 12600, Note_on_c, 0, 77, 100
2, 12720, Note_on_c, 0, 77, 0
2, 12720, Note_on_c, 0, 76, 100
2, 12720, Pitch_bend_c, 0, 12288
2, 12730, Pitch_bend_c, 0, 8192
2, 12740, Pitch_bend_c, 0, 12288
2, 12750, Pitch_bend_c, 0, 8192
2, 12840, Note_on_c, 0, 76, 0
2, 12840, Note_on_c, 0, 74, 100
2, 12960, Note_on_c, 0, 74, 0
2, 12960, Note_on_c, 0, 71, 100
2, 13020, Note_on_c, 0, 71, 0
2, 13020, Note_on_c, 0, 72, 100
2, 13080, Note_on_c, 0, 72, 0
2, 13080, Note_on_c, 0, 74, 100
2, 13140, Note_on_c, 0, 74, 0
2, 13140, Note_on_c, 0, 77, 100
2, 13200, Note_on_c, 0, 77, 0
2, 13200, Note_on_c, 0, 76, 100
2, 13260, Note_on_c, 0, 76, 0
2, 13260, Note_on_c, 0, 74, 100
2, 13320, Note_on_c, 0, 74, 0
2, 13320, Note_on_c, 0, 83, 100
2, 13380, Note_on_c, 0, 83, 0
2, 13380, Note_on_c, 0, 80, 100
2, 13440, Note_on_c, 0, 80, 0
2, 13440, Note_on_c, 0, 81, 100
2, 13500, Note_on_c, 0, 81, 0
2, 13500, Note_on_c, 0, 78, 100
2, 13560, Note_on_c, 0, 78, 0
2, 13560, Note_on_c, 0, 80, 100
2, 13620, Note_on_c, 0, 80, 0
2, 13620, Note_on_c, 0, 83, 100
2, 13680, Note_on_c, 0, 83, 0
2, 13680, Note_on_c, 0, 88, 100
2, 13740, Note_on_c, 0, 88, 0
2, 13740, Note_on_c, 0, 84, 100
2, 13800, Note_on_c, 0, 84, 0
2, 13800, Note_on_c, 0, 83, 100
2, 13860, Note_on_c, 0, 83, 0
2, 13860, Note_on_c, 0, 81, 100
2, 13920, Note_on_c, 0, 81, 0
2, 13920, Note_on_c, 0, 80, 100
2, 13980, Note_on_c, 0, 80, 0
2, 13980, Note_on_c, 0, 81, 100
2, 14040, Note_on_c, 0, 81, 0
2, 14040, Note_on_c, 0, 76, 100
2, 14220, Note_on_c, 0, 76, 0
2, 14220, Note_on_c, 0, 78, 100
2, 14250, Note_on_c, 0, 78, 0
2, 14250, Note_on_c, 0, 80, 100
2, 14280, Note_on_c, 0, 80, 0
2, 14280, Note_on_c, 0, 81, 100
2, 14310, Note_on_c, 0, 81, 0
2, 14310, Note_on_c, 0, 83, 100
2, 14340, Note_on_c, 0, 83, 0
2, 14340, Note_on_c, 0, 84, 100
2, 14370, Note_on_c, 0, 84, 0
2, 14370, Note_on_c, 0, 86, 100
2, 14400, Note_on_c, 0, 86, 0
2, 14400, Note_on_c, 0, 88, 100
2, 14430, Note_on_c, 0, 88, 0
2, 14430, Note_on_c, 0, 86, 100
2, 14460, Note_on_c, 0, 86, 0
2, 14460, Note_on_c, 0, 84, 100
2, 14490, Note_on_c, 0, 84, 0
2, 14490, Note_on_c, 0, 88, 100
2, 14520, Note_on_c, 0, 88, 0
2, 14520, Note_on_c, 0, 86, 100
2, 14550, Note_on_c, 0, 86, 0
2, 14550, Note_on_c, 0, 84, 100
2, 14580, Note_on_c, 0, 84, 0
2, 14580, Note_on_c, 0, 83, 100
2, 14610, Note_on_c, 0, 83, 0
2, 14610, Note_on_c, 0, 86, 100
2, 14640, Note_on_c, 0, 86, 0
2, 14640, Note_on_c, 0, 84, 100
2, 14670, Note_on_c, 0, 84, 0
2, 14670, Note_on_c, 0, 83, 100
2, 14700, Note_on_c, 0, 83, 0
2, 14700, Note_on_c, 0, 81, 100
2, 14730, Note_on_c, 0, 81, 0
2, 14730, Note_on_c, 0, 84, 100
2, 14760, Note_on_c, 0, 84, 0
2, 14760, Note_on_c, 0, 78, 100
2, 14940, Note_on_c, 0, 78, 0
2, 14940, Note_on_c, 0, 80, 100
2, 14970, Note_on_c, 0, 80, 0
2, 14970, Note_on_c, 0, 81, 100
2, 15000, Note_on_c, 0, 81, 0
2, 15000, Note_on_c, 0, 83, 100
2, 15030, Note_on_c, 0, 83, 0
2, 15030, Note_on_c, 0, 84, 100
2, 15060, Note_on_c, 0, 84, 0
2, 15060, Note_on_c, 0, 86, 100
2, 15090, Note_on_c, 0, 86, 0
2, 15090, Note_on_c, 0, 88, 100
2, 15120, Note_on_c, 0, 88, 0
2, 15120, Note_on_c, 0, 89, 100
2, 15150, Note_on_c, 0, 89, 0
2, 15150, Note_on_c, 0, 88, 100
2, 15180, Note_on_c, 0, 88, 0
2, 15180, Note_on_c, 0, 86, 100
2, 15210, Note_on_c, 0, 86, 0
2, 15210, Note_on_c, 0, 89, 100
2, 15240, Note_on_c, 0, 89, 0
2, 15240, Note_on_c, 0, 88, 100
2, 15270, Note_on_c, 0, 88, 0
2, 15270, Note_on_c, 0, 86, 100
2, 15300, Note_on_c, 0, 86, 0
2, 15300, Note_on_c, 0, 84, 100
2, 15330, Note_on_c, 0, 84, 0
2, 15330, Note_on_c, 0, 88, 100
2, 15360, Note_on_c, 0, 88, 0
2, 15360, Note_on_c, 0, 86, 100
2, 15390, Note_on_c, 0, 86, 0
2, 15390, Note_on_c, 0, 84, 100
2, 15420, Note_on_c, 0, 84, 0
2, 15420, Note_on_c, 0, 83, 100
2, 15450, Note_on_c, 0, 83, 0
2, 15450, Note_on_c, 0, 86, 100
2, 15480, Note_on_c, 0, 86, 0
2, 15480, Note_on_c, 0, 92, 100
2, 15540, Note_on_c, 0, 92, 0
2, 15540, Note_on_c, 0, 81, 100
2, 15570, Note_on_c, 0, 81, 0
2, 15570, Note_on_c, 0, 83, 100
2, 15600, Note_on_c, 0, 83, 0
2, 15600, Note_on_c, 0, 81, 100
2, 15630, Note_on_c, 0, 81, 0
2, 15630, Note_on_c, 0, 79, 100
2, 15660, Note_on_c, 0, 79, 0
2, 15660, Note_on_c, 0, 78, 100
2, 15690, Note_on_c, 0, 78, 0
2, 15690, Note_on_c, 0, 76, 100
2, 15720, Note_on_c, 0, 76, 0
2, 15720, Note_on_c, 0, 86, 100
2, 15750, Note_on_c, 0, 86, 0
2, 15750, Note_on_c, 0, 84, 100
2, 15780, Note_on_c, 0, 84, 0
2, 15780, Note_on_c, 0, 86, 100
2, 15810, Note_on_c, 0, 86, 0
2, 15810, Note_on_c, 0, 83, 100
2, 15840, Note_on_c, 0, 83, 0
2, 15840, Note_on_c, 0, 84, 100
2, 15870, Note_on_c, 0, 84, 0
2, 15870, Note_on_c, 0, 83, 100
2, 15900, Note_on_c, 0, 83, 0
2, 15900, Note_on_c, 0, 81, 100
2, 15930, Note_on_c, 0, 81, 0
2, 15930, Note_on_c, 0, 80, 100
2, 15960, Note_on_c, 0, 80, 0
2, 15960, Note_on_c, 0, 81, 100
2, 16020, Note_on_c, 0, 81, 0
2, 16020, Note_on_c, 0, 76, 100
2, 16080, Note_on_c, 0, 76, 0
2, 16080, Note_on_c, 0, 72, 100
2, 16140, Note_on_c, 0, 72, 0
2, 16140, Pitch_bend_c, 0, 8192
2, 16140, Note_on_c, 0, 71, 100
2, 16150, Pitch_bend_c, 0, 12288
2, 16160, Pitch_bend_c, 0, 8192
2, 16170, Note_on_c, 0, 71, 0
2, 16170, Note_on_c, 0, 69, 100
2, 16200, Note_on_c, 0, 69, 0
2, 16200, Note_on_c, 0, 69, 100
2, 16560, Note_on_c, 0, 69, 0
2, 16560, End_track
3, 0, Start_track
3, 0, MIDI_port, 0
3, 0, Title_t, "--------------------------------------"
3, 0, End_track
4, 0, Start_track
4, 0, MIDI_port, 0
4, 0, Title_t, "Johann Sebastian Bach   (1685-1750)"
4, 0, End_track
5, 0, Start_track
5, 0, MIDI_port, 0
5, 0, Title_t, "Partita in A minor for Solo Flute - BWV 1013"
5, 0, End_track
6, 0, Start_track
6, 0, MIDI_port, 0
6, 0, Title_t, "3rd Movement: Sarabande"
6, 0, End_track
7, 0, Start_track
7, 0, MIDI_port, 0
7, 0, Title_t, "--------------------------------------"
7, 0, End_track
8, 0, Start_track
8, 0, MIDI_port, 0
8, 0, Title_t, "Sequenced with Cakewalk Pro Audio by"
8, 0, End_track
9, 0, Start_track
9, 0, MIDI_port, 0
9, 0, Title_t, "David J. Grossman"
9, 0, End_track
10, 0, Start_track
10, 0, MIDI_port, 0
10, 0, Title_t, "( freely distributable )"
10, 0, End_track
11, 0, Start_track
11, 0, MIDI_port, 0
11, 0, Title_t, "--------------------------------------"
11, 0, End_track
12, 0, Start_track
12, 0, MIDI_port, 0
12, 0, Title_t, "e-mail: dave@unpronounceable.com"
12, 0, End_track
13, 0, Start_track
13, 0, MIDI_port, 0
13, 0, Title_t, "visit Dave's J.S. Bach Page at:"
13, 0, End_track
14, 0, Start_track
14, 0, MIDI_port, 0
14, 0, Title_t, "http://www.unpronounceable.com/bach"
14, 0, End_track
15, 0, Start_track
15, 0, MIDI_port, 0
15, 0, Title_t, "--------------------------------------"
15, 0, End_track
16, 0, Start_track
16, 0, MIDI_port, 0
16, 0, Title_t, "Original Filename: fp-3sar.mid"
16, 0, End_track
17, 0, Start_track
17, 0, MIDI_port, 0
17, 0, Title_t, "Last Modified: 12-6-96"
17, 0, End_track
0, 0, End_of_file
